<?xml version="1.0" encoding="UTF-8" standalone="no"?>
<!DOCTYPE svg PUBLIC "-//W3C//DTD SVG 1.1//EN" "http://www.w3.org/Graphics/SVG/1.1/DTD/svg11.dtd">
<!-- Generated by Microsoft Visio, SVG Export EquipmentBox.svg Page-1 -->
<svg xmlns="http://www.w3.org/2000/svg" xmlns:xlink="http://www.w3.org/1999/xlink" xmlns:ev="http://www.w3.org/2001/xml-events"
		width="14.9531in" height="7.43719in" viewBox="0 0 1076.62 535.478" xml:space="preserve" color-interpolation-filters="sRGB"
		class="st15">
	<title>EquipmentBox</title>

	<style type="text/css">
	<![CDATA[
		.st1 {fill:#f2f2f2;stroke:#000000;stroke-linecap:round;stroke-linejoin:round;stroke-width:0.75}
		.st2 {fill:#ffffff;stroke:#000000;stroke-linecap:round;stroke-linejoin:round;stroke-width:0.75}
		.st3 {fill:#000000;font-family:Calibri;font-size:1.00001em}
		.st4 {font-size:1em;text-decoration:underline}
		.st5 {marker-end:url(#mrkr12-34);stroke:#000000;stroke-linecap:round;stroke-linejoin:round;stroke-width:0.75}
		.st6 {fill:#000000;fill-opacity:1;stroke:#000000;stroke-opacity:1;stroke-width:0.22935779816514}
		.st7 {fill:#ffffff;stroke:none;stroke-linecap:butt}
		.st8 {fill:#000000;font-family:Calibri;font-size:0.666664em}
		.st9 {fill:#ffffff;stroke:none;stroke-linecap:butt;stroke-width:7.2}
		.st10 {fill:#ffffff;fill-opacity:0}
		.st11 {stroke:#000000;stroke-linecap:round;stroke-linejoin:round;stroke-width:0.75;visibility:hidden}
		.st12 {fill:#000000;font-family:Calibri;font-size:0.833336em}
		.st13 {fill:#ffffff}
		.st14 {stroke:#000000;stroke-dasharray:1.5,0.75;stroke-linecap:butt;stroke-width:0.75}
		.st15 {fill:none;fill-rule:evenodd;font-size:12px;overflow:visible;stroke-linecap:square;stroke-miterlimit:3}
	]]>
	</style>

	<defs id="Markers">
		<g id="lend12">
			<path d="M 3 1 L 0 0 L 3 -1 " style="stroke-linecap:round;stroke-linejoin:round;fill:none"/>
		</g>
		<marker id="mrkr12-34" class="st6" orient="auto" markerUnits="strokeWidth" overflow="visible">
			<use xlink:href="#lend12" transform="scale(-4.36,-4.36) "/>
		</marker>
	</defs>
	<g>
		<title>Page-1</title>
		<g id="group1000-1" transform="translate(555.206,-495.195)">
			<title>Class</title>
			<desc>:DexpiModel</desc>
			<g id="shape1001-2">
				<title>Sheet.1001</title>
				<path d="M0 535.48 L184.25 535.48 L184.25 526.97 L0 526.97 L0 535.48 Z" class="st1"/>
			</g>
			<g id="shape1002-4" transform="translate(0,-8.50394)">
				<title>Sheet.1002</title>
				<path d="M0 535.48 L184.25 535.48 L184.25 504.07 L0 504.07 L0 535.48 Z" class="st2"/>
			</g>
			<g id="shape1004-6" transform="translate(175.748,-39.9076)">
				<title>Sheet.1004</title>
				<desc>parameter</desc>
			</g>
			<g id="shape1000-7">
				<text x="4" y="514.87" class="st3"><tspan class="st4">:DexpiModel</tspan></text>			</g>
		</g>
		<g id="group1005-10" transform="translate(0.678636,-391.836)">
			<title>Class.9</title>
			<desc>:ConceptualModel</desc>
			<g id="shape1006-11">
				<title>Sheet.1006</title>
				<path d="M0 535.48 L184.25 535.48 L184.25 526.97 L0 526.97 L0 535.48 Z" class="st1"/>
			</g>
			<g id="shape1007-13" transform="translate(0,-8.50394)">
				<title>Sheet.1007</title>
				<path d="M0 535.48 L184.25 535.48 L184.25 504.07 L0 504.07 L0 535.48 Z" class="st2"/>
			</g>
			<g id="shape1009-15" transform="translate(175.748,-39.9076)">
				<title>Sheet.1009</title>
				<desc>parameter</desc>
			</g>
			<g id="shape1005-16">
				<text x="4" y="514.87" class="st3"><tspan class="st4">:ConceptualModel</tspan></text>			</g>
		</g>
		<g id="group1010-19" transform="translate(0.678636,-309.438)">
			<title>Class.15</title>
			<desc>:CentrifugalPump</desc>
			<g id="shape1011-20">
				<title>Sheet.1011</title>
				<path d="M0 535.48 L184.25 535.48 L184.25 526.97 L0 526.97 L0 535.48 Z" class="st1"/>
			</g>
			<g id="shape1012-22" transform="translate(0,-8.50394)">
				<title>Sheet.1012</title>
				<path d="M0 535.48 L184.25 535.48 L184.25 504.07 L0 504.07 L0 535.48 Z" class="st2"/>
			</g>
			<g id="shape1014-24" transform="translate(175.748,-39.9076)">
				<title>Sheet.1014</title>
				<desc>parameter</desc>
			</g>
			<g id="shape1010-25">
				<text x="4" y="514.87" class="st3"><tspan class="st4">:CentrifugalPump</tspan></text>			</g>
		</g>
		<g id="group1015-28" transform="translate(85.718,-391.836)">
			<title>Directed Association</title>
			<desc>PipingNetworkSystems</desc>
			<g id="shape1015-29">
				<path d="M7.09 535.48 L7.09 577.97" class="st5"/>
				<rect x="-69.5574" y="550.044" width="74.7686" height="9.59985" class="st7"/>
				<text x="-69.56" y="557.24" class="st8">PipingNetworkSystems</text>			</g>
		</g>
		<g id="group1020-37" transform="translate(555.206,-373.604)">
			<title>Class.42</title>
			<desc>:Diagram</desc>
			<g id="shape1021-38">
				<title>Sheet.1021</title>
				<path d="M0 535.48 L184.25 535.48 L184.25 490.97 L0 490.97 L0 535.48 Z" class="st1"/>
			</g>
			<g id="shape1022-40" transform="translate(0,-44.5039)">
				<title>Sheet.1022</title>
				<path d="M0 535.48 L184.25 535.48 L184.25 504.07 L0 504.07 L0 535.48 Z" class="st2"/>
			</g>
			<g id="shape1024-42" transform="translate(175.748,-75.9076)">
				<title>Sheet.1024</title>
				<desc>parameter</desc>
			</g>
			<g id="shape1020-43">
				<text x="4" y="478.87" class="st3"><tspan class="st4">:Diagram</tspan></text>			</g>
		</g>
		<g id="group1025-46" transform="translate(555.206,-309.701)">
			<title>Class.50</title>
			<desc>:RepresentationGroup</desc>
			<g id="shape1026-47">
				<title>Sheet.1026</title>
				<path d="M0 535.48 L184.25 535.48 L184.25 526.97 L0 526.97 L0 535.48 Z" class="st1"/>
			</g>
			<g id="shape1027-49" transform="translate(0,-8.50394)">
				<title>Sheet.1027</title>
				<path d="M0 535.48 L184.25 535.48 L184.25 504.07 L0 504.07 L0 535.48 Z" class="st2"/>
			</g>
			<g id="shape1029-51" transform="translate(175.748,-39.9076)">
				<title>Sheet.1029</title>
				<desc>parameter</desc>
			</g>
			<g id="shape1025-52">
				<text x="4" y="514.87" class="st3"><tspan class="st4">:RepresentationGroup</tspan></text>			</g>
		</g>
		<g id="group1030-55" transform="translate(845.454,-332.363)">
			<title>Class.68</title>
			<desc>:ShapeCatalogue</desc>
			<g id="shape1031-56">
				<title>Sheet.1031</title>
				<path d="M0 535.48 L184.25 535.48 L184.25 511.81 L0 511.81 L0 535.48 Z" class="st1"/>
			</g>
			<g id="shape1032-58" transform="translate(0,-23.6693)">
				<title>Sheet.1032</title>
				<path d="M0 535.48 L184.25 535.48 L184.25 504.07 L0 504.07 L0 535.48 Z" class="st2"/>
			</g>
			<g id="shape1034-60" transform="translate(175.748,-55.073)">
				<title>Sheet.1034</title>
				<desc>parameter</desc>
			</g>
			<g id="shape1030-61">
				<text x="4" y="499.71" class="st3"><tspan class="st4">:ShapeCatalogue</tspan></text>			</g>
		</g>
		<g id="group1035-64" transform="translate(845.454,-34.4324)">
			<title>Class.76</title>
			<desc>:TaggedPlantItemShape</desc>
			<g id="shape1036-65">
				<title>Sheet.1036</title>
				<path d="M0 535.48 L184.25 535.48 L184.25 490.97 L0 490.97 L0 535.48 Z" class="st1"/>
			</g>
			<g id="shape1037-67" transform="translate(0,-44.5039)">
				<title>Sheet.1037</title>
				<path d="M0 535.48 L184.25 535.48 L184.25 504.07 L0 504.07 L0 535.48 Z" class="st2"/>
			</g>
			<g id="shape1039-69" transform="translate(175.748,-75.9076)">
				<title>Sheet.1039</title>
				<desc>parameter</desc>
			</g>
			<g id="shape1035-70">
				<text x="4" y="478.87" class="st3"><tspan class="st4">:TaggedPlantItemShape</tspan></text>			</g>
		</g>
		<g id="group1040-73" transform="translate(554.903,-167.735)">
			<title>Class.85</title>
			<desc>:Static</desc>
			<g id="shape1041-74">
				<title>Sheet.1041</title>
				<path d="M0 535.48 L184.25 535.48 L184.25 526.97 L0 526.97 L0 535.48 Z" class="st1"/>
			</g>
			<g id="shape1042-76" transform="translate(0,-8.50394)">
				<title>Sheet.1042</title>
				<path d="M0 535.48 L184.25 535.48 L184.25 504.07 L0 504.07 L0 535.48 Z" class="st2"/>
			</g>
			<g id="shape1044-78" transform="translate(175.748,-39.9076)">
				<title>Sheet.1044</title>
				<desc>parameter</desc>
			</g>
			<g id="shape1040-79">
				<text x="4" y="514.87" class="st3"><tspan class="st4">:Static</tspan></text>			</g>
		</g>
		<g id="group1045-82" transform="translate(640.246,-373.604)">
			<title>Directed Association.113</title>
			<desc>Groups</desc>
			<g id="shape1045-83">
				<path d="M7.09 535.48 L7.09 559.47" class="st5"/>
				<rect x="-25.9681" y="542.914" width="23.5898" height="9.59985" class="st9"/>
				<text x="-25.97" y="550.11" class="st8">Groups</text>			</g>
		</g>
		<g id="group1050-90" transform="translate(639.942,-167.735)">
			<title>Directed Association.123</title>
			<desc>Elements</desc>
			<g id="shape1050-91">
				<path d="M7.09 535.48 L7.09 561.24" class="st5"/>
				<rect x="-29.2255" y="543.811" width="30.1047" height="9.59985" class="st9"/>
				<text x="-29.23" y="551.01" class="st8">Elements</text>			</g>
		</g>
		<g id="group1055-98" transform="translate(640.246,-495.195)">
			<title>Directed Association.133</title>
			<desc>Diagram</desc>
			<g id="shape1055-99">
				<path d="M7.09 535.48 L7.09 581.16" class="st5"/>
				<rect x="-27.8566" y="553.971" width="27.3669" height="9.59985" class="st9"/>
				<text x="-27.86" y="561.17" class="st8">Diagram</text>			</g>
		</g>
		<g id="group1060-106" transform="translate(555.206,-515.149)">
			<title>Directed Association.138</title>
			<desc>ConceptualModel</desc>
			<g id="shape1060-107">
				<path d="M0 535.48 L-462.4 535.48 L-462.4 618.88" class="st5"/>
				<rect x="-303.571" y="545.165" width="57.882" height="9.59985" class="st9"/>
				<text x="-303.57" y="552.37" class="st8">ConceptualModel</text>			</g>
		</g>
		<g id="group1065-114" transform="translate(739.458,-515.149)">
			<title>Directed Association.143</title>
			<desc>ShapeCatalogues</desc>
			<g id="shape1065-115">
				<path d="M0 535.48 L198.12 535.48 L198.12 663.19" class="st5"/>
				<rect x="82.7296" y="544.173" width="55.6361" height="9.59985" class="st9"/>
				<text x="82.73" y="551.37" class="st8">ShapeCatalogues</text>			</g>
		</g>
		<g id="group1070-122" transform="translate(1058.9,-240.856)">
			<title>Directed Association.148</title>
			<desc>Shapes</desc>
			<g id="shape1070-123">
				<path d="M0 535.48 L0 703.95 L-29.2 703.95" class="st5"/>
				<rect x="-33.6219" y="620.094" width="23.0232" height="9.59985" class="st9"/>
				<text x="-33.62" y="627.29" class="st8">Shapes</text>			</g>
		</g>
		<g id="group1075-130" transform="translate(739.155,-79.6658)">
			<title>Directed Association.153</title>
			<desc>Shape</desc>
			<g id="shape1075-131">
				<path d="M0 542.37 L106.3 542.76" class="st5"/>
				<rect x="62.7382" y="556.545" width="19.8943" height="9.59985" class="st9"/>
				<text x="62.74" y="563.74" class="st8">Shape</text>			</g>
		</g>
		<g id="group1080-138" transform="translate(555.206,-336.61)">
			<title>Directed Association.158</title>
			<desc>Represents</desc>
			<g id="shape1080-139">
				<path d="M0 542.43 L-370.28 542.7" class="st5"/>
				<rect x="-202.33" y="538.141" width="36.4175" height="9.59985" class="st9"/>
				<text x="-202.33" y="545.34" class="st8">Represents</text>			</g>
		</g>
		<g id="group1085-146" transform="translate(654.267,-309.701)">
			<title>Directed Association.1175</title>
			<desc>Groups</desc>
			<g id="shape1085-147">
				<path d="M-6.93 535.48 L-7.24 637.54" class="st5"/>
				<rect x="-40.255" y="619.873" width="23.5898" height="9.59985" class="st9"/>
				<text x="-40.25" y="627.07" class="st8">Groups</text>			</g>
		</g>
		<g id="group1090-154" transform="translate(555.206,-404.587)">
			<title>Directed Association.1201</title>
			<desc>Represents</desc>
			<g id="shape1090-155">
				<path d="M0 528.51 L-370.28 528.28" class="st5"/>
				<rect x="-203.346" y="523.592" width="36.4175" height="9.59985" class="st9"/>
				<text x="-203.35" y="530.79" class="st8">Represents</text>			</g>
		</g>
		<g id="group1095-162" transform="translate(0.375,-174.005)">
			<title>Class.1206</title>
			<desc>:EquipmentBoxLabel</desc>
			<g id="shape1096-163">
				<title>Sheet.1096</title>
				<path d="M0 535.48 L184.25 535.48 L184.25 526.97 L0 526.97 L0 535.48 Z" class="st1"/>
			</g>
			<g id="shape1097-165" transform="translate(0,-8.50394)">
				<title>Sheet.1097</title>
				<path d="M0 535.48 L184.25 535.48 L184.25 504.07 L0 504.07 L0 535.48 Z" class="st2"/>
			</g>
			<g id="shape1099-167" transform="translate(175.748,-39.9076)">
				<title>Sheet.1099</title>
				<desc>parameter</desc>
			</g>
			<g id="shape1095-168">
				<text x="4" y="514.87" class="st3"><tspan class="st4">:EquipmentBoxLabel</tspan></text>			</g>
		</g>
		<g id="group1100-171" transform="translate(845.454,-204.319)">
			<title>Class.1219</title>
			<desc>:LabelShape</desc>
			<g id="shape1101-172">
				<title>Sheet.1101</title>
				<path d="M0 535.48 L184.25 535.48 L184.25 490.97 L0 490.97 L0 535.48 Z" class="st1"/>
			</g>
			<g id="shape1102-174" transform="translate(0,-44.5039)">
				<title>Sheet.1102</title>
				<path d="M0 535.48 L184.25 535.48 L184.25 504.07 L0 504.07 L0 535.48 Z" class="st2"/>
			</g>
			<g id="shape1104-176" transform="translate(175.748,-75.9076)">
				<title>Sheet.1104</title>
				<desc>parameter</desc>
			</g>
			<g id="shape1100-177">
				<text x="4" y="478.87" class="st3"><tspan class="st4">:LabelShape</tspan></text>			</g>
		</g>
		<g id="group1105-180" transform="translate(1022.62,-359.899)">
			<title>Directed Association.1227</title>
			<desc>Shapes</desc>
			<g id="shape1105-181">
				<path d="M7.09 535.48 L36.28 535.48 L36.28 653.1 L7.09 653.1" class="st5"/>
				<rect x="-5.84239" y="590.661" width="23.0232" height="9.59985" class="st9"/>
				<text x="-5.84" y="597.86" class="st8">Shapes</text>			</g>
		</g>
		<g id="group1110-188" transform="translate(647.029,-258.555)">
			<title>Directed Association.1264</title>
			<desc>Groups</desc>
			<g id="shape1110-189">
				<path d="M0 535.48 L-554.53 535.48 L-554.53 580.12" class="st5"/>
				<rect x="-595.732" y="564.694" width="23.5898" height="9.59985" class="st9"/>
				<text x="-595.73" y="571.89" class="st8">Groups</text>			</g>
		</g>
		<g id="group1115-196" transform="translate(85.4144,-174.005)">
			<title>Directed Association.1269</title>
			<desc>Elements</desc>
			<g id="shape1115-197">
				<path d="M7.09 535.48 L7.09 570.7" class="st5"/>
				<rect x="-34.824" y="559.514" width="30.1047" height="9.59985" class="st9"/>
				<text x="-34.82" y="566.71" class="st8">Elements</text>			</g>
		</g>
		<g id="group1120-204" transform="translate(184.627,-81.4154)">
			<title>Directed Association.1329</title>
			<desc>Shape</desc>
			<g id="shape1120-205">
				<path d="M0 535.48 L35.22 535.48 L35.22 374.62 L460.14 374.62 A2.3622 2.3622 0 1 1 464.87 374.62 L660.83 374.62"
						class="st5"/>
				<rect x="600.557" y="382.938" width="19.8943" height="9.59985" class="st9"/>
				<text x="600.56" y="390.14" class="st8">Shape</text>			</g>
		</g>
		<g id="group1125-212" transform="translate(554.903,-3.56623)">
			<title>Class.1341</title>
			<desc>:ShapeUsage</desc>
			<g id="shape1126-213">
				<title>Sheet.1126</title>
				<path d="M0 535.48 L184.25 535.48 L184.25 428.47 L0 428.47 L0 535.48 Z" class="st1"/>
			</g>
			<g id="shape1127-215" transform="translate(0,-107.008)">
				<title>Sheet.1127</title>
				<path d="M0 535.48 L184.25 535.48 L184.25 504.07 L0 504.07 L0 535.48 Z" class="st2"/>
			</g>
			<g id="shape1129-217" transform="translate(175.748,-138.412)">
				<title>Sheet.1129</title>
				<desc>parameter</desc>
			</g>
			<g id="shape1125-218">
				<text x="4" y="416.37" class="st3"><tspan class="st4">:ShapeUsage</tspan></text>			</g>
		</g>
		<g id="group1130-221" transform="translate(0.375,-0.375)">
			<title>Class.1355</title>
			<desc>:ShapeUsage</desc>
			<g id="shape1131-222">
				<title>Sheet.1131</title>
				<path d="M0 535.48 L184.25 535.48 L184.25 428.47 L0 428.47 L0 535.48 Z" class="st1"/>
			</g>
			<g id="shape1132-224" transform="translate(0,-107.008)">
				<title>Sheet.1132</title>
				<path d="M0 535.48 L184.25 535.48 L184.25 504.07 L0 504.07 L0 535.48 Z" class="st2"/>
			</g>
			<g id="shape1134-226" transform="translate(175.748,-138.412)">
				<title>Sheet.1134</title>
				<desc>parameter</desc>
			</g>
			<g id="shape1130-227">
				<text x="4" y="416.37" class="st3"><tspan class="st4">:ShapeUsage</tspan></text>			</g>
		</g>
		<g id="shape1135-230" transform="translate(558.041,-397.274)">
			<title>Member.47</title>
			<desc>MaxX = 0.04</desc>
			<rect x="0" y="517.478" width="178.583" height="18" class="st10"/>
			<rect x="0" y="517.478" width="178.583" height="18" class="st11"/>
			<text x="8.5" y="529.48" class="st12">MaxX = 0.04</text>		</g>
		<g id="shape1136-234" transform="translate(558.041,-394.439)">
			<title>Separator.48</title>
			<path d="M0 534.06 L178.58 534.06 L0 534.06 Z" class="st13"/>
			<path d="M0 534.06 L178.58 534.06" class="st14"/>
		</g>
		<g id="shape1137-237" transform="translate(558.041,-376.439)">
			<title>Member.49</title>
			<desc>MaxY = 0.04</desc>
			<rect x="0" y="517.478" width="178.583" height="18" class="st10"/>
			<rect x="0" y="517.478" width="178.583" height="18" class="st11"/>
			<text x="8.5" y="529.48" class="st12">MaxY = 0.04</text>		</g>
		<g id="shape1138-241" transform="translate(848.288,-335.198)">
			<title>Member.73</title>
			<desc>Name = &#34;Shapes&#34;</desc>
			<rect x="0" y="517.478" width="178.583" height="18" class="st10"/>
			<rect x="0" y="517.478" width="178.583" height="18" class="st11"/>
			<text x="8.5" y="529.48" class="st12">Name = &#34;Shapes&#34;</text>		</g>
		<g id="shape1139-245" transform="translate(848.288,-37.2671)">
			<title>Member.81</title>
			<desc>SymbolRegistrationNumber = &#34;PP001A&#34;</desc>
			<rect x="0" y="517.478" width="178.583" height="18" class="st10"/>
			<rect x="0" y="517.478" width="178.583" height="18" class="st11"/>
			<text x="8.5" y="529.48" class="st12">SymbolRegistrationNumber = &#34;PP001A&#34;</text>		</g>
		<g id="shape1140-249" transform="translate(848.288,-55.2671)">
			<title>Separator.82</title>
			<path d="M0 534.06 L178.58 534.06 L0 534.06 Z" class="st13"/>
			<path d="M0 534.06 L178.58 534.06" class="st14"/>
		</g>
		<g id="shape1141-252" transform="translate(848.288,-58.1017)">
			<title>Member.84</title>
			<desc>Name = &#34;CENTRIFUGAL_PUMP_SHAPE1&#34;</desc>
			<rect x="0" y="517.478" width="178.583" height="18" class="st10"/>
			<rect x="0" y="517.478" width="178.583" height="18" class="st11"/>
			<text x="8.5" y="529.48" class="st12">Name = &#34;CENTRIFUGAL_PUMP_SHAPE1&#34;</text>		</g>
		<g id="shape1142-256" transform="translate(558.041,-498.03)">
			<title>Separator.1142</title>
			<path d="M0 534.06 L178.58 534.06 L0 534.06 Z" class="st13"/>
			<path d="M0 534.06 L178.58 534.06" class="st14"/>
		</g>
		<g id="shape1143-259" transform="translate(848.288,-207.154)">
			<title>Member.1224</title>
			<desc>SymbolRegistrationNumber = &#34;STPE102&#34;</desc>
			<rect x="0" y="517.478" width="178.583" height="18" class="st10"/>
			<rect x="0" y="517.478" width="178.583" height="18" class="st11"/>
			<text x="8.5" y="529.48" class="st12">SymbolRegistrationNumber = &#34;STPE102&#34;</text>		</g>
		<g id="shape1144-263" transform="translate(848.288,-225.154)">
			<title>Separator.1225</title>
			<path d="M0 534.06 L178.58 534.06 L0 534.06 Z" class="st13"/>
			<path d="M0 534.06 L178.58 534.06" class="st14"/>
		</g>
		<g id="shape1145-266" transform="translate(848.288,-227.988)">
			<title>Member.1226</title>
			<desc>Name = &#34;EQUIPMENT_BOX_SHAPE1&#34;</desc>
			<rect x="0" y="517.478" width="178.583" height="18" class="st10"/>
			<rect x="0" y="517.478" width="178.583" height="18" class="st11"/>
			<text x="8.5" y="529.48" class="st12">Name = &#34;EQUIPMENT_BOX_SHAPE1&#34;</text>		</g>
		<g id="shape1146-270" transform="translate(557.737,-89.7395)">
			<title>Member.1346</title>
			<desc>IsMirrored:false</desc>
			<rect x="0" y="517.478" width="178.583" height="18" class="st10"/>
			<rect x="0" y="517.478" width="178.583" height="18" class="st11"/>
			<text x="8.5" y="529.48" class="st12">IsMirrored:false</text>		</g>
		<g id="shape1147-274" transform="translate(557.737,-86.9048)">
			<title>Separator.1347</title>
			<path d="M0 534.06 L178.58 534.06 L0 534.06 Z" class="st13"/>
			<path d="M0 534.06 L178.58 534.06" class="st14"/>
		</g>
		<g id="shape1148-277" transform="translate(557.737,-48.0702)">
			<title>Member.1348</title>
			<desc>Rotation = 0.0</desc>
			<rect x="0" y="517.478" width="178.583" height="18" class="st10"/>
			<rect x="0" y="517.478" width="178.583" height="18" class="st11"/>
			<text x="8.5" y="529.48" class="st12">Rotation = 0.0</text>		</g>
		<g id="shape1149-281" transform="translate(557.737,-27.2355)">
			<title>Member.1349</title>
			<desc>ScaleX = 1.0</desc>
			<rect x="0" y="517.478" width="178.583" height="18" class="st10"/>
			<rect x="0" y="517.478" width="178.583" height="18" class="st11"/>
			<text x="8.5" y="529.48" class="st12">ScaleX = 1.0</text>		</g>
		<g id="shape1150-285" transform="translate(557.737,-6.40088)">
			<title>Member.1350</title>
			<desc>ScaleY = 1.0</desc>
			<rect x="0" y="517.478" width="178.583" height="18" class="st10"/>
			<rect x="0" y="517.478" width="178.583" height="18" class="st11"/>
			<text x="8.5" y="529.48" class="st12">ScaleY = 1.0</text>		</g>
		<g id="shape1151-289" transform="translate(557.737,-24.4009)">
			<title>Separator.1351</title>
			<path d="M0 534.06 L178.58 534.06 L0 534.06 Z" class="st13"/>
			<path d="M0 534.06 L178.58 534.06" class="st14"/>
		</g>
		<g id="shape1152-292" transform="translate(557.737,-45.2355)">
			<title>Separator.1352</title>
			<path d="M0 534.06 L178.58 534.06 L0 534.06 Z" class="st13"/>
			<path d="M0 534.06 L178.58 534.06" class="st14"/>
		</g>
		<g id="shape1153-295" transform="translate(557.737,-68.9048)">
			<title>Member.1006</title>
			<desc>Position = {X=0.02, Y=0.02}</desc>
			<rect x="0" y="517.478" width="178.583" height="18" class="st10"/>
			<rect x="0" y="517.478" width="178.583" height="18" class="st11"/>
			<text x="8.5" y="529.48" class="st12">Position = {X=0.02, Y=0.02}</text>		</g>
		<g id="shape1154-299" transform="translate(557.737,-66.0702)">
			<title>Separator.1007</title>
			<path d="M0 534.06 L178.58 534.06 L0 534.06 Z" class="st13"/>
			<path d="M0 534.06 L178.58 534.06" class="st14"/>
		</g>
		<g id="shape1155-302" transform="translate(3.20965,-86.5482)">
			<title>Member.1360</title>
			<desc>IsMirrored:false</desc>
			<rect x="0" y="517.478" width="178.583" height="18" class="st10"/>
			<rect x="0" y="517.478" width="178.583" height="18" class="st11"/>
			<text x="8.5" y="529.48" class="st12">IsMirrored:false</text>		</g>
		<g id="shape1156-306" transform="translate(3.20965,-83.7136)">
			<title>Separator.1361</title>
			<path d="M0 534.06 L178.58 534.06 L0 534.06 Z" class="st13"/>
			<path d="M0 534.06 L178.58 534.06" class="st14"/>
		</g>
		<g id="shape1157-309" transform="translate(3.20965,-44.8789)">
			<title>Member.1362</title>
			<desc>Rotation = 0.0</desc>
			<rect x="0" y="517.478" width="178.583" height="18" class="st10"/>
			<rect x="0" y="517.478" width="178.583" height="18" class="st11"/>
			<text x="8.5" y="529.48" class="st12">Rotation = 0.0</text>		</g>
		<g id="shape1158-313" transform="translate(3.20965,-24.0443)">
			<title>Member.1363</title>
			<desc>ScaleX = 1.0</desc>
			<rect x="0" y="517.478" width="178.583" height="18" class="st10"/>
			<rect x="0" y="517.478" width="178.583" height="18" class="st11"/>
			<text x="8.5" y="529.48" class="st12">ScaleX = 1.0</text>		</g>
		<g id="shape1159-317" transform="translate(3.20965,-3.20965)">
			<title>Member.1364</title>
			<desc>ScaleY = 1.0</desc>
			<rect x="0" y="517.478" width="178.583" height="18" class="st10"/>
			<rect x="0" y="517.478" width="178.583" height="18" class="st11"/>
			<text x="8.5" y="529.48" class="st12">ScaleY = 1.0</text>		</g>
		<g id="shape1160-321" transform="translate(3.20965,-21.2096)">
			<title>Separator.1365</title>
			<path d="M0 534.06 L178.58 534.06 L0 534.06 Z" class="st13"/>
			<path d="M0 534.06 L178.58 534.06" class="st14"/>
		</g>
		<g id="shape1161-324" transform="translate(3.20965,-42.0443)">
			<title>Separator.1366</title>
			<path d="M0 534.06 L178.58 534.06 L0 534.06 Z" class="st13"/>
			<path d="M0 534.06 L178.58 534.06" class="st14"/>
		</g>
		<g id="shape1162-327" transform="translate(3.20965,-65.7136)">
			<title>Member.1367</title>
			<desc>Position = {X=0.02, Y=0.04}</desc>
			<rect x="0" y="517.478" width="178.583" height="18" class="st10"/>
			<rect x="0" y="517.478" width="178.583" height="18" class="st11"/>
			<text x="8.5" y="529.48" class="st12">Position = {X=0.02, Y=0.04}</text>		</g>
		<g id="shape1163-331" transform="translate(3.20965,-62.8789)">
			<title>Separator.1368</title>
			<path d="M0 534.06 L178.58 534.06 L0 534.06 Z" class="st13"/>
			<path d="M0 534.06 L178.58 534.06" class="st14"/>
		</g>
	</g>
</svg>
