<?xml version="1.0" encoding="UTF-8" standalone="no"?>
<!DOCTYPE svg PUBLIC "-//W3C//DTD SVG 1.1//EN" "http://www.w3.org/Graphics/SVG/1.1/DTD/svg11.dtd">
<!-- Generated by Microsoft Visio, SVG Export Notes.svg Page-1 -->
<svg xmlns="http://www.w3.org/2000/svg" xmlns:xlink="http://www.w3.org/1999/xlink" xmlns:ev="http://www.w3.org/2001/xml-events"
		width="6.84962in" height="4.9939in" viewBox="0 0 493.173 359.561" xml:space="preserve" color-interpolation-filters="sRGB"
		class="st16">
	<title>Notes</title>

	<style type="text/css">
	<![CDATA[
		.st1 {fill:#f2f2f2;stroke:#000000;stroke-linecap:round;stroke-linejoin:round;stroke-width:0.75}
		.st2 {fill:#ffffff;stroke:#000000;stroke-linecap:round;stroke-linejoin:round;stroke-width:0.75}
		.st3 {fill:#000000;font-family:Calibri;font-size:1.00001em}
		.st4 {font-size:1em;text-decoration:underline}
		.st5 {marker-end:url(#mrkr12-25);stroke:#000000;stroke-linecap:round;stroke-linejoin:round;stroke-width:0.75}
		.st6 {fill:#000000;fill-opacity:1;stroke:#000000;stroke-opacity:1;stroke-width:0.22935779816514}
		.st7 {fill:#ffffff;stroke:none;stroke-linecap:butt;stroke-width:7.2}
		.st8 {fill:#000000;font-family:Calibri;font-size:0.666664em}
		.st9 {fill:#ffffff;stroke:none;stroke-linecap:butt}
		.st10 {fill:#ffffff;fill-opacity:0}
		.st11 {stroke:#000000;stroke-linecap:round;stroke-linejoin:round;stroke-width:0.75;visibility:hidden}
		.st12 {fill:#000000;font-family:Calibri;font-size:0.833336em}
		.st13 {fill:#ffffff}
		.st14 {stroke:#000000;stroke-dasharray:1.5,0.75;stroke-linecap:butt;stroke-width:0.75}
		.st15 {font-size:1em}
		.st16 {fill:none;fill-rule:evenodd;font-size:12px;overflow:visible;stroke-linecap:square;stroke-miterlimit:3}
	]]>
	</style>

	<defs id="Markers">
		<g id="lend12">
			<path d="M 3 1 L 0 0 L 3 -1 " style="stroke-linecap:round;stroke-linejoin:round;fill:none"/>
		</g>
		<marker id="mrkr12-25" class="st6" orient="auto" markerUnits="strokeWidth" overflow="visible">
			<use xlink:href="#lend12" transform="scale(-4.36,-4.36) "/>
		</marker>
	</defs>
	<g>
		<title>Page-1</title>
		<g id="group1000-1" transform="translate(25.1014,-237.702)">
			<title>Class.1000</title>
			<desc>:CentrifugalPump</desc>
			<g id="shape1001-2">
				<title>Sheet.1001</title>
				<path d="M0 359.56 L184.25 359.56 L184.25 351.06 L0 351.06 L0 359.56 Z" class="st1"/>
			</g>
			<g id="shape1002-4" transform="translate(0,-8.50394)">
				<title>Sheet.1002</title>
				<path d="M0 359.56 L184.25 359.56 L184.25 328.16 L0 328.16 L0 359.56 Z" class="st2"/>
			</g>
			<g id="shape1004-6" transform="translate(175.748,-39.9076)">
				<title>Sheet.1004</title>
				<desc>parameter</desc>
			</g>
			<g id="shape1000-7">
				<text x="4" y="338.96" class="st3"><tspan class="st4">:CentrifugalPump</tspan></text>			</g>
		</g>
		<g id="group1020-10" transform="translate(25.1014,-319.278)">
			<title>Class.1221</title>
			<desc>:ConceptualModel</desc>
			<g id="shape1021-11">
				<title>Sheet.1021</title>
				<path d="M0 359.56 L184.25 359.56 L184.25 351.06 L0 351.06 L0 359.56 Z" class="st1"/>
			</g>
			<g id="shape1022-13" transform="translate(0,-8.50394)">
				<title>Sheet.1022</title>
				<path d="M0 359.56 L184.25 359.56 L184.25 328.16 L0 328.16 L0 359.56 Z" class="st2"/>
			</g>
			<g id="shape1024-15" transform="translate(175.748,-39.9076)">
				<title>Sheet.1024</title>
				<desc>parameter</desc>
			</g>
			<g id="shape1020-16">
				<text x="4" y="338.96" class="st3"><tspan class="st4">:ConceptualModel</tspan></text>			</g>
		</g>
		<g id="group1025-19" transform="translate(110.141,-319.278)">
			<title>Directed Association.1228</title>
			<desc>TaggedPlantItems</desc>
			<g id="shape1025-20">
				<path d="M7.09 359.56 L7.09 401.23" class="st5"/>
				<rect x="-78.5046" y="382.996" width="58.3234" height="9.59985" class="st7"/>
				<text x="-78.5" y="390.2" class="st8">TaggedPlantItems</text>			</g>
		</g>
		<g id="group1043-28" transform="translate(284.586,-237.702)">
			<title>Class.1043</title>
			<desc>:MetaData</desc>
			<g id="shape1044-29">
				<title>Sheet.1044</title>
				<path d="M0 359.56 L184.25 359.56 L184.25 351.06 L0 351.06 L0 359.56 Z" class="st1"/>
			</g>
			<g id="shape1045-31" transform="translate(0,-8.50394)">
				<title>Sheet.1045</title>
				<path d="M0 359.56 L184.25 359.56 L184.25 328.16 L0 328.16 L0 359.56 Z" class="st2"/>
			</g>
			<g id="shape1047-33" transform="translate(175.748,-39.9076)">
				<title>Sheet.1047</title>
				<desc>parameter</desc>
			</g>
			<g id="shape1043-34">
				<text x="4" y="338.96" class="st3"><tspan class="st4">:MetaData</tspan></text>			</g>
		</g>
		<g id="group1051-37" transform="translate(209.353,-339.232)">
			<title>Directed Association.1051</title>
			<desc>MetaData</desc>
			<g id="shape1051-38">
				<path d="M0 359.56 L167.36 359.56 L167.36 421.18" class="st5"/>
				<rect x="115.627" y="398.359" width="32.5973" height="9.59985" class="st9"/>
				<text x="115.63" y="405.56" class="st8">MetaData</text>			</g>
		</g>
		<g id="group1056-45" transform="translate(259.223,-0.375)">
			<title>Class.1056</title>
			<desc>:CustomString</desc>
			<g id="shape1057-46">
				<title>Sheet.1057</title>
				<path d="M0 359.56 L233.57 359.56 L233.57 216.22 L0 216.22 L0 359.56 Z" class="st1"/>
			</g>
			<g id="shape1058-48" transform="translate(0,-143.342)">
				<title>Sheet.1058</title>
				<path d="M0 359.56 L233.57 359.56 L233.57 328.16 L0 328.16 L0 359.56 Z" class="st2"/>
			</g>
			<g id="shape1060-50" transform="translate(225.071,-174.746)">
				<title>Sheet.1060</title>
				<desc>parameter</desc>
			</g>
			<g id="shape1056-51">
				<text x="4" y="204.12" class="st3"><tspan class="st4">:CustomString</tspan></text>			</g>
		</g>
		<g id="group1064-54" transform="translate(383.448,-237.702)">
			<title>Directed Association.1064</title>
			<desc>CustomAttributes</desc>
			<g id="shape1064-55">
				<path d="M-6.74 359.56 L-7.44 422.14" class="st5"/>
				<rect x="-35.9337" y="386.051" width="57.6944" height="9.59985" class="st7"/>
				<text x="-35.93" y="393.25" class="st8">CustomAttributes</text>			</g>
		</g>
		<g id="group1070-62" transform="translate(0.375,-78.3789)">
			<title>Class.1070</title>
			<desc>:CustomString</desc>
			<g id="shape1071-63">
				<title>Sheet.1071</title>
				<path d="M0 359.56 L233.57 359.56 L233.57 294.22 L0 294.22 L0 359.56 Z" class="st1"/>
			</g>
			<g id="shape1072-65" transform="translate(0,-65.3386)">
				<title>Sheet.1072</title>
				<path d="M0 359.56 L233.57 359.56 L233.57 328.16 L0 328.16 L0 359.56 Z" class="st2"/>
			</g>
			<g id="shape1074-67" transform="translate(225.071,-96.7423)">
				<title>Sheet.1074</title>
				<desc>parameter</desc>
			</g>
			<g id="shape1070-68">
				<text x="4" y="282.12" class="st3"><tspan class="st4">:CustomString</tspan></text>			</g>
		</g>
		<g id="group1079-71" transform="translate(124.282,-237.702)">
			<title>Directed Association.1079</title>
			<desc>CustomAttributes</desc>
			<g id="shape1079-72">
				<path d="M-7.05 359.56 L-7.12 422.14" class="st5"/>
				<rect x="-99.688" y="404.831" width="57.6944" height="9.59985" class="st7"/>
				<text x="-99.69" y="412.03" class="st8">CustomAttributes</text>			</g>
		</g>
		<g id="shape1061-79" transform="translate(262.058,-122.883)">
			<title>Member.1061</title>
			<desc>AttributeName = &#34;Notes&#34;</desc>
			<rect x="0" y="341.561" width="227.906" height="18" class="st10"/>
			<rect x="0" y="341.561" width="227.906" height="18" class="st11"/>
			<text x="8.5" y="353.56" class="st12">AttributeName = &#34;Notes&#34;</text>		</g>
		<g id="shape1062-83" transform="translate(262.058,-120.048)">
			<title>Separator.1062</title>
			<path d="M0 358.14 L227.91 358.14 L0 358.14 Z" class="st13"/>
			<path d="M0 358.14 L227.91 358.14" class="st14"/>
		</g>
		<g id="shape1063-86" transform="translate(262.058,-102.048)">
			<title>Member.1063</title>
			<desc>AttributeURI = &#34;http://sandbox.dexpi.org/rdl/Notes&#34;</desc>
			<rect x="0" y="341.561" width="227.906" height="18" class="st10"/>
			<rect x="0" y="341.561" width="227.906" height="18" class="st11"/>
			<text x="8.5" y="353.56" class="st12">AttributeURI = &#34;http://sandbox.dexpi.org/rdl/Notes&#34;</text>		</g>
		<g id="shape1069-90" transform="translate(262.058,-3.20965)">
			<title>Member.1069</title>
			<desc>Value = &#34;{ ID=&#34;Note-1&#34;, Name=&#34;NOTE 1&#34;, Text=&#34;CAUTION, HOT!&#34;, ...</desc>
			<rect x="0" y="263.557" width="227.906" height="96.0039" class="st10"/>
			<rect x="0" y="263.557" width="227.906" height="96.0039" class="st11"/>
			<text x="8.5" y="272.56" class="st12">Value = &#34;{ <tspan x="8.5" dy="1.2em" class="st15">            </tspan>ID=&#34;Note-1&#34;, <tspan
						x="8.5" dy="1.2em" class="st15">            </tspan>Name=&#34;NOTE 1&#34;, <tspan x="8.5" dy="1.2em"
						class="st15">            </tspan>Text=&#34;CAUTION, HOT!&#34;, <tspan x="8.5" dy="1.2em" class="st15">            </tspan>PersistentIDs=[ <tspan
						x="8.5" dy="1.2em" class="st15">                </tspan>{Identifier=&#34;hw893&#34; <tspan x="8.5"
						dy="1.2em" class="st15">Context=&#34;PidMaker123&#34;}, </tspan><tspan x="8.5" dy="1.2em" class="st15">                </tspan>{Identifier=&#34;1&#34; Context=&#34;PID Fix Pro&#34;}]}&#34;</text>		</g>
		<g id="shape1075-101" transform="translate(3.20965,-122.883)">
			<title>Member.1075</title>
			<desc>AttributeName = &#34;Notes&#34;</desc>
			<rect x="0" y="341.561" width="227.906" height="18" class="st10"/>
			<rect x="0" y="341.561" width="227.906" height="18" class="st11"/>
			<text x="8.5" y="353.56" class="st12">AttributeName =  &#34;Notes&#34;</text>		</g>
		<g id="shape1076-105" transform="translate(3.20965,-99.2135)">
			<title>Separator.1076</title>
			<path d="M0 358.14 L227.91 358.14 L0 358.14 Z" class="st13"/>
			<path d="M0 358.14 L227.91 358.14" class="st14"/>
		</g>
		<g id="shape1077-108" transform="translate(3.20965,-102.048)">
			<title>Member.1077</title>
			<desc>AttributeURI = &#34;http://sandbox.dexpi.org/rdl/Notes&#34;</desc>
			<rect x="0" y="341.561" width="227.906" height="18" class="st10"/>
			<rect x="0" y="341.561" width="227.906" height="18" class="st11"/>
			<text x="8.5" y="353.56" class="st12">AttributeURI = &#34;http://sandbox.dexpi.org/rdl/Notes&#34;</text>		</g>
		<g id="shape1078-112" transform="translate(3.20965,-81.2135)">
			<title>Member.1078</title>
			<desc>Value = &#34;Note-1&#34;</desc>
			<rect x="0" y="341.561" width="227.906" height="18" class="st10"/>
			<rect x="0" y="341.561" width="227.906" height="18" class="st11"/>
			<text x="8.5" y="353.56" class="st12">Value = &#34;Note-1&#34;</text>		</g>
		<g id="shape1084-116" transform="translate(3.20965,-120.048)">
			<title>Separator.1084</title>
			<path d="M0 358.14 L227.91 358.14 L0 358.14 Z" class="st13"/>
			<path d="M0 358.14 L227.91 358.14" class="st14"/>
		</g>
		<g id="shape1085-119" transform="translate(262.058,-99.2135)">
			<title>Separator.1085</title>
			<path d="M0 358.14 L227.91 358.14 L0 358.14 Z" class="st13"/>
			<path d="M0 358.14 L227.91 358.14" class="st14"/>
		</g>
	</g>
</svg>
