<?xml version="1.0" encoding="UTF-8" standalone="no"?>
<!DOCTYPE svg PUBLIC "-//W3C//DTD SVG 1.1//EN" "http://www.w3.org/Graphics/SVG/1.1/DTD/svg11.dtd">
<!-- Generated by Microsoft Visio, SVG Export OffPageConnector_In.svg Page-1 -->
<svg xmlns="http://www.w3.org/2000/svg" xmlns:xlink="http://www.w3.org/1999/xlink" xmlns:ev="http://www.w3.org/2001/xml-events"
		width="9.7945in" height="5.74396in" viewBox="0 0 705.204 413.565" xml:space="preserve" color-interpolation-filters="sRGB"
		class="st15">
	<title>OffPageConnector_In</title>

	<style type="text/css">
	<![CDATA[
		.st1 {fill:#f2f2f2;stroke:#000000;stroke-linecap:round;stroke-linejoin:round;stroke-width:0.75}
		.st2 {fill:#ffffff;stroke:#000000;stroke-linecap:round;stroke-linejoin:round;stroke-width:0.75}
		.st3 {fill:#000000;font-family:Calibri;font-size:1.00001em}
		.st4 {font-size:1em;text-decoration:underline}
		.st5 {marker-end:url(#mrkr12-25);stroke:#000000;stroke-linecap:round;stroke-linejoin:round;stroke-width:0.75}
		.st6 {fill:#000000;fill-opacity:1;stroke:#000000;stroke-opacity:1;stroke-width:0.22935779816514}
		.st7 {fill:#ffffff;stroke:none;stroke-linecap:butt;stroke-width:7.2}
		.st8 {fill:#000000;font-family:Calibri;font-size:0.666664em}
		.st9 {fill:#ffffff;stroke:none;stroke-linecap:butt}
		.st10 {fill:#ffffff;fill-opacity:0}
		.st11 {stroke:#000000;stroke-linecap:round;stroke-linejoin:round;stroke-width:0.75;visibility:hidden}
		.st12 {fill:#000000;font-family:Calibri;font-size:0.833336em}
		.st13 {fill:#ffffff}
		.st14 {stroke:#000000;stroke-dasharray:1.5,0.75;stroke-linecap:butt;stroke-width:0.75}
		.st15 {fill:none;fill-rule:evenodd;font-size:12px;overflow:visible;stroke-linecap:square;stroke-miterlimit:3}
	]]>
	</style>

	<defs id="Markers">
		<g id="lend12">
			<path d="M 3 1 L 0 0 L 3 -1 " style="stroke-linecap:round;stroke-linejoin:round;fill:none"/>
		</g>
		<marker id="mrkr12-25" class="st6" orient="auto" markerUnits="strokeWidth" overflow="visible">
			<use xlink:href="#lend12" transform="scale(-4.36,-4.36) "/>
		</marker>
	</defs>
	<g>
		<title>Page-1</title>
		<g id="group1-1" transform="translate(169.526,-229.759)">
			<title>Class.1000</title>
			<desc>:PipingNetworkSegment</desc>
			<g id="shape2-2">
				<title>Sheet.2</title>
				<path d="M0 413.57 L184.25 413.57 L184.25 405.06 L0 405.06 L0 413.57 Z" class="st1"/>
			</g>
			<g id="shape3-4" transform="translate(0,-8.50394)">
				<title>Sheet.3</title>
				<path d="M0 413.57 L184.25 413.57 L184.25 382.16 L0 382.16 L0 413.57 Z" class="st2"/>
			</g>
			<g id="shape5-6" transform="translate(175.748,-39.9076)">
				<title>Sheet.5</title>
				<desc>parameter</desc>
			</g>
			<g id="shape1-7">
				<text x="4" y="392.96" class="st3"><tspan class="st4">:PipingNetworkSegment</tspan></text>			</g>
		</g>
		<g id="group6-10" transform="translate(148.266,-296.302)">
			<title>Class.1007</title>
			<desc>:PipingNetworkSystem</desc>
			<g id="shape7-11">
				<title>Sheet.7</title>
				<path d="M0 413.57 L226.77 413.57 L226.77 405.06 L0 405.06 L0 413.57 Z" class="st1"/>
			</g>
			<g id="shape8-13" transform="translate(0,-8.50394)">
				<title>Sheet.8</title>
				<path d="M0 413.57 L226.77 413.57 L226.77 382.16 L0 382.16 L0 413.57 Z" class="st2"/>
			</g>
			<g id="shape10-15" transform="translate(218.268,-39.9076)">
				<title>Sheet.10</title>
				<desc>parameter</desc>
			</g>
			<g id="shape6-16">
				<text x="4" y="392.96" class="st3"><tspan class="st4">:PipingNetworkSystem</tspan></text>			</g>
		</g>
		<g id="group11-19" transform="translate(254.566,-296.302)">
			<title>Directed Association.1025</title>
			<desc>Segments</desc>
			<g id="shape11-20">
				<path d="M7.09 413.57 L7.09 440.2" class="st5"/>
				<rect x="-61.7017" y="420.889" width="31.804" height="9.59985" class="st7"/>
				<text x="-61.7" y="428.09" class="st8">Segments</text>			</g>
		</g>
		<g id="group16-28" transform="translate(188.923,-13.2422)">
			<title>Directed Association.1055</title>
			<desc>SourceNode</desc>
			<g id="shape16-29">
				<path d="M0 406.48 L152.94 406.48" class="st5"/>
				<rect x="56.5633" y="401.679" width="39.8161" height="9.59985" class="st7"/>
				<text x="56.56" y="408.88" class="st8">SourceNode</text>			</g>
		</g>
		<g id="group21-36" transform="translate(341.866,-0.375)">
			<title>Class.1081</title>
			<desc>:PipingNode</desc>
			<g id="shape22-37">
				<title>Sheet.22</title>
				<path d="M0 413.57 L107.72 413.57 L107.72 405.06 L0 405.06 L0 413.57 Z" class="st1"/>
			</g>
			<g id="shape23-39" transform="translate(0,-8.50394)">
				<title>Sheet.23</title>
				<path d="M0 413.57 L107.72 413.57 L107.72 382.16 L0 382.16 L0 413.57 Z" class="st2"/>
			</g>
			<g id="shape25-41" transform="translate(99.2126,-39.9076)">
				<title>Sheet.25</title>
				<desc>parameter</desc>
			</g>
			<g id="shape21-42">
				<text x="4" y="392.96" class="st3"><tspan class="st4">:PipingNode</tspan></text>			</g>
		</g>
		<g id="group36-45" transform="translate(298.703,-144.719)">
			<title>Class.1111</title>
			<desc>:FlowInPipeOffPageConnector</desc>
			<g id="shape37-46">
				<title>Sheet.37</title>
				<path d="M0 413.57 L195.13 413.57 L195.13 405.06 L0 405.06 L0 413.57 Z" class="st1"/>
			</g>
			<g id="shape38-48" transform="translate(0,-8.50394)">
				<title>Sheet.38</title>
				<path d="M0 413.57 L195.13 413.57 L195.13 382.16 L0 382.16 L0 413.57 Z" class="st2"/>
			</g>
			<g id="shape40-50" transform="translate(186.624,-39.9076)">
				<title>Sheet.40</title>
				<desc>parameter</desc>
			</g>
			<g id="shape36-51">
				<text x="4" y="392.96" class="st3"><tspan class="st4">:FlowInPipeOffPageConnector</tspan></text>			</g>
		</g>
		<g id="group41-54" transform="translate(81.2068,-0.375)">
			<title>Class.1117</title>
			<desc>:Pipe</desc>
			<g id="shape42-55">
				<title>Sheet.42</title>
				<path d="M0 413.57 L107.72 413.57 L107.72 405.06 L0 405.06 L0 413.57 Z" class="st1"/>
			</g>
			<g id="shape43-57" transform="translate(0,-8.50394)">
				<title>Sheet.43</title>
				<path d="M0 413.57 L107.72 413.57 L107.72 382.16 L0 382.16 L0 413.57 Z" class="st2"/>
			</g>
			<g id="shape45-59" transform="translate(99.2126,-39.9076)">
				<title>Sheet.45</title>
				<desc>parameter</desc>
			</g>
			<g id="shape41-60">
				<text x="4" y="392.96" class="st3"><tspan class="st4">:Pipe</tspan></text>			</g>
		</g>
		<g id="group61-63" transform="translate(81.2068,-13.5813)">
			<title>Directed Association.1141</title>
			<desc>TargetNode</desc>
			<g id="shape61-64">
				<path d="M0 406.82 L-70.87 406.14" class="st5"/>
				<rect x="-54.6887" y="401.679" width="38.5115" height="9.59985" class="st9"/>
				<text x="-54.69" y="408.88" class="st8">TargetNode</text>			</g>
		</g>
		<g id="group66-71" transform="translate(403.082,-144.719)">
			<title>Directed Association.1156</title>
			<desc>Nodes</desc>
			<g id="shape66-72">
				<path d="M-6.81 413.57 L-7.36 518" class="st5"/>
				<rect x="-17.4343" y="460.984" width="20.6952" height="9.59985" class="st7"/>
				<text x="-17.43" y="468.18" class="st8">Nodes</text>			</g>
		</g>
		<g id="group91-79" transform="translate(261.652,-229.759)">
			<title>Directed Association.1201</title>
			<desc>Connections</desc>
			<g id="shape91-80">
				<path d="M0 413.57 L0 431.22 L-126.59 431.22 L-126.59 603.04" class="st5"/>
				<rect x="-115.566" y="563.724" width="40.3198" height="9.59985" class="st7"/>
				<text x="-115.57" y="570.92" class="st8">Connections</text>			</g>
		</g>
		<g id="group96-87" transform="translate(261.652,-212.101)">
			<title>Directed Association.1206</title>
			<desc>Items</desc>
			<g id="shape96-88">
				<path d="M0 413.57 L134.62 413.57 L134.62 441.04" class="st5"/>
				<rect x="146.808" y="419.112" width="18.195" height="9.59985" class="st9"/>
				<text x="146.81" y="426.31" class="st8">Items</text>			</g>
		</g>
		<g id="group111-95" transform="translate(169.526,-373.283)">
			<title>Class.1221</title>
			<desc>:ConceptualModel</desc>
			<g id="shape112-96">
				<title>Sheet.112</title>
				<path d="M0 413.57 L184.25 413.57 L184.25 405.06 L0 405.06 L0 413.57 Z" class="st1"/>
			</g>
			<g id="shape113-98" transform="translate(0,-8.50394)">
				<title>Sheet.113</title>
				<path d="M0 413.57 L184.25 413.57 L184.25 382.16 L0 382.16 L0 413.57 Z" class="st2"/>
			</g>
			<g id="shape115-100" transform="translate(175.748,-39.9076)">
				<title>Sheet.115</title>
				<desc>parameter</desc>
			</g>
			<g id="shape111-101">
				<text x="4" y="392.96" class="st3"><tspan class="st4">:ConceptualModel</tspan></text>			</g>
		</g>
		<g id="group116-104" transform="translate(254.566,-373.283)">
			<title>Directed Association.1228</title>
			<desc>PipingNetworkSystems</desc>
			<g id="shape116-105">
				<path d="M7.09 413.57 L7.09 450.64" class="st5"/>
				<rect x="-69.0107" y="427.342" width="74.7686" height="9.59985" class="st7"/>
				<text x="-69.01" y="434.54" class="st8">PipingNetworkSystems</text>			</g>
		</g>
		<g id="group121-112" transform="translate(467.181,-23.4531)">
			<title>Class.121</title>
			<desc>:PipeOffPageConnectorReferenceByNumber</desc>
			<g id="shape122-113">
				<title>Sheet.122</title>
				<path d="M0 413.57 L237.65 413.57 L237.65 369.06 L0 369.06 L0 413.57 Z" class="st1"/>
			</g>
			<g id="shape123-115" transform="translate(0,-44.5039)">
				<title>Sheet.123</title>
				<path d="M0 413.57 L237.65 413.57 L237.65 382.16 L0 382.16 L0 413.57 Z" class="st2"/>
			</g>
			<g id="shape125-117" transform="translate(229.144,-75.9076)">
				<title>Sheet.125</title>
				<desc>parameter</desc>
			</g>
			<g id="shape121-118">
				<text x="4" y="356.96" class="st3"><tspan class="st4">:PipeOffPageConnectorReferenceByNumber</tspan></text>			</g>
		</g>
		<g id="group134-121" transform="translate(493.832,-164.673)">
			<title>Directed Association</title>
			<desc>ConnectorReference</desc>
			<g id="shape134-122">
				<path d="M0 413.57 L92.17 413.57 L92.17 478.88" class="st5"/>
				<rect x="99.5333" y="455.756" width="67.0226" height="9.59985" class="st7"/>
				<text x="99.53" y="462.96" class="st8">ConnectorReference</text>			</g>
		</g>
		<g id="shape126-129" transform="translate(470.016,-47.1224)">
			<title>Member</title>
			<desc>-ReferencedConnectorNumber</desc>
			<rect x="0" y="395.565" width="231.978" height="18" class="st10"/>
			<rect x="0" y="395.565" width="231.978" height="18" class="st11"/>
			<text x="8.5" y="407.57" class="st12">-ReferencedConnectorNumber</text>		</g>
		<g id="shape127-133" transform="translate(470.016,-44.2877)">
			<title>Separator</title>
			<path d="M0 412.15 L231.98 412.15 L0 412.15 Z" class="st13"/>
			<path d="M0 412.15 L231.98 412.15" class="st14"/>
		</g>
		<g id="shape128-136" transform="translate(470.016,-26.2877)">
			<title>Member.128</title>
			<desc>-ReferencedDrawingNumber</desc>
			<rect x="0" y="395.565" width="231.978" height="18" class="st10"/>
			<rect x="0" y="395.565" width="231.978" height="18" class="st11"/>
			<text x="8.5" y="407.57" class="st12">-ReferencedDrawingNumber</text>		</g>
	</g>
</svg>
