<?xml version="1.0" encoding="UTF-8" standalone="no"?>
<!DOCTYPE svg PUBLIC "-//W3C//DTD SVG 1.1//EN" "http://www.w3.org/Graphics/SVG/1.1/DTD/svg11.dtd">
<!-- Generated by Microsoft Visio, SVG Export ShapeModel.svg Page-1 -->
<svg xmlns="http://www.w3.org/2000/svg" xmlns:xlink="http://www.w3.org/1999/xlink" xmlns:ev="http://www.w3.org/2001/xml-events"
		width="10.4466in" height="6.84147in" viewBox="0 0 752.154 492.586" xml:space="preserve" color-interpolation-filters="sRGB"
		class="st14">
	<title>ShapeModel</title>

	<style type="text/css">
	<![CDATA[
		.st1 {fill:#f2f2f2;stroke:#000000;stroke-linecap:round;stroke-linejoin:round;stroke-width:0.75}
		.st2 {fill:#ffffff;stroke:#000000;stroke-linecap:round;stroke-linejoin:round;stroke-width:0.75}
		.st3 {fill:#000000;font-family:Calibri;font-size:1.00001em}
		.st4 {font-size:1em;text-decoration:underline}
		.st5 {marker-end:url(#mrkr12-43);stroke:#000000;stroke-linecap:round;stroke-linejoin:round;stroke-width:0.75}
		.st6 {fill:#000000;fill-opacity:1;stroke:#000000;stroke-opacity:1;stroke-width:0.22935779816514}
		.st7 {fill:#ffffff;stroke:none;stroke-linecap:butt;stroke-width:7.2}
		.st8 {fill:#000000;font-family:Calibri;font-size:0.666664em}
		.st9 {fill:#ffffff;fill-opacity:0}
		.st10 {stroke:#000000;stroke-linecap:round;stroke-linejoin:round;stroke-width:0.75;visibility:hidden}
		.st11 {fill:#000000;font-family:Calibri;font-size:0.833336em}
		.st12 {fill:#ffffff}
		.st13 {stroke:#000000;stroke-dasharray:1.5,0.75;stroke-linecap:butt;stroke-width:0.75}
		.st14 {fill:none;fill-rule:evenodd;font-size:12px;overflow:visible;stroke-linecap:square;stroke-miterlimit:3}
	]]>
	</style>

	<defs id="Markers">
		<g id="lend12">
			<path d="M 3 1 L 0 0 L 3 -1 " style="stroke-linecap:round;stroke-linejoin:round;fill:none"/>
		</g>
		<marker id="mrkr12-43" class="st6" orient="auto" markerUnits="strokeWidth" overflow="visible">
			<use xlink:href="#lend12" transform="scale(-4.36,-4.36) "/>
		</marker>
	</defs>
	<g>
		<title>Page-1</title>
		<g id="group1-1" transform="translate(282.038,-452.303)">
			<title>Class</title>
			<desc>:DexpiModel</desc>
			<g id="shape2-2">
				<title>Sheet.2</title>
				<path d="M0 492.59 L184.25 492.59 L184.25 484.08 L0 484.08 L0 492.59 Z" class="st1"/>
			</g>
			<g id="shape3-4" transform="translate(0,-8.50394)">
				<title>Sheet.3</title>
				<path d="M0 492.59 L184.25 492.59 L184.25 461.18 L0 461.18 L0 492.59 Z" class="st2"/>
			</g>
			<g id="shape5-6" transform="translate(175.748,-39.9076)">
				<title>Sheet.5</title>
				<desc>parameter</desc>
			</g>
			<g id="shape1-7">
				<text x="4" y="471.98" class="st3"><tspan class="st4">:DexpiModel</tspan></text>			</g>
		</g>
		<g id="group9-10" transform="translate(0.375,-353.112)">
			<title>Class.9</title>
			<desc>:ConceptualModel</desc>
			<g id="shape10-11">
				<title>Sheet.10</title>
				<path d="M0 492.59 L184.25 492.59 L184.25 484.08 L0 484.08 L0 492.59 Z" class="st1"/>
			</g>
			<g id="shape11-13" transform="translate(0,-8.50394)">
				<title>Sheet.11</title>
				<path d="M0 492.59 L184.25 492.59 L184.25 461.18 L0 461.18 L0 492.59 Z" class="st2"/>
			</g>
			<g id="shape13-15" transform="translate(175.748,-39.9076)">
				<title>Sheet.13</title>
				<desc>parameter</desc>
			</g>
			<g id="shape9-16">
				<text x="4" y="471.98" class="st3"><tspan class="st4">:ConceptualModel</tspan></text>			</g>
		</g>
		<g id="group15-19" transform="translate(0.375,-242.058)">
			<title>Class.15</title>
			<desc>:CentrifugalPump</desc>
			<g id="shape16-20">
				<title>Sheet.16</title>
				<path d="M0 492.59 L184.25 492.59 L184.25 450.92 L0 450.92 L0 492.59 Z" class="st1"/>
			</g>
			<g id="shape17-22" transform="translate(0,-41.6693)">
				<title>Sheet.17</title>
				<path d="M0 492.59 L184.25 492.59 L184.25 461.18 L0 461.18 L0 492.59 Z" class="st2"/>
			</g>
			<g id="shape19-24" transform="translate(175.748,-73.073)">
				<title>Sheet.19</title>
				<desc>parameter</desc>
			</g>
			<g id="shape15-25">
				<text x="4" y="438.81" class="st3"><tspan class="st4">:CentrifugalPump</tspan></text>			</g>
		</g>
		<g id="group23-28" transform="translate(0.375,-131.562)">
			<title>Class.23</title>
			<desc>CustomAttribute</desc>
			<g id="shape24-29">
				<title>Sheet.24</title>
				<path d="M0 492.59 L184.25 492.59 L184.25 448.08 L0 448.08 L0 492.59 Z" class="st1"/>
			</g>
			<g id="shape25-31" transform="translate(0,-44.5039)">
				<title>Sheet.25</title>
				<path d="M0 492.59 L184.25 492.59 L184.25 461.18 L0 461.18 L0 492.59 Z" class="st2"/>
			</g>
			<g id="shape27-33" transform="translate(175.748,-75.9076)">
				<title>Sheet.27</title>
				<desc>parameter</desc>
			</g>
			<g id="shape23-34">
				<text x="4" y="435.98" class="st3"><tspan class="st4">CustomAttribute</tspan></text>			</g>
		</g>
		<g id="group31-37" transform="translate(85.4144,-353.112)">
			<title>Directed Association</title>
			<desc>TaggedPlantItems</desc>
			<g id="shape31-38">
				<path d="M7.09 492.59 L7.09 530.57" class="st5"/>
				<rect x="-62.7372" y="513.148" width="58.3234" height="9.59985" class="st7"/>
				<text x="-62.74" y="520.35" class="st8">TaggedPlantItems</text>			</g>
		</g>
		<g id="group36-46" transform="translate(85.4144,-242.058)">
			<title>Directed Association.36</title>
			<desc>CustomAttributes</desc>
			<g id="shape36-47">
				<path d="M7.09 492.59 L7.09 527.17" class="st5"/>
				<rect x="-61.0203" y="513.208" width="57.6944" height="9.59985" class="st7"/>
				<text x="-61.02" y="520.41" class="st8">CustomAttributes</text>			</g>
		</g>
		<g id="group42-54" transform="translate(282.038,-335.566)">
			<title>Class.42</title>
			<desc>:Diagram</desc>
			<g id="shape43-55">
				<title>Sheet.43</title>
				<path d="M0 492.59 L184.25 492.59 L184.25 448.08 L0 448.08 L0 492.59 Z" class="st1"/>
			</g>
			<g id="shape44-57" transform="translate(0,-44.5039)">
				<title>Sheet.44</title>
				<path d="M0 492.59 L184.25 492.59 L184.25 461.18 L0 461.18 L0 492.59 Z" class="st2"/>
			</g>
			<g id="shape46-59" transform="translate(175.748,-75.9076)">
				<title>Sheet.46</title>
				<desc>parameter</desc>
			</g>
			<g id="shape42-60">
				<text x="4" y="435.98" class="st3"><tspan class="st4">:Diagram</tspan></text>			</g>
		</g>
		<g id="group50-63" transform="translate(282.038,-258.235)">
			<title>Class.50</title>
			<desc>:RepresentationGroup</desc>
			<g id="shape51-64">
				<title>Sheet.51</title>
				<path d="M0 492.59 L184.25 492.59 L184.25 484.08 L0 484.08 L0 492.59 Z" class="st1"/>
			</g>
			<g id="shape52-66" transform="translate(0,-8.50394)">
				<title>Sheet.52</title>
				<path d="M0 492.59 L184.25 492.59 L184.25 461.18 L0 461.18 L0 492.59 Z" class="st2"/>
			</g>
			<g id="shape54-68" transform="translate(175.748,-39.9076)">
				<title>Sheet.54</title>
				<desc>parameter</desc>
			</g>
			<g id="shape50-69">
				<text x="4" y="471.98" class="st3"><tspan class="st4">:RepresentationGroup</tspan></text>			</g>
		</g>
		<g id="group68-72" transform="translate(567.527,-343.452)">
			<title>Class.68</title>
			<desc>:ShapeCatalogue</desc>
			<g id="shape69-73">
				<title>Sheet.69</title>
				<path d="M0 492.59 L184.25 492.59 L184.25 468.92 L0 468.92 L0 492.59 Z" class="st1"/>
			</g>
			<g id="shape70-75" transform="translate(0,-23.6693)">
				<title>Sheet.70</title>
				<path d="M0 492.59 L184.25 492.59 L184.25 461.18 L0 461.18 L0 492.59 Z" class="st2"/>
			</g>
			<g id="shape72-77" transform="translate(175.748,-55.073)">
				<title>Sheet.72</title>
				<desc>parameter</desc>
			</g>
			<g id="shape68-78">
				<text x="4" y="456.81" class="st3"><tspan class="st4">:ShapeCatalogue</tspan></text>			</g>
		</g>
		<g id="group76-81" transform="translate(567.527,-221.077)">
			<title>Class.76</title>
			<desc>:TaggedPlantItemShape</desc>
			<g id="shape77-82">
				<title>Sheet.77</title>
				<path d="M0 492.59 L184.25 492.59 L184.25 448.08 L0 448.08 L0 492.59 Z" class="st1"/>
			</g>
			<g id="shape78-84" transform="translate(0,-44.5039)">
				<title>Sheet.78</title>
				<path d="M0 492.59 L184.25 492.59 L184.25 461.18 L0 461.18 L0 492.59 Z" class="st2"/>
			</g>
			<g id="shape80-86" transform="translate(175.748,-75.9076)">
				<title>Sheet.80</title>
				<desc>parameter</desc>
			</g>
			<g id="shape76-87">
				<text x="4" y="435.98" class="st3"><tspan class="st4">:TaggedPlantItemShape</tspan></text>			</g>
		</g>
		<g id="group85-90" transform="translate(282.038,-180.39)">
			<title>Class.85</title>
			<desc>:Static</desc>
			<g id="shape86-91">
				<title>Sheet.86</title>
				<path d="M0 492.59 L184.25 492.59 L184.25 484.08 L0 484.08 L0 492.59 Z" class="st1"/>
			</g>
			<g id="shape87-93" transform="translate(0,-8.50394)">
				<title>Sheet.87</title>
				<path d="M0 492.59 L184.25 492.59 L184.25 461.18 L0 461.18 L0 492.59 Z" class="st2"/>
			</g>
			<g id="shape89-95" transform="translate(175.748,-39.9076)">
				<title>Sheet.89</title>
				<desc>parameter</desc>
			</g>
			<g id="shape85-96">
				<text x="4" y="471.98" class="st3"><tspan class="st4">:Static</tspan></text>			</g>
		</g>
		<g id="group93-99" transform="translate(282.038,-0.375)">
			<title>Class.93</title>
			<desc>:ShapeUsage</desc>
			<g id="shape94-100">
				<title>Sheet.94</title>
				<path d="M0 492.59 L184.25 492.59 L184.25 385.58 L0 385.58 L0 492.59 Z" class="st1"/>
			</g>
			<g id="shape95-102" transform="translate(0,-107.008)">
				<title>Sheet.95</title>
				<path d="M0 492.59 L184.25 492.59 L184.25 461.18 L0 461.18 L0 492.59 Z" class="st2"/>
			</g>
			<g id="shape97-104" transform="translate(175.748,-138.412)">
				<title>Sheet.97</title>
				<desc>parameter</desc>
			</g>
			<g id="shape93-105">
				<text x="4" y="373.48" class="st3"><tspan class="st4">:ShapeUsage</tspan></text>			</g>
		</g>
		<g id="group113-108" transform="translate(367.077,-335.566)">
			<title>Directed Association.113</title>
			<desc>Groups</desc>
			<g id="shape113-109">
				<path d="M7.09 492.59 L7.09 530.01" class="st5"/>
				<rect x="-25.9681" y="506.868" width="23.5898" height="9.59985" class="st7"/>
				<text x="-25.97" y="514.07" class="st8">Groups</text>			</g>
		</g>
		<g id="group118-116" transform="translate(367.077,-258.235)">
			<title>Directed Association.118</title>
			<desc>Groups</desc>
			<g id="shape118-117">
				<path d="M7.09 492.59 L7.09 530.52" class="st5"/>
				<rect x="-25.9681" y="507.129" width="23.5898" height="9.59985" class="st7"/>
				<text x="-25.97" y="514.33" class="st8">Groups</text>			</g>
		</g>
		<g id="group123-124" transform="translate(367.077,-180.39)">
			<title>Directed Association.123</title>
			<desc>Elements</desc>
			<g id="shape123-125">
				<path d="M7.09 492.59 L7.09 534.19" class="st5"/>
				<rect x="-29.2255" y="508.999" width="30.1047" height="9.59985" class="st7"/>
				<text x="-29.23" y="516.2" class="st8">Elements</text>			</g>
		</g>
		<g id="group133-132" transform="translate(367.077,-452.303)">
			<title>Directed Association.133</title>
			<desc>Diagram</desc>
			<g id="shape133-133">
				<path d="M7.09 492.59 L7.09 533.41" class="st5"/>
				<rect x="-27.8566" y="508.604" width="27.3669" height="9.59985" class="st7"/>
				<text x="-27.86" y="515.8" class="st8">Diagram</text>			</g>
		</g>
		<g id="group138-140" transform="translate(282.038,-472.257)">
			<title>Directed Association.138</title>
			<desc>ConceptualModel</desc>
			<g id="shape138-141">
				<path d="M0 492.59 L-189.54 492.59 L-189.54 571.82" class="st5"/>
				<rect x="-164.178" y="502.273" width="57.882" height="9.59985" class="st7"/>
				<text x="-164.18" y="509.47" class="st8">ConceptualModel</text>			</g>
		</g>
		<g id="group143-148" transform="translate(466.29,-472.257)">
			<title>Directed Association.143</title>
			<desc>ShapeCatalogues</desc>
			<g id="shape143-149">
				<path d="M0 492.59 L193.36 492.59 L193.36 566.32" class="st5"/>
				<rect x="108.37" y="509.046" width="55.6361" height="9.59985" class="st7"/>
				<text x="108.37" y="516.25" class="st8">ShapeCatalogues</text>			</g>
		</g>
		<g id="group148-156" transform="translate(652.566,-343.452)">
			<title>Directed Association.148</title>
			<desc>Shapes</desc>
			<g id="shape148-157">
				<path d="M7.09 492.59 L7.09 539.05" class="st5"/>
				<rect x="-25.6849" y="511.479" width="23.0232" height="9.59985" class="st7"/>
				<text x="-25.68" y="518.68" class="st8">Shapes</text>			</g>
		</g>
		<g id="group153-164" transform="translate(466.29,-69.5808)">
			<title>Directed Association.153</title>
			<desc>Shape</desc>
			<g id="shape153-165">
				<path d="M0 492.59 L42.52 492.59 L42.52 303.14 L101.24 303.14" class="st5"/>
				<rect x="46.7457" y="384.074" width="19.8943" height="9.59985" class="st7"/>
				<text x="46.75" y="391.27" class="st8">Shape</text>			</g>
		</g>
		<g id="group158-172" transform="translate(282.038,-271.305)">
			<title>Directed Association.158</title>
			<desc>Represents</desc>
			<g id="shape158-173">
				<path d="M0 485.7 L-97.41 485.3" class="st5"/>
				<rect x="-68.8979" y="494.32" width="36.4175" height="9.59985" class="st7"/>
				<text x="-68.9" y="501.52" class="st8">Represents</text>			</g>
		</g>
		<g id="group1001-180" transform="translate(282.038,-380.379)">
			<title>Directed Association.1001</title>
			<g id="shape1001-181">
				<path d="M0 499.44 L-97.41 499.9" class="st5"/>
			</g>
		</g>
		<g id="shape20-186" transform="translate(3.20965,-262.893)">
			<title>Member</title>
			<desc>TagName = &#34;D-20PA001&#34;</desc>
			<rect x="0" y="474.586" width="178.583" height="18" class="st9"/>
			<rect x="0" y="474.586" width="178.583" height="18" class="st10"/>
			<text x="8.5" y="486.59" class="st11">TagName =  &#34;D-20PA001&#34;</text>		</g>
		<g id="shape28-190" transform="translate(3.20965,-155.231)">
			<title>Member.28</title>
			<desc>Name = &#34;ObjectDisplayName&#34;</desc>
			<rect x="0" y="474.586" width="178.583" height="18" class="st9"/>
			<rect x="0" y="474.586" width="178.583" height="18" class="st10"/>
			<text x="8.5" y="486.59" class="st11">Name =  &#34;ObjectDisplayName&#34;</text>		</g>
		<g id="shape29-194" transform="translate(3.20965,-152.396)">
			<title>Separator.29</title>
			<path d="M0 491.17 L178.58 491.17 L0 491.17 Z" class="st12"/>
			<path d="M0 491.17 L178.58 491.17" class="st13"/>
		</g>
		<g id="shape41-197" transform="translate(3.20965,-134.396)">
			<title>Member.41</title>
			<desc>Value = &#34;D-20PA001&#34;</desc>
			<rect x="0" y="474.586" width="178.583" height="18" class="st9"/>
			<rect x="0" y="474.586" width="178.583" height="18" class="st10"/>
			<text x="8.5" y="486.59" class="st11">Value =  &#34;D-20PA001&#34;</text>		</g>
		<g id="shape47-201" transform="translate(284.872,-359.235)">
			<title>Member.47</title>
			<desc>MaxX = 0.04</desc>
			<rect x="0" y="474.586" width="178.583" height="18" class="st9"/>
			<rect x="0" y="474.586" width="178.583" height="18" class="st10"/>
			<text x="8.5" y="486.59" class="st11">MaxX = 0.04</text>		</g>
		<g id="shape48-205" transform="translate(284.872,-356.401)">
			<title>Separator.48</title>
			<path d="M0 491.17 L178.58 491.17 L0 491.17 Z" class="st12"/>
			<path d="M0 491.17 L178.58 491.17" class="st13"/>
		</g>
		<g id="shape49-208" transform="translate(284.872,-338.401)">
			<title>Member.49</title>
			<desc>MaxY = 0.04</desc>
			<rect x="0" y="474.586" width="178.583" height="18" class="st9"/>
			<rect x="0" y="474.586" width="178.583" height="18" class="st10"/>
			<text x="8.5" y="486.59" class="st11">MaxY = 0.04</text>		</g>
		<g id="shape73-212" transform="translate(570.362,-346.286)">
			<title>Member.73</title>
			<desc>Name = &#34;Shapes&#34;</desc>
			<rect x="0" y="474.586" width="178.583" height="18" class="st9"/>
			<rect x="0" y="474.586" width="178.583" height="18" class="st10"/>
			<text x="8.5" y="486.59" class="st11">Name = &#34;Shapes&#34;</text>		</g>
		<g id="shape81-216" transform="translate(570.362,-223.911)">
			<title>Member.81</title>
			<desc>SymbolRegistrationNumber = &#34;PP001A&#34;</desc>
			<rect x="0" y="474.586" width="178.583" height="18" class="st9"/>
			<rect x="0" y="474.586" width="178.583" height="18" class="st10"/>
			<text x="8.5" y="486.59" class="st11">SymbolRegistrationNumber =  &#34;PP001A&#34;</text>		</g>
		<g id="shape84-220" transform="translate(570.362,-244.746)">
			<title>Member.84</title>
			<desc>Name = &#34;CENTRIFUGAL_PUMP_SHAPE1&#34;</desc>
			<rect x="0" y="474.586" width="178.583" height="18" class="st9"/>
			<rect x="0" y="474.586" width="178.583" height="18" class="st10"/>
			<text x="8.5" y="486.59" class="st11">Name = &#34;CENTRIFUGAL_PUMP_SHAPE1&#34;</text>		</g>
		<g id="shape98-224" transform="translate(284.872,-86.5482)">
			<title>Member.98</title>
			<desc>IsMirrored:false</desc>
			<rect x="0" y="474.586" width="178.583" height="18" class="st9"/>
			<rect x="0" y="474.586" width="178.583" height="18" class="st10"/>
			<text x="8.5" y="486.59" class="st11">IsMirrored:false</text>		</g>
		<g id="shape99-228" transform="translate(284.872,-83.7136)">
			<title>Separator.99</title>
			<path d="M0 491.17 L178.58 491.17 L0 491.17 Z" class="st12"/>
			<path d="M0 491.17 L178.58 491.17" class="st13"/>
		</g>
		<g id="shape100-231" transform="translate(284.872,-44.8789)">
			<title>Member.100</title>
			<desc>Rotation = 0.0</desc>
			<rect x="0" y="474.586" width="178.583" height="18" class="st9"/>
			<rect x="0" y="474.586" width="178.583" height="18" class="st10"/>
			<text x="8.5" y="486.59" class="st11">Rotation = 0.0</text>		</g>
		<g id="shape101-235" transform="translate(284.872,-24.0443)">
			<title>Member.101</title>
			<desc>ScaleX = 1.0</desc>
			<rect x="0" y="474.586" width="178.583" height="18" class="st9"/>
			<rect x="0" y="474.586" width="178.583" height="18" class="st10"/>
			<text x="8.5" y="486.59" class="st11">ScaleX = 1.0</text>		</g>
		<g id="shape102-239" transform="translate(284.872,-3.20965)">
			<title>Member.102</title>
			<desc>ScaleY = 1.0</desc>
			<rect x="0" y="474.586" width="178.583" height="18" class="st9"/>
			<rect x="0" y="474.586" width="178.583" height="18" class="st10"/>
			<text x="8.5" y="486.59" class="st11">ScaleY = 1.0</text>		</g>
		<g id="shape103-243" transform="translate(284.872,-21.2096)">
			<title>Separator.103</title>
			<path d="M0 491.17 L178.58 491.17 L0 491.17 Z" class="st12"/>
			<path d="M0 491.17 L178.58 491.17" class="st13"/>
		</g>
		<g id="shape104-246" transform="translate(284.872,-42.0443)">
			<title>Separator.104</title>
			<path d="M0 491.17 L178.58 491.17 L0 491.17 Z" class="st12"/>
			<path d="M0 491.17 L178.58 491.17" class="st13"/>
		</g>
		<g id="shape1000-249" transform="translate(570.362,-241.911)">
			<title>Separator.1000</title>
			<path d="M0 491.17 L178.58 491.17 L0 491.17 Z" class="st12"/>
			<path d="M0 491.17 L178.58 491.17" class="st13"/>
		</g>
		<g id="shape1006-252" transform="translate(284.872,-65.7136)">
			<title>Member.1006</title>
			<desc>Position = {X=0.02, Y=0.02}</desc>
			<rect x="0" y="474.586" width="178.583" height="18" class="st9"/>
			<rect x="0" y="474.586" width="178.583" height="18" class="st10"/>
			<text x="8.5" y="486.59" class="st11">Position = {X=0.02, Y=0.02}</text>		</g>
		<g id="shape1007-256" transform="translate(284.872,-62.8789)">
			<title>Separator.1007</title>
			<path d="M0 491.17 L178.58 491.17 L0 491.17 Z" class="st12"/>
			<path d="M0 491.17 L178.58 491.17" class="st13"/>
		</g>
		<g id="shape1008-259" transform="translate(3.20965,-244.893)">
			<title>Member.1008</title>
			<desc>EquipmentDescription=[&#34;GEAR PUMP&#34;]</desc>
			<rect x="0" y="474.586" width="178.583" height="18" class="st9"/>
			<rect x="0" y="474.586" width="178.583" height="18" class="st10"/>
			<text x="8.5" y="486.59" class="st11">EquipmentDescription=[&#34;GEAR PUMP&#34;]</text>		</g>
	</g>
</svg>
