<?xml version="1.0" encoding="UTF-8" standalone="no"?>
<!DOCTYPE svg PUBLIC "-//W3C//DTD SVG 1.1//EN" "http://www.w3.org/Graphics/SVG/1.1/DTD/svg11.dtd">
<!-- Generated by Microsoft Visio, SVG Export SignalOPC_in.svg Page-1 -->
<svg xmlns="http://www.w3.org/2000/svg" xmlns:xlink="http://www.w3.org/1999/xlink" xmlns:ev="http://www.w3.org/2001/xml-events"
		width="9.52166in" height="6.03533in" viewBox="0 0 685.56 434.544" xml:space="preserve" color-interpolation-filters="sRGB"
		class="st15">
	<title>SignalOPC_in</title>

	<style type="text/css">
	<![CDATA[
		.st1 {fill:#f2f2f2;stroke:#000000;stroke-linecap:round;stroke-linejoin:round;stroke-width:0.75}
		.st2 {fill:#ffffff;stroke:#000000;stroke-linecap:round;stroke-linejoin:round;stroke-width:0.75}
		.st3 {fill:#000000;font-family:Calibri;font-size:1.00001em}
		.st4 {font-size:1em;text-decoration:underline}
		.st5 {marker-end:url(#mrkr12-16);stroke:#000000;stroke-linecap:round;stroke-linejoin:round;stroke-width:0.75}
		.st6 {fill:#000000;fill-opacity:1;stroke:#000000;stroke-opacity:1;stroke-width:0.22935779816514}
		.st7 {fill:#ffffff;stroke:none;stroke-linecap:butt;stroke-width:7.2}
		.st8 {fill:#000000;font-family:Calibri;font-size:0.666664em}
		.st9 {fill:none;stroke:none;stroke-linecap:round;stroke-linejoin:round;stroke-width:0.24}
		.st10 {fill:#ffffff;fill-opacity:0}
		.st11 {stroke:#000000;stroke-linecap:round;stroke-linejoin:round;stroke-width:0.75;visibility:hidden}
		.st12 {fill:#000000;font-family:Calibri;font-size:0.833336em}
		.st13 {fill:#ffffff}
		.st14 {stroke:#000000;stroke-dasharray:1.5,0.75;stroke-linecap:butt;stroke-width:0.75}
		.st15 {fill:none;fill-rule:evenodd;font-size:12px;overflow:visible;stroke-linecap:square;stroke-miterlimit:3}
	]]>
	</style>

	<defs id="Markers">
		<g id="lend12">
			<path d="M 3 1 L 0 0 L 3 -1 " style="stroke-linecap:round;stroke-linejoin:round;fill:none"/>
		</g>
		<marker id="mrkr12-16" class="st6" orient="auto" markerUnits="strokeWidth" overflow="visible">
			<use xlink:href="#lend12" transform="scale(-4.36,-4.36) "/>
		</marker>
	</defs>
	<g>
		<title>Page-1</title>
		<g id="group1115-1" transform="translate(406.457,-394.261)">
			<title>Class.1221</title>
			<desc>:ConceptualModel</desc>
			<g id="shape1116-2">
				<title>Sheet.1116</title>
				<path d="M0 434.54 L184.25 434.54 L184.25 426.04 L0 426.04 L0 434.54 Z" class="st1"/>
			</g>
			<g id="shape1117-4" transform="translate(0,-8.50394)">
				<title>Sheet.1117</title>
				<path d="M0 434.54 L184.25 434.54 L184.25 403.14 L0 403.14 L0 434.54 Z" class="st2"/>
			</g>
			<g id="shape1119-6" transform="translate(175.748,-39.9076)">
				<title>Sheet.1119</title>
				<desc>parameter</desc>
			</g>
			<g id="shape1115-7">
				<text x="4" y="413.94" class="st3"><tspan class="st4">:ConceptualModel</tspan></text>			</g>
		</g>
		<g id="group1120-10" transform="translate(498.583,-375.229)">
			<title>Directed Association.1228</title>
			<desc>InstrumentLoopFunctions</desc>
			<g id="shape1120-11">
				<path d="M0 434.54 L85.97 434.54 L85.97 477.14" class="st5"/>
				<rect x="-16.8713" y="457.354" width="83.8076" height="9.59985" class="st7"/>
				<text x="-16.87" y="464.55" class="st8">InstrumentLoopFunctions</text>			</g>
		</g>
		<g id="group1153-19" transform="translate(483.925,-277.563)">
			<title>Class.1153</title>
			<desc>:InstrumentationLoopFunction</desc>
			<g id="shape1154-20">
				<title>Sheet.1154</title>
				<path d="M0 434.54 L201.26 434.54 L201.26 410.87 L0 410.87 L0 434.54 Z" class="st1"/>
			</g>
			<g id="shape1155-22" transform="translate(0,-23.6693)">
				<title>Sheet.1155</title>
				<path d="M0 434.54 L201.26 434.54 L201.26 403.14 L0 403.14 L0 434.54 Z" class="st2"/>
			</g>
			<g id="shape1157-24" transform="translate(192.756,-55.073)">
				<title>Sheet.1157</title>
				<desc>parameter</desc>
			</g>
			<g id="shape1153-25">
				<text x="4" y="398.77" class="st3"><tspan class="st4">:InstrumentationLoopFunction</tspan></text>			</g>
		</g>
		<g id="group1160-28" transform="translate(239.408,-202.903)">
			<title>Class.1160</title>
			<desc>:ProcessInstrumentationFunction</desc>
			<g id="shape1161-29">
				<title>Sheet.1161</title>
				<path d="M0 434.54 L170.82 434.54 L170.82 426.04 L0 426.04 L0 434.54 Z" class="st1"/>
			</g>
			<g id="shape1162-31" transform="translate(0,-8.50394)">
				<title>Sheet.1162</title>
				<path d="M0 434.54 L170.82 434.54 L170.82 403.14 L0 403.14 L0 434.54 Z" class="st2"/>
			</g>
			<g id="shape1164-33" transform="translate(162.312,-39.9076)">
				<title>Sheet.1164</title>
				<desc>parameter</desc>
			</g>
			<g id="shape1160-34">
				<text x="4" y="413.94" class="st3"><tspan class="st4">:ProcessInstrumentationFunction</tspan></text>			</g>
		</g>
		<g id="group1168-37" transform="translate(498.583,-394.261)">
			<title>Directed Association.1168</title>
			<desc>ProcessInstrumentationFunctions</desc>
			<g id="shape1168-38">
				<path d="M0 434.54 L0 453.58 L-196.52 453.58 L-196.52 585.72" class="st5"/>
				<rect x="-329.058" y="563.888" width="109.335" height="9.59985" class="st7"/>
				<text x="-329.06" y="571.09" class="st8">ProcessInstrumentationFunctions</text>			</g>
		</g>
		<g id="group1196-45" transform="translate(584.555,-277.563)">
			<title>Directed Association.1196</title>
			<desc>ProcessInstrumentationFunctions</desc>
			<g id="shape1196-46">
				<path d="M0 434.54 L0 452.2 L-224.4 452.2 L-224.4 468.94" class="st5"/>
				<rect x="-234.661" y="436.223" width="109.335" height="9.59985" class="st7"/>
				<text x="-234.66" y="443.42" class="st8">ProcessInstrumentationFunctions</text>			</g>
		</g>
		<g id="group1218-53" transform="translate(262.868,-105.971)">
			<title>Class.1218</title>
			<desc>:SignalConveyingFunction</desc>
			<g id="shape1219-54">
				<title>Sheet.1219</title>
				<path d="M0 434.54 L144.32 434.54 L144.32 426.04 L0 426.04 L0 434.54 Z" class="st1"/>
			</g>
			<g id="shape1220-56" transform="translate(0,-8.50394)">
				<title>Sheet.1220</title>
				<path d="M0 434.54 L144.32 434.54 L144.32 403.14 L0 403.14 L0 434.54 Z" class="st2"/>
			</g>
			<g id="shape1222-58" transform="translate(135.819,-39.9076)">
				<title>Sheet.1222</title>
				<desc>parameter</desc>
			</g>
			<g id="shape1218-59">
				<text x="4" y="413.94" class="st3"><tspan class="st4">:SignalConveyingFunction</tspan></text>			</g>
		</g>
		<g id="shape1240-62" transform="translate(330.358,-202.754)">
			<title>Square.1240</title>
			<rect x="0" y="416.544" width="18" height="18" class="st9"/>
		</g>
		<g id="shape1241-64" transform="translate(353.531,-202.648)">
			<title>Square.1241</title>
			<rect x="0" y="416.544" width="18" height="18" class="st9"/>
		</g>
		<g id="shape1242-66" transform="translate(278.838,-201.951)">
			<title>Square.1242</title>
			<rect x="0" y="416.544" width="18" height="18" class="st9"/>
		</g>
		<g id="group1248-68" transform="translate(322.836,-202.903)">
			<title>Directed Association.1248</title>
			<desc>SignalConveyingFunctions</desc>
			<g id="shape1248-69">
				<path d="M1.98 434.54 L1.98 452.2 L12.19 452.2 L12.19 491.57" class="st5"/>
				<rect x="-83.046" y="447.402" width="84.3857" height="9.59985" class="st7"/>
				<text x="-83.05" y="454.6" class="st8">SignalConveyingFunctions</text>			</g>
		</g>
		<g id="shape1259-76" transform="translate(376.704,-201.951)">
			<title>Square.1259</title>
			<rect x="0" y="416.544" width="18" height="18" class="st9"/>
		</g>
		<g id="group1260-78" transform="translate(355.396,-146.163)">
			<title>Directed Association.1260</title>
			<desc>Target</desc>
			<g id="shape1260-79">
				<path d="M7.04 434.54 L7.14 378.06" class="st5"/>
				<rect x="-3.38604" y="401.502" width="20.9452" height="9.59985" class="st7"/>
				<text x="-3.39" y="408.7" class="st8">Target</text>			</g>
		</g>
		<g id="shape1266-86" transform="translate(293.06,-225.08)">
			<title>Square.1266</title>
			<rect x="0" y="416.544" width="18" height="18" class="st9"/>
		</g>
		<g id="shape1267-88" transform="translate(351.155,-225.17)">
			<title>Square.1267</title>
			<rect x="0" y="416.544" width="18" height="18" class="st9"/>
		</g>
		<g id="group1340-90" transform="translate(437.884,-0.375)">
			<title>Class.1340</title>
			<desc>:SignalOffPageConnectorReferenceByNumber</desc>
			<g id="shape1341-91">
				<title>Sheet.1341</title>
				<path d="M0 434.54 L234.86 434.54 L234.86 390.04 L0 390.04 L0 434.54 Z" class="st1"/>
			</g>
			<g id="shape1342-93" transform="translate(0,-44.5039)">
				<title>Sheet.1342</title>
				<path d="M0 434.54 L234.86 434.54 L234.86 403.14 L0 403.14 L0 434.54 Z" class="st2"/>
			</g>
			<g id="shape1344-95" transform="translate(226.352,-75.9076)">
				<title>Sheet.1344</title>
				<desc>parameter</desc>
			</g>
			<g id="shape1340-96">
				<text x="4" y="377.94" class="st3"><tspan class="st4">:SignalOffPageConnectorReferenceByNumber</tspan></text>			</g>
		</g>
		<g id="group1351-99" transform="translate(463.185,-105.971)">
			<title>Class.1351</title>
			<desc>:FlowInSignalOffPageConnector</desc>
			<g id="shape1352-100">
				<title>Sheet.1352</title>
				<path d="M0 434.54 L184.25 434.54 L184.25 426.04 L0 426.04 L0 434.54 Z" class="st1"/>
			</g>
			<g id="shape1353-102" transform="translate(0,-8.50394)">
				<title>Sheet.1353</title>
				<path d="M0 434.54 L184.25 434.54 L184.25 403.14 L0 403.14 L0 434.54 Z" class="st2"/>
			</g>
			<g id="shape1355-104" transform="translate(175.748,-39.9076)">
				<title>Sheet.1355</title>
				<desc>parameter</desc>
			</g>
			<g id="shape1351-105">
				<text x="4" y="413.94" class="st3"><tspan class="st4">:FlowInSignalOffPageConnector</tspan></text>			</g>
		</g>
		<g id="group1359-108" transform="translate(562.398,-105.971)">
			<title>Directed Association.1359</title>
			<desc>ConnectorReference</desc>
			<g id="shape1359-109">
				<path d="M-7.09 434.54 L-7.09 464.23" class="st5"/>
				<rect x="1.92186" y="443.815" width="67.0226" height="9.59985" class="st7"/>
				<text x="1.92" y="451.01" class="st8">ConnectorReference</text>			</g>
		</g>
		<g id="group1364-116" transform="translate(410.224,-222.857)">
			<title>Directed Association</title>
			<desc>SignalConnectors</desc>
			<g id="shape1364-117">
				<path d="M0 434.54 L145.09 434.54 L145.09 511.52" class="st5"/>
				<rect x="159.498" y="500.397" width="56.2181" height="9.59985" class="st7"/>
				<text x="159.5" y="507.6" class="st8">SignalConnectors</text>			</g>
		</g>
		<g id="shape1374-124" transform="translate(353.433,-128.163)">
			<title>Square.1253</title>
			<rect x="0" y="416.544" width="18" height="18" class="st9"/>
		</g>
		<g id="group1380-126" transform="translate(84.2313,-105.971)">
			<title>Class.1380</title>
			<desc>:SignalConveyingFunction</desc>
			<g id="shape1381-127">
				<title>Sheet.1381</title>
				<path d="M0 434.54 L138.71 434.54 L138.71 426.04 L0 426.04 L0 434.54 Z" class="st1"/>
			</g>
			<g id="shape1382-129" transform="translate(0,-8.50394)">
				<title>Sheet.1382</title>
				<path d="M0 434.54 L138.71 434.54 L138.71 403.14 L0 403.14 L0 434.54 Z" class="st2"/>
			</g>
			<g id="shape1384-131" transform="translate(130.204,-39.9076)">
				<title>Sheet.1384</title>
				<desc>parameter</desc>
			</g>
			<g id="shape1380-132">
				<text x="4" y="413.94" class="st3"><tspan class="st4">:SignalConveyingFunction</tspan></text>			</g>
		</g>
		<g id="shape1385-135" transform="translate(190.766,-127.879)">
			<title>Square.1385</title>
			<rect x="0" y="416.544" width="18" height="18" class="st9"/>
		</g>
		<g id="group1389-137" transform="translate(313.648,-202.903)">
			<title>Directed Association.1389</title>
			<desc>SignalConveyingFunctions</desc>
			<g id="shape1389-138">
				<path d="M0 434.54 L0 463.74 L-113.88 463.74 L-113.88 491.57" class="st5"/>
				<rect x="-203.768" y="473.036" width="84.3857" height="9.59985" class="st7"/>
				<text x="-203.77" y="480.24" class="st8">SignalConveyingFunctions</text>			</g>
		</g>
		<g id="group1394-145" transform="translate(287.838,-201.951)">
			<title>Directed Association.1394</title>
			<desc>Source</desc>
			<g id="shape1394-146">
				<path d="M0 434.54 L0 452.2 L-192.46 452.2 L-192.46 491.08" class="st5"/>
				<rect x="-184.883" y="448.51" width="22.2498" height="9.59985" class="st7"/>
				<text x="-184.88" y="455.71" class="st8">Source</text>			</g>
		</g>
		<g id="group1399-153" transform="translate(407.191,-118.838)">
			<title>Directed Association.1399</title>
			<desc>Source</desc>
			<g id="shape1399-154">
				<path d="M0 427.46 L55.99 427.46" class="st5"/>
				<rect x="16.8722" y="422.658" width="22.2498" height="9.59985" class="st7"/>
				<text x="16.87" y="429.86" class="st8">Source</text>			</g>
		</g>
		<g id="shape1404-161" transform="translate(86.38,-127.414)">
			<title>Square.1404</title>
			<rect x="0" y="416.544" width="18" height="18" class="st9"/>
		</g>
		<g id="group1405-163" transform="translate(84.2313,-118.376)">
			<title>Directed Association.1405</title>
			<desc>Target</desc>
			<g id="shape1405-164">
				<path d="M0 427.74 L-73.89 427.17" class="st5"/>
				<rect x="-47.418" y="422.658" width="20.9452" height="9.59985" class="st7"/>
				<text x="-47.42" y="429.86" class="st8">Target</text>			</g>
		</g>
		<g id="shape1158-171" transform="translate(486.76,-280.398)">
			<title>Member.1158</title>
			<desc>-InstrumentationLoopFunctionNumber</desc>
			<rect x="0" y="416.544" width="195.591" height="18" class="st10"/>
			<rect x="0" y="416.544" width="195.591" height="18" class="st11"/>
			<text x="8.5" y="428.54" class="st12">-InstrumentationLoopFunctionNumber</text>		</g>
		<g id="shape1347-175" transform="translate(440.718,-3.20965)">
			<title>Member</title>
			<desc>-ReferencedConnectorNumber</desc>
			<rect x="0" y="416.544" width="229.186" height="18" class="st10"/>
			<rect x="0" y="416.544" width="229.186" height="18" class="st11"/>
			<text x="8.5" y="428.54" class="st12">-ReferencedConnectorNumber</text>		</g>
		<g id="shape1348-179" transform="translate(440.718,-21.2096)">
			<title>Separator</title>
			<path d="M0 433.13 L229.19 433.13 L0 433.13 Z" class="st13"/>
			<path d="M0 433.13 L229.19 433.13" class="st14"/>
		</g>
		<g id="shape1349-182" transform="translate(440.718,-24.0443)">
			<title>Member.1349</title>
			<desc>-ReferencedDrawingNumber</desc>
			<rect x="0" y="416.544" width="229.186" height="18" class="st10"/>
			<rect x="0" y="416.544" width="229.186" height="18" class="st11"/>
			<text x="8.5" y="428.54" class="st12">-ReferencedDrawingNumber</text>		</g>
	</g>
</svg>
