<?xml version="1.0" encoding="UTF-8" standalone="no"?>
<!DOCTYPE svg PUBLIC "-//W3C//DTD SVG 1.1//EN" "http://www.w3.org/Graphics/SVG/1.1/DTD/svg11.dtd">
<!-- Generated by Microsoft Visio, SVG Export SignalOPC_Out.svg Page-1 -->
<svg xmlns="http://www.w3.org/2000/svg" xmlns:xlink="http://www.w3.org/1999/xlink" xmlns:ev="http://www.w3.org/2001/xml-events"
		width="12.1921in" height="6.44975in" viewBox="0 0 877.833 464.382" xml:space="preserve" color-interpolation-filters="sRGB"
		class="st17">
	<title>SignalOPC_Out</title>

	<style type="text/css">
	<![CDATA[
		.st1 {fill:#f2f2f2;stroke:#000000;stroke-linecap:round;stroke-linejoin:round;stroke-width:0.75}
		.st2 {fill:#ffffff;stroke:#000000;stroke-linecap:round;stroke-linejoin:round;stroke-width:0.75}
		.st3 {fill:#000000;font-family:Calibri;font-size:1.00001em}
		.st4 {font-size:1em;text-decoration:underline}
		.st5 {marker-end:url(#mrkr12-16);stroke:#000000;stroke-linecap:round;stroke-linejoin:round;stroke-width:0.75}
		.st6 {fill:#000000;fill-opacity:1;stroke:#000000;stroke-opacity:1;stroke-width:0.22935779816514}
		.st7 {fill:#ffffff;stroke:none;stroke-linecap:butt;stroke-width:7.2}
		.st8 {fill:#000000;font-family:Calibri;font-size:0.666664em}
		.st9 {fill:none;stroke:none;stroke-linecap:round;stroke-linejoin:round;stroke-width:0.24}
		.st10 {marker-end:url(#mrkr3-153);stroke:#000000;stroke-linecap:round;stroke-linejoin:round;stroke-width:0.75}
		.st11 {fill:#000000;font-family:Calibri;font-size:0.75em}
		.st12 {fill:#ffffff;fill-opacity:0}
		.st13 {stroke:#000000;stroke-linecap:round;stroke-linejoin:round;stroke-width:0.75;visibility:hidden}
		.st14 {fill:#000000;font-family:Calibri;font-size:0.833336em}
		.st15 {fill:#ffffff}
		.st16 {stroke:#000000;stroke-dasharray:1.5,0.75;stroke-linecap:butt;stroke-width:0.75}
		.st17 {fill:none;fill-rule:evenodd;font-size:12px;overflow:visible;stroke-linecap:square;stroke-miterlimit:3}
	]]>
	</style>

	<defs id="Markers">
		<g id="lend12">
			<path d="M 3 1 L 0 0 L 3 -1 " style="stroke-linecap:round;stroke-linejoin:round;fill:none"/>
		</g>
		<marker id="mrkr12-16" class="st6" orient="auto" markerUnits="strokeWidth" overflow="visible">
			<use xlink:href="#lend12" transform="scale(-4.36,-4.36) "/>
		</marker>
		<g id="lend3">
			<path d="M 2 1 L 0 0 L 2 -1 " style="stroke-linecap:round;stroke-linejoin:round;fill:none"/>
		</g>
		<marker id="mrkr3-153" class="st6" orient="auto" markerUnits="strokeWidth" overflow="visible">
			<use xlink:href="#lend3" transform="scale(-4.36,-4.36) "/>
		</marker>
	</defs>
	<g>
		<title>Page-1</title>
		<g id="group1115-1" transform="translate(406.463,-424.1)">
			<title>Class.1221</title>
			<desc>:ConceptualModel</desc>
			<g id="shape1116-2">
				<title>Sheet.1116</title>
				<path d="M0 464.38 L184.25 464.38 L184.25 455.88 L0 455.88 L0 464.38 Z" class="st1"/>
			</g>
			<g id="shape1117-4" transform="translate(0,-8.50394)">
				<title>Sheet.1117</title>
				<path d="M0 464.38 L184.25 464.38 L184.25 432.98 L0 432.98 L0 464.38 Z" class="st2"/>
			</g>
			<g id="shape1119-6" transform="translate(175.748,-39.9076)">
				<title>Sheet.1119</title>
				<desc>parameter</desc>
			</g>
			<g id="shape1115-7">
				<text x="4" y="443.78" class="st3"><tspan class="st4">:ConceptualModel</tspan></text>			</g>
		</g>
		<g id="group1120-10" transform="translate(498.589,-405.067)">
			<title>Directed Association.1228</title>
			<desc>InstrumentLoopFunctions</desc>
			<g id="shape1120-11">
				<path d="M0 464.38 L85.97 464.38 L85.97 506.98" class="st5"/>
				<rect x="-16.8713" y="487.192" width="83.8076" height="9.59985" class="st7"/>
				<text x="-16.87" y="494.39" class="st8">InstrumentLoopFunctions</text>			</g>
		</g>
		<g id="group1153-19" transform="translate(483.931,-307.401)">
			<title>Class.1153</title>
			<desc>:InstrumentationLoopFunction</desc>
			<g id="shape1154-20">
				<title>Sheet.1154</title>
				<path d="M0 464.38 L201.26 464.38 L201.26 440.71 L0 440.71 L0 464.38 Z" class="st1"/>
			</g>
			<g id="shape1155-22" transform="translate(0,-23.6693)">
				<title>Sheet.1155</title>
				<path d="M0 464.38 L201.26 464.38 L201.26 432.98 L0 432.98 L0 464.38 Z" class="st2"/>
			</g>
			<g id="shape1157-24" transform="translate(192.756,-55.073)">
				<title>Sheet.1157</title>
				<desc>parameter</desc>
			</g>
			<g id="shape1153-25">
				<text x="4" y="428.61" class="st3"><tspan class="st4">:InstrumentationLoopFunction</tspan></text>			</g>
		</g>
		<g id="group1160-28" transform="translate(239.414,-232.741)">
			<title>Class.1160</title>
			<desc>:ProcessInstrumentationFunction</desc>
			<g id="shape1161-29">
				<title>Sheet.1161</title>
				<path d="M0 464.38 L170.82 464.38 L170.82 455.88 L0 455.88 L0 464.38 Z" class="st1"/>
			</g>
			<g id="shape1162-31" transform="translate(0,-8.50394)">
				<title>Sheet.1162</title>
				<path d="M0 464.38 L170.82 464.38 L170.82 432.98 L0 432.98 L0 464.38 Z" class="st2"/>
			</g>
			<g id="shape1164-33" transform="translate(162.312,-39.9076)">
				<title>Sheet.1164</title>
				<desc>parameter</desc>
			</g>
			<g id="shape1160-34">
				<text x="4" y="443.78" class="st3"><tspan class="st4">:ProcessInstrumentationFunction</tspan></text>			</g>
		</g>
		<g id="group1168-37" transform="translate(498.589,-424.1)">
			<title>Directed Association.1168</title>
			<desc>ProcessInstrumentationFunctions</desc>
			<g id="shape1168-38">
				<path d="M0 464.38 L0 483.41 L-196.52 483.41 L-196.52 615.56" class="st5"/>
				<rect x="-329.058" y="593.726" width="109.335" height="9.59985" class="st7"/>
				<text x="-329.06" y="600.93" class="st8">ProcessInstrumentationFunctions</text>			</g>
		</g>
		<g id="group1196-45" transform="translate(584.561,-307.401)">
			<title>Directed Association.1196</title>
			<desc>ProcessInstrumentationFunctions</desc>
			<g id="shape1196-46">
				<path d="M0 464.38 L0 482.04 L-224.4 482.04 L-224.4 498.78" class="st5"/>
				<rect x="-234.661" y="466.062" width="109.335" height="9.59985" class="st7"/>
				<text x="-234.66" y="473.26" class="st8">ProcessInstrumentationFunctions</text>			</g>
		</g>
		<g id="group1201-53" transform="translate(95.38,-101.173)">
			<title>Class.1201</title>
			<desc>:ProcessSignalGeneratingFunction</desc>
			<g id="shape1202-54">
				<title>Sheet.1202</title>
				<path d="M0 464.38 L178.58 464.38 L178.58 455.88 L0 455.88 L0 464.38 Z" class="st1"/>
			</g>
			<g id="shape1203-56" transform="translate(0,-8.50394)">
				<title>Sheet.1203</title>
				<path d="M0 464.38 L178.58 464.38 L178.58 432.98 L0 432.98 L0 464.38 Z" class="st2"/>
			</g>
			<g id="shape1205-58" transform="translate(170.079,-39.9076)">
				<title>Sheet.1205</title>
				<desc>parameter</desc>
			</g>
			<g id="shape1201-59">
				<text x="4" y="443.78" class="st3"><tspan class="st4">:ProcessSignalGeneratingFunction</tspan></text>			</g>
		</g>
		<g id="group1207-62" transform="translate(287.844,-231.789)">
			<title>Directed Association.1207</title>
			<desc>ProcessSignalGeneratingFunctions</desc>
			<g id="shape1207-63">
				<path d="M0 464.38 L0 526.84 L-103.17 526.84 L-103.17 555.09" class="st5"/>
				<rect x="-223.482" y="538.157" width="111.756" height="9.59985" class="st7"/>
				<text x="-223.48" y="545.36" class="st8">ProcessSignalGeneratingFunctions</text>			</g>
		</g>
		<g id="group1212-70" transform="translate(325.287,-101.4)">
			<title>Class.1212</title>
			<desc>:MeasuringLineFunction</desc>
			<g id="shape1213-71">
				<title>Sheet.1213</title>
				<path d="M0 464.38 L135.46 464.38 L135.46 455.88 L0 455.88 L0 464.38 Z" class="st1"/>
			</g>
			<g id="shape1214-73" transform="translate(0,-8.50394)">
				<title>Sheet.1214</title>
				<path d="M0 464.38 L135.46 464.38 L135.46 432.98 L0 432.98 L0 464.38 Z" class="st2"/>
			</g>
			<g id="shape1216-75" transform="translate(126.958,-39.9076)">
				<title>Sheet.1216</title>
				<desc>parameter</desc>
			</g>
			<g id="shape1212-76">
				<text x="4" y="443.78" class="st3"><tspan class="st4">:MeasuringLineFunction</tspan></text>			</g>
		</g>
		<g id="group1218-79" transform="translate(475.412,-101.4)">
			<title>Class.1218</title>
			<desc>:SignalConveyingFunction</desc>
			<g id="shape1219-80">
				<title>Sheet.1219</title>
				<path d="M0 464.38 L138.71 464.38 L138.71 455.88 L0 455.88 L0 464.38 Z" class="st1"/>
			</g>
			<g id="shape1220-82" transform="translate(0,-8.50394)">
				<title>Sheet.1220</title>
				<path d="M0 464.38 L138.71 464.38 L138.71 432.98 L0 432.98 L0 464.38 Z" class="st2"/>
			</g>
			<g id="shape1222-84" transform="translate(130.204,-39.9076)">
				<title>Sheet.1222</title>
				<desc>parameter</desc>
			</g>
			<g id="shape1218-85">
				<text x="4" y="443.78" class="st3"><tspan class="st4">:SignalConveyingFunction</tspan></text>			</g>
		</g>
		<g id="group1224-88" transform="translate(95.38,-114.646)">
			<title>Directed Association.1224</title>
			<desc>SensingLocation</desc>
			<g id="shape1224-89">
				<path d="M0 457.9 L-85.04 456.69" class="st5"/>
				<rect x="-68.7828" y="452.496" width="52.5265" height="9.59985" class="st7"/>
				<text x="-68.78" y="459.7" class="st8">SensingLocation</text>			</g>
		</g>
		<g id="group1229-96" transform="translate(325.287,-128.327)">
			<title>Directed Association.1229</title>
			<desc>Source</desc>
			<g id="shape1229-97">
				<path d="M0 471.36 L-51.32 471.58" class="st5"/>
				<rect x="-36.7871" y="466.669" width="22.2498" height="9.59985" class="st7"/>
				<text x="-36.79" y="473.87" class="st8">Source</text>			</g>
		</g>
		<g id="group1234-104" transform="translate(287.844,-169.335)">
			<title>Directed Association.1234</title>
			<desc>SignalConveyingFunctions</desc>
			<g id="shape1234-105">
				<path d="M0 464.38 L105.17 464.38 L105.17 492.41" class="st5"/>
				<rect x="14.41" y="478.978" width="84.3857" height="9.59985" class="st7"/>
				<text x="14.41" y="486.18" class="st8">SignalConveyingFunctions</text>			</g>
		</g>
		<g id="shape1239-112" transform="translate(418.187,-123.081)">
			<title>Square.1304</title>
			<rect x="0" y="446.382" width="18" height="18" class="st9"/>
		</g>
		<g id="shape1240-114" transform="translate(330.364,-232.592)">
			<title>Square.1240</title>
			<rect x="0" y="446.382" width="18" height="18" class="st9"/>
		</g>
		<g id="shape1241-116" transform="translate(353.537,-232.487)">
			<title>Square.1241</title>
			<rect x="0" y="446.382" width="18" height="18" class="st9"/>
		</g>
		<g id="shape1242-118" transform="translate(278.844,-231.789)">
			<title>Square.1242</title>
			<rect x="0" y="446.382" width="18" height="18" class="st9"/>
		</g>
		<g id="group1243-120" transform="translate(427.187,-141.081)">
			<title>Directed Association.1243</title>
			<desc>Target</desc>
			<g id="shape1243-121">
				<path d="M0 464.38 L0 419.71 L-102.37 419.71 L-102.37 372.72" class="st5"/>
				<rect x="-62.811" y="414.908" width="20.9452" height="9.59985" class="st7"/>
				<text x="-62.81" y="422.11" class="st8">Target</text>			</g>
		</g>
		<g id="group1248-128" transform="translate(362.537,-232.487)">
			<title>Directed Association.1248</title>
			<desc>SignalConveyingFunctions</desc>
			<g id="shape1248-129">
				<path d="M0 464.38 L0 499.92 L157.73 499.92 L157.73 555.76" class="st5"/>
				<rect x="71.5842" y="540.457" width="84.3857" height="9.59985" class="st7"/>
				<text x="71.58" y="547.66" class="st8">SignalConveyingFunctions</text>			</g>
		</g>
		<g id="shape1253-136" transform="translate(511.271,-123.107)">
			<title>Square.1253</title>
			<rect x="0" y="446.382" width="18" height="18" class="st9"/>
		</g>
		<g id="shape1259-138" transform="translate(376.71,-231.789)">
			<title>Square.1259</title>
			<rect x="0" y="446.382" width="18" height="18" class="st9"/>
		</g>
		<g id="group1260-140" transform="translate(544.766,-141.307)">
			<title>Directed Association.1260</title>
			<desc>Source</desc>
			<g id="shape1260-141">
				<path d="M0 464.38 L0 391.56 L-159.06 391.56 L-159.06 373.9" class="st5"/>
				<rect x="-63.0701" y="386.759" width="22.2498" height="9.59985" class="st7"/>
				<text x="-63.07" y="393.96" class="st8">Source</text>			</g>
		</g>
		<g id="shape1265-148" transform="translate(613.076,-121.966)">
			<title>Sheet.1265</title>
			<desc>Target</desc>
			<path d="M0 464.38 L37.9 464.38 L53.86 464.38" class="st10"/>
			<rect x="15.1474" y="458.983" width="23.5635" height="10.7998" class="st7"/>
			<text x="15.15" y="467.08" class="st11">Target</text>		</g>
		<g id="shape1266-156" transform="translate(293.066,-254.919)">
			<title>Square.1266</title>
			<rect x="0" y="446.382" width="18" height="18" class="st9"/>
		</g>
		<g id="shape1267-158" transform="translate(351.161,-255.008)">
			<title>Square.1267</title>
			<rect x="0" y="446.382" width="18" height="18" class="st9"/>
		</g>
		<g id="group1340-160" transform="translate(642.602,-0.375)">
			<title>Class.1340</title>
			<desc>:SignalOffPageConnectorReferenceByNumber</desc>
			<g id="shape1341-161">
				<title>Sheet.1341</title>
				<path d="M0 464.38 L234.86 464.38 L234.86 419.88 L0 419.88 L0 464.38 Z" class="st1"/>
			</g>
			<g id="shape1342-163" transform="translate(0,-44.5039)">
				<title>Sheet.1342</title>
				<path d="M0 464.38 L234.86 464.38 L234.86 432.98 L0 432.98 L0 464.38 Z" class="st2"/>
			</g>
			<g id="shape1344-165" transform="translate(226.352,-75.9076)">
				<title>Sheet.1344</title>
				<desc>parameter</desc>
			</g>
			<g id="shape1340-166">
				<text x="4" y="407.78" class="st3"><tspan class="st4">:SignalOffPageConnectorReferenceByNumber</tspan></text>			</g>
		</g>
		<g id="group1351-169" transform="translate(668.188,-101.865)">
			<title>Class.1351</title>
			<desc>:FlowOutSignalOffPageConnector</desc>
			<g id="shape1352-170">
				<title>Sheet.1352</title>
				<path d="M0 464.38 L184.25 464.38 L184.25 455.88 L0 455.88 L0 464.38 Z" class="st1"/>
			</g>
			<g id="shape1353-172" transform="translate(0,-8.50394)">
				<title>Sheet.1353</title>
				<path d="M0 464.38 L184.25 464.38 L184.25 432.98 L0 432.98 L0 464.38 Z" class="st2"/>
			</g>
			<g id="shape1355-174" transform="translate(175.748,-39.9076)">
				<title>Sheet.1355</title>
				<desc>parameter</desc>
			</g>
			<g id="shape1351-175">
				<text x="4" y="443.78" class="st3"><tspan class="st4">:FlowOutSignalOffPageConnector</tspan></text>			</g>
		</g>
		<g id="group1359-178" transform="translate(767.259,-101.865)">
			<title>Directed Association.1359</title>
			<desc>ConnectorReference</desc>
			<g id="shape1359-179">
				<path d="M-6.94 464.38 L-7.23 489.97" class="st5"/>
				<rect x="1.88346" y="467.892" width="67.0226" height="9.59985" class="st7"/>
				<text x="1.88" y="475.09" class="st8">ConnectorReference</text>			</g>
		</g>
		<g id="group1364-186" transform="translate(410.23,-252.695)">
			<title>Directed Association</title>
			<desc>SignalConnectors</desc>
			<g id="shape1364-187">
				<path d="M0 464.38 L350.08 464.38 L350.08 575.3" class="st5"/>
				<rect x="364.495" y="557.374" width="56.2181" height="9.59985" class="st7"/>
				<text x="364.5" y="564.57" class="st8">SignalConnectors</text>			</g>
		</g>
		<g id="shape1158-194" transform="translate(486.765,-310.236)">
			<title>Member.1158</title>
			<desc>-InstrumentationLoopFunctionNumber</desc>
			<rect x="0" y="446.382" width="195.591" height="18" class="st12"/>
			<rect x="0" y="446.382" width="195.591" height="18" class="st13"/>
			<text x="8.5" y="458.38" class="st14">-InstrumentationLoopFunctionNumber</text>		</g>
		<g id="shape1347-198" transform="translate(645.437,-3.20965)">
			<title>Member</title>
			<desc>-ReferencedConnectorNumber</desc>
			<rect x="0" y="446.382" width="229.186" height="18" class="st12"/>
			<rect x="0" y="446.382" width="229.186" height="18" class="st13"/>
			<text x="8.5" y="458.38" class="st14">-ReferencedConnectorNumber</text>		</g>
		<g id="shape1348-202" transform="translate(645.437,-21.2096)">
			<title>Separator</title>
			<path d="M0 462.97 L229.19 462.97 L0 462.97 Z" class="st15"/>
			<path d="M0 462.97 L229.19 462.97" class="st16"/>
		</g>
		<g id="shape1349-205" transform="translate(645.437,-24.0443)">
			<title>Member.1349</title>
			<desc>-ReferencedDrawingNumber</desc>
			<rect x="0" y="446.382" width="229.186" height="18" class="st12"/>
			<rect x="0" y="446.382" width="229.186" height="18" class="st13"/>
			<text x="8.5" y="458.38" class="st14">-ReferencedDrawingNumber</text>		</g>
	</g>
</svg>
