<?xml version="1.0" encoding="UTF-8" standalone="no"?>
<!DOCTYPE svg PUBLIC "-//W3C//DTD SVG 1.1//EN" "http://www.w3.org/Graphics/SVG/1.1/DTD/svg11.dtd">
<!-- Generated by Microsoft Visio, SVG Export ND0002_NozzleTee.svg Page-1 -->
<svg xmlns="http://www.w3.org/2000/svg" xmlns:xlink="http://www.w3.org/1999/xlink" xmlns:ev="http://www.w3.org/2001/xml-events"
		width="1.94385in" height="1.56939in" viewBox="0 0 139.957 112.996" xml:space="preserve" color-interpolation-filters="sRGB"
		class="st10">
	<title>ND0002_NozzleTee</title>

	<style type="text/css">
	<![CDATA[
		.st1 {fill:#ffffff;stroke:#ff0000;stroke-linecap:round;stroke-linejoin:round;stroke-width:2.25}
		.st2 {stroke:#000000;stroke-linecap:round;stroke-linejoin:round;stroke-width:2.25}
		.st3 {fill:#ffffff}
		.st4 {stroke:#000000;stroke-linecap:round;stroke-linejoin:round;stroke-width:0.24}
		.st5 {marker-end:url(#mrkr13-12);stroke:#000000;stroke-linecap:round;stroke-linejoin:round;stroke-width:0.24}
		.st6 {fill:#000000;fill-opacity:1;stroke:#000000;stroke-opacity:1;stroke-width:0.11764705882353}
		.st7 {fill:#ffffff;stroke:none;stroke-linecap:butt;stroke-width:7.2}
		.st8 {fill:#000000;font-family:Calibri;font-size:0.666664em}
		.st9 {stroke:#ff0000;stroke-linecap:round;stroke-linejoin:round;stroke-width:1.5}
		.st10 {fill:none;fill-rule:evenodd;font-size:12px;overflow:visible;stroke-linecap:square;stroke-miterlimit:3}
	]]>
	</style>

	<defs id="Markers">
		<g id="lend13">
			<path d="M 3 1 L 0 0 L 3 -1 L 3 1 " style="stroke:none"/>
		</g>
		<marker id="mrkr13-12" class="st6" refX="-25.5" orient="auto" markerUnits="strokeWidth" overflow="visible">
			<use xlink:href="#lend13" transform="scale(-8.5000000000001,-8.5000000000001) "/>
		</marker>
	</defs>
	<g>
		<title>Page-1</title>
		<g id="shape1006-1" transform="translate(98.5953,-1.27217)">
			<title>Circle</title>
			<path d="M0 106.43 A6.56444 6.56444 0 0 1 13.13 106.43 A6.56444 6.56444 0 1 1 0 106.43 Z" class="st1"/>
		</g>
		<g id="shape1007-3" transform="translate(218.156,48.5638) rotate(90)">
			<title>Sheet.1007</title>
			<path d="M0 113 L56.6 113" class="st2"/>
		</g>
		<g id="shape1015-6" transform="translate(-78.7028,105.257) rotate(-90)">
			<title>Vertical.1015</title>
			<desc>4mm</desc>
			<path d="M0 85.15 L0 109 L0 85.15 ZM56.79 85.15 L56.79 117.1 L56.79 85.15 Z" class="st3"/>
			<path d="M0 85.15 L0 109 L0 85.15" class="st4"/>
			<path d="M56.79 85.15 L56.79 117.1 L56.79 85.15" class="st4"/>
			<path d="M28.39 93.15 L6.12 93.15" class="st5"/>
			<path d="M28.39 93.15 L50.67 93.15" class="st5"/>
			<rect x="19.9771" y="81.5522" width="16.8357" height="9.59985" class="st7"/>
			<text x="19.98" y="88.75" class="st8">4mm</text>		</g>
		<g id="shape1016-19" transform="translate(76.8133,-64.4325)">
			<title>Sheet.1016</title>
			<path d="M0 113 L56.69 113" class="st2"/>
		</g>
		<g id="group1017-22" transform="translate(98.0731,-0.75)">
			<title>Sheet.1017</title>
			<g id="shape1018-23" transform="translate(94.0737,178.724) rotate(135)">
				<title>Sheet.1018</title>
				<path d="M0 113 L20.04 113" class="st9"/>
			</g>
			<g id="shape1019-26" transform="translate(-65.7272,192.897) rotate(-135)">
				<title>Sheet.1019</title>
				<path d="M0 113 L20.04 113" class="st9"/>
			</g>
		</g>
		<g id="shape1023-29" transform="translate(76.8133,-78.7028)">
			<title>Horizontal</title>
			<desc>8mm</desc>
			<path d="M0 85.15 L0 109 L0 85.15 ZM56.69 85.15 L56.69 109 L56.69 85.15 Z" class="st3"/>
			<path d="M0 85.15 L0 109 L0 85.15" class="st4"/>
			<path d="M56.69 85.15 L56.69 109 L56.69 85.15" class="st4"/>
			<path d="M28.35 93.15 L6.12 93.15" class="st5"/>
			<path d="M28.35 93.15 L50.57 93.15" class="st5"/>
			<rect x="19.9286" y="81.5522" width="16.8357" height="9.59985" class="st7"/>
			<text x="19.93" y="88.75" class="st8">8mm</text>		</g>
	</g>
</svg>
