<?xml version="1.0" encoding="UTF-8"?><!DOCTYPE svg PUBLIC "-//W3C//DTD SVG 1.1//EN" "http://www.w3.org/Graphics/SVG/1.1/DTD/svg11.dtd"><svg xmlns="http://www.w3.org/2000/svg" xmlns:xlink="http://www.w3.org/1999/xlink" version="1.1" width="1138px" height="802px" viewBox="-384.5 -128.5 1138 802"><defs/><g><g id="cell-sxMEN0KXAXHLyjsDCc0v-3" layer="Grid"><path d="M 448 672 L 448 -128" fill="none" stroke="#d8d8d8" stroke-opacity="0.2" stroke-miterlimit="10" pointer-events="none"/></g><g id="cell-sxMEN0KXAXHLyjsDCc0v-4" layer="Grid"><path d="M 432 672 L 432 -128" fill="none" stroke="#d8d8d8" stroke-opacity="0.2" stroke-miterlimit="10" pointer-events="none"/></g><g id="cell-sxMEN0KXAXHLyjsDCc0v-5" layer="Grid"><path d="M 416 672 L 416 -128" fill="none" stroke="#0f0f0f" stroke-opacity="0.2" stroke-miterlimit="10" pointer-events="none"/></g><g id="cell-sxMEN0KXAXHLyjsDCc0v-6" layer="Grid"><path d="M 496 672 L 496 -128" fill="none" stroke="#0f0f0f" stroke-opacity="0.2" stroke-miterlimit="10" pointer-events="none"/></g><g id="cell-sxMEN0KXAXHLyjsDCc0v-7" layer="Grid"><path d="M 480 672 L 480 -128" fill="none" stroke="#d8d8d8" stroke-opacity="0.2" stroke-miterlimit="10" pointer-events="none"/></g><g id="cell-sxMEN0KXAXHLyjsDCc0v-8" layer="Grid"><path d="M 464 672 L 464 -128" fill="none" stroke="#d8d8d8" stroke-opacity="0.2" stroke-miterlimit="10" pointer-events="none"/></g><g id="cell-sxMEN0KXAXHLyjsDCc0v-9" layer="Grid"><path d="M 640 672 L 640 -128" fill="none" stroke="#d8d8d8" stroke-opacity="0.2" stroke-miterlimit="10" pointer-events="none"/></g><g id="cell-sxMEN0KXAXHLyjsDCc0v-10" layer="Grid"><path d="M 624 672 L 624 -128" fill="none" stroke="#d8d8d8" stroke-opacity="0.2" stroke-miterlimit="10" pointer-events="none"/></g><g id="cell-sxMEN0KXAXHLyjsDCc0v-11" layer="Grid"><path d="M 608 672 L 608 -128" fill="none" stroke="#d8d8d8" stroke-opacity="0.2" stroke-miterlimit="10" pointer-events="none"/></g><g id="cell-sxMEN0KXAXHLyjsDCc0v-12" layer="Grid"><path d="M 592 672 L 592 -128" fill="none" stroke="#d8d8d8" stroke-opacity="0.2" stroke-miterlimit="10" pointer-events="none"/></g><g id="cell-sxMEN0KXAXHLyjsDCc0v-13" layer="Grid"><path d="M 560 672 L 560 -128" fill="none" stroke="#d8d8d8" stroke-opacity="0.2" stroke-miterlimit="10" pointer-events="none"/></g><g id="cell-sxMEN0KXAXHLyjsDCc0v-14" layer="Grid"><path d="M 544 672 L 544 -128" fill="none" stroke="#d8d8d8" stroke-opacity="0.2" stroke-miterlimit="10" pointer-events="none"/></g><g id="cell-sxMEN0KXAXHLyjsDCc0v-15" layer="Grid"><path d="M 528 672 L 528 -128" fill="none" stroke="#d8d8d8" stroke-opacity="0.2" stroke-miterlimit="10" pointer-events="none"/></g><g id="cell-sxMEN0KXAXHLyjsDCc0v-16" layer="Grid"><path d="M 512 672 L 512 -128" fill="none" stroke="#d8d8d8" stroke-opacity="0.2" stroke-miterlimit="10" pointer-events="none"/></g><g id="cell-sxMEN0KXAXHLyjsDCc0v-17" layer="Grid"><path d="M 576 672 L 576 -128" fill="none" stroke="#0f0f0f" stroke-opacity="0.2" stroke-miterlimit="10" pointer-events="none"/></g><g id="cell-sxMEN0KXAXHLyjsDCc0v-18" layer="Grid"><path d="M 656 672 L 656 -128" fill="none" stroke="#0f0f0f" stroke-opacity="0.2" stroke-miterlimit="10" pointer-events="none"/></g><g id="cell-sxMEN0KXAXHLyjsDCc0v-19" layer="Grid"><path d="M 736 672 L 736 -128" fill="none" stroke="#0f0f0f" stroke-opacity="0.2" stroke-miterlimit="10" pointer-events="none"/></g><g id="cell-sxMEN0KXAXHLyjsDCc0v-20" layer="Grid"><path d="M 720 672 L 720 -128" fill="none" stroke="#d8d8d8" stroke-opacity="0.2" stroke-miterlimit="10" pointer-events="none"/></g><g id="cell-sxMEN0KXAXHLyjsDCc0v-21" layer="Grid"><path d="M 704 672 L 704 -128" fill="none" stroke="#d8d8d8" stroke-opacity="0.2" stroke-miterlimit="10" pointer-events="none"/></g><g id="cell-sxMEN0KXAXHLyjsDCc0v-22" layer="Grid"><path d="M 672 672 L 672 -128" fill="none" stroke="#d8d8d8" stroke-opacity="0.2" stroke-miterlimit="10" pointer-events="none"/></g><g id="cell-sxMEN0KXAXHLyjsDCc0v-23" layer="Grid"><path d="M 688 672 L 688 -128" fill="none" stroke="#d8d8d8" stroke-opacity="0.2" stroke-miterlimit="10" pointer-events="none"/></g><g id="cell-sxMEN0KXAXHLyjsDCc0v-24" layer="Grid"><path d="M 192 -128 L 192 672" fill="none" stroke="#d8d8d8" stroke-opacity="0.2" stroke-miterlimit="10" pointer-events="none"/></g><g id="cell-sxMEN0KXAXHLyjsDCc0v-25" layer="Grid"><path d="M 176 -128 L 176 672" fill="none" stroke="#0f0f0f" stroke-opacity="0.2" stroke-miterlimit="10" pointer-events="none"/></g><g id="cell-sxMEN0KXAXHLyjsDCc0v-26" layer="Grid"><path d="M 160 -128 L 160 672" fill="none" stroke="#d8d8d8" stroke-opacity="0.2" stroke-miterlimit="10" pointer-events="none"/></g><g id="cell-sxMEN0KXAXHLyjsDCc0v-27" layer="Grid"><path d="M 144 -128 L 144 672" fill="none" stroke="#d8d8d8" stroke-opacity="0.2" stroke-miterlimit="10" pointer-events="none"/></g><g id="cell-sxMEN0KXAXHLyjsDCc0v-28" layer="Grid"><path d="M 112 -128 L 112 672" fill="none" stroke="#d8d8d8" stroke-opacity="0.2" stroke-miterlimit="10" pointer-events="none"/></g><g id="cell-sxMEN0KXAXHLyjsDCc0v-29" layer="Grid"><path d="M 96 -128 L 96 672" fill="none" stroke="#0f0f0f" stroke-opacity="0.2" stroke-miterlimit="10" pointer-events="none"/></g><g id="cell-sxMEN0KXAXHLyjsDCc0v-30" layer="Grid"><path d="M 80 -128 L 80 672" fill="none" stroke="#d8d8d8" stroke-opacity="0.2" stroke-miterlimit="10" pointer-events="none"/></g><g id="cell-sxMEN0KXAXHLyjsDCc0v-31" layer="Grid"><path d="M 64 -128 L 64 672" fill="none" stroke="#d8d8d8" stroke-opacity="0.2" stroke-miterlimit="10" pointer-events="none"/></g><g id="cell-sxMEN0KXAXHLyjsDCc0v-32" layer="Grid"><path d="M 128 -128 L 128 672" fill="none" stroke="#d8d8d8" stroke-opacity="0.2" stroke-miterlimit="10" pointer-events="none"/></g><g id="cell-sxMEN0KXAXHLyjsDCc0v-33" layer="Grid"><path d="M 48 -128 L 48 672" fill="none" stroke="#d8d8d8" stroke-opacity="0.2" stroke-miterlimit="10" pointer-events="none"/></g><g id="cell-sxMEN0KXAXHLyjsDCc0v-34" layer="Grid"><path d="M 32 -128 L 32 672" fill="none" stroke="#d8d8d8" stroke-opacity="0.2" stroke-miterlimit="10" pointer-events="none"/></g><g id="cell-sxMEN0KXAXHLyjsDCc0v-35" layer="Grid"><path d="M 16 -128 L 16 672" fill="none" stroke="#0f0f0f" stroke-opacity="0.2" stroke-miterlimit="10" pointer-events="none"/></g><g id="cell-sxMEN0KXAXHLyjsDCc0v-36" layer="Grid"><path d="M 0 -128 L 0 672" fill="none" stroke="#d8d8d8" stroke-opacity="0.2" stroke-miterlimit="10" pointer-events="none"/></g><g id="cell-sxMEN0KXAXHLyjsDCc0v-37" layer="Grid"><path d="M -32 -128 L -32 672" fill="none" stroke="#d8d8d8" stroke-opacity="0.2" stroke-miterlimit="10" pointer-events="none"/></g><g id="cell-sxMEN0KXAXHLyjsDCc0v-38" layer="Grid"><path d="M -48 -128 L -48 672" fill="none" stroke="#d8d8d8" stroke-opacity="0.2" stroke-miterlimit="10" pointer-events="none"/></g><g id="cell-sxMEN0KXAXHLyjsDCc0v-39" layer="Grid"><path d="M -64 -128 L -64 672" fill="none" stroke="#0f0f0f" stroke-opacity="0.2" stroke-miterlimit="10" pointer-events="none"/></g><g id="cell-sxMEN0KXAXHLyjsDCc0v-40" layer="Grid"><path d="M -80 -128 L -80 672" fill="none" stroke="#d8d8d8" stroke-opacity="0.2" stroke-miterlimit="10" pointer-events="none"/></g><g id="cell-sxMEN0KXAXHLyjsDCc0v-41" layer="Grid"><path d="M -16 -128 L -16 672" fill="none" stroke="#d8d8d8" stroke-opacity="0.2" stroke-miterlimit="10" pointer-events="none"/></g><g id="cell-sxMEN0KXAXHLyjsDCc0v-42" layer="Grid"><path d="M -96 -128 L -96 672" fill="none" stroke="#d8d8d8" stroke-opacity="0.2" stroke-miterlimit="10" pointer-events="none"/></g><g id="cell-sxMEN0KXAXHLyjsDCc0v-43" layer="Grid"><path d="M -112 -128 L -112 672" fill="none" stroke="#d8d8d8" stroke-opacity="0.2" stroke-miterlimit="10" pointer-events="none"/></g><g id="cell-sxMEN0KXAXHLyjsDCc0v-44" layer="Grid"><path d="M -128 -128 L -128 672" fill="none" stroke="#d8d8d8" stroke-opacity="0.2" stroke-miterlimit="10" pointer-events="none"/></g><g id="cell-sxMEN0KXAXHLyjsDCc0v-45" layer="Grid"><path d="M -144 -128 L -144 672" fill="none" stroke="#0f0f0f" stroke-opacity="0.2" stroke-miterlimit="10" pointer-events="none"/></g><g id="cell-sxMEN0KXAXHLyjsDCc0v-46" layer="Grid"><path d="M -176 -128 L -176 672" fill="none" stroke="#d8d8d8" stroke-opacity="0.2" stroke-miterlimit="10" pointer-events="none"/></g><g id="cell-sxMEN0KXAXHLyjsDCc0v-47" layer="Grid"><path d="M -192 -128 L -192 672" fill="none" stroke="#d8d8d8" stroke-opacity="0.2" stroke-miterlimit="10" pointer-events="none"/></g><g id="cell-sxMEN0KXAXHLyjsDCc0v-48" layer="Grid"><path d="M -208 -128 L -208 672" fill="none" stroke="#d8d8d8" stroke-opacity="0.2" stroke-miterlimit="10" pointer-events="none"/></g><g id="cell-sxMEN0KXAXHLyjsDCc0v-49" layer="Grid"><path d="M -224 -128 L -224 672" fill="none" stroke="#0f0f0f" stroke-opacity="0.2" stroke-miterlimit="10" pointer-events="none"/></g><g id="cell-sxMEN0KXAXHLyjsDCc0v-50" layer="Grid"><path d="M -160 -128 L -160 672" fill="none" stroke="#d8d8d8" stroke-opacity="0.2" stroke-miterlimit="10" pointer-events="none"/></g><g id="cell-sxMEN0KXAXHLyjsDCc0v-51" layer="Grid"><path d="M -240 -128 L -240 672" fill="none" stroke="#d8d8d8" stroke-opacity="0.2" stroke-miterlimit="10" pointer-events="none"/></g><g id="cell-sxMEN0KXAXHLyjsDCc0v-52" layer="Grid"><path d="M -256 -128 L -256 672" fill="none" stroke="#d8d8d8" stroke-opacity="0.2" stroke-miterlimit="10" pointer-events="none"/></g><g id="cell-sxMEN0KXAXHLyjsDCc0v-53" layer="Grid"><path d="M -272 -128 L -272 672" fill="none" stroke="#d8d8d8" stroke-opacity="0.2" stroke-miterlimit="10" pointer-events="none"/></g><g id="cell-sxMEN0KXAXHLyjsDCc0v-54" layer="Grid"><path d="M -336 -128 L -336 672" fill="none" stroke="#d8d8d8" stroke-opacity="0.2" stroke-miterlimit="10" pointer-events="none"/></g><g id="cell-sxMEN0KXAXHLyjsDCc0v-55" layer="Grid"><path d="M -320 -128 L -320 672" fill="none" stroke="#d8d8d8" stroke-opacity="0.2" stroke-miterlimit="10" pointer-events="none"/></g><g id="cell-sxMEN0KXAXHLyjsDCc0v-56" layer="Grid"><path d="M -368 -128 L -368 672" fill="none" stroke="#d8d8d8" stroke-opacity="0.2" stroke-miterlimit="10" pointer-events="none"/></g><g id="cell-sxMEN0KXAXHLyjsDCc0v-57" layer="Grid"><path d="M -304 -128 L -304 672" fill="none" stroke="#0f0f0f" stroke-opacity="0.2" stroke-miterlimit="10" pointer-events="none"/></g><g id="cell-sxMEN0KXAXHLyjsDCc0v-58" layer="Grid"><path d="M 240 -128 L 240 672" fill="none" stroke="#d8d8d8" stroke-opacity="0.2" stroke-miterlimit="10" pointer-events="none"/></g><g id="cell-sxMEN0KXAXHLyjsDCc0v-59" layer="Grid"><path d="M 224 -128 L 224 672" fill="none" stroke="#d8d8d8" stroke-opacity="0.2" stroke-miterlimit="10" pointer-events="none"/></g><g id="cell-sxMEN0KXAXHLyjsDCc0v-60" layer="Grid"><path d="M 208 -128 L 208 672" fill="none" stroke="#d8d8d8" stroke-opacity="0.2" stroke-miterlimit="10" pointer-events="none"/></g><g id="cell-sxMEN0KXAXHLyjsDCc0v-61" layer="Grid"><path d="M -288 -128 L -288 672" fill="none" stroke="#d8d8d8" stroke-opacity="0.2" stroke-miterlimit="10" pointer-events="none"/></g><g id="cell-sxMEN0KXAXHLyjsDCc0v-62" layer="Grid"><path d="M -352 -128 L -352 672" fill="none" stroke="#d8d8d8" stroke-opacity="0.2" stroke-miterlimit="10" pointer-events="none"/></g><g id="cell-sxMEN0KXAXHLyjsDCc0v-63" layer="Grid"><path d="M 384 -128 L 384 672" fill="none" stroke="#d8d8d8" stroke-opacity="0.2" stroke-miterlimit="10" pointer-events="none"/></g><g id="cell-sxMEN0KXAXHLyjsDCc0v-64" layer="Grid"><path d="M 368 -128 L 368 672" fill="none" stroke="#d8d8d8" stroke-opacity="0.2" stroke-miterlimit="10" pointer-events="none"/></g><g id="cell-sxMEN0KXAXHLyjsDCc0v-65" layer="Grid"><path d="M 352 -128 L 352 672" fill="none" stroke="#d8d8d8" stroke-opacity="0.2" stroke-miterlimit="10" pointer-events="none"/></g><g id="cell-sxMEN0KXAXHLyjsDCc0v-66" layer="Grid"><path d="M 336 -128 L 336 672" fill="none" stroke="#0f0f0f" stroke-opacity="0.2" stroke-miterlimit="10" pointer-events="none"/></g><g id="cell-sxMEN0KXAXHLyjsDCc0v-67" layer="Grid"><path d="M 304 -128 L 304 672" fill="none" stroke="#d8d8d8" stroke-opacity="0.2" stroke-miterlimit="10" pointer-events="none"/></g><g id="cell-sxMEN0KXAXHLyjsDCc0v-68" layer="Grid"><path d="M 288 -128 L 288 672" fill="none" stroke="#d8d8d8" stroke-opacity="0.2" stroke-miterlimit="10" pointer-events="none"/></g><g id="cell-sxMEN0KXAXHLyjsDCc0v-69" layer="Grid"><path d="M 272 -128 L 272 672" fill="none" stroke="#d8d8d8" stroke-opacity="0.2" stroke-miterlimit="10" pointer-events="none"/></g><g id="cell-sxMEN0KXAXHLyjsDCc0v-70" layer="Grid"><path d="M 256 -128 L 256 672" fill="none" stroke="#0f0f0f" stroke-opacity="0.2" stroke-miterlimit="10" pointer-events="none"/></g><g id="cell-sxMEN0KXAXHLyjsDCc0v-71" layer="Grid"><path d="M 320 -128 L 320 672" fill="none" stroke="#d8d8d8" stroke-opacity="0.2" stroke-miterlimit="10" pointer-events="none"/></g><g id="cell-sxMEN0KXAXHLyjsDCc0v-72" layer="Grid"><path d="M 400 -128 L 400 672" fill="none" stroke="#d8d8d8" stroke-opacity="0.2" stroke-miterlimit="10" pointer-events="none"/></g><g id="cell-sxMEN0KXAXHLyjsDCc0v-73" layer="Grid"><path d="M -384 -80 L 752 -80" fill="none" stroke="#d8d8d8" stroke-opacity="0.2" stroke-miterlimit="10" pointer-events="none"/></g><g id="cell-sxMEN0KXAXHLyjsDCc0v-74" layer="Grid"><path d="M -384 -48 L 752 -48" fill="none" stroke="#7f7f7f" stroke-opacity="0.2" stroke-miterlimit="10" pointer-events="none"/></g><g id="cell-sxMEN0KXAXHLyjsDCc0v-75" layer="Grid"><path d="M -384 -32 L 752 -32" fill="none" stroke="#d8d8d8" stroke-opacity="0.2" stroke-miterlimit="10" pointer-events="none"/></g><g id="cell-sxMEN0KXAXHLyjsDCc0v-76" layer="Grid"><path d="M -384 -16 L 752 -16" fill="none" stroke="#d8d8d8" stroke-opacity="0.2" stroke-miterlimit="10" pointer-events="none"/></g><g id="cell-sxMEN0KXAXHLyjsDCc0v-77" layer="Grid"><path d="M -384 0 L 752 0" fill="none" stroke="#d8d8d8" stroke-opacity="0.2" stroke-miterlimit="10" pointer-events="none"/></g><g id="cell-sxMEN0KXAXHLyjsDCc0v-78" layer="Grid"><path d="M -384 -64 L 752 -64" fill="none" stroke="#d8d8d8" stroke-opacity="0.2" stroke-miterlimit="10" pointer-events="none"/></g><g id="cell-sxMEN0KXAXHLyjsDCc0v-79" layer="Grid"><path d="M -384 16 L 752 16" fill="none" stroke="#d8d8d8" stroke-opacity="0.2" stroke-miterlimit="10" pointer-events="none"/></g><g id="cell-sxMEN0KXAXHLyjsDCc0v-80" layer="Grid"><path d="M -384 32 L 752 32" fill="none" stroke="#7f7f7f" stroke-opacity="0.2" stroke-miterlimit="10" pointer-events="none"/></g><g id="cell-sxMEN0KXAXHLyjsDCc0v-81" layer="Grid"><path d="M -384 48 L 752 48" fill="none" stroke="#d8d8d8" stroke-opacity="0.2" stroke-miterlimit="10" pointer-events="none"/></g><g id="cell-sxMEN0KXAXHLyjsDCc0v-82" layer="Grid"><path d="M -384 64 L 752 64" fill="none" stroke="#d8d8d8" stroke-opacity="0.2" stroke-miterlimit="10" pointer-events="none"/></g><g id="cell-sxMEN0KXAXHLyjsDCc0v-83" layer="Grid"><path d="M -384 96 L 752 96" fill="none" stroke="#d8d8d8" stroke-opacity="0.2" stroke-miterlimit="10" pointer-events="none"/></g><g id="cell-sxMEN0KXAXHLyjsDCc0v-84" layer="Grid"><path d="M -384 112 L 752 112" fill="none" stroke="#7f7f7f" stroke-opacity="0.2" stroke-miterlimit="10" pointer-events="none"/></g><g id="cell-sxMEN0KXAXHLyjsDCc0v-85" layer="Grid"><path d="M -384 128 L 752 128" fill="none" stroke="#d8d8d8" stroke-opacity="0.2" stroke-miterlimit="10" pointer-events="none"/></g><g id="cell-sxMEN0KXAXHLyjsDCc0v-86" layer="Grid"><path d="M -384 144 L 752 144" fill="none" stroke="#d8d8d8" stroke-opacity="0.2" stroke-miterlimit="10" pointer-events="none"/></g><g id="cell-sxMEN0KXAXHLyjsDCc0v-87" layer="Grid"><path d="M -384 80 L 752 80" fill="none" stroke="#d8d8d8" stroke-opacity="0.2" stroke-miterlimit="10" pointer-events="none"/></g><g id="cell-sxMEN0KXAXHLyjsDCc0v-88" layer="Grid"><path d="M -384 160 L 752 160" fill="none" stroke="#d8d8d8" stroke-opacity="0.2" stroke-miterlimit="10" pointer-events="none"/></g><g id="cell-sxMEN0KXAXHLyjsDCc0v-89" layer="Grid"><path d="M -384 176 L 752 176" fill="none" stroke="#d8d8d8" stroke-opacity="0.2" stroke-miterlimit="10" pointer-events="none"/></g><g id="cell-sxMEN0KXAXHLyjsDCc0v-90" layer="Grid"><path d="M -384 192 L 752 192" fill="none" stroke="#7f7f7f" stroke-opacity="0.2" stroke-miterlimit="10" pointer-events="none"/></g><g id="cell-sxMEN0KXAXHLyjsDCc0v-91" layer="Grid"><path d="M -384 208 L 752 208" fill="none" stroke="#d8d8d8" stroke-opacity="0.2" stroke-miterlimit="10" pointer-events="none"/></g><g id="cell-sxMEN0KXAXHLyjsDCc0v-92" layer="Grid"><path d="M -384 240 L 752 240" fill="none" stroke="#d8d8d8" stroke-opacity="0.2" stroke-miterlimit="10" pointer-events="none"/></g><g id="cell-sxMEN0KXAXHLyjsDCc0v-93" layer="Grid"><path d="M -384 256 L 752 256" fill="none" stroke="#d8d8d8" stroke-opacity="0.2" stroke-miterlimit="10" pointer-events="none"/></g><g id="cell-sxMEN0KXAXHLyjsDCc0v-94" layer="Grid"><path d="M -384 272 L 752 272" fill="none" stroke="#7f7f7f" stroke-opacity="0.2" stroke-miterlimit="10" pointer-events="none"/></g><g id="cell-sxMEN0KXAXHLyjsDCc0v-95" layer="Grid"><path d="M -384 288 L 752 288" fill="none" stroke="#d8d8d8" stroke-opacity="0.2" stroke-miterlimit="10" pointer-events="none"/></g><g id="cell-sxMEN0KXAXHLyjsDCc0v-96" layer="Grid"><path d="M -384 224 L 752 224" fill="none" stroke="#d8d8d8" stroke-opacity="0.2" stroke-miterlimit="10" pointer-events="none"/></g><g id="cell-sxMEN0KXAXHLyjsDCc0v-97" layer="Grid"><path d="M -384 304 L 752 304" fill="none" stroke="#d8d8d8" stroke-opacity="0.2" stroke-miterlimit="10" pointer-events="none"/></g><g id="cell-sxMEN0KXAXHLyjsDCc0v-98" layer="Grid"><path d="M -384 320 L 752 320" fill="none" stroke="#d8d8d8" stroke-opacity="0.2" stroke-miterlimit="10" pointer-events="none"/></g><g id="cell-sxMEN0KXAXHLyjsDCc0v-99" layer="Grid"><path d="M -384 336 L 752 336" fill="none" stroke="#d8d8d8" stroke-opacity="0.2" stroke-miterlimit="10" pointer-events="none"/></g><g id="cell-sxMEN0KXAXHLyjsDCc0v-100" layer="Grid"><path d="M -384 352 L 752 352" fill="none" stroke="#7f7f7f" stroke-opacity="0.2" stroke-miterlimit="10" pointer-events="none"/></g><g id="cell-sxMEN0KXAXHLyjsDCc0v-101" layer="Grid"><path d="M -384 384 L 752 384" fill="none" stroke="#d8d8d8" stroke-opacity="0.2" stroke-miterlimit="10" pointer-events="none"/></g><g id="cell-sxMEN0KXAXHLyjsDCc0v-102" layer="Grid"><path d="M -384 400 L 752 400" fill="none" stroke="#d8d8d8" stroke-opacity="0.2" stroke-miterlimit="10" pointer-events="none"/></g><g id="cell-sxMEN0KXAXHLyjsDCc0v-103" layer="Grid"><path d="M -384 416 L 752 416" fill="none" stroke="#d8d8d8" stroke-opacity="0.2" stroke-miterlimit="10" pointer-events="none"/></g><g id="cell-sxMEN0KXAXHLyjsDCc0v-104" layer="Grid"><path d="M -384 432 L 752 432" fill="none" stroke="#7f7f7f" stroke-opacity="0.2" stroke-miterlimit="10" pointer-events="none"/></g><g id="cell-sxMEN0KXAXHLyjsDCc0v-105" layer="Grid"><path d="M -384 368 L 752 368" fill="none" stroke="#d8d8d8" stroke-opacity="0.2" stroke-miterlimit="10" pointer-events="none"/></g><g id="cell-sxMEN0KXAXHLyjsDCc0v-106" layer="Grid"><path d="M -384 448 L 752 448" fill="none" stroke="#d8d8d8" stroke-opacity="0.2" stroke-miterlimit="10" pointer-events="none"/></g><g id="cell-sxMEN0KXAXHLyjsDCc0v-107" layer="Grid"><path d="M -384 464 L 752 464" fill="none" stroke="#d8d8d8" stroke-opacity="0.2" stroke-miterlimit="10" pointer-events="none"/></g><g id="cell-sxMEN0KXAXHLyjsDCc0v-108" layer="Grid"><path d="M -384 480 L 752 480" fill="none" stroke="#d8d8d8" stroke-opacity="0.2" stroke-miterlimit="10" pointer-events="none"/></g><g id="cell-sxMEN0KXAXHLyjsDCc0v-109" layer="Grid"><path d="M -384 496 L 752 496" fill="none" stroke="#d8d8d8" stroke-opacity="0.2" stroke-miterlimit="10" pointer-events="none"/></g><g id="cell-sxMEN0KXAXHLyjsDCc0v-110" layer="Grid"><path d="M -384 528 L 752 528" fill="none" stroke="#d8d8d8" stroke-opacity="0.2" stroke-miterlimit="10" pointer-events="none"/></g><g id="cell-sxMEN0KXAXHLyjsDCc0v-111" layer="Grid"><path d="M -384 544 L 752 544" fill="none" stroke="#d8d8d8" stroke-opacity="0.2" stroke-miterlimit="10" pointer-events="none"/></g><g id="cell-sxMEN0KXAXHLyjsDCc0v-112" layer="Grid"><path d="M -384 560 L 752 560" fill="none" stroke="#d8d8d8" stroke-opacity="0.2" stroke-miterlimit="10" pointer-events="none"/></g><g id="cell-sxMEN0KXAXHLyjsDCc0v-113" layer="Grid"><path d="M -384 576 L 752 576" fill="none" stroke="#d8d8d8" stroke-opacity="0.2" stroke-miterlimit="10" pointer-events="none"/></g><g id="cell-sxMEN0KXAXHLyjsDCc0v-114" layer="Grid"><path d="M -384 512 L 752 512" fill="none" stroke="#7f7f7f" stroke-opacity="0.2" stroke-miterlimit="10" pointer-events="none"/></g><g id="cell-sxMEN0KXAXHLyjsDCc0v-115" layer="Grid"><path d="M -384 592 L 752 592" fill="none" stroke="#7f7f7f" stroke-opacity="0.2" stroke-miterlimit="10" pointer-events="none"/></g><g id="cell-sxMEN0KXAXHLyjsDCc0v-116" layer="Grid"><path d="M -384 608 L 752 608" fill="none" stroke="#d8d8d8" stroke-opacity="0.2" stroke-miterlimit="10" pointer-events="none"/></g><g id="cell-sxMEN0KXAXHLyjsDCc0v-117" layer="Grid"><path d="M -384 624 L 752 624" fill="none" stroke="#d8d8d8" stroke-opacity="0.2" stroke-miterlimit="10" pointer-events="none"/></g><g id="cell-sxMEN0KXAXHLyjsDCc0v-118" layer="Grid"><path d="M -384 640 L 752 640" fill="none" stroke="#d8d8d8" stroke-opacity="0.2" stroke-miterlimit="10" pointer-events="none"/></g><g id="cell-sxMEN0KXAXHLyjsDCc0v-119" layer="Grid"><path d="M -384 656 L 752 656" fill="none" stroke="#d8d8d8" stroke-opacity="0.2" stroke-miterlimit="10" pointer-events="none"/></g><g id="cell-sxMEN0KXAXHLyjsDCc0v-120" layer="Grid"><path d="M -384 -96 L 752 -96" fill="none" stroke="#d8d8d8" stroke-opacity="0.2" stroke-miterlimit="10" pointer-events="none"/></g><g id="cell-sxMEN0KXAXHLyjsDCc0v-121" layer="Grid"><path d="M -384 -112 L 752 -112" fill="none" stroke="#d8d8d8" stroke-opacity="0.2" stroke-miterlimit="10" pointer-events="none"/></g><g id="cell-sxMEN0KXAXHLyjsDCc0v-122" layer="Grid"><path d="M -384 -128 L -384 672" fill="none" stroke="#0f0f0f" stroke-opacity="0.2" stroke-miterlimit="10" pointer-events="none"/></g><g id="cell-sxMEN0KXAXHLyjsDCc0v-123" layer="Grid"><path d="M -384 -128 L 752 -128" fill="none" stroke="#7f7f7f" stroke-opacity="0.2" stroke-miterlimit="10" pointer-events="none"/></g><g id="cell-lbljCHEagKn9i-VnatyL-0" content="&lt;object label=&quot;Connection&quot; PipingConnector=&quot;N&quot; LabelConnector=&quot;N&quot; SignalConnector=&quot;Y&quot; Direction=&quot;270&quot; AuxiliaryConnector=&quot;Y&quot;/&gt;" data-label="Connection" data-PipingConnector="N" data-LabelConnector="N" data-SignalConnector="Y" data-Direction="270" data-AuxiliaryConnector="Y" layer="Connection"><path d="M -6 0 C -6 -3.30999755859375 -3.30999755859375 -6 0 -6 C 3.30999755859375 -6 6 -3.30999755859375 6 0 C 6 3.30999755859375 3.30999755859375 6 0 6 C -3.30999755859375 6 -6 3.30999755859375 -6 0" fill="none" stroke="#008000" stroke-miterlimit="10" pointer-events="none"/></g><g id="cell-lbljCHEagKn9i-VnatyL-3" content="&lt;object label=&quot;Connection&quot; PipingConnector=&quot;N&quot; LabelConnector=&quot;N&quot; SignalConnector=&quot;Y&quot; Direction=&quot;90&quot; AuxiliaryConnector=&quot;N&quot;/&gt;" data-label="Connection" data-PipingConnector="N" data-LabelConnector="N" data-SignalConnector="Y" data-Direction="90" data-AuxiliaryConnector="N" layer="Connection"><path d="M -6 224 C -6 220.69000244140625 -3.30999755859375 218 0 218 C 3.30999755859375 218 6 220.69000244140625 6 224 C 6 227.30999755859375 3.30999755859375 230 0 230 C -3.30999755859375 230 -6 227.30999755859375 -6 224" fill="none" stroke="#008000" stroke-miterlimit="10" pointer-events="none"/></g><g id="cell-sxMEN0KXAXHLyjsDCc0v-127" content="&lt;object label=&quot;%Dimension%: %Value%%UoM%&quot; Dimension=&quot;H&quot; placeholders=&quot;1&quot; UoM=&quot;mm&quot; Value=&quot;14&quot;/&gt;" data-label="%Dimension%: %Value%%UoM%" data-Dimension="H" data-placeholders="1" data-UoM="mm" data-Value="14" layer="Dimension"><path d="M -360 224 L -306 224 M -311.5 223.5 L -317 212.5 M -311.5 223.5 L -306 212.5 M -311.5 223.5 L -311.5 0.5 M -360 2.842170943040401e-14 L -306 0 M -311.5 0.5 L -317 11.5 M -311.5 0.5 L -306 11.5" fill="none" stroke="#a6a6a6" stroke-miterlimit="10" pointer-events="none"/><g><text x="68" y="244" fill="#a6a6a6" font-family="Helvetica" font-size="12px" text-anchor="end" transform="translate(-384 -128) translate(-0.5 -0.5)">H: 14mm</text></g></g><g id="cell-sxMEN0KXAXHLyjsDCc0v-128" content="&lt;object label=&quot;%Dimension%: %Value%%UoM%&quot; placeholders=&quot;1&quot; Dimension=&quot;W&quot; UoM=&quot;mm&quot; Value=&quot;12&quot;/&gt;" data-label="%Dimension%: %Value%%UoM%" data-placeholders="1" data-Dimension="W" data-UoM="mm" data-Value="12" layer="Dimension"><path d="M -96 -116 L -96 -78 M -95.5 -83.5 L -84.5 -89 M -95.5 -83.5 L -84.5 -78 M -95.5 -83.5 L 95.5 -83.5 M 96 -116 L 96 -78 M 95.5 -83.5 L 84.5 -89 M 95.5 -83.5 L 84.5 -78" fill="none" stroke="#a6a6a6" stroke-miterlimit="10" pointer-events="none"/><g><text x="385" y="38" fill="#a6a6a6" font-family="Helvetica" font-size="12px" text-anchor="middle" transform="translate(-384 -128) translate(-0.5 -0.5)">W: 12mm</text></g></g><g id="cell-sxMEN0KXAXHLyjsDCc0v-133" content="&lt;object label=&quot;&amp;amp;nbsp;%Value%%UoM%&quot; placeholders=&quot;1&quot; Value=&quot;4&quot; UoM=&quot;mm&quot;/&gt;" data-label="&amp;nbsp;%Value%%UoM%" data-placeholders="1" data-Value="4" data-UoM="mm" layer="Dimension"><path d="M -280 224 L -226 224 M -231.5 223.5 L -237 212.5 M -231.5 223.5 L -226 212.5 M -231.5 223.5 L -231.5 160.5 M -280 160 L -226 160 M -231.5 160.5 L -237 171.5 M -231.5 160.5 L -226 171.5" fill="none" stroke="#a6a6a6" stroke-miterlimit="10" pointer-events="none"/><g><text x="155" y="328" fill="#A6A6A6" font-family="Helvetica" font-size="12px" text-anchor="end" transform="translate(-384 -128) translate(-0.5 -0.5)"> 4mm</text></g></g><g id="cell-sxMEN0KXAXHLyjsDCc0v-131" content="&lt;object label=&quot;%LabelIndex%&amp;amp;nbsp; &amp;amp;nbsp; &amp;amp;nbsp; &amp;amp;nbsp; &amp;amp;nbsp; &amp;amp;nbsp;%LabelLines%&quot; placeholders=&quot;1&quot; LabelLines=&quot;1&quot; LabelIndex=&quot;B&quot;/&gt;" data-label="%LabelIndex%&amp;nbsp; &amp;nbsp; &amp;nbsp; &amp;nbsp; &amp;nbsp; &amp;nbsp;%LabelLines%" data-placeholders="1" data-LabelLines="1" data-LabelIndex="B" layer="Label"><path fill="none" stroke="#ff0000" pointer-events="none" d="M -40 112 L 40 112 L 40 128 L -40 128 z"/><g><text x="346" y="251" fill="#FF0000" font-family="Helvetica" font-size="10px" transform="translate(-384 -128) translate(-0.5 -0.5)">B           1</text></g></g><g id="cell-sxMEN0KXAXHLyjsDCc0v-132" content="&lt;object label=&quot;%LabelIndex%&amp;amp;nbsp; &amp;amp;nbsp; &amp;amp;nbsp; &amp;amp;nbsp; &amp;amp;nbsp; &amp;amp;nbsp;%LabelLines%&quot; placeholders=&quot;1&quot; LabelLines=&quot;1&quot; LabelIndex=&quot;A&quot;/&gt;" data-label="%LabelIndex%&amp;nbsp; &amp;nbsp; &amp;nbsp; &amp;nbsp; &amp;nbsp; &amp;nbsp;%LabelLines%" data-placeholders="1" data-LabelLines="1" data-LabelIndex="A" layer="Label"><path fill="none" stroke="#ff0000" pointer-events="none" d="M -40 192 L 40 192 L 40 208 L -40 208 z"/><g><text x="346" y="331" fill="#FF0000" font-family="Helvetica" font-size="10px" transform="translate(-384 -128) translate(-0.5 -0.5)">A           1</text></g></g><g id="cell-sxMEN0KXAXHLyjsDCc0v-135" content="&lt;object label=&quot;origo&quot;/&gt;" data-label="origo" layer="Origo"><path d="M 6 -1.4210854715202004e-14 C 6 3.30999755859375 3.30999755859375 6 0 6 C -3.30999755859375 6 -6 3.30999755859375 -6 -1.4210854715202004e-14 C -6 -3.30999755859375 -3.30999755859375 -6 0 -6 C 3.30999755859375 -6 6 -3.30999755859375 6 -1.4210854715202004e-14" fill="none" stroke="#ff0000" stroke-miterlimit="10" pointer-events="none"/></g><g id="cell-sxMEN0KXAXHLyjsDCc0v-137" layer="Symbol"><path fill="none" stroke="rgb(0, 0, 0)" pointer-events="none" d="M 96 224 L -96 224 L -96 160 L 96 160 z"/></g><g id="cell-sxMEN0KXAXHLyjsDCc0v-138" layer="Symbol"><path d="M -96 160.5 L -2.842170943040401e-14 -0.5 L 96 160.5 Z" fill="none" stroke="rgb(0, 0, 0)" stroke-miterlimit="10" pointer-events="none"/></g></g></svg>