<?xml version="1.0" encoding="UTF-8"?><!DOCTYPE svg PUBLIC "-//W3C//DTD SVG 1.1//EN" "http://www.w3.org/Graphics/SVG/1.1/DTD/svg11.dtd"><svg xmlns="http://www.w3.org/2000/svg" xmlns:xlink="http://www.w3.org/1999/xlink" version="1.1" width="1138px" height="802px" viewBox="-320.5 -160.5 1138 802"><defs/><g><g id="cell-Eagw4QfEwXUNtg0F8ZJQ-3" layer="Grid"><path d="M 512 640 L 512 -160" fill="none" stroke="#d8d8d8" stroke-opacity="0.2" stroke-miterlimit="10" pointer-events="none"/></g><g id="cell-Eagw4QfEwXUNtg0F8ZJQ-4" layer="Grid"><path d="M 496 640 L 496 -160" fill="none" stroke="#d8d8d8" stroke-opacity="0.2" stroke-miterlimit="10" pointer-events="none"/></g><g id="cell-Eagw4QfEwXUNtg0F8ZJQ-5" layer="Grid"><path d="M 480 640 L 480 -160" fill="none" stroke="#0f0f0f" stroke-opacity="0.2" stroke-miterlimit="10" pointer-events="none"/></g><g id="cell-Eagw4QfEwXUNtg0F8ZJQ-6" layer="Grid"><path d="M 560 640 L 560 -160" fill="none" stroke="#0f0f0f" stroke-opacity="0.2" stroke-miterlimit="10" pointer-events="none"/></g><g id="cell-Eagw4QfEwXUNtg0F8ZJQ-7" layer="Grid"><path d="M 544 640 L 544 -160" fill="none" stroke="#d8d8d8" stroke-opacity="0.2" stroke-miterlimit="10" pointer-events="none"/></g><g id="cell-Eagw4QfEwXUNtg0F8ZJQ-8" layer="Grid"><path d="M 528 640 L 528 -160" fill="none" stroke="#d8d8d8" stroke-opacity="0.2" stroke-miterlimit="10" pointer-events="none"/></g><g id="cell-Eagw4QfEwXUNtg0F8ZJQ-9" layer="Grid"><path d="M 704 640 L 704 -160" fill="none" stroke="#d8d8d8" stroke-opacity="0.2" stroke-miterlimit="10" pointer-events="none"/></g><g id="cell-Eagw4QfEwXUNtg0F8ZJQ-10" layer="Grid"><path d="M 688 640 L 688 -160" fill="none" stroke="#d8d8d8" stroke-opacity="0.2" stroke-miterlimit="10" pointer-events="none"/></g><g id="cell-Eagw4QfEwXUNtg0F8ZJQ-11" layer="Grid"><path d="M 672 640 L 672 -160" fill="none" stroke="#d8d8d8" stroke-opacity="0.2" stroke-miterlimit="10" pointer-events="none"/></g><g id="cell-Eagw4QfEwXUNtg0F8ZJQ-12" layer="Grid"><path d="M 656 640 L 656 -160" fill="none" stroke="#d8d8d8" stroke-opacity="0.2" stroke-miterlimit="10" pointer-events="none"/></g><g id="cell-Eagw4QfEwXUNtg0F8ZJQ-13" layer="Grid"><path d="M 624 640 L 624 -160" fill="none" stroke="#d8d8d8" stroke-opacity="0.2" stroke-miterlimit="10" pointer-events="none"/></g><g id="cell-Eagw4QfEwXUNtg0F8ZJQ-14" layer="Grid"><path d="M 608 640 L 608 -160" fill="none" stroke="#d8d8d8" stroke-opacity="0.2" stroke-miterlimit="10" pointer-events="none"/></g><g id="cell-Eagw4QfEwXUNtg0F8ZJQ-15" layer="Grid"><path d="M 592 640 L 592 -160" fill="none" stroke="#d8d8d8" stroke-opacity="0.2" stroke-miterlimit="10" pointer-events="none"/></g><g id="cell-Eagw4QfEwXUNtg0F8ZJQ-16" layer="Grid"><path d="M 576 640 L 576 -160" fill="none" stroke="#d8d8d8" stroke-opacity="0.2" stroke-miterlimit="10" pointer-events="none"/></g><g id="cell-Eagw4QfEwXUNtg0F8ZJQ-17" layer="Grid"><path d="M 640 640 L 640 -160" fill="none" stroke="#0f0f0f" stroke-opacity="0.2" stroke-miterlimit="10" pointer-events="none"/></g><g id="cell-Eagw4QfEwXUNtg0F8ZJQ-18" layer="Grid"><path d="M 720 640 L 720 -160" fill="none" stroke="#0f0f0f" stroke-opacity="0.2" stroke-miterlimit="10" pointer-events="none"/></g><g id="cell-Eagw4QfEwXUNtg0F8ZJQ-19" layer="Grid"><path d="M 800 640 L 800 -160" fill="none" stroke="#0f0f0f" stroke-opacity="0.2" stroke-miterlimit="10" pointer-events="none"/></g><g id="cell-Eagw4QfEwXUNtg0F8ZJQ-20" layer="Grid"><path d="M 784 640 L 784 -160" fill="none" stroke="#d8d8d8" stroke-opacity="0.2" stroke-miterlimit="10" pointer-events="none"/></g><g id="cell-Eagw4QfEwXUNtg0F8ZJQ-21" layer="Grid"><path d="M 768 640 L 768 -160" fill="none" stroke="#d8d8d8" stroke-opacity="0.2" stroke-miterlimit="10" pointer-events="none"/></g><g id="cell-Eagw4QfEwXUNtg0F8ZJQ-22" layer="Grid"><path d="M 736 640 L 736 -160" fill="none" stroke="#d8d8d8" stroke-opacity="0.2" stroke-miterlimit="10" pointer-events="none"/></g><g id="cell-Eagw4QfEwXUNtg0F8ZJQ-23" layer="Grid"><path d="M 752 640 L 752 -160" fill="none" stroke="#d8d8d8" stroke-opacity="0.2" stroke-miterlimit="10" pointer-events="none"/></g><g id="cell-Eagw4QfEwXUNtg0F8ZJQ-24" layer="Grid"><path d="M 256 -160 L 256 640" fill="none" stroke="#d8d8d8" stroke-opacity="0.2" stroke-miterlimit="10" pointer-events="none"/></g><g id="cell-Eagw4QfEwXUNtg0F8ZJQ-25" layer="Grid"><path d="M 240 -160 L 240 640" fill="none" stroke="#0f0f0f" stroke-opacity="0.2" stroke-miterlimit="10" pointer-events="none"/></g><g id="cell-Eagw4QfEwXUNtg0F8ZJQ-26" layer="Grid"><path d="M 224 -160 L 224 640" fill="none" stroke="#d8d8d8" stroke-opacity="0.2" stroke-miterlimit="10" pointer-events="none"/></g><g id="cell-Eagw4QfEwXUNtg0F8ZJQ-27" layer="Grid"><path d="M 208 -160 L 208 640" fill="none" stroke="#d8d8d8" stroke-opacity="0.2" stroke-miterlimit="10" pointer-events="none"/></g><g id="cell-Eagw4QfEwXUNtg0F8ZJQ-28" layer="Grid"><path d="M 176 -160 L 176 640" fill="none" stroke="#d8d8d8" stroke-opacity="0.2" stroke-miterlimit="10" pointer-events="none"/></g><g id="cell-Eagw4QfEwXUNtg0F8ZJQ-29" layer="Grid"><path d="M 160 -160 L 160 640" fill="none" stroke="#0f0f0f" stroke-opacity="0.2" stroke-miterlimit="10" pointer-events="none"/></g><g id="cell-Eagw4QfEwXUNtg0F8ZJQ-30" layer="Grid"><path d="M 144 -160 L 144 640" fill="none" stroke="#d8d8d8" stroke-opacity="0.2" stroke-miterlimit="10" pointer-events="none"/></g><g id="cell-Eagw4QfEwXUNtg0F8ZJQ-31" layer="Grid"><path d="M 128 -160 L 128 640" fill="none" stroke="#d8d8d8" stroke-opacity="0.2" stroke-miterlimit="10" pointer-events="none"/></g><g id="cell-Eagw4QfEwXUNtg0F8ZJQ-32" layer="Grid"><path d="M 192 -160 L 192 640" fill="none" stroke="#d8d8d8" stroke-opacity="0.2" stroke-miterlimit="10" pointer-events="none"/></g><g id="cell-Eagw4QfEwXUNtg0F8ZJQ-33" layer="Grid"><path d="M 112 -160 L 112 640" fill="none" stroke="#d8d8d8" stroke-opacity="0.2" stroke-miterlimit="10" pointer-events="none"/></g><g id="cell-Eagw4QfEwXUNtg0F8ZJQ-34" layer="Grid"><path d="M 96 -160 L 96 640" fill="none" stroke="#d8d8d8" stroke-opacity="0.2" stroke-miterlimit="10" pointer-events="none"/></g><g id="cell-Eagw4QfEwXUNtg0F8ZJQ-35" layer="Grid"><path d="M 80 -160 L 80 640" fill="none" stroke="#0f0f0f" stroke-opacity="0.2" stroke-miterlimit="10" pointer-events="none"/></g><g id="cell-Eagw4QfEwXUNtg0F8ZJQ-36" layer="Grid"><path d="M 64 -160 L 64 640" fill="none" stroke="#d8d8d8" stroke-opacity="0.2" stroke-miterlimit="10" pointer-events="none"/></g><g id="cell-Eagw4QfEwXUNtg0F8ZJQ-37" layer="Grid"><path d="M 32 -160 L 32 640" fill="none" stroke="#d8d8d8" stroke-opacity="0.2" stroke-miterlimit="10" pointer-events="none"/></g><g id="cell-Eagw4QfEwXUNtg0F8ZJQ-38" layer="Grid"><path d="M 16 -160 L 16 640" fill="none" stroke="#d8d8d8" stroke-opacity="0.2" stroke-miterlimit="10" pointer-events="none"/></g><g id="cell-Eagw4QfEwXUNtg0F8ZJQ-39" layer="Grid"><path d="M 0 -160 L 0 640" fill="none" stroke="#0f0f0f" stroke-opacity="0.2" stroke-miterlimit="10" pointer-events="none"/></g><g id="cell-Eagw4QfEwXUNtg0F8ZJQ-40" layer="Grid"><path d="M -16 -160 L -16 640" fill="none" stroke="#d8d8d8" stroke-opacity="0.2" stroke-miterlimit="10" pointer-events="none"/></g><g id="cell-Eagw4QfEwXUNtg0F8ZJQ-41" layer="Grid"><path d="M 48 -160 L 48 640" fill="none" stroke="#d8d8d8" stroke-opacity="0.2" stroke-miterlimit="10" pointer-events="none"/></g><g id="cell-Eagw4QfEwXUNtg0F8ZJQ-42" layer="Grid"><path d="M -32 -160 L -32 640" fill="none" stroke="#d8d8d8" stroke-opacity="0.2" stroke-miterlimit="10" pointer-events="none"/></g><g id="cell-Eagw4QfEwXUNtg0F8ZJQ-43" layer="Grid"><path d="M -48 -160 L -48 640" fill="none" stroke="#d8d8d8" stroke-opacity="0.2" stroke-miterlimit="10" pointer-events="none"/></g><g id="cell-Eagw4QfEwXUNtg0F8ZJQ-44" layer="Grid"><path d="M -64 -160 L -64 640" fill="none" stroke="#d8d8d8" stroke-opacity="0.2" stroke-miterlimit="10" pointer-events="none"/></g><g id="cell-Eagw4QfEwXUNtg0F8ZJQ-45" layer="Grid"><path d="M -80 -160 L -80 640" fill="none" stroke="#0f0f0f" stroke-opacity="0.2" stroke-miterlimit="10" pointer-events="none"/></g><g id="cell-Eagw4QfEwXUNtg0F8ZJQ-46" layer="Grid"><path d="M -112 -160 L -112 640" fill="none" stroke="#d8d8d8" stroke-opacity="0.2" stroke-miterlimit="10" pointer-events="none"/></g><g id="cell-Eagw4QfEwXUNtg0F8ZJQ-47" layer="Grid"><path d="M -128 -160 L -128 640" fill="none" stroke="#d8d8d8" stroke-opacity="0.2" stroke-miterlimit="10" pointer-events="none"/></g><g id="cell-Eagw4QfEwXUNtg0F8ZJQ-48" layer="Grid"><path d="M -144 -160 L -144 640" fill="none" stroke="#d8d8d8" stroke-opacity="0.2" stroke-miterlimit="10" pointer-events="none"/></g><g id="cell-Eagw4QfEwXUNtg0F8ZJQ-49" layer="Grid"><path d="M -160 -160 L -160 640" fill="none" stroke="#0f0f0f" stroke-opacity="0.2" stroke-miterlimit="10" pointer-events="none"/></g><g id="cell-Eagw4QfEwXUNtg0F8ZJQ-50" layer="Grid"><path d="M -96 -160 L -96 640" fill="none" stroke="#d8d8d8" stroke-opacity="0.2" stroke-miterlimit="10" pointer-events="none"/></g><g id="cell-Eagw4QfEwXUNtg0F8ZJQ-51" layer="Grid"><path d="M -176 -160 L -176 640" fill="none" stroke="#d8d8d8" stroke-opacity="0.2" stroke-miterlimit="10" pointer-events="none"/></g><g id="cell-Eagw4QfEwXUNtg0F8ZJQ-52" layer="Grid"><path d="M -192 -160 L -192 640" fill="none" stroke="#d8d8d8" stroke-opacity="0.2" stroke-miterlimit="10" pointer-events="none"/></g><g id="cell-Eagw4QfEwXUNtg0F8ZJQ-53" layer="Grid"><path d="M -208 -160 L -208 640" fill="none" stroke="#d8d8d8" stroke-opacity="0.2" stroke-miterlimit="10" pointer-events="none"/></g><g id="cell-Eagw4QfEwXUNtg0F8ZJQ-54" layer="Grid"><path d="M -272 -160 L -272 640" fill="none" stroke="#d8d8d8" stroke-opacity="0.2" stroke-miterlimit="10" pointer-events="none"/></g><g id="cell-Eagw4QfEwXUNtg0F8ZJQ-55" layer="Grid"><path d="M -256 -160 L -256 640" fill="none" stroke="#d8d8d8" stroke-opacity="0.2" stroke-miterlimit="10" pointer-events="none"/></g><g id="cell-Eagw4QfEwXUNtg0F8ZJQ-56" layer="Grid"><path d="M -304 -160 L -304 640" fill="none" stroke="#d8d8d8" stroke-opacity="0.2" stroke-miterlimit="10" pointer-events="none"/></g><g id="cell-Eagw4QfEwXUNtg0F8ZJQ-57" layer="Grid"><path d="M -240 -160 L -240 640" fill="none" stroke="#0f0f0f" stroke-opacity="0.2" stroke-miterlimit="10" pointer-events="none"/></g><g id="cell-Eagw4QfEwXUNtg0F8ZJQ-58" layer="Grid"><path d="M 304 -160 L 304 640" fill="none" stroke="#d8d8d8" stroke-opacity="0.2" stroke-miterlimit="10" pointer-events="none"/></g><g id="cell-Eagw4QfEwXUNtg0F8ZJQ-59" layer="Grid"><path d="M 288 -160 L 288 640" fill="none" stroke="#d8d8d8" stroke-opacity="0.2" stroke-miterlimit="10" pointer-events="none"/></g><g id="cell-Eagw4QfEwXUNtg0F8ZJQ-60" layer="Grid"><path d="M 272 -160 L 272 640" fill="none" stroke="#d8d8d8" stroke-opacity="0.2" stroke-miterlimit="10" pointer-events="none"/></g><g id="cell-Eagw4QfEwXUNtg0F8ZJQ-61" layer="Grid"><path d="M -224 -160 L -224 640" fill="none" stroke="#d8d8d8" stroke-opacity="0.2" stroke-miterlimit="10" pointer-events="none"/></g><g id="cell-Eagw4QfEwXUNtg0F8ZJQ-62" layer="Grid"><path d="M -288 -160 L -288 640" fill="none" stroke="#d8d8d8" stroke-opacity="0.2" stroke-miterlimit="10" pointer-events="none"/></g><g id="cell-Eagw4QfEwXUNtg0F8ZJQ-63" layer="Grid"><path d="M 448 -160 L 448 640" fill="none" stroke="#d8d8d8" stroke-opacity="0.2" stroke-miterlimit="10" pointer-events="none"/></g><g id="cell-Eagw4QfEwXUNtg0F8ZJQ-64" layer="Grid"><path d="M 432 -160 L 432 640" fill="none" stroke="#d8d8d8" stroke-opacity="0.2" stroke-miterlimit="10" pointer-events="none"/></g><g id="cell-Eagw4QfEwXUNtg0F8ZJQ-65" layer="Grid"><path d="M 416 -160 L 416 640" fill="none" stroke="#d8d8d8" stroke-opacity="0.2" stroke-miterlimit="10" pointer-events="none"/></g><g id="cell-Eagw4QfEwXUNtg0F8ZJQ-66" layer="Grid"><path d="M 400 -160 L 400 640" fill="none" stroke="#0f0f0f" stroke-opacity="0.2" stroke-miterlimit="10" pointer-events="none"/></g><g id="cell-Eagw4QfEwXUNtg0F8ZJQ-67" layer="Grid"><path d="M 368 -160 L 368 640" fill="none" stroke="#d8d8d8" stroke-opacity="0.2" stroke-miterlimit="10" pointer-events="none"/></g><g id="cell-Eagw4QfEwXUNtg0F8ZJQ-68" layer="Grid"><path d="M 352 -160 L 352 640" fill="none" stroke="#d8d8d8" stroke-opacity="0.2" stroke-miterlimit="10" pointer-events="none"/></g><g id="cell-Eagw4QfEwXUNtg0F8ZJQ-69" layer="Grid"><path d="M 336 -160 L 336 640" fill="none" stroke="#d8d8d8" stroke-opacity="0.2" stroke-miterlimit="10" pointer-events="none"/></g><g id="cell-Eagw4QfEwXUNtg0F8ZJQ-70" layer="Grid"><path d="M 320 -160 L 320 640" fill="none" stroke="#0f0f0f" stroke-opacity="0.2" stroke-miterlimit="10" pointer-events="none"/></g><g id="cell-Eagw4QfEwXUNtg0F8ZJQ-71" layer="Grid"><path d="M 384 -160 L 384 640" fill="none" stroke="#d8d8d8" stroke-opacity="0.2" stroke-miterlimit="10" pointer-events="none"/></g><g id="cell-Eagw4QfEwXUNtg0F8ZJQ-72" layer="Grid"><path d="M 464 -160 L 464 640" fill="none" stroke="#d8d8d8" stroke-opacity="0.2" stroke-miterlimit="10" pointer-events="none"/></g><g id="cell-Eagw4QfEwXUNtg0F8ZJQ-73" layer="Grid"><path d="M -320 -112 L 816 -112" fill="none" stroke="#d8d8d8" stroke-opacity="0.2" stroke-miterlimit="10" pointer-events="none"/></g><g id="cell-Eagw4QfEwXUNtg0F8ZJQ-74" layer="Grid"><path d="M -320 -80 L 816 -80" fill="none" stroke="#7f7f7f" stroke-opacity="0.2" stroke-miterlimit="10" pointer-events="none"/></g><g id="cell-Eagw4QfEwXUNtg0F8ZJQ-75" layer="Grid"><path d="M -320 -64 L 816 -64" fill="none" stroke="#d8d8d8" stroke-opacity="0.2" stroke-miterlimit="10" pointer-events="none"/></g><g id="cell-Eagw4QfEwXUNtg0F8ZJQ-76" layer="Grid"><path d="M -320 -48 L 816 -48" fill="none" stroke="#d8d8d8" stroke-opacity="0.2" stroke-miterlimit="10" pointer-events="none"/></g><g id="cell-Eagw4QfEwXUNtg0F8ZJQ-77" layer="Grid"><path d="M -320 -32 L 816 -32" fill="none" stroke="#d8d8d8" stroke-opacity="0.2" stroke-miterlimit="10" pointer-events="none"/></g><g id="cell-Eagw4QfEwXUNtg0F8ZJQ-78" layer="Grid"><path d="M -320 -96 L 816 -96" fill="none" stroke="#d8d8d8" stroke-opacity="0.2" stroke-miterlimit="10" pointer-events="none"/></g><g id="cell-Eagw4QfEwXUNtg0F8ZJQ-79" layer="Grid"><path d="M -320 -16 L 816 -16" fill="none" stroke="#d8d8d8" stroke-opacity="0.2" stroke-miterlimit="10" pointer-events="none"/></g><g id="cell-Eagw4QfEwXUNtg0F8ZJQ-80" layer="Grid"><path d="M -320 0 L 816 0" fill="none" stroke="#7f7f7f" stroke-opacity="0.2" stroke-miterlimit="10" pointer-events="none"/></g><g id="cell-Eagw4QfEwXUNtg0F8ZJQ-81" layer="Grid"><path d="M -320 16 L 816 16" fill="none" stroke="#d8d8d8" stroke-opacity="0.2" stroke-miterlimit="10" pointer-events="none"/></g><g id="cell-Eagw4QfEwXUNtg0F8ZJQ-82" layer="Grid"><path d="M -320 32 L 816 32" fill="none" stroke="#d8d8d8" stroke-opacity="0.2" stroke-miterlimit="10" pointer-events="none"/></g><g id="cell-Eagw4QfEwXUNtg0F8ZJQ-83" layer="Grid"><path d="M -320 64 L 816 64" fill="none" stroke="#d8d8d8" stroke-opacity="0.2" stroke-miterlimit="10" pointer-events="none"/></g><g id="cell-Eagw4QfEwXUNtg0F8ZJQ-84" layer="Grid"><path d="M -320 80 L 816 80" fill="none" stroke="#7f7f7f" stroke-opacity="0.2" stroke-miterlimit="10" pointer-events="none"/></g><g id="cell-Eagw4QfEwXUNtg0F8ZJQ-85" layer="Grid"><path d="M -320 96 L 816 96" fill="none" stroke="#d8d8d8" stroke-opacity="0.2" stroke-miterlimit="10" pointer-events="none"/></g><g id="cell-Eagw4QfEwXUNtg0F8ZJQ-86" layer="Grid"><path d="M -320 112 L 816 112" fill="none" stroke="#d8d8d8" stroke-opacity="0.2" stroke-miterlimit="10" pointer-events="none"/></g><g id="cell-Eagw4QfEwXUNtg0F8ZJQ-87" layer="Grid"><path d="M -320 48 L 816 48" fill="none" stroke="#d8d8d8" stroke-opacity="0.2" stroke-miterlimit="10" pointer-events="none"/></g><g id="cell-Eagw4QfEwXUNtg0F8ZJQ-88" layer="Grid"><path d="M -320 128 L 816 128" fill="none" stroke="#d8d8d8" stroke-opacity="0.2" stroke-miterlimit="10" pointer-events="none"/></g><g id="cell-Eagw4QfEwXUNtg0F8ZJQ-89" layer="Grid"><path d="M -320 144 L 816 144" fill="none" stroke="#d8d8d8" stroke-opacity="0.2" stroke-miterlimit="10" pointer-events="none"/></g><g id="cell-Eagw4QfEwXUNtg0F8ZJQ-90" layer="Grid"><path d="M -320 160 L 816 160" fill="none" stroke="#7f7f7f" stroke-opacity="0.2" stroke-miterlimit="10" pointer-events="none"/></g><g id="cell-Eagw4QfEwXUNtg0F8ZJQ-91" layer="Grid"><path d="M -320 176 L 816 176" fill="none" stroke="#d8d8d8" stroke-opacity="0.2" stroke-miterlimit="10" pointer-events="none"/></g><g id="cell-Eagw4QfEwXUNtg0F8ZJQ-92" layer="Grid"><path d="M -320 208 L 816 208" fill="none" stroke="#d8d8d8" stroke-opacity="0.2" stroke-miterlimit="10" pointer-events="none"/></g><g id="cell-Eagw4QfEwXUNtg0F8ZJQ-93" layer="Grid"><path d="M -320 224 L 816 224" fill="none" stroke="#d8d8d8" stroke-opacity="0.2" stroke-miterlimit="10" pointer-events="none"/></g><g id="cell-Eagw4QfEwXUNtg0F8ZJQ-94" layer="Grid"><path d="M -320 240 L 816 240" fill="none" stroke="#7f7f7f" stroke-opacity="0.2" stroke-miterlimit="10" pointer-events="none"/></g><g id="cell-Eagw4QfEwXUNtg0F8ZJQ-95" layer="Grid"><path d="M -320 256 L 816 256" fill="none" stroke="#d8d8d8" stroke-opacity="0.2" stroke-miterlimit="10" pointer-events="none"/></g><g id="cell-Eagw4QfEwXUNtg0F8ZJQ-96" layer="Grid"><path d="M -320 192 L 816 192" fill="none" stroke="#d8d8d8" stroke-opacity="0.2" stroke-miterlimit="10" pointer-events="none"/></g><g id="cell-Eagw4QfEwXUNtg0F8ZJQ-97" layer="Grid"><path d="M -320 272 L 816 272" fill="none" stroke="#d8d8d8" stroke-opacity="0.2" stroke-miterlimit="10" pointer-events="none"/></g><g id="cell-Eagw4QfEwXUNtg0F8ZJQ-98" layer="Grid"><path d="M -320 288 L 816 288" fill="none" stroke="#d8d8d8" stroke-opacity="0.2" stroke-miterlimit="10" pointer-events="none"/></g><g id="cell-Eagw4QfEwXUNtg0F8ZJQ-99" layer="Grid"><path d="M -320 304 L 816 304" fill="none" stroke="#d8d8d8" stroke-opacity="0.2" stroke-miterlimit="10" pointer-events="none"/></g><g id="cell-Eagw4QfEwXUNtg0F8ZJQ-100" layer="Grid"><path d="M -320 320 L 816 320" fill="none" stroke="#7f7f7f" stroke-opacity="0.2" stroke-miterlimit="10" pointer-events="none"/></g><g id="cell-Eagw4QfEwXUNtg0F8ZJQ-101" layer="Grid"><path d="M -320 352 L 816 352" fill="none" stroke="#d8d8d8" stroke-opacity="0.2" stroke-miterlimit="10" pointer-events="none"/></g><g id="cell-Eagw4QfEwXUNtg0F8ZJQ-102" layer="Grid"><path d="M -320 368 L 816 368" fill="none" stroke="#d8d8d8" stroke-opacity="0.2" stroke-miterlimit="10" pointer-events="none"/></g><g id="cell-Eagw4QfEwXUNtg0F8ZJQ-103" layer="Grid"><path d="M -320 384 L 816 384" fill="none" stroke="#d8d8d8" stroke-opacity="0.2" stroke-miterlimit="10" pointer-events="none"/></g><g id="cell-Eagw4QfEwXUNtg0F8ZJQ-104" layer="Grid"><path d="M -320 400 L 816 400" fill="none" stroke="#7f7f7f" stroke-opacity="0.2" stroke-miterlimit="10" pointer-events="none"/></g><g id="cell-Eagw4QfEwXUNtg0F8ZJQ-105" layer="Grid"><path d="M -320 336 L 816 336" fill="none" stroke="#d8d8d8" stroke-opacity="0.2" stroke-miterlimit="10" pointer-events="none"/></g><g id="cell-Eagw4QfEwXUNtg0F8ZJQ-106" layer="Grid"><path d="M -320 416 L 816 416" fill="none" stroke="#d8d8d8" stroke-opacity="0.2" stroke-miterlimit="10" pointer-events="none"/></g><g id="cell-Eagw4QfEwXUNtg0F8ZJQ-107" layer="Grid"><path d="M -320 432 L 816 432" fill="none" stroke="#d8d8d8" stroke-opacity="0.2" stroke-miterlimit="10" pointer-events="none"/></g><g id="cell-Eagw4QfEwXUNtg0F8ZJQ-108" layer="Grid"><path d="M -320 448 L 816 448" fill="none" stroke="#d8d8d8" stroke-opacity="0.2" stroke-miterlimit="10" pointer-events="none"/></g><g id="cell-Eagw4QfEwXUNtg0F8ZJQ-109" layer="Grid"><path d="M -320 464 L 816 464" fill="none" stroke="#d8d8d8" stroke-opacity="0.2" stroke-miterlimit="10" pointer-events="none"/></g><g id="cell-Eagw4QfEwXUNtg0F8ZJQ-110" layer="Grid"><path d="M -320 496 L 816 496" fill="none" stroke="#d8d8d8" stroke-opacity="0.2" stroke-miterlimit="10" pointer-events="none"/></g><g id="cell-Eagw4QfEwXUNtg0F8ZJQ-111" layer="Grid"><path d="M -320 512 L 816 512" fill="none" stroke="#d8d8d8" stroke-opacity="0.2" stroke-miterlimit="10" pointer-events="none"/></g><g id="cell-Eagw4QfEwXUNtg0F8ZJQ-112" layer="Grid"><path d="M -320 528 L 816 528" fill="none" stroke="#d8d8d8" stroke-opacity="0.2" stroke-miterlimit="10" pointer-events="none"/></g><g id="cell-Eagw4QfEwXUNtg0F8ZJQ-113" layer="Grid"><path d="M -320 544 L 816 544" fill="none" stroke="#d8d8d8" stroke-opacity="0.2" stroke-miterlimit="10" pointer-events="none"/></g><g id="cell-Eagw4QfEwXUNtg0F8ZJQ-114" layer="Grid"><path d="M -320 480 L 816 480" fill="none" stroke="#7f7f7f" stroke-opacity="0.2" stroke-miterlimit="10" pointer-events="none"/></g><g id="cell-Eagw4QfEwXUNtg0F8ZJQ-115" layer="Grid"><path d="M -320 560 L 816 560" fill="none" stroke="#7f7f7f" stroke-opacity="0.2" stroke-miterlimit="10" pointer-events="none"/></g><g id="cell-Eagw4QfEwXUNtg0F8ZJQ-116" layer="Grid"><path d="M -320 576 L 816 576" fill="none" stroke="#d8d8d8" stroke-opacity="0.2" stroke-miterlimit="10" pointer-events="none"/></g><g id="cell-Eagw4QfEwXUNtg0F8ZJQ-117" layer="Grid"><path d="M -320 592 L 816 592" fill="none" stroke="#d8d8d8" stroke-opacity="0.2" stroke-miterlimit="10" pointer-events="none"/></g><g id="cell-Eagw4QfEwXUNtg0F8ZJQ-118" layer="Grid"><path d="M -320 608 L 816 608" fill="none" stroke="#d8d8d8" stroke-opacity="0.2" stroke-miterlimit="10" pointer-events="none"/></g><g id="cell-Eagw4QfEwXUNtg0F8ZJQ-119" layer="Grid"><path d="M -320 624 L 816 624" fill="none" stroke="#d8d8d8" stroke-opacity="0.2" stroke-miterlimit="10" pointer-events="none"/></g><g id="cell-Eagw4QfEwXUNtg0F8ZJQ-120" layer="Grid"><path d="M -320 -128 L 816 -128" fill="none" stroke="#d8d8d8" stroke-opacity="0.2" stroke-miterlimit="10" pointer-events="none"/></g><g id="cell-Eagw4QfEwXUNtg0F8ZJQ-121" layer="Grid"><path d="M -320 -144 L 816 -144" fill="none" stroke="#d8d8d8" stroke-opacity="0.2" stroke-miterlimit="10" pointer-events="none"/></g><g id="cell-Eagw4QfEwXUNtg0F8ZJQ-122" layer="Grid"><path d="M -320 -160 L -320 640" fill="none" stroke="#0f0f0f" stroke-opacity="0.2" stroke-miterlimit="10" pointer-events="none"/></g><g id="cell-Eagw4QfEwXUNtg0F8ZJQ-123" layer="Grid"><path d="M -320 -160 L 816 -160" fill="none" stroke="#7f7f7f" stroke-opacity="0.2" stroke-miterlimit="10" pointer-events="none"/></g><g id="cell-Eagw4QfEwXUNtg0F8ZJQ-125" content="&lt;object label=&quot;Connection&quot; PipingConnector=&quot;N&quot; LabelConnector=&quot;N&quot; SignalConnector=&quot;Y&quot; Direction=&quot;90&quot; AuxiliaryConnector=&quot;N&quot;/&gt;" data-label="Connection" data-PipingConnector="N" data-LabelConnector="N" data-SignalConnector="Y" data-Direction="90" data-AuxiliaryConnector="N" layer="Connection"><path d="M -6 32 C -6 28.69000244140625 -3.30999755859375 26 0 26 C 3.30999755859375 26 6 28.69000244140625 6 32 C 6 35.30999755859375 3.30999755859375 38 0 38 C -3.30999755859375 38 -6 35.30999755859375 -6 32" fill="none" stroke="#008000" stroke-miterlimit="10" pointer-events="none"/></g><g id="cell-Eagw4QfEwXUNtg0F8ZJQ-126" content="&lt;object label=&quot;Connection&quot; PipingConnector=&quot;N&quot; LabelConnector=&quot;N&quot; SignalConnector=&quot;Y&quot; Direction=&quot;270&quot; AuxiliaryConnector=&quot;N&quot;/&gt;" data-label="Connection" data-PipingConnector="N" data-LabelConnector="N" data-SignalConnector="Y" data-Direction="270" data-AuxiliaryConnector="N" layer="Connection"><path d="M -6 -32 C -6 -35.30999755859375 -3.30999755859375 -38 0 -38 C 3.30999755859375 -38 6 -35.30999755859375 6 -32 C 6 -28.69000244140625 3.30999755859375 -26 0 -26 C -3.30999755859375 -26 -6 -28.69000244140625 -6 -32" fill="none" stroke="#008000" stroke-miterlimit="10" pointer-events="none"/></g><g id="cell-Zi6h3DBu_DKGfgOVb61Q-0" content="&lt;object label=&quot;Connection&quot; PipingConnector=&quot;N&quot; LabelConnector=&quot;N&quot; SignalConnector=&quot;Y&quot; Direction=&quot;0&quot; AuxiliaryConnector=&quot;N&quot;/&gt;" data-label="Connection" data-PipingConnector="N" data-LabelConnector="N" data-SignalConnector="Y" data-Direction="0" data-AuxiliaryConnector="N" layer="Connection"><path d="M 74 0 C 74 -3.30999755859375 76.69000244140625 -6 80 -6 C 83.30999755859375 -6 86 -3.30999755859375 86 0 C 86 3.30999755859375 83.30999755859375 6 80 6 C 76.69000244140625 6 74 3.30999755859375 74 0" fill="none" stroke="#008000" stroke-miterlimit="10" pointer-events="none"/></g><g id="cell-Zi6h3DBu_DKGfgOVb61Q-1" content="&lt;object label=&quot;Connection&quot; PipingConnector=&quot;N&quot; LabelConnector=&quot;N&quot; SignalConnector=&quot;Y&quot; Direction=&quot;180&quot; AuxiliaryConnector=&quot;N&quot;/&gt;" data-label="Connection" data-PipingConnector="N" data-LabelConnector="N" data-SignalConnector="Y" data-Direction="180" data-AuxiliaryConnector="N" layer="Connection"><path d="M -86 0 C -86 -3.30999755859375 -83.30999755859375 -6 -80 -6 C -76.69000244140625 -6 -74 -3.30999755859375 -74 0 C -74 3.30999755859375 -76.69000244140625 6 -80 6 C -83.30999755859375 6 -86 3.30999755859375 -86 0" fill="none" stroke="#008000" stroke-miterlimit="10" pointer-events="none"/></g><g id="cell-Eagw4QfEwXUNtg0F8ZJQ-128" content="&lt;object label=&quot;%Dimension%: %Value%%UoM%&quot; Dimension=&quot;H&quot; placeholders=&quot;1&quot; UoM=&quot;mm&quot; Value=&quot;4&quot;/&gt;" data-label="%Dimension%: %Value%%UoM%" data-Dimension="H" data-placeholders="1" data-UoM="mm" data-Value="4" layer="Dimension"><path d="M -296 32 L -242 32 M -247.5 31.5 L -253 20.5 M -247.5 31.5 L -242 20.5 M -247.5 31.5 L -247.5 -31.5 M -296 -32 L -242 -32 M -247.5 -31.5 L -253 -20.5 M -247.5 -31.5 L -242 -20.5" fill="none" stroke="#a6a6a6" stroke-miterlimit="10" pointer-events="none"/><g><text x="68" y="164" fill="#a6a6a6" font-family="Helvetica" font-size="12px" text-anchor="end" transform="translate(-320 -160) translate(-0.5 -0.5)">H: 4mm</text></g></g><g id="cell-Eagw4QfEwXUNtg0F8ZJQ-129" content="&lt;object label=&quot;%Dimension%: %Value%%UoM%&quot; placeholders=&quot;1&quot; Dimension=&quot;W&quot; UoM=&quot;mm&quot; Value=&quot;10&quot;/&gt;" data-label="%Dimension%: %Value%%UoM%" data-placeholders="1" data-Dimension="W" data-UoM="mm" data-Value="10" layer="Dimension"><path d="M -80 -148 L -80 -110 M -79.5 -115.5 L -68.5 -121 M -79.5 -115.5 L -68.5 -110 M -79.5 -115.5 L 79.5 -115.5 M 80 -148 L 80 -110 M 79.5 -115.5 L 68.5 -121 M 79.5 -115.5 L 68.5 -110" fill="none" stroke="#a6a6a6" stroke-miterlimit="10" pointer-events="none"/><g><text x="321" y="38" fill="#a6a6a6" font-family="Helvetica" font-size="12px" text-anchor="middle" transform="translate(-320 -160) translate(-0.5 -0.5)">W: 10mm</text></g></g><g id="cell-Eagw4QfEwXUNtg0F8ZJQ-132" content="&lt;object label=&quot;%LabelIndex%&amp;amp;nbsp; &amp;amp;nbsp; &amp;amp;nbsp; &amp;amp;nbsp; &amp;amp;nbsp; &amp;amp;nbsp;%LabelLines%&quot; placeholders=&quot;1&quot; LabelLines=&quot;1&quot; LabelIndex=&quot;A&quot;/&gt;" data-label="%LabelIndex%&amp;nbsp; &amp;nbsp; &amp;nbsp; &amp;nbsp; &amp;nbsp; &amp;nbsp;%LabelLines%" data-placeholders="1" data-LabelLines="1" data-LabelIndex="A" layer="Label"><path fill="none" stroke="#ff0000" pointer-events="none" d="M -36 -8 L 44 -8 L 44 8 L -36 8 z"/><g><text x="286" y="163" fill="#FF0000" font-family="Helvetica" font-size="10px" transform="translate(-320 -160) translate(-0.5 -0.5)">A           1</text></g></g><g id="cell-Eagw4QfEwXUNtg0F8ZJQ-134" content="&lt;object label=&quot;origo&quot;/&gt;" data-label="origo" layer="Origo"><path d="M -6 0 C -6 -3.30999755859375 -3.30999755859375 -6 0 -6 C 3.30999755859375 -6 6 -3.30999755859375 6 0 C 6 3.30999755859375 3.30999755859375 6 0 6 C -3.30999755859375 6 -6 3.30999755859375 -6 0" fill="none" stroke="#ff0000" stroke-miterlimit="10" pointer-events="none"/></g><g id="cell-Eagw4QfEwXUNtg0F8ZJQ-136" layer="Symbol"><path fill="none" stroke="rgb(0, 0, 0)" pointer-events="none" d="M -80 -32 L 80 -32 L 80 32 L -80 32 z"/></g></g></svg>