<?xml version="1.0" encoding="UTF-8"?><!DOCTYPE svg PUBLIC "-//W3C//DTD SVG 1.1//EN" "http://www.w3.org/Graphics/SVG/1.1/DTD/svg11.dtd"><svg xmlns="http://www.w3.org/2000/svg" xmlns:xlink="http://www.w3.org/1999/xlink" version="1.1" width="1138px" height="802px" viewBox="-448.5 -272.5 1138 802"><defs/><g><g id="cell-FXZ0acjRom5HCQV_QIXH-3" layer="Grid"><path d="M 384 528 L 384 -272" fill="none" stroke="#d8d8d8" stroke-opacity="0.2" stroke-miterlimit="10" pointer-events="none"/></g><g id="cell-FXZ0acjRom5HCQV_QIXH-4" layer="Grid"><path d="M 368 528 L 368 -272" fill="none" stroke="#d8d8d8" stroke-opacity="0.2" stroke-miterlimit="10" pointer-events="none"/></g><g id="cell-FXZ0acjRom5HCQV_QIXH-5" layer="Grid"><path d="M 352 528 L 352 -272" fill="none" stroke="#0f0f0f" stroke-opacity="0.2" stroke-miterlimit="10" pointer-events="none"/></g><g id="cell-FXZ0acjRom5HCQV_QIXH-6" layer="Grid"><path d="M 432 528 L 432 -272" fill="none" stroke="#0f0f0f" stroke-opacity="0.2" stroke-miterlimit="10" pointer-events="none"/></g><g id="cell-FXZ0acjRom5HCQV_QIXH-7" layer="Grid"><path d="M 416 528 L 416 -272" fill="none" stroke="#d8d8d8" stroke-opacity="0.2" stroke-miterlimit="10" pointer-events="none"/></g><g id="cell-FXZ0acjRom5HCQV_QIXH-8" layer="Grid"><path d="M 400 528 L 400 -272" fill="none" stroke="#d8d8d8" stroke-opacity="0.2" stroke-miterlimit="10" pointer-events="none"/></g><g id="cell-FXZ0acjRom5HCQV_QIXH-9" layer="Grid"><path d="M 576 528 L 576 -272" fill="none" stroke="#d8d8d8" stroke-opacity="0.2" stroke-miterlimit="10" pointer-events="none"/></g><g id="cell-FXZ0acjRom5HCQV_QIXH-10" layer="Grid"><path d="M 560 528 L 560 -272" fill="none" stroke="#d8d8d8" stroke-opacity="0.2" stroke-miterlimit="10" pointer-events="none"/></g><g id="cell-FXZ0acjRom5HCQV_QIXH-11" layer="Grid"><path d="M 544 528 L 544 -272" fill="none" stroke="#d8d8d8" stroke-opacity="0.2" stroke-miterlimit="10" pointer-events="none"/></g><g id="cell-FXZ0acjRom5HCQV_QIXH-12" layer="Grid"><path d="M 528 528 L 528 -272" fill="none" stroke="#d8d8d8" stroke-opacity="0.2" stroke-miterlimit="10" pointer-events="none"/></g><g id="cell-FXZ0acjRom5HCQV_QIXH-13" layer="Grid"><path d="M 496 528 L 496 -272" fill="none" stroke="#d8d8d8" stroke-opacity="0.2" stroke-miterlimit="10" pointer-events="none"/></g><g id="cell-FXZ0acjRom5HCQV_QIXH-14" layer="Grid"><path d="M 480 528 L 480 -272" fill="none" stroke="#d8d8d8" stroke-opacity="0.2" stroke-miterlimit="10" pointer-events="none"/></g><g id="cell-FXZ0acjRom5HCQV_QIXH-15" layer="Grid"><path d="M 464 528 L 464 -272" fill="none" stroke="#d8d8d8" stroke-opacity="0.2" stroke-miterlimit="10" pointer-events="none"/></g><g id="cell-FXZ0acjRom5HCQV_QIXH-16" layer="Grid"><path d="M 448 528 L 448 -272" fill="none" stroke="#d8d8d8" stroke-opacity="0.2" stroke-miterlimit="10" pointer-events="none"/></g><g id="cell-FXZ0acjRom5HCQV_QIXH-17" layer="Grid"><path d="M 512 528 L 512 -272" fill="none" stroke="#0f0f0f" stroke-opacity="0.2" stroke-miterlimit="10" pointer-events="none"/></g><g id="cell-FXZ0acjRom5HCQV_QIXH-18" layer="Grid"><path d="M 592 528 L 592 -272" fill="none" stroke="#0f0f0f" stroke-opacity="0.2" stroke-miterlimit="10" pointer-events="none"/></g><g id="cell-FXZ0acjRom5HCQV_QIXH-19" layer="Grid"><path d="M 672 528 L 672 -272" fill="none" stroke="#0f0f0f" stroke-opacity="0.2" stroke-miterlimit="10" pointer-events="none"/></g><g id="cell-FXZ0acjRom5HCQV_QIXH-20" layer="Grid"><path d="M 656 528 L 656 -272" fill="none" stroke="#d8d8d8" stroke-opacity="0.2" stroke-miterlimit="10" pointer-events="none"/></g><g id="cell-FXZ0acjRom5HCQV_QIXH-21" layer="Grid"><path d="M 640 528 L 640 -272" fill="none" stroke="#d8d8d8" stroke-opacity="0.2" stroke-miterlimit="10" pointer-events="none"/></g><g id="cell-FXZ0acjRom5HCQV_QIXH-22" layer="Grid"><path d="M 608 528 L 608 -272" fill="none" stroke="#d8d8d8" stroke-opacity="0.2" stroke-miterlimit="10" pointer-events="none"/></g><g id="cell-FXZ0acjRom5HCQV_QIXH-23" layer="Grid"><path d="M 624 528 L 624 -272" fill="none" stroke="#d8d8d8" stroke-opacity="0.2" stroke-miterlimit="10" pointer-events="none"/></g><g id="cell-FXZ0acjRom5HCQV_QIXH-24" layer="Grid"><path d="M 128 -272 L 128 528" fill="none" stroke="#d8d8d8" stroke-opacity="0.2" stroke-miterlimit="10" pointer-events="none"/></g><g id="cell-FXZ0acjRom5HCQV_QIXH-25" layer="Grid"><path d="M 112 -272 L 112 528" fill="none" stroke="#0f0f0f" stroke-opacity="0.2" stroke-miterlimit="10" pointer-events="none"/></g><g id="cell-FXZ0acjRom5HCQV_QIXH-26" layer="Grid"><path d="M 96 -272 L 96 528" fill="none" stroke="#d8d8d8" stroke-opacity="0.2" stroke-miterlimit="10" pointer-events="none"/></g><g id="cell-FXZ0acjRom5HCQV_QIXH-27" layer="Grid"><path d="M 80 -272 L 80 528" fill="none" stroke="#d8d8d8" stroke-opacity="0.2" stroke-miterlimit="10" pointer-events="none"/></g><g id="cell-FXZ0acjRom5HCQV_QIXH-28" layer="Grid"><path d="M 48 -272 L 48 528" fill="none" stroke="#d8d8d8" stroke-opacity="0.2" stroke-miterlimit="10" pointer-events="none"/></g><g id="cell-FXZ0acjRom5HCQV_QIXH-29" layer="Grid"><path d="M 32 -272 L 32 528" fill="none" stroke="#0f0f0f" stroke-opacity="0.2" stroke-miterlimit="10" pointer-events="none"/></g><g id="cell-FXZ0acjRom5HCQV_QIXH-30" layer="Grid"><path d="M 16 -272 L 16 528" fill="none" stroke="#d8d8d8" stroke-opacity="0.2" stroke-miterlimit="10" pointer-events="none"/></g><g id="cell-FXZ0acjRom5HCQV_QIXH-31" layer="Grid"><path d="M 0 -272 L 0 528" fill="none" stroke="#d8d8d8" stroke-opacity="0.2" stroke-miterlimit="10" pointer-events="none"/></g><g id="cell-FXZ0acjRom5HCQV_QIXH-32" layer="Grid"><path d="M 64 -272 L 64 528" fill="none" stroke="#d8d8d8" stroke-opacity="0.2" stroke-miterlimit="10" pointer-events="none"/></g><g id="cell-FXZ0acjRom5HCQV_QIXH-33" layer="Grid"><path d="M -16 -272 L -16 528" fill="none" stroke="#d8d8d8" stroke-opacity="0.2" stroke-miterlimit="10" pointer-events="none"/></g><g id="cell-FXZ0acjRom5HCQV_QIXH-34" layer="Grid"><path d="M -32 -272 L -32 528" fill="none" stroke="#d8d8d8" stroke-opacity="0.2" stroke-miterlimit="10" pointer-events="none"/></g><g id="cell-FXZ0acjRom5HCQV_QIXH-35" layer="Grid"><path d="M -48 -272 L -48 528" fill="none" stroke="#0f0f0f" stroke-opacity="0.2" stroke-miterlimit="10" pointer-events="none"/></g><g id="cell-FXZ0acjRom5HCQV_QIXH-36" layer="Grid"><path d="M -64 -272 L -64 528" fill="none" stroke="#d8d8d8" stroke-opacity="0.2" stroke-miterlimit="10" pointer-events="none"/></g><g id="cell-FXZ0acjRom5HCQV_QIXH-37" layer="Grid"><path d="M -96 -272 L -96 528" fill="none" stroke="#d8d8d8" stroke-opacity="0.2" stroke-miterlimit="10" pointer-events="none"/></g><g id="cell-FXZ0acjRom5HCQV_QIXH-38" layer="Grid"><path d="M -112 -272 L -112 528" fill="none" stroke="#d8d8d8" stroke-opacity="0.2" stroke-miterlimit="10" pointer-events="none"/></g><g id="cell-FXZ0acjRom5HCQV_QIXH-39" layer="Grid"><path d="M -128 -272 L -128 528" fill="none" stroke="#0f0f0f" stroke-opacity="0.2" stroke-miterlimit="10" pointer-events="none"/></g><g id="cell-FXZ0acjRom5HCQV_QIXH-40" layer="Grid"><path d="M -144 -272 L -144 528" fill="none" stroke="#d8d8d8" stroke-opacity="0.2" stroke-miterlimit="10" pointer-events="none"/></g><g id="cell-FXZ0acjRom5HCQV_QIXH-41" layer="Grid"><path d="M -80 -272 L -80 528" fill="none" stroke="#d8d8d8" stroke-opacity="0.2" stroke-miterlimit="10" pointer-events="none"/></g><g id="cell-FXZ0acjRom5HCQV_QIXH-42" layer="Grid"><path d="M -160 -272 L -160 528" fill="none" stroke="#d8d8d8" stroke-opacity="0.2" stroke-miterlimit="10" pointer-events="none"/></g><g id="cell-FXZ0acjRom5HCQV_QIXH-43" layer="Grid"><path d="M -176 -272 L -176 528" fill="none" stroke="#d8d8d8" stroke-opacity="0.2" stroke-miterlimit="10" pointer-events="none"/></g><g id="cell-FXZ0acjRom5HCQV_QIXH-44" layer="Grid"><path d="M -192 -272 L -192 528" fill="none" stroke="#d8d8d8" stroke-opacity="0.2" stroke-miterlimit="10" pointer-events="none"/></g><g id="cell-FXZ0acjRom5HCQV_QIXH-45" layer="Grid"><path d="M -208 -272 L -208 528" fill="none" stroke="#0f0f0f" stroke-opacity="0.2" stroke-miterlimit="10" pointer-events="none"/></g><g id="cell-FXZ0acjRom5HCQV_QIXH-46" layer="Grid"><path d="M -240 -272 L -240 528" fill="none" stroke="#d8d8d8" stroke-opacity="0.2" stroke-miterlimit="10" pointer-events="none"/></g><g id="cell-FXZ0acjRom5HCQV_QIXH-47" layer="Grid"><path d="M -256 -272 L -256 528" fill="none" stroke="#d8d8d8" stroke-opacity="0.2" stroke-miterlimit="10" pointer-events="none"/></g><g id="cell-FXZ0acjRom5HCQV_QIXH-48" layer="Grid"><path d="M -272 -272 L -272 528" fill="none" stroke="#d8d8d8" stroke-opacity="0.2" stroke-miterlimit="10" pointer-events="none"/></g><g id="cell-FXZ0acjRom5HCQV_QIXH-49" layer="Grid"><path d="M -288 -272 L -288 528" fill="none" stroke="#0f0f0f" stroke-opacity="0.2" stroke-miterlimit="10" pointer-events="none"/></g><g id="cell-FXZ0acjRom5HCQV_QIXH-50" layer="Grid"><path d="M -224 -272 L -224 528" fill="none" stroke="#d8d8d8" stroke-opacity="0.2" stroke-miterlimit="10" pointer-events="none"/></g><g id="cell-FXZ0acjRom5HCQV_QIXH-51" layer="Grid"><path d="M -304 -272 L -304 528" fill="none" stroke="#d8d8d8" stroke-opacity="0.2" stroke-miterlimit="10" pointer-events="none"/></g><g id="cell-FXZ0acjRom5HCQV_QIXH-52" layer="Grid"><path d="M -320 -272 L -320 528" fill="none" stroke="#d8d8d8" stroke-opacity="0.2" stroke-miterlimit="10" pointer-events="none"/></g><g id="cell-FXZ0acjRom5HCQV_QIXH-53" layer="Grid"><path d="M -336 -272 L -336 528" fill="none" stroke="#d8d8d8" stroke-opacity="0.2" stroke-miterlimit="10" pointer-events="none"/></g><g id="cell-FXZ0acjRom5HCQV_QIXH-54" layer="Grid"><path d="M -400 -272 L -400 528" fill="none" stroke="#d8d8d8" stroke-opacity="0.2" stroke-miterlimit="10" pointer-events="none"/></g><g id="cell-FXZ0acjRom5HCQV_QIXH-55" layer="Grid"><path d="M -384 -272 L -384 528" fill="none" stroke="#d8d8d8" stroke-opacity="0.2" stroke-miterlimit="10" pointer-events="none"/></g><g id="cell-FXZ0acjRom5HCQV_QIXH-56" layer="Grid"><path d="M -432 -272 L -432 528" fill="none" stroke="#d8d8d8" stroke-opacity="0.2" stroke-miterlimit="10" pointer-events="none"/></g><g id="cell-FXZ0acjRom5HCQV_QIXH-57" layer="Grid"><path d="M -368 -272 L -368 528" fill="none" stroke="#0f0f0f" stroke-opacity="0.2" stroke-miterlimit="10" pointer-events="none"/></g><g id="cell-FXZ0acjRom5HCQV_QIXH-58" layer="Grid"><path d="M 176 -272 L 176 528" fill="none" stroke="#d8d8d8" stroke-opacity="0.2" stroke-miterlimit="10" pointer-events="none"/></g><g id="cell-FXZ0acjRom5HCQV_QIXH-59" layer="Grid"><path d="M 160 -272 L 160 528" fill="none" stroke="#d8d8d8" stroke-opacity="0.2" stroke-miterlimit="10" pointer-events="none"/></g><g id="cell-FXZ0acjRom5HCQV_QIXH-60" layer="Grid"><path d="M 144 -272 L 144 528" fill="none" stroke="#d8d8d8" stroke-opacity="0.2" stroke-miterlimit="10" pointer-events="none"/></g><g id="cell-FXZ0acjRom5HCQV_QIXH-61" layer="Grid"><path d="M -352 -272 L -352 528" fill="none" stroke="#d8d8d8" stroke-opacity="0.2" stroke-miterlimit="10" pointer-events="none"/></g><g id="cell-FXZ0acjRom5HCQV_QIXH-62" layer="Grid"><path d="M -416 -272 L -416 528" fill="none" stroke="#d8d8d8" stroke-opacity="0.2" stroke-miterlimit="10" pointer-events="none"/></g><g id="cell-FXZ0acjRom5HCQV_QIXH-63" layer="Grid"><path d="M 320 -272 L 320 528" fill="none" stroke="#d8d8d8" stroke-opacity="0.2" stroke-miterlimit="10" pointer-events="none"/></g><g id="cell-FXZ0acjRom5HCQV_QIXH-64" layer="Grid"><path d="M 304 -272 L 304 528" fill="none" stroke="#d8d8d8" stroke-opacity="0.2" stroke-miterlimit="10" pointer-events="none"/></g><g id="cell-FXZ0acjRom5HCQV_QIXH-65" layer="Grid"><path d="M 288 -272 L 288 528" fill="none" stroke="#d8d8d8" stroke-opacity="0.2" stroke-miterlimit="10" pointer-events="none"/></g><g id="cell-FXZ0acjRom5HCQV_QIXH-66" layer="Grid"><path d="M 272 -272 L 272 528" fill="none" stroke="#0f0f0f" stroke-opacity="0.2" stroke-miterlimit="10" pointer-events="none"/></g><g id="cell-FXZ0acjRom5HCQV_QIXH-67" layer="Grid"><path d="M 240 -272 L 240 528" fill="none" stroke="#d8d8d8" stroke-opacity="0.2" stroke-miterlimit="10" pointer-events="none"/></g><g id="cell-FXZ0acjRom5HCQV_QIXH-68" layer="Grid"><path d="M 224 -272 L 224 528" fill="none" stroke="#d8d8d8" stroke-opacity="0.2" stroke-miterlimit="10" pointer-events="none"/></g><g id="cell-FXZ0acjRom5HCQV_QIXH-69" layer="Grid"><path d="M 208 -272 L 208 528" fill="none" stroke="#d8d8d8" stroke-opacity="0.2" stroke-miterlimit="10" pointer-events="none"/></g><g id="cell-FXZ0acjRom5HCQV_QIXH-70" layer="Grid"><path d="M 192 -272 L 192 528" fill="none" stroke="#0f0f0f" stroke-opacity="0.2" stroke-miterlimit="10" pointer-events="none"/></g><g id="cell-FXZ0acjRom5HCQV_QIXH-71" layer="Grid"><path d="M 256 -272 L 256 528" fill="none" stroke="#d8d8d8" stroke-opacity="0.2" stroke-miterlimit="10" pointer-events="none"/></g><g id="cell-FXZ0acjRom5HCQV_QIXH-72" layer="Grid"><path d="M 336 -272 L 336 528" fill="none" stroke="#d8d8d8" stroke-opacity="0.2" stroke-miterlimit="10" pointer-events="none"/></g><g id="cell-FXZ0acjRom5HCQV_QIXH-73" layer="Grid"><path d="M -448 -224 L 688 -224" fill="none" stroke="#d8d8d8" stroke-opacity="0.2" stroke-miterlimit="10" pointer-events="none"/></g><g id="cell-FXZ0acjRom5HCQV_QIXH-74" layer="Grid"><path d="M -448 -192 L 688 -192" fill="none" stroke="#7f7f7f" stroke-opacity="0.2" stroke-miterlimit="10" pointer-events="none"/></g><g id="cell-FXZ0acjRom5HCQV_QIXH-75" layer="Grid"><path d="M -448 -176 L 688 -176" fill="none" stroke="#d8d8d8" stroke-opacity="0.2" stroke-miterlimit="10" pointer-events="none"/></g><g id="cell-FXZ0acjRom5HCQV_QIXH-76" layer="Grid"><path d="M -448 -160 L 688 -160" fill="none" stroke="#d8d8d8" stroke-opacity="0.2" stroke-miterlimit="10" pointer-events="none"/></g><g id="cell-FXZ0acjRom5HCQV_QIXH-77" layer="Grid"><path d="M -448 -144 L 688 -144" fill="none" stroke="#d8d8d8" stroke-opacity="0.2" stroke-miterlimit="10" pointer-events="none"/></g><g id="cell-FXZ0acjRom5HCQV_QIXH-78" layer="Grid"><path d="M -448 -208 L 688 -208" fill="none" stroke="#d8d8d8" stroke-opacity="0.2" stroke-miterlimit="10" pointer-events="none"/></g><g id="cell-FXZ0acjRom5HCQV_QIXH-79" layer="Grid"><path d="M -448 -128 L 688 -128" fill="none" stroke="#d8d8d8" stroke-opacity="0.2" stroke-miterlimit="10" pointer-events="none"/></g><g id="cell-FXZ0acjRom5HCQV_QIXH-80" layer="Grid"><path d="M -448 -112 L 688 -112" fill="none" stroke="#7f7f7f" stroke-opacity="0.2" stroke-miterlimit="10" pointer-events="none"/></g><g id="cell-FXZ0acjRom5HCQV_QIXH-81" layer="Grid"><path d="M -448 -96 L 688 -96" fill="none" stroke="#d8d8d8" stroke-opacity="0.2" stroke-miterlimit="10" pointer-events="none"/></g><g id="cell-FXZ0acjRom5HCQV_QIXH-82" layer="Grid"><path d="M -448 -80 L 688 -80" fill="none" stroke="#d8d8d8" stroke-opacity="0.2" stroke-miterlimit="10" pointer-events="none"/></g><g id="cell-FXZ0acjRom5HCQV_QIXH-83" layer="Grid"><path d="M -448 -48 L 688 -48" fill="none" stroke="#d8d8d8" stroke-opacity="0.2" stroke-miterlimit="10" pointer-events="none"/></g><g id="cell-FXZ0acjRom5HCQV_QIXH-84" layer="Grid"><path d="M -448 -32 L 688 -32" fill="none" stroke="#7f7f7f" stroke-opacity="0.2" stroke-miterlimit="10" pointer-events="none"/></g><g id="cell-FXZ0acjRom5HCQV_QIXH-85" layer="Grid"><path d="M -448 -16 L 688 -16" fill="none" stroke="#d8d8d8" stroke-opacity="0.2" stroke-miterlimit="10" pointer-events="none"/></g><g id="cell-FXZ0acjRom5HCQV_QIXH-86" layer="Grid"><path d="M -448 0 L 688 0" fill="none" stroke="#d8d8d8" stroke-opacity="0.2" stroke-miterlimit="10" pointer-events="none"/></g><g id="cell-FXZ0acjRom5HCQV_QIXH-87" layer="Grid"><path d="M -448 -64 L 688 -64" fill="none" stroke="#d8d8d8" stroke-opacity="0.2" stroke-miterlimit="10" pointer-events="none"/></g><g id="cell-FXZ0acjRom5HCQV_QIXH-88" layer="Grid"><path d="M -448 16 L 688 16" fill="none" stroke="#d8d8d8" stroke-opacity="0.2" stroke-miterlimit="10" pointer-events="none"/></g><g id="cell-FXZ0acjRom5HCQV_QIXH-89" layer="Grid"><path d="M -448 32 L 688 32" fill="none" stroke="#d8d8d8" stroke-opacity="0.2" stroke-miterlimit="10" pointer-events="none"/></g><g id="cell-FXZ0acjRom5HCQV_QIXH-90" layer="Grid"><path d="M -448 48 L 688 48" fill="none" stroke="#7f7f7f" stroke-opacity="0.2" stroke-miterlimit="10" pointer-events="none"/></g><g id="cell-FXZ0acjRom5HCQV_QIXH-91" layer="Grid"><path d="M -448 64 L 688 64" fill="none" stroke="#d8d8d8" stroke-opacity="0.2" stroke-miterlimit="10" pointer-events="none"/></g><g id="cell-FXZ0acjRom5HCQV_QIXH-92" layer="Grid"><path d="M -448 96 L 688 96" fill="none" stroke="#d8d8d8" stroke-opacity="0.2" stroke-miterlimit="10" pointer-events="none"/></g><g id="cell-FXZ0acjRom5HCQV_QIXH-93" layer="Grid"><path d="M -448 112 L 688 112" fill="none" stroke="#d8d8d8" stroke-opacity="0.2" stroke-miterlimit="10" pointer-events="none"/></g><g id="cell-FXZ0acjRom5HCQV_QIXH-94" layer="Grid"><path d="M -448 128 L 688 128" fill="none" stroke="#7f7f7f" stroke-opacity="0.2" stroke-miterlimit="10" pointer-events="none"/></g><g id="cell-FXZ0acjRom5HCQV_QIXH-95" layer="Grid"><path d="M -448 144 L 688 144" fill="none" stroke="#d8d8d8" stroke-opacity="0.2" stroke-miterlimit="10" pointer-events="none"/></g><g id="cell-FXZ0acjRom5HCQV_QIXH-96" layer="Grid"><path d="M -448 80 L 688 80" fill="none" stroke="#d8d8d8" stroke-opacity="0.2" stroke-miterlimit="10" pointer-events="none"/></g><g id="cell-FXZ0acjRom5HCQV_QIXH-97" layer="Grid"><path d="M -448 160 L 688 160" fill="none" stroke="#d8d8d8" stroke-opacity="0.2" stroke-miterlimit="10" pointer-events="none"/></g><g id="cell-FXZ0acjRom5HCQV_QIXH-98" layer="Grid"><path d="M -448 176 L 688 176" fill="none" stroke="#d8d8d8" stroke-opacity="0.2" stroke-miterlimit="10" pointer-events="none"/></g><g id="cell-FXZ0acjRom5HCQV_QIXH-99" layer="Grid"><path d="M -448 192 L 688 192" fill="none" stroke="#d8d8d8" stroke-opacity="0.2" stroke-miterlimit="10" pointer-events="none"/></g><g id="cell-FXZ0acjRom5HCQV_QIXH-100" layer="Grid"><path d="M -448 208 L 688 208" fill="none" stroke="#7f7f7f" stroke-opacity="0.2" stroke-miterlimit="10" pointer-events="none"/></g><g id="cell-FXZ0acjRom5HCQV_QIXH-101" layer="Grid"><path d="M -448 240 L 688 240" fill="none" stroke="#d8d8d8" stroke-opacity="0.2" stroke-miterlimit="10" pointer-events="none"/></g><g id="cell-FXZ0acjRom5HCQV_QIXH-102" layer="Grid"><path d="M -448 256 L 688 256" fill="none" stroke="#d8d8d8" stroke-opacity="0.2" stroke-miterlimit="10" pointer-events="none"/></g><g id="cell-FXZ0acjRom5HCQV_QIXH-103" layer="Grid"><path d="M -448 272 L 688 272" fill="none" stroke="#d8d8d8" stroke-opacity="0.2" stroke-miterlimit="10" pointer-events="none"/></g><g id="cell-FXZ0acjRom5HCQV_QIXH-104" layer="Grid"><path d="M -448 288 L 688 288" fill="none" stroke="#7f7f7f" stroke-opacity="0.2" stroke-miterlimit="10" pointer-events="none"/></g><g id="cell-FXZ0acjRom5HCQV_QIXH-105" layer="Grid"><path d="M -448 224 L 688 224" fill="none" stroke="#d8d8d8" stroke-opacity="0.2" stroke-miterlimit="10" pointer-events="none"/></g><g id="cell-FXZ0acjRom5HCQV_QIXH-106" layer="Grid"><path d="M -448 304 L 688 304" fill="none" stroke="#d8d8d8" stroke-opacity="0.2" stroke-miterlimit="10" pointer-events="none"/></g><g id="cell-FXZ0acjRom5HCQV_QIXH-107" layer="Grid"><path d="M -448 320 L 688 320" fill="none" stroke="#d8d8d8" stroke-opacity="0.2" stroke-miterlimit="10" pointer-events="none"/></g><g id="cell-FXZ0acjRom5HCQV_QIXH-108" layer="Grid"><path d="M -448 336 L 688 336" fill="none" stroke="#d8d8d8" stroke-opacity="0.2" stroke-miterlimit="10" pointer-events="none"/></g><g id="cell-FXZ0acjRom5HCQV_QIXH-109" layer="Grid"><path d="M -448 352 L 688 352" fill="none" stroke="#d8d8d8" stroke-opacity="0.2" stroke-miterlimit="10" pointer-events="none"/></g><g id="cell-FXZ0acjRom5HCQV_QIXH-110" layer="Grid"><path d="M -448 384 L 688 384" fill="none" stroke="#d8d8d8" stroke-opacity="0.2" stroke-miterlimit="10" pointer-events="none"/></g><g id="cell-FXZ0acjRom5HCQV_QIXH-111" layer="Grid"><path d="M -448 400 L 688 400" fill="none" stroke="#d8d8d8" stroke-opacity="0.2" stroke-miterlimit="10" pointer-events="none"/></g><g id="cell-FXZ0acjRom5HCQV_QIXH-112" layer="Grid"><path d="M -448 416 L 688 416" fill="none" stroke="#d8d8d8" stroke-opacity="0.2" stroke-miterlimit="10" pointer-events="none"/></g><g id="cell-FXZ0acjRom5HCQV_QIXH-113" layer="Grid"><path d="M -448 432 L 688 432" fill="none" stroke="#d8d8d8" stroke-opacity="0.2" stroke-miterlimit="10" pointer-events="none"/></g><g id="cell-FXZ0acjRom5HCQV_QIXH-114" layer="Grid"><path d="M -448 368 L 688 368" fill="none" stroke="#7f7f7f" stroke-opacity="0.2" stroke-miterlimit="10" pointer-events="none"/></g><g id="cell-FXZ0acjRom5HCQV_QIXH-115" layer="Grid"><path d="M -448 448 L 688 448" fill="none" stroke="#7f7f7f" stroke-opacity="0.2" stroke-miterlimit="10" pointer-events="none"/></g><g id="cell-FXZ0acjRom5HCQV_QIXH-116" layer="Grid"><path d="M -448 464 L 688 464" fill="none" stroke="#d8d8d8" stroke-opacity="0.2" stroke-miterlimit="10" pointer-events="none"/></g><g id="cell-FXZ0acjRom5HCQV_QIXH-117" layer="Grid"><path d="M -448 480 L 688 480" fill="none" stroke="#d8d8d8" stroke-opacity="0.2" stroke-miterlimit="10" pointer-events="none"/></g><g id="cell-FXZ0acjRom5HCQV_QIXH-118" layer="Grid"><path d="M -448 496 L 688 496" fill="none" stroke="#d8d8d8" stroke-opacity="0.2" stroke-miterlimit="10" pointer-events="none"/></g><g id="cell-FXZ0acjRom5HCQV_QIXH-119" layer="Grid"><path d="M -448 512 L 688 512" fill="none" stroke="#d8d8d8" stroke-opacity="0.2" stroke-miterlimit="10" pointer-events="none"/></g><g id="cell-FXZ0acjRom5HCQV_QIXH-120" layer="Grid"><path d="M -448 -240 L 688 -240" fill="none" stroke="#d8d8d8" stroke-opacity="0.2" stroke-miterlimit="10" pointer-events="none"/></g><g id="cell-FXZ0acjRom5HCQV_QIXH-121" layer="Grid"><path d="M -448 -256 L 688 -256" fill="none" stroke="#d8d8d8" stroke-opacity="0.2" stroke-miterlimit="10" pointer-events="none"/></g><g id="cell-FXZ0acjRom5HCQV_QIXH-122" layer="Grid"><path d="M -448 -272 L -448 528" fill="none" stroke="#0f0f0f" stroke-opacity="0.2" stroke-miterlimit="10" pointer-events="none"/></g><g id="cell-FXZ0acjRom5HCQV_QIXH-123" layer="Grid"><path d="M -448 -272 L 688 -272" fill="none" stroke="#7f7f7f" stroke-opacity="0.2" stroke-miterlimit="10" pointer-events="none"/></g><g id="cell-FXZ0acjRom5HCQV_QIXH-125" content="&lt;object label=&quot;Connection&quot; PipingConnector=&quot;Y&quot; LabelConnector=&quot;N&quot; SignalConnector=&quot;N&quot; Direction=&quot;0&quot; AuxiliaryConnector=&quot;N&quot;/&gt;" data-label="Connection" data-PipingConnector="Y" data-LabelConnector="N" data-SignalConnector="N" data-Direction="0" data-AuxiliaryConnector="N" layer="Connection"><path d="M 122 -64 C 122 -67.30999755859375 124.69000244140625 -70 128 -70 C 131.30999755859375 -70 134 -67.30999755859375 134 -64 C 134 -60.69000244140625 131.30999755859375 -58 128 -58 C 124.69000244140625 -58 122 -60.69000244140625 122 -64" fill="none" stroke="#008000" stroke-miterlimit="10" pointer-events="none"/></g><g id="cell-FXZ0acjRom5HCQV_QIXH-126" content="&lt;object label=&quot;Connection&quot; PipingConnector=&quot;Y&quot; LabelConnector=&quot;N&quot; SignalConnector=&quot;N&quot; Direction=&quot;180&quot; AuxiliaryConnector=&quot;N&quot;/&gt;" data-label="Connection" data-PipingConnector="Y" data-LabelConnector="N" data-SignalConnector="N" data-Direction="180" data-AuxiliaryConnector="N" layer="Connection"><path d="M -134 -64 C -134 -67.30999755859375 -131.30999755859375 -70 -128 -70 C -124.69000244140625 -70 -122 -67.30999755859375 -122 -64 C -122 -60.69000244140625 -124.69000244140625 -58 -128 -58 C -131.30999755859375 -58 -134 -60.69000244140625 -134 -64" fill="none" stroke="#008000" stroke-miterlimit="10" pointer-events="none"/></g><g id="cell-lfd4ERR9KzfVwueqH8c_-7" content="&lt;object label=&quot;Connection&quot; PipingConnector=&quot;Y&quot; LabelConnector=&quot;N&quot; SignalConnector=&quot;N&quot; Direction=&quot;0&quot; AuxiliaryConnector=&quot;N&quot;/&gt;" data-label="Connection" data-PipingConnector="Y" data-LabelConnector="N" data-SignalConnector="N" data-Direction="0" data-AuxiliaryConnector="N" layer="Connection"><path d="M 122 64 C 122 60.69000244140625 124.69000244140625 58 128 58 C 131.30999755859375 58 134 60.69000244140625 134 64 C 134 67.30999755859375 131.30999755859375 70 128 70 C 124.69000244140625 70 122 67.30999755859375 122 64" fill="none" stroke="#008000" stroke-miterlimit="10" pointer-events="none"/></g><g id="cell-lfd4ERR9KzfVwueqH8c_-8" content="&lt;object label=&quot;Connection&quot; PipingConnector=&quot;Y&quot; LabelConnector=&quot;N&quot; SignalConnector=&quot;N&quot; Direction=&quot;180&quot; AuxiliaryConnector=&quot;N&quot;/&gt;" data-label="Connection" data-PipingConnector="Y" data-LabelConnector="N" data-SignalConnector="N" data-Direction="180" data-AuxiliaryConnector="N" layer="Connection"><path d="M -134 64 C -134 60.69000244140625 -131.30999755859375 58 -128 58 C -124.69000244140625 58 -122 60.69000244140625 -122 64 C -122 67.30999755859375 -124.69000244140625 70 -128 70 C -131.30999755859375 70 -134 67.30999755859375 -134 64" fill="none" stroke="#008000" stroke-miterlimit="10" pointer-events="none"/></g><g id="cell-FXZ0acjRom5HCQV_QIXH-128" content="&lt;object label=&quot;%Dimension%: %Value%%UoM%&quot; Dimension=&quot;H&quot; placeholders=&quot;1&quot; UoM=&quot;mm&quot; Value=&quot;32&quot;/&gt;" data-label="%Dimension%: %Value%%UoM%" data-Dimension="H" data-placeholders="1" data-UoM="mm" data-Value="32" layer="Dimension"><path d="M -422 127 L -368 127 M -373.5 126.5 L -379 115.5 M -373.5 126.5 L -368 115.5 M -373.5 126.5 L -373.5 -127.5 M -422 -128 L -368 -128 M -373.5 -127.5 L -379 -116.5 M -373.5 -127.5 L -368 -116.5" fill="none" stroke="#a6a6a6" stroke-miterlimit="10" pointer-events="none"/><g><text x="70" y="275" fill="#a6a6a6" font-family="Helvetica" font-size="12px" text-anchor="end" transform="translate(-448 -272) translate(-0.5 -0.5)">H: 32mm</text></g></g><g id="cell-FXZ0acjRom5HCQV_QIXH-129" content="&lt;object label=&quot;%Dimension%: %Value%%UoM%&quot; placeholders=&quot;1&quot; Dimension=&quot;W&quot; UoM=&quot;mm&quot; Value=&quot;32&quot;/&gt;" data-label="%Dimension%: %Value%%UoM%" data-placeholders="1" data-Dimension="W" data-UoM="mm" data-Value="32" layer="Dimension"><path d="M -128 -260 L -128 -222 M -127.5 -227.5 L -116.5 -233 M -127.5 -227.5 L -116.5 -222 M -127.5 -227.5 L 127.5 -227.5 M 128 -260 L 128 -222 M 127.5 -227.5 L 116.5 -233 M 127.5 -227.5 L 116.5 -222" fill="none" stroke="#a6a6a6" stroke-miterlimit="10" pointer-events="none"/><g><text x="449" y="38" fill="#a6a6a6" font-family="Helvetica" font-size="12px" text-anchor="middle" transform="translate(-448 -272) translate(-0.5 -0.5)">W: 32mm</text></g></g><g id="cell-FXZ0acjRom5HCQV_QIXH-132" content="&lt;object label=&quot;%LabelIndex%&amp;amp;nbsp; &amp;amp;nbsp; &amp;amp;nbsp; &amp;amp;nbsp; &amp;amp;nbsp; &amp;amp;nbsp;%LabelLines%&quot; placeholders=&quot;1&quot; LabelLines=&quot;1&quot; LabelIndex=&quot;A&quot;/&gt;" data-label="%LabelIndex%&amp;nbsp; &amp;nbsp; &amp;nbsp; &amp;nbsp; &amp;nbsp; &amp;nbsp;%LabelLines%" data-placeholders="1" data-LabelLines="1" data-LabelIndex="A" layer="Label"><path fill="none" stroke="#ff0000" pointer-events="none" d="M -40 128 L 40 128 L 40 144 L -40 144 z"/><g><text x="410" y="411" fill="#FF0000" font-family="Helvetica" font-size="10px" transform="translate(-448 -272) translate(-0.5 -0.5)">A           1</text></g></g><g id="cell-FXZ0acjRom5HCQV_QIXH-134" content="&lt;object label=&quot;origo&quot;/&gt;" data-label="origo" layer="Origo"><path d="M -6 0 C -6 -3.30999755859375 -3.30999755859375 -6 0 -6 C 3.30999755859375 -6 6 -3.30999755859375 6 0 C 6 3.30999755859375 3.30999755859375 6 0 6 C -3.30999755859375 6 -6 3.30999755859375 -6 0" fill="none" stroke="#ff0000" stroke-miterlimit="10" pointer-events="none"/></g><g id="cell-lfd4ERR9KzfVwueqH8c_-0" layer="Symbol"><path fill="none" stroke="rgb(0, 0, 0)" pointer-events="none" d="M -128 -127 L -112 -127 L -112 128 L -128 128 z"/></g><g id="cell-lfd4ERR9KzfVwueqH8c_-1" layer="Symbol"><path fill="none" stroke="rgb(0, 0, 0)" pointer-events="none" d="M 112 -127 L 128 -127 L 128 128 L 112 128 z"/></g><g id="cell-lfd4ERR9KzfVwueqH8c_-2" layer="Symbol"><path d="M -112 -96 L 112 -97" fill="none" stroke="rgb(0, 0, 0)" stroke-miterlimit="10" pointer-events="none"/></g><g id="cell-lfd4ERR9KzfVwueqH8c_-3" layer="Symbol"><path d="M -111.64999389648438 95.79000854492188 L 112.08001708984375 95.1099853515625" fill="none" stroke="rgb(0, 0, 0)" stroke-miterlimit="10" pointer-events="none"/></g><g id="cell-lfd4ERR9KzfVwueqH8c_-4" layer="Symbol"><path d="M -112 -63.25 L 112 64.25" fill="none" stroke="rgb(0, 0, 0)" stroke-miterlimit="10" stroke-dasharray="3 3" pointer-events="none"/></g><g id="cell-lfd4ERR9KzfVwueqH8c_-5" layer="Symbol"><path d="M -112 64.25 L 112 -63.25" fill="none" stroke="rgb(0, 0, 0)" stroke-miterlimit="10" stroke-dasharray="3 3" pointer-events="none"/></g></g></svg>