<?xml version="1.0" encoding="UTF-8"?><!DOCTYPE svg PUBLIC "-//W3C//DTD SVG 1.1//EN" "http://www.w3.org/Graphics/SVG/1.1/DTD/svg11.dtd"><svg xmlns="http://www.w3.org/2000/svg" xmlns:xlink="http://www.w3.org/1999/xlink" version="1.1" width="1138px" height="802px" viewBox="-656.5 -272.5 1138 802"><defs/><g><g id="cell-gCBXbEWG3YTmvdFgAPc0-3" layer="Grid"><path d="M 176 528 L 176 -272" fill="none" stroke="#d8d8d8" stroke-opacity="0.2" stroke-miterlimit="10" pointer-events="none"/></g><g id="cell-gCBXbEWG3YTmvdFgAPc0-4" layer="Grid"><path d="M 160 528 L 160 -272" fill="none" stroke="#d8d8d8" stroke-opacity="0.2" stroke-miterlimit="10" pointer-events="none"/></g><g id="cell-gCBXbEWG3YTmvdFgAPc0-5" layer="Grid"><path d="M 144 528 L 144 -272" fill="none" stroke="#0f0f0f" stroke-opacity="0.2" stroke-miterlimit="10" pointer-events="none"/></g><g id="cell-gCBXbEWG3YTmvdFgAPc0-6" layer="Grid"><path d="M 224 528 L 224 -272" fill="none" stroke="#0f0f0f" stroke-opacity="0.2" stroke-miterlimit="10" pointer-events="none"/></g><g id="cell-gCBXbEWG3YTmvdFgAPc0-7" layer="Grid"><path d="M 208 528 L 208 -272" fill="none" stroke="#d8d8d8" stroke-opacity="0.2" stroke-miterlimit="10" pointer-events="none"/></g><g id="cell-gCBXbEWG3YTmvdFgAPc0-8" layer="Grid"><path d="M 192 528 L 192 -272" fill="none" stroke="#d8d8d8" stroke-opacity="0.2" stroke-miterlimit="10" pointer-events="none"/></g><g id="cell-gCBXbEWG3YTmvdFgAPc0-9" layer="Grid"><path d="M 368 528 L 368 -272" fill="none" stroke="#d8d8d8" stroke-opacity="0.2" stroke-miterlimit="10" pointer-events="none"/></g><g id="cell-gCBXbEWG3YTmvdFgAPc0-10" layer="Grid"><path d="M 352 528 L 352 -272" fill="none" stroke="#d8d8d8" stroke-opacity="0.2" stroke-miterlimit="10" pointer-events="none"/></g><g id="cell-gCBXbEWG3YTmvdFgAPc0-11" layer="Grid"><path d="M 336 528 L 336 -272" fill="none" stroke="#d8d8d8" stroke-opacity="0.2" stroke-miterlimit="10" pointer-events="none"/></g><g id="cell-gCBXbEWG3YTmvdFgAPc0-12" layer="Grid"><path d="M 320 528 L 320 -272" fill="none" stroke="#d8d8d8" stroke-opacity="0.2" stroke-miterlimit="10" pointer-events="none"/></g><g id="cell-gCBXbEWG3YTmvdFgAPc0-13" layer="Grid"><path d="M 288 528 L 288 -272" fill="none" stroke="#d8d8d8" stroke-opacity="0.2" stroke-miterlimit="10" pointer-events="none"/></g><g id="cell-gCBXbEWG3YTmvdFgAPc0-14" layer="Grid"><path d="M 272 528 L 272 -272" fill="none" stroke="#d8d8d8" stroke-opacity="0.2" stroke-miterlimit="10" pointer-events="none"/></g><g id="cell-gCBXbEWG3YTmvdFgAPc0-15" layer="Grid"><path d="M 256 528 L 256 -272" fill="none" stroke="#d8d8d8" stroke-opacity="0.2" stroke-miterlimit="10" pointer-events="none"/></g><g id="cell-gCBXbEWG3YTmvdFgAPc0-16" layer="Grid"><path d="M 240 528 L 240 -272" fill="none" stroke="#d8d8d8" stroke-opacity="0.2" stroke-miterlimit="10" pointer-events="none"/></g><g id="cell-gCBXbEWG3YTmvdFgAPc0-17" layer="Grid"><path d="M 304 528 L 304 -272" fill="none" stroke="#0f0f0f" stroke-opacity="0.2" stroke-miterlimit="10" pointer-events="none"/></g><g id="cell-gCBXbEWG3YTmvdFgAPc0-18" layer="Grid"><path d="M 384 528 L 384 -272" fill="none" stroke="#0f0f0f" stroke-opacity="0.2" stroke-miterlimit="10" pointer-events="none"/></g><g id="cell-gCBXbEWG3YTmvdFgAPc0-19" layer="Grid"><path d="M 464 528 L 464 -272" fill="none" stroke="#0f0f0f" stroke-opacity="0.2" stroke-miterlimit="10" pointer-events="none"/></g><g id="cell-gCBXbEWG3YTmvdFgAPc0-20" layer="Grid"><path d="M 448 528 L 448 -272" fill="none" stroke="#d8d8d8" stroke-opacity="0.2" stroke-miterlimit="10" pointer-events="none"/></g><g id="cell-gCBXbEWG3YTmvdFgAPc0-21" layer="Grid"><path d="M 432 528 L 432 -272" fill="none" stroke="#d8d8d8" stroke-opacity="0.2" stroke-miterlimit="10" pointer-events="none"/></g><g id="cell-gCBXbEWG3YTmvdFgAPc0-22" layer="Grid"><path d="M 400 528 L 400 -272" fill="none" stroke="#d8d8d8" stroke-opacity="0.2" stroke-miterlimit="10" pointer-events="none"/></g><g id="cell-gCBXbEWG3YTmvdFgAPc0-23" layer="Grid"><path d="M 416 528 L 416 -272" fill="none" stroke="#d8d8d8" stroke-opacity="0.2" stroke-miterlimit="10" pointer-events="none"/></g><g id="cell-gCBXbEWG3YTmvdFgAPc0-24" layer="Grid"><path d="M -80 -272 L -80 528" fill="none" stroke="#d8d8d8" stroke-opacity="0.2" stroke-miterlimit="10" pointer-events="none"/></g><g id="cell-gCBXbEWG3YTmvdFgAPc0-25" layer="Grid"><path d="M -96 -272 L -96 528" fill="none" stroke="#0f0f0f" stroke-opacity="0.2" stroke-miterlimit="10" pointer-events="none"/></g><g id="cell-gCBXbEWG3YTmvdFgAPc0-26" layer="Grid"><path d="M -112 -272 L -112 528" fill="none" stroke="#d8d8d8" stroke-opacity="0.2" stroke-miterlimit="10" pointer-events="none"/></g><g id="cell-gCBXbEWG3YTmvdFgAPc0-27" layer="Grid"><path d="M -128 -272 L -128 528" fill="none" stroke="#d8d8d8" stroke-opacity="0.2" stroke-miterlimit="10" pointer-events="none"/></g><g id="cell-gCBXbEWG3YTmvdFgAPc0-28" layer="Grid"><path d="M -160 -272 L -160 528" fill="none" stroke="#d8d8d8" stroke-opacity="0.2" stroke-miterlimit="10" pointer-events="none"/></g><g id="cell-gCBXbEWG3YTmvdFgAPc0-29" layer="Grid"><path d="M -176 -272 L -176 528" fill="none" stroke="#0f0f0f" stroke-opacity="0.2" stroke-miterlimit="10" pointer-events="none"/></g><g id="cell-gCBXbEWG3YTmvdFgAPc0-30" layer="Grid"><path d="M -192 -272 L -192 528" fill="none" stroke="#d8d8d8" stroke-opacity="0.2" stroke-miterlimit="10" pointer-events="none"/></g><g id="cell-gCBXbEWG3YTmvdFgAPc0-31" layer="Grid"><path d="M -208 -272 L -208 528" fill="none" stroke="#d8d8d8" stroke-opacity="0.2" stroke-miterlimit="10" pointer-events="none"/></g><g id="cell-gCBXbEWG3YTmvdFgAPc0-32" layer="Grid"><path d="M -144 -272 L -144 528" fill="none" stroke="#d8d8d8" stroke-opacity="0.2" stroke-miterlimit="10" pointer-events="none"/></g><g id="cell-gCBXbEWG3YTmvdFgAPc0-33" layer="Grid"><path d="M -224 -272 L -224 528" fill="none" stroke="#d8d8d8" stroke-opacity="0.2" stroke-miterlimit="10" pointer-events="none"/></g><g id="cell-gCBXbEWG3YTmvdFgAPc0-34" layer="Grid"><path d="M -240 -272 L -240 528" fill="none" stroke="#d8d8d8" stroke-opacity="0.2" stroke-miterlimit="10" pointer-events="none"/></g><g id="cell-gCBXbEWG3YTmvdFgAPc0-35" layer="Grid"><path d="M -256 -272 L -256 528" fill="none" stroke="#0f0f0f" stroke-opacity="0.2" stroke-miterlimit="10" pointer-events="none"/></g><g id="cell-gCBXbEWG3YTmvdFgAPc0-36" layer="Grid"><path d="M -272 -272 L -272 528" fill="none" stroke="#d8d8d8" stroke-opacity="0.2" stroke-miterlimit="10" pointer-events="none"/></g><g id="cell-gCBXbEWG3YTmvdFgAPc0-37" layer="Grid"><path d="M -304 -272 L -304 528" fill="none" stroke="#d8d8d8" stroke-opacity="0.2" stroke-miterlimit="10" pointer-events="none"/></g><g id="cell-gCBXbEWG3YTmvdFgAPc0-38" layer="Grid"><path d="M -320 -272 L -320 528" fill="none" stroke="#d8d8d8" stroke-opacity="0.2" stroke-miterlimit="10" pointer-events="none"/></g><g id="cell-gCBXbEWG3YTmvdFgAPc0-39" layer="Grid"><path d="M -336 -272 L -336 528" fill="none" stroke="#0f0f0f" stroke-opacity="0.2" stroke-miterlimit="10" pointer-events="none"/></g><g id="cell-gCBXbEWG3YTmvdFgAPc0-40" layer="Grid"><path d="M -352 -272 L -352 528" fill="none" stroke="#d8d8d8" stroke-opacity="0.2" stroke-miterlimit="10" pointer-events="none"/></g><g id="cell-gCBXbEWG3YTmvdFgAPc0-41" layer="Grid"><path d="M -288 -272 L -288 528" fill="none" stroke="#d8d8d8" stroke-opacity="0.2" stroke-miterlimit="10" pointer-events="none"/></g><g id="cell-gCBXbEWG3YTmvdFgAPc0-42" layer="Grid"><path d="M -368 -272 L -368 528" fill="none" stroke="#d8d8d8" stroke-opacity="0.2" stroke-miterlimit="10" pointer-events="none"/></g><g id="cell-gCBXbEWG3YTmvdFgAPc0-43" layer="Grid"><path d="M -384 -272 L -384 528" fill="none" stroke="#d8d8d8" stroke-opacity="0.2" stroke-miterlimit="10" pointer-events="none"/></g><g id="cell-gCBXbEWG3YTmvdFgAPc0-44" layer="Grid"><path d="M -400 -272 L -400 528" fill="none" stroke="#d8d8d8" stroke-opacity="0.2" stroke-miterlimit="10" pointer-events="none"/></g><g id="cell-gCBXbEWG3YTmvdFgAPc0-45" layer="Grid"><path d="M -416 -272 L -416 528" fill="none" stroke="#0f0f0f" stroke-opacity="0.2" stroke-miterlimit="10" pointer-events="none"/></g><g id="cell-gCBXbEWG3YTmvdFgAPc0-46" layer="Grid"><path d="M -448 -272 L -448 528" fill="none" stroke="#d8d8d8" stroke-opacity="0.2" stroke-miterlimit="10" pointer-events="none"/></g><g id="cell-gCBXbEWG3YTmvdFgAPc0-47" layer="Grid"><path d="M -464 -272 L -464 528" fill="none" stroke="#d8d8d8" stroke-opacity="0.2" stroke-miterlimit="10" pointer-events="none"/></g><g id="cell-gCBXbEWG3YTmvdFgAPc0-48" layer="Grid"><path d="M -480 -272 L -480 528" fill="none" stroke="#d8d8d8" stroke-opacity="0.2" stroke-miterlimit="10" pointer-events="none"/></g><g id="cell-gCBXbEWG3YTmvdFgAPc0-49" layer="Grid"><path d="M -496 -272 L -496 528" fill="none" stroke="#0f0f0f" stroke-opacity="0.2" stroke-miterlimit="10" pointer-events="none"/></g><g id="cell-gCBXbEWG3YTmvdFgAPc0-50" layer="Grid"><path d="M -432 -272 L -432 528" fill="none" stroke="#d8d8d8" stroke-opacity="0.2" stroke-miterlimit="10" pointer-events="none"/></g><g id="cell-gCBXbEWG3YTmvdFgAPc0-51" layer="Grid"><path d="M -512 -272 L -512 528" fill="none" stroke="#d8d8d8" stroke-opacity="0.2" stroke-miterlimit="10" pointer-events="none"/></g><g id="cell-gCBXbEWG3YTmvdFgAPc0-52" layer="Grid"><path d="M -528 -272 L -528 528" fill="none" stroke="#d8d8d8" stroke-opacity="0.2" stroke-miterlimit="10" pointer-events="none"/></g><g id="cell-gCBXbEWG3YTmvdFgAPc0-53" layer="Grid"><path d="M -544 -272 L -544 528" fill="none" stroke="#d8d8d8" stroke-opacity="0.2" stroke-miterlimit="10" pointer-events="none"/></g><g id="cell-gCBXbEWG3YTmvdFgAPc0-54" layer="Grid"><path d="M -608 -272 L -608 528" fill="none" stroke="#d8d8d8" stroke-opacity="0.2" stroke-miterlimit="10" pointer-events="none"/></g><g id="cell-gCBXbEWG3YTmvdFgAPc0-55" layer="Grid"><path d="M -592 -272 L -592 528" fill="none" stroke="#d8d8d8" stroke-opacity="0.2" stroke-miterlimit="10" pointer-events="none"/></g><g id="cell-gCBXbEWG3YTmvdFgAPc0-56" layer="Grid"><path d="M -640 -272 L -640 528" fill="none" stroke="#d8d8d8" stroke-opacity="0.2" stroke-miterlimit="10" pointer-events="none"/></g><g id="cell-gCBXbEWG3YTmvdFgAPc0-57" layer="Grid"><path d="M -576 -272 L -576 528" fill="none" stroke="#0f0f0f" stroke-opacity="0.2" stroke-miterlimit="10" pointer-events="none"/></g><g id="cell-gCBXbEWG3YTmvdFgAPc0-58" layer="Grid"><path d="M -32 -272 L -32 528" fill="none" stroke="#d8d8d8" stroke-opacity="0.2" stroke-miterlimit="10" pointer-events="none"/></g><g id="cell-gCBXbEWG3YTmvdFgAPc0-59" layer="Grid"><path d="M -48 -272 L -48 528" fill="none" stroke="#d8d8d8" stroke-opacity="0.2" stroke-miterlimit="10" pointer-events="none"/></g><g id="cell-gCBXbEWG3YTmvdFgAPc0-60" layer="Grid"><path d="M -64 -272 L -64 528" fill="none" stroke="#d8d8d8" stroke-opacity="0.2" stroke-miterlimit="10" pointer-events="none"/></g><g id="cell-gCBXbEWG3YTmvdFgAPc0-61" layer="Grid"><path d="M -560 -272 L -560 528" fill="none" stroke="#d8d8d8" stroke-opacity="0.2" stroke-miterlimit="10" pointer-events="none"/></g><g id="cell-gCBXbEWG3YTmvdFgAPc0-62" layer="Grid"><path d="M -624 -272 L -624 528" fill="none" stroke="#d8d8d8" stroke-opacity="0.2" stroke-miterlimit="10" pointer-events="none"/></g><g id="cell-gCBXbEWG3YTmvdFgAPc0-63" layer="Grid"><path d="M 112 -272 L 112 528" fill="none" stroke="#d8d8d8" stroke-opacity="0.2" stroke-miterlimit="10" pointer-events="none"/></g><g id="cell-gCBXbEWG3YTmvdFgAPc0-64" layer="Grid"><path d="M 96 -272 L 96 528" fill="none" stroke="#d8d8d8" stroke-opacity="0.2" stroke-miterlimit="10" pointer-events="none"/></g><g id="cell-gCBXbEWG3YTmvdFgAPc0-65" layer="Grid"><path d="M 80 -272 L 80 528" fill="none" stroke="#d8d8d8" stroke-opacity="0.2" stroke-miterlimit="10" pointer-events="none"/></g><g id="cell-gCBXbEWG3YTmvdFgAPc0-66" layer="Grid"><path d="M 64 -272 L 64 528" fill="none" stroke="#0f0f0f" stroke-opacity="0.2" stroke-miterlimit="10" pointer-events="none"/></g><g id="cell-gCBXbEWG3YTmvdFgAPc0-67" layer="Grid"><path d="M 32 -272 L 32 528" fill="none" stroke="#d8d8d8" stroke-opacity="0.2" stroke-miterlimit="10" pointer-events="none"/></g><g id="cell-gCBXbEWG3YTmvdFgAPc0-68" layer="Grid"><path d="M 16 -272 L 16 528" fill="none" stroke="#d8d8d8" stroke-opacity="0.2" stroke-miterlimit="10" pointer-events="none"/></g><g id="cell-gCBXbEWG3YTmvdFgAPc0-69" layer="Grid"><path d="M 0 -272 L 0 528" fill="none" stroke="#d8d8d8" stroke-opacity="0.2" stroke-miterlimit="10" pointer-events="none"/></g><g id="cell-gCBXbEWG3YTmvdFgAPc0-70" layer="Grid"><path d="M -16 -272 L -16 528" fill="none" stroke="#0f0f0f" stroke-opacity="0.2" stroke-miterlimit="10" pointer-events="none"/></g><g id="cell-gCBXbEWG3YTmvdFgAPc0-71" layer="Grid"><path d="M 48 -272 L 48 528" fill="none" stroke="#d8d8d8" stroke-opacity="0.2" stroke-miterlimit="10" pointer-events="none"/></g><g id="cell-gCBXbEWG3YTmvdFgAPc0-72" layer="Grid"><path d="M 128 -272 L 128 528" fill="none" stroke="#d8d8d8" stroke-opacity="0.2" stroke-miterlimit="10" pointer-events="none"/></g><g id="cell-gCBXbEWG3YTmvdFgAPc0-73" layer="Grid"><path d="M -656 -224 L 480 -224" fill="none" stroke="#d8d8d8" stroke-opacity="0.2" stroke-miterlimit="10" pointer-events="none"/></g><g id="cell-gCBXbEWG3YTmvdFgAPc0-74" layer="Grid"><path d="M -656 -192 L 480 -192" fill="none" stroke="#7f7f7f" stroke-opacity="0.2" stroke-miterlimit="10" pointer-events="none"/></g><g id="cell-gCBXbEWG3YTmvdFgAPc0-75" layer="Grid"><path d="M -656 -176 L 480 -176" fill="none" stroke="#d8d8d8" stroke-opacity="0.2" stroke-miterlimit="10" pointer-events="none"/></g><g id="cell-gCBXbEWG3YTmvdFgAPc0-76" layer="Grid"><path d="M -656 -160 L 480 -160" fill="none" stroke="#d8d8d8" stroke-opacity="0.2" stroke-miterlimit="10" pointer-events="none"/></g><g id="cell-gCBXbEWG3YTmvdFgAPc0-77" layer="Grid"><path d="M -656 -144 L 480 -144" fill="none" stroke="#d8d8d8" stroke-opacity="0.2" stroke-miterlimit="10" pointer-events="none"/></g><g id="cell-gCBXbEWG3YTmvdFgAPc0-78" layer="Grid"><path d="M -656 -208 L 480 -208" fill="none" stroke="#d8d8d8" stroke-opacity="0.2" stroke-miterlimit="10" pointer-events="none"/></g><g id="cell-gCBXbEWG3YTmvdFgAPc0-79" layer="Grid"><path d="M -656 -128 L 480 -128" fill="none" stroke="#d8d8d8" stroke-opacity="0.2" stroke-miterlimit="10" pointer-events="none"/></g><g id="cell-gCBXbEWG3YTmvdFgAPc0-80" layer="Grid"><path d="M -656 -112 L 480 -112" fill="none" stroke="#7f7f7f" stroke-opacity="0.2" stroke-miterlimit="10" pointer-events="none"/></g><g id="cell-gCBXbEWG3YTmvdFgAPc0-81" layer="Grid"><path d="M -656 -96 L 480 -96" fill="none" stroke="#d8d8d8" stroke-opacity="0.2" stroke-miterlimit="10" pointer-events="none"/></g><g id="cell-gCBXbEWG3YTmvdFgAPc0-82" layer="Grid"><path d="M -656 -80 L 480 -80" fill="none" stroke="#d8d8d8" stroke-opacity="0.2" stroke-miterlimit="10" pointer-events="none"/></g><g id="cell-gCBXbEWG3YTmvdFgAPc0-83" layer="Grid"><path d="M -656 -48 L 480 -48" fill="none" stroke="#d8d8d8" stroke-opacity="0.2" stroke-miterlimit="10" pointer-events="none"/></g><g id="cell-gCBXbEWG3YTmvdFgAPc0-84" layer="Grid"><path d="M -656 -32 L 480 -32" fill="none" stroke="#7f7f7f" stroke-opacity="0.2" stroke-miterlimit="10" pointer-events="none"/></g><g id="cell-gCBXbEWG3YTmvdFgAPc0-85" layer="Grid"><path d="M -656 -16 L 480 -16" fill="none" stroke="#d8d8d8" stroke-opacity="0.2" stroke-miterlimit="10" pointer-events="none"/></g><g id="cell-gCBXbEWG3YTmvdFgAPc0-86" layer="Grid"><path d="M -656 0 L 480 0" fill="none" stroke="#d8d8d8" stroke-opacity="0.2" stroke-miterlimit="10" pointer-events="none"/></g><g id="cell-gCBXbEWG3YTmvdFgAPc0-87" layer="Grid"><path d="M -656 -64 L 480 -64" fill="none" stroke="#d8d8d8" stroke-opacity="0.2" stroke-miterlimit="10" pointer-events="none"/></g><g id="cell-gCBXbEWG3YTmvdFgAPc0-88" layer="Grid"><path d="M -656 16 L 480 16" fill="none" stroke="#d8d8d8" stroke-opacity="0.2" stroke-miterlimit="10" pointer-events="none"/></g><g id="cell-gCBXbEWG3YTmvdFgAPc0-89" layer="Grid"><path d="M -656 32 L 480 32" fill="none" stroke="#d8d8d8" stroke-opacity="0.2" stroke-miterlimit="10" pointer-events="none"/></g><g id="cell-gCBXbEWG3YTmvdFgAPc0-90" layer="Grid"><path d="M -656 48 L 480 48" fill="none" stroke="#7f7f7f" stroke-opacity="0.2" stroke-miterlimit="10" pointer-events="none"/></g><g id="cell-gCBXbEWG3YTmvdFgAPc0-91" layer="Grid"><path d="M -656 64 L 480 64" fill="none" stroke="#d8d8d8" stroke-opacity="0.2" stroke-miterlimit="10" pointer-events="none"/></g><g id="cell-gCBXbEWG3YTmvdFgAPc0-92" layer="Grid"><path d="M -656 96 L 480 96" fill="none" stroke="#d8d8d8" stroke-opacity="0.2" stroke-miterlimit="10" pointer-events="none"/></g><g id="cell-gCBXbEWG3YTmvdFgAPc0-93" layer="Grid"><path d="M -656 112 L 480 112" fill="none" stroke="#d8d8d8" stroke-opacity="0.2" stroke-miterlimit="10" pointer-events="none"/></g><g id="cell-gCBXbEWG3YTmvdFgAPc0-94" layer="Grid"><path d="M -656 128 L 480 128" fill="none" stroke="#7f7f7f" stroke-opacity="0.2" stroke-miterlimit="10" pointer-events="none"/></g><g id="cell-gCBXbEWG3YTmvdFgAPc0-95" layer="Grid"><path d="M -656 144 L 480 144" fill="none" stroke="#d8d8d8" stroke-opacity="0.2" stroke-miterlimit="10" pointer-events="none"/></g><g id="cell-gCBXbEWG3YTmvdFgAPc0-96" layer="Grid"><path d="M -656 80 L 480 80" fill="none" stroke="#d8d8d8" stroke-opacity="0.2" stroke-miterlimit="10" pointer-events="none"/></g><g id="cell-gCBXbEWG3YTmvdFgAPc0-97" layer="Grid"><path d="M -656 160 L 480 160" fill="none" stroke="#d8d8d8" stroke-opacity="0.2" stroke-miterlimit="10" pointer-events="none"/></g><g id="cell-gCBXbEWG3YTmvdFgAPc0-98" layer="Grid"><path d="M -656 176 L 480 176" fill="none" stroke="#d8d8d8" stroke-opacity="0.2" stroke-miterlimit="10" pointer-events="none"/></g><g id="cell-gCBXbEWG3YTmvdFgAPc0-99" layer="Grid"><path d="M -656 192 L 480 192" fill="none" stroke="#d8d8d8" stroke-opacity="0.2" stroke-miterlimit="10" pointer-events="none"/></g><g id="cell-gCBXbEWG3YTmvdFgAPc0-100" layer="Grid"><path d="M -656 208 L 480 208" fill="none" stroke="#7f7f7f" stroke-opacity="0.2" stroke-miterlimit="10" pointer-events="none"/></g><g id="cell-gCBXbEWG3YTmvdFgAPc0-101" layer="Grid"><path d="M -656 240 L 480 240" fill="none" stroke="#d8d8d8" stroke-opacity="0.2" stroke-miterlimit="10" pointer-events="none"/></g><g id="cell-gCBXbEWG3YTmvdFgAPc0-102" layer="Grid"><path d="M -656 256 L 480 256" fill="none" stroke="#d8d8d8" stroke-opacity="0.2" stroke-miterlimit="10" pointer-events="none"/></g><g id="cell-gCBXbEWG3YTmvdFgAPc0-103" layer="Grid"><path d="M -656 272 L 480 272" fill="none" stroke="#d8d8d8" stroke-opacity="0.2" stroke-miterlimit="10" pointer-events="none"/></g><g id="cell-gCBXbEWG3YTmvdFgAPc0-104" layer="Grid"><path d="M -656 288 L 480 288" fill="none" stroke="#7f7f7f" stroke-opacity="0.2" stroke-miterlimit="10" pointer-events="none"/></g><g id="cell-gCBXbEWG3YTmvdFgAPc0-105" layer="Grid"><path d="M -656 224 L 480 224" fill="none" stroke="#d8d8d8" stroke-opacity="0.2" stroke-miterlimit="10" pointer-events="none"/></g><g id="cell-gCBXbEWG3YTmvdFgAPc0-106" layer="Grid"><path d="M -656 304 L 480 304" fill="none" stroke="#d8d8d8" stroke-opacity="0.2" stroke-miterlimit="10" pointer-events="none"/></g><g id="cell-gCBXbEWG3YTmvdFgAPc0-107" layer="Grid"><path d="M -656 320 L 480 320" fill="none" stroke="#d8d8d8" stroke-opacity="0.2" stroke-miterlimit="10" pointer-events="none"/></g><g id="cell-gCBXbEWG3YTmvdFgAPc0-108" layer="Grid"><path d="M -656 336 L 480 336" fill="none" stroke="#d8d8d8" stroke-opacity="0.2" stroke-miterlimit="10" pointer-events="none"/></g><g id="cell-gCBXbEWG3YTmvdFgAPc0-109" layer="Grid"><path d="M -656 352 L 480 352" fill="none" stroke="#d8d8d8" stroke-opacity="0.2" stroke-miterlimit="10" pointer-events="none"/></g><g id="cell-gCBXbEWG3YTmvdFgAPc0-110" layer="Grid"><path d="M -656 384 L 480 384" fill="none" stroke="#d8d8d8" stroke-opacity="0.2" stroke-miterlimit="10" pointer-events="none"/></g><g id="cell-gCBXbEWG3YTmvdFgAPc0-111" layer="Grid"><path d="M -656 400 L 480 400" fill="none" stroke="#d8d8d8" stroke-opacity="0.2" stroke-miterlimit="10" pointer-events="none"/></g><g id="cell-gCBXbEWG3YTmvdFgAPc0-112" layer="Grid"><path d="M -656 416 L 480 416" fill="none" stroke="#d8d8d8" stroke-opacity="0.2" stroke-miterlimit="10" pointer-events="none"/></g><g id="cell-gCBXbEWG3YTmvdFgAPc0-113" layer="Grid"><path d="M -656 432 L 480 432" fill="none" stroke="#d8d8d8" stroke-opacity="0.2" stroke-miterlimit="10" pointer-events="none"/></g><g id="cell-gCBXbEWG3YTmvdFgAPc0-114" layer="Grid"><path d="M -656 368 L 480 368" fill="none" stroke="#7f7f7f" stroke-opacity="0.2" stroke-miterlimit="10" pointer-events="none"/></g><g id="cell-gCBXbEWG3YTmvdFgAPc0-115" layer="Grid"><path d="M -656 448 L 480 448" fill="none" stroke="#7f7f7f" stroke-opacity="0.2" stroke-miterlimit="10" pointer-events="none"/></g><g id="cell-gCBXbEWG3YTmvdFgAPc0-116" layer="Grid"><path d="M -656 464 L 480 464" fill="none" stroke="#d8d8d8" stroke-opacity="0.2" stroke-miterlimit="10" pointer-events="none"/></g><g id="cell-gCBXbEWG3YTmvdFgAPc0-117" layer="Grid"><path d="M -656 480 L 480 480" fill="none" stroke="#d8d8d8" stroke-opacity="0.2" stroke-miterlimit="10" pointer-events="none"/></g><g id="cell-gCBXbEWG3YTmvdFgAPc0-118" layer="Grid"><path d="M -656 496 L 480 496" fill="none" stroke="#d8d8d8" stroke-opacity="0.2" stroke-miterlimit="10" pointer-events="none"/></g><g id="cell-gCBXbEWG3YTmvdFgAPc0-119" layer="Grid"><path d="M -656 512 L 480 512" fill="none" stroke="#d8d8d8" stroke-opacity="0.2" stroke-miterlimit="10" pointer-events="none"/></g><g id="cell-gCBXbEWG3YTmvdFgAPc0-120" layer="Grid"><path d="M -656 -240 L 480 -240" fill="none" stroke="#d8d8d8" stroke-opacity="0.2" stroke-miterlimit="10" pointer-events="none"/></g><g id="cell-gCBXbEWG3YTmvdFgAPc0-121" layer="Grid"><path d="M -656 -256 L 480 -256" fill="none" stroke="#d8d8d8" stroke-opacity="0.2" stroke-miterlimit="10" pointer-events="none"/></g><g id="cell-gCBXbEWG3YTmvdFgAPc0-122" layer="Grid"><path d="M -656 -272 L -656 528" fill="none" stroke="#0f0f0f" stroke-opacity="0.2" stroke-miterlimit="10" pointer-events="none"/></g><g id="cell-gCBXbEWG3YTmvdFgAPc0-123" layer="Grid"><path d="M -656 -272 L 480 -272" fill="none" stroke="#7f7f7f" stroke-opacity="0.2" stroke-miterlimit="10" pointer-events="none"/></g><g id="cell-gCBXbEWG3YTmvdFgAPc0-127" content="&lt;object label=&quot;Connection&quot; PipingConnector=&quot;Y&quot; LabelConnector=&quot;N&quot; SignalConnector=&quot;N&quot; Direction=&quot;90&quot; AuxiliaryConnector=&quot;N&quot;/&gt;" data-label="Connection" data-PipingConnector="Y" data-LabelConnector="N" data-SignalConnector="N" data-Direction="90" data-AuxiliaryConnector="N" layer="Connection"><path d="M 266 96 C 266 92.69000244140625 268.69000244140625 90 272 90 C 275.30999755859375 90 278 92.69000244140625 278 96 C 278 99.30999755859375 275.30999755859375 102 272 102 C 268.69000244140625 102 266 99.30999755859375 266 96" fill="none" stroke="#008000" stroke-miterlimit="10" pointer-events="none"/></g><g id="cell-gCBXbEWG3YTmvdFgAPc0-125" content="&lt;object label=&quot;Connection&quot; PipingConnector=&quot;Y&quot; LabelConnector=&quot;N&quot; SignalConnector=&quot;N&quot; Direction=&quot;270&quot; AuxiliaryConnector=&quot;N&quot;/&gt;" data-label="Connection" data-PipingConnector="Y" data-LabelConnector="N" data-SignalConnector="N" data-Direction="270" data-AuxiliaryConnector="N" layer="Connection"><path d="M 266 -96 C 266 -99.30999755859375 268.69000244140625 -102 272 -102 C 275.30999755859375 -102 278 -99.30999755859375 278 -96 C 278 -92.69000244140625 275.30999755859375 -90 272 -90 C 268.69000244140625 -90 266 -92.69000244140625 266 -96" fill="none" stroke="#008000" stroke-miterlimit="10" pointer-events="none"/></g><g id="cell-gCBXbEWG3YTmvdFgAPc0-126" content="&lt;object label=&quot;Connection&quot; PipingConnector=&quot;Y&quot; LabelConnector=&quot;N&quot; SignalConnector=&quot;N&quot; Direction=&quot;270&quot; AuxiliaryConnector=&quot;N&quot;/&gt;" data-label="Connection" data-PipingConnector="Y" data-LabelConnector="N" data-SignalConnector="N" data-Direction="270" data-AuxiliaryConnector="N" layer="Connection"><path d="M -278 -96 C -278 -99.30999755859375 -275.30999755859375 -102 -272 -102 C -268.69000244140625 -102 -266 -99.30999755859375 -266 -96 C -266 -92.69000244140625 -268.69000244140625 -90 -272 -90 C -275.30999755859375 -90 -278 -92.69000244140625 -278 -96" fill="none" stroke="#008000" stroke-miterlimit="10" pointer-events="none"/></g><g id="cell-gCBXbEWG3YTmvdFgAPc0-128" content="&lt;object label=&quot;Connection&quot; PipingConnector=&quot;Y&quot; LabelConnector=&quot;N&quot; SignalConnector=&quot;N&quot; Direction=&quot;90&quot; AuxiliaryConnector=&quot;N&quot;/&gt;" data-label="Connection" data-PipingConnector="Y" data-LabelConnector="N" data-SignalConnector="N" data-Direction="90" data-AuxiliaryConnector="N" layer="Connection"><path d="M -278 96 C -278 92.69000244140625 -275.30999755859375 90 -272 90 C -268.69000244140625 90 -266 92.69000244140625 -266 96 C -266 99.30999755859375 -268.69000244140625 102 -272 102 C -275.30999755859375 102 -278 99.30999755859375 -278 96" fill="none" stroke="#008000" stroke-miterlimit="10" pointer-events="none"/></g><g id="cell-gCBXbEWG3YTmvdFgAPc0-130" content="&lt;object label=&quot;%Dimension%: %Value%%UoM%&quot; Dimension=&quot;H&quot; placeholders=&quot;1&quot; UoM=&quot;mm&quot; Value=&quot;24&quot;/&gt;" data-label="%Dimension%: %Value%%UoM%" data-Dimension="H" data-placeholders="1" data-UoM="mm" data-Value="24" layer="Dimension"><path d="M -630 127 L -576 127 M -581.5 126.5 L -587 115.5 M -581.5 126.5 L -576 115.5 M -581.5 126.5 L -581.5 -127.5 M -630 -128 L -576 -128 M -581.5 -127.5 L -587 -116.5 M -581.5 -127.5 L -576 -116.5" fill="none" stroke="#a6a6a6" stroke-miterlimit="10" pointer-events="none"/><g><text x="74" y="276" fill="#a6a6a6" font-family="Helvetica" font-size="12px" text-anchor="end" transform="translate(-656 -272) translate(-0.5 -0.5)">H: 24mm</text></g></g><g id="cell-gCBXbEWG3YTmvdFgAPc0-131" content="&lt;object label=&quot;%Dimension%: %Value%%UoM%&quot; placeholders=&quot;1&quot; Dimension=&quot;W&quot; UoM=&quot;mm&quot; Value=&quot;84&quot;/&gt;" data-label="%Dimension%: %Value%%UoM%" data-placeholders="1" data-Dimension="W" data-UoM="mm" data-Value="84" layer="Dimension"><path d="M -336 -260 L -336 -222 M -335.5 -227.5 L -324.5 -233 M -335.5 -227.5 L -324.5 -222 M -335.5 -227.5 L 334.5 -227.5 M 335 -260 L 335 -222 M 334.5 -227.5 L 323.5 -233 M 334.5 -227.5 L 323.5 -222" fill="none" stroke="#a6a6a6" stroke-miterlimit="10" pointer-events="none"/><g><text x="657" y="38" fill="#a6a6a6" font-family="Helvetica" font-size="12px" text-anchor="middle" transform="translate(-656 -272) translate(-0.5 -0.5)">W: 84mm</text></g></g><g id="cell-gCBXbEWG3YTmvdFgAPc0-134" content="&lt;object label=&quot;%LabelIndex%&amp;amp;nbsp; &amp;amp;nbsp; &amp;amp;nbsp; &amp;amp;nbsp; &amp;amp;nbsp; &amp;amp;nbsp;%LabelLines%&quot; placeholders=&quot;1&quot; LabelLines=&quot;1&quot; LabelIndex=&quot;A&quot;/&gt;" data-label="%LabelIndex%&amp;nbsp; &amp;nbsp; &amp;nbsp; &amp;nbsp; &amp;nbsp; &amp;nbsp;%LabelLines%" data-placeholders="1" data-LabelLines="1" data-LabelIndex="A" layer="Label"><path fill="none" stroke="#ff0000" pointer-events="none" d="M -40 -8 L 40 -8 L 40 8 L -40 8 z"/><g><text x="618" y="275" fill="#FF0000" font-family="Helvetica" font-size="10px" transform="translate(-656 -272) translate(-0.5 -0.5)">A           1</text></g></g><g id="cell-gCBXbEWG3YTmvdFgAPc0-136" content="&lt;object label=&quot;origo&quot;/&gt;" data-label="origo" layer="Origo"><path d="M -6 0 C -6 -3.30999755859375 -3.30999755859375 -6 0 -6 C 3.30999755859375 -6 6 -3.30999755859375 6 0 C 6 3.30999755859375 3.30999755859375 6 0 6 C -3.30999755859375 6 -6 3.30999755859375 -6 0" fill="none" stroke="#ff0000" stroke-miterlimit="10" pointer-events="none"/></g><g id="cell-gCBXbEWG3YTmvdFgAPc0-138" layer="Symbol"><path fill="none" stroke="rgb(0, 0, 0)" pointer-events="none" d="M -336 -128 L -320 -128 L -320 128 L -336 128 z"/></g><g id="cell-gCBXbEWG3YTmvdFgAPc0-139" layer="Symbol"><path fill="none" stroke="rgb(0, 0, 0)" pointer-events="none" d="M 320 -128 L 336 -128 L 336 128 L 320 128 z"/></g><g id="cell-gCBXbEWG3YTmvdFgAPc0-140" layer="Symbol"><path d="M -208.16000366210938 -96 L 207.72998046875 -95.22999572753906" fill="none" stroke="rgb(0, 0, 0)" stroke-miterlimit="10" pointer-events="none"/></g><g id="cell-gCBXbEWG3YTmvdFgAPc0-141" layer="Symbol"><path d="M -207.92001342773438 95.739990234375 L 207.739990234375 94.72000122070312" fill="none" stroke="rgb(0, 0, 0)" stroke-miterlimit="10" pointer-events="none"/></g><g id="cell-EobbvcSsf5eTC5hmWeWL-0" layer="Symbol"><path fill="none" stroke="rgb(0, 0, 0)" pointer-events="none" d="M -320 -128 L -304 -128 L -304 128 L -320 128 z"/></g><g id="cell-EobbvcSsf5eTC5hmWeWL-1" layer="Symbol"><path fill="none" stroke="rgb(0, 0, 0)" pointer-events="none" d="M 304 -128 L 320 -128 L 320 128 L 304 128 z"/></g><g id="cell-EobbvcSsf5eTC5hmWeWL-2" layer="Symbol"><path fill="none" stroke="rgb(0, 0, 0)" pointer-events="none" d="M -240 -128 L -224 -128 L -224 128 L -240 128 z"/></g><g id="cell-EobbvcSsf5eTC5hmWeWL-3" layer="Symbol"><path fill="none" stroke="rgb(0, 0, 0)" pointer-events="none" d="M -224 -128 L -208 -128 L -208 128 L -224 128 z"/></g><g id="cell-EobbvcSsf5eTC5hmWeWL-4" layer="Symbol"><path fill="none" stroke="rgb(0, 0, 0)" pointer-events="none" d="M 208 -128 L 224 -128 L 224 128 L 208 128 z"/></g><g id="cell-EobbvcSsf5eTC5hmWeWL-5" layer="Symbol"><path fill="none" stroke="rgb(0, 0, 0)" pointer-events="none" d="M 224 -128 L 240 -128 L 240 128 L 224 128 z"/></g><g id="cell-EobbvcSsf5eTC5hmWeWL-6" layer="Symbol"><path d="M -304.0199890136719 -96.25999450683594 L -240 -96" fill="none" stroke="rgb(0, 0, 0)" stroke-miterlimit="10" pointer-events="none"/></g><g id="cell-EobbvcSsf5eTC5hmWeWL-7" layer="Symbol"><path d="M -303.6300048828125 96 L -240 96.260009765625" fill="none" stroke="rgb(0, 0, 0)" stroke-miterlimit="10" pointer-events="none"/></g><g id="cell-_BKEYgJLWYhNnVfLumgn-1" layer="Symbol"><path d="M 240.55999755859375 -96 L 303.54998779296875 -95.74000549316406" fill="none" stroke="rgb(0, 0, 0)" stroke-miterlimit="10" pointer-events="none"/></g><g id="cell-_BKEYgJLWYhNnVfLumgn-2" layer="Symbol"><path d="M 240.55999755859375 96 L 303.54998779296875 96.260009765625" fill="none" stroke="rgb(0, 0, 0)" stroke-miterlimit="10" pointer-events="none"/></g></g></svg>