<?xml version="1.0" encoding="UTF-8" standalone="no"?>
<!DOCTYPE svg PUBLIC "-//W3C//DTD SVG 1.1//EN" "http://www.w3.org/Graphics/SVG/1.1/DTD/svg11.dtd">
<!-- Generated by Microsoft Visio, SVG Export PD004A_Detail.svg Page-1 -->
<svg xmlns="http://www.w3.org/2000/svg" xmlns:xlink="http://www.w3.org/1999/xlink" xmlns:ev="http://www.w3.org/2001/xml-events"
		width="11.1719in" height="7.71769in" viewBox="0 0 804.377 555.674" xml:space="preserve" color-interpolation-filters="sRGB"
		class="st18">
	<title>PD004A</title>

	<style type="text/css">
	<![CDATA[
		.st1 {stroke:#d8d8d8;stroke-linecap:round;stroke-linejoin:round;stroke-width:0.25}
		.st2 {stroke:#7f7f7f;stroke-linecap:round;stroke-linejoin:round;stroke-width:0.25}
		.st3 {fill:#ffffff;stroke:#ff0000;stroke-linecap:round;stroke-linejoin:round;stroke-width:2.25}
		.st4 {fill:#ffffff}
		.st5 {stroke:#000000;stroke-linecap:round;stroke-linejoin:round;stroke-width:0.24}
		.st6 {marker-end:url(#mrkr13-295);stroke:#000000;stroke-linecap:round;stroke-linejoin:round;stroke-width:0.24}
		.st7 {fill:#000000;fill-opacity:1;stroke:#000000;stroke-opacity:1;stroke-width:0.11764705882353}
		.st8 {fill:#ffffff;stroke:none;stroke-linecap:butt;stroke-width:7.2}
		.st9 {fill:#000000;font-family:Calibri;font-size:0.666664em}
		.st10 {fill:none;stroke:none;stroke-linecap:round;stroke-linejoin:round;stroke-width:0.75}
		.st11 {fill:#ff0000;font-family:Arial Narrow;font-size:0.811964em;font-weight:bold}
		.st12 {baseline-shift:33.35%;font-size:0.667em}
		.st13 {fill:none;stroke:#ff0000;stroke-linecap:round;stroke-linejoin:round;stroke-width:0.75}
		.st14 {fill:#ff0000;font-family:Arial Narrow;font-size:0.833336em;font-weight:bold}
		.st15 {fill:none;stroke:#000000;stroke-linecap:round;stroke-linejoin:round;stroke-width:2.25}
		.st16 {stroke:#000000;stroke-linecap:round;stroke-linejoin:round;stroke-width:2.25}
		.st17 {fill:none}
		.st18 {fill:none;fill-rule:evenodd;font-size:12px;overflow:visible;stroke-linecap:square;stroke-miterlimit:3}
	]]>
	</style>

	<defs id="Markers">
		<g id="lend13">
			<path d="M 3 1 L 0 0 L 3 -1 L 3 1 " style="stroke:none"/>
		</g>
		<marker id="mrkr13-295" class="st7" refX="-25.5" orient="auto" markerUnits="strokeWidth" overflow="visible">
			<use xlink:href="#lend13" transform="scale(-8.5000000000001,-8.5000000000001) "/>
		</marker>
	</defs>
	<g>
		<title>Page-1</title>
		<g id="group1404-1" transform="translate(0.125,-0.125006)">
			<title>Sheet.1404</title>
			<g id="shape1309-2" transform="translate(594.381,0.250006) rotate(90)">
				<title>Sheet.1309</title>
				<path d="M0 555.67 L555.42 555.67" class="st1"/>
			</g>
			<g id="shape1310-5" transform="translate(622.728,0.250006) rotate(90)">
				<title>Sheet.1310</title>
				<path d="M0 555.67 L555.42 555.67" class="st2"/>
			</g>
			<g id="shape1311-8" transform="translate(636.901,0.250006) rotate(90)">
				<title>Sheet.1311</title>
				<path d="M0 555.67 L555.42 555.67" class="st1"/>
			</g>
			<g id="shape1312-11" transform="translate(651.074,0.250006) rotate(90)">
				<title>Sheet.1312</title>
				<path d="M0 555.67 L555.42 555.67" class="st1"/>
			</g>
			<g id="shape1313-14" transform="translate(665.247,0.250006) rotate(90)">
				<title>Sheet.1313</title>
				<path d="M0 555.67 L555.42 555.67" class="st1"/>
			</g>
			<g id="shape1314-17" transform="translate(608.555,0.250006) rotate(90)">
				<title>Sheet.1314</title>
				<path d="M0 555.67 L555.42 555.67" class="st1"/>
			</g>
			<g id="shape1315-20" transform="translate(679.421,0.250006) rotate(90)">
				<title>Sheet.1315</title>
				<path d="M0 555.67 L555.42 555.67" class="st1"/>
			</g>
			<g id="shape1316-23" transform="translate(693.594,0.250006) rotate(90)">
				<title>Sheet.1316</title>
				<path d="M0 555.67 L555.42 555.67" class="st2"/>
			</g>
			<g id="shape1317-26" transform="translate(707.767,0.250006) rotate(90)">
				<title>Sheet.1317</title>
				<path d="M0 555.67 L555.42 555.67" class="st1"/>
			</g>
			<g id="shape1318-29" transform="translate(721.94,0.250006) rotate(90)">
				<title>Sheet.1318</title>
				<path d="M0 555.67 L555.42 555.67" class="st1"/>
			</g>
			<g id="shape1319-32" transform="translate(750.287,0.250006) rotate(90)">
				<title>Sheet.1319</title>
				<path d="M0 555.67 L555.42 555.67" class="st1"/>
			</g>
			<g id="shape1320-35" transform="translate(764.46,0.250006) rotate(90)">
				<title>Sheet.1320</title>
				<path d="M0 555.67 L555.42 555.67" class="st2"/>
			</g>
			<g id="shape1321-38" transform="translate(778.633,0.250006) rotate(90)">
				<title>Sheet.1321</title>
				<path d="M0 555.67 L555.42 555.67" class="st1"/>
			</g>
			<g id="shape1322-41" transform="translate(792.807,0.250006) rotate(90)">
				<title>Sheet.1322</title>
				<path d="M0 555.67 L555.42 555.67" class="st1"/>
			</g>
			<g id="shape1323-44" transform="translate(736.114,0.250006) rotate(90)">
				<title>Sheet.1323</title>
				<path d="M0 555.67 L555.42 555.67" class="st1"/>
			</g>
			<g id="shape1324-47" transform="translate(806.98,0.250006) rotate(90)">
				<title>Sheet.1324</title>
				<path d="M0 555.67 L555.42 555.67" class="st1"/>
			</g>
			<g id="shape1325-50" transform="translate(821.153,0.250006) rotate(90)">
				<title>Sheet.1325</title>
				<path d="M0 555.67 L555.42 555.67" class="st1"/>
			</g>
			<g id="shape1326-53" transform="translate(835.326,0.250006) rotate(90)">
				<title>Sheet.1326</title>
				<path d="M0 555.67 L555.42 555.67" class="st2"/>
			</g>
			<g id="shape1327-56" transform="translate(849.499,0.250006) rotate(90)">
				<title>Sheet.1327</title>
				<path d="M0 555.67 L555.42 555.67" class="st1"/>
			</g>
			<g id="shape1328-59" transform="translate(877.846,0.250006) rotate(90)">
				<title>Sheet.1328</title>
				<path d="M0 555.67 L555.42 555.67" class="st1"/>
			</g>
			<g id="shape1329-62" transform="translate(892.019,0.250006) rotate(90)">
				<title>Sheet.1329</title>
				<path d="M0 555.67 L555.42 555.67" class="st1"/>
			</g>
			<g id="shape1330-65" transform="translate(906.192,0.250006) rotate(90)">
				<title>Sheet.1330</title>
				<path d="M0 555.67 L555.42 555.67" class="st2"/>
			</g>
			<g id="shape1331-68" transform="translate(920.366,0.250006) rotate(90)">
				<title>Sheet.1331</title>
				<path d="M0 555.67 L555.42 555.67" class="st1"/>
			</g>
			<g id="shape1332-71" transform="translate(863.673,0.250006) rotate(90)">
				<title>Sheet.1332</title>
				<path d="M0 555.67 L555.42 555.67" class="st1"/>
			</g>
			<g id="shape1333-74" transform="translate(934.539,0.250006) rotate(90)">
				<title>Sheet.1333</title>
				<path d="M0 555.67 L555.42 555.67" class="st1"/>
			</g>
			<g id="shape1334-77" transform="translate(948.712,0.250006) rotate(90)">
				<title>Sheet.1334</title>
				<path d="M0 555.67 L555.42 555.67" class="st1"/>
			</g>
			<g id="shape1335-80" transform="translate(962.885,0.250006) rotate(90)">
				<title>Sheet.1335</title>
				<path d="M0 555.67 L555.42 555.67" class="st1"/>
			</g>
			<g id="shape1336-83" transform="translate(977.058,0.250006) rotate(90)">
				<title>Sheet.1336</title>
				<path d="M0 555.67 L555.42 555.67" class="st2"/>
			</g>
			<g id="shape1337-86" transform="translate(1005.4,0.250006) rotate(90)">
				<title>Sheet.1337</title>
				<path d="M0 555.67 L555.42 555.67" class="st1"/>
			</g>
			<g id="shape1338-89" transform="translate(1019.58,0.250006) rotate(90)">
				<title>Sheet.1338</title>
				<path d="M0 555.67 L555.42 555.67" class="st1"/>
			</g>
			<g id="shape1339-92" transform="translate(1033.75,0.250006) rotate(90)">
				<title>Sheet.1339</title>
				<path d="M0 555.67 L555.42 555.67" class="st1"/>
			</g>
			<g id="shape1340-95" transform="translate(1047.92,0.250006) rotate(90)">
				<title>Sheet.1340</title>
				<path d="M0 555.67 L555.42 555.67" class="st2"/>
			</g>
			<g id="shape1341-98" transform="translate(991.232,0.250006) rotate(90)">
				<title>Sheet.1341</title>
				<path d="M0 555.67 L555.42 555.67" class="st1"/>
			</g>
			<g id="shape1342-101" transform="translate(1062.1,0.250006) rotate(90)">
				<title>Sheet.1342</title>
				<path d="M0 555.67 L555.42 555.67" class="st1"/>
			</g>
			<g id="shape1343-104" transform="translate(1076.27,0.250006) rotate(90)">
				<title>Sheet.1343</title>
				<path d="M0 555.67 L555.42 555.67" class="st1"/>
			</g>
			<g id="shape1344-107" transform="translate(1090.44,0.250006) rotate(90)">
				<title>Sheet.1344</title>
				<path d="M0 555.67 L555.42 555.67" class="st1"/>
			</g>
			<g id="shape1345-110" transform="translate(1104.62,0.250006) rotate(90)">
				<title>Sheet.1345</title>
				<path d="M0 555.67 L555.42 555.67" class="st1"/>
			</g>
			<g id="shape1346-113" transform="translate(1132.96,0.250006) rotate(90)">
				<title>Sheet.1346</title>
				<path d="M0 555.67 L555.42 555.67" class="st1"/>
			</g>
			<g id="shape1347-116" transform="translate(1147.14,0.250006) rotate(90)">
				<title>Sheet.1347</title>
				<path d="M0 555.67 L555.42 555.67" class="st1"/>
			</g>
			<g id="shape1348-119" transform="translate(1161.31,0.250006) rotate(90)">
				<title>Sheet.1348</title>
				<path d="M0 555.67 L555.42 555.67" class="st1"/>
			</g>
			<g id="shape1349-122" transform="translate(1175.48,0.250006) rotate(90)">
				<title>Sheet.1349</title>
				<path d="M0 555.67 L555.42 555.67" class="st1"/>
			</g>
			<g id="shape1350-125" transform="translate(1118.79,0.250006) rotate(90)">
				<title>Sheet.1350</title>
				<path d="M0 555.67 L555.42 555.67" class="st2"/>
			</g>
			<g id="shape1351-128" transform="translate(1189.66,0.250006) rotate(90)">
				<title>Sheet.1351</title>
				<path d="M0 555.67 L555.42 555.67" class="st2"/>
			</g>
			<g id="shape1352-131" transform="translate(1203.83,0.250006) rotate(90)">
				<title>Sheet.1352</title>
				<path d="M0 555.67 L555.42 555.67" class="st1"/>
			</g>
			<g id="shape1353-134" transform="translate(1218,0.250006) rotate(90)">
				<title>Sheet.1353</title>
				<path d="M0 555.67 L555.42 555.67" class="st1"/>
			</g>
			<g id="shape1354-137" transform="translate(1232.18,0.250006) rotate(90)">
				<title>Sheet.1354</title>
				<path d="M0 555.67 L555.42 555.67" class="st1"/>
			</g>
			<g id="shape1355-140" transform="translate(1260.52,0.250006) rotate(90)">
				<title>Sheet.1355</title>
				<path d="M0 555.67 L555.42 555.67" class="st2"/>
			</g>
			<g id="shape1356-143" transform="translate(1274.7,0.250006) rotate(90)">
				<title>Sheet.1356</title>
				<path d="M0 555.67 L555.42 555.67" class="st1"/>
			</g>
			<g id="shape1357-146" transform="translate(1288.87,0.250006) rotate(90)">
				<title>Sheet.1357</title>
				<path d="M0 555.67 L555.42 555.67" class="st1"/>
			</g>
			<g id="shape1358-149" transform="translate(1303.04,0.250006) rotate(90)">
				<title>Sheet.1358</title>
				<path d="M0 555.67 L555.42 555.67" class="st1"/>
			</g>
			<g id="shape1359-152" transform="translate(1246.35,0.250006) rotate(90)">
				<title>Sheet.1359</title>
				<path d="M0 555.67 L555.42 555.67" class="st1"/>
			</g>
			<g id="shape1360-155" transform="translate(1317.22,0.250006) rotate(90)">
				<title>Sheet.1360</title>
				<path d="M0 555.67 L555.42 555.67" class="st1"/>
			</g>
			<g id="shape1361-158" transform="translate(1331.39,0.250006) rotate(90)">
				<title>Sheet.1361</title>
				<path d="M0 555.67 L555.42 555.67" class="st2"/>
			</g>
			<g id="shape1362-161" transform="translate(0,-52.0232)">
				<title>Sheet.1362</title>
				<path d="M0 555.67 L801.48 555.67" class="st2"/>
			</g>
			<g id="shape1363-164" transform="translate(0,-66.1964)">
				<title>Sheet.1363</title>
				<path d="M0 555.67 L801.48 555.67" class="st1"/>
			</g>
			<g id="shape1364-167" transform="translate(0,-80.3697)">
				<title>Sheet.1364</title>
				<path d="M0 555.67 L801.48 555.67" class="st1"/>
			</g>
			<g id="shape1365-170" transform="translate(0,-94.5429)">
				<title>Sheet.1365</title>
				<path d="M0 555.67 L801.48 555.67" class="st1"/>
			</g>
			<g id="shape1366-173" transform="translate(0,-122.889)">
				<title>Sheet.1366</title>
				<path d="M0 555.67 L801.48 555.67" class="st2"/>
			</g>
			<g id="shape1367-176" transform="translate(0,-137.063)">
				<title>Sheet.1367</title>
				<path d="M0 555.67 L801.48 555.67" class="st1"/>
			</g>
			<g id="shape1368-179" transform="translate(0,-151.236)">
				<title>Sheet.1368</title>
				<path d="M0 555.67 L801.48 555.67" class="st1"/>
			</g>
			<g id="shape1369-182" transform="translate(0,-165.409)">
				<title>Sheet.1369</title>
				<path d="M0 555.67 L801.48 555.67" class="st1"/>
			</g>
			<g id="shape1370-185" transform="translate(0,-108.716)">
				<title>Sheet.1370</title>
				<path d="M0 555.67 L801.48 555.67" class="st1"/>
			</g>
			<g id="shape1371-188" transform="translate(0,-179.582)">
				<title>Sheet.1371</title>
				<path d="M0 555.67 L801.48 555.67" class="st1"/>
			</g>
			<g id="shape1372-191" transform="translate(0,-193.755)">
				<title>Sheet.1372</title>
				<path d="M0 555.67 L801.48 555.67" class="st2"/>
			</g>
			<g id="shape1373-194" transform="translate(0,-207.929)">
				<title>Sheet.1373</title>
				<path d="M0 555.67 L801.48 555.67" class="st1"/>
			</g>
			<g id="shape1374-197" transform="translate(0,-222.102)">
				<title>Sheet.1374</title>
				<path d="M0 555.67 L801.48 555.67" class="st1"/>
			</g>
			<g id="shape1375-200" transform="translate(0,-250.448)">
				<title>Sheet.1375</title>
				<path d="M0 555.67 L801.48 555.67" class="st1"/>
			</g>
			<g id="shape1376-203" transform="translate(0,-264.622)">
				<title>Sheet.1376</title>
				<path d="M0 555.67 L801.48 555.67" class="st2"/>
			</g>
			<g id="shape1377-206" transform="translate(0,-278.795)">
				<title>Sheet.1377</title>
				<path d="M0 555.67 L801.48 555.67" class="st1"/>
			</g>
			<g id="shape1378-209" transform="translate(2.64787,-293.065)">
				<title>Sheet.1378</title>
				<path d="M0 555.67 L801.48 555.67" class="st1"/>
			</g>
			<g id="shape1379-212" transform="translate(0,-236.275)">
				<title>Sheet.1379</title>
				<path d="M0 555.67 L801.48 555.67" class="st1"/>
			</g>
			<g id="shape1380-215" transform="translate(0,-307.141)">
				<title>Sheet.1380</title>
				<path d="M0 555.67 L801.48 555.67" class="st1"/>
			</g>
			<g id="shape1381-218" transform="translate(0,-321.315)">
				<title>Sheet.1381</title>
				<path d="M0 555.67 L801.48 555.67" class="st1"/>
			</g>
			<g id="shape1382-221" transform="translate(0,-335.488)">
				<title>Sheet.1382</title>
				<path d="M0 555.67 L801.48 555.67" class="st2"/>
			</g>
			<g id="shape1383-224" transform="translate(0,-349.661)">
				<title>Sheet.1383</title>
				<path d="M0 555.67 L801.48 555.67" class="st1"/>
			</g>
			<g id="shape1384-227" transform="translate(0,-378.007)">
				<title>Sheet.1384</title>
				<path d="M0 555.67 L801.48 555.67" class="st1"/>
			</g>
			<g id="shape1385-230" transform="translate(0,-392.181)">
				<title>Sheet.1385</title>
				<path d="M0 555.67 L801.48 555.67" class="st1"/>
			</g>
			<g id="shape1386-233" transform="translate(0,-406.354)">
				<title>Sheet.1386</title>
				<path d="M0 555.67 L801.48 555.67" class="st2"/>
			</g>
			<g id="shape1387-236" transform="translate(0,-420.527)">
				<title>Sheet.1387</title>
				<path d="M0 555.67 L801.48 555.67" class="st1"/>
			</g>
			<g id="shape1388-239" transform="translate(0,-363.834)">
				<title>Sheet.1388</title>
				<path d="M0 555.67 L801.48 555.67" class="st1"/>
			</g>
			<g id="shape1389-242" transform="translate(0,-434.7)">
				<title>Sheet.1389</title>
				<path d="M0 555.67 L801.48 555.67" class="st1"/>
			</g>
			<g id="shape1390-245" transform="translate(0,-448.874)">
				<title>Sheet.1390</title>
				<path d="M0 555.67 L801.48 555.67" class="st1"/>
			</g>
			<g id="shape1391-248" transform="translate(0,-463.047)">
				<title>Sheet.1391</title>
				<path d="M0 555.67 L801.48 555.67" class="st1"/>
			</g>
			<g id="shape1392-251" transform="translate(2.15551,-519.837)">
				<title>Sheet.1392</title>
				<path d="M0 555.67 L799.32 555.67" class="st1"/>
			</g>
			<g id="shape1393-254" transform="translate(0,-505.567)">
				<title>Sheet.1393</title>
				<path d="M0 555.67 L801.48 555.67" class="st1"/>
			</g>
			<g id="shape1394-257" transform="translate(1.40955,-548.086)">
				<title>Sheet.1394</title>
				<path d="M0 555.67 L800.07 555.67" class="st2"/>
			</g>
			<g id="shape1395-260" transform="translate(0,-491.393)">
				<title>Sheet.1395</title>
				<path d="M0 555.67 L801.48 555.67" class="st1"/>
			</g>
			<g id="shape1396-263" transform="translate(0,-9.50352)">
				<title>Sheet.1396</title>
				<path d="M0 555.67 L801.48 555.67" class="st1"/>
			</g>
			<g id="shape1397-266" transform="translate(0,-23.6768)">
				<title>Sheet.1397</title>
				<path d="M0 555.67 L801.48 555.67" class="st1"/>
			</g>
			<g id="shape1398-269" transform="translate(0,-37.85)">
				<title>Sheet.1398</title>
				<path d="M0 555.67 L801.48 555.67" class="st1"/>
			</g>
			<g id="shape1399-272" transform="translate(0,-478.063)">
				<title>Sheet.1399</title>
				<path d="M0 555.67 L801.48 555.67" class="st2"/>
			</g>
			<g id="shape1400-275" transform="translate(566.035,0.250006) rotate(90)">
				<title>Sheet.1400</title>
				<path d="M0 555.67 L555.42 555.67" class="st1"/>
			</g>
			<g id="shape1401-278" transform="translate(580.208,0.250006) rotate(90)">
				<title>Sheet.1401</title>
				<path d="M0 555.67 L555.42 555.67" class="st1"/>
			</g>
			<g id="shape1402-281" transform="translate(1345.56,0.250006) rotate(90)">
				<title>Sheet.1402</title>
				<path d="M0 555.67 L555.42 555.67" class="st1"/>
			</g>
			<g id="shape1403-284" transform="translate(0,-534.01)">
				<title>Sheet.1403</title>
				<path d="M0 555.67 L801.48 555.67" class="st1"/>
			</g>
		</g>
		<g id="shape1405-287" transform="translate(386.599,-456.704)">
			<title>Circle.1412</title>
			<path d="M0 549.11 A6.56444 6.56444 0 0 1 13.13 549.11 A6.56444 6.56444 0 1 1 0 549.11 Z" class="st3"/>
		</g>
		<g id="shape1407-289" transform="translate(279.777,-478.188)">
			<title>Horizontal.1012</title>
			<desc>32mm</desc>
			<path d="M0 524.55 L0 551.67 L0 524.55 ZM226.77 524.55 L226.77 556.99 L226.77 524.55 Z" class="st4"/>
			<path d="M0 524.55 L0 551.67 L0 524.55" class="st5"/>
			<path d="M226.77 524.55 L226.77 556.99 L226.77 524.55" class="st5"/>
			<path d="M113.39 532.55 L6.12 532.55" class="st6"/>
			<path d="M113.39 532.55 L220.65 532.55" class="st6"/>
			<rect x="102.941" y="520.947" width="20.8905" height="9.59985" class="st8"/>
			<text x="102.94" y="528.15" class="st9">32mm</text>		</g>
		<g id="shape1411-302" transform="translate(-389.282,503.526) rotate(-90)">
			<title>Vertical.1015</title>
			<desc>58mm</desc>
			<path d="M0 527.83 L0 551.67 L0 527.83 ZM411.02 527.83 L411.02 574.35 L411.02 527.83 Z" class="st4"/>
			<path d="M0 527.83 L0 551.67 L0 527.83" class="st5"/>
			<path d="M411.02 527.83 L411.02 574.35 L411.02 527.83" class="st5"/>
			<path d="M205.51 535.83 L6.12 535.83" class="st6"/>
			<path d="M205.51 535.83 L404.9 535.83" class="st6"/>
			<rect x="195.067" y="524.23" width="20.8905" height="9.59985" class="st8"/>
			<text x="195.07" y="531.43" class="st9">58mm</text>		</g>
		<g id="group1423-314" transform="translate(532.754,-321.537)">
			<title>Sheet.1423</title>
			<g id="group1424-315">
				<title>Sheet.1424</title>
				<g id="shape1425-316" transform="translate(0,-4.47576)">
					<title>Sheet.1425</title>
					<desc>A</desc>
					<rect x="0" y="541.501" width="13.2348" height="14.1732" class="st10"/>
					<text x="4" y="555.19" class="st11"><tspan class="st12">A</tspan></text>				</g>
			</g>
			<g id="group1426-320" transform="translate(2.14166,-0.0824008)">
				<title>Sheet.1426</title>
				<g id="shape1427-321" transform="translate(7.92226E-06,-0.0824008)">
					<title>Sheet.1427</title>
					<desc>1</desc>
					<rect x="0" y="541.501" width="85.0394" height="14.1732" class="st13"/>
					<text x="40.24" y="551.59" class="st14">1</text>				</g>
			</g>
		</g>
		<g id="group1428-324" transform="translate(208.911,-52.7418)">
			<title>STPE024.171</title>
			<g id="shape1429-325" transform="translate(184.246,-0.817875)">
				<title>Sheet.1429</title>
				<path d="M42.52 542.81 L30.17 529.96 L12.35 529.96 L0 542.81 L12.35 555.67 L30.17 555.67 L42.52 542.81 L42.52 542.81
							 Z" class="st15"/>
			</g>
			<g id="shape1430-327" transform="translate(568.613,600.093) rotate(129.806)">
				<title>Sheet.1430</title>
				<path d="M0 555.67 L221.39 555.67" class="st16"/>
			</g>
			<g id="shape1431-330" transform="translate(0,-141.236)">
				<title>Sheet.1431</title>
				<path d="M0 555.67 L141.73 555.67" class="st16"/>
			</g>
			<g id="shape1432-333" transform="translate(626.54,159.32) rotate(90)">
				<title>Sheet.1432</title>
				<path d="M0 555.67 L170.08 555.67" class="st16"/>
			</g>
			<g id="shape1433-336" transform="translate(70.8661,-396.354)">
				<title>Sheet.1433</title>
				<path d="M0 555.67 L70.87 555.67" class="st16"/>
			</g>
			<g id="shape1434-339" transform="translate(141.726,-0.817875)">
				<title>Sheet.1434</title>
				<path d="M0 542.81 A22.735 22.735 -180 0 0 42.52 542.81 L0 542.81 Z" class="st17"/>
				<path d="M0 542.81 A22.735 22.735 -180 0 0 42.52 542.81" class="st16"/>
			</g>
			<g id="shape1435-342" transform="translate(-413.942,541.997) rotate(-90)">
				<title>Sheet.1435</title>
				<path d="M0 555.67 L396.85 555.67" class="st16"/>
			</g>
			<g id="shape1436-345" transform="translate(141.732,-410.527)">
				<title>Sheet.1436</title>
				<path d="M0 555.67 L85.04 555.67" class="st16"/>
			</g>
			<g id="shape1437-348" transform="translate(-328.902,541.997) rotate(-90)">
				<title>Sheet.1437</title>
				<path d="M0 555.67 L396.85 555.67" class="st16"/>
			</g>
			<g id="shape1438-351" transform="translate(653.652,-111.374) rotate(50.1944)">
				<title>Sheet.1438</title>
				<path d="M0 555.67 L221.39 555.67" class="st16"/>
			</g>
			<g id="shape1439-354" transform="translate(368.504,970.112) rotate(180)">
				<title>Sheet.1439</title>
				<path d="M0 555.67 L141.73 555.67" class="st16"/>
			</g>
			<g id="shape1440-357" transform="translate(853.312,159.32) rotate(90)">
				<title>Sheet.1440</title>
				<path d="M0 555.67 L170.08 555.67" class="st16"/>
			</g>
			<g id="shape1441-360" transform="translate(297.638,714.994) rotate(180)">
				<title>Sheet.1441</title>
				<path d="M0 555.67 L70.87 555.67" class="st16"/>
			</g>
			<g id="shape1442-363" transform="translate(199.586,-27.5653)">
				<title>Sheet.1442</title>
				<path d="M0 555.67 L11.82 555.67" class="st16"/>
			</g>
			<g id="shape1443-366" transform="translate(196.556,-26.5051)">
				<title>Sheet.1443</title>
				<path d="M0 555.67 L17.92 555.67" class="st16"/>
			</g>
			<g id="shape1444-369" transform="translate(194.396,-25.4449)">
				<title>Sheet.1444</title>
				<path d="M0 555.67 L22.22 555.67" class="st16"/>
			</g>
			<g id="shape1445-372" transform="translate(192.695,-24.3846)">
				<title>Sheet.1445</title>
				<path d="M0 555.67 L25.65 555.67" class="st16"/>
			</g>
			<g id="shape1446-375" transform="translate(191.255,-23.3244)">
				<title>Sheet.1446</title>
				<path d="M0 555.67 L28.5 555.67" class="st16"/>
			</g>
			<g id="shape1447-378" transform="translate(190.027,-22.2642)">
				<title>Sheet.1447</title>
				<path d="M0 555.67 L30.95 555.67" class="st16"/>
			</g>
			<g id="shape1448-381" transform="translate(188.962,-21.204)">
				<title>Sheet.1448</title>
				<path d="M0 555.67 L33.09 555.67" class="st16"/>
			</g>
			<g id="shape1449-384" transform="translate(188.03,-20.1438)">
				<title>Sheet.1449</title>
				<path d="M0 555.67 L34.96 555.67" class="st16"/>
			</g>
			<g id="shape1450-387" transform="translate(187.198,-19.0836)">
				<title>Sheet.1450</title>
				<path d="M0 555.67 L36.62 555.67" class="st16"/>
			</g>
			<g id="shape1451-390" transform="translate(186.462,-18.0234)">
				<title>Sheet.1451</title>
				<path d="M0 555.67 L38.09 555.67" class="st16"/>
			</g>
			<g id="shape1452-393" transform="translate(185.809,-16.9632)">
				<title>Sheet.1452</title>
				<path d="M0 555.67 L39.39 555.67" class="st16"/>
			</g>
			<g id="shape1453-396" transform="translate(185.24,-15.903)">
				<title>Sheet.1453</title>
				<path d="M0 555.67 L40.54 555.67" class="st16"/>
			</g>
			<g id="shape1454-399" transform="translate(184.743,-14.8428)">
				<title>Sheet.1454</title>
				<path d="M0 555.67 L41.54 555.67" class="st16"/>
			</g>
			<g id="shape1455-402" transform="translate(184.291,-13.7826)">
				<title>Sheet.1455</title>
				<path d="M0 555.67 L42.44 555.67" class="st16"/>
			</g>
			<g id="shape1456-405" transform="translate(184.643,-12.7224)">
				<title>Sheet.1456</title>
				<path d="M0 555.67 L41.73 555.67" class="st16"/>
			</g>
			<g id="shape1457-408" transform="translate(185.139,-11.6622)">
				<title>Sheet.1457</title>
				<path d="M0 555.67 L40.76 555.67" class="st16"/>
			</g>
			<g id="shape1458-411" transform="translate(185.697,-10.602)">
				<title>Sheet.1458</title>
				<path d="M0 555.67 L39.63 555.67" class="st16"/>
			</g>
			<g id="shape1459-414" transform="translate(186.328,-9.54182)">
				<title>Sheet.1459</title>
				<path d="M0 555.67 L38.36 555.67" class="st16"/>
			</g>
			<g id="shape1460-417" transform="translate(187.048,-8.48162)">
				<title>Sheet.1460</title>
				<path d="M0 555.67 L36.93 555.67" class="st16"/>
			</g>
			<g id="shape1461-420" transform="translate(187.851,-7.42142)">
				<title>Sheet.1461</title>
				<path d="M0 555.67 L35.32 555.67" class="st16"/>
			</g>
			<g id="shape1462-423" transform="translate(188.766,-6.36121)">
				<title>Sheet.1462</title>
				<path d="M0 555.67 L33.49 555.67" class="st16"/>
			</g>
			<g id="shape1463-426" transform="translate(189.81,-5.30101)">
				<title>Sheet.1463</title>
				<path d="M0 555.67 L31.4 555.67" class="st16"/>
			</g>
			<g id="shape1464-429" transform="translate(191.004,-4.24081)">
				<title>Sheet.1464</title>
				<path d="M0 555.67 L29.02 555.67" class="st16"/>
			</g>
			<g id="shape1465-432" transform="translate(192.382,-3.18061)">
				<title>Sheet.1465</title>
				<path d="M0 555.67 L26.27 555.67" class="st16"/>
			</g>
			<g id="shape1466-435" transform="translate(194.017,-2.1204)">
				<title>Sheet.1466</title>
				<path d="M0 555.67 L22.97 555.67" class="st16"/>
			</g>
			<g id="shape1467-438" transform="translate(196.065,-1.0602)">
				<title>Sheet.1467</title>
				<path d="M0 555.67 L18.89 555.67" class="st16"/>
			</g>
			<g id="shape1468-441" transform="translate(198.844,0)">
				<title>Sheet.1468</title>
				<path d="M0 555.67 L13.31 555.67" class="st16"/>
			</g>
		</g>
		<g id="shape1469-444" transform="translate(208.911,-501.537)">
			<title>Horizontal</title>
			<desc>52mm</desc>
			<path d="M0 527.83 L0 551.67 L0 527.83 ZM368.5 527.83 L368.5 575.77 L368.5 527.83 Z" class="st4"/>
			<path d="M0 527.83 L0 551.67 L0 527.83" class="st5"/>
			<path d="M368.5 527.83 L368.5 575.77 L368.5 527.83" class="st5"/>
			<path d="M184.25 535.83 L6.12 535.83" class="st6"/>
			<path d="M184.25 535.83 L362.38 535.83" class="st6"/>
			<rect x="173.807" y="524.23" width="20.8905" height="9.59985" class="st8"/>
			<text x="173.81" y="531.43" class="st9">52mm</text>		</g>
		<g id="shape1470-456" transform="translate(350.644,-463.269)">
			<title>Horizontal.1470</title>
			<desc>12mm</desc>
			<path d="M0 524.55 L0 551.67 L0 524.55 ZM85.04 524.55 L85.04 537.5 L85.04 524.55 Z" class="st4"/>
			<path d="M0 524.55 L0 551.67 L0 524.55" class="st5"/>
			<path d="M85.04 524.55 L85.04 537.5 L85.04 524.55" class="st5"/>
			<path d="M42.52 532.55 L6.12 532.55" class="st6"/>
			<path d="M42.52 532.55 L78.92 532.55" class="st6"/>
			<rect x="32.0744" y="520.947" width="20.8905" height="9.59985" class="st8"/>
			<text x="32.07" y="528.15" class="st9">12mm</text>		</g>
		<g id="shape1471-468" transform="translate(-366.605,361.793) rotate(-90)">
			<title>Vertical.1471</title>
			<desc>38mm</desc>
			<path d="M0 527.83 L0 551.67 L0 527.83 ZM269.29 527.83 L269.29 580.02 L269.29 527.83 Z" class="st4"/>
			<path d="M0 527.83 L0 551.67 L0 527.83" class="st5"/>
			<path d="M269.29 527.83 L269.29 580.02 L269.29 527.83" class="st5"/>
			<path d="M134.65 535.83 L6.12 535.83" class="st6"/>
			<path d="M134.65 535.83 L263.17 535.83" class="st6"/>
			<rect x="124.2" y="524.23" width="20.8905" height="9.59985" class="st8"/>
			<text x="124.2" y="531.43" class="st9">38mm</text>		</g>
		<g id="shape1472-480" transform="translate(-339.959,276.754) rotate(-90)">
			<title>Vertical.1472</title>
			<desc>24mm</desc>
			<path d="M0 527.83 L0 551.67 L0 527.83 ZM170.08 527.83 L170.08 579.18 L170.08 527.83 Z" class="st4"/>
			<path d="M0 527.83 L0 551.67 L0 527.83" class="st5"/>
			<path d="M170.08 527.83 L170.08 579.18 L170.08 527.83" class="st5"/>
			<path d="M85.04 535.83 L6.12 535.83" class="st6"/>
			<path d="M85.04 535.83 L163.96 535.83" class="st6"/>
			<rect x="74.5941" y="524.23" width="20.8905" height="9.59985" class="st8"/>
			<text x="74.59" y="531.43" class="st9">24mm</text>		</g>
	</g>
</svg>
