<?xml version="1.0" encoding="UTF-8" standalone="no"?>
<!DOCTYPE svg PUBLIC "-//W3C//DTD SVG 1.1//EN" "http://www.w3.org/Graphics/SVG/1.1/DTD/svg11.dtd">
<!-- Generated by Microsoft Visio, SVG Export PP008A_Detail.svg Page-1 -->
<svg xmlns="http://www.w3.org/2000/svg" xmlns:xlink="http://www.w3.org/1999/xlink" xmlns:ev="http://www.w3.org/2001/xml-events"
		width="11.1719in" height="7.71769in" viewBox="0 0 804.377 555.674" xml:space="preserve" color-interpolation-filters="sRGB"
		class="st18">
	<title>PP008A</title>

	<style type="text/css">
	<![CDATA[
		.st1 {stroke:#d8d8d8;stroke-linecap:round;stroke-linejoin:round;stroke-width:0.25}
		.st2 {stroke:#7f7f7f;stroke-linecap:round;stroke-linejoin:round;stroke-width:0.25}
		.st3 {fill:none;stroke:#ff0000;stroke-linecap:round;stroke-linejoin:round;stroke-width:0.75}
		.st4 {fill:#ff0000;font-family:Arial Narrow;font-size:0.833336em;font-weight:bold}
		.st5 {fill:none;stroke:none;stroke-linecap:round;stroke-linejoin:round;stroke-width:0.75}
		.st6 {fill:#ff0000;font-family:Arial Narrow;font-size:0.811964em;font-weight:bold}
		.st7 {baseline-shift:33.35%;font-size:0.667em}
		.st8 {fill:#ffffff}
		.st9 {stroke:#000000;stroke-linecap:round;stroke-linejoin:round;stroke-width:0.24}
		.st10 {marker-end:url(#mrkr13-301);stroke:#000000;stroke-linecap:round;stroke-linejoin:round;stroke-width:0.24}
		.st11 {fill:#000000;fill-opacity:1;stroke:#000000;stroke-opacity:1;stroke-width:0.11764705882353}
		.st12 {fill:#ffffff;stroke:none;stroke-linecap:butt;stroke-width:7.2}
		.st13 {fill:#000000;font-family:Calibri;font-size:0.666664em}
		.st14 {fill:#ffffff;stroke:none;stroke-linecap:butt}
		.st15 {fill:none;stroke:#ff0000;stroke-linecap:round;stroke-linejoin:round;stroke-width:2.25}
		.st16 {fill:none}
		.st17 {stroke:#000000;stroke-linecap:round;stroke-linejoin:round;stroke-width:2.25}
		.st18 {fill:none;fill-rule:evenodd;font-size:12px;overflow:visible;stroke-linecap:square;stroke-miterlimit:3}
	]]>
	</style>

	<defs id="Markers">
		<g id="lend13">
			<path d="M 3 1 L 0 0 L 3 -1 L 3 1 " style="stroke:none"/>
		</g>
		<marker id="mrkr13-301" class="st11" refX="-25.5" orient="auto" markerUnits="strokeWidth" overflow="visible">
			<use xlink:href="#lend13" transform="scale(-8.5000000000001,-8.5000000000001) "/>
		</marker>
	</defs>
	<g>
		<title>Page-1</title>
		<g id="group1404-1" transform="translate(0.125,-0.125006)">
			<title>Sheet.1404</title>
			<g id="shape1309-2" transform="translate(594.381,0.250006) rotate(90)">
				<title>Sheet.1309</title>
				<path d="M0 555.67 L555.42 555.67" class="st1"/>
			</g>
			<g id="shape1310-5" transform="translate(622.728,0.250006) rotate(90)">
				<title>Sheet.1310</title>
				<path d="M0 555.67 L555.42 555.67" class="st2"/>
			</g>
			<g id="shape1311-8" transform="translate(636.901,0.250006) rotate(90)">
				<title>Sheet.1311</title>
				<path d="M0 555.67 L555.42 555.67" class="st1"/>
			</g>
			<g id="shape1312-11" transform="translate(651.074,0.250006) rotate(90)">
				<title>Sheet.1312</title>
				<path d="M0 555.67 L555.42 555.67" class="st1"/>
			</g>
			<g id="shape1313-14" transform="translate(665.247,0.250006) rotate(90)">
				<title>Sheet.1313</title>
				<path d="M0 555.67 L555.42 555.67" class="st1"/>
			</g>
			<g id="shape1314-17" transform="translate(608.555,0.250006) rotate(90)">
				<title>Sheet.1314</title>
				<path d="M0 555.67 L555.42 555.67" class="st1"/>
			</g>
			<g id="shape1315-20" transform="translate(679.421,0.250006) rotate(90)">
				<title>Sheet.1315</title>
				<path d="M0 555.67 L555.42 555.67" class="st1"/>
			</g>
			<g id="shape1316-23" transform="translate(693.594,0.250006) rotate(90)">
				<title>Sheet.1316</title>
				<path d="M0 555.67 L555.42 555.67" class="st2"/>
			</g>
			<g id="shape1317-26" transform="translate(707.767,0.250006) rotate(90)">
				<title>Sheet.1317</title>
				<path d="M0 555.67 L555.42 555.67" class="st1"/>
			</g>
			<g id="shape1318-29" transform="translate(721.94,0.250006) rotate(90)">
				<title>Sheet.1318</title>
				<path d="M0 555.67 L555.42 555.67" class="st1"/>
			</g>
			<g id="shape1319-32" transform="translate(750.287,0.250006) rotate(90)">
				<title>Sheet.1319</title>
				<path d="M0 555.67 L555.42 555.67" class="st1"/>
			</g>
			<g id="shape1320-35" transform="translate(764.46,0.250006) rotate(90)">
				<title>Sheet.1320</title>
				<path d="M0 555.67 L555.42 555.67" class="st2"/>
			</g>
			<g id="shape1321-38" transform="translate(778.633,0.250006) rotate(90)">
				<title>Sheet.1321</title>
				<path d="M0 555.67 L555.42 555.67" class="st1"/>
			</g>
			<g id="shape1322-41" transform="translate(792.807,0.250006) rotate(90)">
				<title>Sheet.1322</title>
				<path d="M0 555.67 L555.42 555.67" class="st1"/>
			</g>
			<g id="shape1323-44" transform="translate(736.114,0.250006) rotate(90)">
				<title>Sheet.1323</title>
				<path d="M0 555.67 L555.42 555.67" class="st1"/>
			</g>
			<g id="shape1324-47" transform="translate(806.98,0.250006) rotate(90)">
				<title>Sheet.1324</title>
				<path d="M0 555.67 L555.42 555.67" class="st1"/>
			</g>
			<g id="shape1325-50" transform="translate(821.153,0.250006) rotate(90)">
				<title>Sheet.1325</title>
				<path d="M0 555.67 L555.42 555.67" class="st1"/>
			</g>
			<g id="shape1326-53" transform="translate(835.326,0.250006) rotate(90)">
				<title>Sheet.1326</title>
				<path d="M0 555.67 L555.42 555.67" class="st2"/>
			</g>
			<g id="shape1327-56" transform="translate(849.499,0.250006) rotate(90)">
				<title>Sheet.1327</title>
				<path d="M0 555.67 L555.42 555.67" class="st1"/>
			</g>
			<g id="shape1328-59" transform="translate(877.846,0.250006) rotate(90)">
				<title>Sheet.1328</title>
				<path d="M0 555.67 L555.42 555.67" class="st1"/>
			</g>
			<g id="shape1329-62" transform="translate(892.019,0.250006) rotate(90)">
				<title>Sheet.1329</title>
				<path d="M0 555.67 L555.42 555.67" class="st1"/>
			</g>
			<g id="shape1330-65" transform="translate(906.192,0.250006) rotate(90)">
				<title>Sheet.1330</title>
				<path d="M0 555.67 L555.42 555.67" class="st2"/>
			</g>
			<g id="shape1331-68" transform="translate(920.366,0.250006) rotate(90)">
				<title>Sheet.1331</title>
				<path d="M0 555.67 L555.42 555.67" class="st1"/>
			</g>
			<g id="shape1332-71" transform="translate(863.673,0.250006) rotate(90)">
				<title>Sheet.1332</title>
				<path d="M0 555.67 L555.42 555.67" class="st1"/>
			</g>
			<g id="shape1333-74" transform="translate(934.539,0.250006) rotate(90)">
				<title>Sheet.1333</title>
				<path d="M0 555.67 L555.42 555.67" class="st1"/>
			</g>
			<g id="shape1334-77" transform="translate(948.712,0.250006) rotate(90)">
				<title>Sheet.1334</title>
				<path d="M0 555.67 L555.42 555.67" class="st1"/>
			</g>
			<g id="shape1335-80" transform="translate(962.885,0.250006) rotate(90)">
				<title>Sheet.1335</title>
				<path d="M0 555.67 L555.42 555.67" class="st1"/>
			</g>
			<g id="shape1336-83" transform="translate(977.058,0.250006) rotate(90)">
				<title>Sheet.1336</title>
				<path d="M0 555.67 L555.42 555.67" class="st2"/>
			</g>
			<g id="shape1337-86" transform="translate(1005.4,0.250006) rotate(90)">
				<title>Sheet.1337</title>
				<path d="M0 555.67 L555.42 555.67" class="st1"/>
			</g>
			<g id="shape1338-89" transform="translate(1019.58,0.250006) rotate(90)">
				<title>Sheet.1338</title>
				<path d="M0 555.67 L555.42 555.67" class="st1"/>
			</g>
			<g id="shape1339-92" transform="translate(1033.75,0.250006) rotate(90)">
				<title>Sheet.1339</title>
				<path d="M0 555.67 L555.42 555.67" class="st1"/>
			</g>
			<g id="shape1340-95" transform="translate(1047.92,0.250006) rotate(90)">
				<title>Sheet.1340</title>
				<path d="M0 555.67 L555.42 555.67" class="st2"/>
			</g>
			<g id="shape1341-98" transform="translate(991.232,0.250006) rotate(90)">
				<title>Sheet.1341</title>
				<path d="M0 555.67 L555.42 555.67" class="st1"/>
			</g>
			<g id="shape1342-101" transform="translate(1062.1,0.250006) rotate(90)">
				<title>Sheet.1342</title>
				<path d="M0 555.67 L555.42 555.67" class="st1"/>
			</g>
			<g id="shape1343-104" transform="translate(1076.27,0.250006) rotate(90)">
				<title>Sheet.1343</title>
				<path d="M0 555.67 L555.42 555.67" class="st1"/>
			</g>
			<g id="shape1344-107" transform="translate(1090.44,0.250006) rotate(90)">
				<title>Sheet.1344</title>
				<path d="M0 555.67 L555.42 555.67" class="st1"/>
			</g>
			<g id="shape1345-110" transform="translate(1104.62,0.250006) rotate(90)">
				<title>Sheet.1345</title>
				<path d="M0 555.67 L555.42 555.67" class="st1"/>
			</g>
			<g id="shape1346-113" transform="translate(1132.96,0.250006) rotate(90)">
				<title>Sheet.1346</title>
				<path d="M0 555.67 L555.42 555.67" class="st1"/>
			</g>
			<g id="shape1347-116" transform="translate(1147.14,0.250006) rotate(90)">
				<title>Sheet.1347</title>
				<path d="M0 555.67 L555.42 555.67" class="st1"/>
			</g>
			<g id="shape1348-119" transform="translate(1161.31,0.250006) rotate(90)">
				<title>Sheet.1348</title>
				<path d="M0 555.67 L555.42 555.67" class="st1"/>
			</g>
			<g id="shape1349-122" transform="translate(1175.48,0.250006) rotate(90)">
				<title>Sheet.1349</title>
				<path d="M0 555.67 L555.42 555.67" class="st1"/>
			</g>
			<g id="shape1350-125" transform="translate(1118.79,0.250006) rotate(90)">
				<title>Sheet.1350</title>
				<path d="M0 555.67 L555.42 555.67" class="st2"/>
			</g>
			<g id="shape1351-128" transform="translate(1189.66,0.250006) rotate(90)">
				<title>Sheet.1351</title>
				<path d="M0 555.67 L555.42 555.67" class="st2"/>
			</g>
			<g id="shape1352-131" transform="translate(1203.83,0.250006) rotate(90)">
				<title>Sheet.1352</title>
				<path d="M0 555.67 L555.42 555.67" class="st1"/>
			</g>
			<g id="shape1353-134" transform="translate(1218,0.250006) rotate(90)">
				<title>Sheet.1353</title>
				<path d="M0 555.67 L555.42 555.67" class="st1"/>
			</g>
			<g id="shape1354-137" transform="translate(1232.18,0.250006) rotate(90)">
				<title>Sheet.1354</title>
				<path d="M0 555.67 L555.42 555.67" class="st1"/>
			</g>
			<g id="shape1355-140" transform="translate(1260.52,0.250006) rotate(90)">
				<title>Sheet.1355</title>
				<path d="M0 555.67 L555.42 555.67" class="st2"/>
			</g>
			<g id="shape1356-143" transform="translate(1274.7,0.250006) rotate(90)">
				<title>Sheet.1356</title>
				<path d="M0 555.67 L555.42 555.67" class="st1"/>
			</g>
			<g id="shape1357-146" transform="translate(1288.87,0.250006) rotate(90)">
				<title>Sheet.1357</title>
				<path d="M0 555.67 L555.42 555.67" class="st1"/>
			</g>
			<g id="shape1358-149" transform="translate(1303.04,0.250006) rotate(90)">
				<title>Sheet.1358</title>
				<path d="M0 555.67 L555.42 555.67" class="st1"/>
			</g>
			<g id="shape1359-152" transform="translate(1246.35,0.250006) rotate(90)">
				<title>Sheet.1359</title>
				<path d="M0 555.67 L555.42 555.67" class="st1"/>
			</g>
			<g id="shape1360-155" transform="translate(1317.22,0.250006) rotate(90)">
				<title>Sheet.1360</title>
				<path d="M0 555.67 L555.42 555.67" class="st1"/>
			</g>
			<g id="shape1361-158" transform="translate(1331.39,0.250006) rotate(90)">
				<title>Sheet.1361</title>
				<path d="M0 555.67 L555.42 555.67" class="st2"/>
			</g>
			<g id="shape1362-161" transform="translate(0,-52.0232)">
				<title>Sheet.1362</title>
				<path d="M0 555.67 L801.48 555.67" class="st2"/>
			</g>
			<g id="shape1363-164" transform="translate(0,-66.1964)">
				<title>Sheet.1363</title>
				<path d="M0 555.67 L801.48 555.67" class="st1"/>
			</g>
			<g id="shape1364-167" transform="translate(0,-80.3697)">
				<title>Sheet.1364</title>
				<path d="M0 555.67 L801.48 555.67" class="st1"/>
			</g>
			<g id="shape1365-170" transform="translate(0,-94.5429)">
				<title>Sheet.1365</title>
				<path d="M0 555.67 L801.48 555.67" class="st1"/>
			</g>
			<g id="shape1366-173" transform="translate(0,-122.889)">
				<title>Sheet.1366</title>
				<path d="M0 555.67 L801.48 555.67" class="st2"/>
			</g>
			<g id="shape1367-176" transform="translate(0,-137.063)">
				<title>Sheet.1367</title>
				<path d="M0 555.67 L801.48 555.67" class="st1"/>
			</g>
			<g id="shape1368-179" transform="translate(0,-151.236)">
				<title>Sheet.1368</title>
				<path d="M0 555.67 L801.48 555.67" class="st1"/>
			</g>
			<g id="shape1369-182" transform="translate(0,-165.409)">
				<title>Sheet.1369</title>
				<path d="M0 555.67 L801.48 555.67" class="st1"/>
			</g>
			<g id="shape1370-185" transform="translate(0,-108.716)">
				<title>Sheet.1370</title>
				<path d="M0 555.67 L801.48 555.67" class="st1"/>
			</g>
			<g id="shape1371-188" transform="translate(0,-179.582)">
				<title>Sheet.1371</title>
				<path d="M0 555.67 L801.48 555.67" class="st1"/>
			</g>
			<g id="shape1372-191" transform="translate(0,-193.755)">
				<title>Sheet.1372</title>
				<path d="M0 555.67 L801.48 555.67" class="st2"/>
			</g>
			<g id="shape1373-194" transform="translate(0,-207.929)">
				<title>Sheet.1373</title>
				<path d="M0 555.67 L801.48 555.67" class="st1"/>
			</g>
			<g id="shape1374-197" transform="translate(0,-222.102)">
				<title>Sheet.1374</title>
				<path d="M0 555.67 L801.48 555.67" class="st1"/>
			</g>
			<g id="shape1375-200" transform="translate(0,-250.448)">
				<title>Sheet.1375</title>
				<path d="M0 555.67 L801.48 555.67" class="st1"/>
			</g>
			<g id="shape1376-203" transform="translate(0,-264.622)">
				<title>Sheet.1376</title>
				<path d="M0 555.67 L801.48 555.67" class="st2"/>
			</g>
			<g id="shape1377-206" transform="translate(0,-278.795)">
				<title>Sheet.1377</title>
				<path d="M0 555.67 L801.48 555.67" class="st1"/>
			</g>
			<g id="shape1378-209" transform="translate(2.64787,-293.065)">
				<title>Sheet.1378</title>
				<path d="M0 555.67 L801.48 555.67" class="st1"/>
			</g>
			<g id="shape1379-212" transform="translate(0,-236.275)">
				<title>Sheet.1379</title>
				<path d="M0 555.67 L801.48 555.67" class="st1"/>
			</g>
			<g id="shape1380-215" transform="translate(0,-307.141)">
				<title>Sheet.1380</title>
				<path d="M0 555.67 L801.48 555.67" class="st1"/>
			</g>
			<g id="shape1381-218" transform="translate(0,-321.315)">
				<title>Sheet.1381</title>
				<path d="M0 555.67 L801.48 555.67" class="st1"/>
			</g>
			<g id="shape1382-221" transform="translate(0,-335.488)">
				<title>Sheet.1382</title>
				<path d="M0 555.67 L801.48 555.67" class="st2"/>
			</g>
			<g id="shape1383-224" transform="translate(0,-349.661)">
				<title>Sheet.1383</title>
				<path d="M0 555.67 L801.48 555.67" class="st1"/>
			</g>
			<g id="shape1384-227" transform="translate(0,-378.007)">
				<title>Sheet.1384</title>
				<path d="M0 555.67 L801.48 555.67" class="st1"/>
			</g>
			<g id="shape1385-230" transform="translate(0,-392.181)">
				<title>Sheet.1385</title>
				<path d="M0 555.67 L801.48 555.67" class="st1"/>
			</g>
			<g id="shape1386-233" transform="translate(0,-406.354)">
				<title>Sheet.1386</title>
				<path d="M0 555.67 L801.48 555.67" class="st2"/>
			</g>
			<g id="shape1387-236" transform="translate(0,-420.527)">
				<title>Sheet.1387</title>
				<path d="M0 555.67 L801.48 555.67" class="st1"/>
			</g>
			<g id="shape1388-239" transform="translate(0,-363.834)">
				<title>Sheet.1388</title>
				<path d="M0 555.67 L801.48 555.67" class="st1"/>
			</g>
			<g id="shape1389-242" transform="translate(0,-434.7)">
				<title>Sheet.1389</title>
				<path d="M0 555.67 L801.48 555.67" class="st1"/>
			</g>
			<g id="shape1390-245" transform="translate(0,-448.874)">
				<title>Sheet.1390</title>
				<path d="M0 555.67 L801.48 555.67" class="st1"/>
			</g>
			<g id="shape1391-248" transform="translate(0,-463.047)">
				<title>Sheet.1391</title>
				<path d="M0 555.67 L801.48 555.67" class="st1"/>
			</g>
			<g id="shape1392-251" transform="translate(2.15551,-519.837)">
				<title>Sheet.1392</title>
				<path d="M0 555.67 L799.32 555.67" class="st1"/>
			</g>
			<g id="shape1393-254" transform="translate(0,-505.567)">
				<title>Sheet.1393</title>
				<path d="M0 555.67 L801.48 555.67" class="st1"/>
			</g>
			<g id="shape1394-257" transform="translate(1.40955,-548.086)">
				<title>Sheet.1394</title>
				<path d="M0 555.67 L800.07 555.67" class="st2"/>
			</g>
			<g id="shape1395-260" transform="translate(0,-491.393)">
				<title>Sheet.1395</title>
				<path d="M0 555.67 L801.48 555.67" class="st1"/>
			</g>
			<g id="shape1396-263" transform="translate(0,-9.50352)">
				<title>Sheet.1396</title>
				<path d="M0 555.67 L801.48 555.67" class="st1"/>
			</g>
			<g id="shape1397-266" transform="translate(0,-23.6768)">
				<title>Sheet.1397</title>
				<path d="M0 555.67 L801.48 555.67" class="st1"/>
			</g>
			<g id="shape1398-269" transform="translate(0,-37.85)">
				<title>Sheet.1398</title>
				<path d="M0 555.67 L801.48 555.67" class="st1"/>
			</g>
			<g id="shape1399-272" transform="translate(0,-478.063)">
				<title>Sheet.1399</title>
				<path d="M0 555.67 L801.48 555.67" class="st2"/>
			</g>
			<g id="shape1400-275" transform="translate(566.035,0.250006) rotate(90)">
				<title>Sheet.1400</title>
				<path d="M0 555.67 L555.42 555.67" class="st1"/>
			</g>
			<g id="shape1401-278" transform="translate(580.208,0.250006) rotate(90)">
				<title>Sheet.1401</title>
				<path d="M0 555.67 L555.42 555.67" class="st1"/>
			</g>
			<g id="shape1402-281" transform="translate(1345.56,0.250006) rotate(90)">
				<title>Sheet.1402</title>
				<path d="M0 555.67 L555.42 555.67" class="st1"/>
			</g>
			<g id="shape1403-284" transform="translate(0,-534.01)">
				<title>Sheet.1403</title>
				<path d="M0 555.67 L801.48 555.67" class="st1"/>
			</g>
		</g>
		<g id="group1405-287" transform="translate(377.919,-193.977)">
			<title>Sheet.1405</title>
			<g id="shape1406-288" transform="translate(2.14165,0)">
				<title>Sheet.1406</title>
				<desc>1</desc>
				<rect x="0" y="541.501" width="85.0394" height="14.1732" class="st3"/>
				<text x="40.24" y="551.59" class="st4">1</text>			</g>
			<g id="shape1407-291" transform="translate(0,-4.47576)">
				<title>Sheet.1407</title>
				<desc>A</desc>
				<rect x="0" y="541.501" width="13.2348" height="14.1732" class="st5"/>
				<text x="4" y="555.19" class="st6"><tspan class="st7">A</tspan></text>			</g>
		</g>
		<g id="shape1411-295" transform="translate(364.817,-420.749)">
			<title>Horizontal.1014</title>
			<desc>14mm</desc>
			<path d="M0 527.83 L0 551.67 L0 527.83 ZM198.43 527.83 L198.43 551.67 L198.43 527.83 Z" class="st8"/>
			<path d="M0 527.83 L0 551.67 L0 527.83" class="st9"/>
			<path d="M198.43 527.83 L198.43 551.67 L198.43 527.83" class="st9"/>
			<path d="M99.21 535.83 L6.12 535.83" class="st10"/>
			<path d="M99.21 535.83 L192.31 535.83" class="st10"/>
			<rect x="88.7673" y="524.23" width="20.8905" height="9.59985" class="st12"/>
			<text x="88.77" y="531.43" class="st13">14mm</text>		</g>
		<g id="group1419-308" transform="translate(138.111,333.544) rotate(-90)">
			<title>Vertical baseline</title>
			<g id="shape1420-309">
				<title>Sheet.1420</title>
			</g>
			<g id="shape1421-312">
				<title>Sheet.1421</title>
			</g>
			<g id="shape1422-315">
				<title>Sheet.1422</title>
			</g>
			<g id="shape1423-318">
				<title>Sheet.1423</title>
				<desc>14mm</desc>
				<path d="M0 527.83 L0 551.67 L0 527.83 ZM198.52 527.83 L198.52 554.96 L198.52 527.83 Z" class="st8"/>
				<path d="M0 527.83 L0 551.67 L0 527.83" class="st9"/>
				<path d="M198.52 527.83 L198.52 554.96 L198.52 527.83" class="st9"/>
				<path d="M99.26 535.83 L6.12 535.83" class="st10"/>
				<path d="M99.26 535.83 L192.4 535.83" class="st10"/>
				<rect x="88.8158" y="524.23" width="20.8905" height="9.59985" class="st12"/>
				<text x="88.82" y="531.43" class="st13">14mm</text>			</g>
		</g>
		<g id="group1424-330" transform="translate(69.9304,290.927) rotate(-90)">
			<title>Vertical baseline.1424</title>
			<g id="shape1425-331">
				<title>Sheet.1425</title>
			</g>
			<g id="shape1426-334">
				<title>Sheet.1426</title>
			</g>
			<g id="shape1427-337">
				<title>Sheet.1427</title>
			</g>
			<g id="shape1428-340">
				<title>Sheet.1428</title>
				<desc>11mm</desc>
				<path d="M0 527.83 L0 551.67 L0 527.83 ZM156 527.83 L156 555.7 L156 527.83 Z" class="st8"/>
				<path d="M0 527.83 L0 551.67 L0 527.83" class="st9"/>
				<path d="M156 527.83 L156 555.7 L156 527.83" class="st9"/>
				<path d="M78 535.83 L6.12 535.83" class="st10"/>
				<path d="M78 535.83 L149.88 535.83" class="st10"/>
				<rect x="67.556" y="524.23" width="20.8905" height="9.59985" class="st14"/>
				<text x="67.56" y="531.43" class="st13">11mm</text>			</g>
		</g>
		<g id="shape1412-352" transform="translate(315.733,-215.759)">
			<title>Circle</title>
			<path d="M0 549.11 A6.56444 6.56444 0 1 1 13.13 549.11 A6.56444 6.56444 0 1 1 0 549.11 Z" class="st15"/>
		</g>
		<g id="shape1443-354" transform="translate(265.604,-440.592)">
			<title>Horizontal.1443</title>
			<desc>21mm</desc>
			<path d="M0 527.83 L0 551.67 L0 527.83 ZM297.64 527.83 L297.64 543.17 L297.64 527.83 Z" class="st8"/>
			<path d="M0 527.83 L0 551.67 L0 527.83" class="st9"/>
			<path d="M297.64 527.83 L297.64 543.17 L297.64 527.83" class="st9"/>
			<path d="M148.82 535.83 L6.12 535.83" class="st10"/>
			<path d="M148.82 535.83 L291.52 535.83" class="st10"/>
			<rect x="138.374" y="524.23" width="20.8905" height="9.59985" class="st12"/>
			<text x="138.37" y="531.43" class="st13">21mm</text>		</g>
		<g id="group1444-366" transform="translate(265.604,-222.324)">
			<title>STPP008.39</title>
			<g id="shape1445-367" transform="translate(56.6929,-9.09495E-13)">
				<title>Sheet.1445</title>
				<path d="M0 513.15 L0 555.67 L198.43 555.67 L198.43 513.15 L198.43 513.15 L0 513.15 Z" class="st16"/>
				<path d="M0 513.15 L0 555.67 L198.43 555.67 L198.43 513.15 L198.43 513.15" class="st17"/>
			</g>
			<g id="shape1446-370" transform="translate(1.48681E-12,-42.5197)">
				<title>Sheet.1446</title>
				<path d="M99.21 555.67 L0 555.67 L0 456.46 L99.21 456.46 L99.21 456.46 L99.21 555.67 Z" class="st16"/>
				<path d="M99.21 555.67 L0 555.67 L0 456.46 L99.21 456.46 L99.21 456.46" class="st17"/>
			</g>
			<g id="shape1447-373" transform="translate(-258.036,513.154) rotate(-90)">
				<title>Sheet.1447</title>
				<path d="M0 555.67 L155.91 555.67" class="st17"/>
			</g>
			<g id="shape1448-376" transform="translate(654.886,357.249) rotate(90)">
				<title>Sheet.1448</title>
				<path d="M0 555.67 L155.91 555.67" class="st17"/>
			</g>
			<g id="shape1449-379" transform="translate(99.2126,-42.5197)">
				<title>Sheet.1449</title>
				<path d="M0 555.67 L198.43 555.67" class="st17"/>
			</g>
			<g id="shape1450-382" transform="translate(297.638,912.922) rotate(180)">
				<title>Sheet.1450</title>
				<path d="M0 555.67 L198.43 555.67" class="st17"/>
			</g>
		</g>
		<g id="shape1451-385" transform="translate(322.297,-146.982)">
			<title>Horizontal.1451</title>
			<desc>14mm</desc>
			<path d="M0 527.83 L0 551.67 L0 527.83 ZM198.43 527.83 L198.43 551.67 L198.43 527.83 Z" class="st8"/>
			<path d="M0 527.83 L0 551.67 L0 527.83" class="st9"/>
			<path d="M198.43 527.83 L198.43 551.67 L198.43 527.83" class="st9"/>
			<path d="M99.21 535.83 L6.12 535.83" class="st10"/>
			<path d="M99.21 535.83 L192.31 535.83" class="st10"/>
			<rect x="88.7673" y="524.23" width="20.8905" height="9.59985" class="st12"/>
			<text x="88.77" y="531.43" class="st13">14mm</text>		</g>
	</g>
</svg>
