<?xml version="1.0" encoding="UTF-8" standalone="no"?>
<!DOCTYPE svg PUBLIC "-//W3C//DTD SVG 1.1//EN" "http://www.w3.org/Graphics/SVG/1.1/DTD/svg11.dtd">
<!-- Generated by Microsoft Visio, SVG Export PZ002A_Detail.svg Page-1 -->
<svg xmlns="http://www.w3.org/2000/svg" xmlns:xlink="http://www.w3.org/1999/xlink" xmlns:ev="http://www.w3.org/2001/xml-events"
		width="11.1719in" height="7.71769in" viewBox="0 0 804.377 555.674" xml:space="preserve" color-interpolation-filters="sRGB"
		class="st17">
	<title>PZ002A</title>

	<style type="text/css">
	<![CDATA[
		.st1 {stroke:#d8d8d8;stroke-linecap:round;stroke-linejoin:round;stroke-width:0.25}
		.st2 {stroke:#7f7f7f;stroke-linecap:round;stroke-linejoin:round;stroke-width:0.25}
		.st3 {fill:#ffffff;stroke:#ff0000;stroke-linecap:round;stroke-linejoin:round;stroke-width:2.25}
		.st4 {fill:#ffffff}
		.st5 {stroke:#000000;stroke-linecap:round;stroke-linejoin:round;stroke-width:0.24}
		.st6 {marker-end:url(#mrkr13-295);stroke:#000000;stroke-linecap:round;stroke-linejoin:round;stroke-width:0.24}
		.st7 {fill:#000000;fill-opacity:1;stroke:#000000;stroke-opacity:1;stroke-width:0.11764705882353}
		.st8 {fill:#ffffff;stroke:none;stroke-linecap:butt;stroke-width:7.2}
		.st9 {fill:#000000;font-family:Calibri;font-size:0.666664em}
		.st10 {fill:none;stroke:#000000;stroke-linecap:round;stroke-linejoin:round;stroke-width:2.25}
		.st11 {fill:none;stroke:none;stroke-linecap:round;stroke-linejoin:round;stroke-width:0.75}
		.st12 {fill:#000000;font-family:Arial Narrow;font-size:3em;font-weight:bold}
		.st13 {fill:none;stroke:#ff0000;stroke-linecap:round;stroke-linejoin:round;stroke-width:0.75}
		.st14 {fill:#ff0000;font-family:Arial Narrow;font-size:0.833336em;font-weight:bold}
		.st15 {fill:#ff0000;font-family:Arial Narrow;font-size:0.811964em;font-weight:bold}
		.st16 {baseline-shift:33.35%;font-size:0.667em}
		.st17 {fill:none;fill-rule:evenodd;font-size:12px;overflow:visible;stroke-linecap:square;stroke-miterlimit:3}
	]]>
	</style>

	<defs id="Markers">
		<g id="lend13">
			<path d="M 3 1 L 0 0 L 3 -1 L 3 1 " style="stroke:none"/>
		</g>
		<marker id="mrkr13-295" class="st7" refX="-25.5" orient="auto" markerUnits="strokeWidth" overflow="visible">
			<use xlink:href="#lend13" transform="scale(-8.5000000000001,-8.5000000000001) "/>
		</marker>
	</defs>
	<g>
		<title>Page-1</title>
		<g id="group1432-1" transform="translate(0.125,-0.125006)">
			<title>Sheet.1432</title>
			<g id="shape1433-2" transform="translate(594.381,0.250006) rotate(90)">
				<title>Sheet.1433</title>
				<path d="M0 555.67 L555.42 555.67" class="st1"/>
			</g>
			<g id="shape1434-5" transform="translate(622.728,0.250006) rotate(90)">
				<title>Sheet.1434</title>
				<path d="M0 555.67 L555.42 555.67" class="st2"/>
			</g>
			<g id="shape1435-8" transform="translate(636.901,0.250006) rotate(90)">
				<title>Sheet.1435</title>
				<path d="M0 555.67 L555.42 555.67" class="st1"/>
			</g>
			<g id="shape1436-11" transform="translate(651.074,0.250006) rotate(90)">
				<title>Sheet.1436</title>
				<path d="M0 555.67 L555.42 555.67" class="st1"/>
			</g>
			<g id="shape1437-14" transform="translate(665.247,0.250006) rotate(90)">
				<title>Sheet.1437</title>
				<path d="M0 555.67 L555.42 555.67" class="st1"/>
			</g>
			<g id="shape1438-17" transform="translate(608.555,0.250006) rotate(90)">
				<title>Sheet.1438</title>
				<path d="M0 555.67 L555.42 555.67" class="st1"/>
			</g>
			<g id="shape1439-20" transform="translate(679.421,0.250006) rotate(90)">
				<title>Sheet.1439</title>
				<path d="M0 555.67 L555.42 555.67" class="st1"/>
			</g>
			<g id="shape1440-23" transform="translate(693.594,0.250006) rotate(90)">
				<title>Sheet.1440</title>
				<path d="M0 555.67 L555.42 555.67" class="st2"/>
			</g>
			<g id="shape1441-26" transform="translate(707.767,0.250006) rotate(90)">
				<title>Sheet.1441</title>
				<path d="M0 555.67 L555.42 555.67" class="st1"/>
			</g>
			<g id="shape1442-29" transform="translate(721.94,0.250006) rotate(90)">
				<title>Sheet.1442</title>
				<path d="M0 555.67 L555.42 555.67" class="st1"/>
			</g>
			<g id="shape1443-32" transform="translate(750.287,0.250006) rotate(90)">
				<title>Sheet.1443</title>
				<path d="M0 555.67 L555.42 555.67" class="st1"/>
			</g>
			<g id="shape1444-35" transform="translate(764.46,0.250006) rotate(90)">
				<title>Sheet.1444</title>
				<path d="M0 555.67 L555.42 555.67" class="st2"/>
			</g>
			<g id="shape1445-38" transform="translate(778.633,0.250006) rotate(90)">
				<title>Sheet.1445</title>
				<path d="M0 555.67 L555.42 555.67" class="st1"/>
			</g>
			<g id="shape1446-41" transform="translate(792.807,0.250006) rotate(90)">
				<title>Sheet.1446</title>
				<path d="M0 555.67 L555.42 555.67" class="st1"/>
			</g>
			<g id="shape1447-44" transform="translate(736.114,0.250006) rotate(90)">
				<title>Sheet.1447</title>
				<path d="M0 555.67 L555.42 555.67" class="st1"/>
			</g>
			<g id="shape1448-47" transform="translate(806.98,0.250006) rotate(90)">
				<title>Sheet.1448</title>
				<path d="M0 555.67 L555.42 555.67" class="st1"/>
			</g>
			<g id="shape1449-50" transform="translate(821.153,0.250006) rotate(90)">
				<title>Sheet.1449</title>
				<path d="M0 555.67 L555.42 555.67" class="st1"/>
			</g>
			<g id="shape1450-53" transform="translate(835.326,0.250006) rotate(90)">
				<title>Sheet.1450</title>
				<path d="M0 555.67 L555.42 555.67" class="st2"/>
			</g>
			<g id="shape1451-56" transform="translate(849.499,0.250006) rotate(90)">
				<title>Sheet.1451</title>
				<path d="M0 555.67 L555.42 555.67" class="st1"/>
			</g>
			<g id="shape1452-59" transform="translate(877.846,0.250006) rotate(90)">
				<title>Sheet.1452</title>
				<path d="M0 555.67 L555.42 555.67" class="st1"/>
			</g>
			<g id="shape1453-62" transform="translate(892.019,0.250006) rotate(90)">
				<title>Sheet.1453</title>
				<path d="M0 555.67 L555.42 555.67" class="st1"/>
			</g>
			<g id="shape1454-65" transform="translate(906.192,0.250006) rotate(90)">
				<title>Sheet.1454</title>
				<path d="M0 555.67 L555.42 555.67" class="st2"/>
			</g>
			<g id="shape1455-68" transform="translate(920.366,0.250006) rotate(90)">
				<title>Sheet.1455</title>
				<path d="M0 555.67 L555.42 555.67" class="st1"/>
			</g>
			<g id="shape1456-71" transform="translate(863.673,0.250006) rotate(90)">
				<title>Sheet.1456</title>
				<path d="M0 555.67 L555.42 555.67" class="st1"/>
			</g>
			<g id="shape1457-74" transform="translate(934.539,0.250006) rotate(90)">
				<title>Sheet.1457</title>
				<path d="M0 555.67 L555.42 555.67" class="st1"/>
			</g>
			<g id="shape1458-77" transform="translate(948.712,0.250006) rotate(90)">
				<title>Sheet.1458</title>
				<path d="M0 555.67 L555.42 555.67" class="st1"/>
			</g>
			<g id="shape1459-80" transform="translate(962.885,0.250006) rotate(90)">
				<title>Sheet.1459</title>
				<path d="M0 555.67 L555.42 555.67" class="st1"/>
			</g>
			<g id="shape1460-83" transform="translate(977.058,0.250006) rotate(90)">
				<title>Sheet.1460</title>
				<path d="M0 555.67 L555.42 555.67" class="st2"/>
			</g>
			<g id="shape1461-86" transform="translate(1005.4,0.250006) rotate(90)">
				<title>Sheet.1461</title>
				<path d="M0 555.67 L555.42 555.67" class="st1"/>
			</g>
			<g id="shape1462-89" transform="translate(1019.58,0.250006) rotate(90)">
				<title>Sheet.1462</title>
				<path d="M0 555.67 L555.42 555.67" class="st1"/>
			</g>
			<g id="shape1463-92" transform="translate(1033.75,0.250006) rotate(90)">
				<title>Sheet.1463</title>
				<path d="M0 555.67 L555.42 555.67" class="st1"/>
			</g>
			<g id="shape1464-95" transform="translate(1047.92,0.250006) rotate(90)">
				<title>Sheet.1464</title>
				<path d="M0 555.67 L555.42 555.67" class="st2"/>
			</g>
			<g id="shape1465-98" transform="translate(991.232,0.250006) rotate(90)">
				<title>Sheet.1465</title>
				<path d="M0 555.67 L555.42 555.67" class="st1"/>
			</g>
			<g id="shape1466-101" transform="translate(1062.1,0.250006) rotate(90)">
				<title>Sheet.1466</title>
				<path d="M0 555.67 L555.42 555.67" class="st1"/>
			</g>
			<g id="shape1467-104" transform="translate(1076.27,0.250006) rotate(90)">
				<title>Sheet.1467</title>
				<path d="M0 555.67 L555.42 555.67" class="st1"/>
			</g>
			<g id="shape1468-107" transform="translate(1090.44,0.250006) rotate(90)">
				<title>Sheet.1468</title>
				<path d="M0 555.67 L555.42 555.67" class="st1"/>
			</g>
			<g id="shape1469-110" transform="translate(1104.62,0.250006) rotate(90)">
				<title>Sheet.1469</title>
				<path d="M0 555.67 L555.42 555.67" class="st1"/>
			</g>
			<g id="shape1470-113" transform="translate(1132.96,0.250006) rotate(90)">
				<title>Sheet.1470</title>
				<path d="M0 555.67 L555.42 555.67" class="st1"/>
			</g>
			<g id="shape1471-116" transform="translate(1147.14,0.250006) rotate(90)">
				<title>Sheet.1471</title>
				<path d="M0 555.67 L555.42 555.67" class="st1"/>
			</g>
			<g id="shape1472-119" transform="translate(1161.31,0.250006) rotate(90)">
				<title>Sheet.1472</title>
				<path d="M0 555.67 L555.42 555.67" class="st1"/>
			</g>
			<g id="shape1473-122" transform="translate(1175.48,0.250006) rotate(90)">
				<title>Sheet.1473</title>
				<path d="M0 555.67 L555.42 555.67" class="st1"/>
			</g>
			<g id="shape1474-125" transform="translate(1118.79,0.250006) rotate(90)">
				<title>Sheet.1474</title>
				<path d="M0 555.67 L555.42 555.67" class="st2"/>
			</g>
			<g id="shape1475-128" transform="translate(1189.66,0.250006) rotate(90)">
				<title>Sheet.1475</title>
				<path d="M0 555.67 L555.42 555.67" class="st2"/>
			</g>
			<g id="shape1476-131" transform="translate(1203.83,0.250006) rotate(90)">
				<title>Sheet.1476</title>
				<path d="M0 555.67 L555.42 555.67" class="st1"/>
			</g>
			<g id="shape1477-134" transform="translate(1218,0.250006) rotate(90)">
				<title>Sheet.1477</title>
				<path d="M0 555.67 L555.42 555.67" class="st1"/>
			</g>
			<g id="shape1478-137" transform="translate(1232.18,0.250006) rotate(90)">
				<title>Sheet.1478</title>
				<path d="M0 555.67 L555.42 555.67" class="st1"/>
			</g>
			<g id="shape1479-140" transform="translate(1260.52,0.250006) rotate(90)">
				<title>Sheet.1479</title>
				<path d="M0 555.67 L555.42 555.67" class="st2"/>
			</g>
			<g id="shape1480-143" transform="translate(1274.7,0.250006) rotate(90)">
				<title>Sheet.1480</title>
				<path d="M0 555.67 L555.42 555.67" class="st1"/>
			</g>
			<g id="shape1481-146" transform="translate(1288.87,0.250006) rotate(90)">
				<title>Sheet.1481</title>
				<path d="M0 555.67 L555.42 555.67" class="st1"/>
			</g>
			<g id="shape1482-149" transform="translate(1303.04,0.250006) rotate(90)">
				<title>Sheet.1482</title>
				<path d="M0 555.67 L555.42 555.67" class="st1"/>
			</g>
			<g id="shape1483-152" transform="translate(1246.35,0.250006) rotate(90)">
				<title>Sheet.1483</title>
				<path d="M0 555.67 L555.42 555.67" class="st1"/>
			</g>
			<g id="shape1484-155" transform="translate(1317.22,0.250006) rotate(90)">
				<title>Sheet.1484</title>
				<path d="M0 555.67 L555.42 555.67" class="st1"/>
			</g>
			<g id="shape1485-158" transform="translate(1331.39,0.250006) rotate(90)">
				<title>Sheet.1485</title>
				<path d="M0 555.67 L555.42 555.67" class="st2"/>
			</g>
			<g id="shape1486-161" transform="translate(0,-52.0232)">
				<title>Sheet.1486</title>
				<path d="M0 555.67 L801.48 555.67" class="st2"/>
			</g>
			<g id="shape1487-164" transform="translate(0,-66.1964)">
				<title>Sheet.1487</title>
				<path d="M0 555.67 L801.48 555.67" class="st1"/>
			</g>
			<g id="shape1488-167" transform="translate(0,-80.3697)">
				<title>Sheet.1488</title>
				<path d="M0 555.67 L801.48 555.67" class="st1"/>
			</g>
			<g id="shape1489-170" transform="translate(0,-94.5429)">
				<title>Sheet.1489</title>
				<path d="M0 555.67 L801.48 555.67" class="st1"/>
			</g>
			<g id="shape1490-173" transform="translate(0,-122.889)">
				<title>Sheet.1490</title>
				<path d="M0 555.67 L801.48 555.67" class="st2"/>
			</g>
			<g id="shape1491-176" transform="translate(0,-137.063)">
				<title>Sheet.1491</title>
				<path d="M0 555.67 L801.48 555.67" class="st1"/>
			</g>
			<g id="shape1492-179" transform="translate(0,-151.236)">
				<title>Sheet.1492</title>
				<path d="M0 555.67 L801.48 555.67" class="st1"/>
			</g>
			<g id="shape1493-182" transform="translate(0,-165.409)">
				<title>Sheet.1493</title>
				<path d="M0 555.67 L801.48 555.67" class="st1"/>
			</g>
			<g id="shape1494-185" transform="translate(0,-108.716)">
				<title>Sheet.1494</title>
				<path d="M0 555.67 L801.48 555.67" class="st1"/>
			</g>
			<g id="shape1495-188" transform="translate(0,-179.582)">
				<title>Sheet.1495</title>
				<path d="M0 555.67 L801.48 555.67" class="st1"/>
			</g>
			<g id="shape1496-191" transform="translate(0,-193.755)">
				<title>Sheet.1496</title>
				<path d="M0 555.67 L801.48 555.67" class="st2"/>
			</g>
			<g id="shape1497-194" transform="translate(0,-207.929)">
				<title>Sheet.1497</title>
				<path d="M0 555.67 L801.48 555.67" class="st1"/>
			</g>
			<g id="shape1498-197" transform="translate(0,-222.102)">
				<title>Sheet.1498</title>
				<path d="M0 555.67 L801.48 555.67" class="st1"/>
			</g>
			<g id="shape1499-200" transform="translate(0,-250.448)">
				<title>Sheet.1499</title>
				<path d="M0 555.67 L801.48 555.67" class="st1"/>
			</g>
			<g id="shape1500-203" transform="translate(0,-264.622)">
				<title>Sheet.1500</title>
				<path d="M0 555.67 L801.48 555.67" class="st2"/>
			</g>
			<g id="shape1501-206" transform="translate(0,-278.795)">
				<title>Sheet.1501</title>
				<path d="M0 555.67 L801.48 555.67" class="st1"/>
			</g>
			<g id="shape1502-209" transform="translate(2.64787,-293.065)">
				<title>Sheet.1502</title>
				<path d="M0 555.67 L801.48 555.67" class="st1"/>
			</g>
			<g id="shape1503-212" transform="translate(0,-236.275)">
				<title>Sheet.1503</title>
				<path d="M0 555.67 L801.48 555.67" class="st1"/>
			</g>
			<g id="shape1504-215" transform="translate(0,-307.141)">
				<title>Sheet.1504</title>
				<path d="M0 555.67 L801.48 555.67" class="st1"/>
			</g>
			<g id="shape1505-218" transform="translate(0,-321.315)">
				<title>Sheet.1505</title>
				<path d="M0 555.67 L801.48 555.67" class="st1"/>
			</g>
			<g id="shape1506-221" transform="translate(0,-335.488)">
				<title>Sheet.1506</title>
				<path d="M0 555.67 L801.48 555.67" class="st2"/>
			</g>
			<g id="shape1507-224" transform="translate(0,-349.661)">
				<title>Sheet.1507</title>
				<path d="M0 555.67 L801.48 555.67" class="st1"/>
			</g>
			<g id="shape1508-227" transform="translate(0,-378.007)">
				<title>Sheet.1508</title>
				<path d="M0 555.67 L801.48 555.67" class="st1"/>
			</g>
			<g id="shape1509-230" transform="translate(0,-392.181)">
				<title>Sheet.1509</title>
				<path d="M0 555.67 L801.48 555.67" class="st1"/>
			</g>
			<g id="shape1510-233" transform="translate(0,-406.354)">
				<title>Sheet.1510</title>
				<path d="M0 555.67 L801.48 555.67" class="st2"/>
			</g>
			<g id="shape1511-236" transform="translate(0,-420.527)">
				<title>Sheet.1511</title>
				<path d="M0 555.67 L801.48 555.67" class="st1"/>
			</g>
			<g id="shape1512-239" transform="translate(0,-363.834)">
				<title>Sheet.1512</title>
				<path d="M0 555.67 L801.48 555.67" class="st1"/>
			</g>
			<g id="shape1513-242" transform="translate(0,-434.7)">
				<title>Sheet.1513</title>
				<path d="M0 555.67 L801.48 555.67" class="st1"/>
			</g>
			<g id="shape1514-245" transform="translate(0,-448.874)">
				<title>Sheet.1514</title>
				<path d="M0 555.67 L801.48 555.67" class="st1"/>
			</g>
			<g id="shape1515-248" transform="translate(0,-463.047)">
				<title>Sheet.1515</title>
				<path d="M0 555.67 L801.48 555.67" class="st1"/>
			</g>
			<g id="shape1516-251" transform="translate(2.15551,-519.837)">
				<title>Sheet.1516</title>
				<path d="M0 555.67 L799.32 555.67" class="st1"/>
			</g>
			<g id="shape1517-254" transform="translate(0,-505.567)">
				<title>Sheet.1517</title>
				<path d="M0 555.67 L801.48 555.67" class="st1"/>
			</g>
			<g id="shape1518-257" transform="translate(1.40955,-548.086)">
				<title>Sheet.1518</title>
				<path d="M0 555.67 L800.07 555.67" class="st2"/>
			</g>
			<g id="shape1519-260" transform="translate(0,-491.393)">
				<title>Sheet.1519</title>
				<path d="M0 555.67 L801.48 555.67" class="st1"/>
			</g>
			<g id="shape1520-263" transform="translate(0,-9.50352)">
				<title>Sheet.1520</title>
				<path d="M0 555.67 L801.48 555.67" class="st1"/>
			</g>
			<g id="shape1521-266" transform="translate(0,-23.6768)">
				<title>Sheet.1521</title>
				<path d="M0 555.67 L801.48 555.67" class="st1"/>
			</g>
			<g id="shape1522-269" transform="translate(0,-37.85)">
				<title>Sheet.1522</title>
				<path d="M0 555.67 L801.48 555.67" class="st1"/>
			</g>
			<g id="shape1523-272" transform="translate(0,-478.063)">
				<title>Sheet.1523</title>
				<path d="M0 555.67 L801.48 555.67" class="st2"/>
			</g>
			<g id="shape1524-275" transform="translate(566.035,0.250006) rotate(90)">
				<title>Sheet.1524</title>
				<path d="M0 555.67 L555.42 555.67" class="st1"/>
			</g>
			<g id="shape1525-278" transform="translate(580.208,0.250006) rotate(90)">
				<title>Sheet.1525</title>
				<path d="M0 555.67 L555.42 555.67" class="st1"/>
			</g>
			<g id="shape1526-281" transform="translate(1345.56,0.250006) rotate(90)">
				<title>Sheet.1526</title>
				<path d="M0 555.67 L555.42 555.67" class="st1"/>
			</g>
			<g id="shape1527-284" transform="translate(0,-534.01)">
				<title>Sheet.1527</title>
				<path d="M0 555.67 L801.48 555.67" class="st1"/>
			</g>
		</g>
		<g id="shape1405-287" transform="translate(400.772,-343.319)">
			<title>Circle</title>
			<path d="M0 549.11 A6.56444 6.56444 0 0 1 13.13 549.11 A6.56444 6.56444 0 1 1 0 549.11 Z" class="st3"/>
		</g>
		<g id="shape1425-289" transform="translate(350.644,-415.08)">
			<title>Horizontal.1425</title>
			<desc>8mm</desc>
			<path d="M0 527.83 L0 551.67 L0 527.83 ZM113.39 527.83 L113.39 556.45 L113.39 527.83 Z" class="st4"/>
			<path d="M0 527.83 L0 551.67 L0 527.83" class="st5"/>
			<path d="M113.39 527.83 L113.39 556.45 L113.39 527.83" class="st5"/>
			<path d="M56.69 535.83 L6.12 535.83" class="st6"/>
			<path d="M56.69 535.83 L107.27 535.83" class="st6"/>
			<rect x="48.275" y="524.23" width="16.8357" height="9.59985" class="st8"/>
			<text x="48.28" y="531.43" class="st9">8mm</text>		</g>
		<g id="shape1426-302" transform="translate(-257.471,248.407) rotate(-90)">
			<title>Vertical.1426</title>
			<desc>6mm</desc>
			<path d="M0 527.83 L0 551.67 L0 527.83 ZM84.48 527.83 L84.48 579.5 L84.48 527.83 Z" class="st4"/>
			<path d="M0 527.83 L0 551.67 L0 527.83" class="st5"/>
			<path d="M84.48 527.83 L84.48 579.5 L84.48 527.83" class="st5"/>
			<path d="M42.24 535.83 L6.12 535.83" class="st6"/>
			<path d="M42.24 535.83 L78.36 535.83" class="st6"/>
			<rect x="33.8229" y="524.23" width="16.8357" height="9.59985" class="st8"/>
			<text x="33.82" y="531.43" class="st9">6mm</text>		</g>
		<g id="group1427-314" transform="translate(350.644,-292.295)">
			<title>STPK001.1173</title>
			<g id="shape1428-315" transform="translate(14.1732,-14.1732)">
				<title>Sheet.1428</title>
				<ellipse cx="42.5197" cy="513.154" rx="42.5197" ry="42.5197" class="st10"/>
			</g>
			<g id="shape1429-317">
				<title>Sheet.1429</title>
				<ellipse cx="56.6929" cy="498.981" rx="56.6929" ry="56.6929" class="st10"/>
			</g>
		</g>
		<g id="shape1431-319" transform="translate(350.644,-321.537)">
			<title>STPK001.2175</title>
			<desc>MW</desc>
			<rect x="0" y="498.301" width="113.386" height="57.3731" class="st11"/>
			<text x="30.47" y="537.79" class="st12">MW</text>		</g>
		<g id="group1528-322" transform="translate(363.746,-264.844)">
			<title>Sheet.1528</title>
			<g id="shape1529-323" transform="translate(2.14165,0)">
				<title>Sheet.1529</title>
				<desc>1</desc>
				<rect x="0" y="541.501" width="85.0394" height="14.1732" class="st13"/>
				<text x="40.24" y="551.59" class="st14">1</text>			</g>
			<g id="shape1530-326" transform="translate(0,-4.47576)">
				<title>Sheet.1530</title>
				<desc>A</desc>
				<rect x="0" y="541.501" width="13.2348" height="14.1732" class="st11"/>
				<text x="4" y="555.19" class="st15"><tspan class="st16">A</tspan></text>			</g>
		</g>
	</g>
</svg>
