<?xml version="1.0" encoding="UTF-8"?><!DOCTYPE svg PUBLIC "-//W3C//DTD SVG 1.1//EN" "http://www.w3.org/Graphics/SVG/1.1/DTD/svg11.dtd"><svg xmlns="http://www.w3.org/2000/svg" xmlns:xlink="http://www.w3.org/1999/xlink" version="1.1" width="673px" height="257px" viewBox="-0.5 -0.5 673 257"><defs/><g><g id="cell-gCBXbEWG3YTmvdFgAPc0-138" layer="Symbol"><path fill="none" stroke="rgb(0, 0, 0)" pointer-events="all" d="M0,0 16,0 16,256 0,256z"/></g><g id="cell-gCBXbEWG3YTmvdFgAPc0-139" layer="Symbol"><path fill="none" stroke="rgb(0, 0, 0)" pointer-events="all" d="M656,0 672,0 672,256 656,256z"/></g><g id="cell-gCBXbEWG3YTmvdFgAPc0-140" layer="Symbol"><path d="M 127.84 32 L 543.73 32.77" fill="none" stroke="rgb(0, 0, 0)" stroke-miterlimit="10" pointer-events="stroke"/></g><g id="cell-gCBXbEWG3YTmvdFgAPc0-141" layer="Symbol"><path d="M 128.08 223.74 L 543.74 222.72" fill="none" stroke="rgb(0, 0, 0)" stroke-miterlimit="10" pointer-events="stroke"/></g><g id="cell-EobbvcSsf5eTC5hmWeWL-0" layer="Symbol"><path fill="none" stroke="rgb(0, 0, 0)" pointer-events="all" d="M16,0 32,0 32,256 16,256z"/></g><g id="cell-EobbvcSsf5eTC5hmWeWL-1" layer="Symbol"><path fill="none" stroke="rgb(0, 0, 0)" pointer-events="all" d="M640,0 656,0 656,256 640,256z"/></g><g id="cell-EobbvcSsf5eTC5hmWeWL-2" layer="Symbol"><path fill="none" stroke="rgb(0, 0, 0)" pointer-events="all" d="M96,0 112,0 112,256 96,256z"/></g><g id="cell-EobbvcSsf5eTC5hmWeWL-3" layer="Symbol"><path fill="none" stroke="rgb(0, 0, 0)" pointer-events="all" d="M112,0 128,0 128,256 112,256z"/></g><g id="cell-EobbvcSsf5eTC5hmWeWL-4" layer="Symbol"><path fill="none" stroke="rgb(0, 0, 0)" pointer-events="all" d="M544,0 560,0 560,256 544,256z"/></g><g id="cell-EobbvcSsf5eTC5hmWeWL-5" layer="Symbol"><path fill="none" stroke="rgb(0, 0, 0)" pointer-events="all" d="M560,0 576,0 576,256 560,256z"/></g><g id="cell-EobbvcSsf5eTC5hmWeWL-6" layer="Symbol"><path d="M 31.98 31.74 L 96 32" fill="none" stroke="rgb(0, 0, 0)" stroke-miterlimit="10" pointer-events="stroke"/></g><g id="cell-EobbvcSsf5eTC5hmWeWL-7" layer="Symbol"><path d="M 32.37 224 L 96 224.26" fill="none" stroke="rgb(0, 0, 0)" stroke-miterlimit="10" pointer-events="stroke"/></g><g id="cell-_BKEYgJLWYhNnVfLumgn-1" layer="Symbol"><path d="M 576.56 32 L 639.55 32.26" fill="none" stroke="rgb(0, 0, 0)" stroke-miterlimit="10" pointer-events="stroke"/></g><g id="cell-_BKEYgJLWYhNnVfLumgn-2" layer="Symbol"><path d="M 576.56 224 L 639.55 224.26" fill="none" stroke="rgb(0, 0, 0)" stroke-miterlimit="10" pointer-events="stroke"/></g></g></svg>