<?xml version="1.0" encoding="UTF-8" standalone="no"?>
<!DOCTYPE svg PUBLIC "-//W3C//DTD SVG 1.1//EN" "http://www.w3.org/Graphics/SVG/1.1/DTD/svg11.dtd">
<!-- Generated by Microsoft Visio, SVG Export IM005A_Origo.svg Page-1 -->
<svg xmlns="http://www.w3.org/2000/svg" xmlns:xlink="http://www.w3.org/1999/xlink" xmlns:ev="http://www.w3.org/2001/xml-events"
		width="3.59773in" height="2.44385in" viewBox="0 0 259.037 175.958" xml:space="preserve" color-interpolation-filters="sRGB"
		class="st8">
	<title>IM005A</title>

	<style type="text/css">
	<![CDATA[
		.st1 {fill:none;stroke:#000000;stroke-linecap:round;stroke-linejoin:round;stroke-width:2.25}
		.st2 {fill:none;stroke:#ff0000;stroke-linecap:round;stroke-linejoin:round;stroke-width:2.25}
		.st3 {fill:none;stroke:#ff0000;stroke-linecap:round;stroke-linejoin:round;stroke-width:0.75}
		.st4 {fill:#ff0000;font-family:Arial Narrow;font-size:0.833336em;font-weight:bold}
		.st5 {fill:none;stroke:none;stroke-linecap:round;stroke-linejoin:round;stroke-width:0.75}
		.st6 {fill:#ff0000;font-family:Arial Narrow;font-size:0.811964em;font-weight:bold}
		.st7 {baseline-shift:33.35%;font-size:0.667em}
		.st8 {fill:none;fill-rule:evenodd;font-size:12px;overflow:visible;stroke-linecap:square;stroke-miterlimit:3}
	]]>
	</style>

	<g>
		<title>Page-1</title>
		<g id="shape1405-1" transform="translate(87.8328,-1.125)">
			<title>Circle.1009</title>
			<path d="M0 90.92 A85.0394 85.0394 0 0 1 170.08 90.92 A85.0394 85.0394 0 1 1 0 90.92 Z" class="st1"/>
		</g>
		<g id="shape1407-3" transform="translate(166.308,-79.5999)">
			<title>Circle</title>
			<path d="M0 169.39 A6.56444 6.56444 0 0 1 13.13 169.39 A6.56444 6.56444 0 1 1 0 169.39 Z" class="st2"/>
		</g>
		<g id="group1409-5" transform="translate(0.375,-156.934)">
			<title>Sheet.1409</title>
			<g id="shape1410-6" transform="translate(2.14165,0)">
				<title>Sheet.1410</title>
				<desc>1</desc>
				<rect x="0" y="161.784" width="85.0394" height="14.1732" class="st3"/>
				<text x="40.24" y="171.87" class="st4">1</text>			</g>
			<g id="shape1411-9" transform="translate(0,-4.47576)">
				<title>Sheet.1411</title>
				<desc>A</desc>
				<rect x="0" y="161.784" width="13.2348" height="14.1732" class="st5"/>
				<text x="4" y="175.48" class="st6"><tspan class="st7">A</tspan></text>			</g>
		</g>
		<g id="group1412-13" transform="translate(129.282,-124.111)">
			<title>Sheet.1412</title>
			<g id="shape1413-14" transform="translate(2.14165,0)">
				<title>Sheet.1413</title>
				<desc>1</desc>
				<rect x="0" y="161.784" width="85.0394" height="14.1732" class="st3"/>
				<text x="40.24" y="171.87" class="st4">1</text>			</g>
			<g id="shape1414-17" transform="translate(0,-4.47576)">
				<title>Sheet.1414</title>
				<desc>B</desc>
				<rect x="0" y="161.784" width="13.2348" height="14.1732" class="st5"/>
				<text x="4" y="175.48" class="st6"><tspan class="st7">B</tspan></text>			</g>
		</g>
		<g id="group1415-21" transform="translate(129.282,-39.0719)">
			<title>Sheet.1415</title>
			<g id="shape1416-22" transform="translate(2.14165,0)">
				<title>Sheet.1416</title>
				<desc>1</desc>
				<rect x="0" y="161.784" width="85.0394" height="14.1732" class="st3"/>
				<text x="40.24" y="171.87" class="st4">1</text>			</g>
			<g id="shape1417-25" transform="translate(0,-4.47576)">
				<title>Sheet.1417</title>
				<desc>C</desc>
				<rect x="0" y="161.784" width="13.2348" height="14.1732" class="st5"/>
				<text x="4" y="175.48" class="st6"><tspan class="st7">C</tspan></text>			</g>
		</g>
	</g>
</svg>
