<?xml version="1.0" encoding="UTF-8"?><!DOCTYPE svg PUBLIC "-//W3C//DTD SVG 1.1//EN" "http://www.w3.org/Graphics/SVG/1.1/DTD/svg11.dtd"><svg xmlns="http://www.w3.org/2000/svg" xmlns:xlink="http://www.w3.org/1999/xlink" version="1.1" width="103px" height="81px" viewBox="-2.02719 -2.65219 6.4375 5.0625"><defs vector-effect="non-scaling-stroke"/><g><g id="cell-22vkG-h5v2N9dKBLQ-ZE-125" content="&lt;object label=&quot;Connection&quot; PipingConnector=&quot;Y&quot; LabelConnector=&quot;N&quot; SignalConnector=&quot;N&quot; Direction=&quot;180&quot; AuxiliaryConnector=&quot;N&quot;/&gt;" data-label="Connection" data-PipingConnector="Y" data-LabelConnector="N" data-SignalConnector="N" data-Direction="180" data-AuxiliaryConnector="N" layer="Connection"><path d="M -0.3709374666213989 0.004062652587890625 C -0.3709374666213989 -0.20281243324279785 -0.20281243324279785 -0.3709373474121094 0.004062533378601074 -0.3709373474121094 C 0.21093761920928955 -0.3709373474121094 0.3790625333786011 -0.20281243324279785 0.3790625333786011 0.004062652587890625 C 0.3790625333786011 0.2109377384185791 0.21093761920928955 0.3790626525878906 0.004062533378601074 0.3790626525878906 C -0.20281243324279785 0.3790626525878906 -0.3709374666213989 0.2109377384185791 -0.3709374666213989 0.004062652587890625" fill="none" stroke="#00ff00" stroke-miterlimit="10" pointer-events="all" vector-effect="non-scaling-stroke"/></g><g id="cell-j2nrvzxkZ3BnKDXGnb-E-3" content="&lt;object label=&quot;Connection&quot; PipingConnector=&quot;Y&quot; LabelConnector=&quot;N&quot; SignalConnector=&quot;N&quot; Direction=&quot;0&quot; AuxiliaryConnector=&quot;N&quot;/&gt;" data-label="Connection" data-PipingConnector="Y" data-LabelConnector="N" data-SignalConnector="N" data-Direction="0" data-AuxiliaryConnector="N" layer="Connection"><path d="M 3.6290626525878906 0.004062652587890625 C 3.6290626525878906 -0.20281243324279785 3.7971878051757812 -0.3709373474121094 4.004062652587891 -0.3709373474121094 C 4.2109375 -0.3709373474121094 4.379062652587891 -0.20281243324279785 4.379062652587891 0.004062652587890625 C 4.379062652587891 0.2109377384185791 4.2109375 0.3790626525878906 4.004062652587891 0.3790626525878906 C 3.7971878051757812 0.3790626525878906 3.6290626525878906 0.2109377384185791 3.6290626525878906 0.004062652587890625" fill="none" stroke="#00ff00" stroke-miterlimit="10" pointer-events="all" vector-effect="non-scaling-stroke"/></g><g id="cell-jyOudCda0Ud9WsIjt9Yr-0" content="&lt;object label=&quot;%LabelLines%&amp;amp;nbsp; &amp;amp;nbsp; &amp;amp;nbsp; &amp;amp;nbsp; &amp;amp;nbsp; &amp;amp;nbsp;%LabelIndex%&quot; placeholders=&quot;1&quot; LabelLines=&quot;1&quot; LabelIndex=&quot;A&quot;/&gt;" data-label="%LabelLines%&amp;nbsp; &amp;nbsp; &amp;nbsp; &amp;nbsp; &amp;nbsp; &amp;nbsp;%LabelIndex%" data-placeholders="1" data-LabelLines="1" data-LabelIndex="A" layer="Label"><path fill="none" stroke="#ff0000" pointer-events="all" d="M -1.995937466621399 2.3790626525878906 L -1.995937466621399 -2.6209373474121094 L -0.9959374666213989 -2.6209373474121094 L -0.9959374666213989 2.3790626525878906 z" vector-effect="non-scaling-stroke"/><g><text x="8" y="81" fill="#FF0000" font-family="Helvetica" font-size="10px" transform="scale(0.0625 0.0625) translate(-31.935 -41.935) translate(-0.5 -0.5) rotate(-90 8 78)" vector-effect="non-scaling-stroke">1           A</text></g></g><g id="cell-22vkG-h5v2N9dKBLQ-ZE-137" content="&lt;object label=&quot;origo&quot;/&gt;" data-label="origo" layer="Origo"><path d="M -0.24593746662139893 -0.0003123283386230469 C -0.24593746662139893 -0.13593745231628418 -0.13593745231628418 -0.24593734741210938 0.00031256675720214844 -0.24593734741210938 C 0.13593757152557373 -0.24593734741210938 0.24593746662139893 -0.13593745231628418 0.24593746662139893 -0.0003123283386230469 C 0.24593746662139893 0.13593769073486328 0.13593757152557373 0.24593758583068848 0.00031256675720214844 0.24593758583068848 C -0.13593745231628418 0.24593758583068848 -0.24593746662139893 0.13593769073486328 -0.24593746662139893 -0.0003123283386230469" fill="none" stroke="#ff0000" stroke-miterlimit="10" pointer-events="all" vector-effect="non-scaling-stroke"/></g><g id="cell-j2nrvzxkZ3BnKDXGnb-E-0" layer="Symbol"><path d="M 0.004062533378601074 0.004062652587890625 L 4.004062652587891 0.004062652587890625" fill="none" stroke="rgb(0, 0, 0)" stroke-miterlimit="10" pointer-events="stroke" vector-effect="non-scaling-stroke"/></g><g id="cell-j2nrvzxkZ3BnKDXGnb-E-1" layer="Symbol"><path d="M 4.004062652587891 2.0040626525878906 L 4.004062652587891 -1.9959373474121094" fill="none" stroke="rgb(0, 0, 0)" stroke-miterlimit="10" pointer-events="stroke" vector-effect="non-scaling-stroke"/></g></g></svg>