<?xml version="1.0" encoding="UTF-8" standalone="no"?>
<!DOCTYPE svg PUBLIC "-//W3C//DTD SVG 1.1//EN" "http://www.w3.org/Graphics/SVG/1.1/DTD/svg11.dtd">
<!-- Generated by Microsoft Visio, SVG Export ND0006_Origo.svg Page-1 -->
<svg xmlns="http://www.w3.org/2000/svg" xmlns:xlink="http://www.w3.org/1999/xlink" xmlns:ev="http://www.w3.org/2001/xml-events"
		width="3.79074in" height="2.65107in" viewBox="0 0 272.933 190.877" xml:space="preserve" color-interpolation-filters="sRGB"
		class="st9">
	<title>ND0006</title>

	<style type="text/css">
	<![CDATA[
		.st1 {fill:#ffffff;stroke:#000000;stroke-linecap:round;stroke-linejoin:round;stroke-width:2.25}
		.st2 {stroke:#000000;stroke-linecap:round;stroke-linejoin:round;stroke-width:2.25}
		.st3 {fill:none;stroke:#ff0000;stroke-linecap:round;stroke-linejoin:round;stroke-width:2.25}
		.st4 {fill:none;stroke:#ff0000;stroke-linecap:round;stroke-linejoin:round;stroke-width:0.75}
		.st5 {fill:#ff0000;font-family:Arial Narrow;font-size:0.833336em;font-weight:bold}
		.st6 {fill:none;stroke:none;stroke-linecap:round;stroke-linejoin:round;stroke-width:0.75}
		.st7 {fill:#ff0000;font-family:Arial Narrow;font-size:0.811964em;font-weight:bold}
		.st8 {baseline-shift:33.35%;font-size:0.667em}
		.st9 {fill:none;fill-rule:evenodd;font-size:12px;overflow:visible;stroke-linecap:square;stroke-miterlimit:3}
	]]>
	</style>

	<g>
		<title>Page-1</title>
		<g id="shape1405-1" transform="translate(101.729,-1.125)">
			<title>Square.1015</title>
			<rect x="0" y="20.798" width="170.079" height="170.079" class="st1"/>
		</g>
		<g id="shape1406-3" transform="translate(101.729,-1.125)">
			<title>Circle.1009</title>
			<path d="M0 105.84 A85.0394 85.0394 0 0 1 170.08 105.84 A85.0394 85.0394 0 1 1 0 105.84 Z" class="st1"/>
		</g>
		<g id="shape1408-5" transform="translate(101.729,-86.1644)">
			<title>Sheet.1408</title>
			<path d="M0 190.88 L170.08 190.88" class="st2"/>
		</g>
		<g id="shape1409-8" transform="translate(180.204,-79.5999)">
			<title>Circle</title>
			<path d="M0 184.31 A6.56444 6.56444 0 0 1 13.13 184.31 A6.56444 6.56444 0 1 1 0 184.31 Z" class="st3"/>
		</g>
		<g id="group1411-10" transform="translate(0.375,-171.853)">
			<title>Sheet.1411</title>
			<g id="shape1412-11" transform="translate(2.14165,0)">
				<title>Sheet.1412</title>
				<desc>1</desc>
				<rect x="0" y="176.703" width="85.0394" height="14.1732" class="st4"/>
				<text x="40.24" y="186.79" class="st5">1</text>			</g>
			<g id="shape1413-14" transform="translate(0,-4.47576)">
				<title>Sheet.1413</title>
				<desc>A</desc>
				<rect x="0" y="176.703" width="13.2348" height="14.1732" class="st6"/>
				<text x="4" y="190.39" class="st7"><tspan class="st8">A</tspan></text>			</g>
		</g>
		<g id="group1414-18" transform="translate(143.178,-124.111)">
			<title>Sheet.1414</title>
			<g id="shape1415-19" transform="translate(2.14165,0)">
				<title>Sheet.1415</title>
				<desc>1</desc>
				<rect x="0" y="176.703" width="85.0394" height="14.1732" class="st4"/>
				<text x="40.24" y="186.79" class="st5">1</text>			</g>
			<g id="shape1416-22" transform="translate(0,-4.47576)">
				<title>Sheet.1416</title>
				<desc>B</desc>
				<rect x="0" y="176.703" width="13.2348" height="14.1732" class="st6"/>
				<text x="4" y="190.39" class="st7"><tspan class="st8">B</tspan></text>			</g>
		</g>
		<g id="group1417-26" transform="translate(143.178,-39.0719)">
			<title>Sheet.1417</title>
			<g id="shape1418-27" transform="translate(2.14165,0)">
				<title>Sheet.1418</title>
				<desc>1</desc>
				<rect x="0" y="176.703" width="85.0394" height="14.1732" class="st4"/>
				<text x="40.24" y="186.79" class="st5">1</text>			</g>
			<g id="shape1419-30" transform="translate(0,-4.47576)">
				<title>Sheet.1419</title>
				<desc>C</desc>
				<rect x="0" y="176.703" width="13.2348" height="14.1732" class="st6"/>
				<text x="4" y="190.39" class="st7"><tspan class="st8">C</tspan></text>			</g>
		</g>
	</g>
</svg>
