<?xml version="1.0" encoding="UTF-8" standalone="no"?>
<!DOCTYPE svg PUBLIC "-//W3C//DTD SVG 1.1//EN" "http://www.w3.org/Graphics/SVG/1.1/DTD/svg11.dtd">
<!-- Generated by Microsoft Visio, SVG Export ND0009_Origo.svg Page-1 -->
<svg xmlns="http://www.w3.org/2000/svg" xmlns:xlink="http://www.w3.org/1999/xlink" xmlns:ev="http://www.w3.org/2001/xml-events"
		width="8.78384in" height="1.2137in" viewBox="0 0 632.436 87.3864" xml:space="preserve" color-interpolation-filters="sRGB"
		class="st8">
	<title>ND0009</title>

	<style type="text/css">
	<![CDATA[
		.st1 {fill:none;stroke:#ff0000;stroke-linecap:round;stroke-linejoin:round;stroke-width:2.25}
		.st2 {stroke:#000000;stroke-linecap:round;stroke-linejoin:round;stroke-width:2.25}
		.st3 {fill:none;stroke:#ff0000;stroke-linecap:round;stroke-linejoin:round;stroke-width:0.75}
		.st4 {fill:#ff0000;font-family:Arial Narrow;font-size:0.833336em;font-weight:bold}
		.st5 {fill:none;stroke:none;stroke-linecap:round;stroke-linejoin:round;stroke-width:0.75}
		.st6 {fill:#ff0000;font-family:Arial Narrow;font-size:0.811964em;font-weight:bold}
		.st7 {baseline-shift:33.35%;font-size:0.667em}
		.st8 {fill:none;fill-rule:evenodd;font-size:12px;overflow:visible;stroke-linecap:square;stroke-miterlimit:3}
	]]>
	</style>

	<g>
		<title>Page-1</title>
		<g id="shape1405-1" transform="translate(631.311,124.564) rotate(180)">
			<title>Circle</title>
			<path d="M0 80.82 A6.56444 6.56444 0 0 1 13.13 80.82 A6.56444 6.56444 0 1 1 0 80.82 Z" class="st1"/>
		</g>
		<g id="shape1406-3" transform="translate(537.361,86.2614) rotate(-90)">
			<title>Sheet.1406</title>
			<path d="M0 87.39 L85.14 87.39" class="st2"/>
		</g>
		<g id="shape1407-6" transform="translate(624.732,173.648) rotate(-179.99)">
			<title>Sheet.1407</title>
			<path d="M0 87.39 L566.93 87.39" class="st2"/>
		</g>
		<g id="shape1408-9" transform="translate(624.747,88.5114) rotate(180)">
			<title>Sheet.1408</title>
			<path d="M0 87.39 L566.93 87.39" class="st2"/>
		</g>
		<g id="shape1409-12" transform="translate(-51.3068,-26.2644) rotate(-36.8699)">
			<title>Sheet.1409</title>
			<path d="M0 87.39 L70.87 87.39" class="st2"/>
		</g>
		<g id="shape1410-15" transform="translate(53.5568,-26.2644) rotate(36.8699)">
			<title>Sheet.1410</title>
			<path d="M0 87.39 L70.87 87.39" class="st2"/>
		</g>
		<g id="group1417-18" transform="translate(296.525,-41.0823)">
			<title>Sheet.1417</title>
			<g id="shape1418-19" transform="translate(2.14165,0)">
				<title>Sheet.1418</title>
				<desc>1</desc>
				<rect x="0" y="73.2131" width="85.0394" height="14.1732" class="st3"/>
				<text x="40.24" y="83.3" class="st4">1</text>			</g>
			<g id="shape1419-22" transform="translate(0,-4.47576)">
				<title>Sheet.1419</title>
				<desc>A</desc>
				<rect x="0" y="73.2131" width="13.2348" height="14.1732" class="st5"/>
				<text x="4" y="86.9" class="st6"><tspan class="st7">A</tspan></text>			</g>
		</g>
	</g>
</svg>
