<?xml version="1.0" encoding="UTF-8" standalone="no"?>
<!DOCTYPE svg PUBLIC "-//W3C//DTD SVG 1.1//EN" "http://www.w3.org/Graphics/SVG/1.1/DTD/svg11.dtd">
<!-- Generated by Microsoft Visio, SVG Export PA007A_Origo.svg Page-1 -->
<svg xmlns="http://www.w3.org/2000/svg" xmlns:xlink="http://www.w3.org/1999/xlink" xmlns:ev="http://www.w3.org/2001/xml-events"
		width="1.21235in" height="2.28878in" viewBox="0 0 87.2894 164.792" xml:space="preserve" color-interpolation-filters="sRGB"
		class="st4">
	<title>PA007A</title>

	<style type="text/css">
	<![CDATA[
		.st1 {fill:none;stroke:#ff0000;stroke-linecap:round;stroke-linejoin:round;stroke-width:2.25}
		.st2 {stroke:#000000;stroke-linecap:round;stroke-linejoin:round;stroke-width:2.25}
		.st3 {fill:none}
		.st4 {fill:none;fill-rule:evenodd;font-size:12px;overflow:visible;stroke-linecap:square;stroke-miterlimit:3}
	]]>
	</style>

	<g>
		<title>Page-1</title>
		<g id="shape1405-1" transform="translate(36.9634,-1.125)">
			<title>Circle</title>
			<path d="M0 158.23 A6.56444 6.56444 0 0 1 13.13 158.23 A6.56444 6.56444 0 1 1 0 158.23 Z" class="st1"/>
		</g>
		<g id="group1425-3" transform="translate(1.125,-7.76192)">
			<title>Sheet.1425</title>
			<g id="shape1419-4" transform="translate(0,-127.559)">
				<title>Sheet.1419</title>
				<path d="M0 164.79 L85.04 164.79" class="st2"/>
			</g>
			<g id="shape1420-7" transform="translate(207.314,65.5924) rotate(90.0023)">
				<title>Sheet.1420</title>
				<path d="M0 164.79 L99.21 164.79" class="st2"/>
			</g>
			<g id="shape1421-10" transform="translate(0.00401742,-127.553)">
				<title>Sheet.1421</title>
				<path d="M85.04 164.79 A42.5177 28.3515 -180 1 0 0 164.79 L85.04 164.79 Z" class="st3"/>
				<path d="M85.04 164.79 A42.5177 28.3515 -180 1 0 0 164.79" class="st2"/>
			</g>
			<g id="shape1422-13" transform="translate(85.0394,202.025) rotate(180)">
				<title>Sheet.1422</title>
				<path d="M0 164.79 L85.04 164.79" class="st2"/>
			</g>
			<g id="shape1423-16" transform="translate(85.0354,202.02) rotate(180)">
				<title>Sheet.1423</title>
				<path d="M85.04 164.79 A42.5177 28.3515 -180 1 0 0 164.79 L85.04 164.79 Z" class="st3"/>
				<path d="M85.04 164.79 A42.5177 28.3515 -180 1 0 0 164.79" class="st2"/>
			</g>
		</g>
	</g>
</svg>
