<?xml version="1.0" encoding="UTF-8" standalone="no"?>
<!DOCTYPE svg PUBLIC "-//W3C//DTD SVG 1.1//EN" "http://www.w3.org/Graphics/SVG/1.1/DTD/svg11.dtd">
<!-- Generated by Microsoft Visio, SVG Export PD008A_Origo.svg Page-1 -->
<svg xmlns="http://www.w3.org/2000/svg" xmlns:xlink="http://www.w3.org/1999/xlink" xmlns:ev="http://www.w3.org/2001/xml-events"
		width="5.02382in" height="4.84683in" viewBox="0 0 361.715 348.972" xml:space="preserve" color-interpolation-filters="sRGB"
		class="st10">
	<title>PD008A</title>

	<style type="text/css">
	<![CDATA[
		.st1 {fill:#ffffff;stroke:#ff0000;stroke-linecap:round;stroke-linejoin:round;stroke-width:2.25}
		.st2 {fill:none;stroke:none;stroke-linecap:round;stroke-linejoin:round;stroke-width:0.75}
		.st3 {fill:#ff0000;font-family:Arial Narrow;font-size:0.811964em;font-weight:bold}
		.st4 {baseline-shift:33.35%;font-size:0.667em}
		.st5 {fill:none;stroke:#ff0000;stroke-linecap:round;stroke-linejoin:round;stroke-width:0.75}
		.st6 {fill:#ff0000;font-family:Arial Narrow;font-size:0.833336em;font-weight:bold}
		.st7 {fill:none;stroke:#000000;stroke-linecap:round;stroke-linejoin:round;stroke-width:2.25}
		.st8 {fill:none}
		.st9 {stroke:#000000;stroke-linecap:round;stroke-linejoin:round;stroke-width:2.25}
		.st10 {fill:none;fill-rule:evenodd;font-size:12px;overflow:visible;stroke-linecap:square;stroke-miterlimit:3}
	]]>
	</style>

	<g>
		<title>Page-1</title>
		<g id="shape1405-1" transform="translate(1.125,-334.718)">
			<title>Circle.1412</title>
			<path d="M0 342.41 A6.56444 6.56444 0 0 1 13.13 342.41 A6.56444 6.56444 0 1 1 0 342.41 Z" class="st1"/>
		</g>
		<g id="group1423-3" transform="translate(189.8,-199.55)">
			<title>Sheet.1423</title>
			<g id="group1424-4">
				<title>Sheet.1424</title>
				<g id="shape1425-5" transform="translate(0,-4.47576)">
					<title>Sheet.1425</title>
					<desc>A</desc>
					<rect x="0" y="334.799" width="13.2348" height="14.1732" class="st2"/>
					<text x="4" y="348.49" class="st3"><tspan class="st4">A</tspan></text>				</g>
			</g>
			<g id="group1426-9" transform="translate(2.14166,-0.0824008)">
				<title>Sheet.1426</title>
				<g id="shape1427-10" transform="translate(7.92226E-06,-0.0824008)">
					<title>Sheet.1427</title>
					<desc>1</desc>
					<rect x="0" y="334.799" width="85.0394" height="14.1732" class="st5"/>
					<text x="40.24" y="344.89" class="st6">1</text>				</g>
			</g>
		</g>
		<g id="group1472-13" transform="translate(7.68944,-1.125)">
			<title>STPD008.81</title>
			<g id="shape1473-14" transform="translate(1.76659E-12,-287.725)">
				<title>Sheet.1473</title>
				<path d="M0 348.97 L135.4 348.97 L135.4 294.81 L0 294.81 L0 348.97 L0 348.97 Z" class="st7"/>
			</g>
			<g id="shape1474-16" transform="translate(1.76659E-12,-172.635)">
				<title>Sheet.1474</title>
				<path d="M0 233.88 L67.7 348.97 L135.4 233.88 L135.4 233.88 L0 233.88 Z" class="st8"/>
				<path d="M0 233.88 L67.7 348.97 L135.4 233.88 L135.4 233.88" class="st9"/>
			</g>
			<g id="shape1475-19" transform="translate(416.672,176.337) rotate(90)">
				<title>Sheet.1475</title>
				<path d="M0 348.97 L13.54 348.97" class="st9"/>
			</g>
			<g id="shape1476-22" transform="translate(41.4809,-92.3439)">
				<title>Sheet.1476</title>
				<path d="M0 308.35 L311.42 335.43 L311.42 348.97 L0 321.89 L0 308.35 L0 308.35 Z" class="st7"/>
			</g>
			<g id="shape1477-24" transform="translate(41.4809,1.76215E-12)">
				<title>Sheet.1477</title>
				<path d="M311.42 256.63 L212.39 348.97 L0 229.55 L0 229.55 L311.42 256.63 Z" class="st8"/>
				<path d="M311.42 256.63 L212.39 348.97 L0 229.55 L0 229.55" class="st9"/>
			</g>
			<g id="shape1478-27" transform="translate(60.93,-145.555)">
				<title>Sheet.1478</title>
				<path d="M13.54 335.43 L0 335.43 L6.77 348.97 L13.54 335.43 L13.54 335.43 Z" class="st7"/>
			</g>
			<g id="shape1479-29" transform="translate(-244.43,359.482) rotate(-116.565)">
				<title>Sheet.1479</title>
				<path d="M0 348.97 L15.14 348.97" class="st9"/>
			</g>
			<g id="shape1480-32" transform="translate(60.93,-159.095)">
				<title>Sheet.1480</title>
				<path d="M0 348.97 L13.54 348.97" class="st9"/>
			</g>
			<g id="shape1481-35" transform="translate(386.6,345.942) rotate(116.565)">
				<title>Sheet.1481</title>
				<path d="M0 348.97 L15.14 348.97" class="st9"/>
			</g>
			<g id="shape1482-38" transform="translate(373.06,33.812) rotate(63.4349)">
				<title>Sheet.1482</title>
				<path d="M0 348.97 L15.14 348.97" class="st9"/>
			</g>
			<g id="shape1483-41" transform="translate(-244.43,47.352) rotate(-63.4349)">
				<title>Sheet.1483</title>
				<path d="M0 348.97 L15.14 348.97" class="st9"/>
			</g>
			<g id="shape1484-44" transform="translate(74.47,538.849) rotate(180)">
				<title>Sheet.1484</title>
				<path d="M0 348.97 L6.77 348.97" class="st9"/>
			</g>
			<g id="shape1485-47" transform="translate(67.7,538.849) rotate(180)">
				<title>Sheet.1485</title>
				<path d="M0 348.97 L6.77 348.97" class="st9"/>
			</g>
			<g id="shape1486-50" transform="translate(-275.179,191.231) rotate(-90)">
				<title>Sheet.1486</title>
				<path d="M0 348.97 L1.35 348.97" class="st9"/>
			</g>
			<g id="shape1487-53" transform="translate(-275.856,192.585) rotate(-90)">
				<title>Sheet.1487</title>
				<path d="M0 348.97 L2.71 348.97" class="st9"/>
			</g>
			<g id="shape1488-56" transform="translate(-276.533,193.939) rotate(-90)">
				<title>Sheet.1488</title>
				<path d="M0 348.97 L4.06 348.97" class="st9"/>
			</g>
			<g id="shape1489-59" transform="translate(-277.21,195.293) rotate(-90)">
				<title>Sheet.1489</title>
				<path d="M0 348.97 L5.42 348.97" class="st9"/>
			</g>
			<g id="shape1490-62" transform="translate(-277.887,196.647) rotate(-90)">
				<title>Sheet.1490</title>
				<path d="M0 348.97 L6.77 348.97" class="st9"/>
			</g>
			<g id="shape1491-65" transform="translate(-278.564,198.001) rotate(-90)">
				<title>Sheet.1491</title>
				<path d="M0 348.97 L8.12 348.97" class="st9"/>
			</g>
			<g id="shape1492-68" transform="translate(-279.241,199.355) rotate(-90)">
				<title>Sheet.1492</title>
				<path d="M0 348.97 L9.48 348.97" class="st9"/>
			</g>
			<g id="shape1493-71" transform="translate(-279.918,200.709) rotate(-90)">
				<title>Sheet.1493</title>
				<path d="M0 348.97 L10.83 348.97" class="st9"/>
			</g>
			<g id="shape1494-74" transform="translate(-280.595,202.063) rotate(-90)">
				<title>Sheet.1494</title>
				<path d="M0 348.97 L12.19 348.97" class="st9"/>
			</g>
			<g id="shape1495-77" transform="translate(-281.272,203.417) rotate(-90)">
				<title>Sheet.1495</title>
				<path d="M0 348.97 L13.54 348.97" class="st9"/>
			</g>
			<g id="shape1496-80" transform="translate(-281.949,202.063) rotate(-90)">
				<title>Sheet.1496</title>
				<path d="M0 348.97 L12.19 348.97" class="st9"/>
			</g>
			<g id="shape1497-83" transform="translate(-282.626,200.709) rotate(-90)">
				<title>Sheet.1497</title>
				<path d="M0 348.97 L10.83 348.97" class="st9"/>
			</g>
			<g id="shape1498-86" transform="translate(-283.303,199.355) rotate(-90)">
				<title>Sheet.1498</title>
				<path d="M0 348.97 L9.48 348.97" class="st9"/>
			</g>
			<g id="shape1499-89" transform="translate(-283.98,198.001) rotate(-90)">
				<title>Sheet.1499</title>
				<path d="M0 348.97 L8.12 348.97" class="st9"/>
			</g>
			<g id="shape1500-92" transform="translate(-284.657,196.647) rotate(-90)">
				<title>Sheet.1500</title>
				<path d="M0 348.97 L6.77 348.97" class="st9"/>
			</g>
			<g id="shape1501-95" transform="translate(-285.334,195.293) rotate(-90)">
				<title>Sheet.1501</title>
				<path d="M0 348.97 L5.42 348.97" class="st9"/>
			</g>
			<g id="shape1502-98" transform="translate(-286.011,193.939) rotate(-90)">
				<title>Sheet.1502</title>
				<path d="M0 348.97 L4.06 348.97" class="st9"/>
			</g>
			<g id="shape1503-101" transform="translate(-286.688,192.585) rotate(-90)">
				<title>Sheet.1503</title>
				<path d="M0 348.97 L2.71 348.97" class="st9"/>
			</g>
			<g id="shape1504-104" transform="translate(-287.365,191.231) rotate(-90)">
				<title>Sheet.1504</title>
				<path d="M0 348.97 L1.35 348.97" class="st9"/>
			</g>
		</g>
	</g>
</svg>
