<?xml version="1.0" encoding="UTF-8" standalone="no"?>
<!DOCTYPE svg PUBLIC "-//W3C//DTD SVG 1.1//EN" "http://www.w3.org/Graphics/SVG/1.1/DTD/svg11.dtd">
<!-- Generated by Microsoft Visio, SVG Export PD004A_Origo.svg Page-1 -->
<svg xmlns="http://www.w3.org/2000/svg" xmlns:xlink="http://www.w3.org/1999/xlink" xmlns:ev="http://www.w3.org/2001/xml-events"
		width="5.7295in" height="5.83811in" viewBox="0 0 412.524 420.344" xml:space="preserve" color-interpolation-filters="sRGB"
		class="st10">
	<title>PD004A</title>

	<style type="text/css">
	<![CDATA[
		.st1 {fill:#ffffff;stroke:#ff0000;stroke-linecap:round;stroke-linejoin:round;stroke-width:2.25}
		.st2 {fill:none;stroke:none;stroke-linecap:round;stroke-linejoin:round;stroke-width:0.75}
		.st3 {fill:#ff0000;font-family:Arial Narrow;font-size:0.811964em;font-weight:bold}
		.st4 {baseline-shift:33.35%;font-size:0.667em}
		.st5 {fill:none;stroke:#ff0000;stroke-linecap:round;stroke-linejoin:round;stroke-width:0.75}
		.st6 {fill:#ff0000;font-family:Arial Narrow;font-size:0.833336em;font-weight:bold}
		.st7 {fill:none;stroke:#000000;stroke-linecap:round;stroke-linejoin:round;stroke-width:2.25}
		.st8 {stroke:#000000;stroke-linecap:round;stroke-linejoin:round;stroke-width:2.25}
		.st9 {fill:none}
		.st10 {fill:none;fill-rule:evenodd;font-size:12px;overflow:visible;stroke-linecap:square;stroke-miterlimit:3}
	]]>
	</style>

	<g>
		<title>Page-1</title>
		<g id="shape1405-1" transform="translate(178.813,-406.09)">
			<title>Circle.1412</title>
			<path d="M0 413.78 A6.56444 6.56444 0 0 1 13.13 413.78 A6.56444 6.56444 0 1 1 0 413.78 Z" class="st1"/>
		</g>
		<g id="group1423-3" transform="translate(324.968,-270.922)">
			<title>Sheet.1423</title>
			<g id="group1424-4">
				<title>Sheet.1424</title>
				<g id="shape1425-5" transform="translate(0,-4.47576)">
					<title>Sheet.1425</title>
					<desc>A</desc>
					<rect x="0" y="406.17" width="13.2348" height="14.1732" class="st2"/>
					<text x="4" y="419.86" class="st3"><tspan class="st4">A</tspan></text>				</g>
			</g>
			<g id="group1426-9" transform="translate(2.14166,-0.0824008)">
				<title>Sheet.1426</title>
				<g id="shape1427-10" transform="translate(7.92226E-06,-0.0824008)">
					<title>Sheet.1427</title>
					<desc>1</desc>
					<rect x="0" y="406.17" width="85.0394" height="14.1732" class="st5"/>
					<text x="40.24" y="416.26" class="st6">1</text>				</g>
			</g>
		</g>
		<g id="group1428-13" transform="translate(1.125,-2.12723)">
			<title>STPE024.171</title>
			<g id="shape1429-14" transform="translate(184.246,-0.817875)">
				<title>Sheet.1429</title>
				<path d="M42.52 407.48 L30.17 394.63 L12.35 394.63 L0 407.48 L12.35 420.34 L30.17 420.34 L42.52 407.48 L42.52 407.48
							 Z" class="st7"/>
			</g>
			<g id="shape1430-16" transform="translate(464.649,378.127) rotate(129.806)">
				<title>Sheet.1430</title>
				<path d="M0 420.34 L221.39 420.34" class="st8"/>
			</g>
			<g id="shape1431-19" transform="translate(0,-141.236)">
				<title>Sheet.1431</title>
				<path d="M0 420.34 L141.73 420.34" class="st8"/>
			</g>
			<g id="shape1432-22" transform="translate(491.21,23.9899) rotate(90)">
				<title>Sheet.1432</title>
				<path d="M0 420.34 L170.08 420.34" class="st8"/>
			</g>
			<g id="shape1433-25" transform="translate(70.8661,-396.354)">
				<title>Sheet.1433</title>
				<path d="M0 420.34 L70.87 420.34" class="st8"/>
			</g>
			<g id="shape1434-28" transform="translate(141.726,-0.817875)">
				<title>Sheet.1434</title>
				<path d="M0 407.48 A22.735 22.735 -180 0 0 42.52 407.48 L0 407.48 Z" class="st9"/>
				<path d="M0 407.48 A22.735 22.735 -180 0 0 42.52 407.48" class="st8"/>
			</g>
			<g id="shape1435-31" transform="translate(-278.611,406.667) rotate(-90)">
				<title>Sheet.1435</title>
				<path d="M0 420.34 L396.85 420.34" class="st8"/>
			</g>
			<g id="shape1436-34" transform="translate(141.732,-410.527)">
				<title>Sheet.1436</title>
				<path d="M0 420.34 L85.04 420.34" class="st8"/>
			</g>
			<g id="shape1437-37" transform="translate(-193.572,406.667) rotate(-90)">
				<title>Sheet.1437</title>
				<path d="M0 420.34 L396.85 420.34" class="st8"/>
			</g>
			<g id="shape1438-40" transform="translate(549.689,-160.068) rotate(50.1944)">
				<title>Sheet.1438</title>
				<path d="M0 420.34 L221.39 420.34" class="st8"/>
			</g>
			<g id="shape1439-43" transform="translate(368.504,699.452) rotate(180)">
				<title>Sheet.1439</title>
				<path d="M0 420.34 L141.73 420.34" class="st8"/>
			</g>
			<g id="shape1440-46" transform="translate(717.981,23.9899) rotate(90)">
				<title>Sheet.1440</title>
				<path d="M0 420.34 L170.08 420.34" class="st8"/>
			</g>
			<g id="shape1441-49" transform="translate(297.638,444.334) rotate(180)">
				<title>Sheet.1441</title>
				<path d="M0 420.34 L70.87 420.34" class="st8"/>
			</g>
			<g id="shape1442-52" transform="translate(199.586,-27.5653)">
				<title>Sheet.1442</title>
				<path d="M0 420.34 L11.82 420.34" class="st8"/>
			</g>
			<g id="shape1443-55" transform="translate(196.556,-26.5051)">
				<title>Sheet.1443</title>
				<path d="M0 420.34 L17.92 420.34" class="st8"/>
			</g>
			<g id="shape1444-58" transform="translate(194.396,-25.4449)">
				<title>Sheet.1444</title>
				<path d="M0 420.34 L22.22 420.34" class="st8"/>
			</g>
			<g id="shape1445-61" transform="translate(192.695,-24.3846)">
				<title>Sheet.1445</title>
				<path d="M0 420.34 L25.65 420.34" class="st8"/>
			</g>
			<g id="shape1446-64" transform="translate(191.255,-23.3244)">
				<title>Sheet.1446</title>
				<path d="M0 420.34 L28.5 420.34" class="st8"/>
			</g>
			<g id="shape1447-67" transform="translate(190.027,-22.2642)">
				<title>Sheet.1447</title>
				<path d="M0 420.34 L30.95 420.34" class="st8"/>
			</g>
			<g id="shape1448-70" transform="translate(188.962,-21.204)">
				<title>Sheet.1448</title>
				<path d="M0 420.34 L33.09 420.34" class="st8"/>
			</g>
			<g id="shape1449-73" transform="translate(188.03,-20.1438)">
				<title>Sheet.1449</title>
				<path d="M0 420.34 L34.96 420.34" class="st8"/>
			</g>
			<g id="shape1450-76" transform="translate(187.198,-19.0836)">
				<title>Sheet.1450</title>
				<path d="M0 420.34 L36.62 420.34" class="st8"/>
			</g>
			<g id="shape1451-79" transform="translate(186.462,-18.0234)">
				<title>Sheet.1451</title>
				<path d="M0 420.34 L38.09 420.34" class="st8"/>
			</g>
			<g id="shape1452-82" transform="translate(185.809,-16.9632)">
				<title>Sheet.1452</title>
				<path d="M0 420.34 L39.39 420.34" class="st8"/>
			</g>
			<g id="shape1453-85" transform="translate(185.24,-15.903)">
				<title>Sheet.1453</title>
				<path d="M0 420.34 L40.54 420.34" class="st8"/>
			</g>
			<g id="shape1454-88" transform="translate(184.743,-14.8428)">
				<title>Sheet.1454</title>
				<path d="M0 420.34 L41.54 420.34" class="st8"/>
			</g>
			<g id="shape1455-91" transform="translate(184.291,-13.7826)">
				<title>Sheet.1455</title>
				<path d="M0 420.34 L42.44 420.34" class="st8"/>
			</g>
			<g id="shape1456-94" transform="translate(184.643,-12.7224)">
				<title>Sheet.1456</title>
				<path d="M0 420.34 L41.73 420.34" class="st8"/>
			</g>
			<g id="shape1457-97" transform="translate(185.139,-11.6622)">
				<title>Sheet.1457</title>
				<path d="M0 420.34 L40.76 420.34" class="st8"/>
			</g>
			<g id="shape1458-100" transform="translate(185.697,-10.602)">
				<title>Sheet.1458</title>
				<path d="M0 420.34 L39.63 420.34" class="st8"/>
			</g>
			<g id="shape1459-103" transform="translate(186.328,-9.54182)">
				<title>Sheet.1459</title>
				<path d="M0 420.34 L38.36 420.34" class="st8"/>
			</g>
			<g id="shape1460-106" transform="translate(187.048,-8.48162)">
				<title>Sheet.1460</title>
				<path d="M0 420.34 L36.93 420.34" class="st8"/>
			</g>
			<g id="shape1461-109" transform="translate(187.851,-7.42142)">
				<title>Sheet.1461</title>
				<path d="M0 420.34 L35.32 420.34" class="st8"/>
			</g>
			<g id="shape1462-112" transform="translate(188.766,-6.36121)">
				<title>Sheet.1462</title>
				<path d="M0 420.34 L33.49 420.34" class="st8"/>
			</g>
			<g id="shape1463-115" transform="translate(189.81,-5.30101)">
				<title>Sheet.1463</title>
				<path d="M0 420.34 L31.4 420.34" class="st8"/>
			</g>
			<g id="shape1464-118" transform="translate(191.004,-4.24081)">
				<title>Sheet.1464</title>
				<path d="M0 420.34 L29.02 420.34" class="st8"/>
			</g>
			<g id="shape1465-121" transform="translate(192.382,-3.18061)">
				<title>Sheet.1465</title>
				<path d="M0 420.34 L26.27 420.34" class="st8"/>
			</g>
			<g id="shape1466-124" transform="translate(194.017,-2.1204)">
				<title>Sheet.1466</title>
				<path d="M0 420.34 L22.97 420.34" class="st8"/>
			</g>
			<g id="shape1467-127" transform="translate(196.065,-1.0602)">
				<title>Sheet.1467</title>
				<path d="M0 420.34 L18.89 420.34" class="st8"/>
			</g>
			<g id="shape1468-130" transform="translate(198.844,0)">
				<title>Sheet.1468</title>
				<path d="M0 420.34 L13.31 420.34" class="st8"/>
			</g>
		</g>
	</g>
</svg>
