<?xml version="1.0" encoding="UTF-8" standalone="no"?>
<!DOCTYPE svg PUBLIC "-//W3C//DTD SVG 1.1//EN" "http://www.w3.org/Graphics/SVG/1.1/DTD/svg11.dtd">
<!-- Generated by Microsoft Visio, SVG Export PD009A_Origo.svg Page-1 -->
<svg xmlns="http://www.w3.org/2000/svg" xmlns:xlink="http://www.w3.org/1999/xlink" xmlns:ev="http://www.w3.org/2001/xml-events"
		width="7.01219in" height="2.09093in" viewBox="0 0 504.877 150.547" xml:space="preserve" color-interpolation-filters="sRGB"
		class="st10">
	<title>PD009A</title>

	<style type="text/css">
	<![CDATA[
		.st1 {fill:#ffffff;stroke:#ff0000;stroke-linecap:round;stroke-linejoin:round;stroke-width:2.25}
		.st2 {fill:none;stroke:none;stroke-linecap:round;stroke-linejoin:round;stroke-width:0.75}
		.st3 {fill:#ff0000;font-family:Arial Narrow;font-size:0.811964em;font-weight:bold}
		.st4 {baseline-shift:33.35%;font-size:0.667em}
		.st5 {fill:none;stroke:#ff0000;stroke-linecap:round;stroke-linejoin:round;stroke-width:0.75}
		.st6 {fill:#ff0000;font-family:Arial Narrow;font-size:0.833336em;font-weight:bold}
		.st7 {fill:none;stroke:#000000;stroke-linecap:round;stroke-linejoin:round;stroke-width:2.25}
		.st8 {fill:none}
		.st9 {stroke:#000000;stroke-linecap:round;stroke-linejoin:round;stroke-width:2.25}
		.st10 {fill:none;fill-rule:evenodd;font-size:12px;overflow:visible;stroke-linecap:square;stroke-miterlimit:3}
	]]>
	</style>

	<g>
		<title>Page-1</title>
		<g id="shape1405-1" transform="translate(1.125,-136.293)">
			<title>Circle.1412</title>
			<path d="M0 143.98 A6.56444 6.56444 0 0 1 13.13 143.98 A6.56444 6.56444 0 1 1 0 143.98 Z" class="st1"/>
		</g>
		<g id="group1423-3" transform="translate(19.721,-29.4715)">
			<title>Sheet.1423</title>
			<g id="group1424-4">
				<title>Sheet.1424</title>
				<g id="shape1425-5" transform="translate(0,-4.47576)">
					<title>Sheet.1425</title>
					<desc>A</desc>
					<rect x="0" y="136.374" width="13.2348" height="14.1732" class="st2"/>
					<text x="4" y="150.06" class="st3"><tspan class="st4">A</tspan></text>				</g>
			</g>
			<g id="group1426-9" transform="translate(2.14166,-0.0824008)">
				<title>Sheet.1426</title>
				<g id="shape1427-10" transform="translate(7.92226E-06,-0.0824008)">
					<title>Sheet.1427</title>
					<desc>1</desc>
					<rect x="0" y="136.374" width="85.0394" height="14.1732" class="st5"/>
					<text x="40.24" y="146.46" class="st6">1</text>				</g>
			</g>
		</g>
		<g id="group1470-13" transform="translate(7.68944,-1.125)">
			<title>STPD009.114</title>
			<g id="shape1471-14" transform="translate(-2.43006E-12,-89.7392)">
				<title>Sheet.1471</title>
				<path d="M0.5 98.55 L326.51 136.88 L326.02 150.55 L0 112.22 L0.5 98.55 L0.5 98.55 Z" class="st7"/>
			</g>
			<g id="shape1472-16">
				<title>Sheet.1472</title>
				<path d="M326.02 60.81 L218.65 150.55 L0 22.49 L0 22.49 L326.02 60.81 Z" class="st8"/>
				<path d="M326.02 60.81 L218.65 150.55 L0 22.49 L0 22.49" class="st9"/>
			</g>
			<g id="shape1473-19" transform="translate(336.615,206.797) rotate(-173.308)">
				<title>Sheet.1473</title>
				<path d="M0 150.55 L28.09 150.55" class="st9"/>
			</g>
			<g id="shape1474-22" transform="translate(353.798,-13.6796)">
				<title>Sheet.1474</title>
				<path d="M0 95.83 L142.27 95.83 L142.27 150.55 L0 95.83 L0 95.83 Z" class="st7"/>
			</g>
			<g id="shape1475-24" transform="translate(415.755,201.799) rotate(161.619)">
				<title>Sheet.1475</title>
				<path d="M0 150.55 L15.84 150.55" class="st9"/>
			</g>
			<g id="shape1476-27" transform="translate(204.093,43.5061) rotate(-82.2033)">
				<title>Sheet.1476</title>
				<path d="M0 150.55 L13.69 150.55" class="st9"/>
			</g>
			<g id="shape1477-30" transform="translate(305.775,-78.9367) rotate(-18.3813)">
				<title>Sheet.1477</title>
				<path d="M0 150.55 L15.84 150.55" class="st9"/>
			</g>
			<g id="shape1478-33" transform="translate(286.224,185.151) rotate(-146.971)">
				<title>Sheet.1478</title>
				<path d="M0 150.55 L15.72 150.55" class="st9"/>
			</g>
			<g id="shape1479-36" transform="translate(504.26,70.7899) rotate(97.7967)">
				<title>Sheet.1479</title>
				<path d="M0 150.55 L6.84 150.55" class="st9"/>
			</g>
			<g id="shape1480-39" transform="translate(503.332,77.5708) rotate(97.7967)">
				<title>Sheet.1480</title>
				<path d="M0 150.55 L6.84 150.55" class="st9"/>
			</g>
			<g id="shape1481-42" transform="translate(336.203,199.724) rotate(-172.786)">
				<title>Sheet.1481</title>
				<path d="M0 150.55 L0 150.55" class="st9"/>
			</g>
			<g id="shape1482-45" transform="translate(337.52,200.581) rotate(-172.786)">
				<title>Sheet.1482</title>
				<path d="M0 150.55 L1.43 150.55" class="st9"/>
			</g>
			<g id="shape1483-48" transform="translate(338.838,201.437) rotate(-172.786)">
				<title>Sheet.1483</title>
				<path d="M0 150.55 L2.85 150.55" class="st9"/>
			</g>
			<g id="shape1484-51" transform="translate(340.155,202.294) rotate(-172.786)">
				<title>Sheet.1484</title>
				<path d="M0 150.55 L4.27 150.55" class="st9"/>
			</g>
			<g id="shape1485-54" transform="translate(341.473,203.151) rotate(-172.786)">
				<title>Sheet.1485</title>
				<path d="M0 150.55 L5.69 150.55" class="st9"/>
			</g>
			<g id="shape1486-57" transform="translate(342.791,204.007) rotate(-172.786)">
				<title>Sheet.1486</title>
				<path d="M0 150.55 L7.11 150.55" class="st9"/>
			</g>
			<g id="shape1487-60" transform="translate(344.108,204.864) rotate(-172.786)">
				<title>Sheet.1487</title>
				<path d="M0 150.55 L8.53 150.55" class="st9"/>
			</g>
			<g id="shape1488-63" transform="translate(345.426,205.72) rotate(-172.786)">
				<title>Sheet.1488</title>
				<path d="M0 150.55 L9.96 150.55" class="st9"/>
			</g>
			<g id="shape1489-66" transform="translate(346.744,206.577) rotate(-172.786)">
				<title>Sheet.1489</title>
				<path d="M0 150.55 L11.38 150.55" class="st9"/>
			</g>
			<g id="shape1490-69" transform="translate(348.061,207.434) rotate(-172.786)">
				<title>Sheet.1490</title>
				<path d="M0 150.55 L12.8 150.55" class="st9"/>
			</g>
			<g id="shape1491-72" transform="translate(349.372,208.29) rotate(-172.786)">
				<title>Sheet.1491</title>
				<path d="M0 150.55 L14.21 150.55" class="st9"/>
			</g>
			<g id="shape1492-75" transform="translate(347.869,208.789) rotate(-172.786)">
				<title>Sheet.1492</title>
				<path d="M0 150.55 L12.79 150.55" class="st9"/>
			</g>
			<g id="shape1493-78" transform="translate(346.365,209.289) rotate(-172.786)">
				<title>Sheet.1493</title>
				<path d="M0 150.55 L11.37 150.55" class="st9"/>
			</g>
			<g id="shape1494-81" transform="translate(344.862,209.788) rotate(-172.786)">
				<title>Sheet.1494</title>
				<path d="M0 150.55 L9.95 150.55" class="st9"/>
			</g>
			<g id="shape1495-84" transform="translate(343.359,210.288) rotate(-172.786)">
				<title>Sheet.1495</title>
				<path d="M0 150.55 L8.53 150.55" class="st9"/>
			</g>
			<g id="shape1496-87" transform="translate(341.855,210.787) rotate(-172.786)">
				<title>Sheet.1496</title>
				<path d="M0 150.55 L7.11 150.55" class="st9"/>
			</g>
			<g id="shape1497-90" transform="translate(340.352,211.287) rotate(-172.786)">
				<title>Sheet.1497</title>
				<path d="M0 150.55 L5.68 150.55" class="st9"/>
			</g>
			<g id="shape1498-93" transform="translate(338.849,211.786) rotate(-172.786)">
				<title>Sheet.1498</title>
				<path d="M0 150.55 L4.26 150.55" class="st9"/>
			</g>
			<g id="shape1499-96" transform="translate(337.345,212.286) rotate(-172.786)">
				<title>Sheet.1499</title>
				<path d="M0 150.55 L2.84 150.55" class="st9"/>
			</g>
			<g id="shape1500-99" transform="translate(335.842,212.785) rotate(-172.786)">
				<title>Sheet.1500</title>
				<path d="M0 150.55 L1.42 150.55" class="st9"/>
			</g>
		</g>
	</g>
</svg>
