<?xml version="1.0" encoding="UTF-8"?><!DOCTYPE svg PUBLIC "-//W3C//DTD SVG 1.1//EN" "http://www.w3.org/Graphics/SVG/1.1/DTD/svg11.dtd"><svg xmlns="http://www.w3.org/2000/svg" xmlns:xlink="http://www.w3.org/1999/xlink" version="1.1" width="239.694mm" height="152.917mm" viewBox="-0.5625 -28.0625 56.625 36.125"><defs vector-effect="non-scaling-stroke"/><g><g id="cell-D-jXNgI-DwGyQQJvZ0DA-5" layer="Symbol"><path fill="none" stroke="rgb(0, 0, 0)" pointer-events="all" d="M18 6L38 6 38 8 18 8z" stroke-width="0.25" stroke-linecap="round" stroke-linejoin="round"/></g><g id="cell-D-jXNgI-DwGyQQJvZ0DA-4" layer="Symbol"><path fill="none" stroke="rgb(0, 0, 0)" pointer-events="all" d="M20 0L36 0 36 6 20 6z" stroke-width="0.25" stroke-linecap="round" stroke-linejoin="round"/></g><g id="cell-D-jXNgI-DwGyQQJvZ0DA-3" layer="Symbol"><path fill="none" stroke="rgb(0, 0, 0)" pointer-events="all" d="M18-28L38-28 38-26 18-26z" stroke-width="0.25" stroke-linecap="round" stroke-linejoin="round"/></g><g id="cell-D-jXNgI-DwGyQQJvZ0DA-2" layer="Symbol"><path fill="none" stroke="rgb(0, 0, 0)" pointer-events="all" d="M20-26L36-26 36-20 20-20z" stroke-width="0.25" stroke-linecap="round" stroke-linejoin="round"/></g><g id="cell-D-jXNgI-DwGyQQJvZ0DA-1" layer="Symbol"><path d="M0-12L8-20 48-20 56-12Z" fill="none" stroke="rgb(0, 0, 0)" stroke-miterlimit="10" pointer-events="all" stroke-width="0.25" stroke-linecap="round" stroke-linejoin="round"/></g><g id="cell-D-jXNgI-DwGyQQJvZ0DA-0" layer="Symbol"><path fill="none" stroke="rgb(0, 0, 0)" pointer-events="all" d="M0-12L56-12 56 0 0 0z" stroke-width="0.25" stroke-linecap="round" stroke-linejoin="round"/></g><g id="cell-D-jXNgI-DwGyQQJvZ0DA-7" content="&lt;object label=&quot;%LabelLines%&amp;amp;nbsp; &amp;amp;nbsp; &amp;amp;nbsp; &amp;amp;nbsp; &amp;amp;nbsp; &amp;amp;nbsp;%LabelIndex%&quot; placeholders=&quot;1&quot; LabelLines=&quot;1&quot; LabelIndex=&quot;A&quot;/&gt;" data-label="%LabelLines%&amp;nbsp; &amp;nbsp; &amp;nbsp; &amp;nbsp; &amp;nbsp; &amp;nbsp;%LabelIndex%" data-placeholders="1" data-LabelLines="1" data-LabelIndex="A" layer="Label"><path fill="none" stroke="#ff0000" pointer-events="all" d="M22-8L34-8 34-6 22-6z" vector-effect="non-scaling-stroke" stroke-linecap="round" stroke-linejoin="round"/><g><text x="182" y="171" fill="#FF0000" font-family="Helvetica" font-size="10px" transform="scale(0.125 0.125) translate(-4 -224) translate(-0.5 -0.5)" vector-effect="non-scaling-stroke" stroke-linecap="round" stroke-linejoin="round">1           A</text></g></g><g id="cell-D-jXNgI-DwGyQQJvZ0DA-6" content="&lt;object label=&quot;origo&quot;/&gt;" data-label="origo" layer="Origo"><ellipse cx="0" cy="0" rx="0.25" ry="0.25" fill="none" stroke="#ff0000" vector-effect="non-scaling-stroke"/></g></g></svg>