<?xml version="1.0" encoding="UTF-8"?><!DOCTYPE svg PUBLIC "-//W3C//DTD SVG 1.1//EN" "http://www.w3.org/Graphics/SVG/1.1/DTD/svg11.dtd"><svg xmlns="http://www.w3.org/2000/svg" xmlns:xlink="http://www.w3.org/1999/xlink" version="1.1" width="238.106mm" height="248.689mm" viewBox="-26.0625 -0.5625 56.25 58.75"><defs vector-effect="non-scaling-stroke"/><g><g id="cell-pEtjtcBWMfalJ67Uv4dw-31" layer="Symbol"><path d="M6 16L6 0" fill="none" stroke="rgb(0, 0, 0)" stroke-miterlimit="10" pointer-events="stroke" stroke-width="0.25" stroke-linecap="round" stroke-linejoin="round"/></g><g id="cell-pEtjtcBWMfalJ67Uv4dw-30" layer="Symbol"><path d="M-6 16L-6 0" fill="none" stroke="rgb(0, 0, 0)" stroke-miterlimit="10" pointer-events="stroke" stroke-width="0.25" stroke-linecap="round" stroke-linejoin="round"/></g><g id="cell-pEtjtcBWMfalJ67Uv4dw-4" layer="Symbol"><path d="M-0.006250000000001421 0L6 0" fill="none" stroke="rgb(0, 0, 0)" stroke-miterlimit="10" pointer-events="stroke" stroke-width="0.25" stroke-linecap="round" stroke-linejoin="round"/></g><g id="cell-pEtjtcBWMfalJ67Uv4dw-15" layer="Symbol"><path d="M-18 2L-6 2" fill="none" stroke="rgb(0, 0, 0)" stroke-miterlimit="10" pointer-events="stroke" stroke-width="0.25" stroke-linecap="round" stroke-linejoin="round"/></g><g id="cell-pEtjtcBWMfalJ67Uv4dw-27" layer="Symbol"><path d="M-6 0L-0.006250000000001421 0" fill="none" stroke="rgb(0, 0, 0)" stroke-miterlimit="10" pointer-events="stroke" stroke-width="0.25" stroke-linecap="round" stroke-linejoin="round"/></g><g id="cell-pEtjtcBWMfalJ67Uv4dw-16" layer="Symbol"><path d="M-17.98 29.15625L-18 2" fill="none" stroke="rgb(0, 0, 0)" stroke-miterlimit="10" pointer-events="stroke" stroke-width="0.25" stroke-linecap="round" stroke-linejoin="round"/></g><g id="cell-pEtjtcBWMfalJ67Uv4dw-7" layer="Symbol"><path d="M-6 38L-6 16-26 38Z" fill="none" stroke="rgb(0, 0, 0)" stroke-miterlimit="10" pointer-events="all" stroke-width="0.25" stroke-linecap="round" stroke-linejoin="round"/></g><g id="cell-pEtjtcBWMfalJ67Uv4dw-9" layer="Symbol"><path d="M16 27L16 2" fill="none" stroke="rgb(0, 0, 0)" stroke-miterlimit="10" pointer-events="stroke" stroke-width="0.25" stroke-linecap="round" stroke-linejoin="round"/></g><g id="cell-pEtjtcBWMfalJ67Uv4dw-8" layer="Symbol"><path d="M6 2L16 2" fill="none" stroke="rgb(0, 0, 0)" stroke-miterlimit="10" pointer-events="stroke" stroke-width="0.25" stroke-linecap="round" stroke-linejoin="round"/></g><g id="cell-pEtjtcBWMfalJ67Uv4dw-3" layer="Symbol"><path d="M6 38L6 16 26 38Z" fill="none" stroke="rgb(0, 0, 0)" stroke-miterlimit="10" pointer-events="all" stroke-width="0.25" stroke-linecap="round" stroke-linejoin="round"/></g><g id="cell-pEtjtcBWMfalJ67Uv4dw-6" layer="Symbol"><path d="M6 56L6 38" fill="none" stroke="rgb(0, 0, 0)" stroke-miterlimit="10" pointer-events="stroke" stroke-width="0.25" stroke-linecap="round" stroke-linejoin="round"/></g><g id="cell-pEtjtcBWMfalJ67Uv4dw-5" layer="Symbol"><path d="M-6 56L-6 38" fill="none" stroke="rgb(0, 0, 0)" stroke-miterlimit="10" pointer-events="stroke" stroke-width="0.25" stroke-linecap="round" stroke-linejoin="round"/></g><g id="cell-pEtjtcBWMfalJ67Uv4dw-22" layer="Symbol"><path d="M-6 56Q-6 56.5-5.875 56.75-5.75 57-5.5 57.25-5.25 57.5-4.625 57.75-4 58-3.125 58-2.25 58-1.75 57.875-1.25 57.75-0.875 57.5-0.5 57.25-0.25 56.875 0 56.5 0 56.125" fill="none" stroke="rgb(0, 0, 0)" stroke-miterlimit="10" pointer-events="stroke" stroke-width="0.25" stroke-linecap="round" stroke-linejoin="round"/></g><g id="cell-pEtjtcBWMfalJ67Uv4dw-20" layer="Symbol"><path fill="#000000" stroke="rgb(0, 0, 0)" pointer-events="all" d="M0 56.125a3 1.875 0 1 0 6 0 3 1.875 0 1 0-6 0" stroke-width="0.25" stroke-linecap="round" stroke-linejoin="round"/></g><g id="cell-pEtjtcBWMfalJ67Uv4dw-19" layer="Label"><path d="M0 56Q1.75 58 3.25 58 4.75 58 6 56" fill="none" stroke="rgb(0, 0, 0)" stroke-miterlimit="10" pointer-events="stroke" vector-effect="non-scaling-stroke" stroke-linecap="round" stroke-linejoin="round"/></g><g id="cell-pEtjtcBWMfalJ67Uv4dw-29" content="&lt;object label=&quot;%LabelLines%&amp;amp;nbsp; &amp;amp;nbsp; &amp;amp;nbsp; &amp;amp;nbsp; &amp;amp;nbsp; &amp;amp;nbsp;%LabelIndex%&quot; placeholders=&quot;1&quot; LabelLines=&quot;1&quot; LabelIndex=&quot;A&quot;/&gt;" data-label="%LabelLines%&amp;nbsp; &amp;nbsp; &amp;nbsp; &amp;nbsp; &amp;nbsp; &amp;nbsp;%LabelIndex%" data-placeholders="1" data-LabelLines="1" data-LabelIndex="A" layer="Label"><path fill="none" stroke="#ff0000" pointer-events="all" d="M20 18L30 18 30 20 20 20z" vector-effect="non-scaling-stroke" stroke-linecap="round" stroke-linejoin="round"/><g><text x="370" y="159" fill="#FF0000" font-family="Helvetica" font-size="10px" transform="scale(0.125 0.125) translate(-208 -4) translate(-0.5 -0.5)" vector-effect="non-scaling-stroke" stroke-linecap="round" stroke-linejoin="round">1           A</text></g></g><g id="cell-pEtjtcBWMfalJ67Uv4dw-28" content="&lt;object label=&quot;origo&quot;/&gt;" data-label="origo" layer="Origo"><ellipse cx="0" cy="0" rx="0.25" ry="0.25" fill="none" stroke="#ff0000" vector-effect="non-scaling-stroke"/></g></g></svg>