<?xml version="1.0" encoding="UTF-8" standalone="no"?>
<!DOCTYPE svg PUBLIC "-//W3C//DTD SVG 1.1//EN" "http://www.w3.org/Graphics/SVG/1.1/DTD/svg11.dtd">
<!-- Generated by Microsoft Visio, SVG Export PD001A_Origo.svg Page-1 -->
<svg xmlns="http://www.w3.org/2000/svg" xmlns:xlink="http://www.w3.org/1999/xlink" xmlns:ev="http://www.w3.org/2001/xml-events"
		width="3.10212in" height="5.24779in" viewBox="0 0 223.352 377.841" xml:space="preserve" color-interpolation-filters="sRGB"
		class="st10">
	<title>PD001A</title>

	<style type="text/css">
	<![CDATA[
		.st1 {fill:#ffffff;stroke:#ff0000;stroke-linecap:round;stroke-linejoin:round;stroke-width:2.25}
		.st2 {fill:none;stroke:none;stroke-linecap:round;stroke-linejoin:round;stroke-width:0.75}
		.st3 {fill:#ff0000;font-family:Arial Narrow;font-size:0.811964em;font-weight:bold}
		.st4 {baseline-shift:33.35%;font-size:0.667em}
		.st5 {fill:none;stroke:#ff0000;stroke-linecap:round;stroke-linejoin:round;stroke-width:0.75}
		.st6 {fill:#ff0000;font-family:Arial Narrow;font-size:0.833336em;font-weight:bold}
		.st7 {fill:none;stroke:#000000;stroke-linecap:round;stroke-linejoin:round;stroke-width:2.25}
		.st8 {stroke:#000000;stroke-linecap:round;stroke-linejoin:round;stroke-width:2.25}
		.st9 {fill:none}
		.st10 {fill:none;fill-rule:evenodd;font-size:12px;overflow:visible;stroke-linecap:square;stroke-miterlimit:3}
	]]>
	</style>

	<g>
		<title>Page-1</title>
		<g id="shape1405-1" transform="translate(24.2031,-193.006) rotate(0.2)">
			<title>Circle.1508</title>
			<path d="M0 371.28 A6.56444 6.56444 0 0 1 13.13 371.28 A6.56444 6.56444 0 1 1 0 371.28 Z" class="st1"/>
		</g>
		<g id="group1458-3" transform="translate(69.8495,-227.814)">
			<title>Sheet.1458</title>
			<g id="group1410-4">
				<title>Sheet.1410</title>
				<g id="shape1412-5" transform="translate(0,-4.47576)">
					<title>Sheet.1412</title>
					<desc>A</desc>
					<rect x="0" y="363.667" width="13.2348" height="14.1732" class="st2"/>
					<text x="4" y="377.36" class="st3"><tspan class="st4">A</tspan></text>				</g>
			</g>
			<g id="group1456-9" transform="translate(2.14166,-0.0824008)">
				<title>Sheet.1456</title>
				<g id="shape1457-10" transform="translate(7.92226E-06,-0.0824008)">
					<title>Sheet.1457</title>
					<desc>1</desc>
					<rect x="0" y="363.667" width="85.0394" height="14.1732" class="st5"/>
					<text x="40.24" y="373.75" class="st6">1</text>				</g>
			</g>
		</g>
		<g id="group1489-13" transform="translate(1.125,-1.125)">
			<title>STPD001.1489</title>
			<g id="shape1490-14" transform="translate(81.4588,0)">
				<title>Sheet.1490</title>
				<path d="M58.18 371.97 L0 371.97 L0 377.84 L58.18 377.84 L58.18 371.97 L58.18 371.97 Z" class="st7"/>
			</g>
			<g id="shape1491-16" transform="translate(465.118,78.5418) rotate(90)">
				<title>Sheet.1491</title>
				<path d="M0 377.84 L17.61 377.84" class="st8"/>
			</g>
			<g id="shape1492-19" transform="translate(465.118,102.016) rotate(90)">
				<title>Sheet.1492</title>
				<path d="M0 377.84 L17.61 377.84" class="st8"/>
			</g>
			<g id="shape1493-22" transform="translate(511.666,78.5418) rotate(90)">
				<title>Sheet.1493</title>
				<path d="M0 377.84 L17.61 377.84" class="st8"/>
			</g>
			<g id="shape1494-25" transform="translate(511.666,102.016) rotate(90)">
				<title>Sheet.1494</title>
				<path d="M0 377.84 L17.61 377.84" class="st8"/>
			</g>
			<g id="shape1495-28" transform="translate(511.666,178.308) rotate(90)">
				<title>Sheet.1495</title>
				<path d="M0 377.84 L11.74 377.84" class="st8"/>
			</g>
			<g id="shape1496-31" transform="translate(465.118,178.308) rotate(90)">
				<title>Sheet.1496</title>
				<path d="M0 377.84 L11.74 377.84" class="st8"/>
			</g>
			<g id="shape1497-34" transform="translate(465.118,195.914) rotate(90)">
				<title>Sheet.1497</title>
				<path d="M0 377.84 L111.5 377.84" class="st8"/>
			</g>
			<g id="shape1498-37" transform="translate(511.666,195.914) rotate(90)">
				<title>Sheet.1498</title>
				<path d="M0 377.84 L111.5 377.84" class="st8"/>
			</g>
			<g id="shape1499-40" transform="translate(465.118,313.286) rotate(90)">
				<title>Sheet.1499</title>
				<path d="M0 377.84 L11.74 377.84" class="st8"/>
			</g>
			<g id="shape1500-43" transform="translate(511.666,313.286) rotate(90)">
				<title>Sheet.1500</title>
				<path d="M0 377.84 L11.74 377.84" class="st8"/>
			</g>
			<g id="shape1501-46" transform="translate(465.118,8.1186) rotate(90)">
				<title>Sheet.1501</title>
				<path d="M0 377.84 L17.61 377.84" class="st8"/>
			</g>
			<g id="shape1502-49" transform="translate(511.666,8.1186) rotate(90)">
				<title>Sheet.1502</title>
				<path d="M0 377.84 L17.61 377.84" class="st8"/>
			</g>
			<g id="shape1503-52" transform="translate(465.118,351.432) rotate(90)">
				<title>Sheet.1503</title>
				<path d="M0 377.84 L20.54 377.84" class="st8"/>
			</g>
			<g id="shape1504-55" transform="translate(511.666,351.432) rotate(90)">
				<title>Sheet.1504</title>
				<path d="M0 377.84 L20.54 377.84" class="st8"/>
			</g>
			<g id="shape1505-58" transform="translate(29.0924,-26.4087)">
				<title>Sheet.1505</title>
				<path d="M162.92 377.84 L0 377.84 L0 351.43 L162.92 351.43 L162.92 377.84 L162.92 377.84 Z" class="st7"/>
			</g>
			<g id="shape1506-60" transform="translate(81.4588,-64.5546)">
				<title>Sheet.1506</title>
				<path d="M58.18 377.84 L0 377.84 L0 371.97 L58.18 371.97 L58.18 377.84 L58.18 377.84 Z" class="st7"/>
			</g>
			<g id="shape1507-62" transform="translate(81.4588,-181.927)">
				<title>Sheet.1507</title>
				<path d="M58.18 371.97 L0 371.97 L0 377.84 L58.18 377.84 L58.18 371.97 L58.18 371.97 Z" class="st7"/>
			</g>
			<g id="shape1508-64" transform="translate(2.15827E-13,-205.401)">
				<title>Sheet.1508</title>
				<path d="M29.09 366.1 L0 366.1 L0 377.84 L29.09 377.84 L29.09 377.84 L29.09 366.1 Z" class="st9"/>
				<path d="M29.09 366.1 L0 366.1 L0 377.84 L29.09 377.84 L29.09 377.84" class="st8"/>
			</g>
			<g id="shape1509-67" transform="translate(2.15827E-13,-240.613)">
				<title>Sheet.1509</title>
				<path d="M29.09 366.1 L0 366.1 L0 377.84 L29.09 377.84 L29.09 377.84 L29.09 366.1 Z" class="st9"/>
				<path d="M29.09 366.1 L0 366.1 L0 377.84 L29.09 377.84 L29.09 377.84" class="st8"/>
			</g>
			<g id="shape1510-70" transform="translate(29.0924,-199.532)">
				<title>Sheet.1510</title>
				<path d="M0 377.84 L0 319.15 L162.92 319.15 L162.92 377.84 L0 377.84 L0 377.84 Z" class="st7"/>
			</g>
			<g id="shape1511-72" transform="translate(192.01,-205.401)">
				<title>Sheet.1511</title>
				<path d="M0 366.1 L29.09 366.1 L29.09 377.84 L0 377.84 L0 377.84 L0 366.1 Z" class="st9"/>
				<path d="M0 366.1 L29.09 366.1 L29.09 377.84 L0 377.84 L0 377.84" class="st8"/>
			</g>
			<g id="shape1512-75" transform="translate(192.01,-240.613)">
				<title>Sheet.1512</title>
				<path d="M0 366.1 L29.09 366.1 L29.09 377.84 L0 377.84 L0 377.84 L0 366.1 Z" class="st9"/>
				<path d="M0 366.1 L29.09 366.1 L29.09 377.84 L0 377.84 L0 377.84" class="st8"/>
			</g>
			<g id="shape1513-78" transform="translate(192.01,-35.2116)">
				<title>Sheet.1513</title>
				<path d="M0 366.1 L29.09 366.1 L29.09 377.84 L0 377.84 L0 377.84 L0 366.1 Z" class="st9"/>
				<path d="M0 366.1 L29.09 366.1 L29.09 377.84 L0 377.84 L0 377.84" class="st8"/>
			</g>
			<g id="shape1514-81" transform="translate(2.15827E-13,-35.2116)">
				<title>Sheet.1514</title>
				<path d="M29.09 366.1 L0 366.1 L0 377.84 L29.09 377.84 L29.09 377.84 L29.09 366.1 Z" class="st9"/>
				<path d="M29.09 366.1 L0 366.1 L0 377.84 L29.09 377.84 L29.09 377.84" class="st8"/>
			</g>
			<g id="shape1515-84" transform="translate(29.0924,-299.299)">
				<title>Sheet.1515</title>
				<path d="M0 348.5 L0 377.84 L162.92 377.84 L162.92 348.5 L0 348.5 L0 348.5 Z" class="st7"/>
			</g>
			<g id="shape1516-86" transform="translate(29.0924,-328.642)">
				<title>Sheet.1516</title>
				<path d="M0 377.84 L23.27 354.37 L139.64 354.37 L162.92 377.84 L162.92 377.84 L0 377.84 Z" class="st9"/>
				<path d="M0 377.84 L23.27 354.37 L139.64 354.37 L162.92 377.84 L162.92 377.84" class="st8"/>
			</g>
			<g id="shape1517-89" transform="translate(81.4588,-369.722)">
				<title>Sheet.1517</title>
				<path d="M58.18 377.84 L0 377.84 L0 371.97 L58.18 371.97 L58.18 377.84 L58.18 377.84 Z" class="st7"/>
			</g>
			<g id="shape1518-91" transform="translate(81.4588,-275.824)">
				<title>Sheet.1518</title>
				<path d="M58.18 371.97 L0 371.97 L0 377.84 L58.18 377.84 L58.18 371.97 L58.18 371.97 Z" class="st7"/>
			</g>
		</g>
	</g>
</svg>
