<?xml version="1.0" encoding="UTF-8" standalone="no"?>
<!DOCTYPE svg PUBLIC "-//W3C//DTD SVG 1.1//EN" "http://www.w3.org/Graphics/SVG/1.1/DTD/svg11.dtd">
<!-- Generated by Microsoft Visio, SVG Export PD007A_Origo.svg Page-1 -->
<svg xmlns="http://www.w3.org/2000/svg" xmlns:xlink="http://www.w3.org/1999/xlink" xmlns:ev="http://www.w3.org/2001/xml-events"
		width="4.74524in" height="5.04368in" viewBox="0 0 341.657 363.145" xml:space="preserve" color-interpolation-filters="sRGB"
		class="st10">
	<title>PD007A</title>

	<style type="text/css">
	<![CDATA[
		.st1 {fill:#ffffff;stroke:#ff0000;stroke-linecap:round;stroke-linejoin:round;stroke-width:2.25}
		.st2 {fill:none;stroke:none;stroke-linecap:round;stroke-linejoin:round;stroke-width:0.75}
		.st3 {fill:#ff0000;font-family:Arial Narrow;font-size:0.811964em;font-weight:bold}
		.st4 {baseline-shift:33.35%;font-size:0.667em}
		.st5 {fill:none;stroke:#ff0000;stroke-linecap:round;stroke-linejoin:round;stroke-width:0.75}
		.st6 {fill:#ff0000;font-family:Arial Narrow;font-size:0.833336em;font-weight:bold}
		.st7 {fill:none;stroke:#000000;stroke-linecap:round;stroke-linejoin:round;stroke-width:2.25}
		.st8 {fill:none}
		.st9 {stroke:#000000;stroke-linecap:round;stroke-linejoin:round;stroke-width:2.25}
		.st10 {fill:none;fill-rule:evenodd;font-size:12px;overflow:visible;stroke-linecap:square;stroke-miterlimit:3}
	]]>
	</style>

	<g>
		<title>Page-1</title>
		<g id="shape1405-1" transform="translate(136.293,-348.891)">
			<title>Circle.1412</title>
			<path d="M0 356.58 A6.56444 6.56444 0 0 1 13.13 356.58 A6.56444 6.56444 0 1 1 0 356.58 Z" class="st1"/>
		</g>
		<g id="group1423-3" transform="translate(254.101,-142.857)">
			<title>Sheet.1423</title>
			<g id="group1424-4">
				<title>Sheet.1424</title>
				<g id="shape1425-5" transform="translate(0,-4.47576)">
					<title>Sheet.1425</title>
					<desc>A</desc>
					<rect x="0" y="348.972" width="13.2348" height="14.1732" class="st2"/>
					<text x="4" y="362.66" class="st3"><tspan class="st4">A</tspan></text>				</g>
			</g>
			<g id="group1426-9" transform="translate(2.14166,-0.0824008)">
				<title>Sheet.1426</title>
				<g id="shape1427-10" transform="translate(7.92226E-06,-0.0824008)">
					<title>Sheet.1427</title>
					<desc>1</desc>
					<rect x="0" y="348.972" width="85.0394" height="14.1732" class="st5"/>
					<text x="40.24" y="359.06" class="st6">1</text>				</g>
			</g>
		</g>
		<g id="group1472-13" transform="translate(1.125,-1.125)">
			<title>STPD007.78</title>
			<g id="shape1473-14" transform="translate(0,-240.945)">
				<title>Sheet.1473</title>
				<path d="M0 363.15 L283.46 363.15 L283.46 249.76 L0 249.76 L0 363.15 L0 363.15 Z" class="st7"/>
			</g>
			<g id="shape1474-16">
				<title>Sheet.1474</title>
				<path d="M0 122.2 L141.73 363.15 L283.46 122.2 L283.46 122.2 L0 122.2 Z" class="st8"/>
				<path d="M0 122.2 L141.73 363.15 L283.46 122.2 L283.46 122.2" class="st9"/>
			</g>
		</g>
	</g>
</svg>
