<?xml version="1.0" encoding="UTF-8" standalone="no"?>
<!DOCTYPE svg PUBLIC "-//W3C//DTD SVG 1.1//EN" "http://www.w3.org/Graphics/SVG/1.1/DTD/svg11.dtd">
<!-- Generated by Microsoft Visio, SVG Export PD010A_Origo.svg Page-1 -->
<svg xmlns="http://www.w3.org/2000/svg" xmlns:xlink="http://www.w3.org/1999/xlink" xmlns:ev="http://www.w3.org/2001/xml-events"
		width="9.37439in" height="3.99298in" viewBox="0 0 674.956 287.495" xml:space="preserve" color-interpolation-filters="sRGB"
		class="st10">
	<title>PD010A</title>

	<style type="text/css">
	<![CDATA[
		.st1 {fill:#ffffff;stroke:#ff0000;stroke-linecap:round;stroke-linejoin:round;stroke-width:2.25}
		.st2 {fill:none;stroke:none;stroke-linecap:round;stroke-linejoin:round;stroke-width:0.75}
		.st3 {fill:#ff0000;font-family:Arial Narrow;font-size:0.811964em;font-weight:bold}
		.st4 {baseline-shift:33.35%;font-size:0.667em}
		.st5 {fill:none;stroke:#ff0000;stroke-linecap:round;stroke-linejoin:round;stroke-width:0.75}
		.st6 {fill:#ff0000;font-family:Arial Narrow;font-size:0.833336em;font-weight:bold}
		.st7 {fill:none;stroke:#000000;stroke-linecap:round;stroke-linejoin:round;stroke-width:2.25}
		.st8 {fill:none}
		.st9 {stroke:#000000;stroke-linecap:round;stroke-linejoin:round;stroke-width:2.25}
		.st10 {fill:none;fill-rule:evenodd;font-size:12px;overflow:visible;stroke-linecap:square;stroke-miterlimit:3}
	]]>
	</style>

	<g>
		<title>Page-1</title>
		<g id="shape1405-1" transform="translate(1.125,-273.241)">
			<title>Circle.1412</title>
			<path d="M0 280.93 A6.56444 6.56444 0 0 1 13.13 280.93 A6.56444 6.56444 0 1 1 0 280.93 Z" class="st1"/>
		</g>
		<g id="group1423-3" transform="translate(147.28,-95.5532)">
			<title>Sheet.1423</title>
			<g id="group1424-4">
				<title>Sheet.1424</title>
				<g id="shape1425-5" transform="translate(0,-4.47576)">
					<title>Sheet.1425</title>
					<desc>A</desc>
					<rect x="0" y="273.321" width="13.2348" height="14.1732" class="st2"/>
					<text x="4" y="287.01" class="st3"><tspan class="st4">A</tspan></text>				</g>
			</g>
			<g id="group1426-9" transform="translate(2.14166,-0.0824008)">
				<title>Sheet.1426</title>
				<g id="shape1427-10" transform="translate(7.92226E-06,-0.0824008)">
					<title>Sheet.1427</title>
					<desc>1</desc>
					<rect x="0" y="273.321" width="85.0394" height="14.1732" class="st5"/>
					<text x="40.24" y="283.41" class="st6">1</text>				</g>
			</g>
		</g>
		<g id="group1470-13" transform="translate(7.68944,-1.125)">
			<title>STPD010.145</title>
			<g id="shape1471-14" transform="translate(0,-193.544)">
				<title>Sheet.1471</title>
				<path d="M0 202.36 L666.14 259.12 L666.14 287.49 L0 230.74 L0 202.36 L0 202.36 Z" class="st7"/>
			</g>
			<g id="shape1472-16">
				<title>Sheet.1472</title>
				<path d="M666.14 93.95 L454.32 287.49 L0 37.19 L0 37.19 L666.14 93.95 Z" class="st8"/>
				<path d="M666.14 93.95 L454.32 287.49 L0 37.19 L0 37.19" class="st9"/>
			</g>
		</g>
	</g>
</svg>
