<?xml version="1.0" encoding="UTF-8" standalone="no"?>
<!DOCTYPE svg PUBLIC "-//W3C//DTD SVG 1.1//EN" "http://www.w3.org/Graphics/SVG/1.1/DTD/svg11.dtd">
<!-- Generated by Microsoft Visio, SVG Export PD015A_Origo.svg Page-1 -->
<svg xmlns="http://www.w3.org/2000/svg" xmlns:xlink="http://www.w3.org/1999/xlink" xmlns:ev="http://www.w3.org/2001/xml-events"
		width="5.92635in" height="3.96807in" viewBox="0 0 426.697 285.701" xml:space="preserve" color-interpolation-filters="sRGB"
		class="st10">
	<title>PD015A</title>

	<style type="text/css">
	<![CDATA[
		.st1 {fill:none;stroke:#ff0000;stroke-linecap:round;stroke-linejoin:round;stroke-width:2.25}
		.st2 {fill:none;stroke:none;stroke-linecap:round;stroke-linejoin:round;stroke-width:0.75}
		.st3 {fill:#ff0000;font-family:Arial Narrow;font-size:0.811964em;font-weight:bold}
		.st4 {baseline-shift:33.35%;font-size:0.667em}
		.st5 {fill:none;stroke:#ff0000;stroke-linecap:round;stroke-linejoin:round;stroke-width:0.75}
		.st6 {fill:#ff0000;font-family:Arial Narrow;font-size:0.833336em;font-weight:bold}
		.st7 {fill:none;stroke:#000000;stroke-linecap:round;stroke-linejoin:round;stroke-width:2.25}
		.st8 {fill:none}
		.st9 {stroke:#000000;stroke-linecap:round;stroke-linejoin:round;stroke-width:2.25}
		.st10 {fill:none;fill-rule:evenodd;font-size:12px;overflow:visible;stroke-linecap:square;stroke-miterlimit:3}
	]]>
	</style>

	<g>
		<title>Page-1</title>
		<g id="shape1405-1" transform="translate(164.639,-164.639)">
			<title>Circle.1412</title>
			<path d="M0 279.14 A6.56444 6.56444 0 0 1 13.13 279.14 A6.56444 6.56444 0 1 1 0 279.14 Z" class="st1"/>
		</g>
		<g id="group1423-3" transform="translate(339.141,-199.55)">
			<title>Sheet.1423</title>
			<g id="group1424-4">
				<title>Sheet.1424</title>
				<g id="shape1425-5" transform="translate(0,-4.47576)">
					<title>Sheet.1425</title>
					<desc>A</desc>
					<rect x="0" y="271.528" width="13.2348" height="14.1732" class="st2"/>
					<text x="4" y="285.22" class="st3"><tspan class="st4">A</tspan></text>				</g>
			</g>
			<g id="group1426-9" transform="translate(2.14166,-0.0824008)">
				<title>Sheet.1426</title>
				<g id="shape1427-10" transform="translate(7.92226E-06,-0.0824008)">
					<title>Sheet.1427</title>
					<desc>1</desc>
					<rect x="0" y="271.528" width="85.0394" height="14.1732" class="st5"/>
					<text x="40.24" y="281.61" class="st6">1</text>				</g>
			</g>
		</g>
		<g id="group1527-13" transform="translate(1.125,-1.125)">
			<title>STPD016.221</title>
			<g id="shape1528-14" transform="translate(56.7067,-56.6902)">
				<title>Sheet.1528</title>
				<ellipse cx="113.38" cy="172.32" rx="113.38" ry="113.38" class="st7"/>
			</g>
			<g id="shape1529-16" transform="translate(283.462,-170.06)">
				<title>Sheet.1529</title>
				<path d="M0 285.7 L56.69 285.7 L56.69 285.7 L0 285.7 Z" class="st8"/>
				<path d="M0 285.7 L56.69 285.7 L56.69 285.7" class="st9"/>
			</g>
			<g id="shape1530-19" transform="translate(3.35731E-13,-170.06)">
				<title>Sheet.1530</title>
				<path d="M56.69 285.7 L0 285.7 L0 285.7 L56.69 285.7 Z" class="st8"/>
				<path d="M56.69 285.7 L0 285.7 L0 285.7" class="st9"/>
			</g>
			<g id="shape1531-22" transform="translate(0.00234349,0)">
				<title>Sheet.1531</title>
				<path d="M0.01 115.63 A170.078 170.078 -180 0 0 340.17 115.63 L0.01 115.63 Z" class="st8"/>
				<path d="M0.01 115.63 A170.078 170.078 -180 0 0 340.17 115.63" class="st9"/>
			</g>
		</g>
	</g>
</svg>
