<?xml version="1.0" encoding="UTF-8" standalone="no"?>
<!DOCTYPE svg PUBLIC "-//W3C//DTD SVG 1.1//EN" "http://www.w3.org/Graphics/SVG/1.1/DTD/svg11.dtd">
<!-- Generated by Microsoft Visio, SVG Export PD013A_Origo.svg Page-1 -->
<svg xmlns="http://www.w3.org/2000/svg" xmlns:xlink="http://www.w3.org/1999/xlink" xmlns:ev="http://www.w3.org/2001/xml-events"
		width="1.97023in" height="2.55688in" viewBox="0 0 141.856 184.095" xml:space="preserve" color-interpolation-filters="sRGB"
		class="st9">
	<title>PD013A</title>

	<style type="text/css">
	<![CDATA[
		.st1 {fill:none;stroke:#ff0000;stroke-linecap:round;stroke-linejoin:round;stroke-width:2.25}
		.st2 {fill:none;stroke:none;stroke-linecap:round;stroke-linejoin:round;stroke-width:0.75}
		.st3 {fill:#ff0000;font-family:Arial Narrow;font-size:0.811964em;font-weight:bold}
		.st4 {baseline-shift:33.35%;font-size:0.667em}
		.st5 {fill:none;stroke:#ff0000;stroke-linecap:round;stroke-linejoin:round;stroke-width:0.75}
		.st6 {fill:#ff0000;font-family:Arial Narrow;font-size:0.833336em;font-weight:bold}
		.st7 {stroke:#000000;stroke-linecap:round;stroke-linejoin:round;stroke-width:2.25}
		.st8 {fill:none;stroke:#000000;stroke-linecap:round;stroke-linejoin:round;stroke-width:2.25}
		.st9 {fill:none;fill-rule:evenodd;font-size:12px;overflow:visible;stroke-linecap:square;stroke-miterlimit:3}
	]]>
	</style>

	<g>
		<title>Page-1</title>
		<g id="shape1405-1" transform="translate(64.3637,-92.8584)">
			<title>Circle.1412</title>
			<path d="M0 177.53 A6.56444 6.56444 0 0 1 13.13 177.53 A6.56444 6.56444 0 1 1 0 177.53 Z" class="st1"/>
		</g>
		<g id="group1423-3" transform="translate(27.3376,-0.210198)">
			<title>Sheet.1423</title>
			<g id="group1424-4">
				<title>Sheet.1424</title>
				<g id="shape1425-5" transform="translate(0,-4.47576)">
					<title>Sheet.1425</title>
					<desc>A</desc>
					<rect x="0" y="169.922" width="13.2348" height="14.1732" class="st2"/>
					<text x="4" y="183.61" class="st3"><tspan class="st4">A</tspan></text>				</g>
			</g>
			<g id="group1426-9" transform="translate(2.14166,-0.0824008)">
				<title>Sheet.1426</title>
				<g id="shape1427-10" transform="translate(7.92226E-06,-0.0824008)">
					<title>Sheet.1427</title>
					<desc>1</desc>
					<rect x="0" y="169.922" width="85.0394" height="14.1732" class="st5"/>
					<text x="40.24" y="180.01" class="st6">1</text>				</g>
			</g>
		</g>
		<g id="group1477-13" transform="translate(1.125,-29.4033)">
			<title>STPD014.174</title>
			<g id="shape1478-14" transform="translate(-60.3719,12.0384) rotate(-45)">
				<title>Sheet.1478</title>
				<path d="M0 184.1 L39.49 184.1" class="st7"/>
			</g>
			<g id="shape1479-17">
				<title>Sheet.1479</title>
				<path d="M41.88 30.53 L97.72 30.53 L97.72 114.29 L139.61 156.16 L111.69 184.1 L69.78 142.21 L27.92 184.1 L0 156.2
							 L41.88 114.29 L41.88 30.53 L41.88 30.53 Z" class="st8"/>
			</g>
			<g id="shape1480-19" transform="translate(59.3303,-31.427)">
				<title>Sheet.1480</title>
				<ellipse cx="10.465" cy="173.63" rx="10.465" ry="10.465" class="st8"/>
			</g>
			<g id="shape1481-21" transform="translate(65.582,-51.4455)">
				<title>Sheet.1481</title>
				<path d="M0 184.1 L8.45 184.1" class="st7"/>
			</g>
			<g id="shape1482-24" transform="translate(62.4931,-49.3569)">
				<title>Sheet.1482</title>
				<path d="M0 184.1 L14.61 184.1" class="st7"/>
			</g>
			<g id="shape1483-27" transform="translate(60.8442,-47.2683)">
				<title>Sheet.1483</title>
				<path d="M0 184.1 L17.91 184.1" class="st7"/>
			</g>
			<g id="shape1484-30" transform="translate(59.8768,-45.1797)">
				<title>Sheet.1484</title>
				<path d="M0 184.1 L19.83 184.1" class="st7"/>
			</g>
			<g id="shape1485-33" transform="translate(59.4041,-43.0911)">
				<title>Sheet.1485</title>
				<path d="M0 184.1 L20.78 184.1" class="st7"/>
			</g>
			<g id="shape1486-36" transform="translate(59.3931,-41.0025)">
				<title>Sheet.1486</title>
				<path d="M0 184.1 L20.83 184.1" class="st7"/>
			</g>
			<g id="shape1487-39" transform="translate(59.7779,-38.9139)">
				<title>Sheet.1487</title>
				<path d="M0 184.1 L20.03 184.1" class="st7"/>
			</g>
			<g id="shape1488-42" transform="translate(60.6463,-36.8253)">
				<title>Sheet.1488</title>
				<path d="M0 184.1 L18.29 184.1" class="st7"/>
			</g>
			<g id="shape1489-45" transform="translate(62.1743,-34.7367)">
				<title>Sheet.1489</title>
				<path d="M0 184.1 L15.24 184.1" class="st7"/>
			</g>
			<g id="shape1490-48" transform="translate(64.9224,-32.6481)">
				<title>Sheet.1490</title>
				<path d="M0 184.1 L9.76 184.1" class="st7"/>
			</g>
		</g>
	</g>
</svg>
