<?xml version="1.0" encoding="UTF-8" standalone="no"?>
<!DOCTYPE svg PUBLIC "-//W3C//DTD SVG 1.1//EN" "http://www.w3.org/Graphics/SVG/1.1/DTD/svg11.dtd">
<!-- Generated by Microsoft Visio, SVG Export PD011A_Origo.svg Page-1 -->
<svg xmlns="http://www.w3.org/2000/svg" xmlns:xlink="http://www.w3.org/1999/xlink" xmlns:ev="http://www.w3.org/2001/xml-events"
		width="1.99975in" height="1.19965in" viewBox="0 0 143.982 86.3746" xml:space="preserve" color-interpolation-filters="sRGB"
		class="st9">
	<title>PD011A</title>

	<style type="text/css">
	<![CDATA[
		.st1 {fill:none;stroke:none;stroke-linecap:round;stroke-linejoin:round;stroke-width:0.75}
		.st2 {fill:#ff0000;font-family:Arial Narrow;font-size:0.811964em;font-weight:bold}
		.st3 {baseline-shift:33.35%;font-size:0.667em}
		.st4 {fill:none;stroke:#ff0000;stroke-linecap:round;stroke-linejoin:round;stroke-width:0.75}
		.st5 {fill:#ff0000;font-family:Arial Narrow;font-size:0.833336em;font-weight:bold}
		.st6 {stroke:#000000;stroke-linecap:round;stroke-linejoin:round;stroke-width:2.25}
		.st7 {fill:none}
		.st8 {fill:none;stroke:#ff0000;stroke-linecap:round;stroke-linejoin:round;stroke-width:2.25}
		.st9 {fill:none;fill-rule:evenodd;font-size:12px;overflow:visible;stroke-linecap:square;stroke-miterlimit:3}
	]]>
	</style>

	<g>
		<title>Page-1</title>
		<g id="group1423-1" transform="translate(27.3298,-0.210198)">
			<title>Sheet.1423</title>
			<g id="group1424-2">
				<title>Sheet.1424</title>
				<g id="shape1425-3" transform="translate(0,-4.47576)">
					<title>Sheet.1425</title>
					<desc>A</desc>
					<rect x="0" y="72.2013" width="13.2348" height="14.1732" class="st1"/>
					<text x="4" y="85.89" class="st2"><tspan class="st3">A</tspan></text>				</g>
			</g>
			<g id="group1426-7" transform="translate(2.14166,-0.0824008)">
				<title>Sheet.1426</title>
				<g id="shape1427-8" transform="translate(7.92226E-06,-0.0824008)">
					<title>Sheet.1427</title>
					<desc>1</desc>
					<rect x="0" y="72.2013" width="85.0394" height="14.1732" class="st4"/>
					<text x="40.24" y="82.29" class="st5">1</text>				</g>
			</g>
		</g>
		<g id="group1470-11" transform="translate(1.125,-28.5567)">
			<title>STPD012.163</title>
			<g id="shape1471-12" transform="translate(55.3577,58.0281) rotate(-90)">
				<title>Sheet.1471</title>
				<path d="M0 86.37 L28.35 86.37" class="st6"/>
			</g>
			<g id="shape1472-15" transform="translate(-6.39488E-14,-56.6929)">
				<title>Sheet.1472</title>
				<path d="M0 86.37 L113.39 86.37" class="st6"/>
			</g>
			<g id="shape1473-18">
				<title>Sheet.1473</title>
				<path d="M0 86.37 L113.39 86.37" class="st6"/>
			</g>
			<g id="shape1474-21" transform="translate(0,-28.3465)">
				<title>Sheet.1474</title>
				<path d="M0 86.37 L56.69 86.37 L141.73 86.37 L141.73 86.37 L0 86.37 Z" class="st7"/>
				<path d="M0 86.37 L56.69 86.37 L141.73 86.37 L141.73 86.37" class="st6"/>
			</g>
		</g>
		<g id="shape1477-24" transform="translate(65.4267,-50.3387)">
			<title>Circle.1412</title>
			<path d="M0 79.81 A6.56444 6.56444 0 0 1 13.13 79.81 A6.56444 6.56444 0 1 1 0 79.81 Z" class="st8"/>
		</g>
	</g>
</svg>
