<?xml version="1.0" encoding="UTF-8" standalone="no"?>
<!DOCTYPE svg PUBLIC "-//W3C//DTD SVG 1.1//EN" "http://www.w3.org/Graphics/SVG/1.1/DTD/svg11.dtd">
<!-- Generated by Microsoft Visio, SVG Export PE009A_Label.svg Page-1 -->
<svg xmlns="http://www.w3.org/2000/svg" xmlns:xlink="http://www.w3.org/1999/xlink" xmlns:ev="http://www.w3.org/2001/xml-events"
		xmlns:v="http://schemas.microsoft.com/visio/2003/SVGExtensions/" width="6.33046in" height="3.56414in"
		viewBox="0 0 455.793 256.618" xml:space="preserve" color-interpolation-filters="sRGB" class="st9">
	<title>PE009A</title>
	<v:documentProperties v:langID="2057" v:metric="true" v:viewMarkup="false"/>

	<style type="text/css">
	<![CDATA[
		.st1 {fill:none}
		.st2 {stroke:#000000;stroke-linecap:round;stroke-linejoin:round;stroke-width:2.25}
		.st3 {fill:none;stroke:#ff0000;stroke-linecap:round;stroke-linejoin:round;stroke-width:2.25}
		.st4 {fill:none;stroke:#ff0000;stroke-linecap:round;stroke-linejoin:round;stroke-width:0.75}
		.st5 {fill:#ff0000;font-family:Arial Narrow;font-size:0.833336em;font-weight:bold}
		.st6 {fill:none;stroke:none;stroke-linecap:round;stroke-linejoin:round;stroke-width:0.75}
		.st7 {fill:#ff0000;font-family:Arial Narrow;font-size:0.811964em;font-weight:bold}
		.st8 {baseline-shift:33.35%;font-size:0.667em}
		.st9 {fill:none;fill-rule:evenodd;font-size:12px;overflow:visible;stroke-linecap:square;stroke-miterlimit:3}
	]]>
	</style>

	<g v:mID="0" v:index="1" v:groupContext="foregroundPage">
		<title>Page-1</title>
		<v:pageProperties v:drawingScale="0.0393701" v:pageScale="0.0393701" v:drawingUnits="24" v:shadowOffsetX="8.50394"
				v:shadowOffsetY="-8.50394"/>
		<v:layer v:name="Symbol" v:index="0"/>
		<v:layer v:name="Origo" v:index="1"/>
		<v:layer v:name="Label" v:index="2"/>
		<g id="group1420-1" transform="translate(1.12501,-28.7215)" v:mID="1420" v:groupContext="group" v:layerMember="0">
			<v:userDefs>
				<v:ud v:nameU="SOLSH" v:prompt="" v:val="VT4({13D0FF3B-CF5B-4a46-98AB-14030248EAEF})"/>
				<v:ud v:nameU="DWGEntityType" v:prompt="" v:val="VT4(INSERT)"/>
			</v:userDefs>
			<title>STPX005.298</title>
			<g id="shape1421-2" v:mID="1421" v:groupContext="shape" v:layerMember="0" transform="translate(0,-96.378)">
				<title>Sheet.1421</title>
				<v:userDefs>
					<v:ud v:nameU="DWGOriginalColor" v:prompt="This shapes Original DWG color." v:val="VT4(3)"/>
					<v:ud v:nameU="DWGOriginalLayer" v:prompt="This shapes Original DWG layer." v:val="VT4(26-SYM-035-SP)"/>
				</v:userDefs>
				<path d="M0 256.62 L45.35 211.26 L90.71 256.62 L136.06 211.26 L181.42 256.62 L226.77 211.26 L272.13 256.62 L317.48
							 211.26 L362.83 256.62 L408.19 211.26 L453.54 256.62 L453.54 256.62 L0 256.62 Z" class="st1"/>
				<path d="M0 256.62 L45.35 211.26 L90.71 256.62 L136.06 211.26 L181.42 256.62 L226.77 211.26 L272.13 256.62 L317.48
							 211.26 L362.83 256.62 L408.19 211.26 L453.54 256.62 L453.54 256.62" class="st2"/>
			</g>
			<g id="shape1422-5" v:mID="1422" v:groupContext="shape" v:layerMember="0" transform="translate(0,-82.2047)">
				<title>Sheet.1422</title>
				<v:userDefs>
					<v:ud v:nameU="DWGOriginalColor" v:prompt="This shapes Original DWG color." v:val="VT4(3)"/>
					<v:ud v:nameU="DWGOriginalLayer" v:prompt="This shapes Original DWG layer." v:val="VT4(26-SYM-035-SP)"/>
				</v:userDefs>
				<path d="M0 256.62 L45.35 211.26 L90.71 256.62 L136.06 211.26 L181.42 256.62 L226.77 211.26 L272.13 256.62 L317.48
							 211.26 L362.83 256.62 L408.19 211.26 L453.54 256.62 L453.54 256.62 L0 256.62 Z" class="st1"/>
				<path d="M0 256.62 L45.35 211.26 L90.71 256.62 L136.06 211.26 L181.42 256.62 L226.77 211.26 L272.13 256.62 L317.48
							 211.26 L362.83 256.62 L408.19 211.26 L453.54 256.62 L453.54 256.62" class="st2"/>
			</g>
			<g id="shape1423-8" v:mID="1423" v:groupContext="shape" v:layerMember="0" transform="translate(0,-68.0315)">
				<title>Sheet.1423</title>
				<v:userDefs>
					<v:ud v:nameU="DWGOriginalColor" v:prompt="This shapes Original DWG color." v:val="VT4(3)"/>
					<v:ud v:nameU="DWGOriginalLayer" v:prompt="This shapes Original DWG layer." v:val="VT4(26-SYM-035-SP)"/>
				</v:userDefs>
				<path d="M0 256.62 L45.35 211.26 L90.71 256.62 L136.06 211.26 L181.42 256.62 L226.77 211.26 L272.13 256.62 L317.48
							 211.26 L362.83 256.62 L408.19 211.26 L453.54 256.62 L453.54 256.62 L0 256.62 Z" class="st1"/>
				<path d="M0 256.62 L45.35 211.26 L90.71 256.62 L136.06 211.26 L181.42 256.62 L226.77 211.26 L272.13 256.62 L317.48
							 211.26 L362.83 256.62 L408.19 211.26 L453.54 256.62 L453.54 256.62" class="st2"/>
			</g>
			<g id="shape1424-11" v:mID="1424" v:groupContext="shape" v:layerMember="0" transform="translate(0,-53.8583)">
				<title>Sheet.1424</title>
				<v:userDefs>
					<v:ud v:nameU="DWGOriginalColor" v:prompt="This shapes Original DWG color." v:val="VT4(3)"/>
					<v:ud v:nameU="DWGOriginalLayer" v:prompt="This shapes Original DWG layer." v:val="VT4(26-SYM-035-SP)"/>
				</v:userDefs>
				<path d="M0 256.62 L45.35 211.26 L90.71 256.62 L136.06 211.26 L181.42 256.62 L226.77 211.26 L272.13 256.62 L317.48
							 211.26 L362.83 256.62 L408.19 211.26 L453.54 256.62 L453.54 256.62 L0 256.62 Z" class="st1"/>
				<path d="M0 256.62 L45.35 211.26 L90.71 256.62 L136.06 211.26 L181.42 256.62 L226.77 211.26 L272.13 256.62 L317.48
							 211.26 L362.83 256.62 L408.19 211.26 L453.54 256.62 L453.54 256.62" class="st2"/>
			</g>
			<g id="shape1425-14" v:mID="1425" v:groupContext="shape" v:layerMember="0" transform="translate(0,-110.551)">
				<title>Sheet.1425</title>
				<v:userDefs>
					<v:ud v:nameU="DWGOriginalColor" v:prompt="This shapes Original DWG color." v:val="VT4(3)"/>
					<v:ud v:nameU="DWGOriginalLayer" v:prompt="This shapes Original DWG layer." v:val="VT4(26-SYM-035-SP)"/>
				</v:userDefs>
				<path d="M0 256.62 L45.35 211.26 L90.71 256.62 L136.06 211.26 L181.42 256.62 L226.77 211.26 L272.13 256.62 L317.48
							 211.26 L362.83 256.62 L408.19 211.26 L453.54 256.62 L453.54 256.62 L0 256.62 Z" class="st1"/>
				<path d="M0 256.62 L45.35 211.26 L90.71 256.62 L136.06 211.26 L181.42 256.62 L226.77 211.26 L272.13 256.62 L317.48
							 211.26 L362.83 256.62 L408.19 211.26 L453.54 256.62 L453.54 256.62" class="st2"/>
			</g>
			<g id="shape1426-17" v:mID="1426" v:groupContext="shape" v:layerMember="0">
				<title>Sheet.1426</title>
				<v:userDefs>
					<v:ud v:nameU="SOLSH" v:prompt="" v:val="VT4({13D0FF3B-CF5B-4a46-98AB-14030248EAEF})"/>
					<v:ud v:nameU="DWGEntityType" v:prompt="" v:val="VT4(LINE)"/>
					<v:ud v:nameU="DWGOriginalColor" v:prompt="This shapes Original DWG color." v:val="VT4(3)"/>
					<v:ud v:nameU="DWGOriginalLayer" v:prompt="This shapes Original DWG layer." v:val="VT4(26-SYM-035-SP)"/>
				</v:userDefs>
				<path d="M0 256.62 L453.54 256.62" class="st2"/>
			</g>
			<g id="shape1427-20" v:mID="1427" v:groupContext="shape" v:layerMember="0"
					transform="translate(196.925,256.618) rotate(-90)">
				<title>Sheet.1427</title>
				<v:userDefs>
					<v:ud v:nameU="SOLSH" v:prompt="" v:val="VT4({13D0FF3B-CF5B-4a46-98AB-14030248EAEF})"/>
					<v:ud v:nameU="DWGEntityType" v:prompt="" v:val="VT4(LINE)"/>
					<v:ud v:nameU="DWGOriginalColor" v:prompt="This shapes Original DWG color." v:val="VT4(3)"/>
					<v:ud v:nameU="DWGOriginalLayer" v:prompt="This shapes Original DWG layer." v:val="VT4(26-SYM-035-SP)"/>
				</v:userDefs>
				<path d="M0 256.62 L226.77 256.62" class="st2"/>
			</g>
			<g id="shape1428-23" v:mID="1428" v:groupContext="shape" v:layerMember="0"
					transform="translate(453.543,286.465) rotate(180)">
				<title>Sheet.1428</title>
				<v:userDefs>
					<v:ud v:nameU="SOLSH" v:prompt="" v:val="VT4({13D0FF3B-CF5B-4a46-98AB-14030248EAEF})"/>
					<v:ud v:nameU="DWGEntityType" v:prompt="" v:val="VT4(LINE)"/>
					<v:ud v:nameU="DWGOriginalColor" v:prompt="This shapes Original DWG color." v:val="VT4(3)"/>
					<v:ud v:nameU="DWGOriginalLayer" v:prompt="This shapes Original DWG layer." v:val="VT4(26-SYM-035-SP)"/>
				</v:userDefs>
				<path d="M0 256.62 L453.54 256.62" class="st2"/>
			</g>
			<g id="shape1429-26" v:mID="1429" v:groupContext="shape" v:layerMember="0"
					transform="translate(256.618,29.8465) rotate(90)">
				<title>Sheet.1429</title>
				<v:userDefs>
					<v:ud v:nameU="SOLSH" v:prompt="" v:val="VT4({13D0FF3B-CF5B-4a46-98AB-14030248EAEF})"/>
					<v:ud v:nameU="DWGEntityType" v:prompt="" v:val="VT4(LINE)"/>
					<v:ud v:nameU="DWGOriginalColor" v:prompt="This shapes Original DWG color." v:val="VT4(3)"/>
					<v:ud v:nameU="DWGOriginalLayer" v:prompt="This shapes Original DWG layer." v:val="VT4(26-SYM-035-SP)"/>
				</v:userDefs>
				<path d="M0 256.62 L226.77 256.62" class="st2"/>
			</g>
		</g>
		<g id="shape1430-29" v:mID="1430" v:groupContext="shape" v:layerMember="1" transform="translate(221.332,-135.543)">
			<title>Circle</title>
			<v:userDefs>
				<v:ud v:nameU="visVersion" v:val="VT0(15):26"/>
				<v:ud v:nameU="visMasterStencil" v:prompt="" v:val="VT4(Basic_M.vssx)"/>
			</v:userDefs>
			<path d="M0 250.05 A6.56444 6.56444 0 0 1 13.13 250.05 A6.56444 6.56444 0 1 1 0 250.05 Z" class="st3"/>
		</g>
		<g id="group1437-31" transform="translate(184.306,-0.375)" v:mID="1437" v:groupContext="group" v:layerMember="2">
			<title>Sheet.1437</title>
			<g id="shape1438-32" v:mID="1438" v:groupContext="shape" v:layerMember="2" transform="translate(2.14165,0)">
				<title>Sheet.1438</title>
				<desc>1</desc>
				<v:textBlock v:margins="rect(4,4,4,4)" v:tabSpace="42.5197"/>
				<v:textRect cx="42.5197" cy="249.532" width="85.04" height="14.1732"/>
				<rect x="0" y="242.445" width="85.0394" height="14.1732" class="st4"/>
				<text x="40.24" y="252.53" class="st5" v:langID="2057"><v:paragraph v:horizAlign="1"/><v:tabList/>1</text>			</g>
			<g id="shape1439-35" v:mID="1439" v:groupContext="shape" v:layerMember="2" transform="translate(0,-4.47576)">
				<title>Sheet.1439</title>
				<desc>A</desc>
				<v:textBlock v:margins="rect(4,4,4,4)" v:tabSpace="42.5197" v:verticalAlign="0"/>
				<v:textRect cx="6.61741" cy="249.532" width="13.24" height="14.1732"/>
				<rect x="0" y="242.445" width="13.2348" height="14.1732" class="st6"/>
				<text x="4" y="256.14" class="st7" v:langID="2057"><v:paragraph/><v:tabList/><tspan class="st8">A</tspan></text>			</g>
		</g>
	</g>
</svg>
