<?xml version="1.0" encoding="UTF-8" standalone="no"?>
<!DOCTYPE svg PUBLIC "-//W3C//DTD SVG 1.1//EN" "http://www.w3.org/Graphics/SVG/1.1/DTD/svg11.dtd">
<!-- Generated by Microsoft Visio, SVG Export PE008A_Origo.svg Page-1 -->
<svg xmlns="http://www.w3.org/2000/svg" xmlns:xlink="http://www.w3.org/1999/xlink" xmlns:ev="http://www.w3.org/2001/xml-events"
		width="6.5169in" height="5.1433in" viewBox="0 0 469.217 370.318" xml:space="preserve" color-interpolation-filters="sRGB"
		class="st5">
	<title>PE008A</title>

	<style type="text/css">
	<![CDATA[
		.st1 {fill:#ffffff;stroke:#ff0000;stroke-linecap:round;stroke-linejoin:round;stroke-width:2.25}
		.st2 {stroke:#000000;stroke-linecap:round;stroke-linejoin:round;stroke-width:2.25}
		.st3 {fill:none;stroke:none;stroke-linecap:round;stroke-linejoin:round;stroke-width:0.75}
		.st4 {fill:#ff0000;font-family:Calibri;font-size:4.00001em}
		.st5 {fill:none;fill-rule:evenodd;font-size:12px;overflow:visible;stroke-linecap:square;stroke-miterlimit:3}
	]]>
	</style>

	<g>
		<title>Page-1</title>
		<g id="shape1405-1" transform="translate(7.98379,-207.473)">
			<title>Circle</title>
			<path d="M0 363.75 A6.56444 6.56444 0 0 1 13.13 363.75 A6.56444 6.56444 0 1 1 0 363.75 Z" class="st1"/>
		</g>
		<g id="group1466-3" transform="translate(14.5482,-100.651)">
			<title>STPK016.165</title>
			<g id="shape1467-4" transform="translate(2.79776E-14,-113.386)">
				<title>Sheet.1467</title>
				<path d="M0 370.32 L30.23 370.32" class="st2"/>
			</g>
			<g id="shape1468-7" transform="translate(60.4762,-113.386)">
				<title>Sheet.1468</title>
				<path d="M0 370.32 L30.23 370.32" class="st2"/>
			</g>
			<g id="shape1469-10" transform="translate(120.941,-113.386)">
				<title>Sheet.1469</title>
				<path d="M0 370.32 L30.24 370.32" class="st2"/>
			</g>
			<g id="shape1470-13" transform="translate(181.417,-113.386)">
				<title>Sheet.1470</title>
				<path d="M0 370.32 L30.23 370.32" class="st2"/>
			</g>
			<g id="shape1471-16" transform="translate(241.893,-113.386)">
				<title>Sheet.1471</title>
				<path d="M0 370.32 L30.23 370.32" class="st2"/>
			</g>
			<g id="shape1472-19" transform="translate(302.358,-113.386)">
				<title>Sheet.1472</title>
				<path d="M0 370.32 L30.24 370.32" class="st2"/>
			</g>
			<g id="shape1473-22" transform="translate(362.835,-113.386)">
				<title>Sheet.1473</title>
				<path d="M0 370.32 L30.23 370.32" class="st2"/>
			</g>
			<g id="shape1474-25" transform="translate(423.311,-113.386)">
				<title>Sheet.1474</title>
				<path d="M0 370.32 L30.23 370.32" class="st2"/>
			</g>
			<g id="shape1475-28" transform="translate(715.397,518.786) rotate(135)">
				<title>Sheet.1475</title>
				<path d="M0 370.32 L30.07 370.32" class="st2"/>
			</g>
			<g id="shape1476-31" transform="translate(679.964,554.219) rotate(135)">
				<title>Sheet.1476</title>
				<path d="M0 370.32 L30.07 370.32" class="st2"/>
			</g>
			<g id="shape1477-34">
				<title>Sheet.1477</title>
				<path d="M0 370.32 L30.23 370.32" class="st2"/>
			</g>
			<g id="shape1478-37" transform="translate(60.4762,0)">
				<title>Sheet.1478</title>
				<path d="M0 370.32 L30.23 370.32" class="st2"/>
			</g>
			<g id="shape1479-40" transform="translate(120.941,0)">
				<title>Sheet.1479</title>
				<path d="M0 370.32 L30.24 370.32" class="st2"/>
			</g>
			<g id="shape1480-43" transform="translate(181.417,0)">
				<title>Sheet.1480</title>
				<path d="M0 370.32 L30.23 370.32" class="st2"/>
			</g>
			<g id="shape1481-46" transform="translate(241.893,0)">
				<title>Sheet.1481</title>
				<path d="M0 370.32 L30.23 370.32" class="st2"/>
			</g>
			<g id="shape1482-49" transform="translate(302.358,0)">
				<title>Sheet.1482</title>
				<path d="M0 370.32 L30.24 370.32" class="st2"/>
			</g>
			<g id="shape1483-52" transform="translate(362.835,0)">
				<title>Sheet.1483</title>
				<path d="M0 370.32 L30.23 370.32" class="st2"/>
			</g>
			<g id="shape1484-55" transform="translate(423.311,0)">
				<title>Sheet.1484</title>
				<path d="M0 370.32 L30.23 370.32" class="st2"/>
			</g>
			<g id="shape1485-58" transform="translate(156.256,596.739) rotate(-135)">
				<title>Sheet.1485</title>
				<path d="M0 370.32 L30.07 370.32" class="st2"/>
			</g>
			<g id="shape1486-61" transform="translate(191.689,632.172) rotate(-135)">
				<title>Sheet.1486</title>
				<path d="M0 370.32 L30.07 370.32" class="st2"/>
			</g>
		</g>
		<g id="shape1487-64" transform="translate(-177.532,86.2629) rotate(-40)">
			<title>Sheet.1487</title>
			<desc>NOT USED</desc>
			<rect x="0" y="276.774" width="463.465" height="93.5433" class="st3"/>
			<text x="130.32" y="337.95" class="st4">NOT USED</text>		</g>
	</g>
</svg>
