<?xml version="1.0" encoding="UTF-8" standalone="no"?>
<!DOCTYPE svg PUBLIC "-//W3C//DTD SVG 1.1//EN" "http://www.w3.org/Graphics/SVG/1.1/DTD/svg11.dtd">
<!-- Generated by Microsoft Visio, SVG Export PE004A_Origo.svg Page-1 -->
<svg xmlns="http://www.w3.org/2000/svg" xmlns:xlink="http://www.w3.org/1999/xlink" xmlns:ev="http://www.w3.org/2001/xml-events"
		width="3.27365in" height="2.64205in" viewBox="0 0 235.703 190.228" xml:space="preserve" color-interpolation-filters="sRGB"
		class="st10">
	<title>PE004A</title>

	<style type="text/css">
	<![CDATA[
		.st1 {fill:#ffffff;stroke:#ff0000;stroke-linecap:round;stroke-linejoin:round;stroke-width:2.25}
		.st2 {fill:none;stroke:#ff0000;stroke-linecap:round;stroke-linejoin:round;stroke-width:0.75}
		.st3 {fill:#ff0000;font-family:Arial Narrow;font-size:0.833336em;font-weight:bold}
		.st4 {fill:none;stroke:none;stroke-linecap:round;stroke-linejoin:round;stroke-width:0.75}
		.st5 {fill:#ff0000;font-family:Arial Narrow;font-size:0.811964em;font-weight:bold}
		.st6 {baseline-shift:33.35%;font-size:0.667em}
		.st7 {fill:none;stroke:#000000;stroke-linecap:round;stroke-linejoin:round;stroke-width:2.25}
		.st8 {fill:none}
		.st9 {stroke:#000000;stroke-linecap:round;stroke-linejoin:round;stroke-width:2.25}
		.st10 {fill:none;fill-rule:evenodd;font-size:12px;overflow:visible;stroke-linecap:square;stroke-miterlimit:3}
	]]>
	</style>

	<g>
		<title>Page-1</title>
		<g id="shape1405-1" transform="translate(1.125,-107.849)">
			<title>Circle.1412</title>
			<path d="M0 183.66 A6.56444 6.56444 0 0 1 13.13 183.66 A6.56444 6.56444 0 1 1 0 183.66 Z" class="st1"/>
		</g>
		<g id="group1419-3" transform="translate(76.5308,-171.204)">
			<title>Sheet.1419</title>
			<g id="shape1420-4" transform="translate(2.14165,0)">
				<title>Sheet.1420</title>
				<desc>1</desc>
				<rect x="0" y="176.055" width="85.0394" height="14.1732" class="st2"/>
				<text x="40.24" y="186.14" class="st3">1</text>			</g>
			<g id="shape1421-7" transform="translate(0,-4.47576)">
				<title>Sheet.1421</title>
				<desc>A</desc>
				<rect x="0" y="176.055" width="13.2348" height="14.1732" class="st4"/>
				<text x="4" y="189.75" class="st5"><tspan class="st6">A</tspan></text>			</g>
		</g>
		<g id="group1422-11" transform="translate(7.80628,-1.125)">
			<title>STPE002.50</title>
			<g id="shape1423-12">
				<title>Sheet.1423</title>
				<path d="M0 34.32 L226.77 34.32 L226.77 119.36 L155.91 119.36 L155.91 190.23 L70.87 190.23 L70.87 119.36 L0 119.36
							 L0 34.32 L0 34.32 Z" class="st7"/>
			</g>
			<g id="shape1424-14" transform="translate(113.373,-28.3554)">
				<title>Sheet.1424</title>
				<path d="M85.04 105.19 A85.0394 85.0394 -180 0 0 -0 190.23 L85.04 105.19 Z" class="st8"/>
				<path d="M85.04 105.19 A85.0394 85.0394 -180 0 0 -0 190.23" class="st9"/>
			</g>
		</g>
	</g>
</svg>
