<?xml version="1.0" encoding="UTF-8" standalone="no"?>
<!DOCTYPE svg PUBLIC "-//W3C//DTD SVG 1.1//EN" "http://www.w3.org/Graphics/SVG/1.1/DTD/svg11.dtd">
<!-- Generated by Microsoft Visio, SVG Export PE017A_Origo.svg Page-1 -->
<svg xmlns="http://www.w3.org/2000/svg" xmlns:xlink="http://www.w3.org/1999/xlink" xmlns:ev="http://www.w3.org/2001/xml-events"
		width="6.41438in" height="2.1966in" viewBox="0 0 461.836 158.156" xml:space="preserve" color-interpolation-filters="sRGB"
		class="st8">
	<title>PE017A</title>

	<style type="text/css">
	<![CDATA[
		.st1 {fill:none;stroke:#ff0000;stroke-linecap:round;stroke-linejoin:round;stroke-width:0.75}
		.st2 {fill:#ff0000;font-family:Arial Narrow;font-size:0.833336em;font-weight:bold}
		.st3 {fill:none;stroke:none;stroke-linecap:round;stroke-linejoin:round;stroke-width:0.75}
		.st4 {fill:#ff0000;font-family:Arial Narrow;font-size:0.811964em;font-weight:bold}
		.st5 {baseline-shift:33.35%;font-size:0.667em}
		.st6 {fill:none;stroke:#ff0000;stroke-linecap:round;stroke-linejoin:round;stroke-width:2.25}
		.st7 {stroke:#000000;stroke-linecap:round;stroke-linejoin:round;stroke-width:2.25}
		.st8 {fill:none;fill-rule:evenodd;font-size:12px;overflow:visible;stroke-linecap:square;stroke-miterlimit:3}
	]]>
	</style>

	<g>
		<title>Page-1</title>
		<g id="group1420-1" transform="translate(126.542,-71.9912)">
			<title>Sheet.1420</title>
			<g id="shape1421-2" transform="translate(2.14165,0)">
				<title>Sheet.1421</title>
				<desc>1</desc>
				<rect x="0" y="143.982" width="85.0394" height="14.1732" class="st1"/>
				<text x="40.24" y="154.07" class="st2">1</text>			</g>
			<g id="shape1422-5" transform="translate(0,-4.47576)">
				<title>Sheet.1422</title>
				<desc>A</desc>
				<rect x="0" y="143.982" width="13.2348" height="14.1732" class="st3"/>
				<text x="4" y="157.67" class="st4"><tspan class="st5">A</tspan></text>			</g>
		</g>
		<g id="shape1435-9" transform="translate(447.582,-73.0355)">
			<title>Circle</title>
			<path d="M0 151.59 A6.56444 6.56444 0 0 1 13.13 151.59 A6.56444 6.56444 0 1 1 0 151.59 Z" class="st6"/>
		</g>
		<g id="group1467-11" transform="translate(1.125,-1.12501)">
			<title>Sheet.1467</title>
			<g id="shape1446-12" transform="translate(15.0591,-20.9282)">
				<title>Sheet.1446</title>
				<path d="M0 158.16 L254.23 158.16" class="st7"/>
			</g>
			<g id="shape1447-15" transform="translate(8.59313E-14,-155.906)">
				<title>Sheet.1447</title>
				<path d="M0 158.16 L15.06 158.16" class="st7"/>
			</g>
			<g id="shape1448-18" transform="translate(15.0591,316.311) rotate(180)">
				<title>Sheet.1448</title>
				<path d="M0 158.16 L15.06 158.16" class="st7"/>
			</g>
			<g id="shape1449-21" transform="translate(-158.156,158.156) rotate(-90)">
				<title>Sheet.1449</title>
				<path d="M0 158.16 L155.91 158.16" class="st7"/>
			</g>
			<g id="shape1450-24" transform="translate(173.215,2.25001) rotate(90)">
				<title>Sheet.1450</title>
				<path d="M0 158.16 L155.91 158.16" class="st7"/>
			</g>
			<g id="shape1454-27" transform="translate(453.543,280.878) rotate(180)">
				<title>Sheet.1454</title>
				<path d="M0 158.16 L141.73 158.16" class="st7"/>
			</g>
			<g id="shape1456-30" transform="translate(220.17,-13.441) rotate(-18.4349)">
				<title>Sheet.1456</title>
				<path d="M0 158.16 L43.88 158.16" class="st7"/>
			</g>
			<g id="shape1457-33" transform="translate(295.388,122.722) rotate(-90)">
				<title>Sheet.1457</title>
				<path d="M0 158.16 L83.92 158.16" class="st7"/>
			</g>
			<g id="shape1458-36" transform="translate(469.967,37.6831) rotate(90)">
				<title>Sheet.1458</title>
				<path d="M0 158.16 L83.2 158.16" class="st7"/>
			</g>
			<g id="shape1460-39" transform="translate(16.9164,181.68) scale(1,-1)">
				<title>Sheet.1460</title>
				<path d="M0 158.16 L252.37 158.16" class="st7"/>
			</g>
			<g id="shape1462-42" transform="translate(452.657,-120.03) scale(-1,1)">
				<title>Sheet.1462</title>
				<path d="M0 158.16 L140.85 158.16" class="st7"/>
			</g>
			<g id="shape1463-45" transform="translate(219.278,173.549) rotate(18.4349) scale(1,-1)">
				<title>Sheet.1463</title>
				<path d="M0 158.16 L45.76 158.16" class="st7"/>
			</g>
		</g>
	</g>
</svg>
