<?xml version="1.0" encoding="UTF-8" standalone="no"?>
<!DOCTYPE svg PUBLIC "-//W3C//DTD SVG 1.1//EN" "http://www.w3.org/Graphics/SVG/1.1/DTD/svg11.dtd">
<!-- Generated by Microsoft Visio, SVG Export PE015A_Origo.svg Page-1 -->
<svg xmlns="http://www.w3.org/2000/svg" xmlns:xlink="http://www.w3.org/1999/xlink" xmlns:ev="http://www.w3.org/2001/xml-events"
		width="4.84683in" height="1.46095in" viewBox="0 0 348.972 105.188" xml:space="preserve" color-interpolation-filters="sRGB"
		class="st8">
	<title>PE015A</title>

	<style type="text/css">
	<![CDATA[
		.st1 {fill:none;stroke:#ff0000;stroke-linecap:round;stroke-linejoin:round;stroke-width:0.75}
		.st2 {fill:#ff0000;font-family:Arial Narrow;font-size:0.833336em;font-weight:bold}
		.st3 {fill:none;stroke:none;stroke-linecap:round;stroke-linejoin:round;stroke-width:0.75}
		.st4 {fill:#ff0000;font-family:Arial Narrow;font-size:0.811964em;font-weight:bold}
		.st5 {baseline-shift:33.35%;font-size:0.667em}
		.st6 {fill:none;stroke:#ff0000;stroke-linecap:round;stroke-linejoin:round;stroke-width:2.25}
		.st7 {fill:none;stroke:#000000;stroke-linecap:round;stroke-linejoin:round;stroke-width:2.25}
		.st8 {fill:none;fill-rule:evenodd;font-size:12px;overflow:visible;stroke-linecap:square;stroke-miterlimit:3}
	]]>
	</style>

	<g>
		<title>Page-1</title>
		<g id="group1420-1" transform="translate(118.934,-86.1644)">
			<title>Sheet.1420</title>
			<g id="shape1421-2" transform="translate(2.14165,0)">
				<title>Sheet.1421</title>
				<desc>1</desc>
				<rect x="0" y="91.0151" width="85.0394" height="14.1732" class="st1"/>
				<text x="40.24" y="101.1" class="st2">1</text>			</g>
			<g id="shape1422-5" transform="translate(0,-4.47576)">
				<title>Sheet.1422</title>
				<desc>A</desc>
				<rect x="0" y="91.0151" width="13.2348" height="14.1732" class="st3"/>
				<text x="4" y="104.71" class="st4"><tspan class="st5">A</tspan></text>			</g>
		</g>
		<g id="shape1435-9" transform="translate(1.125,-79.5999)">
			<title>Circle</title>
			<path d="M0 98.62 A6.56444 6.56444 0 0 1 13.13 98.62 A6.56444 6.56444 0 1 1 0 98.62 Z" class="st6"/>
		</g>
		<g id="group1464-11" transform="translate(7.68944,-1.125)">
			<title>Sheet.1464</title>
			<g id="shape1449-12">
				<title>Rectangle</title>
				<rect x="0" y="20.149" width="5.66929" height="85.0394" class="st7"/>
			</g>
			<g id="shape1450-14" transform="translate(334.488,-2.95764E-06)">
				<title>Rectangle.1450</title>
				<rect x="0" y="20.149" width="5.66929" height="85.0394" class="st7"/>
			</g>
			<g id="shape1451-16" transform="translate(5.66929,-14.1732)">
				<title>Rectangle.1451</title>
				<rect x="0" y="48.4954" width="328.819" height="56.6929" class="st7"/>
			</g>
			<g id="shape1452-18" transform="translate(6.80315,-14.1732)">
				<title>Triangle</title>
				<path d="M46.57 105.19 L23.28 48.5 L0 105.19 L46.57 105.19 Z" class="st7"/>
			</g>
			<g id="shape1457-20" transform="translate(53.3723,-14.1732)">
				<title>Triangle.1457</title>
				<path d="M46.57 105.19 L23.28 48.5 L0 105.19 L46.57 105.19 Z" class="st7"/>
			</g>
			<g id="shape1458-22" transform="translate(99.9415,-14.1732)">
				<title>Triangle.1458</title>
				<path d="M46.57 105.19 L23.28 48.5 L0 105.19 L46.57 105.19 Z" class="st7"/>
			</g>
			<g id="shape1459-24" transform="translate(146.511,-14.1732)">
				<title>Triangle.1459</title>
				<path d="M46.57 105.19 L23.28 48.5 L0 105.19 L46.57 105.19 Z" class="st7"/>
			</g>
			<g id="shape1460-26" transform="translate(193.08,-14.1732)">
				<title>Triangle.1460</title>
				<path d="M46.57 105.19 L23.28 48.5 L0 105.19 L46.57 105.19 Z" class="st7"/>
			</g>
			<g id="shape1461-28" transform="translate(239.649,-14.1732)">
				<title>Triangle.1461</title>
				<path d="M46.57 105.19 L23.28 48.5 L0 105.19 L46.57 105.19 Z" class="st7"/>
			</g>
			<g id="shape1462-30" transform="translate(286.218,-14.1732)">
				<title>Triangle.1462</title>
				<path d="M46.57 105.19 L23.28 48.5 L0 105.19 L46.57 105.19 Z" class="st7"/>
			</g>
		</g>
	</g>
</svg>
