<?xml version="1.0" encoding="UTF-8" standalone="no"?>
<!DOCTYPE svg PUBLIC "-//W3C//DTD SVG 1.1//EN" "http://www.w3.org/Graphics/SVG/1.1/DTD/svg11.dtd">
<!-- Generated by Microsoft Visio, SVG Export PE011A_Origo.svg Page-1 -->
<svg xmlns="http://www.w3.org/2000/svg" xmlns:xlink="http://www.w3.org/1999/xlink" xmlns:ev="http://www.w3.org/2001/xml-events"
		width="6.42164in" height="3.57124in" viewBox="0 0 462.358 257.129" xml:space="preserve" color-interpolation-filters="sRGB"
		class="st8">
	<title>PE011A</title>

	<style type="text/css">
	<![CDATA[
		.st1 {fill:none;stroke:#ff0000;stroke-linecap:round;stroke-linejoin:round;stroke-width:0.75}
		.st2 {fill:#ff0000;font-family:Arial Narrow;font-size:0.833336em;font-weight:bold}
		.st3 {fill:none;stroke:none;stroke-linecap:round;stroke-linejoin:round;stroke-width:0.75}
		.st4 {fill:#ff0000;font-family:Arial Narrow;font-size:0.811964em;font-weight:bold}
		.st5 {baseline-shift:33.35%;font-size:0.667em}
		.st6 {stroke:#000000;stroke-linecap:round;stroke-linejoin:round;stroke-width:2.25}
		.st7 {fill:none;stroke:#ff0000;stroke-linecap:round;stroke-linejoin:round;stroke-width:2.25}
		.st8 {fill:none;fill-rule:evenodd;font-size:12px;overflow:visible;stroke-linecap:square;stroke-miterlimit:3}
	]]>
	</style>

	<g>
		<title>Page-1</title>
		<g id="group1420-1" transform="translate(189.704,-0.375)">
			<title>Sheet.1420</title>
			<g id="shape1421-2" transform="translate(2.14165,0)">
				<title>Sheet.1421</title>
				<desc>1</desc>
				<rect x="0" y="242.956" width="85.0394" height="14.1732" class="st1"/>
				<text x="40.24" y="253.04" class="st2">1</text>			</g>
			<g id="shape1422-5" transform="translate(0,-4.47576)">
				<title>Sheet.1422</title>
				<desc>A</desc>
				<rect x="0" y="242.956" width="13.2348" height="14.1732" class="st3"/>
				<text x="4" y="256.65" class="st4"><tspan class="st5">A</tspan></text>			</g>
		</g>
		<g id="group1423-9" transform="translate(7.68944,-29.2323)">
			<title>STPX007.331</title>
			<g id="shape1424-10" transform="translate(342.168,72.877) rotate(90)">
				<title>Sheet.1424</title>
				<path d="M0 257.13 L141.73 257.13" class="st6"/>
			</g>
			<g id="shape1425-13" transform="translate(568.94,72.877) rotate(90)">
				<title>Sheet.1425</title>
				<path d="M0 257.13 L141.73 257.13" class="st6"/>
			</g>
			<g id="shape1426-16" transform="translate(512.247,72.877) rotate(90)">
				<title>Sheet.1426</title>
				<path d="M0 257.13 L141.73 257.13" class="st6"/>
			</g>
			<g id="shape1427-19" transform="translate(398.861,72.877) rotate(90)">
				<title>Sheet.1427</title>
				<path d="M0 257.13 L141.73 257.13" class="st6"/>
			</g>
			<g id="shape1428-22" transform="translate(625.633,72.877) rotate(90)">
				<title>Sheet.1428</title>
				<path d="M0 257.13 L141.73 257.13" class="st6"/>
			</g>
			<g id="shape1429-25" transform="translate(455.554,72.877) rotate(90)">
				<title>Sheet.1429</title>
				<path d="M0 257.13 L141.73 257.13" class="st6"/>
			</g>
			<g id="shape1430-28" transform="translate(-1.15108E-12,-113.386)">
				<title>Sheet.1430</title>
				<path d="M0 257.13 L453.54 257.13" class="st6"/>
			</g>
			<g id="shape1431-31">
				<title>Sheet.1431</title>
				<path d="M0 257.13 L453.54 257.13" class="st6"/>
			</g>
			<g id="shape1432-34" transform="translate(196.414,257.129) rotate(-90)">
				<title>Sheet.1432</title>
				<path d="M0 257.13 L226.77 257.13" class="st6"/>
			</g>
			<g id="shape1433-37" transform="translate(453.543,287.486) rotate(180)">
				<title>Sheet.1433</title>
				<path d="M0 257.13 L453.54 257.13" class="st6"/>
			</g>
			<g id="shape1434-40" transform="translate(257.129,30.3573) rotate(90)">
				<title>Sheet.1434</title>
				<path d="M0 257.13 L226.77 257.13" class="st6"/>
			</g>
		</g>
		<g id="shape1435-43" transform="translate(1.125,-136.054)">
			<title>Circle</title>
			<path d="M0 250.56 A6.56444 6.56444 0 0 1 13.13 250.56 A6.56444 6.56444 0 1 1 0 250.56 Z" class="st7"/>
		</g>
	</g>
</svg>
