<?xml version="1.0" encoding="UTF-8" standalone="no"?>
<!DOCTYPE svg PUBLIC "-//W3C//DTD SVG 1.1//EN" "http://www.w3.org/Graphics/SVG/1.1/DTD/svg11.dtd">
<!-- Generated by Microsoft Visio, SVG Export PE010A_Origo.svg Page-1 -->
<svg xmlns="http://www.w3.org/2000/svg" xmlns:xlink="http://www.w3.org/1999/xlink" xmlns:ev="http://www.w3.org/2001/xml-events"
		width="3.20158in" height="3.47742in" viewBox="0 0 230.514 250.374" xml:space="preserve" color-interpolation-filters="sRGB"
		class="st9">
	<title>PE010A</title>

	<style type="text/css">
	<![CDATA[
		.st1 {fill:#ffffff;stroke:#ff0000;stroke-linecap:round;stroke-linejoin:round;stroke-width:2.25}
		.st2 {stroke:#000000;stroke-linecap:round;stroke-linejoin:round;stroke-width:2.25}
		.st3 {stroke:#000000;stroke-dasharray:15.75,11.25;stroke-linecap:round;stroke-linejoin:round;stroke-width:2.25}
		.st4 {fill:none;stroke:#ff0000;stroke-linecap:round;stroke-linejoin:round;stroke-width:0.75}
		.st5 {fill:#ff0000;font-family:Arial Narrow;font-size:0.833336em;font-weight:bold}
		.st6 {fill:none;stroke:none;stroke-linecap:round;stroke-linejoin:round;stroke-width:0.75}
		.st7 {fill:#ff0000;font-family:Arial Narrow;font-size:0.811964em;font-weight:bold}
		.st8 {baseline-shift:33.35%;font-size:0.667em}
		.st9 {fill:none;fill-rule:evenodd;font-size:12px;overflow:visible;stroke-linecap:square;stroke-miterlimit:3}
	]]>
	</style>

	<g>
		<title>Page-1</title>
		<g id="shape1405-1" transform="translate(107.946,-129.299)">
			<title>Circle</title>
			<path d="M0 243.81 A6.56444 6.56444 0 0 1 13.13 243.81 A6.56444 6.56444 0 1 1 0 243.81 Z" class="st1"/>
		</g>
		<g id="shape1406-3" transform="translate(251.498,0.304462) rotate(89.8122)">
			<title>Sheet.1406</title>
			<path d="M0 250.37 L227.62 250.37" class="st2"/>
		</g>
		<g id="shape1407-6" transform="translate(266.417,0.304462) rotate(89.8122)">
			<title>Sheet.1407</title>
			<path d="M0 250.37 L227.62 250.37" class="st2"/>
		</g>
		<g id="shape1408-9" transform="translate(464.097,0.304462) rotate(89.8122)">
			<title>Sheet.1408</title>
			<path d="M0 250.37 L227.62 250.37" class="st2"/>
		</g>
		<g id="shape1409-12" transform="translate(479.016,0.304462) rotate(89.8122)">
			<title>Sheet.1409</title>
			<path d="M0 250.37 L227.62 250.37" class="st2"/>
		</g>
		<g id="shape1410-15" transform="translate(1.125,-249.249)">
			<title>Sheet.1410</title>
			<path d="M0 250.37 L14.92 250.37" class="st2"/>
		</g>
		<g id="shape1411-18" transform="translate(213.723,-249.249)">
			<title>Sheet.1411</title>
			<path d="M0 250.37 L14.92 250.37" class="st2"/>
		</g>
		<g id="shape1412-21" transform="translate(214.469,-21.6348)">
			<title>Sheet.1412</title>
			<path d="M0 250.37 L14.92 250.37" class="st2"/>
		</g>
		<g id="shape1413-24" transform="translate(1.87095,-21.6348)">
			<title>Sheet.1413</title>
			<path d="M0 250.37 L14.92 250.37" class="st2"/>
		</g>
		<g id="shape1414-27" transform="translate(16.0442,-49.9813)">
			<title>Sheet.1414</title>
			<path d="M0 250.37 L198.33 250.37" class="st2"/>
		</g>
		<g id="shape1415-30" transform="translate(16.0442,-220.06)">
			<title>Sheet.1415</title>
			<path d="M0 250.37 L197.77 250.37" class="st2"/>
		</g>
		<g id="shape1416-33" transform="translate(140.265,-158.725) rotate(29.7449)">
			<title>Sheet.1416</title>
			<path d="M0 250.37 L228.54 250.37" class="st3"/>
		</g>
		<g id="shape1417-36" transform="translate(-108.176,-45.3392) rotate(-29.7449)">
			<title>Sheet.1417</title>
			<path d="M0 250.37 L228.54 250.37" class="st3"/>
		</g>
		<g id="group1420-39" transform="translate(70.4992,-0.375)">
			<title>Sheet.1420</title>
			<g id="shape1421-40" transform="translate(2.14165,0)">
				<title>Sheet.1421</title>
				<desc>1</desc>
				<rect x="0" y="236.201" width="85.0394" height="14.1732" class="st4"/>
				<text x="40.24" y="246.29" class="st5">1</text>			</g>
			<g id="shape1422-43" transform="translate(0,-4.47576)">
				<title>Sheet.1422</title>
				<desc>A</desc>
				<rect x="0" y="236.201" width="13.2348" height="14.1732" class="st6"/>
				<text x="4" y="249.89" class="st7"><tspan class="st8">A</tspan></text>			</g>
		</g>
	</g>
</svg>
