<?xml version="1.0" encoding="UTF-8" standalone="no"?>
<!DOCTYPE svg PUBLIC "-//W3C//DTD SVG 1.1//EN" "http://www.w3.org/Graphics/SVG/1.1/DTD/svg11.dtd">
<!-- Generated by Microsoft Visio, SVG Export PE023A_Origo.svg Page-1 -->
<svg xmlns="http://www.w3.org/2000/svg" xmlns:xlink="http://www.w3.org/1999/xlink" xmlns:ev="http://www.w3.org/2001/xml-events"
		width="4.63957in" height="4.05951in" viewBox="0 0 334.049 292.285" xml:space="preserve" color-interpolation-filters="sRGB"
		class="st8">
	<title>PE023A</title>

	<style type="text/css">
	<![CDATA[
		.st1 {fill:none;stroke:#ff0000;stroke-linecap:round;stroke-linejoin:round;stroke-width:0.75}
		.st2 {fill:#ff0000;font-family:Arial Narrow;font-size:0.833336em;font-weight:bold}
		.st3 {fill:none;stroke:none;stroke-linecap:round;stroke-linejoin:round;stroke-width:0.75}
		.st4 {fill:#ff0000;font-family:Arial Narrow;font-size:0.811964em;font-weight:bold}
		.st5 {baseline-shift:33.35%;font-size:0.667em}
		.st6 {fill:none;stroke:#ff0000;stroke-linecap:round;stroke-linejoin:round;stroke-width:2.25}
		.st7 {stroke:#000000;stroke-linecap:round;stroke-linejoin:round;stroke-width:2.25}
		.st8 {fill:none;fill-rule:evenodd;font-size:12px;overflow:visible;stroke-linecap:square;stroke-miterlimit:3}
	]]>
	</style>

	<g>
		<title>Page-1</title>
		<g id="group1420-1" transform="translate(246.493,-142.863)">
			<title>Sheet.1420</title>
			<g id="shape1421-2" transform="translate(2.14165,0)">
				<title>Sheet.1421</title>
				<desc>1</desc>
				<rect x="0" y="278.111" width="85.0394" height="14.1732" class="st1"/>
				<text x="40.24" y="288.2" class="st2">1</text>			</g>
			<g id="shape1422-5" transform="translate(0,-4.47576)">
				<title>Sheet.1422</title>
				<desc>A</desc>
				<rect x="0" y="278.111" width="13.2348" height="14.1732" class="st3"/>
				<text x="4" y="291.8" class="st4"><tspan class="st5">A</tspan></text>			</g>
		</g>
		<g id="shape1435-9" transform="translate(1.125,-278.031)">
			<title>Circle</title>
			<path d="M0 285.72 A6.56444 6.56444 0 0 1 13.13 285.72 A6.56444 6.56444 0 1 1 0 285.72 Z" class="st6"/>
		</g>
		<g id="group1526-11" transform="translate(7.68944,-1.125)">
			<title>STPD033.373</title>
			<g id="shape1527-12" transform="translate(-292.285,235.586) rotate(-90)">
				<title>Sheet.1527</title>
				<path d="M0 292.28 L226.77 292.28" class="st7"/>
			</g>
			<g id="shape1528-15" transform="translate(226.772,527.871) rotate(180)">
				<title>Sheet.1528</title>
				<path d="M0 292.28 L226.77 292.28" class="st7"/>
			</g>
			<g id="shape1529-18" transform="translate(130.729,-25.8335) rotate(26.5684)">
				<title>Sheet.1529</title>
				<path d="M0 292.28 L126.77 292.28" class="st7"/>
			</g>
			<g id="shape1530-21" transform="translate(-17.3385,30.8599) rotate(-26.5662)">
				<title>Sheet.1530</title>
				<path d="M0 292.28 L126.78 292.28" class="st7"/>
			</g>
			<g id="shape1531-24" transform="translate(226.772,301.099) rotate(180)">
				<title>Sheet.1531</title>
				<path d="M0 292.28 L226.77 292.28" class="st7"/>
			</g>
			<g id="shape1532-27" transform="translate(-65.5129,235.586) rotate(-90)">
				<title>Sheet.1532</title>
				<path d="M0 292.28 L226.77 292.28" class="st7"/>
			</g>
			<g id="shape1533-30" transform="translate(-263.938,207.24) rotate(-90)">
				<title>Sheet.1533</title>
				<path d="M0 292.28 L170.08 292.28" class="st7"/>
			</g>
			<g id="shape1534-33" transform="translate(28.3465,-255.124)">
				<title>Sheet.1534</title>
				<path d="M0 292.28 L170.08 292.28" class="st7"/>
			</g>
			<g id="shape1535-36" transform="translate(490.71,37.1609) rotate(90)">
				<title>Sheet.1535</title>
				<path d="M0 292.28 L170.08 292.28" class="st7"/>
			</g>
			<g id="shape1536-39" transform="translate(348.978,37.1609) rotate(90)">
				<title>Sheet.1536</title>
				<path d="M0 292.28 L170.08 292.28" class="st7"/>
			</g>
			<g id="shape1537-42" transform="translate(377.324,37.1609) rotate(90)">
				<title>Sheet.1537</title>
				<path d="M0 292.28 L170.08 292.28" class="st7"/>
			</g>
			<g id="shape1538-45" transform="translate(405.67,37.1609) rotate(90)">
				<title>Sheet.1538</title>
				<path d="M0 292.28 L170.08 292.28" class="st7"/>
			</g>
			<g id="shape1539-48" transform="translate(434.017,37.1609) rotate(90)">
				<title>Sheet.1539</title>
				<path d="M0 292.28 L170.08 292.28" class="st7"/>
			</g>
			<g id="shape1540-51" transform="translate(462.363,37.1609) rotate(90)">
				<title>Sheet.1540</title>
				<path d="M0 292.28 L170.08 292.28" class="st7"/>
			</g>
			<g id="shape1541-54" transform="translate(348.978,37.1609) rotate(90)">
				<title>Sheet.1541</title>
				<path d="M0 292.28 L170.08 292.28" class="st7"/>
			</g>
			<g id="shape1542-57" transform="translate(405.67,37.1609) rotate(90)">
				<title>Sheet.1542</title>
				<path d="M0 292.28 L170.08 292.28" class="st7"/>
			</g>
			<g id="shape1543-60" transform="translate(462.363,37.1609) rotate(90)">
				<title>Sheet.1543</title>
				<path d="M0 292.28 L170.08 292.28" class="st7"/>
			</g>
		</g>
	</g>
</svg>
