<?xml version="1.0" encoding="UTF-8" standalone="no"?>
<!DOCTYPE svg PUBLIC "-//W3C//DTD SVG 1.1//EN" "http://www.w3.org/Graphics/SVG/1.1/DTD/svg11.dtd">
<!-- Generated by Microsoft Visio, SVG Export PE031A.svg Page-1 -->
<svg xmlns="http://www.w3.org/2000/svg" xmlns:xlink="http://www.w3.org/1999/xlink" xmlns:ev="http://www.w3.org/2001/xml-events"
		xmlns:v="http://schemas.microsoft.com/visio/2003/SVGExtensions/" width="4.84683in" height="1.08971in"
		viewBox="0 0 348.972 78.4591" xml:space="preserve" color-interpolation-filters="sRGB" class="st4">
	<title>PE031A</title>
	<v:documentProperties v:langID="2057" v:metric="true" v:viewMarkup="false"/>

	<style type="text/css">
	<![CDATA[
		.st1 {fill:none;stroke:#ff0000;stroke-linecap:round;stroke-linejoin:round;stroke-width:2.25}
		.st2 {fill:none}
		.st3 {stroke:#000000;stroke-linecap:round;stroke-linejoin:round;stroke-width:2.25}
		.st4 {fill:none;fill-rule:evenodd;font-size:12px;overflow:visible;stroke-linecap:square;stroke-miterlimit:3}
	]]>
	</style>

	<g v:mID="0" v:index="1" v:groupContext="foregroundPage">
		<title>Page-1</title>
		<v:pageProperties v:drawingScale="0.0393701" v:pageScale="0.0393701" v:drawingUnits="24" v:shadowOffsetX="8.50394"
				v:shadowOffsetY="-8.50394"/>
		<v:layer v:name="Origo" v:index="0"/>
		<v:layer v:name="Symbol" v:index="1"/>
		<g id="shape1435-1" v:mID="1435" v:groupContext="shape" v:layerMember="0" transform="translate(1.125,-64.2052)">
			<title>Circle</title>
			<v:userDefs>
				<v:ud v:nameU="visVersion" v:val="VT0(15):26"/>
				<v:ud v:nameU="visMasterStencil" v:prompt="" v:val="VT4(Basic_M.vssx)"/>
			</v:userDefs>
			<path d="M0 71.89 A6.56444 6.56444 0 0 1 13.13 71.89 A6.56444 6.56444 0 1 1 0 71.89 Z" class="st1"/>
		</g>
		<g id="group1508-3" transform="translate(7.68943,-1.1253)" v:mID="1508" v:groupContext="group" v:layerMember="1">
			<title>Sheet.1508</title>
			<g id="shape1458-4" v:mID="1458" v:groupContext="shape" v:layerMember="1" transform="translate(150.284,-58.0369)">
				<title>Sheet.1458</title>
				<v:userDefs>
					<v:ud v:nameU="SOLSH" v:prompt="" v:val="VT4({13D0FF3B-CF5B-4a46-98AB-14030248EAEF})"/>
					<v:ud v:nameU="DWGEntityType" v:prompt="" v:val="VT4(ELLIPSE)"/>
					<v:ud v:nameU="DWGOriginalColor" v:prompt="This shapes Original DWG color." v:val="VT4(3)"/>
					<v:ud v:nameU="DWGOriginalLayer" v:prompt="This shapes Original DWG layer." v:val="VT4(26-SYM-035-SP)"/>
				</v:userDefs>
				<path d="M24.49 77.94 A13.176 12.3815 90 0 0 0 78.46 L24.49 77.94 Z" class="st2"/>
				<path d="M24.49 77.94 A13.176 12.3815 90 0 0 0 78.46" class="st3"/>
			</g>
			<g id="shape1459-7" v:mID="1459" v:groupContext="shape" v:layerMember="1" transform="translate(116.688,-1.42109E-14)">
				<title>Sheet.1459</title>
				<v:userDefs>
					<v:ud v:nameU="SOLSH" v:prompt="" v:val="VT4({13D0FF3B-CF5B-4a46-98AB-14030248EAEF})"/>
					<v:ud v:nameU="DWGEntityType" v:prompt="" v:val="VT4(ELLIPSE)"/>
					<v:ud v:nameU="DWGOriginalColor" v:prompt="This shapes Original DWG color." v:val="VT4(3)"/>
					<v:ud v:nameU="DWGOriginalLayer" v:prompt="This shapes Original DWG layer." v:val="VT4(26-SYM-035-SP)"/>
				</v:userDefs>
				<path d="M0 67.38 A13.1563 12.363 -90 0 0 24.49 66.85 L0 67.38 Z" class="st2"/>
				<path d="M0 67.38 A13.1563 12.363 -90 0 0 24.49 66.85" class="st3"/>
			</g>
			<g id="shape1468-10" v:mID="1468" v:groupContext="shape" v:layerMember="1"
					transform="translate(-0.281809,-69.6438) rotate(-0.205803)">
				<title>Sheet.1468</title>
				<path d="M0 78.46 L340.16 78.46" class="st3"/>
			</g>
			<g id="shape1469-13" v:mID="1469" v:groupContext="shape" v:layerMember="1"
					transform="translate(-0.28182,0.00050614) rotate(-0.205803)">
				<title>Sheet.1469</title>
				<path d="M0 78.46 L340.16 78.46" class="st3"/>
			</g>
			<g id="shape1478-16" v:mID="1478" v:groupContext="shape" v:layerMember="1"
					transform="translate(64.1828,51.7437) rotate(-78.8979)">
				<title>Sheet.1478</title>
				<path d="M0 78.46 L47.32 78.46" class="st3"/>
			</g>
			<g id="shape1479-19" v:mID="1479" v:groupContext="shape" v:layerMember="1"
					transform="translate(250.125,-1.94813) rotate(73.8289)">
				<title>Sheet.1479</title>
				<path d="M0 78.46 L49.43 78.46" class="st3"/>
			</g>
			<g id="shape1487-22" v:mID="1487" v:groupContext="shape" v:layerMember="1" transform="translate(77.4236,-59.3802)">
				<title>Sheet.1487</title>
				<v:userDefs>
					<v:ud v:nameU="SOLSH" v:prompt="" v:val="VT4({13D0FF3B-CF5B-4a46-98AB-14030248EAEF})"/>
					<v:ud v:nameU="DWGEntityType" v:prompt="" v:val="VT4(ELLIPSE)"/>
					<v:ud v:nameU="DWGOriginalColor" v:prompt="This shapes Original DWG color." v:val="VT4(3)"/>
					<v:ud v:nameU="DWGOriginalLayer" v:prompt="This shapes Original DWG layer." v:val="VT4(26-SYM-035-SP)"/>
				</v:userDefs>
				<path d="M24.49 77.94 A13.176 12.3815 90 0 0 0 78.46 L24.49 77.94 Z" class="st2"/>
				<path d="M24.49 77.94 A13.176 12.3815 90 0 0 0 78.46" class="st3"/>
			</g>
			<g id="shape1488-25" v:mID="1488" v:groupContext="shape" v:layerMember="1" transform="translate(43.8271,-1.34325)">
				<title>Sheet.1488</title>
				<v:userDefs>
					<v:ud v:nameU="SOLSH" v:prompt="" v:val="VT4({13D0FF3B-CF5B-4a46-98AB-14030248EAEF})"/>
					<v:ud v:nameU="DWGEntityType" v:prompt="" v:val="VT4(ELLIPSE)"/>
					<v:ud v:nameU="DWGOriginalColor" v:prompt="This shapes Original DWG color." v:val="VT4(3)"/>
					<v:ud v:nameU="DWGOriginalLayer" v:prompt="This shapes Original DWG layer." v:val="VT4(26-SYM-035-SP)"/>
				</v:userDefs>
				<path d="M0 67.38 A13.1563 12.363 -90 0 0 24.49 66.85 L0 67.38 Z" class="st2"/>
				<path d="M0 67.38 A13.1563 12.363 -90 0 0 24.49 66.85" class="st3"/>
			</g>
			<g id="shape1489-28" v:mID="1489" v:groupContext="shape" v:layerMember="1"
					transform="translate(-8.67808,50.4004) rotate(-78.8979)">
				<title>Sheet.1489</title>
				<path d="M0 78.46 L47.32 78.46" class="st3"/>
			</g>
			<g id="shape1490-31" v:mID="1490" v:groupContext="shape" v:layerMember="1"
					transform="translate(177.264,-3.29138) rotate(73.8289)">
				<title>Sheet.1490</title>
				<path d="M0 78.46 L49.43 78.46" class="st3"/>
			</g>
			<g id="shape1491-34" v:mID="1491" v:groupContext="shape" v:layerMember="1" transform="translate(5.25,-59.3802)">
				<title>Sheet.1491</title>
				<v:userDefs>
					<v:ud v:nameU="SOLSH" v:prompt="" v:val="VT4({13D0FF3B-CF5B-4a46-98AB-14030248EAEF})"/>
					<v:ud v:nameU="DWGEntityType" v:prompt="" v:val="VT4(ELLIPSE)"/>
					<v:ud v:nameU="DWGOriginalColor" v:prompt="This shapes Original DWG color." v:val="VT4(3)"/>
					<v:ud v:nameU="DWGOriginalLayer" v:prompt="This shapes Original DWG layer." v:val="VT4(26-SYM-035-SP)"/>
				</v:userDefs>
				<path d="M24.49 77.94 A13.176 12.3815 90 0 0 0 78.46 L24.49 77.94 Z" class="st2"/>
				<path d="M24.49 77.94 A13.176 12.3815 90 0 0 0 78.46" class="st3"/>
			</g>
			<g id="shape1493-37" v:mID="1493" v:groupContext="shape" v:layerMember="1"
					transform="translate(-77.3666,37.1622) rotate(-80.4275)">
				<title>Sheet.1493</title>
				<path d="M0 78.46 L31.57 78.46" class="st3"/>
			</g>
			<g id="shape1494-40" v:mID="1494" v:groupContext="shape" v:layerMember="1"
					transform="translate(105.09,-3.29138) rotate(73.8289)">
				<title>Sheet.1494</title>
				<path d="M0 78.46 L49.43 78.46" class="st3"/>
			</g>
			<g id="shape1495-43" v:mID="1495" v:groupContext="shape" v:layerMember="1" transform="translate(221.554,-58.0369)">
				<title>Sheet.1495</title>
				<v:userDefs>
					<v:ud v:nameU="SOLSH" v:prompt="" v:val="VT4({13D0FF3B-CF5B-4a46-98AB-14030248EAEF})"/>
					<v:ud v:nameU="DWGEntityType" v:prompt="" v:val="VT4(ELLIPSE)"/>
					<v:ud v:nameU="DWGOriginalColor" v:prompt="This shapes Original DWG color." v:val="VT4(3)"/>
					<v:ud v:nameU="DWGOriginalLayer" v:prompt="This shapes Original DWG layer." v:val="VT4(26-SYM-035-SP)"/>
				</v:userDefs>
				<path d="M24.49 77.94 A13.176 12.3815 90 0 0 0 78.46 L24.49 77.94 Z" class="st2"/>
				<path d="M24.49 77.94 A13.176 12.3815 90 0 0 0 78.46" class="st3"/>
			</g>
			<g id="shape1496-46" v:mID="1496" v:groupContext="shape" v:layerMember="1" transform="translate(187.957,-7.10543E-14)">
				<title>Sheet.1496</title>
				<v:userDefs>
					<v:ud v:nameU="SOLSH" v:prompt="" v:val="VT4({13D0FF3B-CF5B-4a46-98AB-14030248EAEF})"/>
					<v:ud v:nameU="DWGEntityType" v:prompt="" v:val="VT4(ELLIPSE)"/>
					<v:ud v:nameU="DWGOriginalColor" v:prompt="This shapes Original DWG color." v:val="VT4(3)"/>
					<v:ud v:nameU="DWGOriginalLayer" v:prompt="This shapes Original DWG layer." v:val="VT4(26-SYM-035-SP)"/>
				</v:userDefs>
				<path d="M0 67.38 A13.1563 12.363 -90 0 0 24.49 66.85 L0 67.38 Z" class="st2"/>
				<path d="M0 67.38 A13.1563 12.363 -90 0 0 24.49 66.85" class="st3"/>
			</g>
			<g id="shape1497-49" v:mID="1497" v:groupContext="shape" v:layerMember="1"
					transform="translate(135.452,51.7437) rotate(-78.8979)">
				<title>Sheet.1497</title>
				<path d="M0 78.46 L47.32 78.46" class="st3"/>
			</g>
			<g id="shape1498-52" v:mID="1498" v:groupContext="shape" v:layerMember="1"
					transform="translate(321.394,-1.94813) rotate(73.8289)">
				<title>Sheet.1498</title>
				<path d="M0 78.46 L49.43 78.46" class="st3"/>
			</g>
			<g id="shape1499-55" v:mID="1499" v:groupContext="shape" v:layerMember="1" transform="translate(293.402,-58.0369)">
				<title>Sheet.1499</title>
				<v:userDefs>
					<v:ud v:nameU="SOLSH" v:prompt="" v:val="VT4({13D0FF3B-CF5B-4a46-98AB-14030248EAEF})"/>
					<v:ud v:nameU="DWGEntityType" v:prompt="" v:val="VT4(ELLIPSE)"/>
					<v:ud v:nameU="DWGOriginalColor" v:prompt="This shapes Original DWG color." v:val="VT4(3)"/>
					<v:ud v:nameU="DWGOriginalLayer" v:prompt="This shapes Original DWG layer." v:val="VT4(26-SYM-035-SP)"/>
				</v:userDefs>
				<path d="M24.49 77.94 A13.176 12.3815 90 0 0 0 78.46 L24.49 77.94 Z" class="st2"/>
				<path d="M24.49 77.94 A13.176 12.3815 90 0 0 0 78.46" class="st3"/>
			</g>
			<g id="shape1500-58" v:mID="1500" v:groupContext="shape" v:layerMember="1" transform="translate(259.805,-7.10543E-14)">
				<title>Sheet.1500</title>
				<v:userDefs>
					<v:ud v:nameU="SOLSH" v:prompt="" v:val="VT4({13D0FF3B-CF5B-4a46-98AB-14030248EAEF})"/>
					<v:ud v:nameU="DWGEntityType" v:prompt="" v:val="VT4(ELLIPSE)"/>
					<v:ud v:nameU="DWGOriginalColor" v:prompt="This shapes Original DWG color." v:val="VT4(3)"/>
					<v:ud v:nameU="DWGOriginalLayer" v:prompt="This shapes Original DWG layer." v:val="VT4(26-SYM-035-SP)"/>
				</v:userDefs>
				<path d="M0 67.38 A13.1563 12.363 -90 0 0 24.49 66.85 L0 67.38 Z" class="st2"/>
				<path d="M0 67.38 A13.1563 12.363 -90 0 0 24.49 66.85" class="st3"/>
			</g>
			<g id="shape1501-61" v:mID="1501" v:groupContext="shape" v:layerMember="1"
					transform="translate(207.3,51.7437) rotate(-78.8979)">
				<title>Sheet.1501</title>
				<path d="M0 78.46 L47.32 78.46" class="st3"/>
			</g>
			<g id="shape1502-64" v:mID="1502" v:groupContext="shape" v:layerMember="1"
					transform="translate(393.242,-1.94813) rotate(73.8289)">
				<title>Sheet.1502</title>
				<path d="M0 78.46 L49.43 78.46" class="st3"/>
			</g>
			<g id="shape1507-67" v:mID="1507" v:groupContext="shape" v:layerMember="1"
					transform="translate(391.071,16.137) rotate(49.2268)">
				<title>Sheet.1507</title>
				<path d="M0 78.46 L13.02 78.46" class="st3"/>
			</g>
		</g>
	</g>
</svg>
