<?xml version="1.0" encoding="UTF-8" standalone="no"?>
<!DOCTYPE svg PUBLIC "-//W3C//DTD SVG 1.1//EN" "http://www.w3.org/Graphics/SVG/1.1/DTD/svg11.dtd">
<!-- Generated by Microsoft Visio, SVG Export PE031A_Label.svg Page-1 -->
<svg xmlns="http://www.w3.org/2000/svg" xmlns:xlink="http://www.w3.org/1999/xlink" xmlns:ev="http://www.w3.org/2001/xml-events"
		xmlns:v="http://schemas.microsoft.com/visio/2003/SVGExtensions/" width="4.84683in" height="1.46095in"
		viewBox="0 0 348.972 105.189" xml:space="preserve" color-interpolation-filters="sRGB" class="st9">
	<title>PE031A</title>
	<v:documentProperties v:langID="2057" v:metric="true" v:viewMarkup="false"/>

	<style type="text/css">
	<![CDATA[
		.st1 {fill:none;stroke:#ff0000;stroke-linecap:round;stroke-linejoin:round;stroke-width:0.75}
		.st2 {fill:#ff0000;font-family:Arial Narrow;font-size:0.833336em;font-weight:bold}
		.st3 {fill:none;stroke:none;stroke-linecap:round;stroke-linejoin:round;stroke-width:0.75}
		.st4 {fill:#ff0000;font-family:Arial Narrow;font-size:0.811964em;font-weight:bold}
		.st5 {baseline-shift:33.35%;font-size:0.667em}
		.st6 {fill:none;stroke:#ff0000;stroke-linecap:round;stroke-linejoin:round;stroke-width:2.25}
		.st7 {fill:none}
		.st8 {stroke:#000000;stroke-linecap:round;stroke-linejoin:round;stroke-width:2.25}
		.st9 {fill:none;fill-rule:evenodd;font-size:12px;overflow:visible;stroke-linecap:square;stroke-miterlimit:3}
	]]>
	</style>

	<g v:mID="0" v:index="1" v:groupContext="foregroundPage">
		<title>Page-1</title>
		<v:pageProperties v:drawingScale="0.0393701" v:pageScale="0.0393701" v:drawingUnits="24" v:shadowOffsetX="8.50394"
				v:shadowOffsetY="-8.50394"/>
		<v:layer v:name="Label" v:index="0"/>
		<v:layer v:name="Origo" v:index="1"/>
		<v:layer v:name="Symbol" v:index="2"/>
		<g id="group1420-1" transform="translate(147.28,-86.1647)" v:mID="1420" v:groupContext="group" v:layerMember="0">
			<title>Sheet.1420</title>
			<g id="shape1421-2" v:mID="1421" v:groupContext="shape" v:layerMember="0" transform="translate(2.14165,9.9476E-14)">
				<title>Sheet.1421</title>
				<desc>1</desc>
				<v:textBlock v:margins="rect(4,4,4,4)" v:tabSpace="42.5197"/>
				<v:textRect cx="42.5197" cy="98.102" width="85.04" height="14.1732"/>
				<rect x="0" y="91.0154" width="85.0394" height="14.1732" class="st1"/>
				<text x="40.24" y="101.1" class="st2" v:langID="2057"><v:paragraph v:horizAlign="1"/><v:tabList/>1</text>			</g>
			<g id="shape1422-5" v:mID="1422" v:groupContext="shape" v:layerMember="0" transform="translate(0,-4.47576)">
				<title>Sheet.1422</title>
				<desc>A</desc>
				<v:textBlock v:margins="rect(4,4,4,4)" v:tabSpace="42.5197" v:verticalAlign="0"/>
				<v:textRect cx="6.61741" cy="98.102" width="13.24" height="14.1732"/>
				<rect x="0" y="91.0154" width="13.2348" height="14.1732" class="st3"/>
				<text x="4" y="104.71" class="st4" v:langID="2057"><v:paragraph/><v:tabList/><tspan class="st5">A</tspan></text>			</g>
		</g>
		<g id="shape1435-9" v:mID="1435" v:groupContext="shape" v:layerMember="1" transform="translate(1.125,-64.2052)">
			<title>Circle</title>
			<v:userDefs>
				<v:ud v:nameU="visVersion" v:val="VT0(15):26"/>
				<v:ud v:nameU="visMasterStencil" v:prompt="" v:val="VT4(Basic_M.vssx)"/>
			</v:userDefs>
			<path d="M0 98.62 A6.56444 6.56444 0 0 1 13.13 98.62 A6.56444 6.56444 0 1 1 0 98.62 Z" class="st6"/>
		</g>
		<g id="group1508-11" transform="translate(7.68943,-1.1253)" v:mID="1508" v:groupContext="group" v:layerMember="2">
			<title>Sheet.1508</title>
			<g id="shape1458-12" v:mID="1458" v:groupContext="shape" v:layerMember="2" transform="translate(150.284,-58.0369)">
				<title>Sheet.1458</title>
				<v:userDefs>
					<v:ud v:nameU="SOLSH" v:prompt="" v:val="VT4({13D0FF3B-CF5B-4a46-98AB-14030248EAEF})"/>
					<v:ud v:nameU="DWGEntityType" v:prompt="" v:val="VT4(ELLIPSE)"/>
					<v:ud v:nameU="DWGOriginalColor" v:prompt="This shapes Original DWG color." v:val="VT4(3)"/>
					<v:ud v:nameU="DWGOriginalLayer" v:prompt="This shapes Original DWG layer." v:val="VT4(26-SYM-035-SP)"/>
				</v:userDefs>
				<path d="M24.49 104.67 A13.176 12.3815 90 0 0 0 105.19 L24.49 104.67 Z" class="st7"/>
				<path d="M24.49 104.67 A13.176 12.3815 90 0 0 0 105.19" class="st8"/>
			</g>
			<g id="shape1459-15" v:mID="1459" v:groupContext="shape" v:layerMember="2" transform="translate(116.688,0)">
				<title>Sheet.1459</title>
				<v:userDefs>
					<v:ud v:nameU="SOLSH" v:prompt="" v:val="VT4({13D0FF3B-CF5B-4a46-98AB-14030248EAEF})"/>
					<v:ud v:nameU="DWGEntityType" v:prompt="" v:val="VT4(ELLIPSE)"/>
					<v:ud v:nameU="DWGOriginalColor" v:prompt="This shapes Original DWG color." v:val="VT4(3)"/>
					<v:ud v:nameU="DWGOriginalLayer" v:prompt="This shapes Original DWG layer." v:val="VT4(26-SYM-035-SP)"/>
				</v:userDefs>
				<path d="M0 94.11 A13.1563 12.363 -90 0 0 24.49 93.58 L0 94.11 Z" class="st7"/>
				<path d="M0 94.11 A13.1563 12.363 -90 0 0 24.49 93.58" class="st8"/>
			</g>
			<g id="shape1468-18" v:mID="1468" v:groupContext="shape" v:layerMember="2"
					transform="translate(-0.37782,-69.6436) rotate(-0.205803)">
				<title>Sheet.1468</title>
				<path d="M0 105.19 L340.16 105.19" class="st8"/>
			</g>
			<g id="shape1469-21" v:mID="1469" v:groupContext="shape" v:layerMember="2"
					transform="translate(-0.37783,0.000678573) rotate(-0.205803)">
				<title>Sheet.1469</title>
				<path d="M0 105.19 L340.16 105.19" class="st8"/>
			</g>
			<g id="shape1478-24" v:mID="1478" v:groupContext="shape" v:layerMember="2"
					transform="translate(37.9534,73.3263) rotate(-78.8979)">
				<title>Sheet.1478</title>
				<path d="M0 105.19 L47.32 105.19" class="st8"/>
			</g>
			<g id="shape1479-27" v:mID="1479" v:groupContext="shape" v:layerMember="2"
					transform="translate(275.797,17.3371) rotate(73.8289)">
				<title>Sheet.1479</title>
				<path d="M0 105.19 L49.43 105.19" class="st8"/>
			</g>
			<g id="shape1487-30" v:mID="1487" v:groupContext="shape" v:layerMember="2" transform="translate(77.4236,-59.3802)">
				<title>Sheet.1487</title>
				<v:userDefs>
					<v:ud v:nameU="SOLSH" v:prompt="" v:val="VT4({13D0FF3B-CF5B-4a46-98AB-14030248EAEF})"/>
					<v:ud v:nameU="DWGEntityType" v:prompt="" v:val="VT4(ELLIPSE)"/>
					<v:ud v:nameU="DWGOriginalColor" v:prompt="This shapes Original DWG color." v:val="VT4(3)"/>
					<v:ud v:nameU="DWGOriginalLayer" v:prompt="This shapes Original DWG layer." v:val="VT4(26-SYM-035-SP)"/>
				</v:userDefs>
				<path d="M24.49 104.67 A13.176 12.3815 90 0 0 0 105.19 L24.49 104.67 Z" class="st7"/>
				<path d="M24.49 104.67 A13.176 12.3815 90 0 0 0 105.19" class="st8"/>
			</g>
			<g id="shape1488-33" v:mID="1488" v:groupContext="shape" v:layerMember="2" transform="translate(43.8271,-1.34325)">
				<title>Sheet.1488</title>
				<v:userDefs>
					<v:ud v:nameU="SOLSH" v:prompt="" v:val="VT4({13D0FF3B-CF5B-4a46-98AB-14030248EAEF})"/>
					<v:ud v:nameU="DWGEntityType" v:prompt="" v:val="VT4(ELLIPSE)"/>
					<v:ud v:nameU="DWGOriginalColor" v:prompt="This shapes Original DWG color." v:val="VT4(3)"/>
					<v:ud v:nameU="DWGOriginalLayer" v:prompt="This shapes Original DWG layer." v:val="VT4(26-SYM-035-SP)"/>
				</v:userDefs>
				<path d="M0 94.11 A13.1563 12.363 -90 0 0 24.49 93.58 L0 94.11 Z" class="st7"/>
				<path d="M0 94.11 A13.1563 12.363 -90 0 0 24.49 93.58" class="st8"/>
			</g>
			<g id="shape1489-36" v:mID="1489" v:groupContext="shape" v:layerMember="2"
					transform="translate(-34.9075,71.983) rotate(-78.8979)">
				<title>Sheet.1489</title>
				<path d="M0 105.19 L47.32 105.19" class="st8"/>
			</g>
			<g id="shape1490-39" v:mID="1490" v:groupContext="shape" v:layerMember="2"
					transform="translate(202.936,15.9938) rotate(73.8289)">
				<title>Sheet.1490</title>
				<path d="M0 105.19 L49.43 105.19" class="st8"/>
			</g>
			<g id="shape1491-42" v:mID="1491" v:groupContext="shape" v:layerMember="2" transform="translate(5.25,-59.3802)">
				<title>Sheet.1491</title>
				<v:userDefs>
					<v:ud v:nameU="SOLSH" v:prompt="" v:val="VT4({13D0FF3B-CF5B-4a46-98AB-14030248EAEF})"/>
					<v:ud v:nameU="DWGEntityType" v:prompt="" v:val="VT4(ELLIPSE)"/>
					<v:ud v:nameU="DWGOriginalColor" v:prompt="This shapes Original DWG color." v:val="VT4(3)"/>
					<v:ud v:nameU="DWGOriginalLayer" v:prompt="This shapes Original DWG layer." v:val="VT4(26-SYM-035-SP)"/>
				</v:userDefs>
				<path d="M24.49 104.67 A13.176 12.3815 90 0 0 0 105.19 L24.49 104.67 Z" class="st7"/>
				<path d="M24.49 104.67 A13.176 12.3815 90 0 0 0 105.19" class="st8"/>
			</g>
			<g id="shape1493-45" v:mID="1493" v:groupContext="shape" v:layerMember="2"
					transform="translate(-103.724,59.4468) rotate(-80.4275)">
				<title>Sheet.1493</title>
				<path d="M0 105.19 L31.57 105.19" class="st8"/>
			</g>
			<g id="shape1494-48" v:mID="1494" v:groupContext="shape" v:layerMember="2"
					transform="translate(130.762,15.9938) rotate(73.8289)">
				<title>Sheet.1494</title>
				<path d="M0 105.19 L49.43 105.19" class="st8"/>
			</g>
			<g id="shape1495-51" v:mID="1495" v:groupContext="shape" v:layerMember="2" transform="translate(221.554,-58.0369)">
				<title>Sheet.1495</title>
				<v:userDefs>
					<v:ud v:nameU="SOLSH" v:prompt="" v:val="VT4({13D0FF3B-CF5B-4a46-98AB-14030248EAEF})"/>
					<v:ud v:nameU="DWGEntityType" v:prompt="" v:val="VT4(ELLIPSE)"/>
					<v:ud v:nameU="DWGOriginalColor" v:prompt="This shapes Original DWG color." v:val="VT4(3)"/>
					<v:ud v:nameU="DWGOriginalLayer" v:prompt="This shapes Original DWG layer." v:val="VT4(26-SYM-035-SP)"/>
				</v:userDefs>
				<path d="M24.49 104.67 A13.176 12.3815 90 0 0 0 105.19 L24.49 104.67 Z" class="st7"/>
				<path d="M24.49 104.67 A13.176 12.3815 90 0 0 0 105.19" class="st8"/>
			</g>
			<g id="shape1496-54" v:mID="1496" v:groupContext="shape" v:layerMember="2" transform="translate(187.957,-5.68434E-14)">
				<title>Sheet.1496</title>
				<v:userDefs>
					<v:ud v:nameU="SOLSH" v:prompt="" v:val="VT4({13D0FF3B-CF5B-4a46-98AB-14030248EAEF})"/>
					<v:ud v:nameU="DWGEntityType" v:prompt="" v:val="VT4(ELLIPSE)"/>
					<v:ud v:nameU="DWGOriginalColor" v:prompt="This shapes Original DWG color." v:val="VT4(3)"/>
					<v:ud v:nameU="DWGOriginalLayer" v:prompt="This shapes Original DWG layer." v:val="VT4(26-SYM-035-SP)"/>
				</v:userDefs>
				<path d="M0 94.11 A13.1563 12.363 -90 0 0 24.49 93.58 L0 94.11 Z" class="st7"/>
				<path d="M0 94.11 A13.1563 12.363 -90 0 0 24.49 93.58" class="st8"/>
			</g>
			<g id="shape1497-57" v:mID="1497" v:groupContext="shape" v:layerMember="2"
					transform="translate(109.223,73.3263) rotate(-78.8979)">
				<title>Sheet.1497</title>
				<path d="M0 105.19 L47.32 105.19" class="st8"/>
			</g>
			<g id="shape1498-60" v:mID="1498" v:groupContext="shape" v:layerMember="2"
					transform="translate(347.066,17.3371) rotate(73.8289)">
				<title>Sheet.1498</title>
				<path d="M0 105.19 L49.43 105.19" class="st8"/>
			</g>
			<g id="shape1499-63" v:mID="1499" v:groupContext="shape" v:layerMember="2" transform="translate(293.402,-58.0369)">
				<title>Sheet.1499</title>
				<v:userDefs>
					<v:ud v:nameU="SOLSH" v:prompt="" v:val="VT4({13D0FF3B-CF5B-4a46-98AB-14030248EAEF})"/>
					<v:ud v:nameU="DWGEntityType" v:prompt="" v:val="VT4(ELLIPSE)"/>
					<v:ud v:nameU="DWGOriginalColor" v:prompt="This shapes Original DWG color." v:val="VT4(3)"/>
					<v:ud v:nameU="DWGOriginalLayer" v:prompt="This shapes Original DWG layer." v:val="VT4(26-SYM-035-SP)"/>
				</v:userDefs>
				<path d="M24.49 104.67 A13.176 12.3815 90 0 0 0 105.19 L24.49 104.67 Z" class="st7"/>
				<path d="M24.49 104.67 A13.176 12.3815 90 0 0 0 105.19" class="st8"/>
			</g>
			<g id="shape1500-66" v:mID="1500" v:groupContext="shape" v:layerMember="2" transform="translate(259.805,-5.68434E-14)">
				<title>Sheet.1500</title>
				<v:userDefs>
					<v:ud v:nameU="SOLSH" v:prompt="" v:val="VT4({13D0FF3B-CF5B-4a46-98AB-14030248EAEF})"/>
					<v:ud v:nameU="DWGEntityType" v:prompt="" v:val="VT4(ELLIPSE)"/>
					<v:ud v:nameU="DWGOriginalColor" v:prompt="This shapes Original DWG color." v:val="VT4(3)"/>
					<v:ud v:nameU="DWGOriginalLayer" v:prompt="This shapes Original DWG layer." v:val="VT4(26-SYM-035-SP)"/>
				</v:userDefs>
				<path d="M0 94.11 A13.1563 12.363 -90 0 0 24.49 93.58 L0 94.11 Z" class="st7"/>
				<path d="M0 94.11 A13.1563 12.363 -90 0 0 24.49 93.58" class="st8"/>
			</g>
			<g id="shape1501-69" v:mID="1501" v:groupContext="shape" v:layerMember="2"
					transform="translate(181.071,73.3263) rotate(-78.8979)">
				<title>Sheet.1501</title>
				<path d="M0 105.19 L47.32 105.19" class="st8"/>
			</g>
			<g id="shape1502-72" v:mID="1502" v:groupContext="shape" v:layerMember="2"
					transform="translate(418.914,17.3371) rotate(73.8289)">
				<title>Sheet.1502</title>
				<path d="M0 105.19 L49.43 105.19" class="st8"/>
			</g>
			<g id="shape1507-75" v:mID="1507" v:groupContext="shape" v:layerMember="2"
					transform="translate(411.313,25.4104) rotate(49.2268)">
				<title>Sheet.1507</title>
				<path d="M0 105.19 L13.02 105.19" class="st8"/>
			</g>
		</g>
	</g>
</svg>
