<?xml version="1.0" encoding="UTF-8" standalone="no"?>
<!DOCTYPE svg PUBLIC "-//W3C//DTD SVG 1.1//EN" "http://www.w3.org/Graphics/SVG/1.1/DTD/svg11.dtd">
<!-- Generated by Microsoft Visio, SVG Export PE033A_Origo.svg Page-1 -->
<svg xmlns="http://www.w3.org/2000/svg" xmlns:xlink="http://www.w3.org/1999/xlink" xmlns:ev="http://www.w3.org/2001/xml-events"
		width="2.67106in" height="4.05668in" viewBox="0 0 192.316 292.081" xml:space="preserve" color-interpolation-filters="sRGB"
		class="st10">
	<title>PE033A</title>

	<style type="text/css">
	<![CDATA[
		.st1 {fill:none;stroke:#ff0000;stroke-linecap:round;stroke-linejoin:round;stroke-width:0.75}
		.st2 {fill:#ff0000;font-family:Arial Narrow;font-size:0.833336em;font-weight:bold}
		.st3 {fill:none;stroke:none;stroke-linecap:round;stroke-linejoin:round;stroke-width:0.75}
		.st4 {fill:#ff0000;font-family:Arial Narrow;font-size:0.811964em;font-weight:bold}
		.st5 {baseline-shift:33.35%;font-size:0.667em}
		.st6 {fill:none;stroke:#000000;stroke-linecap:round;stroke-linejoin:round;stroke-width:2.25}
		.st7 {stroke:#000000;stroke-linecap:round;stroke-linejoin:round;stroke-width:2.25}
		.st8 {fill:none}
		.st9 {fill:none;stroke:#ff0000;stroke-linecap:round;stroke-linejoin:round;stroke-width:2.25}
		.st10 {fill:none;fill-rule:evenodd;font-size:12px;overflow:visible;stroke-linecap:square;stroke-miterlimit:3}
	]]>
	</style>

	<g>
		<title>Page-1</title>
		<g id="group1420-1" transform="translate(104.76,-163.595)">
			<title>Sheet.1420</title>
			<g id="shape1421-2" transform="translate(2.14165,1.13687E-13)">
				<title>Sheet.1421</title>
				<desc>1</desc>
				<rect x="0" y="277.908" width="85.0394" height="14.1732" class="st1"/>
				<text x="40.24" y="287.99" class="st2">1</text>			</g>
			<g id="shape1422-5" transform="translate(0,-4.47576)">
				<title>Sheet.1422</title>
				<desc>A</desc>
				<rect x="0" y="277.908" width="13.2348" height="14.1732" class="st3"/>
				<text x="4" y="291.6" class="st4"><tspan class="st5">A</tspan></text>			</g>
		</g>
		<g id="group1592-9" transform="translate(7.68944,-7.68944)">
			<title>STPE019.110</title>
			<g id="shape1593-10">
				<title>Sheet.1593</title>
				<path d="M0 292.08 L56.66 292.08 L56.66 122.12 L0 122.12 L0 292.08 L0 292.08 Z" class="st6"/>
			</g>
			<g id="shape1594-12" transform="translate(56.6553,434.673) rotate(180)">
				<title>Sheet.1594</title>
				<path d="M0 292.08 L21.21 292.08" class="st7"/>
			</g>
			<g id="shape1595-15" transform="translate(56.6553,477.164) rotate(180)">
				<title>Sheet.1595</title>
				<path d="M0 292.08 L21.21 292.08" class="st7"/>
			</g>
			<g id="shape1596-18" transform="translate(56.6553,519.656) rotate(180)">
				<title>Sheet.1596</title>
				<path d="M0 292.08 L21.21 292.08" class="st7"/>
			</g>
			<g id="shape1597-21" transform="translate(56.6553,562.147) rotate(180)">
				<title>Sheet.1597</title>
				<path d="M0 292.08 L21.21 292.08" class="st7"/>
			</g>
			<g id="shape1598-24" transform="translate(-263.168,122.133) rotate(-90.0035)">
				<title>Sheet.1598</title>
				<path d="M0 292.08 L90.68 292.08" class="st7"/>
			</g>
			<g id="shape1599-27" transform="translate(28.9026,-254.939)">
				<title>Sheet.1599</title>
				<path d="M56.08 292.08 A28.3276 28.3276 -180 0 0 -0 286.38 L56.08 292.08 Z" class="st8"/>
				<path d="M56.08 292.08 A28.3276 28.3276 -180 0 0 -0 286.38" class="st7"/>
			</g>
		</g>
		<g id="shape1600-30" transform="translate(1.125,-1.125)">
			<title>Circle</title>
			<path d="M0 285.52 A6.56444 6.56444 0 0 1 13.13 285.52 A6.56444 6.56444 0 1 1 0 285.52 Z" class="st9"/>
		</g>
	</g>
</svg>
