<?xml version="1.0" encoding="UTF-8" standalone="no"?>
<!DOCTYPE svg PUBLIC "-//W3C//DTD SVG 1.1//EN" "http://www.w3.org/Graphics/SVG/1.1/DTD/svg11.dtd">
<!-- Generated by Microsoft Visio, SVG Export PE032A_Label.svg Page-1 -->
<svg xmlns="http://www.w3.org/2000/svg" xmlns:xlink="http://www.w3.org/1999/xlink" xmlns:ev="http://www.w3.org/2001/xml-events"
		xmlns:v="http://schemas.microsoft.com/visio/2003/SVGExtensions/" width="2.98846in" height="3.28032in"
		viewBox="0 0 215.169 236.183" xml:space="preserve" color-interpolation-filters="sRGB" class="st10">
	<title>PE032A</title>
	<v:documentProperties v:langID="2057" v:metric="true" v:viewMarkup="false"/>

	<style type="text/css">
	<![CDATA[
		.st1 {fill:none;stroke:#ff0000;stroke-linecap:round;stroke-linejoin:round;stroke-width:0.75}
		.st2 {fill:#ff0000;font-family:Arial Narrow;font-size:0.833336em;font-weight:bold}
		.st3 {fill:none;stroke:none;stroke-linecap:round;stroke-linejoin:round;stroke-width:0.75}
		.st4 {fill:#ff0000;font-family:Arial Narrow;font-size:0.811964em;font-weight:bold}
		.st5 {baseline-shift:33.35%;font-size:0.667em}
		.st6 {fill:none;stroke:#ff0000;stroke-linecap:round;stroke-linejoin:round;stroke-width:2.25}
		.st7 {fill:none}
		.st8 {stroke:#000000;stroke-linecap:round;stroke-linejoin:round;stroke-width:2.25}
		.st9 {fill:none;stroke:#000000;stroke-linecap:round;stroke-linejoin:round;stroke-width:2.25}
		.st10 {fill:none;fill-rule:evenodd;font-size:12px;overflow:visible;stroke-linecap:square;stroke-miterlimit:3}
	]]>
	</style>

	<g v:mID="0" v:index="1" v:groupContext="foregroundPage">
		<title>Page-1</title>
		<v:pageProperties v:drawingScale="0.0393701" v:pageScale="0.0393701" v:drawingUnits="24" v:shadowOffsetX="8.50394"
				v:shadowOffsetY="-8.50394"/>
		<v:layer v:name="Label" v:index="0"/>
		<v:layer v:name="Origo" v:index="1"/>
		<v:layer v:name="Symbol" v:index="2"/>
		<g id="group1420-1" transform="translate(127.613,-128.684)" v:mID="1420" v:groupContext="group" v:layerMember="0">
			<title>Sheet.1420</title>
			<g id="shape1421-2" v:mID="1421" v:groupContext="shape" v:layerMember="0" transform="translate(2.14165,1.13687E-13)">
				<title>Sheet.1421</title>
				<desc>1</desc>
				<v:textBlock v:margins="rect(4,4,4,4)" v:tabSpace="42.5197"/>
				<v:textRect cx="42.5197" cy="229.096" width="85.04" height="14.1732"/>
				<rect x="0" y="222.01" width="85.0394" height="14.1732" class="st1"/>
				<text x="40.24" y="232.1" class="st2" v:langID="2057"><v:paragraph v:horizAlign="1"/><v:tabList/>1</text>			</g>
			<g id="shape1422-5" v:mID="1422" v:groupContext="shape" v:layerMember="0" transform="translate(0,-4.47576)">
				<title>Sheet.1422</title>
				<desc>A</desc>
				<v:textBlock v:margins="rect(4,4,4,4)" v:tabSpace="42.5197" v:verticalAlign="0"/>
				<v:textRect cx="6.61741" cy="229.096" width="13.24" height="14.1732"/>
				<rect x="0" y="222.01" width="13.2348" height="14.1732" class="st3"/>
				<text x="4" y="235.7" class="st4" v:langID="2057"><v:paragraph/><v:tabList/><tspan class="st5">A</tspan></text>			</g>
		</g>
		<g id="shape1591-9" v:mID="1591" v:groupContext="shape" v:layerMember="1" transform="translate(51.2535,-221.929)">
			<title>Circle</title>
			<v:userDefs>
				<v:ud v:nameU="visVersion" v:val="VT0(15):26"/>
				<v:ud v:nameU="visMasterStencil" v:prompt="" v:val="VT4(Basic_M.vssx)"/>
			</v:userDefs>
			<path d="M0 229.62 A6.56444 6.56444 0 0 1 13.13 229.62 A6.56444 6.56444 0 1 1 0 229.62 Z" class="st6"/>
		</g>
		<g id="group1593-11" transform="translate(1.125,-1.125)" v:mID="1593" v:groupContext="group" v:layerMember="2">
			<v:userDefs>
				<v:ud v:nameU="SOLSH" v:prompt="" v:val="VT4({13D0FF3B-CF5B-4a46-98AB-14030248EAEF})"/>
				<v:ud v:nameU="DWGEntityType" v:prompt="" v:val="VT4(INSERT)"/>
			</v:userDefs>
			<title>STPP014.70</title>
			<g id="shape1594-12" v:mID="1594" v:groupContext="shape" v:layerMember="2" transform="translate(99.2126,-14.1732)">
				<title>Sheet.1594</title>
				<v:userDefs>
					<v:ud v:nameU="DWGOriginalColor" v:prompt="This shapes Original DWG color." v:val="VT4(3)"/>
					<v:ud v:nameU="DWGOriginalLayer" v:prompt="This shapes Original DWG layer." v:val="VT4(26-SYM-035-SP)"/>
				</v:userDefs>
				<path d="M0 165.32 L0 236.18 L0 236.18 L0 165.32 Z" class="st7"/>
				<path d="M0 165.32 L0 236.18 L0 236.18" class="st8"/>
			</g>
			<g id="shape1595-15" v:mID="1595" v:groupContext="shape" v:layerMember="2" transform="translate(95.6972,-99.2126)">
				<title>Sheet.1595</title>
				<v:userDefs>
					<v:ud v:nameU="DWGOriginalColor" v:prompt="This shapes Original DWG color." v:val="VT4(3)"/>
					<v:ud v:nameU="DWGOriginalLayer" v:prompt="This shapes Original DWG layer." v:val="VT4(26-SYM-035-SP)"/>
				</v:userDefs>
				<path d="M0 236.18 L17.69 218.44 L17.69 218.44 L0 236.18 Z" class="st7"/>
				<path d="M0 236.18 L17.69 218.44 L17.69 218.44" class="st8"/>
			</g>
			<g id="shape1596-18" v:mID="1596" v:groupContext="shape" v:layerMember="2" transform="translate(0,-99.2126)">
				<title>Sheet.1596</title>
				<v:userDefs>
					<v:ud v:nameU="DWGOriginalColor" v:prompt="This shapes Original DWG color." v:val="VT4(3)"/>
					<v:ud v:nameU="DWGOriginalLayer" v:prompt="This shapes Original DWG layer." v:val="VT4(26-SYM-035-SP)"/>
				</v:userDefs>
				<path d="M0 236.18 L113.39 236.18 L113.39 236.18 L0 236.18 Z" class="st7"/>
				<path d="M0 236.18 L113.39 236.18 L113.39 236.18" class="st8"/>
			</g>
			<g id="shape1597-21" v:mID="1597" v:groupContext="shape" v:layerMember="2" transform="translate(70.8661,-14.1732)">
				<title>Sheet.1597</title>
				<v:userDefs>
					<v:ud v:nameU="DWGOriginalColor" v:prompt="This shapes Original DWG color." v:val="VT4(3)"/>
					<v:ud v:nameU="DWGOriginalLayer" v:prompt="This shapes Original DWG layer." v:val="VT4(26-SYM-035-SP)"/>
				</v:userDefs>
				<path d="M0 165.32 L0 236.18 L0 236.18 L0 165.32 Z" class="st7"/>
				<path d="M0 165.32 L0 236.18 L0 236.18" class="st8"/>
			</g>
			<g id="shape1598-24" v:mID="1598" v:groupContext="shape" v:layerMember="2">
				<title>Sheet.1598</title>
				<v:userDefs>
					<v:ud v:nameU="DWGOriginalColor" v:prompt="This shapes Original DWG color." v:val="VT4(3)"/>
					<v:ud v:nameU="DWGOriginalLayer" v:prompt="This shapes Original DWG layer." v:val="VT4(26-SYM-035-SP)"/>
				</v:userDefs>
				<path d="M0 9.41 L113.39 9.41 L113.39 236.18 L0 236.18 L0 9.41 L0 9.41 Z" class="st9"/>
			</g>
			<g id="shape1599-26" v:mID="1599" v:groupContext="shape" v:layerMember="2" transform="translate(0,-127.559)">
				<title>Sheet.1599</title>
				<v:userDefs>
					<v:ud v:nameU="DWGOriginalColor" v:prompt="This shapes Original DWG color." v:val="VT4(3)"/>
					<v:ud v:nameU="DWGOriginalLayer" v:prompt="This shapes Original DWG layer." v:val="VT4(26-SYM-035-SP)"/>
				</v:userDefs>
				<path d="M0 236.18 L113.39 236.18 L113.39 236.18 L0 236.18 Z" class="st7"/>
				<path d="M0 236.18 L113.39 236.18 L113.39 236.18" class="st8"/>
			</g>
			<g id="shape1600-29" v:mID="1600" v:groupContext="shape" v:layerMember="2" transform="translate(0,-120.472)">
				<title>Sheet.1600</title>
				<v:userDefs>
					<v:ud v:nameU="DWGOriginalColor" v:prompt="This shapes Original DWG color." v:val="VT4(3)"/>
					<v:ud v:nameU="DWGOriginalLayer" v:prompt="This shapes Original DWG layer." v:val="VT4(26-SYM-035-SP)"/>
				</v:userDefs>
				<path d="M0 236.18 L7.09 229.1 L7.09 229.1 L0 236.18 Z" class="st7"/>
				<path d="M0 236.18 L7.09 229.1 L7.09 229.1" class="st8"/>
			</g>
			<g id="shape1601-32" v:mID="1601" v:groupContext="shape" v:layerMember="2" transform="translate(28.3465,-14.1732)">
				<title>Sheet.1601</title>
				<v:userDefs>
					<v:ud v:nameU="DWGOriginalColor" v:prompt="This shapes Original DWG color." v:val="VT4(3)"/>
					<v:ud v:nameU="DWGOriginalLayer" v:prompt="This shapes Original DWG layer." v:val="VT4(26-SYM-035-SP)"/>
				</v:userDefs>
				<path d="M0 165.32 L0 236.18 L0 236.18 L0 165.32 Z" class="st7"/>
				<path d="M0 165.32 L0 236.18 L0 236.18" class="st8"/>
			</g>
			<g id="shape1602-35" v:mID="1602" v:groupContext="shape" v:layerMember="2" transform="translate(2.29816E-13,-109.815)">
				<title>Sheet.1602</title>
				<v:userDefs>
					<v:ud v:nameU="DWGOriginalColor" v:prompt="This shapes Original DWG color." v:val="VT4(3)"/>
					<v:ud v:nameU="DWGOriginalLayer" v:prompt="This shapes Original DWG layer." v:val="VT4(26-SYM-035-SP)"/>
				</v:userDefs>
				<path d="M0 236.18 L17.69 218.44 L17.69 218.44 L0 236.18 Z" class="st7"/>
				<path d="M0 236.18 L17.69 218.44 L17.69 218.44" class="st8"/>
			</g>
			<g id="shape1603-38" v:mID="1603" v:groupContext="shape" v:layerMember="2" transform="translate(0,-99.2126)">
				<title>Sheet.1603</title>
				<v:userDefs>
					<v:ud v:nameU="DWGOriginalColor" v:prompt="This shapes Original DWG color." v:val="VT4(3)"/>
					<v:ud v:nameU="DWGOriginalLayer" v:prompt="This shapes Original DWG layer." v:val="VT4(26-SYM-035-SP)"/>
				</v:userDefs>
				<path d="M0 236.18 L28.35 207.84 L28.35 207.84 L0 236.18 Z" class="st7"/>
				<path d="M0 236.18 L28.35 207.84 L28.35 207.84" class="st8"/>
			</g>
			<g id="shape1604-41" v:mID="1604" v:groupContext="shape" v:layerMember="2" transform="translate(106.299,-120.472)">
				<title>Sheet.1604</title>
				<v:userDefs>
					<v:ud v:nameU="DWGOriginalColor" v:prompt="This shapes Original DWG color." v:val="VT4(3)"/>
					<v:ud v:nameU="DWGOriginalLayer" v:prompt="This shapes Original DWG layer." v:val="VT4(26-SYM-035-SP)"/>
				</v:userDefs>
				<path d="M7.09 236.18 L0 229.1 L0 229.1 L7.09 236.18 Z" class="st7"/>
				<path d="M7.09 236.18 L0 229.1 L0 229.1" class="st8"/>
			</g>
			<g id="shape1605-44" v:mID="1605" v:groupContext="shape" v:layerMember="2" transform="translate(56.6929,-14.1732)">
				<title>Sheet.1605</title>
				<v:userDefs>
					<v:ud v:nameU="DWGOriginalColor" v:prompt="This shapes Original DWG color." v:val="VT4(3)"/>
					<v:ud v:nameU="DWGOriginalLayer" v:prompt="This shapes Original DWG layer." v:val="VT4(26-SYM-035-SP)"/>
				</v:userDefs>
				<path d="M0 165.32 L0 236.18 L0 236.18 L0 165.32 Z" class="st7"/>
				<path d="M0 165.32 L0 236.18 L0 236.18" class="st8"/>
			</g>
			<g id="shape1606-47" v:mID="1606" v:groupContext="shape" v:layerMember="2" transform="translate(95.6972,-109.815)">
				<title>Sheet.1606</title>
				<v:userDefs>
					<v:ud v:nameU="DWGOriginalColor" v:prompt="This shapes Original DWG color." v:val="VT4(3)"/>
					<v:ud v:nameU="DWGOriginalLayer" v:prompt="This shapes Original DWG layer." v:val="VT4(26-SYM-035-SP)"/>
				</v:userDefs>
				<path d="M17.69 236.18 L0 218.44 L0 218.44 L17.69 236.18 Z" class="st7"/>
				<path d="M17.69 236.18 L0 218.44 L0 218.44" class="st8"/>
			</g>
			<g id="shape1607-50" v:mID="1607" v:groupContext="shape" v:layerMember="2" transform="translate(0,-99.2126)">
				<title>Sheet.1607</title>
				<v:userDefs>
					<v:ud v:nameU="DWGOriginalColor" v:prompt="This shapes Original DWG color." v:val="VT4(3)"/>
					<v:ud v:nameU="DWGOriginalLayer" v:prompt="This shapes Original DWG layer." v:val="VT4(26-SYM-035-SP)"/>
				</v:userDefs>
				<path d="M7.09 236.18 L0 229.1 L0 229.1 L7.09 236.18 Z" class="st7"/>
				<path d="M7.09 236.18 L0 229.1 L0 229.1" class="st8"/>
			</g>
			<g id="shape1608-53" v:mID="1608" v:groupContext="shape" v:layerMember="2" transform="translate(2.29816E-13,-99.2126)">
				<title>Sheet.1608</title>
				<v:userDefs>
					<v:ud v:nameU="DWGOriginalColor" v:prompt="This shapes Original DWG color." v:val="VT4(3)"/>
					<v:ud v:nameU="DWGOriginalLayer" v:prompt="This shapes Original DWG layer." v:val="VT4(26-SYM-035-SP)"/>
				</v:userDefs>
				<path d="M17.69 236.18 L0 218.44 L0 218.44 L17.69 236.18 Z" class="st7"/>
				<path d="M17.69 236.18 L0 218.44 L0 218.44" class="st8"/>
			</g>
			<g id="shape1609-56" v:mID="1609" v:groupContext="shape" v:layerMember="2" transform="translate(0,-99.2126)">
				<title>Sheet.1609</title>
				<v:userDefs>
					<v:ud v:nameU="DWGOriginalColor" v:prompt="This shapes Original DWG color." v:val="VT4(3)"/>
					<v:ud v:nameU="DWGOriginalLayer" v:prompt="This shapes Original DWG layer." v:val="VT4(26-SYM-035-SP)"/>
				</v:userDefs>
				<path d="M28.35 236.18 L0 207.84 L0 207.84 L28.35 236.18 Z" class="st7"/>
				<path d="M28.35 236.18 L0 207.84 L0 207.84" class="st8"/>
			</g>
			<g id="shape1610-59" v:mID="1610" v:groupContext="shape" v:layerMember="2" transform="translate(10.602,-99.2126)">
				<title>Sheet.1610</title>
				<v:userDefs>
					<v:ud v:nameU="DWGOriginalColor" v:prompt="This shapes Original DWG color." v:val="VT4(3)"/>
					<v:ud v:nameU="DWGOriginalLayer" v:prompt="This shapes Original DWG layer." v:val="VT4(26-SYM-035-SP)"/>
				</v:userDefs>
				<path d="M28.35 236.18 L0 207.84 L0 207.84 L28.35 236.18 Z" class="st7"/>
				<path d="M28.35 236.18 L0 207.84 L0 207.84" class="st8"/>
			</g>
			<g id="shape1611-62" v:mID="1611" v:groupContext="shape" v:layerMember="2" transform="translate(42.5197,-14.1732)">
				<title>Sheet.1611</title>
				<v:userDefs>
					<v:ud v:nameU="DWGOriginalColor" v:prompt="This shapes Original DWG color." v:val="VT4(3)"/>
					<v:ud v:nameU="DWGOriginalLayer" v:prompt="This shapes Original DWG layer." v:val="VT4(26-SYM-035-SP)"/>
				</v:userDefs>
				<path d="M0 165.32 L0 236.18 L0 236.18 L0 165.32 Z" class="st7"/>
				<path d="M0 165.32 L0 236.18 L0 236.18" class="st8"/>
			</g>
			<g id="shape1612-65" v:mID="1612" v:groupContext="shape" v:layerMember="2" transform="translate(85.0394,-99.2126)">
				<title>Sheet.1612</title>
				<v:userDefs>
					<v:ud v:nameU="DWGOriginalColor" v:prompt="This shapes Original DWG color." v:val="VT4(3)"/>
					<v:ud v:nameU="DWGOriginalLayer" v:prompt="This shapes Original DWG layer." v:val="VT4(26-SYM-035-SP)"/>
				</v:userDefs>
				<path d="M28.35 236.18 L0 207.84 L0 207.84 L28.35 236.18 Z" class="st7"/>
				<path d="M28.35 236.18 L0 207.84 L0 207.84" class="st8"/>
			</g>
			<g id="shape1613-68" v:mID="1613" v:groupContext="shape" v:layerMember="2" transform="translate(85.0394,-14.1732)">
				<title>Sheet.1613</title>
				<v:userDefs>
					<v:ud v:nameU="DWGOriginalColor" v:prompt="This shapes Original DWG color." v:val="VT4(3)"/>
					<v:ud v:nameU="DWGOriginalLayer" v:prompt="This shapes Original DWG layer." v:val="VT4(26-SYM-035-SP)"/>
				</v:userDefs>
				<path d="M0 165.32 L0 236.18 L0 236.18 L0 165.32 Z" class="st7"/>
				<path d="M0 165.32 L0 236.18 L0 236.18" class="st8"/>
			</g>
			<g id="shape1614-71" v:mID="1614" v:groupContext="shape" v:layerMember="2" transform="translate(106.299,-99.2126)">
				<title>Sheet.1614</title>
				<v:userDefs>
					<v:ud v:nameU="DWGOriginalColor" v:prompt="This shapes Original DWG color." v:val="VT4(3)"/>
					<v:ud v:nameU="DWGOriginalLayer" v:prompt="This shapes Original DWG layer." v:val="VT4(26-SYM-035-SP)"/>
				</v:userDefs>
				<path d="M0 236.18 L7.09 229.1 L7.09 229.1 L0 236.18 Z" class="st7"/>
				<path d="M0 236.18 L7.09 229.1 L7.09 229.1" class="st8"/>
			</g>
			<g id="shape1615-74" v:mID="1615" v:groupContext="shape" v:layerMember="2" transform="translate(74.4374,-99.2126)">
				<title>Sheet.1615</title>
				<v:userDefs>
					<v:ud v:nameU="DWGOriginalColor" v:prompt="This shapes Original DWG color." v:val="VT4(3)"/>
					<v:ud v:nameU="DWGOriginalLayer" v:prompt="This shapes Original DWG layer." v:val="VT4(26-SYM-035-SP)"/>
				</v:userDefs>
				<path d="M28.35 236.18 L0 207.84 L0 207.84 L28.35 236.18 Z" class="st7"/>
				<path d="M28.35 236.18 L0 207.84 L0 207.84" class="st8"/>
			</g>
			<g id="shape1616-77" v:mID="1616" v:groupContext="shape" v:layerMember="2" transform="translate(63.7795,-99.2126)">
				<title>Sheet.1616</title>
				<v:userDefs>
					<v:ud v:nameU="DWGOriginalColor" v:prompt="This shapes Original DWG color." v:val="VT4(3)"/>
					<v:ud v:nameU="DWGOriginalLayer" v:prompt="This shapes Original DWG layer." v:val="VT4(26-SYM-035-SP)"/>
				</v:userDefs>
				<path d="M28.35 236.18 L0 207.84 L0 207.84 L28.35 236.18 Z" class="st7"/>
				<path d="M28.35 236.18 L0 207.84 L0 207.84" class="st8"/>
			</g>
			<g id="shape1617-80" v:mID="1617" v:groupContext="shape" v:layerMember="2" transform="translate(53.1217,-99.2126)">
				<title>Sheet.1617</title>
				<v:userDefs>
					<v:ud v:nameU="DWGOriginalColor" v:prompt="This shapes Original DWG color." v:val="VT4(3)"/>
					<v:ud v:nameU="DWGOriginalLayer" v:prompt="This shapes Original DWG layer." v:val="VT4(26-SYM-035-SP)"/>
				</v:userDefs>
				<path d="M28.4 236.18 L0 207.84 L0 207.84 L28.4 236.18 Z" class="st7"/>
				<path d="M28.4 236.18 L0 207.84 L0 207.84" class="st8"/>
			</g>
			<g id="shape1618-83" v:mID="1618" v:groupContext="shape" v:layerMember="2" transform="translate(42.5197,-99.2126)">
				<title>Sheet.1618</title>
				<v:userDefs>
					<v:ud v:nameU="DWGOriginalColor" v:prompt="This shapes Original DWG color." v:val="VT4(3)"/>
					<v:ud v:nameU="DWGOriginalLayer" v:prompt="This shapes Original DWG layer." v:val="VT4(26-SYM-035-SP)"/>
				</v:userDefs>
				<path d="M28.35 236.18 L0 207.84 L0 207.84 L28.35 236.18 Z" class="st7"/>
				<path d="M28.35 236.18 L0 207.84 L0 207.84" class="st8"/>
			</g>
			<g id="shape1619-86" v:mID="1619" v:groupContext="shape" v:layerMember="2" transform="translate(31.8619,-99.2126)">
				<title>Sheet.1619</title>
				<v:userDefs>
					<v:ud v:nameU="DWGOriginalColor" v:prompt="This shapes Original DWG color." v:val="VT4(3)"/>
					<v:ud v:nameU="DWGOriginalLayer" v:prompt="This shapes Original DWG layer." v:val="VT4(26-SYM-035-SP)"/>
				</v:userDefs>
				<path d="M28.4 236.18 L0 207.84 L0 207.84 L28.4 236.18 Z" class="st7"/>
				<path d="M28.4 236.18 L0 207.84 L0 207.84" class="st8"/>
			</g>
			<g id="shape1620-89" v:mID="1620" v:groupContext="shape" v:layerMember="2" transform="translate(21.2598,-99.2126)">
				<title>Sheet.1620</title>
				<v:userDefs>
					<v:ud v:nameU="DWGOriginalColor" v:prompt="This shapes Original DWG color." v:val="VT4(3)"/>
					<v:ud v:nameU="DWGOriginalLayer" v:prompt="This shapes Original DWG layer." v:val="VT4(26-SYM-035-SP)"/>
				</v:userDefs>
				<path d="M28.35 236.18 L0 207.84 L0 207.84 L28.35 236.18 Z" class="st7"/>
				<path d="M28.35 236.18 L0 207.84 L0 207.84" class="st8"/>
			</g>
			<g id="shape1621-92" v:mID="1621" v:groupContext="shape" v:layerMember="2" transform="translate(10.602,-99.2126)">
				<title>Sheet.1621</title>
				<v:userDefs>
					<v:ud v:nameU="DWGOriginalColor" v:prompt="This shapes Original DWG color." v:val="VT4(3)"/>
					<v:ud v:nameU="DWGOriginalLayer" v:prompt="This shapes Original DWG layer." v:val="VT4(26-SYM-035-SP)"/>
				</v:userDefs>
				<path d="M0 236.18 L28.35 207.84 L28.35 207.84 L0 236.18 Z" class="st7"/>
				<path d="M0 236.18 L28.35 207.84 L28.35 207.84" class="st8"/>
			</g>
			<g id="shape1622-95" v:mID="1622" v:groupContext="shape" v:layerMember="2" transform="translate(21.2598,-99.2126)">
				<title>Sheet.1622</title>
				<v:userDefs>
					<v:ud v:nameU="DWGOriginalColor" v:prompt="This shapes Original DWG color." v:val="VT4(3)"/>
					<v:ud v:nameU="DWGOriginalLayer" v:prompt="This shapes Original DWG layer." v:val="VT4(26-SYM-035-SP)"/>
				</v:userDefs>
				<path d="M0 236.18 L28.35 207.84 L28.35 207.84 L0 236.18 Z" class="st7"/>
				<path d="M0 236.18 L28.35 207.84 L28.35 207.84" class="st8"/>
			</g>
			<g id="shape1623-98" v:mID="1623" v:groupContext="shape" v:layerMember="2" transform="translate(31.8619,-99.2126)">
				<title>Sheet.1623</title>
				<v:userDefs>
					<v:ud v:nameU="DWGOriginalColor" v:prompt="This shapes Original DWG color." v:val="VT4(3)"/>
					<v:ud v:nameU="DWGOriginalLayer" v:prompt="This shapes Original DWG layer." v:val="VT4(26-SYM-035-SP)"/>
				</v:userDefs>
				<path d="M0 236.18 L28.4 207.84 L28.4 207.84 L0 236.18 Z" class="st7"/>
				<path d="M0 236.18 L28.4 207.84 L28.4 207.84" class="st8"/>
			</g>
			<g id="shape1624-101" v:mID="1624" v:groupContext="shape" v:layerMember="2" transform="translate(42.5197,-99.2126)">
				<title>Sheet.1624</title>
				<v:userDefs>
					<v:ud v:nameU="DWGOriginalColor" v:prompt="This shapes Original DWG color." v:val="VT4(3)"/>
					<v:ud v:nameU="DWGOriginalLayer" v:prompt="This shapes Original DWG layer." v:val="VT4(26-SYM-035-SP)"/>
				</v:userDefs>
				<path d="M0 236.18 L28.35 207.84 L28.35 207.84 L0 236.18 Z" class="st7"/>
				<path d="M0 236.18 L28.35 207.84 L28.35 207.84" class="st8"/>
			</g>
			<g id="shape1625-104" v:mID="1625" v:groupContext="shape" v:layerMember="2" transform="translate(53.1217,-99.2126)">
				<title>Sheet.1625</title>
				<v:userDefs>
					<v:ud v:nameU="DWGOriginalColor" v:prompt="This shapes Original DWG color." v:val="VT4(3)"/>
					<v:ud v:nameU="DWGOriginalLayer" v:prompt="This shapes Original DWG layer." v:val="VT4(26-SYM-035-SP)"/>
				</v:userDefs>
				<path d="M0 236.18 L28.4 207.84 L28.4 207.84 L0 236.18 Z" class="st7"/>
				<path d="M0 236.18 L28.4 207.84 L28.4 207.84" class="st8"/>
			</g>
			<g id="shape1626-107" v:mID="1626" v:groupContext="shape" v:layerMember="2" transform="translate(14.1732,-14.1732)">
				<title>Sheet.1626</title>
				<v:userDefs>
					<v:ud v:nameU="DWGOriginalColor" v:prompt="This shapes Original DWG color." v:val="VT4(3)"/>
					<v:ud v:nameU="DWGOriginalLayer" v:prompt="This shapes Original DWG layer." v:val="VT4(26-SYM-035-SP)"/>
				</v:userDefs>
				<path d="M0 165.32 L0 236.18 L0 236.18 L0 165.32 Z" class="st7"/>
				<path d="M0 165.32 L0 236.18 L0 236.18" class="st8"/>
			</g>
			<g id="shape1627-110" v:mID="1627" v:groupContext="shape" v:layerMember="2" transform="translate(74.4374,-99.2126)">
				<title>Sheet.1627</title>
				<v:userDefs>
					<v:ud v:nameU="DWGOriginalColor" v:prompt="This shapes Original DWG color." v:val="VT4(3)"/>
					<v:ud v:nameU="DWGOriginalLayer" v:prompt="This shapes Original DWG layer." v:val="VT4(26-SYM-035-SP)"/>
				</v:userDefs>
				<path d="M0 236.18 L28.35 207.84 L28.35 207.84 L0 236.18 Z" class="st7"/>
				<path d="M0 236.18 L28.35 207.84 L28.35 207.84" class="st8"/>
			</g>
			<g id="shape1628-113" v:mID="1628" v:groupContext="shape" v:layerMember="2" transform="translate(85.0394,-99.2126)">
				<title>Sheet.1628</title>
				<v:userDefs>
					<v:ud v:nameU="DWGOriginalColor" v:prompt="This shapes Original DWG color." v:val="VT4(3)"/>
					<v:ud v:nameU="DWGOriginalLayer" v:prompt="This shapes Original DWG layer." v:val="VT4(26-SYM-035-SP)"/>
				</v:userDefs>
				<path d="M0 236.18 L28.35 207.84 L28.35 207.84 L0 236.18 Z" class="st7"/>
				<path d="M0 236.18 L28.35 207.84 L28.35 207.84" class="st8"/>
			</g>
			<g id="shape1629-116" v:mID="1629" v:groupContext="shape" v:layerMember="2" transform="translate(63.7795,-99.2126)">
				<title>Sheet.1629</title>
				<v:userDefs>
					<v:ud v:nameU="DWGOriginalColor" v:prompt="This shapes Original DWG color." v:val="VT4(3)"/>
					<v:ud v:nameU="DWGOriginalLayer" v:prompt="This shapes Original DWG layer." v:val="VT4(26-SYM-035-SP)"/>
				</v:userDefs>
				<path d="M0 236.18 L28.35 207.84 L28.35 207.84 L0 236.18 Z" class="st7"/>
				<path d="M0 236.18 L28.35 207.84 L28.35 207.84" class="st8"/>
			</g>
		</g>
	</g>
</svg>
