<?xml version="1.0" encoding="UTF-8" standalone="no"?>
<!DOCTYPE svg PUBLIC "-//W3C//DTD SVG 1.1//EN" "http://www.w3.org/Graphics/SVG/1.1/DTD/svg11.dtd">
<!-- Generated by Microsoft Visio, SVG Export PE038A_Origo.svg Page-1 -->
<svg xmlns="http://www.w3.org/2000/svg" xmlns:xlink="http://www.w3.org/1999/xlink" xmlns:ev="http://www.w3.org/2001/xml-events"
		width="8.28942in" height="2.48464in" viewBox="0 0 596.838 178.894" xml:space="preserve" color-interpolation-filters="sRGB"
		class="st9">
	<title>PE038A</title>

	<style type="text/css">
	<![CDATA[
		.st1 {stroke:#000000;stroke-linecap:round;stroke-linejoin:round;stroke-width:2.25}
		.st2 {fill:none}
		.st3 {fill:none;stroke:#ff0000;stroke-linecap:round;stroke-linejoin:round;stroke-width:2.25}
		.st4 {fill:none;stroke:#ff0000;stroke-linecap:round;stroke-linejoin:round;stroke-width:0.75}
		.st5 {fill:#ff0000;font-family:Arial Narrow;font-size:0.833336em;font-weight:bold}
		.st6 {fill:none;stroke:none;stroke-linecap:round;stroke-linejoin:round;stroke-width:0.75}
		.st7 {fill:#ff0000;font-family:Arial Narrow;font-size:0.811964em;font-weight:bold}
		.st8 {baseline-shift:33.35%;font-size:0.667em}
		.st9 {fill:none;fill-rule:evenodd;font-size:12px;overflow:visible;stroke-linecap:square;stroke-miterlimit:3}
	]]>
	</style>

	<g>
		<title>Page-1</title>
		<g id="group1481-1" transform="translate(28.7843,-1.125)">
			<title>Sheet.1481</title>
			<g id="shape1455-2" transform="translate(56.6933,216.055) rotate(180)">
				<title>Sheet.1455</title>
				<path d="M0 178.89 L56.69 178.89" class="st1"/>
			</g>
			<g id="shape1456-5" transform="translate(0,-28.3467)">
				<title>Sheet.1456</title>
				<path d="M0 178.89 L56.69 178.89" class="st1"/>
			</g>
			<g id="shape1457-8" transform="translate(85.04,-28.3467)">
				<title>Sheet.1457</title>
				<path d="M0 178.89 L368.51 178.89" class="st1"/>
			</g>
			<g id="shape1458-11" transform="translate(249.761,8.81444) rotate(90)">
				<title>Sheet.1458</title>
				<path d="M0 178.89 L170.08 178.89" class="st1"/>
			</g>
			<g id="shape1459-14" transform="translate(56.6933,-170.08)">
				<title>Sheet.1459</title>
				<path d="M0 178.89 L28.35 178.89" class="st1"/>
			</g>
			<g id="shape1460-17" transform="translate(85.04,357.789) rotate(180)">
				<title>Sheet.1460</title>
				<path d="M0 178.89 L28.35 178.89" class="st1"/>
			</g>
			<g id="shape1461-20" transform="translate(-122.201,178.894) rotate(-90)">
				<title>Sheet.1461</title>
				<path d="M0 178.89 L28.35 178.89" class="st1"/>
			</g>
			<g id="shape1462-23" transform="translate(-122.201,150.548) rotate(-90)">
				<title>Sheet.1462</title>
				<path d="M0 178.89 L113.39 178.89" class="st1"/>
			</g>
			<g id="shape1463-26" transform="translate(-122.201,37.1611) rotate(-90)">
				<title>Sheet.1463</title>
				<path d="M0 178.89 L28.35 178.89" class="st1"/>
			</g>
			<g id="shape1464-29" transform="translate(263.934,8.81444) rotate(90)">
				<title>Sheet.1464</title>
				<path d="M0 178.89 L28.36 178.89" class="st1"/>
			</g>
			<g id="shape1465-32" transform="translate(263.934,37.1723) rotate(90)">
				<title>Sheet.1465</title>
				<path d="M0 178.89 L113.38 178.89" class="st1"/>
			</g>
			<g id="shape1466-35" transform="translate(263.934,150.548) rotate(90)">
				<title>Sheet.1466</title>
				<path d="M0 178.89 L28.35 178.89" class="st1"/>
			</g>
			<g id="shape1467-38" transform="translate(481.893,-141.733)">
				<title>Sheet.1467</title>
				<path d="M0 178.89 L56.69 178.89" class="st1"/>
			</g>
			<g id="shape1468-41" transform="translate(538.587,329.442) rotate(180)">
				<title>Sheet.1468</title>
				<path d="M0 178.89 L56.69 178.89" class="st1"/>
			</g>
			<g id="shape1469-44" transform="translate(646.614,8.81444) rotate(90)">
				<title>Sheet.1469</title>
				<path d="M0 178.89 L170.08 178.89" class="st1"/>
			</g>
			<g id="shape1470-47" transform="translate(481.893,187.709) rotate(180)">
				<title>Sheet.1470</title>
				<path d="M0 178.89 L28.35 178.89" class="st1"/>
			</g>
			<g id="shape1471-50" transform="translate(453.547,0)">
				<title>Sheet.1471</title>
				<path d="M0 178.89 L28.35 178.89" class="st1"/>
			</g>
			<g id="shape1472-53" transform="translate(302.999,178.894) rotate(-90)">
				<title>Sheet.1472</title>
				<path d="M0 178.89 L28.35 178.89" class="st1"/>
			</g>
			<g id="shape1473-56" transform="translate(302.999,150.548) rotate(-90)">
				<title>Sheet.1473</title>
				<path d="M0 178.89 L113.39 178.89" class="st1"/>
			</g>
			<g id="shape1474-59" transform="translate(302.999,37.1611) rotate(-90)">
				<title>Sheet.1474</title>
				<path d="M0 178.89 L28.35 178.89" class="st1"/>
			</g>
			<g id="shape1475-62" transform="translate(632.441,8.81444) rotate(90)">
				<title>Sheet.1475</title>
				<path d="M0 178.89 L28.36 178.89" class="st1"/>
			</g>
			<g id="shape1476-65" transform="translate(632.441,37.1723) rotate(90)">
				<title>Sheet.1476</title>
				<path d="M0 178.89 L113.38 178.89" class="st1"/>
			</g>
			<g id="shape1477-68" transform="translate(632.441,150.548) rotate(90)">
				<title>Sheet.1477</title>
				<path d="M0 178.89 L28.35 178.89" class="st1"/>
			</g>
			<g id="shape1478-71" transform="translate(85.04,-141.733)">
				<title>Sheet.1478</title>
				<path d="M0 178.89 L368.51 178.89" class="st1"/>
			</g>
			<g id="shape1479-74" transform="translate(538.582,-28.338)">
				<title>Sheet.1479</title>
				<path d="M-0 178.89 A56.6933 28.3467 90 1 0 0 65.51 L0 178.89 Z" class="st2"/>
				<path d="M-0 178.89 A56.6933 28.3467 90 1 0 0 65.51" class="st1"/>
			</g>
			<g id="shape1480-77" transform="translate(29.034,-28.338) scale(-1,1)">
				<title>Sheet.1480</title>
				<path d="M28.35 178.89 A56.6933 28.3467 90 1 0 28.35 65.51 L28.35 178.89 Z" class="st2"/>
				<path d="M28.35 178.89 A56.6933 28.3467 90 1 0 28.35 65.51" class="st1"/>
			</g>
		</g>
		<g id="shape1490-80" transform="translate(78.9132,-164.641)">
			<title>Circle</title>
			<path d="M0 172.33 A6.56444 6.56444 0 0 1 13.13 172.33 A6.56444 6.56444 0 1 1 0 172.33 Z" class="st3"/>
		</g>
		<g id="group1491-82" transform="translate(267.588,-81.6898)">
			<title>Sheet.1491</title>
			<g id="shape1492-83" transform="translate(2.14165,2.84217E-14)">
				<title>Sheet.1492</title>
				<desc>1</desc>
				<rect x="0" y="164.721" width="85.0394" height="14.1732" class="st4"/>
				<text x="40.24" y="174.81" class="st5">1</text>			</g>
			<g id="shape1493-86" transform="translate(0,-4.47576)">
				<title>Sheet.1493</title>
				<desc>A</desc>
				<rect x="0" y="164.721" width="13.2348" height="14.1732" class="st6"/>
				<text x="4" y="178.41" class="st7"><tspan class="st8">A</tspan></text>			</g>
		</g>
	</g>
</svg>
