<?xml version="1.0" encoding="UTF-8" standalone="no"?>
<!DOCTYPE svg PUBLIC "-//W3C//DTD SVG 1.1//EN" "http://www.w3.org/Graphics/SVG/1.1/DTD/svg11.dtd">
<!-- Generated by Microsoft Visio, SVG Export PE031A_Origo.svg Page-1 -->
<svg xmlns="http://www.w3.org/2000/svg" xmlns:xlink="http://www.w3.org/1999/xlink" xmlns:ev="http://www.w3.org/2001/xml-events"
		width="4.84683in" height="1.46095in" viewBox="0 0 348.972 105.189" xml:space="preserve" color-interpolation-filters="sRGB"
		class="st9">
	<title>PE031A</title>

	<style type="text/css">
	<![CDATA[
		.st1 {fill:none;stroke:#ff0000;stroke-linecap:round;stroke-linejoin:round;stroke-width:0.75}
		.st2 {fill:#ff0000;font-family:Arial Narrow;font-size:0.833336em;font-weight:bold}
		.st3 {fill:none;stroke:none;stroke-linecap:round;stroke-linejoin:round;stroke-width:0.75}
		.st4 {fill:#ff0000;font-family:Arial Narrow;font-size:0.811964em;font-weight:bold}
		.st5 {baseline-shift:33.35%;font-size:0.667em}
		.st6 {fill:none;stroke:#ff0000;stroke-linecap:round;stroke-linejoin:round;stroke-width:2.25}
		.st7 {fill:none}
		.st8 {stroke:#000000;stroke-linecap:round;stroke-linejoin:round;stroke-width:2.25}
		.st9 {fill:none;fill-rule:evenodd;font-size:12px;overflow:visible;stroke-linecap:square;stroke-miterlimit:3}
	]]>
	</style>

	<g>
		<title>Page-1</title>
		<g id="group1420-1" transform="translate(147.28,-86.1647)">
			<title>Sheet.1420</title>
			<g id="shape1421-2" transform="translate(2.14165,9.9476E-14)">
				<title>Sheet.1421</title>
				<desc>1</desc>
				<rect x="0" y="91.0154" width="85.0394" height="14.1732" class="st1"/>
				<text x="40.24" y="101.1" class="st2">1</text>			</g>
			<g id="shape1422-5" transform="translate(0,-4.47576)">
				<title>Sheet.1422</title>
				<desc>A</desc>
				<rect x="0" y="91.0154" width="13.2348" height="14.1732" class="st3"/>
				<text x="4" y="104.71" class="st4"><tspan class="st5">A</tspan></text>			</g>
		</g>
		<g id="shape1435-9" transform="translate(1.125,-64.2052)">
			<title>Circle</title>
			<path d="M0 98.62 A6.56444 6.56444 0 0 1 13.13 98.62 A6.56444 6.56444 0 1 1 0 98.62 Z" class="st6"/>
		</g>
		<g id="group1508-11" transform="translate(7.68943,-1.1253)">
			<title>Sheet.1508</title>
			<g id="shape1458-12" transform="translate(150.284,-58.0369)">
				<title>Sheet.1458</title>
				<path d="M24.49 104.67 A13.176 12.3815 90 0 0 0 105.19 L24.49 104.67 Z" class="st7"/>
				<path d="M24.49 104.67 A13.176 12.3815 90 0 0 0 105.19" class="st8"/>
			</g>
			<g id="shape1459-15" transform="translate(116.688,0)">
				<title>Sheet.1459</title>
				<path d="M0 94.11 A13.1563 12.363 -90 0 0 24.49 93.58 L0 94.11 Z" class="st7"/>
				<path d="M0 94.11 A13.1563 12.363 -90 0 0 24.49 93.58" class="st8"/>
			</g>
			<g id="shape1468-18" transform="translate(-0.37782,-69.6436) rotate(-0.205803)">
				<title>Sheet.1468</title>
				<path d="M0 105.19 L340.16 105.19" class="st8"/>
			</g>
			<g id="shape1469-21" transform="translate(-0.37783,0.000678573) rotate(-0.205803)">
				<title>Sheet.1469</title>
				<path d="M0 105.19 L340.16 105.19" class="st8"/>
			</g>
			<g id="shape1478-24" transform="translate(37.9534,73.3263) rotate(-78.8979)">
				<title>Sheet.1478</title>
				<path d="M0 105.19 L47.32 105.19" class="st8"/>
			</g>
			<g id="shape1479-27" transform="translate(275.797,17.3371) rotate(73.8289)">
				<title>Sheet.1479</title>
				<path d="M0 105.19 L49.43 105.19" class="st8"/>
			</g>
			<g id="shape1487-30" transform="translate(77.4236,-59.3802)">
				<title>Sheet.1487</title>
				<path d="M24.49 104.67 A13.176 12.3815 90 0 0 0 105.19 L24.49 104.67 Z" class="st7"/>
				<path d="M24.49 104.67 A13.176 12.3815 90 0 0 0 105.19" class="st8"/>
			</g>
			<g id="shape1488-33" transform="translate(43.8271,-1.34325)">
				<title>Sheet.1488</title>
				<path d="M0 94.11 A13.1563 12.363 -90 0 0 24.49 93.58 L0 94.11 Z" class="st7"/>
				<path d="M0 94.11 A13.1563 12.363 -90 0 0 24.49 93.58" class="st8"/>
			</g>
			<g id="shape1489-36" transform="translate(-34.9075,71.983) rotate(-78.8979)">
				<title>Sheet.1489</title>
				<path d="M0 105.19 L47.32 105.19" class="st8"/>
			</g>
			<g id="shape1490-39" transform="translate(202.936,15.9938) rotate(73.8289)">
				<title>Sheet.1490</title>
				<path d="M0 105.19 L49.43 105.19" class="st8"/>
			</g>
			<g id="shape1491-42" transform="translate(5.25,-59.3802)">
				<title>Sheet.1491</title>
				<path d="M24.49 104.67 A13.176 12.3815 90 0 0 0 105.19 L24.49 104.67 Z" class="st7"/>
				<path d="M24.49 104.67 A13.176 12.3815 90 0 0 0 105.19" class="st8"/>
			</g>
			<g id="shape1493-45" transform="translate(-103.724,59.4468) rotate(-80.4275)">
				<title>Sheet.1493</title>
				<path d="M0 105.19 L31.57 105.19" class="st8"/>
			</g>
			<g id="shape1494-48" transform="translate(130.762,15.9938) rotate(73.8289)">
				<title>Sheet.1494</title>
				<path d="M0 105.19 L49.43 105.19" class="st8"/>
			</g>
			<g id="shape1495-51" transform="translate(221.554,-58.0369)">
				<title>Sheet.1495</title>
				<path d="M24.49 104.67 A13.176 12.3815 90 0 0 0 105.19 L24.49 104.67 Z" class="st7"/>
				<path d="M24.49 104.67 A13.176 12.3815 90 0 0 0 105.19" class="st8"/>
			</g>
			<g id="shape1496-54" transform="translate(187.957,-5.68434E-14)">
				<title>Sheet.1496</title>
				<path d="M0 94.11 A13.1563 12.363 -90 0 0 24.49 93.58 L0 94.11 Z" class="st7"/>
				<path d="M0 94.11 A13.1563 12.363 -90 0 0 24.49 93.58" class="st8"/>
			</g>
			<g id="shape1497-57" transform="translate(109.223,73.3263) rotate(-78.8979)">
				<title>Sheet.1497</title>
				<path d="M0 105.19 L47.32 105.19" class="st8"/>
			</g>
			<g id="shape1498-60" transform="translate(347.066,17.3371) rotate(73.8289)">
				<title>Sheet.1498</title>
				<path d="M0 105.19 L49.43 105.19" class="st8"/>
			</g>
			<g id="shape1499-63" transform="translate(293.402,-58.0369)">
				<title>Sheet.1499</title>
				<path d="M24.49 104.67 A13.176 12.3815 90 0 0 0 105.19 L24.49 104.67 Z" class="st7"/>
				<path d="M24.49 104.67 A13.176 12.3815 90 0 0 0 105.19" class="st8"/>
			</g>
			<g id="shape1500-66" transform="translate(259.805,-5.68434E-14)">
				<title>Sheet.1500</title>
				<path d="M0 94.11 A13.1563 12.363 -90 0 0 24.49 93.58 L0 94.11 Z" class="st7"/>
				<path d="M0 94.11 A13.1563 12.363 -90 0 0 24.49 93.58" class="st8"/>
			</g>
			<g id="shape1501-69" transform="translate(181.071,73.3263) rotate(-78.8979)">
				<title>Sheet.1501</title>
				<path d="M0 105.19 L47.32 105.19" class="st8"/>
			</g>
			<g id="shape1502-72" transform="translate(418.914,17.3371) rotate(73.8289)">
				<title>Sheet.1502</title>
				<path d="M0 105.19 L49.43 105.19" class="st8"/>
			</g>
			<g id="shape1507-75" transform="translate(411.313,25.4104) rotate(49.2268)">
				<title>Sheet.1507</title>
				<path d="M0 105.19 L13.02 105.19" class="st8"/>
			</g>
		</g>
	</g>
</svg>
