<?xml version="1.0" encoding="UTF-8" standalone="no"?>
<!DOCTYPE svg PUBLIC "-//W3C//DTD SVG 1.1//EN" "http://www.w3.org/Graphics/SVG/1.1/DTD/svg11.dtd">
<!-- Generated by Microsoft Visio, SVG Export PE037A_Label.svg Page-1 -->
<svg xmlns="http://www.w3.org/2000/svg" xmlns:xlink="http://www.w3.org/1999/xlink" xmlns:ev="http://www.w3.org/2001/xml-events"
		xmlns:v="http://schemas.microsoft.com/visio/2003/SVGExtensions/" width="8.29897in" height="2.40516in"
		viewBox="0 0 597.526 173.172" xml:space="preserve" color-interpolation-filters="sRGB" class="st8">
	<title>PE037A</title>
	<v:documentProperties v:langID="2057" v:metric="true" v:viewMarkup="false"/>

	<style type="text/css">
	<![CDATA[
		.st1 {fill:#ffffff;stroke:#ff0000;stroke-linecap:round;stroke-linejoin:round;stroke-width:2.25}
		.st2 {stroke:#000000;stroke-linecap:round;stroke-linejoin:round;stroke-width:2.25}
		.st3 {fill:none;stroke:#ff0000;stroke-linecap:round;stroke-linejoin:round;stroke-width:0.75}
		.st4 {fill:#ff0000;font-family:Arial Narrow;font-size:0.833336em;font-weight:bold}
		.st5 {fill:none;stroke:none;stroke-linecap:round;stroke-linejoin:round;stroke-width:0.75}
		.st6 {fill:#ff0000;font-family:Arial Narrow;font-size:0.811964em;font-weight:bold}
		.st7 {baseline-shift:33.35%;font-size:0.667em}
		.st8 {fill:none;fill-rule:evenodd;font-size:12px;overflow:visible;stroke-linecap:square;stroke-miterlimit:3}
	]]>
	</style>

	<g v:mID="0" v:index="1" v:groupContext="foregroundPage">
		<title>Page-1</title>
		<v:pageProperties v:drawingScale="0.0393701" v:pageScale="0.0393701" v:drawingUnits="24" v:shadowOffsetX="8.50394"
				v:shadowOffsetY="-8.50394"/>
		<v:layer v:name="Origo" v:index="0"/>
		<v:layer v:name="Symbol" v:index="1"/>
		<v:layer v:name="Label" v:index="2"/>
		<g id="shape1405-1" v:mID="1405" v:groupContext="shape" v:layerMember="0" transform="translate(306.372,-80.4429)">
			<title>Circle</title>
			<v:userDefs>
				<v:ud v:nameU="visVersion" v:val="VT0(15):26"/>
				<v:ud v:nameU="visMasterStencil" v:prompt="" v:val="VT4(Basic_M.vssx)"/>
			</v:userDefs>
			<path d="M0 166.61 A6.56444 6.56444 0 0 1 13.13 166.61 A6.56444 6.56444 0 1 1 0 166.61 Z" class="st1"/>
		</g>
		<g id="shape1406-3" v:mID="1406" v:groupContext="shape" v:layerMember="1"
				transform="translate(273.508,0.557474) rotate(89.8122)">
			<title>Sheet.1406</title>
			<path d="M0 173.17 L170.18 173.17" class="st2"/>
		</g>
		<g id="shape1407-6" v:mID="1407" v:groupContext="shape" v:layerMember="1" transform="translate(288.428,1.125) rotate(90)">
			<title>Sheet.1407</title>
			<path d="M0 173.17 L170.92 173.17" class="st2"/>
		</g>
		<g id="shape1408-9" v:mID="1408" v:groupContext="shape" v:layerMember="1"
				transform="translate(656.185,1.2051) rotate(89.7476)">
			<title>Sheet.1408</title>
			<path d="M0 173.17 L169.33 173.17" class="st2"/>
		</g>
		<g id="shape1409-12" v:mID="1409" v:groupContext="shape" v:layerMember="1"
				transform="translate(671.105,0.557474) rotate(89.8122)">
			<title>Sheet.1409</title>
			<path d="M0 173.17 L170.18 173.17" class="st2"/>
		</g>
		<g id="shape1410-15" v:mID="1410" v:groupContext="shape" v:layerMember="1" transform="translate(100.338,-172.047)">
			<title>Sheet.1410</title>
			<path d="M0 173.17 L14.92 173.17" class="st2"/>
		</g>
		<g id="shape1411-18" v:mID="1411" v:groupContext="shape" v:layerMember="1" transform="translate(483.015,-172.047)">
			<title>Sheet.1411</title>
			<path d="M0 173.17 L14.92 173.17" class="st2"/>
		</g>
		<g id="shape1412-21" v:mID="1412" v:groupContext="shape" v:layerMember="1" transform="translate(483.572,-1.87096)">
			<title>Sheet.1412</title>
			<path d="M0 173.17 L14.92 173.17" class="st2"/>
		</g>
		<g id="shape1413-24" v:mID="1413" v:groupContext="shape" v:layerMember="1" transform="translate(100.338,-1.125)">
			<title>Sheet.1413</title>
			<path d="M0 173.17 L14.92 173.17" class="st2"/>
		</g>
		<g id="shape1414-27" v:mID="1414" v:groupContext="shape" v:layerMember="1"
				transform="translate(117.891,-30.217) rotate(0.131062)">
			<title>Sheet.1414</title>
			<path d="M0 173.17 L365.52 173.17" class="st2"/>
		</g>
		<g id="shape1416-30" v:mID="1416" v:groupContext="shape" v:layerMember="1"
				transform="translate(670.358,1.2051) rotate(89.7476)">
			<title>Sheet.1416</title>
			<path d="M0 173.17 L169.33 173.17" class="st2"/>
		</g>
		<g id="shape1417-33" v:mID="1417" v:groupContext="shape" v:layerMember="1"
				transform="translate(685.278,0.557474) rotate(89.8122)">
			<title>Sheet.1417</title>
			<path d="M0 173.17 L170.18 173.17" class="st2"/>
		</g>
		<g id="shape1418-36" v:mID="1418" v:groupContext="shape" v:layerMember="1" transform="translate(497.188,-172.047)">
			<title>Sheet.1418</title>
			<path d="M0 173.17 L14.92 173.17" class="st2"/>
		</g>
		<g id="shape1419-39" v:mID="1419" v:groupContext="shape" v:layerMember="1" transform="translate(497.746,-1.87096)">
			<title>Sheet.1419</title>
			<path d="M0 173.17 L14.92 173.17" class="st2"/>
		</g>
		<g id="shape1420-42" v:mID="1420" v:groupContext="shape" v:layerMember="1"
				transform="translate(259.335,1.3951) rotate(89.8105)">
			<title>Sheet.1420</title>
			<path d="M0 173.17 L168.59 173.17" class="st2"/>
		</g>
		<g id="shape1421-45" v:mID="1421" v:groupContext="shape" v:layerMember="1"
				transform="translate(274.255,1.96795) rotate(90)">
			<title>Sheet.1421</title>
			<path d="M0 173.17 L169.33 173.17" class="st2"/>
		</g>
		<g id="shape1422-48" v:mID="1422" v:groupContext="shape" v:layerMember="1" transform="translate(86.1644,-172.047)">
			<title>Sheet.1422</title>
			<path d="M0 173.17 L14.92 173.17" class="st2"/>
		</g>
		<g id="shape1423-51" v:mID="1423" v:groupContext="shape" v:layerMember="1" transform="translate(86.9103,-1.125)">
			<title>Sheet.1423</title>
			<path d="M0 173.17 L14.92 173.17" class="st2"/>
		</g>
		<g id="shape1424-54" v:mID="1424" v:groupContext="shape" v:layerMember="1"
				transform="translate(739.921,1.2051) rotate(89.7476)">
			<title>Sheet.1424</title>
			<path d="M0 173.17 L169.33 173.17" class="st2"/>
		</g>
		<g id="shape1425-57" v:mID="1425" v:groupContext="shape" v:layerMember="1"
				transform="translate(754.84,0.557474) rotate(89.8122)">
			<title>Sheet.1425</title>
			<path d="M0 173.17 L170.18 173.17" class="st2"/>
		</g>
		<g id="shape1426-60" v:mID="1426" v:groupContext="shape" v:layerMember="1" transform="translate(566.75,-172.047)">
			<title>Sheet.1426</title>
			<path d="M0 173.17 L14.92 173.17" class="st2"/>
		</g>
		<g id="shape1427-63" v:mID="1427" v:groupContext="shape" v:layerMember="1" transform="translate(567.308,-1.87096)">
			<title>Sheet.1427</title>
			<path d="M0 173.17 L14.92 173.17" class="st2"/>
		</g>
		<g id="shape1428-66" v:mID="1428" v:groupContext="shape" v:layerMember="1"
				transform="translate(754.094,1.2051) rotate(89.7476)">
			<title>Sheet.1428</title>
			<path d="M0 173.17 L169.33 173.17" class="st2"/>
		</g>
		<g id="shape1429-69" v:mID="1429" v:groupContext="shape" v:layerMember="1"
				transform="translate(769.014,0.557474) rotate(89.8122)">
			<title>Sheet.1429</title>
			<path d="M0 173.17 L170.18 173.17" class="st2"/>
		</g>
		<g id="shape1430-72" v:mID="1430" v:groupContext="shape" v:layerMember="1" transform="translate(580.924,-172.047)">
			<title>Sheet.1430</title>
			<path d="M0 173.17 L14.92 173.17" class="st2"/>
		</g>
		<g id="shape1431-75" v:mID="1431" v:groupContext="shape" v:layerMember="1" transform="translate(581.481,-1.87096)">
			<title>Sheet.1431</title>
			<path d="M0 173.17 L14.92 173.17" class="st2"/>
		</g>
		<g id="shape1432-78" v:mID="1432" v:groupContext="shape" v:layerMember="1"
				transform="translate(188.469,0.557474) rotate(89.8122)">
			<title>Sheet.1432</title>
			<path d="M0 173.17 L170.18 173.17" class="st2"/>
		</g>
		<g id="shape1433-81" v:mID="1433" v:groupContext="shape" v:layerMember="1" transform="translate(203.389,1.125) rotate(90)">
			<title>Sheet.1433</title>
			<path d="M0 173.17 L170.92 173.17" class="st2"/>
		</g>
		<g id="shape1434-84" v:mID="1434" v:groupContext="shape" v:layerMember="1" transform="translate(15.2982,-172.047)">
			<title>Sheet.1434</title>
			<path d="M0 173.17 L14.92 173.17" class="st2"/>
		</g>
		<g id="shape1435-87" v:mID="1435" v:groupContext="shape" v:layerMember="1" transform="translate(15.2982,-1.125)">
			<title>Sheet.1435</title>
			<path d="M0 173.17 L14.92 173.17" class="st2"/>
		</g>
		<g id="shape1436-90" v:mID="1436" v:groupContext="shape" v:layerMember="1"
				transform="translate(174.296,1.3951) rotate(89.8105)">
			<title>Sheet.1436</title>
			<path d="M0 173.17 L168.59 173.17" class="st2"/>
		</g>
		<g id="shape1437-93" v:mID="1437" v:groupContext="shape" v:layerMember="1"
				transform="translate(189.216,1.96795) rotate(90)">
			<title>Sheet.1437</title>
			<path d="M0 173.17 L169.33 173.17" class="st2"/>
		</g>
		<g id="shape1438-96" v:mID="1438" v:groupContext="shape" v:layerMember="1" transform="translate(1.125,-172.047)">
			<title>Sheet.1438</title>
			<path d="M0 173.17 L14.92 173.17" class="st2"/>
		</g>
		<g id="shape1439-99" v:mID="1439" v:groupContext="shape" v:layerMember="1" transform="translate(1.87096,-1.125)">
			<title>Sheet.1439</title>
			<path d="M0 173.17 L14.92 173.17" class="st2"/>
		</g>
		<g id="shape1440-102" v:mID="1440" v:groupContext="shape" v:layerMember="1"
				transform="translate(118.017,-143.7) rotate(0.131062)">
			<title>Sheet.1440</title>
			<path d="M0 173.17 L365.52 173.17" class="st2"/>
		</g>
		<g id="shape1441-105" v:mID="1441" v:groupContext="shape" v:layerMember="1" transform="translate(30.2174,-143.7)">
			<title>Sheet.1441</title>
			<path d="M0 173.17 L56.04 173.17" class="st2"/>
		</g>
		<g id="shape1442-108" v:mID="1442" v:groupContext="shape" v:layerMember="1" transform="translate(30.2174,-30.3144)">
			<title>Sheet.1442</title>
			<path d="M0 173.17 L56.41 173.17" class="st2"/>
		</g>
		<g id="shape1443-111" v:mID="1443" v:groupContext="shape" v:layerMember="1" transform="translate(512.203,-142.947)">
			<title>Sheet.1443</title>
			<path d="M0 173.17 L54.67 173.17" class="st2"/>
		</g>
		<g id="shape1444-114" v:mID="1444" v:groupContext="shape" v:layerMember="1" transform="translate(512.567,-31.0545)">
			<title>Sheet.1444</title>
			<path d="M0 173.17 L54.8 173.17" class="st2"/>
		</g>
		<g id="group1446-117" transform="translate(268.275,-79.4507)" v:mID="1446" v:groupContext="group" v:layerMember="2">
			<title>Sheet.1446</title>
			<g id="shape1447-118" v:mID="1447" v:groupContext="shape" v:layerMember="2" transform="translate(2.14165,0)">
				<title>Sheet.1447</title>
				<desc>1</desc>
				<v:textBlock v:margins="rect(4,4,4,4)" v:tabSpace="42.5197"/>
				<v:textRect cx="42.5197" cy="166.085" width="85.04" height="14.1732"/>
				<rect x="0" y="158.998" width="85.0394" height="14.1732" class="st3"/>
				<text x="40.24" y="169.09" class="st4" v:langID="2057"><v:paragraph v:horizAlign="1"/><v:tabList/>1</text>			</g>
			<g id="shape1448-121" v:mID="1448" v:groupContext="shape" v:layerMember="2" transform="translate(0,-4.47576)">
				<title>Sheet.1448</title>
				<desc>A</desc>
				<v:textBlock v:margins="rect(4,4,4,4)" v:tabSpace="42.5197" v:verticalAlign="0"/>
				<v:textRect cx="6.61741" cy="166.085" width="13.24" height="14.1732"/>
				<rect x="0" y="158.998" width="13.2348" height="14.1732" class="st5"/>
				<text x="4" y="172.69" class="st6" v:langID="2057"><v:paragraph/><v:tabList/><tspan class="st7">A</tspan></text>			</g>
		</g>
	</g>
</svg>
