<?xml version="1.0" encoding="UTF-8" standalone="no"?>
<!DOCTYPE svg PUBLIC "-//W3C//DTD SVG 1.1//EN" "http://www.w3.org/Graphics/SVG/1.1/DTD/svg11.dtd">
<!-- Generated by Microsoft Visio, SVG Export PE034A_Origo.svg Page-1 -->
<svg xmlns="http://www.w3.org/2000/svg" xmlns:xlink="http://www.w3.org/1999/xlink" xmlns:ev="http://www.w3.org/2001/xml-events"
		width="5.77657in" height="5.1433in" viewBox="0 0 415.913 370.318" xml:space="preserve" color-interpolation-filters="sRGB"
		class="st9">
	<title>PE034A</title>

	<style type="text/css">
	<![CDATA[
		.st1 {fill:none;stroke:#ff0000;stroke-linecap:round;stroke-linejoin:round;stroke-width:0.75}
		.st2 {fill:#ff0000;font-family:Arial Narrow;font-size:0.833336em;font-weight:bold}
		.st3 {fill:none;stroke:none;stroke-linecap:round;stroke-linejoin:round;stroke-width:0.75}
		.st4 {fill:#ff0000;font-family:Arial Narrow;font-size:0.811964em;font-weight:bold}
		.st5 {baseline-shift:33.35%;font-size:0.667em}
		.st6 {fill:none;stroke:#ff0000;stroke-linecap:round;stroke-linejoin:round;stroke-width:2.25}
		.st7 {stroke:#000000;stroke-linecap:round;stroke-linejoin:round;stroke-width:2.25}
		.st8 {fill:#ff0000;font-family:Calibri;font-size:4.00001em}
		.st9 {fill:none;fill-rule:evenodd;font-size:12px;overflow:visible;stroke-linecap:square;stroke-miterlimit:3}
	]]>
	</style>

	<g>
		<title>Page-1</title>
		<g id="group1420-1" transform="translate(106.602,-214.037)">
			<title>Sheet.1420</title>
			<g id="shape1421-2" transform="translate(2.14165,1.13687E-13)">
				<title>Sheet.1421</title>
				<desc>1</desc>
				<rect x="0" y="356.144" width="85.0394" height="14.1732" class="st1"/>
				<text x="40.24" y="366.23" class="st2">1</text>			</g>
			<g id="shape1422-5" transform="translate(0,-4.47576)">
				<title>Sheet.1422</title>
				<desc>A</desc>
				<rect x="0" y="356.144" width="13.2348" height="14.1732" class="st3"/>
				<text x="4" y="369.84" class="st4"><tspan class="st5">A</tspan></text>			</g>
		</g>
		<g id="shape1600-9" transform="translate(2.96684,-264.166)">
			<title>Circle</title>
			<path d="M0 363.75 A6.56444 6.56444 0 0 1 13.13 363.75 A6.56444 6.56444 0 1 1 0 363.75 Z" class="st6"/>
		</g>
		<g id="group1601-11" transform="translate(9.53128,-242.309)">
			<title>STPZ030.756</title>
			<g id="shape1602-12" transform="translate(261.854,80.0425) rotate(45)">
				<title>Sheet.1602</title>
				<path d="M0 370.32 L40.19 370.32" class="st7"/>
			</g>
			<g id="shape1603-15" transform="translate(283.17,80.0425) rotate(45)">
				<title>Sheet.1603</title>
				<path d="M0 370.32 L40.19 370.32" class="st7"/>
			</g>
			<g id="shape1604-18" transform="translate(304.486,80.0425) rotate(45)">
				<title>Sheet.1604</title>
				<path d="M0 370.32 L40.19 370.32" class="st7"/>
			</g>
			<g id="shape1605-21" transform="translate(325.801,80.0425) rotate(45)">
				<title>Sheet.1605</title>
				<path d="M0 370.32 L40.19 370.32" class="st7"/>
			</g>
			<g id="shape1606-24" transform="translate(347.117,80.0425) rotate(45)">
				<title>Sheet.1606</title>
				<path d="M0 370.32 L40.19 370.32" class="st7"/>
			</g>
			<g id="shape1607-27" transform="translate(368.433,80.0425) rotate(45)">
				<title>Sheet.1607</title>
				<path d="M0 370.32 L40.19 370.32" class="st7"/>
			</g>
			<g id="shape1608-30" transform="translate(389.749,80.0425) rotate(45)">
				<title>Sheet.1608</title>
				<path d="M0 370.32 L40.19 370.32" class="st7"/>
			</g>
			<g id="shape1609-33" transform="translate(411.065,80.0425) rotate(45)">
				<title>Sheet.1609</title>
				<path d="M0 370.32 L40.19 370.32" class="st7"/>
			</g>
			<g id="shape1610-36" transform="translate(432.38,80.0425) rotate(45)">
				<title>Sheet.1610</title>
				<path d="M0 370.32 L40.19 370.32" class="st7"/>
			</g>
			<g id="shape1611-39" transform="translate(453.696,80.0425) rotate(45)">
				<title>Sheet.1611</title>
				<path d="M0 370.32 L40.19 370.32" class="st7"/>
			</g>
			<g id="shape1612-42" transform="translate(475.012,80.0425) rotate(45)">
				<title>Sheet.1612</title>
				<path d="M0 370.32 L40.19 370.32" class="st7"/>
			</g>
			<g id="shape1613-45" transform="translate(496.328,80.0425) rotate(45)">
				<title>Sheet.1613</title>
				<path d="M0 370.32 L40.19 370.32" class="st7"/>
			</g>
			<g id="shape1614-48" transform="translate(517.644,80.0425) rotate(45)">
				<title>Sheet.1614</title>
				<path d="M0 370.32 L40.19 370.32" class="st7"/>
			</g>
			<g id="shape1615-51" transform="translate(0,-28.4211)">
				<title>Sheet.1615</title>
				<path d="M0 370.32 L255.79 370.32" class="st7"/>
			</g>
			<g id="shape1616-54" transform="translate(284.211,740.635) rotate(180)">
				<title>Sheet.1616</title>
				<path d="M0 370.32 L255.79 370.32" class="st7"/>
			</g>
		</g>
		<g id="shape1617-57" transform="translate(-177.532,86.2629) rotate(-40)">
			<title>Sheet.1617</title>
			<desc>NOT USED</desc>
			<rect x="0" y="276.774" width="463.465" height="93.5433" class="st3"/>
			<text x="130.32" y="337.95" class="st8">NOT USED</text>		</g>
	</g>
</svg>
