<?xml version="1.0" encoding="UTF-8" standalone="no"?>
<!DOCTYPE svg PUBLIC "-//W3C//DTD SVG 1.1//EN" "http://www.w3.org/Graphics/SVG/1.1/DTD/svg11.dtd">
<!-- Generated by Microsoft Visio, SVG Export PE032A.svg Page-1 -->
<svg xmlns="http://www.w3.org/2000/svg" xmlns:xlink="http://www.w3.org/1999/xlink" xmlns:ev="http://www.w3.org/2001/xml-events"
		xmlns:v="http://schemas.microsoft.com/visio/2003/SVGExtensions/" width="1.60605in" height="3.28032in"
		viewBox="0 0 115.636 236.183" xml:space="preserve" color-interpolation-filters="sRGB" class="st5">
	<title>PE032A</title>
	<v:documentProperties v:langID="2057" v:metric="true" v:viewMarkup="false"/>

	<style type="text/css">
	<![CDATA[
		.st1 {fill:none;stroke:#ff0000;stroke-linecap:round;stroke-linejoin:round;stroke-width:2.25}
		.st2 {fill:none}
		.st3 {stroke:#000000;stroke-linecap:round;stroke-linejoin:round;stroke-width:2.25}
		.st4 {fill:none;stroke:#000000;stroke-linecap:round;stroke-linejoin:round;stroke-width:2.25}
		.st5 {fill:none;fill-rule:evenodd;font-size:12px;overflow:visible;stroke-linecap:square;stroke-miterlimit:3}
	]]>
	</style>

	<g v:mID="0" v:index="1" v:groupContext="foregroundPage">
		<title>Page-1</title>
		<v:pageProperties v:drawingScale="0.0393701" v:pageScale="0.0393701" v:drawingUnits="24" v:shadowOffsetX="8.50394"
				v:shadowOffsetY="-8.50394"/>
		<v:layer v:name="Origo" v:index="0"/>
		<v:layer v:name="Symbol" v:index="1"/>
		<g id="shape1591-1" v:mID="1591" v:groupContext="shape" v:layerMember="0" transform="translate(51.2535,-221.929)">
			<title>Circle</title>
			<v:userDefs>
				<v:ud v:nameU="visVersion" v:val="VT0(15):26"/>
				<v:ud v:nameU="visMasterStencil" v:prompt="" v:val="VT4(Basic_M.vssx)"/>
			</v:userDefs>
			<path d="M0 229.62 A6.56444 6.56444 0 0 1 13.13 229.62 A6.56444 6.56444 0 1 1 0 229.62 Z" class="st1"/>
		</g>
		<g id="group1593-3" transform="translate(1.125,-1.125)" v:mID="1593" v:groupContext="group" v:layerMember="1">
			<v:userDefs>
				<v:ud v:nameU="SOLSH" v:prompt="" v:val="VT4({13D0FF3B-CF5B-4a46-98AB-14030248EAEF})"/>
				<v:ud v:nameU="DWGEntityType" v:prompt="" v:val="VT4(INSERT)"/>
			</v:userDefs>
			<title>STPP014.70</title>
			<g id="shape1594-4" v:mID="1594" v:groupContext="shape" v:layerMember="1" transform="translate(99.2126,-14.1732)">
				<title>Sheet.1594</title>
				<v:userDefs>
					<v:ud v:nameU="DWGOriginalColor" v:prompt="This shapes Original DWG color." v:val="VT4(3)"/>
					<v:ud v:nameU="DWGOriginalLayer" v:prompt="This shapes Original DWG layer." v:val="VT4(26-SYM-035-SP)"/>
				</v:userDefs>
				<path d="M0 165.32 L0 236.18 L0 236.18 L0 165.32 Z" class="st2"/>
				<path d="M0 165.32 L0 236.18 L0 236.18" class="st3"/>
			</g>
			<g id="shape1595-7" v:mID="1595" v:groupContext="shape" v:layerMember="1" transform="translate(95.6972,-99.2126)">
				<title>Sheet.1595</title>
				<v:userDefs>
					<v:ud v:nameU="DWGOriginalColor" v:prompt="This shapes Original DWG color." v:val="VT4(3)"/>
					<v:ud v:nameU="DWGOriginalLayer" v:prompt="This shapes Original DWG layer." v:val="VT4(26-SYM-035-SP)"/>
				</v:userDefs>
				<path d="M0 236.18 L17.69 218.44 L17.69 218.44 L0 236.18 Z" class="st2"/>
				<path d="M0 236.18 L17.69 218.44 L17.69 218.44" class="st3"/>
			</g>
			<g id="shape1596-10" v:mID="1596" v:groupContext="shape" v:layerMember="1" transform="translate(0,-99.2126)">
				<title>Sheet.1596</title>
				<v:userDefs>
					<v:ud v:nameU="DWGOriginalColor" v:prompt="This shapes Original DWG color." v:val="VT4(3)"/>
					<v:ud v:nameU="DWGOriginalLayer" v:prompt="This shapes Original DWG layer." v:val="VT4(26-SYM-035-SP)"/>
				</v:userDefs>
				<path d="M0 236.18 L113.39 236.18 L113.39 236.18 L0 236.18 Z" class="st2"/>
				<path d="M0 236.18 L113.39 236.18 L113.39 236.18" class="st3"/>
			</g>
			<g id="shape1597-13" v:mID="1597" v:groupContext="shape" v:layerMember="1" transform="translate(70.8661,-14.1732)">
				<title>Sheet.1597</title>
				<v:userDefs>
					<v:ud v:nameU="DWGOriginalColor" v:prompt="This shapes Original DWG color." v:val="VT4(3)"/>
					<v:ud v:nameU="DWGOriginalLayer" v:prompt="This shapes Original DWG layer." v:val="VT4(26-SYM-035-SP)"/>
				</v:userDefs>
				<path d="M0 165.32 L0 236.18 L0 236.18 L0 165.32 Z" class="st2"/>
				<path d="M0 165.32 L0 236.18 L0 236.18" class="st3"/>
			</g>
			<g id="shape1598-16" v:mID="1598" v:groupContext="shape" v:layerMember="1">
				<title>Sheet.1598</title>
				<v:userDefs>
					<v:ud v:nameU="DWGOriginalColor" v:prompt="This shapes Original DWG color." v:val="VT4(3)"/>
					<v:ud v:nameU="DWGOriginalLayer" v:prompt="This shapes Original DWG layer." v:val="VT4(26-SYM-035-SP)"/>
				</v:userDefs>
				<path d="M0 9.41 L113.39 9.41 L113.39 236.18 L0 236.18 L0 9.41 L0 9.41 Z" class="st4"/>
			</g>
			<g id="shape1599-18" v:mID="1599" v:groupContext="shape" v:layerMember="1" transform="translate(0,-127.559)">
				<title>Sheet.1599</title>
				<v:userDefs>
					<v:ud v:nameU="DWGOriginalColor" v:prompt="This shapes Original DWG color." v:val="VT4(3)"/>
					<v:ud v:nameU="DWGOriginalLayer" v:prompt="This shapes Original DWG layer." v:val="VT4(26-SYM-035-SP)"/>
				</v:userDefs>
				<path d="M0 236.18 L113.39 236.18 L113.39 236.18 L0 236.18 Z" class="st2"/>
				<path d="M0 236.18 L113.39 236.18 L113.39 236.18" class="st3"/>
			</g>
			<g id="shape1600-21" v:mID="1600" v:groupContext="shape" v:layerMember="1" transform="translate(0,-120.472)">
				<title>Sheet.1600</title>
				<v:userDefs>
					<v:ud v:nameU="DWGOriginalColor" v:prompt="This shapes Original DWG color." v:val="VT4(3)"/>
					<v:ud v:nameU="DWGOriginalLayer" v:prompt="This shapes Original DWG layer." v:val="VT4(26-SYM-035-SP)"/>
				</v:userDefs>
				<path d="M0 236.18 L7.09 229.1 L7.09 229.1 L0 236.18 Z" class="st2"/>
				<path d="M0 236.18 L7.09 229.1 L7.09 229.1" class="st3"/>
			</g>
			<g id="shape1601-24" v:mID="1601" v:groupContext="shape" v:layerMember="1" transform="translate(28.3465,-14.1732)">
				<title>Sheet.1601</title>
				<v:userDefs>
					<v:ud v:nameU="DWGOriginalColor" v:prompt="This shapes Original DWG color." v:val="VT4(3)"/>
					<v:ud v:nameU="DWGOriginalLayer" v:prompt="This shapes Original DWG layer." v:val="VT4(26-SYM-035-SP)"/>
				</v:userDefs>
				<path d="M0 165.32 L0 236.18 L0 236.18 L0 165.32 Z" class="st2"/>
				<path d="M0 165.32 L0 236.18 L0 236.18" class="st3"/>
			</g>
			<g id="shape1602-27" v:mID="1602" v:groupContext="shape" v:layerMember="1" transform="translate(2.29816E-13,-109.815)">
				<title>Sheet.1602</title>
				<v:userDefs>
					<v:ud v:nameU="DWGOriginalColor" v:prompt="This shapes Original DWG color." v:val="VT4(3)"/>
					<v:ud v:nameU="DWGOriginalLayer" v:prompt="This shapes Original DWG layer." v:val="VT4(26-SYM-035-SP)"/>
				</v:userDefs>
				<path d="M0 236.18 L17.69 218.44 L17.69 218.44 L0 236.18 Z" class="st2"/>
				<path d="M0 236.18 L17.69 218.44 L17.69 218.44" class="st3"/>
			</g>
			<g id="shape1603-30" v:mID="1603" v:groupContext="shape" v:layerMember="1" transform="translate(0,-99.2126)">
				<title>Sheet.1603</title>
				<v:userDefs>
					<v:ud v:nameU="DWGOriginalColor" v:prompt="This shapes Original DWG color." v:val="VT4(3)"/>
					<v:ud v:nameU="DWGOriginalLayer" v:prompt="This shapes Original DWG layer." v:val="VT4(26-SYM-035-SP)"/>
				</v:userDefs>
				<path d="M0 236.18 L28.35 207.84 L28.35 207.84 L0 236.18 Z" class="st2"/>
				<path d="M0 236.18 L28.35 207.84 L28.35 207.84" class="st3"/>
			</g>
			<g id="shape1604-33" v:mID="1604" v:groupContext="shape" v:layerMember="1" transform="translate(106.299,-120.472)">
				<title>Sheet.1604</title>
				<v:userDefs>
					<v:ud v:nameU="DWGOriginalColor" v:prompt="This shapes Original DWG color." v:val="VT4(3)"/>
					<v:ud v:nameU="DWGOriginalLayer" v:prompt="This shapes Original DWG layer." v:val="VT4(26-SYM-035-SP)"/>
				</v:userDefs>
				<path d="M7.09 236.18 L0 229.1 L0 229.1 L7.09 236.18 Z" class="st2"/>
				<path d="M7.09 236.18 L0 229.1 L0 229.1" class="st3"/>
			</g>
			<g id="shape1605-36" v:mID="1605" v:groupContext="shape" v:layerMember="1" transform="translate(56.6929,-14.1732)">
				<title>Sheet.1605</title>
				<v:userDefs>
					<v:ud v:nameU="DWGOriginalColor" v:prompt="This shapes Original DWG color." v:val="VT4(3)"/>
					<v:ud v:nameU="DWGOriginalLayer" v:prompt="This shapes Original DWG layer." v:val="VT4(26-SYM-035-SP)"/>
				</v:userDefs>
				<path d="M0 165.32 L0 236.18 L0 236.18 L0 165.32 Z" class="st2"/>
				<path d="M0 165.32 L0 236.18 L0 236.18" class="st3"/>
			</g>
			<g id="shape1606-39" v:mID="1606" v:groupContext="shape" v:layerMember="1" transform="translate(95.6972,-109.815)">
				<title>Sheet.1606</title>
				<v:userDefs>
					<v:ud v:nameU="DWGOriginalColor" v:prompt="This shapes Original DWG color." v:val="VT4(3)"/>
					<v:ud v:nameU="DWGOriginalLayer" v:prompt="This shapes Original DWG layer." v:val="VT4(26-SYM-035-SP)"/>
				</v:userDefs>
				<path d="M17.69 236.18 L0 218.44 L0 218.44 L17.69 236.18 Z" class="st2"/>
				<path d="M17.69 236.18 L0 218.44 L0 218.44" class="st3"/>
			</g>
			<g id="shape1607-42" v:mID="1607" v:groupContext="shape" v:layerMember="1" transform="translate(0,-99.2126)">
				<title>Sheet.1607</title>
				<v:userDefs>
					<v:ud v:nameU="DWGOriginalColor" v:prompt="This shapes Original DWG color." v:val="VT4(3)"/>
					<v:ud v:nameU="DWGOriginalLayer" v:prompt="This shapes Original DWG layer." v:val="VT4(26-SYM-035-SP)"/>
				</v:userDefs>
				<path d="M7.09 236.18 L0 229.1 L0 229.1 L7.09 236.18 Z" class="st2"/>
				<path d="M7.09 236.18 L0 229.1 L0 229.1" class="st3"/>
			</g>
			<g id="shape1608-45" v:mID="1608" v:groupContext="shape" v:layerMember="1" transform="translate(2.29816E-13,-99.2126)">
				<title>Sheet.1608</title>
				<v:userDefs>
					<v:ud v:nameU="DWGOriginalColor" v:prompt="This shapes Original DWG color." v:val="VT4(3)"/>
					<v:ud v:nameU="DWGOriginalLayer" v:prompt="This shapes Original DWG layer." v:val="VT4(26-SYM-035-SP)"/>
				</v:userDefs>
				<path d="M17.69 236.18 L0 218.44 L0 218.44 L17.69 236.18 Z" class="st2"/>
				<path d="M17.69 236.18 L0 218.44 L0 218.44" class="st3"/>
			</g>
			<g id="shape1609-48" v:mID="1609" v:groupContext="shape" v:layerMember="1" transform="translate(0,-99.2126)">
				<title>Sheet.1609</title>
				<v:userDefs>
					<v:ud v:nameU="DWGOriginalColor" v:prompt="This shapes Original DWG color." v:val="VT4(3)"/>
					<v:ud v:nameU="DWGOriginalLayer" v:prompt="This shapes Original DWG layer." v:val="VT4(26-SYM-035-SP)"/>
				</v:userDefs>
				<path d="M28.35 236.18 L0 207.84 L0 207.84 L28.35 236.18 Z" class="st2"/>
				<path d="M28.35 236.18 L0 207.84 L0 207.84" class="st3"/>
			</g>
			<g id="shape1610-51" v:mID="1610" v:groupContext="shape" v:layerMember="1" transform="translate(10.602,-99.2126)">
				<title>Sheet.1610</title>
				<v:userDefs>
					<v:ud v:nameU="DWGOriginalColor" v:prompt="This shapes Original DWG color." v:val="VT4(3)"/>
					<v:ud v:nameU="DWGOriginalLayer" v:prompt="This shapes Original DWG layer." v:val="VT4(26-SYM-035-SP)"/>
				</v:userDefs>
				<path d="M28.35 236.18 L0 207.84 L0 207.84 L28.35 236.18 Z" class="st2"/>
				<path d="M28.35 236.18 L0 207.84 L0 207.84" class="st3"/>
			</g>
			<g id="shape1611-54" v:mID="1611" v:groupContext="shape" v:layerMember="1" transform="translate(42.5197,-14.1732)">
				<title>Sheet.1611</title>
				<v:userDefs>
					<v:ud v:nameU="DWGOriginalColor" v:prompt="This shapes Original DWG color." v:val="VT4(3)"/>
					<v:ud v:nameU="DWGOriginalLayer" v:prompt="This shapes Original DWG layer." v:val="VT4(26-SYM-035-SP)"/>
				</v:userDefs>
				<path d="M0 165.32 L0 236.18 L0 236.18 L0 165.32 Z" class="st2"/>
				<path d="M0 165.32 L0 236.18 L0 236.18" class="st3"/>
			</g>
			<g id="shape1612-57" v:mID="1612" v:groupContext="shape" v:layerMember="1" transform="translate(85.0394,-99.2126)">
				<title>Sheet.1612</title>
				<v:userDefs>
					<v:ud v:nameU="DWGOriginalColor" v:prompt="This shapes Original DWG color." v:val="VT4(3)"/>
					<v:ud v:nameU="DWGOriginalLayer" v:prompt="This shapes Original DWG layer." v:val="VT4(26-SYM-035-SP)"/>
				</v:userDefs>
				<path d="M28.35 236.18 L0 207.84 L0 207.84 L28.35 236.18 Z" class="st2"/>
				<path d="M28.35 236.18 L0 207.84 L0 207.84" class="st3"/>
			</g>
			<g id="shape1613-60" v:mID="1613" v:groupContext="shape" v:layerMember="1" transform="translate(85.0394,-14.1732)">
				<title>Sheet.1613</title>
				<v:userDefs>
					<v:ud v:nameU="DWGOriginalColor" v:prompt="This shapes Original DWG color." v:val="VT4(3)"/>
					<v:ud v:nameU="DWGOriginalLayer" v:prompt="This shapes Original DWG layer." v:val="VT4(26-SYM-035-SP)"/>
				</v:userDefs>
				<path d="M0 165.32 L0 236.18 L0 236.18 L0 165.32 Z" class="st2"/>
				<path d="M0 165.32 L0 236.18 L0 236.18" class="st3"/>
			</g>
			<g id="shape1614-63" v:mID="1614" v:groupContext="shape" v:layerMember="1" transform="translate(106.299,-99.2126)">
				<title>Sheet.1614</title>
				<v:userDefs>
					<v:ud v:nameU="DWGOriginalColor" v:prompt="This shapes Original DWG color." v:val="VT4(3)"/>
					<v:ud v:nameU="DWGOriginalLayer" v:prompt="This shapes Original DWG layer." v:val="VT4(26-SYM-035-SP)"/>
				</v:userDefs>
				<path d="M0 236.18 L7.09 229.1 L7.09 229.1 L0 236.18 Z" class="st2"/>
				<path d="M0 236.18 L7.09 229.1 L7.09 229.1" class="st3"/>
			</g>
			<g id="shape1615-66" v:mID="1615" v:groupContext="shape" v:layerMember="1" transform="translate(74.4374,-99.2126)">
				<title>Sheet.1615</title>
				<v:userDefs>
					<v:ud v:nameU="DWGOriginalColor" v:prompt="This shapes Original DWG color." v:val="VT4(3)"/>
					<v:ud v:nameU="DWGOriginalLayer" v:prompt="This shapes Original DWG layer." v:val="VT4(26-SYM-035-SP)"/>
				</v:userDefs>
				<path d="M28.35 236.18 L0 207.84 L0 207.84 L28.35 236.18 Z" class="st2"/>
				<path d="M28.35 236.18 L0 207.84 L0 207.84" class="st3"/>
			</g>
			<g id="shape1616-69" v:mID="1616" v:groupContext="shape" v:layerMember="1" transform="translate(63.7795,-99.2126)">
				<title>Sheet.1616</title>
				<v:userDefs>
					<v:ud v:nameU="DWGOriginalColor" v:prompt="This shapes Original DWG color." v:val="VT4(3)"/>
					<v:ud v:nameU="DWGOriginalLayer" v:prompt="This shapes Original DWG layer." v:val="VT4(26-SYM-035-SP)"/>
				</v:userDefs>
				<path d="M28.35 236.18 L0 207.84 L0 207.84 L28.35 236.18 Z" class="st2"/>
				<path d="M28.35 236.18 L0 207.84 L0 207.84" class="st3"/>
			</g>
			<g id="shape1617-72" v:mID="1617" v:groupContext="shape" v:layerMember="1" transform="translate(53.1217,-99.2126)">
				<title>Sheet.1617</title>
				<v:userDefs>
					<v:ud v:nameU="DWGOriginalColor" v:prompt="This shapes Original DWG color." v:val="VT4(3)"/>
					<v:ud v:nameU="DWGOriginalLayer" v:prompt="This shapes Original DWG layer." v:val="VT4(26-SYM-035-SP)"/>
				</v:userDefs>
				<path d="M28.4 236.18 L0 207.84 L0 207.84 L28.4 236.18 Z" class="st2"/>
				<path d="M28.4 236.18 L0 207.84 L0 207.84" class="st3"/>
			</g>
			<g id="shape1618-75" v:mID="1618" v:groupContext="shape" v:layerMember="1" transform="translate(42.5197,-99.2126)">
				<title>Sheet.1618</title>
				<v:userDefs>
					<v:ud v:nameU="DWGOriginalColor" v:prompt="This shapes Original DWG color." v:val="VT4(3)"/>
					<v:ud v:nameU="DWGOriginalLayer" v:prompt="This shapes Original DWG layer." v:val="VT4(26-SYM-035-SP)"/>
				</v:userDefs>
				<path d="M28.35 236.18 L0 207.84 L0 207.84 L28.35 236.18 Z" class="st2"/>
				<path d="M28.35 236.18 L0 207.84 L0 207.84" class="st3"/>
			</g>
			<g id="shape1619-78" v:mID="1619" v:groupContext="shape" v:layerMember="1" transform="translate(31.8619,-99.2126)">
				<title>Sheet.1619</title>
				<v:userDefs>
					<v:ud v:nameU="DWGOriginalColor" v:prompt="This shapes Original DWG color." v:val="VT4(3)"/>
					<v:ud v:nameU="DWGOriginalLayer" v:prompt="This shapes Original DWG layer." v:val="VT4(26-SYM-035-SP)"/>
				</v:userDefs>
				<path d="M28.4 236.18 L0 207.84 L0 207.84 L28.4 236.18 Z" class="st2"/>
				<path d="M28.4 236.18 L0 207.84 L0 207.84" class="st3"/>
			</g>
			<g id="shape1620-81" v:mID="1620" v:groupContext="shape" v:layerMember="1" transform="translate(21.2598,-99.2126)">
				<title>Sheet.1620</title>
				<v:userDefs>
					<v:ud v:nameU="DWGOriginalColor" v:prompt="This shapes Original DWG color." v:val="VT4(3)"/>
					<v:ud v:nameU="DWGOriginalLayer" v:prompt="This shapes Original DWG layer." v:val="VT4(26-SYM-035-SP)"/>
				</v:userDefs>
				<path d="M28.35 236.18 L0 207.84 L0 207.84 L28.35 236.18 Z" class="st2"/>
				<path d="M28.35 236.18 L0 207.84 L0 207.84" class="st3"/>
			</g>
			<g id="shape1621-84" v:mID="1621" v:groupContext="shape" v:layerMember="1" transform="translate(10.602,-99.2126)">
				<title>Sheet.1621</title>
				<v:userDefs>
					<v:ud v:nameU="DWGOriginalColor" v:prompt="This shapes Original DWG color." v:val="VT4(3)"/>
					<v:ud v:nameU="DWGOriginalLayer" v:prompt="This shapes Original DWG layer." v:val="VT4(26-SYM-035-SP)"/>
				</v:userDefs>
				<path d="M0 236.18 L28.35 207.84 L28.35 207.84 L0 236.18 Z" class="st2"/>
				<path d="M0 236.18 L28.35 207.84 L28.35 207.84" class="st3"/>
			</g>
			<g id="shape1622-87" v:mID="1622" v:groupContext="shape" v:layerMember="1" transform="translate(21.2598,-99.2126)">
				<title>Sheet.1622</title>
				<v:userDefs>
					<v:ud v:nameU="DWGOriginalColor" v:prompt="This shapes Original DWG color." v:val="VT4(3)"/>
					<v:ud v:nameU="DWGOriginalLayer" v:prompt="This shapes Original DWG layer." v:val="VT4(26-SYM-035-SP)"/>
				</v:userDefs>
				<path d="M0 236.18 L28.35 207.84 L28.35 207.84 L0 236.18 Z" class="st2"/>
				<path d="M0 236.18 L28.35 207.84 L28.35 207.84" class="st3"/>
			</g>
			<g id="shape1623-90" v:mID="1623" v:groupContext="shape" v:layerMember="1" transform="translate(31.8619,-99.2126)">
				<title>Sheet.1623</title>
				<v:userDefs>
					<v:ud v:nameU="DWGOriginalColor" v:prompt="This shapes Original DWG color." v:val="VT4(3)"/>
					<v:ud v:nameU="DWGOriginalLayer" v:prompt="This shapes Original DWG layer." v:val="VT4(26-SYM-035-SP)"/>
				</v:userDefs>
				<path d="M0 236.18 L28.4 207.84 L28.4 207.84 L0 236.18 Z" class="st2"/>
				<path d="M0 236.18 L28.4 207.84 L28.4 207.84" class="st3"/>
			</g>
			<g id="shape1624-93" v:mID="1624" v:groupContext="shape" v:layerMember="1" transform="translate(42.5197,-99.2126)">
				<title>Sheet.1624</title>
				<v:userDefs>
					<v:ud v:nameU="DWGOriginalColor" v:prompt="This shapes Original DWG color." v:val="VT4(3)"/>
					<v:ud v:nameU="DWGOriginalLayer" v:prompt="This shapes Original DWG layer." v:val="VT4(26-SYM-035-SP)"/>
				</v:userDefs>
				<path d="M0 236.18 L28.35 207.84 L28.35 207.84 L0 236.18 Z" class="st2"/>
				<path d="M0 236.18 L28.35 207.84 L28.35 207.84" class="st3"/>
			</g>
			<g id="shape1625-96" v:mID="1625" v:groupContext="shape" v:layerMember="1" transform="translate(53.1217,-99.2126)">
				<title>Sheet.1625</title>
				<v:userDefs>
					<v:ud v:nameU="DWGOriginalColor" v:prompt="This shapes Original DWG color." v:val="VT4(3)"/>
					<v:ud v:nameU="DWGOriginalLayer" v:prompt="This shapes Original DWG layer." v:val="VT4(26-SYM-035-SP)"/>
				</v:userDefs>
				<path d="M0 236.18 L28.4 207.84 L28.4 207.84 L0 236.18 Z" class="st2"/>
				<path d="M0 236.18 L28.4 207.84 L28.4 207.84" class="st3"/>
			</g>
			<g id="shape1626-99" v:mID="1626" v:groupContext="shape" v:layerMember="1" transform="translate(14.1732,-14.1732)">
				<title>Sheet.1626</title>
				<v:userDefs>
					<v:ud v:nameU="DWGOriginalColor" v:prompt="This shapes Original DWG color." v:val="VT4(3)"/>
					<v:ud v:nameU="DWGOriginalLayer" v:prompt="This shapes Original DWG layer." v:val="VT4(26-SYM-035-SP)"/>
				</v:userDefs>
				<path d="M0 165.32 L0 236.18 L0 236.18 L0 165.32 Z" class="st2"/>
				<path d="M0 165.32 L0 236.18 L0 236.18" class="st3"/>
			</g>
			<g id="shape1627-102" v:mID="1627" v:groupContext="shape" v:layerMember="1" transform="translate(74.4374,-99.2126)">
				<title>Sheet.1627</title>
				<v:userDefs>
					<v:ud v:nameU="DWGOriginalColor" v:prompt="This shapes Original DWG color." v:val="VT4(3)"/>
					<v:ud v:nameU="DWGOriginalLayer" v:prompt="This shapes Original DWG layer." v:val="VT4(26-SYM-035-SP)"/>
				</v:userDefs>
				<path d="M0 236.18 L28.35 207.84 L28.35 207.84 L0 236.18 Z" class="st2"/>
				<path d="M0 236.18 L28.35 207.84 L28.35 207.84" class="st3"/>
			</g>
			<g id="shape1628-105" v:mID="1628" v:groupContext="shape" v:layerMember="1" transform="translate(85.0394,-99.2126)">
				<title>Sheet.1628</title>
				<v:userDefs>
					<v:ud v:nameU="DWGOriginalColor" v:prompt="This shapes Original DWG color." v:val="VT4(3)"/>
					<v:ud v:nameU="DWGOriginalLayer" v:prompt="This shapes Original DWG layer." v:val="VT4(26-SYM-035-SP)"/>
				</v:userDefs>
				<path d="M0 236.18 L28.35 207.84 L28.35 207.84 L0 236.18 Z" class="st2"/>
				<path d="M0 236.18 L28.35 207.84 L28.35 207.84" class="st3"/>
			</g>
			<g id="shape1629-108" v:mID="1629" v:groupContext="shape" v:layerMember="1" transform="translate(63.7795,-99.2126)">
				<title>Sheet.1629</title>
				<v:userDefs>
					<v:ud v:nameU="DWGOriginalColor" v:prompt="This shapes Original DWG color." v:val="VT4(3)"/>
					<v:ud v:nameU="DWGOriginalLayer" v:prompt="This shapes Original DWG layer." v:val="VT4(26-SYM-035-SP)"/>
				</v:userDefs>
				<path d="M0 236.18 L28.35 207.84 L28.35 207.84 L0 236.18 Z" class="st2"/>
				<path d="M0 236.18 L28.35 207.84 L28.35 207.84" class="st3"/>
			</g>
		</g>
	</g>
</svg>
