<?xml version="1.0" encoding="UTF-8" standalone="no"?>
<!DOCTYPE svg PUBLIC "-//W3C//DTD SVG 1.1//EN" "http://www.w3.org/Graphics/SVG/1.1/DTD/svg11.dtd">
<!-- Generated by Microsoft Visio, SVG Export PE039A_Origo.svg Page-1 -->
<svg xmlns="http://www.w3.org/2000/svg" xmlns:xlink="http://www.w3.org/1999/xlink" xmlns:ev="http://www.w3.org/2001/xml-events"
		width="8.39014in" height="2.48464in" viewBox="0 0 604.09 178.894" xml:space="preserve" color-interpolation-filters="sRGB"
		class="st9">
	<title>PE039A</title>

	<style type="text/css">
	<![CDATA[
		.st1 {fill:#ffffff;stroke:#ff0000;stroke-linecap:round;stroke-linejoin:round;stroke-width:2.25}
		.st2 {fill:none;stroke:#ff0000;stroke-linecap:round;stroke-linejoin:round;stroke-width:0.75}
		.st3 {fill:#ff0000;font-family:Arial Narrow;font-size:0.833336em;font-weight:bold}
		.st4 {fill:none;stroke:none;stroke-linecap:round;stroke-linejoin:round;stroke-width:0.75}
		.st5 {fill:#ff0000;font-family:Arial Narrow;font-size:0.811964em;font-weight:bold}
		.st6 {baseline-shift:33.35%;font-size:0.667em}
		.st7 {stroke:#000000;stroke-linecap:round;stroke-linejoin:round;stroke-width:2.25}
		.st8 {fill:none}
		.st9 {fill:none;fill-rule:evenodd;font-size:12px;overflow:visible;stroke-linecap:square;stroke-miterlimit:3}
	]]>
	</style>

	<g>
		<title>Page-1</title>
		<g id="shape1490-1" transform="translate(1.125,-164.64)">
			<title>Circle</title>
			<path d="M0 172.33 A6.56444 6.56444 0 0 1 13.13 172.33 A6.56444 6.56444 0 1 1 0 172.33 Z" class="st1"/>
		</g>
		<g id="group1491-3" transform="translate(276.981,-76.841)">
			<title>Sheet.1491</title>
			<g id="shape1492-4" transform="translate(2.14165,0)">
				<title>Sheet.1492</title>
				<desc>1</desc>
				<rect x="0" y="164.721" width="85.0394" height="14.1732" class="st2"/>
				<text x="40.24" y="174.81" class="st3">1</text>			</g>
			<g id="shape1493-7" transform="translate(0,-4.47576)">
				<title>Sheet.1493</title>
				<desc>A</desc>
				<rect x="0" y="164.721" width="13.2348" height="14.1732" class="st4"/>
				<text x="4" y="178.41" class="st5"><tspan class="st6">A</tspan></text>			</g>
		</g>
		<g id="group1494-11" transform="translate(7.68944,-1.125)">
			<title>STPX020.469</title>
			<g id="shape1495-12" transform="translate(85.0399,216.055) rotate(180)">
				<title>Sheet.1495</title>
				<path d="M0 178.89 L56.69 178.89" class="st7"/>
			</g>
			<g id="shape1496-15" transform="translate(28.3466,-28.3466)">
				<title>Sheet.1496</title>
				<path d="M0 178.89 L56.69 178.89" class="st7"/>
			</g>
			<g id="shape1497-18" transform="translate(113.387,-28.3466)">
				<title>Sheet.1497</title>
				<path d="M0 178.89 L453.55 178.89" class="st7"/>
			</g>
			<g id="shape1498-21" transform="translate(193.068,8.81444) rotate(90)">
				<title>Sheet.1498</title>
				<path d="M0 178.89 L170.08 178.89" class="st7"/>
			</g>
			<g id="shape1499-24" transform="translate(278.108,8.81444) rotate(90)">
				<title>Sheet.1499</title>
				<path d="M0 178.89 L170.08 178.89" class="st7"/>
			</g>
			<g id="shape1500-27" transform="translate(85.0399,-170.08)">
				<title>Sheet.1500</title>
				<path d="M0 178.89 L28.35 178.89" class="st7"/>
			</g>
			<g id="shape1501-30" transform="translate(113.387,357.789) rotate(180)">
				<title>Sheet.1501</title>
				<path d="M0 178.89 L28.35 178.89" class="st7"/>
			</g>
			<g id="shape1502-33" transform="translate(9.39249E-14,-170.08)">
				<title>Sheet.1502</title>
				<path d="M0 178.89 L28.35 178.89" class="st7"/>
			</g>
			<g id="shape1503-36" transform="translate(28.3466,357.789) rotate(180)">
				<title>Sheet.1503</title>
				<path d="M0 178.89 L28.35 178.89" class="st7"/>
			</g>
			<g id="shape1504-39" transform="translate(-178.894,178.894) rotate(-90)">
				<title>Sheet.1504</title>
				<path d="M0 178.89 L170.08 178.89" class="st7"/>
			</g>
			<g id="shape1505-42" transform="translate(207.241,8.81444) rotate(90)">
				<title>Sheet.1505</title>
				<path d="M0 178.89 L28.35 178.89" class="st7"/>
			</g>
			<g id="shape1506-45" transform="translate(207.241,37.1611) rotate(90)">
				<title>Sheet.1506</title>
				<path d="M0 178.89 L113.39 178.89" class="st7"/>
			</g>
			<g id="shape1507-48" transform="translate(207.241,150.548) rotate(90)">
				<title>Sheet.1507</title>
				<path d="M0 178.89 L28.35 178.89" class="st7"/>
			</g>
			<g id="shape1508-51" transform="translate(-93.8544,178.894) rotate(-90)">
				<title>Sheet.1508</title>
				<path d="M0 178.89 L28.35 178.89" class="st7"/>
			</g>
			<g id="shape1509-54" transform="translate(-93.8544,150.548) rotate(-90)">
				<title>Sheet.1509</title>
				<path d="M0 178.89 L113.39 178.89" class="st7"/>
			</g>
			<g id="shape1510-57" transform="translate(-93.8544,37.1611) rotate(-90)">
				<title>Sheet.1510</title>
				<path d="M0 178.89 L28.35 178.89" class="st7"/>
			</g>
			<g id="shape1511-60" transform="translate(292.281,8.81444) rotate(90)">
				<title>Sheet.1511</title>
				<path d="M0 178.89 L28.36 178.89" class="st7"/>
			</g>
			<g id="shape1512-63" transform="translate(292.281,37.1723) rotate(90)">
				<title>Sheet.1512</title>
				<path d="M0 178.89 L113.38 178.89" class="st7"/>
			</g>
			<g id="shape1513-66" transform="translate(292.281,150.548) rotate(90)">
				<title>Sheet.1513</title>
				<path d="M0 178.89 L28.35 178.89" class="st7"/>
			</g>
			<g id="shape1514-69" transform="translate(113.387,-141.733)">
				<title>Sheet.1514</title>
				<path d="M0 178.89 L453.55 178.89" class="st7"/>
			</g>
			<g id="shape1515-72" transform="translate(566.929,-28.3379)">
				<title>Sheet.1515</title>
				<path d="M0 178.89 A56.6933 28.3466 90 0 0 -0 65.51 L0 178.89 Z" class="st8"/>
				<path d="M0 178.89 A56.6933 28.3466 90 0 0 -0 65.51" class="st7"/>
			</g>
			<g id="shape1516-75" transform="translate(745.827,37.1611) rotate(90)">
				<title>Sheet.1516</title>
				<path d="M0 178.89 L113.39 178.89" class="st7"/>
			</g>
		</g>
	</g>
</svg>
