<?xml version="1.0" encoding="UTF-8" standalone="no"?>
<!DOCTYPE svg PUBLIC "-//W3C//DTD SVG 1.1//EN" "http://www.w3.org/Graphics/SVG/1.1/DTD/svg11.dtd">
<!-- Generated by Microsoft Visio, SVG Export PE040A_Origo.svg Page-1 -->
<svg xmlns="http://www.w3.org/2000/svg" xmlns:xlink="http://www.w3.org/1999/xlink" xmlns:ev="http://www.w3.org/2001/xml-events"
		width="7.60273in" height="3.08401in" viewBox="0 0 547.397 222.049" xml:space="preserve" color-interpolation-filters="sRGB"
		class="st9">
	<title>PE040A</title>

	<style type="text/css">
	<![CDATA[
		.st1 {fill:none;stroke:#ff0000;stroke-linecap:round;stroke-linejoin:round;stroke-width:0.75}
		.st2 {fill:#ff0000;font-family:Arial Narrow;font-size:0.833336em;font-weight:bold}
		.st3 {fill:none;stroke:none;stroke-linecap:round;stroke-linejoin:round;stroke-width:0.75}
		.st4 {fill:#ff0000;font-family:Arial Narrow;font-size:0.811964em;font-weight:bold}
		.st5 {baseline-shift:33.35%;font-size:0.667em}
		.st6 {fill:none;stroke:#ff0000;stroke-linecap:round;stroke-linejoin:round;stroke-width:2.25}
		.st7 {fill:none}
		.st8 {stroke:#000000;stroke-linecap:round;stroke-linejoin:round;stroke-width:2.25}
		.st9 {fill:none;fill-rule:evenodd;font-size:12px;overflow:visible;stroke-linecap:square;stroke-miterlimit:3}
	]]>
	</style>

	<g>
		<title>Page-1</title>
		<g id="group1491-1" transform="translate(220.287,-0.375)">
			<title>Sheet.1491</title>
			<g id="shape1492-2" transform="translate(2.14165,0)">
				<title>Sheet.1492</title>
				<desc>1</desc>
				<rect x="0" y="207.876" width="85.0394" height="14.1732" class="st1"/>
				<text x="40.24" y="217.96" class="st2">1</text>			</g>
			<g id="shape1493-5" transform="translate(0,-4.47576)">
				<title>Sheet.1493</title>
				<desc>A</desc>
				<rect x="0" y="207.876" width="13.2348" height="14.1732" class="st3"/>
				<text x="4" y="221.57" class="st4"><tspan class="st5">A</tspan></text>			</g>
		</g>
		<g id="shape1513-9" transform="translate(1.125,-207.795)">
			<title>Circle</title>
			<path d="M0 215.48 A6.56444 6.56444 0 0 1 13.13 215.48 A6.56444 6.56444 0 1 1 0 215.48 Z" class="st6"/>
		</g>
		<g id="group1514-11" transform="translate(7.68902,-42.8947)">
			<title>Sheet.1514</title>
			<g id="shape1497-12" transform="translate(453.544,5.68434E-14)">
				<title>Sheet.1497</title>
				<path d="M0 222.05 A85.035 85.035 -180 1 0 0 51.98 L0 222.05 Z" class="st7"/>
				<path d="M0 222.05 A85.035 85.035 -180 1 0 0 51.98" class="st8"/>
			</g>
			<g id="shape1503-15" transform="translate(-0.0470467,-112.546) rotate(-0.0122522)">
				<title>Sheet.1503</title>
				<path d="M0 222.05 L453.54 222.05" class="st8"/>
			</g>
			<g id="shape1504-18" transform="translate(-0.0474831,-55.9475) rotate(-0.0122522)">
				<title>Sheet.1504</title>
				<path d="M0 222.05 L453.54 222.05" class="st8"/>
			</g>
			<g id="shape1505-21" transform="translate(-0.0470273,-0.641099) rotate(-0.0122522)">
				<title>Sheet.1505</title>
				<path d="M0 222.05 L453.54 222.05" class="st8"/>
			</g>
			<g id="shape1506-24" transform="translate(-0.0470562,-170.719) rotate(-0.0122522)">
				<title>Sheet.1506</title>
				<path d="M0 222.05 L453.54 222.05" class="st8"/>
			</g>
			<g id="shape1507-27" transform="translate(-222.049,108.011) rotate(-90)">
				<title>Sheet.1507</title>
				<path d="M0 222.05 L56.68 222.05" class="st8"/>
			</g>
			<g id="shape1508-30" transform="translate(-222.049,221.408) rotate(-90)">
				<title>Sheet.1508</title>
				<path d="M0 222.05 L56.68 222.05" class="st8"/>
			</g>
			<g id="shape1511-33" transform="translate(453.544,-55.947)">
				<title>Sheet.1511</title>
				<path d="M0 222.05 A29.0552 29.0552 -180 0 0 0 165.36 L0 222.05 Z" class="st7"/>
				<path d="M0 222.05 A29.0552 29.0552 -180 0 0 0 165.36" class="st8"/>
			</g>
		</g>
	</g>
</svg>
