<?xml version="1.0" encoding="UTF-8" standalone="no"?>
<!DOCTYPE svg PUBLIC "-//W3C//DTD SVG 1.1//EN" "http://www.w3.org/Graphics/SVG/1.1/DTD/svg11.dtd">
<!-- Generated by Microsoft Visio, SVG Export PF008A_Origo.svg Page-1 -->
<svg xmlns="http://www.w3.org/2000/svg" xmlns:xlink="http://www.w3.org/1999/xlink" xmlns:ev="http://www.w3.org/2001/xml-events"
		width="1.60605in" height="1.60605in" viewBox="0 0 115.636 115.636" xml:space="preserve" color-interpolation-filters="sRGB"
		class="st5">
	<title>PF008A</title>

	<style type="text/css">
	<![CDATA[
		.st1 {fill:none;stroke:#ff0000;stroke-linecap:round;stroke-linejoin:round;stroke-width:2.25}
		.st2 {fill:none;stroke:#000000;stroke-linecap:round;stroke-linejoin:round;stroke-width:2.25}
		.st3 {stroke:#000000;stroke-linecap:round;stroke-linejoin:round;stroke-width:2.25}
		.st4 {fill:none}
		.st5 {fill:none;fill-rule:evenodd;font-size:12px;overflow:visible;stroke-linecap:square;stroke-miterlimit:3}
	]]>
	</style>

	<g>
		<title>Page-1</title>
		<g id="shape1557-1" transform="translate(52.1176,-50.0929)">
			<title>Circle</title>
			<path d="M0 108.92 A6.71264 6.71264 0 0 1 13.43 108.92 A6.71264 6.71264 0 0 1 0 108.92 Z" class="st1"/>
		</g>
		<g id="group1635-3" transform="translate(1.125,-1.125)">
			<title>STPF012.486</title>
			<g id="shape1636-4">
				<title>Sheet.1636</title>
				<path d="M0 2.25 L113.39 2.25 L113.39 115.64 L0 115.64 L0 2.25 L0 2.25 Z" class="st2"/>
			</g>
		</g>
		<g id="shape1639-6" transform="translate(157.265,-17.7485) rotate(53.7917)">
			<title>Sheet.1639</title>
			<path d="M0 115.64 L18.77 115.64" class="st3"/>
		</g>
		<g id="shape1640-9" transform="translate(80.7719,180.181) rotate(180)">
			<title>Sheet.1640</title>
			<path d="M6.12 115.56 A3.97157 3.73207 90 0 0 0 115.64 L6.12 115.56 Z" class="st4"/>
			<path d="M6.12 115.56 A3.97157 3.73207 90 0 0 0 115.64" class="st3"/>
		</g>
		<g id="shape1641-12" transform="translate(63.9661,164.535) rotate(180)">
			<title>Sheet.1641</title>
			<path d="M0 113.97 A3.97157 3.73207 -90 0 0 6.12 113.9 L0 113.97 Z" class="st4"/>
			<path d="M0 113.97 A3.97157 3.73207 -90 0 0 6.12 113.9" class="st3"/>
		</g>
		<g id="shape1642-15" transform="translate(122.908,-17.7666) rotate(53.7917)">
			<title>Sheet.1642</title>
			<path d="M0 115.64 L18.77 115.64" class="st3"/>
		</g>
		<g id="shape1643-18" transform="translate(46.8217,181.258) rotate(180)">
			<title>Sheet.1643</title>
			<path d="M6.12 115.56 A3.97157 3.73207 90 0 0 0 115.64 L6.12 115.56 Z" class="st4"/>
			<path d="M6.12 115.56 A3.97157 3.73207 90 0 0 0 115.64" class="st3"/>
		</g>
		<g id="shape1644-21" transform="translate(29.6098,164.516) rotate(180)">
			<title>Sheet.1644</title>
			<path d="M0 113.97 A3.97157 3.73207 -90 0 0 6.12 113.9 L0 113.97 Z" class="st4"/>
			<path d="M0 113.97 A3.97157 3.73207 -90 0 0 6.12 113.9" class="st3"/>
		</g>
		<g id="shape1645-24" transform="translate(12.4659,181.258) rotate(180)">
			<title>Sheet.1645</title>
			<path d="M6.12 115.56 A3.97157 3.73207 90 0 0 0 115.64 L6.12 115.56 Z" class="st4"/>
			<path d="M6.12 115.56 A3.97157 3.73207 90 0 0 0 115.64" class="st3"/>
		</g>
		<g id="shape1646-27" transform="translate(94.3908,-9.78776) rotate(53.76)">
			<title>Sheet.1646</title>
			<path d="M0 115.64 L8.82 115.64" class="st3"/>
		</g>
		<g id="shape1647-30" transform="translate(116.639,119.124) rotate(126.332)">
			<title>Sheet.1647</title>
			<path d="M0 115.64 L18.95 115.64" class="st3"/>
		</g>
		<g id="shape1648-33" transform="translate(150.992,119.148) rotate(126.335)">
			<title>Sheet.1648</title>
			<path d="M0 115.64 L18.68 115.64" class="st3"/>
		</g>
		<g id="shape1653-36" transform="translate(190.598,-18.3746) rotate(53.7917)">
			<title>Sheet.1653</title>
			<path d="M0 115.64 L18.77 115.64" class="st3"/>
		</g>
		<g id="shape1654-39" transform="translate(114.511,180.65) rotate(180)">
			<title>Sheet.1654</title>
			<path d="M6.12 115.56 A3.97157 3.73207 90 0 0 0 115.64 L6.12 115.56 Z" class="st4"/>
			<path d="M6.12 115.56 A3.97157 3.73207 90 0 0 0 115.64" class="st3"/>
		</g>
		<g id="shape1655-42" transform="translate(97.2989,163.908) rotate(180)">
			<title>Sheet.1655</title>
			<path d="M0 113.97 A3.97157 3.73207 -90 0 0 6.12 113.9 L0 113.97 Z" class="st4"/>
			<path d="M0 113.97 A3.97157 3.73207 -90 0 0 6.12 113.9" class="st3"/>
		</g>
		<g id="shape1656-45" transform="translate(81.178,180.632) rotate(180)">
			<title>Sheet.1656</title>
			<path d="M6.12 115.56 A3.97157 3.73207 90 0 0 0 115.64 L6.12 115.56 Z" class="st4"/>
			<path d="M6.12 115.56 A3.97157 3.73207 90 0 0 0 115.64" class="st3"/>
		</g>
		<g id="shape1657-48" transform="translate(184.324,118.521) rotate(126.335)">
			<title>Sheet.1657</title>
			<path d="M0 115.64 L18.68 115.64" class="st3"/>
		</g>
	</g>
</svg>
