<?xml version="1.0" encoding="UTF-8" standalone="no"?>
<!DOCTYPE svg PUBLIC "-//W3C//DTD SVG 1.1//EN" "http://www.w3.org/Graphics/SVG/1.1/DTD/svg11.dtd">
<!-- Generated by Microsoft Visio, SVG Export PF013A_Origo.svg Page-1 -->
<svg xmlns="http://www.w3.org/2000/svg" xmlns:xlink="http://www.w3.org/1999/xlink" xmlns:ev="http://www.w3.org/2001/xml-events"
		width="1.60605in" height="1.60605in" viewBox="0 0 115.636 115.636" xml:space="preserve" color-interpolation-filters="sRGB"
		class="st4">
	<title>PF013A</title>

	<style type="text/css">
	<![CDATA[
		.st1 {fill:none;stroke:#ff0000;stroke-linecap:round;stroke-linejoin:round;stroke-width:2.25}
		.st2 {stroke:#000000;stroke-linecap:round;stroke-linejoin:round;stroke-width:2.25}
		.st3 {fill:none}
		.st4 {fill:none;fill-rule:evenodd;font-size:12px;overflow:visible;stroke-linecap:square;stroke-miterlimit:3}
	]]>
	</style>

	<g>
		<title>Page-1</title>
		<g id="shape1659-1" transform="translate(51.5625,-50.6481)">
			<title>Circle</title>
			<path d="M0 108.92 A6.71264 6.71264 0 0 1 13.43 108.92 A6.71264 6.71264 0 0 1 0 108.92 Z" class="st1"/>
		</g>
		<g id="group1660-3" transform="translate(1.125,-1.125)">
			<title>Sheet.1660</title>
			<g id="shape1653-4" transform="translate(-115.636,115.636) rotate(-90)">
				<title>Sheet.1653</title>
				<path d="M0 115.64 L113.39 115.64" class="st2"/>
			</g>
			<g id="shape1654-7" transform="translate(-2.25,85.8096) rotate(-90)">
				<title>Sheet.1654</title>
				<path d="M0 115.64 L55.21 115.64" class="st2"/>
			</g>
			<g id="shape1655-10" transform="translate(3.19744E-14,-85.0394)">
				<title>Sheet.1655</title>
				<path d="M0 87.29 A113.386 28.3465 0 0 0 113.39 115.64 L0 87.29 Z" class="st3"/>
				<path d="M0 87.29 A113.386 28.3465 0 0 0 113.39 115.64" class="st2"/>
			</g>
			<g id="shape1658-13" transform="translate(9.59233E-14,201.445) scale(1,-1)">
				<title>Sheet.1658</title>
				<path d="M0 87.29 A113.386 28.3465 0 0 0 113.39 115.64 L0 87.29 Z" class="st3"/>
				<path d="M0 87.29 A113.386 28.3465 0 0 0 113.39 115.64" class="st2"/>
			</g>
		</g>
	</g>
</svg>
