<?xml version="1.0" encoding="UTF-8" standalone="no"?>
<!DOCTYPE svg PUBLIC "-//W3C//DTD SVG 1.1//EN" "http://www.w3.org/Graphics/SVG/1.1/DTD/svg11.dtd">
<!-- Generated by Microsoft Visio, SVG Export PP008A_Origo.svg Page-1 -->
<svg xmlns="http://www.w3.org/2000/svg" xmlns:xlink="http://www.w3.org/1999/xlink" xmlns:ev="http://www.w3.org/2001/xml-events"
		width="4.16511in" height="3.17044in" viewBox="0 0 299.888 228.272" xml:space="preserve" color-interpolation-filters="sRGB"
		class="st9">
	<title>PP008A</title>

	<style type="text/css">
	<![CDATA[
		.st1 {fill:none;stroke:#ff0000;stroke-linecap:round;stroke-linejoin:round;stroke-width:0.75}
		.st2 {fill:#ff0000;font-family:Arial Narrow;font-size:0.833336em;font-weight:bold}
		.st3 {fill:none;stroke:none;stroke-linecap:round;stroke-linejoin:round;stroke-width:0.75}
		.st4 {fill:#ff0000;font-family:Arial Narrow;font-size:0.811964em;font-weight:bold}
		.st5 {baseline-shift:33.35%;font-size:0.667em}
		.st6 {fill:none;stroke:#ff0000;stroke-linecap:round;stroke-linejoin:round;stroke-width:2.25}
		.st7 {fill:none}
		.st8 {stroke:#000000;stroke-linecap:round;stroke-linejoin:round;stroke-width:2.25}
		.st9 {fill:none;fill-rule:evenodd;font-size:12px;overflow:visible;stroke-linecap:square;stroke-miterlimit:3}
	]]>
	</style>

	<g>
		<title>Page-1</title>
		<g id="group1405-1" transform="translate(113.44,-0.375)">
			<title>Sheet.1405</title>
			<g id="shape1406-2" transform="translate(2.14165,0)">
				<title>Sheet.1406</title>
				<desc>1</desc>
				<rect x="0" y="214.098" width="85.0394" height="14.1732" class="st1"/>
				<text x="40.24" y="224.19" class="st2">1</text>			</g>
			<g id="shape1407-5" transform="translate(0,-4.47576)">
				<title>Sheet.1407</title>
				<desc>A</desc>
				<rect x="0" y="214.098" width="13.2348" height="14.1732" class="st3"/>
				<text x="4" y="227.79" class="st4"><tspan class="st5">A</tspan></text>			</g>
		</g>
		<g id="shape1412-9" transform="translate(51.2535,-22.157)">
			<title>Circle</title>
			<path d="M0 221.71 A6.56444 6.56444 0 1 1 13.13 221.71 A6.56444 6.56444 0 1 1 0 221.71 Z" class="st6"/>
		</g>
		<g id="group1444-11" transform="translate(1.125,-28.7215)">
			<title>STPP008.39</title>
			<g id="shape1445-12" transform="translate(56.6929,-9.66338E-13)">
				<title>Sheet.1445</title>
				<path d="M0 185.75 L0 228.27 L198.43 228.27 L198.43 185.75 L198.43 185.75 L0 185.75 Z" class="st7"/>
				<path d="M0 185.75 L0 228.27 L198.43 228.27 L198.43 185.75 L198.43 185.75" class="st8"/>
			</g>
			<g id="shape1446-15" transform="translate(1.48681E-12,-42.5197)">
				<title>Sheet.1446</title>
				<path d="M99.21 228.27 L0 228.27 L0 129.06 L99.21 129.06 L99.21 129.06 L99.21 228.27 Z" class="st7"/>
				<path d="M99.21 228.27 L0 228.27 L0 129.06 L99.21 129.06 L99.21 129.06" class="st8"/>
			</g>
			<g id="shape1447-18" transform="translate(69.3661,185.752) rotate(-90)">
				<title>Sheet.1447</title>
				<path d="M0 228.27 L155.91 228.27" class="st8"/>
			</g>
			<g id="shape1448-21" transform="translate(327.484,29.8465) rotate(90)">
				<title>Sheet.1448</title>
				<path d="M0 228.27 L155.91 228.27" class="st8"/>
			</g>
			<g id="shape1449-24" transform="translate(99.2126,-42.5197)">
				<title>Sheet.1449</title>
				<path d="M0 228.27 L198.43 228.27" class="st8"/>
			</g>
			<g id="shape1450-27" transform="translate(297.638,258.118) rotate(180)">
				<title>Sheet.1450</title>
				<path d="M0 228.27 L198.43 228.27" class="st8"/>
			</g>
		</g>
	</g>
</svg>
