<?xml version="1.0" encoding="UTF-8" standalone="no"?>
<!DOCTYPE svg PUBLIC "-//W3C//DTD SVG 1.1//EN" "http://www.w3.org/Graphics/SVG/1.1/DTD/svg11.dtd">
<!-- Generated by Microsoft Visio, SVG Export PP007A_Origo.svg Page-1 -->
<svg xmlns="http://www.w3.org/2000/svg" xmlns:xlink="http://www.w3.org/1999/xlink" xmlns:ev="http://www.w3.org/2001/xml-events"
		width="3.54937in" height="3.96027in" viewBox="0 0 255.555 285.14" xml:space="preserve" color-interpolation-filters="sRGB"
		class="st10">
	<title>PP007A</title>

	<style type="text/css">
	<![CDATA[
		.st1 {fill:none;stroke:#ff0000;stroke-linecap:round;stroke-linejoin:round;stroke-width:0.75}
		.st2 {fill:#ff0000;font-family:Arial Narrow;font-size:0.833336em;font-weight:bold}
		.st3 {fill:none;stroke:none;stroke-linecap:round;stroke-linejoin:round;stroke-width:0.75}
		.st4 {fill:#ff0000;font-family:Arial Narrow;font-size:0.811964em;font-weight:bold}
		.st5 {baseline-shift:33.35%;font-size:0.667em}
		.st6 {stroke:#000000;stroke-linecap:round;stroke-linejoin:round;stroke-width:2.25}
		.st7 {fill:none;stroke:#ff0000;stroke-linecap:round;stroke-linejoin:round;stroke-width:2.25}
		.st8 {fill:none;stroke:#000000;stroke-linecap:round;stroke-linejoin:round;stroke-width:2.25}
		.st9 {fill:none}
		.st10 {fill:none;fill-rule:evenodd;font-size:12px;overflow:visible;stroke-linecap:square;stroke-miterlimit:3}
	]]>
	</style>

	<g>
		<title>Page-1</title>
		<g id="group1405-1" transform="translate(69.1035,-0.375)">
			<title>Sheet.1405</title>
			<g id="shape1406-2" transform="translate(2.14165,0)">
				<title>Sheet.1406</title>
				<desc>1</desc>
				<rect x="0" y="270.967" width="85.0394" height="14.1732" class="st1"/>
				<text x="40.24" y="281.05" class="st2">1</text>			</g>
			<g id="shape1407-5" transform="translate(0,-4.47576)">
				<title>Sheet.1407</title>
				<desc>A</desc>
				<rect x="0" y="270.967" width="13.2348" height="14.1732" class="st3"/>
				<text x="4" y="284.66" class="st4"><tspan class="st5">A</tspan></text>			</g>
		</g>
		<g id="shape1410-9" transform="translate(1.125,-28.8967)">
			<title>Sheet.1410</title>
			<path d="M32.45 223.77 L0 285.14 L226.03 285.14 L192.83 223.77" class="st6"/>
		</g>
		<g id="shape1412-12" transform="translate(106.454,-163.889)">
			<title>Circle</title>
			<path d="M0 278.58 A6.56444 6.56444 0 1 1 13.13 278.58 A6.56444 6.56444 0 1 1 0 278.58 Z" class="st7"/>
		</g>
		<g id="shape1438-14" transform="translate(98.1101,-155.241)">
			<title>Sheet.1438</title>
			<ellipse cx="14.7541" cy="270.386" rx="14.7541" ry="14.7541" class="st8"/>
		</g>
		<g id="shape1439-16" transform="translate(211.858,-228.428)">
			<title>Sheet.1439</title>
			<path d="M0 285.14 L42.57 285.14" class="st6"/>
		</g>
		<g id="shape1440-19" transform="translate(-30.7099,56.7201) rotate(-90)">
			<title>Sheet.1440</title>
			<path d="M0 285.14 L55.44 285.14" class="st6"/>
		</g>
		<g id="shape1441-22" transform="translate(254.43,286.417) rotate(180)">
			<title>Sheet.1441</title>
			<path d="M0 285.14 L138.59 285.14" class="st6"/>
		</g>
		<g id="shape1442-25" transform="translate(3.0446,-58.8868)">
			<title>Sheet.1442</title>
			<path d="M112.88 60.01 A113.196 113.196 -180 1 0 210.91 116.61 L112.88 60.01 Z" class="st9"/>
			<path d="M112.88 60.01 A113.196 113.196 -180 1 0 210.91 116.61" class="st6"/>
		</g>
	</g>
</svg>
