<?xml version="1.0" encoding="UTF-8" standalone="no"?>
<!DOCTYPE svg PUBLIC "-//W3C//DTD SVG 1.1//EN" "http://www.w3.org/Graphics/SVG/1.1/DTD/svg11.dtd">
<!-- Generated by Microsoft Visio, SVG Export PP004A_Origo.svg Page-1 -->
<svg xmlns="http://www.w3.org/2000/svg" xmlns:xlink="http://www.w3.org/1999/xlink" xmlns:ev="http://www.w3.org/2001/xml-events"
		width="3.1853in" height="4.15713in" viewBox="0 0 229.341 299.313" xml:space="preserve" color-interpolation-filters="sRGB"
		class="st10">
	<title>PP004A</title>

	<style type="text/css">
	<![CDATA[
		.st1 {fill:none;stroke:#ff0000;stroke-linecap:round;stroke-linejoin:round;stroke-width:0.75}
		.st2 {fill:#ff0000;font-family:Arial Narrow;font-size:0.833336em;font-weight:bold}
		.st3 {fill:none;stroke:none;stroke-linecap:round;stroke-linejoin:round;stroke-width:0.75}
		.st4 {fill:#ff0000;font-family:Arial Narrow;font-size:0.811964em;font-weight:bold}
		.st5 {baseline-shift:33.35%;font-size:0.667em}
		.st6 {fill:none;stroke:#000000;stroke-linecap:round;stroke-linejoin:round;stroke-width:2.25}
		.st7 {stroke:#000000;stroke-linecap:round;stroke-linejoin:round;stroke-width:2.25}
		.st8 {fill:#ffffff}
		.st9 {fill:none;stroke:#ff0000;stroke-linecap:round;stroke-linejoin:round;stroke-width:2.25}
		.st10 {fill:none;fill-rule:evenodd;font-size:12px;overflow:visible;stroke-linecap:square;stroke-miterlimit:3}
	]]>
	</style>

	<g>
		<title>Page-1</title>
		<g id="group1405-1" transform="translate(70.1693,-0.375)">
			<title>Sheet.1405</title>
			<g id="shape1406-2" transform="translate(2.14165,0)">
				<title>Sheet.1406</title>
				<desc>1</desc>
				<rect x="0" y="285.14" width="85.0394" height="14.1732" class="st1"/>
				<text x="40.24" y="295.23" class="st2">1</text>			</g>
			<g id="shape1407-5" transform="translate(0,-4.47576)">
				<title>Sheet.1407</title>
				<desc>A</desc>
				<rect x="0" y="285.14" width="13.2348" height="14.1732" class="st3"/>
				<text x="4" y="298.83" class="st4"><tspan class="st5">A</tspan></text>			</g>
		</g>
		<g id="shape1408-9" transform="translate(1.44481,-57.0679)">
			<title>Circle.1009</title>
			<path d="M0 185.93 A113.386 113.386 0 0 1 226.77 185.93 A113.386 113.386 0 1 1 0 185.93 Z" class="st6"/>
		</g>
		<g id="shape1410-11" transform="translate(2.19076,-28.8967)">
			<title>Sheet.1410</title>
			<path d="M32.45 237.94 L0 299.31 L226.03 299.31 L192.83 237.94" class="st7"/>
		</g>
		<g id="shape1429-14" transform="translate(1.125,-160.836)">
			<title>Sheet.1429</title>
			<path d="M97.44 299.31 L0 189.43 L26.58 161.96 L124.01 271.84 L124.01 271.84 L97.44 299.31 Z" class="st8"/>
			<path d="M97.44 299.31 L0 189.43 L26.58 161.96 L124.01 271.84 L124.01 271.84" class="st7"/>
		</g>
		<g id="shape1430-17" transform="translate(95.4143,-151.521)">
			<title>Sheet.1430</title>
			<ellipse cx="19.6631" cy="279.65" rx="19.6631" ry="19.6631" class="st6"/>
		</g>
		<g id="shape1412-19" transform="translate(108.266,-163.889)">
			<title>Circle</title>
			<path d="M0 292.75 A6.56444 6.56444 0 1 1 13.13 292.75 A6.56444 6.56444 0 1 1 0 292.75 Z" class="st9"/>
		</g>
	</g>
</svg>
