<?xml version="1.0" encoding="UTF-8" standalone="no"?>
<!DOCTYPE svg PUBLIC "-//W3C//DTD SVG 1.1//EN" "http://www.w3.org/Graphics/SVG/1.1/DTD/svg11.dtd">
<!-- Generated by Microsoft Visio, SVG Export PP017A_Origo.svg Page-1 -->
<svg xmlns="http://www.w3.org/2000/svg" xmlns:xlink="http://www.w3.org/1999/xlink" xmlns:ev="http://www.w3.org/2001/xml-events"
		width="2.39345in" height="6.01752in" viewBox="0 0 172.329 433.261" xml:space="preserve" color-interpolation-filters="sRGB"
		class="st9">
	<title>PP017A</title>

	<style type="text/css">
	<![CDATA[
		.st1 {fill:none;stroke:#ff0000;stroke-linecap:round;stroke-linejoin:round;stroke-width:0.75}
		.st2 {fill:#ff0000;font-family:Arial Narrow;font-size:0.833336em;font-weight:bold}
		.st3 {fill:none;stroke:none;stroke-linecap:round;stroke-linejoin:round;stroke-width:0.75}
		.st4 {fill:#ff0000;font-family:Arial Narrow;font-size:0.811964em;font-weight:bold}
		.st5 {baseline-shift:33.35%;font-size:0.667em}
		.st6 {fill:none;stroke:#ff0000;stroke-linecap:round;stroke-linejoin:round;stroke-width:2.25}
		.st7 {stroke:#000000;stroke-linecap:round;stroke-linejoin:round;stroke-width:2.25}
		.st8 {fill:none}
		.st9 {fill:none;fill-rule:evenodd;font-size:12px;overflow:visible;stroke-linecap:square;stroke-miterlimit:3}
	]]>
	</style>

	<g>
		<title>Page-1</title>
		<g id="group1405-1" transform="translate(41.503,-0.375)">
			<title>Sheet.1405</title>
			<g id="shape1406-2" transform="translate(2.14165,0)">
				<title>Sheet.1406</title>
				<desc>1</desc>
				<rect x="0" y="419.088" width="85.0394" height="14.1732" class="st1"/>
				<text x="40.24" y="429.17" class="st2">1</text>			</g>
			<g id="shape1407-5" transform="translate(0,-4.47576)">
				<title>Sheet.1407</title>
				<desc>A</desc>
				<rect x="0" y="419.088" width="13.2348" height="14.1732" class="st3"/>
				<text x="4" y="432.78" class="st4"><tspan class="st5">A</tspan></text>			</g>
		</g>
		<g id="shape1412-9" transform="translate(79.5999,-419.007)">
			<title>Circle</title>
			<path d="M0 426.7 A6.56444 6.56444 0 1 1 13.13 426.7 A6.56444 6.56444 0 1 1 0 426.7 Z" class="st6"/>
		</g>
		<g id="shape1483-11" transform="translate(-347.102,390.218) rotate(-89.9992)">
			<title>Sheet.1483</title>
			<path d="M0 433.26 L382.63 433.26" class="st7"/>
		</g>
		<g id="shape1484-14" transform="translate(1.125,-21.7804)">
			<title>Sheet.1484</title>
			<path d="M21.26 390.75 A21.2562 21.2562 -180 0 0 21.26 433.26 L21.26 390.75 Z" class="st8"/>
			<path d="M21.26 390.75 A21.2562 21.2562 -180 0 0 21.26 433.26" class="st7"/>
		</g>
		<g id="shape1485-17" transform="translate(149.948,-21.7804)">
			<title>Sheet.1485</title>
			<path d="M0 433.26 A21.2562 21.2562 -180 0 0 0 390.75 L0 433.26 Z" class="st8"/>
			<path d="M0 433.26 A21.2562 21.2562 -180 0 0 0 390.75" class="st7"/>
		</g>
		<g id="shape1495-20" transform="translate(159.362,-42.0687) rotate(18.431)">
			<title>Sheet.1495</title>
			<path d="M0 433.26 L134.46 433.26" class="st7"/>
		</g>
		<g id="shape1496-23" transform="translate(-114.6,0.443656) rotate(-18.431)">
			<title>Sheet.1496</title>
			<path d="M0 433.26 L134.46 433.26" class="st7"/>
		</g>
	</g>
</svg>
