<?xml version="1.0" encoding="UTF-8" standalone="no"?>
<!DOCTYPE svg PUBLIC "-//W3C//DTD SVG 1.1//EN" "http://www.w3.org/Graphics/SVG/1.1/DTD/svg11.dtd">
<!-- Generated by Microsoft Visio, SVG Export PP014A_Origo.svg Page-1 -->
<svg xmlns="http://www.w3.org/2000/svg" xmlns:xlink="http://www.w3.org/1999/xlink" xmlns:ev="http://www.w3.org/2001/xml-events"
		width="3.86258in" height="1.98934in" viewBox="0 0 278.106 143.232" xml:space="preserve" color-interpolation-filters="sRGB"
		class="st10">
	<title>PP014A</title>

	<style type="text/css">
	<![CDATA[
		.st1 {fill:none;stroke:#ff0000;stroke-linecap:round;stroke-linejoin:round;stroke-width:0.75}
		.st2 {fill:#ff0000;font-family:Arial Narrow;font-size:0.833336em;font-weight:bold}
		.st3 {fill:none;stroke:none;stroke-linecap:round;stroke-linejoin:round;stroke-width:0.75}
		.st4 {fill:#ff0000;font-family:Arial Narrow;font-size:0.811964em;font-weight:bold}
		.st5 {baseline-shift:33.35%;font-size:0.667em}
		.st6 {fill:none;stroke:#ff0000;stroke-linecap:round;stroke-linejoin:round;stroke-width:2.25}
		.st7 {fill:none}
		.st8 {stroke:#000000;stroke-linecap:round;stroke-linejoin:round;stroke-width:2.25}
		.st9 {fill:none;stroke:#000000;stroke-linecap:round;stroke-linejoin:round;stroke-width:2.25}
		.st10 {fill:none;fill-rule:evenodd;font-size:12px;overflow:visible;stroke-linecap:square;stroke-miterlimit:3}
	]]>
	</style>

	<g>
		<title>Page-1</title>
		<g id="group1405-1" transform="translate(118.934,-0.375)">
			<title>Sheet.1405</title>
			<g id="shape1406-2" transform="translate(2.14165,0)">
				<title>Sheet.1406</title>
				<desc>1</desc>
				<rect x="0" y="129.059" width="85.0394" height="14.1732" class="st1"/>
				<text x="40.24" y="139.15" class="st2">1</text>			</g>
			<g id="shape1407-5" transform="translate(0,-4.47576)">
				<title>Sheet.1407</title>
				<desc>A</desc>
				<rect x="0" y="129.059" width="13.2348" height="14.1732" class="st3"/>
				<text x="4" y="142.75" class="st4"><tspan class="st5">A</tspan></text>			</g>
		</g>
		<g id="shape1412-9" transform="translate(1.125,-78.8499)">
			<title>Circle</title>
			<path d="M0 136.67 A6.56444 6.56444 0 1 1 13.13 136.67 A6.56444 6.56444 0 1 1 0 136.67 Z" class="st6"/>
		</g>
		<g id="shape1454-11" transform="translate(78.5667,-55.6506)">
			<title>Sheet.1454</title>
			<path d="M0 83.7 L33.07 143.23 L66.13 83.7 L99.2 143.23 L132.28 83.7 L165.35 143.23 L187.4 93.63 L187.4 93.63 L0 83.7
						 Z" class="st7"/>
			<path d="M0 83.7 L33.07 143.23 L66.13 83.7 L99.2 143.23 L132.28 83.7 L165.35 143.23 L187.4 93.63 L187.4 93.63"
					class="st8"/>
		</g>
		<g id="shape1455-14" transform="translate(50.2091,201.05) rotate(180)">
			<title>Sheet.1455</title>
			<path d="M0 143.23 L42.52 143.23" class="st8"/>
		</g>
		<g id="shape1597-17" transform="translate(50.2091,-28.3671)">
			<title>Rectangle</title>
			<rect x="0" y="29.4921" width="226.772" height="113.74" class="st9"/>
		</g>
	</g>
</svg>
