<?xml version="1.0" encoding="UTF-8" standalone="no"?>
<!DOCTYPE svg PUBLIC "-//W3C//DTD SVG 1.1//EN" "http://www.w3.org/Graphics/SVG/1.1/DTD/svg11.dtd">
<!-- Generated by Microsoft Visio, SVG Export PP010A_Origo.svg Page-1 -->
<svg xmlns="http://www.w3.org/2000/svg" xmlns:xlink="http://www.w3.org/1999/xlink" xmlns:ev="http://www.w3.org/2001/xml-events"
		width="2.85346in" height="2.77674in" viewBox="0 0 205.449 199.925" xml:space="preserve" color-interpolation-filters="sRGB"
		class="st9">
	<title>PP010A</title>

	<style type="text/css">
	<![CDATA[
		.st1 {fill:none;stroke:#ff0000;stroke-linecap:round;stroke-linejoin:round;stroke-width:0.75}
		.st2 {fill:#ff0000;font-family:Arial Narrow;font-size:0.833336em;font-weight:bold}
		.st3 {fill:none;stroke:none;stroke-linecap:round;stroke-linejoin:round;stroke-width:0.75}
		.st4 {fill:#ff0000;font-family:Arial Narrow;font-size:0.811964em;font-weight:bold}
		.st5 {baseline-shift:33.35%;font-size:0.667em}
		.st6 {fill:none;stroke:#ff0000;stroke-linecap:round;stroke-linejoin:round;stroke-width:2.25}
		.st7 {fill:none}
		.st8 {stroke:#000000;stroke-linecap:round;stroke-linejoin:round;stroke-width:2.25}
		.st9 {fill:none;fill-rule:evenodd;font-size:12px;overflow:visible;stroke-linecap:square;stroke-miterlimit:3}
	]]>
	</style>

	<g>
		<title>Page-1</title>
		<g id="group1405-1" transform="translate(61.5212,-0.375)">
			<title>Sheet.1405</title>
			<g id="shape1406-2" transform="translate(2.14165,2.84217E-14)">
				<title>Sheet.1406</title>
				<desc>1</desc>
				<rect x="0" y="185.752" width="85.0394" height="14.1732" class="st1"/>
				<text x="40.24" y="195.84" class="st2">1</text>			</g>
			<g id="shape1407-5" transform="translate(0,-4.47576)">
				<title>Sheet.1407</title>
				<desc>A</desc>
				<rect x="0" y="185.752" width="13.2348" height="14.1732" class="st3"/>
				<text x="4" y="199.44" class="st4"><tspan class="st5">A</tspan></text>			</g>
		</g>
		<g id="shape1412-9" transform="translate(1.125,-65.8276)">
			<title>Circle</title>
			<path d="M0 193.36 A6.56444 6.56444 0 1 1 13.13 193.36 A6.56444 6.56444 0 1 1 0 193.36 Z" class="st6"/>
		</g>
		<g id="group1452-11" transform="translate(7.68944,-30.256)">
			<title>STPP011.46</title>
			<g id="shape1453-12" transform="translate(28.0907,2.84217E-14)">
				<title>Sheet.1453</title>
				<path d="M0 157.79 L0 199.93 L140.45 199.93 L140.45 157.79 L140.45 157.79 L0 157.79 Z" class="st7"/>
				<path d="M0 157.79 L0 199.93 L140.45 199.93 L140.45 157.79 L140.45 157.79" class="st8"/>
			</g>
			<g id="shape1454-15" transform="translate(196.635,357.714) rotate(180)">
				<title>Sheet.1454</title>
				<path d="M0 199.93 L196.63 199.93" class="st8"/>
			</g>
			<g id="shape1455-18" transform="translate(-199.925,157.789) rotate(-90)">
				<title>Sheet.1455</title>
				<path d="M0 199.93 L126.41 199.93" class="st8"/>
			</g>
			<g id="shape1456-21" transform="translate(396.56,31.381) rotate(90)">
				<title>Sheet.1456</title>
				<path d="M0 199.93 L126.41 199.93" class="st8"/>
			</g>
			<g id="shape1457-24" transform="translate(0,-168.544)">
				<title>Sheet.1457</title>
				<path d="M0 199.93 L196.63 199.93" class="st8"/>
			</g>
		</g>
	</g>
</svg>
