<?xml version="1.0" encoding="UTF-8" standalone="no"?>
<!DOCTYPE svg PUBLIC "-//W3C//DTD SVG 1.1//EN" "http://www.w3.org/Graphics/SVG/1.1/DTD/svg11.dtd">
<!-- Generated by Microsoft Visio, SVG Export PP016A_Origo.svg Page-1 -->
<svg xmlns="http://www.w3.org/2000/svg" xmlns:xlink="http://www.w3.org/1999/xlink" xmlns:ev="http://www.w3.org/2001/xml-events"
		width="2.39345in" height="6.41122in" viewBox="0 0 172.329 461.608" xml:space="preserve" color-interpolation-filters="sRGB"
		class="st9">
	<title>PP016A</title>

	<style type="text/css">
	<![CDATA[
		.st1 {fill:none;stroke:#ff0000;stroke-linecap:round;stroke-linejoin:round;stroke-width:0.75}
		.st2 {fill:#ff0000;font-family:Arial Narrow;font-size:0.833336em;font-weight:bold}
		.st3 {fill:none;stroke:none;stroke-linecap:round;stroke-linejoin:round;stroke-width:0.75}
		.st4 {fill:#ff0000;font-family:Arial Narrow;font-size:0.811964em;font-weight:bold}
		.st5 {baseline-shift:33.35%;font-size:0.667em}
		.st6 {fill:none;stroke:#ff0000;stroke-linecap:round;stroke-linejoin:round;stroke-width:2.25}
		.st7 {fill:none}
		.st8 {stroke:#000000;stroke-linecap:round;stroke-linejoin:round;stroke-width:2.25}
		.st9 {fill:none;fill-rule:evenodd;font-size:12px;overflow:visible;stroke-linecap:square;stroke-miterlimit:3}
	]]>
	</style>

	<g>
		<title>Page-1</title>
		<g id="group1405-1" transform="translate(41.503,-0.375)">
			<title>Sheet.1405</title>
			<g id="shape1406-2" transform="translate(2.14165,5.68434E-14)">
				<title>Sheet.1406</title>
				<desc>1</desc>
				<rect x="0" y="447.435" width="85.0394" height="14.1732" class="st1"/>
				<text x="40.24" y="457.52" class="st2">1</text>			</g>
			<g id="shape1407-5" transform="translate(0,-4.47576)">
				<title>Sheet.1407</title>
				<desc>A</desc>
				<rect x="0" y="447.435" width="13.2348" height="14.1732" class="st3"/>
				<text x="4" y="461.13" class="st4"><tspan class="st5">A</tspan></text>			</g>
		</g>
		<g id="shape1412-9" transform="translate(79.5999,-447.354)">
			<title>Circle</title>
			<path d="M0 455.04 A6.56444 6.56444 0 1 1 13.13 455.04 A6.56444 6.56444 0 1 1 0 455.04 Z" class="st6"/>
		</g>
		<g id="shape1483-11" transform="translate(129.43,-368.879)">
			<title>Sheet.1483</title>
			<path d="M0 461.61 L41.77 461.61 L41.77 461.61 L0 461.61 Z" class="st7"/>
			<path d="M0 461.61 L41.77 461.61 L41.77 461.61" class="st8"/>
		</g>
		<g id="shape1484-14" transform="translate(-374.595,391.608) rotate(-90.1268)">
			<title>Sheet.1484</title>
			<path d="M0 461.61 L382.9 461.61" class="st8"/>
		</g>
		<g id="shape1485-17" transform="translate(-332.924,390.367) rotate(-90)">
			<title>Sheet.1485</title>
			<path d="M0 461.61 L297.54 461.61" class="st8"/>
		</g>
		<g id="shape1510-20" transform="translate(20.9675,-28.8189)">
			<title>Sheet.1510</title>
			<path d="M0 461.61 L128.69 461.61 L128.69 461.61 L0 461.61 Z" class="st7"/>
			<path d="M0 461.61 L128.69 461.61 L128.69 461.61" class="st8"/>
		</g>
		<g id="shape1511-23" transform="translate(1.125,-28.7215)">
			<title>Sheet.1511</title>
			<path d="M21.1 419.41 A21.101 21.101 -180 1 0 21.1 461.61 L21.1 419.41 Z" class="st7"/>
			<path d="M21.1 419.41 A21.101 21.101 -180 1 0 21.1 461.61" class="st8"/>
		</g>
		<g id="shape1512-26" transform="translate(150.103,-29.0392)">
			<title>Sheet.1512</title>
			<path d="M0 461.61 A21.101 21.101 -180 1 0 0 419.41 L0 461.61 Z" class="st7"/>
			<path d="M0 461.61 A21.101 21.101 -180 1 0 0 419.41" class="st8"/>
		</g>
		<g id="shape1513-29" transform="translate(23.8022,-71.0208)">
			<title>Sheet.1513</title>
			<path d="M0 461.61 L125.86 461.61 L125.86 461.61 L0 461.61 Z" class="st7"/>
			<path d="M0 461.61 L125.86 461.61 L125.86 461.61" class="st8"/>
		</g>
	</g>
</svg>
