<?xml version="1.0" encoding="UTF-8" standalone="no"?>
<!DOCTYPE svg PUBLIC "-//W3C//DTD SVG 1.1//EN" "http://www.w3.org/Graphics/SVG/1.1/DTD/svg11.dtd">
<!-- Generated by Microsoft Visio, SVG Export PP012A_Origo.svg Page-1 -->
<svg xmlns="http://www.w3.org/2000/svg" xmlns:xlink="http://www.w3.org/1999/xlink" xmlns:ev="http://www.w3.org/2001/xml-events"
		width="3.86258in" height="2.97359in" viewBox="0 0 278.106 214.098" xml:space="preserve" color-interpolation-filters="sRGB"
		class="st10">
	<title>PP012A</title>

	<style type="text/css">
	<![CDATA[
		.st1 {fill:none;stroke:#ff0000;stroke-linecap:round;stroke-linejoin:round;stroke-width:0.75}
		.st2 {fill:#ff0000;font-family:Arial Narrow;font-size:0.833336em;font-weight:bold}
		.st3 {fill:none;stroke:none;stroke-linecap:round;stroke-linejoin:round;stroke-width:0.75}
		.st4 {fill:#ff0000;font-family:Arial Narrow;font-size:0.811964em;font-weight:bold}
		.st5 {baseline-shift:33.35%;font-size:0.667em}
		.st6 {fill:none;stroke:#ff0000;stroke-linecap:round;stroke-linejoin:round;stroke-width:2.25}
		.st7 {fill:none}
		.st8 {stroke:#000000;stroke-linecap:round;stroke-linejoin:round;stroke-width:2.25}
		.st9 {fill:none;stroke:#000000;stroke-linecap:round;stroke-linejoin:round;stroke-width:2.25}
		.st10 {fill:none;fill-rule:evenodd;font-size:12px;overflow:visible;stroke-linecap:square;stroke-miterlimit:3}
	]]>
	</style>

	<g>
		<title>Page-1</title>
		<g id="group1405-1" transform="translate(118.934,-0.375)">
			<title>Sheet.1405</title>
			<g id="shape1406-2" transform="translate(2.14165,0)">
				<title>Sheet.1406</title>
				<desc>1</desc>
				<rect x="0" y="199.925" width="85.0394" height="14.1732" class="st1"/>
				<text x="40.24" y="210.01" class="st2">1</text>			</g>
			<g id="shape1407-5" transform="translate(0,-4.47576)">
				<title>Sheet.1407</title>
				<desc>A</desc>
				<rect x="0" y="199.925" width="13.2348" height="14.1732" class="st3"/>
				<text x="4" y="213.62" class="st4"><tspan class="st5">A</tspan></text>			</g>
		</g>
		<g id="shape1412-9" transform="translate(1.125,-107.196)">
			<title>Circle</title>
			<path d="M0 207.53 A6.56444 6.56444 0 1 1 13.13 207.53 A6.56444 6.56444 0 1 1 0 207.53 Z" class="st6"/>
		</g>
		<g id="group1453-11" transform="translate(7.68944,-14.5482)">
			<title>STPC008.213</title>
			<g id="shape1454-12" transform="translate(70.8773,-69.4488)">
				<title>Sheet.1454</title>
				<path d="M0 154.57 L33.07 214.1 L66.13 154.57 L99.2 214.1 L132.28 154.57 L165.35 214.1 L187.4 164.49 L187.4 164.49
							 L0 154.57 Z" class="st7"/>
				<path d="M0 154.57 L33.07 214.1 L66.13 154.57 L99.2 214.1 L132.28 154.57 L165.35 214.1 L187.4 164.49 L187.4 164.49"
						class="st8"/>
			</g>
			<g id="shape1455-15" transform="translate(42.5197,328.984) rotate(180)">
				<title>Sheet.1455</title>
				<path d="M0 214.1 L42.52 214.1" class="st8"/>
			</g>
			<g id="shape1456-18" transform="translate(214.098,86.5394) rotate(90)">
				<title>Sheet.1456</title>
				<path d="M0 214.1 L56.69 214.1" class="st8"/>
			</g>
			<g id="shape1457-21" transform="translate(42.5197,0)">
				<title>Sheet.1457</title>
				<path d="M0 15.67 L226.77 72.37 L226.77 157.41 L0 214.1 L0 15.67 L0 15.67 Z" class="st9"/>
			</g>
		</g>
	</g>
</svg>
