<?xml version="1.0" encoding="UTF-8" standalone="no"?>
<!DOCTYPE svg PUBLIC "-//W3C//DTD SVG 1.1//EN" "http://www.w3.org/Graphics/SVG/1.1/DTD/svg11.dtd">
<!-- Generated by Microsoft Visio, SVG Export PS011A_Origo.svg Page-1 -->
<svg xmlns="http://www.w3.org/2000/svg" xmlns:xlink="http://www.w3.org/1999/xlink" xmlns:ev="http://www.w3.org/2001/xml-events"
		width="1.69723in" height="0.818652in" viewBox="0 0 122.2 58.9429" xml:space="preserve" color-interpolation-filters="sRGB"
		class="st3">
	<title>PS011A</title>

	<style type="text/css">
	<![CDATA[
		.st1 {fill:none;stroke:#ff0000;stroke-linecap:round;stroke-linejoin:round;stroke-width:2.25}
		.st2 {stroke:#000000;stroke-linecap:round;stroke-linejoin:round;stroke-width:2.25}
		.st3 {fill:none;fill-rule:evenodd;font-size:12px;overflow:visible;stroke-linecap:square;stroke-miterlimit:3}
	]]>
	</style>

	<g>
		<title>Page-1</title>
		<g id="shape1412-1" transform="translate(1.125,-22.907)">
			<title>Circle</title>
			<path d="M0 52.38 A6.56444 6.56444 0 1 1 13.13 52.38 A6.56444 6.56444 0 1 1 0 52.38 Z" class="st1"/>
		</g>
		<g id="group1523-3" transform="translate(7.68944,-1.125)">
			<title>STPF201.552</title>
			<g id="shape1524-4" transform="translate(14.2958,-26.5866) rotate(14.0362)">
				<title>Sheet.1524</title>
				<path d="M0 58.94 L116.88 58.94" class="st2"/>
			</g>
			<g id="shape1525-7" transform="translate(172.329,2.25) rotate(90)">
				<title>Sheet.1525</title>
				<path d="M0 58.94 L56.69 58.94" class="st2"/>
			</g>
			<g id="shape1526-10" transform="translate(-14.2958,-26.5866) rotate(-14.0362)">
				<title>Sheet.1526</title>
				<path d="M0 58.94 L116.88 58.94" class="st2"/>
			</g>
			<g id="shape1527-13" transform="translate(58.9429,9.33662) rotate(90)">
				<title>Sheet.1527</title>
				<path d="M0 58.94 L42.52 58.94" class="st2"/>
			</g>
			<g id="shape1528-16" transform="translate(5.8777,-3.78029) rotate(-39.8073)">
				<title>Sheet.1528</title>
				<path d="M0 58.94 L48.65 58.94" class="st2"/>
			</g>
			<g id="shape1529-19" transform="translate(58.1828,9.33067) rotate(-39.838)">
				<title>Sheet.1529</title>
				<path d="M0 58.94 L22.72 58.94" class="st2"/>
			</g>
			<g id="shape1530-22" transform="translate(81.349,-25.587) rotate(39.8073)">
				<title>Sheet.1530</title>
				<path d="M0 58.94 L48.65 58.94" class="st2"/>
			</g>
			<g id="shape1531-25" transform="translate(133.703,-38.6574) rotate(39.838)">
				<title>Sheet.1531</title>
				<path d="M0 58.94 L22.72 58.94" class="st2"/>
			</g>
			<g id="shape1532-28" transform="translate(32.0358,2.76027) rotate(-39.8085)">
				<title>Sheet.1532</title>
				<path d="M0 58.94 L56.77 58.94" class="st2"/>
			</g>
			<g id="shape1533-31" transform="translate(-20.2779,-10.3434) rotate(-39.7887)">
				<title>Sheet.1533</title>
				<path d="M0 58.94 L19.46 58.94" class="st2"/>
			</g>
			<g id="shape1534-34" transform="translate(107.509,-32.126) rotate(39.8085)">
				<title>Sheet.1534</title>
				<path d="M0 58.94 L56.77 58.94" class="st2"/>
			</g>
			<g id="shape1535-37" transform="translate(55.1642,-19.0482) rotate(39.7887)">
				<title>Sheet.1535</title>
				<path d="M0 58.94 L19.46 58.94" class="st2"/>
			</g>
		</g>
	</g>
</svg>
