<?xml version="1.0" encoding="UTF-8" standalone="no"?>
<!DOCTYPE svg PUBLIC "-//W3C//DTD SVG 1.1//EN" "http://www.w3.org/Graphics/SVG/1.1/DTD/svg11.dtd">
<!-- Generated by Microsoft Visio, SVG Export PS014A_Origo.svg Page-1 -->
<svg xmlns="http://www.w3.org/2000/svg" xmlns:xlink="http://www.w3.org/1999/xlink" xmlns:ev="http://www.w3.org/2001/xml-events"
		width="1.60605in" height="1.98934in" viewBox="0 0 115.636 143.232" xml:space="preserve" color-interpolation-filters="sRGB"
		class="st9">
	<title>PS014A</title>

	<style type="text/css">
	<![CDATA[
		.st1 {fill:none;stroke:#ff0000;stroke-linecap:round;stroke-linejoin:round;stroke-width:2.25}
		.st2 {stroke:#000000;stroke-linecap:round;stroke-linejoin:round;stroke-width:2.25}
		.st3 {fill:none}
		.st4 {fill:none;stroke:#ff0000;stroke-linecap:round;stroke-linejoin:round;stroke-width:0.75}
		.st5 {fill:#ff0000;font-family:Arial Narrow;font-size:0.833336em;font-weight:bold}
		.st6 {fill:none;stroke:none;stroke-linecap:round;stroke-linejoin:round;stroke-width:0.75}
		.st7 {fill:#ff0000;font-family:Arial Narrow;font-size:0.811964em;font-weight:bold}
		.st8 {baseline-shift:33.35%;font-size:0.667em}
		.st9 {fill:none;fill-rule:evenodd;font-size:12px;overflow:visible;stroke-linecap:square;stroke-miterlimit:3}
	]]>
	</style>

	<g>
		<title>Page-1</title>
		<g id="shape1412-1" transform="translate(51.2535,-78.8481)">
			<title>Circle</title>
			<path d="M0 136.67 A6.56444 6.56444 0 1 1 13.13 136.67 A6.56444 6.56444 0 1 1 0 136.67 Z" class="st1"/>
		</g>
		<g id="group1524-3" transform="translate(1.125,-28.7197)">
			<title>STPF204.565</title>
			<g id="shape1525-4" transform="translate(14.1732,-99.2144)">
				<title>Sheet.1525</title>
				<path d="M0 143.23 L85.04 143.23" class="st2"/>
			</g>
			<g id="shape1526-7" transform="translate(-129.059,44.0179) rotate(-90)">
				<title>Sheet.1526</title>
				<path d="M0 143.23 L14.17 143.23" class="st2"/>
			</g>
			<g id="shape1527-10" transform="translate(14.1732,-113.388)">
				<title>Sheet.1527</title>
				<path d="M0 143.23 L85.04 143.23" class="st2"/>
			</g>
			<g id="shape1528-13" transform="translate(242.445,29.8447) rotate(90)">
				<title>Sheet.1528</title>
				<path d="M0 143.23 L14.17 143.23" class="st2"/>
			</g>
			<g id="shape1529-16" transform="translate(143.232,65.2777) rotate(90)">
				<title>Sheet.1529</title>
				<path d="M0 143.23 L42.52 143.23" class="st2"/>
			</g>
			<g id="shape1530-19" transform="translate(256.618,65.2777) rotate(90)">
				<title>Sheet.1530</title>
				<path d="M0 143.23 L42.52 143.23" class="st2"/>
			</g>
			<g id="shape1531-22" transform="translate(0,-56.6947)">
				<title>Sheet.1531</title>
				<path d="M0 143.23 L28.35 143.23" class="st2"/>
			</g>
			<g id="shape1532-25" transform="translate(85.0394,-56.6947)">
				<title>Sheet.1532</title>
				<path d="M0 143.23 L28.35 143.23" class="st2"/>
			</g>
			<g id="shape1533-28" transform="translate(28.334,-1.13687E-13)">
				<title>Sheet.1533</title>
				<path d="M-0 123.39 A28.3465 19.8425 0 0 0 56.69 123.39 L0 123.39 Z" class="st3"/>
				<path d="M-0 123.39 A28.3465 19.8425 0 0 0 56.69 123.39" class="st2"/>
			</g>
			<g id="shape1534-31" transform="translate(171.579,44.0179) rotate(90)">
				<title>Sheet.1534</title>
				<path d="M0 143.23 L79.37 143.23" class="st2"/>
			</g>
			<g id="shape1535-34" transform="translate(228.272,44.0179) rotate(90)">
				<title>Sheet.1535</title>
				<path d="M0 143.23 L79.37 143.23" class="st2"/>
			</g>
		</g>
		<g id="group1536-37" transform="translate(15.2982,-0.375)">
			<title>Sheet.1536</title>
			<g id="shape1537-38" transform="translate(2.14165,1.42109E-13)">
				<title>Sheet.1537</title>
				<desc>1</desc>
				<rect x="0" y="129.059" width="85.0394" height="14.1732" class="st4"/>
				<text x="40.24" y="139.15" class="st5">1</text>			</g>
			<g id="shape1538-41" transform="translate(0,-4.47576)">
				<title>Sheet.1538</title>
				<desc>A</desc>
				<rect x="0" y="129.059" width="13.2348" height="14.1732" class="st6"/>
				<text x="4" y="142.75" class="st7"><tspan class="st8">A</tspan></text>			</g>
		</g>
	</g>
</svg>
