<?xml version="1.0" encoding="UTF-8" standalone="no"?>
<!DOCTYPE svg PUBLIC "-//W3C//DTD SVG 1.1//EN" "http://www.w3.org/Graphics/SVG/1.1/DTD/svg11.dtd">
<!-- Generated by Microsoft Visio, SVG Export PT008A_Origo.svg Page-1 -->
<svg xmlns="http://www.w3.org/2000/svg" xmlns:xlink="http://www.w3.org/1999/xlink" xmlns:ev="http://www.w3.org/2001/xml-events"
		width="11.0549in" height="3.96691in" viewBox="0 0 795.951 285.618" xml:space="preserve" color-interpolation-filters="sRGB"
		class="st9">
	<title>PT008A</title>

	<style type="text/css">
	<![CDATA[
		.st1 {fill:#ffffff;stroke:#ff0000;stroke-linecap:round;stroke-linejoin:round;stroke-width:2.25}
		.st2 {stroke:#000000;stroke-linecap:round;stroke-linejoin:round;stroke-width:2.25}
		.st3 {fill:none;stroke:#ff0000;stroke-linecap:round;stroke-linejoin:round;stroke-width:0.75}
		.st4 {fill:#ff0000;font-family:Arial Narrow;font-size:0.833336em;font-weight:bold}
		.st5 {fill:none;stroke:none;stroke-linecap:round;stroke-linejoin:round;stroke-width:0.75}
		.st6 {fill:#ff0000;font-family:Arial Narrow;font-size:0.811964em;font-weight:bold}
		.st7 {baseline-shift:33.35%;font-size:0.667em}
		.st8 {fill:none;stroke:#000000;stroke-linecap:round;stroke-linejoin:round;stroke-width:2.25}
		.st9 {fill:none;fill-rule:evenodd;font-size:12px;overflow:visible;stroke-linecap:square;stroke-miterlimit:3}
	]]>
	</style>

	<g>
		<title>Page-1</title>
		<g id="shape1405-1" transform="translate(392.058,-136.179) rotate(0.2)">
			<title>Circle.1508</title>
			<path d="M0 279.05 A6.56444 6.56444 0 0 1 13.13 279.05 A6.56444 6.56444 0 1 1 0 279.05 Z" class="st1"/>
		</g>
		<g id="shape1409-3" transform="translate(966.727,29.1196) rotate(90)">
			<title>Sheet.1409</title>
			<path d="M0 285.62 L226.97 285.62" class="st2"/>
		</g>
		<g id="shape1410-6" transform="translate(399.805,29.0226) rotate(90)">
			<title>Sheet.1410</title>
			<path d="M0 285.62 L226.97 285.62" class="st2"/>
		</g>
		<g id="shape1411-9" transform="translate(357.248,148.483) rotate(116.173)">
			<title>Sheet.1411</title>
			<path d="M-0 270.83 A95.705 47.9497 -11 0 0 128.55 270.83" class="st2"/>
		</g>
		<g id="shape1412-12" transform="translate(-140.453,385.358) rotate(-116.932)">
			<title>Sheet.1412</title>
			<path d="M0 285.62 A95.0598 61.8729 19.61 0 1 125.18 285.62" class="st2"/>
		</g>
		<g id="shape1413-15" transform="translate(933.855,-103.909) rotate(62.2408)">
			<title>Sheet.1413</title>
			<path d="M-0 285.62 A91.8868 57.0039 17.19 0 1 121.73 285.62" class="st2"/>
		</g>
		<g id="shape1414-18" transform="translate(437.978,140.503) rotate(-64.5733)">
			<title>Sheet.1414</title>
			<path d="M-0 269.21 A98.6247 53.0395 -12.53 0 0 132.04 269.21" class="st2"/>
		</g>
		<g id="shape1415-21" transform="translate(114.181,-256.498)">
			<title>Sheet.1415</title>
			<path d="M0 285.62 L566.93 285.62" class="st2"/>
		</g>
		<g id="shape1416-24" transform="translate(114.181,-29.7263)">
			<title>Sheet.1416</title>
			<path d="M0 285.62 L566.93 285.62" class="st2"/>
		</g>
		<g id="group1417-27" transform="translate(353.256,-135.648)">
			<title>Sheet.1417</title>
			<g id="shape1418-28" transform="translate(2.14165,1.7053E-13)">
				<title>Sheet.1418</title>
				<desc>1</desc>
				<rect x="0" y="271.444" width="85.0394" height="14.1732" class="st3"/>
				<text x="40.24" y="281.53" class="st4">1</text>			</g>
			<g id="shape1419-31" transform="translate(0,-4.47576)">
				<title>Sheet.1419</title>
				<desc>A</desc>
				<rect x="0" y="271.444" width="13.2348" height="14.1732" class="st5"/>
				<text x="4" y="285.14" class="st6"><tspan class="st7">A</tspan></text>			</g>
		</g>
		<g id="shape1420-35" transform="translate(1.125,-1.125)">
			<title>Rectangle</title>
			<rect x="0" y="2.25" width="793.701" height="283.368" class="st8"/>
		</g>
	</g>
</svg>
