<?xml version="1.0" encoding="UTF-8" standalone="no"?>
<!DOCTYPE svg PUBLIC "-//W3C//DTD SVG 1.1//EN" "http://www.w3.org/Graphics/SVG/1.1/DTD/svg11.dtd">
<!-- Generated by Microsoft Visio, SVG Export PT005A_Origo.svg Page-1 -->
<svg xmlns="http://www.w3.org/2000/svg" xmlns:xlink="http://www.w3.org/1999/xlink" xmlns:ev="http://www.w3.org/2001/xml-events"
		width="3.18086in" height="4.84683in" viewBox="0 0 229.022 348.972" xml:space="preserve" color-interpolation-filters="sRGB"
		class="st9">
	<title>PT005A</title>

	<style type="text/css">
	<![CDATA[
		.st1 {fill:#ffffff;stroke:#ff0000;stroke-linecap:round;stroke-linejoin:round;stroke-width:2.25}
		.st2 {fill:none;stroke:#ff0000;stroke-linecap:round;stroke-linejoin:round;stroke-width:0.75}
		.st3 {fill:#ff0000;font-family:Arial Narrow;font-size:0.833336em;font-weight:bold}
		.st4 {fill:none;stroke:none;stroke-linecap:round;stroke-linejoin:round;stroke-width:0.75}
		.st5 {fill:#ff0000;font-family:Arial Narrow;font-size:0.811964em;font-weight:bold}
		.st6 {baseline-shift:33.35%;font-size:0.667em}
		.st7 {stroke:#000000;stroke-linecap:round;stroke-linejoin:round;stroke-width:2.25}
		.st8 {fill:none}
		.st9 {fill:none;fill-rule:evenodd;font-size:12px;overflow:visible;stroke-linecap:square;stroke-miterlimit:3}
	]]>
	</style>

	<g>
		<title>Page-1</title>
		<g id="shape1405-1" transform="translate(109.142,-334.739) rotate(0.2)">
			<title>Circle.1508</title>
			<path d="M0 342.41 A6.56444 6.56444 0 0 1 13.13 342.41 A6.56444 6.56444 0 1 1 0 342.41 Z" class="st1"/>
		</g>
		<g id="group1417-3" transform="translate(69.8495,-171.204)">
			<title>Sheet.1417</title>
			<g id="shape1418-4" transform="translate(2.14165,1.7053E-13)">
				<title>Sheet.1418</title>
				<desc>1</desc>
				<rect x="0" y="334.799" width="85.0394" height="14.1732" class="st2"/>
				<text x="40.24" y="344.89" class="st3">1</text>			</g>
			<g id="shape1419-7" transform="translate(0,-4.47576)">
				<title>Sheet.1419</title>
				<desc>A</desc>
				<rect x="0" y="334.799" width="13.2348" height="14.1732" class="st4"/>
				<text x="4" y="348.49" class="st5"><tspan class="st6">A</tspan></text>			</g>
		</g>
		<g id="group1429-11" transform="translate(1.125,-1.125)">
			<title>STPT005.33</title>
			<g id="shape1430-12" transform="translate(-348.967,292.275) rotate(-90)">
				<title>Sheet.1430</title>
				<path d="M0 348.97 L226.77 348.97" class="st7"/>
			</g>
			<g id="shape1431-15" transform="translate(226.772,641.247) rotate(180)">
				<title>Sheet.1431</title>
				<path d="M0 348.97 L226.77 348.97" class="st7"/>
			</g>
			<g id="shape1432-18" transform="translate(156.07,-19.8553) rotate(26.5651)">
				<title>Sheet.1432</title>
				<path d="M0 348.97 L126.77 348.97" class="st7"/>
			</g>
			<g id="shape1433-21" transform="translate(-42.6883,36.845) rotate(-26.5662)">
				<title>Sheet.1433</title>
				<path d="M0 348.97 L126.77 348.97" class="st7"/>
			</g>
			<g id="shape1434-24" transform="translate(226.772,414.48) rotate(180)">
				<title>Sheet.1434</title>
				<path d="M0 348.97 L226.77 348.97" class="st7"/>
			</g>
			<g id="shape1435-27" transform="translate(-122.2,292.275) rotate(-90)">
				<title>Sheet.1435</title>
				<path d="M0 348.97 L226.77 348.97" class="st7"/>
			</g>
			<g id="shape1436-30" transform="translate(1.15108E-12,-283.468)">
				<title>Sheet.1436</title>
				<path d="M226.77 348.97 A113.383 56.6916 0 0 0 -0 348.97 L226.77 348.97 Z" class="st8"/>
				<path d="M226.77 348.97 A113.383 56.6916 0 0 0 -0 348.97" class="st7"/>
			</g>
		</g>
	</g>
</svg>
