<?xml version="1.0" encoding="UTF-8"?><!DOCTYPE svg PUBLIC "-//W3C//DTD SVG 1.1//EN" "http://www.w3.org/Graphics/SVG/1.1/DTD/svg11.dtd"><svg xmlns="http://www.w3.org/2000/svg" xmlns:xlink="http://www.w3.org/1999/xlink" version="1.1" width="258px" height="769px" viewBox="-16.0407 -47.936 32.2427 96.1031"><defs vector-effect="non-scaling-stroke"/><g><g id="cell-jyOudCda0Ud9WsIjt9Yr-0" content="&lt;object label=&quot;%LabelLines%&amp;amp;nbsp; &amp;amp;nbsp; &amp;amp;nbsp; &amp;amp;nbsp; &amp;amp;nbsp; &amp;amp;nbsp;%LabelIndex%&quot; placeholders=&quot;1&quot; LabelLines=&quot;1&quot; LabelIndex=&quot;A&quot;/&gt;" data-label="%LabelLines%&amp;nbsp; &amp;nbsp; &amp;nbsp; &amp;nbsp; &amp;nbsp; &amp;nbsp;%LabelIndex%" data-placeholders="1" data-LabelLines="1" data-LabelIndex="A" layer="Label"><path fill="none" stroke="#ff0000" pointer-events="all" d="M -4.998235702514648 -1.0003976821899414 L 4.999486923217773 -1.0003976821899414 L 4.999486923217773 0.9991467595100403 L -4.998235702514648 0.9991467595100403 z" vector-effect="non-scaling-stroke"/><g><text x="90" y="386" fill="#FF0000" font-family="Helvetica" font-size="10px" transform="scale(0.124972 0.124972) translate(-127.855 -383.075) translate(-0.5 -0.5)" vector-effect="non-scaling-stroke">1           A</text></g></g><g id="cell-22vkG-h5v2N9dKBLQ-ZE-137" content="&lt;object label=&quot;origo&quot;/&gt;" data-label="origo" layer="Origo"><path d="M -0.4917626678943634 -0.0006254678592085838 C -0.4917626678943634 -0.27181535959243774 -0.2718124985694885 -0.4917626678943634 0.0006254678592085838 -0.4917626678943634 C 0.27181345224380493 -0.4917626678943634 0.4917626678943634 -0.27181535959243774 0.4917626678943634 -0.0006254678592085838 C 0.4917626678943634 0.2718115448951721 0.27181345224380493 0.4917626678943634 0.0006254678592085838 0.4917626678943634 C -0.2718124985694885 0.4917626678943634 -0.4917626678943634 0.2718115448951721 -0.4917626678943634 -0.0006254678592085838" fill="none" stroke="#ff0000" stroke-miterlimit="10" pointer-events="all" vector-effect="non-scaling-stroke"/></g><g id="cell-B1rrrl92oq_uFDzy55uY-0" layer="Symbol"><path fill="none" stroke="rgb(0, 0, 0)" pointer-events="all" d="M 15.996981620788574 -39.98151397705078 L 15.996981620788574 39.98026657104492 L -15.99573040008545 39.98026657104492 L -15.99573040008545 -39.98151397705078 z" vector-effect="non-scaling-stroke"/></g><g id="cell-B1rrrl92oq_uFDzy55uY-26" layer="Symbol"><path d="M 16.014476776123047 -39.95277404785156 C 16.014476776123047 -44.32802963256836 8.8523588180542 -47.87472152709961 0.01812140643596649 -47.87472152709961 C -8.816116333007812 -47.87472152709961 -15.97823429107666 -44.32802963256836 -15.97823429107666 -39.95277404785156 Z" fill="none" stroke="rgb(0, 0, 0)" stroke-miterlimit="10" pointer-events="all" vector-effect="non-scaling-stroke"/></g><g id="cell-B1rrrl92oq_uFDzy55uY-28" layer="Symbol"><path d="M -15.97823429107666 39.97652053833008 C -15.97823429107666 44.46049880981445 -8.816116333007812 48.09466552734375 0.01812140643596649 48.09466552734375 C 8.8523588180542 48.09466552734375 16.014476776123047 44.46049880981445 16.014476776123047 39.97652053833008 Z" fill="none" stroke="rgb(0, 0, 0)" stroke-miterlimit="10" pointer-events="all" vector-effect="non-scaling-stroke"/></g></g></svg>