<?xml version="1.0" encoding="UTF-8" standalone="no"?>
<!DOCTYPE svg PUBLIC "-//W3C//DTD SVG 1.1//EN" "http://www.w3.org/Graphics/SVG/1.1/DTD/svg11.dtd">
<!-- Generated by Microsoft Visio, SVG Export PT011A_Origo.svg Page-1 -->
<svg xmlns="http://www.w3.org/2000/svg" xmlns:xlink="http://www.w3.org/1999/xlink" xmlns:ev="http://www.w3.org/2001/xml-events"
		width="3.20054in" height="4.08412in" viewBox="0 0 230.439 294.056" xml:space="preserve" color-interpolation-filters="sRGB"
		class="st8">
	<title>PT011A</title>

	<style type="text/css">
	<![CDATA[
		.st1 {fill:#ffffff;stroke:#ff0000;stroke-linecap:round;stroke-linejoin:round;stroke-width:2.25}
		.st2 {fill:none;stroke:#ff0000;stroke-linecap:round;stroke-linejoin:round;stroke-width:0.75}
		.st3 {fill:#ff0000;font-family:Arial Narrow;font-size:0.833336em;font-weight:bold}
		.st4 {fill:none;stroke:none;stroke-linecap:round;stroke-linejoin:round;stroke-width:0.75}
		.st5 {fill:#ff0000;font-family:Arial Narrow;font-size:0.811964em;font-weight:bold}
		.st6 {baseline-shift:33.35%;font-size:0.667em}
		.st7 {stroke:#000000;stroke-linecap:round;stroke-linejoin:round;stroke-width:2.25}
		.st8 {fill:none;fill-rule:evenodd;font-size:12px;overflow:visible;stroke-linecap:square;stroke-miterlimit:3}
	]]>
	</style>

	<g>
		<title>Page-1</title>
		<g id="shape1405-1" transform="translate(109.653,-1.14616) rotate(0.2)">
			<title>Circle.1508</title>
			<path d="M0 287.49 A6.56444 6.56444 0 0 1 13.13 287.49 A6.56444 6.56444 0 1 1 0 287.49 Z" class="st1"/>
		</g>
		<g id="group1417-3" transform="translate(69.8495,-178.514)">
			<title>Sheet.1417</title>
			<g id="shape1418-4" transform="translate(2.14165,1.13687E-13)">
				<title>Sheet.1418</title>
				<desc>1</desc>
				<rect x="0" y="279.883" width="85.0394" height="14.1732" class="st2"/>
				<text x="40.24" y="289.97" class="st3">1</text>			</g>
			<g id="shape1419-7" transform="translate(0,-4.47576)">
				<title>Sheet.1419</title>
				<desc>A</desc>
				<rect x="0" y="279.883" width="13.2348" height="14.1732" class="st4"/>
				<text x="4" y="293.57" class="st5"><tspan class="st6">A</tspan></text>			</g>
		</g>
		<g id="shape1439-11" transform="translate(-292.931,229.314) rotate(-90)">
			<title>Sheet.1439</title>
			<path d="M0 294.06 L228.19 294.06" class="st7"/>
		</g>
		<g id="shape1440-14" transform="translate(229.314,523.37) rotate(180)">
			<title>Sheet.1440</title>
			<path d="M0 294.06 L228.19 294.06" class="st7"/>
		</g>
		<g id="shape1441-17" transform="translate(132.631,-33.698) rotate(26.5651)">
			<title>Sheet.1441</title>
			<path d="M0 294.06 L127.56 294.06" class="st7"/>
		</g>
		<g id="shape1442-20" transform="translate(-16.2973,23.3575) rotate(-26.5662)">
			<title>Sheet.1442</title>
			<path d="M0 294.06 L127.57 294.06" class="st7"/>
		</g>
		<g id="shape1443-23" transform="translate(-64.7423,229.314) rotate(-90)">
			<title>Sheet.1443</title>
			<path d="M0 294.06 L228.19 294.06" class="st7"/>
		</g>
		<g id="shape1444-26" transform="translate(229.314,295.181) rotate(180)">
			<title>Sheet.1444</title>
			<path d="M0 294.06 L228.19 294.06" class="st7"/>
		</g>
	</g>
</svg>
