<?xml version="1.0" encoding="UTF-8" standalone="no"?>
<!DOCTYPE svg PUBLIC "-//W3C//DTD SVG 1.1//EN" "http://www.w3.org/Graphics/SVG/1.1/DTD/svg11.dtd">
<!-- Generated by Microsoft Visio, SVG Export PV004A_Origo.svg Page-1 -->
<svg xmlns="http://www.w3.org/2000/svg" xmlns:xlink="http://www.w3.org/1999/xlink" xmlns:ev="http://www.w3.org/2001/xml-events"
		width="2.78078in" height="1.80095in" viewBox="0 0 200.216 129.669" xml:space="preserve" color-interpolation-filters="sRGB"
		class="st8">
	<title>PV004A</title>

	<style type="text/css">
	<![CDATA[
		.st1 {fill:none;stroke:#000000;stroke-linecap:round;stroke-linejoin:round;stroke-width:2.25}
		.st2 {fill:none;stroke:#ff0000;stroke-linecap:round;stroke-linejoin:round;stroke-width:0.75}
		.st3 {fill:#ff0000;font-family:Arial Narrow;font-size:0.833336em;font-weight:bold}
		.st4 {fill:none;stroke:none;stroke-linecap:round;stroke-linejoin:round;stroke-width:0.75}
		.st5 {fill:#ff0000;font-family:Arial Narrow;font-size:0.811964em;font-weight:bold}
		.st6 {baseline-shift:33.35%;font-size:0.667em}
		.st7 {fill:none;stroke:#ff0000;stroke-linecap:round;stroke-linejoin:round;stroke-width:2.25}
		.st8 {fill:none;fill-rule:evenodd;font-size:12px;overflow:visible;stroke-linecap:square;stroke-miterlimit:3}
	]]>
	</style>

	<g>
		<title>Page-1</title>
		<g id="shape1406-1" transform="translate(130.794,30.1824) rotate(90)">
			<title>Triangle</title>
			<path d="M57.3 129.67 L28.65 72.37 L0 129.67 L57.3 129.67 Z" class="st1"/>
		</g>
		<g id="group1407-3" transform="translate(112.66,-0.375)">
			<title>Sheet.1407</title>
			<g id="shape1408-4" transform="translate(2.14165,0)">
				<title>Sheet.1408</title>
				<desc>3</desc>
				<rect x="0" y="115.495" width="85.0394" height="14.1732" class="st2"/>
				<text x="40.24" y="125.58" class="st3">3</text>			</g>
			<g id="shape1409-7" transform="translate(0,-4.47576)">
				<title>Sheet.1409</title>
				<desc>A</desc>
				<rect x="0" y="115.495" width="13.2348" height="14.1732" class="st4"/>
				<text x="4" y="129.19" class="st5"><tspan class="st6">A</tspan></text>			</g>
		</g>
		<g id="shape1412-11" transform="translate(-13.6338,87.1801) rotate(-90)">
			<title>Triangle.1526</title>
			<path d="M57.3 129.67 L28.65 72.37 L0 129.67 L57.3 129.67 Z" class="st1"/>
		</g>
		<g id="shape1421-13" transform="translate(87.065,130.794) rotate(180)">
			<title>Triangle.1421</title>
			<path d="M57.3 129.67 L28.65 72.37 L0 129.67 L57.3 129.67 Z" class="st1"/>
		</g>
		<g id="shape1425-15" transform="translate(29.7625,-14.4379)">
			<title>Triangle.1425</title>
			<path d="M57.3 129.67 L28.65 72.37 L0 129.67 L57.3 129.67 Z" class="st1"/>
		</g>
		<a xlink:href="https://www.posccaesar.org/">
			<g id="shape1405-17" transform="translate(51.7107,-64.9772)">
				<title>Circle.1515</title>
				<path d="M0 123.1 A6.56444 6.56444 0 0 1 13.13 123.1 A6.56444 6.56444 0 1 1 0 123.1 Z" class="st7"/>
			</g>
		</a>
	</g>
</svg>
