<?xml version="1.0" encoding="UTF-8" standalone="no"?>
<!DOCTYPE svg PUBLIC "-//W3C//DTD SVG 1.1//EN" "http://www.w3.org/Graphics/SVG/1.1/DTD/svg11.dtd">
<!-- Generated by Microsoft Visio, SVG Export PV009A_Origo.svg Page-1 -->
<svg xmlns="http://www.w3.org/2000/svg" xmlns:xlink="http://www.w3.org/1999/xlink" xmlns:ev="http://www.w3.org/2001/xml-events"
		width="1.60605in" height="1.33196in" viewBox="0 0 115.636 95.9011" xml:space="preserve" color-interpolation-filters="sRGB"
		class="st10">
	<title>PV009A</title>

	<style type="text/css">
	<![CDATA[
		.st1 {fill:none;stroke:#ff0000;stroke-linecap:round;stroke-linejoin:round;stroke-width:0.75}
		.st2 {fill:#ff0000;font-family:Arial Narrow;font-size:0.833336em;font-weight:bold}
		.st3 {fill:none;stroke:none;stroke-linecap:round;stroke-linejoin:round;stroke-width:0.75}
		.st4 {fill:#ff0000;font-family:Arial Narrow;font-size:0.811964em;font-weight:bold}
		.st5 {baseline-shift:33.35%;font-size:0.667em}
		.st6 {fill:none;stroke:#ff0000;stroke-linecap:round;stroke-linejoin:round;stroke-width:2.25}
		.st7 {stroke:#000000;stroke-linecap:round;stroke-linejoin:round;stroke-width:2.25}
		.st8 {marker-end:url(#mrkr4-23);stroke:#000000;stroke-linecap:round;stroke-linejoin:round;stroke-width:2.25}
		.st9 {fill:#000000;fill-opacity:1;stroke:#000000;stroke-opacity:1;stroke-width:0.47169811320755}
		.st10 {fill:none;fill-rule:evenodd;font-size:12px;overflow:visible;stroke-linecap:square;stroke-miterlimit:3}
	]]>
	</style>

	<defs id="Markers">
		<g id="lend4">
			<path d="M 2 1 L 0 0 L 2 -1 L 2 1 " style="stroke:none"/>
		</g>
		<marker id="mrkr4-23" class="st9" refX="-4.24" orient="auto" markerUnits="strokeWidth" overflow="visible">
			<use xlink:href="#lend4" transform="scale(-2.12,-2.12) "/>
		</marker>
	</defs>
	<g>
		<title>Page-1</title>
		<g id="group1405-1" transform="translate(13.4814,-0.375)">
			<title>Sheet.1405</title>
			<g id="shape1406-2" transform="translate(2.14165,0)">
				<title>Sheet.1406</title>
				<desc>2</desc>
				<rect x="0" y="81.7278" width="85.0394" height="14.1732" class="st1"/>
				<text x="40.24" y="91.81" class="st2">2</text>			</g>
			<g id="shape1407-5" transform="translate(0,-4.47576)">
				<title>Sheet.1407</title>
				<desc>A</desc>
				<rect x="0" y="81.7278" width="13.2348" height="14.1732" class="st3"/>
				<text x="4" y="95.42" class="st4"><tspan class="st5">A</tspan></text>			</g>
		</g>
		<a xlink:href="https://www.posccaesar.org/">
			<g id="shape1442-9" transform="translate(49.6812,-43.0826)">
				<title>Circle.1515</title>
				<path d="M0 87.47 A8.4278 8.4278 0 0 1 16.86 87.47 A8.4278 8.4278 0 1 1 0 87.47 Z" class="st6"/>
			</g>
		</a>
		<g id="group1439-11" transform="translate(1.125,-23.8727)">
			<title>Sheet.1439</title>
			<g id="shape1409-12" transform="translate(95.9011,39.2082) rotate(90)">
				<title>Sheet.1409</title>
				<path d="M0 95.9 L56.69 95.9" class="st7"/>
			</g>
			<g id="shape1410-15" transform="translate(209.287,39.2082) rotate(90)">
				<title>Sheet.1410</title>
				<path d="M0 95.9 L56.69 95.9" class="st7"/>
			</g>
			<g id="shape1411-18" transform="translate(53.8187,-38.3621) rotate(24.2277)">
				<title>Sheet.1411</title>
				<path d="M0 95.9 L83.71 95.9" class="st8"/>
			</g>
			<g id="shape1420-24" transform="translate(-0.124588,-56.6929) rotate(-0.0744345)">
				<title>Sheet.1420</title>
				<path d="M0 95.9 L28.64 95.9" class="st7"/>
			</g>
			<g id="shape1421-27" transform="translate(0,-1.84853E-05)">
				<title>Sheet.1421</title>
				<path d="M0 95.9 L113.39 95.9" class="st7"/>
			</g>
			<g id="shape1422-30" transform="translate(195.405,47.6749) rotate(90)">
				<title>Sheet.1422</title>
				<path d="M0 95.9 L39.69 95.9" class="st7"/>
			</g>
			<g id="shape1423-33" transform="translate(110.365,49.0922) rotate(90)">
				<title>Sheet.1423</title>
				<path d="M0 95.9 L39.69 95.9" class="st7"/>
			</g>
			<g id="shape1424-36" transform="translate(84.6237,-56.6556) rotate(-0.0744345)">
				<title>Sheet.1424</title>
				<path d="M0 95.9 L28.64 95.9" class="st7"/>
			</g>
			<g id="shape1425-39" transform="translate(28.2839,-70.7692) rotate(-0.0374074)">
				<title>Sheet.1425</title>
				<path d="M0 95.9 L56.98 95.9" class="st7"/>
			</g>
			<g id="shape1427-42" transform="translate(124.227,23.1444) rotate(88.8125)">
				<title>Sheet.1427</title>
				<path d="M0 95.9 L14.04 95.9" class="st7"/>
			</g>
			<g id="shape1428-45" transform="translate(181.15,29.0362) rotate(92.3555)">
				<title>Sheet.1428</title>
				<path d="M0 95.9 L14.16 95.9" class="st7"/>
			</g>
			<g id="group1437-48" transform="translate(-32.114,24.9977) rotate(-90) scale(-1,1)">
				<title>Sheet.1437</title>
				<g id="shape1430-49" transform="translate(82.9885,39.7156) rotate(59.9233)">
					<title>Sheet.1430</title>
					<path d="M0 95.9 L9.39 95.9" class="st7"/>
				</g>
				<g id="shape1431-52" transform="translate(-78.2837,47.8393) rotate(-59.9233)">
					<title>Sheet.1431</title>
					<path d="M0 95.9 L17.94 95.9" class="st7"/>
				</g>
				<g id="shape1432-55" transform="translate(-60.298,143.963) rotate(-120.077)">
					<title>Sheet.1432</title>
					<path d="M0 95.9 L17.94 95.9" class="st7"/>
				</g>
				<g id="shape1433-58" transform="translate(114.668,128.447) rotate(120.085)">
					<title>Sheet.1433</title>
					<path d="M0 95.9 L17.95 95.9" class="st7"/>
				</g>
				<g id="shape1434-61" transform="translate(114.675,32.3114) rotate(59.9233)">
					<title>Sheet.1434</title>
					<path d="M0 95.9 L17.94 95.9" class="st7"/>
				</g>
				<g id="shape1436-64" transform="translate(-48.9119,61.6889) rotate(-69.0996)">
					<title>Sheet.1436</title>
					<path d="M0 95.9 L5.16 95.9" class="st7"/>
				</g>
			</g>
		</g>
	</g>
</svg>
