<?xml version="1.0" encoding="UTF-8" standalone="no"?>
<!DOCTYPE svg PUBLIC "-//W3C//DTD SVG 1.1//EN" "http://www.w3.org/Graphics/SVG/1.1/DTD/svg11.dtd">
<!-- Generated by Microsoft Visio, SVG Export PV008A_Origo.svg Page-1 -->
<svg xmlns="http://www.w3.org/2000/svg" xmlns:xlink="http://www.w3.org/1999/xlink" xmlns:ev="http://www.w3.org/2001/xml-events"
		width="1.62722in" height="1.64089in" viewBox="0 0 117.16 118.144" xml:space="preserve" color-interpolation-filters="sRGB"
		class="st10">
	<title>PV008A</title>

	<style type="text/css">
	<![CDATA[
		.st1 {fill:none;stroke:#000000;stroke-linecap:round;stroke-linejoin:round;stroke-width:2.25}
		.st2 {fill:none;stroke:#ff0000;stroke-linecap:round;stroke-linejoin:round;stroke-width:0.75}
		.st3 {fill:#ff0000;font-family:Arial Narrow;font-size:0.833336em;font-weight:bold}
		.st4 {fill:none;stroke:none;stroke-linecap:round;stroke-linejoin:round;stroke-width:0.75}
		.st5 {fill:#ff0000;font-family:Arial Narrow;font-size:0.811964em;font-weight:bold}
		.st6 {baseline-shift:33.35%;font-size:0.667em}
		.st7 {fill:none;stroke:#ff0000;stroke-linecap:round;stroke-linejoin:round;stroke-width:2.25}
		.st8 {stroke:#000000;stroke-linecap:round;stroke-linejoin:round;stroke-width:2.25}
		.st9 {fill:#ffffff;stroke:#000000;stroke-linecap:round;stroke-linejoin:round;stroke-width:2.25}
		.st10 {fill:none;fill-rule:evenodd;font-size:12px;overflow:visible;stroke-linecap:square;stroke-miterlimit:3}
	]]>
	</style>

	<g>
		<title>Page-1</title>
		<g id="shape1406-1" transform="translate(119.269,32.8313) rotate(90)">
			<title>Triangle</title>
			<path d="M57.3 118.14 L28.65 60.84 L0 118.14 L57.3 118.14 Z" class="st1"/>
		</g>
		<g id="group1407-3" transform="translate(13.4476,-0.375)">
			<title>Sheet.1407</title>
			<g id="shape1408-4" transform="translate(2.14165,0)">
				<title>Sheet.1408</title>
				<desc>1</desc>
				<rect x="0" y="103.971" width="85.0394" height="14.1732" class="st2"/>
				<text x="40.24" y="114.06" class="st3">1</text>			</g>
			<g id="shape1409-7" transform="translate(0,-4.47576)">
				<title>Sheet.1409</title>
				<desc>A</desc>
				<rect x="0" y="103.971" width="13.2348" height="14.1732" class="st4"/>
				<text x="4" y="117.66" class="st5"><tspan class="st6">A</tspan></text>			</g>
		</g>
		<g id="shape1412-11" transform="translate(-2.10953,89.829) rotate(-90)">
			<title>Triangle.1526</title>
			<path d="M57.3 118.14 L28.65 60.84 L0 118.14 L57.3 118.14 Z" class="st1"/>
		</g>
		<a xlink:href="https://www.posccaesar.org/">
			<g id="shape1405-13" transform="translate(50.2944,-48.3412)">
				<title>Circle.1515</title>
				<path d="M0 109.72 A8.4278 8.4278 0 0 1 16.86 109.72 A8.4278 8.4278 0 1 1 0 109.72 Z" class="st7"/>
			</g>
		</a>
		<g id="shape1421-15" transform="translate(-59.412,61.1778) rotate(-90)">
			<title>Sheet.1421</title>
			<path d="M0 118.14 L56.79 118.14" class="st8"/>
		</g>
		<g id="shape1422-18" transform="translate(79.9689,126.4) rotate(-172.59)">
			<title>Sheet.1422</title>
			<path d="M0 118.14 L36.85 118.14" class="st8"/>
		</g>
		<g id="shape1423-21" transform="translate(123.308,-95.6332) rotate(15)">
			<title>Circle</title>
			<path d="M0 108.58 A9.56882 9.56882 0 0 1 19.14 108.58 A9.56882 9.56882 0 1 1 0 108.58 Z" class="st9"/>
		</g>
	</g>
</svg>
