<?xml version="1.0" encoding="UTF-8" standalone="no"?>
<!DOCTYPE svg PUBLIC "-//W3C//DTD SVG 1.1//EN" "http://www.w3.org/Graphics/SVG/1.1/DTD/svg11.dtd">
<!-- Generated by Microsoft Visio, SVG Export PV018A_Origo.svg Page-1 -->
<svg xmlns="http://www.w3.org/2000/svg" xmlns:xlink="http://www.w3.org/1999/xlink" xmlns:ev="http://www.w3.org/2001/xml-events"
		width="1.60605in" height="1.13459in" viewBox="0 0 115.636 81.6906" xml:space="preserve" color-interpolation-filters="sRGB"
		class="st9">
	<title>PV018A</title>

	<style type="text/css">
	<![CDATA[
		.st1 {fill:none;stroke:#ff0000;stroke-linecap:round;stroke-linejoin:round;stroke-width:0.75}
		.st2 {fill:#ff0000;font-family:Arial Narrow;font-size:0.833336em;font-weight:bold}
		.st3 {fill:none;stroke:none;stroke-linecap:round;stroke-linejoin:round;stroke-width:0.75}
		.st4 {fill:#ff0000;font-family:Arial Narrow;font-size:0.811964em;font-weight:bold}
		.st5 {baseline-shift:33.35%;font-size:0.667em}
		.st6 {fill:#ffffff;stroke:#ff0000;stroke-linecap:round;stroke-linejoin:round;stroke-width:2.25}
		.st7 {stroke:#000000;stroke-linecap:round;stroke-linejoin:round;stroke-width:2.25}
		.st8 {fill:#000000;stroke:#000000;stroke-linecap:round;stroke-linejoin:round;stroke-width:0.24}
		.st9 {fill:none;fill-rule:evenodd;font-size:12px;overflow:visible;stroke-linecap:square;stroke-miterlimit:3}
	]]>
	</style>

	<g>
		<title>Page-1</title>
		<g id="group1405-1" transform="translate(13.4814,-0.375)">
			<title>Sheet.1405</title>
			<g id="shape1406-2" transform="translate(2.14165,0)">
				<title>Sheet.1406</title>
				<desc>2</desc>
				<rect x="0" y="67.5174" width="85.0394" height="14.1732" class="st1"/>
				<text x="40.24" y="77.6" class="st2">2</text>			</g>
			<g id="shape1407-5" transform="translate(0,-4.47576)">
				<title>Sheet.1407</title>
				<desc>A</desc>
				<rect x="0" y="67.5174" width="13.2348" height="14.1732" class="st3"/>
				<text x="4" y="81.21" class="st4"><tspan class="st5">A</tspan></text>			</g>
		</g>
		<g id="shape1408-9" transform="translate(51.9994,-45.6547)">
			<title>Circle.1412</title>
			<path d="M0 75.13 A6.56444 6.56444 0 0 1 13.13 75.13 A6.56444 6.56444 0 1 1 0 75.13 Z" class="st6"/>
		</g>
		<g id="shape1409-11" transform="translate(82.8156,1.12502) rotate(90)">
			<title>Sheet.1409</title>
			<path d="M0 81.69 L56.69 81.69" class="st7"/>
		</g>
		<g id="shape1410-14" transform="translate(196.201,1.12502) rotate(90)">
			<title>Sheet.1410</title>
			<path d="M0 81.69 L56.69 81.69" class="st7"/>
		</g>
		<g id="shape1411-17" transform="translate(37.6582,-71.9413) rotate(26.5651)">
			<title>Sheet.1411</title>
			<path d="M0 81.69 L126.77 81.69" class="st7"/>
		</g>
		<g id="shape1420-20" transform="translate(1.125,-80.5656)">
			<title>Sheet.1420</title>
			<path d="M0 81.69 L113.39 81.69" class="st7"/>
		</g>
		<g id="shape1421-23" transform="translate(1.125,-23.8727)">
			<title>Sheet.1421</title>
			<path d="M0 81.69 L113.39 81.69" class="st7"/>
		</g>
		<g id="shape1422-26" transform="translate(53.6033,-47.2586)">
			<title>Circle</title>
			<path d="M0 76.73 A4.96063 4.96063 0 0 1 9.92 76.73 A4.96063 4.96063 0 1 1 0 76.73 Z" class="st8"/>
		</g>
	</g>
</svg>
