<?xml version="1.0" encoding="UTF-8" standalone="no"?>
<!DOCTYPE svg PUBLIC "-//W3C//DTD SVG 1.1//EN" "http://www.w3.org/Graphics/SVG/1.1/DTD/svg11.dtd">
<!-- Generated by Microsoft Visio, SVG Export PV012A_Origo.svg Page-1 -->
<svg xmlns="http://www.w3.org/2000/svg" xmlns:xlink="http://www.w3.org/1999/xlink" xmlns:ev="http://www.w3.org/2001/xml-events"
		width="1.62538in" height="1.60834in" viewBox="0 0 117.027 115.8" xml:space="preserve" color-interpolation-filters="sRGB"
		class="st8">
	<title>PV012A</title>

	<style type="text/css">
	<![CDATA[
		.st1 {fill:#000000;stroke:#000000;stroke-linecap:round;stroke-linejoin:round;stroke-width:2.25}
		.st2 {fill:none;stroke:#ff0000;stroke-linecap:round;stroke-linejoin:round;stroke-width:0.75}
		.st3 {fill:#ff0000;font-family:Arial Narrow;font-size:0.833336em;font-weight:bold}
		.st4 {fill:none;stroke:none;stroke-linecap:round;stroke-linejoin:round;stroke-width:0.75}
		.st5 {fill:#ff0000;font-family:Arial Narrow;font-size:0.811964em;font-weight:bold}
		.st6 {baseline-shift:33.35%;font-size:0.667em}
		.st7 {fill:none;stroke:#ff0000;stroke-linecap:round;stroke-linejoin:round;stroke-width:2.25}
		.st8 {fill:none;fill-rule:evenodd;font-size:12px;overflow:visible;stroke-linecap:square;stroke-miterlimit:3}
	]]>
	</style>

	<g>
		<title>Page-1</title>
		<g id="shape1406-1" transform="translate(2.04213,-28.8578)">
			<title>Triangle</title>
			<path d="M57.3 115.8 L28.65 58.5 L0 115.8 L57.3 115.8 Z" class="st1"/>
		</g>
		<g id="shape1407-3" transform="translate(-28.2442,58.4275) rotate(-90)">
			<title>Triangle.1526</title>
			<path d="M57.3 115.8 L28.65 58.63 L0 115.8 L57.3 115.8 Z" class="st1"/>
		</g>
		<g id="shape1417-5" transform="translate(0.102241,37.4725) rotate(-90)">
			<title>Triangle.1417</title>
			<path d="M14.17 115.8 L7.09 88.12 L0 115.8 L14.17 115.8 Z" class="st1"/>
		</g>
		<g id="group1420-7" transform="translate(0.375,-0.375)">
			<title>Sheet.1420</title>
			<g id="shape1421-8" transform="translate(2.14165,0)">
				<title>Sheet.1421</title>
				<desc>2</desc>
				<rect x="0" y="101.627" width="85.0394" height="14.1732" class="st2"/>
				<text x="40.24" y="111.71" class="st3">2</text>			</g>
			<g id="shape1422-11" transform="translate(0,-4.47576)">
				<title>Sheet.1422</title>
				<desc>A</desc>
				<rect x="0" y="101.627" width="13.2348" height="14.1732" class="st4"/>
				<text x="4" y="115.32" class="st5"><tspan class="st6">A</tspan></text>			</g>
		</g>
		<g id="shape1424-15" transform="translate(24.2987,-78.8499)">
			<title>Circle</title>
			<path d="M0 109.24 A6.56444 6.56444 0 1 1 13.13 109.24 A6.56444 6.56444 0 1 1 0 109.24 Z" class="st7"/>
		</g>
	</g>
</svg>
