<?xml version="1.0" encoding="UTF-8" standalone="no"?>
<!DOCTYPE svg PUBLIC "-//W3C//DTD SVG 1.1//EN" "http://www.w3.org/Graphics/SVG/1.1/DTD/svg11.dtd">
<!-- Generated by Microsoft Visio, SVG Export PV014A_Origo.svg Page-1 -->
<svg xmlns="http://www.w3.org/2000/svg" xmlns:xlink="http://www.w3.org/1999/xlink" xmlns:ev="http://www.w3.org/2001/xml-events"
		width="1.62722in" height="1.2123in" viewBox="0 0 117.16 87.2853" xml:space="preserve" color-interpolation-filters="sRGB"
		class="st9">
	<title>PV014A</title>

	<style type="text/css">
	<![CDATA[
		.st1 {fill:#ffffff;stroke:#000000;stroke-linecap:round;stroke-linejoin:round;stroke-width:2.25}
		.st2 {fill:none;stroke:#ff0000;stroke-linecap:round;stroke-linejoin:round;stroke-width:0.75}
		.st3 {fill:#ff0000;font-family:Arial Narrow;font-size:0.833336em;font-weight:bold}
		.st4 {fill:none;stroke:none;stroke-linecap:round;stroke-linejoin:round;stroke-width:0.75}
		.st5 {fill:#ff0000;font-family:Arial Narrow;font-size:0.811964em;font-weight:bold}
		.st6 {baseline-shift:33.35%;font-size:0.667em}
		.st7 {fill:none;stroke:#ff0000;stroke-linecap:round;stroke-linejoin:round;stroke-width:2.25}
		.st8 {stroke:#000000;stroke-linecap:round;stroke-linejoin:round;stroke-width:2.25}
		.st9 {fill:none;fill-rule:evenodd;font-size:12px;overflow:visible;stroke-linecap:square;stroke-miterlimit:3}
	]]>
	</style>

	<g>
		<title>Page-1</title>
		<g id="shape1406-1" transform="translate(88.4103,1.97229) rotate(90)">
			<title>Triangle</title>
			<path d="M57.3 87.29 L28.65 29.98 L0 87.29 L57.3 87.29 Z" class="st1"/>
		</g>
		<g id="group1407-3" transform="translate(14.5184,-0.375)">
			<title>Sheet.1407</title>
			<g id="shape1408-4" transform="translate(2.14165,0)">
				<title>Sheet.1408</title>
				<desc>3</desc>
				<rect x="0" y="73.1121" width="85.0394" height="14.1732" class="st2"/>
				<text x="40.24" y="83.2" class="st3">3</text>			</g>
			<g id="shape1409-7" transform="translate(0,-4.47576)">
				<title>Sheet.1409</title>
				<desc>A</desc>
				<rect x="0" y="73.1121" width="13.2348" height="14.1732" class="st4"/>
				<text x="4" y="86.8" class="st5"><tspan class="st6">A</tspan></text>			</g>
		</g>
		<g id="shape1412-11" transform="translate(28.7495,58.97) rotate(-90)">
			<title>Triangle.1526</title>
			<path d="M57.3 87.29 L28.65 29.98 L0 87.29 L57.3 87.29 Z" class="st1"/>
		</g>
		<a xlink:href="https://www.posccaesar.org/">
			<g id="shape1405-13" transform="translate(51.7107,-50.8039)">
				<title>Circle.1515</title>
				<path d="M0 80.72 A6.56444 6.56444 0 0 1 13.13 80.72 A6.56444 6.56444 0 1 1 0 80.72 Z" class="st7"/>
			</g>
		</a>
		<g id="group1427-15" transform="translate(29.7625,-28.7215)">
			<title>Sheet.1427</title>
			<g id="shape1425-16" transform="translate(17.6577,165.356) rotate(-153.435)">
				<title>Sheet.1425</title>
				<path d="M0 87.29 L31.69 87.29" class="st8"/>
			</g>
			<g id="shape1426-19" transform="translate(67.3816,151.182) rotate(153.435)">
				<title>Sheet.1426</title>
				<path d="M0 87.29 L31.69 87.29" class="st8"/>
			</g>
		</g>
		<g id="group1428-22" transform="translate(87.2014,88.4103) rotate(180)">
			<title>Sheet.1428</title>
			<g id="shape1429-23" transform="translate(17.6577,165.356) rotate(-153.435)">
				<title>Sheet.1429</title>
				<path d="M0 87.29 L31.69 87.29" class="st8"/>
			</g>
			<g id="shape1430-26" transform="translate(67.3816,151.182) rotate(153.435)">
				<title>Sheet.1430</title>
				<path d="M0 87.29 L31.69 87.29" class="st8"/>
			</g>
		</g>
	</g>
</svg>
