<?xml version="1.0" encoding="UTF-8" standalone="no"?>
<!DOCTYPE svg PUBLIC "-//W3C//DTD SVG 1.1//EN" "http://www.w3.org/Graphics/SVG/1.1/DTD/svg11.dtd">
<!-- Generated by Microsoft Visio, SVG Export PV019A_Origo.svg Page-1 -->
<svg xmlns="http://www.w3.org/2000/svg" xmlns:xlink="http://www.w3.org/1999/xlink" xmlns:ev="http://www.w3.org/2001/xml-events"
		width="1.62011in" height="1.60618in" viewBox="0 0 116.648 115.645" xml:space="preserve" color-interpolation-filters="sRGB"
		class="st9">
	<title>PV019A</title>

	<style type="text/css">
	<![CDATA[
		.st1 {fill:none;stroke:#ff0000;stroke-linecap:round;stroke-linejoin:round;stroke-width:0.75}
		.st2 {fill:#ff0000;font-family:Arial Narrow;font-size:0.833336em;font-weight:bold}
		.st3 {fill:none;stroke:none;stroke-linecap:round;stroke-linejoin:round;stroke-width:0.75}
		.st4 {fill:#ff0000;font-family:Arial Narrow;font-size:0.811964em;font-weight:bold}
		.st5 {baseline-shift:33.35%;font-size:0.667em}
		.st6 {fill:none;stroke:#000000;stroke-linecap:round;stroke-linejoin:round;stroke-width:2.25}
		.st7 {stroke:#000000;stroke-linecap:round;stroke-linejoin:round;stroke-width:2.25}
		.st8 {fill:none;stroke:#ff0000;stroke-linecap:round;stroke-linejoin:round;stroke-width:2.25}
		.st9 {fill:none;fill-rule:evenodd;font-size:12px;overflow:visible;stroke-linecap:square;stroke-miterlimit:3}
	]]>
	</style>

	<g>
		<title>Page-1</title>
		<g id="group1405-1" transform="translate(13.9876,-0.375)">
			<title>Sheet.1405</title>
			<g id="shape1406-2" transform="translate(2.14165,1.42109E-14)">
				<title>Sheet.1406</title>
				<desc>2</desc>
				<rect x="0" y="101.472" width="85.0394" height="14.1732" class="st1"/>
				<text x="40.24" y="111.56" class="st2">2</text>			</g>
			<g id="shape1407-5" transform="translate(0,-4.47576)">
				<title>Sheet.1407</title>
				<desc>A</desc>
				<rect x="0" y="101.472" width="13.2348" height="14.1732" class="st3"/>
				<text x="4" y="115.16" class="st4"><tspan class="st5">A</tspan></text>			</g>
		</g>
		<g id="shape1408-9" transform="translate(15.4248,-28.7215)">
			<title>Circle.1009</title>
			<path d="M0 72.75 A42.8993 42.8993 0 0 1 85.8 72.75 A42.8993 42.8993 0 1 1 0 72.75 Z" class="st6"/>
		</g>
		<g id="shape1409-11" transform="translate(131.07,1.12502) rotate(90)">
			<title>Sheet.1409</title>
			<path d="M0 115.65 L85.8 115.65" class="st7"/>
		</g>
		<g id="shape1410-14" transform="translate(216.869,1.125) rotate(90)">
			<title>Sheet.1410</title>
			<path d="M0 115.65 L85.8 115.65" class="st7"/>
		</g>
		<g id="shape1411-17" transform="translate(116.77,10.9091) rotate(90)">
			<title>Sheet.1411</title>
			<path d="M0 115.65 L61.71 115.65" class="st7"/>
		</g>
		<g id="shape1412-20" transform="translate(231.168,15.4248) rotate(90)">
			<title>Sheet.1412</title>
			<path d="M0 115.65 L61.71 115.65" class="st7"/>
		</g>
		<g id="shape1421-23" transform="translate(51.701,-65.5246)">
			<title>Circle.1413</title>
			<path d="M0 109.02 A6.62305 6.62305 0 0 1 13.25 109.02 A6.62305 6.62305 0 1 1 0 109.02 Z" class="st8"/>
		</g>
	</g>
</svg>
