<?xml version="1.0" encoding="UTF-8" standalone="no"?>
<!DOCTYPE svg PUBLIC "-//W3C//DTD SVG 1.1//EN" "http://www.w3.org/Graphics/SVG/1.1/DTD/svg11.dtd">
<!-- Generated by Microsoft Visio, SVG Export PV021A_Origo.svg Page-1 -->
<svg xmlns="http://www.w3.org/2000/svg" xmlns:xlink="http://www.w3.org/1999/xlink" xmlns:ev="http://www.w3.org/2001/xml-events"
		width="1.60605in" height="1.39879in" viewBox="0 0 115.636 100.713" xml:space="preserve" color-interpolation-filters="sRGB"
		class="st9">
	<title>PV021A</title>

	<style type="text/css">
	<![CDATA[
		.st1 {fill:none;stroke:#ff0000;stroke-linecap:round;stroke-linejoin:round;stroke-width:0.75}
		.st2 {fill:#ff0000;font-family:Arial Narrow;font-size:0.833336em;font-weight:bold}
		.st3 {fill:none;stroke:none;stroke-linecap:round;stroke-linejoin:round;stroke-width:0.75}
		.st4 {fill:#ff0000;font-family:Arial Narrow;font-size:0.811964em;font-weight:bold}
		.st5 {baseline-shift:33.35%;font-size:0.667em}
		.st6 {fill:none;stroke:#ff0000;stroke-linecap:round;stroke-linejoin:round;stroke-width:2.25}
		.st7 {fill:none;stroke:#000000;stroke-linecap:round;stroke-linejoin:round;stroke-width:2.25}
		.st8 {stroke:#000000;stroke-linecap:round;stroke-linejoin:round;stroke-width:2.25}
		.st9 {fill:none;fill-rule:evenodd;font-size:12px;overflow:visible;stroke-linecap:square;stroke-miterlimit:3}
	]]>
	</style>

	<g>
		<title>Page-1</title>
		<g id="group1405-1" transform="translate(13.1566,-0.375)">
			<title>Sheet.1405</title>
			<g id="shape1406-2" transform="translate(2.14165,0)">
				<title>Sheet.1406</title>
				<desc>2</desc>
				<rect x="0" y="86.5394" width="85.0394" height="14.1732" class="st1"/>
				<text x="40.24" y="96.63" class="st2">2</text>			</g>
			<g id="shape1407-5" transform="translate(0,-4.47576)">
				<title>Sheet.1407</title>
				<desc>A</desc>
				<rect x="0" y="86.5394" width="13.2348" height="14.1732" class="st3"/>
				<text x="4" y="100.23" class="st4"><tspan class="st5">A</tspan></text>			</g>
		</g>
		<g id="shape1421-9" transform="translate(51.1949,-50.4449)">
			<title>Circle.1413</title>
			<path d="M0 94.09 A6.62305 6.62305 0 0 1 13.25 94.09 A6.62305 6.62305 0 1 1 0 94.09 Z" class="st6"/>
		</g>
		<g id="shape1423-11" transform="translate(1.125,-28.7215)">
			<title>Sheet.1423</title>
			<path d="M0 100.71 L0 44.02 L85.04 44.02 L113.39 72.37 L85.04 100.71 L0 100.71 L0 100.71 Z" class="st7"/>
		</g>
		<g id="shape1424-13" transform="translate(123.097,1.125) rotate(90)">
			<title>Sheet.1424</title>
			<path d="M0 100.71 L11.71 100.71" class="st8"/>
		</g>
		<g id="shape1425-16" transform="translate(8.21161,-99.5876)">
			<title>Sheet.1425</title>
			<path d="M0 100.71 L28.35 100.71" class="st8"/>
		</g>
		<g id="shape1427-19" transform="translate(15.2982,-57.0679)">
			<title>Sheet.1427</title>
			<path d="M0 100.71 L70.87 100.71" class="st8"/>
		</g>
	</g>
</svg>
