<?xml version="1.0" encoding="UTF-8" standalone="no"?>
<!DOCTYPE svg PUBLIC "-//W3C//DTD SVG 1.1//EN" "http://www.w3.org/Graphics/SVG/1.1/DTD/svg11.dtd">
<!-- Generated by Microsoft Visio, SVG Export PZ009A.svg Page-1 -->
<svg xmlns="http://www.w3.org/2000/svg" xmlns:xlink="http://www.w3.org/1999/xlink" xmlns:ev="http://www.w3.org/2001/xml-events"
		xmlns:v="http://schemas.microsoft.com/visio/2003/SVGExtensions/" width="5.77657in" height="5.1433in"
		viewBox="0 0 415.913 370.318" xml:space="preserve" color-interpolation-filters="sRGB" class="st6">
	<title>PZ009A</title>
	<v:documentProperties v:langID="2057" v:metric="true" v:viewMarkup="false"/>

	<style type="text/css">
	<![CDATA[
		.st1 {fill:#ffffff;stroke:#ff0000;stroke-linecap:round;stroke-linejoin:round;stroke-width:2.25}
		.st2 {fill:none}
		.st3 {stroke:#000000;stroke-linecap:round;stroke-linejoin:round;stroke-width:2.25}
		.st4 {fill:none;stroke:none;stroke-linecap:round;stroke-linejoin:round;stroke-width:0.75}
		.st5 {fill:#ff0000;font-family:Calibri;font-size:4.00001em}
		.st6 {fill:none;fill-rule:evenodd;font-size:12px;overflow:visible;stroke-linecap:square;stroke-miterlimit:3}
	]]>
	</style>

	<g v:mID="0" v:index="1" v:groupContext="foregroundPage">
		<title>Page-1</title>
		<v:pageProperties v:drawingScale="0.0393701" v:pageScale="0.0393701" v:drawingUnits="24" v:shadowOffsetX="8.50394"
				v:shadowOffsetY="-8.50394"/>
		<v:layer v:name="Origo" v:index="0"/>
		<v:layer v:name="Symbol" v:index="1"/>
		<g id="shape1405-1" v:mID="1405" v:groupContext="shape" v:layerMember="0" transform="translate(2.96684,-234.839)">
			<title>Circle</title>
			<v:userDefs>
				<v:ud v:nameU="visVersion" v:val="VT0(15):26"/>
				<v:ud v:nameU="visMasterStencil" v:prompt="" v:val="VT4(Basic_M.vssx)"/>
			</v:userDefs>
			<path d="M0 363.75 A6.56444 6.56444 0 0 1 13.13 363.75 A6.56444 6.56444 0 1 1 0 363.75 Z" class="st1"/>
		</g>
		<g id="group1412-3" transform="translate(9.53128,-15.6119)" v:mID="1412" v:groupContext="group" v:layerMember="1">
			<v:userDefs>
				<v:ud v:nameU="SOLSH" v:prompt="" v:val="VT4({13D0FF3B-CF5B-4a46-98AB-14030248EAEF})"/>
				<v:ud v:nameU="DWGEntityType" v:prompt="" v:val="VT4(INSERT)"/>
			</v:userDefs>
			<title>STPK008.65</title>
			<g id="shape1413-4" v:mID="1413" v:groupContext="shape" v:layerMember="1" transform="translate(95.6693,-226.772)">
				<title>Sheet.1413</title>
				<v:userDefs>
					<v:ud v:nameU="DWGOriginalColor" v:prompt="This shapes Original DWG color." v:val="VT4(3)"/>
					<v:ud v:nameU="DWGOriginalLayer" v:prompt="This shapes Original DWG layer." v:val="VT4(26-SYM-035-SP)"/>
				</v:userDefs>
				<path d="M0 370.32 L7.09 370.32 L7.09 370.32 L0 370.32 Z" class="st2"/>
				<path d="M0 370.32 L7.09 370.32 L7.09 370.32" class="st3"/>
			</g>
			<g id="shape1414-7" v:mID="1414" v:groupContext="shape" v:layerMember="1" transform="translate(81.4961,-226.772)">
				<title>Sheet.1414</title>
				<v:userDefs>
					<v:ud v:nameU="DWGOriginalColor" v:prompt="This shapes Original DWG color." v:val="VT4(3)"/>
					<v:ud v:nameU="DWGOriginalLayer" v:prompt="This shapes Original DWG layer." v:val="VT4(26-SYM-035-SP)"/>
				</v:userDefs>
				<path d="M0 370.32 L7.09 370.32 L7.09 370.32 L0 370.32 Z" class="st2"/>
				<path d="M0 370.32 L7.09 370.32 L7.09 370.32" class="st3"/>
			</g>
			<g id="shape1415-10" v:mID="1415" v:groupContext="shape" v:layerMember="1" transform="translate(67.3228,-226.772)">
				<title>Sheet.1415</title>
				<v:userDefs>
					<v:ud v:nameU="DWGOriginalColor" v:prompt="This shapes Original DWG color." v:val="VT4(3)"/>
					<v:ud v:nameU="DWGOriginalLayer" v:prompt="This shapes Original DWG layer." v:val="VT4(26-SYM-035-SP)"/>
				</v:userDefs>
				<path d="M0 370.32 L7.09 370.32 L7.09 370.32 L0 370.32 Z" class="st2"/>
				<path d="M0 370.32 L7.09 370.32 L7.09 370.32" class="st3"/>
			</g>
			<g id="shape1416-13" v:mID="1416" v:groupContext="shape" v:layerMember="1" transform="translate(53.1496,-226.772)">
				<title>Sheet.1416</title>
				<v:userDefs>
					<v:ud v:nameU="DWGOriginalColor" v:prompt="This shapes Original DWG color." v:val="VT4(3)"/>
					<v:ud v:nameU="DWGOriginalLayer" v:prompt="This shapes Original DWG layer." v:val="VT4(26-SYM-035-SP)"/>
				</v:userDefs>
				<path d="M0 370.32 L7.09 370.32 L7.09 370.32 L0 370.32 Z" class="st2"/>
				<path d="M0 370.32 L7.09 370.32 L7.09 370.32" class="st3"/>
			</g>
			<g id="shape1417-16" v:mID="1417" v:groupContext="shape" v:layerMember="1" transform="translate(38.9764,-226.772)">
				<title>Sheet.1417</title>
				<v:userDefs>
					<v:ud v:nameU="DWGOriginalColor" v:prompt="This shapes Original DWG color." v:val="VT4(3)"/>
					<v:ud v:nameU="DWGOriginalLayer" v:prompt="This shapes Original DWG layer." v:val="VT4(26-SYM-035-SP)"/>
				</v:userDefs>
				<path d="M0 370.32 L7.09 370.32 L7.09 370.32 L0 370.32 Z" class="st2"/>
				<path d="M0 370.32 L7.09 370.32 L7.09 370.32" class="st3"/>
			</g>
			<g id="shape1418-19" v:mID="1418" v:groupContext="shape" v:layerMember="1" transform="translate(24.8032,-226.772)">
				<title>Sheet.1418</title>
				<v:userDefs>
					<v:ud v:nameU="DWGOriginalColor" v:prompt="This shapes Original DWG color." v:val="VT4(3)"/>
					<v:ud v:nameU="DWGOriginalLayer" v:prompt="This shapes Original DWG layer." v:val="VT4(26-SYM-035-SP)"/>
				</v:userDefs>
				<path d="M0 370.32 L7.09 370.32 L7.09 370.32 L0 370.32 Z" class="st2"/>
				<path d="M0 370.32 L7.09 370.32 L7.09 370.32" class="st3"/>
			</g>
			<g id="shape1419-22" v:mID="1419" v:groupContext="shape" v:layerMember="1" transform="translate(0,-226.772)">
				<title>Sheet.1419</title>
				<v:userDefs>
					<v:ud v:nameU="DWGOriginalColor" v:prompt="This shapes Original DWG color." v:val="VT4(3)"/>
					<v:ud v:nameU="DWGOriginalLayer" v:prompt="This shapes Original DWG layer." v:val="VT4(26-SYM-035-SP)"/>
				</v:userDefs>
				<path d="M0 370.32 L3.54 370.32 L3.54 370.32 L0 370.32 Z" class="st2"/>
				<path d="M0 370.32 L3.54 370.32 L3.54 370.32" class="st3"/>
			</g>
			<g id="shape1420-25" v:mID="1420" v:groupContext="shape" v:layerMember="1" transform="translate(10.6299,-226.772)">
				<title>Sheet.1420</title>
				<v:userDefs>
					<v:ud v:nameU="DWGOriginalColor" v:prompt="This shapes Original DWG color." v:val="VT4(3)"/>
					<v:ud v:nameU="DWGOriginalLayer" v:prompt="This shapes Original DWG layer." v:val="VT4(26-SYM-035-SP)"/>
				</v:userDefs>
				<path d="M0 370.32 L7.09 370.32 L7.09 370.32 L0 370.32 Z" class="st2"/>
				<path d="M0 370.32 L7.09 370.32 L7.09 370.32" class="st3"/>
			</g>
			<g id="shape1421-28" v:mID="1421" v:groupContext="shape" v:layerMember="1" transform="translate(124.016,-226.772)">
				<title>Sheet.1421</title>
				<v:userDefs>
					<v:ud v:nameU="DWGOriginalColor" v:prompt="This shapes Original DWG color." v:val="VT4(3)"/>
					<v:ud v:nameU="DWGOriginalLayer" v:prompt="This shapes Original DWG layer." v:val="VT4(26-SYM-035-SP)"/>
				</v:userDefs>
				<path d="M7.09 370.32 L0 370.32 L0 370.32 L7.09 370.32 Z" class="st2"/>
				<path d="M7.09 370.32 L0 370.32 L0 370.32" class="st3"/>
			</g>
			<g id="shape1422-31" v:mID="1422" v:groupContext="shape" v:layerMember="1" transform="translate(138.189,-226.772)">
				<title>Sheet.1422</title>
				<v:userDefs>
					<v:ud v:nameU="DWGOriginalColor" v:prompt="This shapes Original DWG color." v:val="VT4(3)"/>
					<v:ud v:nameU="DWGOriginalLayer" v:prompt="This shapes Original DWG layer." v:val="VT4(26-SYM-035-SP)"/>
				</v:userDefs>
				<path d="M7.09 370.32 L0 370.32 L0 370.32 L7.09 370.32 Z" class="st2"/>
				<path d="M7.09 370.32 L0 370.32 L0 370.32" class="st3"/>
			</g>
			<g id="shape1423-34" v:mID="1423" v:groupContext="shape" v:layerMember="1" transform="translate(152.362,-226.772)">
				<title>Sheet.1423</title>
				<v:userDefs>
					<v:ud v:nameU="DWGOriginalColor" v:prompt="This shapes Original DWG color." v:val="VT4(3)"/>
					<v:ud v:nameU="DWGOriginalLayer" v:prompt="This shapes Original DWG layer." v:val="VT4(26-SYM-035-SP)"/>
				</v:userDefs>
				<path d="M7.09 370.32 L0 370.32 L0 370.32 L7.09 370.32 Z" class="st2"/>
				<path d="M7.09 370.32 L0 370.32 L0 370.32" class="st3"/>
			</g>
			<g id="shape1424-37" v:mID="1424" v:groupContext="shape" v:layerMember="1" transform="translate(166.535,-226.772)">
				<title>Sheet.1424</title>
				<v:userDefs>
					<v:ud v:nameU="DWGOriginalColor" v:prompt="This shapes Original DWG color." v:val="VT4(3)"/>
					<v:ud v:nameU="DWGOriginalLayer" v:prompt="This shapes Original DWG layer." v:val="VT4(26-SYM-035-SP)"/>
				</v:userDefs>
				<path d="M7.09 370.32 L0 370.32 L0 370.32 L7.09 370.32 Z" class="st2"/>
				<path d="M7.09 370.32 L0 370.32 L0 370.32" class="st3"/>
			</g>
			<g id="shape1425-40" v:mID="1425" v:groupContext="shape" v:layerMember="1" transform="translate(180.709,-226.772)">
				<title>Sheet.1425</title>
				<v:userDefs>
					<v:ud v:nameU="DWGOriginalColor" v:prompt="This shapes Original DWG color." v:val="VT4(3)"/>
					<v:ud v:nameU="DWGOriginalLayer" v:prompt="This shapes Original DWG layer." v:val="VT4(26-SYM-035-SP)"/>
				</v:userDefs>
				<path d="M7.09 370.32 L0 370.32 L0 370.32 L7.09 370.32 Z" class="st2"/>
				<path d="M7.09 370.32 L0 370.32 L0 370.32" class="st3"/>
			</g>
			<g id="shape1426-43" v:mID="1426" v:groupContext="shape" v:layerMember="1" transform="translate(194.882,-226.772)">
				<title>Sheet.1426</title>
				<v:userDefs>
					<v:ud v:nameU="DWGOriginalColor" v:prompt="This shapes Original DWG color." v:val="VT4(3)"/>
					<v:ud v:nameU="DWGOriginalLayer" v:prompt="This shapes Original DWG layer." v:val="VT4(26-SYM-035-SP)"/>
				</v:userDefs>
				<path d="M7.09 370.32 L0 370.32 L0 370.32 L7.09 370.32 Z" class="st2"/>
				<path d="M7.09 370.32 L0 370.32 L0 370.32" class="st3"/>
			</g>
			<g id="shape1427-46" v:mID="1427" v:groupContext="shape" v:layerMember="1" transform="translate(223.228,-226.772)">
				<title>Sheet.1427</title>
				<v:userDefs>
					<v:ud v:nameU="DWGOriginalColor" v:prompt="This shapes Original DWG color." v:val="VT4(3)"/>
					<v:ud v:nameU="DWGOriginalLayer" v:prompt="This shapes Original DWG layer." v:val="VT4(26-SYM-035-SP)"/>
				</v:userDefs>
				<path d="M3.54 370.32 L0 370.32 L0 370.32 L3.54 370.32 Z" class="st2"/>
				<path d="M3.54 370.32 L0 370.32 L0 370.32" class="st3"/>
			</g>
			<g id="shape1428-49" v:mID="1428" v:groupContext="shape" v:layerMember="1" transform="translate(209.055,-226.772)">
				<title>Sheet.1428</title>
				<v:userDefs>
					<v:ud v:nameU="DWGOriginalColor" v:prompt="This shapes Original DWG color." v:val="VT4(3)"/>
					<v:ud v:nameU="DWGOriginalLayer" v:prompt="This shapes Original DWG layer." v:val="VT4(26-SYM-035-SP)"/>
				</v:userDefs>
				<path d="M7.09 370.32 L0 370.32 L0 370.32 L7.09 370.32 Z" class="st2"/>
				<path d="M7.09 370.32 L0 370.32 L0 370.32" class="st3"/>
			</g>
			<g id="shape1429-52" v:mID="1429" v:groupContext="shape" v:layerMember="1" transform="translate(109.843,-226.772)">
				<title>Sheet.1429</title>
				<v:userDefs>
					<v:ud v:nameU="DWGOriginalColor" v:prompt="This shapes Original DWG color." v:val="VT4(3)"/>
					<v:ud v:nameU="DWGOriginalLayer" v:prompt="This shapes Original DWG layer." v:val="VT4(26-SYM-035-SP)"/>
				</v:userDefs>
				<path d="M7.09 370.32 L0 370.32 L0 370.32 L7.09 370.32 Z" class="st2"/>
				<path d="M7.09 370.32 L0 370.32 L0 370.32" class="st3"/>
			</g>
			<g id="shape1430-55" v:mID="1430" v:groupContext="shape" v:layerMember="1" transform="translate(124.016,-95.6693)">
				<title>Sheet.1430</title>
				<v:userDefs>
					<v:ud v:nameU="DWGOriginalColor" v:prompt="This shapes Original DWG color." v:val="VT4(3)"/>
					<v:ud v:nameU="DWGOriginalLayer" v:prompt="This shapes Original DWG layer." v:val="VT4(26-SYM-035-SP)"/>
				</v:userDefs>
				<path d="M7.09 370.32 L0 363.23 L0 363.23 L7.09 370.32 Z" class="st2"/>
				<path d="M7.09 370.32 L0 363.23 L0 363.23" class="st3"/>
			</g>
			<g id="shape1431-58" v:mID="1431" v:groupContext="shape" v:layerMember="1" transform="translate(138.189,-81.4961)">
				<title>Sheet.1431</title>
				<v:userDefs>
					<v:ud v:nameU="DWGOriginalColor" v:prompt="This shapes Original DWG color." v:val="VT4(3)"/>
					<v:ud v:nameU="DWGOriginalLayer" v:prompt="This shapes Original DWG layer." v:val="VT4(26-SYM-035-SP)"/>
				</v:userDefs>
				<path d="M7.09 370.32 L0 363.23 L0 363.23 L7.09 370.32 Z" class="st2"/>
				<path d="M7.09 370.32 L0 363.23 L0 363.23" class="st3"/>
			</g>
			<g id="shape1432-61" v:mID="1432" v:groupContext="shape" v:layerMember="1" transform="translate(152.362,-67.3228)">
				<title>Sheet.1432</title>
				<v:userDefs>
					<v:ud v:nameU="DWGOriginalColor" v:prompt="This shapes Original DWG color." v:val="VT4(3)"/>
					<v:ud v:nameU="DWGOriginalLayer" v:prompt="This shapes Original DWG layer." v:val="VT4(26-SYM-035-SP)"/>
				</v:userDefs>
				<path d="M7.09 370.32 L0 363.23 L0 363.23 L7.09 370.32 Z" class="st2"/>
				<path d="M7.09 370.32 L0 363.23 L0 363.23" class="st3"/>
			</g>
			<g id="shape1433-64" v:mID="1433" v:groupContext="shape" v:layerMember="1" transform="translate(166.535,-53.1496)">
				<title>Sheet.1433</title>
				<v:userDefs>
					<v:ud v:nameU="DWGOriginalColor" v:prompt="This shapes Original DWG color." v:val="VT4(3)"/>
					<v:ud v:nameU="DWGOriginalLayer" v:prompt="This shapes Original DWG layer." v:val="VT4(26-SYM-035-SP)"/>
				</v:userDefs>
				<path d="M7.09 370.32 L0 363.23 L0 363.23 L7.09 370.32 Z" class="st2"/>
				<path d="M7.09 370.32 L0 363.23 L0 363.23" class="st3"/>
			</g>
			<g id="shape1434-67" v:mID="1434" v:groupContext="shape" v:layerMember="1" transform="translate(180.709,-38.9764)">
				<title>Sheet.1434</title>
				<v:userDefs>
					<v:ud v:nameU="DWGOriginalColor" v:prompt="This shapes Original DWG color." v:val="VT4(3)"/>
					<v:ud v:nameU="DWGOriginalLayer" v:prompt="This shapes Original DWG layer." v:val="VT4(26-SYM-035-SP)"/>
				</v:userDefs>
				<path d="M7.09 370.32 L0 363.23 L0 363.23 L7.09 370.32 Z" class="st2"/>
				<path d="M7.09 370.32 L0 363.23 L0 363.23" class="st3"/>
			</g>
			<g id="shape1435-70" v:mID="1435" v:groupContext="shape" v:layerMember="1" transform="translate(194.882,-24.8032)">
				<title>Sheet.1435</title>
				<v:userDefs>
					<v:ud v:nameU="DWGOriginalColor" v:prompt="This shapes Original DWG color." v:val="VT4(3)"/>
					<v:ud v:nameU="DWGOriginalLayer" v:prompt="This shapes Original DWG layer." v:val="VT4(26-SYM-035-SP)"/>
				</v:userDefs>
				<path d="M7.09 370.32 L0 363.23 L0 363.23 L7.09 370.32 Z" class="st2"/>
				<path d="M7.09 370.32 L0 363.23 L0 363.23" class="st3"/>
			</g>
			<g id="shape1436-73" v:mID="1436" v:groupContext="shape" v:layerMember="1" transform="translate(223.228,0)">
				<title>Sheet.1436</title>
				<v:userDefs>
					<v:ud v:nameU="DWGOriginalColor" v:prompt="This shapes Original DWG color." v:val="VT4(3)"/>
					<v:ud v:nameU="DWGOriginalLayer" v:prompt="This shapes Original DWG layer." v:val="VT4(26-SYM-035-SP)"/>
				</v:userDefs>
				<path d="M3.54 370.32 L0 366.77 L0 366.77 L3.54 370.32 Z" class="st2"/>
				<path d="M3.54 370.32 L0 366.77 L0 366.77" class="st3"/>
			</g>
			<g id="shape1437-76" v:mID="1437" v:groupContext="shape" v:layerMember="1" transform="translate(209.055,-10.6299)">
				<title>Sheet.1437</title>
				<v:userDefs>
					<v:ud v:nameU="DWGOriginalColor" v:prompt="This shapes Original DWG color." v:val="VT4(3)"/>
					<v:ud v:nameU="DWGOriginalLayer" v:prompt="This shapes Original DWG layer." v:val="VT4(26-SYM-035-SP)"/>
				</v:userDefs>
				<path d="M7.09 370.32 L0 363.23 L0 363.23 L7.09 370.32 Z" class="st2"/>
				<path d="M7.09 370.32 L0 363.23 L0 363.23" class="st3"/>
			</g>
			<g id="shape1438-79" v:mID="1438" v:groupContext="shape" v:layerMember="1" transform="translate(95.6693,-124.016)">
				<title>Sheet.1438</title>
				<v:userDefs>
					<v:ud v:nameU="DWGOriginalColor" v:prompt="This shapes Original DWG color." v:val="VT4(3)"/>
					<v:ud v:nameU="DWGOriginalLayer" v:prompt="This shapes Original DWG layer." v:val="VT4(26-SYM-035-SP)"/>
				</v:userDefs>
				<path d="M0 363.23 L7.09 370.32 L7.09 370.32 L0 363.23 Z" class="st2"/>
				<path d="M0 363.23 L7.09 370.32 L7.09 370.32" class="st3"/>
			</g>
			<g id="shape1439-82" v:mID="1439" v:groupContext="shape" v:layerMember="1" transform="translate(81.4961,-138.189)">
				<title>Sheet.1439</title>
				<v:userDefs>
					<v:ud v:nameU="DWGOriginalColor" v:prompt="This shapes Original DWG color." v:val="VT4(3)"/>
					<v:ud v:nameU="DWGOriginalLayer" v:prompt="This shapes Original DWG layer." v:val="VT4(26-SYM-035-SP)"/>
				</v:userDefs>
				<path d="M0 363.23 L7.09 370.32 L7.09 370.32 L0 363.23 Z" class="st2"/>
				<path d="M0 363.23 L7.09 370.32 L7.09 370.32" class="st3"/>
			</g>
			<g id="shape1440-85" v:mID="1440" v:groupContext="shape" v:layerMember="1" transform="translate(67.3228,-152.362)">
				<title>Sheet.1440</title>
				<v:userDefs>
					<v:ud v:nameU="DWGOriginalColor" v:prompt="This shapes Original DWG color." v:val="VT4(3)"/>
					<v:ud v:nameU="DWGOriginalLayer" v:prompt="This shapes Original DWG layer." v:val="VT4(26-SYM-035-SP)"/>
				</v:userDefs>
				<path d="M0 363.23 L7.09 370.32 L7.09 370.32 L0 363.23 Z" class="st2"/>
				<path d="M0 363.23 L7.09 370.32 L7.09 370.32" class="st3"/>
			</g>
			<g id="shape1441-88" v:mID="1441" v:groupContext="shape" v:layerMember="1" transform="translate(53.1496,-166.535)">
				<title>Sheet.1441</title>
				<v:userDefs>
					<v:ud v:nameU="DWGOriginalColor" v:prompt="This shapes Original DWG color." v:val="VT4(3)"/>
					<v:ud v:nameU="DWGOriginalLayer" v:prompt="This shapes Original DWG layer." v:val="VT4(26-SYM-035-SP)"/>
				</v:userDefs>
				<path d="M0 363.23 L7.09 370.32 L7.09 370.32 L0 363.23 Z" class="st2"/>
				<path d="M0 363.23 L7.09 370.32 L7.09 370.32" class="st3"/>
			</g>
			<g id="shape1442-91" v:mID="1442" v:groupContext="shape" v:layerMember="1" transform="translate(38.982,-180.709)">
				<title>Sheet.1442</title>
				<v:userDefs>
					<v:ud v:nameU="DWGOriginalColor" v:prompt="This shapes Original DWG color." v:val="VT4(3)"/>
					<v:ud v:nameU="DWGOriginalLayer" v:prompt="This shapes Original DWG layer." v:val="VT4(26-SYM-035-SP)"/>
				</v:userDefs>
				<path d="M0 363.24 L7.08 370.32 L7.08 370.32 L0 363.24 Z" class="st2"/>
				<path d="M0 363.24 L7.08 370.32 L7.08 370.32" class="st3"/>
			</g>
			<g id="shape1443-94" v:mID="1443" v:groupContext="shape" v:layerMember="1" transform="translate(24.8032,-194.882)">
				<title>Sheet.1443</title>
				<v:userDefs>
					<v:ud v:nameU="DWGOriginalColor" v:prompt="This shapes Original DWG color." v:val="VT4(3)"/>
					<v:ud v:nameU="DWGOriginalLayer" v:prompt="This shapes Original DWG layer." v:val="VT4(26-SYM-035-SP)"/>
				</v:userDefs>
				<path d="M0 363.23 L7.09 370.32 L7.09 370.32 L0 363.23 Z" class="st2"/>
				<path d="M0 363.23 L7.09 370.32 L7.09 370.32" class="st3"/>
			</g>
			<g id="shape1444-97" v:mID="1444" v:groupContext="shape" v:layerMember="1" transform="translate(0,-223.228)">
				<title>Sheet.1444</title>
				<v:userDefs>
					<v:ud v:nameU="DWGOriginalColor" v:prompt="This shapes Original DWG color." v:val="VT4(3)"/>
					<v:ud v:nameU="DWGOriginalLayer" v:prompt="This shapes Original DWG layer." v:val="VT4(26-SYM-035-SP)"/>
				</v:userDefs>
				<path d="M0 366.77 L3.54 370.32 L3.54 370.32 L0 366.77 Z" class="st2"/>
				<path d="M0 366.77 L3.54 370.32 L3.54 370.32" class="st3"/>
			</g>
			<g id="shape1445-100" v:mID="1445" v:groupContext="shape" v:layerMember="1" transform="translate(10.6299,-209.055)">
				<title>Sheet.1445</title>
				<v:userDefs>
					<v:ud v:nameU="DWGOriginalColor" v:prompt="This shapes Original DWG color." v:val="VT4(3)"/>
					<v:ud v:nameU="DWGOriginalLayer" v:prompt="This shapes Original DWG layer." v:val="VT4(26-SYM-035-SP)"/>
				</v:userDefs>
				<path d="M0 363.23 L7.09 370.32 L7.09 370.32 L0 363.23 Z" class="st2"/>
				<path d="M0 363.23 L7.09 370.32 L7.09 370.32" class="st3"/>
			</g>
			<g id="shape1446-103" v:mID="1446" v:groupContext="shape" v:layerMember="1" transform="translate(109.843,-109.843)">
				<title>Sheet.1446</title>
				<v:userDefs>
					<v:ud v:nameU="DWGOriginalColor" v:prompt="This shapes Original DWG color." v:val="VT4(3)"/>
					<v:ud v:nameU="DWGOriginalLayer" v:prompt="This shapes Original DWG layer." v:val="VT4(26-SYM-035-SP)"/>
				</v:userDefs>
				<path d="M0 363.23 L7.09 370.32 L7.09 370.32 L0 363.23 Z" class="st2"/>
				<path d="M0 363.23 L7.09 370.32 L7.09 370.32" class="st3"/>
			</g>
			<g id="shape1447-106" v:mID="1447" v:groupContext="shape" v:layerMember="1" transform="translate(95.6693,0)">
				<title>Sheet.1447</title>
				<v:userDefs>
					<v:ud v:nameU="DWGOriginalColor" v:prompt="This shapes Original DWG color." v:val="VT4(3)"/>
					<v:ud v:nameU="DWGOriginalLayer" v:prompt="This shapes Original DWG layer." v:val="VT4(26-SYM-035-SP)"/>
				</v:userDefs>
				<path d="M0 370.32 L7.09 370.32 L7.09 370.32 L0 370.32 Z" class="st2"/>
				<path d="M0 370.32 L7.09 370.32 L7.09 370.32" class="st3"/>
			</g>
			<g id="shape1448-109" v:mID="1448" v:groupContext="shape" v:layerMember="1" transform="translate(81.4961,0)">
				<title>Sheet.1448</title>
				<v:userDefs>
					<v:ud v:nameU="DWGOriginalColor" v:prompt="This shapes Original DWG color." v:val="VT4(3)"/>
					<v:ud v:nameU="DWGOriginalLayer" v:prompt="This shapes Original DWG layer." v:val="VT4(26-SYM-035-SP)"/>
				</v:userDefs>
				<path d="M0 370.32 L7.09 370.32 L7.09 370.32 L0 370.32 Z" class="st2"/>
				<path d="M0 370.32 L7.09 370.32 L7.09 370.32" class="st3"/>
			</g>
			<g id="shape1449-112" v:mID="1449" v:groupContext="shape" v:layerMember="1" transform="translate(67.3228,0)">
				<title>Sheet.1449</title>
				<v:userDefs>
					<v:ud v:nameU="DWGOriginalColor" v:prompt="This shapes Original DWG color." v:val="VT4(3)"/>
					<v:ud v:nameU="DWGOriginalLayer" v:prompt="This shapes Original DWG layer." v:val="VT4(26-SYM-035-SP)"/>
				</v:userDefs>
				<path d="M0 370.32 L7.09 370.32 L7.09 370.32 L0 370.32 Z" class="st2"/>
				<path d="M0 370.32 L7.09 370.32 L7.09 370.32" class="st3"/>
			</g>
			<g id="shape1450-115" v:mID="1450" v:groupContext="shape" v:layerMember="1" transform="translate(53.1496,0)">
				<title>Sheet.1450</title>
				<v:userDefs>
					<v:ud v:nameU="DWGOriginalColor" v:prompt="This shapes Original DWG color." v:val="VT4(3)"/>
					<v:ud v:nameU="DWGOriginalLayer" v:prompt="This shapes Original DWG layer." v:val="VT4(26-SYM-035-SP)"/>
				</v:userDefs>
				<path d="M0 370.32 L7.09 370.32 L7.09 370.32 L0 370.32 Z" class="st2"/>
				<path d="M0 370.32 L7.09 370.32 L7.09 370.32" class="st3"/>
			</g>
			<g id="shape1451-118" v:mID="1451" v:groupContext="shape" v:layerMember="1" transform="translate(38.9764,0)">
				<title>Sheet.1451</title>
				<v:userDefs>
					<v:ud v:nameU="DWGOriginalColor" v:prompt="This shapes Original DWG color." v:val="VT4(3)"/>
					<v:ud v:nameU="DWGOriginalLayer" v:prompt="This shapes Original DWG layer." v:val="VT4(26-SYM-035-SP)"/>
				</v:userDefs>
				<path d="M0 370.32 L7.09 370.32 L7.09 370.32 L0 370.32 Z" class="st2"/>
				<path d="M0 370.32 L7.09 370.32 L7.09 370.32" class="st3"/>
			</g>
			<g id="shape1452-121" v:mID="1452" v:groupContext="shape" v:layerMember="1" transform="translate(24.8032,0)">
				<title>Sheet.1452</title>
				<v:userDefs>
					<v:ud v:nameU="DWGOriginalColor" v:prompt="This shapes Original DWG color." v:val="VT4(3)"/>
					<v:ud v:nameU="DWGOriginalLayer" v:prompt="This shapes Original DWG layer." v:val="VT4(26-SYM-035-SP)"/>
				</v:userDefs>
				<path d="M0 370.32 L7.09 370.32 L7.09 370.32 L0 370.32 Z" class="st2"/>
				<path d="M0 370.32 L7.09 370.32 L7.09 370.32" class="st3"/>
			</g>
			<g id="shape1453-124" v:mID="1453" v:groupContext="shape" v:layerMember="1">
				<title>Sheet.1453</title>
				<v:userDefs>
					<v:ud v:nameU="DWGOriginalColor" v:prompt="This shapes Original DWG color." v:val="VT4(3)"/>
					<v:ud v:nameU="DWGOriginalLayer" v:prompt="This shapes Original DWG layer." v:val="VT4(26-SYM-035-SP)"/>
				</v:userDefs>
				<path d="M0 370.32 L3.54 370.32 L3.54 370.32 L0 370.32 Z" class="st2"/>
				<path d="M0 370.32 L3.54 370.32 L3.54 370.32" class="st3"/>
			</g>
			<g id="shape1454-127" v:mID="1454" v:groupContext="shape" v:layerMember="1" transform="translate(10.6299,0)">
				<title>Sheet.1454</title>
				<v:userDefs>
					<v:ud v:nameU="DWGOriginalColor" v:prompt="This shapes Original DWG color." v:val="VT4(3)"/>
					<v:ud v:nameU="DWGOriginalLayer" v:prompt="This shapes Original DWG layer." v:val="VT4(26-SYM-035-SP)"/>
				</v:userDefs>
				<path d="M0 370.32 L7.09 370.32 L7.09 370.32 L0 370.32 Z" class="st2"/>
				<path d="M0 370.32 L7.09 370.32 L7.09 370.32" class="st3"/>
			</g>
			<g id="shape1455-130" v:mID="1455" v:groupContext="shape" v:layerMember="1" transform="translate(124.016,0)">
				<title>Sheet.1455</title>
				<v:userDefs>
					<v:ud v:nameU="DWGOriginalColor" v:prompt="This shapes Original DWG color." v:val="VT4(3)"/>
					<v:ud v:nameU="DWGOriginalLayer" v:prompt="This shapes Original DWG layer." v:val="VT4(26-SYM-035-SP)"/>
				</v:userDefs>
				<path d="M7.09 370.32 L0 370.32 L0 370.32 L7.09 370.32 Z" class="st2"/>
				<path d="M7.09 370.32 L0 370.32 L0 370.32" class="st3"/>
			</g>
			<g id="shape1456-133" v:mID="1456" v:groupContext="shape" v:layerMember="1" transform="translate(138.189,0)">
				<title>Sheet.1456</title>
				<v:userDefs>
					<v:ud v:nameU="DWGOriginalColor" v:prompt="This shapes Original DWG color." v:val="VT4(3)"/>
					<v:ud v:nameU="DWGOriginalLayer" v:prompt="This shapes Original DWG layer." v:val="VT4(26-SYM-035-SP)"/>
				</v:userDefs>
				<path d="M7.09 370.32 L0 370.32 L0 370.32 L7.09 370.32 Z" class="st2"/>
				<path d="M7.09 370.32 L0 370.32 L0 370.32" class="st3"/>
			</g>
			<g id="shape1457-136" v:mID="1457" v:groupContext="shape" v:layerMember="1" transform="translate(152.362,0)">
				<title>Sheet.1457</title>
				<v:userDefs>
					<v:ud v:nameU="DWGOriginalColor" v:prompt="This shapes Original DWG color." v:val="VT4(3)"/>
					<v:ud v:nameU="DWGOriginalLayer" v:prompt="This shapes Original DWG layer." v:val="VT4(26-SYM-035-SP)"/>
				</v:userDefs>
				<path d="M7.09 370.32 L0 370.32 L0 370.32 L7.09 370.32 Z" class="st2"/>
				<path d="M7.09 370.32 L0 370.32 L0 370.32" class="st3"/>
			</g>
			<g id="shape1458-139" v:mID="1458" v:groupContext="shape" v:layerMember="1" transform="translate(166.535,0)">
				<title>Sheet.1458</title>
				<v:userDefs>
					<v:ud v:nameU="DWGOriginalColor" v:prompt="This shapes Original DWG color." v:val="VT4(3)"/>
					<v:ud v:nameU="DWGOriginalLayer" v:prompt="This shapes Original DWG layer." v:val="VT4(26-SYM-035-SP)"/>
				</v:userDefs>
				<path d="M7.09 370.32 L0 370.32 L0 370.32 L7.09 370.32 Z" class="st2"/>
				<path d="M7.09 370.32 L0 370.32 L0 370.32" class="st3"/>
			</g>
			<g id="shape1459-142" v:mID="1459" v:groupContext="shape" v:layerMember="1" transform="translate(180.709,0)">
				<title>Sheet.1459</title>
				<v:userDefs>
					<v:ud v:nameU="DWGOriginalColor" v:prompt="This shapes Original DWG color." v:val="VT4(3)"/>
					<v:ud v:nameU="DWGOriginalLayer" v:prompt="This shapes Original DWG layer." v:val="VT4(26-SYM-035-SP)"/>
				</v:userDefs>
				<path d="M7.09 370.32 L0 370.32 L0 370.32 L7.09 370.32 Z" class="st2"/>
				<path d="M7.09 370.32 L0 370.32 L0 370.32" class="st3"/>
			</g>
			<g id="shape1460-145" v:mID="1460" v:groupContext="shape" v:layerMember="1" transform="translate(194.882,0)">
				<title>Sheet.1460</title>
				<v:userDefs>
					<v:ud v:nameU="DWGOriginalColor" v:prompt="This shapes Original DWG color." v:val="VT4(3)"/>
					<v:ud v:nameU="DWGOriginalLayer" v:prompt="This shapes Original DWG layer." v:val="VT4(26-SYM-035-SP)"/>
				</v:userDefs>
				<path d="M7.09 370.32 L0 370.32 L0 370.32 L7.09 370.32 Z" class="st2"/>
				<path d="M7.09 370.32 L0 370.32 L0 370.32" class="st3"/>
			</g>
			<g id="shape1461-148" v:mID="1461" v:groupContext="shape" v:layerMember="1" transform="translate(223.228,0)">
				<title>Sheet.1461</title>
				<v:userDefs>
					<v:ud v:nameU="DWGOriginalColor" v:prompt="This shapes Original DWG color." v:val="VT4(3)"/>
					<v:ud v:nameU="DWGOriginalLayer" v:prompt="This shapes Original DWG layer." v:val="VT4(26-SYM-035-SP)"/>
				</v:userDefs>
				<path d="M3.54 370.32 L0 370.32 L0 370.32 L3.54 370.32 Z" class="st2"/>
				<path d="M3.54 370.32 L0 370.32 L0 370.32" class="st3"/>
			</g>
			<g id="shape1462-151" v:mID="1462" v:groupContext="shape" v:layerMember="1" transform="translate(209.055,0)">
				<title>Sheet.1462</title>
				<v:userDefs>
					<v:ud v:nameU="DWGOriginalColor" v:prompt="This shapes Original DWG color." v:val="VT4(3)"/>
					<v:ud v:nameU="DWGOriginalLayer" v:prompt="This shapes Original DWG layer." v:val="VT4(26-SYM-035-SP)"/>
				</v:userDefs>
				<path d="M7.09 370.32 L0 370.32 L0 370.32 L7.09 370.32 Z" class="st2"/>
				<path d="M7.09 370.32 L0 370.32 L0 370.32" class="st3"/>
			</g>
			<g id="shape1463-154" v:mID="1463" v:groupContext="shape" v:layerMember="1" transform="translate(109.843,0)">
				<title>Sheet.1463</title>
				<v:userDefs>
					<v:ud v:nameU="DWGOriginalColor" v:prompt="This shapes Original DWG color." v:val="VT4(3)"/>
					<v:ud v:nameU="DWGOriginalLayer" v:prompt="This shapes Original DWG layer." v:val="VT4(26-SYM-035-SP)"/>
				</v:userDefs>
				<path d="M7.09 370.32 L0 370.32 L0 370.32 L7.09 370.32 Z" class="st2"/>
				<path d="M7.09 370.32 L0 370.32 L0 370.32" class="st3"/>
			</g>
			<g id="shape1464-157" v:mID="1464" v:groupContext="shape" v:layerMember="1" transform="translate(95.6693,-95.6693)">
				<title>Sheet.1464</title>
				<v:userDefs>
					<v:ud v:nameU="DWGOriginalColor" v:prompt="This shapes Original DWG color." v:val="VT4(3)"/>
					<v:ud v:nameU="DWGOriginalLayer" v:prompt="This shapes Original DWG layer." v:val="VT4(26-SYM-035-SP)"/>
				</v:userDefs>
				<path d="M0 370.32 L7.09 363.23 L7.09 363.23 L0 370.32 Z" class="st2"/>
				<path d="M0 370.32 L7.09 363.23 L7.09 363.23" class="st3"/>
			</g>
			<g id="shape1465-160" v:mID="1465" v:groupContext="shape" v:layerMember="1" transform="translate(81.4961,-81.4961)">
				<title>Sheet.1465</title>
				<v:userDefs>
					<v:ud v:nameU="DWGOriginalColor" v:prompt="This shapes Original DWG color." v:val="VT4(3)"/>
					<v:ud v:nameU="DWGOriginalLayer" v:prompt="This shapes Original DWG layer." v:val="VT4(26-SYM-035-SP)"/>
				</v:userDefs>
				<path d="M0 370.32 L7.09 363.23 L7.09 363.23 L0 370.32 Z" class="st2"/>
				<path d="M0 370.32 L7.09 363.23 L7.09 363.23" class="st3"/>
			</g>
			<g id="shape1466-163" v:mID="1466" v:groupContext="shape" v:layerMember="1" transform="translate(67.3228,-67.3228)">
				<title>Sheet.1466</title>
				<v:userDefs>
					<v:ud v:nameU="DWGOriginalColor" v:prompt="This shapes Original DWG color." v:val="VT4(3)"/>
					<v:ud v:nameU="DWGOriginalLayer" v:prompt="This shapes Original DWG layer." v:val="VT4(26-SYM-035-SP)"/>
				</v:userDefs>
				<path d="M0 370.32 L7.09 363.23 L7.09 363.23 L0 370.32 Z" class="st2"/>
				<path d="M0 370.32 L7.09 363.23 L7.09 363.23" class="st3"/>
			</g>
			<g id="shape1467-166" v:mID="1467" v:groupContext="shape" v:layerMember="1" transform="translate(53.1496,-53.1496)">
				<title>Sheet.1467</title>
				<v:userDefs>
					<v:ud v:nameU="DWGOriginalColor" v:prompt="This shapes Original DWG color." v:val="VT4(3)"/>
					<v:ud v:nameU="DWGOriginalLayer" v:prompt="This shapes Original DWG layer." v:val="VT4(26-SYM-035-SP)"/>
				</v:userDefs>
				<path d="M0 370.32 L7.09 363.23 L7.09 363.23 L0 370.32 Z" class="st2"/>
				<path d="M0 370.32 L7.09 363.23 L7.09 363.23" class="st3"/>
			</g>
			<g id="shape1468-169" v:mID="1468" v:groupContext="shape" v:layerMember="1" transform="translate(38.9764,-38.9764)">
				<title>Sheet.1468</title>
				<v:userDefs>
					<v:ud v:nameU="DWGOriginalColor" v:prompt="This shapes Original DWG color." v:val="VT4(3)"/>
					<v:ud v:nameU="DWGOriginalLayer" v:prompt="This shapes Original DWG layer." v:val="VT4(26-SYM-035-SP)"/>
				</v:userDefs>
				<path d="M0 370.32 L7.09 363.23 L7.09 363.23 L0 370.32 Z" class="st2"/>
				<path d="M0 370.32 L7.09 363.23 L7.09 363.23" class="st3"/>
			</g>
			<g id="shape1469-172" v:mID="1469" v:groupContext="shape" v:layerMember="1" transform="translate(24.8032,-24.8032)">
				<title>Sheet.1469</title>
				<v:userDefs>
					<v:ud v:nameU="DWGOriginalColor" v:prompt="This shapes Original DWG color." v:val="VT4(3)"/>
					<v:ud v:nameU="DWGOriginalLayer" v:prompt="This shapes Original DWG layer." v:val="VT4(26-SYM-035-SP)"/>
				</v:userDefs>
				<path d="M0 370.32 L7.09 363.23 L7.09 363.23 L0 370.32 Z" class="st2"/>
				<path d="M0 370.32 L7.09 363.23 L7.09 363.23" class="st3"/>
			</g>
			<g id="shape1470-175" v:mID="1470" v:groupContext="shape" v:layerMember="1">
				<title>Sheet.1470</title>
				<v:userDefs>
					<v:ud v:nameU="DWGOriginalColor" v:prompt="This shapes Original DWG color." v:val="VT4(3)"/>
					<v:ud v:nameU="DWGOriginalLayer" v:prompt="This shapes Original DWG layer." v:val="VT4(26-SYM-035-SP)"/>
				</v:userDefs>
				<path d="M0 370.32 L3.54 366.77 L3.54 366.77 L0 370.32 Z" class="st2"/>
				<path d="M0 370.32 L3.54 366.77 L3.54 366.77" class="st3"/>
			</g>
			<g id="shape1471-178" v:mID="1471" v:groupContext="shape" v:layerMember="1" transform="translate(10.6299,-10.6299)">
				<title>Sheet.1471</title>
				<v:userDefs>
					<v:ud v:nameU="DWGOriginalColor" v:prompt="This shapes Original DWG color." v:val="VT4(3)"/>
					<v:ud v:nameU="DWGOriginalLayer" v:prompt="This shapes Original DWG layer." v:val="VT4(26-SYM-035-SP)"/>
				</v:userDefs>
				<path d="M0 370.32 L7.09 363.23 L7.09 363.23 L0 370.32 Z" class="st2"/>
				<path d="M0 370.32 L7.09 363.23 L7.09 363.23" class="st3"/>
			</g>
			<g id="shape1472-181" v:mID="1472" v:groupContext="shape" v:layerMember="1" transform="translate(124.016,-124.016)">
				<title>Sheet.1472</title>
				<v:userDefs>
					<v:ud v:nameU="DWGOriginalColor" v:prompt="This shapes Original DWG color." v:val="VT4(3)"/>
					<v:ud v:nameU="DWGOriginalLayer" v:prompt="This shapes Original DWG layer." v:val="VT4(26-SYM-035-SP)"/>
				</v:userDefs>
				<path d="M7.09 363.23 L0 370.32 L0 370.32 L7.09 363.23 Z" class="st2"/>
				<path d="M7.09 363.23 L0 370.32 L0 370.32" class="st3"/>
			</g>
			<g id="shape1473-184" v:mID="1473" v:groupContext="shape" v:layerMember="1" transform="translate(138.189,-138.189)">
				<title>Sheet.1473</title>
				<v:userDefs>
					<v:ud v:nameU="DWGOriginalColor" v:prompt="This shapes Original DWG color." v:val="VT4(3)"/>
					<v:ud v:nameU="DWGOriginalLayer" v:prompt="This shapes Original DWG layer." v:val="VT4(26-SYM-035-SP)"/>
				</v:userDefs>
				<path d="M7.09 363.23 L0 370.32 L0 370.32 L7.09 363.23 Z" class="st2"/>
				<path d="M7.09 363.23 L0 370.32 L0 370.32" class="st3"/>
			</g>
			<g id="shape1474-187" v:mID="1474" v:groupContext="shape" v:layerMember="1" transform="translate(152.362,-152.362)">
				<title>Sheet.1474</title>
				<v:userDefs>
					<v:ud v:nameU="DWGOriginalColor" v:prompt="This shapes Original DWG color." v:val="VT4(3)"/>
					<v:ud v:nameU="DWGOriginalLayer" v:prompt="This shapes Original DWG layer." v:val="VT4(26-SYM-035-SP)"/>
				</v:userDefs>
				<path d="M7.09 363.23 L0 370.32 L0 370.32 L7.09 363.23 Z" class="st2"/>
				<path d="M7.09 363.23 L0 370.32 L0 370.32" class="st3"/>
			</g>
			<g id="shape1475-190" v:mID="1475" v:groupContext="shape" v:layerMember="1" transform="translate(166.535,-166.535)">
				<title>Sheet.1475</title>
				<v:userDefs>
					<v:ud v:nameU="DWGOriginalColor" v:prompt="This shapes Original DWG color." v:val="VT4(3)"/>
					<v:ud v:nameU="DWGOriginalLayer" v:prompt="This shapes Original DWG layer." v:val="VT4(26-SYM-035-SP)"/>
				</v:userDefs>
				<path d="M7.09 363.23 L0 370.32 L0 370.32 L7.09 363.23 Z" class="st2"/>
				<path d="M7.09 363.23 L0 370.32 L0 370.32" class="st3"/>
			</g>
			<g id="shape1476-193" v:mID="1476" v:groupContext="shape" v:layerMember="1" transform="translate(180.709,-180.709)">
				<title>Sheet.1476</title>
				<v:userDefs>
					<v:ud v:nameU="DWGOriginalColor" v:prompt="This shapes Original DWG color." v:val="VT4(3)"/>
					<v:ud v:nameU="DWGOriginalLayer" v:prompt="This shapes Original DWG layer." v:val="VT4(26-SYM-035-SP)"/>
				</v:userDefs>
				<path d="M7.08 363.24 L0 370.32 L0 370.32 L7.08 363.24 Z" class="st2"/>
				<path d="M7.08 363.24 L0 370.32 L0 370.32" class="st3"/>
			</g>
			<g id="shape1477-196" v:mID="1477" v:groupContext="shape" v:layerMember="1" transform="translate(194.882,-194.882)">
				<title>Sheet.1477</title>
				<v:userDefs>
					<v:ud v:nameU="DWGOriginalColor" v:prompt="This shapes Original DWG color." v:val="VT4(3)"/>
					<v:ud v:nameU="DWGOriginalLayer" v:prompt="This shapes Original DWG layer." v:val="VT4(26-SYM-035-SP)"/>
				</v:userDefs>
				<path d="M7.09 363.23 L0 370.32 L0 370.32 L7.09 363.23 Z" class="st2"/>
				<path d="M7.09 363.23 L0 370.32 L0 370.32" class="st3"/>
			</g>
			<g id="shape1478-199" v:mID="1478" v:groupContext="shape" v:layerMember="1" transform="translate(223.228,-223.228)">
				<title>Sheet.1478</title>
				<v:userDefs>
					<v:ud v:nameU="DWGOriginalColor" v:prompt="This shapes Original DWG color." v:val="VT4(3)"/>
					<v:ud v:nameU="DWGOriginalLayer" v:prompt="This shapes Original DWG layer." v:val="VT4(26-SYM-035-SP)"/>
				</v:userDefs>
				<path d="M3.54 366.77 L0 370.32 L0 370.32 L3.54 366.77 Z" class="st2"/>
				<path d="M3.54 366.77 L0 370.32 L0 370.32" class="st3"/>
			</g>
			<g id="shape1479-202" v:mID="1479" v:groupContext="shape" v:layerMember="1" transform="translate(209.055,-209.055)">
				<title>Sheet.1479</title>
				<v:userDefs>
					<v:ud v:nameU="DWGOriginalColor" v:prompt="This shapes Original DWG color." v:val="VT4(3)"/>
					<v:ud v:nameU="DWGOriginalLayer" v:prompt="This shapes Original DWG layer." v:val="VT4(26-SYM-035-SP)"/>
				</v:userDefs>
				<path d="M7.09 363.23 L0 370.32 L0 370.32 L7.09 363.23 Z" class="st2"/>
				<path d="M7.09 363.23 L0 370.32 L0 370.32" class="st3"/>
			</g>
			<g id="shape1480-205" v:mID="1480" v:groupContext="shape" v:layerMember="1" transform="translate(109.843,-109.843)">
				<title>Sheet.1480</title>
				<v:userDefs>
					<v:ud v:nameU="DWGOriginalColor" v:prompt="This shapes Original DWG color." v:val="VT4(3)"/>
					<v:ud v:nameU="DWGOriginalLayer" v:prompt="This shapes Original DWG layer." v:val="VT4(26-SYM-035-SP)"/>
				</v:userDefs>
				<path d="M7.09 363.23 L0 370.32 L0 370.32 L7.09 363.23 Z" class="st2"/>
				<path d="M7.09 363.23 L0 370.32 L0 370.32" class="st3"/>
			</g>
		</g>
		<g id="shape1481-208" v:mID="1481" v:groupContext="shape" transform="translate(-177.532,86.2629) rotate(-40)">
			<title>Sheet.1481</title>
			<desc>NOT USED</desc>
			<v:textBlock v:margins="rect(4,4,4,4)" v:tabSpace="42.5197"/>
			<v:textRect cx="231.732" cy="323.546" width="463.47" height="93.5433"/>
			<rect x="0" y="276.774" width="463.465" height="93.5433" class="st4"/>
			<text x="130.32" y="337.95" class="st5" v:langID="2057"><v:paragraph v:horizAlign="1"/><v:tabList/>NOT USED</text>		</g>
	</g>
</svg>
