<?xml version="1.0" encoding="UTF-8" standalone="no"?>
<!DOCTYPE svg PUBLIC "-//W3C//DTD SVG 1.1//EN" "http://www.w3.org/Graphics/SVG/1.1/DTD/svg11.dtd">
<!-- Generated by Microsoft Visio, SVG Export PZ006A_Origo.svg Page-1 -->
<svg xmlns="http://www.w3.org/2000/svg" xmlns:xlink="http://www.w3.org/1999/xlink" xmlns:ev="http://www.w3.org/2001/xml-events"
		width="5.77657in" height="5.1433in" viewBox="0 0 415.913 370.318" xml:space="preserve" color-interpolation-filters="sRGB"
		class="st6">
	<title>PZ006A</title>

	<style type="text/css">
	<![CDATA[
		.st1 {fill:#ffffff;stroke:#ff0000;stroke-linecap:round;stroke-linejoin:round;stroke-width:2.25}
		.st2 {stroke:#000000;stroke-linecap:round;stroke-linejoin:round;stroke-width:2.25}
		.st3 {fill:#000000;stroke:#000000;stroke-linecap:round;stroke-linejoin:round;stroke-width:0.24}
		.st4 {fill:none;stroke:none;stroke-linecap:round;stroke-linejoin:round;stroke-width:0.75}
		.st5 {fill:#ff0000;font-family:Calibri;font-size:4.00001em}
		.st6 {fill:none;fill-rule:evenodd;font-size:12px;overflow:visible;stroke-linecap:square;stroke-miterlimit:3}
	]]>
	</style>

	<g>
		<title>Page-1</title>
		<g id="shape1405-1" transform="translate(2.96684,-234.839)">
			<title>Circle</title>
			<path d="M0 363.75 A6.56444 6.56444 0 0 1 13.13 363.75 A6.56444 6.56444 0 1 1 0 363.75 Z" class="st1"/>
		</g>
		<g id="group1453-3" transform="translate(9.53128,-214.037)">
			<title>Sheet.1453</title>
			<g id="shape1416-4" transform="translate(0,-27.3658)">
				<title>Sheet.1416</title>
				<path d="M0 370.32 L226.77 370.32" class="st2"/>
			</g>
			<g id="shape1417-7" transform="translate(396.11,539.22) rotate(122.005)">
				<title>Sheet.1417</title>
				<path d="M0 370.32 L19.36 370.32" class="st2"/>
			</g>
			<g id="shape1450-10" transform="translate(-105.874,677.082) rotate(-150)">
				<title>Triangle</title>
				<path d="M9.94 370.32 L4.97 351.35 L0 370.32 L9.94 370.32 Z" class="st3"/>
			</g>
			<g id="shape1451-12" transform="translate(467.932,539.22) rotate(122.005)">
				<title>Sheet.1451</title>
				<path d="M0 370.32 L19.36 370.32" class="st2"/>
			</g>
			<g id="shape1452-15" transform="translate(-34.0528,677.082) rotate(-150)">
				<title>Triangle.1452</title>
				<path d="M9.94 370.32 L4.97 351.35 L0 370.32 L9.94 370.32 Z" class="st3"/>
			</g>
		</g>
		<g id="shape1454-17" transform="translate(-177.532,86.2629) rotate(-40)">
			<title>Sheet.1454</title>
			<desc>NOT USED</desc>
			<rect x="0" y="276.774" width="463.465" height="93.5433" class="st4"/>
			<text x="130.32" y="337.95" class="st5">NOT USED</text>		</g>
	</g>
</svg>
