<?xml version="1.0" encoding="UTF-8" standalone="no"?>
<!DOCTYPE svg PUBLIC "-//W3C//DTD SVG 1.1//EN" "http://www.w3.org/Graphics/SVG/1.1/DTD/svg11.dtd">
<!-- Generated by Microsoft Visio, SVG Export PZ007A_Origo.svg Page-1 -->
<svg xmlns="http://www.w3.org/2000/svg" xmlns:xlink="http://www.w3.org/1999/xlink" xmlns:ev="http://www.w3.org/2001/xml-events"
		width="5.77657in" height="5.1433in" viewBox="0 0 415.913 370.318" xml:space="preserve" color-interpolation-filters="sRGB"
		class="st5">
	<title>PZ007A</title>

	<style type="text/css">
	<![CDATA[
		.st1 {fill:#ffffff;stroke:#ff0000;stroke-linecap:round;stroke-linejoin:round;stroke-width:2.25}
		.st2 {stroke:#000000;stroke-dasharray:2.25,4.5;stroke-linecap:round;stroke-linejoin:round;stroke-width:2.25}
		.st3 {fill:none;stroke:none;stroke-linecap:round;stroke-linejoin:round;stroke-width:0.75}
		.st4 {fill:#ff0000;font-family:Calibri;font-size:4.00001em}
		.st5 {fill:none;fill-rule:evenodd;font-size:12px;overflow:visible;stroke-linecap:square;stroke-miterlimit:3}
	]]>
	</style>

	<g>
		<title>Page-1</title>
		<g id="shape1405-1" transform="translate(2.96684,-164.804)">
			<title>Circle</title>
			<path d="M0 363.75 A6.56444 6.56444 0 0 1 13.13 363.75 A6.56444 6.56444 0 1 1 0 363.75 Z" class="st1"/>
		</g>
		<g id="group1422-3" transform="translate(9.53128,-170.857)">
			<title>Sheet.1422</title>
			<g id="shape1416-4" transform="translate(-3.66001,-0.493223) rotate(-0.566288)">
				<title>Sheet.1416</title>
				<path d="M0 370.32 L99.22 370.32" class="st2"/>
			</g>
			<g id="shape1417-7" transform="translate(-271.105,368.306) rotate(-90)">
				<title>Sheet.1417</title>
				<path d="M0 370.32 L22.16 370.32" class="st2"/>
			</g>
			<g id="shape1418-10" transform="translate(-242.759,369.806) rotate(-90)">
				<title>Sheet.1418</title>
				<path d="M0 370.32 L22.16 370.32" class="st2"/>
			</g>
			<g id="shape1419-13" transform="translate(-114.339,38.2705) rotate(-31.2828)">
				<title>Sheet.1419</title>
				<path d="M0 370.32 L41.13 370.32" class="st2"/>
			</g>
			<g id="shape1420-16" transform="translate(-46.052,670.393) rotate(-148.249)">
				<title>Sheet.1420</title>
				<path d="M0 370.32 L42 370.32" class="st2"/>
			</g>
			<g id="shape1421-19" transform="translate(129.468,-0.506393) rotate(0.295282)">
				<title>Sheet.1421</title>
				<path d="M0 370.32 L99.21 370.32" class="st2"/>
			</g>
		</g>
		<g id="shape1423-22" transform="translate(-177.532,86.2629) rotate(-40)">
			<title>Sheet.1423</title>
			<desc>NOT USED</desc>
			<rect x="0" y="276.774" width="463.465" height="93.5433" class="st3"/>
			<text x="130.32" y="337.95" class="st4">NOT USED</text>		</g>
	</g>
</svg>
