<?xml version="1.0" encoding="UTF-8" standalone="no"?>
<!DOCTYPE svg PUBLIC "-//W3C//DTD SVG 1.1//EN" "http://www.w3.org/Graphics/SVG/1.1/DTD/svg11.dtd">
<!-- Generated by Microsoft Visio, SVG Export PZ005A_Origo.svg Page-1 -->
<svg xmlns="http://www.w3.org/2000/svg" xmlns:xlink="http://www.w3.org/1999/xlink" xmlns:ev="http://www.w3.org/2001/xml-events"
		width="5.77657in" height="5.1433in" viewBox="0 0 415.913 370.318" xml:space="preserve" color-interpolation-filters="sRGB"
		class="st5">
	<title>PZ005A</title>

	<style type="text/css">
	<![CDATA[
		.st1 {fill:none;stroke:#ff0000;stroke-linecap:round;stroke-linejoin:round;stroke-width:2.25}
		.st2 {stroke:#000000;stroke-linecap:round;stroke-linejoin:round;stroke-width:2.25}
		.st3 {fill:none;stroke:none;stroke-linecap:round;stroke-linejoin:round;stroke-width:0.75}
		.st4 {fill:#ff0000;font-family:Calibri;font-size:4.00001em}
		.st5 {fill:none;fill-rule:evenodd;font-size:12px;overflow:visible;stroke-linecap:square;stroke-miterlimit:3}
	]]>
	</style>

	<g>
		<title>Page-1</title>
		<g id="shape1405-1" transform="translate(2.96685,-93.1751)">
			<title>Circle</title>
			<path d="M0 363.75 A6.56444 6.56444 0 0 1 13.13 363.75 A6.56444 6.56444 0 1 1 0 363.75 Z" class="st1"/>
		</g>
		<g id="group1461-3" transform="translate(9.53129,-99.7395)">
			<title>Sheet.1461</title>
			<g id="shape1416-4">
				<title>Sheet.1416</title>
				<path d="M0 370.32 L226.77 370.32" class="st2"/>
			</g>
			<g id="group1456-7" transform="translate(205.228,-1.13687E-13)">
				<title>Sheet.1456</title>
				<g id="shape1454-8" transform="translate(265.99,90.4251) rotate(45.9122)">
					<title>Sheet.1454</title>
					<path d="M0 370.32 L30.96 370.32" class="st2"/>
				</g>
				<g id="shape1455-11" transform="translate(-247.855,116.231) rotate(-46.6754)">
					<title>Sheet.1455</title>
					<path d="M0 370.32 L30.57 370.32" class="st2"/>
				</g>
			</g>
			<g id="group1457-14" transform="translate(92.126,-0.980608)">
				<title>Sheet.1457</title>
				<g id="shape1458-15" transform="translate(265.99,90.4251) rotate(45.9122)">
					<title>Sheet.1458</title>
					<path d="M0 370.32 L30.96 370.32" class="st2"/>
				</g>
				<g id="shape1459-18" transform="translate(-247.855,116.231) rotate(-46.6754)">
					<title>Sheet.1459</title>
					<path d="M0 370.32 L30.57 370.32" class="st2"/>
				</g>
			</g>
		</g>
		<g id="shape1462-21" transform="translate(-177.532,86.2629) rotate(-40)">
			<title>Sheet.1462</title>
			<desc>NOT USED</desc>
			<rect x="0" y="276.774" width="463.465" height="93.5433" class="st3"/>
			<text x="130.32" y="337.95" class="st4">NOT USED</text>		</g>
	</g>
</svg>
