<?xml version="1.0" encoding="UTF-8" standalone="no"?>
<!DOCTYPE svg PUBLIC "-//W3C//DTD SVG 1.1//EN" "http://www.w3.org/Graphics/SVG/1.1/DTD/svg11.dtd">
<!-- Generated by Microsoft Visio, SVG Export PZ009A_Origo.svg Page-1 -->
<svg xmlns="http://www.w3.org/2000/svg" xmlns:xlink="http://www.w3.org/1999/xlink" xmlns:ev="http://www.w3.org/2001/xml-events"
		width="5.77657in" height="5.1433in" viewBox="0 0 415.913 370.318" xml:space="preserve" color-interpolation-filters="sRGB"
		class="st6">
	<title>PZ009A</title>

	<style type="text/css">
	<![CDATA[
		.st1 {fill:#ffffff;stroke:#ff0000;stroke-linecap:round;stroke-linejoin:round;stroke-width:2.25}
		.st2 {fill:none}
		.st3 {stroke:#000000;stroke-linecap:round;stroke-linejoin:round;stroke-width:2.25}
		.st4 {fill:none;stroke:none;stroke-linecap:round;stroke-linejoin:round;stroke-width:0.75}
		.st5 {fill:#ff0000;font-family:Calibri;font-size:4.00001em}
		.st6 {fill:none;fill-rule:evenodd;font-size:12px;overflow:visible;stroke-linecap:square;stroke-miterlimit:3}
	]]>
	</style>

	<g>
		<title>Page-1</title>
		<g id="shape1405-1" transform="translate(2.96684,-234.839)">
			<title>Circle</title>
			<path d="M0 363.75 A6.56444 6.56444 0 0 1 13.13 363.75 A6.56444 6.56444 0 1 1 0 363.75 Z" class="st1"/>
		</g>
		<g id="group1412-3" transform="translate(9.53128,-15.6119)">
			<title>STPK008.65</title>
			<g id="shape1413-4" transform="translate(95.6693,-226.772)">
				<title>Sheet.1413</title>
				<path d="M0 370.32 L7.09 370.32 L7.09 370.32 L0 370.32 Z" class="st2"/>
				<path d="M0 370.32 L7.09 370.32 L7.09 370.32" class="st3"/>
			</g>
			<g id="shape1414-7" transform="translate(81.4961,-226.772)">
				<title>Sheet.1414</title>
				<path d="M0 370.32 L7.09 370.32 L7.09 370.32 L0 370.32 Z" class="st2"/>
				<path d="M0 370.32 L7.09 370.32 L7.09 370.32" class="st3"/>
			</g>
			<g id="shape1415-10" transform="translate(67.3228,-226.772)">
				<title>Sheet.1415</title>
				<path d="M0 370.32 L7.09 370.32 L7.09 370.32 L0 370.32 Z" class="st2"/>
				<path d="M0 370.32 L7.09 370.32 L7.09 370.32" class="st3"/>
			</g>
			<g id="shape1416-13" transform="translate(53.1496,-226.772)">
				<title>Sheet.1416</title>
				<path d="M0 370.32 L7.09 370.32 L7.09 370.32 L0 370.32 Z" class="st2"/>
				<path d="M0 370.32 L7.09 370.32 L7.09 370.32" class="st3"/>
			</g>
			<g id="shape1417-16" transform="translate(38.9764,-226.772)">
				<title>Sheet.1417</title>
				<path d="M0 370.32 L7.09 370.32 L7.09 370.32 L0 370.32 Z" class="st2"/>
				<path d="M0 370.32 L7.09 370.32 L7.09 370.32" class="st3"/>
			</g>
			<g id="shape1418-19" transform="translate(24.8032,-226.772)">
				<title>Sheet.1418</title>
				<path d="M0 370.32 L7.09 370.32 L7.09 370.32 L0 370.32 Z" class="st2"/>
				<path d="M0 370.32 L7.09 370.32 L7.09 370.32" class="st3"/>
			</g>
			<g id="shape1419-22" transform="translate(0,-226.772)">
				<title>Sheet.1419</title>
				<path d="M0 370.32 L3.54 370.32 L3.54 370.32 L0 370.32 Z" class="st2"/>
				<path d="M0 370.32 L3.54 370.32 L3.54 370.32" class="st3"/>
			</g>
			<g id="shape1420-25" transform="translate(10.6299,-226.772)">
				<title>Sheet.1420</title>
				<path d="M0 370.32 L7.09 370.32 L7.09 370.32 L0 370.32 Z" class="st2"/>
				<path d="M0 370.32 L7.09 370.32 L7.09 370.32" class="st3"/>
			</g>
			<g id="shape1421-28" transform="translate(124.016,-226.772)">
				<title>Sheet.1421</title>
				<path d="M7.09 370.32 L0 370.32 L0 370.32 L7.09 370.32 Z" class="st2"/>
				<path d="M7.09 370.32 L0 370.32 L0 370.32" class="st3"/>
			</g>
			<g id="shape1422-31" transform="translate(138.189,-226.772)">
				<title>Sheet.1422</title>
				<path d="M7.09 370.32 L0 370.32 L0 370.32 L7.09 370.32 Z" class="st2"/>
				<path d="M7.09 370.32 L0 370.32 L0 370.32" class="st3"/>
			</g>
			<g id="shape1423-34" transform="translate(152.362,-226.772)">
				<title>Sheet.1423</title>
				<path d="M7.09 370.32 L0 370.32 L0 370.32 L7.09 370.32 Z" class="st2"/>
				<path d="M7.09 370.32 L0 370.32 L0 370.32" class="st3"/>
			</g>
			<g id="shape1424-37" transform="translate(166.535,-226.772)">
				<title>Sheet.1424</title>
				<path d="M7.09 370.32 L0 370.32 L0 370.32 L7.09 370.32 Z" class="st2"/>
				<path d="M7.09 370.32 L0 370.32 L0 370.32" class="st3"/>
			</g>
			<g id="shape1425-40" transform="translate(180.709,-226.772)">
				<title>Sheet.1425</title>
				<path d="M7.09 370.32 L0 370.32 L0 370.32 L7.09 370.32 Z" class="st2"/>
				<path d="M7.09 370.32 L0 370.32 L0 370.32" class="st3"/>
			</g>
			<g id="shape1426-43" transform="translate(194.882,-226.772)">
				<title>Sheet.1426</title>
				<path d="M7.09 370.32 L0 370.32 L0 370.32 L7.09 370.32 Z" class="st2"/>
				<path d="M7.09 370.32 L0 370.32 L0 370.32" class="st3"/>
			</g>
			<g id="shape1427-46" transform="translate(223.228,-226.772)">
				<title>Sheet.1427</title>
				<path d="M3.54 370.32 L0 370.32 L0 370.32 L3.54 370.32 Z" class="st2"/>
				<path d="M3.54 370.32 L0 370.32 L0 370.32" class="st3"/>
			</g>
			<g id="shape1428-49" transform="translate(209.055,-226.772)">
				<title>Sheet.1428</title>
				<path d="M7.09 370.32 L0 370.32 L0 370.32 L7.09 370.32 Z" class="st2"/>
				<path d="M7.09 370.32 L0 370.32 L0 370.32" class="st3"/>
			</g>
			<g id="shape1429-52" transform="translate(109.843,-226.772)">
				<title>Sheet.1429</title>
				<path d="M7.09 370.32 L0 370.32 L0 370.32 L7.09 370.32 Z" class="st2"/>
				<path d="M7.09 370.32 L0 370.32 L0 370.32" class="st3"/>
			</g>
			<g id="shape1430-55" transform="translate(124.016,-95.6693)">
				<title>Sheet.1430</title>
				<path d="M7.09 370.32 L0 363.23 L0 363.23 L7.09 370.32 Z" class="st2"/>
				<path d="M7.09 370.32 L0 363.23 L0 363.23" class="st3"/>
			</g>
			<g id="shape1431-58" transform="translate(138.189,-81.4961)">
				<title>Sheet.1431</title>
				<path d="M7.09 370.32 L0 363.23 L0 363.23 L7.09 370.32 Z" class="st2"/>
				<path d="M7.09 370.32 L0 363.23 L0 363.23" class="st3"/>
			</g>
			<g id="shape1432-61" transform="translate(152.362,-67.3228)">
				<title>Sheet.1432</title>
				<path d="M7.09 370.32 L0 363.23 L0 363.23 L7.09 370.32 Z" class="st2"/>
				<path d="M7.09 370.32 L0 363.23 L0 363.23" class="st3"/>
			</g>
			<g id="shape1433-64" transform="translate(166.535,-53.1496)">
				<title>Sheet.1433</title>
				<path d="M7.09 370.32 L0 363.23 L0 363.23 L7.09 370.32 Z" class="st2"/>
				<path d="M7.09 370.32 L0 363.23 L0 363.23" class="st3"/>
			</g>
			<g id="shape1434-67" transform="translate(180.709,-38.9764)">
				<title>Sheet.1434</title>
				<path d="M7.09 370.32 L0 363.23 L0 363.23 L7.09 370.32 Z" class="st2"/>
				<path d="M7.09 370.32 L0 363.23 L0 363.23" class="st3"/>
			</g>
			<g id="shape1435-70" transform="translate(194.882,-24.8032)">
				<title>Sheet.1435</title>
				<path d="M7.09 370.32 L0 363.23 L0 363.23 L7.09 370.32 Z" class="st2"/>
				<path d="M7.09 370.32 L0 363.23 L0 363.23" class="st3"/>
			</g>
			<g id="shape1436-73" transform="translate(223.228,0)">
				<title>Sheet.1436</title>
				<path d="M3.54 370.32 L0 366.77 L0 366.77 L3.54 370.32 Z" class="st2"/>
				<path d="M3.54 370.32 L0 366.77 L0 366.77" class="st3"/>
			</g>
			<g id="shape1437-76" transform="translate(209.055,-10.6299)">
				<title>Sheet.1437</title>
				<path d="M7.09 370.32 L0 363.23 L0 363.23 L7.09 370.32 Z" class="st2"/>
				<path d="M7.09 370.32 L0 363.23 L0 363.23" class="st3"/>
			</g>
			<g id="shape1438-79" transform="translate(95.6693,-124.016)">
				<title>Sheet.1438</title>
				<path d="M0 363.23 L7.09 370.32 L7.09 370.32 L0 363.23 Z" class="st2"/>
				<path d="M0 363.23 L7.09 370.32 L7.09 370.32" class="st3"/>
			</g>
			<g id="shape1439-82" transform="translate(81.4961,-138.189)">
				<title>Sheet.1439</title>
				<path d="M0 363.23 L7.09 370.32 L7.09 370.32 L0 363.23 Z" class="st2"/>
				<path d="M0 363.23 L7.09 370.32 L7.09 370.32" class="st3"/>
			</g>
			<g id="shape1440-85" transform="translate(67.3228,-152.362)">
				<title>Sheet.1440</title>
				<path d="M0 363.23 L7.09 370.32 L7.09 370.32 L0 363.23 Z" class="st2"/>
				<path d="M0 363.23 L7.09 370.32 L7.09 370.32" class="st3"/>
			</g>
			<g id="shape1441-88" transform="translate(53.1496,-166.535)">
				<title>Sheet.1441</title>
				<path d="M0 363.23 L7.09 370.32 L7.09 370.32 L0 363.23 Z" class="st2"/>
				<path d="M0 363.23 L7.09 370.32 L7.09 370.32" class="st3"/>
			</g>
			<g id="shape1442-91" transform="translate(38.982,-180.709)">
				<title>Sheet.1442</title>
				<path d="M0 363.24 L7.08 370.32 L7.08 370.32 L0 363.24 Z" class="st2"/>
				<path d="M0 363.24 L7.08 370.32 L7.08 370.32" class="st3"/>
			</g>
			<g id="shape1443-94" transform="translate(24.8032,-194.882)">
				<title>Sheet.1443</title>
				<path d="M0 363.23 L7.09 370.32 L7.09 370.32 L0 363.23 Z" class="st2"/>
				<path d="M0 363.23 L7.09 370.32 L7.09 370.32" class="st3"/>
			</g>
			<g id="shape1444-97" transform="translate(0,-223.228)">
				<title>Sheet.1444</title>
				<path d="M0 366.77 L3.54 370.32 L3.54 370.32 L0 366.77 Z" class="st2"/>
				<path d="M0 366.77 L3.54 370.32 L3.54 370.32" class="st3"/>
			</g>
			<g id="shape1445-100" transform="translate(10.6299,-209.055)">
				<title>Sheet.1445</title>
				<path d="M0 363.23 L7.09 370.32 L7.09 370.32 L0 363.23 Z" class="st2"/>
				<path d="M0 363.23 L7.09 370.32 L7.09 370.32" class="st3"/>
			</g>
			<g id="shape1446-103" transform="translate(109.843,-109.843)">
				<title>Sheet.1446</title>
				<path d="M0 363.23 L7.09 370.32 L7.09 370.32 L0 363.23 Z" class="st2"/>
				<path d="M0 363.23 L7.09 370.32 L7.09 370.32" class="st3"/>
			</g>
			<g id="shape1447-106" transform="translate(95.6693,0)">
				<title>Sheet.1447</title>
				<path d="M0 370.32 L7.09 370.32 L7.09 370.32 L0 370.32 Z" class="st2"/>
				<path d="M0 370.32 L7.09 370.32 L7.09 370.32" class="st3"/>
			</g>
			<g id="shape1448-109" transform="translate(81.4961,0)">
				<title>Sheet.1448</title>
				<path d="M0 370.32 L7.09 370.32 L7.09 370.32 L0 370.32 Z" class="st2"/>
				<path d="M0 370.32 L7.09 370.32 L7.09 370.32" class="st3"/>
			</g>
			<g id="shape1449-112" transform="translate(67.3228,0)">
				<title>Sheet.1449</title>
				<path d="M0 370.32 L7.09 370.32 L7.09 370.32 L0 370.32 Z" class="st2"/>
				<path d="M0 370.32 L7.09 370.32 L7.09 370.32" class="st3"/>
			</g>
			<g id="shape1450-115" transform="translate(53.1496,0)">
				<title>Sheet.1450</title>
				<path d="M0 370.32 L7.09 370.32 L7.09 370.32 L0 370.32 Z" class="st2"/>
				<path d="M0 370.32 L7.09 370.32 L7.09 370.32" class="st3"/>
			</g>
			<g id="shape1451-118" transform="translate(38.9764,0)">
				<title>Sheet.1451</title>
				<path d="M0 370.32 L7.09 370.32 L7.09 370.32 L0 370.32 Z" class="st2"/>
				<path d="M0 370.32 L7.09 370.32 L7.09 370.32" class="st3"/>
			</g>
			<g id="shape1452-121" transform="translate(24.8032,0)">
				<title>Sheet.1452</title>
				<path d="M0 370.32 L7.09 370.32 L7.09 370.32 L0 370.32 Z" class="st2"/>
				<path d="M0 370.32 L7.09 370.32 L7.09 370.32" class="st3"/>
			</g>
			<g id="shape1453-124">
				<title>Sheet.1453</title>
				<path d="M0 370.32 L3.54 370.32 L3.54 370.32 L0 370.32 Z" class="st2"/>
				<path d="M0 370.32 L3.54 370.32 L3.54 370.32" class="st3"/>
			</g>
			<g id="shape1454-127" transform="translate(10.6299,0)">
				<title>Sheet.1454</title>
				<path d="M0 370.32 L7.09 370.32 L7.09 370.32 L0 370.32 Z" class="st2"/>
				<path d="M0 370.32 L7.09 370.32 L7.09 370.32" class="st3"/>
			</g>
			<g id="shape1455-130" transform="translate(124.016,0)">
				<title>Sheet.1455</title>
				<path d="M7.09 370.32 L0 370.32 L0 370.32 L7.09 370.32 Z" class="st2"/>
				<path d="M7.09 370.32 L0 370.32 L0 370.32" class="st3"/>
			</g>
			<g id="shape1456-133" transform="translate(138.189,0)">
				<title>Sheet.1456</title>
				<path d="M7.09 370.32 L0 370.32 L0 370.32 L7.09 370.32 Z" class="st2"/>
				<path d="M7.09 370.32 L0 370.32 L0 370.32" class="st3"/>
			</g>
			<g id="shape1457-136" transform="translate(152.362,0)">
				<title>Sheet.1457</title>
				<path d="M7.09 370.32 L0 370.32 L0 370.32 L7.09 370.32 Z" class="st2"/>
				<path d="M7.09 370.32 L0 370.32 L0 370.32" class="st3"/>
			</g>
			<g id="shape1458-139" transform="translate(166.535,0)">
				<title>Sheet.1458</title>
				<path d="M7.09 370.32 L0 370.32 L0 370.32 L7.09 370.32 Z" class="st2"/>
				<path d="M7.09 370.32 L0 370.32 L0 370.32" class="st3"/>
			</g>
			<g id="shape1459-142" transform="translate(180.709,0)">
				<title>Sheet.1459</title>
				<path d="M7.09 370.32 L0 370.32 L0 370.32 L7.09 370.32 Z" class="st2"/>
				<path d="M7.09 370.32 L0 370.32 L0 370.32" class="st3"/>
			</g>
			<g id="shape1460-145" transform="translate(194.882,0)">
				<title>Sheet.1460</title>
				<path d="M7.09 370.32 L0 370.32 L0 370.32 L7.09 370.32 Z" class="st2"/>
				<path d="M7.09 370.32 L0 370.32 L0 370.32" class="st3"/>
			</g>
			<g id="shape1461-148" transform="translate(223.228,0)">
				<title>Sheet.1461</title>
				<path d="M3.54 370.32 L0 370.32 L0 370.32 L3.54 370.32 Z" class="st2"/>
				<path d="M3.54 370.32 L0 370.32 L0 370.32" class="st3"/>
			</g>
			<g id="shape1462-151" transform="translate(209.055,0)">
				<title>Sheet.1462</title>
				<path d="M7.09 370.32 L0 370.32 L0 370.32 L7.09 370.32 Z" class="st2"/>
				<path d="M7.09 370.32 L0 370.32 L0 370.32" class="st3"/>
			</g>
			<g id="shape1463-154" transform="translate(109.843,0)">
				<title>Sheet.1463</title>
				<path d="M7.09 370.32 L0 370.32 L0 370.32 L7.09 370.32 Z" class="st2"/>
				<path d="M7.09 370.32 L0 370.32 L0 370.32" class="st3"/>
			</g>
			<g id="shape1464-157" transform="translate(95.6693,-95.6693)">
				<title>Sheet.1464</title>
				<path d="M0 370.32 L7.09 363.23 L7.09 363.23 L0 370.32 Z" class="st2"/>
				<path d="M0 370.32 L7.09 363.23 L7.09 363.23" class="st3"/>
			</g>
			<g id="shape1465-160" transform="translate(81.4961,-81.4961)">
				<title>Sheet.1465</title>
				<path d="M0 370.32 L7.09 363.23 L7.09 363.23 L0 370.32 Z" class="st2"/>
				<path d="M0 370.32 L7.09 363.23 L7.09 363.23" class="st3"/>
			</g>
			<g id="shape1466-163" transform="translate(67.3228,-67.3228)">
				<title>Sheet.1466</title>
				<path d="M0 370.32 L7.09 363.23 L7.09 363.23 L0 370.32 Z" class="st2"/>
				<path d="M0 370.32 L7.09 363.23 L7.09 363.23" class="st3"/>
			</g>
			<g id="shape1467-166" transform="translate(53.1496,-53.1496)">
				<title>Sheet.1467</title>
				<path d="M0 370.32 L7.09 363.23 L7.09 363.23 L0 370.32 Z" class="st2"/>
				<path d="M0 370.32 L7.09 363.23 L7.09 363.23" class="st3"/>
			</g>
			<g id="shape1468-169" transform="translate(38.9764,-38.9764)">
				<title>Sheet.1468</title>
				<path d="M0 370.32 L7.09 363.23 L7.09 363.23 L0 370.32 Z" class="st2"/>
				<path d="M0 370.32 L7.09 363.23 L7.09 363.23" class="st3"/>
			</g>
			<g id="shape1469-172" transform="translate(24.8032,-24.8032)">
				<title>Sheet.1469</title>
				<path d="M0 370.32 L7.09 363.23 L7.09 363.23 L0 370.32 Z" class="st2"/>
				<path d="M0 370.32 L7.09 363.23 L7.09 363.23" class="st3"/>
			</g>
			<g id="shape1470-175">
				<title>Sheet.1470</title>
				<path d="M0 370.32 L3.54 366.77 L3.54 366.77 L0 370.32 Z" class="st2"/>
				<path d="M0 370.32 L3.54 366.77 L3.54 366.77" class="st3"/>
			</g>
			<g id="shape1471-178" transform="translate(10.6299,-10.6299)">
				<title>Sheet.1471</title>
				<path d="M0 370.32 L7.09 363.23 L7.09 363.23 L0 370.32 Z" class="st2"/>
				<path d="M0 370.32 L7.09 363.23 L7.09 363.23" class="st3"/>
			</g>
			<g id="shape1472-181" transform="translate(124.016,-124.016)">
				<title>Sheet.1472</title>
				<path d="M7.09 363.23 L0 370.32 L0 370.32 L7.09 363.23 Z" class="st2"/>
				<path d="M7.09 363.23 L0 370.32 L0 370.32" class="st3"/>
			</g>
			<g id="shape1473-184" transform="translate(138.189,-138.189)">
				<title>Sheet.1473</title>
				<path d="M7.09 363.23 L0 370.32 L0 370.32 L7.09 363.23 Z" class="st2"/>
				<path d="M7.09 363.23 L0 370.32 L0 370.32" class="st3"/>
			</g>
			<g id="shape1474-187" transform="translate(152.362,-152.362)">
				<title>Sheet.1474</title>
				<path d="M7.09 363.23 L0 370.32 L0 370.32 L7.09 363.23 Z" class="st2"/>
				<path d="M7.09 363.23 L0 370.32 L0 370.32" class="st3"/>
			</g>
			<g id="shape1475-190" transform="translate(166.535,-166.535)">
				<title>Sheet.1475</title>
				<path d="M7.09 363.23 L0 370.32 L0 370.32 L7.09 363.23 Z" class="st2"/>
				<path d="M7.09 363.23 L0 370.32 L0 370.32" class="st3"/>
			</g>
			<g id="shape1476-193" transform="translate(180.709,-180.709)">
				<title>Sheet.1476</title>
				<path d="M7.08 363.24 L0 370.32 L0 370.32 L7.08 363.24 Z" class="st2"/>
				<path d="M7.08 363.24 L0 370.32 L0 370.32" class="st3"/>
			</g>
			<g id="shape1477-196" transform="translate(194.882,-194.882)">
				<title>Sheet.1477</title>
				<path d="M7.09 363.23 L0 370.32 L0 370.32 L7.09 363.23 Z" class="st2"/>
				<path d="M7.09 363.23 L0 370.32 L0 370.32" class="st3"/>
			</g>
			<g id="shape1478-199" transform="translate(223.228,-223.228)">
				<title>Sheet.1478</title>
				<path d="M3.54 366.77 L0 370.32 L0 370.32 L3.54 366.77 Z" class="st2"/>
				<path d="M3.54 366.77 L0 370.32 L0 370.32" class="st3"/>
			</g>
			<g id="shape1479-202" transform="translate(209.055,-209.055)">
				<title>Sheet.1479</title>
				<path d="M7.09 363.23 L0 370.32 L0 370.32 L7.09 363.23 Z" class="st2"/>
				<path d="M7.09 363.23 L0 370.32 L0 370.32" class="st3"/>
			</g>
			<g id="shape1480-205" transform="translate(109.843,-109.843)">
				<title>Sheet.1480</title>
				<path d="M7.09 363.23 L0 370.32 L0 370.32 L7.09 363.23 Z" class="st2"/>
				<path d="M7.09 363.23 L0 370.32 L0 370.32" class="st3"/>
			</g>
		</g>
		<g id="shape1481-208" transform="translate(-177.532,86.2629) rotate(-40)">
			<title>Sheet.1481</title>
			<desc>NOT USED</desc>
			<rect x="0" y="276.774" width="463.465" height="93.5433" class="st4"/>
			<text x="130.32" y="337.95" class="st5">NOT USED</text>		</g>
	</g>
</svg>
