<?xml version="1.0" encoding="UTF-8" standalone="no"?>
<!DOCTYPE svg PUBLIC "-//W3C//DTD SVG 1.1//EN" "http://www.w3.org/Graphics/SVG/1.1/DTD/svg11.dtd">
<!-- Generated by Microsoft Visio, SVG Export PZ016A_Origo.svg Page-1 -->
<svg xmlns="http://www.w3.org/2000/svg" xmlns:xlink="http://www.w3.org/1999/xlink" xmlns:ev="http://www.w3.org/2001/xml-events"
		width="3.36729in" height="3.27203in" viewBox="0 0 242.445 235.586" xml:space="preserve" color-interpolation-filters="sRGB"
		class="st10">
	<title>PZ016A</title>

	<style type="text/css">
	<![CDATA[
		.st1 {fill:none;stroke:#ff0000;stroke-linecap:round;stroke-linejoin:round;stroke-width:0.75}
		.st2 {fill:#ff0000;font-family:Arial Narrow;font-size:0.833336em;font-weight:bold}
		.st3 {fill:none;stroke:none;stroke-linecap:round;stroke-linejoin:round;stroke-width:0.75}
		.st4 {fill:#ff0000;font-family:Arial Narrow;font-size:0.811964em;font-weight:bold}
		.st5 {baseline-shift:33.35%;font-size:0.667em}
		.st6 {fill:none;stroke:#ff0000;stroke-linecap:round;stroke-linejoin:round;stroke-width:2.25}
		.st7 {fill:none;stroke:#000000;stroke-linecap:round;stroke-linejoin:round;stroke-width:2.25}
		.st8 {stroke:#000000;stroke-linecap:round;stroke-linejoin:round;stroke-width:2.25}
		.st9 {fill:none}
		.st10 {fill:none;fill-rule:evenodd;font-size:12px;overflow:visible;stroke-linecap:square;stroke-miterlimit:3}
	]]>
	</style>

	<g>
		<title>Page-1</title>
		<g id="group1405-1" transform="translate(154.889,-106.902)">
			<title>Sheet.1405</title>
			<g id="shape1406-2" transform="translate(2.14165,0)">
				<title>Sheet.1406</title>
				<desc>1</desc>
				<rect x="0" y="221.413" width="85.0394" height="14.1732" class="st1"/>
				<text x="40.24" y="231.5" class="st2">1</text>			</g>
			<g id="shape1407-5" transform="translate(0,-4.47576)">
				<title>Sheet.1407</title>
				<desc>A</desc>
				<rect x="0" y="221.413" width="13.2348" height="14.1732" class="st3"/>
				<text x="4" y="235.1" class="st4"><tspan class="st5">A</tspan></text>			</g>
		</g>
		<g id="shape1431-9" transform="translate(51.2535,-1.125)">
			<title>Circle</title>
			<path d="M0 229.02 A6.56444 6.56444 0 0 1 13.13 229.02 A6.56444 6.56444 0 1 1 0 229.02 Z" class="st6"/>
		</g>
		<g id="group1432-11" transform="translate(1.125,-7.68944)">
			<title>Sheet.1432</title>
			<g id="shape1421-12">
				<title>Sheet.1421</title>
				<path d="M0 122.2 L113.39 122.2 L113.39 235.59 L0 235.59 L0 122.2 L0 122.2 Z" class="st7"/>
			</g>
			<g id="shape1422-14" transform="translate(-105.357,10.698) rotate(-26.5651)">
				<title>Sheet.1422</title>
				<path d="M0 235.59 L63.39 235.59" class="st8"/>
			</g>
			<g id="shape1423-17" transform="translate(162.051,-17.6491) rotate(26.5651)">
				<title>Sheet.1423</title>
				<path d="M0 235.59 L63.39 235.59" class="st8"/>
			</g>
			<g id="shape1424-20" transform="translate(-105.357,-31.8226) rotate(-26.5651)">
				<title>Sheet.1424</title>
				<path d="M0 235.59 L63.39 235.59" class="st8"/>
			</g>
			<g id="shape1425-23" transform="translate(162.051,-60.1697) rotate(26.5651)">
				<title>Sheet.1425</title>
				<path d="M0 235.59 L63.39 235.59" class="st8"/>
			</g>
			<g id="shape1426-26" transform="translate(-178.892,122.202) rotate(-90.0011)">
				<title>Sheet.1426</title>
				<path d="M0 235.59 L62.37 235.59" class="st8"/>
			</g>
			<g id="shape1427-29" transform="translate(56.6929,-175.754)">
				<title>Sheet.1427</title>
				<path d="M113.39 235.59 A57.0086 57.0086 -180 0 0 0 235.59 L113.39 235.59 Z" class="st9"/>
				<path d="M113.39 235.59 A57.0086 57.0086 -180 0 0 0 235.59" class="st8"/>
			</g>
		</g>
	</g>
</svg>
