<?xml version="1.0" encoding="UTF-8" standalone="no"?>
<!DOCTYPE svg PUBLIC "-//W3C//DTD SVG 1.1//EN" "http://www.w3.org/Graphics/SVG/1.1/DTD/svg11.dtd">
<!-- Generated by Microsoft Visio, SVG Export PZ011A_Origo.svg Page-1 -->
<svg xmlns="http://www.w3.org/2000/svg" xmlns:xlink="http://www.w3.org/1999/xlink" xmlns:ev="http://www.w3.org/2001/xml-events"
		width="3.27203in" height="1.09626in" viewBox="0 0 235.586 78.9306" xml:space="preserve" color-interpolation-filters="sRGB"
		class="st9">
	<title>PZ011A</title>

	<style type="text/css">
	<![CDATA[
		.st1 {fill:#ffffff;stroke:#ff0000;stroke-linecap:round;stroke-linejoin:round;stroke-width:2.25}
		.st2 {stroke:#000000;stroke-linecap:round;stroke-linejoin:round;stroke-width:2.25}
		.st3 {fill:none}
		.st4 {fill:none;stroke:#ff0000;stroke-linecap:round;stroke-linejoin:round;stroke-width:0.75}
		.st5 {fill:#ff0000;font-family:Arial Narrow;font-size:0.833336em;font-weight:bold}
		.st6 {fill:none;stroke:none;stroke-linecap:round;stroke-linejoin:round;stroke-width:0.75}
		.st7 {fill:#ff0000;font-family:Arial Narrow;font-size:0.811964em;font-weight:bold}
		.st8 {baseline-shift:33.35%;font-size:0.667em}
		.st9 {fill:none;fill-rule:evenodd;font-size:12px;overflow:visible;stroke-linecap:square;stroke-miterlimit:3}
	]]>
	</style>

	<g>
		<title>Page-1</title>
		<g id="shape1405-1" transform="translate(1.125,-64.6767)">
			<title>Circle</title>
			<path d="M0 72.37 A6.56444 6.56444 0 0 1 13.13 72.37 A6.56444 6.56444 0 1 1 0 72.37 Z" class="st1"/>
		</g>
		<g id="group1412-3" transform="translate(7.68944,-14.5482)">
			<title>STPZ001.794</title>
			<g id="shape1413-4" transform="translate(0,-28.3465)">
				<title>Sheet.1413</title>
				<path d="M0 78.93 L226.77 78.93" class="st2"/>
			</g>
			<g id="shape1414-7" transform="translate(240.064,92.2233) rotate(135)">
				<title>Sheet.1414</title>
				<path d="M0 78.93 L20.04 78.93" class="st2"/>
			</g>
			<g id="shape1415-10" transform="translate(114.266,106.396) rotate(-135)">
				<title>Sheet.1415</title>
				<path d="M0 78.93 L20.04 78.93" class="st2"/>
			</g>
			<g id="shape1416-13" transform="translate(126.678,92.2233) rotate(135)">
				<title>Sheet.1416</title>
				<path d="M0 78.93 L20.04 78.93" class="st2"/>
			</g>
			<g id="shape1417-16" transform="translate(0.880562,106.396) rotate(-135)">
				<title>Sheet.1417</title>
				<path d="M0 78.93 L20.04 78.93" class="st2"/>
			</g>
			<g id="shape1418-19" transform="translate(-78.9306,50.5841) rotate(-90)">
				<title>Sheet.1418</title>
				<path d="M0 78.93 L28.35 78.93" class="st2"/>
			</g>
			<g id="shape1419-22" transform="translate(147.841,50.5841) rotate(-90)">
				<title>Sheet.1419</title>
				<path d="M0 78.93 L28.35 78.93" class="st2"/>
			</g>
			<g id="shape1420-25" transform="translate(135.624,50.5841) rotate(90)">
				<title>Sheet.1420</title>
				<path d="M0 78.93 L28.35 78.93" class="st2"/>
			</g>
			<g id="shape1421-28" transform="translate(249.009,50.5841) rotate(90)">
				<title>Sheet.1421</title>
				<path d="M0 78.93 L28.35 78.93" class="st2"/>
			</g>
			<g id="shape1422-31" transform="translate(95.6693,-56.6929)">
				<title>Sheet.1422</title>
				<path d="M0 78.93 L7.09 78.93 L7.09 78.93 L0 78.93 Z" class="st3"/>
				<path d="M0 78.93 L7.09 78.93 L7.09 78.93" class="st2"/>
			</g>
			<g id="shape1423-34" transform="translate(81.4961,-56.6929)">
				<title>Sheet.1423</title>
				<path d="M0 78.93 L7.09 78.93 L7.09 78.93 L0 78.93 Z" class="st3"/>
				<path d="M0 78.93 L7.09 78.93 L7.09 78.93" class="st2"/>
			</g>
			<g id="shape1424-37" transform="translate(67.3228,-56.6929)">
				<title>Sheet.1424</title>
				<path d="M0 78.93 L7.09 78.93 L7.09 78.93 L0 78.93 Z" class="st3"/>
				<path d="M0 78.93 L7.09 78.93 L7.09 78.93" class="st2"/>
			</g>
			<g id="shape1425-40" transform="translate(53.1496,-56.6929)">
				<title>Sheet.1425</title>
				<path d="M0 78.93 L7.09 78.93 L7.09 78.93 L0 78.93 Z" class="st3"/>
				<path d="M0 78.93 L7.09 78.93 L7.09 78.93" class="st2"/>
			</g>
			<g id="shape1426-43" transform="translate(38.9764,-56.6929)">
				<title>Sheet.1426</title>
				<path d="M0 78.93 L7.09 78.93 L7.09 78.93 L0 78.93 Z" class="st3"/>
				<path d="M0 78.93 L7.09 78.93 L7.09 78.93" class="st2"/>
			</g>
			<g id="shape1427-46" transform="translate(24.8032,-56.6929)">
				<title>Sheet.1427</title>
				<path d="M0 78.93 L7.09 78.93 L7.09 78.93 L0 78.93 Z" class="st3"/>
				<path d="M0 78.93 L7.09 78.93 L7.09 78.93" class="st2"/>
			</g>
			<g id="shape1428-49" transform="translate(0,-56.6929)">
				<title>Sheet.1428</title>
				<path d="M0 78.93 L3.54 78.93 L3.54 78.93 L0 78.93 Z" class="st3"/>
				<path d="M0 78.93 L3.54 78.93 L3.54 78.93" class="st2"/>
			</g>
			<g id="shape1429-52" transform="translate(10.6299,-56.6929)">
				<title>Sheet.1429</title>
				<path d="M0 78.93 L7.09 78.93 L7.09 78.93 L0 78.93 Z" class="st3"/>
				<path d="M0 78.93 L7.09 78.93 L7.09 78.93" class="st2"/>
			</g>
			<g id="shape1430-55" transform="translate(124.016,-56.6929)">
				<title>Sheet.1430</title>
				<path d="M7.09 78.93 L0 78.93 L0 78.93 L7.09 78.93 Z" class="st3"/>
				<path d="M7.09 78.93 L0 78.93 L0 78.93" class="st2"/>
			</g>
			<g id="shape1431-58" transform="translate(138.189,-56.6929)">
				<title>Sheet.1431</title>
				<path d="M7.09 78.93 L0 78.93 L0 78.93 L7.09 78.93 Z" class="st3"/>
				<path d="M7.09 78.93 L0 78.93 L0 78.93" class="st2"/>
			</g>
			<g id="shape1432-61" transform="translate(152.362,-56.6929)">
				<title>Sheet.1432</title>
				<path d="M7.09 78.93 L0 78.93 L0 78.93 L7.09 78.93 Z" class="st3"/>
				<path d="M7.09 78.93 L0 78.93 L0 78.93" class="st2"/>
			</g>
			<g id="shape1433-64" transform="translate(166.535,-56.6929)">
				<title>Sheet.1433</title>
				<path d="M7.09 78.93 L0 78.93 L0 78.93 L7.09 78.93 Z" class="st3"/>
				<path d="M7.09 78.93 L0 78.93 L0 78.93" class="st2"/>
			</g>
			<g id="shape1434-67" transform="translate(180.709,-56.6929)">
				<title>Sheet.1434</title>
				<path d="M7.09 78.93 L0 78.93 L0 78.93 L7.09 78.93 Z" class="st3"/>
				<path d="M7.09 78.93 L0 78.93 L0 78.93" class="st2"/>
			</g>
			<g id="shape1435-70" transform="translate(194.882,-56.6929)">
				<title>Sheet.1435</title>
				<path d="M7.09 78.93 L0 78.93 L0 78.93 L7.09 78.93 Z" class="st3"/>
				<path d="M7.09 78.93 L0 78.93 L0 78.93" class="st2"/>
			</g>
			<g id="shape1436-73" transform="translate(223.228,-56.6929)">
				<title>Sheet.1436</title>
				<path d="M3.54 78.93 L0 78.93 L0 78.93 L3.54 78.93 Z" class="st3"/>
				<path d="M3.54 78.93 L0 78.93 L0 78.93" class="st2"/>
			</g>
			<g id="shape1437-76" transform="translate(209.055,-56.6929)">
				<title>Sheet.1437</title>
				<path d="M7.09 78.93 L0 78.93 L0 78.93 L7.09 78.93 Z" class="st3"/>
				<path d="M7.09 78.93 L0 78.93 L0 78.93" class="st2"/>
			</g>
			<g id="shape1438-79" transform="translate(109.843,-56.6929)">
				<title>Sheet.1438</title>
				<path d="M7.09 78.93 L0 78.93 L0 78.93 L7.09 78.93 Z" class="st3"/>
				<path d="M7.09 78.93 L0 78.93 L0 78.93" class="st2"/>
			</g>
		</g>
		<g id="group1449-82" transform="translate(76.4139,-0.375)">
			<title>Sheet.1449</title>
			<g id="shape1450-83" transform="translate(2.14165,0)">
				<title>Sheet.1450</title>
				<desc>1</desc>
				<rect x="0" y="64.7574" width="85.0394" height="14.1732" class="st4"/>
				<text x="40.24" y="74.84" class="st5">1</text>			</g>
			<g id="shape1451-86" transform="translate(0,-4.47576)">
				<title>Sheet.1451</title>
				<desc>A</desc>
				<rect x="0" y="64.7574" width="13.2348" height="14.1732" class="st6"/>
				<text x="4" y="78.45" class="st7"><tspan class="st8">A</tspan></text>			</g>
		</g>
	</g>
</svg>
