<?xml version="1.0" encoding="UTF-8" standalone="no"?>
<!DOCTYPE svg PUBLIC "-//W3C//DTD SVG 1.1//EN" "http://www.w3.org/Graphics/SVG/1.1/DTD/svg11.dtd">
<!-- Generated by Microsoft Visio, SVG Export PZ018A_Origo.svg Page-1 -->
<svg xmlns="http://www.w3.org/2000/svg" xmlns:xlink="http://www.w3.org/1999/xlink" xmlns:ev="http://www.w3.org/2001/xml-events"
		width="3.17044in" height="2.48463in" viewBox="0 0 228.272 178.893" xml:space="preserve" color-interpolation-filters="sRGB"
		class="st9">
	<title>PZ018A</title>

	<style type="text/css">
	<![CDATA[
		.st1 {fill:none;stroke:#ff0000;stroke-linecap:round;stroke-linejoin:round;stroke-width:0.75}
		.st2 {fill:#ff0000;font-family:Arial Narrow;font-size:0.833336em;font-weight:bold}
		.st3 {fill:none;stroke:none;stroke-linecap:round;stroke-linejoin:round;stroke-width:0.75}
		.st4 {fill:#ff0000;font-family:Arial Narrow;font-size:0.811964em;font-weight:bold}
		.st5 {baseline-shift:33.35%;font-size:0.667em}
		.st6 {fill:none;stroke:#000000;stroke-linecap:round;stroke-linejoin:round;stroke-width:2.25}
		.st7 {stroke:#000000;stroke-linecap:round;stroke-linejoin:round;stroke-width:2.25}
		.st8 {fill:none;stroke:#ff0000;stroke-linecap:round;stroke-linejoin:round;stroke-width:2.25}
		.st9 {fill:none;fill-rule:evenodd;font-size:12px;overflow:visible;stroke-linecap:square;stroke-miterlimit:3}
	]]>
	</style>

	<g>
		<title>Page-1</title>
		<g id="group1405-1" transform="translate(140.716,-86.1644)">
			<title>Sheet.1405</title>
			<g id="shape1406-2" transform="translate(2.14165,0)">
				<title>Sheet.1406</title>
				<desc>1</desc>
				<rect x="0" y="164.72" width="85.0394" height="14.1732" class="st1"/>
				<text x="40.24" y="174.81" class="st2">1</text>			</g>
			<g id="shape1407-5" transform="translate(0,-4.47576)">
				<title>Sheet.1407</title>
				<desc>A</desc>
				<rect x="0" y="164.72" width="13.2348" height="14.1732" class="st3"/>
				<text x="4" y="178.41" class="st4"><tspan class="st5">A</tspan></text>			</g>
		</g>
		<g id="group1432-9" transform="translate(1.125,-1.125)">
			<title>STPZ013.632</title>
			<g id="shape1433-10" transform="translate(0,-56.6929)">
				<title>Sheet.1433</title>
				<path d="M0 178.89 L113.39 178.89 L113.39 65.51 L0 65.51 L0 178.89 L0 178.89 Z" class="st6"/>
			</g>
			<g id="shape1434-12" transform="translate(-122.2,178.893) rotate(-90)">
				<title>Sheet.1434</title>
				<path d="M0 178.89 L56.69 178.89" class="st7"/>
			</g>
			<g id="shape1435-15" transform="translate(14.1732,-141.732)">
				<title>Sheet.1435</title>
				<path d="M0 178.89 L85.04 178.89" class="st7"/>
			</g>
			<g id="shape1436-18" transform="translate(235.586,37.1609) rotate(90)">
				<title>Sheet.1436</title>
				<path d="M0 178.89 L85.04 178.89" class="st7"/>
			</g>
			<g id="shape1437-21" transform="translate(46.7717,3.69482E-13)">
				<title>Sheet.1437</title>
				<path d="M0 150.55 L9.92 178.89 L19.84 150.55 L0 150.55 L0 150.55 Z" class="st6"/>
			</g>
			<g id="shape1438-23" transform="translate(47.2181,-27.0631)">
				<title>Sheet.1438</title>
				<path d="M0 178.89 L18.95 178.89" class="st7"/>
			</g>
			<g id="shape1439-26" transform="translate(47.9658,-24.9427)">
				<title>Sheet.1439</title>
				<path d="M0 178.89 L17.45 178.89" class="st7"/>
			</g>
			<g id="shape1440-29" transform="translate(48.7023,-22.8222)">
				<title>Sheet.1440</title>
				<path d="M0 178.89 L15.98 178.89" class="st7"/>
			</g>
			<g id="shape1441-32" transform="translate(49.4501,-20.7018)">
				<title>Sheet.1441</title>
				<path d="M0 178.89 L14.49 178.89" class="st7"/>
			</g>
			<g id="shape1442-35" transform="translate(50.1866,-18.5814)">
				<title>Sheet.1442</title>
				<path d="M0 178.89 L13.01 178.89" class="st7"/>
			</g>
			<g id="shape1443-38" transform="translate(50.9343,-16.461)">
				<title>Sheet.1443</title>
				<path d="M0 178.89 L11.52 178.89" class="st7"/>
			</g>
			<g id="shape1444-41" transform="translate(51.6709,-14.3406)">
				<title>Sheet.1444</title>
				<path d="M0 178.89 L10.04 178.89" class="st7"/>
			</g>
			<g id="shape1445-44" transform="translate(52.4186,-12.2202)">
				<title>Sheet.1445</title>
				<path d="M0 178.89 L8.55 178.89" class="st7"/>
			</g>
			<g id="shape1446-47" transform="translate(53.1552,-10.0998)">
				<title>Sheet.1446</title>
				<path d="M0 178.89 L7.08 178.89" class="st7"/>
			</g>
			<g id="shape1447-50" transform="translate(53.9029,-7.97942)">
				<title>Sheet.1447</title>
				<path d="M0 178.89 L5.58 178.89" class="st7"/>
			</g>
			<g id="shape1448-53" transform="translate(54.6395,-5.85901)">
				<title>Sheet.1448</title>
				<path d="M0 178.89 L4.11 178.89" class="st7"/>
			</g>
			<g id="shape1449-56" transform="translate(55.3872,-3.73861)">
				<title>Sheet.1449</title>
				<path d="M0 178.89 L2.61 178.89" class="st7"/>
			</g>
			<g id="shape1450-59" transform="translate(56.1238,-1.6182)">
				<title>Sheet.1450</title>
				<path d="M0 178.89 L1.14 178.89" class="st7"/>
			</g>
		</g>
		<g id="shape1451-62" transform="translate(51.2535,-164.639)">
			<title>Circle</title>
			<path d="M0 172.33 A6.56444 6.56444 0 0 1 13.13 172.33 A6.56444 6.56444 0 1 1 0 172.33 Z" class="st8"/>
		</g>
	</g>
</svg>
