<?xml version="1.0" encoding="UTF-8" standalone="no"?>
<!DOCTYPE svg PUBLIC "-//W3C//DTD SVG 1.1//EN" "http://www.w3.org/Graphics/SVG/1.1/DTD/svg11.dtd">
<!-- Generated by Microsoft Visio, SVG Export PZ017A_Origo.svg Page-1 -->
<svg xmlns="http://www.w3.org/2000/svg" xmlns:xlink="http://www.w3.org/1999/xlink" xmlns:ev="http://www.w3.org/2001/xml-events"
		width="3.17044in" height="2.48463in" viewBox="0 0 228.272 178.893" xml:space="preserve" color-interpolation-filters="sRGB"
		class="st9">
	<title>PZ017A</title>

	<style type="text/css">
	<![CDATA[
		.st1 {fill:none;stroke:#ff0000;stroke-linecap:round;stroke-linejoin:round;stroke-width:0.75}
		.st2 {fill:#ff0000;font-family:Arial Narrow;font-size:0.833336em;font-weight:bold}
		.st3 {fill:none;stroke:none;stroke-linecap:round;stroke-linejoin:round;stroke-width:0.75}
		.st4 {fill:#ff0000;font-family:Arial Narrow;font-size:0.811964em;font-weight:bold}
		.st5 {baseline-shift:33.35%;font-size:0.667em}
		.st6 {fill:none;stroke:#ff0000;stroke-linecap:round;stroke-linejoin:round;stroke-width:2.25}
		.st7 {fill:none;stroke:#000000;stroke-linecap:round;stroke-linejoin:round;stroke-width:2.25}
		.st8 {stroke:#000000;stroke-linecap:round;stroke-linejoin:round;stroke-width:2.25}
		.st9 {fill:none;fill-rule:evenodd;font-size:12px;overflow:visible;stroke-linecap:square;stroke-miterlimit:3}
	]]>
	</style>

	<g>
		<title>Page-1</title>
		<g id="group1405-1" transform="translate(140.716,-92.7288)">
			<title>Sheet.1405</title>
			<g id="shape1406-2" transform="translate(2.14165,0)">
				<title>Sheet.1406</title>
				<desc>1</desc>
				<rect x="0" y="164.72" width="85.0394" height="14.1732" class="st1"/>
				<text x="40.24" y="174.81" class="st2">1</text>			</g>
			<g id="shape1407-5" transform="translate(0,-4.47576)">
				<title>Sheet.1407</title>
				<desc>A</desc>
				<rect x="0" y="164.72" width="13.2348" height="14.1732" class="st3"/>
				<text x="4" y="178.41" class="st4"><tspan class="st5">A</tspan></text>			</g>
		</g>
		<g id="shape1431-9" transform="translate(51.2535,-1.125)">
			<title>Circle</title>
			<path d="M0 172.33 A6.56444 6.56444 0 0 1 13.13 172.33 A6.56444 6.56444 0 1 1 0 172.33 Z" class="st6"/>
		</g>
		<g id="group1432-11" transform="translate(1.125,-7.68944)">
			<title>STPZ011.594</title>
			<g id="shape1433-12">
				<title>Sheet.1433</title>
				<path d="M0 65.51 L113.39 65.51 L113.39 178.89 L0 178.89 L0 65.51 L0 65.51 Z" class="st7"/>
			</g>
			<g id="shape1434-14" transform="translate(235.586,8.81444) rotate(90)">
				<title>Sheet.1434</title>
				<path d="M0 178.89 L56.69 178.89" class="st8"/>
			</g>
			<g id="shape1435-17" transform="translate(28.3384,-28.359)">
				<title>Sheet.1435</title>
				<ellipse cx="28.3465" cy="150.547" rx="28.3465" ry="28.3465" class="st7"/>
			</g>
			<g id="shape1436-19" transform="translate(46.7717,-141.732)">
				<title>Sheet.1436</title>
				<path d="M0 178.89 L9.92 150.55 L19.84 178.89 L0 178.89 L0 178.89 Z" class="st7"/>
			</g>
			<g id="shape1437-21" transform="translate(56.4139,-169.275)">
				<title>Sheet.1437</title>
				<path d="M0 178.89 L0.56 178.89" class="st8"/>
			</g>
			<g id="shape1438-24" transform="translate(55.6662,-167.155)">
				<title>Sheet.1438</title>
				<path d="M0 178.89 L2.05 178.89" class="st8"/>
			</g>
			<g id="shape1439-27" transform="translate(54.9296,-165.034)">
				<title>Sheet.1439</title>
				<path d="M0 178.89 L3.53 178.89" class="st8"/>
			</g>
			<g id="shape1440-30" transform="translate(54.1819,-162.914)">
				<title>Sheet.1440</title>
				<path d="M0 178.89 L5.02 178.89" class="st8"/>
			</g>
			<g id="shape1441-33" transform="translate(53.4453,-160.794)">
				<title>Sheet.1441</title>
				<path d="M0 178.89 L6.5 178.89" class="st8"/>
			</g>
			<g id="shape1442-36" transform="translate(52.6976,-158.673)">
				<title>Sheet.1442</title>
				<path d="M0 178.89 L7.99 178.89" class="st8"/>
			</g>
			<g id="shape1443-39" transform="translate(51.9611,-156.553)">
				<title>Sheet.1443</title>
				<path d="M0 178.89 L9.46 178.89" class="st8"/>
			</g>
			<g id="shape1444-42" transform="translate(51.2133,-154.432)">
				<title>Sheet.1444</title>
				<path d="M0 178.89 L10.96 178.89" class="st8"/>
			</g>
			<g id="shape1445-45" transform="translate(50.4768,-152.312)">
				<title>Sheet.1445</title>
				<path d="M0 178.89 L12.43 178.89" class="st8"/>
			</g>
			<g id="shape1446-48" transform="translate(49.7291,-150.192)">
				<title>Sheet.1446</title>
				<path d="M0 178.89 L13.93 178.89" class="st8"/>
			</g>
			<g id="shape1447-51" transform="translate(48.9925,-148.071)">
				<title>Sheet.1447</title>
				<path d="M0 178.89 L15.4 178.89" class="st8"/>
			</g>
			<g id="shape1448-54" transform="translate(48.2448,-145.951)">
				<title>Sheet.1448</title>
				<path d="M0 178.89 L16.9 178.89" class="st8"/>
			</g>
			<g id="shape1449-57" transform="translate(47.5082,-143.83)">
				<title>Sheet.1449</title>
				<path d="M0 178.89 L18.37 178.89" class="st8"/>
			</g>
		</g>
	</g>
</svg>
