<?xml version="1.0" encoding="UTF-8" standalone="no"?>
<!DOCTYPE svg PUBLIC "-//W3C//DTD SVG 1.1//EN" "http://www.w3.org/Graphics/SVG/1.1/DTD/svg11.dtd">
<!-- Generated by Microsoft Visio, SVG Export PZ011B_Origo.svg Page-1 -->
<svg xmlns="http://www.w3.org/2000/svg" xmlns:xlink="http://www.w3.org/1999/xlink" xmlns:ev="http://www.w3.org/2001/xml-events"
		width="2.39345in" height="3.06994in" viewBox="0 0 172.329 221.036" xml:space="preserve" color-interpolation-filters="sRGB"
		class="st9">
	<title>PZ011B</title>

	<style type="text/css">
	<![CDATA[
		.st1 {fill:none;stroke:#ff0000;stroke-linecap:round;stroke-linejoin:round;stroke-width:0.75}
		.st2 {fill:#ff0000;font-family:Arial Narrow;font-size:0.833336em;font-weight:bold}
		.st3 {fill:none;stroke:none;stroke-linecap:round;stroke-linejoin:round;stroke-width:0.75}
		.st4 {fill:#ff0000;font-family:Arial Narrow;font-size:0.811964em;font-weight:bold}
		.st5 {baseline-shift:33.35%;font-size:0.667em}
		.st6 {stroke:#000000;stroke-linecap:round;stroke-linejoin:round;stroke-width:2.25}
		.st7 {fill:none;stroke:#ff0000;stroke-linecap:round;stroke-linejoin:round;stroke-width:2.25}
		.st8 {stroke:#000000;stroke-dasharray:15.75,11.25;stroke-linecap:round;stroke-linejoin:round;stroke-width:2.25}
		.st9 {fill:none;fill-rule:evenodd;font-size:12px;overflow:visible;stroke-linecap:square;stroke-miterlimit:3}
	]]>
	</style>

	<g>
		<title>Page-1</title>
		<g id="group1449-1" transform="translate(-128.158,87.556) rotate(-90)">
			<title>Sheet.1449</title>
			<g id="shape1450-2" transform="translate(2.14165,2.84217E-14)">
				<title>Sheet.1450</title>
				<desc>1</desc>
				<rect x="0" y="206.863" width="85.0394" height="14.1732" class="st1"/>
				<text x="40.24" y="216.95" class="st2">1</text>			</g>
			<g id="shape1451-5" transform="translate(0,-4.47576)">
				<title>Sheet.1451</title>
				<desc>A</desc>
				<rect x="0" y="206.863" width="13.2348" height="14.1732" class="st3"/>
				<text x="4" y="220.55" class="st4"><tspan class="st5">A</tspan></text>			</g>
		</g>
		<g id="shape1459-9" transform="translate(222.161,99.6846) rotate(90)">
			<title>Sheet.1459</title>
			<path d="M0 221.04 L56.69 221.04" class="st6"/>
		</g>
		<g id="shape1460-12" transform="translate(1.125,-64.6583)">
			<title>Sheet.1460</title>
			<path d="M0 221.04 L170.08 221.04" class="st6"/>
		</g>
		<g id="shape1461-15" transform="translate(-49.8321,156.378) rotate(-90)">
			<title>Sheet.1461</title>
			<path d="M0 221.04 L56.69 221.04" class="st6"/>
		</g>
		<g id="shape1462-18" transform="translate(307.2,156.653) rotate(90)">
			<title>Sheet.1462</title>
			<path d="M0 221.04 L56.69 221.04" class="st6"/>
		</g>
		<g id="shape1464-21" transform="translate(79.5999,-1.125)">
			<title>Circle</title>
			<path d="M0 214.47 A6.56444 6.56444 0 0 1 13.13 214.47 A6.56444 6.56444 0 1 1 0 214.47 Z" class="st7"/>
		</g>
		<g id="shape1468-23" transform="translate(-71.1498,1.38245) rotate(-45.3745)">
			<title>Sheet.1468</title>
			<path d="M0 221.04 L40.35 221.04" class="st6"/>
		</g>
		<g id="shape1469-26" transform="translate(-71.1497,311.925) rotate(-134.626)">
			<title>Sheet.1469</title>
			<path d="M0 221.04 L40.35 221.04" class="st6"/>
		</g>
		<g id="shape1470-29" transform="translate(1.125,-121.351)">
			<title>Sheet.1470</title>
			<path d="M0 221.04 L170.08 221.04" class="st8"/>
		</g>
	</g>
</svg>
