<?xml version="1.0" encoding="UTF-8" standalone="no"?>
<!DOCTYPE svg PUBLIC "-//W3C//DTD SVG 1.1//EN" "http://www.w3.org/Graphics/SVG/1.1/DTD/svg11.dtd">
<!-- Generated by Microsoft Visio, SVG Export PZ024A_Origo.svg Page-1 -->
<svg xmlns="http://www.w3.org/2000/svg" xmlns:xlink="http://www.w3.org/1999/xlink" xmlns:ev="http://www.w3.org/2001/xml-events"
		width="1.61849in" height="0.824868in" viewBox="0 0 116.531 59.3905" xml:space="preserve" color-interpolation-filters="sRGB"
		class="st4">
	<title>PZ024A</title>

	<style type="text/css">
	<![CDATA[
		.st1 {fill:none;stroke:#ff0000;stroke-linecap:round;stroke-linejoin:round;stroke-width:2.25}
		.st2 {stroke:#000000;stroke-linecap:round;stroke-linejoin:round;stroke-width:2.25}
		.st3 {fill:none}
		.st4 {fill:none;fill-rule:evenodd;font-size:12px;overflow:visible;stroke-linecap:square;stroke-miterlimit:3}
	]]>
	</style>

	<g>
		<title>Page-1</title>
		<g id="shape1444-1" transform="translate(52.1486,-22.907)">
			<title>Circle</title>
			<path d="M0 52.83 A6.56444 6.56444 0 0 1 13.13 52.83 A6.56444 6.56444 0 1 1 0 52.83 Z" class="st1"/>
		</g>
		<g id="group1455-3" transform="translate(1.125,-1.125)">
			<title>Sheet.1455</title>
			<g id="shape1446-4" transform="translate(0,-57.1405)">
				<title>Sheet.1446</title>
				<path d="M0 59.39 L114.28 59.39" class="st2"/>
			</g>
			<g id="shape1447-7" transform="translate(173.671,2.25) rotate(90)">
				<title>Sheet.1447</title>
				<path d="M0 59.39 L57.14 59.39" class="st2"/>
			</g>
			<g id="shape1448-10" transform="translate(114.281,118.781) rotate(180)">
				<title>Sheet.1448</title>
				<path d="M0 59.39 L114.28 59.39" class="st2"/>
			</g>
			<g id="shape1449-13" transform="translate(-59.3905,59.3905) rotate(-90)">
				<title>Sheet.1449</title>
				<path d="M0 59.39 L57.14 59.39" class="st2"/>
			</g>
			<g id="shape1450-16" transform="translate(24.4942,-14.2977)">
				<title>Sheet.1450</title>
				<path d="M0 45.11 A40.8146 35.7128 0 0 0 65.3 45.11 L0 45.11 Z" class="st3"/>
				<path d="M0 45.11 A40.8146 35.7128 0 0 0 65.3 45.11" class="st2"/>
			</g>
			<g id="shape1451-19" transform="translate(89.7986,-13.7367)">
				<title>Sheet.1451</title>
				<path d="M0 44.54 A33.4402 29.2602 0 0 0 23.65 59.39 L0 44.54 Z" class="st3"/>
				<path d="M0 44.54 A33.4402 29.2602 0 0 0 23.65 59.39" class="st2"/>
			</g>
			<g id="shape1454-22" transform="translate(24.5471,-14.1732) scale(-1,1)">
				<title>Sheet.1454</title>
				<path d="M0 44.54 A33.4402 29.2602 0 0 0 23.65 59.39 L0 44.54 Z" class="st3"/>
				<path d="M0 44.54 A33.4402 29.2602 0 0 0 23.65 59.39" class="st2"/>
			</g>
		</g>
	</g>
</svg>
