<?xml version="1.0" encoding="UTF-8" standalone="no"?>
<!DOCTYPE svg PUBLIC "-//W3C//DTD SVG 1.1//EN" "http://www.w3.org/Graphics/SVG/1.1/DTD/svg11.dtd">
<!-- Generated by Microsoft Visio, SVG Export PZ021A_Origo.svg Page-1 -->
<svg xmlns="http://www.w3.org/2000/svg" xmlns:xlink="http://www.w3.org/1999/xlink" xmlns:ev="http://www.w3.org/2001/xml-events"
		width="1.59776in" height="1.88729in" viewBox="0 0 115.039 135.885" xml:space="preserve" color-interpolation-filters="sRGB"
		class="st9">
	<title>PZ021A</title>

	<style type="text/css">
	<![CDATA[
		.st1 {fill:none;stroke:#ff0000;stroke-linecap:round;stroke-linejoin:round;stroke-width:0.75}
		.st2 {fill:#ff0000;font-family:Arial Narrow;font-size:0.833336em;font-weight:bold}
		.st3 {fill:none;stroke:none;stroke-linecap:round;stroke-linejoin:round;stroke-width:0.75}
		.st4 {fill:#ff0000;font-family:Arial Narrow;font-size:0.811964em;font-weight:bold}
		.st5 {baseline-shift:33.35%;font-size:0.667em}
		.st6 {fill:none;stroke:#ff0000;stroke-linecap:round;stroke-linejoin:round;stroke-width:2.25}
		.st7 {stroke:#000000;stroke-linecap:round;stroke-linejoin:round;stroke-width:2.25}
		.st8 {fill:none}
		.st9 {fill:none;fill-rule:evenodd;font-size:12px;overflow:visible;stroke-linecap:square;stroke-miterlimit:3}
	]]>
	</style>

	<g>
		<title>Page-1</title>
		<g id="group1405-1" transform="translate(12.5598,-0.375)">
			<title>Sheet.1405</title>
			<g id="shape1406-2" transform="translate(2.14165,0)">
				<title>Sheet.1406</title>
				<desc>1</desc>
				<rect x="0" y="121.711" width="85.0394" height="14.1732" class="st1"/>
				<text x="40.24" y="131.8" class="st2">1</text>			</g>
			<g id="shape1407-5" transform="translate(0,-4.47576)">
				<title>Sheet.1407</title>
				<desc>A</desc>
				<rect x="0" y="121.711" width="13.2348" height="14.1732" class="st3"/>
				<text x="4" y="135.4" class="st4"><tspan class="st5">A</tspan></text>			</g>
		</g>
		<g id="shape1451-9" transform="translate(50.6567,-78.0667)">
			<title>Circle</title>
			<path d="M0 129.32 A6.56444 6.56444 0 0 1 13.13 129.32 A6.56444 6.56444 0 1 1 0 129.32 Z" class="st6"/>
		</g>
		<g id="group1508-11" transform="translate(1.125,-36.0692)">
			<title>Sheet.1508</title>
			<g id="shape1493-12" transform="translate(135.885,58.3545) rotate(90)">
				<title>Sheet.1493</title>
				<path d="M0 135.88 L56.39 135.88" class="st7"/>
			</g>
			<g id="shape1494-15" transform="translate(248.674,58.3545) rotate(90)">
				<title>Sheet.1494</title>
				<path d="M0 135.88 L56.39 135.88" class="st7"/>
			</g>
			<g id="shape1495-18" transform="translate(-121.786,114.749) rotate(-90)">
				<title>Sheet.1495</title>
				<path d="M0 135.88 L56.39 135.88" class="st7"/>
			</g>
			<g id="shape1497-21" transform="translate(192.279,58.3545) rotate(90)">
				<title>Sheet.1497</title>
				<path d="M0 135.88 L56.39 135.88" class="st7"/>
			</g>
			<g id="shape1498-24" transform="translate(14.0951,-77.5425)">
				<title>Sheet.1498</title>
				<path d="M42.3 135.88 A21.1479 21.1479 -180 0 0 0 135.88 L42.3 135.88 Z" class="st8"/>
				<path d="M42.3 135.88 A21.1479 21.1479 -180 0 0 0 135.88" class="st7"/>
			</g>
			<g id="shape1499-27" transform="translate(14.0951,-3.41061E-13)">
				<title>Sheet.1499</title>
				<path d="M0 114.74 A21.1479 21.1479 -180 0 0 42.3 114.74 L0 114.74 Z" class="st8"/>
				<path d="M0 114.74 A21.1479 21.1479 -180 0 0 42.3 114.74" class="st7"/>
			</g>
			<g id="shape1500-30" transform="translate(56.391,-77.5425)">
				<title>Sheet.1500</title>
				<path d="M0.02 135.88 A21.1479 21.1479 -180 0 0 -42.27 135.88 L0.02 135.88 Z" class="st8"/>
				<path d="M0.02 135.88 A21.1479 21.1479 -180 0 0 -42.27 135.88" class="st7"/>
			</g>
			<g id="shape1501-33" transform="translate(56.391,-3.41061E-13)">
				<title>Sheet.1501</title>
				<path d="M-42.27 114.74 A21.1479 21.1479 -180 0 0 0.02 114.74 L-42.27 114.74 Z" class="st8"/>
				<path d="M-42.27 114.74 A21.1479 21.1479 -180 0 0 0.02 114.74" class="st7"/>
			</g>
			<g id="shape1502-36" transform="translate(234.049,58.3297) rotate(90)">
				<title>Sheet.1502</title>
				<path d="M0 135.88 L56.39 135.88" class="st7"/>
			</g>
			<g id="shape1503-39" transform="translate(-80.0158,114.724) rotate(-90)">
				<title>Sheet.1503</title>
				<path d="M0 135.88 L56.39 135.88" class="st7"/>
			</g>
			<g id="shape1504-42" transform="translate(98.1683,250.621) rotate(180)">
				<title>Sheet.1504</title>
				<path d="M42.3 135.88 A21.1479 21.1479 -180 0 0 0 135.88 L42.3 135.88 Z" class="st8"/>
				<path d="M42.3 135.88 A21.1479 21.1479 -180 0 0 0 135.88" class="st7"/>
			</g>
			<g id="shape1505-45" transform="translate(98.1683,173.079) rotate(180)">
				<title>Sheet.1505</title>
				<path d="M0 114.74 A21.1479 21.1479 -180 0 0 42.3 114.74 L0 114.74 Z" class="st8"/>
				<path d="M0 114.74 A21.1479 21.1479 -180 0 0 42.3 114.74" class="st7"/>
			</g>
			<g id="shape1506-48" transform="translate(55.8724,250.621) rotate(180)">
				<title>Sheet.1506</title>
				<path d="M0.02 135.88 A21.1479 21.1479 -180 0 0 -42.27 135.88 L0.02 135.88 Z" class="st8"/>
				<path d="M0.02 135.88 A21.1479 21.1479 -180 0 0 -42.27 135.88" class="st7"/>
			</g>
			<g id="shape1507-51" transform="translate(55.8724,173.079) rotate(180)">
				<title>Sheet.1507</title>
				<path d="M-42.27 114.74 A21.1479 21.1479 -180 0 0 0.02 114.74 L-42.27 114.74 Z" class="st8"/>
				<path d="M-42.27 114.74 A21.1479 21.1479 -180 0 0 0.02 114.74" class="st7"/>
			</g>
		</g>
	</g>
</svg>
