<?xml version="1.0" encoding="UTF-8" standalone="no"?>
<!DOCTYPE svg PUBLIC "-//W3C//DTD SVG 1.1//EN" "http://www.w3.org/Graphics/SVG/1.1/DTD/svg11.dtd">
<!-- Generated by Microsoft Visio, SVG Export PZ020A_Origo.svg Page-1 -->
<svg xmlns="http://www.w3.org/2000/svg" xmlns:xlink="http://www.w3.org/1999/xlink" xmlns:ev="http://www.w3.org/2001/xml-events"
		width="3.18086in" height="1.20194in" viewBox="0 0 229.022 86.5394" xml:space="preserve" color-interpolation-filters="sRGB"
		class="st9">
	<title>PZ020A</title>

	<style type="text/css">
	<![CDATA[
		.st1 {fill:none;stroke:#ff0000;stroke-linecap:round;stroke-linejoin:round;stroke-width:0.75}
		.st2 {fill:#ff0000;font-family:Arial Narrow;font-size:0.833336em;font-weight:bold}
		.st3 {fill:none;stroke:none;stroke-linecap:round;stroke-linejoin:round;stroke-width:0.75}
		.st4 {fill:#ff0000;font-family:Arial Narrow;font-size:0.811964em;font-weight:bold}
		.st5 {baseline-shift:33.35%;font-size:0.667em}
		.st6 {stroke:#000000;stroke-linecap:round;stroke-linejoin:round;stroke-width:2.25}
		.st7 {fill:none}
		.st8 {fill:none;stroke:#ff0000;stroke-linecap:round;stroke-linejoin:round;stroke-width:2.25}
		.st9 {fill:none;fill-rule:evenodd;font-size:12px;overflow:visible;stroke-linecap:square;stroke-miterlimit:3}
	]]>
	</style>

	<g>
		<title>Page-1</title>
		<g id="group1405-1" transform="translate(69.8495,-0.375)">
			<title>Sheet.1405</title>
			<g id="shape1406-2" transform="translate(2.14165,0)">
				<title>Sheet.1406</title>
				<desc>1</desc>
				<rect x="0" y="72.3661" width="85.0394" height="14.1732" class="st1"/>
				<text x="40.24" y="82.45" class="st2">1</text>			</g>
			<g id="shape1407-5" transform="translate(0,-4.47576)">
				<title>Sheet.1407</title>
				<desc>A</desc>
				<rect x="0" y="72.3661" width="13.2348" height="14.1732" class="st3"/>
				<text x="4" y="86.06" class="st4"><tspan class="st5">A</tspan></text>			</g>
		</g>
		<g id="group1511-9" transform="translate(1.125,-28.7215)">
			<title>STPF119.344</title>
			<g id="shape1512-10" transform="translate(-49.4279,-1.3995) rotate(-47.302)">
				<title>Sheet.1512</title>
				<path d="M0 86.54 L17.82 86.54" class="st6"/>
			</g>
			<g id="shape1513-13" transform="translate(2.61035,130.872) rotate(-132.697)">
				<title>Sheet.1513</title>
				<path d="M0 86.54 L38.1 86.54" class="st6"/>
			</g>
			<g id="shape1514-16" transform="translate(26.1041,-42.228)">
				<title>Sheet.1514</title>
				<path d="M14.27 86.39 A10.7348 10.0875 90 0 0 0 86.54 L14.27 86.39 Z" class="st7"/>
				<path d="M14.27 86.39 A10.7348 10.0875 90 0 0 0 86.54" class="st6"/>
			</g>
			<g id="shape1515-19" transform="translate(66.2015,-11.2807)">
				<title>Sheet.1515</title>
				<path d="M0 83.47 A10.7348 10.0875 -90 0 0 14.27 83.32 L0 83.47 Z" class="st7"/>
				<path d="M0 83.47 A10.7348 10.0875 -90 0 0 14.27 83.32" class="st6"/>
			</g>
			<g id="shape1516-22" transform="translate(82.65,130.905) rotate(-132.697)">
				<title>Sheet.1516</title>
				<path d="M0 86.54 L38.1 86.54" class="st6"/>
			</g>
			<g id="shape1517-25" transform="translate(106.142,-42.194)">
				<title>Sheet.1517</title>
				<path d="M14.27 86.39 A10.7348 10.0875 90 0 0 0 86.54 L14.27 86.39 Z" class="st7"/>
				<path d="M14.27 86.39 A10.7348 10.0875 90 0 0 0 86.54" class="st6"/>
			</g>
			<g id="shape1518-28" transform="translate(146.239,-11.2467)">
				<title>Sheet.1518</title>
				<path d="M0 83.47 A10.7348 10.0875 -90 0 0 14.27 83.32 L0 83.47 Z" class="st7"/>
				<path d="M0 83.47 A10.7348 10.0875 -90 0 0 14.27 83.32" class="st6"/>
			</g>
			<g id="shape1519-31" transform="translate(186.178,-42.194)">
				<title>Sheet.1519</title>
				<path d="M14.27 86.39 A10.7348 10.0875 90 0 0 0 86.54 L14.27 86.39 Z" class="st7"/>
				<path d="M14.27 86.39 A10.7348 10.0875 90 0 0 0 86.54" class="st6"/>
			</g>
			<g id="shape1520-34" transform="translate(149.03,116.098) rotate(-132.73)">
				<title>Sheet.1520</title>
				<path d="M0 86.54 L17.91 86.54" class="st6"/>
			</g>
			<g id="shape1521-37" transform="translate(97.0446,13.2601) rotate(-47.1741)">
				<title>Sheet.1521</title>
				<path d="M0 86.54 L38.48 86.54" class="st6"/>
			</g>
			<g id="shape1522-40" transform="translate(17.0087,13.2226) rotate(-47.1705)">
				<title>Sheet.1522</title>
				<path d="M0 86.54 L37.92 86.54" class="st6"/>
			</g>
			<g id="shape1523-43" transform="translate(86.5394,29.8465) rotate(90)">
				<title>Sheet.1523</title>
				<path d="M0 86.54 L56.69 86.54" class="st6"/>
			</g>
			<g id="shape1524-46" transform="translate(313.311,29.8465) rotate(90)">
				<title>Sheet.1524</title>
				<path d="M0 86.54 L56.69 86.54" class="st6"/>
			</g>
			<g id="shape1525-49" transform="translate(299.138,29.8465) rotate(90)">
				<title>Sheet.1525</title>
				<path d="M0 86.54 L56.69 86.54" class="st6"/>
			</g>
			<g id="shape1526-52" transform="translate(100.713,29.8465) rotate(90)">
				<title>Sheet.1526</title>
				<path d="M0 86.54 L56.69 86.54" class="st6"/>
			</g>
		</g>
		<g id="shape1528-55" transform="translate(107.946,-50.5035)">
			<title>Circle</title>
			<path d="M0 79.97 A6.56444 6.56444 0 0 1 13.13 79.97 A6.56444 6.56444 0 1 1 0 79.97 Z" class="st8"/>
		</g>
	</g>
</svg>
