<?xml version="1.0" encoding="UTF-8" standalone="no"?>
<!DOCTYPE svg PUBLIC "-//W3C//DTD SVG 1.1//EN" "http://www.w3.org/Graphics/SVG/1.1/DTD/svg11.dtd">
<!-- Generated by Microsoft Visio, SVG Export PZ022A_Origo.svg Page-1 -->
<svg xmlns="http://www.w3.org/2000/svg" xmlns:xlink="http://www.w3.org/1999/xlink" xmlns:ev="http://www.w3.org/2001/xml-events"
		width="1.60605in" height="1.20194in" viewBox="0 0 115.636 86.5394" xml:space="preserve" color-interpolation-filters="sRGB"
		class="st8">
	<title>PZ022A</title>

	<style type="text/css">
	<![CDATA[
		.st1 {fill:none;stroke:#ff0000;stroke-linecap:round;stroke-linejoin:round;stroke-width:2.25}
		.st2 {stroke:#000000;stroke-linecap:round;stroke-linejoin:round;stroke-width:2.25}
		.st3 {fill:none;stroke:#ff0000;stroke-linecap:round;stroke-linejoin:round;stroke-width:0.75}
		.st4 {fill:#ff0000;font-family:Arial Narrow;font-size:0.833336em;font-weight:bold}
		.st5 {fill:none;stroke:none;stroke-linecap:round;stroke-linejoin:round;stroke-width:0.75}
		.st6 {fill:#ff0000;font-family:Arial Narrow;font-size:0.811964em;font-weight:bold}
		.st7 {baseline-shift:33.35%;font-size:0.667em}
		.st8 {fill:none;fill-rule:evenodd;font-size:12px;overflow:visible;stroke-linecap:square;stroke-miterlimit:3}
	]]>
	</style>

	<g>
		<title>Page-1</title>
		<g id="shape1444-1" transform="translate(51.2535,-50.5035)">
			<title>Circle</title>
			<path d="M0 79.97 A6.56444 6.56444 0 0 1 13.13 79.97 A6.56444 6.56444 0 1 1 0 79.97 Z" class="st1"/>
		</g>
		<g id="group1445-3" transform="translate(1.125,-28.7215)">
			<title>STPZ016.699</title>
			<g id="shape1446-4" transform="translate(86.5394,29.8465) rotate(90)">
				<title>Sheet.1446</title>
				<path d="M0 86.54 L56.69 86.54" class="st2"/>
			</g>
			<g id="shape1447-7" transform="translate(199.925,29.8465) rotate(90)">
				<title>Sheet.1447</title>
				<path d="M0 86.54 L56.69 86.54" class="st2"/>
			</g>
			<g id="shape1448-10" transform="translate(0,-56.6929)">
				<title>Sheet.1448</title>
				<path d="M0 86.54 L113.39 86.54" class="st2"/>
			</g>
			<g id="shape1449-13" transform="translate(113.386,173.079) rotate(180)">
				<title>Sheet.1449</title>
				<path d="M0 86.54 L113.39 86.54" class="st2"/>
			</g>
			<g id="shape1450-16" transform="translate(0,-42.5197)">
				<title>Sheet.1450</title>
				<path d="M0 86.54 L113.39 86.54" class="st2"/>
			</g>
			<g id="shape1451-19" transform="translate(113.386,158.906) rotate(180)">
				<title>Sheet.1451</title>
				<path d="M0 86.54 L113.39 86.54" class="st2"/>
			</g>
		</g>
		<g id="group1452-22" transform="translate(13.1566,-0.375)">
			<title>Sheet.1452</title>
			<g id="shape1453-23" transform="translate(2.14165,0)">
				<title>Sheet.1453</title>
				<desc>1</desc>
				<rect x="0" y="72.3661" width="85.0394" height="14.1732" class="st3"/>
				<text x="40.24" y="82.45" class="st4">1</text>			</g>
			<g id="shape1454-26" transform="translate(0,-4.47576)">
				<title>Sheet.1454</title>
				<desc>A</desc>
				<rect x="0" y="72.3661" width="13.2348" height="14.1732" class="st5"/>
				<text x="4" y="86.06" class="st6"><tspan class="st7">A</tspan></text>			</g>
		</g>
	</g>
</svg>
