<?xml version="1.0" encoding="UTF-8" standalone="no"?>
<!DOCTYPE svg PUBLIC "-//W3C//DTD SVG 1.1//EN" "http://www.w3.org/Graphics/SVG/1.1/DTD/svg11.dtd">
<!-- Generated by Microsoft Visio, SVG Export PZ023A_Origo.svg Page-1 -->
<svg xmlns="http://www.w3.org/2000/svg" xmlns:xlink="http://www.w3.org/1999/xlink" xmlns:ev="http://www.w3.org/2001/xml-events"
		width="1.60059in" height="0.815918in" viewBox="0 0 115.242 58.7461" xml:space="preserve" color-interpolation-filters="sRGB"
		class="st3">
	<title>PZ023A</title>

	<style type="text/css">
	<![CDATA[
		.st1 {stroke:#000000;stroke-linecap:round;stroke-linejoin:round;stroke-width:2.25}
		.st2 {fill:none;stroke:#ff0000;stroke-linecap:round;stroke-linejoin:round;stroke-width:2.25}
		.st3 {fill:none;fill-rule:evenodd;font-size:12px;overflow:visible;stroke-linecap:square;stroke-miterlimit:3}
	]]>
	</style>

	<g>
		<title>Page-1</title>
		<g id="group1432-1" transform="translate(1.125,-1.125)">
			<title>STPZ017.706</title>
			<g id="shape1433-2" transform="translate(58.7461,2.25) rotate(90)">
				<title>Sheet.1433</title>
				<path d="M0 58.75 L56.5 58.75" class="st1"/>
			</g>
			<g id="shape1434-5" transform="translate(171.738,2.25) rotate(90)">
				<title>Sheet.1434</title>
				<path d="M0 58.75 L56.5 58.75" class="st1"/>
			</g>
			<g id="shape1435-8" transform="translate(0,-56.4961)">
				<title>Sheet.1435</title>
				<path d="M0 58.75 L112.99 58.75" class="st1"/>
			</g>
			<g id="shape1436-11" transform="translate(112.992,117.492) rotate(180)">
				<title>Sheet.1436</title>
				<path d="M0 58.75 L112.99 58.75" class="st1"/>
			</g>
			<g id="shape1437-14" transform="translate(0,-42.3721)">
				<title>Sheet.1437</title>
				<path d="M0 58.75 L14.12 58.75" class="st1"/>
			</g>
			<g id="shape1438-17" transform="translate(42.3721,-42.3721)">
				<title>Sheet.1438</title>
				<path d="M0 58.75 L28.25 58.75" class="st1"/>
			</g>
			<g id="shape1439-20" transform="translate(98.8682,-42.3721)">
				<title>Sheet.1439</title>
				<path d="M0 58.75 L14.12 58.75" class="st1"/>
			</g>
			<g id="shape1440-23" transform="translate(14.124,103.368) rotate(180)">
				<title>Sheet.1440</title>
				<path d="M0 58.75 L14.12 58.75" class="st1"/>
			</g>
			<g id="shape1441-26" transform="translate(112.992,103.368) rotate(180)">
				<title>Sheet.1441</title>
				<path d="M0 58.75 L14.12 58.75" class="st1"/>
			</g>
			<g id="shape1442-29" transform="translate(70.6201,103.368) rotate(180)">
				<title>Sheet.1442</title>
				<path d="M0 58.75 L28.25 58.75" class="st1"/>
			</g>
		</g>
		<g id="shape1444-32" transform="translate(51.2535,-22.7102)">
			<title>Circle</title>
			<path d="M0 52.18 A6.56444 6.56444 0 0 1 13.13 52.18 A6.56444 6.56444 0 1 1 0 52.18 Z" class="st2"/>
		</g>
	</g>
</svg>
