<?xml version="1.0" encoding="UTF-8" standalone="no"?>
<!DOCTYPE svg PUBLIC "-//W3C//DTD SVG 1.1//EN" "http://www.w3.org/Graphics/SVG/1.1/DTD/svg11.dtd">
<!-- Generated by Microsoft Visio, SVG Export PZ022A_Origo.svg Page-1 -->
<svg xmlns="http://www.w3.org/2000/svg" xmlns:xlink="http://www.w3.org/1999/xlink" xmlns:ev="http://www.w3.org/2001/xml-events"
		width="1.60605in" height="0.818652in" viewBox="0 0 115.636 58.9429" xml:space="preserve" color-interpolation-filters="sRGB"
		class="st3">
	<title>PZ022A</title>

	<style type="text/css">
	<![CDATA[
		.st1 {fill:none;stroke:#ff0000;stroke-linecap:round;stroke-linejoin:round;stroke-width:2.25}
		.st2 {stroke:#000000;stroke-linecap:round;stroke-linejoin:round;stroke-width:2.25}
		.st3 {fill:none;fill-rule:evenodd;font-size:12px;overflow:visible;stroke-linecap:square;stroke-miterlimit:3}
	]]>
	</style>

	<g>
		<title>Page-1</title>
		<g id="shape1444-1" transform="translate(51.2535,-22.907)">
			<title>Circle</title>
			<path d="M0 52.38 A6.56444 6.56444 0 0 1 13.13 52.38 A6.56444 6.56444 0 1 1 0 52.38 Z" class="st1"/>
		</g>
		<g id="group1445-3" transform="translate(1.125,-1.125)">
			<title>STPZ016.699</title>
			<g id="shape1446-4" transform="translate(58.9429,2.25) rotate(90)">
				<title>Sheet.1446</title>
				<path d="M0 58.94 L56.69 58.94" class="st2"/>
			</g>
			<g id="shape1447-7" transform="translate(172.329,2.25) rotate(90)">
				<title>Sheet.1447</title>
				<path d="M0 58.94 L56.69 58.94" class="st2"/>
			</g>
			<g id="shape1448-10" transform="translate(0,-56.6929)">
				<title>Sheet.1448</title>
				<path d="M0 58.94 L113.39 58.94" class="st2"/>
			</g>
			<g id="shape1449-13" transform="translate(113.386,117.886) rotate(180)">
				<title>Sheet.1449</title>
				<path d="M0 58.94 L113.39 58.94" class="st2"/>
			</g>
			<g id="shape1450-16" transform="translate(0,-42.5197)">
				<title>Sheet.1450</title>
				<path d="M0 58.94 L113.39 58.94" class="st2"/>
			</g>
			<g id="shape1451-19" transform="translate(113.386,103.713) rotate(180)">
				<title>Sheet.1451</title>
				<path d="M0 58.94 L113.39 58.94" class="st2"/>
			</g>
		</g>
	</g>
</svg>
