<?xml version="1.0" encoding="UTF-8"?><!DOCTYPE svg PUBLIC "-//W3C//DTD SVG 1.1//EN" "http://www.w3.org/Graphics/SVG/1.1/DTD/svg11.dtd"><svg xmlns="http://www.w3.org/2000/svg" xmlns:xlink="http://www.w3.org/1999/xlink" version="1.1" width="279px" height="205px" viewBox="-176.5 -102.5 279 205"><defs/><g><g id="cell-rcUO89sZQDFuOGigJMmF-0" content="&lt;object label=&quot;Connection&quot; PipingConnector=&quot;N&quot; LabelConnector=&quot;N&quot; SignalConnector=&quot;Y&quot; Direction=&quot;270&quot; AuxiliaryConnector=&quot;N&quot;/&gt;" data-label="Connection" data-PipingConnector="N" data-LabelConnector="N" data-SignalConnector="Y" data-Direction="270" data-AuxiliaryConnector="N" layer="Connection"><path d="M -6 -96 C -6 -99.30999755859375 -3.30999755859375 -102 0 -102 C 3.30999755859375 -102 6 -99.30999755859375 6 -96 C 6 -92.69000244140625 3.30999755859375 -90 0 -90 C -3.30999755859375 -90 -6 -92.69000244140625 -6 -96" fill="none" stroke="#008000" stroke-miterlimit="10" pointer-events="all"/></g><g id="cell-rcUO89sZQDFuOGigJMmF-1" content="&lt;object label=&quot;Connection&quot; PipingConnector=&quot;Y&quot; LabelConnector=&quot;N&quot; SignalConnector=&quot;Y&quot; Direction=&quot;90&quot; AuxiliaryConnector=&quot;Y&quot;/&gt;" data-label="Connection" data-PipingConnector="Y" data-LabelConnector="N" data-SignalConnector="Y" data-Direction="90" data-AuxiliaryConnector="Y" layer="Connection"><path d="M -6 96 C -6 92.69000244140625 -3.30999755859375 90 0 90 C 3.30999755859375 90 6 92.69000244140625 6 96 C 6 99.30999755859375 3.30999755859375 102 0 102 C -3.30999755859375 102 -6 99.30999755859375 -6 96" fill="none" stroke="#008000" stroke-miterlimit="10" pointer-events="all"/></g><g id="cell-rcUO89sZQDFuOGigJMmF-2" content="&lt;object label=&quot;Connection&quot; PipingConnector=&quot;N&quot; LabelConnector=&quot;N&quot; SignalConnector=&quot;Y&quot; Direction=&quot;180&quot; AuxiliaryConnector=&quot;N&quot;/&gt;" data-label="Connection" data-PipingConnector="N" data-LabelConnector="N" data-SignalConnector="Y" data-Direction="180" data-AuxiliaryConnector="N" layer="Connection"><path d="M -102 0 C -102 -3.30999755859375 -99.30999755859375 -6 -96 -6 C -92.69000244140625 -6 -90 -3.30999755859375 -90 0 C -90 3.30999755859375 -92.69000244140625 6 -96 6 C -99.30999755859375 6 -102 3.30999755859375 -102 0" fill="none" stroke="#008000" stroke-miterlimit="10" pointer-events="all"/></g><g id="cell-rcUO89sZQDFuOGigJMmF-3" content="&lt;object label=&quot;Connection&quot; PipingConnector=&quot;N&quot; LabelConnector=&quot;N&quot; SignalConnector=&quot;Y&quot; Direction=&quot;0&quot; AuxiliaryConnector=&quot;N&quot;/&gt;" data-label="Connection" data-PipingConnector="N" data-LabelConnector="N" data-SignalConnector="Y" data-Direction="0" data-AuxiliaryConnector="N" layer="Connection"><path d="M 90 0 C 90 -3.30999755859375 92.69000244140625 -6 96 -6 C 99.30999755859375 -6 102 -3.30999755859375 102 0 C 102 3.30999755859375 99.30999755859375 6 96 6 C 92.69000244140625 6 90 3.30999755859375 90 0" fill="none" stroke="#008000" stroke-miterlimit="10" pointer-events="all"/></g><g id="cell-OxFjoSKdfpgckHMKP-ke-3" content="&lt;object label=&quot;%LabelIndex%&amp;amp;nbsp; &amp;amp;nbsp; &amp;amp;nbsp; &amp;amp;nbsp; &amp;amp;nbsp; &amp;amp;nbsp;%LabelLines%&quot; placeholders=&quot;1&quot; LabelLines=&quot;1&quot; LabelIndex=&quot;C&quot;/&gt;" data-label="%LabelIndex%&amp;nbsp; &amp;nbsp; &amp;nbsp; &amp;nbsp; &amp;nbsp; &amp;nbsp;%LabelLines%" data-placeholders="1" data-LabelLines="1" data-LabelIndex="C" layer="Label"><path fill="none" stroke="#ff0000" pointer-events="all" d="M -40 48 L 40 48 L 40 64 L -40 64 z"/><g><text x="138" y="161" fill="#FF0000" font-family="Helvetica" font-size="10px" transform="translate(-176 -102) translate(-0.5 -0.5)">C           1</text></g></g><g id="cell-OxFjoSKdfpgckHMKP-ke-1" content="&lt;object label=&quot;%LabelIndex%&amp;amp;nbsp; &amp;amp;nbsp; &amp;amp;nbsp; &amp;amp;nbsp; &amp;amp;nbsp; &amp;amp;nbsp;%LabelLines%&quot; placeholders=&quot;1&quot; LabelLines=&quot;1&quot; LabelIndex=&quot;B&quot;/&gt;" data-label="%LabelIndex%&amp;nbsp; &amp;nbsp; &amp;nbsp; &amp;nbsp; &amp;nbsp; &amp;nbsp;%LabelLines%" data-placeholders="1" data-LabelLines="1" data-LabelIndex="B" layer="Label"><path fill="none" stroke="#ff0000" pointer-events="all" d="M -40 -64 L 40 -64 L 40 -48 L -40 -48 z"/><g><text x="138" y="49" fill="#FF0000" font-family="Helvetica" font-size="10px" transform="translate(-176 -102) translate(-0.5 -0.5)">B           1</text></g></g><g id="cell-OxFjoSKdfpgckHMKP-ke-0" content="&lt;object label=&quot;%LabelIndex%&amp;amp;nbsp; &amp;amp;nbsp; &amp;amp;nbsp; &amp;amp;nbsp; &amp;amp;nbsp; &amp;amp;nbsp;%LabelLines%&quot; placeholders=&quot;1&quot; LabelLines=&quot;1&quot; LabelIndex=&quot;A&quot;/&gt;" data-label="%LabelIndex%&amp;nbsp; &amp;nbsp; &amp;nbsp; &amp;nbsp; &amp;nbsp; &amp;nbsp;%LabelLines%" data-placeholders="1" data-LabelLines="1" data-LabelIndex="A" layer="Label"><path fill="none" stroke="#ff0000" pointer-events="all" d="M -176 -96 L -96 -96 L -96 -80 L -176 -80 z"/><g><text x="2" y="17" fill="#FF0000" font-family="Helvetica" font-size="10px" transform="translate(-176 -102) translate(-0.5 -0.5)">A           1</text></g></g><g id="cell-OxFjoSKdfpgckHMKP-ke-2" content="&lt;object label=&quot;origo&quot;/&gt;" data-label="origo" layer="Origo"><path d="M -6 0 C -6 -3.30999755859375 -3.30999755859375 -6 0 -6 C 3.30999755859375 -6 6 -3.30999755859375 6 0 C 6 3.30999755859375 3.30999755859375 6 0 6 C -3.30999755859375 6 -6 3.30999755859375 -6 0" fill="none" stroke="#ff0000" stroke-miterlimit="10" pointer-events="all"/></g><g id="cell-JtBApES2Cq1SKlf0BFyZ-1" layer="Symbol"><ellipse cx="0" cy="0" rx="96" ry="96" fill="none" stroke="rgb(0, 0, 0)" pointer-events="all" transform="translate(0 0)"/></g></g></svg>