<?xml version="1.0" encoding="UTF-8"?><!DOCTYPE svg PUBLIC "-//W3C//DTD SVG 1.1//EN" "http://www.w3.org/Graphics/SVG/1.1/DTD/svg11.dtd"><svg xmlns="http://www.w3.org/2000/svg" xmlns:xlink="http://www.w3.org/1999/xlink" version="1.1" width="193px" height="237px" viewBox="-96.5 -6.5 193 237"><defs/><g><g id="cell-lbljCHEagKn9i-VnatyL-0" content="&lt;object label=&quot;Connection&quot; PipingConnector=&quot;N&quot; LabelConnector=&quot;N&quot; SignalConnector=&quot;Y&quot; Direction=&quot;270&quot; AuxiliaryConnector=&quot;Y&quot;/&gt;" data-label="Connection" data-PipingConnector="N" data-LabelConnector="N" data-SignalConnector="Y" data-Direction="270" data-AuxiliaryConnector="Y" layer="Connection"><path d="M -6 0 C -6 -3.309999942779541 -3.30999755859375 -6 0 -6 C 3.30999755859375 -6 6 -3.309999942779541 6 0 C 6 3.310000419616699 3.30999755859375 6 0 6 C -3.30999755859375 6 -6 3.310000419616699 -6 0" fill="none" stroke="#008000" stroke-miterlimit="10" pointer-events="all"/></g><g id="cell-lbljCHEagKn9i-VnatyL-3" content="&lt;object label=&quot;Connection&quot; PipingConnector=&quot;N&quot; LabelConnector=&quot;N&quot; SignalConnector=&quot;Y&quot; Direction=&quot;90&quot; AuxiliaryConnector=&quot;N&quot;/&gt;" data-label="Connection" data-PipingConnector="N" data-LabelConnector="N" data-SignalConnector="Y" data-Direction="90" data-AuxiliaryConnector="N" layer="Connection"><path d="M -6 224 C -6 220.69000244140625 -3.30999755859375 218 0 218 C 3.30999755859375 218 6 220.69000244140625 6 224 C 6 227.30999755859375 3.30999755859375 230 0 230 C -3.30999755859375 230 -6 227.30999755859375 -6 224" fill="none" stroke="#008000" stroke-miterlimit="10" pointer-events="all"/></g><g id="cell-sxMEN0KXAXHLyjsDCc0v-131" content="&lt;object label=&quot;%LabelIndex%&amp;amp;nbsp; &amp;amp;nbsp; &amp;amp;nbsp; &amp;amp;nbsp; &amp;amp;nbsp; &amp;amp;nbsp;%LabelLines%&quot; placeholders=&quot;1&quot; LabelLines=&quot;1&quot; LabelIndex=&quot;B&quot;/&gt;" data-label="%LabelIndex%&amp;nbsp; &amp;nbsp; &amp;nbsp; &amp;nbsp; &amp;nbsp; &amp;nbsp;%LabelLines%" data-placeholders="1" data-LabelLines="1" data-LabelIndex="B" layer="Label"><path fill="none" stroke="#ff0000" pointer-events="all" d="M -40 112 L 40 112 L 40 128 L -40 128 z"/><g><text x="58" y="129" fill="#FF0000" font-family="Helvetica" font-size="10px" transform="translate(-96 -6) translate(-0.5 -0.5)">B           1</text></g></g><g id="cell-sxMEN0KXAXHLyjsDCc0v-132" content="&lt;object label=&quot;%LabelIndex%&amp;amp;nbsp; &amp;amp;nbsp; &amp;amp;nbsp; &amp;amp;nbsp; &amp;amp;nbsp; &amp;amp;nbsp;%LabelLines%&quot; placeholders=&quot;1&quot; LabelLines=&quot;1&quot; LabelIndex=&quot;A&quot;/&gt;" data-label="%LabelIndex%&amp;nbsp; &amp;nbsp; &amp;nbsp; &amp;nbsp; &amp;nbsp; &amp;nbsp;%LabelLines%" data-placeholders="1" data-LabelLines="1" data-LabelIndex="A" layer="Label"><path fill="none" stroke="#ff0000" pointer-events="all" d="M -40 192 L 40 192 L 40 208 L -40 208 z"/><g><text x="58" y="209" fill="#FF0000" font-family="Helvetica" font-size="10px" transform="translate(-96 -6) translate(-0.5 -0.5)">A           1</text></g></g><g id="cell-sxMEN0KXAXHLyjsDCc0v-135" content="&lt;object label=&quot;origo&quot;/&gt;" data-label="origo" layer="Origo"><path d="M 6 0 C 6 3.309999942779541 3.30999755859375 6 0 6 C -3.30999755859375 6 -6 3.309999942779541 -6 1.7763568394002505e-15 C -6 -3.310000419616699 -3.30999755859375 -6 0 -6 C 3.30999755859375 -6 6 -3.310000419616699 6 0" fill="none" stroke="#ff0000" stroke-miterlimit="10" pointer-events="all"/></g><g id="cell-sxMEN0KXAXHLyjsDCc0v-137" layer="Symbol"><path fill="none" stroke="rgb(0, 0, 0)" pointer-events="all" d="M 96 224 L -96 224 L -96 160 L 96 160 z"/></g><g id="cell-sxMEN0KXAXHLyjsDCc0v-138" layer="Symbol"><path d="M -96 160.5 L -1.4210854715202004e-14 -0.5 L 96 160.5 Z" fill="none" stroke="rgb(0, 0, 0)" stroke-miterlimit="10" pointer-events="all"/></g></g></svg>