<?xml version="1.0" encoding="UTF-8"?><!DOCTYPE svg PUBLIC "-//W3C//DTD SVG 1.1//EN" "http://www.w3.org/Graphics/SVG/1.1/DTD/svg11.dtd"><svg xmlns="http://www.w3.org/2000/svg" xmlns:xlink="http://www.w3.org/1999/xlink" version="1.1" width="193px" height="236px" viewBox="-96.5 -6.5 193 236"><defs/><g><g id="cell-km2QJVbFfOpmcC_arqvF-125" content="&lt;object label=&quot;Connection&quot; East=&quot;N&quot; West=&quot;N&quot; North=&quot;Y&quot; South=&quot;N&quot; NorthWest=&quot;N&quot; NorthEast=&quot;N&quot; SouthWest=&quot;N&quot; SouthEast=&quot;N&quot; PipingConnector=&quot;N&quot; LabelConnector=&quot;N&quot; SignalConnector=&quot;Y&quot;/&gt;" data-label="Connection" data-East="N" data-West="N" data-North="Y" data-South="N" data-NorthWest="N" data-NorthEast="N" data-SouthWest="N" data-SouthEast="N" data-PipingConnector="N" data-LabelConnector="N" data-SignalConnector="Y" layer="Connection"><path d="M -6 0 C -6 -3.309999942779541 -3.30999755859375 -6 0 -6 C 3.30999755859375 -6 6 -3.309999942779541 6 0 C 6 3.310000419616699 3.30999755859375 6 0 6 C -3.30999755859375 6 -6 3.310000419616699 -6 0" fill="none" stroke="#008000" stroke-miterlimit="10" pointer-events="all"/></g><g id="cell-qiyPhvmg4lg1QXBYXzsJ-4" content="&lt;object label=&quot;Connection&quot; PipingConnector=&quot;N&quot; LabelConnector=&quot;N&quot; SignalConnector=&quot;Y&quot; Direction=&quot;90&quot; AuxiliaryConnector=&quot;Y&quot;/&gt;" data-label="Connection" data-PipingConnector="N" data-LabelConnector="N" data-SignalConnector="Y" data-Direction="90" data-AuxiliaryConnector="Y" layer="Connection"><path d="M -6 223 C -6 219.69000244140625 -3.30999755859375 217 0 217 C 3.30999755859375 217 6 219.69000244140625 6 223 C 6 226.30999755859375 3.30999755859375 229 0 229 C -3.30999755859375 229 -6 226.30999755859375 -6 223" fill="none" stroke="#008000" stroke-miterlimit="10" pointer-events="all"/></g><g id="cell-km2QJVbFfOpmcC_arqvF-132" content="&lt;object label=&quot;%LabelIndex%&amp;amp;nbsp; &amp;amp;nbsp; &amp;amp;nbsp; &amp;amp;nbsp; &amp;amp;nbsp; &amp;amp;nbsp;%LabelLines%&quot; placeholders=&quot;1&quot; LabelLines=&quot;1&quot; LabelIndex=&quot;B&quot;/&gt;" data-label="%LabelIndex%&amp;nbsp; &amp;nbsp; &amp;nbsp; &amp;nbsp; &amp;nbsp; &amp;nbsp;%LabelLines%" data-placeholders="1" data-LabelLines="1" data-LabelIndex="B" layer="Label"><path fill="none" stroke="#ff0000" pointer-events="all" d="M -40 96 L 40 96 L 40 112 L -40 112 z"/><g><text x="58" y="113" fill="#FF0000" font-family="Helvetica" font-size="10px" transform="translate(-96 -6) translate(-0.5 -0.5)">B           1</text></g></g><g id="cell-km2QJVbFfOpmcC_arqvF-133" content="&lt;object label=&quot;%LabelIndex%&amp;amp;nbsp; &amp;amp;nbsp; &amp;amp;nbsp; &amp;amp;nbsp; &amp;amp;nbsp; &amp;amp;nbsp;%LabelLines%&quot; placeholders=&quot;1&quot; LabelLines=&quot;1&quot; LabelIndex=&quot;A&quot;/&gt;" data-label="%LabelIndex%&amp;nbsp; &amp;nbsp; &amp;nbsp; &amp;nbsp; &amp;nbsp; &amp;nbsp;%LabelLines%" data-placeholders="1" data-LabelLines="1" data-LabelIndex="A" layer="Label"><path fill="none" stroke="#ff0000" pointer-events="all" d="M -40 26 L 40 26 L 40 42 L -40 42 z"/><g><text x="58" y="43" fill="#FF0000" font-family="Helvetica" font-size="10px" transform="translate(-96 -6) translate(-0.5 -0.5)">A           1</text></g></g><g id="cell-km2QJVbFfOpmcC_arqvF-135" content="&lt;object label=&quot;origo&quot;/&gt;" data-label="origo" layer="Origo"><path d="M -6 0 C -6 -3.309999942779541 -3.30999755859375 -6 0 -6 C 3.30999755859375 -6 6 -3.309999942779541 6 0 C 6 3.310000419616699 3.30999755859375 6 0 6 C -3.30999755859375 6 -6 3.310000419616699 -6 0" fill="none" stroke="#ff0000" stroke-miterlimit="10" pointer-events="all"/></g><g id="cell-qiyPhvmg4lg1QXBYXzsJ-2" layer="Symbol"><path fill="none" stroke="rgb(0, 0, 0)" pointer-events="all" d="M -96 0 L 96 0 L 96 64 L -96 64 z"/></g><g id="cell-qiyPhvmg4lg1QXBYXzsJ-3" layer="Symbol"><path d="M 96 64 L 0 225 L -96 64 Z" fill="none" stroke="rgb(0, 0, 0)" stroke-miterlimit="10" pointer-events="all"/></g></g></svg>