<?xml version="1.0" encoding="UTF-8"?><!DOCTYPE svg PUBLIC "-//W3C//DTD SVG 1.1//EN" "http://www.w3.org/Graphics/SVG/1.1/DTD/svg11.dtd"><svg xmlns="http://www.w3.org/2000/svg" xmlns:xlink="http://www.w3.org/1999/xlink" version="1.1" width="193px" height="77px" viewBox="-6.02719 -0.402187 12.0625 4.8125"><defs vector-effect="non-scaling-stroke"/><g><g id="cell-ou1rP0fdYBn3cRW_R4ls-0" content="&lt;object label=&quot;Connection&quot; PipingConnector=&quot;N&quot; LabelConnector=&quot;N&quot; SignalConnector=&quot;Y&quot; Direction=&quot;90&quot; AuxiliaryConnector=&quot;N&quot;/&gt;" data-label="Connection" data-PipingConnector="N" data-LabelConnector="N" data-SignalConnector="Y" data-Direction="90" data-AuxiliaryConnector="N" layer="Connection"><path d="M -0.3709373474121094 4.004062652587891 C -0.3709373474121094 3.797187566757202 -0.20281219482421875 3.6290624141693115 0.004062652587890625 3.6290624141693115 C 0.2109375 3.6290624141693115 0.3790626525878906 3.797187566757202 0.3790626525878906 4.004062652587891 C 0.3790626525878906 4.2109375 0.2109375 4.379062652587891 0.004062652587890625 4.379062652587891 C -0.20281219482421875 4.379062652587891 -0.3709373474121094 4.2109375 -0.3709373474121094 4.004062652587891" fill="none" stroke="#00ff00" stroke-miterlimit="10" pointer-events="all" vector-effect="non-scaling-stroke"/></g><g id="cell-uESD8fd1ngHVL0QE7zXk-0" content="&lt;object label=&quot;Connection&quot; PipingConnector=&quot;N&quot; LabelConnector=&quot;N&quot; SignalConnector=&quot;Y&quot; Direction=&quot;270&quot; AuxiliaryConnector=&quot;N&quot;/&gt;" data-label="Connection" data-PipingConnector="N" data-LabelConnector="N" data-SignalConnector="Y" data-Direction="270" data-AuxiliaryConnector="N" layer="Connection"><path d="M -0.3709373474121094 0.0040625035762786865 C -0.3709373474121094 -0.20281249284744263 -0.20281219482421875 -0.3709374964237213 0.004062652587890625 -0.3709374964237213 C 0.2109375 -0.3709374964237213 0.3790626525878906 -0.20281249284744263 0.3790626525878906 0.0040625035762786865 C 0.3790626525878906 0.2109375298023224 0.2109375 0.3790625035762787 0.004062652587890625 0.3790625035762787 C -0.20281219482421875 0.3790625035762787 -0.3709373474121094 0.2109375298023224 -0.3709373474121094 0.0040625035762786865" fill="none" stroke="#00ff00" stroke-miterlimit="10" pointer-events="all" vector-effect="non-scaling-stroke"/></g><g id="cell-BCyMJaOIN41kEu0RnSU1-132" content="&lt;object label=&quot;%LabelIndex%&amp;amp;nbsp; &amp;amp;nbsp; &amp;amp;nbsp; &amp;amp;nbsp; &amp;amp;nbsp; &amp;amp;nbsp;%LabelLines%&quot; placeholders=&quot;1&quot; LabelLines=&quot;1&quot; LabelIndex=&quot;A&quot;/&gt;" data-label="%LabelIndex%&amp;nbsp; &amp;nbsp; &amp;nbsp; &amp;nbsp; &amp;nbsp; &amp;nbsp;%LabelLines%" data-placeholders="1" data-LabelLines="1" data-LabelIndex="A" layer="Label"><path fill="none" stroke="#ff0000" pointer-events="all" d="M -2.4959373474121094 1.629062533378601 L 2.5040626525878906 1.629062533378601 L 2.5040626525878906 2.6290624141693115 L -2.4959373474121094 2.6290624141693115 z" vector-effect="non-scaling-stroke"/><g><text x="58" y="43" fill="#FF0000" font-family="Helvetica" font-size="10px" transform="scale(0.0625 0.0625) translate(-95.935 -5.935) translate(-0.5 -0.5)" vector-effect="non-scaling-stroke">A           1</text></g></g><g id="cell-BCyMJaOIN41kEu0RnSU1-135" content="&lt;object label=&quot;origo&quot;/&gt;" data-label="origo" layer="Origo"><path d="M -0.24593734741210938 -0.00031250715255737305 C -0.24593734741210938 -0.13593749701976776 -0.13593721389770508 -0.2459374964237213 0.00031280517578125 -0.2459374964237213 C 0.13593769073486328 -0.2459374964237213 0.24593782424926758 -0.13593749701976776 0.24593782424926758 -0.00031250715255737305 C 0.24593782424926758 0.13593748211860657 0.13593769073486328 0.2459374964237213 0.00031280517578125 0.2459374964237213 C -0.13593721389770508 0.2459374964237213 -0.24593734741210938 0.13593748211860657 -0.24593734741210938 -0.00031250715255737305" fill="none" stroke="#ff0000" stroke-miterlimit="10" pointer-events="all" vector-effect="non-scaling-stroke"/></g><g id="cell-BCyMJaOIN41kEu0RnSU1-137" layer="Symbol"><path fill="none" stroke="rgb(0, 0, 0)" pointer-events="all" d="M -5.995937347412109 0.0040625035762786865 L 6.004062652587891 0.0040625035762786865 L 6.004062652587891 4.004062652587891 L -5.995937347412109 4.004062652587891 z" vector-effect="non-scaling-stroke"/></g></g></svg>