<?xml version="1.0" encoding="UTF-8"?><!DOCTYPE svg PUBLIC "-//W3C//DTD SVG 1.1//EN" "http://www.w3.org/Graphics/SVG/1.1/DTD/svg11.dtd"><svg xmlns="http://www.w3.org/2000/svg" xmlns:xlink="http://www.w3.org/1999/xlink" version="1.1" width="193px" height="237px" viewBox="-6.0211 -0.401115 12.0491 14.796"><defs vector-effect="non-scaling-stroke"/><g><g id="cell-lbljCHEagKn9i-VnatyL-0" content="&lt;object label=&quot;Connection&quot; PipingConnector=&quot;N&quot; LabelConnector=&quot;N&quot; SignalConnector=&quot;Y&quot; Direction=&quot;270&quot; AuxiliaryConnector=&quot;Y&quot;/&gt;" data-label="Connection" data-PipingConnector="N" data-LabelConnector="N" data-SignalConnector="Y" data-Direction="270" data-AuxiliaryConnector="Y" layer="Connection"><path d="M -0.3711491823196411 0.0046822382137179375 C -0.3711491823196411 -0.20196238160133362 -0.20321126282215118 -0.3699001669883728 0.003433214733377099 -0.3699001669883728 C 0.2100776880979538 -0.3699001669883728 0.3780156075954437 -0.20196238160133362 0.3780156075954437 0.0046822382137179375 C 0.3780156075954437 0.21132689714431763 0.2100776880979538 0.3792646527290344 0.003433214733377099 0.3792646527290344 C -0.20321126282215118 0.3792646527290344 -0.3711491823196411 0.21132689714431763 -0.3711491823196411 0.0046822382137179375" fill="none" stroke="#00ff00" stroke-miterlimit="10" pointer-events="all" vector-effect="non-scaling-stroke"/></g><g id="cell-lbljCHEagKn9i-VnatyL-3" content="&lt;object label=&quot;Connection&quot; PipingConnector=&quot;N&quot; LabelConnector=&quot;N&quot; SignalConnector=&quot;Y&quot; Direction=&quot;90&quot; AuxiliaryConnector=&quot;N&quot;/&gt;" data-label="Connection" data-PipingConnector="N" data-LabelConnector="N" data-SignalConnector="Y" data-Direction="90" data-AuxiliaryConnector="N" layer="Connection"><path d="M -0.3711491823196411 13.989091873168945 C -0.3711491823196411 13.78244686126709 -0.20321126282215118 13.614509582519531 0.003433214733377099 13.614509582519531 C 0.2100776880979538 13.614509582519531 0.3780156075954437 13.78244686126709 0.3780156075954437 13.989091873168945 C 0.3780156075954437 14.195735931396484 0.2100776880979538 14.36367416381836 0.003433214733377099 14.36367416381836 C -0.20321126282215118 14.36367416381836 -0.3711491823196411 14.195735931396484 -0.3711491823196411 13.989091873168945" fill="none" stroke="#00ff00" stroke-miterlimit="10" pointer-events="all" vector-effect="non-scaling-stroke"/></g><g id="cell-sxMEN0KXAXHLyjsDCc0v-131" content="&lt;object label=&quot;%LabelIndex%&amp;amp;nbsp; &amp;amp;nbsp; &amp;amp;nbsp; &amp;amp;nbsp; &amp;amp;nbsp; &amp;amp;nbsp;%LabelLines%&quot; placeholders=&quot;1&quot; LabelLines=&quot;1&quot; LabelIndex=&quot;B&quot;/&gt;" data-label="%LabelIndex%&amp;nbsp; &amp;nbsp; &amp;nbsp; &amp;nbsp; &amp;nbsp; &amp;nbsp;%LabelLines%" data-placeholders="1" data-LabelLines="1" data-LabelIndex="B" layer="Label"><path fill="none" stroke="#ff0000" pointer-events="all" d="M -2.4937827587127686 6.996886730194092 L 2.5006492137908936 6.996886730194092 L 2.5006492137908936 7.9957733154296875 L -2.4937827587127686 7.9957733154296875 z" vector-effect="non-scaling-stroke"/><g><text x="58" y="129" fill="#FF0000" font-family="Helvetica" font-size="10px" transform="scale(0.0624304 0.0624304) translate(-95.945 -5.925) translate(-0.5 -0.5)" vector-effect="non-scaling-stroke">B           1</text></g></g><g id="cell-sxMEN0KXAXHLyjsDCc0v-132" content="&lt;object label=&quot;%LabelIndex%&amp;amp;nbsp; &amp;amp;nbsp; &amp;amp;nbsp; &amp;amp;nbsp; &amp;amp;nbsp; &amp;amp;nbsp;%LabelLines%&quot; placeholders=&quot;1&quot; LabelLines=&quot;1&quot; LabelIndex=&quot;A&quot;/&gt;" data-label="%LabelIndex%&amp;nbsp; &amp;nbsp; &amp;nbsp; &amp;nbsp; &amp;nbsp; &amp;nbsp;%LabelLines%" data-placeholders="1" data-LabelLines="1" data-LabelIndex="A" layer="Label"><path fill="none" stroke="#ff0000" pointer-events="all" d="M -2.4937827587127686 11.991318702697754 L 2.5006492137908936 11.991318702697754 L 2.5006492137908936 12.990205764770508 L -2.4937827587127686 12.990205764770508 z" vector-effect="non-scaling-stroke"/><g><text x="58" y="209" fill="#FF0000" font-family="Helvetica" font-size="10px" transform="scale(0.0624304 0.0624304) translate(-95.945 -5.925) translate(-0.5 -0.5)" vector-effect="non-scaling-stroke">A           1</text></g></g><g id="cell-sxMEN0KXAXHLyjsDCc0v-135" content="&lt;object label=&quot;origo&quot;/&gt;" data-label="origo" layer="Origo"><path d="M 0.24566347897052765 0.0003121591580566019 C 0.24566347897052765 0.13578611612319946 0.13578583300113678 0.2456636279821396 -0.00031245683203451335 0.2456636279821396 C -0.13578630983829498 0.2456636279821396 -0.24566395580768585 0.13578611612319946 -0.24566395580768585 0.0003121591580566019 C -0.24566395580768585 -0.13578610122203827 -0.13578630983829498 -0.2456636279821396 -0.00031245683203451335 -0.2456636279821396 C 0.13578583300113678 -0.2456636279821396 0.24566347897052765 -0.13578610122203827 0.24566347897052765 0.0003121591580566019" fill="none" stroke="#ff0000" stroke-miterlimit="10" pointer-events="all" vector-effect="non-scaling-stroke"/></g><g id="cell-sxMEN0KXAXHLyjsDCc0v-137" layer="Symbol"><path fill="none" stroke="rgb(0, 0, 0)" pointer-events="all" d="M 5.99675178527832 13.989091873168945 L -5.989885330200195 13.989091873168945 L -5.989885330200195 9.993546485900879 L 5.99675178527832 9.993546485900879 z" vector-effect="non-scaling-stroke"/></g><g id="cell-sxMEN0KXAXHLyjsDCc0v-138" layer="Symbol"><path d="M -5.989885330200195 10.024761199951172 L 0.003433214733377099 -0.026532961055636406 L 5.99675178527832 10.024761199951172 Z" fill="none" stroke="rgb(0, 0, 0)" stroke-miterlimit="10" pointer-events="all" vector-effect="non-scaling-stroke"/></g></g></svg>