<?xml version="1.0" encoding="UTF-8"?><!DOCTYPE svg PUBLIC "-//W3C//DTD SVG 1.1//EN" "http://www.w3.org/Graphics/SVG/1.1/DTD/svg11.dtd"><svg xmlns="http://www.w3.org/2000/svg" xmlns:xlink="http://www.w3.org/1999/xlink" version="1.1" width="200px" height="199px" viewBox="-6.5 -192.5 200 199"><defs/><g><g id="cell-7BWam4BL9_YMowu0xJh2-1" content="&lt;object label=&quot;Connection&quot; PipingConnector=&quot;N&quot; LabelConnector=&quot;Y&quot; SignalConnector=&quot;N&quot; Direction=&quot;135&quot; AuxiliaryConnector=&quot;N&quot;/&gt;" data-label="Connection" data-PipingConnector="N" data-LabelConnector="Y" data-SignalConnector="N" data-Direction="135" data-AuxiliaryConnector="N" layer="Connection"><path d="M -6 0 C -6 -3.30999755859375 -3.309999942779541 -6 0 -6 C 3.310000419616699 -6 6 -3.30999755859375 6 0 C 6 3.30999755859375 3.310000419616699 6 0 6 C -3.309999942779541 6 -6 3.30999755859375 -6 0" fill="none" stroke="#008000" stroke-miterlimit="10" pointer-events="all"/></g><g id="cell-7BWam4BL9_YMowu0xJh2-0" content="&lt;object label=&quot;%LabelIndex%&amp;amp;nbsp; &amp;amp;nbsp; &amp;amp;nbsp; &amp;amp;nbsp; &amp;amp;nbsp; &amp;amp;nbsp;%LabelLines%&quot; placeholders=&quot;1&quot; LabelLines=&quot;1&quot; LabelIndex=&quot;A&quot;/&gt;" data-label="%LabelIndex%&amp;nbsp; &amp;nbsp; &amp;nbsp; &amp;nbsp; &amp;nbsp; &amp;nbsp;%LabelLines%" data-placeholders="1" data-LabelLines="1" data-LabelIndex="A" layer="Label"><path fill="none" stroke="#ff0000" pointer-events="all" d="M 96 -48 L 176 -48 L 176 -32 L 96 -32 z"/><g><text x="104" y="155" fill="#FF0000" font-family="Helvetica" font-size="10px" transform="translate(-6 -192) translate(-0.5 -0.5)">A           1</text></g></g><g id="cell-OIDmBnItBntYVEc15gtL-0" content="&lt;object label=&quot;origo&quot;/&gt;" data-label="origo" layer="Origo"><path d="M -6 0 C -6 -3.30999755859375 -3.309999942779541 -6 0 -6 C 3.310000419616699 -6 6 -3.30999755859375 6 0 C 6 3.30999755859375 3.310000419616699 6 0 6 C -3.309999942779541 6 -6 3.30999755859375 -6 0" fill="none" stroke="#ff0000" stroke-miterlimit="10" pointer-events="all"/></g><g id="cell-eUA6f1vSsgfuqLjs1iyG-0" layer="Symbol"><path fill="none" stroke="rgb(0, 0, 0)" pointer-events="all" d="M 0 -192 L 192 -192 L 192 0 L 0 0 z"/></g><g id="cell-NhQiUqbZBDXpP8fwC46J-0" layer="Symbol"><path d="M 0 0 L 192 -192" fill="none" stroke="rgb(0, 0, 0)" stroke-miterlimit="10" pointer-events="stroke"/></g><g id="cell-qJ54Huzz3K3UCWwMOSc4-0" layer="Symbol"><path fill="none" stroke="none" pointer-events="all" d="M 16 -144 L 80 -144 L 80 -112 L 16 -112 z"/><g><text x="54" y="68" fill="rgb(0, 0, 0)" font-family="Helvetica" font-size="45px" text-anchor="middle" transform="translate(-6 -192) translate(-0.5 -0.5)">SI</text></g></g></g></svg>