<?xml version="1.0" encoding="UTF-8"?><!DOCTYPE svg PUBLIC "-//W3C//DTD SVG 1.1//EN" "http://www.w3.org/Graphics/SVG/1.1/DTD/svg11.dtd"><svg xmlns="http://www.w3.org/2000/svg" xmlns:xlink="http://www.w3.org/1999/xlink" version="1.1" width="45px" height="66px" viewBox="-22.5 -32.5 45 66"><defs/><g><g id="cell-UC547PHU_iuHijtRSmOq-127" content="&lt;object label=&quot;Connection&quot; PipingConnector=&quot;N&quot; LabelConnector=&quot;N&quot; SignalConnector=&quot;Y&quot; Direction=&quot;0&quot; AuxiliaryConnector=&quot;N&quot;/&gt;" data-label="Connection" data-PipingConnector="N" data-LabelConnector="N" data-SignalConnector="Y" data-Direction="0" data-AuxiliaryConnector="N" layer="Connection"><path d="M 10 0 C 10 -3.309999465942383 12.689998626708984 -6 16 -6 C 19.310001373291016 -6 22 -3.309999465942383 22 0 C 22 3.3100013732910156 19.310001373291016 6 16 6 C 12.689998626708984 6 10 3.3100013732910156 10 0" fill="none" stroke="#008000" stroke-miterlimit="10" pointer-events="all"/></g><g id="cell-UC547PHU_iuHijtRSmOq-128" content="&lt;object label=&quot;Connection&quot; PipingConnector=&quot;N&quot; LabelConnector=&quot;N&quot; SignalConnector=&quot;Y&quot; Direction=&quot;180&quot; AuxiliaryConnector=&quot;N&quot;/&gt;" data-label="Connection" data-PipingConnector="N" data-LabelConnector="N" data-SignalConnector="Y" data-Direction="180" data-AuxiliaryConnector="N" layer="Connection"><path d="M -22 0 C -22 -3.309999465942383 -19.309999465942383 -6 -16 -6 C -12.6899995803833 -6 -10 -3.309999465942383 -10 0 C -10 3.3100013732910156 -12.6899995803833 6 -16 6 C -19.309999465942383 6 -22 3.3100013732910156 -22 0" fill="none" stroke="#008000" stroke-miterlimit="10" pointer-events="all"/></g><g id="cell-UC547PHU_iuHijtRSmOq-136" content="&lt;object label=&quot;origo&quot;/&gt;" data-label="origo" layer="Origo"><path d="M -6 0 C -6 -3.309999465942383 -3.309999465942383 -6 0 -6 C 3.309999465942383 -6 6 -3.309999465942383 6 0 C 6 3.3100013732910156 3.309999465942383 6 0 6 C -3.309999465942383 6 -6 3.3100013732910156 -6 0" fill="none" stroke="#ff0000" stroke-miterlimit="10" pointer-events="all"/></g><g id="cell-9R8dZMGkeJffQeJL3BNR-5" layer="Symbol"><path d="M -16 32 L -16 -32" fill="none" stroke="rgb(0, 0, 0)" stroke-miterlimit="10" pointer-events="stroke"/></g><g id="cell-9R8dZMGkeJffQeJL3BNR-6" layer="Symbol"><path d="M 15.830001831054688 32 L 15.830001831054688 -32" fill="none" stroke="rgb(0, 0, 0)" stroke-miterlimit="10" pointer-events="stroke"/></g></g></svg>