<?xml version="1.0" encoding="UTF-8"?><!DOCTYPE svg PUBLIC "-//W3C//DTD SVG 1.1//EN" "http://www.w3.org/Graphics/SVG/1.1/DTD/svg11.dtd"><svg xmlns="http://www.w3.org/2000/svg" xmlns:xlink="http://www.w3.org/1999/xlink" version="1.1" width="103px" height="167px" viewBox="-32.5 -96.5 103 167"><defs/><g><g id="cell-NGd-z_g-m5v9OcJDIR9X-125" layer="Symbol"><path d="M -32 64 L 0 7.105427357601002e-15 L 32 64 Z" fill="#000000" stroke="rgb(0, 0, 0)" stroke-miterlimit="10" pointer-events="all"/></g><g id="cell-NGd-z_g-m5v9OcJDIR9X-126" layer="Symbol"><path d="M 64 -32 L 0 0 L 64 32 Z" fill="#000000" stroke="rgb(0, 0, 0)" stroke-miterlimit="10" pointer-events="all"/></g><g id="cell-NGd-z_g-m5v9OcJDIR9X-127" layer="Symbol"><path d="M 0 0 L 0 -96" fill="none" stroke="rgb(0, 0, 0)" stroke-miterlimit="10" pointer-events="stroke"/></g><g id="cell-xTRoZUs08kHD9xQhaLxZ-0" layer="Symbol"><path d="M -20 -16 L 26 -62" fill="none" stroke="rgb(0, 0, 0)" stroke-miterlimit="10" pointer-events="stroke"/></g><g id="cell-xTRoZUs08kHD9xQhaLxZ-1" layer="Symbol"><path d="M -16 -40 L 18 -74" fill="none" stroke="rgb(0, 0, 0)" stroke-miterlimit="10" pointer-events="stroke"/></g><g id="cell-xTRoZUs08kHD9xQhaLxZ-2" layer="Symbol"><path d="M -10 -64 L 10 -84" fill="none" stroke="rgb(0, 0, 0)" stroke-miterlimit="10" pointer-events="stroke"/></g><g id="cell-NGd-z_g-m5v9OcJDIR9X-129" content="&lt;object label=&quot;Connection&quot; PipingConnector=&quot;Y&quot; LabelConnector=&quot;N&quot; SignalConnector=&quot;N&quot; Direction=&quot;0&quot; AuxiliaryConnector=&quot;N&quot;/&gt;" data-label="Connection" data-PipingConnector="Y" data-LabelConnector="N" data-SignalConnector="N" data-Direction="0" data-AuxiliaryConnector="N" layer="Connection"><path d="M 58 0 C 58 -3.30999755859375 60.69000244140625 -6 64 -6 C 67.30999755859375 -6 70 -3.30999755859375 70 0 C 70 3.30999755859375 67.30999755859375 6 64 6 C 60.69000244140625 6 58 3.30999755859375 58 0" fill="none" stroke="#008000" stroke-miterlimit="10" pointer-events="all"/></g><g id="cell-NGd-z_g-m5v9OcJDIR9X-130" content="&lt;object label=&quot;Connection&quot; PipingConnector=&quot;Y&quot; LabelConnector=&quot;N&quot; SignalConnector=&quot;N&quot; Direction=&quot;90&quot; AuxiliaryConnector=&quot;N&quot;/&gt;" data-label="Connection" data-PipingConnector="Y" data-LabelConnector="N" data-SignalConnector="N" data-Direction="90" data-AuxiliaryConnector="N" layer="Connection"><path d="M -6 64 C -6 60.69000244140625 -3.309999465942383 58 0 58 C 3.3100013732910156 58 6 60.69000244140625 6 64 C 6 67.30999755859375 3.3100013732910156 70 0 70 C -3.309999465942383 70 -6 67.30999755859375 -6 64" fill="none" stroke="#008000" stroke-miterlimit="10" pointer-events="all"/></g><g id="cell-NGd-z_g-m5v9OcJDIR9X-138" content="&lt;object label=&quot;origo&quot;/&gt;" data-label="origo" layer="Origo"><path d="M -6 0 C -6 -3.30999755859375 -3.309999465942383 -6 0 -6 C 3.3100013732910156 -6 6 -3.30999755859375 6 0 C 6 3.30999755859375 3.3100013732910156 6 0 6 C -3.309999465942383 6 -6 3.30999755859375 -6 0" fill="none" stroke="#ff0000" stroke-miterlimit="10" pointer-events="all"/></g></g></svg>