<?xml version="1.0" encoding="UTF-8"?><!DOCTYPE svg PUBLIC "-//W3C//DTD SVG 1.1//EN" "http://www.w3.org/Graphics/SVG/1.1/DTD/svg11.dtd"><svg xmlns="http://www.w3.org/2000/svg" xmlns:xlink="http://www.w3.org/1999/xlink" version="1.1" width="279px" height="205px" viewBox="-11.0309 -6.40594 17.4375 12.8125"><defs vector-effect="non-scaling-stroke"/><g><g id="cell-7WvjCOgTsuAiiIqi7jqn-125" content="&lt;object label=&quot;Connection&quot; PipingConnector=&quot;N&quot; LabelConnector=&quot;N&quot; SignalConnector=&quot;Y&quot; Direction=&quot;270&quot; AuxiliaryConnector=&quot;N&quot;/&gt;" data-label="Connection" data-PipingConnector="N" data-LabelConnector="N" data-SignalConnector="Y" data-Direction="270" data-AuxiliaryConnector="N" layer="Connection"><path d="M -0.37468719482421875 -5.999687194824219 C -0.37468719482421875 -6.206562042236328 -0.20656204223632812 -6.374687194824219 0.00031280517578125 -6.374687194824219 C 0.20718765258789062 -6.374687194824219 0.37531280517578125 -6.206562042236328 0.37531280517578125 -5.999687194824219 C 0.37531280517578125 -5.792812347412109 0.20718765258789062 -5.624687194824219 0.00031280517578125 -5.624687194824219 C -0.20656204223632812 -5.624687194824219 -0.37468719482421875 -5.792812347412109 -0.37468719482421875 -5.999687194824219" fill="none" stroke="#00ff00" stroke-miterlimit="10" pointer-events="all" vector-effect="non-scaling-stroke"/></g><g id="cell-7WvjCOgTsuAiiIqi7jqn-126" content="&lt;object label=&quot;Connection&quot; PipingConnector=&quot;Y&quot; LabelConnector=&quot;N&quot; SignalConnector=&quot;Y&quot; Direction=&quot;90&quot; AuxiliaryConnector=&quot;Y&quot;/&gt;" data-label="Connection" data-PipingConnector="Y" data-LabelConnector="N" data-SignalConnector="Y" data-Direction="90" data-AuxiliaryConnector="Y" layer="Connection"><path d="M -0.37468719482421875 6.000312805175781 C -0.37468719482421875 5.793437957763672 -0.20656204223632812 5.625312805175781 0.00031280517578125 5.625312805175781 C 0.20718765258789062 5.625312805175781 0.37531280517578125 5.793437957763672 0.37531280517578125 6.000312805175781 C 0.37531280517578125 6.207187652587891 0.20718765258789062 6.375312805175781 0.00031280517578125 6.375312805175781 C -0.20656204223632812 6.375312805175781 -0.37468719482421875 6.207187652587891 -0.37468719482421875 6.000312805175781" fill="none" stroke="#00ff00" stroke-miterlimit="10" pointer-events="all" vector-effect="non-scaling-stroke"/></g><g id="cell-7WvjCOgTsuAiiIqi7jqn-127" content="&lt;object label=&quot;Connection&quot; PipingConnector=&quot;N&quot; LabelConnector=&quot;N&quot; SignalConnector=&quot;Y&quot; Direction=&quot;180&quot; AuxiliaryConnector=&quot;N&quot;/&gt;" data-label="Connection" data-PipingConnector="N" data-LabelConnector="N" data-SignalConnector="Y" data-Direction="180" data-AuxiliaryConnector="N" layer="Connection"><path d="M -6.374687194824219 0.00031280517578125 C -6.374687194824219 -0.20656204223632812 -6.206562042236328 -0.37468719482421875 -5.999687194824219 -0.37468719482421875 C -5.792812347412109 -0.37468719482421875 -5.624687194824219 -0.20656204223632812 -5.624687194824219 0.00031280517578125 C -5.624687194824219 0.20718765258789062 -5.792812347412109 0.37531280517578125 -5.999687194824219 0.37531280517578125 C -6.206562042236328 0.37531280517578125 -6.374687194824219 0.20718765258789062 -6.374687194824219 0.00031280517578125" fill="none" stroke="#00ff00" stroke-miterlimit="10" pointer-events="all" vector-effect="non-scaling-stroke"/></g><g id="cell-7WvjCOgTsuAiiIqi7jqn-128" content="&lt;object label=&quot;Connection&quot; PipingConnector=&quot;N&quot; LabelConnector=&quot;N&quot; SignalConnector=&quot;Y&quot; Direction=&quot;0&quot; AuxiliaryConnector=&quot;N&quot;/&gt;" data-label="Connection" data-PipingConnector="N" data-LabelConnector="N" data-SignalConnector="Y" data-Direction="0" data-AuxiliaryConnector="N" layer="Connection"><path d="M 5.625312805175781 0.00031280517578125 C 5.625312805175781 -0.20656204223632812 5.793437957763672 -0.37468719482421875 6.000312805175781 -0.37468719482421875 C 6.207187652587891 -0.37468719482421875 6.375312805175781 -0.20656204223632812 6.375312805175781 0.00031280517578125 C 6.375312805175781 0.20718765258789062 6.207187652587891 0.37531280517578125 6.000312805175781 0.37531280517578125 C 5.793437957763672 0.37531280517578125 5.625312805175781 0.20718765258789062 5.625312805175781 0.00031280517578125" fill="none" stroke="#00ff00" stroke-miterlimit="10" pointer-events="all" vector-effect="non-scaling-stroke"/></g><g id="cell-7WvjCOgTsuAiiIqi7jqn-134" content="&lt;object label=&quot;%LabelIndex%&amp;amp;nbsp; &amp;amp;nbsp; &amp;amp;nbsp; &amp;amp;nbsp; &amp;amp;nbsp; &amp;amp;nbsp;%LabelLines%&quot; placeholders=&quot;1&quot; LabelLines=&quot;1&quot; LabelIndex=&quot;C&quot;/&gt;" data-label="%LabelIndex%&amp;nbsp; &amp;nbsp; &amp;nbsp; &amp;nbsp; &amp;nbsp; &amp;nbsp;%LabelLines%" data-placeholders="1" data-LabelLines="1" data-LabelIndex="C" layer="Label"><path fill="none" stroke="#ff0000" pointer-events="all" d="M -2.4996871948242188 3.0003128051757812 L 2.5003128051757812 3.0003128051757812 L 2.5003128051757812 4.000312805175781 L -2.4996871948242188 4.000312805175781 z" vector-effect="non-scaling-stroke"/><g><text x="138" y="161" fill="#FF0000" font-family="Helvetica" font-size="10px" transform="scale(0.0625 0.0625) translate(-175.995 -101.995) translate(-0.5 -0.5)" vector-effect="non-scaling-stroke">C           1</text></g></g><g id="cell-7WvjCOgTsuAiiIqi7jqn-135" content="&lt;object label=&quot;%LabelIndex%&amp;amp;nbsp; &amp;amp;nbsp; &amp;amp;nbsp; &amp;amp;nbsp; &amp;amp;nbsp; &amp;amp;nbsp;%LabelLines%&quot; placeholders=&quot;1&quot; LabelLines=&quot;1&quot; LabelIndex=&quot;B&quot;/&gt;" data-label="%LabelIndex%&amp;nbsp; &amp;nbsp; &amp;nbsp; &amp;nbsp; &amp;nbsp; &amp;nbsp;%LabelLines%" data-placeholders="1" data-LabelLines="1" data-LabelIndex="B" layer="Label"><path fill="none" stroke="#ff0000" pointer-events="all" d="M -2.4996871948242188 -3.9996871948242188 L 2.5003128051757812 -3.9996871948242188 L 2.5003128051757812 -2.9996871948242188 L -2.4996871948242188 -2.9996871948242188 z" vector-effect="non-scaling-stroke"/><g><text x="138" y="49" fill="#FF0000" font-family="Helvetica" font-size="10px" transform="scale(0.0625 0.0625) translate(-175.995 -101.995) translate(-0.5 -0.5)" vector-effect="non-scaling-stroke">B           1</text></g></g><g id="cell-7WvjCOgTsuAiiIqi7jqn-136" content="&lt;object label=&quot;%LabelIndex%&amp;amp;nbsp; &amp;amp;nbsp; &amp;amp;nbsp; &amp;amp;nbsp; &amp;amp;nbsp; &amp;amp;nbsp;%LabelLines%&quot; placeholders=&quot;1&quot; LabelLines=&quot;1&quot; LabelIndex=&quot;A&quot;/&gt;" data-label="%LabelIndex%&amp;nbsp; &amp;nbsp; &amp;nbsp; &amp;nbsp; &amp;nbsp; &amp;nbsp;%LabelLines%" data-placeholders="1" data-LabelLines="1" data-LabelIndex="A" layer="Label"><path fill="none" stroke="#ff0000" pointer-events="all" d="M -10.999687194824219 -5.999687194824219 L -5.999687194824219 -5.999687194824219 L -5.999687194824219 -4.999687194824219 L -10.999687194824219 -4.999687194824219 z" vector-effect="non-scaling-stroke"/><g><text x="2" y="17" fill="#FF0000" font-family="Helvetica" font-size="10px" transform="scale(0.0625 0.0625) translate(-175.995 -101.995) translate(-0.5 -0.5)" vector-effect="non-scaling-stroke">A           1</text></g></g><g id="cell-7WvjCOgTsuAiiIqi7jqn-138" content="&lt;object label=&quot;origo&quot;/&gt;" data-label="origo" layer="Origo"><path d="M -0.24593734741210938 -0.0003123283386230469 C -0.24593734741210938 -0.13593721389770508 -0.13593673706054688 -0.24593734741210938 0.00031280517578125 -0.24593734741210938 C 0.13593769073486328 -0.24593734741210938 0.24593734741210938 -0.13593721389770508 0.24593734741210938 -0.0003123283386230469 C 0.24593734741210938 0.13593769073486328 0.13593769073486328 0.24593782424926758 0.00031280517578125 0.24593782424926758 C -0.13593673706054688 0.24593782424926758 -0.24593734741210938 0.13593769073486328 -0.24593734741210938 -0.0003123283386230469" fill="none" stroke="#ff0000" stroke-miterlimit="10" pointer-events="all" vector-effect="non-scaling-stroke"/></g><g id="cell-7WvjCOgTsuAiiIqi7jqn-140" layer="Symbol"><ellipse cx="0" cy="0" rx="6" ry="6" fill="none" stroke="rgb(0, 0, 0)" pointer-events="all" transform="translate(0.000312805 0.000312805)" vector-effect="non-scaling-stroke"/></g><g id="cell-qaj8Vw7mEOWWndM2GKeT-0" layer="Symbol"><path d="M -5.999687194824219 0.00031280517578125 L 6.000312805175781 0.00031280517578125" fill="none" stroke="rgb(0, 0, 0)" stroke-miterlimit="10" pointer-events="stroke" vector-effect="non-scaling-stroke"/></g></g></svg>