<?xml version="1.0" encoding="UTF-8"?><!DOCTYPE svg PUBLIC "-//W3C//DTD SVG 1.1//EN" "http://www.w3.org/Graphics/SVG/1.1/DTD/svg11.dtd"><svg xmlns="http://www.w3.org/2000/svg" xmlns:xlink="http://www.w3.org/1999/xlink" version="1.1" width="205px" height="68px" viewBox="-6.435 -32.435 205 68"><defs/><g><g id="cell-gaW19up7ZJIIjGlyos_E-126" layer="Symbol"><path d="M 192.06500244140625 34.06500244140625 L 192.06500244140625 -31.934999465942383" fill="none" stroke="rgb(0, 0, 0)" stroke-miterlimit="10" pointer-events="stroke"/></g><g id="cell-fOm7b_rWqb0DYR7UxOsR-0" layer="Symbol"><path d="M 192.06500244140625 0.06500053405761719 L 0.06500005722045898 0.06500053405761719" fill="none" stroke="rgb(0, 0, 0)" stroke-miterlimit="10" pointer-events="stroke"/></g><g id="cell-gaW19up7ZJIIjGlyos_E-129" layer="Connection"><path d="M 0.06500005722045898 0.06500053405761719 L 0.06500005722045898 -0.9349994659423828" fill="none" stroke="rgb(0, 0, 0)" stroke-miterlimit="10" pointer-events="stroke"/></g><g id="cell-gaW19up7ZJIIjGlyos_E-130" content="&lt;object label=&quot;Connection&quot; PipingConnector=&quot;Y&quot; LabelConnector=&quot;N&quot; SignalConnector=&quot;N&quot; Direction=&quot;270&quot; AuxiliaryConnector=&quot;N&quot;/&gt;" data-label="Connection" data-PipingConnector="Y" data-LabelConnector="N" data-SignalConnector="N" data-Direction="270" data-AuxiliaryConnector="N" layer="Connection"><path d="M -5.934999942779541 0.06500053405761719 C -5.934999942779541 -3.2449989318847656 -3.244999885559082 -5.934999465942383 0.06500005722045898 -5.934999465942383 C 3.375000476837158 -5.934999465942383 6.065000057220459 -3.2449989318847656 6.065000057220459 0.06500053405761719 C 6.065000057220459 3.375001907348633 3.375000476837158 6.065000534057617 0.06500005722045898 6.065000534057617 C -3.244999885559082 6.065000534057617 -5.934999942779541 3.375001907348633 -5.934999942779541 0.06500053405761719" fill="none" stroke="#00ff00" stroke-miterlimit="10" pointer-events="all"/></g><g id="cell-gaW19up7ZJIIjGlyos_E-131" content="&lt;object label=&quot;Connection&quot; PipingConnector=&quot;Y&quot; LabelConnector=&quot;N&quot; SignalConnector=&quot;N&quot; Direction=&quot;0&quot; AuxiliaryConnector=&quot;N&quot;/&gt;" data-label="Connection" data-PipingConnector="Y" data-LabelConnector="N" data-SignalConnector="N" data-Direction="0" data-AuxiliaryConnector="N" layer="Connection"><path d="M 186.06500244140625 0.06500053405761719 C 186.06500244140625 -3.2449989318847656 188.7550048828125 -5.934999465942383 192.06500244140625 -5.934999465942383 C 195.375 -5.934999465942383 198.06500244140625 -3.2449989318847656 198.06500244140625 0.06500053405761719 C 198.06500244140625 3.375001907348633 195.375 6.065000534057617 192.06500244140625 6.065000534057617 C 188.7550048828125 6.065000534057617 186.06500244140625 3.375001907348633 186.06500244140625 0.06500053405761719" fill="none" stroke="#00ff00" stroke-miterlimit="10" pointer-events="all"/></g><g id="cell-gaW19up7ZJIIjGlyos_E-138" content="&lt;object label=&quot;origo&quot;/&gt;" data-label="origo" layer="Origo"><path d="M -3.934999942779541 -0.0049991607666015625 C -3.934999942779541 -2.174999237060547 -2.174999952316284 -3.934999465942383 0.005000114440917969 -3.934999465942383 C 2.174999713897705 -3.934999465942383 3.934999942779541 -2.174999237060547 3.934999942779541 -0.0049991607666015625 C 3.934999942779541 2.1750011444091797 2.174999713897705 3.934999465942383 0.005000114440917969 3.934999465942383 C -2.174999952316284 3.934999465942383 -3.934999942779541 2.1750011444091797 -3.934999942779541 -0.0049991607666015625" fill="none" stroke="#ff0000" stroke-miterlimit="10" pointer-events="all"/></g></g></svg>