<?xml version="1.0" encoding="UTF-8"?><!DOCTYPE svg PUBLIC "-//W3C//DTD SVG 1.1//EN" "http://www.w3.org/Graphics/SVG/1.1/DTD/svg11.dtd"><svg xmlns="http://www.w3.org/2000/svg" xmlns:xlink="http://www.w3.org/1999/xlink" version="1.1" width="141px" height="97px" viewBox="-70.5 -32.5 141 97"><defs/><g><g id="cell-gKxKpzYoua6ZM-g1eypu-0" layer="Symbol"><path d="M -64 -32 L 0 0 L -64 32 Z" fill="none" stroke="rgb(0, 0, 0)" stroke-miterlimit="10" pointer-events="all"/></g><g id="cell-gKxKpzYoua6ZM-g1eypu-1" layer="Symbol"><path d="M 64 -32 L 0 0 L 64 32 Z" fill="none" stroke="rgb(0, 0, 0)" stroke-miterlimit="10" pointer-events="all"/></g><g id="cell-gKxKpzYoua6ZM-g1eypu-2" layer="Symbol"><path d="M 0 32 L 0 -32" fill="none" stroke="rgb(0, 0, 0)" stroke-miterlimit="10" pointer-events="stroke"/></g><g id="cell-nI1y6UdgziEOpKY1sneJ-1" content="&lt;object label=&quot;Connection&quot; PipingConnector=&quot;Y&quot; LabelConnector=&quot;N&quot; SignalConnector=&quot;N&quot; Direction=&quot;0&quot; AuxiliaryConnector=&quot;N&quot;/&gt;" data-label="Connection" data-PipingConnector="Y" data-LabelConnector="N" data-SignalConnector="N" data-Direction="0" data-AuxiliaryConnector="N" layer="Connection"><path d="M 58 0 C 58 -3.309999465942383 60.69000244140625 -6 64 -6 C 67.30999755859375 -6 70 -3.309999465942383 70 0 C 70 3.3100013732910156 67.30999755859375 6 64 6 C 60.69000244140625 6 58 3.3100013732910156 58 0" fill="none" stroke="#008000" stroke-miterlimit="10" pointer-events="all"/></g><g id="cell--6UBYKUrneoJuKkB-cZE-133" content="&lt;object label=&quot;Connection&quot; PipingConnector=&quot;Y&quot; LabelConnector=&quot;N&quot; SignalConnector=&quot;N&quot; Direction=&quot;270&quot; AuxiliaryConnector=&quot;N&quot;/&gt;" data-label="Connection" data-PipingConnector="Y" data-LabelConnector="N" data-SignalConnector="N" data-Direction="270" data-AuxiliaryConnector="N" layer="Connection"><path d="M -70 0 C -70 -3.309999465942383 -67.30999755859375 -6 -64 -6 C -60.689998626708984 -6 -58 -3.309999465942383 -58 0 C -58 3.3100013732910156 -60.689998626708984 6 -64 6 C -67.30999755859375 6 -70 3.3100013732910156 -70 0" fill="none" stroke="#008000" stroke-miterlimit="10" pointer-events="all"/></g><g id="cell--6UBYKUrneoJuKkB-cZE-131" content="&lt;object label=&quot;%LabelIndex%&amp;amp;nbsp; &amp;amp;nbsp; &amp;amp;nbsp; &amp;amp;nbsp; &amp;amp;nbsp; &amp;amp;nbsp;%LabelLines%&quot; placeholders=&quot;1&quot; LabelLines=&quot;1&quot; LabelIndex=&quot;A&quot;/&gt;" data-label="%LabelIndex%&amp;nbsp; &amp;nbsp; &amp;nbsp; &amp;nbsp; &amp;nbsp; &amp;nbsp;%LabelLines%" data-placeholders="1" data-LabelLines="1" data-LabelIndex="A" layer="Label"><path fill="none" stroke="#ff0000" pointer-events="all" d="M -40 48 L 40 48 L 40 64 L -40 64 z"/><g><text x="32" y="91" fill="#FF0000" font-family="Helvetica" font-size="10px" transform="translate(-70 -32) translate(-0.5 -0.5)">A           1</text></g></g><g id="cell--6UBYKUrneoJuKkB-cZE-141" content="&lt;object label=&quot;origo&quot;/&gt;" data-label="origo" layer="Origo"><path d="M -6 0 C -6 -3.309999465942383 -3.30999755859375 -6 0 -6 C 3.30999755859375 -6 6 -3.309999465942383 6 0 C 6 3.3100013732910156 3.30999755859375 6 0 6 C -3.30999755859375 6 -6 3.3100013732910156 -6 0" fill="none" stroke="#ff0000" stroke-miterlimit="10" pointer-events="all"/></g></g></svg>