<?xml version="1.0" encoding="UTF-8"?><!DOCTYPE svg PUBLIC "-//W3C//DTD SVG 1.1//EN" "http://www.w3.org/Graphics/SVG/1.1/DTD/svg11.dtd"><svg xmlns="http://www.w3.org/2000/svg" xmlns:xlink="http://www.w3.org/1999/xlink" version="1.1" width="45px" height="66px" viewBox="-1.40593 -2.0326 2.82001 4.13602"><defs vector-effect="non-scaling-stroke"/><g><g id="cell-UC547PHU_iuHijtRSmOq-127" content="&lt;object label=&quot;Connection&quot; PipingConnector=&quot;N&quot; LabelConnector=&quot;N&quot; SignalConnector=&quot;Y&quot; Direction=&quot;0&quot; AuxiliaryConnector=&quot;N&quot;/&gt;" data-label="Connection" data-PipingConnector="N" data-LabelConnector="N" data-SignalConnector="Y" data-Direction="0" data-AuxiliaryConnector="N" layer="Connection"><path d="M 0.6307422518730164 0.004073381889611483 C 0.6307422518730164 -0.20335403084754944 0.7993161678314209 -0.37192800641059875 1.0067436695098877 -0.37192800641059875 C 1.2141711711883545 -0.37192800641059875 1.3827450275421143 -0.20335403084754944 1.3827450275421143 0.004073381889611483 C 1.3827450275421143 0.21150091290473938 1.2141711711883545 0.38007479906082153 1.0067436695098877 0.38007479906082153 C 0.7993161678314209 0.38007479906082153 0.6307422518730164 0.21150091290473938 0.6307422518730164 0.004073381889611483" fill="none" stroke="#00ff00" stroke-miterlimit="10" pointer-events="all" vector-effect="non-scaling-stroke"/></g><g id="cell-UC547PHU_iuHijtRSmOq-128" content="&lt;object label=&quot;Connection&quot; PipingConnector=&quot;N&quot; LabelConnector=&quot;N&quot; SignalConnector=&quot;Y&quot; Direction=&quot;180&quot; AuxiliaryConnector=&quot;N&quot;/&gt;" data-label="Connection" data-PipingConnector="N" data-LabelConnector="N" data-SignalConnector="Y" data-Direction="180" data-AuxiliaryConnector="N" layer="Connection"><path d="M -1.374598503112793 0.004073381889611483 C -1.374598503112793 -0.20335403084754944 -1.2060245275497437 -0.37192800641059875 -0.9985971450805664 -0.37192800641059875 C -0.7911697030067444 -0.37192800641059875 -0.6225957274436951 -0.20335403084754944 -0.6225957274436951 0.004073381889611483 C -0.6225957274436951 0.21150091290473938 -0.7911697030067444 0.38007479906082153 -0.9985971450805664 0.38007479906082153 C -1.2060245275497437 0.38007479906082153 -1.374598503112793 0.21150091290473938 -1.374598503112793 0.004073381889611483" fill="none" stroke="#00ff00" stroke-miterlimit="10" pointer-events="all" vector-effect="non-scaling-stroke"/></g><g id="cell-UC547PHU_iuHijtRSmOq-136" content="&lt;object label=&quot;origo&quot;/&gt;" data-label="origo" layer="Origo"><path d="M -0.24659433960914612 -0.0003132818965241313 C -0.24659433960914612 -0.1363004595041275 -0.13630057871341705 -0.24659422039985657 0.0003132818965241313 -0.24659422039985657 C 0.1363004595041275 -0.24659422039985657 0.24659422039985657 -0.1363004595041275 0.24659422039985657 -0.0003132818965241313 C 0.24659422039985657 0.13630057871341705 0.1363004595041275 0.24659422039985657 0.0003132818965241313 0.24659422039985657 C -0.13630057871341705 0.24659422039985657 -0.24659433960914612 0.13630057871341705 -0.24659433960914612 -0.0003132818965241313" fill="none" stroke="#ff0000" stroke-miterlimit="10" pointer-events="all" vector-effect="non-scaling-stroke"/></g><g id="cell-9R8dZMGkeJffQeJL3BNR-5" layer="Symbol"><path d="M -0.9985971450805664 2.0094144344329834 L -0.9985971450805664 -2.001267433166504" fill="none" stroke="rgb(0, 0, 0)" stroke-miterlimit="10" pointer-events="stroke" vector-effect="non-scaling-stroke"/></g><g id="cell-9R8dZMGkeJffQeJL3BNR-6" layer="Symbol"><path d="M 0.9960904121398926 2.0094144344329834 L 0.9960904121398926 -2.001267433166504" fill="none" stroke="rgb(0, 0, 0)" stroke-miterlimit="10" pointer-events="stroke" vector-effect="non-scaling-stroke"/></g></g></svg>