<?xml version="1.0" encoding="UTF-8"?><!DOCTYPE svg PUBLIC "-//W3C//DTD SVG 1.1//EN" "http://www.w3.org/Graphics/SVG/1.1/DTD/svg11.dtd"><svg xmlns="http://www.w3.org/2000/svg" xmlns:xlink="http://www.w3.org/1999/xlink" version="1.1" width="59px" height="33px" viewBox="-3.40219 -1.02719 3.6875 2.0625"><defs vector-effect="non-scaling-stroke"/><g><g id="cell-BCcmFvAbc4Agi9Vzn4Tp-125" layer="Symbol"><path d="M -2.9959373474121094 -0.9959375262260437 L 0.004062652587890625 0.004062473773956299 L -2.9959373474121094 1.0040624141693115 Z" fill="#000000" stroke="rgb(0, 0, 0)" stroke-miterlimit="10" pointer-events="all" vector-effect="non-scaling-stroke"/></g><g id="cell-BCcmFvAbc4Agi9Vzn4Tp-130" content="&lt;object label=&quot;Connection&quot; PipingConnector=&quot;Y&quot; LabelConnector=&quot;N&quot; SignalConnector=&quot;N&quot; Direction=&quot;270&quot; AuxiliaryConnector=&quot;N&quot;/&gt;" data-label="Connection" data-PipingConnector="Y" data-LabelConnector="N" data-SignalConnector="N" data-Direction="270" data-AuxiliaryConnector="N" layer="Connection"><path d="M -3.3709373474121094 0.004062473773956299 C -3.3709373474121094 -0.2028125524520874 -3.202812433242798 -0.3709375262260437 -2.9959373474121094 -0.3709375262260437 C -2.789062261581421 -0.3709375262260437 -2.6209373474121094 -0.2028125524520874 -2.6209373474121094 0.004062473773956299 C -2.6209373474121094 0.21093744039535522 -2.789062261581421 0.3790624737739563 -2.9959373474121094 0.3790624737739563 C -3.202812433242798 0.3790624737739563 -3.3709373474121094 0.21093744039535522 -3.3709373474121094 0.004062473773956299" fill="none" stroke="#00ff00" stroke-miterlimit="10" pointer-events="all" vector-effect="non-scaling-stroke"/></g><g id="cell-BCcmFvAbc4Agi9Vzn4Tp-138" content="&lt;object label=&quot;origo&quot;/&gt;" data-label="origo" layer="Origo"><path d="M -0.24593734741210938 -0.00031250715255737305 C -0.24593734741210938 -0.13593751192092896 -0.13593745231628418 -0.2459375262260437 0.00031256675720214844 -0.2459375262260437 C 0.13593769073486328 -0.2459375262260437 0.24593758583068848 -0.13593751192092896 0.24593758583068848 -0.00031250715255737305 C 0.24593758583068848 0.13593751192092896 0.13593769073486328 0.2459375262260437 0.00031256675720214844 0.2459375262260437 C -0.13593745231628418 0.2459375262260437 -0.24593734741210938 0.13593751192092896 -0.24593734741210938 -0.00031250715255737305" fill="none" stroke="#ff0000" stroke-miterlimit="10" pointer-events="all" vector-effect="non-scaling-stroke"/></g></g></svg>