<?xml version="1.0" encoding="UTF-8"?><!DOCTYPE svg PUBLIC "-//W3C//DTD SVG 1.1//EN" "http://www.w3.org/Graphics/SVG/1.1/DTD/svg11.dtd"><svg xmlns="http://www.w3.org/2000/svg" xmlns:xlink="http://www.w3.org/1999/xlink" version="1.1" width="39px" height="66px" viewBox="-16.5 -32.5 39 66"><defs/><g><g id="cell-SXBRzpKuDRuvWZq6fp0s-125" content="&lt;object label=&quot;Connection&quot; PipingConnector=&quot;N&quot; LabelConnector=&quot;Y&quot; SignalConnector=&quot;Y&quot; Direction=&quot;0&quot; AuxiliaryConnector=&quot;N&quot;/&gt;" data-label="Connection" data-PipingConnector="N" data-LabelConnector="Y" data-SignalConnector="Y" data-Direction="0" data-AuxiliaryConnector="N" layer="Connection"><path d="M 10 0 C 10 -3.309999465942383 12.690000534057617 -6 16 -6 C 19.310001373291016 -6 22 -3.309999465942383 22 0 C 22 3.3100013732910156 19.310001373291016 6 16 6 C 12.690000534057617 6 10 3.3100013732910156 10 0" fill="none" stroke="#008000" stroke-miterlimit="10" pointer-events="all"/></g><g id="cell-SXBRzpKuDRuvWZq6fp0s-126" content="&lt;object label=&quot;Connection&quot; PipingConnector=&quot;Y&quot; LabelConnector=&quot;N&quot; SignalConnector=&quot;N&quot; Direction=&quot;90;270&quot; AuxiliaryConnector=&quot;N&quot;/&gt;" data-label="Connection" data-PipingConnector="Y" data-LabelConnector="N" data-SignalConnector="N" data-Direction="90;270" data-AuxiliaryConnector="N" layer="Connection"><path d="M -6 0 C -6 -3.309999465942383 -3.310000419616699 -6 0 -6 C 3.309999465942383 -6 6 -3.309999465942383 6 0 C 6 3.3100013732910156 3.309999465942383 6 0 6 C -3.310000419616699 6 -6 3.3100013732910156 -6 0" fill="none" stroke="#008000" stroke-miterlimit="10" pointer-events="all"/></g><g id="cell-SXBRzpKuDRuvWZq6fp0s-133" content="&lt;object label=&quot;origo&quot;/&gt;" data-label="origo" layer="Origo"><path d="M -6 0 C -6 -3.309999465942383 -3.310000419616699 -6 0 -6 C 3.309999465942383 -6 6 -3.309999465942383 6 0 C 6 3.3100013732910156 3.309999465942383 6 0 6 C -3.310000419616699 6 -6 3.3100013732910156 -6 0" fill="none" stroke="#ff0000" stroke-miterlimit="10" pointer-events="all"/></g><g id="cell-SXBRzpKuDRuvWZq6fp0s-135" layer="Symbol"><path d="M -16 32 L -16 -32" fill="none" stroke="rgb(0, 0, 0)" stroke-miterlimit="10" pointer-events="stroke"/></g><g id="cell-SXBRzpKuDRuvWZq6fp0s-136" layer="Symbol"><path d="M 15.829999923706055 32 L 15.829999923706055 -32" fill="none" stroke="rgb(0, 0, 0)" stroke-miterlimit="10" pointer-events="stroke"/></g></g></svg>