<?xml version="1.0" encoding="UTF-8"?><!DOCTYPE svg PUBLIC "-//W3C//DTD SVG 1.1//EN" "http://www.w3.org/Graphics/SVG/1.1/DTD/svg11.dtd"><svg xmlns="http://www.w3.org/2000/svg" xmlns:xlink="http://www.w3.org/1999/xlink" version="1.1" width="717px" height="98px" viewBox="-20.4022 -3.03156 44.8125 6.125"><defs vector-effect="non-scaling-stroke"/><g><g id="cell-Hk4hw16L_tskR1mw_dfi-1" layer="Symbol"><path d="M -19.99593734741211 2.999687671661377 L -19.99593734741211 -3.000312328338623" fill="none" stroke="rgb(0, 0, 0)" stroke-miterlimit="10" pointer-events="stroke" vector-effect="non-scaling-stroke"/></g><g id="cell-Hk4hw16L_tskR1mw_dfi-2" layer="Symbol"><path d="M -19.99593734741211 -3.000312328338623 L 20.00406265258789 -3.000312328338623" fill="none" stroke="rgb(0, 0, 0)" stroke-miterlimit="10" pointer-events="stroke" vector-effect="non-scaling-stroke"/></g><g id="cell-Hk4hw16L_tskR1mw_dfi-3" layer="Symbol"><path d="M -19.99593734741211 2.999687671661377 L 20.00406265258789 2.999687671661377" fill="none" stroke="rgb(0, 0, 0)" stroke-miterlimit="10" pointer-events="stroke" vector-effect="non-scaling-stroke"/></g><g id="cell-Hk4hw16L_tskR1mw_dfi-4" layer="Symbol"><path d="M 20.00406265258789 -3.000312328338623 L 24.00406265258789 -0.0003123283386230469" fill="none" stroke="rgb(0, 0, 0)" stroke-miterlimit="10" pointer-events="stroke" vector-effect="non-scaling-stroke"/></g><g id="cell-Hk4hw16L_tskR1mw_dfi-5" layer="Symbol"><path d="M 20.00406265258789 2.999687671661377 L 24.00406265258789 -0.0003123283386230469" fill="none" stroke="rgb(0, 0, 0)" stroke-miterlimit="10" pointer-events="stroke" vector-effect="non-scaling-stroke"/></g><g id="cell-Hk4hw16L_tskR1mw_dfi-6" content="&lt;object label=&quot;Connection&quot; PipingConnector=&quot;Y&quot; LabelConnector=&quot;N&quot; SignalConnector=&quot;Y&quot; Direction=&quot;270&quot; AuxiliaryConnector=&quot;N&quot;/&gt;" data-label="Connection" data-PipingConnector="Y" data-LabelConnector="N" data-SignalConnector="Y" data-Direction="270" data-AuxiliaryConnector="N" layer="Connection"><path d="M -20.37093734741211 -0.0003123283386230469 C -20.37093734741211 -0.20718741416931152 -20.20281219482422 -0.37531232833862305 -19.99593734741211 -0.37531232833862305 C -19.7890625 -0.37531232833862305 -19.62093734741211 -0.20718741416931152 -19.62093734741211 -0.0003123283386230469 C -19.62093734741211 0.20656275749206543 -19.7890625 0.37468767166137695 -19.99593734741211 0.37468767166137695 C -20.20281219482422 0.37468767166137695 -20.37093734741211 0.20656275749206543 -20.37093734741211 -0.0003123283386230469" fill="none" stroke="#00ff00" stroke-miterlimit="10" pointer-events="all" vector-effect="non-scaling-stroke"/></g><g id="cell-Hk4hw16L_tskR1mw_dfi-7" content="&lt;object label=&quot;Connection&quot; PipingConnector=&quot;Y&quot; LabelConnector=&quot;N&quot; SignalConnector=&quot;Y&quot; Direction=&quot;0&quot; AuxiliaryConnector=&quot;N&quot;/&gt;" data-label="Connection" data-PipingConnector="Y" data-LabelConnector="N" data-SignalConnector="Y" data-Direction="0" data-AuxiliaryConnector="N" layer="Connection"><path d="M 23.62906265258789 -0.0003123283386230469 C 23.62906265258789 -0.20718741416931152 23.79718780517578 -0.37531232833862305 24.00406265258789 -0.37531232833862305 C 24.2109375 -0.37531232833862305 24.37906265258789 -0.20718741416931152 24.37906265258789 -0.0003123283386230469 C 24.37906265258789 0.20656275749206543 24.2109375 0.37468767166137695 24.00406265258789 0.37468767166137695 C 23.79718780517578 0.37468767166137695 23.62906265258789 0.20656275749206543 23.62906265258789 -0.0003123283386230469" fill="none" stroke="#00ff00" stroke-miterlimit="10" pointer-events="all" vector-effect="non-scaling-stroke"/></g><g id="cell-RGgDl7oPxScjA8s9tKOe-136" content="&lt;object label=&quot;%LabelIndex%&amp;amp;nbsp; &amp;amp;nbsp; &amp;amp;nbsp; &amp;amp;nbsp; &amp;amp;nbsp; &amp;amp;nbsp;%LabelLines%&quot; placeholders=&quot;1&quot; LabelLines=&quot;1&quot; LabelIndex=&quot;A&quot;/&gt;" data-label="%LabelIndex%&amp;nbsp; &amp;nbsp; &amp;nbsp; &amp;nbsp; &amp;nbsp; &amp;nbsp;%LabelLines%" data-placeholders="1" data-LabelLines="1" data-LabelIndex="A" layer="Label"><path fill="none" stroke="#ff0000" pointer-events="all" d="M -0.9959373474121094 -0.500312328338623 L 4.004062652587891 -0.500312328338623 L 4.004062652587891 0.49968767166137695 L -0.9959373474121094 0.49968767166137695 z" vector-effect="non-scaling-stroke"/><g><text x="312" y="51" fill="#FF0000" font-family="Helvetica" font-size="10px" transform="scale(0.0625 0.0625) translate(-325.935 -48.005) translate(-0.5 -0.5)" vector-effect="non-scaling-stroke">A           1</text></g></g><g id="cell-RGgDl7oPxScjA8s9tKOe-139" content="&lt;object label=&quot;origo&quot;/&gt;" data-label="origo" layer="Origo"><path d="M -0.24593734741210938 -0.0003123283386230469 C -0.24593734741210938 -0.13593721389770508 -0.13593673706054688 -0.24593734741210938 0.00031280517578125 -0.24593734741210938 C 0.13593673706054688 -0.24593734741210938 0.24593734741210938 -0.13593721389770508 0.24593734741210938 -0.0003123283386230469 C 0.24593734741210938 0.13593769073486328 0.13593673706054688 0.24593758583068848 0.00031280517578125 0.24593758583068848 C -0.13593673706054688 0.24593758583068848 -0.24593734741210938 0.13593769073486328 -0.24593734741210938 -0.0003123283386230469" fill="none" stroke="#ff0000" stroke-miterlimit="10" pointer-events="all" vector-effect="non-scaling-stroke"/></g></g></svg>