<?xml version="1.0" encoding="UTF-8"?><!DOCTYPE svg PUBLIC "-//W3C//DTD SVG 1.1//EN" "http://www.w3.org/Graphics/SVG/1.1/DTD/svg11.dtd"><svg xmlns="http://www.w3.org/2000/svg" xmlns:xlink="http://www.w3.org/1999/xlink" version="1.1" width="296px" height="205px" viewBox="-193.5 -102.5 296 205"><defs/><g><g id="cell-oOu39tjR-YF0TBfccq2Z-125" layer="Symbol"><ellipse cx="0" cy="0" rx="96" ry="96" fill="none" stroke="rgb(0, 0, 0)" pointer-events="all" transform="translate(0 0)"/></g><g id="cell-mzvdPyqCJ3TTrmNESO2I-1" layer="Symbol"><path fill="none" stroke="rgb(0, 0, 0)" pointer-events="all" d="M -96 -96 L 96 -96 L 96 96 L -96 96 z"/></g><g id="cell-KxhEPSacwSea6hoKKvoZ-0" layer="Symbol"><path d="M -96 0 L 96 0" fill="none" stroke="rgb(0, 0, 0)" stroke-miterlimit="10" pointer-events="stroke"/></g><g id="cell--DYwszTSwNFMpsB35kvL-0" content="&lt;object label=&quot;Connection&quot; PipingConnector=&quot;N&quot; LabelConnector=&quot;N&quot; SignalConnector=&quot;Y&quot; Direction=&quot;180&quot; AuxiliaryConnector=&quot;Y&quot;/&gt;" data-label="Connection" data-PipingConnector="N" data-LabelConnector="N" data-SignalConnector="Y" data-Direction="180" data-AuxiliaryConnector="Y" layer="Symbol"><path d="M -102 0 C -102 -3.30999755859375 -99.30999755859375 -6 -96 -6 C -92.69000244140625 -6 -90 -3.30999755859375 -90 0 C -90 3.30999755859375 -92.69000244140625 6 -96 6 C -99.30999755859375 6 -102 3.30999755859375 -102 0" fill="none" stroke="#008000" stroke-miterlimit="10" pointer-events="all"/></g><g id="cell--DYwszTSwNFMpsB35kvL-2" content="&lt;object label=&quot;Connection&quot; PipingConnector=&quot;N&quot; LabelConnector=&quot;N&quot; SignalConnector=&quot;Y&quot; Direction=&quot;90&quot; AuxiliaryConnector=&quot;Y&quot;/&gt;" data-label="Connection" data-PipingConnector="N" data-LabelConnector="N" data-SignalConnector="Y" data-Direction="90" data-AuxiliaryConnector="Y" layer="Connection"><path d="M -6 96 C -6 92.69000244140625 -3.30999755859375 90 0 90 C 3.30999755859375 90 6 92.69000244140625 6 96 C 6 99.30999755859375 3.30999755859375 102 0 102 C -3.30999755859375 102 -6 99.30999755859375 -6 96" fill="none" stroke="#008000" stroke-miterlimit="10" pointer-events="all"/></g><g id="cell--DYwszTSwNFMpsB35kvL-3" content="&lt;object label=&quot;Connection&quot; PipingConnector=&quot;N&quot; LabelConnector=&quot;N&quot; SignalConnector=&quot;Y&quot; Direction=&quot;0&quot; AuxiliaryConnector=&quot;Y&quot;/&gt;" data-label="Connection" data-PipingConnector="N" data-LabelConnector="N" data-SignalConnector="Y" data-Direction="0" data-AuxiliaryConnector="Y" layer="Connection"><path d="M 90 0 C 90 -3.30999755859375 92.69000244140625 -6 96 -6 C 99.30999755859375 -6 102 -3.30999755859375 102 0 C 102 3.30999755859375 99.30999755859375 6 96 6 C 92.69000244140625 6 90 3.30999755859375 90 0" fill="none" stroke="#008000" stroke-miterlimit="10" pointer-events="all"/></g><g id="cell--DYwszTSwNFMpsB35kvL-4" content="&lt;object label=&quot;Connection&quot; PipingConnector=&quot;N&quot; LabelConnector=&quot;N&quot; SignalConnector=&quot;Y&quot; Direction=&quot;270&quot; AuxiliaryConnector=&quot;Y&quot;/&gt;" data-label="Connection" data-PipingConnector="N" data-LabelConnector="N" data-SignalConnector="Y" data-Direction="270" data-AuxiliaryConnector="Y" layer="Connection"><path d="M -6 -96 C -6 -99.30999755859375 -3.30999755859375 -102 0 -102 C 3.30999755859375 -102 6 -99.30999755859375 6 -96 C 6 -92.69000244140625 3.30999755859375 -90 0 -90 C -3.30999755859375 -90 -6 -92.69000244140625 -6 -96" fill="none" stroke="#008000" stroke-miterlimit="10" pointer-events="all"/></g><g id="cell-oOu39tjR-YF0TBfccq2Z-134" content="&lt;object label=&quot;%LabelIndex%&amp;amp;nbsp; &amp;amp;nbsp; &amp;amp;nbsp; &amp;amp;nbsp; &amp;amp;nbsp; &amp;amp;nbsp;%LabelLines%&quot; placeholders=&quot;1&quot; LabelLines=&quot;1&quot; LabelIndex=&quot;A&quot;/&gt;" data-label="%LabelIndex%&amp;nbsp; &amp;nbsp; &amp;nbsp; &amp;nbsp; &amp;nbsp; &amp;nbsp;%LabelLines%" data-placeholders="1" data-LabelLines="1" data-LabelIndex="A" layer="Label"><path fill="none" stroke="#ff0000" pointer-events="all" d="M -193 -96 L -113 -96 L -113 -80 L -193 -80 z"/><g><text x="2" y="17" fill="#FF0000" font-family="Helvetica" font-size="10px" transform="translate(-193 -102) translate(-0.5 -0.5)">A           1</text></g></g><g id="cell-oOu39tjR-YF0TBfccq2Z-135" content="&lt;object label=&quot;%LabelIndex%&amp;amp;nbsp; &amp;amp;nbsp; &amp;amp;nbsp; &amp;amp;nbsp; &amp;amp;nbsp; &amp;amp;nbsp;%LabelLines%&quot; placeholders=&quot;1&quot; LabelLines=&quot;1&quot; LabelIndex=&quot;B&quot;/&gt;" data-label="%LabelIndex%&amp;nbsp; &amp;nbsp; &amp;nbsp; &amp;nbsp; &amp;nbsp; &amp;nbsp;%LabelLines%" data-placeholders="1" data-LabelLines="1" data-LabelIndex="B" layer="Label"><path fill="none" stroke="#ff0000" pointer-events="all" d="M -40 -48 L 40 -48 L 40 -32 L -40 -32 z"/><g><text x="155" y="65" fill="#FF0000" font-family="Helvetica" font-size="10px" transform="translate(-193 -102) translate(-0.5 -0.5)">B           1</text></g></g><g id="cell-oOu39tjR-YF0TBfccq2Z-136" content="&lt;object label=&quot;%LabelIndex%&amp;amp;nbsp; &amp;amp;nbsp; &amp;amp;nbsp; &amp;amp;nbsp; &amp;amp;nbsp; &amp;amp;nbsp;%LabelLines%&quot; placeholders=&quot;1&quot; LabelLines=&quot;1&quot; LabelIndex=&quot;C&quot;/&gt;" data-label="%LabelIndex%&amp;nbsp; &amp;nbsp; &amp;nbsp; &amp;nbsp; &amp;nbsp; &amp;nbsp;%LabelLines%" data-placeholders="1" data-LabelLines="1" data-LabelIndex="C" layer="Label"><path fill="none" stroke="#ff0000" pointer-events="all" d="M -40 32 L 40 32 L 40 48 L -40 48 z"/><g><text x="155" y="145" fill="#FF0000" font-family="Helvetica" font-size="10px" transform="translate(-193 -102) translate(-0.5 -0.5)">C           1</text></g></g><g id="cell-oOu39tjR-YF0TBfccq2Z-138" content="&lt;object label=&quot;origo&quot; Rotation=&quot;&quot; ScaleX=&quot;&quot; ScaleY=&quot;&quot;/&gt;" data-label="origo" data-Rotation="" data-ScaleX="" data-ScaleY="" layer="Origo"><path d="M -6.25 0 C -6.25 -3.4499969482421875 -3.4499969482421875 -6.25 0 -6.25 C 3.4499969482421875 -6.25 6.25 -3.4499969482421875 6.25 0 C 6.25 3.4499969482421875 3.4499969482421875 6.25 0 6.25 C -3.4499969482421875 6.25 -6.25 3.4499969482421875 -6.25 0" fill="none" stroke="#ff0000" stroke-miterlimit="10" pointer-events="all"/></g></g></svg>