<?xml version="1.0" encoding="UTF-8"?><!DOCTYPE svg PUBLIC "-//W3C//DTD SVG 1.1//EN" "http://www.w3.org/Graphics/SVG/1.1/DTD/svg11.dtd"><svg xmlns="http://www.w3.org/2000/svg" xmlns:xlink="http://www.w3.org/1999/xlink" version="1.1" width="205px" height="129px" viewBox="-6.40219 -4.03094 12.8125 8.0625"><defs vector-effect="non-scaling-stroke"/><g><g id="cell-7BvuQ1wFKm2BExs7mEzO-0" layer="Symbol"><path fill="none" stroke="rgb(0, 0, 0)" pointer-events="all" d="M -5.995937347412109 -3.999687671661377 L 6.004062652587891 -3.999687671661377 L 6.004062652587891 4.000312328338623 L -5.995937347412109 4.000312328338623 z" vector-effect="non-scaling-stroke"/></g><g id="cell-7BvuQ1wFKm2BExs7mEzO-5" layer="Symbol"><path d="M -5.995937347412109 0.0003123283386230469 L -1.9959373474121094 0.0003123283386230469" fill="none" stroke="rgb(0, 0, 0)" stroke-miterlimit="10" pointer-events="stroke" vector-effect="non-scaling-stroke"/></g><g id="cell-7BvuQ1wFKm2BExs7mEzO-6" layer="Symbol"><path d="M -3.9959373474121094 0.0003123283386230469 L -2.9959373474121094 -2.999687671661377" fill="none" stroke="rgb(0, 0, 0)" stroke-miterlimit="10" pointer-events="stroke" vector-effect="non-scaling-stroke"/></g><g id="cell-7BvuQ1wFKm2BExs7mEzO-7" layer="Symbol"><path d="M -2.9959373474121094 -2.999687671661377 L 0.5040626525878906 3.000312328338623" fill="none" stroke="rgb(0, 0, 0)" stroke-miterlimit="10" pointer-events="stroke" vector-effect="non-scaling-stroke"/></g><g id="cell-7BvuQ1wFKm2BExs7mEzO-8" layer="Symbol"><path d="M 0.5040626525878906 3.000312328338623 L 2.0040626525878906 0.0003123283386230469" fill="none" stroke="rgb(0, 0, 0)" stroke-miterlimit="10" pointer-events="stroke" vector-effect="non-scaling-stroke"/></g><g id="cell-7BvuQ1wFKm2BExs7mEzO-14" layer="Symbol"><path d="M -1.9959373474121094 0.0003123283386230469 L -0.9959373474121094 -2.999687671661377" fill="none" stroke="rgb(0, 0, 0)" stroke-miterlimit="10" pointer-events="stroke" vector-effect="non-scaling-stroke"/></g><g id="cell-7BvuQ1wFKm2BExs7mEzO-15" layer="Symbol"><path d="M -0.9959373474121094 -2.999687671661377 L 2.5040626525878906 3.000312328338623" fill="none" stroke="rgb(0, 0, 0)" stroke-miterlimit="10" pointer-events="stroke" vector-effect="non-scaling-stroke"/></g><g id="cell-7BvuQ1wFKm2BExs7mEzO-16" layer="Symbol"><path d="M 2.5040626525878906 3.000312328338623 L 4.004062652587891 0.0003123283386230469" fill="none" stroke="rgb(0, 0, 0)" stroke-miterlimit="10" pointer-events="stroke" vector-effect="non-scaling-stroke"/></g><g id="cell-7BvuQ1wFKm2BExs7mEzO-17" layer="Symbol"><path d="M 2.0040626525878906 -0.0059375762939453125 L 6.004062652587891 -0.0059375762939453125" fill="none" stroke="rgb(0, 0, 0)" stroke-miterlimit="10" pointer-events="stroke" vector-effect="non-scaling-stroke"/></g><g id="cell-ghxMztDACuWbekmF2jji-129" content="&lt;object label=&quot;Connection&quot; PipingConnector=&quot;Y&quot; LabelConnector=&quot;N&quot; SignalConnector=&quot;N&quot; Direction=&quot;0&quot; AuxiliaryConnector=&quot;N&quot;/&gt;" data-label="Connection" data-PipingConnector="Y" data-LabelConnector="N" data-SignalConnector="N" data-Direction="0" data-AuxiliaryConnector="N" layer="Connection"><path d="M 5.629062652587891 0.0003123283386230469 C 5.629062652587891 -0.20656275749206543 5.797187805175781 -0.37468767166137695 6.004062652587891 -0.37468767166137695 C 6.2109375 -0.37468767166137695 6.379062652587891 -0.20656275749206543 6.379062652587891 0.0003123283386230469 C 6.379062652587891 0.20718717575073242 6.2109375 0.37531232833862305 6.004062652587891 0.37531232833862305 C 5.797187805175781 0.37531232833862305 5.629062652587891 0.20718717575073242 5.629062652587891 0.0003123283386230469" fill="none" stroke="#00ff00" stroke-miterlimit="10" pointer-events="all" vector-effect="non-scaling-stroke"/></g><g id="cell-ghxMztDACuWbekmF2jji-130" content="&lt;object label=&quot;Connection&quot; PipingConnector=&quot;Y&quot; LabelConnector=&quot;N&quot; SignalConnector=&quot;N&quot; Direction=&quot;270&quot; AuxiliaryConnector=&quot;N&quot;/&gt;" data-label="Connection" data-PipingConnector="Y" data-LabelConnector="N" data-SignalConnector="N" data-Direction="270" data-AuxiliaryConnector="N" layer="Connection"><path d="M -6.370937347412109 0.0003123283386230469 C -6.370937347412109 -0.20656275749206543 -6.202812194824219 -0.37468767166137695 -5.995937347412109 -0.37468767166137695 C -5.7890625 -0.37468767166137695 -5.620937347412109 -0.20656275749206543 -5.620937347412109 0.0003123283386230469 C -5.620937347412109 0.20718717575073242 -5.7890625 0.37531232833862305 -5.995937347412109 0.37531232833862305 C -6.202812194824219 0.37531232833862305 -6.370937347412109 0.20718717575073242 -6.370937347412109 0.0003123283386230469" fill="none" stroke="#00ff00" stroke-miterlimit="10" pointer-events="all" vector-effect="non-scaling-stroke"/></g><g id="cell-ghxMztDACuWbekmF2jji-138" content="&lt;object label=&quot;origo&quot;/&gt;" data-label="origo" layer="Origo"><path d="M -0.24593734741210938 -0.00031256675720214844 C -0.24593734741210938 -0.13593769073486328 -0.13593721389770508 -0.24593758583068848 0.00031280517578125 -0.24593758583068848 C 0.13593769073486328 -0.24593758583068848 0.24593782424926758 -0.13593769073486328 0.24593782424926758 -0.00031256675720214844 C 0.24593782424926758 0.13593721389770508 0.13593769073486328 0.24593734741210938 0.00031280517578125 0.24593734741210938 C -0.13593721389770508 0.24593734741210938 -0.24593734741210938 0.13593721389770508 -0.24593734741210938 -0.00031256675720214844" fill="none" stroke="#ff0000" stroke-miterlimit="10" pointer-events="all" vector-effect="non-scaling-stroke"/></g></g></svg>