<?xml version="1.0" encoding="UTF-8"?><!DOCTYPE svg PUBLIC "-//W3C//DTD SVG 1.1//EN" "http://www.w3.org/Graphics/SVG/1.1/DTD/svg11.dtd"><svg xmlns="http://www.w3.org/2000/svg" xmlns:xlink="http://www.w3.org/1999/xlink" version="1.1" width="205px" height="68px" viewBox="-198.435 -32.435 205 68"><defs/><g><g id="cell-jstzb9-jNweRadbk4aqs-125" layer="Symbol"><path d="M -47.93499755859375 -15.934999465942383 L 0.06500244140625 0.06500053405761719 L -47.93499755859375 16.065000534057617 Z" fill="#000000" stroke="rgb(0, 0, 0)" stroke-miterlimit="10" pointer-events="all"/></g><g id="cell-8_dzSsTyCsE6NcApi0Qt-1" layer="Symbol"><path d="M -191.93499755859375 34.06500244140625 L -191.93499755859375 -31.934999465942383" fill="none" stroke="rgb(0, 0, 0)" stroke-miterlimit="10" pointer-events="stroke"/></g><g id="cell-8_dzSsTyCsE6NcApi0Qt-2" layer="Symbol"><path d="M -47.93499755859375 0.06500053405761719 L -191.93499755859375 0.06500053405761719" fill="none" stroke="rgb(0, 0, 0)" stroke-miterlimit="10" pointer-events="stroke"/></g><g id="cell-8_dzSsTyCsE6NcApi0Qt-3" layer="Connection"><path d="M -191.73500061035156 0.2650012969970703 L -191.93499755859375 -0.9349994659423828" fill="none" stroke="rgb(0, 0, 0)" stroke-miterlimit="10" pointer-events="stroke"/></g><g id="cell-8_dzSsTyCsE6NcApi0Qt-4" content="&lt;object label=&quot;Connection&quot; PipingConnector=&quot;Y&quot; LabelConnector=&quot;N&quot; SignalConnector=&quot;N&quot; Direction=&quot;270&quot; AuxiliaryConnector=&quot;N&quot;/&gt;" data-label="Connection" data-PipingConnector="Y" data-LabelConnector="N" data-SignalConnector="N" data-Direction="270" data-AuxiliaryConnector="N" layer="Connection"><path d="M -197.93499755859375 0.06500053405761719 C -197.93499755859375 -3.2449989318847656 -195.2449951171875 -5.934999465942383 -191.93499755859375 -5.934999465942383 C -188.625 -5.934999465942383 -185.93499755859375 -3.2449989318847656 -185.93499755859375 0.06500053405761719 C -185.93499755859375 3.375001907348633 -188.625 6.065000534057617 -191.93499755859375 6.065000534057617 C -195.2449951171875 6.065000534057617 -197.93499755859375 3.375001907348633 -197.93499755859375 0.06500053405761719" fill="none" stroke="#00ff00" stroke-miterlimit="10" pointer-events="all"/></g><g id="cell-8_dzSsTyCsE6NcApi0Qt-5" content="&lt;object label=&quot;Connection&quot; PipingConnector=&quot;Y&quot; LabelConnector=&quot;N&quot; SignalConnector=&quot;N&quot; Direction=&quot;0&quot; AuxiliaryConnector=&quot;N&quot;/&gt;" data-label="Connection" data-PipingConnector="Y" data-LabelConnector="N" data-SignalConnector="N" data-Direction="0" data-AuxiliaryConnector="N" layer="Connection"><path d="M -5.93499755859375 0.06500053405761719 C -5.93499755859375 -3.2449989318847656 -3.2449951171875 -5.934999465942383 0.06500244140625 -5.934999465942383 C 3.375 -5.934999465942383 6.06500244140625 -3.2449989318847656 6.06500244140625 0.06500053405761719 C 6.06500244140625 3.375001907348633 3.375 6.065000534057617 0.06500244140625 6.065000534057617 C -3.2449951171875 6.065000534057617 -5.93499755859375 3.375001907348633 -5.93499755859375 0.06500053405761719" fill="none" stroke="#00ff00" stroke-miterlimit="10" pointer-events="all"/></g><g id="cell-jstzb9-jNweRadbk4aqs-134" content="&lt;object label=&quot;origo&quot;/&gt;" data-label="origo" layer="Origo"><path d="M -3.93499755859375 -0.0049991607666015625 C -3.93499755859375 -2.174999237060547 -2.1750030517578125 -3.934999465942383 0.0050048828125 -3.934999465942383 C 2.1750030517578125 -3.934999465942383 3.93499755859375 -2.174999237060547 3.93499755859375 -0.0049991607666015625 C 3.93499755859375 2.1750011444091797 2.1750030517578125 3.934999465942383 0.0050048828125 3.934999465942383 C -2.1750030517578125 3.934999465942383 -3.93499755859375 2.1750011444091797 -3.93499755859375 -0.0049991607666015625" fill="none" stroke="#ff0000" stroke-miterlimit="10" pointer-events="all"/></g></g></svg>