<?xml version="1.0" encoding="UTF-8"?><!DOCTYPE svg PUBLIC "-//W3C//DTD SVG 1.1//EN" "http://www.w3.org/Graphics/SVG/1.1/DTD/svg11.dtd"><svg xmlns="http://www.w3.org/2000/svg" xmlns:xlink="http://www.w3.org/1999/xlink" version="1.1" width="71px" height="81px" viewBox="-32.495 -40.505 71 81"><defs/><g><g id="cell-EqSPUjtx4HxgIxos4H8V-125" content="&lt;object label=&quot;Connection&quot; PipingConnector=&quot;Y&quot; LabelConnector=&quot;N&quot; SignalConnector=&quot;N&quot; Direction=&quot;0&quot; AuxiliaryConnector=&quot;N&quot;/&gt;" data-label="Connection" data-PipingConnector="Y" data-LabelConnector="N" data-SignalConnector="N" data-Direction="0" data-AuxiliaryConnector="N" layer="Connection"><path d="M 26.005001068115234 -0.00499725341796875 C 26.005001068115234 -3.3149986267089844 28.69499969482422 -6.004997253417969 32.005001068115234 -6.004997253417969 C 35.314998626708984 -6.004997253417969 38.005001068115234 -3.3149986267089844 38.005001068115234 -0.00499725341796875 C 38.005001068115234 3.305004119873047 35.314998626708984 5.995002746582031 32.005001068115234 5.995002746582031 C 28.69499969482422 5.995002746582031 26.005001068115234 3.305004119873047 26.005001068115234 -0.00499725341796875" fill="none" stroke="#00ff00" stroke-miterlimit="10" pointer-events="all"/></g><g id="cell-EqSPUjtx4HxgIxos4H8V-126" content="&lt;object label=&quot;Connection&quot; PipingConnector=&quot;Y&quot; LabelConnector=&quot;N&quot; SignalConnector=&quot;N&quot; Direction=&quot;90;270&quot; AuxiliaryConnector=&quot;N&quot;/&gt;" data-label="Connection" data-PipingConnector="Y" data-LabelConnector="N" data-SignalConnector="N" data-Direction="90;270" data-AuxiliaryConnector="N" layer="Connection"><path d="M -5.994998931884766 -0.00499725341796875 C -5.994998931884766 -3.3149986267089844 -3.3049983978271484 -6.004997253417969 0.005001068115234375 -6.004997253417969 C 3.31500244140625 -6.004997253417969 6.005001068115234 -3.3149986267089844 6.005001068115234 -0.00499725341796875 C 6.005001068115234 3.305004119873047 3.31500244140625 5.995002746582031 0.005001068115234375 5.995002746582031 C -3.3049983978271484 5.995002746582031 -5.994998931884766 3.305004119873047 -5.994998931884766 -0.00499725341796875" fill="none" stroke="#00ff00" stroke-miterlimit="10" pointer-events="all"/></g><g id="cell-6juR_MmleAO2GvptiUV3-0" content="&lt;object label=&quot;%LabelIndex%&amp;amp;nbsp; &amp;amp;nbsp; &amp;amp;nbsp; &amp;amp;nbsp; &amp;amp;nbsp; &amp;amp;nbsp;%LabelLines%&quot; placeholders=&quot;1&quot; LabelLines=&quot;1&quot; LabelIndex=&quot;A&quot;/&gt;" data-label="%LabelIndex%&amp;nbsp; &amp;nbsp; &amp;nbsp; &amp;nbsp; &amp;nbsp; &amp;nbsp;%LabelLines%" data-placeholders="1" data-LabelLines="1" data-LabelIndex="A" layer="Label"><path fill="none" stroke="#ff0000" pointer-events="all" d="M -31.994998931884766 39.99500274658203 L -31.994998931884766 -40.00499725341797 L -15.994998931884766 -40.00499725341797 L -15.994998931884766 39.99500274658203 z"/><g><text x="8" y="81" fill="#FF0000" font-family="Helvetica" font-size="10px" transform="translate(-31.995 -40.005) translate(-0.5 -0.5) rotate(-90 8 78)">A           1</text></g></g><g id="cell-EqSPUjtx4HxgIxos4H8V-133" content="&lt;object label=&quot;origo&quot;/&gt;" data-label="origo" layer="Origo"><path d="M -3.934999465942383 -0.00499725341796875 C -3.934999465942383 -2.1749954223632812 -2.174999237060547 -3.93499755859375 0.005001068115234375 -3.93499755859375 C 2.174999237060547 -3.93499755859375 3.9350013732910156 -2.1749954223632812 3.9350013732910156 -0.00499725341796875 C 3.9350013732910156 2.1750030517578125 2.174999237060547 3.9350013732910156 0.005001068115234375 3.9350013732910156 C -2.174999237060547 3.9350013732910156 -3.934999465942383 2.1750030517578125 -3.934999465942383 -0.00499725341796875" fill="none" stroke="#ff0000" stroke-miterlimit="10" pointer-events="all"/></g><g id="cell-EqSPUjtx4HxgIxos4H8V-136" layer="Symbol"><path d="M 0.005001068115234375 -0.00499725341796875 L 32.005001068115234 -0.00499725341796875" fill="none" stroke="rgb(0, 0, 0)" stroke-miterlimit="10" pointer-events="stroke"/></g></g></svg>