<?xml version="1.0" encoding="UTF-8"?><!DOCTYPE svg PUBLIC "-//W3C//DTD SVG 1.1//EN" "http://www.w3.org/Graphics/SVG/1.1/DTD/svg11.dtd"><svg xmlns="http://www.w3.org/2000/svg" xmlns:xlink="http://www.w3.org/1999/xlink" version="1.1" width="205px" height="68px" viewBox="-6.5 -32.5 205 68"><defs/><g><g id="cell-gaW19up7ZJIIjGlyos_E-126" layer="Symbol"><path d="M 192 34 L 192 -32" fill="none" stroke="rgb(0, 0, 0)" stroke-miterlimit="10" pointer-events="stroke"/></g><g id="cell-fOm7b_rWqb0DYR7UxOsR-0" layer="Symbol"><path d="M 192 0 L 0 0" fill="none" stroke="rgb(0, 0, 0)" stroke-miterlimit="10" pointer-events="stroke"/></g><g id="cell-gaW19up7ZJIIjGlyos_E-129" layer="Connection"><path d="M 0 0 L 0 -1" fill="none" stroke="rgb(0, 0, 0)" stroke-miterlimit="10" pointer-events="stroke"/></g><g id="cell-gaW19up7ZJIIjGlyos_E-130" content="&lt;object label=&quot;Connection&quot; PipingConnector=&quot;Y&quot; LabelConnector=&quot;N&quot; SignalConnector=&quot;N&quot; Direction=&quot;270&quot; AuxiliaryConnector=&quot;N&quot;/&gt;" data-label="Connection" data-PipingConnector="Y" data-LabelConnector="N" data-SignalConnector="N" data-Direction="270" data-AuxiliaryConnector="N" layer="Connection"><path d="M -6 0 C -6 -3.309999465942383 -3.309999942779541 -6 0 -6 C 3.310000419616699 -6 6 -3.309999465942383 6 0 C 6 3.3100013732910156 3.310000419616699 6 0 6 C -3.309999942779541 6 -6 3.3100013732910156 -6 0" fill="none" stroke="#008000" stroke-miterlimit="10" pointer-events="all"/></g><g id="cell-gaW19up7ZJIIjGlyos_E-131" content="&lt;object label=&quot;Connection&quot; PipingConnector=&quot;Y&quot; LabelConnector=&quot;N&quot; SignalConnector=&quot;N&quot; Direction=&quot;0&quot; AuxiliaryConnector=&quot;N&quot;/&gt;" data-label="Connection" data-PipingConnector="Y" data-LabelConnector="N" data-SignalConnector="N" data-Direction="0" data-AuxiliaryConnector="N" layer="Connection"><path d="M 186 0 C 186 -3.309999465942383 188.69000244140625 -6 192 -6 C 195.30999755859375 -6 198 -3.309999465942383 198 0 C 198 3.3100013732910156 195.30999755859375 6 192 6 C 188.69000244140625 6 186 3.3100013732910156 186 0" fill="none" stroke="#008000" stroke-miterlimit="10" pointer-events="all"/></g><g id="cell-gaW19up7ZJIIjGlyos_E-138" content="&lt;object label=&quot;origo&quot;/&gt;" data-label="origo" layer="Origo"><path d="M -6 0 C -6 -3.309999465942383 -3.309999942779541 -6 0 -6 C 3.310000419616699 -6 6 -3.309999465942383 6 0 C 6 3.3100013732910156 3.310000419616699 6 0 6 C -3.309999942779541 6 -6 3.3100013732910156 -6 0" fill="none" stroke="#ff0000" stroke-miterlimit="10" pointer-events="all"/></g></g></svg>