<?xml version="1.0" encoding="UTF-8"?><!DOCTYPE svg PUBLIC "-//W3C//DTD SVG 1.1//EN" "http://www.w3.org/Graphics/SVG/1.1/DTD/svg11.dtd"><svg xmlns="http://www.w3.org/2000/svg" xmlns:xlink="http://www.w3.org/1999/xlink" version="1.1" width="173px" height="77px" viewBox="-86.5 -38.5 173 77"><defs/><g><g id="cell-Eagw4QfEwXUNtg0F8ZJQ-125" content="&lt;object label=&quot;Connection&quot; PipingConnector=&quot;N&quot; LabelConnector=&quot;N&quot; SignalConnector=&quot;Y&quot; Direction=&quot;90&quot; AuxiliaryConnector=&quot;N&quot;/&gt;" data-label="Connection" data-PipingConnector="N" data-LabelConnector="N" data-SignalConnector="Y" data-Direction="90" data-AuxiliaryConnector="N" layer="Connection"><path d="M -6 32 C -6 28.69000244140625 -3.30999755859375 26 0 26 C 3.30999755859375 26 6 28.69000244140625 6 32 C 6 35.30999755859375 3.30999755859375 38 0 38 C -3.30999755859375 38 -6 35.30999755859375 -6 32" fill="none" stroke="#008000" stroke-miterlimit="10" pointer-events="all"/></g><g id="cell-Eagw4QfEwXUNtg0F8ZJQ-126" content="&lt;object label=&quot;Connection&quot; PipingConnector=&quot;N&quot; LabelConnector=&quot;N&quot; SignalConnector=&quot;Y&quot; Direction=&quot;270&quot; AuxiliaryConnector=&quot;N&quot;/&gt;" data-label="Connection" data-PipingConnector="N" data-LabelConnector="N" data-SignalConnector="Y" data-Direction="270" data-AuxiliaryConnector="N" layer="Connection"><path d="M -6 -32 C -6 -35.310001373291016 -3.30999755859375 -38 0 -38 C 3.30999755859375 -38 6 -35.310001373291016 6 -32 C 6 -28.689998626708984 3.30999755859375 -26 0 -26 C -3.30999755859375 -26 -6 -28.689998626708984 -6 -32" fill="none" stroke="#008000" stroke-miterlimit="10" pointer-events="all"/></g><g id="cell-Zi6h3DBu_DKGfgOVb61Q-0" content="&lt;object label=&quot;Connection&quot; PipingConnector=&quot;N&quot; LabelConnector=&quot;N&quot; SignalConnector=&quot;Y&quot; Direction=&quot;0&quot; AuxiliaryConnector=&quot;N&quot;/&gt;" data-label="Connection" data-PipingConnector="N" data-LabelConnector="N" data-SignalConnector="Y" data-Direction="0" data-AuxiliaryConnector="N" layer="Connection"><path d="M 74 0 C 74 -3.3100013732910156 76.69000244140625 -6 80 -6 C 83.30999755859375 -6 86 -3.3100013732910156 86 0 C 86 3.3100013732910156 83.30999755859375 6 80 6 C 76.69000244140625 6 74 3.3100013732910156 74 0" fill="none" stroke="#008000" stroke-miterlimit="10" pointer-events="all"/></g><g id="cell-Zi6h3DBu_DKGfgOVb61Q-1" content="&lt;object label=&quot;Connection&quot; PipingConnector=&quot;N&quot; LabelConnector=&quot;N&quot; SignalConnector=&quot;Y&quot; Direction=&quot;180&quot; AuxiliaryConnector=&quot;N&quot;/&gt;" data-label="Connection" data-PipingConnector="N" data-LabelConnector="N" data-SignalConnector="Y" data-Direction="180" data-AuxiliaryConnector="N" layer="Connection"><path d="M -86 0 C -86 -3.3100013732910156 -83.30999755859375 -6 -80 -6 C -76.69000244140625 -6 -74 -3.3100013732910156 -74 0 C -74 3.3100013732910156 -76.69000244140625 6 -80 6 C -83.30999755859375 6 -86 3.3100013732910156 -86 0" fill="none" stroke="#008000" stroke-miterlimit="10" pointer-events="all"/></g><g id="cell-Eagw4QfEwXUNtg0F8ZJQ-132" content="&lt;object label=&quot;%LabelIndex%&amp;amp;nbsp; &amp;amp;nbsp; &amp;amp;nbsp; &amp;amp;nbsp; &amp;amp;nbsp; &amp;amp;nbsp;%LabelLines%&quot; placeholders=&quot;1&quot; LabelLines=&quot;1&quot; LabelIndex=&quot;A&quot;/&gt;" data-label="%LabelIndex%&amp;nbsp; &amp;nbsp; &amp;nbsp; &amp;nbsp; &amp;nbsp; &amp;nbsp;%LabelLines%" data-placeholders="1" data-LabelLines="1" data-LabelIndex="A" layer="Label"><path fill="none" stroke="#ff0000" pointer-events="all" d="M -36 -8 L 44 -8 L 44 8 L -36 8 z"/><g><text x="52" y="41" fill="#FF0000" font-family="Helvetica" font-size="10px" transform="translate(-86 -38) translate(-0.5 -0.5)">A           1</text></g></g><g id="cell-Eagw4QfEwXUNtg0F8ZJQ-134" content="&lt;object label=&quot;origo&quot;/&gt;" data-label="origo" layer="Origo"><path d="M -6 0 C -6 -3.3100013732910156 -3.30999755859375 -6 0 -6 C 3.30999755859375 -6 6 -3.3100013732910156 6 0 C 6 3.3100013732910156 3.30999755859375 6 0 6 C -3.30999755859375 6 -6 3.3100013732910156 -6 0" fill="none" stroke="#ff0000" stroke-miterlimit="10" pointer-events="all"/></g><g id="cell-Eagw4QfEwXUNtg0F8ZJQ-136" layer="Symbol"><path fill="none" stroke="rgb(0, 0, 0)" pointer-events="all" d="M -80 -32 L 80 -32 L 80 32 L -80 32 z"/></g></g></svg>