<?xml version="1.0" encoding="UTF-8"?><!DOCTYPE svg PUBLIC "-//W3C//DTD SVG 1.1//EN" "http://www.w3.org/Graphics/SVG/1.1/DTD/svg11.dtd"><svg xmlns="http://www.w3.org/2000/svg" xmlns:xlink="http://www.w3.org/1999/xlink" version="1.1" width="103px" height="167px" viewBox="-2.02719 -6.02719 6.4375 10.4375"><defs vector-effect="non-scaling-stroke"/><g><g id="cell-NGd-z_g-m5v9OcJDIR9X-125" layer="Symbol"><path d="M -1.995937466621399 4.004062652587891 L 0.004062533378601074 0.004062652587890625 L 2.0040626525878906 4.004062652587891 Z" fill="#000000" stroke="rgb(0, 0, 0)" stroke-miterlimit="10" pointer-events="all" vector-effect="non-scaling-stroke"/></g><g id="cell-NGd-z_g-m5v9OcJDIR9X-126" layer="Symbol"><path d="M 4.004062652587891 -1.9959373474121094 L 0.004062533378601074 0.004062652587890625 L 4.004062652587891 2.0040626525878906 Z" fill="#000000" stroke="rgb(0, 0, 0)" stroke-miterlimit="10" pointer-events="all" vector-effect="non-scaling-stroke"/></g><g id="cell-NGd-z_g-m5v9OcJDIR9X-127" layer="Symbol"><path d="M 0.004062533378601074 0.004062652587890625 L 0.004062533378601074 -5.995937347412109" fill="none" stroke="rgb(0, 0, 0)" stroke-miterlimit="10" pointer-events="stroke" vector-effect="non-scaling-stroke"/></g><g id="cell-xTRoZUs08kHD9xQhaLxZ-0" layer="Symbol"><path d="M -1.245937466621399 -0.9959373474121094 L 1.629062533378601 -3.8709373474121094" fill="none" stroke="rgb(0, 0, 0)" stroke-miterlimit="10" pointer-events="stroke" vector-effect="non-scaling-stroke"/></g><g id="cell-xTRoZUs08kHD9xQhaLxZ-1" layer="Symbol"><path d="M -0.9959374666213989 -2.4959373474121094 L 1.129062533378601 -4.620937347412109" fill="none" stroke="rgb(0, 0, 0)" stroke-miterlimit="10" pointer-events="stroke" vector-effect="non-scaling-stroke"/></g><g id="cell-xTRoZUs08kHD9xQhaLxZ-2" layer="Symbol"><path d="M -0.6209374666213989 -3.9959373474121094 L 0.6290625333786011 -5.245937347412109" fill="none" stroke="rgb(0, 0, 0)" stroke-miterlimit="10" pointer-events="stroke" vector-effect="non-scaling-stroke"/></g><g id="cell-NGd-z_g-m5v9OcJDIR9X-129" content="&lt;object label=&quot;Connection&quot; PipingConnector=&quot;Y&quot; LabelConnector=&quot;N&quot; SignalConnector=&quot;N&quot; Direction=&quot;0&quot; AuxiliaryConnector=&quot;N&quot;/&gt;" data-label="Connection" data-PipingConnector="Y" data-LabelConnector="N" data-SignalConnector="N" data-Direction="0" data-AuxiliaryConnector="N" layer="Connection"><path d="M 3.6290626525878906 0.004062652587890625 C 3.6290626525878906 -0.20281219482421875 3.7971878051757812 -0.3709373474121094 4.004062652587891 -0.3709373474121094 C 4.2109375 -0.3709373474121094 4.379062652587891 -0.20281219482421875 4.379062652587891 0.004062652587890625 C 4.379062652587891 0.2109375 4.2109375 0.3790626525878906 4.004062652587891 0.3790626525878906 C 3.7971878051757812 0.3790626525878906 3.6290626525878906 0.2109375 3.6290626525878906 0.004062652587890625" fill="none" stroke="#00ff00" stroke-miterlimit="10" pointer-events="all" vector-effect="non-scaling-stroke"/></g><g id="cell-NGd-z_g-m5v9OcJDIR9X-130" content="&lt;object label=&quot;Connection&quot; PipingConnector=&quot;Y&quot; LabelConnector=&quot;N&quot; SignalConnector=&quot;N&quot; Direction=&quot;90&quot; AuxiliaryConnector=&quot;N&quot;/&gt;" data-label="Connection" data-PipingConnector="Y" data-LabelConnector="N" data-SignalConnector="N" data-Direction="90" data-AuxiliaryConnector="N" layer="Connection"><path d="M -0.3709374666213989 4.004062652587891 C -0.3709374666213989 3.7971878051757812 -0.20281243324279785 3.6290626525878906 0.004062533378601074 3.6290626525878906 C 0.21093761920928955 3.6290626525878906 0.3790625333786011 3.7971878051757812 0.3790625333786011 4.004062652587891 C 0.3790625333786011 4.2109375 0.21093761920928955 4.379062652587891 0.004062533378601074 4.379062652587891 C -0.20281243324279785 4.379062652587891 -0.3709374666213989 4.2109375 -0.3709374666213989 4.004062652587891" fill="none" stroke="#00ff00" stroke-miterlimit="10" pointer-events="all" vector-effect="non-scaling-stroke"/></g><g id="cell-NGd-z_g-m5v9OcJDIR9X-138" content="&lt;object label=&quot;origo&quot;/&gt;" data-label="origo" layer="Origo"><path d="M -0.24593746662139893 -0.0003123283386230469 C -0.24593746662139893 -0.13593721389770508 -0.13593745231628418 -0.24593734741210938 0.00031256675720214844 -0.24593734741210938 C 0.13593757152557373 -0.24593734741210938 0.24593746662139893 -0.13593721389770508 0.24593746662139893 -0.0003123283386230469 C 0.24593746662139893 0.13593769073486328 0.13593757152557373 0.24593782424926758 0.00031256675720214844 0.24593782424926758 C -0.13593745231628418 0.24593782424926758 -0.24593746662139893 0.13593769073486328 -0.24593746662139893 -0.0003123283386230469" fill="none" stroke="#ff0000" stroke-miterlimit="10" pointer-events="all" vector-effect="non-scaling-stroke"/></g></g></svg>