<?xml version="1.0" encoding="UTF-8"?><!DOCTYPE svg PUBLIC "-//W3C//DTD SVG 1.1//EN" "http://www.w3.org/Graphics/SVG/1.1/DTD/svg11.dtd"><svg xmlns="http://www.w3.org/2000/svg" xmlns:xlink="http://www.w3.org/1999/xlink" version="1.1" width="77px" height="66px" viewBox="-0.402187 -2.02719 4.8125 4.125"><defs vector-effect="non-scaling-stroke"/><g><g id="cell-22vkG-h5v2N9dKBLQ-ZE-125" content="&lt;object label=&quot;Connection&quot; PipingConnector=&quot;Y&quot; LabelConnector=&quot;N&quot; SignalConnector=&quot;N&quot; Direction=&quot;180&quot; AuxiliaryConnector=&quot;N&quot;/&gt;" data-label="Connection" data-PipingConnector="Y" data-LabelConnector="N" data-SignalConnector="N" data-Direction="180" data-AuxiliaryConnector="N" layer="Connection"><path d="M -0.3709374964237213 0.004062533378601074 C -0.3709374964237213 -0.20281243324279785 -0.20281249284744263 -0.3709374666213989 0.0040625035762786865 -0.3709374666213989 C 0.2109375298023224 -0.3709374666213989 0.3790625035762787 -0.20281243324279785 0.3790625035762787 0.004062533378601074 C 0.3790625035762787 0.21093761920928955 0.2109375298023224 0.3790625333786011 0.0040625035762786865 0.3790625333786011 C -0.20281249284744263 0.3790625333786011 -0.3709374964237213 0.21093761920928955 -0.3709374964237213 0.004062533378601074" fill="none" stroke="#00ff00" stroke-miterlimit="10" pointer-events="all" vector-effect="non-scaling-stroke"/></g><g id="cell-j2nrvzxkZ3BnKDXGnb-E-3" content="&lt;object label=&quot;Connection&quot; PipingConnector=&quot;Y&quot; LabelConnector=&quot;Y&quot; SignalConnector=&quot;Y&quot; Direction=&quot;315-45&quot; AuxiliaryConnector=&quot;N&quot;/&gt;" data-label="Connection" data-PipingConnector="Y" data-LabelConnector="Y" data-SignalConnector="Y" data-Direction="315-45" data-AuxiliaryConnector="N" layer="Connection"><path d="M 3.6290624141693115 0.004062533378601074 C 3.6290624141693115 -0.20281243324279785 3.797187566757202 -0.3709374666213989 4.004062652587891 -0.3709374666213989 C 4.2109375 -0.3709374666213989 4.379062652587891 -0.20281243324279785 4.379062652587891 0.004062533378601074 C 4.379062652587891 0.21093761920928955 4.2109375 0.3790625333786011 4.004062652587891 0.3790625333786011 C 3.797187566757202 0.3790625333786011 3.6290624141693115 0.21093761920928955 3.6290624141693115 0.004062533378601074" fill="none" stroke="#00ff00" stroke-miterlimit="10" pointer-events="all" vector-effect="non-scaling-stroke"/></g><g id="cell-22vkG-h5v2N9dKBLQ-ZE-137" content="&lt;object label=&quot;origo&quot;/&gt;" data-label="origo" layer="Origo"><path d="M -0.2459374964237213 -0.00031244754791259766 C -0.2459374964237213 -0.13593745231628418 -0.13593749701976776 -0.24593746662139893 0.00031250715255737305 -0.24593746662139893 C 0.13593748211860657 -0.24593746662139893 0.2459374964237213 -0.13593745231628418 0.2459374964237213 -0.00031244754791259766 C 0.2459374964237213 0.13593757152557373 0.13593748211860657 0.24593746662139893 0.00031250715255737305 0.24593746662139893 C -0.13593749701976776 0.24593746662139893 -0.2459374964237213 0.13593757152557373 -0.2459374964237213 -0.00031244754791259766" fill="none" stroke="#ff0000" stroke-miterlimit="10" pointer-events="all" vector-effect="non-scaling-stroke"/></g><g id="cell-j2nrvzxkZ3BnKDXGnb-E-0" layer="Symbol"><path d="M 0.0040625035762786865 0.004062533378601074 L 4.004062652587891 0.004062533378601074" fill="none" stroke="rgb(0, 0, 0)" stroke-miterlimit="10" pointer-events="stroke" vector-effect="non-scaling-stroke"/></g><g id="cell-j2nrvzxkZ3BnKDXGnb-E-1" layer="Symbol"><path d="M 4.004062652587891 2.0040626525878906 L 4.004062652587891 -1.995937466621399" fill="none" stroke="rgb(0, 0, 0)" stroke-miterlimit="10" pointer-events="stroke" vector-effect="non-scaling-stroke"/></g></g></svg>