<?xml version="1.0" encoding="UTF-8"?><!DOCTYPE svg PUBLIC "-//W3C//DTD SVG 1.1//EN" "http://www.w3.org/Graphics/SVG/1.1/DTD/svg11.dtd"><svg xmlns="http://www.w3.org/2000/svg" xmlns:xlink="http://www.w3.org/1999/xlink" version="1.1" width="61px" height="33px" viewBox="-54.5 -16.5 61 33"><defs/><g><g id="cell-BCcmFvAbc4Agi9Vzn4Tp-125" layer="Symbol"><path d="M -48 -16 L 0 0 L -48 16 Z" fill="#000000" stroke="rgb(0, 0, 0)" stroke-miterlimit="10" pointer-events="all"/></g><g id="cell-BCcmFvAbc4Agi9Vzn4Tp-130" content="&lt;object label=&quot;Connection&quot; PipingConnector=&quot;Y&quot; LabelConnector=&quot;N&quot; SignalConnector=&quot;N&quot; Direction=&quot;270&quot; AuxiliaryConnector=&quot;N&quot;/&gt;" data-label="Connection" data-PipingConnector="Y" data-LabelConnector="N" data-SignalConnector="N" data-Direction="270" data-AuxiliaryConnector="N" layer="Connection"><path d="M -54 0 C -54 -3.310000419616699 -51.310001373291016 -6 -48 -6 C -44.689998626708984 -6 -42 -3.310000419616699 -42 0 C -42 3.309999465942383 -44.689998626708984 6 -48 6 C -51.310001373291016 6 -54 3.309999465942383 -54 0" fill="none" stroke="#008000" stroke-miterlimit="10" pointer-events="all"/></g><g id="cell-BCcmFvAbc4Agi9Vzn4Tp-138" content="&lt;object label=&quot;origo&quot;/&gt;" data-label="origo" layer="Origo"><path d="M -6 0 C -6 -3.310000419616699 -3.3100013732910156 -6 0 -6 C 3.3100013732910156 -6 6 -3.310000419616699 6 0 C 6 3.309999465942383 3.3100013732910156 6 0 6 C -3.3100013732910156 6 -6 3.309999465942383 -6 0" fill="none" stroke="#ff0000" stroke-miterlimit="10" pointer-events="all"/></g></g></svg>