<?xml version="1.0" encoding="UTF-8"?><!DOCTYPE svg PUBLIC "-//W3C//DTD SVG 1.1//EN" "http://www.w3.org/Graphics/SVG/1.1/DTD/svg11.dtd"><svg xmlns="http://www.w3.org/2000/svg" xmlns:xlink="http://www.w3.org/1999/xlink" version="1.1" width="241px" height="353px" viewBox="-0.031313 -0.031313 15.0929 22.107"><defs vector-effect="non-scaling-stroke"/><g><g id="cell-LgfQOALBtSMDCI_zHHA_-1" layer="Symbol"><path fill="none" stroke="none" pointer-events="all" d="M 1.4896973371505737 17.473268508911133 L 4.960784912109375 19.4773006439209 L 4.0213942527771 21.104373931884766 L 0.5503067374229431 19.100339889526367 z" vector-effect="non-scaling-stroke"/><g><text x="44" y="321" fill="rgb(0, 0, 0)" font-family="Lucida Console" font-size="42px" text-anchor="middle" font-weight="bold" transform="scale(0.062626 0.062626) translate(-0.5 -0.5) rotate(30 44 308)" vector-effect="non-scaling-stroke">S</text></g></g><g id="cell-LgfQOALBtSMDCI_zHHA_-3" layer="Symbol"><path d="M 7.765629291534424 10.646427154541016 L 11.289596557617188 4.490913391113281" fill="none" stroke="rgb(0, 0, 0)" stroke-miterlimit="10" pointer-events="stroke" vector-effect="non-scaling-stroke"/></g><g id="cell-f6TOfVWz0VC5qWiPb5dJ-3" content="&lt;object label=&quot;origo&quot;/&gt;" data-label="origo" layer="Symbol"><path d="M 7.640377044677734 10.863369941711426 C 7.520515441894531 10.794168472290039 7.479484558105469 10.641036033630371 7.5486860275268555 10.521175384521484 C 7.6178879737854 10.401314735412598 7.771019458770752 10.360281944274902 7.890881061553955 10.429484367370605 C 8.010743141174316 10.498685836791992 8.051774024963379 10.65181827545166 7.982572078704834 10.771678924560547 C 7.913370132446289 10.891539573669434 7.7602386474609375 10.932572364807129 7.640377044677734 10.863369941711426" fill="none" stroke="#ff0000" stroke-miterlimit="10" pointer-events="all" vector-effect="non-scaling-stroke"/></g><g id="cell-LgfQOALBtSMDCI_zHHA_-4" layer="Symbol"><path d="M 3.7744715213775635 17.55345344543457 L 7.765629291534424 10.646427154541016" fill="none" stroke="rgb(0, 0, 0)" stroke-miterlimit="10" pointer-events="stroke" vector-effect="non-scaling-stroke"/></g><g id="cell-H_hsnOgvmmw8vlDFuwdq-0" layer="Symbol"><path fill="none" stroke="#000000" pointer-events="all" d="M 2.0389277935028076 16.55126190185547 L 5.51001501083374 18.5552921295166 L 3.505981922149658 22.02638053894043 L 0.03489445149898529 20.02234649658203 z" vector-effect="non-scaling-stroke"/></g><g id="cell-H_hsnOgvmmw8vlDFuwdq-1" layer="Symbol"><path fill="none" stroke="none" pointer-events="all" d="M 11.008855819702148 0.9399930238723755 L 14.47994327545166 2.944026470184326 L 13.540553092956543 4.571098327636719 L 10.069464683532715 2.5670652389526367 z" vector-effect="non-scaling-stroke"/><g><text x="196" y="57" fill="rgb(0, 0, 0)" font-family="Lucida Console" font-size="42px" text-anchor="middle" font-weight="bold" transform="scale(0.062626 0.062626) translate(-0.5 -0.5) rotate(30 196 44)" vector-effect="non-scaling-stroke">S</text></g></g><g id="cell-H_hsnOgvmmw8vlDFuwdq-2" layer="Symbol"><path fill="none" stroke="#000000" pointer-events="all" d="M 11.558086395263672 0.01798538863658905 L 15.029173851013184 2.0220186710357666 L 13.025140762329102 5.493106365203857 L 9.55405330657959 3.4890730381011963 z" vector-effect="non-scaling-stroke"/></g></g></svg>