<?xml version="1.0" encoding="UTF-8"?><!DOCTYPE svg PUBLIC "-//W3C//DTD SVG 1.1//EN" "http://www.w3.org/Graphics/SVG/1.1/DTD/svg11.dtd"><svg xmlns="http://www.w3.org/2000/svg" xmlns:xlink="http://www.w3.org/1999/xlink" version="1.1" width="161px" height="221px" viewBox="-7.03094 -13.4059 10.0625 13.8125"><defs vector-effect="non-scaling-stroke"/><g><g id="cell-0Z7Euv1iOjBeARqL6lf6-125" content="&lt;object label=&quot;Connection&quot; PipingConnector=&quot;N&quot; LabelConnector=&quot;N&quot; SignalConnector=&quot;N&quot; Direction=&quot;90&quot; AuxiliaryConnector=&quot;Y&quot;/&gt;" data-label="Connection" data-PipingConnector="N" data-LabelConnector="N" data-SignalConnector="N" data-Direction="90" data-AuxiliaryConnector="Y" layer="Connection"><path d="M -0.37468719482421875 0.00031280517578125 C -0.37468719482421875 -0.20656204223632812 -0.20656204223632812 -0.37468719482421875 0.00031280517578125 -0.37468719482421875 C 0.20718765258789062 -0.37468719482421875 0.37531280517578125 -0.20656204223632812 0.37531280517578125 0.00031280517578125 C 0.37531280517578125 0.20718765258789062 0.20718765258789062 0.37531280517578125 0.00031280517578125 0.37531280517578125 C -0.20656204223632812 0.37531280517578125 -0.37468719482421875 0.20718765258789062 -0.37468719482421875 0.00031280517578125" fill="none" stroke="#00ff00" stroke-miterlimit="10" pointer-events="all" vector-effect="non-scaling-stroke"/></g><g id="cell-vE1TTy3x12R6GTV-R7Ch-1" content="&lt;object label=&quot;Connection&quot; PipingConnector=&quot;N&quot; LabelConnector=&quot;N&quot; SignalConnector=&quot;Y&quot; Direction=&quot;270&quot;/&gt;" data-label="Connection" data-PipingConnector="N" data-LabelConnector="N" data-SignalConnector="Y" data-Direction="270" layer="Connection"><path d="M -0.37468719482421875 -12.999687194824219 C -0.37468719482421875 -13.206562042236328 -0.20656204223632812 -13.374687194824219 0.00031280517578125 -13.374687194824219 C 0.20718765258789062 -13.374687194824219 0.37531280517578125 -13.206562042236328 0.37531280517578125 -12.999687194824219 C 0.37531280517578125 -12.79281234741211 0.20718765258789062 -12.624687194824219 0.00031280517578125 -12.624687194824219 C -0.20656204223632812 -12.624687194824219 -0.37468719482421875 -12.79281234741211 -0.37468719482421875 -12.999687194824219" fill="none" stroke="#00ff00" stroke-miterlimit="10" pointer-events="all" vector-effect="non-scaling-stroke"/></g><g id="cell-0Z7Euv1iOjBeARqL6lf6-132" content="&lt;object label=&quot;%LabelIndex%&amp;amp;nbsp; &amp;amp;nbsp; &amp;amp;nbsp; &amp;amp;nbsp; &amp;amp;nbsp; &amp;amp;nbsp;%LabelLines%&quot; placeholders=&quot;1&quot; LabelLines=&quot;1&quot; LabelIndex=&quot;B&quot;/&gt;" data-label="%LabelIndex%&amp;nbsp; &amp;nbsp; &amp;nbsp; &amp;nbsp; &amp;nbsp; &amp;nbsp;%LabelLines%" data-placeholders="1" data-LabelLines="1" data-LabelIndex="B" layer="Label"><path fill="none" stroke="#ff0000" pointer-events="all" d="M -6.999687194824219 -6.999687194824219 L -1.9996871948242188 -6.999687194824219 L -1.9996871948242188 -5.999687194824219 L -6.999687194824219 -5.999687194824219 z" vector-effect="non-scaling-stroke"/><g><text x="2" y="113" fill="#FF0000" font-family="Helvetica" font-size="10px" transform="scale(0.0625 0.0625) translate(-111.995 -213.995) translate(-0.5 -0.5)" vector-effect="non-scaling-stroke">B           1</text></g></g><g id="cell-0Z7Euv1iOjBeARqL6lf6-133" content="&lt;object label=&quot;%LabelIndex%&amp;amp;nbsp; &amp;amp;nbsp; &amp;amp;nbsp; &amp;amp;nbsp; &amp;amp;nbsp; &amp;amp;nbsp;%LabelLines%&quot; placeholders=&quot;1&quot; LabelLines=&quot;1&quot; LabelIndex=&quot;A&quot;/&gt;" data-label="%LabelIndex%&amp;nbsp; &amp;nbsp; &amp;nbsp; &amp;nbsp; &amp;nbsp; &amp;nbsp;%LabelLines%" data-placeholders="1" data-LabelLines="1" data-LabelIndex="A" layer="Label"><path fill="none" stroke="#ff0000" pointer-events="all" d="M -2.4371871948242188 -10.499687194824219 L 2.5628128051757812 -10.499687194824219 L 2.5628128051757812 -9.499687194824219 L -2.4371871948242188 -9.499687194824219 z" vector-effect="non-scaling-stroke"/><g><text x="75" y="57" fill="#FF0000" font-family="Helvetica" font-size="10px" transform="scale(0.0625 0.0625) translate(-111.995 -213.995) translate(-0.5 -0.5)" vector-effect="non-scaling-stroke">A           1</text></g></g><g id="cell-0Z7Euv1iOjBeARqL6lf6-135" content="&lt;object label=&quot;origo&quot;/&gt;" data-label="origo" layer="Origo"><path d="M -0.24593734741210938 -0.00031185150146484375 C -0.24593734741210938 -0.13593673706054688 -0.13593721389770508 -0.24593734741210938 0.00031280517578125 -0.24593734741210938 C 0.13593769073486328 -0.24593734741210938 0.24593782424926758 -0.13593673706054688 0.24593782424926758 -0.00031185150146484375 C 0.24593782424926758 0.13593769073486328 0.13593769073486328 0.24593734741210938 0.00031280517578125 0.24593734741210938 C -0.13593721389770508 0.24593734741210938 -0.24593734741210938 0.13593769073486328 -0.24593734741210938 -0.00031185150146484375" fill="none" stroke="#ff0000" stroke-miterlimit="10" pointer-events="all" vector-effect="non-scaling-stroke"/></g><g id="cell-0Z7Euv1iOjBeARqL6lf6-137" layer="Symbol"><ellipse cx="0" cy="0" rx="3" ry="3" fill="none" stroke="rgb(0, 0, 0)" pointer-events="all" transform="translate(0.000312805 -9.99969)" vector-effect="non-scaling-stroke"/></g><g id="cell-NWP20wVnBHUxS9ftFeqk-0" layer="Symbol"><path d="M 0.00031280517578125 0.00031280517578125 L 0.00031280517578125 -6.999687194824219" fill="none" stroke="rgb(0, 0, 0)" stroke-miterlimit="10" pointer-events="stroke" vector-effect="non-scaling-stroke"/></g></g></svg>