<?xml version="1.0" encoding="UTF-8"?><!DOCTYPE svg PUBLIC "-//W3C//DTD SVG 1.1//EN" "http://www.w3.org/Graphics/SVG/1.1/DTD/svg11.dtd"><svg xmlns="http://www.w3.org/2000/svg" xmlns:xlink="http://www.w3.org/1999/xlink" version="1.1" width="161px" height="221px" viewBox="-112.5 -214.5 161 221"><defs/><g><g id="cell-0Z7Euv1iOjBeARqL6lf6-125" content="&lt;object label=&quot;Connection&quot; PipingConnector=&quot;N&quot; LabelConnector=&quot;N&quot; SignalConnector=&quot;N&quot; Direction=&quot;90&quot; AuxiliaryConnector=&quot;Y&quot;/&gt;" data-label="Connection" data-PipingConnector="N" data-LabelConnector="N" data-SignalConnector="N" data-Direction="90" data-AuxiliaryConnector="Y" layer="Connection"><path d="M -6 0 C -6 -3.30999755859375 -3.30999755859375 -6 0 -6 C 3.30999755859375 -6 6 -3.30999755859375 6 0 C 6 3.30999755859375 3.30999755859375 6 0 6 C -3.30999755859375 6 -6 3.30999755859375 -6 0" fill="none" stroke="#008000" stroke-miterlimit="10" pointer-events="all"/></g><g id="cell-vE1TTy3x12R6GTV-R7Ch-1" content="&lt;object label=&quot;Connection&quot; PipingConnector=&quot;N&quot; LabelConnector=&quot;N&quot; SignalConnector=&quot;Y&quot; Direction=&quot;270&quot; AuxiliaryConnector=&quot;N&quot;/&gt;" data-label="Connection" data-PipingConnector="N" data-LabelConnector="N" data-SignalConnector="Y" data-Direction="270" data-AuxiliaryConnector="N" layer="Connection"><path d="M -6 -208 C -6 -211.30999755859375 -3.30999755859375 -214 0 -214 C 3.30999755859375 -214 6 -211.30999755859375 6 -208 C 6 -204.69000244140625 3.30999755859375 -202 0 -202 C -3.30999755859375 -202 -6 -204.69000244140625 -6 -208" fill="none" stroke="#008000" stroke-miterlimit="10" pointer-events="all"/></g><g id="cell-0Z7Euv1iOjBeARqL6lf6-132" content="&lt;object label=&quot;%LabelIndex%&amp;amp;nbsp; &amp;amp;nbsp; &amp;amp;nbsp; &amp;amp;nbsp; &amp;amp;nbsp; &amp;amp;nbsp;%LabelLines%&quot; placeholders=&quot;1&quot; LabelLines=&quot;1&quot; LabelIndex=&quot;B&quot;/&gt;" data-label="%LabelIndex%&amp;nbsp; &amp;nbsp; &amp;nbsp; &amp;nbsp; &amp;nbsp; &amp;nbsp;%LabelLines%" data-placeholders="1" data-LabelLines="1" data-LabelIndex="B" layer="Label"><path fill="none" stroke="#ff0000" pointer-events="all" d="M -112 -112 L -32 -112 L -32 -96 L -112 -96 z"/><g><text x="2" y="113" fill="#FF0000" font-family="Helvetica" font-size="10px" transform="translate(-112 -214) translate(-0.5 -0.5)">B           1</text></g></g><g id="cell-0Z7Euv1iOjBeARqL6lf6-133" content="&lt;object label=&quot;%LabelIndex%&amp;amp;nbsp; &amp;amp;nbsp; &amp;amp;nbsp; &amp;amp;nbsp; &amp;amp;nbsp; &amp;amp;nbsp;%LabelLines%&quot; placeholders=&quot;1&quot; LabelLines=&quot;1&quot; LabelIndex=&quot;A&quot;/&gt;" data-label="%LabelIndex%&amp;nbsp; &amp;nbsp; &amp;nbsp; &amp;nbsp; &amp;nbsp; &amp;nbsp;%LabelLines%" data-placeholders="1" data-LabelLines="1" data-LabelIndex="A" layer="Label"><path fill="none" stroke="#ff0000" pointer-events="all" d="M -39 -168 L 41 -168 L 41 -152 L -39 -152 z"/><g><text x="75" y="57" fill="#FF0000" font-family="Helvetica" font-size="10px" transform="translate(-112 -214) translate(-0.5 -0.5)">A           1</text></g></g><g id="cell-0Z7Euv1iOjBeARqL6lf6-135" content="&lt;object label=&quot;origo&quot;/&gt;" data-label="origo" layer="Origo"><path d="M -6 0 C -6 -3.30999755859375 -3.30999755859375 -6 0 -6 C 3.30999755859375 -6 6 -3.30999755859375 6 0 C 6 3.30999755859375 3.30999755859375 6 0 6 C -3.30999755859375 6 -6 3.30999755859375 -6 0" fill="none" stroke="#ff0000" stroke-miterlimit="10" pointer-events="all"/></g><g id="cell-0Z7Euv1iOjBeARqL6lf6-137" layer="Symbol"><ellipse cx="0" cy="0" rx="48" ry="48" fill="none" stroke="rgb(0, 0, 0)" pointer-events="all" transform="translate(0 -160)"/></g><g id="cell-NWP20wVnBHUxS9ftFeqk-0" layer="Symbol"><path d="M 0 0 L 0 -112" fill="none" stroke="rgb(0, 0, 0)" stroke-miterlimit="10" pointer-events="stroke"/></g></g></svg>