<?xml version="1.0" encoding="UTF-8"?><!DOCTYPE svg PUBLIC "-//W3C//DTD SVG 1.1//EN" "http://www.w3.org/Graphics/SVG/1.1/DTD/svg11.dtd"><svg xmlns="http://www.w3.org/2000/svg" xmlns:xlink="http://www.w3.org/1999/xlink" version="1.1" width="81px" height="97px" viewBox="-40.5 -31.5 81 97"><defs/><g><g id="cell-b17cYRabdl2ee6YxQxif-125" content="&lt;object label=&quot;Connection&quot; PipingConnector=&quot;Y&quot; LabelConnector=&quot;N&quot; SignalConnector=&quot;N&quot; Direction=&quot;0&quot; AuxiliaryConnector=&quot;N&quot;/&gt;" data-label="Connection" data-PipingConnector="Y" data-LabelConnector="N" data-SignalConnector="N" data-Direction="0" data-AuxiliaryConnector="N" layer="Connection"><path d="M 26 1 C 26 -2.309999465942383 28.69000244140625 -5 32 -5 C 35.30999755859375 -5 38 -2.309999465942383 38 1 C 38 4.310001373291016 35.30999755859375 7 32 7 C 28.69000244140625 7 26 4.310001373291016 26 1" fill="none" stroke="#008000" stroke-miterlimit="10" pointer-events="all"/></g><g id="cell-b17cYRabdl2ee6YxQxif-126" content="&lt;object label=&quot;Connection&quot; PipingConnector=&quot;Y&quot; LabelConnector=&quot;N&quot; SignalConnector=&quot;N&quot; Direction=&quot;180&quot; AuxiliaryConnector=&quot;N&quot;/&gt;" data-label="Connection" data-PipingConnector="Y" data-LabelConnector="N" data-SignalConnector="N" data-Direction="180" data-AuxiliaryConnector="N" layer="Connection"><path d="M -38 1 C -38 -2.309999465942383 -35.310001373291016 -5 -32 -5 C -28.689998626708984 -5 -26 -2.309999465942383 -26 1 C -26 4.310001373291016 -28.689998626708984 7 -32 7 C -35.310001373291016 7 -38 4.310001373291016 -38 1" fill="none" stroke="#008000" stroke-miterlimit="10" pointer-events="all"/></g><g id="cell-b17cYRabdl2ee6YxQxif-132" content="&lt;object label=&quot;%LabelIndex%&amp;amp;nbsp; &amp;amp;nbsp; &amp;amp;nbsp; &amp;amp;nbsp; &amp;amp;nbsp; &amp;amp;nbsp;%LabelLines%&quot; placeholders=&quot;1&quot; LabelLines=&quot;1&quot; LabelIndex=&quot;A&quot;/&gt;" data-label="%LabelIndex%&amp;nbsp; &amp;nbsp; &amp;nbsp; &amp;nbsp; &amp;nbsp; &amp;nbsp;%LabelLines%" data-placeholders="1" data-LabelLines="1" data-LabelIndex="A" layer="Label"><path fill="none" stroke="#ff0000" pointer-events="all" d="M -40 49 L 40 49 L 40 65 L -40 65 z"/><g><text x="2" y="91" fill="#FF0000" font-family="Helvetica" font-size="10px" transform="translate(-40 -31) translate(-0.5 -0.5)">A           1</text></g></g><g id="cell-b17cYRabdl2ee6YxQxif-134" content="&lt;object label=&quot;origo&quot;/&gt;" data-label="origo" layer="Origo"><path d="M -6 0 C -6 -3.309999465942383 -3.3100013732910156 -6 0 -6 C 3.3100013732910156 -6 6 -3.309999465942383 6 0 C 6 3.3100013732910156 3.3100013732910156 6 0 6 C -3.3100013732910156 6 -6 3.3100013732910156 -6 0" fill="none" stroke="#ff0000" stroke-miterlimit="10" pointer-events="all"/></g><g id="cell-zvCvbpzx3JxP-t3c3I3o-1" layer="Symbol"><path d="M 32 17 L 32 -15" fill="none" stroke="rgb(0, 0, 0)" stroke-miterlimit="10" pointer-events="stroke"/></g><g id="cell-zvCvbpzx3JxP-t3c3I3o-2" layer="Symbol"><path d="M -32 33 L -32 -31" fill="none" stroke="rgb(0, 0, 0)" stroke-miterlimit="10" pointer-events="stroke"/></g><g id="cell-zvCvbpzx3JxP-t3c3I3o-3" layer="Symbol"><path d="M 32 -15 L -32 -31" fill="none" stroke="rgb(0, 0, 0)" stroke-miterlimit="10" pointer-events="stroke"/></g><g id="cell-zvCvbpzx3JxP-t3c3I3o-4" layer="Symbol"><path d="M 32 17 L -32 33" fill="none" stroke="rgb(0, 0, 0)" stroke-miterlimit="10" pointer-events="stroke"/></g></g></svg>