<?xml version="1.0" encoding="UTF-8"?><!DOCTYPE svg PUBLIC "-//W3C//DTD SVG 1.1//EN" "http://www.w3.org/Graphics/SVG/1.1/DTD/svg11.dtd"><svg xmlns="http://www.w3.org/2000/svg" xmlns:xlink="http://www.w3.org/1999/xlink" version="1.1" width="269px" height="272px" viewBox="-16.8373 -15.9606 33.6909 34.0667"><defs vector-effect="non-scaling-stroke"/><g><g id="cell-FXZ0acjRom5HCQV_QIXH-125" content="&lt;object label=&quot;Connection&quot; PipingConnector=&quot;Y&quot; LabelConnector=&quot;N&quot; SignalConnector=&quot;N&quot; Direction=&quot;0&quot; AuxiliaryConnector=&quot;N&quot;/&gt;" data-label="Connection" data-PipingConnector="Y" data-LabelConnector="N" data-SignalConnector="N" data-Direction="0" data-AuxiliaryConnector="N" layer="Connection"><path d="M 15.288043022155762 -8.00754451751709 C 15.288043022155762 -8.42210578918457 15.62495231628418 -8.759015083312988 16.039512634277344 -8.759015083312988 C 16.45407485961914 -8.759015083312988 16.790983200073242 -8.42210578918457 16.790983200073242 -8.00754451751709 C 16.790983200073242 -7.592983722686768 16.45407485961914 -7.25607442855835 16.039512634277344 -7.25607442855835 C 15.62495231628418 -7.25607442855835 15.288043022155762 -7.592983722686768 15.288043022155762 -8.00754451751709" fill="none" stroke="#00ff00" stroke-miterlimit="10" pointer-events="all" vector-effect="non-scaling-stroke"/></g><g id="cell-FXZ0acjRom5HCQV_QIXH-126" content="&lt;object label=&quot;Connection&quot; PipingConnector=&quot;Y&quot; LabelConnector=&quot;N&quot; SignalConnector=&quot;N&quot; Direction=&quot;180&quot; AuxiliaryConnector=&quot;N&quot;/&gt;" data-label="Connection" data-PipingConnector="Y" data-LabelConnector="N" data-SignalConnector="N" data-Direction="180" data-AuxiliaryConnector="N" layer="Connection"><path d="M -16.774702072143555 -8.00754451751709 C -16.774702072143555 -8.42210578918457 -16.43779182434082 -8.759015083312988 -16.023231506347656 -8.759015083312988 C -15.608670234680176 -8.759015083312988 -15.271759986877441 -8.42210578918457 -15.271759986877441 -8.00754451751709 C -15.271759986877441 -7.592983722686768 -15.608670234680176 -7.25607442855835 -16.023231506347656 -7.25607442855835 C -16.43779182434082 -7.25607442855835 -16.774702072143555 -7.592983722686768 -16.774702072143555 -8.00754451751709" fill="none" stroke="#00ff00" stroke-miterlimit="10" pointer-events="all" vector-effect="non-scaling-stroke"/></g><g id="cell-lfd4ERR9KzfVwueqH8c_-7" content="&lt;object label=&quot;Connection&quot; PipingConnector=&quot;Y&quot; LabelConnector=&quot;N&quot; SignalConnector=&quot;N&quot; Direction=&quot;0&quot; AuxiliaryConnector=&quot;N&quot;/&gt;" data-label="Connection" data-PipingConnector="Y" data-LabelConnector="N" data-SignalConnector="N" data-Direction="0" data-AuxiliaryConnector="N" layer="Connection"><path d="M 15.288043022155762 8.02382755279541 C 15.288043022155762 7.60926628112793 15.62495231628418 7.2723565101623535 16.039512634277344 7.2723565101623535 C 16.45407485961914 7.2723565101623535 16.790983200073242 7.60926628112793 16.790983200073242 8.02382755279541 C 16.790983200073242 8.438387870788574 16.45407485961914 8.775298118591309 16.039512634277344 8.775298118591309 C 15.62495231628418 8.775298118591309 15.288043022155762 8.438387870788574 15.288043022155762 8.02382755279541" fill="none" stroke="#00ff00" stroke-miterlimit="10" pointer-events="all" vector-effect="non-scaling-stroke"/></g><g id="cell-lfd4ERR9KzfVwueqH8c_-8" content="&lt;object label=&quot;Connection&quot; PipingConnector=&quot;Y&quot; LabelConnector=&quot;N&quot; SignalConnector=&quot;N&quot; Direction=&quot;180&quot; AuxiliaryConnector=&quot;N&quot;/&gt;" data-label="Connection" data-PipingConnector="Y" data-LabelConnector="N" data-SignalConnector="N" data-Direction="180" data-AuxiliaryConnector="N" layer="Connection"><path d="M -16.774702072143555 8.02382755279541 C -16.774702072143555 7.60926628112793 -16.43779182434082 7.2723565101623535 -16.023231506347656 7.2723565101623535 C -15.608670234680176 7.2723565101623535 -15.271759986877441 7.60926628112793 -15.271759986877441 8.02382755279541 C -15.271759986877441 8.438387870788574 -15.608670234680176 8.775298118591309 -16.023231506347656 8.775298118591309 C -16.43779182434082 8.775298118591309 -16.774702072143555 8.438387870788574 -16.774702072143555 8.02382755279541" fill="none" stroke="#00ff00" stroke-miterlimit="10" pointer-events="all" vector-effect="non-scaling-stroke"/></g><g id="cell-FXZ0acjRom5HCQV_QIXH-132" content="&lt;object label=&quot;%LabelIndex%&amp;amp;nbsp; &amp;amp;nbsp; &amp;amp;nbsp; &amp;amp;nbsp; &amp;amp;nbsp; &amp;amp;nbsp;%LabelLines%&quot; placeholders=&quot;1&quot; LabelLines=&quot;1&quot; LabelIndex=&quot;A&quot;/&gt;" data-label="%LabelIndex%&amp;nbsp; &amp;nbsp; &amp;nbsp; &amp;nbsp; &amp;nbsp; &amp;nbsp;%LabelLines%" data-placeholders="1" data-LabelLines="1" data-LabelIndex="A" layer="Label"><path fill="none" stroke="#ff0000" pointer-events="all" d="M -5.001662731170654 16.039512634277344 L 5.017944812774658 16.039512634277344 L 5.017944812774658 18.043434143066406 L -5.001662731170654 18.043434143066406 z" vector-effect="non-scaling-stroke"/><g><text x="96" y="266" fill="#FF0000" font-family="Helvetica" font-size="10px" transform="scale(0.125245 0.125245) translate(-133.935 -126.935) translate(-0.5 -0.5)" vector-effect="non-scaling-stroke">A           1</text></g></g><g id="cell-FXZ0acjRom5HCQV_QIXH-134" content="&lt;object label=&quot;origo&quot;/&gt;" data-label="origo" layer="Origo"><path d="M -0.49283912777900696 -0.0006258814828470349 C -0.49283912777900696 -0.27240750193595886 -0.27240845561027527 -0.49283912777900696 0.0006268370198085904 -0.49283912777900696 C 0.27240845561027527 -0.49283912777900696 0.49283912777900696 -0.27240750193595886 0.49283912777900696 -0.0006258814828470349 C 0.49283912777900696 0.27240845561027527 0.27240845561027527 0.49283912777900696 0.0006268370198085904 0.49283912777900696 C -0.27240845561027527 0.49283912777900696 -0.49283912777900696 0.27240845561027527 -0.49283912777900696 -0.0006258814828470349" fill="none" stroke="#ff0000" stroke-miterlimit="10" pointer-events="all" vector-effect="non-scaling-stroke"/></g><g id="cell-lfd4ERR9KzfVwueqH8c_-0" layer="Symbol"><path fill="none" stroke="rgb(0, 0, 0)" pointer-events="all" d="M -16.023231506347656 -15.897985458374023 L -14.019309043884277 -15.897985458374023 L -14.019309043884277 16.039512634277344 L -16.023231506347656 16.039512634277344 z" vector-effect="non-scaling-stroke"/></g><g id="cell-lfd4ERR9KzfVwueqH8c_-1" layer="Symbol"><path fill="none" stroke="rgb(0, 0, 0)" pointer-events="all" d="M 14.035592079162598 -15.897985458374023 L 16.039512634277344 -15.897985458374023 L 16.039512634277344 16.039512634277344 L 14.035592079162598 16.039512634277344 z" vector-effect="non-scaling-stroke"/></g><g id="cell-lfd4ERR9KzfVwueqH8c_-2" layer="Symbol"><path d="M -14.019309043884277 -12.015387535095215 L 14.035592079162598 -12.140632629394531" fill="none" stroke="rgb(0, 0, 0)" stroke-miterlimit="10" pointer-events="stroke" vector-effect="non-scaling-stroke"/></g><g id="cell-lfd4ERR9KzfVwueqH8c_-3" layer="Symbol"><path d="M -13.975473403930664 12.00536823272705 L 14.045611381530762 11.920202255249023" fill="none" stroke="rgb(0, 0, 0)" stroke-miterlimit="10" pointer-events="stroke" vector-effect="non-scaling-stroke"/></g><g id="cell-lfd4ERR9KzfVwueqH8c_-4" layer="Symbol"><path d="M -14.019309043884277 -7.913610935211182 L 14.035592079162598 8.05513858795166" fill="none" stroke="rgb(0, 0, 0)" stroke-miterlimit="10" stroke-dasharray="3 3" pointer-events="stroke" vector-effect="non-scaling-stroke"/></g><g id="cell-lfd4ERR9KzfVwueqH8c_-5" layer="Symbol"><path d="M -14.019309043884277 8.05513858795166 L 14.035592079162598 -7.913610935211182" fill="none" stroke="rgb(0, 0, 0)" stroke-miterlimit="10" stroke-dasharray="3 3" pointer-events="stroke" vector-effect="non-scaling-stroke"/></g></g></svg>