<?xml version="1.0" encoding="UTF-8"?><!DOCTYPE svg PUBLIC "-//W3C//DTD SVG 1.1//EN" "http://www.w3.org/Graphics/SVG/1.1/DTD/svg11.dtd"><svg xmlns="http://www.w3.org/2000/svg" xmlns:xlink="http://www.w3.org/1999/xlink" version="1.1" width="269px" height="272px" viewBox="-134.5 -127.5 269 272"><defs/><g><g id="cell-FXZ0acjRom5HCQV_QIXH-125" content="&lt;object label=&quot;Connection&quot; PipingConnector=&quot;Y&quot; LabelConnector=&quot;N&quot; SignalConnector=&quot;N&quot; Direction=&quot;0&quot; AuxiliaryConnector=&quot;N&quot;/&gt;" data-label="Connection" data-PipingConnector="Y" data-LabelConnector="N" data-SignalConnector="N" data-Direction="0" data-AuxiliaryConnector="N" layer="Connection"><path d="M 122 -64 C 122 -67.30999755859375 124.69000244140625 -70 128 -70 C 131.30999755859375 -70 134 -67.30999755859375 134 -64 C 134 -60.69000244140625 131.30999755859375 -58 128 -58 C 124.69000244140625 -58 122 -60.69000244140625 122 -64" fill="none" stroke="#008000" stroke-miterlimit="10" pointer-events="all"/></g><g id="cell-FXZ0acjRom5HCQV_QIXH-126" content="&lt;object label=&quot;Connection&quot; PipingConnector=&quot;Y&quot; LabelConnector=&quot;N&quot; SignalConnector=&quot;N&quot; Direction=&quot;180&quot; AuxiliaryConnector=&quot;N&quot;/&gt;" data-label="Connection" data-PipingConnector="Y" data-LabelConnector="N" data-SignalConnector="N" data-Direction="180" data-AuxiliaryConnector="N" layer="Connection"><path d="M -134 -64 C -134 -67.30999755859375 -131.30999755859375 -70 -128 -70 C -124.69000244140625 -70 -122 -67.30999755859375 -122 -64 C -122 -60.69000244140625 -124.69000244140625 -58 -128 -58 C -131.30999755859375 -58 -134 -60.69000244140625 -134 -64" fill="none" stroke="#008000" stroke-miterlimit="10" pointer-events="all"/></g><g id="cell-lfd4ERR9KzfVwueqH8c_-7" content="&lt;object label=&quot;Connection&quot; PipingConnector=&quot;Y&quot; LabelConnector=&quot;N&quot; SignalConnector=&quot;N&quot; Direction=&quot;0&quot; AuxiliaryConnector=&quot;N&quot;/&gt;" data-label="Connection" data-PipingConnector="Y" data-LabelConnector="N" data-SignalConnector="N" data-Direction="0" data-AuxiliaryConnector="N" layer="Connection"><path d="M 122 64 C 122 60.69000244140625 124.69000244140625 58 128 58 C 131.30999755859375 58 134 60.69000244140625 134 64 C 134 67.30999755859375 131.30999755859375 70 128 70 C 124.69000244140625 70 122 67.30999755859375 122 64" fill="none" stroke="#008000" stroke-miterlimit="10" pointer-events="all"/></g><g id="cell-lfd4ERR9KzfVwueqH8c_-8" content="&lt;object label=&quot;Connection&quot; PipingConnector=&quot;Y&quot; LabelConnector=&quot;N&quot; SignalConnector=&quot;N&quot; Direction=&quot;180&quot; AuxiliaryConnector=&quot;N&quot;/&gt;" data-label="Connection" data-PipingConnector="Y" data-LabelConnector="N" data-SignalConnector="N" data-Direction="180" data-AuxiliaryConnector="N" layer="Connection"><path d="M -134 64 C -134 60.69000244140625 -131.30999755859375 58 -128 58 C -124.69000244140625 58 -122 60.69000244140625 -122 64 C -122 67.30999755859375 -124.69000244140625 70 -128 70 C -131.30999755859375 70 -134 67.30999755859375 -134 64" fill="none" stroke="#008000" stroke-miterlimit="10" pointer-events="all"/></g><g id="cell-FXZ0acjRom5HCQV_QIXH-132" content="&lt;object label=&quot;%LabelIndex%&amp;amp;nbsp; &amp;amp;nbsp; &amp;amp;nbsp; &amp;amp;nbsp; &amp;amp;nbsp; &amp;amp;nbsp;%LabelLines%&quot; placeholders=&quot;1&quot; LabelLines=&quot;1&quot; LabelIndex=&quot;A&quot;/&gt;" data-label="%LabelIndex%&amp;nbsp; &amp;nbsp; &amp;nbsp; &amp;nbsp; &amp;nbsp; &amp;nbsp;%LabelLines%" data-placeholders="1" data-LabelLines="1" data-LabelIndex="A" layer="Label"><path fill="none" stroke="#ff0000" pointer-events="all" d="M -40 128 L 40 128 L 40 144 L -40 144 z"/><g><text x="96" y="266" fill="#FF0000" font-family="Helvetica" font-size="10px" transform="translate(-134 -127) translate(-0.5 -0.5)">A           1</text></g></g><g id="cell-FXZ0acjRom5HCQV_QIXH-134" content="&lt;object label=&quot;origo&quot;/&gt;" data-label="origo" layer="Origo"><path d="M -6 0 C -6 -3.30999755859375 -3.30999755859375 -6 0 -6 C 3.30999755859375 -6 6 -3.30999755859375 6 0 C 6 3.30999755859375 3.30999755859375 6 0 6 C -3.30999755859375 6 -6 3.30999755859375 -6 0" fill="none" stroke="#ff0000" stroke-miterlimit="10" pointer-events="all"/></g><g id="cell-lfd4ERR9KzfVwueqH8c_-0" layer="Symbol"><path fill="none" stroke="rgb(0, 0, 0)" pointer-events="all" d="M -128 -127 L -112 -127 L -112 128 L -128 128 z"/></g><g id="cell-lfd4ERR9KzfVwueqH8c_-1" layer="Symbol"><path fill="none" stroke="rgb(0, 0, 0)" pointer-events="all" d="M 112 -127 L 128 -127 L 128 128 L 112 128 z"/></g><g id="cell-lfd4ERR9KzfVwueqH8c_-2" layer="Symbol"><path d="M -112 -96 L 112 -97" fill="none" stroke="rgb(0, 0, 0)" stroke-miterlimit="10" pointer-events="stroke"/></g><g id="cell-lfd4ERR9KzfVwueqH8c_-3" layer="Symbol"><path d="M -111.6500015258789 95.78999328613281 L 112.08000183105469 95.11000061035156" fill="none" stroke="rgb(0, 0, 0)" stroke-miterlimit="10" pointer-events="stroke"/></g><g id="cell-lfd4ERR9KzfVwueqH8c_-4" layer="Symbol"><path d="M -112 -63.25 L 112 64.25" fill="none" stroke="rgb(0, 0, 0)" stroke-miterlimit="10" stroke-dasharray="3 3" pointer-events="stroke"/></g><g id="cell-lfd4ERR9KzfVwueqH8c_-5" layer="Symbol"><path d="M -112 64.25 L 112 -63.25" fill="none" stroke="rgb(0, 0, 0)" stroke-miterlimit="10" stroke-dasharray="3 3" pointer-events="stroke"/></g></g></svg>