<?xml version="1.0" encoding="UTF-8"?><!DOCTYPE svg PUBLIC "-//W3C//DTD SVG 1.1//EN" "http://www.w3.org/Graphics/SVG/1.1/DTD/svg11.dtd"><svg xmlns="http://www.w3.org/2000/svg" xmlns:xlink="http://www.w3.org/1999/xlink" version="1.1" width="673px" height="257px" viewBox="-336.435 -128.435 673 257"><defs/><g><g id="cell-gCBXbEWG3YTmvdFgAPc0-127" content="&lt;object label=&quot;Connection&quot; PipingConnector=&quot;Y&quot; LabelConnector=&quot;N&quot; SignalConnector=&quot;N&quot; Direction=&quot;90&quot; AuxiliaryConnector=&quot;N&quot;/&gt;" data-label="Connection" data-PipingConnector="Y" data-LabelConnector="N" data-SignalConnector="N" data-Direction="90" data-AuxiliaryConnector="N" layer="Connection"><path d="M 266.06500244140625 96.06500244140625 C 266.06500244140625 92.7550048828125 268.7550048828125 90.06500244140625 272.06500244140625 90.06500244140625 C 275.375 90.06500244140625 278.06500244140625 92.7550048828125 278.06500244140625 96.06500244140625 C 278.06500244140625 99.375 275.375 102.06500244140625 272.06500244140625 102.06500244140625 C 268.7550048828125 102.06500244140625 266.06500244140625 99.375 266.06500244140625 96.06500244140625" fill="none" stroke="#00ff00" stroke-miterlimit="10" pointer-events="all"/></g><g id="cell-gCBXbEWG3YTmvdFgAPc0-125" content="&lt;object label=&quot;Connection&quot; PipingConnector=&quot;Y&quot; LabelConnector=&quot;N&quot; SignalConnector=&quot;N&quot; Direction=&quot;270&quot; AuxiliaryConnector=&quot;N&quot;/&gt;" data-label="Connection" data-PipingConnector="Y" data-LabelConnector="N" data-SignalConnector="N" data-Direction="270" data-AuxiliaryConnector="N" layer="Connection"><path d="M 266.06500244140625 -95.93499755859375 C 266.06500244140625 -99.2449951171875 268.7550048828125 -101.93499755859375 272.06500244140625 -101.93499755859375 C 275.375 -101.93499755859375 278.06500244140625 -99.2449951171875 278.06500244140625 -95.93499755859375 C 278.06500244140625 -92.625 275.375 -89.93499755859375 272.06500244140625 -89.93499755859375 C 268.7550048828125 -89.93499755859375 266.06500244140625 -92.625 266.06500244140625 -95.93499755859375" fill="none" stroke="#00ff00" stroke-miterlimit="10" pointer-events="all"/></g><g id="cell-gCBXbEWG3YTmvdFgAPc0-126" content="&lt;object label=&quot;Connection&quot; PipingConnector=&quot;Y&quot; LabelConnector=&quot;N&quot; SignalConnector=&quot;N&quot; Direction=&quot;270&quot; AuxiliaryConnector=&quot;N&quot;/&gt;" data-label="Connection" data-PipingConnector="Y" data-LabelConnector="N" data-SignalConnector="N" data-Direction="270" data-AuxiliaryConnector="N" layer="Connection"><path d="M -277.93499755859375 -95.93499755859375 C -277.93499755859375 -99.2449951171875 -275.2449951171875 -101.93499755859375 -271.93499755859375 -101.93499755859375 C -268.625 -101.93499755859375 -265.93499755859375 -99.2449951171875 -265.93499755859375 -95.93499755859375 C -265.93499755859375 -92.625 -268.625 -89.93499755859375 -271.93499755859375 -89.93499755859375 C -275.2449951171875 -89.93499755859375 -277.93499755859375 -92.625 -277.93499755859375 -95.93499755859375" fill="none" stroke="#00ff00" stroke-miterlimit="10" pointer-events="all"/></g><g id="cell-gCBXbEWG3YTmvdFgAPc0-128" content="&lt;object label=&quot;Connection&quot; PipingConnector=&quot;Y&quot; LabelConnector=&quot;N&quot; SignalConnector=&quot;N&quot; Direction=&quot;90&quot; AuxiliaryConnector=&quot;N&quot;/&gt;" data-label="Connection" data-PipingConnector="Y" data-LabelConnector="N" data-SignalConnector="N" data-Direction="90" data-AuxiliaryConnector="N" layer="Connection"><path d="M -277.93499755859375 96.06500244140625 C -277.93499755859375 92.7550048828125 -275.2449951171875 90.06500244140625 -271.93499755859375 90.06500244140625 C -268.625 90.06500244140625 -265.93499755859375 92.7550048828125 -265.93499755859375 96.06500244140625 C -265.93499755859375 99.375 -268.625 102.06500244140625 -271.93499755859375 102.06500244140625 C -275.2449951171875 102.06500244140625 -277.93499755859375 99.375 -277.93499755859375 96.06500244140625" fill="none" stroke="#00ff00" stroke-miterlimit="10" pointer-events="all"/></g><g id="cell-gCBXbEWG3YTmvdFgAPc0-134" content="&lt;object label=&quot;%LabelIndex%&amp;amp;nbsp; &amp;amp;nbsp; &amp;amp;nbsp; &amp;amp;nbsp; &amp;amp;nbsp; &amp;amp;nbsp;%LabelLines%&quot; placeholders=&quot;1&quot; LabelLines=&quot;1&quot; LabelIndex=&quot;A&quot;/&gt;" data-label="%LabelIndex%&amp;nbsp; &amp;nbsp; &amp;nbsp; &amp;nbsp; &amp;nbsp; &amp;nbsp;%LabelLines%" data-placeholders="1" data-LabelLines="1" data-LabelIndex="A" layer="Label"><path fill="none" stroke="#ff0000" pointer-events="all" d="M -39.93499755859375 -7.93499755859375 L 40.06500244140625 -7.93499755859375 L 40.06500244140625 8.06500244140625 L -39.93499755859375 8.06500244140625 z"/><g><text x="298" y="131" fill="#FF0000" font-family="Helvetica" font-size="10px" transform="translate(-335.935 -127.935) translate(-0.5 -0.5)">A           1</text></g></g><g id="cell-gCBXbEWG3YTmvdFgAPc0-136" content="&lt;object label=&quot;origo&quot;/&gt;" data-label="origo" layer="Origo"><path d="M -3.93499755859375 -0.00499725341796875 C -3.93499755859375 -2.1749954223632812 -2.17498779296875 -3.93499755859375 0.0050048828125 -3.93499755859375 C 2.17498779296875 -3.93499755859375 3.93499755859375 -2.1749954223632812 3.93499755859375 -0.00499725341796875 C 3.93499755859375 2.1750030517578125 2.17498779296875 3.93499755859375 0.0050048828125 3.93499755859375 C -2.17498779296875 3.93499755859375 -3.93499755859375 2.1750030517578125 -3.93499755859375 -0.00499725341796875" fill="none" stroke="#ff0000" stroke-miterlimit="10" pointer-events="all"/></g><g id="cell-gCBXbEWG3YTmvdFgAPc0-138" layer="Symbol"><path fill="none" stroke="rgb(0, 0, 0)" pointer-events="all" d="M -335.93499755859375 -127.93499755859375 L -319.93499755859375 -127.93499755859375 L -319.93499755859375 128.06500244140625 L -335.93499755859375 128.06500244140625 z"/></g><g id="cell-gCBXbEWG3YTmvdFgAPc0-139" layer="Symbol"><path fill="none" stroke="rgb(0, 0, 0)" pointer-events="all" d="M 320.06500244140625 -127.93499755859375 L 336.06500244140625 -127.93499755859375 L 336.06500244140625 128.06500244140625 L 320.06500244140625 128.06500244140625 z"/></g><g id="cell-gCBXbEWG3YTmvdFgAPc0-140" layer="Symbol"><path d="M -208.09500122070312 -95.93499755859375 L 207.79498291015625 -95.16499328613281" fill="none" stroke="rgb(0, 0, 0)" stroke-miterlimit="10" pointer-events="stroke"/></g><g id="cell-gCBXbEWG3YTmvdFgAPc0-141" layer="Symbol"><path d="M -207.85499572753906 95.80500793457031 L 207.80499267578125 94.78500366210938" fill="none" stroke="rgb(0, 0, 0)" stroke-miterlimit="10" pointer-events="stroke"/></g><g id="cell-EobbvcSsf5eTC5hmWeWL-0" layer="Symbol"><path fill="none" stroke="rgb(0, 0, 0)" pointer-events="all" d="M -319.93499755859375 -127.93499755859375 L -303.93499755859375 -127.93499755859375 L -303.93499755859375 128.06500244140625 L -319.93499755859375 128.06500244140625 z"/></g><g id="cell-EobbvcSsf5eTC5hmWeWL-1" layer="Symbol"><path fill="none" stroke="rgb(0, 0, 0)" pointer-events="all" d="M 304.06500244140625 -127.93499755859375 L 320.06500244140625 -127.93499755859375 L 320.06500244140625 128.06500244140625 L 304.06500244140625 128.06500244140625 z"/></g><g id="cell-EobbvcSsf5eTC5hmWeWL-2" layer="Symbol"><path fill="none" stroke="rgb(0, 0, 0)" pointer-events="all" d="M -239.93499755859375 -127.93499755859375 L -223.93499755859375 -127.93499755859375 L -223.93499755859375 128.06500244140625 L -239.93499755859375 128.06500244140625 z"/></g><g id="cell-EobbvcSsf5eTC5hmWeWL-3" layer="Symbol"><path fill="none" stroke="rgb(0, 0, 0)" pointer-events="all" d="M -223.93499755859375 -127.93499755859375 L -207.93499755859375 -127.93499755859375 L -207.93499755859375 128.06500244140625 L -223.93499755859375 128.06500244140625 z"/></g><g id="cell-EobbvcSsf5eTC5hmWeWL-4" layer="Symbol"><path fill="none" stroke="rgb(0, 0, 0)" pointer-events="all" d="M 208.06500244140625 -127.93499755859375 L 224.06500244140625 -127.93499755859375 L 224.06500244140625 128.06500244140625 L 208.06500244140625 128.06500244140625 z"/></g><g id="cell-EobbvcSsf5eTC5hmWeWL-5" layer="Symbol"><path fill="none" stroke="rgb(0, 0, 0)" pointer-events="all" d="M 224.06500244140625 -127.93499755859375 L 240.06500244140625 -127.93499755859375 L 240.06500244140625 128.06500244140625 L 224.06500244140625 128.06500244140625 z"/></g><g id="cell-EobbvcSsf5eTC5hmWeWL-6" layer="Symbol"><path d="M -303.9549865722656 -96.19499969482422 L -239.93499755859375 -95.93499755859375" fill="none" stroke="rgb(0, 0, 0)" stroke-miterlimit="10" pointer-events="stroke"/></g><g id="cell-EobbvcSsf5eTC5hmWeWL-7" layer="Symbol"><path d="M -303.56500244140625 96.06500244140625 L -239.93499755859375 96.32499694824219" fill="none" stroke="rgb(0, 0, 0)" stroke-miterlimit="10" pointer-events="stroke"/></g><g id="cell-_BKEYgJLWYhNnVfLumgn-1" layer="Symbol"><path d="M 240.625 -95.93499755859375 L 303.614990234375 -95.67500305175781" fill="none" stroke="rgb(0, 0, 0)" stroke-miterlimit="10" pointer-events="stroke"/></g><g id="cell-_BKEYgJLWYhNnVfLumgn-2" layer="Symbol"><path d="M 240.625 96.06500244140625 L 303.614990234375 96.32499694824219" fill="none" stroke="rgb(0, 0, 0)" stroke-miterlimit="10" pointer-events="stroke"/></g></g></svg>