<?xml version="1.0" encoding="UTF-8"?><!DOCTYPE svg PUBLIC "-//W3C//DTD SVG 1.1//EN" "http://www.w3.org/Graphics/SVG/1.1/DTD/svg11.dtd"><svg xmlns="http://www.w3.org/2000/svg" xmlns:xlink="http://www.w3.org/1999/xlink" version="1.1" width="627px" height="177px" viewBox="-6.5 -80.5 627 177"><defs/><g><g id="cell-zUVr1S0kb_XLgZNizgyp-127" content="&lt;object label=&quot;Connection&quot; PipingConnector=&quot;Y&quot; LabelConnector=&quot;N&quot; SignalConnector=&quot;N&quot; Direction=&quot;270&quot; AuxiliaryConnector=&quot;N&quot;/&gt;" data-label="Connection" data-PipingConnector="Y" data-LabelConnector="N" data-SignalConnector="N" data-Direction="270" data-AuxiliaryConnector="N" layer="Connection"><path d="M -6 0 C -6 -3.30999755859375 -3.309999942779541 -6 0 -6 C 3.310000419616699 -6 6 -3.30999755859375 6 0 C 6 3.30999755859375 3.310000419616699 6 0 6 C -3.309999942779541 6 -6 3.30999755859375 -6 0" fill="none" stroke="#008000" stroke-miterlimit="10" pointer-events="all"/></g><g id="cell-zUVr1S0kb_XLgZNizgyp-134" content="&lt;object label=&quot;%LabelIndex%&amp;amp;nbsp; &amp;amp;nbsp; &amp;amp;nbsp; &amp;amp;nbsp; &amp;amp;nbsp; &amp;amp;nbsp;%LabelLines%&quot; placeholders=&quot;1&quot; LabelLines=&quot;1&quot; LabelIndex=&quot;A&quot;/&gt;" data-label="%LabelIndex%&amp;nbsp; &amp;nbsp; &amp;nbsp; &amp;nbsp; &amp;nbsp; &amp;nbsp;%LabelLines%" data-placeholders="1" data-LabelLines="1" data-LabelIndex="A" layer="Label"><path fill="none" stroke="#ff0000" pointer-events="all" d="M 278 80 L 358 80 L 358 96 L 278 96 z"/><g><text x="286" y="171" fill="#FF0000" font-family="Helvetica" font-size="10px" transform="translate(-6 -80) translate(-0.5 -0.5)">A           1</text></g></g><g id="cell-zUVr1S0kb_XLgZNizgyp-136" content="&lt;object label=&quot;origo&quot;/&gt;" data-label="origo" layer="Origo"><path d="M -6 0 C -6 -3.30999755859375 -3.309999942779541 -6 0 -6 C 3.310000419616699 -6 6 -3.30999755859375 6 0 C 6 3.30999755859375 3.310000419616699 6 0 6 C -3.309999942779541 6 -6 3.30999755859375 -6 0" fill="none" stroke="#ff0000" stroke-miterlimit="10" pointer-events="all"/></g><g id="cell-zUVr1S0kb_XLgZNizgyp-140" layer="Symbol"><path d="M 63 -64 L 608 -64" fill="none" stroke="rgb(0, 0, 0)" stroke-miterlimit="10" pointer-events="stroke"/></g><g id="cell-zUVr1S0kb_XLgZNizgyp-141" layer="Symbol"><path d="M 64 64.02000427246094 L 608 64" fill="none" stroke="rgb(0, 0, 0)" stroke-miterlimit="10" pointer-events="stroke"/></g><g id="cell-XLpx1rje2Tpho_ThSgxB-1" layer="Symbol"><path d="M 608 -64 Q 624 -64 618.5 -16 Q 613 32 535 16 Q 457 0 534.5 -16.5 Q 612 -33 618 15.5 Q 624 64 607 64" fill="none" stroke="rgb(0, 0, 0)" stroke-miterlimit="10" pointer-events="stroke"/></g><g id="cell-Y3WWGntvLIbaLsErZBE9-2" layer="Symbol"><path d="M 64 80 L 63 -80" fill="none" stroke="rgb(0, 0, 0)" stroke-miterlimit="10" pointer-events="stroke"/></g><g id="cell-Y3WWGntvLIbaLsErZBE9-4" layer="Symbol"><path d="M 48.26000213623047 -63.98999786376953 C 21.610002517700195 -63.989994049072266 0.010004043579101562 -35.44999694824219 0.010004043579101562 -0.23999786376953125 C 0.010004043579101562 34.970001220703125 21.610002517700195 63.51000213623047 48.26000213623047 63.51000213623047 Z" fill="none" stroke="rgb(0, 0, 0)" stroke-miterlimit="10" pointer-events="all"/></g><g id="cell-Y3WWGntvLIbaLsErZBE9-1" layer="Symbol"><path d="M 48 80 L 48 -80" fill="none" stroke="rgb(0, 0, 0)" stroke-miterlimit="10" pointer-events="stroke"/></g></g></svg>