<?xml version="1.0" encoding="UTF-8"?><!DOCTYPE svg PUBLIC "-//W3C//DTD SVG 1.1//EN" "http://www.w3.org/Graphics/SVG/1.1/DTD/svg11.dtd"><svg xmlns="http://www.w3.org/2000/svg" xmlns:xlink="http://www.w3.org/1999/xlink" version="1.1" width="627px" height="177px" viewBox="-0.403519 -5.04382 39.3172 11.0991"><defs vector-effect="non-scaling-stroke"/><g><g id="cell-zUVr1S0kb_XLgZNizgyp-127" content="&lt;object label=&quot;Connection&quot; PipingConnector=&quot;Y&quot; LabelConnector=&quot;N&quot; SignalConnector=&quot;N&quot; Direction=&quot;270&quot; AuxiliaryConnector=&quot;N&quot;/&gt;" data-label="Connection" data-PipingConnector="Y" data-LabelConnector="N" data-SignalConnector="N" data-Direction="270" data-AuxiliaryConnector="N" layer="Connection"><path d="M -0.37216511368751526 0.004076098091900349 C -0.37216511368751526 -0.20348340272903442 -0.2034837007522583 -0.3721649646759033 0.004075948614627123 -0.3721649646759033 C 0.21163561940193176 -0.3721649646759033 0.38031700253486633 -0.20348340272903442 0.38031700253486633 0.004076098091900349 C 0.38031700253486633 0.21163558959960938 0.21163561940193176 0.38031715154647827 0.004075948614627123 0.38031715154647827 C -0.2034837007522583 0.38031715154647827 -0.37216511368751526 0.21163558959960938 -0.37216511368751526 0.004076098091900349" fill="none" stroke="#00ff00" stroke-miterlimit="10" pointer-events="all" vector-effect="non-scaling-stroke"/></g><g id="cell-zUVr1S0kb_XLgZNizgyp-134" content="&lt;object label=&quot;%LabelIndex%&amp;amp;nbsp; &amp;amp;nbsp; &amp;amp;nbsp; &amp;amp;nbsp; &amp;amp;nbsp; &amp;amp;nbsp;%LabelLines%&quot; placeholders=&quot;1&quot; LabelLines=&quot;1&quot; LabelIndex=&quot;A&quot;/&gt;" data-label="%LabelIndex%&amp;nbsp; &amp;nbsp; &amp;nbsp; &amp;nbsp; &amp;nbsp; &amp;nbsp;%LabelLines%" data-placeholders="1" data-LabelLines="1" data-LabelIndex="A" layer="Label"><path fill="none" stroke="#ff0000" pointer-events="all" d="M 17.43657875061035 5.020623683929443 L 22.453125 5.020623683929443 L 22.453125 6.023932933807373 L 17.43657875061035 6.023932933807373 z" vector-effect="non-scaling-stroke"/><g><text x="286" y="171" fill="#FF0000" font-family="Helvetica" font-size="10px" transform="scale(0.0627068 0.0627068) translate(-5.935 -79.935) translate(-0.5 -0.5)" vector-effect="non-scaling-stroke">A           1</text></g></g><g id="cell-zUVr1S0kb_XLgZNizgyp-136" content="&lt;object label=&quot;origo&quot;/&gt;" data-label="origo" layer="Origo"><path d="M -0.24675142765045166 -0.00031336199026554823 C -0.24675142765045166 -0.13638709485530853 -0.13638737797737122 -0.24675127863883972 0.00031354138627648354 -0.24675127863883972 C 0.13638736307621002 -0.24675127863883972 0.24675142765045166 -0.13638709485530853 0.24675142765045166 -0.00031336199026554823 C 0.24675142765045166 0.13638757169246674 0.13638736307621002 0.24675175547599792 0.00031354138627648354 0.24675175547599792 C -0.13638737797737122 0.24675175547599792 -0.24675142765045166 0.13638757169246674 -0.24675142765045166 -0.00031336199026554823" fill="none" stroke="#ff0000" stroke-miterlimit="10" pointer-events="all" vector-effect="non-scaling-stroke"/></g><g id="cell-zUVr1S0kb_XLgZNizgyp-140" layer="Symbol"><path d="M 3.9546070098876953 -4.009161949157715 L 38.12983703613281 -4.009161949157715" fill="none" stroke="rgb(0, 0, 0)" stroke-miterlimit="10" pointer-events="stroke" vector-effect="non-scaling-stroke"/></g><g id="cell-zUVr1S0kb_XLgZNizgyp-141" layer="Symbol"><path d="M 4.0173139572143555 4.018568515777588 L 38.12983703613281 4.0173139572143555" fill="none" stroke="rgb(0, 0, 0)" stroke-miterlimit="10" pointer-events="stroke" vector-effect="non-scaling-stroke"/></g><g id="cell-XLpx1rje2Tpho_ThSgxB-1" layer="Symbol"><path d="M 38.12983703613281 -4.009161949157715 Q 39.13314437866211 -4.009161949157715 38.78825759887695 -0.9992333650588989 Q 38.4433708190918 2.010694980621338 33.55223846435547 1.0073856115341187 Q 28.661104202270508 0.004076098091900349 33.5208854675293 -1.030586838722229 Q 38.38066482543945 -2.0652496814727783 38.75690460205078 0.9760321378707886 Q 39.13314437866211 4.0173139572143555 38.06713104248047 4.0173139572143555" fill="none" stroke="rgb(0, 0, 0)" stroke-miterlimit="10" pointer-events="stroke" vector-effect="non-scaling-stroke"/></g><g id="cell-Y3WWGntvLIbaLsErZBE9-2" layer="Symbol"><path d="M 4.0173139572143555 5.020623683929443 L 3.9546070098876953 -5.0124711990356445" fill="none" stroke="rgb(0, 0, 0)" stroke-miterlimit="10" pointer-events="stroke" vector-effect="non-scaling-stroke"/></g><g id="cell-Y3WWGntvLIbaLsErZBE9-4" layer="Symbol"><path d="M 3.030308246612549 -4.0085344314575195 C 1.3591710329055786 -4.0085344314575195 0.004703270271420479 -2.218881368637085 0.004703270271420479 -0.010973410680890083 C 0.004703270271420479 2.196934461593628 1.3591710329055786 3.9865877628326416 3.030308246612549 3.9865877628326416 Z" fill="none" stroke="rgb(0, 0, 0)" stroke-miterlimit="10" pointer-events="all" vector-effect="non-scaling-stroke"/></g><g id="cell-Y3WWGntvLIbaLsErZBE9-1" layer="Symbol"><path d="M 3.0140042304992676 5.020623683929443 L 3.0140042304992676 -5.0124711990356445" fill="none" stroke="rgb(0, 0, 0)" stroke-miterlimit="10" pointer-events="stroke" vector-effect="non-scaling-stroke"/></g></g></svg>