<?xml version="1.0" encoding="UTF-8"?><!DOCTYPE svg PUBLIC "-//W3C//DTD SVG 1.1//EN" "http://www.w3.org/Graphics/SVG/1.1/DTD/svg11.dtd"><svg xmlns="http://www.w3.org/2000/svg" xmlns:xlink="http://www.w3.org/1999/xlink" version="1.1" width="269px" height="82px" viewBox="-134.53 -33.5 269 82"><defs/><g><g id="cell-LxGGCtFgPDuxwpYXM28w-0" content="&lt;object label=&quot;Connection&quot; PipingConnector=&quot;Y&quot; LabelConnector=&quot;N&quot; SignalConnector=&quot;N&quot; Direction=&quot;0&quot; AuxiliaryConnector=&quot;N&quot;/&gt;" data-label="Connection" data-PipingConnector="Y" data-LabelConnector="N" data-SignalConnector="N" data-Direction="0" data-AuxiliaryConnector="N" layer="Connection"><path d="M 121.97000122070312 0 C 121.97000122070312 -3.309999465942383 124.66000366210938 -6 127.97000122070312 -6 C 131.27999877929688 -6 133.97000122070312 -3.309999465942383 133.97000122070312 0 C 133.97000122070312 3.3100013732910156 131.27999877929688 6 127.97000122070312 6 C 124.66000366210938 6 121.97000122070312 3.3100013732910156 121.97000122070312 0" fill="none" stroke="#008000" stroke-miterlimit="10" pointer-events="all"/></g><g id="cell-LxGGCtFgPDuxwpYXM28w-1" content="&lt;object label=&quot;Connection&quot; PipingConnector=&quot;Y&quot; LabelConnector=&quot;N&quot; SignalConnector=&quot;N&quot; Direction=&quot;180&quot; AuxiliaryConnector=&quot;N&quot;/&gt;" data-label="Connection" data-PipingConnector="Y" data-LabelConnector="N" data-SignalConnector="N" data-Direction="180" data-AuxiliaryConnector="N" layer="Connection"><path d="M -134.02999877929688 0 C -134.02999877929688 -3.309999465942383 -131.33999633789062 -6 -128.02999877929688 -6 C -124.72000122070312 -6 -122.02999877929688 -3.309999465942383 -122.02999877929688 0 C -122.02999877929688 3.3100013732910156 -124.72000122070312 6 -128.02999877929688 6 C -131.33999633789062 6 -134.02999877929688 3.3100013732910156 -134.02999877929688 0" fill="none" stroke="#008000" stroke-miterlimit="10" pointer-events="all"/></g><g id="cell-8oln3En7BdZpSJeIlfM0-22" content="&lt;object label=&quot;%LabelIndex%&amp;amp;nbsp; &amp;amp;nbsp; &amp;amp;nbsp; &amp;amp;nbsp; &amp;amp;nbsp; &amp;amp;nbsp;%LabelLines%&quot; placeholders=&quot;1&quot; LabelLines=&quot;1&quot; LabelIndex=&quot;A&quot;/&gt;" data-label="%LabelIndex%&amp;nbsp; &amp;nbsp; &amp;nbsp; &amp;nbsp; &amp;nbsp; &amp;nbsp;%LabelLines%" data-placeholders="1" data-LabelLines="1" data-LabelIndex="A" layer="Label"><path fill="none" stroke="#ff0000" pointer-events="all" d="M -40.029998779296875 32 L 39.970001220703125 32 L 39.970001220703125 48 L -40.029998779296875 48 z"/><g><text x="96" y="76" fill="#FF0000" font-family="Helvetica" font-size="10px" transform="translate(-134.03 -33) translate(-0.5 -0.5)">A           1</text></g></g><g id="cell-8oln3En7BdZpSJeIlfM0-21" content="&lt;object label=&quot;origo&quot;/&gt;" data-label="origo" layer="Origo"><path d="M -6 0 C -6 -3.309999465942383 -3.30999755859375 -6 0 -6 C 3.30999755859375 -6 6 -3.309999465942383 6 0 C 6 3.3100013732910156 3.30999755859375 6 0 6 C -3.30999755859375 6 -6 3.3100013732910156 -6 0" fill="none" stroke="#ff0000" stroke-miterlimit="10" pointer-events="all"/></g><g id="cell-8oln3En7BdZpSJeIlfM0-13" layer="Symbol"><path d="M -112.41999816894531 1.1300010681152344 Q -105.02999877929688 -15.739999771118164 -97.52999877929688 -19.239999771118164 Q -90.02999877929688 -22.739999771118164 -83.02999877929688 -19.239999771118164 Q -76.02999877929688 -15.739999771118164 -68.02999877929688 0.2599983215332031" fill="none" stroke="rgb(0, 0, 0)" stroke-miterlimit="10" pointer-events="stroke"/></g><g id="cell-8oln3En7BdZpSJeIlfM0-18" layer="Symbol"><path fill="none" stroke="none" pointer-events="all" d="M -128.02000427246094 32.650001525878906 L -128.02000427246094 -32.7599983215332 L -112.63999938964844 -32.7599983215332 L -112.63999938964844 32.650001525878906 z"/><path d="M -128.02000427246094 32.650001525878906 M -128.02000427246094 -32.7599983215332 L -112.63999938964844 -32.7599983215332 L -112.63999938964844 32.650001525878906 L -128.02000427246094 32.650001525878906" fill="none" stroke="rgb(0, 0, 0)" stroke-linecap="square" stroke-miterlimit="10" pointer-events="all"/></g><g id="cell-8oln3En7BdZpSJeIlfM0-14" layer="Symbol"><path d="M 67.97000122070312 0 Q 59.970001220703125 15.259998321533203 52.470001220703125 18.759998321533203 Q 44.970001220703125 22.259998321533203 37.970001220703125 19.259998321533203 Q 30.970001220703125 16.259998321533203 21.970001220703125 0" fill="none" stroke="rgb(0, 0, 0)" stroke-miterlimit="10" pointer-events="stroke"/></g><g id="cell-8oln3En7BdZpSJeIlfM0-15" layer="Symbol"><path d="M 21.970001220703125 0 Q 14.970001220703125 -14.739999771118164 7.470001220703125 -18.739999771118164 Q -0.029998779296875 -22.739999771118164 -7.029998779296875 -19.239999771118164 Q -14.029998779296875 -15.739999771118164 -22.029998779296875 0.2599983215332031" fill="none" stroke="rgb(0, 0, 0)" stroke-miterlimit="10" pointer-events="stroke"/></g><g id="cell-8oln3En7BdZpSJeIlfM0-17" layer="Symbol"><path d="M 67.97000122070312 0 Q 73.97000122070312 -15.739999771118164 81.97000122070312 -19.739999771118164 Q 89.97000122070312 -23.739999771118164 96.97000122070312 -20.739999771118164 Q 103.97000122070312 -17.739999771118164 112.27000427246094 0.9099998474121094" fill="none" stroke="rgb(0, 0, 0)" stroke-miterlimit="10" pointer-events="stroke"/></g><g id="cell-8oln3En7BdZpSJeIlfM0-20" layer="Symbol"><path fill="none" stroke="none" pointer-events="all" d="M 127.36000061035156 31.64999771118164 L 127.36000061035156 -32.130001068115234 L 112.36000061035156 -32.130001068115234 L 112.36000061035156 31.64999771118164 z"/><path d="M 127.36000061035156 31.64999771118164 M 127.36000061035156 -32.130001068115234 L 112.36000061035156 -32.130001068115234 L 112.36000061035156 31.64999771118164 L 127.36000061035156 31.64999771118164" fill="none" stroke="rgb(0, 0, 0)" stroke-linecap="square" stroke-miterlimit="10" pointer-events="all"/></g><g id="cell-olqokFl8gsaJD70p5VRd-3" layer="Symbol"><path d="M -22.029998779296875 0 Q -30.029998779296875 15 -37.529998779296875 18.5 Q -45.029998779296875 22 -52.029998779296875 19 Q -59.029998779296875 16 -68.02999877929688 0" fill="none" stroke="rgb(0, 0, 0)" stroke-miterlimit="10" pointer-events="stroke"/></g></g></svg>