<?xml version="1.0" encoding="UTF-8" standalone="no"?>
<!DOCTYPE svg PUBLIC "-//W3C//DTD SVG 1.1//EN" "http://www.w3.org/Graphics/SVG/1.1/DTD/svg11.dtd">
<!-- Generated by Microsoft Visio, SVG Export ND0001.svg Page-1 -->
<svg xmlns="http://www.w3.org/2000/svg" xmlns:xlink="http://www.w3.org/1999/xlink" xmlns:ev="http://www.w3.org/2001/xml-events"
		width="3.18086in" height="0.821346in" viewBox="0 0 229.022 59.1369" xml:space="preserve" color-interpolation-filters="sRGB"
		class="st3">
	<title>ND0001</title>

	<style type="text/css">
	<![CDATA[
		.st1 {stroke:#000000;stroke-linecap:round;stroke-linejoin:round;stroke-width:2.25}
		.st2 {fill:none}
		.st3 {fill:none;fill-rule:evenodd;font-size:12px;overflow:visible;stroke-linecap:square;stroke-miterlimit:3}
	]]>
	</style>

	<g>
		<title>Page-1</title>
		<g id="group1531-1" transform="translate(1.125,-1.125)">
			<title>Sheet.1531</title>
			<g id="shape1512-2" transform="translate(-29.2887,-10.3164) rotate(-47.302)">
				<title>Sheet.1512</title>
				<path d="M0 59.14 L17.82 59.14" class="st1"/>
			</g>
			<g id="shape1513-5" transform="translate(22.7498,84.7901) rotate(-132.697)">
				<title>Sheet.1513</title>
				<path d="M0 59.14 L38.1 59.14" class="st1"/>
			</g>
			<g id="shape1514-8" transform="translate(26.1041,-42.325)">
				<title>Sheet.1514</title>
				<path d="M14.27 58.99 A10.7348 10.0875 90 0 0 0 59.14 L14.27 58.99 Z" class="st2"/>
				<path d="M14.27 58.99 A10.7348 10.0875 90 0 0 0 59.14" class="st1"/>
			</g>
			<g id="shape1515-11" transform="translate(66.2015,-11.3777)">
				<title>Sheet.1515</title>
				<path d="M0 56.06 A10.7348 10.0875 -90 0 0 14.27 55.92 L0 56.06 Z" class="st2"/>
				<path d="M0 56.06 A10.7348 10.0875 -90 0 0 14.27 55.92" class="st1"/>
			</g>
			<g id="shape1516-14" transform="translate(102.789,84.8236) rotate(-132.697)">
				<title>Sheet.1516</title>
				<path d="M0 59.14 L38.1 59.14" class="st1"/>
			</g>
			<g id="shape1517-17" transform="translate(106.142,-42.291)">
				<title>Sheet.1517</title>
				<path d="M14.27 58.99 A10.7348 10.0875 90 0 0 0 59.14 L14.27 58.99 Z" class="st2"/>
				<path d="M14.27 58.99 A10.7348 10.0875 90 0 0 0 59.14" class="st1"/>
			</g>
			<g id="shape1518-20" transform="translate(146.239,-11.3437)">
				<title>Sheet.1518</title>
				<path d="M0 56.06 A10.7348 10.0875 -90 0 0 14.27 55.92 L0 56.06 Z" class="st2"/>
				<path d="M0 56.06 A10.7348 10.0875 -90 0 0 14.27 55.92" class="st1"/>
			</g>
			<g id="shape1519-23" transform="translate(186.178,-42.291)">
				<title>Sheet.1519</title>
				<path d="M14.27 58.99 A10.7348 10.0875 90 0 0 0 59.14 L14.27 58.99 Z" class="st2"/>
				<path d="M14.27 58.99 A10.7348 10.0875 90 0 0 0 59.14" class="st1"/>
			</g>
			<g id="shape1520-26" transform="translate(169.159,70.0047) rotate(-132.73)">
				<title>Sheet.1520</title>
				<path d="M0 59.14 L17.91 59.14" class="st1"/>
			</g>
			<g id="shape1521-29" transform="translate(117.142,4.38806) rotate(-47.1741)">
				<title>Sheet.1521</title>
				<path d="M0 59.14 L38.48 59.14" class="st1"/>
			</g>
			<g id="shape1522-32" transform="translate(37.1051,4.35183) rotate(-47.1705)">
				<title>Sheet.1522</title>
				<path d="M0 59.14 L37.92 59.14" class="st1"/>
			</g>
			<g id="shape1524-35" transform="translate(213.003,-56.7885) rotate(0.392063)">
				<title>Sheet.1524</title>
				<path d="M0 59.14 L14.17 59.14" class="st1"/>
			</g>
			<g id="shape1525-38" transform="translate(271.735,2.34698) rotate(90)">
				<title>Sheet.1525</title>
				<path d="M0 59.14 L56.69 59.14" class="st1"/>
			</g>
			<g id="shape1526-41" transform="translate(73.3101,2.34698) rotate(90)">
				<title>Sheet.1526</title>
				<path d="M0 59.14 L56.69 59.14" class="st1"/>
			</g>
			<g id="shape1527-44" transform="translate(213.003,-0.0955992) rotate(0.392053)">
				<title>Sheet.1527</title>
				<path d="M0 59.14 L14.17 59.14" class="st1"/>
			</g>
			<g id="shape1528-47" transform="translate(0.404658,-56.8855) rotate(0.392063)">
				<title>Sheet.1528</title>
				<path d="M0 59.14 L14.17 59.14" class="st1"/>
			</g>
			<g id="shape1529-50" transform="translate(0.404648,-0.192583) rotate(0.392053)">
				<title>Sheet.1529</title>
				<path d="M0 59.14 L14.17 59.14" class="st1"/>
			</g>
		</g>
	</g>
</svg>
