<?xml version="1.0" encoding="UTF-8" standalone="no"?>
<!DOCTYPE svg PUBLIC "-//W3C//DTD SVG 1.1//EN" "http://www.w3.org/Graphics/SVG/1.1/DTD/svg11.dtd">
<!-- Generated by Microsoft Visio, SVG Export ND0017_Detail.svg Page-1 -->
<svg xmlns="http://www.w3.org/2000/svg" xmlns:xlink="http://www.w3.org/1999/xlink" xmlns:ev="http://www.w3.org/2001/xml-events"
		width="11.1719in" height="7.71769in" viewBox="0 0 804.377 555.674" xml:space="preserve" color-interpolation-filters="sRGB"
		class="st16">
	<title>ND0017</title>

	<style type="text/css">
	<![CDATA[
		.st1 {stroke:#d8d8d8;stroke-linecap:round;stroke-linejoin:round;stroke-width:0.25}
		.st2 {stroke:#7f7f7f;stroke-linecap:round;stroke-linejoin:round;stroke-width:0.25}
		.st3 {fill:#000000;stroke:#000000;stroke-linecap:round;stroke-linejoin:round;stroke-width:2.25}
		.st4 {fill:#ffffff}
		.st5 {stroke:#000000;stroke-linecap:round;stroke-linejoin:round;stroke-width:0.24}
		.st6 {marker-end:url(#mrkr13-297);stroke:#000000;stroke-linecap:round;stroke-linejoin:round;stroke-width:0.24}
		.st7 {fill:#000000;fill-opacity:1;stroke:#000000;stroke-opacity:1;stroke-width:0.11764705882353}
		.st8 {fill:#ffffff;stroke:none;stroke-linecap:butt;stroke-width:7.2}
		.st9 {fill:#000000;font-family:Calibri;font-size:0.666664em}
		.st10 {stroke:#ff0000;stroke-linecap:round;stroke-linejoin:round;stroke-width:1.5}
		.st11 {fill:none;stroke:#ff0000;stroke-linecap:round;stroke-linejoin:round;stroke-width:2.25}
		.st12 {stroke:#000000;stroke-linecap:round;stroke-linejoin:round;stroke-width:2.25}
		.st13 {stroke:#000000;stroke-linecap:round;stroke-linejoin:round;stroke-width:0.75}
		.st14 {fill:none;stroke:none;stroke-linecap:round;stroke-linejoin:round;stroke-width:0.75}
		.st15 {fill:#000000;font-family:Calibri;font-size:1.00001em}
		.st16 {fill:none;fill-rule:evenodd;font-size:12px;overflow:visible;stroke-linecap:square;stroke-miterlimit:3}
	]]>
	</style>

	<defs id="Markers">
		<g id="lend13">
			<path d="M 3 1 L 0 0 L 3 -1 L 3 1 " style="stroke:none"/>
		</g>
		<marker id="mrkr13-297" class="st7" refX="-25.5" orient="auto" markerUnits="strokeWidth" overflow="visible">
			<use xlink:href="#lend13" transform="scale(-8.5000000000001,-8.5000000000001) "/>
		</marker>
	</defs>
	<g>
		<title>Page-1</title>
		<g id="group1404-1" transform="translate(0.125,-0.125006)">
			<title>Sheet.1404</title>
			<g id="shape1309-2" transform="translate(594.381,0.250006) rotate(90)">
				<title>Sheet.1309</title>
				<path d="M0 555.67 L555.42 555.67" class="st1"/>
			</g>
			<g id="shape1310-5" transform="translate(622.728,0.250006) rotate(90)">
				<title>Sheet.1310</title>
				<path d="M0 555.67 L555.42 555.67" class="st2"/>
			</g>
			<g id="shape1311-8" transform="translate(636.901,0.250006) rotate(90)">
				<title>Sheet.1311</title>
				<path d="M0 555.67 L555.42 555.67" class="st1"/>
			</g>
			<g id="shape1312-11" transform="translate(651.074,0.250006) rotate(90)">
				<title>Sheet.1312</title>
				<path d="M0 555.67 L555.42 555.67" class="st1"/>
			</g>
			<g id="shape1313-14" transform="translate(665.247,0.250006) rotate(90)">
				<title>Sheet.1313</title>
				<path d="M0 555.67 L555.42 555.67" class="st1"/>
			</g>
			<g id="shape1314-17" transform="translate(608.555,0.250006) rotate(90)">
				<title>Sheet.1314</title>
				<path d="M0 555.67 L555.42 555.67" class="st1"/>
			</g>
			<g id="shape1315-20" transform="translate(679.421,0.250006) rotate(90)">
				<title>Sheet.1315</title>
				<path d="M0 555.67 L555.42 555.67" class="st1"/>
			</g>
			<g id="shape1316-23" transform="translate(693.594,0.250006) rotate(90)">
				<title>Sheet.1316</title>
				<path d="M0 555.67 L555.42 555.67" class="st2"/>
			</g>
			<g id="shape1317-26" transform="translate(707.767,0.250006) rotate(90)">
				<title>Sheet.1317</title>
				<path d="M0 555.67 L555.42 555.67" class="st1"/>
			</g>
			<g id="shape1318-29" transform="translate(721.94,0.250006) rotate(90)">
				<title>Sheet.1318</title>
				<path d="M0 555.67 L555.42 555.67" class="st1"/>
			</g>
			<g id="shape1319-32" transform="translate(750.287,0.250006) rotate(90)">
				<title>Sheet.1319</title>
				<path d="M0 555.67 L555.42 555.67" class="st1"/>
			</g>
			<g id="shape1320-35" transform="translate(764.46,0.250006) rotate(90)">
				<title>Sheet.1320</title>
				<path d="M0 555.67 L555.42 555.67" class="st2"/>
			</g>
			<g id="shape1321-38" transform="translate(778.633,0.250006) rotate(90)">
				<title>Sheet.1321</title>
				<path d="M0 555.67 L555.42 555.67" class="st1"/>
			</g>
			<g id="shape1322-41" transform="translate(792.807,0.250006) rotate(90)">
				<title>Sheet.1322</title>
				<path d="M0 555.67 L555.42 555.67" class="st1"/>
			</g>
			<g id="shape1323-44" transform="translate(736.114,0.250006) rotate(90)">
				<title>Sheet.1323</title>
				<path d="M0 555.67 L555.42 555.67" class="st1"/>
			</g>
			<g id="shape1324-47" transform="translate(806.98,0.250006) rotate(90)">
				<title>Sheet.1324</title>
				<path d="M0 555.67 L555.42 555.67" class="st1"/>
			</g>
			<g id="shape1325-50" transform="translate(821.153,0.250006) rotate(90)">
				<title>Sheet.1325</title>
				<path d="M0 555.67 L555.42 555.67" class="st1"/>
			</g>
			<g id="shape1326-53" transform="translate(835.326,0.250006) rotate(90)">
				<title>Sheet.1326</title>
				<path d="M0 555.67 L555.42 555.67" class="st2"/>
			</g>
			<g id="shape1327-56" transform="translate(849.499,0.250006) rotate(90)">
				<title>Sheet.1327</title>
				<path d="M0 555.67 L555.42 555.67" class="st1"/>
			</g>
			<g id="shape1328-59" transform="translate(877.846,0.250006) rotate(90)">
				<title>Sheet.1328</title>
				<path d="M0 555.67 L555.42 555.67" class="st1"/>
			</g>
			<g id="shape1329-62" transform="translate(892.019,0.250006) rotate(90)">
				<title>Sheet.1329</title>
				<path d="M0 555.67 L555.42 555.67" class="st1"/>
			</g>
			<g id="shape1330-65" transform="translate(906.192,0.250006) rotate(90)">
				<title>Sheet.1330</title>
				<path d="M0 555.67 L555.42 555.67" class="st2"/>
			</g>
			<g id="shape1331-68" transform="translate(920.366,0.250006) rotate(90)">
				<title>Sheet.1331</title>
				<path d="M0 555.67 L555.42 555.67" class="st1"/>
			</g>
			<g id="shape1332-71" transform="translate(863.673,0.250006) rotate(90)">
				<title>Sheet.1332</title>
				<path d="M0 555.67 L555.42 555.67" class="st1"/>
			</g>
			<g id="shape1333-74" transform="translate(934.539,0.250006) rotate(90)">
				<title>Sheet.1333</title>
				<path d="M0 555.67 L555.42 555.67" class="st1"/>
			</g>
			<g id="shape1334-77" transform="translate(948.712,0.250006) rotate(90)">
				<title>Sheet.1334</title>
				<path d="M0 555.67 L555.42 555.67" class="st1"/>
			</g>
			<g id="shape1335-80" transform="translate(962.885,0.250006) rotate(90)">
				<title>Sheet.1335</title>
				<path d="M0 555.67 L555.42 555.67" class="st1"/>
			</g>
			<g id="shape1336-83" transform="translate(977.058,0.250006) rotate(90)">
				<title>Sheet.1336</title>
				<path d="M0 555.67 L555.42 555.67" class="st2"/>
			</g>
			<g id="shape1337-86" transform="translate(1005.4,0.250006) rotate(90)">
				<title>Sheet.1337</title>
				<path d="M0 555.67 L555.42 555.67" class="st1"/>
			</g>
			<g id="shape1338-89" transform="translate(1019.58,0.250006) rotate(90)">
				<title>Sheet.1338</title>
				<path d="M0 555.67 L555.42 555.67" class="st1"/>
			</g>
			<g id="shape1339-92" transform="translate(1033.75,0.250006) rotate(90)">
				<title>Sheet.1339</title>
				<path d="M0 555.67 L555.42 555.67" class="st1"/>
			</g>
			<g id="shape1340-95" transform="translate(1047.92,0.250006) rotate(90)">
				<title>Sheet.1340</title>
				<path d="M0 555.67 L555.42 555.67" class="st2"/>
			</g>
			<g id="shape1341-98" transform="translate(991.232,0.250006) rotate(90)">
				<title>Sheet.1341</title>
				<path d="M0 555.67 L555.42 555.67" class="st1"/>
			</g>
			<g id="shape1342-101" transform="translate(1062.1,0.250006) rotate(90)">
				<title>Sheet.1342</title>
				<path d="M0 555.67 L555.42 555.67" class="st1"/>
			</g>
			<g id="shape1343-104" transform="translate(1076.27,0.250006) rotate(90)">
				<title>Sheet.1343</title>
				<path d="M0 555.67 L555.42 555.67" class="st1"/>
			</g>
			<g id="shape1344-107" transform="translate(1090.44,0.250006) rotate(90)">
				<title>Sheet.1344</title>
				<path d="M0 555.67 L555.42 555.67" class="st1"/>
			</g>
			<g id="shape1345-110" transform="translate(1104.62,0.250006) rotate(90)">
				<title>Sheet.1345</title>
				<path d="M0 555.67 L555.42 555.67" class="st1"/>
			</g>
			<g id="shape1346-113" transform="translate(1132.96,0.250006) rotate(90)">
				<title>Sheet.1346</title>
				<path d="M0 555.67 L555.42 555.67" class="st1"/>
			</g>
			<g id="shape1347-116" transform="translate(1147.14,0.250006) rotate(90)">
				<title>Sheet.1347</title>
				<path d="M0 555.67 L555.42 555.67" class="st1"/>
			</g>
			<g id="shape1348-119" transform="translate(1161.31,0.250006) rotate(90)">
				<title>Sheet.1348</title>
				<path d="M0 555.67 L555.42 555.67" class="st1"/>
			</g>
			<g id="shape1349-122" transform="translate(1175.48,0.250006) rotate(90)">
				<title>Sheet.1349</title>
				<path d="M0 555.67 L555.42 555.67" class="st1"/>
			</g>
			<g id="shape1350-125" transform="translate(1118.79,0.250006) rotate(90)">
				<title>Sheet.1350</title>
				<path d="M0 555.67 L555.42 555.67" class="st2"/>
			</g>
			<g id="shape1351-128" transform="translate(1189.66,0.250006) rotate(90)">
				<title>Sheet.1351</title>
				<path d="M0 555.67 L555.42 555.67" class="st2"/>
			</g>
			<g id="shape1352-131" transform="translate(1203.83,0.250006) rotate(90)">
				<title>Sheet.1352</title>
				<path d="M0 555.67 L555.42 555.67" class="st1"/>
			</g>
			<g id="shape1353-134" transform="translate(1218,0.250006) rotate(90)">
				<title>Sheet.1353</title>
				<path d="M0 555.67 L555.42 555.67" class="st1"/>
			</g>
			<g id="shape1354-137" transform="translate(1232.18,0.250006) rotate(90)">
				<title>Sheet.1354</title>
				<path d="M0 555.67 L555.42 555.67" class="st1"/>
			</g>
			<g id="shape1355-140" transform="translate(1260.52,0.250006) rotate(90)">
				<title>Sheet.1355</title>
				<path d="M0 555.67 L555.42 555.67" class="st2"/>
			</g>
			<g id="shape1356-143" transform="translate(1274.7,0.250006) rotate(90)">
				<title>Sheet.1356</title>
				<path d="M0 555.67 L555.42 555.67" class="st1"/>
			</g>
			<g id="shape1357-146" transform="translate(1288.87,0.250006) rotate(90)">
				<title>Sheet.1357</title>
				<path d="M0 555.67 L555.42 555.67" class="st1"/>
			</g>
			<g id="shape1358-149" transform="translate(1303.04,0.250006) rotate(90)">
				<title>Sheet.1358</title>
				<path d="M0 555.67 L555.42 555.67" class="st1"/>
			</g>
			<g id="shape1359-152" transform="translate(1246.35,0.250006) rotate(90)">
				<title>Sheet.1359</title>
				<path d="M0 555.67 L555.42 555.67" class="st1"/>
			</g>
			<g id="shape1360-155" transform="translate(1317.22,0.250006) rotate(90)">
				<title>Sheet.1360</title>
				<path d="M0 555.67 L555.42 555.67" class="st1"/>
			</g>
			<g id="shape1361-158" transform="translate(1331.39,0.250006) rotate(90)">
				<title>Sheet.1361</title>
				<path d="M0 555.67 L555.42 555.67" class="st2"/>
			</g>
			<g id="shape1362-161" transform="translate(0,-52.0232)">
				<title>Sheet.1362</title>
				<path d="M0 555.67 L801.48 555.67" class="st2"/>
			</g>
			<g id="shape1363-164" transform="translate(0,-66.1964)">
				<title>Sheet.1363</title>
				<path d="M0 555.67 L801.48 555.67" class="st1"/>
			</g>
			<g id="shape1364-167" transform="translate(0,-80.3697)">
				<title>Sheet.1364</title>
				<path d="M0 555.67 L801.48 555.67" class="st1"/>
			</g>
			<g id="shape1365-170" transform="translate(0,-94.5429)">
				<title>Sheet.1365</title>
				<path d="M0 555.67 L801.48 555.67" class="st1"/>
			</g>
			<g id="shape1366-173" transform="translate(0,-122.889)">
				<title>Sheet.1366</title>
				<path d="M0 555.67 L801.48 555.67" class="st2"/>
			</g>
			<g id="shape1367-176" transform="translate(0,-137.063)">
				<title>Sheet.1367</title>
				<path d="M0 555.67 L801.48 555.67" class="st1"/>
			</g>
			<g id="shape1368-179" transform="translate(0,-151.236)">
				<title>Sheet.1368</title>
				<path d="M0 555.67 L801.48 555.67" class="st1"/>
			</g>
			<g id="shape1369-182" transform="translate(0,-165.409)">
				<title>Sheet.1369</title>
				<path d="M0 555.67 L801.48 555.67" class="st1"/>
			</g>
			<g id="shape1370-185" transform="translate(0,-108.716)">
				<title>Sheet.1370</title>
				<path d="M0 555.67 L801.48 555.67" class="st1"/>
			</g>
			<g id="shape1371-188" transform="translate(0,-179.582)">
				<title>Sheet.1371</title>
				<path d="M0 555.67 L801.48 555.67" class="st1"/>
			</g>
			<g id="shape1372-191" transform="translate(0,-193.755)">
				<title>Sheet.1372</title>
				<path d="M0 555.67 L801.48 555.67" class="st2"/>
			</g>
			<g id="shape1373-194" transform="translate(0,-207.929)">
				<title>Sheet.1373</title>
				<path d="M0 555.67 L801.48 555.67" class="st1"/>
			</g>
			<g id="shape1374-197" transform="translate(0,-222.102)">
				<title>Sheet.1374</title>
				<path d="M0 555.67 L801.48 555.67" class="st1"/>
			</g>
			<g id="shape1375-200" transform="translate(0,-250.448)">
				<title>Sheet.1375</title>
				<path d="M0 555.67 L801.48 555.67" class="st1"/>
			</g>
			<g id="shape1376-203" transform="translate(0,-264.622)">
				<title>Sheet.1376</title>
				<path d="M0 555.67 L801.48 555.67" class="st2"/>
			</g>
			<g id="shape1377-206" transform="translate(0,-278.795)">
				<title>Sheet.1377</title>
				<path d="M0 555.67 L801.48 555.67" class="st1"/>
			</g>
			<g id="shape1378-209" transform="translate(2.64787,-293.065)">
				<title>Sheet.1378</title>
				<path d="M0 555.67 L801.48 555.67" class="st1"/>
			</g>
			<g id="shape1379-212" transform="translate(0,-236.275)">
				<title>Sheet.1379</title>
				<path d="M0 555.67 L801.48 555.67" class="st1"/>
			</g>
			<g id="shape1380-215" transform="translate(0,-307.141)">
				<title>Sheet.1380</title>
				<path d="M0 555.67 L801.48 555.67" class="st1"/>
			</g>
			<g id="shape1381-218" transform="translate(0,-321.315)">
				<title>Sheet.1381</title>
				<path d="M0 555.67 L801.48 555.67" class="st1"/>
			</g>
			<g id="shape1382-221" transform="translate(0,-335.488)">
				<title>Sheet.1382</title>
				<path d="M0 555.67 L801.48 555.67" class="st2"/>
			</g>
			<g id="shape1383-224" transform="translate(0,-349.661)">
				<title>Sheet.1383</title>
				<path d="M0 555.67 L801.48 555.67" class="st1"/>
			</g>
			<g id="shape1384-227" transform="translate(0,-378.007)">
				<title>Sheet.1384</title>
				<path d="M0 555.67 L801.48 555.67" class="st1"/>
			</g>
			<g id="shape1385-230" transform="translate(0,-392.181)">
				<title>Sheet.1385</title>
				<path d="M0 555.67 L801.48 555.67" class="st1"/>
			</g>
			<g id="shape1386-233" transform="translate(0,-406.354)">
				<title>Sheet.1386</title>
				<path d="M0 555.67 L801.48 555.67" class="st2"/>
			</g>
			<g id="shape1387-236" transform="translate(0,-420.527)">
				<title>Sheet.1387</title>
				<path d="M0 555.67 L801.48 555.67" class="st1"/>
			</g>
			<g id="shape1388-239" transform="translate(0,-363.834)">
				<title>Sheet.1388</title>
				<path d="M0 555.67 L801.48 555.67" class="st1"/>
			</g>
			<g id="shape1389-242" transform="translate(0,-434.7)">
				<title>Sheet.1389</title>
				<path d="M0 555.67 L801.48 555.67" class="st1"/>
			</g>
			<g id="shape1390-245" transform="translate(0,-448.874)">
				<title>Sheet.1390</title>
				<path d="M0 555.67 L801.48 555.67" class="st1"/>
			</g>
			<g id="shape1391-248" transform="translate(0,-463.047)">
				<title>Sheet.1391</title>
				<path d="M0 555.67 L801.48 555.67" class="st1"/>
			</g>
			<g id="shape1392-251" transform="translate(2.15551,-519.837)">
				<title>Sheet.1392</title>
				<path d="M0 555.67 L799.32 555.67" class="st1"/>
			</g>
			<g id="shape1393-254" transform="translate(0,-505.567)">
				<title>Sheet.1393</title>
				<path d="M0 555.67 L801.48 555.67" class="st1"/>
			</g>
			<g id="shape1394-257" transform="translate(1.40955,-548.086)">
				<title>Sheet.1394</title>
				<path d="M0 555.67 L800.07 555.67" class="st2"/>
			</g>
			<g id="shape1395-260" transform="translate(0,-491.393)">
				<title>Sheet.1395</title>
				<path d="M0 555.67 L801.48 555.67" class="st1"/>
			</g>
			<g id="shape1396-263" transform="translate(0,-9.50352)">
				<title>Sheet.1396</title>
				<path d="M0 555.67 L801.48 555.67" class="st1"/>
			</g>
			<g id="shape1397-266" transform="translate(0,-23.6768)">
				<title>Sheet.1397</title>
				<path d="M0 555.67 L801.48 555.67" class="st1"/>
			</g>
			<g id="shape1398-269" transform="translate(0,-37.85)">
				<title>Sheet.1398</title>
				<path d="M0 555.67 L801.48 555.67" class="st1"/>
			</g>
			<g id="shape1399-272" transform="translate(0,-478.063)">
				<title>Sheet.1399</title>
				<path d="M0 555.67 L801.48 555.67" class="st2"/>
			</g>
			<g id="shape1400-275" transform="translate(566.035,0.250006) rotate(90)">
				<title>Sheet.1400</title>
				<path d="M0 555.67 L555.42 555.67" class="st1"/>
			</g>
			<g id="shape1401-278" transform="translate(580.208,0.250006) rotate(90)">
				<title>Sheet.1401</title>
				<path d="M0 555.67 L555.42 555.67" class="st1"/>
			</g>
			<g id="shape1402-281" transform="translate(1345.56,0.250006) rotate(90)">
				<title>Sheet.1402</title>
				<path d="M0 555.67 L555.42 555.67" class="st1"/>
			</g>
			<g id="shape1403-284" transform="translate(0,-534.01)">
				<title>Sheet.1403</title>
				<path d="M0 555.67 L801.48 555.67" class="st1"/>
			</g>
		</g>
		<g id="shape1406-287" transform="translate(323.218,-194.449)">
			<title>Triangle</title>
			<path d="M57.3 555.67 L28.65 498.37 L0 555.67 L57.3 555.67 Z" class="st3"/>
		</g>
		<g id="shape1407-289" transform="translate(-147.553,332.71) rotate(-90)">
			<title>Triangle.1526</title>
			<path d="M57.3 555.67 L28.65 498.37 L0 555.67 L57.3 555.67 Z" class="st3"/>
		</g>
		<g id="shape1408-291" transform="translate(-83.4,333.015) rotate(-90)">
			<title>Vertical</title>
			<desc>4mm</desc>
			<path d="M0 527.83 L0 551.67 L0 527.83 ZM56.69 527.83 L56.69 551.67 L56.69 527.83 Z" class="st4"/>
			<path d="M0 527.83 L0 551.67 L0 527.83" class="st5"/>
			<path d="M56.69 527.83 L56.69 551.67 L56.69 527.83" class="st5"/>
			<path d="M28.35 535.83 L6.12 535.83" class="st6"/>
			<path d="M28.35 535.83 L50.57 535.83" class="st6"/>
			<rect x="19.9286" y="524.23" width="16.8357" height="9.59985" class="st8"/>
			<text x="19.93" y="531.43" class="st9">4mm</text>		</g>
		<g id="shape1409-304" transform="translate(322.297,-144.579)">
			<title>Horizontal</title>
			<desc>4mm</desc>
			<path d="M0 527.83 L0 551.67 L0 527.83 ZM56.69 527.83 L56.69 551.67 L56.69 527.83 Z" class="st4"/>
			<path d="M0 527.83 L0 551.67 L0 527.83" class="st5"/>
			<path d="M56.69 527.83 L56.69 551.67 L56.69 527.83" class="st5"/>
			<path d="M28.35 535.83 L6.12 535.83" class="st6"/>
			<path d="M28.35 535.83 L50.57 535.83" class="st6"/>
			<rect x="19.9286" y="524.23" width="16.8357" height="9.59985" class="st8"/>
			<text x="19.93" y="531.43" class="st9">4mm</text>		</g>
		<g id="group1410-316" transform="translate(345.834,-187.226)">
			<title>Sheet.1410</title>
		</g>
		<g id="group1411-317" transform="translate(402.527,-243.919)">
			<title>Sheet.1411</title>
			<g id="shape1412-318" transform="translate(407.094,934.421) rotate(135)">
				<title>Sheet.1412</title>
				<path d="M0 555.67 L20.04 555.67" class="st10"/>
			</g>
			<g id="shape1413-321" transform="translate(-378.747,948.595) rotate(-135)">
				<title>Sheet.1413</title>
				<path d="M0 555.67 L20.04 555.67" class="st10"/>
			</g>
		</g>
		<g id="group1414-324" transform="translate(345.834,-187.226)">
			<title>Sheet.1414</title>
			<g id="shape1415-325" transform="translate(407.094,934.421) rotate(135)">
				<title>Sheet.1415</title>
				<path d="M0 555.67 L20.04 555.67" class="st10"/>
			</g>
			<g id="shape1416-328" transform="translate(-378.747,948.595) rotate(-135)">
				<title>Sheet.1416</title>
				<path d="M0 555.67 L20.04 555.67" class="st10"/>
			</g>
		</g>
		<g id="shape1424-331" transform="translate(322.297,-116.737)">
			<title>Horizontal.1424</title>
			<desc>6mm</desc>
			<path d="M0 527.83 L0 551.67 L0 527.83 ZM85.04 527.83 L85.04 545.3 L85.04 527.83 Z" class="st4"/>
			<path d="M0 527.83 L0 551.67 L0 527.83" class="st5"/>
			<path d="M85.04 527.83 L85.04 545.3 L85.04 527.83" class="st5"/>
			<path d="M42.52 535.83 L6.12 535.83" class="st6"/>
			<path d="M42.52 535.83 L78.92 535.83" class="st6"/>
			<rect x="34.1018" y="524.23" width="16.8357" height="9.59985" class="st8"/>
			<text x="34.1" y="531.43" class="st9">6mm</text>		</g>
		<g id="shape1425-343" transform="translate(-54.3532,361.696) rotate(-90)">
			<title>Vertical.1425</title>
			<desc>6mm</desc>
			<path d="M0 527.83 L0 551.67 L0 527.83 ZM85.04 527.83 L85.04 552.33 L85.04 527.83 Z" class="st4"/>
			<path d="M0 527.83 L0 551.67 L0 527.83" class="st5"/>
			<path d="M85.04 527.83 L85.04 552.33 L85.04 527.83" class="st5"/>
			<path d="M42.52 535.83 L6.12 535.83" class="st6"/>
			<path d="M42.52 535.83 L78.92 535.83" class="st6"/>
			<rect x="34.1018" y="524.23" width="16.8357" height="9.59985" class="st8"/>
			<text x="34.1" y="531.43" class="st9">6mm</text>		</g>
		<g id="shape1426-355" transform="translate(346.221,-244.203)">
			<title>Circle</title>
			<path d="M0 549.11 A6.56444 6.56444 0 1 1 13.13 549.11 A6.56444 6.56444 0 1 1 0 549.11 Z" class="st11"/>
		</g>
		<g id="group1428-357" transform="translate(331.346,-252.162)">
			<title>Sheet.1428</title>
			<g id="shape1429-358" transform="translate(575.398,472.768) rotate(90)">
				<title>Sheet.1429</title>
				<path d="M0 555.67 L82.91 555.67" class="st12"/>
			</g>
			<g id="shape1430-361" transform="translate(-383.872,106.053) rotate(-45)">
				<title>Sheet.1430</title>
				<path d="M0 555.67 L28.35 555.67" class="st13"/>
			</g>
			<g id="shape1431-364" transform="translate(-388.445,128.528) rotate(-45)">
				<title>Sheet.1431</title>
				<path d="M0 555.67 L42.52 555.67" class="st13"/>
			</g>
			<g id="shape1432-367" transform="translate(-392.921,150.713) rotate(-45)">
				<title>Sheet.1432</title>
				<path d="M0 555.67 L56.69 555.67" class="st13"/>
			</g>
		</g>
		<g id="shape1433-370" transform="translate(-6.60505,361.793) rotate(-90)">
			<title>Vertical.1433</title>
			<desc>10mm</desc>
			<path d="M0 527.83 L0 551.67 L0 527.83 ZM141.73 527.83 L141.73 552.33 L141.73 527.83 Z" class="st4"/>
			<path d="M0 527.83 L0 551.67 L0 527.83" class="st5"/>
			<path d="M141.73 527.83 L141.73 552.33 L141.73 527.83" class="st5"/>
			<path d="M70.87 535.83 L6.12 535.83" class="st6"/>
			<path d="M70.87 535.83 L135.61 535.83" class="st6"/>
			<rect x="60.4209" y="524.23" width="20.8905" height="9.59985" class="st8"/>
			<text x="60.42" y="531.43" class="st9">10mm</text>		</g>
		<g id="shape1434-382" transform="translate(456.659,-378.132)">
			<title>Sheet.1434</title>
			<desc>PSV</desc>
			<rect x="0" y="484.808" width="200.126" height="70.8661" class="st14"/>
			<text x="90.8" y="523.84" class="st15">PSV</text>		</g>
	</g>
</svg>
