<?xml version="1.0" encoding="UTF-8" standalone="no"?>
<!DOCTYPE svg PUBLIC "-//W3C//DTD SVG 1.1//EN" "http://www.w3.org/Graphics/SVG/1.1/DTD/svg11.dtd">
<!-- Generated by Microsoft Visio, SVG Export ND0002_Detail.svg Page-1 -->
<svg xmlns="http://www.w3.org/2000/svg" xmlns:xlink="http://www.w3.org/1999/xlink" xmlns:ev="http://www.w3.org/2001/xml-events"
		width="2.05631in" height="1.86081in" viewBox="0 0 148.054 133.978" xml:space="preserve" color-interpolation-filters="sRGB"
		class="st15">
	<title>ND0002</title>

	<style type="text/css">
	<![CDATA[
		.st1 {fill:#ffffff;stroke:#ff0000;stroke-linecap:round;stroke-linejoin:round;stroke-width:2.25}
		.st2 {stroke:#000000;stroke-linecap:round;stroke-linejoin:round;stroke-width:2.25}
		.st3 {fill:#ffffff}
		.st4 {stroke:#000000;stroke-linecap:round;stroke-linejoin:round;stroke-width:0.24}
		.st5 {marker-end:url(#mrkr13-12);stroke:#000000;stroke-linecap:round;stroke-linejoin:round;stroke-width:0.24}
		.st6 {fill:#000000;fill-opacity:1;stroke:#000000;stroke-opacity:1;stroke-width:0.11764705882353}
		.st7 {fill:#ffffff;stroke:none;stroke-linecap:butt;stroke-width:7.2}
		.st8 {fill:#000000;font-family:Calibri;font-size:0.666664em}
		.st9 {stroke:#ff0000;stroke-linecap:round;stroke-linejoin:round;stroke-width:1.5}
		.st10 {fill:none;stroke:#ff0000;stroke-linecap:round;stroke-linejoin:round;stroke-width:0.75}
		.st11 {fill:#ff0000;font-family:Arial Narrow;font-size:0.833336em;font-weight:bold}
		.st12 {fill:none;stroke:none;stroke-linecap:round;stroke-linejoin:round;stroke-width:0.75}
		.st13 {fill:#ff0000;font-family:Arial Narrow;font-size:0.811964em;font-weight:bold}
		.st14 {baseline-shift:33.35%;font-size:0.667em}
		.st15 {fill:none;fill-rule:evenodd;font-size:12px;overflow:visible;stroke-linecap:square;stroke-miterlimit:3}
	]]>
	</style>

	<defs id="Markers">
		<g id="lend13">
			<path d="M 3 1 L 0 0 L 3 -1 L 3 1 " style="stroke:none"/>
		</g>
		<marker id="mrkr13-12" class="st6" refX="-25.5" orient="auto" markerUnits="strokeWidth" overflow="visible">
			<use xlink:href="#lend13" transform="scale(-8.5000000000001,-8.5000000000001) "/>
		</marker>
	</defs>
	<g>
		<title>Page-1</title>
		<g id="shape1405-1" transform="translate(98.5953,-22.157)">
			<title>Circle</title>
			<path d="M0 127.41 A6.56444 6.56444 0 0 1 13.13 127.41 A6.56444 6.56444 0 1 1 0 127.41 Z" class="st1"/>
		</g>
		<g id="shape1406-3" transform="translate(239.138,48.5638) rotate(90)">
			<title>Sheet.1406</title>
			<path d="M0 133.98 L56.6 133.98" class="st2"/>
		</g>
		<g id="shape1407-6" transform="translate(-99.6846,105.257) rotate(-90)">
			<title>Vertical.1015</title>
			<desc>4mm</desc>
			<path d="M0 106.14 L0 129.98 L0 106.14 ZM56.79 106.14 L56.79 138.08 L56.79 106.14 Z" class="st3"/>
			<path d="M0 106.14 L0 129.98 L0 106.14" class="st4"/>
			<path d="M56.79 106.14 L56.79 138.08 L56.79 106.14" class="st4"/>
			<path d="M28.39 114.14 L6.12 114.14" class="st5"/>
			<path d="M28.39 114.14 L50.67 114.14" class="st5"/>
			<rect x="19.9771" y="102.534" width="16.8357" height="9.59985" class="st7"/>
			<text x="19.98" y="109.73" class="st8">4mm</text>		</g>
		<g id="shape1408-19" transform="translate(76.8133,-85.4144)">
			<title>Sheet.1408</title>
			<path d="M0 133.98 L56.69 133.98" class="st2"/>
		</g>
		<g id="shape1409-22" transform="translate(76.8133,-99.6846)">
			<title>Horizontal</title>
			<desc>4mm</desc>
			<path d="M0 106.14 L0 129.98 L0 106.14 ZM56.69 106.14 L56.69 129.98 L56.69 106.14 Z" class="st3"/>
			<path d="M0 106.14 L0 129.98 L0 106.14" class="st4"/>
			<path d="M56.69 106.14 L56.69 129.98 L56.69 106.14" class="st4"/>
			<path d="M28.35 114.14 L6.12 114.14" class="st5"/>
			<path d="M28.35 114.14 L50.57 114.14" class="st5"/>
			<rect x="19.9286" y="102.534" width="16.8357" height="9.59985" class="st7"/>
			<text x="19.93" y="109.73" class="st8">4mm</text>		</g>
		<g id="group1410-34" transform="translate(98.0731,-78.4247)">
			<title>Sheet.1410</title>
			<g id="shape1411-35" transform="translate(108.91,214.542) rotate(135)">
				<title>Sheet.1411</title>
				<path d="M0 133.98 L20.04 133.98" class="st9"/>
			</g>
			<g id="shape1412-38" transform="translate(-80.5635,228.715) rotate(-135)">
				<title>Sheet.1412</title>
				<path d="M0 133.98 L20.04 133.98" class="st9"/>
			</g>
		</g>
		<g id="group1413-41" transform="translate(60.4984,-0.375)">
			<title>Sheet.1413</title>
			<g id="shape1414-42" transform="translate(2.14165,0)">
				<title>Sheet.1414</title>
				<desc>1</desc>
				<rect x="0" y="119.805" width="85.0394" height="14.1732" class="st10"/>
				<text x="40.24" y="129.89" class="st11">1</text>			</g>
			<g id="shape1415-45" transform="translate(0,-4.47576)">
				<title>Sheet.1415</title>
				<desc>A</desc>
				<rect x="0" y="119.805" width="13.2348" height="14.1732" class="st12"/>
				<text x="4" y="133.5" class="st13"><tspan class="st14">A</tspan></text>			</g>
		</g>
	</g>
</svg>
