<?xml version="1.0" encoding="UTF-8" standalone="no"?>
<!DOCTYPE svg PUBLIC "-//W3C//DTD SVG 1.1//EN" "http://www.w3.org/Graphics/SVG/1.1/DTD/svg11.dtd">
<!-- Generated by Microsoft Visio, SVG Export ND0011_Option1.svg Page-1 -->
<svg xmlns="http://www.w3.org/2000/svg" xmlns:xlink="http://www.w3.org/1999/xlink" xmlns:ev="http://www.w3.org/2001/xml-events"
		width="1.22082in" height="2.10506in" viewBox="0 0 87.899 151.564" xml:space="preserve" color-interpolation-filters="sRGB"
		class="st5">
	<title>ND0011</title>

	<style type="text/css">
	<![CDATA[
		.st1 {fill:#ffffff;stroke:#ff0000;stroke-linecap:round;stroke-linejoin:round;stroke-width:2.25}
		.st2 {fill:#000000;stroke:#000000;stroke-linecap:round;stroke-linejoin:round;stroke-width:2.25}
		.st3 {stroke:#000000;stroke-linecap:round;stroke-linejoin:round;stroke-width:2.25}
		.st4 {stroke:#000000;stroke-linecap:round;stroke-linejoin:round;stroke-width:0.75}
		.st5 {fill:none;fill-rule:evenodd;font-size:12px;overflow:visible;stroke-linecap:square;stroke-miterlimit:3}
	]]>
	</style>

	<g>
		<title>Page-1</title>
		<g id="shape1405-1" transform="translate(22.8264,-1.125)">
			<title>Circle</title>
			<path d="M0 145 A6.56444 6.56444 0 1 1 13.13 145 A6.56444 6.56444 0 1 1 0 145 Z" class="st1"/>
		</g>
		<g id="shape1422-3" transform="translate(1.125,-7.5037)">
			<title>Triangle.1422</title>
			<path d="M57.3 151.56 L28.65 94.26 L0 151.56 L57.3 151.56 Z" class="st2"/>
		</g>
		<g id="shape1423-5" transform="translate(-64.7902,115.546) rotate(-90)">
			<title>Triangle.1423</title>
			<path d="M57.3 151.56 L28.65 94.26 L0 151.56 L57.3 151.56 Z" class="st2"/>
		</g>
		<g id="group1424-7" transform="translate(9.38631,-67.4302)">
			<title>Sheet.1424</title>
			<g id="shape1417-8" transform="translate(171.288,68.6583) rotate(90)" display="none">
				<title>Sheet.1417</title>
				<path d="M0 151.56 L82.91 151.56" class="st3"/>
			</g>
			<g id="shape1419-11" transform="translate(-98.1236,-12.3083) rotate(-45)" display="none">
				<title>Sheet.1419</title>
				<path d="M0 151.56 L28.35 151.56" class="st4"/>
			</g>
			<g id="shape1420-14" transform="translate(-102.696,10.1675) rotate(-45)" display="none">
				<title>Sheet.1420</title>
				<path d="M0 151.56 L42.52 151.56" class="st4"/>
			</g>
			<g id="shape1421-17" transform="translate(-107.172,32.3524) rotate(-45)" display="none">
				<title>Sheet.1421</title>
				<path d="M0 151.56 L56.69 151.56" class="st4"/>
			</g>
		</g>
		<g id="group1425-20" transform="translate(9.42748,-67.5333)">
			<title>Sheet.1425</title>
			<g id="shape1426-21" transform="translate(171.288,68.6583) rotate(90)">
				<title>Sheet.1426</title>
				<path d="M0 151.56 L82.91 151.56" class="st3"/>
			</g>
			<g id="shape1427-24" transform="translate(-98.1236,-12.3083) rotate(-45)">
				<title>Sheet.1427</title>
				<path d="M0 151.56 L28.35 151.56" class="st4"/>
			</g>
			<g id="shape1428-27" transform="translate(-102.696,10.1675) rotate(-45)">
				<title>Sheet.1428</title>
				<path d="M0 151.56 L42.52 151.56" class="st4"/>
			</g>
			<g id="shape1429-30" transform="translate(-107.172,32.3524) rotate(-45)">
				<title>Sheet.1429</title>
				<path d="M0 151.56 L56.69 151.56" class="st4"/>
			</g>
		</g>
	</g>
</svg>
