<?xml version="1.0" encoding="UTF-8" standalone="no"?>
<!DOCTYPE svg PUBLIC "-//W3C//DTD SVG 1.1//EN" "http://www.w3.org/Graphics/SVG/1.1/DTD/svg11.dtd">
<!-- Generated by Microsoft Visio, SVG Export ND0013.svg Page-1 -->
<svg xmlns="http://www.w3.org/2000/svg" xmlns:xlink="http://www.w3.org/1999/xlink" xmlns:ev="http://www.w3.org/2001/xml-events"
		width="6.33046in" height="1.60605in" viewBox="0 0 455.793 115.636" xml:space="preserve" color-interpolation-filters="sRGB"
		class="st2">
	<title>ND0013</title>

	<style type="text/css">
	<![CDATA[
		.st1 {stroke:#000000;stroke-linecap:round;stroke-linejoin:round;stroke-width:2.25}
		.st2 {fill:none;fill-rule:evenodd;font-size:12px;overflow:visible;stroke-linecap:square;stroke-miterlimit:3}
	]]>
	</style>

	<g>
		<title>Page-1</title>
		<g id="group1435-1" transform="translate(1.125,-1.125)">
			<title>STPK012.134</title>
			<g id="shape1436-2" transform="translate(440.743,-31.3523) rotate(38.6608)">
				<title>Sheet.1436</title>
				<path d="M0 115.64 L90.75 115.64" class="st1"/>
			</g>
			<g id="shape1437-5" transform="translate(296.267,-31.3535) rotate(-38.6598)">
				<title>Sheet.1437</title>
				<path d="M0 115.64 L90.75 115.64" class="st1"/>
			</g>
			<g id="shape1438-8" transform="translate(453.541,231.272) rotate(180)">
				<title>Sheet.1438</title>
				<path d="M0 115.64 L453.54 115.64" class="st1"/>
			</g>
			<g id="shape1439-11" transform="translate(0,-113.386)">
				<title>Sheet.1439</title>
				<path d="M0 115.64 L453.54 115.64" class="st1"/>
			</g>
			<g id="shape1440-14" transform="translate(412.396,-31.3523) rotate(38.6608)">
				<title>Sheet.1440</title>
				<path d="M0 115.64 L90.75 115.64" class="st1"/>
			</g>
			<g id="shape1441-17" transform="translate(267.92,-31.3535) rotate(-38.6598)">
				<title>Sheet.1441</title>
				<path d="M0 115.64 L90.75 115.64" class="st1"/>
			</g>
			<g id="shape1442-20" transform="translate(384.05,-31.3523) rotate(38.6608)">
				<title>Sheet.1442</title>
				<path d="M0 115.64 L90.75 115.64" class="st1"/>
			</g>
			<g id="shape1443-23" transform="translate(239.574,-31.3535) rotate(-38.6598)">
				<title>Sheet.1443</title>
				<path d="M0 115.64 L90.75 115.64" class="st1"/>
			</g>
			<g id="shape1444-26" transform="translate(355.703,-31.3523) rotate(38.6608)">
				<title>Sheet.1444</title>
				<path d="M0 115.64 L90.75 115.64" class="st1"/>
			</g>
			<g id="shape1445-29" transform="translate(211.227,-31.3535) rotate(-38.6598)">
				<title>Sheet.1445</title>
				<path d="M0 115.64 L90.75 115.64" class="st1"/>
			</g>
			<g id="shape1446-32" transform="translate(327.357,-31.3523) rotate(38.6608)">
				<title>Sheet.1446</title>
				<path d="M0 115.64 L90.75 115.64" class="st1"/>
			</g>
			<g id="shape1447-35" transform="translate(182.881,-31.3535) rotate(-38.6598)">
				<title>Sheet.1447</title>
				<path d="M0 115.64 L90.75 115.64" class="st1"/>
			</g>
			<g id="shape1448-38" transform="translate(213.971,-31.3523) rotate(38.6608)">
				<title>Sheet.1448</title>
				<path d="M0 115.64 L90.75 115.64" class="st1"/>
			</g>
			<g id="shape1449-41" transform="translate(69.4952,-31.3535) rotate(-38.6598)">
				<title>Sheet.1449</title>
				<path d="M0 115.64 L90.75 115.64" class="st1"/>
			</g>
			<g id="shape1450-44" transform="translate(242.317,-31.3523) rotate(38.6608)">
				<title>Sheet.1450</title>
				<path d="M0 115.64 L90.75 115.64" class="st1"/>
			</g>
			<g id="shape1451-47" transform="translate(97.8416,-31.3535) rotate(-38.6598)">
				<title>Sheet.1451</title>
				<path d="M0 115.64 L90.75 115.64" class="st1"/>
			</g>
			<g id="shape1452-50" transform="translate(270.664,-31.3523) rotate(38.6608)">
				<title>Sheet.1452</title>
				<path d="M0 115.64 L90.75 115.64" class="st1"/>
			</g>
			<g id="shape1453-53" transform="translate(126.188,-31.3535) rotate(-38.6598)">
				<title>Sheet.1453</title>
				<path d="M0 115.64 L90.75 115.64" class="st1"/>
			</g>
			<g id="shape1454-56" transform="translate(299.01,-31.3523) rotate(38.6608)">
				<title>Sheet.1454</title>
				<path d="M0 115.64 L90.75 115.64" class="st1"/>
			</g>
			<g id="shape1455-59" transform="translate(154.535,-31.3535) rotate(-38.6598)">
				<title>Sheet.1455</title>
				<path d="M0 115.64 L90.75 115.64" class="st1"/>
			</g>
			<g id="shape1456-62" transform="translate(100.585,-31.3523) rotate(38.6608)">
				<title>Sheet.1456</title>
				<path d="M0 115.64 L90.75 115.64" class="st1"/>
			</g>
			<g id="shape1457-65" transform="translate(-43.8907,-31.3535) rotate(-38.6598)">
				<title>Sheet.1457</title>
				<path d="M0 115.64 L90.75 115.64" class="st1"/>
			</g>
			<g id="shape1458-68" transform="translate(128.932,-31.3523) rotate(38.6608)">
				<title>Sheet.1458</title>
				<path d="M0 115.64 L90.75 115.64" class="st1"/>
			</g>
			<g id="shape1459-71" transform="translate(-15.5442,-31.3535) rotate(-38.6598)">
				<title>Sheet.1459</title>
				<path d="M0 115.64 L90.75 115.64" class="st1"/>
			</g>
			<g id="shape1460-74" transform="translate(157.278,-31.3523) rotate(38.6608)">
				<title>Sheet.1460</title>
				<path d="M0 115.64 L90.75 115.64" class="st1"/>
			</g>
			<g id="shape1461-77" transform="translate(12.8022,-31.3535) rotate(-38.6598)">
				<title>Sheet.1461</title>
				<path d="M0 115.64 L90.75 115.64" class="st1"/>
			</g>
			<g id="shape1462-80" transform="translate(185.624,-31.3523) rotate(38.6608)">
				<title>Sheet.1462</title>
				<path d="M0 115.64 L90.75 115.64" class="st1"/>
			</g>
			<g id="shape1463-83" transform="translate(41.1487,-31.3535) rotate(-38.6598)">
				<title>Sheet.1463</title>
				<path d="M0 115.64 L90.75 115.64" class="st1"/>
			</g>
			<g id="shape1464-86" transform="translate(72.2387,-31.3523) rotate(38.6608)">
				<title>Sheet.1464</title>
				<path d="M0 115.64 L90.75 115.64" class="st1"/>
			</g>
			<g id="shape1465-89" transform="translate(-72.2371,-31.3535) rotate(-38.6598)">
				<title>Sheet.1465</title>
				<path d="M0 115.64 L90.75 115.64" class="st1"/>
			</g>
		</g>
	</g>
</svg>
