<?xml version="1.0" encoding="UTF-8" standalone="no"?>
<!DOCTYPE svg PUBLIC "-//W3C//DTD SVG 1.1//EN" "http://www.w3.org/Graphics/SVG/1.1/DTD/svg11.dtd">
<!-- Generated by Microsoft Visio, SVG Export ND0004_Option1.svg Page-1 -->
<svg xmlns="http://www.w3.org/2000/svg" xmlns:xlink="http://www.w3.org/1999/xlink" xmlns:ev="http://www.w3.org/2001/xml-events"
		width="3.57456in" height="2.39345in" viewBox="0 0 257.368 172.329" xml:space="preserve" color-interpolation-filters="sRGB"
		class="st3">
	<title>ND0004</title>

	<style type="text/css">
	<![CDATA[
		.st1 {stroke:#000000;stroke-linecap:round;stroke-linejoin:round;stroke-width:2.25}
		.st2 {fill:#000000;stroke:#000000;stroke-linecap:round;stroke-linejoin:round;stroke-width:2.25}
		.st3 {fill:none;fill-rule:evenodd;font-size:12px;overflow:visible;stroke-linecap:square;stroke-miterlimit:3}
	]]>
	</style>

	<g>
		<title>Page-1</title>
		<g id="group1636-1" transform="translate(1.125,-1.125)">
			<title>Sheet.1636</title>
			<g id="shape1623-2" transform="translate(-44.7679,73.1144) rotate(-90)">
				<title>Sheet.1623</title>
				<path d="M0 172.33 L42.52 172.33" class="st1"/>
			</g>
			<g id="shape1624-5" transform="translate(99.2144,-141.731)">
				<title>Sheet.1624</title>
				<path d="M0 172.33 L56.69 172.33" class="st1"/>
			</g>
			<g id="shape1625-8" transform="translate(-172.329,58.9429) rotate(-90)">
				<title>Sheet.1625</title>
				<path d="M0 172.33 L56.69 172.33" class="st1"/>
			</g>
			<g id="shape1626-11" transform="translate(6.39488E-14,-170.079)">
				<title>Sheet.1626</title>
				<path d="M0 172.33 L255.12 172.33" class="st1"/>
			</g>
			<g id="shape1627-14" transform="translate(427.447,2.25) rotate(90)">
				<title>Sheet.1627</title>
				<path d="M0 172.33 L56.69 172.33" class="st1"/>
			</g>
			<g id="shape1628-17" transform="translate(255.118,231.272) rotate(180)">
				<title>Sheet.1628</title>
				<path d="M0 172.33 L99.21 172.33" class="st1"/>
			</g>
			<g id="shape1629-20" transform="translate(328.234,58.9429) rotate(90)">
				<title>Sheet.1629</title>
				<path d="M0 172.33 L113.39 172.33" class="st1"/>
			</g>
			<g id="shape1630-23" transform="translate(155.906,344.657) rotate(180)">
				<title>Sheet.1630</title>
				<path d="M0 172.33 L56.69 172.33" class="st1"/>
			</g>
			<g id="shape1631-26" transform="translate(-73.1161,172.329) rotate(-90)">
				<title>Sheet.1631</title>
				<path d="M0 172.33 L113.39 172.33" class="st1"/>
			</g>
			<g id="shape1632-29" transform="translate(99.2126,231.272) rotate(180)">
				<title>Sheet.1632</title>
				<path d="M0 172.33 L99.21 172.33" class="st1"/>
			</g>
			<g id="shape1633-32" transform="translate(14.175,-120.472)">
				<title>Sheet.1633</title>
				<path d="M0 129.81 L0 172.33 L85.04 129.81 L85.04 172.33 L0 129.81 L0 129.81 Z" class="st2"/>
			</g>
			<g id="shape1634-34" transform="translate(106.301,-14.1768)">
				<title>Sheet.1634</title>
				<path d="M42.52 87.29 L0 87.29 L42.52 172.33 L0 172.33 L42.52 87.29 L42.52 87.29 Z" class="st2"/>
			</g>
			<g id="shape1635-36" transform="translate(155.907,-120.472)">
				<title>Sheet.1635</title>
				<path d="M0 129.81 L0 172.33 L85.04 129.81 L85.04 172.33 L0 129.81 L0 129.81 Z" class="st2"/>
			</g>
		</g>
	</g>
</svg>
