<?xml version="1.0" encoding="UTF-8"?><!DOCTYPE svg PUBLIC "-//W3C//DTD SVG 1.1//EN" "http://www.w3.org/Graphics/SVG/1.1/DTD/svg11.dtd"><svg xmlns="http://www.w3.org/2000/svg" xmlns:xlink="http://www.w3.org/1999/xlink" version="1.1" width="53.4416mm" height="51.0606mm" viewBox="-0.03125 -0.03125 12.625 12.0625"><defs vector-effect="non-scaling-stroke"/><g><g id="cell-hqkzYWXJw5HVD3Sl_868-290" layer="Symbol"><path d="M9.567173523927126 1.1630947380349994Q10.098156827257572 0.8182701489911102 11.332104640963493 2.7183831544924617 12.566052454669414 4.618496159993813 12.035069151338968 4.9633207490377025 11.066875073850753 2.8906252493159643 9.567173523927126 1.1630947380349994Z" fill="#000000" stroke="rgb(0, 0, 0)" stroke-miterlimit="10" pointer-events="none" stroke-width="0.25" stroke-linecap="round" stroke-linejoin="round"/></g><g id="cell-hqkzYWXJw5HVD3Sl_868-289" layer="Symbol"><path d="M12.31360811256177 4.942184347905647L8.592628509990824 5.868162639903339 7.367190681207013 3.981153862026135 9.726572696240392 0.9584991501648812Z" fill="#000000" stroke="rgb(0, 0, 0)" stroke-miterlimit="10" pointer-events="none" stroke-width="0.25" stroke-linecap="round" stroke-linejoin="round"/></g><g id="cell-hqkzYWXJw5HVD3Sl_868-293" layer="Symbol"><path d="M0.6926108996528269 5.436641499011093Q0.0360553904087495 5.057578999011092 1.1763678904087498 3.082499812505207 2.31636789040875 1.1079618918766876 2.972923399652827 1.4870243918766874 1.5043750120921058 3.271874812505207 0.6926108996528269 5.436641499011093Z" fill="#000000" stroke="rgb(0, 0, 0)" stroke-miterlimit="10" pointer-events="none" stroke-width="0.25" stroke-linecap="round" stroke-linejoin="round"/></g><g id="cell-hqkzYWXJw5HVD3Sl_868-292" layer="Symbol"><path d="M2.7513906331622113 1.2556896825300825L5.319859309617329 4.18197143726063 4.19485930961733 6.130528595775616 0.3763906331622131 5.369310350506165Z" fill="#000000" stroke="rgb(0, 0, 0)" stroke-miterlimit="10" pointer-events="none" stroke-width="0.25" stroke-linecap="round" stroke-linejoin="round"/></g><g id="cell-hqkzYWXJw5HVD3Sl_868-282" layer="Symbol"><path d="M8.703750133514404 11.323749866485596Q8.703750133514404 11.956874866485595 6.438125133514404 11.956874866485595 4.172500133514404 11.956874866485595 4.172500133514404 11.323749866485596 6.438125133514404 11.640624866485595 8.703750133514404 11.323749866485596Z" fill="#000000" stroke="rgb(0, 0, 0)" stroke-miterlimit="10" pointer-events="none" stroke-width="0.25" stroke-linecap="round" stroke-linejoin="round"/></g><g id="cell-hqkzYWXJw5HVD3Sl_868-280" layer="Symbol"><path d="M4.0625 11.5L5.3125 7.875 7.5625 7.875 8.8125 11.5Z" fill="#000000" stroke="rgb(0, 0, 0)" stroke-miterlimit="10" pointer-events="none" stroke-width="0.25" stroke-linecap="round" stroke-linejoin="round"/></g><g id="cell-hqkzYWXJw5HVD3Sl_868-261" layer="Symbol"><path fill="none" stroke="rgb(0, 0, 0)" stroke-width="0.25" pointer-events="all" d="M5.125 6a1.25 1.25 0 1 0 2.5 0 1.25 1.25 0 1 0-2.5 0" stroke-linecap="round" stroke-linejoin="round"/></g><g id="cell-hqkzYWXJw5HVD3Sl_868-246" layer="Symbol"><path fill="none" stroke="rgb(0, 0, 0)" pointer-events="all" d="M0.375 6a6 6 0 1 0 12 0 6 6 0 1 0-12 0" stroke-width="0.25" stroke-linecap="round" stroke-linejoin="round"/></g></g></svg>