<?xml version="1.0" encoding="UTF-8" standalone="no"?>
<!DOCTYPE svg PUBLIC "-//W3C//DTD SVG 1.1//EN" "http://www.w3.org/Graphics/SVG/1.1/DTD/svg11.dtd">
<!-- Generated by Microsoft Visio, SVG Export ND0004.svg Page-1 -->
<svg xmlns="http://www.w3.org/2000/svg" xmlns:xlink="http://www.w3.org/1999/xlink" xmlns:ev="http://www.w3.org/2001/xml-events"
		width="3.57456in" height="2.39345in" viewBox="0 0 257.368 172.329" xml:space="preserve" color-interpolation-filters="sRGB"
		class="st3">
	<title>ND0004</title>

	<style type="text/css">
	<![CDATA[
		.st1 {stroke:#000000;stroke-linecap:round;stroke-linejoin:round;stroke-width:2.25}
		.st2 {fill:none;stroke:#000000;stroke-linecap:round;stroke-linejoin:round;stroke-width:2.25}
		.st3 {fill:none;fill-rule:evenodd;font-size:12px;overflow:visible;stroke-linecap:square;stroke-miterlimit:3}
	]]>
	</style>

	<g>
		<title>Page-1</title>
		<g id="group1597-1" transform="translate(1.125,-1.125)">
			<title>STPV035.2543</title>
			<g id="shape1598-2" transform="translate(-44.7679,73.1144) rotate(-90)">
				<title>Sheet.1598</title>
				<path d="M0 172.33 L42.52 172.33" class="st1"/>
			</g>
			<g id="shape1599-5" transform="translate(99.2144,-141.731)">
				<title>Sheet.1599</title>
				<path d="M0 172.33 L56.69 172.33" class="st1"/>
			</g>
			<g id="shape1600-8" transform="translate(-172.329,58.9429) rotate(-90)">
				<title>Sheet.1600</title>
				<path d="M0 172.33 L56.69 172.33" class="st1"/>
			</g>
			<g id="shape1601-11" transform="translate(0,-170.079)">
				<title>Sheet.1601</title>
				<path d="M0 172.33 L255.12 172.33" class="st1"/>
			</g>
			<g id="shape1602-14" transform="translate(427.447,2.25) rotate(90)">
				<title>Sheet.1602</title>
				<path d="M0 172.33 L56.69 172.33" class="st1"/>
			</g>
			<g id="shape1603-17" transform="translate(255.118,231.272) rotate(180)">
				<title>Sheet.1603</title>
				<path d="M0 172.33 L99.21 172.33" class="st1"/>
			</g>
			<g id="shape1604-20" transform="translate(328.234,58.9429) rotate(90)">
				<title>Sheet.1604</title>
				<path d="M0 172.33 L113.39 172.33" class="st1"/>
			</g>
			<g id="shape1605-23" transform="translate(155.906,344.657) rotate(180)">
				<title>Sheet.1605</title>
				<path d="M0 172.33 L56.69 172.33" class="st1"/>
			</g>
			<g id="shape1606-26" transform="translate(-73.1161,172.329) rotate(-90)">
				<title>Sheet.1606</title>
				<path d="M0 172.33 L113.39 172.33" class="st1"/>
			</g>
			<g id="shape1607-29" transform="translate(99.2126,231.272) rotate(180)">
				<title>Sheet.1607</title>
				<path d="M0 172.33 L99.21 172.33" class="st1"/>
			</g>
			<g id="shape1608-32" transform="translate(14.175,-120.472)">
				<title>Sheet.1608</title>
				<path d="M0 129.81 L0 172.33 L85.04 129.81 L85.04 172.33 L0 129.81 L0 129.81 Z" class="st2"/>
			</g>
			<g id="shape1609-34" transform="translate(106.301,-14.1768)">
				<title>Sheet.1609</title>
				<path d="M42.52 87.29 L0 87.29 L42.52 172.33 L0 172.33 L42.52 87.29 L42.52 87.29 Z" class="st2"/>
			</g>
			<g id="shape1610-36" transform="translate(155.907,-120.472)">
				<title>Sheet.1610</title>
				<path d="M0 129.81 L0 172.33 L85.04 129.81 L85.04 172.33 L0 129.81 L0 129.81 Z" class="st2"/>
			</g>
		</g>
	</g>
</svg>
