<?xml version="1.0" encoding="UTF-8" standalone="no"?>
<!DOCTYPE svg PUBLIC "-//W3C//DTD SVG 1.1//EN" "http://www.w3.org/Graphics/SVG/1.1/DTD/svg11.dtd">
<!-- Generated by Microsoft Visio, SVG Export ND0008_Detail.svg Page-1 -->
<svg xmlns="http://www.w3.org/2000/svg" xmlns:xlink="http://www.w3.org/1999/xlink" xmlns:ev="http://www.w3.org/2001/xml-events"
		width="9.44691in" height="2.96714in" viewBox="0 0 680.177 213.634" xml:space="preserve" color-interpolation-filters="sRGB"
		class="st15">
	<title>ND0008</title>

	<style type="text/css">
	<![CDATA[
		.st1 {fill:none;stroke:#ff0000;stroke-linecap:round;stroke-linejoin:round;stroke-width:2.25}
		.st2 {stroke:#000000;stroke-linecap:round;stroke-linejoin:round;stroke-width:2.25}
		.st3 {fill:#ffffff}
		.st4 {stroke:#000000;stroke-linecap:round;stroke-linejoin:round;stroke-width:0.24}
		.st5 {marker-end:url(#mrkr13-24);stroke:#000000;stroke-linecap:round;stroke-linejoin:round;stroke-width:0.24}
		.st6 {fill:#000000;fill-opacity:1;stroke:#000000;stroke-opacity:1;stroke-width:0.11764705882353}
		.st7 {fill:#ffffff;stroke:none;stroke-linecap:butt;stroke-width:7.2}
		.st8 {fill:#000000;font-family:Calibri;font-size:0.666664em}
		.st9 {stroke:#ff0000;stroke-linecap:round;stroke-linejoin:round;stroke-width:1.5}
		.st10 {fill:none;stroke:#ff0000;stroke-linecap:round;stroke-linejoin:round;stroke-width:0.75}
		.st11 {fill:#ff0000;font-family:Arial Narrow;font-size:0.833336em;font-weight:bold}
		.st12 {fill:none;stroke:none;stroke-linecap:round;stroke-linejoin:round;stroke-width:0.75}
		.st13 {fill:#ff0000;font-family:Arial Narrow;font-size:0.811964em;font-weight:bold}
		.st14 {baseline-shift:33.35%;font-size:0.667em}
		.st15 {fill:none;fill-rule:evenodd;font-size:12px;overflow:visible;stroke-linecap:square;stroke-miterlimit:3}
	]]>
	</style>

	<defs id="Markers">
		<g id="lend13">
			<path d="M 3 1 L 0 0 L 3 -1 L 3 1 " style="stroke:none"/>
		</g>
		<marker id="mrkr13-24" class="st6" refX="-25.5" orient="auto" markerUnits="strokeWidth" overflow="visible">
			<use xlink:href="#lend13" transform="scale(-8.5000000000001,-8.5000000000001) "/>
		</marker>
	</defs>
	<g>
		<title>Page-1</title>
		<g id="shape1405-1" transform="translate(41.9024,-109.369)">
			<title>Circle</title>
			<path d="M0 207.07 A6.56444 6.56444 0 0 1 13.13 207.07 A6.56444 6.56444 0 1 1 0 207.07 Z" class="st1"/>
		</g>
		<g id="shape1406-3" transform="translate(262.101,55.1804) rotate(90)">
			<title>Sheet.1406</title>
			<path d="M0 213.63 L85.14 213.63" class="st2"/>
		</g>
		<g id="shape1407-6" transform="translate(48.5034,-158.454) rotate(0.00980221)">
			<title>Sheet.1407</title>
			<path d="M0 213.63 L566.93 213.63" class="st2"/>
		</g>
		<g id="shape1408-9" transform="translate(48.4668,-73.3172)">
			<title>Sheet.1408</title>
			<path d="M0 213.63 L566.93 213.63" class="st2"/>
		</g>
		<g id="shape1409-12" transform="translate(800.269,268.704) rotate(143.13)">
			<title>Sheet.1409</title>
			<path d="M0 213.63 L70.87 213.63" class="st2"/>
		</g>
		<g id="shape1410-15" transform="translate(543.908,268.704) rotate(-143.13)">
			<title>Sheet.1410</title>
			<path d="M0 213.63 L70.87 213.63" class="st2"/>
		</g>
		<g id="shape1411-18" transform="translate(48.4668,-20.4511)">
			<title>Horizontal</title>
			<desc>40mm</desc>
			<path d="M0 185.79 L0 209.63 L0 185.79 ZM566.93 185.79 L566.93 227.63 L566.93 185.79 Z" class="st3"/>
			<path d="M0 185.79 L0 209.63 L0 185.79" class="st4"/>
			<path d="M566.93 185.79 L566.93 227.63 L566.93 185.79" class="st4"/>
			<path d="M283.46 193.79 L6.12 193.79" class="st5"/>
			<path d="M283.46 193.79 L560.81 193.79" class="st5"/>
			<rect x="273.019" y="182.19" width="20.8905" height="9.59985" class="st7"/>
			<text x="273.02" y="189.39" class="st8">40mm</text>		</g>
		<g id="shape1412-31" transform="translate(-179.34,140.317) rotate(-90)">
			<title>Vertical</title>
			<desc>6mm</desc>
			<path d="M0 185.79 L0 209.63 L0 185.79 ZM85.04 185.79 L85.04 209.63 L85.04 185.79 Z" class="st3"/>
			<path d="M0 185.79 L0 209.63 L0 185.79" class="st4"/>
			<path d="M85.04 185.79 L85.04 209.63 L85.04 185.79" class="st4"/>
			<path d="M42.52 193.79 L6.12 193.79" class="st5"/>
			<path d="M42.52 193.79 L78.92 193.79" class="st5"/>
			<rect x="34.1018" y="182.19" width="16.8357" height="9.59985" class="st7"/>
			<text x="34.1" y="189.39" class="st8">6mm</text>		</g>
		<g id="shape1413-43" transform="translate(48.4668,-179.34)">
			<title>Horizontal.1025</title>
			<desc>44mm</desc>
			<path d="M0 185.79 L0 209.63 L0 185.79 ZM623.62 185.79 L623.62 230.62 L623.62 185.79 Z" class="st3"/>
			<path d="M0 185.79 L0 209.63 L0 185.79" class="st4"/>
			<path d="M623.62 185.79 L623.62 230.62 L623.62 185.79" class="st4"/>
			<path d="M311.81 193.79 L6.12 193.79" class="st5"/>
			<path d="M311.81 193.79 L617.5 193.79" class="st5"/>
			<rect x="301.366" y="182.19" width="20.8905" height="9.59985" class="st7"/>
			<text x="301.37" y="189.39" class="st8">44mm</text>		</g>
		<g id="group1414-55" transform="translate(41.3801,-108.75)">
			<title>Sheet.1414</title>
			<g id="shape1415-56" transform="translate(165.235,350.523) rotate(135)">
				<title>Sheet.1415</title>
				<path d="M0 213.63 L20.04 213.63" class="st9"/>
			</g>
			<g id="shape1416-59" transform="translate(-136.889,364.696) rotate(-135)">
				<title>Sheet.1416</title>
				<path d="M0 213.63 L20.04 213.63" class="st9"/>
			</g>
		</g>
		<g id="group1417-62" transform="translate(302.514,-109.869)">
			<title>Sheet.1417</title>
			<g id="shape1418-63" transform="translate(2.14165,2.84217E-14)">
				<title>Sheet.1418</title>
				<desc>1</desc>
				<rect x="0" y="199.461" width="85.0394" height="14.1732" class="st10"/>
				<text x="40.24" y="209.55" class="st11">1</text>			</g>
			<g id="shape1419-66" transform="translate(0,-4.47576)">
				<title>Sheet.1419</title>
				<desc>A</desc>
				<rect x="0" y="199.461" width="13.2348" height="14.1732" class="st12"/>
				<text x="4" y="213.15" class="st13"><tspan class="st14">A</tspan></text>			</g>
		</g>
		<g id="group1420-70" transform="translate(665.254,-108.682)">
			<title>Sheet.1420</title>
			<g id="shape1421-71" transform="translate(165.235,350.523) rotate(135)">
				<title>Sheet.1421</title>
				<path d="M0 213.63 L20.04 213.63" class="st9"/>
			</g>
			<g id="shape1422-74" transform="translate(-136.889,364.696) rotate(-135)">
				<title>Sheet.1422</title>
				<path d="M0 213.63 L20.04 213.63" class="st9"/>
			</g>
		</g>
	</g>
</svg>
