<?xml version="1.0" encoding="UTF-8" standalone="no"?>
<!DOCTYPE svg PUBLIC "-//W3C//DTD SVG 1.1//EN" "http://www.w3.org/Graphics/SVG/1.1/DTD/svg11.dtd">
<!-- Generated by Microsoft Visio, SVG Export ND0013_Detail.svg Page-1 -->
<svg xmlns="http://www.w3.org/2000/svg" xmlns:xlink="http://www.w3.org/1999/xlink" xmlns:ev="http://www.w3.org/2001/xml-events"
		width="7.22745in" height="2.45566in" viewBox="0 0 520.377 176.808" xml:space="preserve" color-interpolation-filters="sRGB"
		class="st9">
	<title>ND0013</title>

	<style type="text/css">
	<![CDATA[
		.st1 {fill:#ffffff}
		.st2 {stroke:#000000;stroke-linecap:round;stroke-linejoin:round;stroke-width:0.24}
		.st3 {marker-end:url(#mrkr13-7);stroke:#000000;stroke-linecap:round;stroke-linejoin:round;stroke-width:0.24}
		.st4 {fill:#000000;fill-opacity:1;stroke:#000000;stroke-opacity:1;stroke-width:0.11764705882353}
		.st5 {fill:#ffffff;stroke:none;stroke-linecap:butt;stroke-width:7.2}
		.st6 {fill:#000000;font-family:Calibri;font-size:0.666664em}
		.st7 {stroke:#000000;stroke-linecap:round;stroke-linejoin:round;stroke-width:2.25}
		.st8 {fill:none;stroke:#ff0000;stroke-linecap:round;stroke-linejoin:round;stroke-width:2.25}
		.st9 {fill:none;fill-rule:evenodd;font-size:12px;overflow:visible;stroke-linecap:square;stroke-miterlimit:3}
	]]>
	</style>

	<defs id="Markers">
		<g id="lend13">
			<path d="M 3 1 L 0 0 L 3 -1 L 3 1 " style="stroke:none"/>
		</g>
		<marker id="mrkr13-7" class="st4" refX="-25.5" orient="auto" markerUnits="strokeWidth" overflow="visible">
			<use xlink:href="#lend13" transform="scale(-8.5000000000001,-8.5000000000001) "/>
		</marker>
	</defs>
	<g>
		<title>Page-1</title>
		<g id="shape1418-1" transform="translate(7.68944,-134.01)">
			<title>Horizontal.1018</title>
			<desc>32mm</desc>
			<path d="M0 140.46 L0 172.81 L0 140.46 ZM453.54 140.46 L453.54 172.81 L453.54 140.46 Z" class="st1"/>
			<path d="M0 140.46 L0 172.81 L0 140.46" class="st2"/>
			<path d="M453.54 140.46 L453.54 172.81 L453.54 140.46" class="st2"/>
			<path d="M226.77 148.46 L6.12 148.46" class="st3"/>
			<path d="M226.77 148.46 L447.42 148.46" class="st3"/>
			<rect x="216.326" y="136.86" width="20.8905" height="9.59985" class="st5"/>
			<text x="216.33" y="144.06" class="st6">32mm</text>		</g>
		<g id="shape1419-14" transform="translate(341.118,170.357) rotate(-90)">
			<title>Vertical.1019</title>
			<desc>8mm</desc>
			<path d="M0 147.55 L0 172.81 L0 147.55 ZM114.23 147.55 L114.23 172.81 L114.23 147.55 Z" class="st1"/>
			<path d="M0 147.55 L0 172.81 L0 147.55" class="st2"/>
			<path d="M114.23 147.55 L114.23 172.81 L114.23 147.55" class="st2"/>
			<path d="M57.11 155.55 L6.12 155.55" class="st3"/>
			<path d="M57.11 155.55 L108.11 155.55" class="st3"/>
			<rect x="48.6965" y="143.946" width="16.8357" height="9.59985" class="st5"/>
			<text x="48.7" y="151.15" class="st6">8mm</text>		</g>
		<g id="group1435-26" transform="translate(7.68944,-6.45105)">
			<title>STPK012.134</title>
			<g id="shape1436-27" transform="translate(478.957,-17.947) rotate(38.6608)">
				<title>Sheet.1436</title>
				<path d="M0 176.81 L90.75 176.81" class="st7"/>
			</g>
			<g id="shape1437-30" transform="translate(258.053,-17.9489) rotate(-38.6598)">
				<title>Sheet.1437</title>
				<path d="M0 176.81 L90.75 176.81" class="st7"/>
			</g>
			<g id="shape1438-33" transform="translate(453.541,353.615) rotate(180)">
				<title>Sheet.1438</title>
				<path d="M0 176.81 L453.54 176.81" class="st7"/>
			</g>
			<g id="shape1439-36" transform="translate(0,-113.386)">
				<title>Sheet.1439</title>
				<path d="M0 176.81 L453.54 176.81" class="st7"/>
			</g>
			<g id="shape1440-39" transform="translate(450.611,-17.947) rotate(38.6608)">
				<title>Sheet.1440</title>
				<path d="M0 176.81 L90.75 176.81" class="st7"/>
			</g>
			<g id="shape1441-42" transform="translate(229.707,-17.9489) rotate(-38.6598)">
				<title>Sheet.1441</title>
				<path d="M0 176.81 L90.75 176.81" class="st7"/>
			</g>
			<g id="shape1442-45" transform="translate(422.264,-17.947) rotate(38.6608)">
				<title>Sheet.1442</title>
				<path d="M0 176.81 L90.75 176.81" class="st7"/>
			</g>
			<g id="shape1443-48" transform="translate(201.36,-17.9489) rotate(-38.6598)">
				<title>Sheet.1443</title>
				<path d="M0 176.81 L90.75 176.81" class="st7"/>
			</g>
			<g id="shape1444-51" transform="translate(393.918,-17.947) rotate(38.6608)">
				<title>Sheet.1444</title>
				<path d="M0 176.81 L90.75 176.81" class="st7"/>
			</g>
			<g id="shape1445-54" transform="translate(173.014,-17.9489) rotate(-38.6598)">
				<title>Sheet.1445</title>
				<path d="M0 176.81 L90.75 176.81" class="st7"/>
			</g>
			<g id="shape1446-57" transform="translate(365.571,-17.947) rotate(38.6608)">
				<title>Sheet.1446</title>
				<path d="M0 176.81 L90.75 176.81" class="st7"/>
			</g>
			<g id="shape1447-60" transform="translate(144.667,-17.9489) rotate(-38.6598)">
				<title>Sheet.1447</title>
				<path d="M0 176.81 L90.75 176.81" class="st7"/>
			</g>
			<g id="shape1448-63" transform="translate(252.185,-17.947) rotate(38.6608)">
				<title>Sheet.1448</title>
				<path d="M0 176.81 L90.75 176.81" class="st7"/>
			</g>
			<g id="shape1449-66" transform="translate(31.2815,-17.9489) rotate(-38.6598)">
				<title>Sheet.1449</title>
				<path d="M0 176.81 L90.75 176.81" class="st7"/>
			</g>
			<g id="shape1450-69" transform="translate(280.532,-17.947) rotate(38.6608)">
				<title>Sheet.1450</title>
				<path d="M0 176.81 L90.75 176.81" class="st7"/>
			</g>
			<g id="shape1451-72" transform="translate(59.6279,-17.9489) rotate(-38.6598)">
				<title>Sheet.1451</title>
				<path d="M0 176.81 L90.75 176.81" class="st7"/>
			</g>
			<g id="shape1452-75" transform="translate(308.878,-17.947) rotate(38.6608)">
				<title>Sheet.1452</title>
				<path d="M0 176.81 L90.75 176.81" class="st7"/>
			</g>
			<g id="shape1453-78" transform="translate(87.9744,-17.9489) rotate(-38.6598)">
				<title>Sheet.1453</title>
				<path d="M0 176.81 L90.75 176.81" class="st7"/>
			</g>
			<g id="shape1454-81" transform="translate(337.225,-17.947) rotate(38.6608)">
				<title>Sheet.1454</title>
				<path d="M0 176.81 L90.75 176.81" class="st7"/>
			</g>
			<g id="shape1455-84" transform="translate(116.321,-17.9489) rotate(-38.6598)">
				<title>Sheet.1455</title>
				<path d="M0 176.81 L90.75 176.81" class="st7"/>
			</g>
			<g id="shape1456-87" transform="translate(138.8,-17.947) rotate(38.6608)">
				<title>Sheet.1456</title>
				<path d="M0 176.81 L90.75 176.81" class="st7"/>
			</g>
			<g id="shape1457-90" transform="translate(-82.1044,-17.9489) rotate(-38.6598)">
				<title>Sheet.1457</title>
				<path d="M0 176.81 L90.75 176.81" class="st7"/>
			</g>
			<g id="shape1458-93" transform="translate(167.146,-17.947) rotate(38.6608)">
				<title>Sheet.1458</title>
				<path d="M0 176.81 L90.75 176.81" class="st7"/>
			</g>
			<g id="shape1459-96" transform="translate(-53.7579,-17.9489) rotate(-38.6598)">
				<title>Sheet.1459</title>
				<path d="M0 176.81 L90.75 176.81" class="st7"/>
			</g>
			<g id="shape1460-99" transform="translate(195.493,-17.947) rotate(38.6608)">
				<title>Sheet.1460</title>
				<path d="M0 176.81 L90.75 176.81" class="st7"/>
			</g>
			<g id="shape1461-102" transform="translate(-25.4115,-17.9489) rotate(-38.6598)">
				<title>Sheet.1461</title>
				<path d="M0 176.81 L90.75 176.81" class="st7"/>
			</g>
			<g id="shape1462-105" transform="translate(223.839,-17.947) rotate(38.6608)">
				<title>Sheet.1462</title>
				<path d="M0 176.81 L90.75 176.81" class="st7"/>
			</g>
			<g id="shape1463-108" transform="translate(2.93501,-17.9489) rotate(-38.6598)">
				<title>Sheet.1463</title>
				<path d="M0 176.81 L90.75 176.81" class="st7"/>
			</g>
			<g id="shape1464-111" transform="translate(110.453,-17.947) rotate(38.6608)">
				<title>Sheet.1464</title>
				<path d="M0 176.81 L90.75 176.81" class="st7"/>
			</g>
			<g id="shape1465-114" transform="translate(-110.451,-17.9489) rotate(-38.6598)">
				<title>Sheet.1465</title>
				<path d="M0 176.81 L90.75 176.81" class="st7"/>
			</g>
		</g>
		<g id="shape1469-117" transform="translate(1.125,-113.272)">
			<title>Circle.1412</title>
			<path d="M0 170.24 A6.56444 6.56444 0 0 1 13.13 170.24 A6.56444 6.56444 0 1 1 0 170.24 Z" class="st8"/>
		</g>
	</g>
</svg>
