<?xml version="1.0" encoding="UTF-8" standalone="no"?>
<!DOCTYPE svg PUBLIC "-//W3C//DTD SVG 1.1//EN" "http://www.w3.org/Graphics/SVG/1.1/DTD/svg11.dtd">
<!-- Generated by Microsoft Visio, SVG Export ND0020.svg Page-1 -->
<svg xmlns="http://www.w3.org/2000/svg" xmlns:xlink="http://www.w3.org/1999/xlink" xmlns:ev="http://www.w3.org/2001/xml-events"
		width="2.0061in" height="2.79703in" viewBox="0 0 144.439 201.386" xml:space="preserve" color-interpolation-filters="sRGB"
		class="st4">
	<title>ND0020</title>

	<style type="text/css">
	<![CDATA[
		.st1 {fill:#ffffff;stroke:#000000;stroke-linecap:round;stroke-linejoin:round;stroke-width:2.25}
		.st2 {stroke:#000000;stroke-linecap:round;stroke-linejoin:round;stroke-width:2.25}
		.st3 {fill:none}
		.st4 {fill:none;fill-rule:evenodd;font-size:12px;overflow:visible;stroke-linecap:square;stroke-miterlimit:3}
	]]>
	</style>

	<g>
		<title>Page-1</title>
		<g id="shape1406-1" transform="translate(202.511,142.959) rotate(90)">
			<title>Triangle</title>
			<path d="M57.3 201.39 L28.65 144.08 L0 201.39 L57.3 201.39 Z" class="st1"/>
		</g>
		<g id="shape1412-3" transform="translate(-85.3513,199.956) rotate(-90)">
			<title>Triangle.1526</title>
			<path d="M57.3 201.39 L28.65 144.08 L0 201.39 L57.3 201.39 Z" class="st1"/>
		</g>
		<g id="shape1424-5" transform="translate(-142.445,43.6447) rotate(-90)">
			<title>Sheet.1424</title>
			<path d="M0 201.39 L42.52 201.39" class="st2"/>
		</g>
		<g id="shape1425-8" transform="translate(58.9408,-200.261)">
			<title>Sheet.1425</title>
			<path d="M0 201.39 L84.37 201.39" class="st2"/>
		</g>
		<g id="shape1426-11" transform="translate(344.701,1.125) rotate(90)">
			<title>Sheet.1426</title>
			<path d="M0 201.39 L42.52 201.39" class="st2"/>
		</g>
		<g id="shape1427-14" transform="translate(311.281,154.746) rotate(123.483)">
			<title>Sheet.1427</title>
			<path d="M0 201.39 L152.94 201.39" class="st2"/>
		</g>
		<g id="group1428-17" transform="translate(15.7554,-30.1824)">
			<title>STPA008.1418</title>
			<g id="shape1429-18" transform="translate(0,-99.212)">
				<title>Sheet.1429</title>
				<path d="M0 201.39 L85.04 201.39" class="st2"/>
			</g>
			<g id="shape1430-21" transform="translate(243.908,102.188) rotate(90.0023)">
				<title>Sheet.1430</title>
				<path d="M0 201.39 L99.21 201.39" class="st2"/>
			</g>
			<g id="shape1431-24" transform="translate(0.00401742,-99.2067)">
				<title>Sheet.1431</title>
				<path d="M85.04 201.39 A42.5177 28.3515 -180 1 0 0 201.39 L85.04 201.39 Z" class="st3"/>
				<path d="M85.04 201.39 A42.5177 28.3515 -180 1 0 0 201.39" class="st2"/>
			</g>
		</g>
	</g>
</svg>
