<?xml version="1.0" encoding="UTF-8"?><!DOCTYPE svg PUBLIC "-//W3C//DTD SVG 1.1//EN" "http://www.w3.org/Graphics/SVG/1.1/DTD/svg11.dtd"><svg xmlns="http://www.w3.org/2000/svg" xmlns:xlink="http://www.w3.org/1999/xlink" version="1.1" width="546.057mm" height="410.601mm" viewBox="-64.5 -32.5 129 97"><defs/><g><g id="cell-RnfLC_OCD_TFDwc1yJpn-7" content="&lt;object label=&quot;%LabelLines%&amp;amp;nbsp; &amp;amp;nbsp; &amp;amp;nbsp; &amp;amp;nbsp; &amp;amp;nbsp; &amp;amp;nbsp;%LabelIndex%&quot; placeholders=&quot;1&quot; LabelLines=&quot;2&quot; LabelIndex=&quot;A&quot;/&gt;" data-label="%LabelLines%&amp;nbsp; &amp;nbsp; &amp;nbsp; &amp;nbsp; &amp;nbsp; &amp;nbsp;%LabelIndex%" data-placeholders="1" data-LabelLines="2" data-LabelIndex="A" layer="Label"><path fill="none" stroke="#ff0000" pointer-events="all" d="M-40 48L40 48 40 64-40 64z" stroke-linecap="round" stroke-linejoin="round"/><g><text x="26" y="91" fill="#FF0000" font-family="Helvetica" font-size="10px" transform="translate(-64 -32) translate(-0.5 -0.5)" stroke-linecap="round" stroke-linejoin="round">2           A</text></g></g><g id="cell-RnfLC_OCD_TFDwc1yJpn-3" layer="Option1"><path d="M-64-32L0 0-64 32Z" fill="#000000" stroke="rgb(0, 0, 0)" stroke-miterlimit="10" pointer-events="all" stroke-linecap="round" stroke-linejoin="round"/></g><g id="cell-RnfLC_OCD_TFDwc1yJpn-4" layer="Option1"><path d="M64 32.00000000000001L0 0 64-32Z" fill="#000000" stroke="rgb(0, 0, 0)" stroke-miterlimit="10" pointer-events="all" stroke-linecap="round" stroke-linejoin="round"/></g><g id="cell-__6hd54pacrSICpGixCx-3" layer="Option1"><path fill="#000000" stroke="rgb(0, 0, 0)" pointer-events="all" d="M-16 0a16 16 0 1 0 32 0 16 16 0 1 0-32 0" stroke-linecap="round" stroke-linejoin="round"/></g><g id="cell-StdrhvBKZlyMzEwMvAKF-1" layer="Option1"><path fill="none" stroke="rgb(0, 0, 0)" pointer-events="all" d="M-32 1a32 32 0 1 0 64 0 32 32 0 1 0-64 0" stroke-linecap="round" stroke-linejoin="round"/></g><g id="cell-RnfLC_OCD_TFDwc1yJpn-2" content="&lt;object label=&quot;origo&quot;/&gt;" data-label="origo" layer="Origo"><path d="M-4 0C-4-2.210000000000001-2.210000000000001-4 0-4 2.2099999999999937-4 4-2.210000000000001 4 0 4 2.210000000000001 2.2099999999999937 4 0 4-2.210000000000001 4-4 2.210000000000001-4 0" fill="none" stroke="#ff0000" stroke-miterlimit="10" pointer-events="all" stroke-linecap="round" stroke-linejoin="round"/></g></g></svg>