<?xml version="1.0" encoding="UTF-8" standalone="no"?>
<!DOCTYPE svg PUBLIC "-//W3C//DTD SVG 1.1//EN" "http://www.w3.org/Graphics/SVG/1.1/DTD/svg11.dtd">
<!-- Generated by Microsoft Visio, SVG Export ND0016.svg Page-1 -->
<svg xmlns="http://www.w3.org/2000/svg" xmlns:xlink="http://www.w3.org/1999/xlink" xmlns:ev="http://www.w3.org/2001/xml-events"
		width="2.39345in" height="2.39345in" viewBox="0 0 172.329 172.329" xml:space="preserve" color-interpolation-filters="sRGB"
		class="st5">
	<title>ND0016</title>

	<style type="text/css">
	<![CDATA[
		.st1 {fill:none;stroke:#000000;stroke-linecap:round;stroke-linejoin:round;stroke-width:2.25}
		.st2 {stroke:#000000;stroke-linecap:round;stroke-linejoin:round;stroke-width:2.25}
		.st3 {fill:none}
		.st4 {fill:#000000;stroke:#000000;stroke-linecap:round;stroke-linejoin:round;stroke-width:2.25}
		.st5 {fill:none;fill-rule:evenodd;font-size:12px;overflow:visible;stroke-linecap:square;stroke-miterlimit:3}
	]]>
	</style>

	<g>
		<title>Page-1</title>
		<g id="group1496-1" transform="translate(1.125,-1.125)">
			<title>Sheet.1496</title>
			<g id="shape1475-2" transform="translate(68.0315,-68.0315)">
				<title>Sheet.1475</title>
				<ellipse cx="17.0079" cy="155.321" rx="17.0079" ry="17.0079" class="st1"/>
			</g>
			<g id="shape1476-4" transform="translate(110.551,-85.0394)">
				<title>Sheet.1476</title>
				<path d="M0 172.33 L59.53 172.33" class="st2"/>
			</g>
			<g id="shape1477-7" transform="translate(-51.4458,-20.9689) rotate(-60)">
				<title>Sheet.1477</title>
				<path d="M0 172.33 L59.53 172.33" class="st2"/>
			</g>
			<g id="shape1478-10" transform="translate(97.7953,-85.0394)">
				<title>Sheet.1478</title>
				<path d="M12.76 172.33 A25.5118 25.5118 -180 0 0 -0 150.23 L12.76 172.33 Z" class="st3"/>
				<path d="M12.76 172.33 A25.5118 25.5118 -180 0 0 -0 150.23" class="st2"/>
			</g>
			<g id="shape1479-13" transform="translate(-76.9576,151.36) rotate(-120)">
				<title>Sheet.1479</title>
				<path d="M0 172.33 L59.53 172.33" class="st2"/>
			</g>
			<g id="shape1480-16" transform="translate(59.5276,259.618) rotate(180)">
				<title>Sheet.1480</title>
				<path d="M0 172.33 L59.53 172.33" class="st2"/>
			</g>
			<g id="shape1481-19" transform="translate(59.5276,-85.0394)">
				<title>Sheet.1481</title>
				<path d="M12.76 150.23 A25.5118 25.5118 -180 0 0 -0 172.33 L12.76 150.23 Z" class="st3"/>
				<path d="M12.76 150.23 A25.5118 25.5118 -180 0 0 -0 172.33" class="st2"/>
			</g>
			<g id="shape1482-22" transform="translate(221.525,195.548) rotate(120)">
				<title>Sheet.1482</title>
				<path d="M0 172.33 L59.53 172.33" class="st2"/>
			</g>
			<g id="shape1483-25" transform="translate(247.036,23.2189) rotate(60)">
				<title>Sheet.1483</title>
				<path d="M0 172.33 L59.53 172.33" class="st2"/>
			</g>
			<g id="shape1484-28" transform="translate(72.2835,-62.9455)">
				<title>Sheet.1484</title>
				<path d="M0 172.33 A25.5118 25.5118 -180 0 0 25.51 172.33 L0 172.33 Z" class="st3"/>
				<path d="M0 172.33 A25.5118 25.5118 -180 0 0 25.51 172.33" class="st2"/>
			</g>
			<g id="shape1485-31">
				<title>Sheet.1485</title>
				<ellipse cx="85.0394" cy="87.2894" rx="85.0394" ry="85.0394" class="st1"/>
			</g>
			<g id="shape1486-33" transform="translate(1.59872E-14,-85.0394)">
				<title>Sheet.1486</title>
				<path d="M42.52 98.68 A85.0394 85.0394 -180 0 0 -0 172.33 L42.52 98.68 Z" class="st3"/>
				<path d="M42.52 98.68 A85.0394 85.0394 -180 0 0 -0 172.33" class="st2"/>
			</g>
			<g id="shape1487-36" transform="translate(42.5197,-11.3931)">
				<title>Sheet.1487</title>
				<path d="M0 172.33 A85.0394 85.0394 -180 0 0 85.04 172.33 L0 172.33 Z" class="st3"/>
				<path d="M0 172.33 A85.0394 85.0394 -180 0 0 85.04 172.33" class="st2"/>
			</g>
			<g id="shape1488-39" transform="translate(127.559,-85.0394)">
				<title>Sheet.1488</title>
				<path d="M42.52 172.33 A85.0394 85.0394 -180 0 0 0 98.68 L42.52 172.33 Z" class="st3"/>
				<path d="M42.52 172.33 A85.0394 85.0394 -180 0 0 0 98.68" class="st2"/>
			</g>
			<g id="shape1489-42" transform="translate(97.7953,-85.0394)">
				<title>Sheet.1489</title>
				<path d="M29.76 98.68 L0 150.23 L12.76 172.33 L72.28 172.33 L29.76 98.68 L29.76 98.68 Z" class="st1"/>
			</g>
			<g id="shape1490-44" transform="translate(98.3879,-86.973)">
				<title>Sheet.1490</title>
				<path d="M29.17 100.62 L-0.59 152.17 A25.5118 25.5118 0 0 1 12.16 174.26 L71.69 174.26 A85.0394 85.0394 -180 0 0
							 29.17 100.62 Z" class="st4"/>
			</g>
			<g id="shape1491-46" transform="translate(68.0315,-68.0315)">
				<title>Sheet.1491</title>
				<path d="M34.02 155.32 L29.03 143.29 L17.01 138.31 L4.98 143.29 L0 155.32 L4.98 167.35 L17.01 172.33 L29.03 167.35
							 L34.02 155.32 L34.02 155.32 Z" class="st1"/>
			</g>
			<g id="shape1492-48" transform="translate(-2.39808E-14,-85.0394)">
				<title>Sheet.1492</title>
				<path d="M0 172.33 L59.53 172.33 L72.28 150.23 L42.52 98.68 L0 172.33 L0 172.33 Z" class="st1"/>
			</g>
			<g id="shape1493-50" transform="translate(0.170828,-85.6769)">
				<title>Sheet.1493</title>
				<path d="M-0.17 172.97 L59.36 172.97 A25.5118 25.5118 0 0 1 72.11 150.87 L42.35 99.32 A85.0394 85.0394 -180 0 0 -0.17
							 172.97 Z" class="st4"/>
			</g>
			<g id="shape1494-52" transform="translate(42.5197,-11.3931)">
				<title>Sheet.1494</title>
				<path d="M85.04 172.33 L55.28 120.78 L29.76 120.78 L0 172.33 L85.04 172.33 L85.04 172.33 Z" class="st1"/>
			</g>
			<g id="shape1495-54" transform="translate(43.1022,-1.77205)">
				<title>Sheet.1495</title>
				<path d="M84.46 162.71 L54.69 111.16 A25.5118 25.5118 0 0 1 29.18 111.16 L-0.58 162.71 A85.0394 85.0394 -180 0 0
							 84.46 162.71 Z" class="st4"/>
			</g>
		</g>
	</g>
</svg>
