<?xml version="1.0" encoding="UTF-8" standalone="no"?>
<!DOCTYPE svg PUBLIC "-//W3C//DTD SVG 1.1//EN" "http://www.w3.org/Graphics/SVG/1.1/DTD/svg11.dtd">
<!-- Generated by Microsoft Visio, SVG Export PA003A_Detail.svg Page-1 -->
<svg xmlns="http://www.w3.org/2000/svg" xmlns:xlink="http://www.w3.org/1999/xlink" xmlns:ev="http://www.w3.org/2001/xml-events"
		width="1.55177in" height="2.21071in" viewBox="0 0 111.728 159.171" xml:space="preserve" color-interpolation-filters="sRGB"
		class="st10">
	<title>PA003A</title>

	<style type="text/css">
	<![CDATA[
		.st1 {fill:#ffffff;stroke:#ff0000;stroke-linecap:round;stroke-linejoin:round;stroke-width:2.25}
		.st2 {fill:#ffffff}
		.st3 {stroke:#000000;stroke-linecap:round;stroke-linejoin:round;stroke-width:0.24}
		.st4 {marker-end:url(#mrkr13-9);stroke:#000000;stroke-linecap:round;stroke-linejoin:round;stroke-width:0.24}
		.st5 {fill:#000000;fill-opacity:1;stroke:#000000;stroke-opacity:1;stroke-width:0.11764705882353}
		.st6 {fill:#ffffff;stroke:none;stroke-linecap:butt}
		.st7 {fill:#000000;font-family:Calibri;font-size:0.666664em}
		.st8 {fill:#ffffff;stroke:none;stroke-linecap:butt;stroke-width:7.2}
		.st9 {stroke:#000000;stroke-linecap:round;stroke-linejoin:round;stroke-width:2.25}
		.st10 {fill:none;fill-rule:evenodd;font-size:12px;overflow:visible;stroke-linecap:square;stroke-miterlimit:3}
	]]>
	</style>

	<defs id="Markers">
		<g id="lend13">
			<path d="M 3 1 L 0 0 L 3 -1 L 3 1 " style="stroke:none"/>
		</g>
		<marker id="mrkr13-9" class="st5" refX="-25.5" orient="auto" markerUnits="strokeWidth" overflow="visible">
			<use xlink:href="#lend13" transform="scale(-8.5000000000001,-8.5000000000001) "/>
		</marker>
	</defs>
	<g>
		<title>Page-1</title>
		<g id="shape1405-1" transform="translate(56.0756,-1.125)">
			<title>Circle</title>
			<path d="M0 152.61 A6.56444 6.56444 0 0 1 13.13 152.61 A6.56444 6.56444 0 1 1 0 152.61 Z" class="st1"/>
		</g>
		<g id="shape1407-3" transform="translate(20.2372,-124.878)">
			<title>Horizontal.1012</title>
			<desc>6mm</desc>
			<path d="M0 131.33 L0 155.17 L0 131.33 ZM85.04 131.33 L85.04 161.24 L85.04 131.33 Z" class="st2"/>
			<path d="M0 131.33 L0 155.17 L0 131.33" class="st3"/>
			<path d="M85.04 131.33 L85.04 161.24 L85.04 131.33" class="st3"/>
			<path d="M42.52 139.33 L6.12 139.33" class="st4"/>
			<path d="M42.52 139.33 L78.92 139.33" class="st4"/>
			<rect x="34.1018" y="127.727" width="16.8357" height="9.59985" class="st6"/>
			<text x="34.1" y="134.93" class="st7">6mm</text>		</g>
		<g id="shape1409-16" transform="translate(-124.878,151.482) rotate(-90)">
			<title>Vertical.1014</title>
			<desc>7mm</desc>
			<path d="M0 131.33 L0 155.17 L0 131.33 ZM98.67 131.33 L98.67 177.31 L98.67 131.33 Z" class="st2"/>
			<path d="M0 131.33 L0 155.17 L0 131.33" class="st3"/>
			<path d="M98.67 131.33 L98.67 177.31 L98.67 131.33" class="st3"/>
			<path d="M49.33 139.33 L6.12 139.33" class="st4"/>
			<path d="M49.33 139.33 L92.55 139.33" class="st4"/>
			<rect x="40.9161" y="127.727" width="16.8357" height="9.59985" class="st8"/>
			<text x="40.92" y="134.93" class="st7">7mm</text>		</g>
		<g id="shape1412-28" transform="translate(221.986,52.2511) rotate(90.1009)">
			<title>Sheet.1412</title>
			<path d="M0 159.17 L99.51 159.17" class="st9"/>
		</g>
		<g id="shape1422-31" transform="translate(20.2372,-106.878)">
			<title>Sheet.1422</title>
			<path d="M0 159.17 L85.04 159.17" class="st9"/>
		</g>
	</g>
</svg>
