<?xml version="1.0" encoding="UTF-8" standalone="no"?>
<!DOCTYPE svg PUBLIC "-//W3C//DTD SVG 1.1//EN" "http://www.w3.org/Graphics/SVG/1.1/DTD/svg11.dtd">
<!-- Generated by Microsoft Visio, SVG Export PA004A_Detail.svg Page-1 -->
<svg xmlns="http://www.w3.org/2000/svg" xmlns:xlink="http://www.w3.org/1999/xlink" xmlns:ev="http://www.w3.org/2001/xml-events"
		width="1.3491in" height="1.56544in" viewBox="0 0 97.1353 112.712" xml:space="preserve" color-interpolation-filters="sRGB"
		class="st10">
	<title>PA004A</title>

	<style type="text/css">
	<![CDATA[
		.st1 {fill:#ffffff;stroke:#ff0000;stroke-linecap:round;stroke-linejoin:round;stroke-width:2.25}
		.st2 {stroke:#000000;stroke-linecap:round;stroke-linejoin:round;stroke-width:2.25}
		.st3 {fill:#ffffff}
		.st4 {stroke:#000000;stroke-linecap:round;stroke-linejoin:round;stroke-width:0.24}
		.st5 {marker-end:url(#mrkr13-12);stroke:#000000;stroke-linecap:round;stroke-linejoin:round;stroke-width:0.24}
		.st6 {fill:#000000;fill-opacity:1;stroke:#000000;stroke-opacity:1;stroke-width:0.11764705882353}
		.st7 {fill:#ffffff;stroke:none;stroke-linecap:butt;stroke-width:7.2}
		.st8 {fill:#000000;font-family:Calibri;font-size:0.666664em}
		.st9 {stroke:#000000;stroke-linecap:round;stroke-linejoin:round;stroke-width:0.75}
		.st10 {fill:none;fill-rule:evenodd;font-size:12px;overflow:visible;stroke-linecap:square;stroke-miterlimit:3}
	]]>
	</style>

	<defs id="Markers">
		<g id="lend13">
			<path d="M 3 1 L 0 0 L 3 -1 L 3 1 " style="stroke:none"/>
		</g>
		<marker id="mrkr13-12" class="st6" refX="-25.5" orient="auto" markerUnits="strokeWidth" overflow="visible">
			<use xlink:href="#lend13" transform="scale(-8.5000000000001,-8.5000000000001) "/>
		</marker>
	</defs>
	<g>
		<title>Page-1</title>
		<g id="shape1439-1" transform="translate(69.832,-1.125)">
			<title>Circle</title>
			<path d="M0 106.15 A6.56444 6.56444 0 0 1 13.13 106.15 A6.56444 6.56444 0 1 1 0 106.15 Z" class="st1"/>
		</g>
		<g id="shape1441-3" transform="translate(189.108,6.64319) rotate(90)">
			<title>Sheet.1441</title>
			<path d="M0 112.71 L98.38 112.71" class="st2"/>
		</g>
		<g id="shape1443-6" transform="translate(-78.418,105.119) rotate(-90)">
			<title>Vertical.1014</title>
			<desc>7mm</desc>
			<path d="M0 84.87 L0 108.71 L0 84.87 ZM98.67 84.87 L98.67 136.07 L98.67 84.87 Z" class="st3"/>
			<path d="M0 84.87 L0 108.71 L0 84.87" class="st4"/>
			<path d="M98.67 84.87 L98.67 136.07 L98.67 84.87" class="st4"/>
			<path d="M49.33 92.87 L6.12 92.87" class="st5"/>
			<path d="M49.33 92.87 L92.55 92.87" class="st5"/>
			<rect x="40.9161" y="81.2674" width="16.8357" height="9.59985" class="st7"/>
			<text x="40.92" y="88.47" class="st8">7mm</text>		</g>
		<g id="shape1445-19" transform="translate(-13.9783,-50.1158) rotate(-45)">
			<title>Sheet.1445</title>
			<path d="M0 112.71 L28.35 112.71" class="st9"/>
		</g>
		<g id="shape1446-22" transform="translate(-18.551,-27.6401) rotate(-45)">
			<title>Sheet.1446</title>
			<path d="M0 112.71 L42.52 112.71" class="st9"/>
		</g>
		<g id="shape1447-25" transform="translate(-23.0267,-5.4552) rotate(-45)">
			<title>Sheet.1447</title>
			<path d="M0 112.71 L56.69 112.71" class="st9"/>
		</g>
	</g>
</svg>
