<?xml version="1.0" encoding="UTF-8" standalone="no"?>
<!DOCTYPE svg PUBLIC "-//W3C//DTD SVG 1.1//EN" "http://www.w3.org/Graphics/SVG/1.1/DTD/svg11.dtd">
<!-- Generated by Microsoft Visio, SVG Export PA006A_Detail.svg Page-1 -->
<svg xmlns="http://www.w3.org/2000/svg" xmlns:xlink="http://www.w3.org/1999/xlink" xmlns:ev="http://www.w3.org/2001/xml-events"
		width="2.16965in" height="3.14316in" viewBox="0 0 156.215 226.307" xml:space="preserve" color-interpolation-filters="sRGB"
		class="st10">
	<title>PA006A</title>

	<style type="text/css">
	<![CDATA[
		.st1 {fill:#ffffff;stroke:#ff0000;stroke-linecap:round;stroke-linejoin:round;stroke-width:2.25}
		.st2 {fill:#ffffff}
		.st3 {stroke:#000000;stroke-linecap:round;stroke-linejoin:round;stroke-width:0.24}
		.st4 {marker-end:url(#mrkr13-9);stroke:#000000;stroke-linecap:round;stroke-linejoin:round;stroke-width:0.24}
		.st5 {fill:#000000;fill-opacity:1;stroke:#000000;stroke-opacity:1;stroke-width:0.11764705882353}
		.st6 {fill:#ffffff;stroke:none;stroke-linecap:butt;stroke-width:7.2}
		.st7 {fill:#000000;font-family:Calibri;font-size:0.666664em}
		.st8 {fill:#ffffff;stroke:#000000;stroke-linecap:round;stroke-linejoin:round;stroke-width:2.25}
		.st9 {stroke:#000000;stroke-linecap:round;stroke-linejoin:round;stroke-width:2.25}
		.st10 {fill:none;fill-rule:evenodd;font-size:12px;overflow:visible;stroke-linecap:square;stroke-miterlimit:3}
	]]>
	</style>

	<defs id="Markers">
		<g id="lend13">
			<path d="M 3 1 L 0 0 L 3 -1 L 3 1 " style="stroke:none"/>
		</g>
		<marker id="mrkr13-9" class="st5" refX="-25.5" orient="auto" markerUnits="strokeWidth" overflow="visible">
			<use xlink:href="#lend13" transform="scale(-8.5000000000001,-8.5000000000001) "/>
		</marker>
	</defs>
	<g>
		<title>Page-1</title>
		<g id="shape1405-1" transform="translate(56.0756,-1.125)">
			<title>Circle</title>
			<path d="M0 219.74 A6.56444 6.56444 0 0 1 13.13 219.74 A6.56444 6.56444 0 1 1 0 219.74 Z" class="st1"/>
		</g>
		<g id="shape1407-3" transform="translate(20.2372,-192.014)">
			<title>Horizontal.1012</title>
			<desc>6mm</desc>
			<path d="M0 198.46 L0 222.31 L0 198.46 ZM85.04 198.46 L85.04 228.37 L85.04 198.46 Z" class="st2"/>
			<path d="M0 198.46 L0 222.31 L0 198.46" class="st3"/>
			<path d="M85.04 198.46 L85.04 228.37 L85.04 198.46" class="st3"/>
			<path d="M42.52 206.46 L6.12 206.46" class="st4"/>
			<path d="M42.52 206.46 L78.92 206.46" class="st4"/>
			<rect x="34.1018" y="194.863" width="16.8357" height="9.59985" class="st6"/>
			<text x="34.1" y="202.06" class="st7">6mm</text>		</g>
		<g id="shape1408-16" transform="translate(-72.5435,119.333) rotate(-90)">
			<title>Vertical.1013</title>
			<desc>3 mm</desc>
			<path d="M0 198.46 L0 222.31 L0 198.46 ZM42.52 198.46 L42.52 222.31 L42.52 198.46 Z" class="st2"/>
			<path d="M0 198.46 L0 222.31 L0 198.46" class="st3"/>
			<path d="M42.52 198.46 L42.52 222.31 L42.52 198.46" class="st3"/>
			<path d="M21.26 206.46 L6.12 206.46" class="st4"/>
			<path d="M21.26 206.46 L36.4 206.46" class="st4"/>
			<rect x="11.9377" y="194.863" width="18.6443" height="9.59985" class="st6"/>
			<text x="11.94" y="202.06" class="st7">3 mm</text>		</g>
		<g id="shape1409-28" transform="translate(-192.014,218.618) rotate(-90)">
			<title>Vertical.1014</title>
			<desc>7mm</desc>
			<path d="M0 198.46 L0 222.31 L0 198.46 ZM98.67 198.46 L98.67 244.44 L98.67 198.46 Z" class="st2"/>
			<path d="M0 198.46 L0 222.31 L0 198.46" class="st3"/>
			<path d="M98.67 198.46 L98.67 244.44 L98.67 198.46" class="st3"/>
			<path d="M49.33 206.46 L6.12 206.46" class="st4"/>
			<path d="M49.33 206.46 L92.55 206.46" class="st4"/>
			<rect x="40.9161" y="194.863" width="16.8357" height="9.59985" class="st6"/>
			<text x="40.92" y="202.06" class="st7">7mm</text>		</g>
		<g id="shape1415-40" transform="translate(20.3541,-107.2)">
			<title>Square</title>
			<rect x="0" y="141.385" width="84.9225" height="84.9225" class="st8"/>
		</g>
		<g id="shape1416-42" transform="translate(20.3541,-149.662)">
			<title>Sheet.1416</title>
			<path d="M0 226.31 L84.92 226.31" class="st9"/>
		</g>
		<g id="shape1412-45" transform="translate(289.197,77.2109) rotate(90.1009)">
			<title>Sheet.1412</title>
			<path d="M0 226.31 L141.81 226.31" class="st9"/>
		</g>
	</g>
</svg>
