<?xml version="1.0" encoding="UTF-8" standalone="no"?>
<!DOCTYPE svg PUBLIC "-//W3C//DTD SVG 1.1//EN" "http://www.w3.org/Graphics/SVG/1.1/DTD/svg11.dtd">
<!-- Generated by Microsoft Visio, SVG Export PA007A.svg Page-1 -->
<svg xmlns="http://www.w3.org/2000/svg" xmlns:xlink="http://www.w3.org/1999/xlink" xmlns:ev="http://www.w3.org/2001/xml-events"
		width="1.21235in" height="2.1966in" viewBox="0 0 87.2894 158.156" xml:space="preserve" color-interpolation-filters="sRGB"
		class="st3">
	<title>PA007A</title>

	<style type="text/css">
	<![CDATA[
		.st1 {stroke:#000000;stroke-linecap:round;stroke-linejoin:round;stroke-width:2.25}
		.st2 {fill:none}
		.st3 {fill:none;fill-rule:evenodd;font-size:12px;overflow:visible;stroke-linecap:square;stroke-miterlimit:3}
	]]>
	</style>

	<g>
		<title>Page-1</title>
		<g id="group1425-1" transform="translate(1.125,-1.125)">
			<title>Sheet.1425</title>
			<g id="shape1419-2" transform="translate(0,-127.559)">
				<title>Sheet.1419</title>
				<path d="M0 158.16 L85.04 158.16" class="st1"/>
			</g>
			<g id="shape1420-5" transform="translate(200.677,58.9552) rotate(90.0023)">
				<title>Sheet.1420</title>
				<path d="M0 158.16 L99.21 158.16" class="st1"/>
			</g>
			<g id="shape1421-8" transform="translate(0.00401742,-127.553)">
				<title>Sheet.1421</title>
				<path d="M85.04 158.16 A42.5177 28.3515 -180 1 0 0 158.16 L85.04 158.16 Z" class="st2"/>
				<path d="M85.04 158.16 A42.5177 28.3515 -180 1 0 0 158.16" class="st1"/>
			</g>
			<g id="shape1422-11" transform="translate(85.0394,188.751) rotate(180)">
				<title>Sheet.1422</title>
				<path d="M0 158.16 L85.04 158.16" class="st1"/>
			</g>
			<g id="shape1423-14" transform="translate(85.0354,188.746) rotate(180)">
				<title>Sheet.1423</title>
				<path d="M85.04 158.16 A42.5177 28.3515 -180 1 0 0 158.16 L85.04 158.16 Z" class="st2"/>
				<path d="M85.04 158.16 A42.5177 28.3515 -180 1 0 0 158.16" class="st1"/>
			</g>
		</g>
	</g>
</svg>
