<?xml version="1.0" encoding="UTF-8" standalone="no"?>
<!DOCTYPE svg PUBLIC "-//W3C//DTD SVG 1.1//EN" "http://www.w3.org/Graphics/SVG/1.1/DTD/svg11.dtd">
<!-- Generated by Microsoft Visio, SVG Export PA001A_Detail.svg Page-1 -->
<svg xmlns="http://www.w3.org/2000/svg" xmlns:xlink="http://www.w3.org/1999/xlink" xmlns:ev="http://www.w3.org/2001/xml-events"
		width="1.72628in" height="3.47504in" viewBox="0 0 124.292 250.203" xml:space="preserve" color-interpolation-filters="sRGB"
		class="st15">
	<title>PA001A</title>

	<style type="text/css">
	<![CDATA[
		.st1 {fill:#ffffff;stroke:#ff0000;stroke-linecap:round;stroke-linejoin:round;stroke-width:2.25}
		.st2 {fill:#ffffff;stroke:#000000;stroke-linecap:round;stroke-linejoin:round;stroke-width:2.25}
		.st3 {stroke:#000000;stroke-linecap:round;stroke-linejoin:round;stroke-width:2.25}
		.st4 {fill:#ffffff}
		.st5 {stroke:#000000;stroke-linecap:round;stroke-linejoin:round;stroke-width:0.24}
		.st6 {marker-end:url(#mrkr13-14);stroke:#000000;stroke-linecap:round;stroke-linejoin:round;stroke-width:0.24}
		.st7 {fill:#000000;fill-opacity:1;stroke:#000000;stroke-opacity:1;stroke-width:0.11764705882353}
		.st8 {fill:#ffffff;stroke:none;stroke-linecap:butt;stroke-width:7.2}
		.st9 {fill:#000000;font-family:Calibri;font-size:0.666664em}
		.st10 {fill:none;stroke:#ff0000;stroke-linecap:round;stroke-linejoin:round;stroke-width:0.75}
		.st11 {fill:#ff0000;font-family:Arial Narrow;font-size:0.833336em;font-weight:bold}
		.st12 {fill:none;stroke:none;stroke-linecap:round;stroke-linejoin:round;stroke-width:0.75}
		.st13 {fill:#ff0000;font-family:Arial Narrow;font-size:0.811964em;font-weight:bold}
		.st14 {baseline-shift:33.35%;font-size:0.667em}
		.st15 {fill:none;fill-rule:evenodd;font-size:12px;overflow:visible;stroke-linecap:square;stroke-miterlimit:3}
	]]>
	</style>

	<defs id="Markers">
		<g id="lend13">
			<path d="M 3 1 L 0 0 L 3 -1 L 3 1 " style="stroke:none"/>
		</g>
		<marker id="mrkr13-14" class="st7" refX="-25.5" orient="auto" markerUnits="strokeWidth" overflow="visible">
			<use xlink:href="#lend13" transform="scale(-8.5000000000001,-8.5000000000001) "/>
		</marker>
	</defs>
	<g>
		<title>Page-1</title>
		<g id="shape1439-1" transform="translate(69.832,-1.125)">
			<title>Circle</title>
			<path d="M0 243.64 A6.56444 6.56444 0 0 1 13.13 243.64 A6.56444 6.56444 0 1 1 0 243.64 Z" class="st1"/>
		</g>
		<g id="shape1440-3" transform="translate(32.8017,-106.902)">
			<title>Circle.1004</title>
			<path d="M0 207.68 A42.5197 42.5197 0 0 1 85.04 207.68 A42.5197 42.5197 0 1 1 -0 207.68 Z" class="st2"/>
		</g>
		<g id="shape1441-5" transform="translate(325.509,140.59) rotate(89.3792)">
			<title>Sheet.1441</title>
			<path d="M0 250.2 L99.22 250.2" class="st3"/>
		</g>
		<g id="shape1442-8" transform="translate(32.8017,-215.812)">
			<title>Horizontal.1012</title>
			<desc>6mm</desc>
			<path d="M0 222.26 L0 246.2 L0 222.26 ZM85.04 222.26 L85.04 246.2 L85.04 222.26 Z" class="st4"/>
			<path d="M0 222.26 L0 246.2 L0 222.26" class="st5"/>
			<path d="M85.04 222.26 L85.04 246.2 L85.04 222.26" class="st5"/>
			<path d="M42.52 230.26 L6.12 230.26" class="st6"/>
			<path d="M42.52 230.26 L78.92 230.26" class="st6"/>
			<rect x="34.1018" y="218.662" width="16.8357" height="9.59985" class="st8"/>
			<text x="34.1" y="225.86" class="st9">6mm</text>		</g>
		<g id="shape1443-21" transform="translate(-215.909,242.61) rotate(-90)">
			<title>Vertical.1014</title>
			<desc>7mm</desc>
			<path d="M0 222.36 L0 246.2 L0 222.36 ZM98.67 222.36 L98.67 273.56 L98.67 222.36 Z" class="st4"/>
			<path d="M0 222.36 L0 246.2 L0 222.36" class="st5"/>
			<path d="M98.67 222.36 L98.67 273.56 L98.67 222.36" class="st5"/>
			<path d="M49.33 230.36 L6.12 230.36" class="st6"/>
			<path d="M49.33 230.36 L92.55 230.36" class="st6"/>
			<rect x="40.9161" y="218.759" width="16.8357" height="9.59985" class="st8"/>
			<text x="40.92" y="225.96" class="st9">7mm</text>		</g>
		<g id="group1444-33" transform="translate(50.6599,-144.946)">
			<title>Sheet.1444</title>
			<g id="shape1445-34" transform="translate(1.21164,2.84217E-14)">
				<title>Sheet.1445</title>
				<desc>1</desc>
				<rect x="0" y="236.029" width="48.1112" height="14.1732" class="st10"/>
				<text x="21.78" y="246.12" class="st11">1</text>			</g>
			<g id="shape1446-37" transform="translate(0,-4.47576)">
				<title>Sheet.1446</title>
				<desc>A</desc>
				<rect x="0" y="236.029" width="7.48762" height="14.1732" class="st12"/>
				<text x="4" y="249.72" class="st13"><tspan class="st14">A</tspan></text>			</g>
		</g>
	</g>
</svg>
