<?xml version="1.0" encoding="UTF-8" standalone="no"?>
<!DOCTYPE svg PUBLIC "-//W3C//DTD SVG 1.1//EN" "http://www.w3.org/Graphics/SVG/1.1/DTD/svg11.dtd">
<!-- Generated by Microsoft Visio, SVG Export Page-4.svg Page-4 -->
<svg xmlns="http://www.w3.org/2000/svg" xmlns:xlink="http://www.w3.org/1999/xlink" xmlns:ev="http://www.w3.org/2001/xml-events"
		width="11.6929in" height="8.26772in" viewBox="0 0 841.89 595.276" xml:space="preserve" color-interpolation-filters="sRGB"
		class="st3">
	<title>Page-4</title>

	<style type="text/css">
	<![CDATA[
		.st1 {stroke:#d8d8d8;stroke-linecap:round;stroke-linejoin:round;stroke-width:0.25}
		.st2 {stroke:#7f7f7f;stroke-linecap:round;stroke-linejoin:round;stroke-width:0.25}
		.st3 {fill:none;fill-rule:evenodd;font-size:12px;overflow:visible;stroke-linecap:square;stroke-miterlimit:3}
	]]>
	</style>

	<g>
		<title>Page-4</title>
		<g id="group1404-1" transform="translate(17.9854,-18.746)">
			<title>Sheet.1404</title>
			<g id="shape1309-2" transform="translate(633.983,39.8518) rotate(90)" display="none">
				<title>Sheet.1309</title>
				<path d="M0 595.28 L555.42 595.28" class="st1"/>
			</g>
			<g id="shape1310-5" transform="translate(662.33,39.8518) rotate(90)" display="none">
				<title>Sheet.1310</title>
				<path d="M0 595.28 L555.42 595.28" class="st2"/>
			</g>
			<g id="shape1311-8" transform="translate(676.503,39.8518) rotate(90)" display="none">
				<title>Sheet.1311</title>
				<path d="M0 595.28 L555.42 595.28" class="st1"/>
			</g>
			<g id="shape1312-11" transform="translate(690.676,39.8518) rotate(90)" display="none">
				<title>Sheet.1312</title>
				<path d="M0 595.28 L555.42 595.28" class="st1"/>
			</g>
			<g id="shape1313-14" transform="translate(704.849,39.8518) rotate(90)" display="none">
				<title>Sheet.1313</title>
				<path d="M0 595.28 L555.42 595.28" class="st1"/>
			</g>
			<g id="shape1314-17" transform="translate(648.156,39.8518) rotate(90)" display="none">
				<title>Sheet.1314</title>
				<path d="M0 595.28 L555.42 595.28" class="st1"/>
			</g>
			<g id="shape1315-20" transform="translate(719.022,39.8518) rotate(90)" display="none">
				<title>Sheet.1315</title>
				<path d="M0 595.28 L555.42 595.28" class="st1"/>
			</g>
			<g id="shape1316-23" transform="translate(733.196,39.8518) rotate(90)" display="none">
				<title>Sheet.1316</title>
				<path d="M0 595.28 L555.42 595.28" class="st2"/>
			</g>
			<g id="shape1317-26" transform="translate(747.369,39.8518) rotate(90)" display="none">
				<title>Sheet.1317</title>
				<path d="M0 595.28 L555.42 595.28" class="st1"/>
			</g>
			<g id="shape1318-29" transform="translate(761.542,39.8518) rotate(90)" display="none">
				<title>Sheet.1318</title>
				<path d="M0 595.28 L555.42 595.28" class="st1"/>
			</g>
			<g id="shape1319-32" transform="translate(789.889,39.8518) rotate(90)" display="none">
				<title>Sheet.1319</title>
				<path d="M0 595.28 L555.42 595.28" class="st1"/>
			</g>
			<g id="shape1320-35" transform="translate(804.062,39.8518) rotate(90)" display="none">
				<title>Sheet.1320</title>
				<path d="M0 595.28 L555.42 595.28" class="st2"/>
			</g>
			<g id="shape1321-38" transform="translate(818.235,39.8518) rotate(90)" display="none">
				<title>Sheet.1321</title>
				<path d="M0 595.28 L555.42 595.28" class="st1"/>
			</g>
			<g id="shape1322-41" transform="translate(832.408,39.8518) rotate(90)" display="none">
				<title>Sheet.1322</title>
				<path d="M0 595.28 L555.42 595.28" class="st1"/>
			</g>
			<g id="shape1323-44" transform="translate(775.715,39.8518) rotate(90)" display="none">
				<title>Sheet.1323</title>
				<path d="M0 595.28 L555.42 595.28" class="st1"/>
			</g>
			<g id="shape1324-47" transform="translate(846.582,39.8518) rotate(90)" display="none">
				<title>Sheet.1324</title>
				<path d="M0 595.28 L555.42 595.28" class="st1"/>
			</g>
			<g id="shape1325-50" transform="translate(860.755,39.8518) rotate(90)" display="none">
				<title>Sheet.1325</title>
				<path d="M0 595.28 L555.42 595.28" class="st1"/>
			</g>
			<g id="shape1326-53" transform="translate(874.928,39.8518) rotate(90)" display="none">
				<title>Sheet.1326</title>
				<path d="M0 595.28 L555.42 595.28" class="st2"/>
			</g>
			<g id="shape1327-56" transform="translate(889.101,39.8518) rotate(90)" display="none">
				<title>Sheet.1327</title>
				<path d="M0 595.28 L555.42 595.28" class="st1"/>
			</g>
			<g id="shape1328-59" transform="translate(917.448,39.8518) rotate(90)" display="none">
				<title>Sheet.1328</title>
				<path d="M0 595.28 L555.42 595.28" class="st1"/>
			</g>
			<g id="shape1329-62" transform="translate(931.621,39.8518) rotate(90)" display="none">
				<title>Sheet.1329</title>
				<path d="M0 595.28 L555.42 595.28" class="st1"/>
			</g>
			<g id="shape1330-65" transform="translate(945.794,39.8518) rotate(90)" display="none">
				<title>Sheet.1330</title>
				<path d="M0 595.28 L555.42 595.28" class="st2"/>
			</g>
			<g id="shape1331-68" transform="translate(959.967,39.8518) rotate(90)" display="none">
				<title>Sheet.1331</title>
				<path d="M0 595.28 L555.42 595.28" class="st1"/>
			</g>
			<g id="shape1332-71" transform="translate(903.274,39.8518) rotate(90)" display="none">
				<title>Sheet.1332</title>
				<path d="M0 595.28 L555.42 595.28" class="st1"/>
			</g>
			<g id="shape1333-74" transform="translate(974.141,39.8518) rotate(90)" display="none">
				<title>Sheet.1333</title>
				<path d="M0 595.28 L555.42 595.28" class="st1"/>
			</g>
			<g id="shape1334-77" transform="translate(988.314,39.8518) rotate(90)" display="none">
				<title>Sheet.1334</title>
				<path d="M0 595.28 L555.42 595.28" class="st1"/>
			</g>
			<g id="shape1335-80" transform="translate(1002.49,39.8518) rotate(90)" display="none">
				<title>Sheet.1335</title>
				<path d="M0 595.28 L555.42 595.28" class="st1"/>
			</g>
			<g id="shape1336-83" transform="translate(1016.66,39.8518) rotate(90)" display="none">
				<title>Sheet.1336</title>
				<path d="M0 595.28 L555.42 595.28" class="st2"/>
			</g>
			<g id="shape1337-86" transform="translate(1045.01,39.8518) rotate(90)" display="none">
				<title>Sheet.1337</title>
				<path d="M0 595.28 L555.42 595.28" class="st1"/>
			</g>
			<g id="shape1338-89" transform="translate(1059.18,39.8518) rotate(90)" display="none">
				<title>Sheet.1338</title>
				<path d="M0 595.28 L555.42 595.28" class="st1"/>
			</g>
			<g id="shape1339-92" transform="translate(1073.35,39.8518) rotate(90)" display="none">
				<title>Sheet.1339</title>
				<path d="M0 595.28 L555.42 595.28" class="st1"/>
			</g>
			<g id="shape1340-95" transform="translate(1087.53,39.8518) rotate(90)" display="none">
				<title>Sheet.1340</title>
				<path d="M0 595.28 L555.42 595.28" class="st2"/>
			</g>
			<g id="shape1341-98" transform="translate(1030.83,39.8518) rotate(90)" display="none">
				<title>Sheet.1341</title>
				<path d="M0 595.28 L555.42 595.28" class="st1"/>
			</g>
			<g id="shape1342-101" transform="translate(1101.7,39.8518) rotate(90)" display="none">
				<title>Sheet.1342</title>
				<path d="M0 595.28 L555.42 595.28" class="st1"/>
			</g>
			<g id="shape1343-104" transform="translate(1115.87,39.8518) rotate(90)" display="none">
				<title>Sheet.1343</title>
				<path d="M0 595.28 L555.42 595.28" class="st1"/>
			</g>
			<g id="shape1344-107" transform="translate(1130.05,39.8518) rotate(90)" display="none">
				<title>Sheet.1344</title>
				<path d="M0 595.28 L555.42 595.28" class="st1"/>
			</g>
			<g id="shape1345-110" transform="translate(1144.22,39.8518) rotate(90)" display="none">
				<title>Sheet.1345</title>
				<path d="M0 595.28 L555.42 595.28" class="st1"/>
			</g>
			<g id="shape1346-113" transform="translate(1172.57,39.8518) rotate(90)" display="none">
				<title>Sheet.1346</title>
				<path d="M0 595.28 L555.42 595.28" class="st1"/>
			</g>
			<g id="shape1347-116" transform="translate(1186.74,39.8518) rotate(90)" display="none">
				<title>Sheet.1347</title>
				<path d="M0 595.28 L555.42 595.28" class="st1"/>
			</g>
			<g id="shape1348-119" transform="translate(1200.91,39.8518) rotate(90)" display="none">
				<title>Sheet.1348</title>
				<path d="M0 595.28 L555.42 595.28" class="st1"/>
			</g>
			<g id="shape1349-122" transform="translate(1215.09,39.8518) rotate(90)" display="none">
				<title>Sheet.1349</title>
				<path d="M0 595.28 L555.42 595.28" class="st1"/>
			</g>
			<g id="shape1350-125" transform="translate(1158.39,39.8518) rotate(90)" display="none">
				<title>Sheet.1350</title>
				<path d="M0 595.28 L555.42 595.28" class="st2"/>
			</g>
			<g id="shape1351-128" transform="translate(1229.26,39.8518) rotate(90)" display="none">
				<title>Sheet.1351</title>
				<path d="M0 595.28 L555.42 595.28" class="st2"/>
			</g>
			<g id="shape1352-131" transform="translate(1243.43,39.8518) rotate(90)" display="none">
				<title>Sheet.1352</title>
				<path d="M0 595.28 L555.42 595.28" class="st1"/>
			</g>
			<g id="shape1353-134" transform="translate(1257.61,39.8518) rotate(90)" display="none">
				<title>Sheet.1353</title>
				<path d="M0 595.28 L555.42 595.28" class="st1"/>
			</g>
			<g id="shape1354-137" transform="translate(1271.78,39.8518) rotate(90)" display="none">
				<title>Sheet.1354</title>
				<path d="M0 595.28 L555.42 595.28" class="st1"/>
			</g>
			<g id="shape1355-140" transform="translate(1300.12,39.8518) rotate(90)" display="none">
				<title>Sheet.1355</title>
				<path d="M0 595.28 L555.42 595.28" class="st2"/>
			</g>
			<g id="shape1356-143" transform="translate(1314.3,39.8518) rotate(90)" display="none">
				<title>Sheet.1356</title>
				<path d="M0 595.28 L555.42 595.28" class="st1"/>
			</g>
			<g id="shape1357-146" transform="translate(1328.47,39.8518) rotate(90)" display="none">
				<title>Sheet.1357</title>
				<path d="M0 595.28 L555.42 595.28" class="st1"/>
			</g>
			<g id="shape1358-149" transform="translate(1342.64,39.8518) rotate(90)" display="none">
				<title>Sheet.1358</title>
				<path d="M0 595.28 L555.42 595.28" class="st1"/>
			</g>
			<g id="shape1359-152" transform="translate(1285.95,39.8518) rotate(90)" display="none">
				<title>Sheet.1359</title>
				<path d="M0 595.28 L555.42 595.28" class="st1"/>
			</g>
			<g id="shape1360-155" transform="translate(1356.82,39.8518) rotate(90)" display="none">
				<title>Sheet.1360</title>
				<path d="M0 595.28 L555.42 595.28" class="st1"/>
			</g>
			<g id="shape1361-158" transform="translate(1370.99,39.8518) rotate(90)" display="none">
				<title>Sheet.1361</title>
				<path d="M0 595.28 L555.42 595.28" class="st2"/>
			</g>
			<g id="shape1362-161" transform="translate(0,-52.0232)" display="none">
				<title>Sheet.1362</title>
				<path d="M0 595.28 L801.48 595.28" class="st2"/>
			</g>
			<g id="shape1363-164" transform="translate(0,-66.1964)" display="none">
				<title>Sheet.1363</title>
				<path d="M0 595.28 L801.48 595.28" class="st1"/>
			</g>
			<g id="shape1364-167" transform="translate(0,-80.3697)" display="none">
				<title>Sheet.1364</title>
				<path d="M0 595.28 L801.48 595.28" class="st1"/>
			</g>
			<g id="shape1365-170" transform="translate(0,-94.5429)" display="none">
				<title>Sheet.1365</title>
				<path d="M0 595.28 L801.48 595.28" class="st1"/>
			</g>
			<g id="shape1366-173" transform="translate(0,-122.889)" display="none">
				<title>Sheet.1366</title>
				<path d="M0 595.28 L801.48 595.28" class="st2"/>
			</g>
			<g id="shape1367-176" transform="translate(0,-137.063)" display="none">
				<title>Sheet.1367</title>
				<path d="M0 595.28 L801.48 595.28" class="st1"/>
			</g>
			<g id="shape1368-179" transform="translate(0,-151.236)" display="none">
				<title>Sheet.1368</title>
				<path d="M0 595.28 L801.48 595.28" class="st1"/>
			</g>
			<g id="shape1369-182" transform="translate(0,-165.409)" display="none">
				<title>Sheet.1369</title>
				<path d="M0 595.28 L801.48 595.28" class="st1"/>
			</g>
			<g id="shape1370-185" transform="translate(0,-108.716)" display="none">
				<title>Sheet.1370</title>
				<path d="M0 595.28 L801.48 595.28" class="st1"/>
			</g>
			<g id="shape1371-188" transform="translate(0,-179.582)" display="none">
				<title>Sheet.1371</title>
				<path d="M0 595.28 L801.48 595.28" class="st1"/>
			</g>
			<g id="shape1372-191" transform="translate(0,-193.755)" display="none">
				<title>Sheet.1372</title>
				<path d="M0 595.28 L801.48 595.28" class="st2"/>
			</g>
			<g id="shape1373-194" transform="translate(0,-207.929)" display="none">
				<title>Sheet.1373</title>
				<path d="M0 595.28 L801.48 595.28" class="st1"/>
			</g>
			<g id="shape1374-197" transform="translate(0,-222.102)" display="none">
				<title>Sheet.1374</title>
				<path d="M0 595.28 L801.48 595.28" class="st1"/>
			</g>
			<g id="shape1375-200" transform="translate(0,-250.448)" display="none">
				<title>Sheet.1375</title>
				<path d="M0 595.28 L801.48 595.28" class="st1"/>
			</g>
			<g id="shape1376-203" transform="translate(0,-264.622)" display="none">
				<title>Sheet.1376</title>
				<path d="M0 595.28 L801.48 595.28" class="st2"/>
			</g>
			<g id="shape1377-206" transform="translate(0,-278.795)" display="none">
				<title>Sheet.1377</title>
				<path d="M0 595.28 L801.48 595.28" class="st1"/>
			</g>
			<g id="shape1378-209" transform="translate(2.64787,-293.065)" display="none">
				<title>Sheet.1378</title>
				<path d="M0 595.28 L801.48 595.28" class="st1"/>
			</g>
			<g id="shape1379-212" transform="translate(0,-236.275)" display="none">
				<title>Sheet.1379</title>
				<path d="M0 595.28 L801.48 595.28" class="st1"/>
			</g>
			<g id="shape1380-215" transform="translate(0,-307.141)" display="none">
				<title>Sheet.1380</title>
				<path d="M0 595.28 L801.48 595.28" class="st1"/>
			</g>
			<g id="shape1381-218" transform="translate(0,-321.315)" display="none">
				<title>Sheet.1381</title>
				<path d="M0 595.28 L801.48 595.28" class="st1"/>
			</g>
			<g id="shape1382-221" transform="translate(0,-335.488)" display="none">
				<title>Sheet.1382</title>
				<path d="M0 595.28 L801.48 595.28" class="st2"/>
			</g>
			<g id="shape1383-224" transform="translate(0,-349.661)" display="none">
				<title>Sheet.1383</title>
				<path d="M0 595.28 L801.48 595.28" class="st1"/>
			</g>
			<g id="shape1384-227" transform="translate(0,-378.007)" display="none">
				<title>Sheet.1384</title>
				<path d="M0 595.28 L801.48 595.28" class="st1"/>
			</g>
			<g id="shape1385-230" transform="translate(0,-392.181)" display="none">
				<title>Sheet.1385</title>
				<path d="M0 595.28 L801.48 595.28" class="st1"/>
			</g>
			<g id="shape1386-233" transform="translate(0,-406.354)" display="none">
				<title>Sheet.1386</title>
				<path d="M0 595.28 L801.48 595.28" class="st2"/>
			</g>
			<g id="shape1387-236" transform="translate(0,-420.527)" display="none">
				<title>Sheet.1387</title>
				<path d="M0 595.28 L801.48 595.28" class="st1"/>
			</g>
			<g id="shape1388-239" transform="translate(0,-363.834)" display="none">
				<title>Sheet.1388</title>
				<path d="M0 595.28 L801.48 595.28" class="st1"/>
			</g>
			<g id="shape1389-242" transform="translate(0,-434.7)" display="none">
				<title>Sheet.1389</title>
				<path d="M0 595.28 L801.48 595.28" class="st1"/>
			</g>
			<g id="shape1390-245" transform="translate(0,-448.874)" display="none">
				<title>Sheet.1390</title>
				<path d="M0 595.28 L801.48 595.28" class="st1"/>
			</g>
			<g id="shape1391-248" transform="translate(0,-463.047)" display="none">
				<title>Sheet.1391</title>
				<path d="M0 595.28 L801.48 595.28" class="st1"/>
			</g>
			<g id="shape1392-251" transform="translate(2.15551,-519.837)" display="none">
				<title>Sheet.1392</title>
				<path d="M0 595.28 L799.32 595.28" class="st1"/>
			</g>
			<g id="shape1393-254" transform="translate(0,-505.567)" display="none">
				<title>Sheet.1393</title>
				<path d="M0 595.28 L801.48 595.28" class="st1"/>
			</g>
			<g id="shape1394-257" transform="translate(1.40955,-548.086)" display="none">
				<title>Sheet.1394</title>
				<path d="M0 595.28 L800.07 595.28" class="st2"/>
			</g>
			<g id="shape1395-260" transform="translate(0,-491.393)" display="none">
				<title>Sheet.1395</title>
				<path d="M0 595.28 L801.48 595.28" class="st1"/>
			</g>
			<g id="shape1396-263" transform="translate(0,-9.50352)" display="none">
				<title>Sheet.1396</title>
				<path d="M0 595.28 L801.48 595.28" class="st1"/>
			</g>
			<g id="shape1397-266" transform="translate(0,-23.6768)" display="none">
				<title>Sheet.1397</title>
				<path d="M0 595.28 L801.48 595.28" class="st1"/>
			</g>
			<g id="shape1398-269" transform="translate(0,-37.85)" display="none">
				<title>Sheet.1398</title>
				<path d="M0 595.28 L801.48 595.28" class="st1"/>
			</g>
			<g id="shape1399-272" transform="translate(0,-478.063)" display="none">
				<title>Sheet.1399</title>
				<path d="M0 595.28 L801.48 595.28" class="st2"/>
			</g>
			<g id="shape1400-275" transform="translate(605.637,39.8518) rotate(90)" display="none">
				<title>Sheet.1400</title>
				<path d="M0 595.28 L555.42 595.28" class="st1"/>
			</g>
			<g id="shape1401-278" transform="translate(619.81,39.8518) rotate(90)" display="none">
				<title>Sheet.1401</title>
				<path d="M0 595.28 L555.42 595.28" class="st1"/>
			</g>
			<g id="shape1402-281" transform="translate(1385.16,39.8518) rotate(90)" display="none">
				<title>Sheet.1402</title>
				<path d="M0 595.28 L555.42 595.28" class="st1"/>
			</g>
			<g id="shape1403-284" transform="translate(0,-534.01)" display="none">
				<title>Sheet.1403</title>
				<path d="M0 595.28 L801.48 595.28" class="st1"/>
			</g>
		</g>
	</g>
</svg>
