<?xml version="1.0" encoding="UTF-8" standalone="no"?>
<!DOCTYPE svg PUBLIC "-//W3C//DTD SVG 1.1//EN" "http://www.w3.org/Graphics/SVG/1.1/DTD/svg11.dtd">
<!-- Generated by Microsoft Visio, SVG Export PD001A_Detail.svg Page-1 -->
<svg xmlns="http://www.w3.org/2000/svg" xmlns:xlink="http://www.w3.org/1999/xlink" xmlns:ev="http://www.w3.org/2001/xml-events"
		width="3.83361in" height="6.07656in" viewBox="0 0 276.02 437.513" xml:space="preserve" color-interpolation-filters="sRGB"
		class="st16">
	<title>PD001A</title>

	<style type="text/css">
	<![CDATA[
		.st1 {fill:#ffffff}
		.st2 {stroke:#000000;stroke-linecap:round;stroke-linejoin:round;stroke-width:0.24}
		.st3 {marker-end:url(#mrkr13-7);stroke:#000000;stroke-linecap:round;stroke-linejoin:round;stroke-width:0.24}
		.st4 {fill:#000000;fill-opacity:1;stroke:#000000;stroke-opacity:1;stroke-width:0.11764705882353}
		.st5 {fill:#ffffff;stroke:none;stroke-linecap:butt;stroke-width:7.2}
		.st6 {fill:#000000;font-family:Calibri;font-size:0.666664em}
		.st7 {fill:#ffffff;stroke:#ff0000;stroke-linecap:round;stroke-linejoin:round;stroke-width:2.25}
		.st8 {fill:none;stroke:none;stroke-linecap:round;stroke-linejoin:round;stroke-width:0.75}
		.st9 {fill:#ff0000;font-family:Arial Narrow;font-size:0.811964em;font-weight:bold}
		.st10 {baseline-shift:33.35%;font-size:0.667em}
		.st11 {fill:none;stroke:#ff0000;stroke-linecap:round;stroke-linejoin:round;stroke-width:0.75}
		.st12 {fill:#ff0000;font-family:Arial Narrow;font-size:0.833336em;font-weight:bold}
		.st13 {fill:none;stroke:#000000;stroke-linecap:round;stroke-linejoin:round;stroke-width:2.25}
		.st14 {stroke:#000000;stroke-linecap:round;stroke-linejoin:round;stroke-width:2.25}
		.st15 {fill:none}
		.st16 {fill:none;fill-rule:evenodd;font-size:12px;overflow:visible;stroke-linecap:square;stroke-miterlimit:3}
	]]>
	</style>

	<defs id="Markers">
		<g id="lend13">
			<path d="M 3 1 L 0 0 L 3 -1 L 3 1 " style="stroke:none"/>
		</g>
		<marker id="mrkr13-7" class="st4" refX="-25.5" orient="auto" markerUnits="strokeWidth" overflow="visible">
			<use xlink:href="#lend13" transform="scale(-8.5000000000001,-8.5000000000001) "/>
		</marker>
	</defs>
	<g>
		<title>Page-1</title>
		<g id="shape1419-1" transform="translate(-403.219,431.062) rotate(-90)">
			<title>Vertical.1528</title>
			<desc>128mm</desc>
			<path d="M0 409.67 L0 433.51 L0 409.67 ZM375.51 409.67 L375.51 433.63 L375.51 409.67 Z" class="st1"/>
			<path d="M0 409.67 L0 433.51 L0 409.67" class="st2"/>
			<path d="M375.51 409.67 L375.51 433.63 L375.51 409.67" class="st2"/>
			<path d="M187.75 417.67 L6.12 417.67" class="st3"/>
			<path d="M187.75 417.67 L369.39 417.67" class="st3"/>
			<rect x="175.281" y="406.068" width="24.9453" height="9.59985" class="st5"/>
			<text x="175.28" y="413.27" class="st6">128mm</text>		</g>
		<g id="shape1451-14" transform="translate(48.5888,-403.219)">
			<title>Horizontal</title>
			<desc>76mm</desc>
			<path d="M0 409.67 L0 433.51 L0 409.67 ZM220.98 409.67 L220.98 433.43 L220.98 409.67 Z" class="st1"/>
			<path d="M0 409.67 L0 433.51 L0 409.67" class="st2"/>
			<path d="M220.98 409.67 L220.98 433.43 L220.98 409.67" class="st2"/>
			<path d="M110.49 417.67 L6.12 417.67" class="st3"/>
			<path d="M110.49 417.67 L214.86 417.67" class="st3"/>
			<rect x="100.045" y="406.068" width="20.8905" height="9.59985" class="st5"/>
			<text x="100.04" y="413.27" class="st6">76mm</text>		</g>
		<g id="shape1405-26" transform="translate(71.7531,-198.332) rotate(0.2)">
			<title>Circle.1508</title>
			<path d="M0 430.95 A6.56444 6.56444 0 0 1 13.13 430.95 A6.56444 6.56444 0 1 1 0 430.95 Z" class="st7"/>
		</g>
		<g id="group1458-28" transform="translate(117.191,-233.14)">
			<title>Sheet.1458</title>
			<g id="group1410-29">
				<title>Sheet.1410</title>
				<g id="shape1412-30" transform="translate(0,-4.47576)">
					<title>Sheet.1412</title>
					<desc>A</desc>
					<rect x="0" y="423.339" width="13.2348" height="14.1732" class="st8"/>
					<text x="4" y="437.03" class="st9"><tspan class="st10">A</tspan></text>				</g>
			</g>
			<g id="group1456-34" transform="translate(2.14166,-0.0824008)">
				<title>Sheet.1456</title>
				<g id="shape1457-35" transform="translate(7.92226E-06,-0.0824008)">
					<title>Sheet.1457</title>
					<desc>1</desc>
					<rect x="0" y="423.339" width="85.0394" height="14.1732" class="st11"/>
					<text x="40.24" y="433.43" class="st12">1</text>				</g>
			</g>
		</g>
		<g id="group1489-38" transform="translate(48.4668,-6.45102)">
			<title>STPD001.1489</title>
			<g id="shape1490-39" transform="translate(81.4588,0)">
				<title>Sheet.1490</title>
				<path d="M58.18 431.64 L0 431.64 L0 437.51 L58.18 437.51 L58.18 431.64 L58.18 431.64 Z" class="st13"/>
			</g>
			<g id="shape1491-41" transform="translate(524.79,138.214) rotate(90)">
				<title>Sheet.1491</title>
				<path d="M0 437.51 L17.61 437.51" class="st14"/>
			</g>
			<g id="shape1492-44" transform="translate(524.79,161.688) rotate(90)">
				<title>Sheet.1492</title>
				<path d="M0 437.51 L17.61 437.51" class="st14"/>
			</g>
			<g id="shape1493-47" transform="translate(571.338,138.214) rotate(90)">
				<title>Sheet.1493</title>
				<path d="M0 437.51 L17.61 437.51" class="st14"/>
			</g>
			<g id="shape1494-50" transform="translate(571.338,161.688) rotate(90)">
				<title>Sheet.1494</title>
				<path d="M0 437.51 L17.61 437.51" class="st14"/>
			</g>
			<g id="shape1495-53" transform="translate(571.338,237.98) rotate(90)">
				<title>Sheet.1495</title>
				<path d="M0 437.51 L11.74 437.51" class="st14"/>
			</g>
			<g id="shape1496-56" transform="translate(524.79,237.98) rotate(90)">
				<title>Sheet.1496</title>
				<path d="M0 437.51 L11.74 437.51" class="st14"/>
			</g>
			<g id="shape1497-59" transform="translate(524.79,255.586) rotate(90)">
				<title>Sheet.1497</title>
				<path d="M0 437.51 L111.5 437.51" class="st14"/>
			</g>
			<g id="shape1498-62" transform="translate(571.338,255.586) rotate(90)">
				<title>Sheet.1498</title>
				<path d="M0 437.51 L111.5 437.51" class="st14"/>
			</g>
			<g id="shape1499-65" transform="translate(524.79,372.958) rotate(90)">
				<title>Sheet.1499</title>
				<path d="M0 437.51 L11.74 437.51" class="st14"/>
			</g>
			<g id="shape1500-68" transform="translate(571.338,372.958) rotate(90)">
				<title>Sheet.1500</title>
				<path d="M0 437.51 L11.74 437.51" class="st14"/>
			</g>
			<g id="shape1501-71" transform="translate(524.79,67.7907) rotate(90)">
				<title>Sheet.1501</title>
				<path d="M0 437.51 L17.61 437.51" class="st14"/>
			</g>
			<g id="shape1502-74" transform="translate(571.338,67.7907) rotate(90)">
				<title>Sheet.1502</title>
				<path d="M0 437.51 L17.61 437.51" class="st14"/>
			</g>
			<g id="shape1503-77" transform="translate(524.79,411.104) rotate(90)">
				<title>Sheet.1503</title>
				<path d="M0 437.51 L20.54 437.51" class="st14"/>
			</g>
			<g id="shape1504-80" transform="translate(571.338,411.104) rotate(90)">
				<title>Sheet.1504</title>
				<path d="M0 437.51 L20.54 437.51" class="st14"/>
			</g>
			<g id="shape1505-83" transform="translate(29.0924,-26.4087)">
				<title>Sheet.1505</title>
				<path d="M162.92 437.51 L0 437.51 L0 411.1 L162.92 411.1 L162.92 437.51 L162.92 437.51 Z" class="st13"/>
			</g>
			<g id="shape1506-85" transform="translate(81.4588,-64.5546)">
				<title>Sheet.1506</title>
				<path d="M58.18 437.51 L0 437.51 L0 431.64 L58.18 431.64 L58.18 437.51 L58.18 437.51 Z" class="st13"/>
			</g>
			<g id="shape1507-87" transform="translate(81.4588,-181.927)">
				<title>Sheet.1507</title>
				<path d="M58.18 431.64 L0 431.64 L0 437.51 L58.18 437.51 L58.18 431.64 L58.18 431.64 Z" class="st13"/>
			</g>
			<g id="shape1508-89" transform="translate(2.15827E-13,-205.401)">
				<title>Sheet.1508</title>
				<path d="M29.09 425.78 L0 425.78 L0 437.51 L29.09 437.51 L29.09 437.51 L29.09 425.78 Z" class="st15"/>
				<path d="M29.09 425.78 L0 425.78 L0 437.51 L29.09 437.51 L29.09 437.51" class="st14"/>
			</g>
			<g id="shape1509-92" transform="translate(2.15827E-13,-240.613)">
				<title>Sheet.1509</title>
				<path d="M29.09 425.78 L0 425.78 L0 437.51 L29.09 437.51 L29.09 437.51 L29.09 425.78 Z" class="st15"/>
				<path d="M29.09 425.78 L0 425.78 L0 437.51 L29.09 437.51 L29.09 437.51" class="st14"/>
			</g>
			<g id="shape1510-95" transform="translate(29.0924,-199.532)">
				<title>Sheet.1510</title>
				<path d="M0 437.51 L0 378.83 L162.92 378.83 L162.92 437.51 L0 437.51 L0 437.51 Z" class="st13"/>
			</g>
			<g id="shape1511-97" transform="translate(192.01,-205.401)">
				<title>Sheet.1511</title>
				<path d="M0 425.78 L29.09 425.78 L29.09 437.51 L0 437.51 L0 437.51 L0 425.78 Z" class="st15"/>
				<path d="M0 425.78 L29.09 425.78 L29.09 437.51 L0 437.51 L0 437.51" class="st14"/>
			</g>
			<g id="shape1512-100" transform="translate(192.01,-240.613)">
				<title>Sheet.1512</title>
				<path d="M0 425.78 L29.09 425.78 L29.09 437.51 L0 437.51 L0 437.51 L0 425.78 Z" class="st15"/>
				<path d="M0 425.78 L29.09 425.78 L29.09 437.51 L0 437.51 L0 437.51" class="st14"/>
			</g>
			<g id="shape1513-103" transform="translate(192.01,-35.2116)">
				<title>Sheet.1513</title>
				<path d="M0 425.78 L29.09 425.78 L29.09 437.51 L0 437.51 L0 437.51 L0 425.78 Z" class="st15"/>
				<path d="M0 425.78 L29.09 425.78 L29.09 437.51 L0 437.51 L0 437.51" class="st14"/>
			</g>
			<g id="shape1514-106" transform="translate(2.15827E-13,-35.2116)">
				<title>Sheet.1514</title>
				<path d="M29.09 425.78 L0 425.78 L0 437.51 L29.09 437.51 L29.09 437.51 L29.09 425.78 Z" class="st15"/>
				<path d="M29.09 425.78 L0 425.78 L0 437.51 L29.09 437.51 L29.09 437.51" class="st14"/>
			</g>
			<g id="shape1515-109" transform="translate(29.0924,-299.299)">
				<title>Sheet.1515</title>
				<path d="M0 408.17 L0 437.51 L162.92 437.51 L162.92 408.17 L0 408.17 L0 408.17 Z" class="st13"/>
			</g>
			<g id="shape1516-111" transform="translate(29.0924,-328.642)">
				<title>Sheet.1516</title>
				<path d="M0 437.51 L23.27 414.04 L139.64 414.04 L162.92 437.51 L162.92 437.51 L0 437.51 Z" class="st15"/>
				<path d="M0 437.51 L23.27 414.04 L139.64 414.04 L162.92 437.51 L162.92 437.51" class="st14"/>
			</g>
			<g id="shape1517-114" transform="translate(81.4588,-369.722)">
				<title>Sheet.1517</title>
				<path d="M58.18 437.51 L0 437.51 L0 431.64 L58.18 431.64 L58.18 437.51 L58.18 437.51 Z" class="st13"/>
			</g>
			<g id="shape1518-116" transform="translate(81.4588,-275.824)">
				<title>Sheet.1518</title>
				<path d="M58.18 431.64 L0 431.64 L0 437.51 L58.18 437.51 L58.18 431.64 L58.18 431.64 Z" class="st13"/>
			</g>
		</g>
	</g>
</svg>
