<?xml version="1.0" encoding="UTF-8" standalone="no"?>
<!DOCTYPE svg PUBLIC "-//W3C//DTD SVG 1.1//EN" "http://www.w3.org/Graphics/SVG/1.1/DTD/svg11.dtd">
<!-- Generated by Microsoft Visio, SVG Export PD001A_Detail.svg Page-1 -->
<svg xmlns="http://www.w3.org/2000/svg" xmlns:xlink="http://www.w3.org/1999/xlink" xmlns:ev="http://www.w3.org/2001/xml-events"
		width="7.71769in" height="11.3024in" viewBox="0 0 555.674 813.776" xml:space="preserve" color-interpolation-filters="sRGB"
		class="st18">
	<title>PD001A</title>

	<style type="text/css">
	<![CDATA[
		.st1 {fill:#ffffff}
		.st2 {stroke:#000000;stroke-linecap:round;stroke-linejoin:round;stroke-width:0.24}
		.st3 {marker-end:url(#mrkr13-7);stroke:#000000;stroke-linecap:round;stroke-linejoin:round;stroke-width:0.24}
		.st4 {fill:#000000;fill-opacity:1;stroke:#000000;stroke-opacity:1;stroke-width:0.11764705882353}
		.st5 {fill:#ffffff;stroke:none;stroke-linecap:butt;stroke-width:7.2}
		.st6 {fill:#000000;font-family:Calibri;font-size:0.666664em}
		.st7 {fill:#ffffff;stroke:#ff0000;stroke-linecap:round;stroke-linejoin:round;stroke-width:2.25}
		.st8 {stroke:#d8d8d8;stroke-linecap:round;stroke-linejoin:round;stroke-width:0.25}
		.st9 {stroke:#7f7f7f;stroke-linecap:round;stroke-linejoin:round;stroke-width:0.25}
		.st10 {fill:none;stroke:none;stroke-linecap:round;stroke-linejoin:round;stroke-width:0.75}
		.st11 {fill:#ff0000;font-family:Arial Narrow;font-size:0.811964em;font-weight:bold}
		.st12 {baseline-shift:33.35%;font-size:0.667em}
		.st13 {fill:none;stroke:#ff0000;stroke-linecap:round;stroke-linejoin:round;stroke-width:0.75}
		.st14 {fill:#ff0000;font-family:Arial Narrow;font-size:0.833336em;font-weight:bold}
		.st15 {fill:none;stroke:#000000;stroke-linecap:round;stroke-linejoin:round;stroke-width:2.25}
		.st16 {stroke:#000000;stroke-linecap:round;stroke-linejoin:round;stroke-width:2.25}
		.st17 {fill:none}
		.st18 {fill:none;fill-rule:evenodd;font-size:12px;overflow:visible;stroke-linecap:square;stroke-miterlimit:3}
	]]>
	</style>

	<defs id="Markers">
		<g id="lend13">
			<path d="M 3 1 L 0 0 L 3 -1 L 3 1 " style="stroke:none"/>
		</g>
		<marker id="mrkr13-7" class="st4" refX="-25.5" orient="auto" markerUnits="strokeWidth" overflow="visible">
			<use xlink:href="#lend13" transform="scale(-8.5000000000001,-8.5000000000001) "/>
		</marker>
	</defs>
	<g>
		<title>Page-1</title>
		<g id="shape1419-1" transform="translate(-634.191,572.723) rotate(-90)">
			<title>Vertical.1528</title>
			<desc>128mm</desc>
			<path d="M0 785.93 L0 809.78 L0 785.93 ZM375.51 785.93 L375.51 809.9 L375.51 785.93 Z" class="st1"/>
			<path d="M0 785.93 L0 809.78 L0 785.93" class="st2"/>
			<path d="M375.51 785.93 L375.51 809.9 L375.51 785.93" class="st2"/>
			<path d="M187.75 793.93 L6.12 793.93" class="st3"/>
			<path d="M187.75 793.93 L369.39 793.93" class="st3"/>
			<rect x="175.281" y="782.332" width="24.9453" height="9.59985" class="st5"/>
			<text x="175.28" y="789.53" class="st6">128mm</text>		</g>
		<g id="shape1451-14" transform="translate(193.881,-637.821)">
			<title>Horizontal</title>
			<desc>76mm</desc>
			<path d="M0 785.93 L0 809.78 L0 785.93 ZM220.98 785.93 L220.98 809.69 L220.98 785.93 Z" class="st1"/>
			<path d="M0 785.93 L0 809.78 L0 785.93" class="st2"/>
			<path d="M220.98 785.93 L220.98 809.69 L220.98 785.93" class="st2"/>
			<path d="M110.49 793.93 L6.12 793.93" class="st3"/>
			<path d="M110.49 793.93 L214.86 793.93" class="st3"/>
			<rect x="100.045" y="782.332" width="20.8905" height="9.59985" class="st5"/>
			<text x="100.04" y="789.53" class="st6">76mm</text>		</g>
		<g id="shape1405-26" transform="translate(218.358,-432.932) rotate(0.2)">
			<title>Circle.1508</title>
			<path d="M0 807.21 A6.56444 6.56444 0 0 1 13.13 807.21 A6.56444 6.56444 0 1 1 0 807.21 Z" class="st7"/>
		</g>
		<g id="group1455-28" transform="translate(0.125006,-0.12503)">
			<title>Sheet.1455</title>
			<g id="shape1309-29" transform="translate(555.424,862.133) rotate(180)">
				<title>Sheet.1309</title>
				<path d="M0 813.78 L555.42 813.78" class="st8"/>
			</g>
			<g id="shape1310-32" transform="translate(555.424,890.479) rotate(180)">
				<title>Sheet.1310</title>
				<path d="M0 813.78 L555.42 813.78" class="st9"/>
			</g>
			<g id="shape1311-35" transform="translate(555.424,904.653) rotate(180)">
				<title>Sheet.1311</title>
				<path d="M0 813.78 L555.42 813.78" class="st8"/>
			</g>
			<g id="shape1312-38" transform="translate(555.424,918.826) rotate(180)">
				<title>Sheet.1312</title>
				<path d="M0 813.78 L555.42 813.78" class="st8"/>
			</g>
			<g id="shape1313-41" transform="translate(555.424,932.999) rotate(180)">
				<title>Sheet.1313</title>
				<path d="M0 813.78 L555.42 813.78" class="st8"/>
			</g>
			<g id="shape1314-44" transform="translate(555.424,876.306) rotate(180)">
				<title>Sheet.1314</title>
				<path d="M0 813.78 L555.42 813.78" class="st8"/>
			</g>
			<g id="shape1315-47" transform="translate(555.424,947.172) rotate(180)">
				<title>Sheet.1315</title>
				<path d="M0 813.78 L555.42 813.78" class="st8"/>
			</g>
			<g id="shape1316-50" transform="translate(555.424,961.345) rotate(180)">
				<title>Sheet.1316</title>
				<path d="M0 813.78 L555.42 813.78" class="st9"/>
			</g>
			<g id="shape1317-53" transform="translate(555.424,975.519) rotate(180)">
				<title>Sheet.1317</title>
				<path d="M0 813.78 L555.42 813.78" class="st8"/>
			</g>
			<g id="shape1318-56" transform="translate(555.424,989.692) rotate(180)">
				<title>Sheet.1318</title>
				<path d="M0 813.78 L555.42 813.78" class="st8"/>
			</g>
			<g id="shape1319-59" transform="translate(555.424,1018.04) rotate(180)">
				<title>Sheet.1319</title>
				<path d="M0 813.78 L555.42 813.78" class="st8"/>
			</g>
			<g id="shape1320-62" transform="translate(555.424,1032.21) rotate(180)">
				<title>Sheet.1320</title>
				<path d="M0 813.78 L555.42 813.78" class="st9"/>
			</g>
			<g id="shape1321-65" transform="translate(555.424,1046.38) rotate(180)">
				<title>Sheet.1321</title>
				<path d="M0 813.78 L555.42 813.78" class="st8"/>
			</g>
			<g id="shape1322-68" transform="translate(555.424,1060.56) rotate(180)">
				<title>Sheet.1322</title>
				<path d="M0 813.78 L555.42 813.78" class="st8"/>
			</g>
			<g id="shape1323-71" transform="translate(555.424,1003.87) rotate(180)">
				<title>Sheet.1323</title>
				<path d="M0 813.78 L555.42 813.78" class="st8"/>
			</g>
			<g id="shape1324-74" transform="translate(555.424,1074.73) rotate(180)">
				<title>Sheet.1324</title>
				<path d="M0 813.78 L555.42 813.78" class="st8"/>
			</g>
			<g id="shape1325-77" transform="translate(555.424,1088.9) rotate(180)">
				<title>Sheet.1325</title>
				<path d="M0 813.78 L555.42 813.78" class="st8"/>
			</g>
			<g id="shape1326-80" transform="translate(555.424,1103.08) rotate(180)">
				<title>Sheet.1326</title>
				<path d="M0 813.78 L555.42 813.78" class="st9"/>
			</g>
			<g id="shape1327-83" transform="translate(555.424,1117.25) rotate(180)">
				<title>Sheet.1327</title>
				<path d="M0 813.78 L555.42 813.78" class="st8"/>
			</g>
			<g id="shape1328-86" transform="translate(555.424,1145.6) rotate(180)">
				<title>Sheet.1328</title>
				<path d="M0 813.78 L555.42 813.78" class="st8"/>
			</g>
			<g id="shape1329-89" transform="translate(555.424,1159.77) rotate(180)">
				<title>Sheet.1329</title>
				<path d="M0 813.78 L555.42 813.78" class="st8"/>
			</g>
			<g id="shape1330-92" transform="translate(555.424,1173.94) rotate(180)">
				<title>Sheet.1330</title>
				<path d="M0 813.78 L555.42 813.78" class="st9"/>
			</g>
			<g id="shape1331-95" transform="translate(555.424,1188.12) rotate(180)">
				<title>Sheet.1331</title>
				<path d="M0 813.78 L555.42 813.78" class="st8"/>
			</g>
			<g id="shape1332-98" transform="translate(555.424,1131.42) rotate(180)">
				<title>Sheet.1332</title>
				<path d="M0 813.78 L555.42 813.78" class="st8"/>
			</g>
			<g id="shape1333-101" transform="translate(555.424,1202.29) rotate(180)">
				<title>Sheet.1333</title>
				<path d="M0 813.78 L555.42 813.78" class="st8"/>
			</g>
			<g id="shape1334-104" transform="translate(555.424,1216.46) rotate(180)">
				<title>Sheet.1334</title>
				<path d="M0 813.78 L555.42 813.78" class="st8"/>
			</g>
			<g id="shape1335-107" transform="translate(555.424,1230.64) rotate(180)">
				<title>Sheet.1335</title>
				<path d="M0 813.78 L555.42 813.78" class="st8"/>
			</g>
			<g id="shape1336-110" transform="translate(555.424,1244.81) rotate(180)">
				<title>Sheet.1336</title>
				<path d="M0 813.78 L555.42 813.78" class="st9"/>
			</g>
			<g id="shape1337-113" transform="translate(555.424,1273.16) rotate(180)">
				<title>Sheet.1337</title>
				<path d="M0 813.78 L555.42 813.78" class="st8"/>
			</g>
			<g id="shape1338-116" transform="translate(555.424,1287.33) rotate(180)">
				<title>Sheet.1338</title>
				<path d="M0 813.78 L555.42 813.78" class="st8"/>
			</g>
			<g id="shape1339-119" transform="translate(555.424,1301.5) rotate(180)">
				<title>Sheet.1339</title>
				<path d="M0 813.78 L555.42 813.78" class="st8"/>
			</g>
			<g id="shape1340-122" transform="translate(555.424,1315.68) rotate(180)">
				<title>Sheet.1340</title>
				<path d="M0 813.78 L555.42 813.78" class="st9"/>
			</g>
			<g id="shape1341-125" transform="translate(555.424,1258.98) rotate(180)">
				<title>Sheet.1341</title>
				<path d="M0 813.78 L555.42 813.78" class="st8"/>
			</g>
			<g id="shape1342-128" transform="translate(555.424,1329.85) rotate(180)">
				<title>Sheet.1342</title>
				<path d="M0 813.78 L555.42 813.78" class="st8"/>
			</g>
			<g id="shape1343-131" transform="translate(555.424,1344.02) rotate(180)">
				<title>Sheet.1343</title>
				<path d="M0 813.78 L555.42 813.78" class="st8"/>
			</g>
			<g id="shape1344-134" transform="translate(555.424,1358.2) rotate(180)">
				<title>Sheet.1344</title>
				<path d="M0 813.78 L555.42 813.78" class="st8"/>
			</g>
			<g id="shape1345-137" transform="translate(555.424,1372.37) rotate(180)">
				<title>Sheet.1345</title>
				<path d="M0 813.78 L555.42 813.78" class="st8"/>
			</g>
			<g id="shape1346-140" transform="translate(555.424,1400.72) rotate(180)">
				<title>Sheet.1346</title>
				<path d="M0 813.78 L555.42 813.78" class="st8"/>
			</g>
			<g id="shape1347-143" transform="translate(555.424,1414.89) rotate(180)">
				<title>Sheet.1347</title>
				<path d="M0 813.78 L555.42 813.78" class="st8"/>
			</g>
			<g id="shape1348-146" transform="translate(555.424,1429.06) rotate(180)">
				<title>Sheet.1348</title>
				<path d="M0 813.78 L555.42 813.78" class="st8"/>
			</g>
			<g id="shape1349-149" transform="translate(555.424,1443.24) rotate(180)">
				<title>Sheet.1349</title>
				<path d="M0 813.78 L555.42 813.78" class="st8"/>
			</g>
			<g id="shape1350-152" transform="translate(555.424,1386.54) rotate(180)">
				<title>Sheet.1350</title>
				<path d="M0 813.78 L555.42 813.78" class="st9"/>
			</g>
			<g id="shape1351-155" transform="translate(555.424,1457.41) rotate(180)">
				<title>Sheet.1351</title>
				<path d="M0 813.78 L555.42 813.78" class="st9"/>
			</g>
			<g id="shape1352-158" transform="translate(555.424,1471.58) rotate(180)">
				<title>Sheet.1352</title>
				<path d="M0 813.78 L555.42 813.78" class="st8"/>
			</g>
			<g id="shape1353-161" transform="translate(555.424,1485.75) rotate(180)">
				<title>Sheet.1353</title>
				<path d="M0 813.78 L555.42 813.78" class="st8"/>
			</g>
			<g id="shape1354-164" transform="translate(555.424,1499.93) rotate(180)">
				<title>Sheet.1354</title>
				<path d="M0 813.78 L555.42 813.78" class="st8"/>
			</g>
			<g id="shape1355-167" transform="translate(555.424,1528.27) rotate(180)">
				<title>Sheet.1355</title>
				<path d="M0 813.78 L555.42 813.78" class="st9"/>
			</g>
			<g id="shape1356-170" transform="translate(555.424,1542.45) rotate(180)">
				<title>Sheet.1356</title>
				<path d="M0 813.78 L555.42 813.78" class="st8"/>
			</g>
			<g id="shape1357-173" transform="translate(555.424,1556.62) rotate(180)">
				<title>Sheet.1357</title>
				<path d="M0 813.78 L555.42 813.78" class="st8"/>
			</g>
			<g id="shape1358-176" transform="translate(555.424,1570.79) rotate(180)">
				<title>Sheet.1358</title>
				<path d="M0 813.78 L555.42 813.78" class="st8"/>
			</g>
			<g id="shape1359-179" transform="translate(555.424,1514.1) rotate(180)">
				<title>Sheet.1359</title>
				<path d="M0 813.78 L555.42 813.78" class="st8"/>
			</g>
			<g id="shape1360-182" transform="translate(555.424,1584.97) rotate(180)">
				<title>Sheet.1360</title>
				<path d="M0 813.78 L555.42 813.78" class="st8"/>
			</g>
			<g id="shape1361-185" transform="translate(555.424,1599.14) rotate(180)">
				<title>Sheet.1361</title>
				<path d="M0 813.78 L555.42 813.78" class="st9"/>
			</g>
			<g id="shape1362-188" transform="translate(865.799,0.25003) rotate(90)">
				<title>Sheet.1362</title>
				<path d="M0 813.78 L810.85 813.78" class="st9"/>
			</g>
			<g id="shape1363-191" transform="translate(879.973,1.24343) rotate(90)">
				<title>Sheet.1363</title>
				<path d="M0 813.78 L809.86 813.78" class="st8"/>
			</g>
			<g id="shape1364-194" transform="translate(894.146,1.24343) rotate(90)">
				<title>Sheet.1364</title>
				<path d="M0 813.78 L809.86 813.78" class="st8"/>
			</g>
			<g id="shape1365-197" transform="translate(908.319,1.24343) rotate(90)">
				<title>Sheet.1365</title>
				<path d="M0 813.78 L809.86 813.78" class="st8"/>
			</g>
			<g id="shape1366-200" transform="translate(936.666,0.25003) rotate(90)">
				<title>Sheet.1366</title>
				<path d="M0 813.78 L810.85 813.78" class="st9"/>
			</g>
			<g id="shape1367-203" transform="translate(950.839,1.24343) rotate(90)">
				<title>Sheet.1367</title>
				<path d="M0 813.78 L809.86 813.78" class="st8"/>
			</g>
			<g id="shape1368-206" transform="translate(965.012,1.24343) rotate(90)">
				<title>Sheet.1368</title>
				<path d="M0 813.78 L809.86 813.78" class="st8"/>
			</g>
			<g id="shape1369-209" transform="translate(979.185,1.24343) rotate(90)">
				<title>Sheet.1369</title>
				<path d="M0 813.78 L809.86 813.78" class="st8"/>
			</g>
			<g id="shape1370-212" transform="translate(922.492,1.24343) rotate(90)">
				<title>Sheet.1370</title>
				<path d="M0 813.78 L809.86 813.78" class="st8"/>
			</g>
			<g id="shape1371-215" transform="translate(993.359,1.24343) rotate(90)">
				<title>Sheet.1371</title>
				<path d="M0 813.78 L809.86 813.78" class="st8"/>
			</g>
			<g id="shape1372-218" transform="translate(1007.53,0.25003) rotate(90)">
				<title>Sheet.1372</title>
				<path d="M0 813.78 L810.85 813.78" class="st9"/>
			</g>
			<g id="shape1373-221" transform="translate(1021.7,1.24343) rotate(90)">
				<title>Sheet.1373</title>
				<path d="M0 813.78 L809.86 813.78" class="st8"/>
			</g>
			<g id="shape1374-224" transform="translate(1035.88,1.24343) rotate(90)">
				<title>Sheet.1374</title>
				<path d="M0 813.78 L809.86 813.78" class="st8"/>
			</g>
			<g id="shape1375-227" transform="translate(1064.22,1.24343) rotate(90)">
				<title>Sheet.1375</title>
				<path d="M0 813.78 L809.86 813.78" class="st8"/>
			</g>
			<g id="shape1376-230" transform="translate(1078.4,0.25003) rotate(90)">
				<title>Sheet.1376</title>
				<path d="M0 813.78 L810.85 813.78" class="st9"/>
			</g>
			<g id="shape1377-233" transform="translate(1092.57,1.24343) rotate(90)">
				<title>Sheet.1377</title>
				<path d="M0 813.78 L809.86 813.78" class="st8"/>
			</g>
			<g id="shape1378-236" transform="translate(1106.84,3.91898) rotate(90)">
				<title>Sheet.1378</title>
				<path d="M0 813.78 L809.86 813.78" class="st8"/>
			</g>
			<g id="shape1379-239" transform="translate(1050.05,1.24343) rotate(90)">
				<title>Sheet.1379</title>
				<path d="M0 813.78 L809.86 813.78" class="st8"/>
			</g>
			<g id="shape1380-242" transform="translate(1120.92,1.24343) rotate(90)">
				<title>Sheet.1380</title>
				<path d="M0 813.78 L809.86 813.78" class="st8"/>
			</g>
			<g id="shape1381-245" transform="translate(1135.09,1.24343) rotate(90)">
				<title>Sheet.1381</title>
				<path d="M0 813.78 L809.86 813.78" class="st8"/>
			</g>
			<g id="shape1382-248" transform="translate(1149.26,0.25003) rotate(90)">
				<title>Sheet.1382</title>
				<path d="M0 813.78 L810.85 813.78" class="st9"/>
			</g>
			<g id="shape1383-251" transform="translate(1163.44,1.24343) rotate(90)">
				<title>Sheet.1383</title>
				<path d="M0 813.78 L809.86 813.78" class="st8"/>
			</g>
			<g id="shape1384-254" transform="translate(1191.78,1.24343) rotate(90)">
				<title>Sheet.1384</title>
				<path d="M0 813.78 L809.86 813.78" class="st8"/>
			</g>
			<g id="shape1385-257" transform="translate(1205.96,1.24343) rotate(90)">
				<title>Sheet.1385</title>
				<path d="M0 813.78 L809.86 813.78" class="st8"/>
			</g>
			<g id="shape1386-260" transform="translate(1220.13,0.25003) rotate(90)">
				<title>Sheet.1386</title>
				<path d="M0 813.78 L810.85 813.78" class="st9"/>
			</g>
			<g id="shape1387-263" transform="translate(1234.3,1.24343) rotate(90)">
				<title>Sheet.1387</title>
				<path d="M0 813.78 L809.86 813.78" class="st8"/>
			</g>
			<g id="shape1388-266" transform="translate(1177.61,1.24343) rotate(90)">
				<title>Sheet.1388</title>
				<path d="M0 813.78 L809.86 813.78" class="st8"/>
			</g>
			<g id="shape1389-269" transform="translate(1248.48,1.24343) rotate(90)">
				<title>Sheet.1389</title>
				<path d="M0 813.78 L809.86 813.78" class="st8"/>
			</g>
			<g id="shape1390-272" transform="translate(1262.65,1.24343) rotate(90)">
				<title>Sheet.1390</title>
				<path d="M0 813.78 L809.86 813.78" class="st8"/>
			</g>
			<g id="shape1391-275" transform="translate(1276.82,1.24343) rotate(90)">
				<title>Sheet.1391</title>
				<path d="M0 813.78 L809.86 813.78" class="st8"/>
			</g>
			<g id="shape1392-278" transform="translate(1333.61,3.42147) rotate(90)">
				<title>Sheet.1392</title>
				<path d="M0 813.78 L807.68 813.78" class="st8"/>
			</g>
			<g id="shape1393-281" transform="translate(1319.34,1.24343) rotate(90)">
				<title>Sheet.1393</title>
				<path d="M0 813.78 L809.86 813.78" class="st8"/>
			</g>
			<g id="shape1394-284" transform="translate(1361.86,1.67606) rotate(90)">
				<title>Sheet.1394</title>
				<path d="M0 813.78 L809.42 813.78" class="st9"/>
			</g>
			<g id="shape1395-287" transform="translate(1305.17,1.24343) rotate(90)">
				<title>Sheet.1395</title>
				<path d="M0 813.78 L809.86 813.78" class="st8"/>
			</g>
			<g id="shape1396-290" transform="translate(823.28,1.24343) rotate(90)">
				<title>Sheet.1396</title>
				<path d="M0 813.78 L809.86 813.78" class="st8"/>
			</g>
			<g id="shape1397-293" transform="translate(837.453,1.24343) rotate(90)">
				<title>Sheet.1397</title>
				<path d="M0 813.78 L809.86 813.78" class="st8"/>
			</g>
			<g id="shape1398-296" transform="translate(851.626,1.24343) rotate(90)">
				<title>Sheet.1398</title>
				<path d="M0 813.78 L809.86 813.78" class="st8"/>
			</g>
			<g id="shape1399-299" transform="translate(1291.84,0.25003) rotate(90)">
				<title>Sheet.1399</title>
				<path d="M0 813.78 L810.85 813.78" class="st9"/>
			</g>
			<g id="shape1400-302" transform="translate(555.424,833.786) rotate(180)">
				<title>Sheet.1400</title>
				<path d="M0 813.78 L555.42 813.78" class="st8"/>
			</g>
			<g id="shape1401-305" transform="translate(555.424,847.96) rotate(180)">
				<title>Sheet.1401</title>
				<path d="M0 813.78 L555.42 813.78" class="st8"/>
			</g>
			<g id="shape1402-308" transform="translate(555.424,1613.31) rotate(180)">
				<title>Sheet.1402</title>
				<path d="M0 813.78 L555.42 813.78" class="st8"/>
			</g>
			<g id="shape1403-311" transform="translate(1347.79,1.24343) rotate(90)">
				<title>Sheet.1403</title>
				<path d="M0 813.78 L809.86 813.78" class="st8"/>
			</g>
		</g>
		<g id="group1458-314" transform="translate(262.483,-467.742)">
			<title>Sheet.1458</title>
			<g id="group1410-315">
				<title>Sheet.1410</title>
				<g id="shape1412-316" transform="translate(0,-4.47576)">
					<title>Sheet.1412</title>
					<desc>A</desc>
					<rect x="0" y="799.603" width="13.2348" height="14.1732" class="st10"/>
					<text x="4" y="813.29" class="st11"><tspan class="st12">A</tspan></text>				</g>
			</g>
			<g id="group1456-320" transform="translate(2.14166,-0.0824008)">
				<title>Sheet.1456</title>
				<g id="shape1457-321" transform="translate(7.92226E-06,-0.0824008)">
					<title>Sheet.1457</title>
					<desc>1</desc>
					<rect x="0" y="799.603" width="85.0394" height="14.1732" class="st13"/>
					<text x="40.24" y="809.69" class="st14">1</text>				</g>
			</g>
		</g>
		<g id="group1489-324" transform="translate(193.758,-241.053)">
			<title>STPD001.1489</title>
			<g id="shape1490-325" transform="translate(81.4588,0)">
				<title>Sheet.1490</title>
				<path d="M58.18 807.91 L0 807.91 L0 813.78 L58.18 813.78 L58.18 807.91 L58.18 807.91 Z" class="st15"/>
			</g>
			<g id="shape1491-327" transform="translate(901.054,514.478) rotate(90)">
				<title>Sheet.1491</title>
				<path d="M0 813.78 L17.61 813.78" class="st16"/>
			</g>
			<g id="shape1492-330" transform="translate(901.054,537.952) rotate(90)">
				<title>Sheet.1492</title>
				<path d="M0 813.78 L17.61 813.78" class="st16"/>
			</g>
			<g id="shape1493-333" transform="translate(947.601,514.478) rotate(90)">
				<title>Sheet.1493</title>
				<path d="M0 813.78 L17.61 813.78" class="st16"/>
			</g>
			<g id="shape1494-336" transform="translate(947.601,537.952) rotate(90)">
				<title>Sheet.1494</title>
				<path d="M0 813.78 L17.61 813.78" class="st16"/>
			</g>
			<g id="shape1495-339" transform="translate(947.601,614.244) rotate(90)">
				<title>Sheet.1495</title>
				<path d="M0 813.78 L11.74 813.78" class="st16"/>
			</g>
			<g id="shape1496-342" transform="translate(901.054,614.244) rotate(90)">
				<title>Sheet.1496</title>
				<path d="M0 813.78 L11.74 813.78" class="st16"/>
			</g>
			<g id="shape1497-345" transform="translate(901.054,631.85) rotate(90)">
				<title>Sheet.1497</title>
				<path d="M0 813.78 L111.5 813.78" class="st16"/>
			</g>
			<g id="shape1498-348" transform="translate(947.601,631.85) rotate(90)">
				<title>Sheet.1498</title>
				<path d="M0 813.78 L111.5 813.78" class="st16"/>
			</g>
			<g id="shape1499-351" transform="translate(901.054,749.222) rotate(90)">
				<title>Sheet.1499</title>
				<path d="M0 813.78 L11.74 813.78" class="st16"/>
			</g>
			<g id="shape1500-354" transform="translate(947.601,749.222) rotate(90)">
				<title>Sheet.1500</title>
				<path d="M0 813.78 L11.74 813.78" class="st16"/>
			</g>
			<g id="shape1501-357" transform="translate(901.054,444.054) rotate(90)">
				<title>Sheet.1501</title>
				<path d="M0 813.78 L17.61 813.78" class="st16"/>
			</g>
			<g id="shape1502-360" transform="translate(947.601,444.054) rotate(90)">
				<title>Sheet.1502</title>
				<path d="M0 813.78 L17.61 813.78" class="st16"/>
			</g>
			<g id="shape1503-363" transform="translate(901.054,787.368) rotate(90)">
				<title>Sheet.1503</title>
				<path d="M0 813.78 L20.54 813.78" class="st16"/>
			</g>
			<g id="shape1504-366" transform="translate(947.601,787.368) rotate(90)">
				<title>Sheet.1504</title>
				<path d="M0 813.78 L20.54 813.78" class="st16"/>
			</g>
			<g id="shape1505-369" transform="translate(29.0924,-26.4087)">
				<title>Sheet.1505</title>
				<path d="M162.92 813.78 L0 813.78 L0 787.37 L162.92 787.37 L162.92 813.78 L162.92 813.78 Z" class="st15"/>
			</g>
			<g id="shape1506-371" transform="translate(81.4588,-64.5546)">
				<title>Sheet.1506</title>
				<path d="M58.18 813.78 L0 813.78 L0 807.91 L58.18 807.91 L58.18 813.78 L58.18 813.78 Z" class="st15"/>
			</g>
			<g id="shape1507-373" transform="translate(81.4588,-181.927)">
				<title>Sheet.1507</title>
				<path d="M58.18 807.91 L0 807.91 L0 813.78 L58.18 813.78 L58.18 807.91 L58.18 807.91 Z" class="st15"/>
			</g>
			<g id="shape1508-375" transform="translate(2.15827E-13,-205.401)">
				<title>Sheet.1508</title>
				<path d="M29.09 802.04 L0 802.04 L0 813.78 L29.09 813.78 L29.09 813.78 L29.09 802.04 Z" class="st17"/>
				<path d="M29.09 802.04 L0 802.04 L0 813.78 L29.09 813.78 L29.09 813.78" class="st16"/>
			</g>
			<g id="shape1509-378" transform="translate(2.15827E-13,-240.613)">
				<title>Sheet.1509</title>
				<path d="M29.09 802.04 L0 802.04 L0 813.78 L29.09 813.78 L29.09 813.78 L29.09 802.04 Z" class="st17"/>
				<path d="M29.09 802.04 L0 802.04 L0 813.78 L29.09 813.78 L29.09 813.78" class="st16"/>
			</g>
			<g id="shape1510-381" transform="translate(29.0924,-199.532)">
				<title>Sheet.1510</title>
				<path d="M0 813.78 L0 755.09 L162.92 755.09 L162.92 813.78 L0 813.78 L0 813.78 Z" class="st15"/>
			</g>
			<g id="shape1511-383" transform="translate(192.01,-205.401)">
				<title>Sheet.1511</title>
				<path d="M0 802.04 L29.09 802.04 L29.09 813.78 L0 813.78 L0 813.78 L0 802.04 Z" class="st17"/>
				<path d="M0 802.04 L29.09 802.04 L29.09 813.78 L0 813.78 L0 813.78" class="st16"/>
			</g>
			<g id="shape1512-386" transform="translate(192.01,-240.613)">
				<title>Sheet.1512</title>
				<path d="M0 802.04 L29.09 802.04 L29.09 813.78 L0 813.78 L0 813.78 L0 802.04 Z" class="st17"/>
				<path d="M0 802.04 L29.09 802.04 L29.09 813.78 L0 813.78 L0 813.78" class="st16"/>
			</g>
			<g id="shape1513-389" transform="translate(192.01,-35.2116)">
				<title>Sheet.1513</title>
				<path d="M0 802.04 L29.09 802.04 L29.09 813.78 L0 813.78 L0 813.78 L0 802.04 Z" class="st17"/>
				<path d="M0 802.04 L29.09 802.04 L29.09 813.78 L0 813.78 L0 813.78" class="st16"/>
			</g>
			<g id="shape1514-392" transform="translate(2.15827E-13,-35.2116)">
				<title>Sheet.1514</title>
				<path d="M29.09 802.04 L0 802.04 L0 813.78 L29.09 813.78 L29.09 813.78 L29.09 802.04 Z" class="st17"/>
				<path d="M29.09 802.04 L0 802.04 L0 813.78 L29.09 813.78 L29.09 813.78" class="st16"/>
			</g>
			<g id="shape1515-395" transform="translate(29.0924,-299.299)">
				<title>Sheet.1515</title>
				<path d="M0 784.43 L0 813.78 L162.92 813.78 L162.92 784.43 L0 784.43 L0 784.43 Z" class="st15"/>
			</g>
			<g id="shape1516-397" transform="translate(29.0924,-328.642)">
				<title>Sheet.1516</title>
				<path d="M0 813.78 L23.27 790.3 L139.64 790.3 L162.92 813.78 L162.92 813.78 L0 813.78 Z" class="st17"/>
				<path d="M0 813.78 L23.27 790.3 L139.64 790.3 L162.92 813.78 L162.92 813.78" class="st16"/>
			</g>
			<g id="shape1517-400" transform="translate(81.4588,-369.722)">
				<title>Sheet.1517</title>
				<path d="M58.18 813.78 L0 813.78 L0 807.91 L58.18 807.91 L58.18 813.78 L58.18 813.78 Z" class="st15"/>
			</g>
			<g id="shape1518-402" transform="translate(81.4588,-275.824)">
				<title>Sheet.1518</title>
				<path d="M58.18 807.91 L0 807.91 L0 813.78 L58.18 813.78 L58.18 807.91 L58.18 807.91 Z" class="st15"/>
			</g>
		</g>
	</g>
</svg>
