<?xml version="1.0" encoding="UTF-8" standalone="no"?>
<!DOCTYPE svg PUBLIC "-//W3C//DTD SVG 1.1//EN" "http://www.w3.org/Graphics/SVG/1.1/DTD/svg11.dtd">
<!-- Generated by Microsoft Visio, SVG Export PD006A_Detail.svg Page-1 -->
<svg xmlns="http://www.w3.org/2000/svg" xmlns:xlink="http://www.w3.org/1999/xlink" xmlns:ev="http://www.w3.org/2001/xml-events"
		width="6.19017in" height="4.79435in" viewBox="0 0 445.692 345.193" xml:space="preserve" color-interpolation-filters="sRGB"
		class="st15">
	<title>PD006A</title>

	<style type="text/css">
	<![CDATA[
		.st1 {fill:#ffffff;stroke:#ff0000;stroke-linecap:round;stroke-linejoin:round;stroke-width:2.25}
		.st2 {fill:#ffffff}
		.st3 {stroke:#000000;stroke-linecap:round;stroke-linejoin:round;stroke-width:0.24}
		.st4 {marker-end:url(#mrkr13-9);stroke:#000000;stroke-linecap:round;stroke-linejoin:round;stroke-width:0.24}
		.st5 {fill:#000000;fill-opacity:1;stroke:#000000;stroke-opacity:1;stroke-width:0.11764705882353}
		.st6 {fill:#ffffff;stroke:none;stroke-linecap:butt}
		.st7 {fill:#000000;font-family:Calibri;font-size:0.666664em}
		.st8 {fill:none;stroke:none;stroke-linecap:round;stroke-linejoin:round;stroke-width:0.75}
		.st9 {fill:#ff0000;font-family:Arial Narrow;font-size:0.811964em;font-weight:bold}
		.st10 {baseline-shift:33.35%;font-size:0.667em}
		.st11 {fill:none;stroke:#ff0000;stroke-linecap:round;stroke-linejoin:round;stroke-width:0.75}
		.st12 {fill:#ff0000;font-family:Arial Narrow;font-size:0.833336em;font-weight:bold}
		.st13 {fill:#ffffff;stroke:none;stroke-linecap:butt;stroke-width:7.2}
		.st14 {fill:none;stroke:#000000;stroke-linecap:round;stroke-linejoin:round;stroke-width:2.25}
		.st15 {fill:none;fill-rule:evenodd;font-size:12px;overflow:visible;stroke-linecap:square;stroke-miterlimit:3}
	]]>
	</style>

	<defs id="Markers">
		<g id="lend13">
			<path d="M 3 1 L 0 0 L 3 -1 L 3 1 " style="stroke:none"/>
		</g>
		<marker id="mrkr13-9" class="st5" refX="-25.5" orient="auto" markerUnits="strokeWidth" overflow="visible">
			<use xlink:href="#lend13" transform="scale(-8.5000000000001,-8.5000000000001) "/>
		</marker>
	</defs>
	<g>
		<title>Page-1</title>
		<g id="shape1405-1" transform="translate(246.892,-267.783)">
			<title>Circle.1412</title>
			<path d="M0 338.63 A6.56444 6.56444 0 0 1 13.13 338.63 A6.56444 6.56444 0 1 1 0 338.63 Z" class="st1"/>
		</g>
		<g id="shape1411-3" transform="translate(-310.899,338.742) rotate(-90)">
			<title>Vertical.1015</title>
			<desc>38mm</desc>
			<path d="M0 317.35 L0 341.19 L0 317.35 ZM269.29 317.35 L269.29 359.62 L269.29 317.35 Z" class="st2"/>
			<path d="M0 317.35 L0 341.19 L0 317.35" class="st3"/>
			<path d="M269.29 317.35 L269.29 359.62 L269.29 317.35" class="st3"/>
			<path d="M134.65 325.35 L6.12 325.35" class="st4"/>
			<path d="M134.65 325.35 L263.17 325.35" class="st4"/>
			<rect x="124.2" y="313.749" width="20.8905" height="9.59985" class="st6"/>
			<text x="124.2" y="320.95" class="st7">38mm</text>		</g>
		<g id="group1423-16" transform="translate(358.136,-162.454)">
			<title>Sheet.1423</title>
			<g id="group1424-17">
				<title>Sheet.1424</title>
				<g id="shape1425-18" transform="translate(0,-4.47576)">
					<title>Sheet.1425</title>
					<desc>A</desc>
					<rect x="0" y="331.02" width="13.2348" height="14.1732" class="st8"/>
					<text x="4" y="344.71" class="st9"><tspan class="st10">A</tspan></text>				</g>
			</g>
			<g id="group1426-22" transform="translate(2.14166,-0.0824008)">
				<title>Sheet.1426</title>
				<g id="shape1427-23" transform="translate(7.92226E-06,-0.0824008)">
					<title>Sheet.1427</title>
					<desc>1</desc>
					<rect x="0" y="331.02" width="85.0394" height="14.1732" class="st11"/>
					<text x="40.24" y="341.11" class="st12">1</text>				</g>
			</g>
		</g>
		<g id="shape1469-26" transform="translate(147.679,-310.899)">
			<title>Horizontal</title>
			<desc>30mm</desc>
			<path d="M0 317.35 L0 341.19 L0 317.35 ZM212.6 317.35 L212.6 355.37 L212.6 317.35 Z" class="st2"/>
			<path d="M0 317.35 L0 341.19 L0 317.35" class="st3"/>
			<path d="M212.6 317.35 L212.6 355.37 L212.6 317.35" class="st3"/>
			<path d="M106.3 325.35 L6.12 325.35" class="st4"/>
			<path d="M106.3 325.35 L206.48 325.35" class="st4"/>
			<rect x="95.8539" y="313.749" width="20.8905" height="9.59985" class="st13"/>
			<text x="95.85" y="320.95" class="st7">30mm</text>		</g>
		<g id="shape1471-38" transform="translate(-272.632,126.144) rotate(-90)">
			<title>Vertical.1471</title>
			<desc>8mm</desc>
			<path d="M0 317.35 L0 341.19 L0 317.35 ZM56.69 317.35 L56.69 359.62 L56.69 317.35 Z" class="st2"/>
			<path d="M0 317.35 L0 341.19 L0 317.35" class="st3"/>
			<path d="M56.69 317.35 L56.69 359.62 L56.69 317.35" class="st3"/>
			<path d="M28.35 325.35 L6.12 325.35" class="st4"/>
			<path d="M28.35 325.35 L50.57 325.35" class="st4"/>
			<rect x="19.9286" y="313.749" width="16.8357" height="9.59985" class="st13"/>
			<text x="19.93" y="320.95" class="st7">8mm</text>		</g>
		<g id="group1507-50" transform="translate(146.337,-6.92101)">
			<title>STPD006.76</title>
			<g id="shape1508-51">
				<title>Sheet.1508</title>
				<path d="M0 77.77 L213.94 77.77 L213.94 131.25 L106.97 345.19 L0 131.25 L0 77.77 L0 77.77 Z" class="st14"/>
			</g>
		</g>
	</g>
</svg>
