<?xml version="1.0" encoding="UTF-8" standalone="no"?>
<!DOCTYPE svg PUBLIC "-//W3C//DTD SVG 1.1//EN" "http://www.w3.org/Graphics/SVG/1.1/DTD/svg11.dtd">
<!-- Generated by Microsoft Visio, SVG Export PD005A_Detail.svg Page-1 -->
<svg xmlns="http://www.w3.org/2000/svg" xmlns:xlink="http://www.w3.org/1999/xlink" xmlns:ev="http://www.w3.org/2001/xml-events"
		width="6.80144in" height="7.35858in" viewBox="0 0 489.704 529.818" xml:space="preserve" color-interpolation-filters="sRGB"
		class="st15">
	<title>PD005A</title>

	<style type="text/css">
	<![CDATA[
		.st1 {fill:#ffffff;stroke:#ff0000;stroke-linecap:round;stroke-linejoin:round;stroke-width:2.25}
		.st2 {fill:#ffffff}
		.st3 {stroke:#000000;stroke-linecap:round;stroke-linejoin:round;stroke-width:0.24}
		.st4 {marker-end:url(#mrkr13-9);stroke:#000000;stroke-linecap:round;stroke-linejoin:round;stroke-width:0.24}
		.st5 {fill:#000000;fill-opacity:1;stroke:#000000;stroke-opacity:1;stroke-width:0.11764705882353}
		.st6 {fill:#ffffff;stroke:none;stroke-linecap:butt;stroke-width:7.2}
		.st7 {fill:#000000;font-family:Calibri;font-size:0.666664em}
		.st8 {fill:none;stroke:none;stroke-linecap:round;stroke-linejoin:round;stroke-width:0.75}
		.st9 {fill:#ff0000;font-family:Arial Narrow;font-size:0.811964em;font-weight:bold}
		.st10 {baseline-shift:33.35%;font-size:0.667em}
		.st11 {fill:none;stroke:#ff0000;stroke-linecap:round;stroke-linejoin:round;stroke-width:0.75}
		.st12 {fill:#ff0000;font-family:Arial Narrow;font-size:0.833336em;font-weight:bold}
		.st13 {fill:#ffffff;stroke:none;stroke-linecap:butt}
		.st14 {stroke:#000000;stroke-linecap:round;stroke-linejoin:round;stroke-width:2.25}
		.st15 {fill:none;fill-rule:evenodd;font-size:12px;overflow:visible;stroke-linecap:square;stroke-miterlimit:3}
	]]>
	</style>

	<defs id="Markers">
		<g id="lend13">
			<path d="M 3 1 L 0 0 L 3 -1 L 3 1 " style="stroke:none"/>
		</g>
		<marker id="mrkr13-9" class="st5" refX="-25.5" orient="auto" markerUnits="strokeWidth" overflow="visible">
			<use xlink:href="#lend13" transform="scale(-8.5000000000001,-8.5000000000001) "/>
		</marker>
	</defs>
	<g>
		<title>Page-1</title>
		<g id="shape1405-1" transform="translate(255.993,-453.527)">
			<title>Circle.1412</title>
			<path d="M0 523.25 A6.56444 6.56444 0 0 1 13.13 523.25 A6.56444 6.56444 0 1 1 0 523.25 Z" class="st1"/>
		</g>
		<g id="shape1407-3" transform="translate(156.631,-475.011)">
			<title>Horizontal.1012</title>
			<desc>28mm</desc>
			<path d="M0 498.69 L0 525.82 L0 498.69 ZM198.43 498.69 L198.43 518.06 L198.43 498.69 Z" class="st2"/>
			<path d="M0 498.69 L0 525.82 L0 498.69" class="st3"/>
			<path d="M198.43 498.69 L198.43 518.06 L198.43 498.69" class="st3"/>
			<path d="M99.21 506.69 L6.12 506.69" class="st4"/>
			<path d="M99.21 506.69 L192.31 506.69" class="st4"/>
			<rect x="88.7673" y="495.092" width="20.8905" height="9.59985" class="st6"/>
			<text x="88.77" y="502.29" class="st7">28mm</text>		</g>
		<g id="shape1411-16" transform="translate(-495.524,523.367) rotate(-90)">
			<title>Vertical.1015</title>
			<desc>62mm</desc>
			<path d="M0 501.98 L0 525.82 L0 501.98 ZM453.54 501.98 L453.54 548.5 L453.54 501.98 Z" class="st2"/>
			<path d="M0 501.98 L0 525.82 L0 501.98" class="st3"/>
			<path d="M453.54 501.98 L453.54 548.5 L453.54 501.98" class="st3"/>
			<path d="M226.77 509.98 L6.12 509.98" class="st4"/>
			<path d="M226.77 509.98 L447.42 509.98" class="st4"/>
			<rect x="216.326" y="498.374" width="20.8905" height="9.59985" class="st6"/>
			<text x="216.33" y="505.57" class="st7">62mm</text>		</g>
		<g id="group1423-28" transform="translate(402.148,-318.359)">
			<title>Sheet.1423</title>
			<g id="group1424-29">
				<title>Sheet.1424</title>
				<g id="shape1425-30" transform="translate(0,-4.47576)">
					<title>Sheet.1425</title>
					<desc>A</desc>
					<rect x="0" y="515.645" width="13.2348" height="14.1732" class="st8"/>
					<text x="4" y="529.34" class="st9"><tspan class="st10">A</tspan></text>				</g>
			</g>
			<g id="group1426-34" transform="translate(2.14166,-0.0824008)">
				<title>Sheet.1426</title>
				<g id="shape1427-35" transform="translate(7.92226E-06,-0.0824008)">
					<title>Sheet.1427</title>
					<desc>1</desc>
					<rect x="0" y="515.645" width="85.0394" height="14.1732" class="st11"/>
					<text x="40.24" y="525.73" class="st12">1</text>				</g>
			</g>
		</g>
		<g id="shape1469-38" transform="translate(120.825,-495.524)">
			<title>Horizontal</title>
			<desc>44mm</desc>
			<path d="M0 501.98 L0 525.82 L0 501.98 ZM269.29 501.98 L269.29 539.99 L269.29 501.98 Z" class="st2"/>
			<path d="M0 501.98 L0 525.82 L0 501.98" class="st3"/>
			<path d="M269.29 501.98 L269.29 539.99 L269.29 501.98" class="st3"/>
			<path d="M134.65 509.98 L6.12 509.98" class="st4"/>
			<path d="M134.65 509.98 L263.17 509.98" class="st4"/>
			<rect x="124.2" y="498.374" width="20.8905" height="9.59985" class="st13"/>
			<text x="124.2" y="505.57" class="st7">44mm</text>		</g>
		<g id="shape1470-50" transform="translate(220.037,-460.091)">
			<title>Horizontal.1470</title>
			<desc>10mm</desc>
			<path d="M0 498.69 L0 525.82 L0 498.69 ZM70.87 498.69 L70.87 510.9 L70.87 498.69 Z" class="st2"/>
			<path d="M0 498.69 L0 525.82 L0 498.69" class="st3"/>
			<path d="M70.87 498.69 L70.87 510.9 L70.87 498.69" class="st3"/>
			<path d="M35.43 506.69 L6.12 506.69" class="st4"/>
			<path d="M35.43 506.69 L64.75 506.69" class="st4"/>
			<rect x="24.9878" y="495.092" width="20.8905" height="9.59985" class="st13"/>
			<text x="24.99" y="502.29" class="st7">10mm</text>		</g>
		<g id="shape1471-62" transform="translate(-465.686,424.154) rotate(-90)">
			<title>Vertical.1471</title>
			<desc>50mm</desc>
			<path d="M0 501.98 L0 525.82 L0 501.98 ZM354.33 501.98 L354.33 554.16 L354.33 501.98 Z" class="st2"/>
			<path d="M0 501.98 L0 525.82 L0 501.98" class="st3"/>
			<path d="M354.33 501.98 L354.33 554.16 L354.33 501.98" class="st3"/>
			<path d="M177.17 509.98 L6.12 509.98" class="st4"/>
			<path d="M177.17 509.98 L348.21 509.98" class="st4"/>
			<rect x="166.72" y="498.374" width="20.8905" height="9.59985" class="st6"/>
			<text x="166.72" y="505.57" class="st7">50mm</text>		</g>
		<g id="group1508-74" transform="translate(120.825,-7.19226)">
			<title>Sheet.1508</title>
			<g id="shape1474-75" transform="translate(7.99361E-14,-452.899)">
				<title>Sheet.1474</title>
				<path d="M0 529.82 L269.29 529.82" class="st14"/>
			</g>
			<g id="shape1475-78" transform="translate(171.367,1059.64) rotate(180)">
				<title>Sheet.1475</title>
				<path d="M0 529.82 L73.44 529.82" class="st14"/>
			</g>
			<g id="shape1476-81" transform="translate(-431.894,529.818) rotate(-90)">
				<title>Sheet.1476</title>
				<path d="M0 529.82 L97.92 529.82" class="st14"/>
			</g>
			<g id="shape1477-84" transform="translate(97.9241,961.712) rotate(180)">
				<title>Sheet.1477</title>
				<path d="M0 529.82 L61.2 529.82" class="st14"/>
			</g>
			<g id="shape1478-87" transform="translate(-493.842,431.894) rotate(-90)">
				<title>Sheet.1478</title>
				<path d="M0 529.82 L48.96 529.82" class="st14"/>
			</g>
			<g id="shape1479-90" transform="translate(36.7215,-146.886)">
				<title>Sheet.1479</title>
				<path d="M0 529.82 L61.2 529.82" class="st14"/>
			</g>
			<g id="shape1480-93" transform="translate(-431.894,382.932) rotate(-90)">
				<title>Sheet.1480</title>
				<path d="M0 529.82 L48.96 529.82" class="st14"/>
			</g>
			<g id="shape1481-96" transform="translate(97.9241,863.788) rotate(180)">
				<title>Sheet.1481</title>
				<path d="M0 529.82 L61.2 529.82" class="st14"/>
			</g>
			<g id="shape1482-99" transform="translate(-493.842,333.97) rotate(-90)">
				<title>Sheet.1482</title>
				<path d="M0 529.82 L48.96 529.82" class="st14"/>
			</g>
			<g id="shape1483-102" transform="translate(36.7215,-244.81)">
				<title>Sheet.1483</title>
				<path d="M0 529.82 L61.2 529.82" class="st14"/>
			</g>
			<g id="shape1484-105" transform="translate(-431.894,285.008) rotate(-90)">
				<title>Sheet.1484</title>
				<path d="M0 529.82 L48.96 529.82" class="st14"/>
			</g>
			<g id="shape1485-108" transform="translate(97.9241,765.864) rotate(180)">
				<title>Sheet.1485</title>
				<path d="M0 529.82 L61.2 529.82" class="st14"/>
			</g>
			<g id="shape1486-111" transform="translate(-493.842,236.046) rotate(-90)">
				<title>Sheet.1486</title>
				<path d="M0 529.82 L48.96 529.82" class="st14"/>
			</g>
			<g id="shape1487-114" transform="translate(36.7215,-342.734)">
				<title>Sheet.1487</title>
				<path d="M0 529.82 L61.2 529.82" class="st14"/>
			</g>
			<g id="shape1488-117" transform="translate(-431.894,187.084) rotate(-90)">
				<title>Sheet.1488</title>
				<path d="M0 529.82 L48.96 529.82" class="st14"/>
			</g>
			<g id="shape1489-120" transform="translate(97.9241,667.939) rotate(180)">
				<title>Sheet.1489</title>
				<path d="M0 529.82 L97.92 529.82" class="st14"/>
			</g>
			<g id="shape1490-123" transform="translate(-529.818,138.121) rotate(-90)">
				<title>Sheet.1490</title>
				<path d="M0 529.82 L61.2 529.82" class="st14"/>
			</g>
			<g id="shape1491-126" transform="translate(-358.451,529.818) rotate(-90)">
				<title>Sheet.1491</title>
				<path d="M0 529.82 L97.92 529.82" class="st14"/>
			</g>
			<g id="shape1492-129" transform="translate(171.367,-97.9241)">
				<title>Sheet.1492</title>
				<path d="M0 529.82 L61.2 529.82" class="st14"/>
			</g>
			<g id="shape1493-132" transform="translate(-296.502,431.894) rotate(-90)">
				<title>Sheet.1493</title>
				<path d="M0 529.82 L48.96 529.82" class="st14"/>
			</g>
			<g id="shape1494-135" transform="translate(232.57,912.75) rotate(180)">
				<title>Sheet.1494</title>
				<path d="M0 529.82 L61.2 529.82" class="st14"/>
			</g>
			<g id="shape1495-138" transform="translate(-358.451,382.932) rotate(-90)">
				<title>Sheet.1495</title>
				<path d="M0 529.82 L48.96 529.82" class="st14"/>
			</g>
			<g id="shape1496-141" transform="translate(171.367,-195.848)">
				<title>Sheet.1496</title>
				<path d="M0 529.82 L61.2 529.82" class="st14"/>
			</g>
			<g id="shape1497-144" transform="translate(-296.502,333.97) rotate(-90)">
				<title>Sheet.1497</title>
				<path d="M0 529.82 L48.96 529.82" class="st14"/>
			</g>
			<g id="shape1498-147" transform="translate(232.57,814.826) rotate(180)">
				<title>Sheet.1498</title>
				<path d="M0 529.82 L61.2 529.82" class="st14"/>
			</g>
			<g id="shape1499-150" transform="translate(-358.451,285.008) rotate(-90)">
				<title>Sheet.1499</title>
				<path d="M0 529.82 L48.96 529.82" class="st14"/>
			</g>
			<g id="shape1500-153" transform="translate(171.367,-293.772)">
				<title>Sheet.1500</title>
				<path d="M0 529.82 L61.2 529.82" class="st14"/>
			</g>
			<g id="shape1501-156" transform="translate(-296.502,236.046) rotate(-90)">
				<title>Sheet.1501</title>
				<path d="M0 529.82 L48.96 529.82" class="st14"/>
			</g>
			<g id="shape1502-159" transform="translate(232.57,716.902) rotate(180)">
				<title>Sheet.1502</title>
				<path d="M0 529.82 L61.2 529.82" class="st14"/>
			</g>
			<g id="shape1503-162" transform="translate(-358.451,187.084) rotate(-90)">
				<title>Sheet.1503</title>
				<path d="M0 529.82 L48.96 529.82" class="st14"/>
			</g>
			<g id="shape1504-165" transform="translate(171.367,-391.697)">
				<title>Sheet.1504</title>
				<path d="M0 529.82 L97.92 529.82" class="st14"/>
			</g>
			<g id="shape1505-168" transform="translate(-260.527,138.121) rotate(-90)">
				<title>Sheet.1505</title>
				<path d="M0 529.82 L61.2 529.82" class="st14"/>
			</g>
		</g>
	</g>
</svg>
