<?xml version="1.0" encoding="UTF-8" standalone="no"?>
<!DOCTYPE svg PUBLIC "-//W3C//DTD SVG 1.1//EN" "http://www.w3.org/Graphics/SVG/1.1/DTD/svg11.dtd">
<!-- Generated by Microsoft Visio, SVG Export PD003A_Detail.svg Page-1 -->
<svg xmlns="http://www.w3.org/2000/svg" xmlns:xlink="http://www.w3.org/1999/xlink" xmlns:ev="http://www.w3.org/2001/xml-events"
		width="5.32716in" height="4.04766in" viewBox="0 0 383.556 291.432" xml:space="preserve" color-interpolation-filters="sRGB"
		class="st14">
	<title>PD003A</title>

	<style type="text/css">
	<![CDATA[
		.st1 {fill:#ffffff;stroke:#ff0000;stroke-linecap:round;stroke-linejoin:round;stroke-width:2.25}
		.st2 {fill:#ffffff}
		.st3 {stroke:#000000;stroke-linecap:round;stroke-linejoin:round;stroke-width:0.24}
		.st4 {marker-end:url(#mrkr13-9);stroke:#000000;stroke-linecap:round;stroke-linejoin:round;stroke-width:0.24}
		.st5 {fill:#000000;fill-opacity:1;stroke:#000000;stroke-opacity:1;stroke-width:0.11764705882353}
		.st6 {fill:#ffffff;stroke:none;stroke-linecap:butt;stroke-width:7.2}
		.st7 {fill:#000000;font-family:Calibri;font-size:0.666664em}
		.st8 {fill:none;stroke:none;stroke-linecap:round;stroke-linejoin:round;stroke-width:0.75}
		.st9 {fill:#ff0000;font-family:Arial Narrow;font-size:0.811964em;font-weight:bold}
		.st10 {baseline-shift:33.35%;font-size:0.667em}
		.st11 {fill:none;stroke:#ff0000;stroke-linecap:round;stroke-linejoin:round;stroke-width:0.75}
		.st12 {fill:#ff0000;font-family:Arial Narrow;font-size:0.833336em;font-weight:bold}
		.st13 {fill:none;stroke:#000000;stroke-linecap:round;stroke-linejoin:round;stroke-width:2.25}
		.st14 {fill:none;fill-rule:evenodd;font-size:12px;overflow:visible;stroke-linecap:square;stroke-miterlimit:3}
	]]>
	</style>

	<defs id="Markers">
		<g id="lend13">
			<path d="M 3 1 L 0 0 L 3 -1 L 3 1 " style="stroke:none"/>
		</g>
		<marker id="mrkr13-9" class="st5" refX="-25.5" orient="auto" markerUnits="strokeWidth" overflow="visible">
			<use xlink:href="#lend13" transform="scale(-8.5000000000001,-8.5000000000001) "/>
		</marker>
	</defs>
	<g>
		<title>Page-1</title>
		<g id="shape1405-1" transform="translate(143.768,-1.125)">
			<title>Circle.1412</title>
			<path d="M0 284.87 A6.56444 6.56444 0 0 1 13.13 284.87 A6.56444 6.56444 0 1 1 0 284.87 Z" class="st1"/>
		</g>
		<g id="shape1407-3" transform="translate(150.333,-253.856)">
			<title>Horizontal.1012</title>
			<desc>16mm</desc>
			<path d="M0 260.31 L0 287.43 L0 260.31 ZM226.77 260.31 L226.77 292.75 L226.77 260.31 Z" class="st2"/>
			<path d="M0 260.31 L0 287.43 L0 260.31" class="st3"/>
			<path d="M226.77 260.31 L226.77 292.75 L226.77 260.31" class="st3"/>
			<path d="M113.39 268.31 L6.12 268.31" class="st4"/>
			<path d="M113.39 268.31 L220.65 268.31" class="st4"/>
			<rect x="102.941" y="256.705" width="20.8905" height="9.59985" class="st6"/>
			<text x="102.94" y="263.91" class="st7">16mm</text>		</g>
		<g id="shape1411-16" transform="translate(-257.138,283.839) rotate(-90)">
			<title>Vertical.1015</title>
			<desc>16mm</desc>
			<path d="M0 263.59 L0 287.43 L0 263.59 ZM226.77 263.59 L226.77 304.26 L226.77 263.59 Z" class="st2"/>
			<path d="M0 263.59 L0 287.43 L0 263.59" class="st3"/>
			<path d="M226.77 263.59 L226.77 304.26 L226.77 263.59" class="st3"/>
			<path d="M113.39 271.59 L6.12 271.59" class="st4"/>
			<path d="M113.39 271.59 L220.65 271.59" class="st4"/>
			<rect x="102.941" y="259.988" width="20.8905" height="9.59985" class="st6"/>
			<text x="102.94" y="267.19" class="st7">16mm</text>		</g>
		<g id="group1423-28" transform="translate(219.057,-106.902)">
			<title>Sheet.1423</title>
			<g id="group1424-29">
				<title>Sheet.1424</title>
				<g id="shape1425-30" transform="translate(0,-4.47576)">
					<title>Sheet.1425</title>
					<desc>A</desc>
					<rect x="0" y="277.259" width="13.2348" height="14.1732" class="st8"/>
					<text x="4" y="290.95" class="st9"><tspan class="st10">A</tspan></text>				</g>
			</g>
			<g id="group1426-34" transform="translate(2.14166,-0.0824008)">
				<title>Sheet.1426</title>
				<g id="shape1427-35" transform="translate(7.92226E-06,-0.0824008)">
					<title>Sheet.1427</title>
					<desc>1</desc>
					<rect x="0" y="277.259" width="85.0394" height="14.1732" class="st11"/>
					<text x="40.24" y="287.35" class="st12">1</text>				</g>
			</g>
		</g>
		<g id="shape1428-38" transform="translate(150.333,-7.68944)">
			<title>Square</title>
			<rect x="0" y="64.6602" width="226.772" height="226.772" class="st13"/>
		</g>
	</g>
</svg>
