<?xml version="1.0" encoding="UTF-8" standalone="no"?>
<!DOCTYPE svg PUBLIC "-//W3C//DTD SVG 1.1//EN" "http://www.w3.org/Graphics/SVG/1.1/DTD/svg11.dtd">
<!-- Generated by Microsoft Visio, SVG Export PD005A.svg Page-1 -->
<svg xmlns="http://www.w3.org/2000/svg" xmlns:xlink="http://www.w3.org/1999/xlink" xmlns:ev="http://www.w3.org/2001/xml-events"
		width="3.77141in" height="6.32152in" viewBox="0 0 271.541 455.149" xml:space="preserve" color-interpolation-filters="sRGB"
		class="st2">
	<title>PD005A</title>

	<style type="text/css">
	<![CDATA[
		.st1 {stroke:#000000;stroke-linecap:round;stroke-linejoin:round;stroke-width:2.25}
		.st2 {fill:none;fill-rule:evenodd;font-size:12px;overflow:visible;stroke-linecap:square;stroke-miterlimit:3}
	]]>
	</style>

	<g>
		<title>Page-1</title>
		<g id="group1508-1" transform="translate(1.125,-1.125)">
			<title>Sheet.1508</title>
			<g id="shape1474-2" transform="translate(7.99361E-14,-452.899)">
				<title>Sheet.1474</title>
				<path d="M0 455.15 L269.29 455.15" class="st1"/>
			</g>
			<g id="shape1475-5" transform="translate(171.367,910.298) rotate(180)">
				<title>Sheet.1475</title>
				<path d="M0 455.15 L73.44 455.15" class="st1"/>
			</g>
			<g id="shape1476-8" transform="translate(-357.225,455.149) rotate(-90)">
				<title>Sheet.1476</title>
				<path d="M0 455.15 L97.92 455.15" class="st1"/>
			</g>
			<g id="shape1477-11" transform="translate(97.9241,812.374) rotate(180)">
				<title>Sheet.1477</title>
				<path d="M0 455.15 L61.2 455.15" class="st1"/>
			</g>
			<g id="shape1478-14" transform="translate(-419.173,357.225) rotate(-90)">
				<title>Sheet.1478</title>
				<path d="M0 455.15 L48.96 455.15" class="st1"/>
			</g>
			<g id="shape1479-17" transform="translate(36.7215,-146.886)">
				<title>Sheet.1479</title>
				<path d="M0 455.15 L61.2 455.15" class="st1"/>
			</g>
			<g id="shape1480-20" transform="translate(-357.225,308.263) rotate(-90)">
				<title>Sheet.1480</title>
				<path d="M0 455.15 L48.96 455.15" class="st1"/>
			</g>
			<g id="shape1481-23" transform="translate(97.9241,714.45) rotate(180)">
				<title>Sheet.1481</title>
				<path d="M0 455.15 L61.2 455.15" class="st1"/>
			</g>
			<g id="shape1482-26" transform="translate(-419.173,259.301) rotate(-90)">
				<title>Sheet.1482</title>
				<path d="M0 455.15 L48.96 455.15" class="st1"/>
			</g>
			<g id="shape1483-29" transform="translate(36.7215,-244.81)">
				<title>Sheet.1483</title>
				<path d="M0 455.15 L61.2 455.15" class="st1"/>
			</g>
			<g id="shape1484-32" transform="translate(-357.225,210.339) rotate(-90)">
				<title>Sheet.1484</title>
				<path d="M0 455.15 L48.96 455.15" class="st1"/>
			</g>
			<g id="shape1485-35" transform="translate(97.9241,616.526) rotate(180)">
				<title>Sheet.1485</title>
				<path d="M0 455.15 L61.2 455.15" class="st1"/>
			</g>
			<g id="shape1486-38" transform="translate(-419.173,161.377) rotate(-90)">
				<title>Sheet.1486</title>
				<path d="M0 455.15 L48.96 455.15" class="st1"/>
			</g>
			<g id="shape1487-41" transform="translate(36.7215,-342.734)">
				<title>Sheet.1487</title>
				<path d="M0 455.15 L61.2 455.15" class="st1"/>
			</g>
			<g id="shape1488-44" transform="translate(-357.225,112.415) rotate(-90)">
				<title>Sheet.1488</title>
				<path d="M0 455.15 L48.96 455.15" class="st1"/>
			</g>
			<g id="shape1489-47" transform="translate(97.9241,518.602) rotate(180)">
				<title>Sheet.1489</title>
				<path d="M0 455.15 L97.92 455.15" class="st1"/>
			</g>
			<g id="shape1490-50" transform="translate(-455.149,63.4526) rotate(-90)">
				<title>Sheet.1490</title>
				<path d="M0 455.15 L61.2 455.15" class="st1"/>
			</g>
			<g id="shape1491-53" transform="translate(-283.782,455.149) rotate(-90)">
				<title>Sheet.1491</title>
				<path d="M0 455.15 L97.92 455.15" class="st1"/>
			</g>
			<g id="shape1492-56" transform="translate(171.367,-97.9241)">
				<title>Sheet.1492</title>
				<path d="M0 455.15 L61.2 455.15" class="st1"/>
			</g>
			<g id="shape1493-59" transform="translate(-221.833,357.225) rotate(-90)">
				<title>Sheet.1493</title>
				<path d="M0 455.15 L48.96 455.15" class="st1"/>
			</g>
			<g id="shape1494-62" transform="translate(232.57,763.412) rotate(180)">
				<title>Sheet.1494</title>
				<path d="M0 455.15 L61.2 455.15" class="st1"/>
			</g>
			<g id="shape1495-65" transform="translate(-283.782,308.263) rotate(-90)">
				<title>Sheet.1495</title>
				<path d="M0 455.15 L48.96 455.15" class="st1"/>
			</g>
			<g id="shape1496-68" transform="translate(171.367,-195.848)">
				<title>Sheet.1496</title>
				<path d="M0 455.15 L61.2 455.15" class="st1"/>
			</g>
			<g id="shape1497-71" transform="translate(-221.833,259.301) rotate(-90)">
				<title>Sheet.1497</title>
				<path d="M0 455.15 L48.96 455.15" class="st1"/>
			</g>
			<g id="shape1498-74" transform="translate(232.57,665.488) rotate(180)">
				<title>Sheet.1498</title>
				<path d="M0 455.15 L61.2 455.15" class="st1"/>
			</g>
			<g id="shape1499-77" transform="translate(-283.782,210.339) rotate(-90)">
				<title>Sheet.1499</title>
				<path d="M0 455.15 L48.96 455.15" class="st1"/>
			</g>
			<g id="shape1500-80" transform="translate(171.367,-293.772)">
				<title>Sheet.1500</title>
				<path d="M0 455.15 L61.2 455.15" class="st1"/>
			</g>
			<g id="shape1501-83" transform="translate(-221.833,161.377) rotate(-90)">
				<title>Sheet.1501</title>
				<path d="M0 455.15 L48.96 455.15" class="st1"/>
			</g>
			<g id="shape1502-86" transform="translate(232.57,567.564) rotate(180)">
				<title>Sheet.1502</title>
				<path d="M0 455.15 L61.2 455.15" class="st1"/>
			</g>
			<g id="shape1503-89" transform="translate(-283.782,112.415) rotate(-90)">
				<title>Sheet.1503</title>
				<path d="M0 455.15 L48.96 455.15" class="st1"/>
			</g>
			<g id="shape1504-92" transform="translate(171.367,-391.697)">
				<title>Sheet.1504</title>
				<path d="M0 455.15 L97.92 455.15" class="st1"/>
			</g>
			<g id="shape1505-95" transform="translate(-185.858,63.4526) rotate(-90)">
				<title>Sheet.1505</title>
				<path d="M0 455.15 L61.2 455.15" class="st1"/>
			</g>
		</g>
	</g>
</svg>
