<?xml version="1.0" encoding="UTF-8" standalone="no"?>
<!DOCTYPE svg PUBLIC "-//W3C//DTD SVG 1.1//EN" "http://www.w3.org/Graphics/SVG/1.1/DTD/svg11.dtd">
<!-- Generated by Microsoft Visio, SVG Export PD009A.svg Page-1 -->
<svg xmlns="http://www.w3.org/2000/svg" xmlns:xlink="http://www.w3.org/1999/xlink" xmlns:ev="http://www.w3.org/2001/xml-events"
		width="6.92101in" height="1.99975in" viewBox="0 0 498.313 143.982" xml:space="preserve" color-interpolation-filters="sRGB"
		class="st4">
	<title>PD009A</title>

	<style type="text/css">
	<![CDATA[
		.st1 {fill:none;stroke:#000000;stroke-linecap:round;stroke-linejoin:round;stroke-width:2.25}
		.st2 {fill:none}
		.st3 {stroke:#000000;stroke-linecap:round;stroke-linejoin:round;stroke-width:2.25}
		.st4 {fill:none;fill-rule:evenodd;font-size:12px;overflow:visible;stroke-linecap:square;stroke-miterlimit:3}
	]]>
	</style>

	<g>
		<title>Page-1</title>
		<g id="group1470-1" transform="translate(1.125,-1.125)">
			<title>STPD009.114</title>
			<g id="shape1471-2" transform="translate(-2.43006E-12,-89.7392)">
				<title>Sheet.1471</title>
				<path d="M0.5 91.99 L326.51 130.31 L326.02 143.98 L0 105.66 L0.5 91.99 L0.5 91.99 Z" class="st1"/>
			</g>
			<g id="shape1472-4">
				<title>Sheet.1472</title>
				<path d="M326.02 54.24 L218.65 143.98 L0 15.92 L0 15.92 L326.02 54.24 Z" class="st2"/>
				<path d="M326.02 54.24 L218.65 143.98 L0 15.92 L0 15.92" class="st3"/>
			</g>
			<g id="shape1473-7" transform="translate(337.38,193.713) rotate(-173.308)">
				<title>Sheet.1473</title>
				<path d="M0 143.98 L28.09 143.98" class="st3"/>
			</g>
			<g id="shape1474-10" transform="translate(353.798,-13.6796)">
				<title>Sheet.1474</title>
				<path d="M0 89.27 L142.27 89.27 L142.27 143.98 L0 89.27 L0 89.27 Z" class="st1"/>
			</g>
			<g id="shape1475-12" transform="translate(413.685,189.005) rotate(161.619)">
				<title>Sheet.1475</title>
				<path d="M0 143.98 L15.84 143.98" class="st3"/>
			</g>
			<g id="shape1476-15" transform="translate(210.597,37.8322) rotate(-82.2033)">
				<title>Sheet.1476</title>
				<path d="M0 143.98 L13.69 143.98" class="st3"/>
			</g>
			<g id="shape1477-18" transform="translate(307.845,-79.2717) rotate(-18.3813)">
				<title>Sheet.1477</title>
				<path d="M0 143.98 L15.84 143.98" class="st3"/>
			</g>
			<g id="shape1478-21" transform="translate(289.802,173.083) rotate(-146.971)">
				<title>Sheet.1478</title>
				<path d="M0 143.98 L15.72 143.98" class="st3"/>
			</g>
			<g id="shape1479-24" transform="translate(497.757,63.3349) rotate(97.7967)">
				<title>Sheet.1479</title>
				<path d="M0 143.98 L6.84 143.98" class="st3"/>
			</g>
			<g id="shape1480-27" transform="translate(496.828,70.1158) rotate(97.7967)">
				<title>Sheet.1480</title>
				<path d="M0 143.98 L6.84 143.98" class="st3"/>
			</g>
			<g id="shape1481-30" transform="translate(337.027,186.647) rotate(-172.786)">
				<title>Sheet.1481</title>
				<path d="M0 143.98 L0 143.98" class="st3"/>
			</g>
			<g id="shape1482-33" transform="translate(338.345,187.504) rotate(-172.786)">
				<title>Sheet.1482</title>
				<path d="M0 143.98 L1.43 143.98" class="st3"/>
			</g>
			<g id="shape1483-36" transform="translate(339.662,188.36) rotate(-172.786)">
				<title>Sheet.1483</title>
				<path d="M0 143.98 L2.85 143.98" class="st3"/>
			</g>
			<g id="shape1484-39" transform="translate(340.98,189.217) rotate(-172.786)">
				<title>Sheet.1484</title>
				<path d="M0 143.98 L4.27 143.98" class="st3"/>
			</g>
			<g id="shape1485-42" transform="translate(342.297,190.074) rotate(-172.786)">
				<title>Sheet.1485</title>
				<path d="M0 143.98 L5.69 143.98" class="st3"/>
			</g>
			<g id="shape1486-45" transform="translate(343.615,190.93) rotate(-172.786)">
				<title>Sheet.1486</title>
				<path d="M0 143.98 L7.11 143.98" class="st3"/>
			</g>
			<g id="shape1487-48" transform="translate(344.933,191.787) rotate(-172.786)">
				<title>Sheet.1487</title>
				<path d="M0 143.98 L8.53 143.98" class="st3"/>
			</g>
			<g id="shape1488-51" transform="translate(346.25,192.644) rotate(-172.786)">
				<title>Sheet.1488</title>
				<path d="M0 143.98 L9.96 143.98" class="st3"/>
			</g>
			<g id="shape1489-54" transform="translate(347.568,193.5) rotate(-172.786)">
				<title>Sheet.1489</title>
				<path d="M0 143.98 L11.38 143.98" class="st3"/>
			</g>
			<g id="shape1490-57" transform="translate(348.886,194.357) rotate(-172.786)">
				<title>Sheet.1490</title>
				<path d="M0 143.98 L12.8 143.98" class="st3"/>
			</g>
			<g id="shape1491-60" transform="translate(350.196,195.213) rotate(-172.786)">
				<title>Sheet.1491</title>
				<path d="M0 143.98 L14.21 143.98" class="st3"/>
			</g>
			<g id="shape1492-63" transform="translate(348.693,195.712) rotate(-172.786)">
				<title>Sheet.1492</title>
				<path d="M0 143.98 L12.79 143.98" class="st3"/>
			</g>
			<g id="shape1493-66" transform="translate(347.19,196.212) rotate(-172.786)">
				<title>Sheet.1493</title>
				<path d="M0 143.98 L11.37 143.98" class="st3"/>
			</g>
			<g id="shape1494-69" transform="translate(345.686,196.711) rotate(-172.786)">
				<title>Sheet.1494</title>
				<path d="M0 143.98 L9.95 143.98" class="st3"/>
			</g>
			<g id="shape1495-72" transform="translate(344.183,197.211) rotate(-172.786)">
				<title>Sheet.1495</title>
				<path d="M0 143.98 L8.53 143.98" class="st3"/>
			</g>
			<g id="shape1496-75" transform="translate(342.68,197.71) rotate(-172.786)">
				<title>Sheet.1496</title>
				<path d="M0 143.98 L7.11 143.98" class="st3"/>
			</g>
			<g id="shape1497-78" transform="translate(341.176,198.21) rotate(-172.786)">
				<title>Sheet.1497</title>
				<path d="M0 143.98 L5.68 143.98" class="st3"/>
			</g>
			<g id="shape1498-81" transform="translate(339.673,198.709) rotate(-172.786)">
				<title>Sheet.1498</title>
				<path d="M0 143.98 L4.26 143.98" class="st3"/>
			</g>
			<g id="shape1499-84" transform="translate(338.17,199.209) rotate(-172.786)">
				<title>Sheet.1499</title>
				<path d="M0 143.98 L2.84 143.98" class="st3"/>
			</g>
			<g id="shape1500-87" transform="translate(336.666,199.709) rotate(-172.786)">
				<title>Sheet.1500</title>
				<path d="M0 143.98 L1.42 143.98" class="st3"/>
			</g>
		</g>
	</g>
</svg>
