<?xml version="1.0" encoding="UTF-8" standalone="no"?>
<!DOCTYPE svg PUBLIC "-//W3C//DTD SVG 1.1//EN" "http://www.w3.org/Graphics/SVG/1.1/DTD/svg11.dtd">
<!-- Generated by Microsoft Visio, SVG Export PD008A.svg Page-1 -->
<svg xmlns="http://www.w3.org/2000/svg" xmlns:xlink="http://www.w3.org/1999/xlink" xmlns:ev="http://www.w3.org/2001/xml-events"
		width="4.93265in" height="4.77965in" viewBox="0 0 355.151 344.135" xml:space="preserve" color-interpolation-filters="sRGB"
		class="st4">
	<title>PD008A</title>

	<style type="text/css">
	<![CDATA[
		.st1 {fill:none;stroke:#000000;stroke-linecap:round;stroke-linejoin:round;stroke-width:2.25}
		.st2 {fill:none}
		.st3 {stroke:#000000;stroke-linecap:round;stroke-linejoin:round;stroke-width:2.25}
		.st4 {fill:none;fill-rule:evenodd;font-size:12px;overflow:visible;stroke-linecap:square;stroke-miterlimit:3}
	]]>
	</style>

	<g>
		<title>Page-1</title>
		<g id="group1472-1" transform="translate(1.125,-1.125)">
			<title>STPD008.81</title>
			<g id="shape1473-2" transform="translate(1.76659E-12,-287.725)">
				<title>Sheet.1473</title>
				<path d="M0 344.13 L135.4 344.13 L135.4 289.97 L0 289.97 L0 344.13 L0 344.13 Z" class="st1"/>
			</g>
			<g id="shape1474-4" transform="translate(1.76659E-12,-172.635)">
				<title>Sheet.1474</title>
				<path d="M0 229.04 L67.7 344.13 L135.4 229.04 L135.4 229.04 L0 229.04 Z" class="st2"/>
				<path d="M0 229.04 L67.7 344.13 L135.4 229.04 L135.4 229.04" class="st3"/>
			</g>
			<g id="shape1475-7" transform="translate(411.835,171.5) rotate(90)">
				<title>Sheet.1475</title>
				<path d="M0 344.13 L13.54 344.13" class="st3"/>
			</g>
			<g id="shape1476-10" transform="translate(41.4809,-92.3439)">
				<title>Sheet.1476</title>
				<path d="M0 303.51 L311.42 330.59 L311.42 344.13 L0 317.05 L0 303.51 L0 303.51 Z" class="st1"/>
			</g>
			<g id="shape1477-12" transform="translate(41.4809,1.76215E-12)">
				<title>Sheet.1477</title>
				<path d="M311.42 251.79 L212.39 344.13 L0 224.71 L0 224.71 L311.42 251.79 Z" class="st2"/>
				<path d="M311.42 251.79 L212.39 344.13 L0 224.71 L0 224.71" class="st3"/>
			</g>
			<g id="shape1478-15" transform="translate(60.93,-145.555)">
				<title>Sheet.1478</title>
				<path d="M13.54 330.59 L0 330.59 L6.77 344.13 L13.54 330.59 L13.54 330.59 Z" class="st1"/>
			</g>
			<g id="shape1479-17" transform="translate(-240.104,352.482) rotate(-116.565)">
				<title>Sheet.1479</title>
				<path d="M0 344.13 L15.14 344.13" class="st3"/>
			</g>
			<g id="shape1480-20" transform="translate(60.93,-159.095)">
				<title>Sheet.1480</title>
				<path d="M0 344.13 L13.54 344.13" class="st3"/>
			</g>
			<g id="shape1481-23" transform="translate(382.274,338.942) rotate(116.565)">
				<title>Sheet.1481</title>
				<path d="M0 344.13 L15.14 344.13" class="st3"/>
			</g>
			<g id="shape1482-26" transform="translate(368.734,31.1381) rotate(63.4349)">
				<title>Sheet.1482</title>
				<path d="M0 344.13 L15.14 344.13" class="st3"/>
			</g>
			<g id="shape1483-29" transform="translate(-240.104,44.6781) rotate(-63.4349)">
				<title>Sheet.1483</title>
				<path d="M0 344.13 L15.14 344.13" class="st3"/>
			</g>
			<g id="shape1484-32" transform="translate(74.47,529.175) rotate(180)">
				<title>Sheet.1484</title>
				<path d="M0 344.13 L6.77 344.13" class="st3"/>
			</g>
			<g id="shape1485-35" transform="translate(67.7,529.175) rotate(180)">
				<title>Sheet.1485</title>
				<path d="M0 344.13 L6.77 344.13" class="st3"/>
			</g>
			<g id="shape1486-38" transform="translate(-270.342,186.394) rotate(-90)">
				<title>Sheet.1486</title>
				<path d="M0 344.13 L1.35 344.13" class="st3"/>
			</g>
			<g id="shape1487-41" transform="translate(-271.019,187.748) rotate(-90)">
				<title>Sheet.1487</title>
				<path d="M0 344.13 L2.71 344.13" class="st3"/>
			</g>
			<g id="shape1488-44" transform="translate(-271.696,189.102) rotate(-90)">
				<title>Sheet.1488</title>
				<path d="M0 344.13 L4.06 344.13" class="st3"/>
			</g>
			<g id="shape1489-47" transform="translate(-272.373,190.456) rotate(-90)">
				<title>Sheet.1489</title>
				<path d="M0 344.13 L5.42 344.13" class="st3"/>
			</g>
			<g id="shape1490-50" transform="translate(-273.05,191.81) rotate(-90)">
				<title>Sheet.1490</title>
				<path d="M0 344.13 L6.77 344.13" class="st3"/>
			</g>
			<g id="shape1491-53" transform="translate(-273.727,193.164) rotate(-90)">
				<title>Sheet.1491</title>
				<path d="M0 344.13 L8.12 344.13" class="st3"/>
			</g>
			<g id="shape1492-56" transform="translate(-274.404,194.518) rotate(-90)">
				<title>Sheet.1492</title>
				<path d="M0 344.13 L9.48 344.13" class="st3"/>
			</g>
			<g id="shape1493-59" transform="translate(-275.081,195.872) rotate(-90)">
				<title>Sheet.1493</title>
				<path d="M0 344.13 L10.83 344.13" class="st3"/>
			</g>
			<g id="shape1494-62" transform="translate(-275.758,197.226) rotate(-90)">
				<title>Sheet.1494</title>
				<path d="M0 344.13 L12.19 344.13" class="st3"/>
			</g>
			<g id="shape1495-65" transform="translate(-276.435,198.58) rotate(-90)">
				<title>Sheet.1495</title>
				<path d="M0 344.13 L13.54 344.13" class="st3"/>
			</g>
			<g id="shape1496-68" transform="translate(-277.112,197.226) rotate(-90)">
				<title>Sheet.1496</title>
				<path d="M0 344.13 L12.19 344.13" class="st3"/>
			</g>
			<g id="shape1497-71" transform="translate(-277.789,195.872) rotate(-90)">
				<title>Sheet.1497</title>
				<path d="M0 344.13 L10.83 344.13" class="st3"/>
			</g>
			<g id="shape1498-74" transform="translate(-278.466,194.518) rotate(-90)">
				<title>Sheet.1498</title>
				<path d="M0 344.13 L9.48 344.13" class="st3"/>
			</g>
			<g id="shape1499-77" transform="translate(-279.143,193.164) rotate(-90)">
				<title>Sheet.1499</title>
				<path d="M0 344.13 L8.12 344.13" class="st3"/>
			</g>
			<g id="shape1500-80" transform="translate(-279.82,191.81) rotate(-90)">
				<title>Sheet.1500</title>
				<path d="M0 344.13 L6.77 344.13" class="st3"/>
			</g>
			<g id="shape1501-83" transform="translate(-280.497,190.456) rotate(-90)">
				<title>Sheet.1501</title>
				<path d="M0 344.13 L5.42 344.13" class="st3"/>
			</g>
			<g id="shape1502-86" transform="translate(-281.174,189.102) rotate(-90)">
				<title>Sheet.1502</title>
				<path d="M0 344.13 L4.06 344.13" class="st3"/>
			</g>
			<g id="shape1503-89" transform="translate(-281.851,187.748) rotate(-90)">
				<title>Sheet.1503</title>
				<path d="M0 344.13 L2.71 344.13" class="st3"/>
			</g>
			<g id="shape1504-92" transform="translate(-282.528,186.394) rotate(-90)">
				<title>Sheet.1504</title>
				<path d="M0 344.13 L1.35 344.13" class="st3"/>
			</g>
		</g>
	</g>
</svg>
