<?xml version="1.0" encoding="UTF-8" standalone="no"?>
<!DOCTYPE svg PUBLIC "-//W3C//DTD SVG 1.1//EN" "http://www.w3.org/Graphics/SVG/1.1/DTD/svg11.dtd">
<!-- Generated by Microsoft Visio, SVG Export PD005A.svg Page-1 -->
<svg xmlns="http://www.w3.org/2000/svg" xmlns:xlink="http://www.w3.org/1999/xlink" xmlns:ev="http://www.w3.org/2001/xml-events"
		width="3.77141in" height="6.32152in" viewBox="0 0 271.541 455.149" xml:space="preserve" color-interpolation-filters="sRGB"
		class="st2">
	<title>PD005A</title>

	<style type="text/css">
	<![CDATA[
		.st1 {stroke:#000000;stroke-linecap:round;stroke-linejoin:round;stroke-width:2.25}
		.st2 {fill:none;fill-rule:evenodd;font-size:12px;overflow:visible;stroke-linecap:square;stroke-miterlimit:3}
	]]>
	</style>

	<g>
		<title>Page-1</title>
		<g id="shape1474-1" transform="translate(1.125,-454.024)">
			<title>Sheet.1474</title>
			<path d="M0 455.15 L269.29 455.15" class="st1"/>
		</g>
		<g id="shape1475-4" transform="translate(172.492,909.173) rotate(180)">
			<title>Sheet.1475</title>
			<path d="M0 455.15 L73.44 455.15" class="st1"/>
		</g>
		<g id="shape1476-7" transform="translate(-356.1,454.024) rotate(-90)">
			<title>Sheet.1476</title>
			<path d="M0 455.15 L97.92 455.15" class="st1"/>
		</g>
		<g id="shape1477-10" transform="translate(99.0491,811.249) rotate(180)">
			<title>Sheet.1477</title>
			<path d="M0 455.15 L61.2 455.15" class="st1"/>
		</g>
		<g id="shape1478-13" transform="translate(-418.048,356.1) rotate(-90)">
			<title>Sheet.1478</title>
			<path d="M0 455.15 L48.96 455.15" class="st1"/>
		</g>
		<g id="shape1479-16" transform="translate(37.8466,-148.011)">
			<title>Sheet.1479</title>
			<path d="M0 455.15 L61.2 455.15" class="st1"/>
		</g>
		<g id="shape1480-19" transform="translate(-356.1,307.138) rotate(-90)">
			<title>Sheet.1480</title>
			<path d="M0 455.15 L48.96 455.15" class="st1"/>
		</g>
		<g id="shape1481-22" transform="translate(99.0491,713.325) rotate(180)">
			<title>Sheet.1481</title>
			<path d="M0 455.15 L61.2 455.15" class="st1"/>
		</g>
		<g id="shape1482-25" transform="translate(-418.048,258.176) rotate(-90)">
			<title>Sheet.1482</title>
			<path d="M0 455.15 L48.96 455.15" class="st1"/>
		</g>
		<g id="shape1483-28" transform="translate(37.8466,-245.935)">
			<title>Sheet.1483</title>
			<path d="M0 455.15 L61.2 455.15" class="st1"/>
		</g>
		<g id="shape1484-31" transform="translate(-356.1,209.214) rotate(-90)">
			<title>Sheet.1484</title>
			<path d="M0 455.15 L48.96 455.15" class="st1"/>
		</g>
		<g id="shape1485-34" transform="translate(99.0491,615.401) rotate(180)">
			<title>Sheet.1485</title>
			<path d="M0 455.15 L61.2 455.15" class="st1"/>
		</g>
		<g id="shape1486-37" transform="translate(-418.048,160.252) rotate(-90)">
			<title>Sheet.1486</title>
			<path d="M0 455.15 L48.96 455.15" class="st1"/>
		</g>
		<g id="shape1487-40" transform="translate(37.8466,-343.859)">
			<title>Sheet.1487</title>
			<path d="M0 455.15 L61.2 455.15" class="st1"/>
		</g>
		<g id="shape1488-43" transform="translate(-356.1,111.29) rotate(-90)">
			<title>Sheet.1488</title>
			<path d="M0 455.15 L48.96 455.15" class="st1"/>
		</g>
		<g id="shape1489-46" transform="translate(99.0491,517.477) rotate(180)">
			<title>Sheet.1489</title>
			<path d="M0 455.15 L97.92 455.15" class="st1"/>
		</g>
		<g id="shape1490-49" transform="translate(-454.024,62.3276) rotate(-90)">
			<title>Sheet.1490</title>
			<path d="M0 455.15 L61.2 455.15" class="st1"/>
		</g>
		<g id="shape1491-52" transform="translate(-282.657,454.024) rotate(-90)">
			<title>Sheet.1491</title>
			<path d="M0 455.15 L97.92 455.15" class="st1"/>
		</g>
		<g id="shape1492-55" transform="translate(172.492,-99.0491)">
			<title>Sheet.1492</title>
			<path d="M0 455.15 L61.2 455.15" class="st1"/>
		</g>
		<g id="shape1493-58" transform="translate(-220.708,356.1) rotate(-90)">
			<title>Sheet.1493</title>
			<path d="M0 455.15 L48.96 455.15" class="st1"/>
		</g>
		<g id="shape1494-61" transform="translate(233.695,762.287) rotate(180)">
			<title>Sheet.1494</title>
			<path d="M0 455.15 L61.2 455.15" class="st1"/>
		</g>
		<g id="shape1495-64" transform="translate(-282.657,307.138) rotate(-90)">
			<title>Sheet.1495</title>
			<path d="M0 455.15 L48.96 455.15" class="st1"/>
		</g>
		<g id="shape1496-67" transform="translate(172.492,-196.973)">
			<title>Sheet.1496</title>
			<path d="M0 455.15 L61.2 455.15" class="st1"/>
		</g>
		<g id="shape1497-70" transform="translate(-220.708,258.176) rotate(-90)">
			<title>Sheet.1497</title>
			<path d="M0 455.15 L48.96 455.15" class="st1"/>
		</g>
		<g id="shape1498-73" transform="translate(233.695,664.363) rotate(180)">
			<title>Sheet.1498</title>
			<path d="M0 455.15 L61.2 455.15" class="st1"/>
		</g>
		<g id="shape1499-76" transform="translate(-282.657,209.214) rotate(-90)">
			<title>Sheet.1499</title>
			<path d="M0 455.15 L48.96 455.15" class="st1"/>
		</g>
		<g id="shape1500-79" transform="translate(172.492,-294.897)">
			<title>Sheet.1500</title>
			<path d="M0 455.15 L61.2 455.15" class="st1"/>
		</g>
		<g id="shape1501-82" transform="translate(-220.708,160.252) rotate(-90)">
			<title>Sheet.1501</title>
			<path d="M0 455.15 L48.96 455.15" class="st1"/>
		</g>
		<g id="shape1502-85" transform="translate(233.695,566.439) rotate(180)">
			<title>Sheet.1502</title>
			<path d="M0 455.15 L61.2 455.15" class="st1"/>
		</g>
		<g id="shape1503-88" transform="translate(-282.657,111.29) rotate(-90)">
			<title>Sheet.1503</title>
			<path d="M0 455.15 L48.96 455.15" class="st1"/>
		</g>
		<g id="shape1504-91" transform="translate(172.492,-392.822)">
			<title>Sheet.1504</title>
			<path d="M0 455.15 L97.92 455.15" class="st1"/>
		</g>
		<g id="shape1505-94" transform="translate(-184.733,62.3276) rotate(-90)">
			<title>Sheet.1505</title>
			<path d="M0 455.15 L61.2 455.15" class="st1"/>
		</g>
	</g>
</svg>
