<?xml version="1.0" encoding="UTF-8" standalone="no"?>
<!DOCTYPE svg PUBLIC "-//W3C//DTD SVG 1.1//EN" "http://www.w3.org/Graphics/SVG/1.1/DTD/svg11.dtd">
<!-- Generated by Microsoft Visio, SVG Export PD002A.svg Page-1 -->
<svg xmlns="http://www.w3.org/2000/svg" xmlns:xlink="http://www.w3.org/1999/xlink" xmlns:ev="http://www.w3.org/2001/xml-events"
		width="5.54721in" height="3.57722in" viewBox="0 0 399.399 257.56" xml:space="preserve" color-interpolation-filters="sRGB"
		class="st4">
	<title>PD002A</title>

	<style type="text/css">
	<![CDATA[
		.st1 {fill:none;stroke:#000000;stroke-linecap:round;stroke-linejoin:round;stroke-width:2.25}
		.st2 {stroke:#000000;stroke-linecap:round;stroke-linejoin:round;stroke-width:2.25}
		.st3 {fill:none}
		.st4 {fill:none;fill-rule:evenodd;font-size:12px;overflow:visible;stroke-linecap:square;stroke-miterlimit:3}
	]]>
	</style>

	<g>
		<title>Page-1</title>
		<g id="group1412-1" transform="translate(1.125,-1.125)">
			<title>STPD002.32</title>
			<g id="shape1413-2" transform="translate(127.655,0)">
				<title>Sheet.1413</title>
				<path d="M141.84 243.38 L0 243.38 L0 257.56 L141.84 257.56 L141.84 243.38 L141.84 243.38 Z" class="st1"/>
			</g>
			<g id="shape1414-4" transform="translate(399.399,200.824) rotate(90)">
				<title>Sheet.1414</title>
				<path d="M0 257.56 L42.55 257.56" class="st2"/>
			</g>
			<g id="shape1415-7" transform="translate(512.87,200.824) rotate(90)">
				<title>Sheet.1415</title>
				<path d="M0 257.56 L42.55 257.56" class="st2"/>
			</g>
			<g id="shape1416-10" transform="translate(399.399,16.4339) rotate(90)">
				<title>Sheet.1416</title>
				<path d="M0 257.56 L42.55 257.56" class="st2"/>
			</g>
			<g id="shape1417-13" transform="translate(512.87,16.4339) rotate(90)">
				<title>Sheet.1417</title>
				<path d="M0 257.56 L42.55 257.56" class="st2"/>
			</g>
			<g id="shape1418-16" transform="translate(0,-56.7355)">
				<title>Sheet.1418</title>
				<path d="M0 172.46 L0 257.56 L397.15 257.56 L397.15 172.46 L0 172.46 L0 172.46 Z" class="st1"/>
			</g>
			<g id="shape1419-18" transform="translate(0,-141.839)">
				<title>Sheet.1419</title>
				<path d="M0 257.56 L56.74 200.82 L340.41 200.82 L397.15 257.56 L397.15 257.56 L0 257.56 Z" class="st3"/>
				<path d="M0 257.56 L56.74 200.82 L340.41 200.82 L397.15 257.56 L397.15 257.56" class="st2"/>
			</g>
			<g id="shape1420-21" transform="translate(113.471,-241.126)">
				<title>Sheet.1420</title>
				<path d="M170.21 257.56 L0 257.56 L0 243.38 L170.21 243.38 L170.21 257.56 L170.21 257.56 Z" class="st1"/>
			</g>
		</g>
	</g>
</svg>
