<?xml version="1.0" encoding="UTF-8" standalone="no"?>
<!DOCTYPE svg PUBLIC "-//W3C//DTD SVG 1.1//EN" "http://www.w3.org/Graphics/SVG/1.1/DTD/svg11.dtd">
<!-- Generated by Microsoft Visio, SVG Export PD009A_Detail.svg Page-1 -->
<svg xmlns="http://www.w3.org/2000/svg" xmlns:xlink="http://www.w3.org/1999/xlink" xmlns:ev="http://www.w3.org/2001/xml-events"
		width="8.04621in" height="3.96416in" viewBox="0 0 579.327 285.419" xml:space="preserve" color-interpolation-filters="sRGB"
		class="st17">
	<title>PD009A</title>

	<style type="text/css">
	<![CDATA[
		.st1 {fill:#ffffff;stroke:#ff0000;stroke-linecap:round;stroke-linejoin:round;stroke-width:2.25}
		.st2 {fill:#ffffff}
		.st3 {stroke:#000000;stroke-linecap:round;stroke-linejoin:round;stroke-width:0.24}
		.st4 {marker-end:url(#mrkr13-9);stroke:#000000;stroke-linecap:round;stroke-linejoin:round;stroke-width:0.24}
		.st5 {fill:#000000;fill-opacity:1;stroke:#000000;stroke-opacity:1;stroke-width:0.11764705882353}
		.st6 {fill:#ffffff;stroke:none;stroke-linecap:butt;stroke-width:7.2}
		.st7 {fill:#000000;font-family:Calibri;font-size:0.666664em}
		.st8 {fill:none;stroke:none;stroke-linecap:round;stroke-linejoin:round;stroke-width:0.75}
		.st9 {fill:#ff0000;font-family:Arial Narrow;font-size:0.811964em;font-weight:bold}
		.st10 {baseline-shift:33.35%;font-size:0.667em}
		.st11 {fill:none;stroke:#ff0000;stroke-linecap:round;stroke-linejoin:round;stroke-width:0.75}
		.st12 {fill:#ff0000;font-family:Arial Narrow;font-size:0.833336em;font-weight:bold}
		.st13 {fill:#ffffff;stroke:none;stroke-linecap:butt}
		.st14 {fill:none;stroke:#000000;stroke-linecap:round;stroke-linejoin:round;stroke-width:2.25}
		.st15 {fill:none}
		.st16 {stroke:#000000;stroke-linecap:round;stroke-linejoin:round;stroke-width:2.25}
		.st17 {fill:none;fill-rule:evenodd;font-size:12px;overflow:visible;stroke-linecap:square;stroke-miterlimit:3}
	]]>
	</style>

	<defs id="Markers">
		<g id="lend13">
			<path d="M 3 1 L 0 0 L 3 -1 L 3 1 " style="stroke:none"/>
		</g>
		<marker id="mrkr13-9" class="st5" refX="-25.5" orient="auto" markerUnits="strokeWidth" overflow="visible">
			<use xlink:href="#lend13" transform="scale(-8.5000000000001,-8.5000000000001) "/>
		</marker>
	</defs>
	<g>
		<title>Page-1</title>
		<g id="shape1405-1" transform="translate(70.2488,-141.619)">
			<title>Circle.1412</title>
			<path d="M0 278.85 A6.56444 6.56444 0 0 1 13.13 278.85 A6.56444 6.56444 0 1 1 0 278.85 Z" class="st1"/>
		</g>
		<g id="shape1411-3" transform="translate(-251.126,278.968) rotate(-90)">
			<title>Vertical.1015</title>
			<desc>40mm</desc>
			<path d="M0 257.58 L0 281.42 L0 257.58 ZM141.73 257.58 L141.73 295.59 L141.73 257.58 Z" class="st2"/>
			<path d="M0 257.58 L0 281.42 L0 257.58" class="st3"/>
			<path d="M141.73 257.58 L141.73 295.59 L141.73 257.58" class="st3"/>
			<path d="M70.87 265.58 L6.12 265.58" class="st4"/>
			<path d="M70.87 265.58 L135.61 265.58" class="st4"/>
			<rect x="60.4209" y="253.975" width="20.8905" height="9.59985" class="st6"/>
			<text x="60.42" y="261.18" class="st7">40mm</text>		</g>
		<g id="group1423-16" transform="translate(88.8448,-34.7975)">
			<title>Sheet.1423</title>
			<g id="group1424-17">
				<title>Sheet.1424</title>
				<g id="shape1425-18" transform="translate(0,-4.47576)">
					<title>Sheet.1425</title>
					<desc>A</desc>
					<rect x="0" y="271.246" width="13.2348" height="14.1732" class="st8"/>
					<text x="4" y="284.94" class="st9"><tspan class="st10">A</tspan></text>				</g>
			</g>
			<g id="group1426-22" transform="translate(2.14166,-0.0824008)">
				<title>Sheet.1426</title>
				<g id="shape1427-23" transform="translate(7.92226E-06,-0.0824008)">
					<title>Sheet.1427</title>
					<desc>1</desc>
					<rect x="0" y="271.246" width="85.0394" height="14.1732" class="st11"/>
					<text x="40.24" y="281.33" class="st12">1</text>				</g>
			</g>
		</g>
		<g id="shape1469-26" transform="translate(76.8133,-251.126)">
			<title>Horizontal</title>
			<desc>140mm</desc>
			<path d="M0 257.58 L0 281.42 L0 257.58 ZM496.06 257.58 L496.06 299.32 L496.06 257.58 Z" class="st2"/>
			<path d="M0 257.58 L0 281.42 L0 257.58" class="st3"/>
			<path d="M496.06 257.58 L496.06 299.32 L496.06 257.58" class="st3"/>
			<path d="M248.03 265.58 L6.12 265.58" class="st4"/>
			<path d="M248.03 265.58 L489.94 265.58" class="st4"/>
			<rect x="235.559" y="253.975" width="24.9453" height="9.59985" class="st13"/>
			<text x="235.56" y="261.18" class="st7">140mm</text>		</g>
		<g id="group1470-38" transform="translate(76.8133,-6.45105)">
			<title>STPD009.114</title>
			<g id="shape1471-39" transform="translate(-2.43006E-12,-89.7392)">
				<title>Sheet.1471</title>
				<path d="M0.5 233.43 L326.51 271.75 L326.02 285.42 L0 247.1 L0.5 233.43 L0.5 233.43 Z" class="st14"/>
			</g>
			<g id="shape1472-41">
				<title>Sheet.1472</title>
				<path d="M326.02 195.68 L218.65 285.42 L0 157.36 L0 157.36 L326.02 195.68 Z" class="st15"/>
				<path d="M326.02 195.68 L218.65 285.42 L0 157.36 L0 157.36" class="st16"/>
			</g>
			<g id="shape1473-44" transform="translate(320.897,475.623) rotate(-173.308)">
				<title>Sheet.1473</title>
				<path d="M0 285.42 L28.09 285.42" class="st16"/>
			</g>
			<g id="shape1474-47" transform="translate(353.798,-13.6796)">
				<title>Sheet.1474</title>
				<path d="M0 230.7 L142.27 230.7 L142.27 285.42 L0 230.7 L0 230.7 Z" class="st14"/>
			</g>
			<g id="shape1475-49" transform="translate(458.286,464.663) rotate(161.619)">
				<title>Sheet.1475</title>
				<path d="M0 285.42 L15.84 285.42" class="st16"/>
			</g>
			<g id="shape1476-52" transform="translate(70.4676,160.082) rotate(-82.2033)">
				<title>Sheet.1476</title>
				<path d="M0 285.42 L13.69 285.42" class="st16"/>
			</g>
			<g id="shape1477-55" transform="translate(263.244,-72.0554) rotate(-18.3813)">
				<title>Sheet.1477</title>
				<path d="M0 285.42 L15.84 285.42" class="st16"/>
			</g>
			<g id="shape1478-58" transform="translate(212.709,433.099) rotate(-146.971)">
				<title>Sheet.1478</title>
				<path d="M0 285.42 L15.72 285.42" class="st16"/>
			</g>
			<g id="shape1479-61" transform="translate(637.886,223.959) rotate(97.7967)">
				<title>Sheet.1479</title>
				<path d="M0 285.42 L6.84 285.42" class="st16"/>
			</g>
			<g id="shape1480-64" transform="translate(636.958,230.74) rotate(97.7967)">
				<title>Sheet.1480</title>
				<path d="M0 285.42 L6.84 285.42" class="st16"/>
			</g>
			<g id="shape1481-67" transform="translate(319.265,468.401) rotate(-172.786)">
				<title>Sheet.1481</title>
				<path d="M0 285.42 L0 285.42" class="st16"/>
			</g>
			<g id="shape1482-70" transform="translate(320.583,469.258) rotate(-172.786)">
				<title>Sheet.1482</title>
				<path d="M0 285.42 L1.43 285.42" class="st16"/>
			</g>
			<g id="shape1483-73" transform="translate(321.9,470.115) rotate(-172.786)">
				<title>Sheet.1483</title>
				<path d="M0 285.42 L2.85 285.42" class="st16"/>
			</g>
			<g id="shape1484-76" transform="translate(323.218,470.971) rotate(-172.786)">
				<title>Sheet.1484</title>
				<path d="M0 285.42 L4.27 285.42" class="st16"/>
			</g>
			<g id="shape1485-79" transform="translate(324.535,471.828) rotate(-172.786)">
				<title>Sheet.1485</title>
				<path d="M0 285.42 L5.69 285.42" class="st16"/>
			</g>
			<g id="shape1486-82" transform="translate(325.853,472.685) rotate(-172.786)">
				<title>Sheet.1486</title>
				<path d="M0 285.42 L7.11 285.42" class="st16"/>
			</g>
			<g id="shape1487-85" transform="translate(327.171,473.541) rotate(-172.786)">
				<title>Sheet.1487</title>
				<path d="M0 285.42 L8.53 285.42" class="st16"/>
			</g>
			<g id="shape1488-88" transform="translate(328.488,474.398) rotate(-172.786)">
				<title>Sheet.1488</title>
				<path d="M0 285.42 L9.96 285.42" class="st16"/>
			</g>
			<g id="shape1489-91" transform="translate(329.806,475.255) rotate(-172.786)">
				<title>Sheet.1489</title>
				<path d="M0 285.42 L11.38 285.42" class="st16"/>
			</g>
			<g id="shape1490-94" transform="translate(331.124,476.111) rotate(-172.786)">
				<title>Sheet.1490</title>
				<path d="M0 285.42 L12.8 285.42" class="st16"/>
			</g>
			<g id="shape1491-97" transform="translate(332.434,476.967) rotate(-172.786)">
				<title>Sheet.1491</title>
				<path d="M0 285.42 L14.21 285.42" class="st16"/>
			</g>
			<g id="shape1492-100" transform="translate(330.931,477.466) rotate(-172.786)">
				<title>Sheet.1492</title>
				<path d="M0 285.42 L12.79 285.42" class="st16"/>
			</g>
			<g id="shape1493-103" transform="translate(329.428,477.966) rotate(-172.786)">
				<title>Sheet.1493</title>
				<path d="M0 285.42 L11.37 285.42" class="st16"/>
			</g>
			<g id="shape1494-106" transform="translate(327.924,478.466) rotate(-172.786)">
				<title>Sheet.1494</title>
				<path d="M0 285.42 L9.95 285.42" class="st16"/>
			</g>
			<g id="shape1495-109" transform="translate(326.421,478.965) rotate(-172.786)">
				<title>Sheet.1495</title>
				<path d="M0 285.42 L8.53 285.42" class="st16"/>
			</g>
			<g id="shape1496-112" transform="translate(324.918,479.465) rotate(-172.786)">
				<title>Sheet.1496</title>
				<path d="M0 285.42 L7.11 285.42" class="st16"/>
			</g>
			<g id="shape1497-115" transform="translate(323.414,479.964) rotate(-172.786)">
				<title>Sheet.1497</title>
				<path d="M0 285.42 L5.68 285.42" class="st16"/>
			</g>
			<g id="shape1498-118" transform="translate(321.911,480.464) rotate(-172.786)">
				<title>Sheet.1498</title>
				<path d="M0 285.42 L4.26 285.42" class="st16"/>
			</g>
			<g id="shape1499-121" transform="translate(320.408,480.963) rotate(-172.786)">
				<title>Sheet.1499</title>
				<path d="M0 285.42 L2.84 285.42" class="st16"/>
			</g>
			<g id="shape1500-124" transform="translate(318.904,481.463) rotate(-172.786)">
				<title>Sheet.1500</title>
				<path d="M0 285.42 L1.42 285.42" class="st16"/>
			</g>
		</g>
	</g>
</svg>
