<?xml version="1.0" encoding="UTF-8" standalone="no"?>
<!DOCTYPE svg PUBLIC "-//W3C//DTD SVG 1.1//EN" "http://www.w3.org/Graphics/SVG/1.1/DTD/svg11.dtd">
<!-- Generated by Microsoft Visio, SVG Export PD008A_Detail.svg Page-1 -->
<svg xmlns="http://www.w3.org/2000/svg" xmlns:xlink="http://www.w3.org/1999/xlink" xmlns:ev="http://www.w3.org/2001/xml-events"
		width="7.1407in" height="5.97545in" viewBox="0 0 514.13 430.232" xml:space="preserve" color-interpolation-filters="sRGB"
		class="st16">
	<title>PD008A</title>

	<style type="text/css">
	<![CDATA[
		.st1 {fill:#ffffff;stroke:#ff0000;stroke-linecap:round;stroke-linejoin:round;stroke-width:2.25}
		.st2 {fill:#ffffff}
		.st3 {stroke:#000000;stroke-linecap:round;stroke-linejoin:round;stroke-width:0.24}
		.st4 {marker-end:url(#mrkr13-9);stroke:#000000;stroke-linecap:round;stroke-linejoin:round;stroke-width:0.24}
		.st5 {fill:#000000;fill-opacity:1;stroke:#000000;stroke-opacity:1;stroke-width:0.11764705882353}
		.st6 {fill:#ffffff;stroke:none;stroke-linecap:butt;stroke-width:7.2}
		.st7 {fill:#000000;font-family:Calibri;font-size:0.666664em}
		.st8 {fill:none;stroke:none;stroke-linecap:round;stroke-linejoin:round;stroke-width:0.75}
		.st9 {fill:#ff0000;font-family:Arial Narrow;font-size:0.811964em;font-weight:bold}
		.st10 {baseline-shift:33.35%;font-size:0.667em}
		.st11 {fill:none;stroke:#ff0000;stroke-linecap:round;stroke-linejoin:round;stroke-width:0.75}
		.st12 {fill:#ff0000;font-family:Arial Narrow;font-size:0.833336em;font-weight:bold}
		.st13 {fill:none;stroke:#000000;stroke-linecap:round;stroke-linejoin:round;stroke-width:2.25}
		.st14 {fill:none}
		.st15 {stroke:#000000;stroke-linecap:round;stroke-linejoin:round;stroke-width:2.25}
		.st16 {fill:none;fill-rule:evenodd;font-size:12px;overflow:visible;stroke-linecap:square;stroke-miterlimit:3}
	]]>
	</style>

	<defs id="Markers">
		<g id="lend13">
			<path d="M 3 1 L 0 0 L 3 -1 L 3 1 " style="stroke:none"/>
		</g>
		<marker id="mrkr13-9" class="st5" refX="-25.5" orient="auto" markerUnits="strokeWidth" overflow="visible">
			<use xlink:href="#lend13" transform="scale(-8.5000000000001,-8.5000000000001) "/>
		</marker>
	</defs>
	<g>
		<title>Page-1</title>
		<g id="shape1405-1" transform="translate(146.784,-354.314)">
			<title>Circle.1412</title>
			<path d="M0 423.67 A6.56444 6.56444 0 0 1 13.13 423.67 A6.56444 6.56444 0 1 1 0 423.67 Z" class="st1"/>
		</g>
		<g id="shape1411-3" transform="translate(-395.939,423.781) rotate(-90)">
			<title>Vertical.1015</title>
			<desc>100mm</desc>
			<path d="M0 402.39 L0 426.23 L0 402.39 ZM354.33 402.39 L354.33 450.33 L354.33 402.39 Z" class="st2"/>
			<path d="M0 402.39 L0 426.23 L0 402.39" class="st3"/>
			<path d="M354.33 402.39 L354.33 450.33 L354.33 402.39" class="st3"/>
			<path d="M177.17 410.39 L6.12 410.39" class="st4"/>
			<path d="M177.17 410.39 L348.21 410.39" class="st4"/>
			<rect x="164.693" y="398.788" width="24.9453" height="9.59985" class="st6"/>
			<text x="164.69" y="405.99" class="st7">100mm</text>		</g>
		<g id="group1423-16" transform="translate(335.459,-219.146)">
			<title>Sheet.1423</title>
			<g id="group1424-17">
				<title>Sheet.1424</title>
				<g id="shape1425-18" transform="translate(0,-4.47576)">
					<title>Sheet.1425</title>
					<desc>A</desc>
					<rect x="0" y="416.059" width="13.2348" height="14.1732" class="st8"/>
					<text x="4" y="429.75" class="st9"><tspan class="st10">A</tspan></text>				</g>
			</g>
			<g id="group1426-22" transform="translate(2.14166,-0.0824008)">
				<title>Sheet.1426</title>
				<g id="shape1427-23" transform="translate(7.92226E-06,-0.0824008)">
					<title>Sheet.1427</title>
					<desc>1</desc>
					<rect x="0" y="416.059" width="85.0394" height="14.1732" class="st11"/>
					<text x="40.24" y="426.15" class="st12">1</text>				</g>
			</g>
		</g>
		<g id="shape1469-26" transform="translate(153.349,-395.939)">
			<title>Horizontal</title>
			<desc>100mm</desc>
			<path d="M0 402.39 L0 426.23 L0 402.39 ZM354.33 402.39 L354.33 447.12 L354.33 402.39 Z" class="st2"/>
			<path d="M0 402.39 L0 426.23 L0 402.39" class="st3"/>
			<path d="M354.33 402.39 L354.33 447.12 L354.33 402.39" class="st3"/>
			<path d="M177.17 410.39 L6.12 410.39" class="st4"/>
			<path d="M177.17 410.39 L348.21 410.39" class="st4"/>
			<rect x="164.693" y="398.788" width="24.9453" height="9.59985" class="st6"/>
			<text x="164.69" y="405.99" class="st7">100mm</text>		</g>
		<g id="group1472-38" transform="translate(153.349,-20.7213)">
			<title>STPD008.81</title>
			<g id="shape1473-39" transform="translate(1.76659E-12,-287.725)">
				<title>Sheet.1473</title>
				<path d="M0 430.23 L135.4 430.23 L135.4 376.07 L0 376.07 L0 430.23 L0 430.23 Z" class="st13"/>
			</g>
			<g id="shape1474-41" transform="translate(1.76659E-12,-172.635)">
				<title>Sheet.1474</title>
				<path d="M0 315.14 L67.7 430.23 L135.4 315.14 L135.4 315.14 L0 315.14 Z" class="st14"/>
				<path d="M0 315.14 L67.7 430.23 L135.4 315.14 L135.4 315.14" class="st15"/>
			</g>
			<g id="shape1475-44" transform="translate(497.932,257.597) rotate(90)">
				<title>Sheet.1475</title>
				<path d="M0 430.23 L13.54 430.23" class="st15"/>
			</g>
			<g id="shape1476-47" transform="translate(41.4809,-92.3439)">
				<title>Sheet.1476</title>
				<path d="M0 389.61 L311.42 416.69 L311.42 430.23 L0 403.15 L0 389.61 L0 389.61 Z" class="st13"/>
			</g>
			<g id="shape1477-49" transform="translate(41.4809,1.76215E-12)">
				<title>Sheet.1477</title>
				<path d="M311.42 337.89 L212.39 430.23 L0 310.81 L0 310.81 L311.42 337.89 Z" class="st14"/>
				<path d="M311.42 337.89 L212.39 430.23 L0 310.81 L0 310.81" class="st15"/>
			</g>
			<g id="shape1478-52" transform="translate(60.93,-145.555)">
				<title>Sheet.1478</title>
				<path d="M13.54 416.69 L0 416.69 L6.77 430.23 L13.54 416.69 L13.54 416.69 Z" class="st13"/>
			</g>
			<g id="shape1479-54" transform="translate(-317.112,477.083) rotate(-116.565)">
				<title>Sheet.1479</title>
				<path d="M0 430.23 L15.14 430.23" class="st15"/>
			</g>
			<g id="shape1480-57" transform="translate(60.93,-159.095)">
				<title>Sheet.1480</title>
				<path d="M0 430.23 L13.54 430.23" class="st15"/>
			</g>
			<g id="shape1481-60" transform="translate(459.282,463.543) rotate(116.565)">
				<title>Sheet.1481</title>
				<path d="M0 430.23 L15.14 430.23" class="st15"/>
			</g>
			<g id="shape1482-63" transform="translate(445.742,78.7316) rotate(63.4349)">
				<title>Sheet.1482</title>
				<path d="M0 430.23 L15.14 430.23" class="st15"/>
			</g>
			<g id="shape1483-66" transform="translate(-317.112,92.2716) rotate(-63.4349)">
				<title>Sheet.1483</title>
				<path d="M0 430.23 L15.14 430.23" class="st15"/>
			</g>
			<g id="shape1484-69" transform="translate(74.47,701.37) rotate(180)">
				<title>Sheet.1484</title>
				<path d="M0 430.23 L6.77 430.23" class="st15"/>
			</g>
			<g id="shape1485-72" transform="translate(67.7,701.37) rotate(180)">
				<title>Sheet.1485</title>
				<path d="M0 430.23 L6.77 430.23" class="st15"/>
			</g>
			<g id="shape1486-75" transform="translate(-356.439,272.491) rotate(-90)">
				<title>Sheet.1486</title>
				<path d="M0 430.23 L1.35 430.23" class="st15"/>
			</g>
			<g id="shape1487-78" transform="translate(-357.116,273.845) rotate(-90)">
				<title>Sheet.1487</title>
				<path d="M0 430.23 L2.71 430.23" class="st15"/>
			</g>
			<g id="shape1488-81" transform="translate(-357.793,275.199) rotate(-90)">
				<title>Sheet.1488</title>
				<path d="M0 430.23 L4.06 430.23" class="st15"/>
			</g>
			<g id="shape1489-84" transform="translate(-358.47,276.553) rotate(-90)">
				<title>Sheet.1489</title>
				<path d="M0 430.23 L5.42 430.23" class="st15"/>
			</g>
			<g id="shape1490-87" transform="translate(-359.147,277.907) rotate(-90)">
				<title>Sheet.1490</title>
				<path d="M0 430.23 L6.77 430.23" class="st15"/>
			</g>
			<g id="shape1491-90" transform="translate(-359.824,279.261) rotate(-90)">
				<title>Sheet.1491</title>
				<path d="M0 430.23 L8.12 430.23" class="st15"/>
			</g>
			<g id="shape1492-93" transform="translate(-360.501,280.615) rotate(-90)">
				<title>Sheet.1492</title>
				<path d="M0 430.23 L9.48 430.23" class="st15"/>
			</g>
			<g id="shape1493-96" transform="translate(-361.178,281.969) rotate(-90)">
				<title>Sheet.1493</title>
				<path d="M0 430.23 L10.83 430.23" class="st15"/>
			</g>
			<g id="shape1494-99" transform="translate(-361.855,283.323) rotate(-90)">
				<title>Sheet.1494</title>
				<path d="M0 430.23 L12.19 430.23" class="st15"/>
			</g>
			<g id="shape1495-102" transform="translate(-362.532,284.677) rotate(-90)">
				<title>Sheet.1495</title>
				<path d="M0 430.23 L13.54 430.23" class="st15"/>
			</g>
			<g id="shape1496-105" transform="translate(-363.209,283.323) rotate(-90)">
				<title>Sheet.1496</title>
				<path d="M0 430.23 L12.19 430.23" class="st15"/>
			</g>
			<g id="shape1497-108" transform="translate(-363.886,281.969) rotate(-90)">
				<title>Sheet.1497</title>
				<path d="M0 430.23 L10.83 430.23" class="st15"/>
			</g>
			<g id="shape1498-111" transform="translate(-364.563,280.615) rotate(-90)">
				<title>Sheet.1498</title>
				<path d="M0 430.23 L9.48 430.23" class="st15"/>
			</g>
			<g id="shape1499-114" transform="translate(-365.24,279.261) rotate(-90)">
				<title>Sheet.1499</title>
				<path d="M0 430.23 L8.12 430.23" class="st15"/>
			</g>
			<g id="shape1500-117" transform="translate(-365.917,277.907) rotate(-90)">
				<title>Sheet.1500</title>
				<path d="M0 430.23 L6.77 430.23" class="st15"/>
			</g>
			<g id="shape1501-120" transform="translate(-366.594,276.553) rotate(-90)">
				<title>Sheet.1501</title>
				<path d="M0 430.23 L5.42 430.23" class="st15"/>
			</g>
			<g id="shape1502-123" transform="translate(-367.271,275.199) rotate(-90)">
				<title>Sheet.1502</title>
				<path d="M0 430.23 L4.06 430.23" class="st15"/>
			</g>
			<g id="shape1503-126" transform="translate(-367.948,273.845) rotate(-90)">
				<title>Sheet.1503</title>
				<path d="M0 430.23 L2.71 430.23" class="st15"/>
			</g>
			<g id="shape1504-129" transform="translate(-368.625,272.491) rotate(-90)">
				<title>Sheet.1504</title>
				<path d="M0 430.23 L1.35 430.23" class="st15"/>
			</g>
		</g>
	</g>
</svg>
