<?xml version="1.0" encoding="UTF-8" standalone="no"?>
<!DOCTYPE svg PUBLIC "-//W3C//DTD SVG 1.1//EN" "http://www.w3.org/Graphics/SVG/1.1/DTD/svg11.dtd">
<!-- Generated by Microsoft Visio, SVG Export PD013A.svg Page-1 -->
<svg xmlns="http://www.w3.org/2000/svg" xmlns:xlink="http://www.w3.org/1999/xlink" xmlns:ev="http://www.w3.org/2001/xml-events"
		width="1.97023in" height="2.16412in" viewBox="0 0 141.856 155.817" xml:space="preserve" color-interpolation-filters="sRGB"
		class="st3">
	<title>PD013A</title>

	<style type="text/css">
	<![CDATA[
		.st1 {stroke:#000000;stroke-linecap:round;stroke-linejoin:round;stroke-width:2.25}
		.st2 {fill:none;stroke:#000000;stroke-linecap:round;stroke-linejoin:round;stroke-width:2.25}
		.st3 {fill:none;fill-rule:evenodd;font-size:12px;overflow:visible;stroke-linecap:square;stroke-miterlimit:3}
	]]>
	</style>

	<g>
		<title>Page-1</title>
		<g id="group1477-1" transform="translate(1.125,-1.125)">
			<title>STPD014.174</title>
			<g id="shape1478-2" transform="translate(-40.3761,3.75583) rotate(-45)">
				<title>Sheet.1478</title>
				<path d="M0 155.82 L39.49 155.82" class="st1"/>
			</g>
			<g id="shape1479-5">
				<title>Sheet.1479</title>
				<path d="M41.88 2.25 L97.72 2.25 L97.72 86.01 L139.61 127.88 L111.69 155.82 L69.78 113.94 L27.92 155.82 L0 127.92
							 L41.88 86.01 L41.88 2.25 L41.88 2.25 Z" class="st2"/>
			</g>
			<g id="shape1480-7" transform="translate(59.3303,-31.427)">
				<title>Sheet.1480</title>
				<ellipse cx="10.465" cy="145.352" rx="10.465" ry="10.465" class="st2"/>
			</g>
			<g id="shape1481-9" transform="translate(65.582,-51.4455)">
				<title>Sheet.1481</title>
				<path d="M0 155.82 L8.45 155.82" class="st1"/>
			</g>
			<g id="shape1482-12" transform="translate(62.4931,-49.3569)">
				<title>Sheet.1482</title>
				<path d="M0 155.82 L14.61 155.82" class="st1"/>
			</g>
			<g id="shape1483-15" transform="translate(60.8442,-47.2683)">
				<title>Sheet.1483</title>
				<path d="M0 155.82 L17.91 155.82" class="st1"/>
			</g>
			<g id="shape1484-18" transform="translate(59.8768,-45.1797)">
				<title>Sheet.1484</title>
				<path d="M0 155.82 L19.83 155.82" class="st1"/>
			</g>
			<g id="shape1485-21" transform="translate(59.4041,-43.0911)">
				<title>Sheet.1485</title>
				<path d="M0 155.82 L20.78 155.82" class="st1"/>
			</g>
			<g id="shape1486-24" transform="translate(59.3931,-41.0025)">
				<title>Sheet.1486</title>
				<path d="M0 155.82 L20.83 155.82" class="st1"/>
			</g>
			<g id="shape1487-27" transform="translate(59.7779,-38.9139)">
				<title>Sheet.1487</title>
				<path d="M0 155.82 L20.03 155.82" class="st1"/>
			</g>
			<g id="shape1488-30" transform="translate(60.6463,-36.8253)">
				<title>Sheet.1488</title>
				<path d="M0 155.82 L18.29 155.82" class="st1"/>
			</g>
			<g id="shape1489-33" transform="translate(62.1743,-34.7367)">
				<title>Sheet.1489</title>
				<path d="M0 155.82 L15.24 155.82" class="st1"/>
			</g>
			<g id="shape1490-36" transform="translate(64.9224,-32.6481)">
				<title>Sheet.1490</title>
				<path d="M0 155.82 L9.76 155.82" class="st1"/>
			</g>
		</g>
	</g>
</svg>
