<?xml version="1.0" encoding="UTF-8" standalone="no"?>
<!DOCTYPE svg PUBLIC "-//W3C//DTD SVG 1.1//EN" "http://www.w3.org/Graphics/SVG/1.1/DTD/svg11.dtd">
<!-- Generated by Microsoft Visio, SVG Export PD018A.svg Page-1 -->
<svg xmlns="http://www.w3.org/2000/svg" xmlns:xlink="http://www.w3.org/1999/xlink" xmlns:ev="http://www.w3.org/2001/xml-events"
		width="5.54306in" height="3.57456in" viewBox="0 0 399.1 257.368" xml:space="preserve" color-interpolation-filters="sRGB"
		class="st3">
	<title>PD018A</title>

	<style type="text/css">
	<![CDATA[
		.st1 {fill:none;stroke:#000000;stroke-linecap:round;stroke-linejoin:round;stroke-width:2.25}
		.st2 {stroke:#000000;stroke-linecap:round;stroke-linejoin:round;stroke-width:2.25}
		.st3 {fill:none;fill-rule:evenodd;font-size:12px;overflow:visible;stroke-linecap:square;stroke-miterlimit:3}
	]]>
	</style>

	<g>
		<title>Page-1</title>
		<g id="group1419-1" transform="translate(1.125,-1.12501)">
			<title>STPD019.238</title>
			<g id="shape1420-2">
				<title>Sheet.1420</title>
				<path d="M0 2.25 L0 257.37 L396.85 257.37 L396.85 2.25 L0 2.25 L0 2.25 Z" class="st1"/>
			</g>
			<g id="shape1421-4" transform="translate(306.974,2.25001) rotate(90)">
				<title>Sheet.1421</title>
				<path d="M0 257.37 L255.12 257.37" class="st2"/>
			</g>
			<g id="shape1422-7" transform="translate(349.494,2.25001) rotate(90)">
				<title>Sheet.1422</title>
				<path d="M0 257.37 L255.12 257.37" class="st2"/>
			</g>
			<g id="shape1423-10" transform="translate(392.014,2.25001) rotate(90)">
				<title>Sheet.1423</title>
				<path d="M0 257.37 L255.12 257.37" class="st2"/>
			</g>
			<g id="shape1424-13" transform="translate(434.533,2.25001) rotate(90)">
				<title>Sheet.1424</title>
				<path d="M0 257.37 L255.12 257.37" class="st2"/>
			</g>
			<g id="shape1425-16" transform="translate(477.053,2.25001) rotate(90)">
				<title>Sheet.1425</title>
				<path d="M0 257.37 L255.12 257.37" class="st2"/>
			</g>
			<g id="shape1426-19" transform="translate(519.573,2.25001) rotate(90)">
				<title>Sheet.1426</title>
				<path d="M0 257.37 L255.12 257.37" class="st2"/>
			</g>
			<g id="shape1427-22" transform="translate(562.093,2.25001) rotate(90)">
				<title>Sheet.1427</title>
				<path d="M0 257.37 L255.12 257.37" class="st2"/>
			</g>
			<g id="shape1428-25" transform="translate(604.612,2.25001) rotate(90)">
				<title>Sheet.1428</title>
				<path d="M0 257.37 L255.12 257.37" class="st2"/>
			</g>
		</g>
	</g>
</svg>
