<?xml version="1.0" encoding="UTF-8" standalone="no"?>
<!DOCTYPE svg PUBLIC "-//W3C//DTD SVG 1.1//EN" "http://www.w3.org/Graphics/SVG/1.1/DTD/svg11.dtd">
<!-- Generated by Microsoft Visio, SVG Export PD015A.svg Page-1 -->
<svg xmlns="http://www.w3.org/2000/svg" xmlns:xlink="http://www.w3.org/1999/xlink" xmlns:ev="http://www.w3.org/2001/xml-events"
		width="4.75582in" height="3.96807in" viewBox="0 0 342.419 285.701" xml:space="preserve" color-interpolation-filters="sRGB"
		class="st4">
	<title>PD015A</title>

	<style type="text/css">
	<![CDATA[
		.st1 {fill:none;stroke:#000000;stroke-linecap:round;stroke-linejoin:round;stroke-width:2.25}
		.st2 {fill:none}
		.st3 {stroke:#000000;stroke-linecap:round;stroke-linejoin:round;stroke-width:2.25}
		.st4 {fill:none;fill-rule:evenodd;font-size:12px;overflow:visible;stroke-linecap:square;stroke-miterlimit:3}
	]]>
	</style>

	<g>
		<title>Page-1</title>
		<g id="group1527-1" transform="translate(1.125,-1.125)">
			<title>STPD016.221</title>
			<g id="shape1528-2" transform="translate(56.7067,-56.6902)">
				<title>Sheet.1528</title>
				<ellipse cx="113.38" cy="172.32" rx="113.38" ry="113.38" class="st1"/>
			</g>
			<g id="shape1529-4" transform="translate(283.462,-170.06)">
				<title>Sheet.1529</title>
				<path d="M0 285.7 L56.69 285.7 L56.69 285.7 L0 285.7 Z" class="st2"/>
				<path d="M0 285.7 L56.69 285.7 L56.69 285.7" class="st3"/>
			</g>
			<g id="shape1530-7" transform="translate(3.35731E-13,-170.06)">
				<title>Sheet.1530</title>
				<path d="M56.69 285.7 L0 285.7 L0 285.7 L56.69 285.7 Z" class="st2"/>
				<path d="M56.69 285.7 L0 285.7 L0 285.7" class="st3"/>
			</g>
			<g id="shape1531-10" transform="translate(0.00234349,0)">
				<title>Sheet.1531</title>
				<path d="M0.01 115.63 A170.078 170.078 -180 0 0 340.17 115.63 L0.01 115.63 Z" class="st2"/>
				<path d="M0.01 115.63 A170.078 170.078 -180 0 0 340.17 115.63" class="st3"/>
			</g>
		</g>
	</g>
</svg>
