<?xml version="1.0" encoding="UTF-8" standalone="no"?>
<!DOCTYPE svg PUBLIC "-//W3C//DTD SVG 1.1//EN" "http://www.w3.org/Graphics/SVG/1.1/DTD/svg11.dtd">
<!-- Generated by Microsoft Visio, SVG Export PD011A_Detail.svg Page-1 -->
<svg xmlns="http://www.w3.org/2000/svg" xmlns:xlink="http://www.w3.org/1999/xlink" xmlns:ev="http://www.w3.org/2001/xml-events"
		width="3.29045in" height="2.13276in" viewBox="0 0 236.912 153.559" xml:space="preserve" color-interpolation-filters="sRGB"
		class="st16">
	<title>PD011A</title>

	<style type="text/css">
	<![CDATA[
		.st1 {fill:#ffffff;stroke:#ff0000;stroke-linecap:round;stroke-linejoin:round;stroke-width:2.25}
		.st2 {fill:#ffffff}
		.st3 {stroke:#000000;stroke-linecap:round;stroke-linejoin:round;stroke-width:0.24}
		.st4 {marker-end:url(#mrkr13-9);stroke:#000000;stroke-linecap:round;stroke-linejoin:round;stroke-width:0.24}
		.st5 {fill:#000000;fill-opacity:1;stroke:#000000;stroke-opacity:1;stroke-width:0.11764705882353}
		.st6 {fill:#ffffff;stroke:none;stroke-linecap:butt;stroke-width:7.2}
		.st7 {fill:#000000;font-family:Calibri;font-size:0.666664em}
		.st8 {fill:none;stroke:none;stroke-linecap:round;stroke-linejoin:round;stroke-width:0.75}
		.st9 {fill:#ff0000;font-family:Arial Narrow;font-size:0.811964em;font-weight:bold}
		.st10 {baseline-shift:33.35%;font-size:0.667em}
		.st11 {fill:none;stroke:#ff0000;stroke-linecap:round;stroke-linejoin:round;stroke-width:0.75}
		.st12 {fill:#ff0000;font-family:Arial Narrow;font-size:0.833336em;font-weight:bold}
		.st13 {stroke:#000000;stroke-linecap:round;stroke-linejoin:round;stroke-width:2.25}
		.st14 {fill:none}
		.st15 {fill:#ffffff;stroke:none;stroke-linecap:butt}
		.st16 {fill:none;fill-rule:evenodd;font-size:12px;overflow:visible;stroke-linecap:square;stroke-miterlimit:3}
	]]>
	</style>

	<defs id="Markers">
		<g id="lend13">
			<path d="M 3 1 L 0 0 L 3 -1 L 3 1 " style="stroke:none"/>
		</g>
		<marker id="mrkr13-9" class="st5" refX="-25.5" orient="auto" markerUnits="strokeWidth" overflow="visible">
			<use xlink:href="#lend13" transform="scale(-8.5000000000001,-8.5000000000001) "/>
		</marker>
	</defs>
	<g>
		<title>Page-1</title>
		<g id="shape1405-1" transform="translate(1.125,-78.6851)">
			<title>Circle.1412</title>
			<path d="M0 146.99 A6.56444 6.56444 0 0 1 13.13 146.99 A6.56444 6.56444 0 1 1 0 146.99 Z" class="st1"/>
		</g>
		<g id="shape1411-3" transform="translate(52.5558,125.099) rotate(-90)">
			<title>Vertical.1015</title>
			<desc>4mm</desc>
			<path d="M0 125.72 L0 149.56 L0 125.72 ZM56.79 125.72 L56.79 177.91 L56.79 125.72 Z" class="st2"/>
			<path d="M0 125.72 L0 149.56 L0 125.72" class="st3"/>
			<path d="M56.79 125.72 L56.79 177.91 L56.79 125.72" class="st3"/>
			<path d="M28.39 133.72 L6.12 133.72" class="st4"/>
			<path d="M28.39 133.72 L50.67 133.72" class="st4"/>
			<rect x="19.9771" y="122.115" width="16.8357" height="9.59985" class="st6"/>
			<text x="19.98" y="129.31" class="st7">4mm</text>		</g>
		<g id="group1423-16" transform="translate(33.8942,-0.210198)">
			<title>Sheet.1423</title>
			<g id="group1424-17">
				<title>Sheet.1424</title>
				<g id="shape1425-18" transform="translate(0,-4.47576)">
					<title>Sheet.1425</title>
					<desc>A</desc>
					<rect x="0" y="139.386" width="13.2348" height="14.1732" class="st8"/>
					<text x="4" y="153.08" class="st9"><tspan class="st10">A</tspan></text>				</g>
			</g>
			<g id="group1426-22" transform="translate(2.14166,-0.0824008)">
				<title>Sheet.1426</title>
				<g id="shape1427-23" transform="translate(7.92226E-06,-0.0824008)">
					<title>Sheet.1427</title>
					<desc>1</desc>
					<rect x="0" y="139.386" width="85.0394" height="14.1732" class="st11"/>
					<text x="40.24" y="149.47" class="st12">1</text>				</g>
			</g>
		</g>
		<g id="shape1469-26" transform="translate(7.68943,-119.265)">
			<title>Horizontal</title>
			<desc>10mm</desc>
			<path d="M0 125.72 L0 149.56 L0 125.72 ZM141.73 125.72 L141.73 159.7 L141.73 125.72 Z" class="st2"/>
			<path d="M0 125.72 L0 149.56 L0 125.72" class="st3"/>
			<path d="M141.73 125.72 L141.73 159.7 L141.73 125.72" class="st3"/>
			<path d="M70.87 133.72 L6.12 133.72" class="st4"/>
			<path d="M70.87 133.72 L135.61 133.72" class="st4"/>
			<rect x="60.4209" y="122.115" width="20.8905" height="9.59985" class="st6"/>
			<text x="60.42" y="129.31" class="st7">10mm</text>		</g>
		<g id="group1470-38" transform="translate(7.68944,-28.5567)">
			<title>STPD012.163</title>
			<g id="shape1471-39" transform="translate(-11.8266,125.212) rotate(-90)">
				<title>Sheet.1471</title>
				<path d="M0 153.56 L28.35 153.56" class="st13"/>
			</g>
			<g id="shape1472-42" transform="translate(-6.39488E-14,-56.6929)">
				<title>Sheet.1472</title>
				<path d="M0 153.56 L113.39 153.56" class="st13"/>
			</g>
			<g id="shape1473-45">
				<title>Sheet.1473</title>
				<path d="M0 153.56 L113.39 153.56" class="st13"/>
			</g>
			<g id="shape1474-48" transform="translate(0,-28.3465)">
				<title>Sheet.1474</title>
				<path d="M0 153.56 L56.69 153.56 L141.73 153.56 L141.73 153.56 L0 153.56 Z" class="st14"/>
				<path d="M0 153.56 L56.69 153.56 L141.73 153.56 L141.73 153.56" class="st13"/>
			</g>
		</g>
		<g id="shape1476-51" transform="translate(7.68943,-103.899)">
			<title>Horizontal.1476</title>
			<desc>8mm</desc>
			<path d="M0 125.72 L0 149.56 L0 125.72 ZM113.39 125.72 L113.39 154.13 L113.39 125.72 Z" class="st2"/>
			<path d="M0 125.72 L0 149.56 L0 125.72" class="st3"/>
			<path d="M113.39 125.72 L113.39 154.13 L113.39 125.72" class="st3"/>
			<path d="M56.69 133.72 L6.12 133.72" class="st4"/>
			<path d="M56.69 133.72 L107.27 133.72" class="st4"/>
			<rect x="48.275" y="122.115" width="16.8357" height="9.59985" class="st15"/>
			<text x="48.28" y="129.31" class="st7">8mm</text>		</g>
	</g>
</svg>
