<?xml version="1.0" encoding="UTF-8" standalone="no"?>
<!DOCTYPE svg PUBLIC "-//W3C//DTD SVG 1.1//EN" "http://www.w3.org/Graphics/SVG/1.1/DTD/svg11.dtd">
<!-- Generated by Microsoft Visio, SVG Export PD016A.svg Page-1 -->
<svg xmlns="http://www.w3.org/2000/svg" xmlns:xlink="http://www.w3.org/1999/xlink" xmlns:ev="http://www.w3.org/2001/xml-events"
		width="4.74055in" height="3.56328in" viewBox="0 0 341.32 256.556" xml:space="preserve" color-interpolation-filters="sRGB"
		class="st4">
	<title>PD016A</title>

	<style type="text/css">
	<![CDATA[
		.st1 {fill:none}
		.st2 {stroke:#000000;stroke-linecap:round;stroke-linejoin:round;stroke-width:2.25}
		.st3 {fill:none;stroke:#000000;stroke-linecap:round;stroke-linejoin:round;stroke-width:2.25}
		.st4 {fill:none;fill-rule:evenodd;font-size:12px;overflow:visible;stroke-linecap:square;stroke-miterlimit:3}
	]]>
	</style>

	<g>
		<title>Page-1</title>
		<g id="group1533-1" transform="translate(1.125,-1.125)">
			<title>STPD017.226</title>
			<g id="shape1534-2">
				<title>Sheet.1534</title>
				<path d="M339.07 129.4 L310.81 129.4 L310.81 256.56 L28.26 256.56 L28.26 129.4 L0 129.4 L0 129.4 L339.07 129.4 Z"
						class="st1"/>
				<path d="M339.07 129.4 L310.81 129.4 L310.81 256.56 L28.26 256.56 L28.26 129.4 L0 129.4 L0 129.4" class="st2"/>
			</g>
			<g id="shape1535-5" transform="translate(-6.79456E-13,-141.28)">
				<title>Sheet.1535</title>
				<path d="M0 256.56 L56.52 256.56 L56.52 256.56 L0 256.56 Z" class="st1"/>
				<path d="M0 256.56 L56.52 256.56 L56.52 256.56" class="st2"/>
			</g>
			<g id="shape1536-8" transform="translate(282.56,-141.28)">
				<title>Sheet.1536</title>
				<path d="M56.51 256.56 L0 256.56 L0 256.56 L56.51 256.56 Z" class="st1"/>
				<path d="M56.51 256.56 L0 256.56 L0 256.56" class="st2"/>
			</g>
			<g id="shape1537-11" transform="translate(56.5102,-103.791)">
				<title>Sheet.1537</title>
				<path d="M-0 219.06 A171.872 171.872 -180 0 0 226.04 219.06 L-0 219.06 Z" class="st1"/>
				<path d="M-0 219.06 A171.872 171.872 -180 0 0 226.04 219.06" class="st2"/>
			</g>
			<g id="shape1538-14" transform="translate(155.402,-226.051)">
				<title>Sheet.1538</title>
				<ellipse cx="14.1274" cy="242.429" rx="14.1274" ry="14.1274" class="st3"/>
			</g>
			<g id="shape1539-16" transform="translate(158.284,-98.8971)">
				<title>Sheet.1539</title>
				<path d="M11.25 256.56 A120.37 120.37 -180 0 0 -0 123.92 L11.25 256.56 Z" class="st1"/>
				<path d="M11.25 256.56 A120.37 120.37 -180 0 0 -0 123.92" class="st2"/>
			</g>
		</g>
	</g>
</svg>
