<?xml version="1.0" encoding="UTF-8" standalone="no"?>
<!DOCTYPE svg PUBLIC "-//W3C//DTD SVG 1.1//EN" "http://www.w3.org/Graphics/SVG/1.1/DTD/svg11.dtd">
<!-- Generated by Microsoft Visio, SVG Export PD013A_Detail.svg Page-1 -->
<svg xmlns="http://www.w3.org/2000/svg" xmlns:xlink="http://www.w3.org/1999/xlink" xmlns:ev="http://www.w3.org/2001/xml-events"
		width="3.64747in" height="3.37468in" viewBox="0 0 262.618 242.977" xml:space="preserve" color-interpolation-filters="sRGB"
		class="st16">
	<title>PD013A</title>

	<style type="text/css">
	<![CDATA[
		.st1 {fill:#ffffff;stroke:#ff0000;stroke-linecap:round;stroke-linejoin:round;stroke-width:2.25}
		.st2 {fill:#ffffff}
		.st3 {stroke:#000000;stroke-linecap:round;stroke-linejoin:round;stroke-width:0.24}
		.st4 {marker-end:url(#mrkr13-9);stroke:#000000;stroke-linecap:round;stroke-linejoin:round;stroke-width:0.24}
		.st5 {fill:#000000;fill-opacity:1;stroke:#000000;stroke-opacity:1;stroke-width:0.11764705882353}
		.st6 {fill:#ffffff;stroke:none;stroke-linecap:butt;stroke-width:7.2}
		.st7 {fill:#000000;font-family:Calibri;font-size:0.666664em}
		.st8 {fill:none;stroke:none;stroke-linecap:round;stroke-linejoin:round;stroke-width:0.75}
		.st9 {fill:#ff0000;font-family:Arial Narrow;font-size:0.811964em;font-weight:bold}
		.st10 {baseline-shift:33.35%;font-size:0.667em}
		.st11 {fill:none;stroke:#ff0000;stroke-linecap:round;stroke-linejoin:round;stroke-width:0.75}
		.st12 {fill:#ff0000;font-family:Arial Narrow;font-size:0.833336em;font-weight:bold}
		.st13 {fill:#ffffff;stroke:none;stroke-linecap:butt}
		.st14 {stroke:#000000;stroke-linecap:round;stroke-linejoin:round;stroke-width:2.25}
		.st15 {fill:none;stroke:#000000;stroke-linecap:round;stroke-linejoin:round;stroke-width:2.25}
		.st16 {fill:none;fill-rule:evenodd;font-size:12px;overflow:visible;stroke-linecap:square;stroke-miterlimit:3}
	]]>
	</style>

	<defs id="Markers">
		<g id="lend13">
			<path d="M 3 1 L 0 0 L 3 -1 L 3 1 " style="stroke:none"/>
		</g>
		<marker id="mrkr13-9" class="st5" refX="-25.5" orient="auto" markerUnits="strokeWidth" overflow="visible">
			<use xlink:href="#lend13" transform="scale(-8.5000000000001,-8.5000000000001) "/>
		</marker>
	</defs>
	<g>
		<title>Page-1</title>
		<g id="shape1405-1" transform="translate(42.4063,-177.898)">
			<title>Circle.1412</title>
			<path d="M0 236.41 A6.56444 6.56444 0 0 1 13.13 236.41 A6.56444 6.56444 0 1 1 0 236.41 Z" class="st1"/>
		</g>
		<g id="shape1411-3" transform="translate(-38.1008,143.651) rotate(-90)">
			<title>Vertical.1015</title>
			<desc>6mm</desc>
			<path d="M0 215.13 L0 238.98 L0 215.13 ZM85.04 215.13 L85.04 259.95 L85.04 215.13 Z" class="st2"/>
			<path d="M0 215.13 L0 238.98 L0 215.13" class="st3"/>
			<path d="M85.04 215.13 L85.04 259.95 L85.04 215.13" class="st3"/>
			<path d="M42.52 223.13 L6.12 223.13" class="st4"/>
			<path d="M42.52 223.13 L78.92 223.13" class="st4"/>
			<rect x="34.1018" y="211.533" width="16.8357" height="9.59985" class="st6"/>
			<text x="34.1" y="218.73" class="st7">6mm</text>		</g>
		<g id="group1423-16" transform="translate(33.7267,-0.210198)">
			<title>Sheet.1423</title>
			<g id="group1424-17">
				<title>Sheet.1424</title>
				<g id="shape1425-18" transform="translate(0,-4.47576)">
					<title>Sheet.1425</title>
					<desc>A</desc>
					<rect x="0" y="228.804" width="13.2348" height="14.1732" class="st8"/>
					<text x="4" y="242.5" class="st9"><tspan class="st10">A</tspan></text>				</g>
			</g>
			<g id="group1426-22" transform="translate(2.14166,-0.0824008)">
				<title>Sheet.1426</title>
				<g id="shape1427-23" transform="translate(7.92226E-06,-0.0824008)">
					<title>Sheet.1427</title>
					<desc>1</desc>
					<rect x="0" y="228.804" width="85.0394" height="14.1732" class="st11"/>
					<text x="40.24" y="238.89" class="st12">1</text>				</g>
			</g>
		</g>
		<g id="shape1469-26" transform="translate(6.45105,-208.683)">
			<title>Horizontal</title>
			<desc>10mm</desc>
			<path d="M0 215.13 L0 238.98 L0 215.13 ZM141.73 215.13 L141.73 249.12 L141.73 215.13 Z" class="st2"/>
			<path d="M0 215.13 L0 238.98 L0 215.13" class="st3"/>
			<path d="M141.73 215.13 L141.73 249.12 L141.73 215.13" class="st3"/>
			<path d="M70.87 223.13 L6.12 223.13" class="st4"/>
			<path d="M70.87 223.13 L135.61 223.13" class="st4"/>
			<rect x="60.4209" y="211.533" width="20.8905" height="9.59985" class="st13"/>
			<text x="60.42" y="218.73" class="st7">10mm</text>		</g>
		<g id="shape1476-38" transform="translate(48.9707,-189.035)">
			<title>Horizontal.1476</title>
			<desc>4mm</desc>
			<path d="M0 215.13 L0 238.98 L0 215.13 ZM56.69 215.13 L56.69 235.05 L56.69 215.13 Z" class="st2"/>
			<path d="M0 215.13 L0 238.98 L0 215.13" class="st3"/>
			<path d="M56.69 215.13 L56.69 235.05 L56.69 215.13" class="st3"/>
			<path d="M28.35 223.13 L6.12 223.13" class="st4"/>
			<path d="M28.35 223.13 L50.57 223.13" class="st4"/>
			<rect x="19.9286" y="211.533" width="16.8357" height="9.59985" class="st6"/>
			<text x="19.93" y="218.73" class="st7">4mm</text>		</g>
		<g id="group1477-50" transform="translate(7.51403,-29.4033)">
			<title>STPD014.174</title>
			<g id="shape1478-51" transform="translate(-102.008,29.2844) rotate(-45)">
				<title>Sheet.1478</title>
				<path d="M0 242.98 L39.49 242.98" class="st14"/>
			</g>
			<g id="shape1479-54">
				<title>Sheet.1479</title>
				<path d="M41.88 89.41 L97.72 89.41 L97.72 173.17 L139.61 215.04 L111.69 242.98 L69.78 201.1 L27.92 242.98 L0 215.08
							 L41.88 173.17 L41.88 89.41 L41.88 89.41 Z" class="st15"/>
			</g>
			<g id="shape1480-56" transform="translate(59.3303,-31.427)">
				<title>Sheet.1480</title>
				<ellipse cx="10.465" cy="232.512" rx="10.465" ry="10.465" class="st15"/>
			</g>
			<g id="shape1481-58" transform="translate(65.582,-51.4455)">
				<title>Sheet.1481</title>
				<path d="M0 242.98 L8.45 242.98" class="st14"/>
			</g>
			<g id="shape1482-61" transform="translate(62.4931,-49.3569)">
				<title>Sheet.1482</title>
				<path d="M0 242.98 L14.61 242.98" class="st14"/>
			</g>
			<g id="shape1483-64" transform="translate(60.8442,-47.2683)">
				<title>Sheet.1483</title>
				<path d="M0 242.98 L17.91 242.98" class="st14"/>
			</g>
			<g id="shape1484-67" transform="translate(59.8768,-45.1797)">
				<title>Sheet.1484</title>
				<path d="M0 242.98 L19.83 242.98" class="st14"/>
			</g>
			<g id="shape1485-70" transform="translate(59.4041,-43.0911)">
				<title>Sheet.1485</title>
				<path d="M0 242.98 L20.78 242.98" class="st14"/>
			</g>
			<g id="shape1486-73" transform="translate(59.3931,-41.0025)">
				<title>Sheet.1486</title>
				<path d="M0 242.98 L20.83 242.98" class="st14"/>
			</g>
			<g id="shape1487-76" transform="translate(59.7779,-38.9139)">
				<title>Sheet.1487</title>
				<path d="M0 242.98 L20.03 242.98" class="st14"/>
			</g>
			<g id="shape1488-79" transform="translate(60.6463,-36.8253)">
				<title>Sheet.1488</title>
				<path d="M0 242.98 L18.29 242.98" class="st14"/>
			</g>
			<g id="shape1489-82" transform="translate(62.1743,-34.7367)">
				<title>Sheet.1489</title>
				<path d="M0 242.98 L15.24 242.98" class="st14"/>
			</g>
			<g id="shape1490-85" transform="translate(64.9224,-32.6481)">
				<title>Sheet.1490</title>
				<path d="M0 242.98 L9.76 242.98" class="st14"/>
			</g>
		</g>
		<g id="shape1491-88" transform="translate(-9.75431,214.517) rotate(-90)">
			<title>Vertical.1491</title>
			<desc>21mm</desc>
			<path d="M0 215.13 L0 238.98 L0 215.13 ZM155.91 215.13 L155.91 265.92 L155.91 215.13 Z" class="st2"/>
			<path d="M0 215.13 L0 238.98 L0 215.13" class="st3"/>
			<path d="M155.91 215.13 L155.91 265.92 L155.91 215.13" class="st3"/>
			<path d="M77.95 223.13 L6.12 223.13" class="st4"/>
			<path d="M77.95 223.13 L149.79 223.13" class="st4"/>
			<rect x="67.5075" y="211.533" width="20.8905" height="9.59985" class="st13"/>
			<text x="67.51" y="218.73" class="st7">21mm</text>		</g>
	</g>
</svg>
