<?xml version="1.0" encoding="UTF-8" standalone="no"?>
<!DOCTYPE svg PUBLIC "-//W3C//DTD SVG 1.1//EN" "http://www.w3.org/Graphics/SVG/1.1/DTD/svg11.dtd">
<!-- Generated by Microsoft Visio, SVG Export PE003A.svg Page-1 -->
<svg xmlns="http://www.w3.org/2000/svg" xmlns:xlink="http://www.w3.org/1999/xlink" xmlns:ev="http://www.w3.org/2001/xml-events"
		width="2.39626in" height="1.19586in" viewBox="0 0 172.531 86.1022" xml:space="preserve" color-interpolation-filters="sRGB"
		class="st3">
	<title>PE003A</title>

	<style type="text/css">
	<![CDATA[
		.st1 {stroke:#000000;stroke-linecap:round;stroke-linejoin:round;stroke-width:2.25}
		.st2 {fill:none}
		.st3 {fill:none;fill-rule:evenodd;font-size:12px;overflow:visible;stroke-linecap:square;stroke-miterlimit:3}
	]]>
	</style>

	<g>
		<title>Page-1</title>
		<g id="group1512-1" transform="translate(1.125,-1.125)">
			<title>Sheet.1512</title>
			<g id="shape1423-2" transform="translate(-71.9205,53.8538) rotate(-90)">
				<title>Sheet.1423</title>
				<path d="M0 86.1 L20.44 86.1" class="st1"/>
			</g>
			<g id="shape1424-5" transform="translate(86.1022,3.1644) rotate(90)">
				<title>Sheet.1424</title>
				<path d="M0 86.1 L82.2 86.1" class="st1"/>
			</g>
			<g id="shape1425-8" transform="translate(0.100265,1.15108E-12)">
				<title>Sheet.1425</title>
				<path d="M0 86.1 L170.18 86.1" class="st1"/>
			</g>
			<g id="shape1427-11" transform="translate(-36.4662,53.8538) rotate(-90)">
				<title>Sheet.1427</title>
				<path d="M0 86.1 L20.44 86.1" class="st1"/>
			</g>
			<g id="shape1428-14" transform="translate(-1.01184,53.8538) rotate(-90)">
				<title>Sheet.1428</title>
				<path d="M0 86.1 L20.44 86.1" class="st1"/>
			</g>
			<g id="shape1429-17" transform="translate(171.193,63.563) rotate(90)">
				<title>Sheet.1429</title>
				<path d="M0 86.1 L13.63 86.1" class="st1"/>
			</g>
			<g id="shape1430-20" transform="translate(-36.4662,77.1881) rotate(-90)">
				<title>Sheet.1430</title>
				<path d="M0 86.1 L13.63 86.1" class="st1"/>
			</g>
			<g id="shape1432-23" transform="translate(170.281,88.3522) rotate(180)">
				<title>Sheet.1432</title>
				<path d="M0 86.1 L170.18 86.1" class="st1"/>
			</g>
			<g id="shape1435-26" transform="translate(135.738,9.06255) rotate(90)">
				<title>Sheet.1435</title>
				<path d="M0 86.1 L13.63 86.1" class="st1"/>
			</g>
			<g id="shape1437-29" transform="translate(84.0785,85.3691) rotate(-90)">
				<title>Sheet.1437</title>
				<path d="M0 86.1 L82.2 86.1" class="st1"/>
			</g>
			<g id="shape1438-32" transform="translate(69.8968,53.8538) rotate(-90)">
				<title>Sheet.1438</title>
				<path d="M0 86.1 L20.44 86.1" class="st1"/>
			</g>
			<g id="shape1440-35" transform="translate(206.647,9.06255) rotate(90)">
				<title>Sheet.1440</title>
				<path d="M0 86.1 L13.63 86.1" class="st1"/>
			</g>
			<g id="shape1441-38" transform="translate(34.4425,53.8538) rotate(-90)">
				<title>Sheet.1441</title>
				<path d="M0 86.1 L20.44 86.1" class="st1"/>
			</g>
			<g id="shape1445-41" transform="translate(69.8968,77.1881) rotate(-90)">
				<title>Sheet.1445</title>
				<path d="M0 86.1 L13.63 86.1" class="st1"/>
			</g>
			<g id="shape1451-44" transform="translate(171.193,9.06255) rotate(90)">
				<title>Sheet.1451</title>
				<path d="M0 86.1 L13.63 86.1" class="st1"/>
			</g>
			<g id="shape1453-47" transform="translate(34.4425,77.1881) rotate(-90)">
				<title>Sheet.1453</title>
				<path d="M0 86.1 L13.63 86.1" class="st1"/>
			</g>
			<g id="shape1456-50" transform="translate(242.101,9.06255) rotate(90)">
				<title>Sheet.1456</title>
				<path d="M0 86.1 L13.63 86.1" class="st1"/>
			</g>
			<g id="shape1462-53" transform="translate(100.284,9.06255) rotate(90)">
				<title>Sheet.1462</title>
				<path d="M0 86.1 L13.63 86.1" class="st1"/>
			</g>
			<g id="shape1464-56" transform="translate(-71.9205,77.1881) rotate(-90)">
				<title>Sheet.1464</title>
				<path d="M0 86.1 L13.63 86.1" class="st1"/>
			</g>
			<g id="shape1471-59" transform="translate(49.0204,-79.1948)">
				<title>Sheet.1471</title>
				<path d="M70.79 86.1 A11.1813 11.1813 -180 0 0 65.12 82.01 L70.79 86.1 Z" class="st2"/>
				<path d="M70.79 86.1 A11.1813 11.1813 -180 0 0 65.12 82.01" class="st1"/>
			</g>
			<g id="shape1472-62" transform="translate(13.5661,-79.1948)">
				<title>Sheet.1472</title>
				<path d="M141.7 86.1 A11.1813 11.1813 -180 0 0 136.03 82.01 L141.7 86.1 Z" class="st2"/>
				<path d="M141.7 86.1 A11.1813 11.1813 -180 0 0 136.03 82.01" class="st1"/>
			</g>
			<g id="shape1473-65" transform="translate(42.7796,-79.7645)">
				<title>Sheet.1473</title>
				<path d="M5.67 86.1 A18.0365 18.0365 -180 0 0 0 82.01 L5.67 86.1 Z" class="st2"/>
				<path d="M5.67 86.1 A18.0365 18.0365 -180 0 0 0 82.01" class="st1"/>
			</g>
			<g id="shape1474-68" transform="translate(155.383,-79.1948)">
				<title>Sheet.1474</title>
				<path d="M-141.93 86.1 A11.1813 11.1813 -180 0 0 -147.61 82.01 L-141.93 86.1 Z" class="st2"/>
				<path d="M-141.93 86.1 A11.1813 11.1813 -180 0 0 -147.61 82.01" class="st1"/>
			</g>
			<g id="shape1475-71" transform="translate(149.723,-79.0778)">
				<title>Sheet.1475</title>
				<path d="M5.67 86.1 A18.0365 18.0365 -180 0 0 0 82.01 L5.67 86.1 Z" class="st2"/>
				<path d="M5.67 86.1 A18.0365 18.0365 -180 0 0 0 82.01" class="st1"/>
			</g>
			<g id="shape1476-74" transform="translate(114.358,-79.2917)">
				<title>Sheet.1476</title>
				<path d="M5.67 86.1 A18.0365 18.0365 -180 0 0 0 82.01 L5.67 86.1 Z" class="st2"/>
				<path d="M5.67 86.1 A18.0365 18.0365 -180 0 0 0 82.01" class="st1"/>
			</g>
			<g id="shape1477-77" transform="translate(119.929,-79.1948)">
				<title>Sheet.1477</title>
				<path d="M-71.03 86.1 A11.1813 11.1813 -180 0 0 -76.7 82.01 L-71.03 86.1 Z" class="st2"/>
				<path d="M-71.03 86.1 A11.1813 11.1813 -180 0 0 -76.7 82.01" class="st1"/>
			</g>
			<g id="shape1478-80" transform="translate(7.54793,-78.6799)">
				<title>Sheet.1478</title>
				<path d="M5.67 86.1 A18.0365 18.0365 -180 0 0 0 82.01 L5.67 86.1 Z" class="st2"/>
				<path d="M5.67 86.1 A18.0365 18.0365 -180 0 0 0 82.01" class="st1"/>
			</g>
			<g id="shape1479-83" transform="translate(84.4748,-79.1948)">
				<title>Sheet.1479</title>
				<path d="M-0.12 86.1 A11.1813 11.1813 -180 0 0 -5.79 82.01 L-0.12 86.1 Z" class="st2"/>
				<path d="M-0.12 86.1 A11.1813 11.1813 -180 0 0 -5.79 82.01" class="st1"/>
			</g>
			<g id="shape1480-86" transform="translate(78.2339,-79.7645)">
				<title>Sheet.1480</title>
				<path d="M5.67 86.1 A18.0365 18.0365 -180 0 0 0 82.01 L5.67 86.1 Z" class="st2"/>
				<path d="M5.67 86.1 A18.0365 18.0365 -180 0 0 0 82.01" class="st1"/>
			</g>
			<g id="shape1481-89" transform="translate(122.689,-79.1948) scale(-1,1)">
				<title>Sheet.1481</title>
				<path d="M70.79 86.1 A11.1813 11.1813 -180 0 0 65.12 82.01 L70.79 86.1 Z" class="st2"/>
				<path d="M70.79 86.1 A11.1813 11.1813 -180 0 0 65.12 82.01" class="st1"/>
			</g>
			<g id="shape1482-92" transform="translate(158.143,-79.1948) scale(-1,1)">
				<title>Sheet.1482</title>
				<path d="M141.7 86.1 A11.1813 11.1813 -180 0 0 136.03 82.01 L141.7 86.1 Z" class="st2"/>
				<path d="M141.7 86.1 A11.1813 11.1813 -180 0 0 136.03 82.01" class="st1"/>
			</g>
			<g id="shape1483-95" transform="translate(128.93,-79.7645) scale(-1,1)">
				<title>Sheet.1483</title>
				<path d="M5.67 86.1 A18.0365 18.0365 -180 0 0 0 82.01 L5.67 86.1 Z" class="st2"/>
				<path d="M5.67 86.1 A18.0365 18.0365 -180 0 0 0 82.01" class="st1"/>
			</g>
			<g id="shape1484-98" transform="translate(16.3258,-79.1948) scale(-1,1)">
				<title>Sheet.1484</title>
				<path d="M-141.93 86.1 A11.1813 11.1813 -180 0 0 -147.61 82.01 L-141.93 86.1 Z" class="st2"/>
				<path d="M-141.93 86.1 A11.1813 11.1813 -180 0 0 -147.61 82.01" class="st1"/>
			</g>
			<g id="shape1485-101" transform="translate(21.9866,-79.0778) scale(-1,1)">
				<title>Sheet.1485</title>
				<path d="M5.67 86.1 A18.0365 18.0365 -180 0 0 0 82.01 L5.67 86.1 Z" class="st2"/>
				<path d="M5.67 86.1 A18.0365 18.0365 -180 0 0 0 82.01" class="st1"/>
			</g>
			<g id="shape1486-104" transform="translate(57.3516,-79.2917) scale(-1,1)">
				<title>Sheet.1486</title>
				<path d="M5.67 86.1 A18.0365 18.0365 -180 0 0 0 82.01 L5.67 86.1 Z" class="st2"/>
				<path d="M5.67 86.1 A18.0365 18.0365 -180 0 0 0 82.01" class="st1"/>
			</g>
			<g id="shape1487-107" transform="translate(51.7801,-79.1948) scale(-1,1)">
				<title>Sheet.1487</title>
				<path d="M-71.03 86.1 A11.1813 11.1813 -180 0 0 -76.7 82.01 L-71.03 86.1 Z" class="st2"/>
				<path d="M-71.03 86.1 A11.1813 11.1813 -180 0 0 -76.7 82.01" class="st1"/>
			</g>
			<g id="shape1488-110" transform="translate(164.161,-78.6799) scale(-1,1)">
				<title>Sheet.1488</title>
				<path d="M5.67 86.1 A18.0365 18.0365 -180 0 0 0 82.01 L5.67 86.1 Z" class="st2"/>
				<path d="M5.67 86.1 A18.0365 18.0365 -180 0 0 0 82.01" class="st1"/>
			</g>
			<g id="shape1489-113" transform="translate(87.2344,-79.1948) scale(-1,1)">
				<title>Sheet.1489</title>
				<path d="M-0.12 86.1 A11.1813 11.1813 -180 0 0 -5.79 82.01 L-0.12 86.1 Z" class="st2"/>
				<path d="M-0.12 86.1 A11.1813 11.1813 -180 0 0 -5.79 82.01" class="st1"/>
			</g>
			<g id="shape1490-116" transform="translate(93.4753,-79.7645) scale(-1,1)">
				<title>Sheet.1490</title>
				<path d="M5.67 86.1 A18.0365 18.0365 -180 0 0 0 82.01 L5.67 86.1 Z" class="st2"/>
				<path d="M5.67 86.1 A18.0365 18.0365 -180 0 0 0 82.01" class="st1"/>
			</g>
			<g id="shape1492-119" transform="translate(46.7757,167.09) scale(1,-1)">
				<title>Sheet.1492</title>
				<path d="M70.79 86.1 A11.1813 11.1813 -180 0 0 65.12 82.01 L70.79 86.1 Z" class="st2"/>
				<path d="M70.79 86.1 A11.1813 11.1813 -180 0 0 65.12 82.01" class="st1"/>
			</g>
			<g id="shape1493-122" transform="translate(11.3213,167.09) scale(1,-1)">
				<title>Sheet.1493</title>
				<path d="M141.7 86.1 A11.1813 11.1813 -180 0 0 136.03 82.01 L141.7 86.1 Z" class="st2"/>
				<path d="M141.7 86.1 A11.1813 11.1813 -180 0 0 136.03 82.01" class="st1"/>
			</g>
			<g id="shape1494-125" transform="translate(40.5348,167.66) scale(1,-1)">
				<title>Sheet.1494</title>
				<path d="M5.67 86.1 A18.0365 18.0365 -180 0 0 0 82.01 L5.67 86.1 Z" class="st2"/>
				<path d="M5.67 86.1 A18.0365 18.0365 -180 0 0 0 82.01" class="st1"/>
			</g>
			<g id="shape1495-128" transform="translate(153.139,167.09) scale(1,-1)">
				<title>Sheet.1495</title>
				<path d="M-141.93 86.1 A11.1813 11.1813 -180 0 0 -147.61 82.01 L-141.93 86.1 Z" class="st2"/>
				<path d="M-141.93 86.1 A11.1813 11.1813 -180 0 0 -147.61 82.01" class="st1"/>
			</g>
			<g id="shape1496-131" transform="translate(147.478,166.973) scale(1,-1)">
				<title>Sheet.1496</title>
				<path d="M5.67 86.1 A18.0365 18.0365 -180 0 0 0 82.01 L5.67 86.1 Z" class="st2"/>
				<path d="M5.67 86.1 A18.0365 18.0365 -180 0 0 0 82.01" class="st1"/>
			</g>
			<g id="shape1497-134" transform="translate(112.113,167.187) scale(1,-1)">
				<title>Sheet.1497</title>
				<path d="M5.67 86.1 A18.0365 18.0365 -180 0 0 0 82.01 L5.67 86.1 Z" class="st2"/>
				<path d="M5.67 86.1 A18.0365 18.0365 -180 0 0 0 82.01" class="st1"/>
			</g>
			<g id="shape1498-137" transform="translate(117.684,167.09) scale(1,-1)">
				<title>Sheet.1498</title>
				<path d="M-71.03 86.1 A11.1813 11.1813 -180 0 0 -76.7 82.01 L-71.03 86.1 Z" class="st2"/>
				<path d="M-71.03 86.1 A11.1813 11.1813 -180 0 0 -76.7 82.01" class="st1"/>
			</g>
			<g id="shape1499-140" transform="translate(5.30315,166.575) scale(1,-1)">
				<title>Sheet.1499</title>
				<path d="M5.67 86.1 A18.0365 18.0365 -180 0 0 0 82.01 L5.67 86.1 Z" class="st2"/>
				<path d="M5.67 86.1 A18.0365 18.0365 -180 0 0 0 82.01" class="st1"/>
			</g>
			<g id="shape1500-143" transform="translate(82.23,167.09) scale(1,-1)">
				<title>Sheet.1500</title>
				<path d="M-0.12 86.1 A11.1813 11.1813 -180 0 0 -5.79 82.01 L-0.12 86.1 Z" class="st2"/>
				<path d="M-0.12 86.1 A11.1813 11.1813 -180 0 0 -5.79 82.01" class="st1"/>
			</g>
			<g id="shape1501-146" transform="translate(75.9891,167.66) scale(1,-1)">
				<title>Sheet.1501</title>
				<path d="M5.67 86.1 A18.0365 18.0365 -180 0 0 0 82.01 L5.67 86.1 Z" class="st2"/>
				<path d="M5.67 86.1 A18.0365 18.0365 -180 0 0 0 82.01" class="st1"/>
			</g>
			<g id="shape1502-149" transform="translate(120.444,167.09) rotate(180)">
				<title>Sheet.1502</title>
				<path d="M70.79 86.1 A11.1813 11.1813 -180 0 0 65.12 82.01 L70.79 86.1 Z" class="st2"/>
				<path d="M70.79 86.1 A11.1813 11.1813 -180 0 0 65.12 82.01" class="st1"/>
			</g>
			<g id="shape1503-152" transform="translate(155.898,167.09) rotate(180)">
				<title>Sheet.1503</title>
				<path d="M141.7 86.1 A11.1813 11.1813 -180 0 0 136.03 82.01 L141.7 86.1 Z" class="st2"/>
				<path d="M141.7 86.1 A11.1813 11.1813 -180 0 0 136.03 82.01" class="st1"/>
			</g>
			<g id="shape1504-155" transform="translate(126.685,167.66) rotate(180)">
				<title>Sheet.1504</title>
				<path d="M5.67 86.1 A18.0365 18.0365 -180 0 0 0 82.01 L5.67 86.1 Z" class="st2"/>
				<path d="M5.67 86.1 A18.0365 18.0365 -180 0 0 0 82.01" class="st1"/>
			</g>
			<g id="shape1505-158" transform="translate(14.081,167.09) rotate(180)">
				<title>Sheet.1505</title>
				<path d="M-141.93 86.1 A11.1813 11.1813 -180 0 0 -147.61 82.01 L-141.93 86.1 Z" class="st2"/>
				<path d="M-141.93 86.1 A11.1813 11.1813 -180 0 0 -147.61 82.01" class="st1"/>
			</g>
			<g id="shape1506-161" transform="translate(19.7418,166.973) rotate(180)">
				<title>Sheet.1506</title>
				<path d="M5.67 86.1 A18.0365 18.0365 -180 0 0 0 82.01 L5.67 86.1 Z" class="st2"/>
				<path d="M5.67 86.1 A18.0365 18.0365 -180 0 0 0 82.01" class="st1"/>
			</g>
			<g id="shape1507-164" transform="translate(55.1068,167.187) rotate(180)">
				<title>Sheet.1507</title>
				<path d="M5.67 86.1 A18.0365 18.0365 -180 0 0 0 82.01 L5.67 86.1 Z" class="st2"/>
				<path d="M5.67 86.1 A18.0365 18.0365 -180 0 0 0 82.01" class="st1"/>
			</g>
			<g id="shape1508-167" transform="translate(49.5353,167.09) rotate(180)">
				<title>Sheet.1508</title>
				<path d="M-71.03 86.1 A11.1813 11.1813 -180 0 0 -76.7 82.01 L-71.03 86.1 Z" class="st2"/>
				<path d="M-71.03 86.1 A11.1813 11.1813 -180 0 0 -76.7 82.01" class="st1"/>
			</g>
			<g id="shape1509-170" transform="translate(161.916,166.575) rotate(180)">
				<title>Sheet.1509</title>
				<path d="M5.67 86.1 A18.0365 18.0365 -180 0 0 0 82.01 L5.67 86.1 Z" class="st2"/>
				<path d="M5.67 86.1 A18.0365 18.0365 -180 0 0 0 82.01" class="st1"/>
			</g>
			<g id="shape1510-173" transform="translate(84.9896,167.09) rotate(180)">
				<title>Sheet.1510</title>
				<path d="M-0.12 86.1 A11.1813 11.1813 -180 0 0 -5.79 82.01 L-0.12 86.1 Z" class="st2"/>
				<path d="M-0.12 86.1 A11.1813 11.1813 -180 0 0 -5.79 82.01" class="st1"/>
			</g>
			<g id="shape1511-176" transform="translate(91.2305,167.66) rotate(180)">
				<title>Sheet.1511</title>
				<path d="M5.67 86.1 A18.0365 18.0365 -180 0 0 0 82.01 L5.67 86.1 Z" class="st2"/>
				<path d="M5.67 86.1 A18.0365 18.0365 -180 0 0 0 82.01" class="st1"/>
			</g>
		</g>
	</g>
</svg>
