<?xml version="1.0" encoding="UTF-8" standalone="no"?>
<!DOCTYPE svg PUBLIC "-//W3C//DTD SVG 1.1//EN" "http://www.w3.org/Graphics/SVG/1.1/DTD/svg11.dtd">
<!-- Generated by Microsoft Visio, SVG Export PE001A_Detail.svg Page-1 -->
<svg xmlns="http://www.w3.org/2000/svg" xmlns:xlink="http://www.w3.org/1999/xlink" xmlns:ev="http://www.w3.org/2001/xml-events"
		width="2.47885in" height="1.86081in" viewBox="0 0 178.477 133.978" xml:space="preserve" color-interpolation-filters="sRGB"
		class="st15">
	<title>PE001A</title>

	<style type="text/css">
	<![CDATA[
		.st1 {fill:#ffffff;stroke:#ff0000;stroke-linecap:round;stroke-linejoin:round;stroke-width:2.25}
		.st2 {stroke:#000000;stroke-linecap:round;stroke-linejoin:round;stroke-width:2.25}
		.st3 {fill:#ffffff}
		.st4 {stroke:#000000;stroke-linecap:round;stroke-linejoin:round;stroke-width:0.24}
		.st5 {marker-end:url(#mrkr13-12);stroke:#000000;stroke-linecap:round;stroke-linejoin:round;stroke-width:0.24}
		.st6 {fill:#000000;fill-opacity:1;stroke:#000000;stroke-opacity:1;stroke-width:0.11764705882353}
		.st7 {fill:#ffffff;stroke:none;stroke-linecap:butt;stroke-width:7.2}
		.st8 {fill:#000000;font-family:Calibri;font-size:0.666664em}
		.st9 {stroke:#ff0000;stroke-linecap:round;stroke-linejoin:round;stroke-width:1.5}
		.st10 {fill:none;stroke:#ff0000;stroke-linecap:round;stroke-linejoin:round;stroke-width:0.75}
		.st11 {fill:#ff0000;font-family:Arial Narrow;font-size:0.833336em;font-weight:bold}
		.st12 {fill:none;stroke:none;stroke-linecap:round;stroke-linejoin:round;stroke-width:0.75}
		.st13 {fill:#ff0000;font-family:Arial Narrow;font-size:0.811964em;font-weight:bold}
		.st14 {baseline-shift:33.35%;font-size:0.667em}
		.st15 {fill:none;fill-rule:evenodd;font-size:12px;overflow:visible;stroke-linecap:square;stroke-miterlimit:3}
	]]>
	</style>

	<defs id="Markers">
		<g id="lend13">
			<path d="M 3 1 L 0 0 L 3 -1 L 3 1 " style="stroke:none"/>
		</g>
		<marker id="mrkr13-12" class="st6" refX="-25.5" orient="auto" markerUnits="strokeWidth" overflow="visible">
			<use xlink:href="#lend13" transform="scale(-8.5000000000001,-8.5000000000001) "/>
		</marker>
	</defs>
	<g>
		<title>Page-1</title>
		<g id="shape1405-1" transform="translate(70.2488,-50.4065)">
			<title>Circle.1412</title>
			<path d="M0 127.41 A6.56444 6.56444 0 0 1 13.13 127.41 A6.56444 6.56444 0 1 1 0 127.41 Z" class="st1"/>
		</g>
		<g id="shape1406-3" transform="translate(210.791,48.5638) rotate(90)">
			<title>Sheet.1406</title>
			<path d="M0 133.98 L56.89 133.98" class="st2"/>
		</g>
		<g id="shape1407-6" transform="translate(76.8133,-99.5876)">
			<title>Horizontal.1012</title>
			<desc>4 mm</desc>
			<path d="M0 106.04 L0 129.98 L0 106.04 ZM56.69 106.04 L56.69 130.17 L56.69 106.04 Z" class="st3"/>
			<path d="M0 106.04 L0 129.98 L0 106.04" class="st4"/>
			<path d="M56.69 106.04 L56.69 130.17 L56.69 106.04" class="st4"/>
			<path d="M28.35 114.04 L6.12 114.04" class="st5"/>
			<path d="M28.35 114.04 L50.57 114.04" class="st5"/>
			<rect x="19.0243" y="102.437" width="18.6443" height="9.59985" class="st7"/>
			<text x="19.02" y="109.64" class="st8">4 mm</text>		</g>
		<g id="shape1408-19" transform="translate(267.484,62.931) rotate(90)">
			<title>Sheet.1408</title>
			<path d="M0 133.98 L28.35 133.98" class="st2"/>
		</g>
		<g id="shape1409-22" transform="translate(100.594,192.804) rotate(-165.779)">
			<title>Sheet.1409</title>
			<path d="M0 133.98 L58.49 133.98" class="st2"/>
		</g>
		<g id="shape1410-25" transform="translate(166.001,221.255) rotate(165.964)">
			<title>Sheet.1410</title>
			<path d="M0 133.98 L58.44 133.98" class="st2"/>
		</g>
		<g id="shape1411-28" transform="translate(-99.6846,105.451) rotate(-90)">
			<title>Vertical.1015</title>
			<desc>4 mm</desc>
			<path d="M0 106.14 L0 129.98 L0 106.14 ZM56.79 106.14 L56.79 138.08 L56.79 106.14 Z" class="st3"/>
			<path d="M0 106.14 L0 129.98 L0 106.14" class="st4"/>
			<path d="M56.79 106.14 L56.79 138.08 L56.79 106.14" class="st4"/>
			<path d="M28.39 114.14 L6.12 114.14" class="st5"/>
			<path d="M28.39 114.14 L50.67 114.14" class="st5"/>
			<rect x="19.0728" y="102.534" width="18.6443" height="9.59985" class="st7"/>
			<text x="19.07" y="109.73" class="st8">4 mm</text>		</g>
		<g id="shape1412-40" transform="translate(42.0477,90.5315) rotate(-90)">
			<title>Vertical.1016</title>
			<desc>2 mm</desc>
			<path d="M0 106.14 L0 129.98 L0 106.14 ZM28.35 106.14 L28.35 129.98 L28.35 106.14 Z" class="st3"/>
			<path d="M0 106.14 L0 129.98 L0 106.14" class="st4"/>
			<path d="M28.35 106.14 L28.35 129.98 L28.35 106.14" class="st4"/>
			<path d="M-12 114.14 L-6.12 114.14" class="st5"/>
			<path d="M40.34 114.14 L34.47 114.14" class="st5"/>
			<rect x="4.85104" y="102.534" width="18.6443" height="9.59985" class="st7"/>
			<text x="4.85" y="109.73" class="st8">2 mm</text>		</g>
		<g id="group1413-52" transform="translate(69.7266,-49.9813)">
			<title>Sheet.1413</title>
			<g id="shape1414-53" transform="translate(108.91,214.542) rotate(135)">
				<title>Sheet.1414</title>
				<path d="M0 133.98 L20.04 133.98" class="st9"/>
			</g>
			<g id="shape1415-56" transform="translate(-80.5635,228.715) rotate(-135)">
				<title>Sheet.1415</title>
				<path d="M0 133.98 L20.04 133.98" class="st9"/>
			</g>
		</g>
		<g id="group1416-59" transform="translate(126.42,-49.9813)">
			<title>Sheet.1416</title>
			<g id="shape1417-60" transform="translate(108.91,214.542) rotate(135)">
				<title>Sheet.1417</title>
				<path d="M0 133.98 L20.04 133.98" class="st9"/>
			</g>
			<g id="shape1418-63" transform="translate(-80.5635,228.715) rotate(-135)">
				<title>Sheet.1418</title>
				<path d="M0 133.98 L20.04 133.98" class="st9"/>
			</g>
		</g>
		<g id="group1419-66" transform="translate(60.4984,-0.375)">
			<title>Sheet.1419</title>
			<g id="shape1420-67" transform="translate(2.14165,0)">
				<title>Sheet.1420</title>
				<desc>1</desc>
				<rect x="0" y="119.805" width="85.0394" height="14.1732" class="st10"/>
				<text x="40.24" y="129.89" class="st11">1</text>			</g>
			<g id="shape1421-70" transform="translate(0,-4.47576)">
				<title>Sheet.1421</title>
				<desc>A</desc>
				<rect x="0" y="119.805" width="13.2348" height="14.1732" class="st12"/>
				<text x="4" y="133.5" class="st13"><tspan class="st14">A</tspan></text>			</g>
		</g>
	</g>
</svg>
