<?xml version="1.0" encoding="UTF-8" standalone="no"?>
<!DOCTYPE svg PUBLIC "-//W3C//DTD SVG 1.1//EN" "http://www.w3.org/Graphics/SVG/1.1/DTD/svg11.dtd">
<!-- Generated by Microsoft Visio, SVG Export PE009A.svg Page-1 -->
<svg xmlns="http://www.w3.org/2000/svg" xmlns:xlink="http://www.w3.org/1999/xlink" xmlns:ev="http://www.w3.org/2001/xml-events"
		width="6.33046in" height="3.18086in" viewBox="0 0 455.793 229.022" xml:space="preserve" color-interpolation-filters="sRGB"
		class="st3">
	<title>PE009A</title>

	<style type="text/css">
	<![CDATA[
		.st1 {fill:none}
		.st2 {stroke:#000000;stroke-linecap:round;stroke-linejoin:round;stroke-width:2.25}
		.st3 {fill:none;fill-rule:evenodd;font-size:12px;overflow:visible;stroke-linecap:square;stroke-miterlimit:3}
	]]>
	</style>

	<g>
		<title>Page-1</title>
		<g id="group1420-1" transform="translate(1.12501,-1.125)">
			<title>STPX005.298</title>
			<g id="shape1421-2" transform="translate(0,-96.378)">
				<title>Sheet.1421</title>
				<path d="M0 229.02 L45.35 183.67 L90.71 229.02 L136.06 183.67 L181.42 229.02 L226.77 183.67 L272.13 229.02 L317.48
							 183.67 L362.83 229.02 L408.19 183.67 L453.54 229.02 L453.54 229.02 L0 229.02 Z" class="st1"/>
				<path d="M0 229.02 L45.35 183.67 L90.71 229.02 L136.06 183.67 L181.42 229.02 L226.77 183.67 L272.13 229.02 L317.48
							 183.67 L362.83 229.02 L408.19 183.67 L453.54 229.02 L453.54 229.02" class="st2"/>
			</g>
			<g id="shape1422-5" transform="translate(0,-82.2047)">
				<title>Sheet.1422</title>
				<path d="M0 229.02 L45.35 183.67 L90.71 229.02 L136.06 183.67 L181.42 229.02 L226.77 183.67 L272.13 229.02 L317.48
							 183.67 L362.83 229.02 L408.19 183.67 L453.54 229.02 L453.54 229.02 L0 229.02 Z" class="st1"/>
				<path d="M0 229.02 L45.35 183.67 L90.71 229.02 L136.06 183.67 L181.42 229.02 L226.77 183.67 L272.13 229.02 L317.48
							 183.67 L362.83 229.02 L408.19 183.67 L453.54 229.02 L453.54 229.02" class="st2"/>
			</g>
			<g id="shape1423-8" transform="translate(0,-68.0315)">
				<title>Sheet.1423</title>
				<path d="M0 229.02 L45.35 183.67 L90.71 229.02 L136.06 183.67 L181.42 229.02 L226.77 183.67 L272.13 229.02 L317.48
							 183.67 L362.83 229.02 L408.19 183.67 L453.54 229.02 L453.54 229.02 L0 229.02 Z" class="st1"/>
				<path d="M0 229.02 L45.35 183.67 L90.71 229.02 L136.06 183.67 L181.42 229.02 L226.77 183.67 L272.13 229.02 L317.48
							 183.67 L362.83 229.02 L408.19 183.67 L453.54 229.02 L453.54 229.02" class="st2"/>
			</g>
			<g id="shape1424-11" transform="translate(0,-53.8583)">
				<title>Sheet.1424</title>
				<path d="M0 229.02 L45.35 183.67 L90.71 229.02 L136.06 183.67 L181.42 229.02 L226.77 183.67 L272.13 229.02 L317.48
							 183.67 L362.83 229.02 L408.19 183.67 L453.54 229.02 L453.54 229.02 L0 229.02 Z" class="st1"/>
				<path d="M0 229.02 L45.35 183.67 L90.71 229.02 L136.06 183.67 L181.42 229.02 L226.77 183.67 L272.13 229.02 L317.48
							 183.67 L362.83 229.02 L408.19 183.67 L453.54 229.02 L453.54 229.02" class="st2"/>
			</g>
			<g id="shape1425-14" transform="translate(0,-110.551)">
				<title>Sheet.1425</title>
				<path d="M0 229.02 L45.35 183.67 L90.71 229.02 L136.06 183.67 L181.42 229.02 L226.77 183.67 L272.13 229.02 L317.48
							 183.67 L362.83 229.02 L408.19 183.67 L453.54 229.02 L453.54 229.02 L0 229.02 Z" class="st1"/>
				<path d="M0 229.02 L45.35 183.67 L90.71 229.02 L136.06 183.67 L181.42 229.02 L226.77 183.67 L272.13 229.02 L317.48
							 183.67 L362.83 229.02 L408.19 183.67 L453.54 229.02 L453.54 229.02" class="st2"/>
			</g>
			<g id="shape1426-17">
				<title>Sheet.1426</title>
				<path d="M0 229.02 L453.54 229.02" class="st2"/>
			</g>
			<g id="shape1427-20" transform="translate(224.522,229.022) rotate(-90)">
				<title>Sheet.1427</title>
				<path d="M0 229.02 L226.77 229.02" class="st2"/>
			</g>
			<g id="shape1428-23" transform="translate(453.543,231.272) rotate(180)">
				<title>Sheet.1428</title>
				<path d="M0 229.02 L453.54 229.02" class="st2"/>
			</g>
			<g id="shape1429-26" transform="translate(229.022,2.25001) rotate(90)">
				<title>Sheet.1429</title>
				<path d="M0 229.02 L226.77 229.02" class="st2"/>
			</g>
		</g>
	</g>
</svg>
