<?xml version="1.0" encoding="UTF-8" standalone="no"?>
<!DOCTYPE svg PUBLIC "-//W3C//DTD SVG 1.1//EN" "http://www.w3.org/Graphics/SVG/1.1/DTD/svg11.dtd">
<!-- Generated by Microsoft Visio, SVG Export PE008A_Detail.svg Page-1 -->
<svg xmlns="http://www.w3.org/2000/svg" xmlns:xlink="http://www.w3.org/1999/xlink" xmlns:ev="http://www.w3.org/2001/xml-events"
		width="7.22745in" height="2.45566in" viewBox="0 0 520.377 176.808" xml:space="preserve" color-interpolation-filters="sRGB"
		class="st9">
	<title>PE008A</title>

	<style type="text/css">
	<![CDATA[
		.st1 {fill:#ffffff;stroke:#ff0000;stroke-linecap:round;stroke-linejoin:round;stroke-width:2.25}
		.st2 {fill:#ffffff}
		.st3 {stroke:#000000;stroke-linecap:round;stroke-linejoin:round;stroke-width:0.24}
		.st4 {marker-end:url(#mrkr13-9);stroke:#000000;stroke-linecap:round;stroke-linejoin:round;stroke-width:0.24}
		.st5 {fill:#000000;fill-opacity:1;stroke:#000000;stroke-opacity:1;stroke-width:0.11764705882353}
		.st6 {fill:#ffffff;stroke:none;stroke-linecap:butt;stroke-width:7.2}
		.st7 {fill:#000000;font-family:Calibri;font-size:0.666664em}
		.st8 {stroke:#000000;stroke-linecap:round;stroke-linejoin:round;stroke-width:2.25}
		.st9 {fill:none;fill-rule:evenodd;font-size:12px;overflow:visible;stroke-linecap:square;stroke-miterlimit:3}
	]]>
	</style>

	<defs id="Markers">
		<g id="lend13">
			<path d="M 3 1 L 0 0 L 3 -1 L 3 1 " style="stroke:none"/>
		</g>
		<marker id="mrkr13-9" class="st5" refX="-25.5" orient="auto" markerUnits="strokeWidth" overflow="visible">
			<use xlink:href="#lend13" transform="scale(-8.5000000000001,-8.5000000000001) "/>
		</marker>
	</defs>
	<g>
		<title>Page-1</title>
		<g id="shape1405-1" transform="translate(1.125,-113.272)">
			<title>Circle</title>
			<path d="M0 170.24 A6.56444 6.56444 0 0 1 13.13 170.24 A6.56444 6.56444 0 1 1 0 170.24 Z" class="st1"/>
		</g>
		<g id="shape1418-3" transform="translate(7.68944,-134.01)">
			<title>Horizontal.1018</title>
			<desc>32mm</desc>
			<path d="M0 140.46 L0 172.81 L0 140.46 ZM453.54 140.46 L453.54 172.81 L453.54 140.46 Z" class="st2"/>
			<path d="M0 140.46 L0 172.81 L0 140.46" class="st3"/>
			<path d="M453.54 140.46 L453.54 172.81 L453.54 140.46" class="st3"/>
			<path d="M226.77 148.46 L6.12 148.46" class="st4"/>
			<path d="M226.77 148.46 L447.42 148.46" class="st4"/>
			<rect x="216.326" y="136.86" width="20.8905" height="9.59985" class="st6"/>
			<text x="216.33" y="144.06" class="st7">32mm</text>		</g>
		<g id="shape1419-16" transform="translate(341.118,170.357) rotate(-90)">
			<title>Vertical.1019</title>
			<desc>8mm</desc>
			<path d="M0 147.55 L0 172.81 L0 147.55 ZM114.23 147.55 L114.23 172.81 L114.23 147.55 Z" class="st2"/>
			<path d="M0 147.55 L0 172.81 L0 147.55" class="st3"/>
			<path d="M114.23 147.55 L114.23 172.81 L114.23 147.55" class="st3"/>
			<path d="M57.11 155.55 L6.12 155.55" class="st4"/>
			<path d="M57.11 155.55 L108.11 155.55" class="st4"/>
			<rect x="48.6965" y="143.946" width="16.8357" height="9.59985" class="st6"/>
			<text x="48.7" y="151.15" class="st7">8mm</text>		</g>
		<g id="group1466-28" transform="translate(7.68944,-6.45105)">
			<title>STPK016.165</title>
			<g id="shape1467-29" transform="translate(2.79776E-14,-113.386)">
				<title>Sheet.1467</title>
				<path d="M0 176.81 L30.23 176.81" class="st8"/>
			</g>
			<g id="shape1468-32" transform="translate(60.4762,-113.386)">
				<title>Sheet.1468</title>
				<path d="M0 176.81 L30.23 176.81" class="st8"/>
			</g>
			<g id="shape1469-35" transform="translate(120.941,-113.386)">
				<title>Sheet.1469</title>
				<path d="M0 176.81 L30.24 176.81" class="st8"/>
			</g>
			<g id="shape1470-38" transform="translate(181.417,-113.386)">
				<title>Sheet.1470</title>
				<path d="M0 176.81 L30.23 176.81" class="st8"/>
			</g>
			<g id="shape1471-41" transform="translate(241.893,-113.386)">
				<title>Sheet.1471</title>
				<path d="M0 176.81 L30.23 176.81" class="st8"/>
			</g>
			<g id="shape1472-44" transform="translate(302.358,-113.386)">
				<title>Sheet.1472</title>
				<path d="M0 176.81 L30.24 176.81" class="st8"/>
			</g>
			<g id="shape1473-47" transform="translate(362.835,-113.386)">
				<title>Sheet.1473</title>
				<path d="M0 176.81 L30.23 176.81" class="st8"/>
			</g>
			<g id="shape1474-50" transform="translate(423.311,-113.386)">
				<title>Sheet.1474</title>
				<path d="M0 176.81 L30.23 176.81" class="st8"/>
			</g>
			<g id="shape1475-53" transform="translate(578.565,188.444) rotate(135)">
				<title>Sheet.1475</title>
				<path d="M0 176.81 L30.07 176.81" class="st8"/>
			</g>
			<g id="shape1476-56" transform="translate(543.132,223.877) rotate(135)">
				<title>Sheet.1476</title>
				<path d="M0 176.81 L30.07 176.81" class="st8"/>
			</g>
			<g id="shape1477-59">
				<title>Sheet.1477</title>
				<path d="M0 176.81 L30.23 176.81" class="st8"/>
			</g>
			<g id="shape1478-62" transform="translate(60.4762,2.84217E-14)">
				<title>Sheet.1478</title>
				<path d="M0 176.81 L30.23 176.81" class="st8"/>
			</g>
			<g id="shape1479-65" transform="translate(120.941,2.84217E-14)">
				<title>Sheet.1479</title>
				<path d="M0 176.81 L30.24 176.81" class="st8"/>
			</g>
			<g id="shape1480-68" transform="translate(181.417,2.84217E-14)">
				<title>Sheet.1480</title>
				<path d="M0 176.81 L30.23 176.81" class="st8"/>
			</g>
			<g id="shape1481-71" transform="translate(241.893,2.84217E-14)">
				<title>Sheet.1481</title>
				<path d="M0 176.81 L30.23 176.81" class="st8"/>
			</g>
			<g id="shape1482-74" transform="translate(302.358,2.84217E-14)">
				<title>Sheet.1482</title>
				<path d="M0 176.81 L30.24 176.81" class="st8"/>
			</g>
			<g id="shape1483-77" transform="translate(362.835,2.84217E-14)">
				<title>Sheet.1483</title>
				<path d="M0 176.81 L30.23 176.81" class="st8"/>
			</g>
			<g id="shape1484-80" transform="translate(423.311,2.84217E-14)">
				<title>Sheet.1484</title>
				<path d="M0 176.81 L30.23 176.81" class="st8"/>
			</g>
			<g id="shape1485-83" transform="translate(293.088,266.396) rotate(-135)">
				<title>Sheet.1485</title>
				<path d="M0 176.81 L30.07 176.81" class="st8"/>
			</g>
			<g id="shape1486-86" transform="translate(328.521,301.829) rotate(-135)">
				<title>Sheet.1486</title>
				<path d="M0 176.81 L30.07 176.81" class="st8"/>
			</g>
		</g>
	</g>
</svg>
