<?xml version="1.0" encoding="UTF-8" standalone="no"?>
<!DOCTYPE svg PUBLIC "-//W3C//DTD SVG 1.1//EN" "http://www.w3.org/Graphics/SVG/1.1/DTD/svg11.dtd">
<!-- Generated by Microsoft Visio, SVG Export PE006A_Detail.svg Page-1 -->
<svg xmlns="http://www.w3.org/2000/svg" xmlns:xlink="http://www.w3.org/1999/xlink" xmlns:ev="http://www.w3.org/2001/xml-events"
		width="5.81424in" height="2.64821in" viewBox="0 0 418.625 190.671" xml:space="preserve" color-interpolation-filters="sRGB"
		class="st15">
	<title>PE006A</title>

	<style type="text/css">
	<![CDATA[
		.st1 {fill:#ffffff;stroke:#ff0000;stroke-linecap:round;stroke-linejoin:round;stroke-width:2.25}
		.st2 {fill:#ffffff}
		.st3 {stroke:#000000;stroke-linecap:round;stroke-linejoin:round;stroke-width:0.24}
		.st4 {marker-end:url(#mrkr13-9);stroke:#000000;stroke-linecap:round;stroke-linejoin:round;stroke-width:0.24}
		.st5 {fill:#000000;fill-opacity:1;stroke:#000000;stroke-opacity:1;stroke-width:0.11764705882353}
		.st6 {fill:#ffffff;stroke:none;stroke-linecap:butt;stroke-width:7.2}
		.st7 {fill:#000000;font-family:Calibri;font-size:0.666664em}
		.st8 {stroke:#ff0000;stroke-linecap:round;stroke-linejoin:round;stroke-width:1.5}
		.st9 {fill:none;stroke:#ff0000;stroke-linecap:round;stroke-linejoin:round;stroke-width:0.75}
		.st10 {fill:#ff0000;font-family:Arial Narrow;font-size:0.833336em;font-weight:bold}
		.st11 {fill:none;stroke:none;stroke-linecap:round;stroke-linejoin:round;stroke-width:0.75}
		.st12 {fill:#ff0000;font-family:Arial Narrow;font-size:0.811964em;font-weight:bold}
		.st13 {baseline-shift:33.35%;font-size:0.667em}
		.st14 {stroke:#000000;stroke-linecap:round;stroke-linejoin:round;stroke-width:2.25}
		.st15 {fill:none;fill-rule:evenodd;font-size:12px;overflow:visible;stroke-linecap:square;stroke-miterlimit:3}
	]]>
	</style>

	<defs id="Markers">
		<g id="lend13">
			<path d="M 3 1 L 0 0 L 3 -1 L 3 1 " style="stroke:none"/>
		</g>
		<marker id="mrkr13-9" class="st5" refX="-25.5" orient="auto" markerUnits="strokeWidth" overflow="visible">
			<use xlink:href="#lend13" transform="scale(-8.5000000000001,-8.5000000000001) "/>
		</marker>
	</defs>
	<g>
		<title>Page-1</title>
		<g id="shape1405-1" transform="translate(64.0667,-78.753)">
			<title>Circle.1412</title>
			<path d="M0 184.11 A6.56444 6.56444 0 0 1 13.13 184.11 A6.56444 6.56444 0 1 1 0 184.11 Z" class="st1"/>
		</g>
		<g id="shape1407-3" transform="translate(70.6311,-156.281)">
			<title>Horizontal.1012</title>
			<desc>24mm</desc>
			<path d="M0 162.73 L0 186.67 L0 162.73 ZM340.17 162.73 L340.17 187.83 L340.17 162.73 Z" class="st2"/>
			<path d="M0 162.73 L0 186.67 L0 162.73" class="st3"/>
			<path d="M340.17 162.73 L340.17 187.83 L340.17 162.73" class="st3"/>
			<path d="M170.08 170.73 L6.12 170.73" class="st4"/>
			<path d="M170.08 170.73 L334.05 170.73" class="st4"/>
			<rect x="159.638" y="159.13" width="20.8905" height="9.59985" class="st6"/>
			<text x="159.64" y="166.33" class="st7">24mm</text>		</g>
		<g id="shape1411-16" transform="translate(-156.378,161.95) rotate(-90)">
			<title>Vertical.1015</title>
			<desc>8mm</desc>
			<path d="M0 162.83 L0 186.67 L0 162.83 ZM114.22 162.83 L114.22 186.67 L114.22 162.83 Z" class="st2"/>
			<path d="M0 162.83 L0 186.67 L0 162.83" class="st3"/>
			<path d="M114.22 162.83 L114.22 186.67 L114.22 162.83" class="st3"/>
			<path d="M57.11 170.83 L6.12 170.83" class="st4"/>
			<path d="M57.11 170.83 L108.1 170.83" class="st4"/>
			<rect x="48.6897" y="159.227" width="16.8357" height="9.59985" class="st6"/>
			<text x="48.69" y="166.43" class="st7">8mm</text>		</g>
		<g id="group1413-28" transform="translate(63.5445,-78.3278)">
			<title>Sheet.1413</title>
			<g id="shape1414-29" transform="translate(148.998,311.323) rotate(135)">
				<title>Sheet.1414</title>
				<path d="M0 190.67 L20.04 190.67" class="st8"/>
			</g>
			<g id="shape1415-32" transform="translate(-120.651,325.496) rotate(-135)">
				<title>Sheet.1415</title>
				<path d="M0 190.67 L20.04 190.67" class="st8"/>
			</g>
		</g>
		<g id="group1416-35" transform="translate(403.702,-78.3278)">
			<title>Sheet.1416</title>
			<g id="shape1417-36" transform="translate(148.998,311.323) rotate(135)">
				<title>Sheet.1417</title>
				<path d="M0 190.67 L20.04 190.67" class="st8"/>
			</g>
			<g id="shape1418-39" transform="translate(-120.651,325.496) rotate(-135)">
				<title>Sheet.1418</title>
				<path d="M0 190.67 L20.04 190.67" class="st8"/>
			</g>
		</g>
		<g id="group1419-42" transform="translate(196.049,-0.375)">
			<title>Sheet.1419</title>
			<g id="shape1420-43" transform="translate(2.14165,0)">
				<title>Sheet.1420</title>
				<desc>1</desc>
				<rect x="0" y="176.498" width="85.0394" height="14.1732" class="st9"/>
				<text x="40.24" y="186.58" class="st10">1</text>			</g>
			<g id="shape1421-46" transform="translate(0,-4.47576)">
				<title>Sheet.1421</title>
				<desc>A</desc>
				<rect x="0" y="176.498" width="13.2348" height="14.1732" class="st11"/>
				<text x="4" y="190.19" class="st12"><tspan class="st13">A</tspan></text>			</g>
		</g>
		<g id="group1422-50" transform="translate(70.6311,-28.7215)">
			<title>STPE004.53</title>
			<g id="shape1423-51" transform="translate(190.671,77.2852) rotate(90)">
				<title>Sheet.1423</title>
				<path d="M0 190.67 L113.39 190.67" class="st14"/>
			</g>
			<g id="shape1424-54" transform="translate(149.486,190.671) rotate(-90)">
				<title>Sheet.1424</title>
				<path d="M0 190.67 L113.39 190.67" class="st14"/>
			</g>
			<g id="shape1425-57" transform="translate(0,-113.386)">
				<title>Sheet.1425</title>
				<path d="M0 190.67 L70.87 190.67" class="st14"/>
			</g>
			<g id="shape1426-60" transform="translate(205.691,-57.5396) rotate(45)">
				<title>Sheet.1426</title>
				<path d="M0 190.67 L40.09 190.67" class="st14"/>
			</g>
			<g id="shape1427-63" transform="translate(76.9344,-83.7334) rotate(-6.70984)">
				<title>Sheet.1427</title>
				<path d="M0 190.67 L242.61 190.67" class="st14"/>
			</g>
			<g id="shape1428-66">
				<title>Sheet.1428</title>
				<path d="M0 190.67 L70.87 190.67" class="st14"/>
			</g>
			<g id="shape1429-69" transform="translate(-63.9587,55.8463) rotate(-45)">
				<title>Sheet.1429</title>
				<path d="M0 190.67 L40.09 190.67" class="st14"/>
			</g>
			<g id="shape1430-72" transform="translate(121.491,-27.0405) rotate(6.70984)">
				<title>Sheet.1430</title>
				<path d="M0 190.67 L242.61 190.67" class="st14"/>
			</g>
		</g>
		<g id="group1431-75" transform="translate(176.93,-106.674)">
			<title>Sheet.1431</title>
			<g id="shape1432-76" transform="translate(148.998,311.323) rotate(135)">
				<title>Sheet.1432</title>
				<path d="M0 190.67 L20.04 190.67" class="st8"/>
			</g>
			<g id="shape1433-79" transform="translate(-120.651,325.496) rotate(-135)">
				<title>Sheet.1433</title>
				<path d="M0 190.67 L20.04 190.67" class="st8"/>
			</g>
		</g>
	</g>
</svg>
