<?xml version="1.0" encoding="UTF-8" standalone="no"?>
<!DOCTYPE svg PUBLIC "-//W3C//DTD SVG 1.1//EN" "http://www.w3.org/Graphics/SVG/1.1/DTD/svg11.dtd">
<!-- Generated by Microsoft Visio, SVG Export PE007A_Detail.svg Page-1 -->
<svg xmlns="http://www.w3.org/2000/svg" xmlns:xlink="http://www.w3.org/1999/xlink" xmlns:ev="http://www.w3.org/2001/xml-events"
		width="5.20444in" height="4.76327in" viewBox="0 0 374.72 342.955" xml:space="preserve" color-interpolation-filters="sRGB"
		class="st10">
	<title>PE007A</title>

	<style type="text/css">
	<![CDATA[
		.st1 {fill:#ffffff;stroke:#ff0000;stroke-linecap:round;stroke-linejoin:round;stroke-width:2.25}
		.st2 {fill:#ffffff}
		.st3 {stroke:#000000;stroke-linecap:round;stroke-linejoin:round;stroke-width:0.24}
		.st4 {marker-end:url(#mrkr13-9);stroke:#000000;stroke-linecap:round;stroke-linejoin:round;stroke-width:0.24}
		.st5 {fill:#000000;fill-opacity:1;stroke:#000000;stroke-opacity:1;stroke-width:0.11764705882353}
		.st6 {fill:#ffffff;stroke:none;stroke-linecap:butt;stroke-width:7.2}
		.st7 {fill:#000000;font-family:Calibri;font-size:0.666664em}
		.st8 {fill:none}
		.st9 {stroke:#000000;stroke-linecap:round;stroke-linejoin:round;stroke-width:2.25}
		.st10 {fill:none;fill-rule:evenodd;font-size:12px;overflow:visible;stroke-linecap:square;stroke-miterlimit:3}
	]]>
	</style>

	<defs id="Markers">
		<g id="lend13">
			<path d="M 3 1 L 0 0 L 3 -1 L 3 1 " style="stroke:none"/>
		</g>
		<marker id="mrkr13-9" class="st5" refX="-25.5" orient="auto" markerUnits="strokeWidth" overflow="visible">
			<use xlink:href="#lend13" transform="scale(-8.5000000000001,-8.5000000000001) "/>
		</marker>
	</defs>
	<g>
		<title>Page-1</title>
		<g id="shape1405-1" transform="translate(134.933,-283.351)">
			<title>Circle.1412</title>
			<path d="M0 336.39 A6.56444 6.56444 0 0 1 13.13 336.39 A6.56444 6.56444 0 1 1 0 336.39 Z" class="st1"/>
		</g>
		<g id="shape1407-3" transform="translate(141.497,-308.565)">
			<title>Horizontal.1012</title>
			<desc>16mm</desc>
			<path d="M0 315.02 L0 338.96 L0 315.02 ZM226.77 315.02 L226.77 338.96 L226.77 315.02 Z" class="st2"/>
			<path d="M0 315.02 L0 338.96 L0 315.02" class="st3"/>
			<path d="M226.77 315.02 L226.77 338.96 L226.77 315.02" class="st3"/>
			<path d="M113.39 323.02 L6.12 323.02" class="st4"/>
			<path d="M113.39 323.02 L220.65 323.02" class="st4"/>
			<rect x="102.941" y="311.414" width="20.8905" height="9.59985" class="st6"/>
			<text x="102.94" y="318.61" class="st7">16mm</text>		</g>
		<g id="shape1411-16" transform="translate(-308.662,336.504) rotate(-90)">
			<title>Vertical.1015</title>
			<desc>20mm</desc>
			<path d="M0 315.11 L0 338.96 L0 315.11 ZM284.29 315.11 L284.29 338.96 L284.29 315.11 Z" class="st2"/>
			<path d="M0 315.11 L0 338.96 L0 315.11" class="st3"/>
			<path d="M284.29 315.11 L284.29 338.96 L284.29 315.11" class="st3"/>
			<path d="M142.15 323.11 L6.12 323.11" class="st4"/>
			<path d="M142.15 323.11 L278.17 323.11" class="st4"/>
			<rect x="131.702" y="311.511" width="20.8905" height="9.59985" class="st6"/>
			<text x="131.7" y="318.71" class="st7">20mm</text>		</g>
		<g id="group1422-28" transform="translate(141.497,-6.46444)">
			<title>STPK017.267</title>
			<g id="shape1423-29" transform="translate(0.00357115,-56.6831)">
				<title>Sheet.1423</title>
				<path d="M0 116.19 L0 342.96 L0 342.96 L0 116.19 Z" class="st8"/>
				<path d="M0 116.19 L0 342.96 L0 342.96" class="st9"/>
			</g>
			<g id="shape1424-32" transform="translate(226.772,-56.6831)">
				<title>Sheet.1424</title>
				<path d="M0 116.19 L0 342.96 L0 342.96 L0 116.19 Z" class="st8"/>
				<path d="M0 116.19 L0 342.96 L0 342.96" class="st9"/>
			</g>
			<g id="shape1425-35" transform="translate(0.00357115,-56.6831)">
				<title>Sheet.1425</title>
				<path d="M0 342.96 L226.77 342.96" class="st9"/>
			</g>
			<g id="shape1426-38">
				<title>Sheet.1426</title>
				<path d="M0 286.26 A113.384 56.692 -180 0 0 226.77 286.26 L0 286.26 Z" class="st8"/>
				<path d="M0 286.26 A113.384 56.692 -180 0 0 226.77 286.26" class="st9"/>
			</g>
		</g>
		<g id="shape1427-41" transform="translate(-243.978,336.504) rotate(-90)">
			<title>Vertical.1427</title>
			<desc>4mm</desc>
			<path d="M0 315.11 L0 338.96 L0 315.11 ZM56.69 315.11 L56.69 338.96 L56.69 315.11 Z" class="st2"/>
			<path d="M0 315.11 L0 338.96 L0 315.11" class="st3"/>
			<path d="M56.69 315.11 L56.69 338.96 L56.69 315.11" class="st3"/>
			<path d="M28.35 323.11 L6.12 323.11" class="st4"/>
			<path d="M28.35 323.11 L50.57 323.11" class="st4"/>
			<rect x="19.9286" y="311.511" width="16.8357" height="9.59985" class="st6"/>
			<text x="19.93" y="318.71" class="st7">4mm</text>		</g>
	</g>
</svg>
