<?xml version="1.0" encoding="UTF-8" standalone="no"?>
<!DOCTYPE svg PUBLIC "-//W3C//DTD SVG 1.1//EN" "http://www.w3.org/Graphics/SVG/1.1/DTD/svg11.dtd">
<!-- Generated by Microsoft Visio, SVG Export PE007A.svg Page-1 -->
<svg xmlns="http://www.w3.org/2000/svg" xmlns:xlink="http://www.w3.org/1999/xlink" xmlns:ev="http://www.w3.org/2001/xml-events"
		width="3.18086in" height="3.96807in" viewBox="0 0 229.022 285.701" xml:space="preserve" color-interpolation-filters="sRGB"
		class="st3">
	<title>PE007A</title>

	<style type="text/css">
	<![CDATA[
		.st1 {fill:none}
		.st2 {stroke:#000000;stroke-linecap:round;stroke-linejoin:round;stroke-width:2.25}
		.st3 {fill:none;fill-rule:evenodd;font-size:12px;overflow:visible;stroke-linecap:square;stroke-miterlimit:3}
	]]>
	</style>

	<g>
		<title>Page-1</title>
		<g id="group1422-1" transform="translate(1.125,-1.125)">
			<title>STPK017.267</title>
			<g id="shape1423-2" transform="translate(0.00357115,-56.6831)">
				<title>Sheet.1423</title>
				<path d="M0 58.93 L0 285.7 L0 285.7 L0 58.93 Z" class="st1"/>
				<path d="M0 58.93 L0 285.7 L0 285.7" class="st2"/>
			</g>
			<g id="shape1424-5" transform="translate(226.772,-56.6831)">
				<title>Sheet.1424</title>
				<path d="M0 58.93 L0 285.7 L0 285.7 L0 58.93 Z" class="st1"/>
				<path d="M0 58.93 L0 285.7 L0 285.7" class="st2"/>
			</g>
			<g id="shape1425-8" transform="translate(0.00357115,-56.6831)">
				<title>Sheet.1425</title>
				<path d="M0 285.7 L226.77 285.7" class="st2"/>
			</g>
			<g id="shape1426-11">
				<title>Sheet.1426</title>
				<path d="M0 229.01 A113.384 56.692 -180 0 0 226.77 229.01 L0 229.01 Z" class="st1"/>
				<path d="M0 229.01 A113.384 56.692 -180 0 0 226.77 229.01" class="st2"/>
			</g>
		</g>
	</g>
</svg>
