<?xml version="1.0" encoding="UTF-8" standalone="no"?>
<!DOCTYPE svg PUBLIC "-//W3C//DTD SVG 1.1//EN" "http://www.w3.org/Graphics/SVG/1.1/DTD/svg11.dtd">
<!-- Generated by Microsoft Visio, SVG Export PE009A.svg Page-1 -->
<svg xmlns="http://www.w3.org/2000/svg" xmlns:xlink="http://www.w3.org/1999/xlink" xmlns:ev="http://www.w3.org/2001/xml-events"
		xmlns:v="http://schemas.microsoft.com/visio/2003/SVGExtensions/" width="6.33046in" height="3.18086in"
		viewBox="0 0 455.793 229.022" xml:space="preserve" color-interpolation-filters="sRGB" class="st3">
	<title>PE009A</title>
	<v:documentProperties v:langID="2057" v:metric="true" v:viewMarkup="false"/>

	<style type="text/css">
	<![CDATA[
		.st1 {fill:none}
		.st2 {stroke:#000000;stroke-linecap:round;stroke-linejoin:round;stroke-width:2.25}
		.st3 {fill:none;fill-rule:evenodd;font-size:12px;overflow:visible;stroke-linecap:square;stroke-miterlimit:3}
	]]>
	</style>

	<g v:mID="0" v:index="1" v:groupContext="foregroundPage">
		<title>Page-1</title>
		<v:pageProperties v:drawingScale="0.0393701" v:pageScale="0.0393701" v:drawingUnits="24" v:shadowOffsetX="8.50394"
				v:shadowOffsetY="-8.50394"/>
		<v:layer v:name="Symbol" v:index="0"/>
		<g id="group1420-1" transform="translate(1.12501,-1.125)" v:mID="1420" v:groupContext="group" v:layerMember="0">
			<v:userDefs>
				<v:ud v:nameU="SOLSH" v:prompt="" v:val="VT4({13D0FF3B-CF5B-4a46-98AB-14030248EAEF})"/>
				<v:ud v:nameU="DWGEntityType" v:prompt="" v:val="VT4(INSERT)"/>
			</v:userDefs>
			<title>STPX005.298</title>
			<g id="shape1421-2" v:mID="1421" v:groupContext="shape" v:layerMember="0" transform="translate(0,-96.378)">
				<title>Sheet.1421</title>
				<v:userDefs>
					<v:ud v:nameU="DWGOriginalColor" v:prompt="This shapes Original DWG color." v:val="VT4(3)"/>
					<v:ud v:nameU="DWGOriginalLayer" v:prompt="This shapes Original DWG layer." v:val="VT4(26-SYM-035-SP)"/>
				</v:userDefs>
				<path d="M0 229.02 L45.35 183.67 L90.71 229.02 L136.06 183.67 L181.42 229.02 L226.77 183.67 L272.13 229.02 L317.48
							 183.67 L362.83 229.02 L408.19 183.67 L453.54 229.02 L453.54 229.02 L0 229.02 Z" class="st1"/>
				<path d="M0 229.02 L45.35 183.67 L90.71 229.02 L136.06 183.67 L181.42 229.02 L226.77 183.67 L272.13 229.02 L317.48
							 183.67 L362.83 229.02 L408.19 183.67 L453.54 229.02 L453.54 229.02" class="st2"/>
			</g>
			<g id="shape1422-5" v:mID="1422" v:groupContext="shape" v:layerMember="0" transform="translate(0,-82.2047)">
				<title>Sheet.1422</title>
				<v:userDefs>
					<v:ud v:nameU="DWGOriginalColor" v:prompt="This shapes Original DWG color." v:val="VT4(3)"/>
					<v:ud v:nameU="DWGOriginalLayer" v:prompt="This shapes Original DWG layer." v:val="VT4(26-SYM-035-SP)"/>
				</v:userDefs>
				<path d="M0 229.02 L45.35 183.67 L90.71 229.02 L136.06 183.67 L181.42 229.02 L226.77 183.67 L272.13 229.02 L317.48
							 183.67 L362.83 229.02 L408.19 183.67 L453.54 229.02 L453.54 229.02 L0 229.02 Z" class="st1"/>
				<path d="M0 229.02 L45.35 183.67 L90.71 229.02 L136.06 183.67 L181.42 229.02 L226.77 183.67 L272.13 229.02 L317.48
							 183.67 L362.83 229.02 L408.19 183.67 L453.54 229.02 L453.54 229.02" class="st2"/>
			</g>
			<g id="shape1423-8" v:mID="1423" v:groupContext="shape" v:layerMember="0" transform="translate(0,-68.0315)">
				<title>Sheet.1423</title>
				<v:userDefs>
					<v:ud v:nameU="DWGOriginalColor" v:prompt="This shapes Original DWG color." v:val="VT4(3)"/>
					<v:ud v:nameU="DWGOriginalLayer" v:prompt="This shapes Original DWG layer." v:val="VT4(26-SYM-035-SP)"/>
				</v:userDefs>
				<path d="M0 229.02 L45.35 183.67 L90.71 229.02 L136.06 183.67 L181.42 229.02 L226.77 183.67 L272.13 229.02 L317.48
							 183.67 L362.83 229.02 L408.19 183.67 L453.54 229.02 L453.54 229.02 L0 229.02 Z" class="st1"/>
				<path d="M0 229.02 L45.35 183.67 L90.71 229.02 L136.06 183.67 L181.42 229.02 L226.77 183.67 L272.13 229.02 L317.48
							 183.67 L362.83 229.02 L408.19 183.67 L453.54 229.02 L453.54 229.02" class="st2"/>
			</g>
			<g id="shape1424-11" v:mID="1424" v:groupContext="shape" v:layerMember="0" transform="translate(0,-53.8583)">
				<title>Sheet.1424</title>
				<v:userDefs>
					<v:ud v:nameU="DWGOriginalColor" v:prompt="This shapes Original DWG color." v:val="VT4(3)"/>
					<v:ud v:nameU="DWGOriginalLayer" v:prompt="This shapes Original DWG layer." v:val="VT4(26-SYM-035-SP)"/>
				</v:userDefs>
				<path d="M0 229.02 L45.35 183.67 L90.71 229.02 L136.06 183.67 L181.42 229.02 L226.77 183.67 L272.13 229.02 L317.48
							 183.67 L362.83 229.02 L408.19 183.67 L453.54 229.02 L453.54 229.02 L0 229.02 Z" class="st1"/>
				<path d="M0 229.02 L45.35 183.67 L90.71 229.02 L136.06 183.67 L181.42 229.02 L226.77 183.67 L272.13 229.02 L317.48
							 183.67 L362.83 229.02 L408.19 183.67 L453.54 229.02 L453.54 229.02" class="st2"/>
			</g>
			<g id="shape1425-14" v:mID="1425" v:groupContext="shape" v:layerMember="0" transform="translate(0,-110.551)">
				<title>Sheet.1425</title>
				<v:userDefs>
					<v:ud v:nameU="DWGOriginalColor" v:prompt="This shapes Original DWG color." v:val="VT4(3)"/>
					<v:ud v:nameU="DWGOriginalLayer" v:prompt="This shapes Original DWG layer." v:val="VT4(26-SYM-035-SP)"/>
				</v:userDefs>
				<path d="M0 229.02 L45.35 183.67 L90.71 229.02 L136.06 183.67 L181.42 229.02 L226.77 183.67 L272.13 229.02 L317.48
							 183.67 L362.83 229.02 L408.19 183.67 L453.54 229.02 L453.54 229.02 L0 229.02 Z" class="st1"/>
				<path d="M0 229.02 L45.35 183.67 L90.71 229.02 L136.06 183.67 L181.42 229.02 L226.77 183.67 L272.13 229.02 L317.48
							 183.67 L362.83 229.02 L408.19 183.67 L453.54 229.02 L453.54 229.02" class="st2"/>
			</g>
			<g id="shape1426-17" v:mID="1426" v:groupContext="shape" v:layerMember="0">
				<title>Sheet.1426</title>
				<v:userDefs>
					<v:ud v:nameU="SOLSH" v:prompt="" v:val="VT4({13D0FF3B-CF5B-4a46-98AB-14030248EAEF})"/>
					<v:ud v:nameU="DWGEntityType" v:prompt="" v:val="VT4(LINE)"/>
					<v:ud v:nameU="DWGOriginalColor" v:prompt="This shapes Original DWG color." v:val="VT4(3)"/>
					<v:ud v:nameU="DWGOriginalLayer" v:prompt="This shapes Original DWG layer." v:val="VT4(26-SYM-035-SP)"/>
				</v:userDefs>
				<path d="M0 229.02 L453.54 229.02" class="st2"/>
			</g>
			<g id="shape1427-20" v:mID="1427" v:groupContext="shape" v:layerMember="0"
					transform="translate(224.522,229.022) rotate(-90)">
				<title>Sheet.1427</title>
				<v:userDefs>
					<v:ud v:nameU="SOLSH" v:prompt="" v:val="VT4({13D0FF3B-CF5B-4a46-98AB-14030248EAEF})"/>
					<v:ud v:nameU="DWGEntityType" v:prompt="" v:val="VT4(LINE)"/>
					<v:ud v:nameU="DWGOriginalColor" v:prompt="This shapes Original DWG color." v:val="VT4(3)"/>
					<v:ud v:nameU="DWGOriginalLayer" v:prompt="This shapes Original DWG layer." v:val="VT4(26-SYM-035-SP)"/>
				</v:userDefs>
				<path d="M0 229.02 L226.77 229.02" class="st2"/>
			</g>
			<g id="shape1428-23" v:mID="1428" v:groupContext="shape" v:layerMember="0"
					transform="translate(453.543,231.272) rotate(180)">
				<title>Sheet.1428</title>
				<v:userDefs>
					<v:ud v:nameU="SOLSH" v:prompt="" v:val="VT4({13D0FF3B-CF5B-4a46-98AB-14030248EAEF})"/>
					<v:ud v:nameU="DWGEntityType" v:prompt="" v:val="VT4(LINE)"/>
					<v:ud v:nameU="DWGOriginalColor" v:prompt="This shapes Original DWG color." v:val="VT4(3)"/>
					<v:ud v:nameU="DWGOriginalLayer" v:prompt="This shapes Original DWG layer." v:val="VT4(26-SYM-035-SP)"/>
				</v:userDefs>
				<path d="M0 229.02 L453.54 229.02" class="st2"/>
			</g>
			<g id="shape1429-26" v:mID="1429" v:groupContext="shape" v:layerMember="0"
					transform="translate(229.022,2.25001) rotate(90)">
				<title>Sheet.1429</title>
				<v:userDefs>
					<v:ud v:nameU="SOLSH" v:prompt="" v:val="VT4({13D0FF3B-CF5B-4a46-98AB-14030248EAEF})"/>
					<v:ud v:nameU="DWGEntityType" v:prompt="" v:val="VT4(LINE)"/>
					<v:ud v:nameU="DWGOriginalColor" v:prompt="This shapes Original DWG color." v:val="VT4(3)"/>
					<v:ud v:nameU="DWGOriginalLayer" v:prompt="This shapes Original DWG layer." v:val="VT4(26-SYM-035-SP)"/>
				</v:userDefs>
				<path d="M0 229.02 L226.77 229.02" class="st2"/>
			</g>
		</g>
	</g>
</svg>
