<?xml version="1.0" encoding="UTF-8" standalone="no"?>
<!DOCTYPE svg PUBLIC "-//W3C//DTD SVG 1.1//EN" "http://www.w3.org/Graphics/SVG/1.1/DTD/svg11.dtd">
<!-- Generated by Microsoft Visio, SVG Export PE007A.svg Page-1 -->
<svg xmlns="http://www.w3.org/2000/svg" xmlns:xlink="http://www.w3.org/1999/xlink" xmlns:ev="http://www.w3.org/2001/xml-events"
		width="5.77657in" height="5.1433in" viewBox="0 0 415.913 370.318" xml:space="preserve" color-interpolation-filters="sRGB"
		class="st5">
	<title>PE007A</title>

	<style type="text/css">
	<![CDATA[
		.st1 {fill:none}
		.st2 {stroke:#000000;stroke-linecap:round;stroke-linejoin:round;stroke-width:2.25}
		.st3 {fill:none;stroke:none;stroke-linecap:round;stroke-linejoin:round;stroke-width:0.75}
		.st4 {fill:#ff0000;font-family:Calibri;font-size:4.00001em}
		.st5 {fill:none;fill-rule:evenodd;font-size:12px;overflow:visible;stroke-linecap:square;stroke-miterlimit:3}
	]]>
	</style>

	<g>
		<title>Page-1</title>
		<g id="group1422-1" transform="translate(66.2242,-7.84799)">
			<title>STPK017.267</title>
			<g id="shape1423-2" transform="translate(0.00357115,-56.6831)">
				<title>Sheet.1423</title>
				<path d="M0 143.55 L0 370.32 L0 370.32 L0 143.55 Z" class="st1"/>
				<path d="M0 143.55 L0 370.32 L0 370.32" class="st2"/>
			</g>
			<g id="shape1424-5" transform="translate(226.772,-56.6831)">
				<title>Sheet.1424</title>
				<path d="M0 143.55 L0 370.32 L0 370.32 L0 143.55 Z" class="st1"/>
				<path d="M0 143.55 L0 370.32 L0 370.32" class="st2"/>
			</g>
			<g id="shape1425-8" transform="translate(0.00357115,-56.6831)">
				<title>Sheet.1425</title>
				<path d="M0 370.32 L226.77 370.32" class="st2"/>
			</g>
			<g id="shape1426-11">
				<title>Sheet.1426</title>
				<path d="M0 313.63 A113.384 56.692 -180 0 0 226.77 313.63 L0 313.63 Z" class="st1"/>
				<path d="M0 313.63 A113.384 56.692 -180 0 0 226.77 313.63" class="st2"/>
			</g>
		</g>
		<g id="shape1428-14" transform="translate(-177.532,86.2629) rotate(-40)">
			<title>Sheet.1428</title>
			<desc>NOT USED</desc>
			<rect x="0" y="276.774" width="463.465" height="93.5433" class="st3"/>
			<text x="130.32" y="337.95" class="st4">NOT USED</text>		</g>
	</g>
</svg>
