<?xml version="1.0" encoding="UTF-8" standalone="no"?>
<!DOCTYPE svg PUBLIC "-//W3C//DTD SVG 1.1//EN" "http://www.w3.org/Graphics/SVG/1.1/DTD/svg11.dtd">
<!-- Generated by Microsoft Visio, SVG Export PE003A.svg Page-1 -->
<svg xmlns="http://www.w3.org/2000/svg" xmlns:xlink="http://www.w3.org/1999/xlink" xmlns:ev="http://www.w3.org/2001/xml-events"
		width="2.39345in" height="1.21298in" viewBox="0 0 172.329 87.3347" xml:space="preserve" color-interpolation-filters="sRGB"
		class="st3">
	<title>PE003A</title>

	<style type="text/css">
	<![CDATA[
		.st1 {stroke:#000000;stroke-linecap:round;stroke-linejoin:round;stroke-width:2.25}
		.st2 {fill:none}
		.st3 {fill:none;fill-rule:evenodd;font-size:12px;overflow:visible;stroke-linecap:square;stroke-miterlimit:3}
	]]>
	</style>

	<g>
		<title>Page-1</title>
		<g id="group1422-1" transform="translate(1.125,-1.13875)">
			<title>STPE001.2</title>
			<g id="shape1423-2" transform="translate(-73.1615,55.9751) rotate(-90)">
				<title>Sheet.1423</title>
				<path d="M0 87.33 L21.26 87.33" class="st1"/>
			</g>
			<g id="shape1424-5" transform="translate(87.3347,2.29535) rotate(90)">
				<title>Sheet.1424</title>
				<path d="M0 87.33 L85.04 87.33" class="st1"/>
			</g>
			<g id="shape1425-8">
				<title>Sheet.1425</title>
				<path d="M0 87.33 L170.08 87.33" class="st1"/>
			</g>
			<g id="shape1426-11" transform="translate(14.0315,-2.65303)">
				<title>Sheet.1426</title>
				<path d="M0 83.08 A18.068 18.068 -180 0 0 5.67 87.33 L0 83.08 Z" class="st2"/>
				<path d="M0 83.08 A18.068 18.068 -180 0 0 5.67 87.33" class="st1"/>
			</g>
			<g id="shape1427-14" transform="translate(-37.7284,55.9751) rotate(-90)">
				<title>Sheet.1427</title>
				<path d="M0 87.33 L21.26 87.33" class="st1"/>
			</g>
			<g id="shape1428-17" transform="translate(-2.29535,55.9751) rotate(-90)">
				<title>Sheet.1428</title>
				<path d="M0 87.33 L21.26 87.33" class="st1"/>
			</g>
			<g id="shape1429-20" transform="translate(172.374,66.0749) rotate(90)">
				<title>Sheet.1429</title>
				<path d="M0 87.33 L14.17 87.33" class="st1"/>
			</g>
			<g id="shape1430-23" transform="translate(-37.7284,80.2481) rotate(-90)">
				<title>Sheet.1430</title>
				<path d="M0 87.33 L14.17 87.33" class="st1"/>
			</g>
			<g id="shape1431-26" transform="translate(49.6645,-78.0172)">
				<title>Sheet.1431</title>
				<path d="M70.75 87.33 A11.2054 11.2054 -180 0 0 65.08 83.08 L70.75 87.33 Z" class="st2"/>
				<path d="M70.75 87.33 A11.2054 11.2054 -180 0 0 65.08 83.08" class="st1"/>
			</g>
			<g id="shape1432-29" transform="translate(170.079,89.6301) rotate(180)">
				<title>Sheet.1432</title>
				<path d="M0 87.33 L170.08 87.33" class="st1"/>
			</g>
			<g id="shape1433-32" transform="translate(14.2315,-78.0172)">
				<title>Sheet.1433</title>
				<path d="M141.61 87.33 A11.2054 11.2054 -180 0 0 135.95 83.08 L141.61 87.33 Z" class="st2"/>
				<path d="M141.61 87.33 A11.2054 11.2054 -180 0 0 135.95 83.08" class="st1"/>
			</g>
			<g id="shape1434-35" transform="translate(43.4274,-78.6098)">
				<title>Sheet.1434</title>
				<path d="M5.67 87.33 A18.068 18.068 -180 0 0 0 83.08 L5.67 87.33 Z" class="st2"/>
				<path d="M5.67 87.33 A18.068 18.068 -180 0 0 0 83.08" class="st1"/>
			</g>
			<g id="shape1435-38" transform="translate(136.941,9.38197) rotate(90)">
				<title>Sheet.1435</title>
				<path d="M0 87.33 L14.17 87.33" class="st1"/>
			</g>
			<g id="shape1436-41" transform="translate(24.0865,-83.6422)">
				<title>Sheet.1436</title>
				<path d="M121.9 87.33 A21.9798 21.9798 -180 0 0 106.31 87.33 L121.9 87.33 Z" class="st2"/>
				<path d="M121.9 87.33 A21.9798 21.9798 -180 0 0 106.31 87.33" class="st1"/>
			</g>
			<g id="shape1437-44" transform="translate(82.744,87.3347) rotate(-90)">
				<title>Sheet.1437</title>
				<path d="M0 87.33 L85.04 87.33" class="st1"/>
			</g>
			<g id="shape1438-47" transform="translate(68.5708,55.9751) rotate(-90)">
				<title>Sheet.1438</title>
				<path d="M0 87.33 L21.26 87.33" class="st1"/>
			</g>
			<g id="shape1439-50" transform="translate(155.964,-78.0172)">
				<title>Sheet.1439</title>
				<path d="M-141.85 87.33 A11.2054 11.2054 -180 0 0 -147.52 83.08 L-141.85 87.33 Z" class="st2"/>
				<path d="M-141.85 87.33 A11.2054 11.2054 -180 0 0 -147.52 83.08" class="st1"/>
			</g>
			<g id="shape1440-53" transform="translate(207.807,9.38197) rotate(90)">
				<title>Sheet.1440</title>
				<path d="M0 87.33 L14.17 87.33" class="st1"/>
			</g>
			<g id="shape1441-56" transform="translate(33.1377,55.9751) rotate(-90)">
				<title>Sheet.1441</title>
				<path d="M0 87.33 L21.26 87.33" class="st1"/>
			</g>
			<g id="shape1442-59" transform="translate(114.796,-2.83209)">
				<title>Sheet.1442</title>
				<path d="M-65.18 83.08 A11.2054 11.2054 -180 0 0 -59.51 87.33 L-65.18 83.08 Z" class="st2"/>
				<path d="M-65.18 83.08 A11.2054 11.2054 -180 0 0 -59.51 87.33" class="st1"/>
			</g>
			<g id="shape1443-62" transform="translate(150.229,-2.84343)">
				<title>Sheet.1443</title>
				<path d="M-136.05 83.08 A11.2054 11.2054 -180 0 0 -130.38 87.33 L-136.05 83.08 Z" class="st2"/>
				<path d="M-136.05 83.08 A11.2054 11.2054 -180 0 0 -130.38 87.33" class="st1"/>
			</g>
			<g id="shape1444-65" transform="translate(155.764,-2.65303)">
				<title>Sheet.1444</title>
				<path d="M0 83.08 A18.068 18.068 -180 0 0 5.67 87.33 L0 83.08 Z" class="st2"/>
				<path d="M0 83.08 A18.068 18.068 -180 0 0 5.67 87.33" class="st1"/>
			</g>
			<g id="shape1445-68" transform="translate(68.5708,80.2481) rotate(-90)">
				<title>Sheet.1445</title>
				<path d="M0 87.33 L14.17 87.33" class="st1"/>
			</g>
			<g id="shape1446-71" transform="translate(150.306,-77.8955)">
				<title>Sheet.1446</title>
				<path d="M5.67 87.33 A18.068 18.068 -180 0 0 0 83.08 L5.67 87.33 Z" class="st2"/>
				<path d="M5.67 87.33 A18.068 18.068 -180 0 0 0 83.08" class="st1"/>
			</g>
			<g id="shape1447-74" transform="translate(130.386,-83.6422)">
				<title>Sheet.1447</title>
				<path d="M-90.69 87.33 A21.9798 21.9798 -180 0 0 -106.28 87.33 L-90.69 87.33 Z" class="st2"/>
				<path d="M-90.69 87.33 A21.9798 21.9798 -180 0 0 -106.28 87.33" class="st1"/>
			</g>
			<g id="shape1448-77" transform="translate(114.963,-78.118)">
				<title>Sheet.1448</title>
				<path d="M5.67 87.33 A18.068 18.068 -180 0 0 0 83.08 L5.67 87.33 Z" class="st2"/>
				<path d="M5.67 87.33 A18.068 18.068 -180 0 0 0 83.08" class="st1"/>
			</g>
			<g id="shape1449-80" transform="translate(94.9526,-83.6422)">
				<title>Sheet.1449</title>
				<path d="M-19.83 87.33 A21.9798 21.9798 -180 0 0 -35.42 87.33 L-19.83 87.33 Z" class="st2"/>
				<path d="M-19.83 87.33 A21.9798 21.9798 -180 0 0 -35.42 87.33" class="st1"/>
			</g>
			<g id="shape1450-83" transform="translate(120.531,-78.0172)">
				<title>Sheet.1450</title>
				<path d="M-70.98 87.33 A11.2054 11.2054 -180 0 0 -76.65 83.08 L-70.98 87.33 Z" class="st2"/>
				<path d="M-70.98 87.33 A11.2054 11.2054 -180 0 0 -76.65 83.08" class="st1"/>
			</g>
			<g id="shape1451-86" transform="translate(172.374,9.38197) rotate(90)">
				<title>Sheet.1451</title>
				<path d="M0 87.33 L14.17 87.33" class="st1"/>
			</g>
			<g id="shape1452-89" transform="translate(59.5196,-83.6422)">
				<title>Sheet.1452</title>
				<path d="M51.04 87.33 A21.9798 21.9798 -180 0 0 35.45 87.33 L51.04 87.33 Z" class="st2"/>
				<path d="M51.04 87.33 A21.9798 21.9798 -180 0 0 35.45 87.33" class="st1"/>
			</g>
			<g id="shape1453-92" transform="translate(33.1377,80.2481) rotate(-90)">
				<title>Sheet.1453</title>
				<path d="M0 87.33 L14.17 87.33" class="st1"/>
			</g>
			<g id="shape1454-95" transform="translate(130.386,-1.4263)">
				<title>Sheet.1454</title>
				<path d="M-106.28 87.33 A21.9798 21.9798 -180 0 0 -90.69 87.33 L-106.28 87.33 Z" class="st2"/>
				<path d="M-106.28 87.33 A21.9798 21.9798 -180 0 0 -90.69 87.33" class="st1"/>
			</g>
			<g id="shape1455-98" transform="translate(120.464,-2.84295)">
				<title>Sheet.1455</title>
				<path d="M0 83.08 A18.068 18.068 -180 0 0 5.67 87.33 L0 83.08 Z" class="st2"/>
				<path d="M0 83.08 A18.068 18.068 -180 0 0 5.67 87.33" class="st1"/>
			</g>
			<g id="shape1456-101" transform="translate(243.24,9.38197) rotate(90)">
				<title>Sheet.1456</title>
				<path d="M0 87.33 L14.17 87.33" class="st1"/>
			</g>
			<g id="shape1457-104" transform="translate(94.9527,-1.41496)">
				<title>Sheet.1457</title>
				<path d="M-35.42 87.33 A21.9798 21.9798 -180 0 0 -19.83 87.33 L-35.42 87.33 Z" class="st2"/>
				<path d="M-35.42 87.33 A21.9798 21.9798 -180 0 0 -19.83 87.33" class="st1"/>
			</g>
			<g id="shape1458-107" transform="translate(24.0866,-1.41496)">
				<title>Sheet.1458</title>
				<path d="M106.31 87.33 A21.9798 21.9798 -180 0 0 121.9 87.33 L106.31 87.33 Z" class="st2"/>
				<path d="M106.31 87.33 A21.9798 21.9798 -180 0 0 121.9 87.33" class="st1"/>
			</g>
			<g id="shape1459-110" transform="translate(43.7854,-2.9554)">
				<title>Sheet.1459</title>
				<path d="M76.84 83.08 A11.2054 11.2054 -180 0 0 82.51 87.33 L76.84 83.08 Z" class="st2"/>
				<path d="M76.84 83.08 A11.2054 11.2054 -180 0 0 82.51 87.33" class="st1"/>
			</g>
			<g id="shape1460-113" transform="translate(59.5196,-1.41496)">
				<title>Sheet.1460</title>
				<path d="M35.45 87.33 A21.9798 21.9798 -180 0 0 51.04 87.33 L35.45 87.33 Z" class="st2"/>
				<path d="M35.45 87.33 A21.9798 21.9798 -180 0 0 51.04 87.33" class="st1"/>
			</g>
			<g id="shape1461-116" transform="translate(8.21687,-77.4816)">
				<title>Sheet.1461</title>
				<path d="M5.67 87.33 A18.068 18.068 -180 0 0 0 83.08 L5.67 87.33 Z" class="st2"/>
				<path d="M5.67 87.33 A18.068 18.068 -180 0 0 0 83.08" class="st1"/>
			</g>
			<g id="shape1462-119" transform="translate(101.508,9.38197) rotate(90)">
				<title>Sheet.1462</title>
				<path d="M0 87.33 L14.17 87.33" class="st1"/>
			</g>
			<g id="shape1463-122" transform="translate(49.5865,-2.83161)">
				<title>Sheet.1463</title>
				<path d="M0 83.08 A18.068 18.068 -180 0 0 5.67 87.33 L0 83.08 Z" class="st2"/>
				<path d="M0 83.08 A18.068 18.068 -180 0 0 5.67 87.33" class="st1"/>
			</g>
			<g id="shape1464-125" transform="translate(-73.1615,80.2481) rotate(-90)">
				<title>Sheet.1464</title>
				<path d="M0 87.33 L14.17 87.33" class="st1"/>
			</g>
			<g id="shape1465-128" transform="translate(8.34094,-2.94406)">
				<title>Sheet.1465</title>
				<path d="M147.73 83.08 A11.2054 11.2054 -180 0 0 153.4 87.33 L147.73 83.08 Z" class="st2"/>
				<path d="M147.73 83.08 A11.2054 11.2054 -180 0 0 153.4 87.33" class="st1"/>
			</g>
			<g id="shape1466-131" transform="translate(85.0976,-78.0172)">
				<title>Sheet.1466</title>
				<path d="M-0.12 87.33 A11.2054 11.2054 -180 0 0 -5.79 83.08 L-0.12 87.33 Z" class="st2"/>
				<path d="M-0.12 87.33 A11.2054 11.2054 -180 0 0 -5.79 83.08" class="st1"/>
			</g>
			<g id="shape1467-134" transform="translate(78.8605,-78.6098)">
				<title>Sheet.1467</title>
				<path d="M5.67 87.33 A18.068 18.068 -180 0 0 0 83.08 L5.67 87.33 Z" class="st2"/>
				<path d="M5.67 87.33 A18.068 18.068 -180 0 0 0 83.08" class="st1"/>
			</g>
			<g id="shape1468-137" transform="translate(85.0309,-2.84295)">
				<title>Sheet.1468</title>
				<path d="M0 83.08 A18.068 18.068 -180 0 0 5.67 87.33 L0 83.08 Z" class="st2"/>
				<path d="M0 83.08 A18.068 18.068 -180 0 0 5.67 87.33" class="st1"/>
			</g>
			<g id="shape1469-140" transform="translate(79.363,-2.83209)">
				<title>Sheet.1469</title>
				<path d="M5.68 83.08 A11.2054 11.2054 -180 0 0 11.35 87.33 L5.68 83.08 Z" class="st2"/>
				<path d="M5.68 83.08 A11.2054 11.2054 -180 0 0 11.35 87.33" class="st1"/>
			</g>
		</g>
	</g>
</svg>
