<?xml version="1.0" encoding="UTF-8" standalone="no"?>
<!DOCTYPE svg PUBLIC "-//W3C//DTD SVG 1.1//EN" "http://www.w3.org/Graphics/SVG/1.1/DTD/svg11.dtd">
<!-- Generated by Microsoft Visio, SVG Export PE008A.svg Page-1 -->
<svg xmlns="http://www.w3.org/2000/svg" xmlns:xlink="http://www.w3.org/1999/xlink" xmlns:ev="http://www.w3.org/2001/xml-events"
		width="6.33046in" height="1.60605in" viewBox="0 0 455.793 115.636" xml:space="preserve" color-interpolation-filters="sRGB"
		class="st2">
	<title>PE008A</title>

	<style type="text/css">
	<![CDATA[
		.st1 {stroke:#000000;stroke-linecap:round;stroke-linejoin:round;stroke-width:2.25}
		.st2 {fill:none;fill-rule:evenodd;font-size:12px;overflow:visible;stroke-linecap:square;stroke-miterlimit:3}
	]]>
	</style>

	<g>
		<title>Page-1</title>
		<g id="group1466-1" transform="translate(1.125,-1.125)">
			<title>STPK016.165</title>
			<g id="shape1467-2" transform="translate(2.79776E-14,-113.386)">
				<title>Sheet.1467</title>
				<path d="M0 115.64 L30.23 115.64" class="st1"/>
			</g>
			<g id="shape1468-5" transform="translate(60.4762,-113.386)">
				<title>Sheet.1468</title>
				<path d="M0 115.64 L30.23 115.64" class="st1"/>
			</g>
			<g id="shape1469-8" transform="translate(120.941,-113.386)">
				<title>Sheet.1469</title>
				<path d="M0 115.64 L30.24 115.64" class="st1"/>
			</g>
			<g id="shape1470-11" transform="translate(181.417,-113.386)">
				<title>Sheet.1470</title>
				<path d="M0 115.64 L30.23 115.64" class="st1"/>
			</g>
			<g id="shape1471-14" transform="translate(241.893,-113.386)">
				<title>Sheet.1471</title>
				<path d="M0 115.64 L30.23 115.64" class="st1"/>
			</g>
			<g id="shape1472-17" transform="translate(302.358,-113.386)">
				<title>Sheet.1472</title>
				<path d="M0 115.64 L30.24 115.64" class="st1"/>
			</g>
			<g id="shape1473-20" transform="translate(362.835,-113.386)">
				<title>Sheet.1473</title>
				<path d="M0 115.64 L30.23 115.64" class="st1"/>
			</g>
			<g id="shape1474-23" transform="translate(423.311,-113.386)">
				<title>Sheet.1474</title>
				<path d="M0 115.64 L30.23 115.64" class="st1"/>
			</g>
			<g id="shape1475-26" transform="translate(535.31,84.0169) rotate(135)">
				<title>Sheet.1475</title>
				<path d="M0 115.64 L30.07 115.64" class="st1"/>
			</g>
			<g id="shape1476-29" transform="translate(499.877,119.45) rotate(135)">
				<title>Sheet.1476</title>
				<path d="M0 115.64 L30.07 115.64" class="st1"/>
			</g>
			<g id="shape1477-32">
				<title>Sheet.1477</title>
				<path d="M0 115.64 L30.23 115.64" class="st1"/>
			</g>
			<g id="shape1478-35" transform="translate(60.4762,0)">
				<title>Sheet.1478</title>
				<path d="M0 115.64 L30.23 115.64" class="st1"/>
			</g>
			<g id="shape1479-38" transform="translate(120.941,0)">
				<title>Sheet.1479</title>
				<path d="M0 115.64 L30.24 115.64" class="st1"/>
			</g>
			<g id="shape1480-41" transform="translate(181.417,0)">
				<title>Sheet.1480</title>
				<path d="M0 115.64 L30.23 115.64" class="st1"/>
			</g>
			<g id="shape1481-44" transform="translate(241.893,0)">
				<title>Sheet.1481</title>
				<path d="M0 115.64 L30.23 115.64" class="st1"/>
			</g>
			<g id="shape1482-47" transform="translate(302.358,0)">
				<title>Sheet.1482</title>
				<path d="M0 115.64 L30.24 115.64" class="st1"/>
			</g>
			<g id="shape1483-50" transform="translate(362.835,0)">
				<title>Sheet.1483</title>
				<path d="M0 115.64 L30.23 115.64" class="st1"/>
			</g>
			<g id="shape1484-53" transform="translate(423.311,0)">
				<title>Sheet.1484</title>
				<path d="M0 115.64 L30.23 115.64" class="st1"/>
			</g>
			<g id="shape1485-56" transform="translate(336.343,161.97) rotate(-135)">
				<title>Sheet.1485</title>
				<path d="M0 115.64 L30.07 115.64" class="st1"/>
			</g>
			<g id="shape1486-59" transform="translate(371.776,197.403) rotate(-135)">
				<title>Sheet.1486</title>
				<path d="M0 115.64 L30.07 115.64" class="st1"/>
			</g>
		</g>
	</g>
</svg>
