<?xml version="1.0" encoding="UTF-8" standalone="no"?>
<!DOCTYPE svg PUBLIC "-//W3C//DTD SVG 1.1//EN" "http://www.w3.org/Graphics/SVG/1.1/DTD/svg11.dtd">
<!-- Generated by Microsoft Visio, SVG Export PE018A.svg Page-1 -->
<svg xmlns="http://www.w3.org/2000/svg" xmlns:xlink="http://www.w3.org/1999/xlink" xmlns:ev="http://www.w3.org/2001/xml-events"
		width="2.96557in" height="1.21235in" viewBox="0 0 213.521 87.2894" xml:space="preserve" color-interpolation-filters="sRGB"
		class="st4">
	<title>PE018A</title>

	<style type="text/css">
	<![CDATA[
		.st1 {fill:none;stroke:#000000;stroke-linecap:round;stroke-linejoin:round;stroke-width:2.25}
		.st2 {fill:none}
		.st3 {stroke:#000000;stroke-linecap:round;stroke-linejoin:round;stroke-width:2.25}
		.st4 {fill:none;fill-rule:evenodd;font-size:12px;overflow:visible;stroke-linecap:square;stroke-miterlimit:3}
	]]>
	</style>

	<g>
		<title>Page-1</title>
		<g id="group1508-1" transform="translate(13.9711,-1.125)">
			<title>Sheet.1508</title>
			<g id="shape1480-2">
				<title>Rectangle</title>
				<rect x="0" y="2.25" width="141.732" height="85.0394" class="st1"/>
			</g>
			<g id="shape1498-4" transform="translate(5.25392E-14,-0.723885)">
				<title>Sheet.1498</title>
				<path d="M0 2.97 A75.5989 75.5989 -180 0 0 0 87.29 L0 2.97 Z" class="st2"/>
				<path d="M0 2.97 A75.5989 75.5989 -180 0 0 0 87.29" class="st3"/>
			</g>
			<g id="shape1500-7" transform="translate(141.732,5.68434E-14) scale(-1,1)">
				<title>Sheet.1500</title>
				<path d="M0 2.97 A75.5989 75.5989 -180 0 0 0 87.29 L0 2.97 Z" class="st2"/>
				<path d="M0 2.97 A75.5989 75.5989 -180 0 0 0 87.29" class="st3"/>
			</g>
			<g id="shape1501-10" transform="translate(14.1732,-70.8661)">
				<title>Sheet.1501</title>
				<path d="M0 87.29 L113.39 87.29" class="st3"/>
			</g>
			<g id="shape1502-13" transform="translate(14.1732,-14.1732)">
				<title>Sheet.1502</title>
				<path d="M0 87.29 L113.39 87.29" class="st3"/>
			</g>
			<g id="shape1503-16" transform="translate(14.1732,-42.5197)">
				<title>Sheet.1503</title>
				<path d="M0 87.29 L113.39 87.29" class="st3"/>
			</g>
			<g id="shape1504-19" transform="translate(155.906,-42.5197)">
				<title>Sheet.1504</title>
				<path d="M0 87.29 L42.52 87.29" class="st3"/>
			</g>
		</g>
	</g>
</svg>
