<?xml version="1.0" encoding="UTF-8" standalone="no"?>
<!DOCTYPE svg PUBLIC "-//W3C//DTD SVG 1.1//EN" "http://www.w3.org/Graphics/SVG/1.1/DTD/svg11.dtd">
<!-- Generated by Microsoft Visio, SVG Export PE015A.svg Page-1 -->
<svg xmlns="http://www.w3.org/2000/svg" xmlns:xlink="http://www.w3.org/1999/xlink" xmlns:ev="http://www.w3.org/2001/xml-events"
		width="4.75566in" height="1.21235in" viewBox="0 0 342.407 87.2894" xml:space="preserve" color-interpolation-filters="sRGB"
		class="st2">
	<title>PE015A</title>

	<style type="text/css">
	<![CDATA[
		.st1 {fill:none;stroke:#000000;stroke-linecap:round;stroke-linejoin:round;stroke-width:2.25}
		.st2 {fill:none;fill-rule:evenodd;font-size:12px;overflow:visible;stroke-linecap:square;stroke-miterlimit:3}
	]]>
	</style>

	<g>
		<title>Page-1</title>
		<g id="group1464-1" transform="translate(1.125,-1.125)">
			<title>Sheet.1464</title>
			<g id="shape1449-2">
				<title>Rectangle</title>
				<rect x="0" y="2.25001" width="5.66929" height="85.0394" class="st1"/>
			</g>
			<g id="shape1450-4" transform="translate(334.488,-2.95764E-06)">
				<title>Rectangle.1450</title>
				<rect x="0" y="2.25001" width="5.66929" height="85.0394" class="st1"/>
			</g>
			<g id="shape1451-6" transform="translate(5.66929,-14.1732)">
				<title>Rectangle.1451</title>
				<rect x="0" y="30.5965" width="328.819" height="56.6929" class="st1"/>
			</g>
			<g id="shape1452-8" transform="translate(6.80315,-14.1732)">
				<title>Triangle</title>
				<path d="M46.57 87.29 L23.28 30.6 L0 87.29 L46.57 87.29 Z" class="st1"/>
			</g>
			<g id="shape1457-10" transform="translate(53.3723,-14.1732)">
				<title>Triangle.1457</title>
				<path d="M46.57 87.29 L23.28 30.6 L0 87.29 L46.57 87.29 Z" class="st1"/>
			</g>
			<g id="shape1458-12" transform="translate(99.9415,-14.1732)">
				<title>Triangle.1458</title>
				<path d="M46.57 87.29 L23.28 30.6 L0 87.29 L46.57 87.29 Z" class="st1"/>
			</g>
			<g id="shape1459-14" transform="translate(146.511,-14.1732)">
				<title>Triangle.1459</title>
				<path d="M46.57 87.29 L23.28 30.6 L0 87.29 L46.57 87.29 Z" class="st1"/>
			</g>
			<g id="shape1460-16" transform="translate(193.08,-14.1732)">
				<title>Triangle.1460</title>
				<path d="M46.57 87.29 L23.28 30.6 L0 87.29 L46.57 87.29 Z" class="st1"/>
			</g>
			<g id="shape1461-18" transform="translate(239.649,-14.1732)">
				<title>Triangle.1461</title>
				<path d="M46.57 87.29 L23.28 30.6 L0 87.29 L46.57 87.29 Z" class="st1"/>
			</g>
			<g id="shape1462-20" transform="translate(286.218,-14.1732)">
				<title>Triangle.1462</title>
				<path d="M46.57 87.29 L23.28 30.6 L0 87.29 L46.57 87.29 Z" class="st1"/>
			</g>
		</g>
	</g>
</svg>
