<?xml version="1.0" encoding="UTF-8" standalone="no"?>
<!DOCTYPE svg PUBLIC "-//W3C//DTD SVG 1.1//EN" "http://www.w3.org/Graphics/SVG/1.1/DTD/svg11.dtd">
<!-- Generated by Microsoft Visio, SVG Export PE018A_Detail.svg Page-1 -->
<svg xmlns="http://www.w3.org/2000/svg" xmlns:xlink="http://www.w3.org/1999/xlink" xmlns:ev="http://www.w3.org/2001/xml-events"
		width="4.34498in" height="2.76497in" viewBox="0 0 312.839 199.078" xml:space="preserve" color-interpolation-filters="sRGB"
		class="st17">
	<title>PE018A</title>

	<style type="text/css">
	<![CDATA[
		.st1 {fill:#ffffff}
		.st2 {stroke:#000000;stroke-linecap:round;stroke-linejoin:round;stroke-width:0.24}
		.st3 {marker-end:url(#mrkr13-7);stroke:#000000;stroke-linecap:round;stroke-linejoin:round;stroke-width:0.24}
		.st4 {fill:#000000;fill-opacity:1;stroke:#000000;stroke-opacity:1;stroke-width:0.11764705882353}
		.st5 {fill:#ffffff;stroke:none;stroke-linecap:butt;stroke-width:7.2}
		.st6 {fill:#000000;font-family:Calibri;font-size:0.666664em}
		.st7 {fill:none;stroke:#ff0000;stroke-linecap:round;stroke-linejoin:round;stroke-width:0.75}
		.st8 {fill:#ff0000;font-family:Arial Narrow;font-size:0.833336em;font-weight:bold}
		.st9 {fill:none;stroke:none;stroke-linecap:round;stroke-linejoin:round;stroke-width:0.75}
		.st10 {fill:#ff0000;font-family:Arial Narrow;font-size:0.811964em;font-weight:bold}
		.st11 {baseline-shift:33.35%;font-size:0.667em}
		.st12 {fill:none;stroke:#ff0000;stroke-linecap:round;stroke-linejoin:round;stroke-width:2.25}
		.st13 {stroke:#ff0000;stroke-linecap:round;stroke-linejoin:round;stroke-width:1.5}
		.st14 {fill:none;stroke:#000000;stroke-linecap:round;stroke-linejoin:round;stroke-width:2.25}
		.st15 {fill:none}
		.st16 {stroke:#000000;stroke-linecap:round;stroke-linejoin:round;stroke-width:2.25}
		.st17 {fill:none;fill-rule:evenodd;font-size:12px;overflow:visible;stroke-linecap:square;stroke-miterlimit:3}
	]]>
	</style>

	<defs id="Markers">
		<g id="lend13">
			<path d="M 3 1 L 0 0 L 3 -1 L 3 1 " style="stroke:none"/>
		</g>
		<marker id="mrkr13-7" class="st4" refX="-25.5" orient="auto" markerUnits="strokeWidth" overflow="visible">
			<use xlink:href="#lend13" transform="scale(-8.5000000000001,-8.5000000000001) "/>
		</marker>
	</defs>
	<g>
		<title>Page-1</title>
		<g id="shape1418-1" transform="translate(262.483,-107.047)">
			<title>Horizontal.1018</title>
			<desc>3mm</desc>
			<path d="M0 162.73 L0 195.08 L0 162.73 ZM42.52 162.73 L42.52 180.16 L42.52 162.73 Z" class="st1"/>
			<path d="M0 162.73 L0 195.08 L0 162.73" class="st2"/>
			<path d="M42.52 162.73 L42.52 180.16 L42.52 162.73" class="st2"/>
			<path d="M21.26 170.73 L6.12 170.73" class="st3"/>
			<path d="M21.26 170.73 L36.4 170.73" class="st3"/>
			<rect x="12.842" y="159.13" width="16.8357" height="9.59985" class="st5"/>
			<text x="12.84" y="166.33" class="st6">3mm</text>		</g>
		<g id="group1420-14" transform="translate(132.782,-0.375)">
			<title>Sheet.1420</title>
			<g id="shape1421-15" transform="translate(2.14165,0)">
				<title>Sheet.1421</title>
				<desc>1</desc>
				<rect x="0" y="184.905" width="85.0394" height="14.1732" class="st7"/>
				<text x="40.24" y="194.99" class="st8">1</text>			</g>
			<g id="shape1422-18" transform="translate(0,-4.47576)">
				<title>Sheet.1422</title>
				<desc>A</desc>
				<rect x="0" y="184.905" width="13.2348" height="14.1732" class="st9"/>
				<text x="4" y="198.6" class="st10"><tspan class="st11">A</tspan></text>			</g>
		</g>
		<g id="shape1435-22" transform="translate(298.438,-64.6767)">
			<title>Circle</title>
			<path d="M0 192.51 A6.56444 6.56444 0 0 1 13.13 192.51 A6.56444 6.56444 0 1 1 0 192.51 Z" class="st12"/>
		</g>
		<g id="shape1443-24" transform="translate(106.577,-127.934)">
			<title>Horizontal.1443</title>
			<desc>10mm</desc>
			<path d="M0 162.73 L0 195.08 L0 162.73 ZM141.73 162.73 L141.73 195.08 L141.73 162.73 Z" class="st1"/>
			<path d="M0 162.73 L0 195.08 L0 162.73" class="st2"/>
			<path d="M141.73 162.73 L141.73 195.08 L141.73 162.73" class="st2"/>
			<path d="M70.87 170.73 L6.12 170.73" class="st3"/>
			<path d="M70.87 170.73 L135.61 170.73" class="st3"/>
			<rect x="60.4209" y="159.13" width="20.8905" height="9.59985" class="st5"/>
			<text x="60.42" y="166.33" class="st6">10mm</text>		</g>
		<g id="shape1466-36" transform="translate(-163.367,170.357) rotate(-90)">
			<title>Vertical.1466</title>
			<desc>6mm</desc>
			<path d="M0 169.82 L0 195.08 L0 169.82 ZM85.04 169.82 L85.04 195.08 L85.04 169.82 Z" class="st1"/>
			<path d="M0 169.82 L0 195.08 L0 169.82" class="st2"/>
			<path d="M85.04 169.82 L85.04 195.08 L85.04 169.82" class="st2"/>
			<path d="M42.52 177.82 L6.12 177.82" class="st3"/>
			<path d="M42.52 177.82 L78.92 177.82" class="st3"/>
			<rect x="34.1018" y="166.217" width="16.8357" height="9.59985" class="st5"/>
			<text x="34.1" y="173.42" class="st6">6mm</text>		</g>
		<g id="group1505-48" transform="translate(297.916,-64.1545)">
			<title>Sheet.1505</title>
			<g id="shape1506-49" transform="translate(154.943,325.674) rotate(135)">
				<title>Sheet.1506</title>
				<path d="M0 199.08 L20.04 199.08" class="st13"/>
			</g>
			<g id="shape1507-52" transform="translate(-126.596,339.848) rotate(-135)">
				<title>Sheet.1507</title>
				<path d="M0 199.08 L20.04 199.08" class="st13"/>
			</g>
		</g>
		<g id="group1508-55" transform="translate(106.577,-28.7215)">
			<title>Sheet.1508</title>
			<g id="shape1480-56">
				<title>Rectangle</title>
				<rect x="0" y="114.039" width="141.732" height="85.0394" class="st14"/>
			</g>
			<g id="shape1498-58" transform="translate(5.25392E-14,-0.723885)">
				<title>Sheet.1498</title>
				<path d="M0 114.76 A75.5989 75.5989 -180 0 0 0 199.08 L0 114.76 Z" class="st15"/>
				<path d="M0 114.76 A75.5989 75.5989 -180 0 0 0 199.08" class="st16"/>
			</g>
			<g id="shape1500-61" transform="translate(141.732,5.68434E-14) scale(-1,1)">
				<title>Sheet.1500</title>
				<path d="M0 114.76 A75.5989 75.5989 -180 0 0 0 199.08 L0 114.76 Z" class="st15"/>
				<path d="M0 114.76 A75.5989 75.5989 -180 0 0 0 199.08" class="st16"/>
			</g>
			<g id="shape1501-64" transform="translate(14.1732,-70.8661)">
				<title>Sheet.1501</title>
				<path d="M0 199.08 L113.39 199.08" class="st16"/>
			</g>
			<g id="shape1502-67" transform="translate(14.1732,-14.1732)">
				<title>Sheet.1502</title>
				<path d="M0 199.08 L113.39 199.08" class="st16"/>
			</g>
			<g id="shape1503-70" transform="translate(14.1732,-42.5197)">
				<title>Sheet.1503</title>
				<path d="M0 199.08 L113.39 199.08" class="st16"/>
			</g>
			<g id="shape1504-73" transform="translate(155.906,-42.5197)">
				<title>Sheet.1504</title>
				<path d="M0 199.08 L42.52 199.08" class="st16"/>
			</g>
		</g>
		<g id="shape1509-76" transform="translate(92.4038,-156.281)">
			<title>Horizontal.1509</title>
			<desc>12mm</desc>
			<path d="M0 162.73 L0 195.08 L0 162.73 ZM170.08 162.73 L170.08 195.08 L170.08 162.73 Z" class="st1"/>
			<path d="M0 162.73 L0 195.08 L0 162.73" class="st2"/>
			<path d="M170.08 162.73 L170.08 195.08 L170.08 162.73" class="st2"/>
			<path d="M85.04 170.73 L6.12 170.73" class="st3"/>
			<path d="M85.04 170.73 L163.96 170.73" class="st3"/>
			<rect x="74.5941" y="159.13" width="20.8905" height="9.59985" class="st5"/>
			<text x="74.59" y="166.33" class="st6">12mm</text>		</g>
	</g>
</svg>
