<?xml version="1.0" encoding="UTF-8" standalone="no"?>
<!DOCTYPE svg PUBLIC "-//W3C//DTD SVG 1.1//EN" "http://www.w3.org/Graphics/SVG/1.1/DTD/svg11.dtd">
<!-- Generated by Microsoft Visio, SVG Export PE013A_Detail.svg Page-1 -->
<svg xmlns="http://www.w3.org/2000/svg" xmlns:xlink="http://www.w3.org/1999/xlink" xmlns:ev="http://www.w3.org/2001/xml-events"
		width="4.56253in" height="5.48755in" viewBox="0 0 328.502 395.103" xml:space="preserve" color-interpolation-filters="sRGB"
		class="st14">
	<title>PE013A</title>

	<style type="text/css">
	<![CDATA[
		.st1 {fill:#ffffff}
		.st2 {stroke:#000000;stroke-linecap:round;stroke-linejoin:round;stroke-width:0.24}
		.st3 {marker-end:url(#mrkr13-7);stroke:#000000;stroke-linecap:round;stroke-linejoin:round;stroke-width:0.24}
		.st4 {fill:#000000;fill-opacity:1;stroke:#000000;stroke-opacity:1;stroke-width:0.11764705882353}
		.st5 {fill:#ffffff;stroke:none;stroke-linecap:butt;stroke-width:7.2}
		.st6 {fill:#000000;font-family:Calibri;font-size:0.666664em}
		.st7 {fill:none;stroke:#ff0000;stroke-linecap:round;stroke-linejoin:round;stroke-width:0.75}
		.st8 {fill:#ff0000;font-family:Arial Narrow;font-size:0.833336em;font-weight:bold}
		.st9 {fill:none;stroke:none;stroke-linecap:round;stroke-linejoin:round;stroke-width:0.75}
		.st10 {fill:#ff0000;font-family:Arial Narrow;font-size:0.811964em;font-weight:bold}
		.st11 {baseline-shift:33.35%;font-size:0.667em}
		.st12 {fill:none;stroke:#ff0000;stroke-linecap:round;stroke-linejoin:round;stroke-width:2.25}
		.st13 {stroke:#000000;stroke-linecap:round;stroke-linejoin:round;stroke-width:2.25}
		.st14 {fill:none;fill-rule:evenodd;font-size:12px;overflow:visible;stroke-linecap:square;stroke-miterlimit:3}
	]]>
	</style>

	<defs id="Markers">
		<g id="lend13">
			<path d="M 3 1 L 0 0 L 3 -1 L 3 1 " style="stroke:none"/>
		</g>
		<marker id="mrkr13-7" class="st4" refX="-25.5" orient="auto" markerUnits="strokeWidth" overflow="visible">
			<use xlink:href="#lend13" transform="scale(-8.5000000000001,-8.5000000000001) "/>
		</marker>
	</defs>
	<g>
		<title>Page-1</title>
		<g id="shape1418-1" transform="translate(58.8356,-2.45105)">
			<title>Horizontal.1018</title>
			<desc>12mm</desc>
			<path d="M0 358.76 L0 391.1 L0 358.76 ZM170.08 358.76 L170.08 376.93 L170.08 358.76 Z" class="st1"/>
			<path d="M0 358.76 L0 391.1 L0 358.76" class="st2"/>
			<path d="M170.08 358.76 L170.08 376.93 L170.08 358.76" class="st2"/>
			<path d="M85.04 366.76 L6.12 366.76" class="st3"/>
			<path d="M85.04 366.76 L163.96 366.76" class="st3"/>
			<rect x="74.5941" y="355.155" width="20.8905" height="9.59985" class="st5"/>
			<text x="74.59" y="362.36" class="st6">12mm</text>		</g>
		<g id="shape1419-14" transform="translate(-359.393,326.262) rotate(-90)">
			<title>Vertical.1019</title>
			<desc>20mm</desc>
			<path d="M0 365.84 L0 391.1 L0 365.84 ZM284.31 365.84 L284.31 391.1 L284.31 365.84 Z" class="st1"/>
			<path d="M0 365.84 L0 391.1 L0 365.84" class="st2"/>
			<path d="M284.31 365.84 L284.31 391.1 L284.31 365.84" class="st2"/>
			<path d="M142.15 373.84 L6.12 373.84" class="st3"/>
			<path d="M142.15 373.84 L278.19 373.84" class="st3"/>
			<rect x="131.708" y="362.242" width="20.8905" height="9.59985" class="st5"/>
			<text x="131.71" y="369.44" class="st6">20mm</text>		</g>
		<g id="group1420-26" transform="translate(240.946,-210.574)">
			<title>Sheet.1420</title>
			<g id="shape1421-27" transform="translate(2.14165,0)">
				<title>Sheet.1421</title>
				<desc>1</desc>
				<rect x="0" y="380.93" width="85.0394" height="14.1732" class="st7"/>
				<text x="40.24" y="391.02" class="st8">1</text>			</g>
			<g id="shape1422-30" transform="translate(0,-4.47576)">
				<title>Sheet.1422</title>
				<desc>A</desc>
				<rect x="0" y="380.93" width="13.2348" height="14.1732" class="st9"/>
				<text x="4" y="394.62" class="st10"><tspan class="st11">A</tspan></text>			</g>
		</g>
		<g id="shape1435-34" transform="translate(137.311,-62.277)">
			<title>Circle</title>
			<path d="M0 388.54 A6.56444 6.56444 0 0 1 13.13 388.54 A6.56444 6.56444 0 1 1 0 388.54 Z" class="st12"/>
		</g>
		<g id="group1436-36" transform="translate(58.8356,-68.8414)">
			<title>STPE026.227</title>
			<g id="shape1437-37" transform="translate(56.6929,-283.465)">
				<title>Sheet.1437</title>
				<path d="M0 395.1 L56.69 395.1" class="st13"/>
			</g>
			<g id="shape1438-40" transform="translate(500.817,34.1527) rotate(78.6901)">
				<title>Sheet.1438</title>
				<path d="M0 395.1 L289.08 395.1" class="st13"/>
			</g>
			<g id="shape1439-43" transform="translate(170.079,790.207) rotate(180)">
				<title>Sheet.1439</title>
				<path d="M0 395.1 L170.08 395.1" class="st13"/>
			</g>
			<g id="shape1440-46" transform="translate(-387.431,317.617) rotate(-78.6901)">
				<title>Sheet.1440</title>
				<path d="M0 395.1 L289.08 395.1" class="st13"/>
			</g>
		</g>
		<g id="shape1443-49" transform="translate(115.529,-352.306)">
			<title>Horizontal.1443</title>
			<desc>4mm</desc>
			<path d="M0 358.76 L0 391.1 L0 358.76 ZM57.29 358.76 L57.29 386.33 L57.29 358.76 Z" class="st1"/>
			<path d="M0 358.76 L0 391.1 L0 358.76" class="st2"/>
			<path d="M57.29 358.76 L57.29 386.33 L57.29 358.76" class="st2"/>
			<path d="M28.64 366.76 L6.12 366.76" class="st3"/>
			<path d="M28.64 366.76 L51.17 366.76" class="st3"/>
			<rect x="20.227" y="355.155" width="16.8357" height="9.59985" class="st5"/>
			<text x="20.23" y="362.36" class="st6">4mm</text>		</g>
	</g>
</svg>
