<?xml version="1.0" encoding="UTF-8" standalone="no"?>
<!DOCTYPE svg PUBLIC "-//W3C//DTD SVG 1.1//EN" "http://www.w3.org/Graphics/SVG/1.1/DTD/svg11.dtd">
<!-- Generated by Microsoft Visio, SVG Export PE017A.svg Page-1 -->
<svg xmlns="http://www.w3.org/2000/svg" xmlns:xlink="http://www.w3.org/1999/xlink" xmlns:ev="http://www.w3.org/2001/xml-events"
		width="6.33046in" height="2.1966in" viewBox="0 0 455.793 158.156" xml:space="preserve" color-interpolation-filters="sRGB"
		class="st2">
	<title>PE017A</title>

	<style type="text/css">
	<![CDATA[
		.st1 {stroke:#000000;stroke-linecap:round;stroke-linejoin:round;stroke-width:2.25}
		.st2 {fill:none;fill-rule:evenodd;font-size:12px;overflow:visible;stroke-linecap:square;stroke-miterlimit:3}
	]]>
	</style>

	<g>
		<title>Page-1</title>
		<g id="group1467-1" transform="translate(1.125,-1.12501)">
			<title>Sheet.1467</title>
			<g id="shape1446-2" transform="translate(15.0591,-20.9282)">
				<title>Sheet.1446</title>
				<path d="M0 158.16 L254.23 158.16" class="st1"/>
			</g>
			<g id="shape1447-5" transform="translate(8.59313E-14,-155.906)">
				<title>Sheet.1447</title>
				<path d="M0 158.16 L15.06 158.16" class="st1"/>
			</g>
			<g id="shape1448-8" transform="translate(15.0591,316.311) rotate(180)">
				<title>Sheet.1448</title>
				<path d="M0 158.16 L15.06 158.16" class="st1"/>
			</g>
			<g id="shape1449-11" transform="translate(-158.156,158.156) rotate(-90)">
				<title>Sheet.1449</title>
				<path d="M0 158.16 L155.91 158.16" class="st1"/>
			</g>
			<g id="shape1450-14" transform="translate(173.215,2.25001) rotate(90)">
				<title>Sheet.1450</title>
				<path d="M0 158.16 L155.91 158.16" class="st1"/>
			</g>
			<g id="shape1454-17" transform="translate(453.543,280.878) rotate(180)">
				<title>Sheet.1454</title>
				<path d="M0 158.16 L141.73 158.16" class="st1"/>
			</g>
			<g id="shape1456-20" transform="translate(220.17,-13.441) rotate(-18.4349)">
				<title>Sheet.1456</title>
				<path d="M0 158.16 L43.88 158.16" class="st1"/>
			</g>
			<g id="shape1457-23" transform="translate(295.388,122.722) rotate(-90)">
				<title>Sheet.1457</title>
				<path d="M0 158.16 L83.92 158.16" class="st1"/>
			</g>
			<g id="shape1458-26" transform="translate(469.967,37.6831) rotate(90)">
				<title>Sheet.1458</title>
				<path d="M0 158.16 L83.2 158.16" class="st1"/>
			</g>
			<g id="shape1460-29" transform="translate(16.9164,181.68) scale(1,-1)">
				<title>Sheet.1460</title>
				<path d="M0 158.16 L252.37 158.16" class="st1"/>
			</g>
			<g id="shape1462-32" transform="translate(452.657,-120.03) scale(-1,1)">
				<title>Sheet.1462</title>
				<path d="M0 158.16 L140.85 158.16" class="st1"/>
			</g>
			<g id="shape1463-35" transform="translate(219.278,173.549) rotate(18.4349) scale(1,-1)">
				<title>Sheet.1463</title>
				<path d="M0 158.16 L45.76 158.16" class="st1"/>
			</g>
		</g>
	</g>
</svg>
