<?xml version="1.0" encoding="UTF-8" standalone="no"?>
<!DOCTYPE svg PUBLIC "-//W3C//DTD SVG 1.1//EN" "http://www.w3.org/Graphics/SVG/1.1/DTD/svg11.dtd">
<!-- Generated by Microsoft Visio, SVG Export PE010A_Detail.svg Page-1 -->
<svg xmlns="http://www.w3.org/2000/svg" xmlns:xlink="http://www.w3.org/1999/xlink" xmlns:ev="http://www.w3.org/2001/xml-events"
		width="3.8638in" height="4.25171in" viewBox="0 0 278.193 306.123" xml:space="preserve" color-interpolation-filters="sRGB"
		class="st16">
	<title>PE010A</title>

	<style type="text/css">
	<![CDATA[
		.st1 {fill:#ffffff;stroke:#ff0000;stroke-linecap:round;stroke-linejoin:round;stroke-width:2.25}
		.st2 {stroke:#000000;stroke-linecap:round;stroke-linejoin:round;stroke-width:2.25}
		.st3 {stroke:#000000;stroke-dasharray:15.75,11.25;stroke-linecap:round;stroke-linejoin:round;stroke-width:2.25}
		.st4 {fill:#ffffff}
		.st5 {stroke:#000000;stroke-linecap:round;stroke-linejoin:round;stroke-width:0.24}
		.st6 {marker-end:url(#mrkr13-45);stroke:#000000;stroke-linecap:round;stroke-linejoin:round;stroke-width:0.24}
		.st7 {fill:#000000;fill-opacity:1;stroke:#000000;stroke-opacity:1;stroke-width:0.11764705882353}
		.st8 {fill:#ffffff;stroke:none;stroke-linecap:butt;stroke-width:7.2}
		.st9 {fill:#000000;font-family:Calibri;font-size:0.666664em}
		.st10 {fill:#ffffff;stroke:none;stroke-linecap:butt}
		.st11 {fill:none;stroke:#ff0000;stroke-linecap:round;stroke-linejoin:round;stroke-width:0.75}
		.st12 {fill:#ff0000;font-family:Arial Narrow;font-size:0.833336em;font-weight:bold}
		.st13 {fill:none;stroke:none;stroke-linecap:round;stroke-linejoin:round;stroke-width:0.75}
		.st14 {fill:#ff0000;font-family:Arial Narrow;font-size:0.811964em;font-weight:bold}
		.st15 {baseline-shift:33.35%;font-size:0.667em}
		.st16 {fill:none;fill-rule:evenodd;font-size:12px;overflow:visible;stroke-linecap:square;stroke-miterlimit:3}
	]]>
	</style>

	<defs id="Markers">
		<g id="lend13">
			<path d="M 3 1 L 0 0 L 3 -1 L 3 1 " style="stroke:none"/>
		</g>
		<marker id="mrkr13-45" class="st7" refX="-25.5" orient="auto" markerUnits="strokeWidth" overflow="visible">
			<use xlink:href="#lend13" transform="scale(-8.5000000000001,-8.5000000000001) "/>
		</marker>
	</defs>
	<g>
		<title>Page-1</title>
		<g id="shape1405-1" transform="translate(113.272,-129.299)">
			<title>Circle</title>
			<path d="M0 299.56 A6.56444 6.56444 0 0 1 13.13 299.56 A6.56444 6.56444 0 1 1 0 299.56 Z" class="st1"/>
		</g>
		<g id="shape1406-3" transform="translate(312.573,55.8705) rotate(89.8122)">
			<title>Sheet.1406</title>
			<path d="M0 306.12 L227.62 306.12" class="st2"/>
		</g>
		<g id="shape1407-6" transform="translate(327.492,55.8705) rotate(89.8122)">
			<title>Sheet.1407</title>
			<path d="M0 306.12 L227.62 306.12" class="st2"/>
		</g>
		<g id="shape1408-9" transform="translate(525.171,55.8705) rotate(89.8122)">
			<title>Sheet.1408</title>
			<path d="M0 306.12 L227.62 306.12" class="st2"/>
		</g>
		<g id="shape1409-12" transform="translate(540.09,55.8705) rotate(89.8122)">
			<title>Sheet.1409</title>
			<path d="M0 306.12 L227.62 306.12" class="st2"/>
		</g>
		<g id="shape1410-15" transform="translate(6.45105,-249.249)">
			<title>Sheet.1410</title>
			<path d="M0 306.12 L14.92 306.12" class="st2"/>
		</g>
		<g id="shape1411-18" transform="translate(219.049,-249.249)">
			<title>Sheet.1411</title>
			<path d="M0 306.12 L14.92 306.12" class="st2"/>
		</g>
		<g id="shape1412-21" transform="translate(219.795,-21.6348)">
			<title>Sheet.1412</title>
			<path d="M0 306.12 L14.92 306.12" class="st2"/>
		</g>
		<g id="shape1413-24" transform="translate(7.197,-21.6348)">
			<title>Sheet.1413</title>
			<path d="M0 306.12 L14.92 306.12" class="st2"/>
		</g>
		<g id="shape1414-27" transform="translate(21.3702,-49.9813)">
			<title>Sheet.1414</title>
			<path d="M0 306.12 L198.33 306.12" class="st2"/>
		</g>
		<g id="shape1415-30" transform="translate(21.3702,-220.06)">
			<title>Sheet.1415</title>
			<path d="M0 306.12 L197.77 306.12" class="st2"/>
		</g>
		<g id="shape1416-33" transform="translate(173.25,-151.38) rotate(29.7449)">
			<title>Sheet.1416</title>
			<path d="M0 306.12 L228.54 306.12" class="st3"/>
		</g>
		<g id="shape1417-36" transform="translate(-130.509,-37.9939) rotate(-29.7449)">
			<title>Sheet.1417</title>
			<path d="M0 306.12 L228.54 306.12" class="st3"/>
		</g>
		<g id="shape1418-39" transform="translate(6.45105,-263.326)">
			<title>Horizontal.1018</title>
			<desc>32mm</desc>
			<path d="M0 269.78 L0 302.12 L0 269.78 ZM226.77 269.78 L226.77 302.12 L226.77 269.78 Z" class="st4"/>
			<path d="M0 269.78 L0 302.12 L0 269.78" class="st5"/>
			<path d="M226.77 269.78 L226.77 302.12 L226.77 269.78" class="st5"/>
			<path d="M113.39 277.78 L6.12 277.78" class="st6"/>
			<path d="M113.39 277.78 L220.65 277.78" class="st6"/>
			<rect x="102.941" y="266.175" width="20.8905" height="9.59985" class="st8"/>
			<text x="102.94" y="273.37" class="st9">32mm</text>		</g>
		<g id="shape1419-52" transform="translate(-30.3808,283.742) rotate(-90)">
			<title>Vertical.1019</title>
			<desc>32mm</desc>
			<path d="M0 276.86 L0 302.12 L0 276.86 ZM227.61 276.86 L227.61 302.12 L227.61 276.86 Z" class="st4"/>
			<path d="M0 276.86 L0 302.12 L0 276.86" class="st5"/>
			<path d="M227.61 276.86 L227.61 302.12 L227.61 276.86" class="st5"/>
			<path d="M113.81 284.86 L6.12 284.86" class="st6"/>
			<path d="M113.81 284.86 L221.49 284.86" class="st6"/>
			<rect x="103.362" y="273.262" width="20.8905" height="9.59985" class="st10"/>
			<text x="103.36" y="280.46" class="st9">32mm</text>		</g>
		<g id="group1420-64" transform="translate(75.8253,-0.375)">
			<title>Sheet.1420</title>
			<g id="shape1421-65" transform="translate(2.14165,0)">
				<title>Sheet.1421</title>
				<desc>1</desc>
				<rect x="0" y="291.95" width="85.0394" height="14.1732" class="st11"/>
				<text x="40.24" y="302.04" class="st12">1</text>			</g>
			<g id="shape1422-68" transform="translate(0,-4.47576)">
				<title>Sheet.1422</title>
				<desc>A</desc>
				<rect x="0" y="291.95" width="13.2348" height="14.1732" class="st13"/>
				<text x="4" y="305.64" class="st14"><tspan class="st15">A</tspan></text>			</g>
		</g>
	</g>
</svg>
