<?xml version="1.0" encoding="UTF-8" standalone="no"?>
<!DOCTYPE svg PUBLIC "-//W3C//DTD SVG 1.1//EN" "http://www.w3.org/Graphics/SVG/1.1/DTD/svg11.dtd">
<!-- Generated by Microsoft Visio, SVG Export PE023A.svg Page-1 -->
<svg xmlns="http://www.w3.org/2000/svg" xmlns:xlink="http://www.w3.org/1999/xlink" xmlns:ev="http://www.w3.org/2001/xml-events"
		width="3.18086in" height="3.96834in" viewBox="0 0 229.022 285.72" xml:space="preserve" color-interpolation-filters="sRGB"
		class="st2">
	<title>PE023A</title>

	<style type="text/css">
	<![CDATA[
		.st1 {stroke:#000000;stroke-linecap:round;stroke-linejoin:round;stroke-width:2.25}
		.st2 {fill:none;fill-rule:evenodd;font-size:12px;overflow:visible;stroke-linecap:square;stroke-miterlimit:3}
	]]>
	</style>

	<g>
		<title>Page-1</title>
		<g id="group1526-1" transform="translate(1.125,-1.125)">
			<title>STPD033.373</title>
			<g id="shape1527-2" transform="translate(-285.72,229.022) rotate(-90)">
				<title>Sheet.1527</title>
				<path d="M0 285.72 L226.77 285.72" class="st1"/>
			</g>
			<g id="shape1528-5" transform="translate(226.772,514.742) rotate(180)">
				<title>Sheet.1528</title>
				<path d="M0 285.72 L226.77 285.72" class="st1"/>
			</g>
			<g id="shape1529-8" transform="translate(127.793,-26.5267) rotate(26.5684)">
				<title>Sheet.1529</title>
				<path d="M0 285.72 L126.77 285.72" class="st1"/>
			</g>
			<g id="shape1530-11" transform="translate(-14.4027,30.1668) rotate(-26.5662)">
				<title>Sheet.1530</title>
				<path d="M0 285.72 L126.78 285.72" class="st1"/>
			</g>
			<g id="shape1531-14" transform="translate(226.772,287.97) rotate(180)">
				<title>Sheet.1531</title>
				<path d="M0 285.72 L226.77 285.72" class="st1"/>
			</g>
			<g id="shape1532-17" transform="translate(-58.9485,229.022) rotate(-90)">
				<title>Sheet.1532</title>
				<path d="M0 285.72 L226.77 285.72" class="st1"/>
			</g>
			<g id="shape1533-20" transform="translate(-257.374,200.675) rotate(-90)">
				<title>Sheet.1533</title>
				<path d="M0 285.72 L170.08 285.72" class="st1"/>
			</g>
			<g id="shape1534-23" transform="translate(28.3465,-255.124)">
				<title>Sheet.1534</title>
				<path d="M0 285.72 L170.08 285.72" class="st1"/>
			</g>
			<g id="shape1535-26" transform="translate(484.145,30.5965) rotate(90)">
				<title>Sheet.1535</title>
				<path d="M0 285.72 L170.08 285.72" class="st1"/>
			</g>
			<g id="shape1536-29" transform="translate(342.413,30.5965) rotate(90)">
				<title>Sheet.1536</title>
				<path d="M0 285.72 L170.08 285.72" class="st1"/>
			</g>
			<g id="shape1537-32" transform="translate(370.76,30.5965) rotate(90)">
				<title>Sheet.1537</title>
				<path d="M0 285.72 L170.08 285.72" class="st1"/>
			</g>
			<g id="shape1538-35" transform="translate(399.106,30.5965) rotate(90)">
				<title>Sheet.1538</title>
				<path d="M0 285.72 L170.08 285.72" class="st1"/>
			</g>
			<g id="shape1539-38" transform="translate(427.452,30.5965) rotate(90)">
				<title>Sheet.1539</title>
				<path d="M0 285.72 L170.08 285.72" class="st1"/>
			</g>
			<g id="shape1540-41" transform="translate(455.799,30.5965) rotate(90)">
				<title>Sheet.1540</title>
				<path d="M0 285.72 L170.08 285.72" class="st1"/>
			</g>
			<g id="shape1541-44" transform="translate(342.413,30.5965) rotate(90)">
				<title>Sheet.1541</title>
				<path d="M0 285.72 L170.08 285.72" class="st1"/>
			</g>
			<g id="shape1542-47" transform="translate(399.106,30.5965) rotate(90)">
				<title>Sheet.1542</title>
				<path d="M0 285.72 L170.08 285.72" class="st1"/>
			</g>
			<g id="shape1543-50" transform="translate(455.799,30.5965) rotate(90)">
				<title>Sheet.1543</title>
				<path d="M0 285.72 L170.08 285.72" class="st1"/>
			</g>
		</g>
	</g>
</svg>
