<?xml version="1.0" encoding="UTF-8" standalone="no"?>
<!DOCTYPE svg PUBLIC "-//W3C//DTD SVG 1.1//EN" "http://www.w3.org/Graphics/SVG/1.1/DTD/svg11.dtd">
<!-- Generated by Microsoft Visio, SVG Export PE029A.svg Page-1 -->
<svg xmlns="http://www.w3.org/2000/svg" xmlns:xlink="http://www.w3.org/1999/xlink" xmlns:ev="http://www.w3.org/2001/xml-events"
		width="4.36197in" height="2.39345in" viewBox="0 0 314.062 172.329" xml:space="preserve" color-interpolation-filters="sRGB"
		class="st3">
	<title>PE029A</title>

	<style type="text/css">
	<![CDATA[
		.st1 {stroke:#000000;stroke-linecap:round;stroke-linejoin:round;stroke-width:2.25}
		.st2 {fill:none}
		.st3 {fill:none;fill-rule:evenodd;font-size:12px;overflow:visible;stroke-linecap:square;stroke-miterlimit:3}
	]]>
	</style>

	<g>
		<title>Page-1</title>
		<g id="group1549-1" transform="translate(1.125,-1.125)">
			<title>STPX010.352</title>
			<g id="shape1550-2" transform="translate(-172.317,172.329) rotate(-90)">
				<title>Sheet.1550</title>
				<path d="M0 172.33 L113.38 172.33" class="st1"/>
			</g>
			<g id="shape1551-5" transform="translate(484.14,58.9486) rotate(90)">
				<title>Sheet.1551</title>
				<path d="M0 172.33 L113.38 172.33" class="st1"/>
			</g>
			<g id="shape1552-8" transform="translate(0.0114572,-113.38)">
				<title>Sheet.1552</title>
				<path d="M0 172.33 L311.8 172.33" class="st1"/>
			</g>
			<g id="shape1553-11" transform="translate(311.811,344.657) rotate(180)">
				<title>Sheet.1553</title>
				<path d="M0 172.33 L311.8 172.33" class="st1"/>
			</g>
			<g id="shape1554-14" transform="translate(-1.55875E-13,-141.734)">
				<title>Sheet.1554</title>
				<path d="M12.99 143.98 A14.2262 14.2262 -180 0 0 12.99 172.33 L12.99 143.98 Z" class="st2"/>
				<path d="M12.99 143.98 A14.2262 14.2262 -180 0 0 12.99 172.33" class="st1"/>
			</g>
			<g id="shape1555-17" transform="translate(296.742,-141.914)">
				<title>Sheet.1555</title>
				<path d="M-0 172.33 A14.1205 14.1205 -180 0 0 2.07 144.16 L0 172.33 Z" class="st2"/>
				<path d="M-0 172.33 A14.1205 14.1205 -180 0 0 2.07 144.16" class="st1"/>
			</g>
			<g id="shape1556-20" transform="translate(30.0099,-169.229) rotate(5.66363)">
				<title>Sheet.1556</title>
				<path d="M0 172.33 L287.22 172.33" class="st1"/>
			</g>
			<g id="shape1557-23" transform="translate(-4.0037,-140.884) rotate(-5.66363)">
				<title>Sheet.1557</title>
				<path d="M0 172.33 L287.22 172.33" class="st1"/>
			</g>
		</g>
	</g>
</svg>
