<?xml version="1.0" encoding="UTF-8" standalone="no"?>
<!DOCTYPE svg PUBLIC "-//W3C//DTD SVG 1.1//EN" "http://www.w3.org/Graphics/SVG/1.1/DTD/svg11.dtd">
<!-- Generated by Microsoft Visio, SVG Export PE028A.svg Page-1 -->
<svg xmlns="http://www.w3.org/2000/svg" xmlns:xlink="http://www.w3.org/1999/xlink" xmlns:ev="http://www.w3.org/2001/xml-events"
		width="4.36826in" height="2.39345in" viewBox="0 0 314.515 172.329" xml:space="preserve" color-interpolation-filters="sRGB"
		class="st3">
	<title>PE028A</title>

	<style type="text/css">
	<![CDATA[
		.st1 {stroke:#000000;stroke-linecap:round;stroke-linejoin:round;stroke-width:2.25}
		.st2 {fill:none}
		.st3 {fill:none;fill-rule:evenodd;font-size:12px;overflow:visible;stroke-linecap:square;stroke-miterlimit:3}
	]]>
	</style>

	<g>
		<title>Page-1</title>
		<g id="group1539-1" transform="translate(1.12288,-1.125)">
			<title>STPX008.343</title>
			<g id="shape1540-2" transform="translate(172.336,2.25) rotate(90)">
				<title>Sheet.1540</title>
				<path d="M0 172.33 L113.39 172.33" class="st1"/>
			</g>
			<g id="shape1541-5" transform="translate(139.931,115.636) rotate(-90)">
				<title>Sheet.1541</title>
				<path d="M0 172.33 L113.39 172.33" class="st1"/>
			</g>
			<g id="shape1542-8" transform="translate(0.00737605,-56.6929)">
				<title>Sheet.1542</title>
				<path d="M0 172.33 L312.25 172.33" class="st1"/>
			</g>
			<g id="shape1543-11" transform="translate(312.26,174.579) rotate(180)">
				<title>Sheet.1543</title>
				<path d="M0 172.33 L312.25 172.33" class="st1"/>
			</g>
			<g id="shape1544-14" transform="translate(0,-0.0174096)">
				<title>Sheet.1544</title>
				<path d="M299.26 172.33 A14.2252 14.2252 -180 0 0 299.26 143.98 L299.26 172.33 Z" class="st2"/>
				<path d="M299.26 172.33 A14.2252 14.2252 -180 0 0 299.26 143.98" class="st1"/>
			</g>
			<g id="shape1545-17" transform="translate(297.174,-0.0174096)">
				<title>Sheet.1545</title>
				<path d="M-282.08 144.16 A14.1212 14.1212 -180 0 0 -284.15 172.33 L-282.08 144.16 Z" class="st2"/>
				<path d="M-282.08 144.16 A14.1212 14.1212 -180 0 0 -284.15 172.33" class="st1"/>
			</g>
			<g id="shape1546-20" transform="translate(-3.96529,0.838899) rotate(-5.65575)">
				<title>Sheet.1546</title>
				<path d="M0 172.33 L287.63 172.33" class="st1"/>
			</g>
			<g id="shape1547-23" transform="translate(30.0011,-27.5076) rotate(5.65575)">
				<title>Sheet.1547</title>
				<path d="M0 172.33 L287.63 172.33" class="st1"/>
			</g>
		</g>
	</g>
</svg>
