<?xml version="1.0" encoding="UTF-8" standalone="no"?>
<!DOCTYPE svg PUBLIC "-//W3C//DTD SVG 1.1//EN" "http://www.w3.org/Graphics/SVG/1.1/DTD/svg11.dtd">
<!-- Generated by Microsoft Visio, SVG Export PE034A.svg Page-1 -->
<svg xmlns="http://www.w3.org/2000/svg" xmlns:xlink="http://www.w3.org/1999/xlink" xmlns:ev="http://www.w3.org/2001/xml-events"
		width="3.97862in" height="0.425987in" viewBox="0 0 286.461 30.6711" xml:space="preserve" color-interpolation-filters="sRGB"
		class="st2">
	<title>PE034A</title>

	<style type="text/css">
	<![CDATA[
		.st1 {stroke:#000000;stroke-linecap:round;stroke-linejoin:round;stroke-width:2.25}
		.st2 {fill:none;fill-rule:evenodd;font-size:12px;overflow:visible;stroke-linecap:square;stroke-miterlimit:3}
	]]>
	</style>

	<g>
		<title>Page-1</title>
		<g id="group1601-1" transform="translate(1.125,-1.125)">
			<title>STPZ030.756</title>
			<g id="shape1602-2" transform="translate(21.6877,-19.4377) rotate(45)">
				<title>Sheet.1602</title>
				<path d="M0 30.67 L40.19 30.67" class="st1"/>
			</g>
			<g id="shape1603-5" transform="translate(43.0035,-19.4377) rotate(45)">
				<title>Sheet.1603</title>
				<path d="M0 30.67 L40.19 30.67" class="st1"/>
			</g>
			<g id="shape1604-8" transform="translate(64.3193,-19.4377) rotate(45)">
				<title>Sheet.1604</title>
				<path d="M0 30.67 L40.19 30.67" class="st1"/>
			</g>
			<g id="shape1605-11" transform="translate(85.6351,-19.4377) rotate(45)">
				<title>Sheet.1605</title>
				<path d="M0 30.67 L40.19 30.67" class="st1"/>
			</g>
			<g id="shape1606-14" transform="translate(106.951,-19.4377) rotate(45)">
				<title>Sheet.1606</title>
				<path d="M0 30.67 L40.19 30.67" class="st1"/>
			</g>
			<g id="shape1607-17" transform="translate(128.267,-19.4377) rotate(45)">
				<title>Sheet.1607</title>
				<path d="M0 30.67 L40.19 30.67" class="st1"/>
			</g>
			<g id="shape1608-20" transform="translate(149.582,-19.4377) rotate(45)">
				<title>Sheet.1608</title>
				<path d="M0 30.67 L40.19 30.67" class="st1"/>
			</g>
			<g id="shape1609-23" transform="translate(170.898,-19.4377) rotate(45)">
				<title>Sheet.1609</title>
				<path d="M0 30.67 L40.19 30.67" class="st1"/>
			</g>
			<g id="shape1610-26" transform="translate(192.214,-19.4377) rotate(45)">
				<title>Sheet.1610</title>
				<path d="M0 30.67 L40.19 30.67" class="st1"/>
			</g>
			<g id="shape1611-29" transform="translate(213.53,-19.4377) rotate(45)">
				<title>Sheet.1611</title>
				<path d="M0 30.67 L40.19 30.67" class="st1"/>
			</g>
			<g id="shape1612-32" transform="translate(234.846,-19.4377) rotate(45)">
				<title>Sheet.1612</title>
				<path d="M0 30.67 L40.19 30.67" class="st1"/>
			</g>
			<g id="shape1613-35" transform="translate(256.161,-19.4377) rotate(45)">
				<title>Sheet.1613</title>
				<path d="M0 30.67 L40.19 30.67" class="st1"/>
			</g>
			<g id="shape1614-38" transform="translate(277.477,-19.4377) rotate(45)">
				<title>Sheet.1614</title>
				<path d="M0 30.67 L40.19 30.67" class="st1"/>
			</g>
			<g id="shape1615-41" transform="translate(0,-28.4211)">
				<title>Sheet.1615</title>
				<path d="M0 30.67 L255.79 30.67" class="st1"/>
			</g>
			<g id="shape1616-44" transform="translate(284.211,61.3421) rotate(180)">
				<title>Sheet.1616</title>
				<path d="M0 30.67 L255.79 30.67" class="st1"/>
			</g>
		</g>
	</g>
</svg>
