<?xml version="1.0" encoding="UTF-8" standalone="no"?>
<!DOCTYPE svg PUBLIC "-//W3C//DTD SVG 1.1//EN" "http://www.w3.org/Graphics/SVG/1.1/DTD/svg11.dtd">
<!-- Generated by Microsoft Visio, SVG Export PE037A.svg Page-1 -->
<svg xmlns="http://www.w3.org/2000/svg" xmlns:xlink="http://www.w3.org/1999/xlink" xmlns:ev="http://www.w3.org/2001/xml-events"
		xmlns:v="http://schemas.microsoft.com/visio/2003/SVGExtensions/" width="8.29897in" height="2.40516in"
		viewBox="0 0 597.526 173.172" xml:space="preserve" color-interpolation-filters="sRGB" class="st2">
	<title>PE037A</title>
	<v:documentProperties v:langID="2057" v:metric="true" v:viewMarkup="false"/>

	<style type="text/css">
	<![CDATA[
		.st1 {stroke:#000000;stroke-linecap:round;stroke-linejoin:round;stroke-width:2.25}
		.st2 {fill:none;fill-rule:evenodd;font-size:12px;overflow:visible;stroke-linecap:square;stroke-miterlimit:3}
	]]>
	</style>

	<g v:mID="0" v:index="1" v:groupContext="foregroundPage">
		<title>Page-1</title>
		<v:pageProperties v:drawingScale="0.0393701" v:pageScale="0.0393701" v:drawingUnits="24" v:shadowOffsetX="8.50394"
				v:shadowOffsetY="-8.50394"/>
		<v:layer v:name="Symbol" v:index="0"/>
		<g id="shape1436-1" v:mID="1436" v:groupContext="shape" v:layerMember="0"
				transform="translate(273.508,0.557474) rotate(89.8122)">
			<title>Sheet.1436</title>
			<path d="M0 173.17 L170.18 173.17" class="st1"/>
		</g>
		<g id="shape1437-4" v:mID="1437" v:groupContext="shape" v:layerMember="0" transform="translate(288.428,1.125) rotate(90)">
			<title>Sheet.1437</title>
			<path d="M0 173.17 L170.92 173.17" class="st1"/>
		</g>
		<g id="shape1438-7" v:mID="1438" v:groupContext="shape" v:layerMember="0"
				transform="translate(656.185,1.2051) rotate(89.7476)">
			<title>Sheet.1438</title>
			<path d="M0 173.17 L169.33 173.17" class="st1"/>
		</g>
		<g id="shape1439-10" v:mID="1439" v:groupContext="shape" v:layerMember="0"
				transform="translate(671.105,0.557474) rotate(89.8122)">
			<title>Sheet.1439</title>
			<path d="M0 173.17 L170.18 173.17" class="st1"/>
		</g>
		<g id="shape1440-13" v:mID="1440" v:groupContext="shape" v:layerMember="0" transform="translate(100.338,-172.047)">
			<title>Sheet.1440</title>
			<path d="M0 173.17 L14.92 173.17" class="st1"/>
		</g>
		<g id="shape1441-16" v:mID="1441" v:groupContext="shape" v:layerMember="0" transform="translate(483.015,-172.047)">
			<title>Sheet.1441</title>
			<path d="M0 173.17 L14.92 173.17" class="st1"/>
		</g>
		<g id="shape1442-19" v:mID="1442" v:groupContext="shape" v:layerMember="0" transform="translate(483.572,-1.87096)">
			<title>Sheet.1442</title>
			<path d="M0 173.17 L14.92 173.17" class="st1"/>
		</g>
		<g id="shape1443-22" v:mID="1443" v:groupContext="shape" v:layerMember="0" transform="translate(100.338,-1.125)">
			<title>Sheet.1443</title>
			<path d="M0 173.17 L14.92 173.17" class="st1"/>
		</g>
		<g id="shape1444-25" v:mID="1444" v:groupContext="shape" v:layerMember="0"
				transform="translate(117.891,-30.217) rotate(0.131062)">
			<title>Sheet.1444</title>
			<path d="M0 173.17 L365.52 173.17" class="st1"/>
		</g>
		<g id="shape1446-28" v:mID="1446" v:groupContext="shape" v:layerMember="0"
				transform="translate(670.358,1.2051) rotate(89.7476)">
			<title>Sheet.1446</title>
			<path d="M0 173.17 L169.33 173.17" class="st1"/>
		</g>
		<g id="shape1447-31" v:mID="1447" v:groupContext="shape" v:layerMember="0"
				transform="translate(685.278,0.557474) rotate(89.8122)">
			<title>Sheet.1447</title>
			<path d="M0 173.17 L170.18 173.17" class="st1"/>
		</g>
		<g id="shape1448-34" v:mID="1448" v:groupContext="shape" v:layerMember="0" transform="translate(497.188,-172.047)">
			<title>Sheet.1448</title>
			<path d="M0 173.17 L14.92 173.17" class="st1"/>
		</g>
		<g id="shape1449-37" v:mID="1449" v:groupContext="shape" v:layerMember="0" transform="translate(497.746,-1.87096)">
			<title>Sheet.1449</title>
			<path d="M0 173.17 L14.92 173.17" class="st1"/>
		</g>
		<g id="shape1450-40" v:mID="1450" v:groupContext="shape" v:layerMember="0"
				transform="translate(259.335,1.3951) rotate(89.8105)">
			<title>Sheet.1450</title>
			<path d="M0 173.17 L168.59 173.17" class="st1"/>
		</g>
		<g id="shape1451-43" v:mID="1451" v:groupContext="shape" v:layerMember="0"
				transform="translate(274.255,1.96795) rotate(90)">
			<title>Sheet.1451</title>
			<path d="M0 173.17 L169.33 173.17" class="st1"/>
		</g>
		<g id="shape1452-46" v:mID="1452" v:groupContext="shape" v:layerMember="0" transform="translate(86.1644,-172.047)">
			<title>Sheet.1452</title>
			<path d="M0 173.17 L14.92 173.17" class="st1"/>
		</g>
		<g id="shape1453-49" v:mID="1453" v:groupContext="shape" v:layerMember="0" transform="translate(86.9103,-1.125)">
			<title>Sheet.1453</title>
			<path d="M0 173.17 L14.92 173.17" class="st1"/>
		</g>
		<g id="shape1454-52" v:mID="1454" v:groupContext="shape" v:layerMember="0"
				transform="translate(739.921,1.2051) rotate(89.7476)">
			<title>Sheet.1454</title>
			<path d="M0 173.17 L169.33 173.17" class="st1"/>
		</g>
		<g id="shape1455-55" v:mID="1455" v:groupContext="shape" v:layerMember="0"
				transform="translate(754.84,0.557474) rotate(89.8122)">
			<title>Sheet.1455</title>
			<path d="M0 173.17 L170.18 173.17" class="st1"/>
		</g>
		<g id="shape1456-58" v:mID="1456" v:groupContext="shape" v:layerMember="0" transform="translate(566.75,-172.047)">
			<title>Sheet.1456</title>
			<path d="M0 173.17 L14.92 173.17" class="st1"/>
		</g>
		<g id="shape1457-61" v:mID="1457" v:groupContext="shape" v:layerMember="0" transform="translate(567.308,-1.87096)">
			<title>Sheet.1457</title>
			<path d="M0 173.17 L14.92 173.17" class="st1"/>
		</g>
		<g id="shape1458-64" v:mID="1458" v:groupContext="shape" v:layerMember="0"
				transform="translate(754.094,1.2051) rotate(89.7476)">
			<title>Sheet.1458</title>
			<path d="M0 173.17 L169.33 173.17" class="st1"/>
		</g>
		<g id="shape1459-67" v:mID="1459" v:groupContext="shape" v:layerMember="0"
				transform="translate(769.014,0.557474) rotate(89.8122)">
			<title>Sheet.1459</title>
			<path d="M0 173.17 L170.18 173.17" class="st1"/>
		</g>
		<g id="shape1460-70" v:mID="1460" v:groupContext="shape" v:layerMember="0" transform="translate(580.924,-172.047)">
			<title>Sheet.1460</title>
			<path d="M0 173.17 L14.92 173.17" class="st1"/>
		</g>
		<g id="shape1461-73" v:mID="1461" v:groupContext="shape" v:layerMember="0" transform="translate(581.481,-1.87096)">
			<title>Sheet.1461</title>
			<path d="M0 173.17 L14.92 173.17" class="st1"/>
		</g>
		<g id="shape1462-76" v:mID="1462" v:groupContext="shape" v:layerMember="0"
				transform="translate(188.469,0.557474) rotate(89.8122)">
			<title>Sheet.1462</title>
			<path d="M0 173.17 L170.18 173.17" class="st1"/>
		</g>
		<g id="shape1463-79" v:mID="1463" v:groupContext="shape" v:layerMember="0" transform="translate(203.389,1.125) rotate(90)">
			<title>Sheet.1463</title>
			<path d="M0 173.17 L170.92 173.17" class="st1"/>
		</g>
		<g id="shape1464-82" v:mID="1464" v:groupContext="shape" v:layerMember="0" transform="translate(15.2982,-172.047)">
			<title>Sheet.1464</title>
			<path d="M0 173.17 L14.92 173.17" class="st1"/>
		</g>
		<g id="shape1465-85" v:mID="1465" v:groupContext="shape" v:layerMember="0" transform="translate(15.2982,-1.125)">
			<title>Sheet.1465</title>
			<path d="M0 173.17 L14.92 173.17" class="st1"/>
		</g>
		<g id="shape1466-88" v:mID="1466" v:groupContext="shape" v:layerMember="0"
				transform="translate(174.296,1.3951) rotate(89.8105)">
			<title>Sheet.1466</title>
			<path d="M0 173.17 L168.59 173.17" class="st1"/>
		</g>
		<g id="shape1467-91" v:mID="1467" v:groupContext="shape" v:layerMember="0"
				transform="translate(189.216,1.96795) rotate(90)">
			<title>Sheet.1467</title>
			<path d="M0 173.17 L169.33 173.17" class="st1"/>
		</g>
		<g id="shape1468-94" v:mID="1468" v:groupContext="shape" v:layerMember="0" transform="translate(1.125,-172.047)">
			<title>Sheet.1468</title>
			<path d="M0 173.17 L14.92 173.17" class="st1"/>
		</g>
		<g id="shape1469-97" v:mID="1469" v:groupContext="shape" v:layerMember="0" transform="translate(1.87096,-1.125)">
			<title>Sheet.1469</title>
			<path d="M0 173.17 L14.92 173.17" class="st1"/>
		</g>
		<g id="shape1470-100" v:mID="1470" v:groupContext="shape" v:layerMember="0"
				transform="translate(118.017,-143.7) rotate(0.131062)">
			<title>Sheet.1470</title>
			<path d="M0 173.17 L365.52 173.17" class="st1"/>
		</g>
		<g id="shape1471-103" v:mID="1471" v:groupContext="shape" v:layerMember="0" transform="translate(30.2174,-143.7)">
			<title>Sheet.1471</title>
			<path d="M0 173.17 L56.04 173.17" class="st1"/>
		</g>
		<g id="shape1472-106" v:mID="1472" v:groupContext="shape" v:layerMember="0" transform="translate(30.2174,-30.3144)">
			<title>Sheet.1472</title>
			<path d="M0 173.17 L56.41 173.17" class="st1"/>
		</g>
		<g id="shape1473-109" v:mID="1473" v:groupContext="shape" v:layerMember="0" transform="translate(512.203,-142.947)">
			<title>Sheet.1473</title>
			<path d="M0 173.17 L54.67 173.17" class="st1"/>
		</g>
		<g id="shape1474-112" v:mID="1474" v:groupContext="shape" v:layerMember="0" transform="translate(512.567,-31.0545)">
			<title>Sheet.1474</title>
			<path d="M0 173.17 L54.8 173.17" class="st1"/>
		</g>
	</g>
</svg>
