<?xml version="1.0" encoding="UTF-8" standalone="no"?>
<!DOCTYPE svg PUBLIC "-//W3C//DTD SVG 1.1//EN" "http://www.w3.org/Graphics/SVG/1.1/DTD/svg11.dtd">
<!-- Generated by Microsoft Visio, SVG Export PE037A.svg Page-1 -->
<svg xmlns="http://www.w3.org/2000/svg" xmlns:xlink="http://www.w3.org/1999/xlink" xmlns:ev="http://www.w3.org/2001/xml-events"
		width="8.29897in" height="2.40516in" viewBox="0 0 597.526 173.172" xml:space="preserve" color-interpolation-filters="sRGB"
		class="st2">
	<title>PE037A</title>

	<style type="text/css">
	<![CDATA[
		.st1 {stroke:#000000;stroke-linecap:round;stroke-linejoin:round;stroke-width:2.25}
		.st2 {fill:none;fill-rule:evenodd;font-size:12px;overflow:visible;stroke-linecap:square;stroke-miterlimit:3}
	]]>
	</style>

	<g>
		<title>Page-1</title>
		<g id="shape1406-1" transform="translate(273.508,0.557474) rotate(89.8122)">
			<title>Sheet.1406</title>
			<path d="M0 173.17 L170.18 173.17" class="st1"/>
		</g>
		<g id="shape1407-4" transform="translate(288.428,1.125) rotate(90)">
			<title>Sheet.1407</title>
			<path d="M0 173.17 L170.92 173.17" class="st1"/>
		</g>
		<g id="shape1408-7" transform="translate(656.185,1.2051) rotate(89.7476)">
			<title>Sheet.1408</title>
			<path d="M0 173.17 L169.33 173.17" class="st1"/>
		</g>
		<g id="shape1409-10" transform="translate(671.105,0.557474) rotate(89.8122)">
			<title>Sheet.1409</title>
			<path d="M0 173.17 L170.18 173.17" class="st1"/>
		</g>
		<g id="shape1410-13" transform="translate(100.338,-172.047)">
			<title>Sheet.1410</title>
			<path d="M0 173.17 L14.92 173.17" class="st1"/>
		</g>
		<g id="shape1411-16" transform="translate(483.015,-172.047)">
			<title>Sheet.1411</title>
			<path d="M0 173.17 L14.92 173.17" class="st1"/>
		</g>
		<g id="shape1412-19" transform="translate(483.572,-1.87096)">
			<title>Sheet.1412</title>
			<path d="M0 173.17 L14.92 173.17" class="st1"/>
		</g>
		<g id="shape1413-22" transform="translate(100.338,-1.125)">
			<title>Sheet.1413</title>
			<path d="M0 173.17 L14.92 173.17" class="st1"/>
		</g>
		<g id="shape1414-25" transform="translate(117.891,-30.217) rotate(0.131062)">
			<title>Sheet.1414</title>
			<path d="M0 173.17 L365.52 173.17" class="st1"/>
		</g>
		<g id="shape1416-28" transform="translate(670.358,1.2051) rotate(89.7476)">
			<title>Sheet.1416</title>
			<path d="M0 173.17 L169.33 173.17" class="st1"/>
		</g>
		<g id="shape1417-31" transform="translate(685.278,0.557474) rotate(89.8122)">
			<title>Sheet.1417</title>
			<path d="M0 173.17 L170.18 173.17" class="st1"/>
		</g>
		<g id="shape1418-34" transform="translate(497.188,-172.047)">
			<title>Sheet.1418</title>
			<path d="M0 173.17 L14.92 173.17" class="st1"/>
		</g>
		<g id="shape1419-37" transform="translate(497.746,-1.87096)">
			<title>Sheet.1419</title>
			<path d="M0 173.17 L14.92 173.17" class="st1"/>
		</g>
		<g id="shape1420-40" transform="translate(259.335,1.3951) rotate(89.8105)">
			<title>Sheet.1420</title>
			<path d="M0 173.17 L168.59 173.17" class="st1"/>
		</g>
		<g id="shape1421-43" transform="translate(274.255,1.96795) rotate(90)">
			<title>Sheet.1421</title>
			<path d="M0 173.17 L169.33 173.17" class="st1"/>
		</g>
		<g id="shape1422-46" transform="translate(86.1644,-172.047)">
			<title>Sheet.1422</title>
			<path d="M0 173.17 L14.92 173.17" class="st1"/>
		</g>
		<g id="shape1423-49" transform="translate(86.9103,-1.125)">
			<title>Sheet.1423</title>
			<path d="M0 173.17 L14.92 173.17" class="st1"/>
		</g>
		<g id="shape1424-52" transform="translate(739.921,1.2051) rotate(89.7476)">
			<title>Sheet.1424</title>
			<path d="M0 173.17 L169.33 173.17" class="st1"/>
		</g>
		<g id="shape1425-55" transform="translate(754.84,0.557474) rotate(89.8122)">
			<title>Sheet.1425</title>
			<path d="M0 173.17 L170.18 173.17" class="st1"/>
		</g>
		<g id="shape1426-58" transform="translate(566.75,-172.047)">
			<title>Sheet.1426</title>
			<path d="M0 173.17 L14.92 173.17" class="st1"/>
		</g>
		<g id="shape1427-61" transform="translate(567.308,-1.87096)">
			<title>Sheet.1427</title>
			<path d="M0 173.17 L14.92 173.17" class="st1"/>
		</g>
		<g id="shape1428-64" transform="translate(754.094,1.2051) rotate(89.7476)">
			<title>Sheet.1428</title>
			<path d="M0 173.17 L169.33 173.17" class="st1"/>
		</g>
		<g id="shape1429-67" transform="translate(769.014,0.557474) rotate(89.8122)">
			<title>Sheet.1429</title>
			<path d="M0 173.17 L170.18 173.17" class="st1"/>
		</g>
		<g id="shape1430-70" transform="translate(580.924,-172.047)">
			<title>Sheet.1430</title>
			<path d="M0 173.17 L14.92 173.17" class="st1"/>
		</g>
		<g id="shape1431-73" transform="translate(581.481,-1.87096)">
			<title>Sheet.1431</title>
			<path d="M0 173.17 L14.92 173.17" class="st1"/>
		</g>
		<g id="shape1432-76" transform="translate(188.469,0.557474) rotate(89.8122)">
			<title>Sheet.1432</title>
			<path d="M0 173.17 L170.18 173.17" class="st1"/>
		</g>
		<g id="shape1433-79" transform="translate(203.389,1.125) rotate(90)">
			<title>Sheet.1433</title>
			<path d="M0 173.17 L170.92 173.17" class="st1"/>
		</g>
		<g id="shape1434-82" transform="translate(15.2982,-172.047)">
			<title>Sheet.1434</title>
			<path d="M0 173.17 L14.92 173.17" class="st1"/>
		</g>
		<g id="shape1435-85" transform="translate(15.2982,-1.125)">
			<title>Sheet.1435</title>
			<path d="M0 173.17 L14.92 173.17" class="st1"/>
		</g>
		<g id="shape1436-88" transform="translate(174.296,1.3951) rotate(89.8105)">
			<title>Sheet.1436</title>
			<path d="M0 173.17 L168.59 173.17" class="st1"/>
		</g>
		<g id="shape1437-91" transform="translate(189.216,1.96795) rotate(90)">
			<title>Sheet.1437</title>
			<path d="M0 173.17 L169.33 173.17" class="st1"/>
		</g>
		<g id="shape1438-94" transform="translate(1.125,-172.047)">
			<title>Sheet.1438</title>
			<path d="M0 173.17 L14.92 173.17" class="st1"/>
		</g>
		<g id="shape1439-97" transform="translate(1.87096,-1.125)">
			<title>Sheet.1439</title>
			<path d="M0 173.17 L14.92 173.17" class="st1"/>
		</g>
		<g id="shape1440-100" transform="translate(118.017,-143.7) rotate(0.131062)">
			<title>Sheet.1440</title>
			<path d="M0 173.17 L365.52 173.17" class="st1"/>
		</g>
		<g id="shape1441-103" transform="translate(30.2174,-143.7)">
			<title>Sheet.1441</title>
			<path d="M0 173.17 L56.04 173.17" class="st1"/>
		</g>
		<g id="shape1442-106" transform="translate(30.2174,-30.3144)">
			<title>Sheet.1442</title>
			<path d="M0 173.17 L56.41 173.17" class="st1"/>
		</g>
		<g id="shape1443-109" transform="translate(512.203,-142.947)">
			<title>Sheet.1443</title>
			<path d="M0 173.17 L54.67 173.17" class="st1"/>
		</g>
		<g id="shape1444-112" transform="translate(512.567,-31.0545)">
			<title>Sheet.1444</title>
			<path d="M0 173.17 L54.8 173.17" class="st1"/>
		</g>
	</g>
</svg>
