<?xml version="1.0" encoding="UTF-8" standalone="no"?>
<!DOCTYPE svg PUBLIC "-//W3C//DTD SVG 1.1//EN" "http://www.w3.org/Graphics/SVG/1.1/DTD/svg11.dtd">
<!-- Generated by Microsoft Visio, SVG Export PE036A.svg Page-1 -->
<svg xmlns="http://www.w3.org/2000/svg" xmlns:xlink="http://www.w3.org/1999/xlink" xmlns:ev="http://www.w3.org/2001/xml-events"
		width="8.49582in" height="2.86315in" viewBox="0 0 611.699 206.147" xml:space="preserve" color-interpolation-filters="sRGB"
		class="st3">
	<title>PE036A</title>

	<style type="text/css">
	<![CDATA[
		.st1 {stroke:#000000;stroke-linecap:round;stroke-linejoin:round;stroke-width:2.25}
		.st2 {fill:none}
		.st3 {fill:none;fill-rule:evenodd;font-size:12px;overflow:visible;stroke-linecap:square;stroke-miterlimit:3}
	]]>
	</style>

	<g>
		<title>Page-1</title>
		<g id="shape1602-1" transform="translate(88.1897,268.691) rotate(180)">
			<title>Sheet.1602</title>
			<path d="M0 206.15 L58.04 206.15" class="st1"/>
		</g>
		<g id="shape1603-4" transform="translate(379.163,1.12501) rotate(90)">
			<title>Sheet.1603</title>
			<path d="M0 206.15 L174.13 206.15" class="st1"/>
		</g>
		<g id="shape1604-7" transform="translate(30.1466,-30.8925)">
			<title>Sheet.1604</title>
			<path d="M0 206.15 L58.04 206.15" class="st1"/>
		</g>
		<g id="shape1605-10" transform="translate(117.211,-30.8925)">
			<title>Sheet.1605</title>
			<path d="M0 206.15 L435.31 206.15" class="st1"/>
		</g>
		<g id="shape1606-13" transform="translate(346.376,175.254) rotate(-90)">
			<title>Sheet.1606</title>
			<path d="M0 206.15 L174.13 206.15" class="st1"/>
		</g>
		<g id="shape1607-16" transform="translate(552.523,207.272) rotate(180)">
			<title>Sheet.1607</title>
			<path d="M0 206.15 L377.27 206.15" class="st1"/>
		</g>
		<g id="shape1608-19" transform="translate(323.754,141.747) rotate(133.012)">
			<title>Sheet.1608</title>
			<path d="M0 206.15 L84 206.15" class="st1"/>
		</g>
		<g id="shape1609-22" transform="translate(552.519,-30.8836)">
			<title>Sheet.1609</title>
			<path d="M-0 206.15 A87.0647 58.0431 90 1 0 0 32.02 L0 206.15 Z" class="st2"/>
			<path d="M-0 206.15 A87.0647 58.0431 90 1 0 0 32.02" class="st1"/>
		</g>
		<g id="shape1610-25" transform="translate(221.783,34.1972) rotate(90)">
			<title>Sheet.1610</title>
			<path d="M0 206.15 L170.08 206.15" class="st1"/>
		</g>
		<g id="shape1611-28" transform="translate(308.722,34.1972) rotate(90)">
			<title>Sheet.1611</title>
			<path d="M0 206.15 L170.08 206.15" class="st1"/>
		</g>
		<g id="shape1612-31" transform="translate(88.1897,-171.95)">
			<title>Sheet.1612</title>
			<path d="M0 206.15 L27.53 206.15" class="st1"/>
		</g>
		<g id="shape1613-34" transform="translate(115.719,410.423) rotate(180)">
			<title>Sheet.1613</title>
			<path d="M0 206.15 L27.53 206.15" class="st1"/>
		</g>
		<g id="shape1614-37" transform="translate(1.125,-171.95)">
			<title>Sheet.1614</title>
			<path d="M0 206.15 L29.02 206.15" class="st1"/>
		</g>
		<g id="shape1615-40" transform="translate(30.1466,410.423) rotate(180)">
			<title>Sheet.1615</title>
			<path d="M0 206.15 L29.02 206.15" class="st1"/>
		</g>
		<g id="shape1616-43" transform="translate(-205.022,204.276) rotate(-90)">
			<title>Sheet.1616</title>
			<path d="M0 206.15 L170.08 206.15" class="st1"/>
		</g>
		<g id="shape1628-46" transform="translate(294.337,34.1972) rotate(90)">
			<title>Sheet.1628</title>
			<path d="M0 206.15 L170.08 206.15" class="st1"/>
		</g>
		<g id="shape1629-49" transform="translate(321.866,34.1972) rotate(90)">
			<title>Sheet.1629</title>
			<path d="M0 206.15 L170.08 206.15" class="st1"/>
		</g>
		<g id="shape1630-52" transform="translate(236.294,34.9432) rotate(90)">
			<title>Sheet.1630</title>
			<path d="M0 206.15 L170.08 206.15" class="st1"/>
		</g>
	</g>
</svg>
