<?xml version="1.0" encoding="UTF-8" standalone="no"?>
<!DOCTYPE svg PUBLIC "-//W3C//DTD SVG 1.1//EN" "http://www.w3.org/Graphics/SVG/1.1/DTD/svg11.dtd">
<!-- Generated by Microsoft Visio, SVG Export PE032A.svg Page-1 -->
<svg xmlns="http://www.w3.org/2000/svg" xmlns:xlink="http://www.w3.org/1999/xlink" xmlns:ev="http://www.w3.org/2001/xml-events"
		width="1.60605in" height="3.18086in" viewBox="0 0 115.636 229.022" xml:space="preserve" color-interpolation-filters="sRGB"
		class="st4">
	<title>PE032A</title>

	<style type="text/css">
	<![CDATA[
		.st1 {fill:none}
		.st2 {stroke:#000000;stroke-linecap:round;stroke-linejoin:round;stroke-width:2.25}
		.st3 {fill:none;stroke:#000000;stroke-linecap:round;stroke-linejoin:round;stroke-width:2.25}
		.st4 {fill:none;fill-rule:evenodd;font-size:12px;overflow:visible;stroke-linecap:square;stroke-miterlimit:3}
	]]>
	</style>

	<g>
		<title>Page-1</title>
		<g id="group1593-1" transform="translate(1.125,-1.125)">
			<title>STPP014.70</title>
			<g id="shape1594-2" transform="translate(99.2126,-14.1732)">
				<title>Sheet.1594</title>
				<path d="M0 158.16 L0 229.02 L0 229.02 L0 158.16 Z" class="st1"/>
				<path d="M0 158.16 L0 229.02 L0 229.02" class="st2"/>
			</g>
			<g id="shape1595-5" transform="translate(95.6972,-99.2126)">
				<title>Sheet.1595</title>
				<path d="M0 229.02 L17.69 211.28 L17.69 211.28 L0 229.02 Z" class="st1"/>
				<path d="M0 229.02 L17.69 211.28 L17.69 211.28" class="st2"/>
			</g>
			<g id="shape1596-8" transform="translate(0,-99.2126)">
				<title>Sheet.1596</title>
				<path d="M0 229.02 L113.39 229.02 L113.39 229.02 L0 229.02 Z" class="st1"/>
				<path d="M0 229.02 L113.39 229.02 L113.39 229.02" class="st2"/>
			</g>
			<g id="shape1597-11" transform="translate(70.8661,-14.1732)">
				<title>Sheet.1597</title>
				<path d="M0 158.16 L0 229.02 L0 229.02 L0 158.16 Z" class="st1"/>
				<path d="M0 158.16 L0 229.02 L0 229.02" class="st2"/>
			</g>
			<g id="shape1598-14">
				<title>Sheet.1598</title>
				<path d="M0 2.25 L113.39 2.25 L113.39 229.02 L0 229.02 L0 2.25 L0 2.25 Z" class="st3"/>
			</g>
			<g id="shape1599-16" transform="translate(0,-127.559)">
				<title>Sheet.1599</title>
				<path d="M0 229.02 L113.39 229.02 L113.39 229.02 L0 229.02 Z" class="st1"/>
				<path d="M0 229.02 L113.39 229.02 L113.39 229.02" class="st2"/>
			</g>
			<g id="shape1600-19" transform="translate(0,-120.472)">
				<title>Sheet.1600</title>
				<path d="M0 229.02 L7.09 221.94 L7.09 221.94 L0 229.02 Z" class="st1"/>
				<path d="M0 229.02 L7.09 221.94 L7.09 221.94" class="st2"/>
			</g>
			<g id="shape1601-22" transform="translate(28.3465,-14.1732)">
				<title>Sheet.1601</title>
				<path d="M0 158.16 L0 229.02 L0 229.02 L0 158.16 Z" class="st1"/>
				<path d="M0 158.16 L0 229.02 L0 229.02" class="st2"/>
			</g>
			<g id="shape1602-25" transform="translate(2.29816E-13,-109.815)">
				<title>Sheet.1602</title>
				<path d="M0 229.02 L17.69 211.28 L17.69 211.28 L0 229.02 Z" class="st1"/>
				<path d="M0 229.02 L17.69 211.28 L17.69 211.28" class="st2"/>
			</g>
			<g id="shape1603-28" transform="translate(0,-99.2126)">
				<title>Sheet.1603</title>
				<path d="M0 229.02 L28.35 200.68 L28.35 200.68 L0 229.02 Z" class="st1"/>
				<path d="M0 229.02 L28.35 200.68 L28.35 200.68" class="st2"/>
			</g>
			<g id="shape1604-31" transform="translate(106.299,-120.472)">
				<title>Sheet.1604</title>
				<path d="M7.09 229.02 L0 221.94 L0 221.94 L7.09 229.02 Z" class="st1"/>
				<path d="M7.09 229.02 L0 221.94 L0 221.94" class="st2"/>
			</g>
			<g id="shape1605-34" transform="translate(56.6929,-14.1732)">
				<title>Sheet.1605</title>
				<path d="M0 158.16 L0 229.02 L0 229.02 L0 158.16 Z" class="st1"/>
				<path d="M0 158.16 L0 229.02 L0 229.02" class="st2"/>
			</g>
			<g id="shape1606-37" transform="translate(95.6972,-109.815)">
				<title>Sheet.1606</title>
				<path d="M17.69 229.02 L0 211.28 L0 211.28 L17.69 229.02 Z" class="st1"/>
				<path d="M17.69 229.02 L0 211.28 L0 211.28" class="st2"/>
			</g>
			<g id="shape1607-40" transform="translate(0,-99.2126)">
				<title>Sheet.1607</title>
				<path d="M7.09 229.02 L0 221.94 L0 221.94 L7.09 229.02 Z" class="st1"/>
				<path d="M7.09 229.02 L0 221.94 L0 221.94" class="st2"/>
			</g>
			<g id="shape1608-43" transform="translate(2.29816E-13,-99.2126)">
				<title>Sheet.1608</title>
				<path d="M17.69 229.02 L0 211.28 L0 211.28 L17.69 229.02 Z" class="st1"/>
				<path d="M17.69 229.02 L0 211.28 L0 211.28" class="st2"/>
			</g>
			<g id="shape1609-46" transform="translate(0,-99.2126)">
				<title>Sheet.1609</title>
				<path d="M28.35 229.02 L0 200.68 L0 200.68 L28.35 229.02 Z" class="st1"/>
				<path d="M28.35 229.02 L0 200.68 L0 200.68" class="st2"/>
			</g>
			<g id="shape1610-49" transform="translate(10.602,-99.2126)">
				<title>Sheet.1610</title>
				<path d="M28.35 229.02 L0 200.68 L0 200.68 L28.35 229.02 Z" class="st1"/>
				<path d="M28.35 229.02 L0 200.68 L0 200.68" class="st2"/>
			</g>
			<g id="shape1611-52" transform="translate(42.5197,-14.1732)">
				<title>Sheet.1611</title>
				<path d="M0 158.16 L0 229.02 L0 229.02 L0 158.16 Z" class="st1"/>
				<path d="M0 158.16 L0 229.02 L0 229.02" class="st2"/>
			</g>
			<g id="shape1612-55" transform="translate(85.0394,-99.2126)">
				<title>Sheet.1612</title>
				<path d="M28.35 229.02 L0 200.68 L0 200.68 L28.35 229.02 Z" class="st1"/>
				<path d="M28.35 229.02 L0 200.68 L0 200.68" class="st2"/>
			</g>
			<g id="shape1613-58" transform="translate(85.0394,-14.1732)">
				<title>Sheet.1613</title>
				<path d="M0 158.16 L0 229.02 L0 229.02 L0 158.16 Z" class="st1"/>
				<path d="M0 158.16 L0 229.02 L0 229.02" class="st2"/>
			</g>
			<g id="shape1614-61" transform="translate(106.299,-99.2126)">
				<title>Sheet.1614</title>
				<path d="M0 229.02 L7.09 221.94 L7.09 221.94 L0 229.02 Z" class="st1"/>
				<path d="M0 229.02 L7.09 221.94 L7.09 221.94" class="st2"/>
			</g>
			<g id="shape1615-64" transform="translate(74.4374,-99.2126)">
				<title>Sheet.1615</title>
				<path d="M28.35 229.02 L0 200.68 L0 200.68 L28.35 229.02 Z" class="st1"/>
				<path d="M28.35 229.02 L0 200.68 L0 200.68" class="st2"/>
			</g>
			<g id="shape1616-67" transform="translate(63.7795,-99.2126)">
				<title>Sheet.1616</title>
				<path d="M28.35 229.02 L0 200.68 L0 200.68 L28.35 229.02 Z" class="st1"/>
				<path d="M28.35 229.02 L0 200.68 L0 200.68" class="st2"/>
			</g>
			<g id="shape1617-70" transform="translate(53.1217,-99.2126)">
				<title>Sheet.1617</title>
				<path d="M28.4 229.02 L0 200.68 L0 200.68 L28.4 229.02 Z" class="st1"/>
				<path d="M28.4 229.02 L0 200.68 L0 200.68" class="st2"/>
			</g>
			<g id="shape1618-73" transform="translate(42.5197,-99.2126)">
				<title>Sheet.1618</title>
				<path d="M28.35 229.02 L0 200.68 L0 200.68 L28.35 229.02 Z" class="st1"/>
				<path d="M28.35 229.02 L0 200.68 L0 200.68" class="st2"/>
			</g>
			<g id="shape1619-76" transform="translate(31.8619,-99.2126)">
				<title>Sheet.1619</title>
				<path d="M28.4 229.02 L0 200.68 L0 200.68 L28.4 229.02 Z" class="st1"/>
				<path d="M28.4 229.02 L0 200.68 L0 200.68" class="st2"/>
			</g>
			<g id="shape1620-79" transform="translate(21.2598,-99.2126)">
				<title>Sheet.1620</title>
				<path d="M28.35 229.02 L0 200.68 L0 200.68 L28.35 229.02 Z" class="st1"/>
				<path d="M28.35 229.02 L0 200.68 L0 200.68" class="st2"/>
			</g>
			<g id="shape1621-82" transform="translate(10.602,-99.2126)">
				<title>Sheet.1621</title>
				<path d="M0 229.02 L28.35 200.68 L28.35 200.68 L0 229.02 Z" class="st1"/>
				<path d="M0 229.02 L28.35 200.68 L28.35 200.68" class="st2"/>
			</g>
			<g id="shape1622-85" transform="translate(21.2598,-99.2126)">
				<title>Sheet.1622</title>
				<path d="M0 229.02 L28.35 200.68 L28.35 200.68 L0 229.02 Z" class="st1"/>
				<path d="M0 229.02 L28.35 200.68 L28.35 200.68" class="st2"/>
			</g>
			<g id="shape1623-88" transform="translate(31.8619,-99.2126)">
				<title>Sheet.1623</title>
				<path d="M0 229.02 L28.4 200.68 L28.4 200.68 L0 229.02 Z" class="st1"/>
				<path d="M0 229.02 L28.4 200.68 L28.4 200.68" class="st2"/>
			</g>
			<g id="shape1624-91" transform="translate(42.5197,-99.2126)">
				<title>Sheet.1624</title>
				<path d="M0 229.02 L28.35 200.68 L28.35 200.68 L0 229.02 Z" class="st1"/>
				<path d="M0 229.02 L28.35 200.68 L28.35 200.68" class="st2"/>
			</g>
			<g id="shape1625-94" transform="translate(53.1217,-99.2126)">
				<title>Sheet.1625</title>
				<path d="M0 229.02 L28.4 200.68 L28.4 200.68 L0 229.02 Z" class="st1"/>
				<path d="M0 229.02 L28.4 200.68 L28.4 200.68" class="st2"/>
			</g>
			<g id="shape1626-97" transform="translate(14.1732,-14.1732)">
				<title>Sheet.1626</title>
				<path d="M0 158.16 L0 229.02 L0 229.02 L0 158.16 Z" class="st1"/>
				<path d="M0 158.16 L0 229.02 L0 229.02" class="st2"/>
			</g>
			<g id="shape1627-100" transform="translate(74.4374,-99.2126)">
				<title>Sheet.1627</title>
				<path d="M0 229.02 L28.35 200.68 L28.35 200.68 L0 229.02 Z" class="st1"/>
				<path d="M0 229.02 L28.35 200.68 L28.35 200.68" class="st2"/>
			</g>
			<g id="shape1628-103" transform="translate(85.0394,-99.2126)">
				<title>Sheet.1628</title>
				<path d="M0 229.02 L28.35 200.68 L28.35 200.68 L0 229.02 Z" class="st1"/>
				<path d="M0 229.02 L28.35 200.68 L28.35 200.68" class="st2"/>
			</g>
			<g id="shape1629-106" transform="translate(63.7795,-99.2126)">
				<title>Sheet.1629</title>
				<path d="M0 229.02 L28.35 200.68 L28.35 200.68 L0 229.02 Z" class="st1"/>
				<path d="M0 229.02 L28.35 200.68 L28.35 200.68" class="st2"/>
			</g>
		</g>
	</g>
</svg>
