<?xml version="1.0" encoding="UTF-8" standalone="no"?>
<!DOCTYPE svg PUBLIC "-//W3C//DTD SVG 1.1//EN" "http://www.w3.org/Graphics/SVG/1.1/DTD/svg11.dtd">
<!-- Generated by Microsoft Visio, SVG Export PE030A.svg Page-1 -->
<svg xmlns="http://www.w3.org/2000/svg" xmlns:xlink="http://www.w3.org/1999/xlink" xmlns:ev="http://www.w3.org/2001/xml-events"
		width="3.37771in" height="5.05093in" viewBox="0 0 243.195 363.667" xml:space="preserve" color-interpolation-filters="sRGB"
		class="st3">
	<title>PE030A</title>

	<style type="text/css">
	<![CDATA[
		.st1 {stroke:#000000;stroke-linecap:round;stroke-linejoin:round;stroke-width:2.25}
		.st2 {fill:none}
		.st3 {fill:none;fill-rule:evenodd;font-size:12px;overflow:visible;stroke-linecap:square;stroke-miterlimit:3}
	]]>
	</style>

	<g>
		<title>Page-1</title>
		<g id="group1559-1" transform="translate(1.125,-1.125)">
			<title>STPE017.78</title>
			<g id="shape1560-2" transform="translate(225.886,727.335) rotate(180)">
				<title>Sheet.1560</title>
				<path d="M0 363.67 L210.82 363.67" class="st1"/>
			</g>
			<g id="shape1561-5" transform="translate(-122.722,333.549) rotate(-90)">
				<title>Sheet.1561</title>
				<path d="M0 363.67 L188.24 363.67" class="st1"/>
			</g>
			<g id="shape1562-8" transform="translate(-363.661,333.549) rotate(-90)">
				<title>Sheet.1562</title>
				<path d="M0 363.67 L188.24 363.67" class="st1"/>
			</g>
			<g id="shape1563-11" transform="translate(-257.155,-111.832) rotate(-45.0007)">
				<title>Sheet.1563</title>
				<path d="M0 363.67 L127.79 363.67" class="st1"/>
			</g>
			<g id="shape1564-14" transform="translate(407.756,-202.177) rotate(45.0026)">
				<title>Sheet.1564</title>
				<path d="M0 363.67 L127.77 363.67" class="st1"/>
			</g>
			<g id="shape1565-17" transform="translate(-99.3893,201.034) rotate(-63.4355)">
				<title>Sheet.1565</title>
				<path d="M0 363.67 L33.67 363.67" class="st1"/>
			</g>
			<g id="shape1566-20" transform="translate(135.534,-308.705)">
				<title>Sheet.1566</title>
				<path d="M15.06 363.67 L15.06 333.54 L0 333.54 L0 333.54 L15.06 363.67 Z" class="st2"/>
				<path d="M15.06 363.67 L15.06 333.54 L0 333.54 L0 333.54" class="st1"/>
			</g>
			<g id="shape1568-23" transform="translate(135.427,365.926) rotate(-179.983)">
				<title>Sheet.1568</title>
				<path d="M0 363.67 L30.12 363.67" class="st1"/>
			</g>
			<g id="shape1570-26" transform="translate(105.417,388.506) rotate(180)">
				<title>Sheet.1570</title>
				<path d="M0 363.67 L15.06 363.67" class="st1"/>
			</g>
			<g id="shape1571-29" transform="translate(454.025,24.8386) rotate(90)">
				<title>Sheet.1571</title>
				<path d="M0 363.67 L30.12 363.67" class="st1"/>
			</g>
			<g id="shape1572-32" transform="translate(325.281,170.915) rotate(63.4355)">
				<title>Sheet.1572</title>
				<path d="M0 363.67 L33.67 363.67" class="st1"/>
			</g>
			<g id="shape1573-35" transform="translate(469.084,2.25) rotate(90)">
				<title>Sheet.1573</title>
				<path d="M0 363.67 L240.94 363.67" class="st1"/>
			</g>
			<g id="shape1574-38" transform="translate(499.201,2.25887) rotate(90)">
				<title>Sheet.1574</title>
				<path d="M0 363.67 L240.94 363.67" class="st1"/>
			</g>
			<g id="shape1575-41" transform="translate(454.025,54.9567) rotate(90)">
				<title>Sheet.1575</title>
				<path d="M0 363.67 L30.12 363.67" class="st1"/>
			</g>
			<g id="shape1576-44" transform="translate(347.513,342.223) rotate(134.999)">
				<title>Sheet.1576</title>
				<path d="M0 363.67 L95.83 363.67" class="st1"/>
			</g>
			<g id="shape1577-47" transform="translate(347.513,372.341) rotate(134.999)">
				<title>Sheet.1577</title>
				<path d="M0 363.67 L95.83 363.67" class="st1"/>
			</g>
			<g id="shape1578-50" transform="translate(347.513,402.459) rotate(134.999)">
				<title>Sheet.1578</title>
				<path d="M0 363.67 L95.83 363.67" class="st1"/>
			</g>
			<g id="shape1579-53" transform="translate(347.513,432.578) rotate(134.999)">
				<title>Sheet.1579</title>
				<path d="M0 363.67 L95.83 363.67" class="st1"/>
			</g>
			<g id="shape1580-56" transform="translate(347.513,462.696) rotate(134.999)">
				<title>Sheet.1580</title>
				<path d="M0 363.67 L95.83 363.67" class="st1"/>
			</g>
			<g id="shape1581-59" transform="translate(347.513,492.814) rotate(134.999)">
				<title>Sheet.1581</title>
				<path d="M0 363.67 L95.83 363.67" class="st1"/>
			</g>
			<g id="shape1582-62" transform="translate(362.572,500.343) rotate(134.999)">
				<title>Sheet.1582</title>
				<path d="M0 363.67 L117.13 363.67" class="st1"/>
			</g>
			<g id="shape1583-65" transform="translate(407.748,-172.074) rotate(45.0007)">
				<title>Sheet.1583</title>
				<path d="M0 363.67 L95.83 363.67" class="st1"/>
			</g>
			<g id="shape1584-68" transform="translate(407.748,-141.956) rotate(45.0007)">
				<title>Sheet.1584</title>
				<path d="M0 363.67 L95.83 363.67" class="st1"/>
			</g>
			<g id="shape1585-71" transform="translate(407.748,-111.837) rotate(45.0007)">
				<title>Sheet.1585</title>
				<path d="M0 363.67 L95.83 363.67" class="st1"/>
			</g>
			<g id="shape1586-74" transform="translate(407.748,-81.7193) rotate(45.0007)">
				<title>Sheet.1586</title>
				<path d="M0 363.67 L95.83 363.67" class="st1"/>
			</g>
			<g id="shape1587-77" transform="translate(407.748,-51.6012) rotate(45.0007)">
				<title>Sheet.1587</title>
				<path d="M0 363.67 L95.83 363.67" class="st1"/>
			</g>
			<g id="shape1588-80" transform="translate(407.748,-21.4831) rotate(45.0007)">
				<title>Sheet.1588</title>
				<path d="M0 363.67 L95.83 363.67" class="st1"/>
			</g>
			<g id="shape1589-83" transform="translate(392.689,-13.9536) rotate(45.0007)">
				<title>Sheet.1589</title>
				<path d="M0 363.67 L117.13 363.67" class="st1"/>
			</g>
			<g id="shape1590-86" transform="translate(514.26,54.9567) rotate(90)">
				<title>Sheet.1590</title>
				<path d="M0 363.67 L30.12 363.67" class="st1"/>
			</g>
		</g>
	</g>
</svg>
