<?xml version="1.0" encoding="UTF-8" standalone="no"?>
<!DOCTYPE svg PUBLIC "-//W3C//DTD SVG 1.1//EN" "http://www.w3.org/Graphics/SVG/1.1/DTD/svg11.dtd">
<!-- Generated by Microsoft Visio, SVG Export PE031A.svg Page-1 -->
<svg xmlns="http://www.w3.org/2000/svg" xmlns:xlink="http://www.w3.org/1999/xlink" xmlns:ev="http://www.w3.org/2001/xml-events"
		width="4.75566in" height="1.01551in" viewBox="0 0 342.408 73.1168" xml:space="preserve" color-interpolation-filters="sRGB"
		class="st3">
	<title>PE031A</title>

	<style type="text/css">
	<![CDATA[
		.st1 {fill:none}
		.st2 {stroke:#000000;stroke-linecap:round;stroke-linejoin:round;stroke-width:2.25}
		.st3 {fill:none;fill-rule:evenodd;font-size:12px;overflow:visible;stroke-linecap:square;stroke-miterlimit:3}
	]]>
	</style>

	<g>
		<title>Page-1</title>
		<g id="group1508-1" transform="translate(1.125,-1.1253)">
			<title>Sheet.1508</title>
			<g id="shape1458-2" transform="translate(150.284,-58.0369)">
				<title>Sheet.1458</title>
				<path d="M24.49 72.6 A13.176 12.3815 90 0 0 0 73.12 L24.49 72.6 Z" class="st1"/>
				<path d="M24.49 72.6 A13.176 12.3815 90 0 0 0 73.12" class="st2"/>
			</g>
			<g id="shape1459-5" transform="translate(116.688,-1.42109E-14)">
				<title>Sheet.1459</title>
				<path d="M0 62.03 A13.1563 12.363 -90 0 0 24.49 61.51 L0 62.03 Z" class="st1"/>
				<path d="M0 62.03 A13.1563 12.363 -90 0 0 24.49 61.51" class="st2"/>
			</g>
			<g id="shape1468-8" transform="translate(-0.26262,-69.6438) rotate(-0.205803)">
				<title>Sheet.1468</title>
				<path d="M0 73.12 L340.16 73.12" class="st2"/>
			</g>
			<g id="shape1469-11" transform="translate(-0.26263,0.000471677) rotate(-0.205803)">
				<title>Sheet.1469</title>
				<path d="M0 73.12 L340.16 73.12" class="st2"/>
			</g>
			<g id="shape1478-14" transform="translate(69.4251,47.4301) rotate(-78.8979)">
				<title>Sheet.1478</title>
				<path d="M0 73.12 L47.32 73.12" class="st2"/>
			</g>
			<g id="shape1479-17" transform="translate(244.994,-5.80256) rotate(73.8289)">
				<title>Sheet.1479</title>
				<path d="M0 73.12 L49.43 73.12" class="st2"/>
			</g>
			<g id="shape1487-20" transform="translate(77.4236,-59.3802)">
				<title>Sheet.1487</title>
				<path d="M24.49 72.6 A13.176 12.3815 90 0 0 0 73.12 L24.49 72.6 Z" class="st1"/>
				<path d="M24.49 72.6 A13.176 12.3815 90 0 0 0 73.12" class="st2"/>
			</g>
			<g id="shape1488-23" transform="translate(43.8271,-1.34325)">
				<title>Sheet.1488</title>
				<path d="M0 62.03 A13.1563 12.363 -90 0 0 24.49 61.51 L0 62.03 Z" class="st1"/>
				<path d="M0 62.03 A13.1563 12.363 -90 0 0 24.49 61.51" class="st2"/>
			</g>
			<g id="shape1489-26" transform="translate(-3.43576,46.0868) rotate(-78.8979)">
				<title>Sheet.1489</title>
				<path d="M0 73.12 L47.32 73.12" class="st2"/>
			</g>
			<g id="shape1490-29" transform="translate(172.133,-7.14582) rotate(73.8289)">
				<title>Sheet.1490</title>
				<path d="M0 73.12 L49.43 73.12" class="st2"/>
			</g>
			<g id="shape1491-32" transform="translate(5.25,-59.3802)">
				<title>Sheet.1491</title>
				<path d="M24.49 72.6 A13.176 12.3815 90 0 0 0 73.12 L24.49 72.6 Z" class="st1"/>
				<path d="M24.49 72.6 A13.176 12.3815 90 0 0 0 73.12" class="st2"/>
			</g>
			<g id="shape1493-35" transform="translate(-72.0987,32.7083) rotate(-80.4275)">
				<title>Sheet.1493</title>
				<path d="M0 73.12 L31.57 73.12" class="st2"/>
			</g>
			<g id="shape1494-38" transform="translate(99.9594,-7.14582) rotate(73.8289)">
				<title>Sheet.1494</title>
				<path d="M0 73.12 L49.43 73.12" class="st2"/>
			</g>
			<g id="shape1495-41" transform="translate(221.554,-58.0369)">
				<title>Sheet.1495</title>
				<path d="M24.49 72.6 A13.176 12.3815 90 0 0 0 73.12 L24.49 72.6 Z" class="st1"/>
				<path d="M24.49 72.6 A13.176 12.3815 90 0 0 0 73.12" class="st2"/>
			</g>
			<g id="shape1496-44" transform="translate(187.957,-7.10543E-14)">
				<title>Sheet.1496</title>
				<path d="M0 62.03 A13.1563 12.363 -90 0 0 24.49 61.51 L0 62.03 Z" class="st1"/>
				<path d="M0 62.03 A13.1563 12.363 -90 0 0 24.49 61.51" class="st2"/>
			</g>
			<g id="shape1497-47" transform="translate(140.694,47.4301) rotate(-78.8979)">
				<title>Sheet.1497</title>
				<path d="M0 73.12 L47.32 73.12" class="st2"/>
			</g>
			<g id="shape1498-50" transform="translate(316.263,-5.80256) rotate(73.8289)">
				<title>Sheet.1498</title>
				<path d="M0 73.12 L49.43 73.12" class="st2"/>
			</g>
			<g id="shape1499-53" transform="translate(293.402,-58.0369)">
				<title>Sheet.1499</title>
				<path d="M24.49 72.6 A13.176 12.3815 90 0 0 0 73.12 L24.49 72.6 Z" class="st1"/>
				<path d="M24.49 72.6 A13.176 12.3815 90 0 0 0 73.12" class="st2"/>
			</g>
			<g id="shape1500-56" transform="translate(259.805,-7.10543E-14)">
				<title>Sheet.1500</title>
				<path d="M0 62.03 A13.1563 12.363 -90 0 0 24.49 61.51 L0 62.03 Z" class="st1"/>
				<path d="M0 62.03 A13.1563 12.363 -90 0 0 24.49 61.51" class="st2"/>
			</g>
			<g id="shape1501-59" transform="translate(212.543,47.4301) rotate(-78.8979)">
				<title>Sheet.1501</title>
				<path d="M0 73.12 L47.32 73.12" class="st2"/>
			</g>
			<g id="shape1502-62" transform="translate(388.111,-5.80256) rotate(73.8289)">
				<title>Sheet.1502</title>
				<path d="M0 73.12 L49.43 73.12" class="st2"/>
			</g>
			<g id="shape1507-65" transform="translate(387.025,14.2836) rotate(49.2268)">
				<title>Sheet.1507</title>
				<path d="M0 73.12 L13.02 73.12" class="st2"/>
			</g>
		</g>
	</g>
</svg>
