<?xml version="1.0" encoding="UTF-8" standalone="no"?>
<!DOCTYPE svg PUBLIC "-//W3C//DTD SVG 1.1//EN" "http://www.w3.org/Graphics/SVG/1.1/DTD/svg11.dtd">
<!-- Generated by Microsoft Visio, SVG Export PE039A.svg Page-1 -->
<svg xmlns="http://www.w3.org/2000/svg" xmlns:xlink="http://www.w3.org/1999/xlink" xmlns:ev="http://www.w3.org/2001/xml-events"
		width="8.29897in" height="2.39347in" viewBox="0 0 597.526 172.33" xml:space="preserve" color-interpolation-filters="sRGB"
		class="st3">
	<title>PE039A</title>

	<style type="text/css">
	<![CDATA[
		.st1 {stroke:#000000;stroke-linecap:round;stroke-linejoin:round;stroke-width:2.25}
		.st2 {fill:none}
		.st3 {fill:none;fill-rule:evenodd;font-size:12px;overflow:visible;stroke-linecap:square;stroke-miterlimit:3}
	]]>
	</style>

	<g>
		<title>Page-1</title>
		<g id="group1494-1" transform="translate(1.125,-1.125)">
			<title>STPX020.469</title>
			<g id="shape1495-2" transform="translate(85.0399,202.927) rotate(180)">
				<title>Sheet.1495</title>
				<path d="M0 172.33 L56.69 172.33" class="st1"/>
			</g>
			<g id="shape1496-5" transform="translate(28.3466,-28.3466)">
				<title>Sheet.1496</title>
				<path d="M0 172.33 L56.69 172.33" class="st1"/>
			</g>
			<g id="shape1497-8" transform="translate(113.387,-28.3466)">
				<title>Sheet.1497</title>
				<path d="M0 172.33 L453.55 172.33" class="st1"/>
			</g>
			<g id="shape1498-11" transform="translate(186.503,2.25) rotate(90)">
				<title>Sheet.1498</title>
				<path d="M0 172.33 L170.08 172.33" class="st1"/>
			</g>
			<g id="shape1499-14" transform="translate(271.543,2.25) rotate(90)">
				<title>Sheet.1499</title>
				<path d="M0 172.33 L170.08 172.33" class="st1"/>
			</g>
			<g id="shape1500-17" transform="translate(85.0399,-170.08)">
				<title>Sheet.1500</title>
				<path d="M0 172.33 L28.35 172.33" class="st1"/>
			</g>
			<g id="shape1501-20" transform="translate(113.387,344.66) rotate(180)">
				<title>Sheet.1501</title>
				<path d="M0 172.33 L28.35 172.33" class="st1"/>
			</g>
			<g id="shape1502-23" transform="translate(9.39249E-14,-170.08)">
				<title>Sheet.1502</title>
				<path d="M0 172.33 L28.35 172.33" class="st1"/>
			</g>
			<g id="shape1503-26" transform="translate(28.3466,344.66) rotate(180)">
				<title>Sheet.1503</title>
				<path d="M0 172.33 L28.35 172.33" class="st1"/>
			</g>
			<g id="shape1504-29" transform="translate(-172.33,172.33) rotate(-90)">
				<title>Sheet.1504</title>
				<path d="M0 172.33 L170.08 172.33" class="st1"/>
			</g>
			<g id="shape1505-32" transform="translate(200.677,2.25) rotate(90)">
				<title>Sheet.1505</title>
				<path d="M0 172.33 L28.35 172.33" class="st1"/>
			</g>
			<g id="shape1506-35" transform="translate(200.677,30.5967) rotate(90)">
				<title>Sheet.1506</title>
				<path d="M0 172.33 L113.39 172.33" class="st1"/>
			</g>
			<g id="shape1507-38" transform="translate(200.677,143.983) rotate(90)">
				<title>Sheet.1507</title>
				<path d="M0 172.33 L28.35 172.33" class="st1"/>
			</g>
			<g id="shape1508-41" transform="translate(-87.2899,172.33) rotate(-90)">
				<title>Sheet.1508</title>
				<path d="M0 172.33 L28.35 172.33" class="st1"/>
			</g>
			<g id="shape1509-44" transform="translate(-87.2899,143.983) rotate(-90)">
				<title>Sheet.1509</title>
				<path d="M0 172.33 L113.39 172.33" class="st1"/>
			</g>
			<g id="shape1510-47" transform="translate(-87.2899,30.5967) rotate(-90)">
				<title>Sheet.1510</title>
				<path d="M0 172.33 L28.35 172.33" class="st1"/>
			</g>
			<g id="shape1511-50" transform="translate(285.716,2.25) rotate(90)">
				<title>Sheet.1511</title>
				<path d="M0 172.33 L28.36 172.33" class="st1"/>
			</g>
			<g id="shape1512-53" transform="translate(285.716,30.6078) rotate(90)">
				<title>Sheet.1512</title>
				<path d="M0 172.33 L113.38 172.33" class="st1"/>
			</g>
			<g id="shape1513-56" transform="translate(285.716,143.983) rotate(90)">
				<title>Sheet.1513</title>
				<path d="M0 172.33 L28.35 172.33" class="st1"/>
			</g>
			<g id="shape1514-59" transform="translate(113.387,-141.733)">
				<title>Sheet.1514</title>
				<path d="M0 172.33 L453.55 172.33" class="st1"/>
			</g>
			<g id="shape1515-62" transform="translate(566.929,-28.3379)">
				<title>Sheet.1515</title>
				<path d="M0 172.33 A56.6933 28.3466 90 0 0 -0 58.94 L0 172.33 Z" class="st2"/>
				<path d="M0 172.33 A56.6933 28.3466 90 0 0 -0 58.94" class="st1"/>
			</g>
			<g id="shape1516-65" transform="translate(739.263,30.5967) rotate(90)">
				<title>Sheet.1516</title>
				<path d="M0 172.33 L113.39 172.33" class="st1"/>
			</g>
		</g>
	</g>
</svg>
