<?xml version="1.0" encoding="UTF-8" standalone="no"?>
<!DOCTYPE svg PUBLIC "-//W3C//DTD SVG 1.1//EN" "http://www.w3.org/Graphics/SVG/1.1/DTD/svg11.dtd">
<!-- Generated by Microsoft Visio, SVG Export PE038A.svg Page-1 -->
<svg xmlns="http://www.w3.org/2000/svg" xmlns:xlink="http://www.w3.org/1999/xlink" xmlns:ev="http://www.w3.org/2001/xml-events"
		width="8.28942in" height="2.39347in" viewBox="0 0 596.838 172.33" xml:space="preserve" color-interpolation-filters="sRGB"
		class="st3">
	<title>PE038A</title>

	<style type="text/css">
	<![CDATA[
		.st1 {stroke:#000000;stroke-linecap:round;stroke-linejoin:round;stroke-width:2.25}
		.st2 {fill:none}
		.st3 {fill:none;fill-rule:evenodd;font-size:12px;overflow:visible;stroke-linecap:square;stroke-miterlimit:3}
	]]>
	</style>

	<g>
		<title>Page-1</title>
		<g id="group1481-1" transform="translate(28.7843,-1.125)">
			<title>Sheet.1481</title>
			<g id="shape1455-2" transform="translate(56.6933,202.927) rotate(180)">
				<title>Sheet.1455</title>
				<path d="M0 172.33 L56.69 172.33" class="st1"/>
			</g>
			<g id="shape1456-5" transform="translate(0,-28.3467)">
				<title>Sheet.1456</title>
				<path d="M0 172.33 L56.69 172.33" class="st1"/>
			</g>
			<g id="shape1457-8" transform="translate(85.04,-28.3467)">
				<title>Sheet.1457</title>
				<path d="M0 172.33 L368.51 172.33" class="st1"/>
			</g>
			<g id="shape1458-11" transform="translate(243.197,2.25) rotate(90)">
				<title>Sheet.1458</title>
				<path d="M0 172.33 L170.08 172.33" class="st1"/>
			</g>
			<g id="shape1459-14" transform="translate(56.6933,-170.08)">
				<title>Sheet.1459</title>
				<path d="M0 172.33 L28.35 172.33" class="st1"/>
			</g>
			<g id="shape1460-17" transform="translate(85.04,344.66) rotate(180)">
				<title>Sheet.1460</title>
				<path d="M0 172.33 L28.35 172.33" class="st1"/>
			</g>
			<g id="shape1461-20" transform="translate(-115.637,172.33) rotate(-90)">
				<title>Sheet.1461</title>
				<path d="M0 172.33 L28.35 172.33" class="st1"/>
			</g>
			<g id="shape1462-23" transform="translate(-115.637,143.983) rotate(-90)">
				<title>Sheet.1462</title>
				<path d="M0 172.33 L113.39 172.33" class="st1"/>
			</g>
			<g id="shape1463-26" transform="translate(-115.637,30.5967) rotate(-90)">
				<title>Sheet.1463</title>
				<path d="M0 172.33 L28.35 172.33" class="st1"/>
			</g>
			<g id="shape1464-29" transform="translate(257.37,2.25) rotate(90)">
				<title>Sheet.1464</title>
				<path d="M0 172.33 L28.36 172.33" class="st1"/>
			</g>
			<g id="shape1465-32" transform="translate(257.37,30.6078) rotate(90)">
				<title>Sheet.1465</title>
				<path d="M0 172.33 L113.38 172.33" class="st1"/>
			</g>
			<g id="shape1466-35" transform="translate(257.37,143.983) rotate(90)">
				<title>Sheet.1466</title>
				<path d="M0 172.33 L28.35 172.33" class="st1"/>
			</g>
			<g id="shape1467-38" transform="translate(481.893,-141.733)">
				<title>Sheet.1467</title>
				<path d="M0 172.33 L56.69 172.33" class="st1"/>
			</g>
			<g id="shape1468-41" transform="translate(538.587,316.313) rotate(180)">
				<title>Sheet.1468</title>
				<path d="M0 172.33 L56.69 172.33" class="st1"/>
			</g>
			<g id="shape1469-44" transform="translate(640.05,2.25) rotate(90)">
				<title>Sheet.1469</title>
				<path d="M0 172.33 L170.08 172.33" class="st1"/>
			</g>
			<g id="shape1470-47" transform="translate(481.893,174.58) rotate(180)">
				<title>Sheet.1470</title>
				<path d="M0 172.33 L28.35 172.33" class="st1"/>
			</g>
			<g id="shape1471-50" transform="translate(453.547,-2.84217E-14)">
				<title>Sheet.1471</title>
				<path d="M0 172.33 L28.35 172.33" class="st1"/>
			</g>
			<g id="shape1472-53" transform="translate(309.563,172.33) rotate(-90)">
				<title>Sheet.1472</title>
				<path d="M0 172.33 L28.35 172.33" class="st1"/>
			</g>
			<g id="shape1473-56" transform="translate(309.563,143.983) rotate(-90)">
				<title>Sheet.1473</title>
				<path d="M0 172.33 L113.39 172.33" class="st1"/>
			</g>
			<g id="shape1474-59" transform="translate(309.563,30.5967) rotate(-90)">
				<title>Sheet.1474</title>
				<path d="M0 172.33 L28.35 172.33" class="st1"/>
			</g>
			<g id="shape1475-62" transform="translate(625.876,2.25) rotate(90)">
				<title>Sheet.1475</title>
				<path d="M0 172.33 L28.36 172.33" class="st1"/>
			</g>
			<g id="shape1476-65" transform="translate(625.876,30.6078) rotate(90)">
				<title>Sheet.1476</title>
				<path d="M0 172.33 L113.38 172.33" class="st1"/>
			</g>
			<g id="shape1477-68" transform="translate(625.876,143.983) rotate(90)">
				<title>Sheet.1477</title>
				<path d="M0 172.33 L28.35 172.33" class="st1"/>
			</g>
			<g id="shape1478-71" transform="translate(85.04,-141.733)">
				<title>Sheet.1478</title>
				<path d="M0 172.33 L368.51 172.33" class="st1"/>
			</g>
			<g id="shape1479-74" transform="translate(538.582,-28.338)">
				<title>Sheet.1479</title>
				<path d="M-0 172.33 A56.6933 28.3467 90 1 0 0 58.94 L0 172.33 Z" class="st2"/>
				<path d="M-0 172.33 A56.6933 28.3467 90 1 0 0 58.94" class="st1"/>
			</g>
			<g id="shape1480-77" transform="translate(29.034,-28.338) scale(-1,1)">
				<title>Sheet.1480</title>
				<path d="M28.35 172.33 A56.6933 28.3467 90 1 0 28.35 58.94 L28.35 172.33 Z" class="st2"/>
				<path d="M28.35 172.33 A56.6933 28.3467 90 1 0 28.35 58.94" class="st1"/>
			</g>
		</g>
	</g>
</svg>
