<?xml version="1.0" encoding="UTF-8" standalone="no"?>
<!DOCTYPE svg PUBLIC "-//W3C//DTD SVG 1.1//EN" "http://www.w3.org/Graphics/SVG/1.1/DTD/svg11.dtd">
<!-- Generated by Microsoft Visio, SVG Export PE034A.svg Page-1 -->
<svg xmlns="http://www.w3.org/2000/svg" xmlns:xlink="http://www.w3.org/1999/xlink" xmlns:ev="http://www.w3.org/2001/xml-events"
		width="5.77657in" height="5.1433in" viewBox="0 0 415.913 370.318" xml:space="preserve" color-interpolation-filters="sRGB"
		class="st4">
	<title>PE034A</title>

	<style type="text/css">
	<![CDATA[
		.st1 {stroke:#000000;stroke-linecap:round;stroke-linejoin:round;stroke-width:2.25}
		.st2 {fill:none;stroke:none;stroke-linecap:round;stroke-linejoin:round;stroke-width:0.75}
		.st3 {fill:#ff0000;font-family:Calibri;font-size:4.00001em}
		.st4 {fill:none;fill-rule:evenodd;font-size:12px;overflow:visible;stroke-linecap:square;stroke-miterlimit:3}
	]]>
	</style>

	<g>
		<title>Page-1</title>
		<g id="group1601-1" transform="translate(9.53128,-242.309)">
			<title>STPZ030.756</title>
			<g id="shape1602-2" transform="translate(261.854,80.0425) rotate(45)">
				<title>Sheet.1602</title>
				<path d="M0 370.32 L40.19 370.32" class="st1"/>
			</g>
			<g id="shape1603-5" transform="translate(283.17,80.0425) rotate(45)">
				<title>Sheet.1603</title>
				<path d="M0 370.32 L40.19 370.32" class="st1"/>
			</g>
			<g id="shape1604-8" transform="translate(304.486,80.0425) rotate(45)">
				<title>Sheet.1604</title>
				<path d="M0 370.32 L40.19 370.32" class="st1"/>
			</g>
			<g id="shape1605-11" transform="translate(325.801,80.0425) rotate(45)">
				<title>Sheet.1605</title>
				<path d="M0 370.32 L40.19 370.32" class="st1"/>
			</g>
			<g id="shape1606-14" transform="translate(347.117,80.0425) rotate(45)">
				<title>Sheet.1606</title>
				<path d="M0 370.32 L40.19 370.32" class="st1"/>
			</g>
			<g id="shape1607-17" transform="translate(368.433,80.0425) rotate(45)">
				<title>Sheet.1607</title>
				<path d="M0 370.32 L40.19 370.32" class="st1"/>
			</g>
			<g id="shape1608-20" transform="translate(389.749,80.0425) rotate(45)">
				<title>Sheet.1608</title>
				<path d="M0 370.32 L40.19 370.32" class="st1"/>
			</g>
			<g id="shape1609-23" transform="translate(411.065,80.0425) rotate(45)">
				<title>Sheet.1609</title>
				<path d="M0 370.32 L40.19 370.32" class="st1"/>
			</g>
			<g id="shape1610-26" transform="translate(432.38,80.0425) rotate(45)">
				<title>Sheet.1610</title>
				<path d="M0 370.32 L40.19 370.32" class="st1"/>
			</g>
			<g id="shape1611-29" transform="translate(453.696,80.0425) rotate(45)">
				<title>Sheet.1611</title>
				<path d="M0 370.32 L40.19 370.32" class="st1"/>
			</g>
			<g id="shape1612-32" transform="translate(475.012,80.0425) rotate(45)">
				<title>Sheet.1612</title>
				<path d="M0 370.32 L40.19 370.32" class="st1"/>
			</g>
			<g id="shape1613-35" transform="translate(496.328,80.0425) rotate(45)">
				<title>Sheet.1613</title>
				<path d="M0 370.32 L40.19 370.32" class="st1"/>
			</g>
			<g id="shape1614-38" transform="translate(517.644,80.0425) rotate(45)">
				<title>Sheet.1614</title>
				<path d="M0 370.32 L40.19 370.32" class="st1"/>
			</g>
			<g id="shape1615-41" transform="translate(0,-28.4211)">
				<title>Sheet.1615</title>
				<path d="M0 370.32 L255.79 370.32" class="st1"/>
			</g>
			<g id="shape1616-44" transform="translate(284.211,740.635) rotate(180)">
				<title>Sheet.1616</title>
				<path d="M0 370.32 L255.79 370.32" class="st1"/>
			</g>
		</g>
		<g id="shape1617-47" transform="translate(-177.532,86.2629) rotate(-40)">
			<title>Sheet.1617</title>
			<desc>NOT USED</desc>
			<rect x="0" y="276.774" width="463.465" height="93.5433" class="st2"/>
			<text x="130.32" y="337.95" class="st3">NOT USED</text>		</g>
	</g>
</svg>
