<?xml version="1.0" encoding="UTF-8" standalone="no"?>
<!DOCTYPE svg PUBLIC "-//W3C//DTD SVG 1.1//EN" "http://www.w3.org/Graphics/SVG/1.1/DTD/svg11.dtd">
<!-- Generated by Microsoft Visio, SVG Export PE041A.svg Page-1 -->
<svg xmlns="http://www.w3.org/2000/svg" xmlns:xlink="http://www.w3.org/1999/xlink" xmlns:ev="http://www.w3.org/2001/xml-events"
		xmlns:v="http://schemas.microsoft.com/visio/2003/SVGExtensions/" width="9.47906in" height="2.59515in"
		viewBox="0 0 682.492 186.851" xml:space="preserve" color-interpolation-filters="sRGB" class="st2">
	<title>PE041A</title>
	<v:documentProperties v:langID="2057" v:metric="true" v:viewMarkup="false"/>

	<style type="text/css">
	<![CDATA[
		.st1 {stroke:#000000;stroke-linecap:round;stroke-linejoin:round;stroke-width:2.25}
		.st2 {fill:none;fill-rule:evenodd;font-size:12px;overflow:visible;stroke-linecap:square;stroke-miterlimit:3}
	]]>
	</style>

	<g v:mID="0" v:index="1" v:groupContext="foregroundPage">
		<title>Page-1</title>
		<v:pageProperties v:drawingScale="0.0393701" v:pageScale="0.0393701" v:drawingUnits="24" v:shadowOffsetX="8.50394"
				v:shadowOffsetY="-8.50394"/>
		<v:layer v:name="Symbol" v:index="0"/>
		<g id="group1471-1" transform="translate(1.125,-1.125)" v:mID="1471" v:groupContext="group" v:layerMember="0">
			<title>Sheet.1471</title>
			<g id="shape1406-2" v:mID="1406" v:groupContext="shape" v:layerMember="0"
					transform="translate(341.937,14.2973) rotate(89.8122)">
				<title>Sheet.1406</title>
				<path d="M0 186.85 L170.18 186.85" class="st1"/>
			</g>
			<g id="shape1407-5" v:mID="1407" v:groupContext="shape" v:layerMember="0"
					transform="translate(356.857,14.9096) rotate(90)">
				<title>Sheet.1407</title>
				<path d="M0 186.85 L170.92 186.85" class="st1"/>
			</g>
			<g id="shape1408-8" v:mID="1408" v:groupContext="shape" v:layerMember="0"
					transform="translate(697.013,14.9295) rotate(89.7476)">
				<title>Sheet.1408</title>
				<path d="M0 186.85 L169.33 186.85" class="st1"/>
			</g>
			<g id="shape1409-11" v:mID="1409" v:groupContext="shape" v:layerMember="0"
					transform="translate(711.933,14.2973) rotate(89.8122)">
				<title>Sheet.1409</title>
				<path d="M0 186.85 L170.18 186.85" class="st1"/>
			</g>
			<g id="shape1410-14" v:mID="1410" v:groupContext="shape" v:layerMember="0" transform="translate(155.087,-171.942)">
				<title>Sheet.1410</title>
				<path d="M0 186.85 L14.92 186.85" class="st1"/>
			</g>
			<g id="shape1411-17" v:mID="1411" v:groupContext="shape" v:layerMember="0" transform="translate(510.163,-171.942)">
				<title>Sheet.1411</title>
				<path d="M0 186.85 L14.92 186.85" class="st1"/>
			</g>
			<g id="shape1412-20" v:mID="1412" v:groupContext="shape" v:layerMember="0" transform="translate(510.721,-1.76578)">
				<title>Sheet.1412</title>
				<path d="M0 186.85 L14.92 186.85" class="st1"/>
			</g>
			<g id="shape1413-23" v:mID="1413" v:groupContext="shape" v:layerMember="0" transform="translate(155.087,-1.01982)">
				<title>Sheet.1413</title>
				<path d="M0 186.85 L14.92 186.85" class="st1"/>
			</g>
			<g id="shape1414-26" v:mID="1414" v:groupContext="shape" v:layerMember="0"
					transform="translate(169.446,-29.0916) rotate(-0.171778)">
				<title>Sheet.1414</title>
				<path d="M0 186.85 L340.16 186.85" class="st1"/>
			</g>
			<g id="shape1416-29" v:mID="1416" v:groupContext="shape" v:layerMember="0"
					transform="translate(711.186,14.9295) rotate(89.7476)">
				<title>Sheet.1416</title>
				<path d="M0 186.85 L169.33 186.85" class="st1"/>
			</g>
			<g id="shape1417-32" v:mID="1417" v:groupContext="shape" v:layerMember="0"
					transform="translate(726.106,14.2973) rotate(89.8122)">
				<title>Sheet.1417</title>
				<path d="M0 186.85 L170.18 186.85" class="st1"/>
			</g>
			<g id="shape1418-35" v:mID="1418" v:groupContext="shape" v:layerMember="0" transform="translate(524.337,-171.942)">
				<title>Sheet.1418</title>
				<path d="M0 186.85 L14.92 186.85" class="st1"/>
			</g>
			<g id="shape1419-38" v:mID="1419" v:groupContext="shape" v:layerMember="0" transform="translate(524.894,-1.76578)">
				<title>Sheet.1419</title>
				<path d="M0 186.85 L14.92 186.85" class="st1"/>
			</g>
			<g id="shape1420-41" v:mID="1420" v:groupContext="shape" v:layerMember="0"
					transform="translate(327.764,15.1345) rotate(89.8105)">
				<title>Sheet.1420</title>
				<path d="M0 186.85 L168.59 186.85" class="st1"/>
			</g>
			<g id="shape1421-44" v:mID="1421" v:groupContext="shape" v:layerMember="0"
					transform="translate(342.684,15.7526) rotate(90)">
				<title>Sheet.1421</title>
				<path d="M0 186.85 L169.33 186.85" class="st1"/>
			</g>
			<g id="shape1422-47" v:mID="1422" v:groupContext="shape" v:layerMember="0" transform="translate(140.914,-171.942)">
				<title>Sheet.1422</title>
				<path d="M0 186.85 L14.92 186.85" class="st1"/>
			</g>
			<g id="shape1423-50" v:mID="1423" v:groupContext="shape" v:layerMember="0" transform="translate(141.66,-1.01982)">
				<title>Sheet.1423</title>
				<path d="M0 186.85 L14.92 186.85" class="st1"/>
			</g>
			<g id="shape1424-53" v:mID="1424" v:groupContext="shape" v:layerMember="0"
					transform="translate(794.549,15.9493) rotate(89.7476)">
				<title>Sheet.1424</title>
				<path d="M0 186.85 L169.33 186.85" class="st1"/>
			</g>
			<g id="shape1425-56" v:mID="1425" v:groupContext="shape" v:layerMember="0"
					transform="translate(809.469,15.3171) rotate(89.8122)">
				<title>Sheet.1425</title>
				<path d="M0 186.85 L170.18 186.85" class="st1"/>
			</g>
			<g id="shape1426-59" v:mID="1426" v:groupContext="shape" v:layerMember="0" transform="translate(607.699,-170.922)">
				<title>Sheet.1426</title>
				<path d="M0 186.85 L14.92 186.85" class="st1"/>
			</g>
			<g id="shape1427-62" v:mID="1427" v:groupContext="shape" v:layerMember="0" transform="translate(608.257,-0.745959)">
				<title>Sheet.1427</title>
				<path d="M0 186.85 L14.92 186.85" class="st1"/>
			</g>
			<g id="shape1428-65" v:mID="1428" v:groupContext="shape" v:layerMember="0"
					transform="translate(808.722,15.9493) rotate(89.7476)">
				<title>Sheet.1428</title>
				<path d="M0 186.85 L169.33 186.85" class="st1"/>
			</g>
			<g id="shape1429-68" v:mID="1429" v:groupContext="shape" v:layerMember="0"
					transform="translate(823.642,15.3171) rotate(89.8122)">
				<title>Sheet.1429</title>
				<path d="M0 186.85 L170.18 186.85" class="st1"/>
			</g>
			<g id="shape1430-71" v:mID="1430" v:groupContext="shape" v:layerMember="0" transform="translate(621.873,-170.922)">
				<title>Sheet.1430</title>
				<path d="M0 186.85 L14.92 186.85" class="st1"/>
			</g>
			<g id="shape1431-74" v:mID="1431" v:groupContext="shape" v:layerMember="0" transform="translate(622.43,-0.745959)">
				<title>Sheet.1431</title>
				<path d="M0 186.85 L14.92 186.85" class="st1"/>
			</g>
			<g id="shape1432-77" v:mID="1432" v:groupContext="shape" v:layerMember="0"
					transform="translate(243.097,15.3171) rotate(89.8122)">
				<title>Sheet.1432</title>
				<path d="M0 186.85 L170.18 186.85" class="st1"/>
			</g>
			<g id="shape1433-80" v:mID="1433" v:groupContext="shape" v:layerMember="0"
					transform="translate(258.018,15.9294) rotate(90)">
				<title>Sheet.1433</title>
				<path d="M0 186.85 L170.92 186.85" class="st1"/>
			</g>
			<g id="shape1434-83" v:mID="1434" v:groupContext="shape" v:layerMember="0" transform="translate(56.2472,-170.922)">
				<title>Sheet.1434</title>
				<path d="M0 186.85 L14.92 186.85" class="st1"/>
			</g>
			<g id="shape1435-86" v:mID="1435" v:groupContext="shape" v:layerMember="0" transform="translate(56.2472,-8.81073E-13)">
				<title>Sheet.1435</title>
				<path d="M0 186.85 L14.92 186.85" class="st1"/>
			</g>
			<g id="shape1436-89" v:mID="1436" v:groupContext="shape" v:layerMember="0"
					transform="translate(228.924,16.1543) rotate(89.8105)">
				<title>Sheet.1436</title>
				<path d="M0 186.85 L168.59 186.85" class="st1"/>
			</g>
			<g id="shape1437-92" v:mID="1437" v:groupContext="shape" v:layerMember="0"
					transform="translate(243.844,16.7724) rotate(90)">
				<title>Sheet.1437</title>
				<path d="M0 186.85 L169.33 186.85" class="st1"/>
			</g>
			<g id="shape1438-95" v:mID="1438" v:groupContext="shape" v:layerMember="0" transform="translate(42.074,-170.922)">
				<title>Sheet.1438</title>
				<path d="M0 186.85 L14.92 186.85" class="st1"/>
			</g>
			<g id="shape1439-98" v:mID="1439" v:groupContext="shape" v:layerMember="0" transform="translate(42.8199,-3.69482E-13)">
				<title>Sheet.1439</title>
				<path d="M0 186.85 L14.92 186.85" class="st1"/>
			</g>
			<g id="shape1440-101" v:mID="1440" v:groupContext="shape" v:layerMember="0"
					transform="translate(170.583,-142.575) rotate(0.140883)">
				<title>Sheet.1440</title>
				<path d="M0 186.85 L340.04 186.85" class="st1"/>
			</g>
			<g id="shape1441-104" v:mID="1441" v:groupContext="shape" v:layerMember="0" transform="translate(71.1664,-142.575)">
				<title>Sheet.1441</title>
				<path d="M0 186.85 L70.03 186.85" class="st1"/>
			</g>
			<g id="shape1442-107" v:mID="1442" v:groupContext="shape" v:layerMember="0" transform="translate(71.1664,-29.1894)">
				<title>Sheet.1442</title>
				<path d="M0 186.85 L70.49 186.85" class="st1"/>
			</g>
			<g id="shape1443-110" v:mID="1443" v:groupContext="shape" v:layerMember="0"
					transform="translate(540.122,-142.102) rotate(0.235744)">
				<title>Sheet.1443</title>
				<path d="M0 186.85 L68.34 186.85" class="st1"/>
			</g>
			<g id="shape1444-113" v:mID="1444" v:groupContext="shape" v:layerMember="0"
					transform="translate(541.854,-30.1115) rotate(0.156319)">
				<title>Sheet.1444</title>
				<path d="M0 186.85 L66.97 186.85" class="st1"/>
			</g>
			<g id="group1456-116" transform="translate(453.471,-142.154)" v:mID="1456" v:groupContext="group" v:layerMember="0">
				<title>Sheet.1456</title>
				<g id="shape1454-117" v:mID="1454" v:groupContext="shape" v:layerMember="0"
						transform="translate(208.111,144.404) rotate(90)">
					<title>Sheet.1454</title>
					<path d="M0 186.85 L42.45 186.85" class="st1"/>
				</g>
				<g id="shape1455-120" v:mID="1455" v:groupContext="shape" v:layerMember="0" transform="translate(0,-42.4469)">
					<title>Sheet.1455</title>
					<path d="M0 186.85 L42.52 186.85" class="st1"/>
				</g>
			</g>
			<g id="group1457-123" transform="translate(824.646,78.6891) rotate(90)" v:mID="1457" v:groupContext="group"
					v:layerMember="0">
				<title>Sheet.1457</title>
				<g id="shape1458-124" v:mID="1458" v:groupContext="shape" v:layerMember="0"
						transform="translate(208.111,144.404) rotate(90)">
					<title>Sheet.1458</title>
					<path d="M0 186.85 L42.45 186.85" class="st1"/>
				</g>
				<g id="shape1459-127" v:mID="1459" v:groupContext="shape" v:layerMember="0" transform="translate(0,-42.4469)">
					<title>Sheet.1459</title>
					<path d="M0 186.85 L42.52 186.85" class="st1"/>
				</g>
			</g>
			<g id="group1460-130" transform="translate(-144.404,121.209) rotate(-90)" v:mID="1460" v:groupContext="group"
					v:layerMember="0">
				<title>Sheet.1460</title>
				<g id="shape1461-131" v:mID="1461" v:groupContext="shape" v:layerMember="0"
						transform="translate(208.111,144.404) rotate(90)">
					<title>Sheet.1461</title>
					<path d="M0 186.85 L42.45 186.85" class="st1"/>
				</g>
				<g id="shape1462-134" v:mID="1462" v:groupContext="shape" v:layerMember="0" transform="translate(0,-42.4469)">
					<title>Sheet.1462</title>
					<path d="M0 186.85 L42.52 186.85" class="st1"/>
				</g>
			</g>
			<g id="shape1464-137" v:mID="1464" v:groupContext="shape" v:layerMember="0"
					transform="translate(170.06,-129.422) rotate(0.0164741)">
				<title>Sheet.1464</title>
				<path d="M0 186.85 L337.32 186.85" class="st1"/>
			</g>
			<g id="shape1465-140" v:mID="1465" v:groupContext="shape" v:layerMember="0"
					transform="translate(170.552,-115.249) rotate(0.0164741)">
				<title>Sheet.1465</title>
				<path d="M0 186.85 L337.32 186.85" class="st1"/>
			</g>
			<g id="shape1466-143" v:mID="1466" v:groupContext="shape" v:layerMember="0"
					transform="translate(170.06,-101.821) rotate(0.0164741)">
				<title>Sheet.1466</title>
				<path d="M0 186.85 L337.32 186.85" class="st1"/>
			</g>
			<g id="shape1467-146" v:mID="1467" v:groupContext="shape" v:layerMember="0"
					transform="translate(172.044,-86.8051) rotate(0.0164741)">
				<title>Sheet.1467</title>
				<path d="M0 186.85 L337.32 186.85" class="st1"/>
			</g>
			<g id="shape1468-149" v:mID="1468" v:groupContext="shape" v:layerMember="0"
					transform="translate(170.06,-73.4749) rotate(0.0164741)">
				<title>Sheet.1468</title>
				<path d="M0 186.85 L337.32 186.85" class="st1"/>
			</g>
			<g id="shape1469-152" v:mID="1469" v:groupContext="shape" v:layerMember="0"
					transform="translate(171.477,-58.5557) rotate(0.0164741)">
				<title>Sheet.1469</title>
				<path d="M0 186.85 L337.32 186.85" class="st1"/>
			</g>
			<g id="shape1470-155" v:mID="1470" v:groupContext="shape" v:layerMember="0"
					transform="translate(171.477,-44.2855) rotate(0.0164741)">
				<title>Sheet.1470</title>
				<path d="M0 186.85 L337.32 186.85" class="st1"/>
			</g>
		</g>
	</g>
</svg>
