<?xml version="1.0" encoding="UTF-8" standalone="no"?>
<!DOCTYPE svg PUBLIC "-//W3C//DTD SVG 1.1//EN" "http://www.w3.org/Graphics/SVG/1.1/DTD/svg11.dtd">
<!-- Generated by Microsoft Visio, SVG Export PE043A.svg Page-1 -->
<svg xmlns="http://www.w3.org/2000/svg" xmlns:xlink="http://www.w3.org/1999/xlink" xmlns:ev="http://www.w3.org/2001/xml-events"
		width="3.76099in" height="5.54441in" viewBox="0 0 270.791 399.197" xml:space="preserve" color-interpolation-filters="sRGB"
		class="st7">
	<title>PE043A</title>

	<style type="text/css">
	<![CDATA[
		.st1 {stroke:#000000;stroke-linecap:round;stroke-linejoin:round;stroke-width:2.25}
		.st2 {fill:none;stroke:#ff0000;stroke-linecap:round;stroke-linejoin:round;stroke-width:0.75}
		.st3 {fill:#ff0000;font-family:Arial Narrow;font-size:0.833336em;font-weight:bold}
		.st4 {fill:none;stroke:none;stroke-linecap:round;stroke-linejoin:round;stroke-width:0.75}
		.st5 {fill:#ff0000;font-family:Arial Narrow;font-size:0.811964em;font-weight:bold}
		.st6 {baseline-shift:33.35%;font-size:0.667em}
		.st7 {fill:none;fill-rule:evenodd;font-size:12px;overflow:visible;stroke-linecap:square;stroke-miterlimit:3}
	]]>
	</style>

	<g>
		<title>Page-1</title>
		<g id="shape1583-1" transform="translate(171.431,797.173) rotate(179.967)">
			<title>Sheet.1583</title>
			<path d="M0 399.2 L170.08 399.2" class="st1"/>
		</g>
		<g id="shape1584-4" transform="translate(58.5007,-284.686) rotate(0.0980035)">
			<title>Sheet.1584</title>
			<path d="M0 399.2 L56.69 399.2" class="st1"/>
		</g>
		<g id="shape1585-7" transform="translate(1.125,-171.301)">
			<title>Sheet.1585</title>
			<path d="M0 399.2 L15.25 399.2" class="st1"/>
		</g>
		<g id="shape1586-10" transform="translate(32.2615,-171.301)">
			<title>Sheet.1586</title>
			<path d="M0 399.2 L15.89 399.2" class="st1"/>
		</g>
		<g id="shape1587-13" transform="translate(64.0452,-171.301)">
			<title>Sheet.1587</title>
			<path d="M0 399.2 L15.89 399.2" class="st1"/>
		</g>
		<g id="shape1588-16" transform="translate(95.8289,-171.301)">
			<title>Sheet.1588</title>
			<path d="M0 399.2 L15.89 399.2" class="st1"/>
		</g>
		<g id="shape1589-19" transform="translate(127.607,-171.301)">
			<title>Sheet.1589</title>
			<path d="M0 399.2 L15.25 399.2" class="st1"/>
		</g>
		<g id="shape1590-22" transform="translate(28.0876,-57.9149)">
			<title>Sheet.1590</title>
			<path d="M0 399.2 L16.63 399.2" class="st1"/>
		</g>
		<g id="shape1591-25" transform="translate(60.6079,-57.9149)">
			<title>Sheet.1591</title>
			<path d="M0 399.2 L15.89 399.2" class="st1"/>
		</g>
		<g id="shape1592-28" transform="translate(92.3917,-57.9149)">
			<title>Sheet.1592</title>
			<path d="M0 399.2 L15.89 399.2" class="st1"/>
		</g>
		<g id="shape1593-31" transform="translate(124.175,-57.9149)">
			<title>Sheet.1593</title>
			<path d="M0 399.2 L15.89 399.2" class="st1"/>
		</g>
		<g id="shape1594-34" transform="translate(155.954,-57.9149)">
			<title>Sheet.1594</title>
			<path d="M0 399.2 L15.25 399.2" class="st1"/>
		</g>
		<g id="shape1595-37" transform="translate(-252.462,57.2918) rotate(-44.6507)">
			<title>Sheet.1595</title>
			<path d="M0 399.2 L18.77 399.2" class="st1"/>
		</g>
		<g id="shape1596-40" transform="translate(-226.408,31.5507) rotate(-44.6449)">
			<title>Sheet.1596</title>
			<path d="M0 399.2 L17.83 399.2" class="st1"/>
		</g>
		<g id="shape1597-43" transform="translate(-203.197,9.40102) rotate(-45)">
			<title>Sheet.1597</title>
			<path d="M0 399.2 L20.04 399.2" class="st1"/>
		</g>
		<g id="shape1598-46" transform="translate(-175.696,-18.5522) rotate(-44.6449)">
			<title>Sheet.1598</title>
			<path d="M0 399.2 L17.83 399.2" class="st1"/>
		</g>
		<g id="shape1599-49" transform="translate(-150.34,-43.6017) rotate(-44.6448)">
			<title>Sheet.1599</title>
			<path d="M0 399.2 L17.82 399.2" class="st1"/>
		</g>
		<g id="group1600-52" transform="translate(183.235,-157.127)">
			<title>Sheet.1600</title>
			<g id="shape1555-53" transform="translate(2.14165,0)" display="none">
				<title>Sheet.1555</title>
				<desc>1</desc>
				<rect x="0" y="385.024" width="85.0394" height="14.1732" class="st2"/>
				<text x="40.24" y="395.11" class="st3">1</text>			</g>
			<g id="shape1556-56" transform="translate(-1.59872E-14,-4.47576)" display="none">
				<title>Sheet.1556</title>
				<desc>A</desc>
				<rect x="0" y="385.024" width="13.2348" height="14.1732" class="st4"/>
				<text x="4" y="398.72" class="st5"><tspan class="st6">A</tspan></text>			</g>
		</g>
		<g id="shape1602-60" transform="translate(400.322,172.313) rotate(90)">
			<title>Sheet.1602</title>
			<path d="M0 399.2 L225.76 399.2" class="st1"/>
		</g>
		<g id="shape1603-63" transform="translate(171.431,571.413) rotate(179.967)">
			<title>Sheet.1603</title>
			<path d="M0 399.2 L170.08 399.2" class="st1"/>
		</g>
		<g id="shape1604-66" transform="translate(570.401,172.216) rotate(90)">
			<title>Sheet.1604</title>
			<path d="M0 399.2 L225.76 399.2" class="st1"/>
		</g>
		<g id="shape1605-69" transform="translate(-283.872,-107.214) rotate(-45.5551)">
			<title>Sheet.1605</title>
			<path d="M0 399.2 L80.96 399.2" class="st1"/>
		</g>
		<g id="shape1606-72" transform="translate(455.73,-107.789) rotate(45.4589) scale(-1,1)">
			<title>Sheet.1606</title>
			<path d="M0 399.2 L80.83 399.2" class="st1"/>
		</g>
		<g id="shape1607-75" transform="translate(513.708,1.22197) rotate(90)">
			<title>Sheet.1607</title>
			<path d="M0 399.2 L113.39 399.2" class="st1"/>
		</g>
		<g id="shape1608-78" transform="translate(457.015,1.125) rotate(90)">
			<title>Sheet.1608</title>
			<path d="M0 399.2 L113.39 399.2" class="st1"/>
		</g>
		<g id="shape1609-81" transform="translate(58.5007,-398.072) rotate(0.0980035)">
			<title>Sheet.1609</title>
			<path d="M0 399.2 L56.69 399.2" class="st1"/>
		</g>
	</g>
</svg>
