<?xml version="1.0" encoding="UTF-8" standalone="no"?>
<!DOCTYPE svg PUBLIC "-//W3C//DTD SVG 1.1//EN" "http://www.w3.org/Graphics/SVG/1.1/DTD/svg11.dtd">
<!-- Generated by Microsoft Visio, SVG Export PE042A.svg Page-1 -->
<svg xmlns="http://www.w3.org/2000/svg" xmlns:xlink="http://www.w3.org/1999/xlink" xmlns:ev="http://www.w3.org/2001/xml-events"
		width="7.71311in" height="2.00615in" viewBox="0 0 555.344 144.443" xml:space="preserve" color-interpolation-filters="sRGB"
		class="st3">
	<title>PE042A</title>

	<style type="text/css">
	<![CDATA[
		.st1 {stroke:#000000;stroke-linecap:round;stroke-linejoin:round;stroke-width:2.25}
		.st2 {fill:none}
		.st3 {fill:none;fill-rule:evenodd;font-size:12px;overflow:visible;stroke-linecap:square;stroke-miterlimit:3}
	]]>
	</style>

	<g>
		<title>Page-1</title>
		<g id="group1586-1" transform="translate(1.125,-1.125)">
			<title>Sheet.1586</title>
			<g id="shape1558-2" transform="translate(56.8808,-14.2193)">
				<title>Sheet.1558</title>
				<path d="M0 144.44 L483.46 144.44" class="st1"/>
			</g>
			<g id="shape1559-5" transform="translate(56.8808,-128.986)">
				<title>Sheet.1559</title>
				<path d="M0 144.44 L483.46 144.44" class="st1"/>
			</g>
			<g id="shape1560-8" transform="translate(-2.19824E-14,-14.2018)">
				<title>Sheet.1560</title>
				<path d="M28.44 30.69 A56.8772 28.4386 90 1 0 28.44 144.44 L28.44 30.69 Z" class="st2"/>
				<path d="M28.44 30.69 A56.8772 28.4386 90 1 0 28.44 144.44" class="st1"/>
			</g>
			<g id="shape1561-11" transform="translate(28.4422,-14.2193)">
				<title>Sheet.1561</title>
				<path d="M0 144.44 L14.22 144.44" class="st1"/>
			</g>
			<g id="shape1562-14" transform="translate(28.4422,-128.986)">
				<title>Sheet.1562</title>
				<path d="M0 144.44 L14.22 144.44" class="st1"/>
			</g>
			<g id="shape1563-17" transform="translate(-87.5622,144.443) rotate(-90)">
				<title>Sheet.1563</title>
				<path d="M0 144.44 L142.19 144.44" class="st1"/>
			</g>
			<g id="shape1564-20" transform="translate(-101.781,144.443) rotate(-90)">
				<title>Sheet.1564</title>
				<path d="M0 144.44 L142.19 144.44" class="st1"/>
			</g>
			<g id="shape1565-23" transform="translate(440.584,-56.9991)">
				<title>Sheet.1565</title>
				<path d="M14.54 116.25 A14.1411 14.1411 -180 1 0 15.66 144.44 L14.54 116.25 Z" class="st2"/>
				<path d="M14.54 116.25 A14.1411 14.1411 -180 1 0 15.66 144.44" class="st1"/>
			</g>
			<g id="shape1566-26" transform="translate(441.703,204.001) scale(1,-1)">
				<title>Sheet.1566</title>
				<path d="M14.54 116.25 A14.1411 14.1411 -180 1 0 15.66 144.44 L14.54 116.25 Z" class="st2"/>
				<path d="M14.54 116.25 A14.1411 14.1411 -180 1 0 15.66 144.44" class="st1"/>
			</g>
			<g id="shape1571-29" transform="translate(540.502,-14.7401)">
				<title>Sheet.1571</title>
				<path d="M0 144.44 A19.6823 19.6823 -180 0 0 4.37 111.41 L0 144.44 Z" class="st2"/>
				<path d="M0 144.44 A19.6823 19.6823 -180 0 0 4.37 111.41" class="st1"/>
			</g>
			<g id="shape1572-32" transform="translate(455.297,-47.7694)">
				<title>Sheet.1572</title>
				<path d="M89.57 144.44 A100.809 100.809 -180 0 0 0 107.5 L89.57 144.44 Z" class="st2"/>
				<path d="M89.57 144.44 A100.809 100.809 -180 0 0 0 107.5" class="st1"/>
			</g>
			<g id="shape1573-35" transform="translate(541.621,161.8) scale(1,-1)">
				<title>Sheet.1573</title>
				<path d="M0 144.44 A19.6823 19.6823 -180 0 0 4.37 111.41 L0 144.44 Z" class="st2"/>
				<path d="M0 144.44 A19.6823 19.6823 -180 0 0 4.37 111.41" class="st1"/>
			</g>
			<g id="shape1574-38" transform="translate(456.416,194.829) scale(1,-1)">
				<title>Sheet.1574</title>
				<path d="M89.57 144.44 A100.809 100.809 -180 0 0 0 107.5 L89.57 144.44 Z" class="st2"/>
				<path d="M89.57 144.44 A100.809 100.809 -180 0 0 0 107.5" class="st1"/>
			</g>
		</g>
	</g>
</svg>
