<?xml version="1.0" encoding="UTF-8" standalone="no"?>
<!DOCTYPE svg PUBLIC "-//W3C//DTD SVG 1.1//EN" "http://www.w3.org/Graphics/SVG/1.1/DTD/svg11.dtd">
<!-- Generated by Microsoft Visio, SVG Export PE043A.svg Page-1 -->
<svg xmlns="http://www.w3.org/2000/svg" xmlns:xlink="http://www.w3.org/1999/xlink" xmlns:ev="http://www.w3.org/2001/xml-events"
		width="3.76099in" height="5.54441in" viewBox="0 0 270.791 399.197" xml:space="preserve" color-interpolation-filters="sRGB"
		class="st7">
	<title>PE043A</title>

	<style type="text/css">
	<![CDATA[
		.st1 {fill:none;stroke:#ff0000;stroke-linecap:round;stroke-linejoin:round;stroke-width:0.75}
		.st2 {fill:#ff0000;font-family:Arial Narrow;font-size:0.833336em;font-weight:bold}
		.st3 {fill:none;stroke:none;stroke-linecap:round;stroke-linejoin:round;stroke-width:0.75}
		.st4 {fill:#ff0000;font-family:Arial Narrow;font-size:0.811964em;font-weight:bold}
		.st5 {baseline-shift:33.35%;font-size:0.667em}
		.st6 {stroke:#000000;stroke-linecap:round;stroke-linejoin:round;stroke-width:2.25}
		.st7 {fill:none;fill-rule:evenodd;font-size:12px;overflow:visible;stroke-linecap:square;stroke-miterlimit:3}
	]]>
	</style>

	<g>
		<title>Page-1</title>
		<g id="group1600-1" transform="translate(183.235,-157.127)">
			<title>Sheet.1600</title>
			<g id="shape1555-2" transform="translate(2.14165,0)" display="none">
				<title>Sheet.1555</title>
				<desc>1</desc>
				<rect x="0" y="385.024" width="85.0394" height="14.1732" class="st1"/>
				<text x="40.24" y="395.11" class="st2">1</text>			</g>
			<g id="shape1556-5" transform="translate(-1.59872E-14,-4.47576)" display="none">
				<title>Sheet.1556</title>
				<desc>A</desc>
				<rect x="0" y="385.024" width="13.2348" height="14.1732" class="st3"/>
				<text x="4" y="398.72" class="st4"><tspan class="st5">A</tspan></text>			</g>
		</g>
		<g id="group1616-9" transform="translate(1.125,-1.125)">
			<title>Sheet.1616</title>
			<g id="shape1583-10" transform="translate(170.306,798.298) rotate(179.967)">
				<title>Sheet.1583</title>
				<path d="M0 399.2 L170.08 399.2" class="st6"/>
			</g>
			<g id="shape1584-13" transform="translate(57.3757,-283.561) rotate(0.0980035)">
				<title>Sheet.1584</title>
				<path d="M0 399.2 L56.69 399.2" class="st6"/>
			</g>
			<g id="shape1585-16" transform="translate(0,-170.176)">
				<title>Sheet.1585</title>
				<path d="M0 399.2 L15.25 399.2" class="st6"/>
			</g>
			<g id="shape1586-19" transform="translate(31.1365,-170.176)">
				<title>Sheet.1586</title>
				<path d="M0 399.2 L15.89 399.2" class="st6"/>
			</g>
			<g id="shape1587-22" transform="translate(62.9202,-170.176)">
				<title>Sheet.1587</title>
				<path d="M0 399.2 L15.89 399.2" class="st6"/>
			</g>
			<g id="shape1588-25" transform="translate(94.7039,-170.176)">
				<title>Sheet.1588</title>
				<path d="M0 399.2 L15.89 399.2" class="st6"/>
			</g>
			<g id="shape1589-28" transform="translate(126.482,-170.176)">
				<title>Sheet.1589</title>
				<path d="M0 399.2 L15.25 399.2" class="st6"/>
			</g>
			<g id="shape1590-31" transform="translate(26.9626,-56.7899)">
				<title>Sheet.1590</title>
				<path d="M0 399.2 L16.63 399.2" class="st6"/>
			</g>
			<g id="shape1591-34" transform="translate(59.4829,-56.7899)">
				<title>Sheet.1591</title>
				<path d="M0 399.2 L15.89 399.2" class="st6"/>
			</g>
			<g id="shape1592-37" transform="translate(91.2667,-56.7899)">
				<title>Sheet.1592</title>
				<path d="M0 399.2 L15.89 399.2" class="st6"/>
			</g>
			<g id="shape1593-40" transform="translate(123.05,-56.7899)">
				<title>Sheet.1593</title>
				<path d="M0 399.2 L15.89 399.2" class="st6"/>
			</g>
			<g id="shape1594-43" transform="translate(154.829,-56.7899)">
				<title>Sheet.1594</title>
				<path d="M0 399.2 L15.25 399.2" class="st6"/>
			</g>
			<g id="shape1595-46" transform="translate(-253.587,58.4168) rotate(-44.6507)">
				<title>Sheet.1595</title>
				<path d="M0 399.2 L18.77 399.2" class="st6"/>
			</g>
			<g id="shape1596-49" transform="translate(-227.533,32.6757) rotate(-44.6449)">
				<title>Sheet.1596</title>
				<path d="M0 399.2 L17.83 399.2" class="st6"/>
			</g>
			<g id="shape1597-52" transform="translate(-204.322,10.526) rotate(-45)">
				<title>Sheet.1597</title>
				<path d="M0 399.2 L20.04 399.2" class="st6"/>
			</g>
			<g id="shape1598-55" transform="translate(-176.821,-17.4272) rotate(-44.6449)">
				<title>Sheet.1598</title>
				<path d="M0 399.2 L17.83 399.2" class="st6"/>
			</g>
			<g id="shape1599-58" transform="translate(-151.465,-42.4767) rotate(-44.6448)">
				<title>Sheet.1599</title>
				<path d="M0 399.2 L17.82 399.2" class="st6"/>
			</g>
			<g id="shape1602-61" transform="translate(399.197,173.438) rotate(90)">
				<title>Sheet.1602</title>
				<path d="M0 399.2 L225.76 399.2" class="st6"/>
			</g>
			<g id="shape1603-64" transform="translate(170.306,572.538) rotate(179.967)">
				<title>Sheet.1603</title>
				<path d="M0 399.2 L170.08 399.2" class="st6"/>
			</g>
			<g id="shape1604-67" transform="translate(569.276,173.341) rotate(90)">
				<title>Sheet.1604</title>
				<path d="M0 399.2 L225.76 399.2" class="st6"/>
			</g>
			<g id="shape1605-70" transform="translate(-284.997,-106.089) rotate(-45.5551)">
				<title>Sheet.1605</title>
				<path d="M0 399.2 L80.96 399.2" class="st6"/>
			</g>
			<g id="shape1606-73" transform="translate(454.605,-106.664) rotate(45.4589) scale(-1,1)">
				<title>Sheet.1606</title>
				<path d="M0 399.2 L80.83 399.2" class="st6"/>
			</g>
			<g id="shape1607-76" transform="translate(512.583,2.34697) rotate(90)">
				<title>Sheet.1607</title>
				<path d="M0 399.2 L113.39 399.2" class="st6"/>
			</g>
			<g id="shape1608-79" transform="translate(455.89,2.25) rotate(90)">
				<title>Sheet.1608</title>
				<path d="M0 399.2 L113.39 399.2" class="st6"/>
			</g>
			<g id="shape1609-82" transform="translate(57.3757,-396.947) rotate(0.0980035)">
				<title>Sheet.1609</title>
				<path d="M0 399.2 L56.69 399.2" class="st6"/>
			</g>
		</g>
	</g>
</svg>
