<?xml version="1.0" encoding="UTF-8" standalone="no"?>
<!DOCTYPE svg PUBLIC "-//W3C//DTD SVG 1.1//EN" "http://www.w3.org/Graphics/SVG/1.1/DTD/svg11.dtd">
<!-- Generated by Microsoft Visio, SVG Export PP0011A_Detail.svg Page-1 -->
<svg xmlns="http://www.w3.org/2000/svg" xmlns:xlink="http://www.w3.org/1999/xlink" xmlns:ev="http://www.w3.org/2001/xml-events"
		width="6.75436in" height="4.61537in" viewBox="0 0 486.314 332.306" xml:space="preserve" color-interpolation-filters="sRGB"
		class="st15">
	<title>PP0011A</title>

	<style type="text/css">
	<![CDATA[
		.st1 {fill:none;stroke:#ff0000;stroke-linecap:round;stroke-linejoin:round;stroke-width:0.75}
		.st2 {fill:#ff0000;font-family:Arial Narrow;font-size:0.833336em;font-weight:bold}
		.st3 {fill:none;stroke:none;stroke-linecap:round;stroke-linejoin:round;stroke-width:0.75}
		.st4 {fill:#ff0000;font-family:Arial Narrow;font-size:0.811964em;font-weight:bold}
		.st5 {baseline-shift:33.35%;font-size:0.667em}
		.st6 {fill:#ffffff}
		.st7 {stroke:#000000;stroke-linecap:round;stroke-linejoin:round;stroke-width:0.24}
		.st8 {marker-end:url(#mrkr13-15);stroke:#000000;stroke-linecap:round;stroke-linejoin:round;stroke-width:0.24}
		.st9 {fill:#000000;fill-opacity:1;stroke:#000000;stroke-opacity:1;stroke-width:0.11764705882353}
		.st10 {fill:#ffffff;stroke:none;stroke-linecap:butt;stroke-width:7.2}
		.st11 {fill:#000000;font-family:Calibri;font-size:0.666664em}
		.st12 {fill:none;stroke:#ff0000;stroke-linecap:round;stroke-linejoin:round;stroke-width:2.25}
		.st13 {stroke:#000000;stroke-linecap:round;stroke-linejoin:round;stroke-width:2.25}
		.st14 {fill:none;stroke:#000000;stroke-linecap:round;stroke-linejoin:round;stroke-width:2.25}
		.st15 {fill:none;fill-rule:evenodd;font-size:12px;overflow:visible;stroke-linecap:square;stroke-miterlimit:3}
	]]>
	</style>

	<defs id="Markers">
		<g id="lend13">
			<path d="M 3 1 L 0 0 L 3 -1 L 3 1 " style="stroke:none"/>
		</g>
		<marker id="mrkr13-15" class="st9" refX="-25.5" orient="auto" markerUnits="strokeWidth" overflow="visible">
			<use xlink:href="#lend13" transform="scale(-8.5000000000001,-8.5000000000001) "/>
		</marker>
	</defs>
	<g>
		<title>Page-1</title>
		<g id="group1405-1" transform="translate(215.115,-0.375)">
			<title>Sheet.1405</title>
			<g id="shape1406-2" transform="translate(2.14165,0)">
				<title>Sheet.1406</title>
				<desc>1</desc>
				<rect x="0" y="318.133" width="85.0394" height="14.1732" class="st1"/>
				<text x="40.24" y="328.22" class="st2">1</text>			</g>
			<g id="shape1407-5" transform="translate(0,-4.47576)">
				<title>Sheet.1407</title>
				<desc>A</desc>
				<rect x="0" y="318.133" width="13.2348" height="14.1732" class="st3"/>
				<text x="4" y="331.82" class="st4"><tspan class="st5">A</tspan></text>			</g>
		</g>
		<g id="shape1411-9" transform="translate(146.391,-269.666)">
			<title>Horizontal.1014</title>
			<desc>16mm</desc>
			<path d="M0 304.46 L0 328.31 L0 304.46 ZM226.77 304.46 L226.77 328.4 L226.77 304.46 Z" class="st6"/>
			<path d="M0 304.46 L0 328.31 L0 304.46" class="st7"/>
			<path d="M226.77 304.46 L226.77 328.4 L226.77 304.46" class="st7"/>
			<path d="M113.39 312.46 L6.12 312.46" class="st8"/>
			<path d="M113.39 312.46 L220.65 312.46" class="st8"/>
			<rect x="102.941" y="300.862" width="20.8905" height="9.59985" class="st10"/>
			<text x="102.94" y="308.06" class="st11">16mm</text>		</g>
		<g id="group1419-22" transform="translate(144.321,317.855) rotate(-90)">
			<title>Vertical baseline</title>
			<g id="shape1420-23">
				<title>Sheet.1420</title>
			</g>
			<g id="shape1421-26">
				<title>Sheet.1421</title>
			</g>
			<g id="shape1422-29">
				<title>Sheet.1422</title>
			</g>
			<g id="shape1423-32">
				<title>Sheet.1423</title>
				<desc>14mm</desc>
				<path d="M0 304.46 L0 328.31 L0 304.46 ZM198.43 304.46 L198.43 335.54 L198.43 304.46 Z" class="st6"/>
				<path d="M0 304.46 L0 328.31 L0 304.46" class="st7"/>
				<path d="M198.43 304.46 L198.43 335.54 L198.43 304.46" class="st7"/>
				<path d="M99.21 312.46 L6.12 312.46" class="st8"/>
				<path d="M99.21 312.46 L192.31 312.46" class="st8"/>
				<rect x="88.7673" y="300.862" width="20.8905" height="9.59985" class="st10"/>
				<text x="88.77" y="308.06" class="st11">14mm</text>			</g>
		</g>
		<g id="group1424-44" transform="translate(89.0452,261.162) rotate(-90)">
			<title>Vertical baseline.1424</title>
			<g id="shape1425-45">
				<title>Sheet.1425</title>
			</g>
			<g id="shape1426-48">
				<title>Sheet.1426</title>
			</g>
			<g id="shape1427-51">
				<title>Sheet.1427</title>
			</g>
			<g id="shape1428-54">
				<title>Sheet.1428</title>
				<desc>6mm</desc>
				<path d="M0 304.46 L0 328.31 L0 304.46 ZM85.14 304.46 L85.14 331.89 L85.14 304.46 Z" class="st6"/>
				<path d="M0 304.46 L0 328.31 L0 304.46" class="st7"/>
				<path d="M85.14 304.46 L85.14 331.89 L85.14 304.46" class="st7"/>
				<path d="M42.57 312.46 L6.12 312.46" class="st8"/>
				<path d="M42.57 312.46 L79.02 312.46" class="st8"/>
				<rect x="34.1503" y="300.862" width="16.8357" height="9.59985" class="st10"/>
				<text x="34.15" y="308.06" class="st11">6mm</text>			</g>
		</g>
		<g id="shape1412-66" transform="translate(97.3068,-107.196)">
			<title>Circle</title>
			<path d="M0 325.74 A6.56444 6.56444 0 1 1 13.13 325.74 A6.56444 6.56444 0 1 1 0 325.74 Z" class="st12"/>
		</g>
		<g id="shape1443-68" transform="translate(103.871,-298.013)">
			<title>Horizontal.1443</title>
			<desc>19mm</desc>
			<path d="M0 304.46 L0 328.31 L0 304.46 ZM269.29 304.46 L269.29 328.81 L269.29 304.46 Z" class="st6"/>
			<path d="M0 304.46 L0 328.31 L0 304.46" class="st7"/>
			<path d="M269.29 304.46 L269.29 328.81 L269.29 304.46" class="st7"/>
			<path d="M134.65 312.46 L6.12 312.46" class="st8"/>
			<path d="M134.65 312.46 L263.17 312.46" class="st8"/>
			<rect x="124.2" y="300.862" width="20.8905" height="9.59985" class="st10"/>
			<text x="124.2" y="308.06" class="st11">19mm</text>		</g>
		<g id="group1444-80" transform="translate(103.871,-14.5482)">
			<title>STPC007.209</title>
			<g id="shape1445-81" transform="translate(42.5197,565.4) rotate(180)">
				<title>Sheet.1445</title>
				<path d="M0 332.31 L42.52 332.31" class="st13"/>
			</g>
			<g id="shape1446-84" transform="translate(332.306,204.747) rotate(90)">
				<title>Sheet.1446</title>
				<path d="M0 332.31 L56.69 332.31" class="st13"/>
			</g>
			<g id="shape1447-87" transform="translate(42.5197,0)">
				<title>Sheet.1447</title>
				<path d="M0 133.88 L226.77 190.57 L226.77 275.61 L0 332.31 L0 133.88 L0 133.88 Z" class="st14"/>
			</g>
		</g>
		<g id="group1448-89" transform="translate(-246.86,246.989) rotate(-90)">
			<title>Vertical baseline.1448</title>
			<g id="shape1449-90">
				<title>Sheet.1449</title>
			</g>
			<g id="shape1450-93">
				<title>Sheet.1450</title>
			</g>
			<g id="shape1451-96">
				<title>Sheet.1451</title>
			</g>
			<g id="shape1452-99">
				<title>Sheet.1452</title>
				<desc>4mm</desc>
				<path d="M0 304.46 L0 328.31 L0 304.46 ZM56.14 304.46 L56.14 336.14 L56.14 304.46 Z" class="st6"/>
				<path d="M0 304.46 L0 328.31 L0 304.46" class="st7"/>
				<path d="M56.14 304.46 L56.14 336.14 L56.14 304.46" class="st7"/>
				<path d="M28.07 312.46 L6.12 312.46" class="st8"/>
				<path d="M28.07 312.46 L50.02 312.46" class="st8"/>
				<rect x="19.6526" y="300.862" width="16.8357" height="9.59985" class="st10"/>
				<text x="19.65" y="308.06" class="st11">4mm</text>			</g>
		</g>
	</g>
</svg>
