<?xml version="1.0" encoding="UTF-8" standalone="no"?>
<!DOCTYPE svg PUBLIC "-//W3C//DTD SVG 1.1//EN" "http://www.w3.org/Graphics/SVG/1.1/DTD/svg11.dtd">
<!-- Generated by Microsoft Visio, SVG Export PP008A.svg Page-1 -->
<svg xmlns="http://www.w3.org/2000/svg" xmlns:xlink="http://www.w3.org/1999/xlink" xmlns:ev="http://www.w3.org/2001/xml-events"
		width="4.16511in" height="2.78716in" viewBox="0 0 299.888 200.675" xml:space="preserve" color-interpolation-filters="sRGB"
		class="st3">
	<title>PP008A</title>

	<style type="text/css">
	<![CDATA[
		.st1 {fill:none}
		.st2 {stroke:#000000;stroke-linecap:round;stroke-linejoin:round;stroke-width:2.25}
		.st3 {fill:none;fill-rule:evenodd;font-size:12px;overflow:visible;stroke-linecap:square;stroke-miterlimit:3}
	]]>
	</style>

	<g>
		<title>Page-1</title>
		<g id="group1444-1" transform="translate(1.125,-1.125)">
			<title>STPP008.39</title>
			<g id="shape1445-2" transform="translate(56.6929,-9.66338E-13)">
				<title>Sheet.1445</title>
				<path d="M0 158.16 L0 200.68 L198.43 200.68 L198.43 158.16 L198.43 158.16 L0 158.16 Z" class="st1"/>
				<path d="M0 158.16 L0 200.68 L198.43 200.68 L198.43 158.16 L198.43 158.16" class="st2"/>
			</g>
			<g id="shape1446-5" transform="translate(1.48681E-12,-42.5197)">
				<title>Sheet.1446</title>
				<path d="M99.21 200.68 L0 200.68 L0 101.46 L99.21 101.46 L99.21 101.46 L99.21 200.68 Z" class="st1"/>
				<path d="M99.21 200.68 L0 200.68 L0 101.46 L99.21 101.46 L99.21 101.46" class="st2"/>
			</g>
			<g id="shape1447-8" transform="translate(96.9626,158.156) rotate(-90)">
				<title>Sheet.1447</title>
				<path d="M0 200.68 L155.91 200.68" class="st2"/>
			</g>
			<g id="shape1448-11" transform="translate(299.888,2.25001) rotate(90)">
				<title>Sheet.1448</title>
				<path d="M0 200.68 L155.91 200.68" class="st2"/>
			</g>
			<g id="shape1449-14" transform="translate(99.2126,-42.5197)">
				<title>Sheet.1449</title>
				<path d="M0 200.68 L198.43 200.68" class="st2"/>
			</g>
			<g id="shape1450-17" transform="translate(297.638,202.925) rotate(180)">
				<title>Sheet.1450</title>
				<path d="M0 200.68 L198.43 200.68" class="st2"/>
			</g>
		</g>
	</g>
</svg>
