<?xml version="1.0" encoding="UTF-8" standalone="no"?>
<!DOCTYPE svg PUBLIC "-//W3C//DTD SVG 1.1//EN" "http://www.w3.org/Graphics/SVG/1.1/DTD/svg11.dtd">
<!-- Generated by Microsoft Visio, SVG Export PP006A_Detail.svg Page-1 -->
<svg xmlns="http://www.w3.org/2000/svg" xmlns:xlink="http://www.w3.org/1999/xlink" xmlns:ev="http://www.w3.org/2001/xml-events"
		width="4.99754in" height="4.32527in" viewBox="0 0 359.823 311.42" xml:space="preserve" color-interpolation-filters="sRGB"
		class="st16">
	<title>PP006A</title>

	<style type="text/css">
	<![CDATA[
		.st1 {fill:none;stroke:#ff0000;stroke-linecap:round;stroke-linejoin:round;stroke-width:0.75}
		.st2 {fill:#ff0000;font-family:Arial Narrow;font-size:0.833336em;font-weight:bold}
		.st3 {fill:none;stroke:none;stroke-linecap:round;stroke-linejoin:round;stroke-width:0.75}
		.st4 {fill:#ff0000;font-family:Arial Narrow;font-size:0.811964em;font-weight:bold}
		.st5 {baseline-shift:33.35%;font-size:0.667em}
		.st6 {fill:none;stroke:#000000;stroke-linecap:round;stroke-linejoin:round;stroke-width:2.25}
		.st7 {stroke:#000000;stroke-linecap:round;stroke-linejoin:round;stroke-width:2.25}
		.st8 {fill:#ffffff}
		.st9 {stroke:#000000;stroke-linecap:round;stroke-linejoin:round;stroke-width:0.24}
		.st10 {marker-end:url(#mrkr13-20);stroke:#000000;stroke-linecap:round;stroke-linejoin:round;stroke-width:0.24}
		.st11 {fill:#000000;fill-opacity:1;stroke:#000000;stroke-opacity:1;stroke-width:0.11764705882353}
		.st12 {fill:#ffffff;stroke:none;stroke-linecap:butt;stroke-width:7.2}
		.st13 {fill:#000000;font-family:Calibri;font-size:0.666664em}
		.st14 {stroke:#ff0000;stroke-linecap:round;stroke-linejoin:round;stroke-width:1.5}
		.st15 {fill:none;stroke:#ff0000;stroke-linecap:round;stroke-linejoin:round;stroke-width:2.25}
		.st16 {fill:none;fill-rule:evenodd;font-size:12px;overflow:visible;stroke-linecap:square;stroke-miterlimit:3}
	]]>
	</style>

	<defs id="Markers">
		<g id="lend13">
			<path d="M 3 1 L 0 0 L 3 -1 L 3 1 " style="stroke:none"/>
		</g>
		<marker id="mrkr13-20" class="st11" refX="-25.5" orient="auto" markerUnits="strokeWidth" overflow="visible">
			<use xlink:href="#lend13" transform="scale(-8.5000000000001,-8.5000000000001) "/>
		</marker>
	</defs>
	<g>
		<title>Page-1</title>
		<g id="group1405-1" transform="translate(76.5611,-0.375)">
			<title>Sheet.1405</title>
			<g id="shape1406-2" transform="translate(2.14165,0)">
				<title>Sheet.1406</title>
				<desc>1</desc>
				<rect x="0" y="297.246" width="85.0394" height="14.1732" class="st1"/>
				<text x="40.24" y="307.33" class="st2">1</text>			</g>
			<g id="shape1407-5" transform="translate(0,-4.47576)">
				<title>Sheet.1407</title>
				<desc>A</desc>
				<rect x="0" y="297.246" width="13.2348" height="14.1732" class="st3"/>
				<text x="4" y="310.94" class="st4"><tspan class="st5">A</tspan></text>			</g>
		</g>
		<g id="shape1408-9" transform="translate(7.83662,-57.0679)">
			<title>Circle.1009</title>
			<path d="M0 198.03 A113.386 113.386 0 0 1 226.77 198.03 A113.386 113.386 0 1 1 0 198.03 Z" class="st6"/>
		</g>
		<g id="shape1410-11" transform="translate(8.58257,-28.8967)">
			<title>Sheet.1410</title>
			<path d="M32.45 250.05 L0 311.42 L226.03 311.42 L192.83 250.05" class="st7"/>
		</g>
		<g id="shape1411-14" transform="translate(7.83661,-277.126)">
			<title>Horizontal.1014</title>
			<desc>16mm</desc>
			<path d="M0 283.58 L0 307.42 L0 283.58 ZM226.77 283.58 L226.77 307.52 L226.77 283.58 Z" class="st8"/>
			<path d="M0 283.58 L0 307.42 L0 283.58" class="st9"/>
			<path d="M226.77 283.58 L226.77 307.52 L226.77 283.58" class="st9"/>
			<path d="M113.39 291.58 L6.12 291.58" class="st10"/>
			<path d="M113.39 291.58 L220.65 291.58" class="st10"/>
			<rect x="102.941" y="279.975" width="20.8905" height="9.59985" class="st12"/>
			<text x="102.94" y="287.18" class="st13">16mm</text>		</g>
		<g id="group1413-27" transform="translate(0.75,-163.367)">
			<title>Sheet.1413</title>
			<g id="shape1414-28" transform="translate(234.38,517.453) rotate(135)">
				<title>Sheet.1414</title>
				<path d="M0 311.42 L20.04 311.42" class="st14"/>
			</g>
			<g id="shape1415-31" transform="translate(-206.033,531.627) rotate(-135)">
				<title>Sheet.1415</title>
				<path d="M0 311.42 L20.04 311.42" class="st14"/>
			</g>
		</g>
		<g id="group1416-34" transform="translate(114.136,-276.753)">
			<title>Sheet.1416</title>
			<g id="shape1417-35" transform="translate(234.38,517.453) rotate(135)">
				<title>Sheet.1417</title>
				<path d="M0 311.42 L20.04 311.42" class="st14"/>
			</g>
			<g id="shape1418-38" transform="translate(-206.033,531.627) rotate(-135)">
				<title>Sheet.1418</title>
				<path d="M0 311.42 L20.04 311.42" class="st14"/>
			</g>
		</g>
		<g id="group1419-41" transform="translate(-11.4866,254.176) rotate(-90)">
			<title>Vertical baseline</title>
			<g id="shape1420-42">
				<title>Sheet.1420</title>
			</g>
			<g id="shape1421-45">
				<title>Sheet.1421</title>
			</g>
			<g id="shape1422-48">
				<title>Sheet.1422</title>
			</g>
			<g id="shape1423-51">
				<title>Sheet.1423</title>
				<desc>16mm</desc>
				<path d="M0 283.58 L0 307.42 L0 283.58 ZM226.77 283.58 L226.77 307.42 L226.77 283.58 Z" class="st8"/>
				<path d="M0 283.58 L0 307.42 L0 283.58" class="st9"/>
				<path d="M226.77 283.58 L226.77 307.42 L226.77 283.58" class="st9"/>
				<path d="M113.39 291.58 L6.12 291.58" class="st10"/>
				<path d="M113.39 291.58 L220.65 291.58" class="st10"/>
				<rect x="102.941" y="279.975" width="20.8905" height="9.59985" class="st12"/>
				<text x="102.94" y="287.18" class="st13">16mm</text>			</g>
		</g>
		<g id="group1424-63" transform="translate(45.9523,282.523) rotate(-90)">
			<title>Vertical baseline.1424</title>
			<g id="shape1425-64">
				<title>Sheet.1425</title>
			</g>
			<g id="shape1426-67">
				<title>Sheet.1426</title>
			</g>
			<g id="shape1427-70">
				<title>Sheet.1427</title>
			</g>
			<g id="shape1428-73">
				<title>Sheet.1428</title>
				<desc>18mm</desc>
				<path d="M0 283.58 L0 307.42 L0 283.58 ZM255.12 283.58 L255.12 307.42 L255.12 283.58 Z" class="st8"/>
				<path d="M0 283.58 L0 307.42 L0 283.58" class="st9"/>
				<path d="M255.12 283.58 L255.12 307.42 L255.12 283.58" class="st9"/>
				<path d="M127.56 291.58 L6.12 291.58" class="st10"/>
				<path d="M127.56 291.58 L249 291.58" class="st10"/>
				<rect x="117.114" y="279.975" width="20.8905" height="9.59985" class="st12"/>
				<text x="117.11" y="287.18" class="st13">18mm</text>			</g>
		</g>
		<g id="shape1412-85" transform="translate(114.658,-163.889)">
			<title>Circle</title>
			<path d="M0 304.86 A6.56444 6.56444 0 1 1 13.13 304.86 A6.56444 6.56444 0 1 1 0 304.86 Z" class="st15"/>
		</g>
		<g id="shape1429-87" transform="translate(64.2097,-57.2431)">
			<title>Sheet.1429</title>
			<ellipse cx="56.6929" cy="254.727" rx="56.6929" ry="56.6929" class="st6"/>
		</g>
	</g>
</svg>
