<?xml version="1.0" encoding="UTF-8" standalone="no"?>
<!DOCTYPE svg PUBLIC "-//W3C//DTD SVG 1.1//EN" "http://www.w3.org/Graphics/SVG/1.1/DTD/svg11.dtd">
<!-- Generated by Microsoft Visio, SVG Export PP005A.svg Page-1 -->
<svg xmlns="http://www.w3.org/2000/svg" xmlns:xlink="http://www.w3.org/1999/xlink" xmlns:ev="http://www.w3.org/2001/xml-events"
		width="3.18086in" height="3.57212in" viewBox="0 0 229.022 257.193" xml:space="preserve" color-interpolation-filters="sRGB"
		class="st4">
	<title>PP005A</title>

	<style type="text/css">
	<![CDATA[
		.st1 {fill:none;stroke:#000000;stroke-linecap:round;stroke-linejoin:round;stroke-width:2.25}
		.st2 {stroke:#000000;stroke-linecap:round;stroke-linejoin:round;stroke-width:2.25}
		.st3 {fill:none}
		.st4 {fill:none;fill-rule:evenodd;font-size:12px;overflow:visible;stroke-linecap:square;stroke-miterlimit:3}
	]]>
	</style>

	<g>
		<title>Page-1</title>
		<g id="shape1408-1" transform="translate(1.125,-29.2963)">
			<title>Circle.1009</title>
			<path d="M0 143.81 A113.386 113.386 0 0 1 226.77 143.81 A113.386 113.386 0 1 1 0 143.81 Z" class="st1"/>
		</g>
		<g id="shape1410-3" transform="translate(1.87096,-1.125)">
			<title>Sheet.1410</title>
			<path d="M32.45 195.82 L0 257.19 L226.03 257.19 L192.83 195.82" class="st2"/>
		</g>
		<g id="group1436-6" transform="translate(1.49521,-47.7216)">
			<title>Sheet.1436</title>
			<g id="shape1429-7" transform="translate(153.236,-99.1147)">
				<title>Sheet.1429</title>
				<path d="M0 257.19 L56.41 200.78 L56.41 200.78 L0 257.19 Z" class="st3"/>
				<path d="M0 257.19 L56.41 200.78 L56.41 200.78" class="st2"/>
			</g>
			<g id="shape1430-10" transform="translate(16.9559,-98.8148)">
				<title>Sheet.1430</title>
				<path d="M56.11 257.19 L0 200.48 L0 200.48 L56.11 257.19 Z" class="st3"/>
				<path d="M56.11 257.19 L0 200.48 L0 200.48" class="st2"/>
			</g>
			<g id="shape1431-13" transform="translate(153.236,-0.310913)">
				<title>Sheet.1431</title>
				<path d="M0 238.26 L18.85 257.19 L18.85 257.19 L0 238.26 Z" class="st3"/>
				<path d="M0 238.26 L18.85 257.19 L18.85 257.19" class="st2"/>
			</g>
			<g id="shape1432-16" transform="translate(54.0545,0)">
				<title>Sheet.1432</title>
				<path d="M19.31 238.92 L0 257.19 L0 257.19 L19.31 238.92 Z" class="st3"/>
				<path d="M19.31 238.92 L0 257.19 L0 257.19" class="st2"/>
			</g>
			<g id="shape1433-19" transform="translate(56.4042,-2.27722)">
				<title>Sheet.1433</title>
				<ellipse cx="56.4085" cy="200.784" rx="56.4085" ry="56.4085" class="st1"/>
			</g>
			<g id="shape1434-21" transform="translate(225.634,-96.3053)">
				<title>Sheet.1434</title>
			</g>
			<g id="shape1435-22" transform="translate(1.27898E-13,-96.3053)">
				<title>Sheet.1435</title>
			</g>
		</g>
	</g>
</svg>
