<?xml version="1.0" encoding="UTF-8" standalone="no"?>
<!DOCTYPE svg PUBLIC "-//W3C//DTD SVG 1.1//EN" "http://www.w3.org/Graphics/SVG/1.1/DTD/svg11.dtd">
<!-- Generated by Microsoft Visio, SVG Export PP003A.svg Page-1 -->
<svg xmlns="http://www.w3.org/2000/svg" xmlns:xlink="http://www.w3.org/1999/xlink" xmlns:ev="http://www.w3.org/2001/xml-events"
		width="3.19122in" height="3.57872in" viewBox="0 0 229.768 257.668" xml:space="preserve" color-interpolation-filters="sRGB"
		class="st3">
	<title>PP003A</title>

	<style type="text/css">
	<![CDATA[
		.st1 {fill:#ffffff;stroke:#000000;stroke-linecap:round;stroke-linejoin:round;stroke-width:2.25}
		.st2 {stroke:#000000;stroke-linecap:round;stroke-linejoin:round;stroke-width:2.25}
		.st3 {fill:none;fill-rule:evenodd;font-size:12px;overflow:visible;stroke-linecap:square;stroke-miterlimit:3}
	]]>
	</style>

	<g>
		<title>Page-1</title>
		<g id="shape1408-1" transform="translate(1.125,-29.0251)">
			<title>Circle.1009</title>
			<path d="M0 143.91 A113.759 113.759 0 0 1 227.52 143.91 A113.759 113.759 0 1 1 0 143.91 Z" class="st1"/>
		</g>
		<g id="shape1409-3" transform="translate(58.1909,-143.157)">
			<title>Circle.1014</title>
			<path d="M0 200.97 A56.6929 56.6929 0 0 1 113.39 200.97 A56.6929 56.6929 0 1 1 0 200.97 Z" class="st1"/>
		</g>
		<g id="shape1410-5" transform="translate(58.1909,-29.0251)">
			<title>Circle.1015</title>
			<path d="M0 200.97 A56.6929 56.6929 0 0 1 113.39 200.97 A56.6929 56.6929 0 1 1 0 200.97 Z" class="st1"/>
		</g>
		<g id="shape1411-7" transform="translate(2.6169,-1.125)">
			<title>Sheet.1411</title>
			<path d="M32.45 196.57 L0 257.67 L226.03 257.67 L192.83 196.57" class="st2"/>
		</g>
	</g>
</svg>
