<?xml version="1.0" encoding="UTF-8" standalone="no"?>
<!DOCTYPE svg PUBLIC "-//W3C//DTD SVG 1.1//EN" "http://www.w3.org/Graphics/SVG/1.1/DTD/svg11.dtd">
<!-- Generated by Microsoft Visio, SVG Export PP007A_Detail.svg Page-1 -->
<svg xmlns="http://www.w3.org/2000/svg" xmlns:xlink="http://www.w3.org/1999/xlink" xmlns:ev="http://www.w3.org/2001/xml-events"
		width="4.99754in" height="4.71197in" viewBox="0 0 359.823 339.262" xml:space="preserve" color-interpolation-filters="sRGB"
		class="st17">
	<title>PP007A</title>

	<style type="text/css">
	<![CDATA[
		.st1 {fill:none;stroke:#ff0000;stroke-linecap:round;stroke-linejoin:round;stroke-width:0.75}
		.st2 {fill:#ff0000;font-family:Arial Narrow;font-size:0.833336em;font-weight:bold}
		.st3 {fill:none;stroke:none;stroke-linecap:round;stroke-linejoin:round;stroke-width:0.75}
		.st4 {fill:#ff0000;font-family:Arial Narrow;font-size:0.811964em;font-weight:bold}
		.st5 {baseline-shift:33.35%;font-size:0.667em}
		.st6 {stroke:#000000;stroke-linecap:round;stroke-linejoin:round;stroke-width:2.25}
		.st7 {fill:#ffffff}
		.st8 {stroke:#000000;stroke-linecap:round;stroke-linejoin:round;stroke-width:0.24}
		.st9 {marker-end:url(#mrkr13-18);stroke:#000000;stroke-linecap:round;stroke-linejoin:round;stroke-width:0.24}
		.st10 {fill:#000000;fill-opacity:1;stroke:#000000;stroke-opacity:1;stroke-width:0.11764705882353}
		.st11 {fill:#ffffff;stroke:none;stroke-linecap:butt;stroke-width:7.2}
		.st12 {fill:#000000;font-family:Calibri;font-size:0.666664em}
		.st13 {stroke:#ff0000;stroke-linecap:round;stroke-linejoin:round;stroke-width:1.5}
		.st14 {fill:none;stroke:#ff0000;stroke-linecap:round;stroke-linejoin:round;stroke-width:2.25}
		.st15 {fill:none;stroke:#000000;stroke-linecap:round;stroke-linejoin:round;stroke-width:2.25}
		.st16 {fill:none}
		.st17 {fill:none;fill-rule:evenodd;font-size:12px;overflow:visible;stroke-linecap:square;stroke-miterlimit:3}
	]]>
	</style>

	<defs id="Markers">
		<g id="lend13">
			<path d="M 3 1 L 0 0 L 3 -1 L 3 1 " style="stroke:none"/>
		</g>
		<marker id="mrkr13-18" class="st10" refX="-25.5" orient="auto" markerUnits="strokeWidth" overflow="visible">
			<use xlink:href="#lend13" transform="scale(-8.5000000000001,-8.5000000000001) "/>
		</marker>
	</defs>
	<g>
		<title>Page-1</title>
		<g id="group1405-1" transform="translate(76.5611,-0.375)">
			<title>Sheet.1405</title>
			<g id="shape1406-2" transform="translate(2.14165,0)">
				<title>Sheet.1406</title>
				<desc>1</desc>
				<rect x="0" y="325.089" width="85.0394" height="14.1732" class="st1"/>
				<text x="40.24" y="335.18" class="st2">1</text>			</g>
			<g id="shape1407-5" transform="translate(0,-4.47576)">
				<title>Sheet.1407</title>
				<desc>A</desc>
				<rect x="0" y="325.089" width="13.2348" height="14.1732" class="st3"/>
				<text x="4" y="338.78" class="st4"><tspan class="st5">A</tspan></text>			</g>
		</g>
		<g id="shape1410-9" transform="translate(8.58257,-28.8967)">
			<title>Sheet.1410</title>
			<path d="M32.45 277.89 L0 339.26 L226.03 339.26 L192.83 277.89" class="st6"/>
		</g>
		<g id="shape1411-12" transform="translate(7.83661,-277.126)">
			<title>Horizontal.1014</title>
			<desc>16mm</desc>
			<path d="M0 311.42 L0 335.26 L0 311.42 ZM226.77 311.42 L226.77 335.36 L226.77 311.42 Z" class="st7"/>
			<path d="M0 311.42 L0 335.26 L0 311.42" class="st8"/>
			<path d="M226.77 311.42 L226.77 335.36 L226.77 311.42" class="st8"/>
			<path d="M113.39 319.42 L6.12 319.42" class="st9"/>
			<path d="M113.39 319.42 L220.65 319.42" class="st9"/>
			<rect x="102.941" y="307.818" width="20.8905" height="9.59985" class="st11"/>
			<text x="102.94" y="315.02" class="st12">16mm</text>		</g>
		<g id="group1413-25" transform="translate(0.75,-163.367)">
			<title>Sheet.1413</title>
			<g id="shape1414-26" transform="translate(254.068,564.983) rotate(135)">
				<title>Sheet.1414</title>
				<path d="M0 339.26 L20.04 339.26" class="st13"/>
			</g>
			<g id="shape1415-29" transform="translate(-225.721,579.157) rotate(-135)">
				<title>Sheet.1415</title>
				<path d="M0 339.26 L20.04 339.26" class="st13"/>
			</g>
		</g>
		<g id="group1416-32" transform="translate(114.136,-276.753)">
			<title>Sheet.1416</title>
			<g id="shape1417-33" transform="translate(254.068,564.983) rotate(135)">
				<title>Sheet.1417</title>
				<path d="M0 339.26 L20.04 339.26" class="st13"/>
			</g>
			<g id="shape1418-36" transform="translate(-225.721,579.157) rotate(-135)">
				<title>Sheet.1418</title>
				<path d="M0 339.26 L20.04 339.26" class="st13"/>
			</g>
		</g>
		<g id="group1419-39" transform="translate(-39.3291,282.019) rotate(-90)">
			<title>Vertical baseline</title>
			<g id="shape1420-40">
				<title>Sheet.1420</title>
			</g>
			<g id="shape1421-43">
				<title>Sheet.1421</title>
			</g>
			<g id="shape1422-46">
				<title>Sheet.1422</title>
			</g>
			<g id="shape1423-49">
				<title>Sheet.1423</title>
				<desc>16mm</desc>
				<path d="M0 311.42 L0 335.26 L0 311.42 ZM226.77 311.42 L226.77 335.26 L226.77 311.42 Z" class="st7"/>
				<path d="M0 311.42 L0 335.26 L0 311.42" class="st8"/>
				<path d="M226.77 311.42 L226.77 335.26 L226.77 311.42" class="st8"/>
				<path d="M113.39 319.42 L6.12 319.42" class="st9"/>
				<path d="M113.39 319.42 L220.65 319.42" class="st9"/>
				<rect x="102.941" y="307.818" width="20.8905" height="9.59985" class="st11"/>
				<text x="102.94" y="315.02" class="st12">16mm</text>			</g>
		</g>
		<g id="group1424-61" transform="translate(18.1097,310.365) rotate(-90)">
			<title>Vertical baseline.1424</title>
			<g id="shape1425-62">
				<title>Sheet.1425</title>
			</g>
			<g id="shape1426-65">
				<title>Sheet.1426</title>
			</g>
			<g id="shape1427-68">
				<title>Sheet.1427</title>
			</g>
			<g id="shape1428-71">
				<title>Sheet.1428</title>
				<desc>18mm</desc>
				<path d="M0 311.42 L0 335.26 L0 311.42 ZM255.12 311.42 L255.12 335.26 L255.12 311.42 Z" class="st7"/>
				<path d="M0 311.42 L0 335.26 L0 311.42" class="st8"/>
				<path d="M255.12 311.42 L255.12 335.26 L255.12 311.42" class="st8"/>
				<path d="M127.56 319.42 L6.12 319.42" class="st9"/>
				<path d="M127.56 319.42 L249 319.42" class="st9"/>
				<rect x="117.114" y="307.818" width="20.8905" height="9.59985" class="st11"/>
				<text x="117.11" y="315.02" class="st12">18mm</text>			</g>
		</g>
		<g id="shape1412-83" transform="translate(113.912,-163.889)">
			<title>Circle</title>
			<path d="M0 332.7 A6.56444 6.56444 0 1 1 13.13 332.7 A6.56444 6.56444 0 1 1 0 332.7 Z" class="st14"/>
		</g>
		<g id="shape1438-85" transform="translate(105.568,-155.241)">
			<title>Sheet.1438</title>
			<ellipse cx="14.7541" cy="324.508" rx="14.7541" ry="14.7541" class="st15"/>
		</g>
		<g id="shape1439-87" transform="translate(219.315,-228.428)">
			<title>Sheet.1439</title>
			<path d="M0 339.26 L42.57 339.26" class="st6"/>
		</g>
		<g id="shape1440-90" transform="translate(-77.3746,110.842) rotate(-90)">
			<title>Sheet.1440</title>
			<path d="M0 339.26 L55.44 339.26" class="st6"/>
		</g>
		<g id="shape1441-93" transform="translate(261.887,394.661) rotate(180)">
			<title>Sheet.1441</title>
			<path d="M0 339.26 L138.59 339.26" class="st6"/>
		</g>
		<g id="shape1442-96" transform="translate(10.5022,-58.8868)">
			<title>Sheet.1442</title>
			<path d="M112.88 114.13 A113.196 113.196 -180 1 0 210.91 170.73 L112.88 114.13 Z" class="st16"/>
			<path d="M112.88 114.13 A113.196 113.196 -180 1 0 210.91 170.73" class="st6"/>
		</g>
		<g id="shape1443-99" transform="translate(7.83661,-304.968)">
			<title>Horizontal.1443</title>
			<desc>18mm</desc>
			<path d="M0 311.42 L0 335.26 L0 311.42 ZM254.8 311.42 L254.8 333.54 L254.8 311.42 Z" class="st7"/>
			<path d="M0 311.42 L0 335.26 L0 311.42" class="st8"/>
			<path d="M254.8 311.42 L254.8 333.54 L254.8 311.42" class="st8"/>
			<path d="M127.4 319.42 L6.12 319.42" class="st9"/>
			<path d="M127.4 319.42 L248.68 319.42" class="st9"/>
			<rect x="116.954" y="307.818" width="20.8905" height="9.59985" class="st11"/>
			<text x="116.95" y="315.02" class="st12">18mm</text>		</g>
	</g>
</svg>
