<?xml version="1.0" encoding="UTF-8" standalone="no"?>
<!DOCTYPE svg PUBLIC "-//W3C//DTD SVG 1.1//EN" "http://www.w3.org/Graphics/SVG/1.1/DTD/svg11.dtd">
<!-- Generated by Microsoft Visio, SVG Export PP007A.svg Page-1 -->
<svg xmlns="http://www.w3.org/2000/svg" xmlns:xlink="http://www.w3.org/1999/xlink" xmlns:ev="http://www.w3.org/2001/xml-events"
		width="3.54937in" height="3.57456in" viewBox="0 0 255.555 257.368" xml:space="preserve" color-interpolation-filters="sRGB"
		class="st4">
	<title>PP007A</title>

	<style type="text/css">
	<![CDATA[
		.st1 {stroke:#000000;stroke-linecap:round;stroke-linejoin:round;stroke-width:2.25}
		.st2 {fill:none;stroke:#000000;stroke-linecap:round;stroke-linejoin:round;stroke-width:2.25}
		.st3 {fill:none}
		.st4 {fill:none;fill-rule:evenodd;font-size:12px;overflow:visible;stroke-linecap:square;stroke-miterlimit:3}
	]]>
	</style>

	<g>
		<title>Page-1</title>
		<g id="shape1410-1" transform="translate(1.125,-1.125)">
			<title>Sheet.1410</title>
			<path d="M32.45 196 L0 257.37 L226.03 257.37 L192.83 196" class="st1"/>
		</g>
		<g id="shape1438-4" transform="translate(98.1101,-127.47)">
			<title>Sheet.1438</title>
			<ellipse cx="14.7541" cy="242.614" rx="14.7541" ry="14.7541" class="st2"/>
		</g>
		<g id="shape1439-6" transform="translate(211.858,-200.656)">
			<title>Sheet.1439</title>
			<path d="M0 257.37 L42.57 257.37" class="st1"/>
		</g>
		<g id="shape1440-9" transform="translate(-2.93825,56.7201) rotate(-90)">
			<title>Sheet.1440</title>
			<path d="M0 257.37 L55.44 257.37" class="st1"/>
		</g>
		<g id="shape1441-12" transform="translate(254.43,258.645) rotate(180)">
			<title>Sheet.1441</title>
			<path d="M0 257.37 L138.59 257.37" class="st1"/>
		</g>
		<g id="shape1442-15" transform="translate(3.0446,-31.1152)">
			<title>Sheet.1442</title>
			<path d="M112.88 32.24 A113.196 113.196 -180 1 0 210.91 88.84 L112.88 32.24 Z" class="st3"/>
			<path d="M112.88 32.24 A113.196 113.196 -180 1 0 210.91 88.84" class="st1"/>
		</g>
	</g>
</svg>
