<?xml version="1.0" encoding="UTF-8" standalone="no"?>
<!DOCTYPE svg PUBLIC "-//W3C//DTD SVG 1.1//EN" "http://www.w3.org/Graphics/SVG/1.1/DTD/svg11.dtd">
<!-- Generated by Microsoft Visio, SVG Export PP008A_Detail.svg Page-1 -->
<svg xmlns="http://www.w3.org/2000/svg" xmlns:xlink="http://www.w3.org/1999/xlink" xmlns:ev="http://www.w3.org/2001/xml-events"
		width="6.11618in" height="4.58825in" viewBox="0 0 440.365 330.354" xml:space="preserve" color-interpolation-filters="sRGB"
		class="st15">
	<title>PP008A</title>

	<style type="text/css">
	<![CDATA[
		.st1 {fill:none;stroke:#ff0000;stroke-linecap:round;stroke-linejoin:round;stroke-width:0.75}
		.st2 {fill:#ff0000;font-family:Arial Narrow;font-size:0.833336em;font-weight:bold}
		.st3 {fill:none;stroke:none;stroke-linecap:round;stroke-linejoin:round;stroke-width:0.75}
		.st4 {fill:#ff0000;font-family:Arial Narrow;font-size:0.811964em;font-weight:bold}
		.st5 {baseline-shift:33.35%;font-size:0.667em}
		.st6 {fill:#ffffff}
		.st7 {stroke:#000000;stroke-linecap:round;stroke-linejoin:round;stroke-width:0.24}
		.st8 {marker-end:url(#mrkr13-15);stroke:#000000;stroke-linecap:round;stroke-linejoin:round;stroke-width:0.24}
		.st9 {fill:#000000;fill-opacity:1;stroke:#000000;stroke-opacity:1;stroke-width:0.11764705882353}
		.st10 {fill:#ffffff;stroke:none;stroke-linecap:butt;stroke-width:7.2}
		.st11 {fill:#000000;font-family:Calibri;font-size:0.666664em}
		.st12 {fill:none;stroke:#ff0000;stroke-linecap:round;stroke-linejoin:round;stroke-width:2.25}
		.st13 {fill:none}
		.st14 {stroke:#000000;stroke-linecap:round;stroke-linejoin:round;stroke-width:2.25}
		.st15 {fill:none;fill-rule:evenodd;font-size:12px;overflow:visible;stroke-linecap:square;stroke-miterlimit:3}
	]]>
	</style>

	<defs id="Markers">
		<g id="lend13">
			<path d="M 3 1 L 0 0 L 3 -1 L 3 1 " style="stroke:none"/>
		</g>
		<marker id="mrkr13-15" class="st9" refX="-25.5" orient="auto" markerUnits="strokeWidth" overflow="visible">
			<use xlink:href="#lend13" transform="scale(-8.5000000000001,-8.5000000000001) "/>
		</marker>
	</defs>
	<g>
		<title>Page-1</title>
		<g id="group1405-1" transform="translate(118.766,-49.4465)">
			<title>Sheet.1405</title>
			<g id="shape1406-2" transform="translate(2.14165,5.68434E-14)">
				<title>Sheet.1406</title>
				<desc>1</desc>
				<rect x="0" y="316.181" width="85.0394" height="14.1732" class="st1"/>
				<text x="40.24" y="326.27" class="st2">1</text>			</g>
			<g id="shape1407-5" transform="translate(0,-4.47576)">
				<title>Sheet.1407</title>
				<desc>A</desc>
				<rect x="0" y="316.181" width="13.2348" height="14.1732" class="st3"/>
				<text x="4" y="329.87" class="st4"><tspan class="st5">A</tspan></text>			</g>
		</g>
		<g id="shape1411-9" transform="translate(105.664,-276.218)">
			<title>Horizontal.1014</title>
			<desc>14mm</desc>
			<path d="M0 302.51 L0 326.35 L0 302.51 ZM198.43 302.51 L198.43 326.35 L198.43 302.51 Z" class="st6"/>
			<path d="M0 302.51 L0 326.35 L0 302.51" class="st7"/>
			<path d="M198.43 302.51 L198.43 326.35 L198.43 302.51" class="st7"/>
			<path d="M99.21 310.51 L6.12 310.51" class="st8"/>
			<path d="M99.21 310.51 L192.31 310.51" class="st8"/>
			<rect x="88.7673" y="298.91" width="20.8905" height="9.59985" class="st10"/>
			<text x="88.77" y="306.11" class="st11">14mm</text>		</g>
		<g id="group1419-22" transform="translate(104.278,252.755) rotate(-90)">
			<title>Vertical baseline</title>
			<g id="shape1420-23">
				<title>Sheet.1420</title>
			</g>
			<g id="shape1421-26">
				<title>Sheet.1421</title>
			</g>
			<g id="shape1422-29">
				<title>Sheet.1422</title>
			</g>
			<g id="shape1423-32">
				<title>Sheet.1423</title>
				<desc>14mm</desc>
				<path d="M0 302.51 L0 326.35 L0 302.51 ZM198.52 302.51 L198.52 329.64 L198.52 302.51 Z" class="st6"/>
				<path d="M0 302.51 L0 326.35 L0 302.51" class="st7"/>
				<path d="M198.52 302.51 L198.52 329.64 L198.52 302.51" class="st7"/>
				<path d="M99.26 310.51 L6.12 310.51" class="st8"/>
				<path d="M99.26 310.51 L192.4 310.51" class="st8"/>
				<rect x="88.8158" y="298.91" width="20.8905" height="9.59985" class="st10"/>
				<text x="88.82" y="306.11" class="st11">14mm</text>			</g>
		</g>
		<g id="group1424-44" transform="translate(36.0968,210.139) rotate(-90)">
			<title>Vertical baseline.1424</title>
			<g id="shape1425-45">
				<title>Sheet.1425</title>
			</g>
			<g id="shape1426-48">
				<title>Sheet.1426</title>
			</g>
			<g id="shape1427-51">
				<title>Sheet.1427</title>
			</g>
			<g id="shape1428-54">
				<title>Sheet.1428</title>
				<desc>11mm</desc>
				<path d="M0 302.51 L0 326.35 L0 302.51 ZM156 302.51 L156 330.38 L156 302.51 Z" class="st6"/>
				<path d="M0 302.51 L0 326.35 L0 302.51" class="st7"/>
				<path d="M156 302.51 L156 330.38 L156 302.51" class="st7"/>
				<path d="M78 310.51 L6.12 310.51" class="st8"/>
				<path d="M78 310.51 L149.88 310.51" class="st8"/>
				<rect x="67.556" y="298.91" width="20.8905" height="9.59985" class="st10"/>
				<text x="67.56" y="306.11" class="st11">11mm</text>			</g>
		</g>
		<g id="shape1412-66" transform="translate(56.5795,-71.2285)">
			<title>Circle</title>
			<path d="M0 323.79 A6.56444 6.56444 0 1 1 13.13 323.79 A6.56444 6.56444 0 1 1 0 323.79 Z" class="st12"/>
		</g>
		<g id="shape1443-68" transform="translate(6.45105,-296.061)">
			<title>Horizontal.1443</title>
			<desc>21mm</desc>
			<path d="M0 302.51 L0 326.35 L0 302.51 ZM297.64 302.51 L297.64 317.85 L297.64 302.51 Z" class="st6"/>
			<path d="M0 302.51 L0 326.35 L0 302.51" class="st7"/>
			<path d="M297.64 302.51 L297.64 317.85 L297.64 302.51" class="st7"/>
			<path d="M148.82 310.51 L6.12 310.51" class="st8"/>
			<path d="M148.82 310.51 L291.52 310.51" class="st8"/>
			<rect x="138.374" y="298.91" width="20.8905" height="9.59985" class="st10"/>
			<text x="138.37" y="306.11" class="st11">21mm</text>		</g>
		<g id="group1444-80" transform="translate(6.45106,-77.7929)">
			<title>STPP008.39</title>
			<g id="shape1445-81" transform="translate(56.6929,-9.09495E-13)">
				<title>Sheet.1445</title>
				<path d="M0 287.83 L0 330.35 L198.43 330.35 L198.43 287.83 L198.43 287.83 L0 287.83 Z" class="st13"/>
				<path d="M0 287.83 L0 330.35 L198.43 330.35 L198.43 287.83 L198.43 287.83" class="st14"/>
			</g>
			<g id="shape1446-84" transform="translate(1.48681E-12,-42.5197)">
				<title>Sheet.1446</title>
				<path d="M99.21 330.35 L0 330.35 L0 231.14 L99.21 231.14 L99.21 231.14 L99.21 330.35 Z" class="st13"/>
				<path d="M99.21 330.35 L0 330.35 L0 231.14 L99.21 231.14 L99.21 231.14" class="st14"/>
			</g>
			<g id="shape1447-87" transform="translate(-32.7164,287.835) rotate(-90)">
				<title>Sheet.1447</title>
				<path d="M0 330.35 L155.91 330.35" class="st14"/>
			</g>
			<g id="shape1448-90" transform="translate(429.567,131.929) rotate(90)">
				<title>Sheet.1448</title>
				<path d="M0 330.35 L155.91 330.35" class="st14"/>
			</g>
			<g id="shape1449-93" transform="translate(99.2126,-42.5197)">
				<title>Sheet.1449</title>
				<path d="M0 330.35 L198.43 330.35" class="st14"/>
			</g>
			<g id="shape1450-96" transform="translate(297.638,462.283) rotate(180)">
				<title>Sheet.1450</title>
				<path d="M0 330.35 L198.43 330.35" class="st14"/>
			</g>
		</g>
		<g id="shape1451-99" transform="translate(63.144,-2.45105)">
			<title>Horizontal.1451</title>
			<desc>14mm</desc>
			<path d="M0 302.51 L0 326.35 L0 302.51 ZM198.43 302.51 L198.43 326.35 L198.43 302.51 Z" class="st6"/>
			<path d="M0 302.51 L0 326.35 L0 302.51" class="st7"/>
			<path d="M198.43 302.51 L198.43 326.35 L198.43 302.51" class="st7"/>
			<path d="M99.21 310.51 L6.12 310.51" class="st8"/>
			<path d="M99.21 310.51 L192.31 310.51" class="st8"/>
			<rect x="88.7673" y="298.91" width="20.8905" height="9.59985" class="st10"/>
			<text x="88.77" y="306.11" class="st11">14mm</text>		</g>
	</g>
</svg>
