<?xml version="1.0" encoding="UTF-8" standalone="no"?>
<!DOCTYPE svg PUBLIC "-//W3C//DTD SVG 1.1//EN" "http://www.w3.org/Graphics/SVG/1.1/DTD/svg11.dtd">
<!-- Generated by Microsoft Visio, SVG Export PP003A_Detail.svg Page-1 -->
<svg xmlns="http://www.w3.org/2000/svg" xmlns:xlink="http://www.w3.org/1999/xlink" xmlns:ev="http://www.w3.org/2001/xml-events"
		width="5.07524in" height="4.32244in" viewBox="0 0 365.418 311.216" xml:space="preserve" color-interpolation-filters="sRGB"
		class="st16">
	<title>PP003A</title>

	<style type="text/css">
	<![CDATA[
		.st1 {fill:none;stroke:#ff0000;stroke-linecap:round;stroke-linejoin:round;stroke-width:0.75}
		.st2 {fill:#ff0000;font-family:Arial Narrow;font-size:0.833336em;font-weight:bold}
		.st3 {fill:none;stroke:none;stroke-linecap:round;stroke-linejoin:round;stroke-width:0.75}
		.st4 {fill:#ff0000;font-family:Arial Narrow;font-size:0.811964em;font-weight:bold}
		.st5 {baseline-shift:33.35%;font-size:0.667em}
		.st6 {fill:#ffffff;stroke:#000000;stroke-linecap:round;stroke-linejoin:round;stroke-width:2.25}
		.st7 {stroke:#000000;stroke-linecap:round;stroke-linejoin:round;stroke-width:2.25}
		.st8 {fill:#ffffff}
		.st9 {stroke:#000000;stroke-linecap:round;stroke-linejoin:round;stroke-width:0.24}
		.st10 {marker-end:url(#mrkr13-24);stroke:#000000;stroke-linecap:round;stroke-linejoin:round;stroke-width:0.24}
		.st11 {fill:#000000;fill-opacity:1;stroke:#000000;stroke-opacity:1;stroke-width:0.11764705882353}
		.st12 {fill:#ffffff;stroke:none;stroke-linecap:butt;stroke-width:7.2}
		.st13 {fill:#000000;font-family:Calibri;font-size:0.666664em}
		.st14 {fill:none;stroke:#ff0000;stroke-linecap:round;stroke-linejoin:round;stroke-width:2.25}
		.st15 {stroke:#ff0000;stroke-linecap:round;stroke-linejoin:round;stroke-width:1.5}
		.st16 {fill:none;fill-rule:evenodd;font-size:12px;overflow:visible;stroke-linecap:square;stroke-miterlimit:3}
	]]>
	</style>

	<defs id="Markers">
		<g id="lend13">
			<path d="M 3 1 L 0 0 L 3 -1 L 3 1 " style="stroke:none"/>
		</g>
		<marker id="mrkr13-24" class="st11" refX="-25.5" orient="auto" markerUnits="strokeWidth" overflow="visible">
			<use xlink:href="#lend13" transform="scale(-8.5000000000001,-8.5000000000001) "/>
		</marker>
	</defs>
	<g>
		<title>Page-1</title>
		<g id="group1405-1" transform="translate(77.2108,-0.375)">
			<title>Sheet.1405</title>
			<g id="shape1406-2" transform="translate(2.14165,0)">
				<title>Sheet.1406</title>
				<desc>1</desc>
				<rect x="0" y="297.043" width="85.0394" height="14.1732" class="st1"/>
				<text x="40.24" y="307.13" class="st2">1</text>			</g>
			<g id="shape1407-5" transform="translate(0,-4.47576)">
				<title>Sheet.1407</title>
				<desc>A</desc>
				<rect x="0" y="297.043" width="13.2348" height="14.1732" class="st3"/>
				<text x="4" y="310.73" class="st4"><tspan class="st5">A</tspan></text>			</g>
		</g>
		<g id="shape1408-9" transform="translate(7.83662,-56.322)">
			<title>Circle.1009</title>
			<path d="M0 197.46 A113.759 113.759 0 0 1 227.52 197.46 A113.759 113.759 0 1 1 0 197.46 Z" class="st6"/>
		</g>
		<g id="shape1409-11" transform="translate(64.9025,-170.454)">
			<title>Circle.1014</title>
			<path d="M0 254.52 A56.6929 56.6929 0 0 1 113.39 254.52 A56.6929 56.6929 0 1 1 0 254.52 Z" class="st6"/>
		</g>
		<g id="shape1410-13" transform="translate(64.9025,-56.322)">
			<title>Circle.1015</title>
			<path d="M0 254.52 A56.6929 56.6929 0 0 1 113.39 254.52 A56.6929 56.6929 0 1 1 0 254.52 Z" class="st6"/>
		</g>
		<g id="shape1411-15" transform="translate(9.32852,-28.4219)">
			<title>Sheet.1411</title>
			<path d="M32.45 250.12 L0 311.22 L226.03 311.22 L192.83 250.12" class="st7"/>
		</g>
		<g id="shape1412-18" transform="translate(8.58255,-276.922)">
			<title>Horizontal.1014</title>
			<desc>16mm</desc>
			<path d="M0 283.37 L0 307.22 L0 283.37 ZM226.77 283.37 L226.77 307.31 L226.77 283.37 Z" class="st8"/>
			<path d="M0 283.37 L0 307.22 L0 283.37" class="st9"/>
			<path d="M226.77 283.37 L226.77 307.31 L226.77 283.37" class="st9"/>
			<path d="M113.39 291.37 L6.12 291.37" class="st10"/>
			<path d="M113.39 291.37 L220.65 291.37" class="st10"/>
			<rect x="102.941" y="279.772" width="20.8905" height="9.59985" class="st12"/>
			<text x="102.94" y="286.97" class="st13">16mm</text>		</g>
		<g id="shape1413-31" transform="translate(114.658,-163.889)">
			<title>Circle</title>
			<path d="M0 304.65 A6.56444 6.56444 0 1 1 13.13 304.65 A6.56444 6.56444 0 1 1 0 304.65 Z" class="st14"/>
		</g>
		<g id="group1414-33" transform="translate(0.75,-163.367)">
			<title>Sheet.1414</title>
			<g id="shape1415-34" transform="translate(234.236,517.106) rotate(135)">
				<title>Sheet.1415</title>
				<path d="M0 311.22 L20.04 311.22" class="st15"/>
			</g>
			<g id="shape1416-37" transform="translate(-205.889,531.279) rotate(-135)">
				<title>Sheet.1416</title>
				<path d="M0 311.22 L20.04 311.22" class="st15"/>
			</g>
		</g>
		<g id="group1417-40" transform="translate(114.136,-276.753)">
			<title>Sheet.1417</title>
			<g id="shape1418-41" transform="translate(234.236,517.106) rotate(135)">
				<title>Sheet.1418</title>
				<path d="M0 311.22 L20.04 311.22" class="st15"/>
			</g>
			<g id="shape1419-44" transform="translate(-205.889,531.279) rotate(-135)">
				<title>Sheet.1419</title>
				<path d="M0 311.22 L20.04 311.22" class="st15"/>
			</g>
		</g>
		<g id="group1420-47" transform="translate(9.23081,254.448) rotate(-90)">
			<title>Vertical baseline</title>
			<g id="shape1421-48">
				<title>Sheet.1421</title>
			</g>
			<g id="shape1422-51">
				<title>Sheet.1422</title>
			</g>
			<g id="shape1423-54">
				<title>Sheet.1423</title>
			</g>
			<g id="shape1424-57">
				<title>Sheet.1424</title>
				<desc>16mm</desc>
				<path d="M0 283.37 L0 307.22 L0 283.37 ZM226.77 283.37 L226.77 307.22 L226.77 283.37 Z" class="st8"/>
				<path d="M0 283.37 L0 307.22 L0 283.37" class="st9"/>
				<path d="M226.77 283.37 L226.77 307.22 L226.77 283.37" class="st9"/>
				<path d="M113.39 291.37 L6.12 291.37" class="st10"/>
				<path d="M113.39 291.37 L220.65 291.37" class="st10"/>
				<rect x="102.941" y="279.772" width="20.8905" height="9.59985" class="st12"/>
				<text x="102.94" y="286.97" class="st13">16mm</text>			</g>
		</g>
		<g id="group1425-69" transform="translate(51.7505,282.794) rotate(-90)">
			<title>Vertical baseline.1425</title>
			<g id="shape1426-70">
				<title>Sheet.1426</title>
			</g>
			<g id="shape1427-73">
				<title>Sheet.1427</title>
			</g>
			<g id="shape1428-76">
				<title>Sheet.1428</title>
			</g>
			<g id="shape1429-79">
				<title>Sheet.1429</title>
				<desc>18mm</desc>
				<path d="M0 283.37 L0 307.22 L0 283.37 ZM255.12 283.37 L255.12 307.22 L255.12 283.37 Z" class="st8"/>
				<path d="M0 283.37 L0 307.22 L0 283.37" class="st9"/>
				<path d="M255.12 283.37 L255.12 307.22 L255.12 283.37" class="st9"/>
				<path d="M127.56 291.37 L6.12 291.37" class="st10"/>
				<path d="M127.56 291.37 L249 291.37" class="st10"/>
				<rect x="117.114" y="279.772" width="20.8905" height="9.59985" class="st12"/>
				<text x="117.11" y="286.97" class="st13">18mm</text>			</g>
		</g>
		<g id="group1430-91" transform="translate(-189.621,140.762) rotate(-90)">
			<title>Vertical baseline.1430</title>
			<g id="shape1431-92">
				<title>Sheet.1431</title>
			</g>
			<g id="shape1432-95">
				<title>Sheet.1432</title>
			</g>
			<g id="shape1433-98">
				<title>Sheet.1433</title>
			</g>
			<g id="shape1434-101">
				<title>Sheet.1434</title>
				<desc>8mm</desc>
				<path d="M0 283.37 L0 307.22 L0 283.37 ZM113.09 283.37 L113.09 321.82 L113.09 283.37 Z" class="st8"/>
				<path d="M0 283.37 L0 307.22 L0 283.37" class="st9"/>
				<path d="M113.09 283.37 L113.09 321.82 L113.09 283.37" class="st9"/>
				<path d="M56.54 291.37 L6.12 291.37" class="st10"/>
				<path d="M56.54 291.37 L106.97 291.37" class="st10"/>
				<rect x="48.1253" y="279.772" width="16.8357" height="9.59985" class="st12"/>
				<text x="48.13" y="286.97" class="st13">8mm</text>			</g>
		</g>
	</g>
</svg>
