<?xml version="1.0" encoding="UTF-8" standalone="no"?>
<!DOCTYPE svg PUBLIC "-//W3C//DTD SVG 1.1//EN" "http://www.w3.org/Graphics/SVG/1.1/DTD/svg11.dtd">
<!-- Generated by Microsoft Visio, SVG Export PP014A_Detail.svg Page-1 -->
<svg xmlns="http://www.w3.org/2000/svg" xmlns:xlink="http://www.w3.org/1999/xlink" xmlns:ev="http://www.w3.org/2001/xml-events"
		width="4.60934in" height="3.23809in" viewBox="0 0 331.873 233.142" xml:space="preserve" color-interpolation-filters="sRGB"
		class="st17">
	<title>PP014A</title>

	<style type="text/css">
	<![CDATA[
		.st1 {fill:none;stroke:#ff0000;stroke-linecap:round;stroke-linejoin:round;stroke-width:0.75}
		.st2 {fill:#ff0000;font-family:Arial Narrow;font-size:0.833336em;font-weight:bold}
		.st3 {fill:none;stroke:none;stroke-linecap:round;stroke-linejoin:round;stroke-width:0.75}
		.st4 {fill:#ff0000;font-family:Arial Narrow;font-size:0.811964em;font-weight:bold}
		.st5 {baseline-shift:33.35%;font-size:0.667em}
		.st6 {fill:#ffffff}
		.st7 {stroke:#000000;stroke-linecap:round;stroke-linejoin:round;stroke-width:0.24}
		.st8 {marker-end:url(#mrkr13-15);stroke:#000000;stroke-linecap:round;stroke-linejoin:round;stroke-width:0.24}
		.st9 {fill:#000000;fill-opacity:1;stroke:#000000;stroke-opacity:1;stroke-width:0.11764705882353}
		.st10 {fill:#ffffff;stroke:none;stroke-linecap:butt}
		.st11 {fill:#000000;font-family:Calibri;font-size:0.666664em}
		.st12 {fill:#ffffff;stroke:none;stroke-linecap:butt;stroke-width:7.2}
		.st13 {fill:none;stroke:#ff0000;stroke-linecap:round;stroke-linejoin:round;stroke-width:2.25}
		.st14 {fill:none}
		.st15 {stroke:#000000;stroke-linecap:round;stroke-linejoin:round;stroke-width:2.25}
		.st16 {fill:none;stroke:#000000;stroke-linecap:round;stroke-linejoin:round;stroke-width:2.25}
		.st17 {fill:none;fill-rule:evenodd;font-size:12px;overflow:visible;stroke-linecap:square;stroke-miterlimit:3}
	]]>
	</style>

	<defs id="Markers">
		<g id="lend13">
			<path d="M 3 1 L 0 0 L 3 -1 L 3 1 " style="stroke:none"/>
		</g>
		<marker id="mrkr13-15" class="st9" refX="-25.5" orient="auto" markerUnits="strokeWidth" overflow="visible">
			<use xlink:href="#lend13" transform="scale(-8.5000000000001,-8.5000000000001) "/>
		</marker>
	</defs>
	<g>
		<title>Page-1</title>
		<g id="group1405-1" transform="translate(118.934,-0.375)">
			<title>Sheet.1405</title>
			<g id="shape1406-2" transform="translate(2.14165,0)">
				<title>Sheet.1406</title>
				<desc>1</desc>
				<rect x="0" y="218.969" width="85.0394" height="14.1732" class="st1"/>
				<text x="40.24" y="229.06" class="st2">1</text>			</g>
			<g id="shape1407-5" transform="translate(0,-4.47576)">
				<title>Sheet.1407</title>
				<desc>A</desc>
				<rect x="0" y="218.969" width="13.2348" height="14.1732" class="st3"/>
				<text x="4" y="232.66" class="st4"><tspan class="st5">A</tspan></text>			</g>
		</g>
		<g id="shape1411-9" transform="translate(50.2091,-170.502)">
			<title>Horizontal.1014</title>
			<desc>16mm</desc>
			<path d="M0 205.3 L0 229.14 L0 205.3 ZM226.77 205.3 L226.77 229.24 L226.77 205.3 Z" class="st6"/>
			<path d="M0 205.3 L0 229.14 L0 205.3" class="st7"/>
			<path d="M226.77 205.3 L226.77 229.24 L226.77 205.3" class="st7"/>
			<path d="M113.39 213.3 L6.12 213.3" class="st8"/>
			<path d="M113.39 213.3 L220.65 213.3" class="st8"/>
			<rect x="102.941" y="201.698" width="20.8905" height="9.59985" class="st10"/>
			<text x="102.94" y="208.9" class="st11">16mm</text>		</g>
		<g id="group1424-22" transform="translate(93.1614,204.421) rotate(-90)">
			<title>Vertical baseline.1424</title>
			<g id="shape1425-23">
				<title>Sheet.1425</title>
			</g>
			<g id="shape1426-26">
				<title>Sheet.1426</title>
			</g>
			<g id="shape1427-29">
				<title>Sheet.1427</title>
			</g>
			<g id="shape1428-32">
				<title>Sheet.1428</title>
				<desc>8mm</desc>
				<path d="M0 205.3 L0 229.14 L0 205.3 ZM113.29 205.3 L113.29 232.26 L113.29 205.3 Z" class="st6"/>
				<path d="M0 205.3 L0 229.14 L0 205.3" class="st7"/>
				<path d="M113.29 205.3 L113.29 232.26 L113.29 205.3" class="st7"/>
				<path d="M56.64 213.3 L6.12 213.3" class="st8"/>
				<path d="M56.64 213.3 L107.17 213.3" class="st8"/>
				<rect x="48.2265" y="201.698" width="16.8357" height="9.59985" class="st12"/>
				<text x="48.23" y="208.9" class="st11">8mm</text>			</g>
		</g>
		<g id="shape1412-44" transform="translate(1.125,-78.8499)">
			<title>Circle</title>
			<path d="M0 226.58 A6.56444 6.56444 0 1 1 13.13 226.58 A6.56444 6.56444 0 1 1 0 226.58 Z" class="st13"/>
		</g>
		<g id="shape1443-46" transform="translate(7.68943,-198.849)">
			<title>Horizontal.1443</title>
			<desc>19mm</desc>
			<path d="M0 205.3 L0 229.14 L0 205.3 ZM269.29 205.3 L269.29 229.65 L269.29 205.3 Z" class="st6"/>
			<path d="M0 205.3 L0 229.14 L0 205.3" class="st7"/>
			<path d="M269.29 205.3 L269.29 229.65 L269.29 205.3" class="st7"/>
			<path d="M134.65 213.3 L6.12 213.3" class="st8"/>
			<path d="M134.65 213.3 L263.17 213.3" class="st8"/>
			<rect x="124.2" y="201.698" width="20.8905" height="9.59985" class="st12"/>
			<text x="124.2" y="208.9" class="st11">19mm</text>		</g>
		<g id="shape1454-58" transform="translate(78.5667,-55.6506)">
			<title>Sheet.1454</title>
			<path d="M0 173.61 L33.07 233.14 L66.13 173.61 L99.2 233.14 L132.28 173.61 L165.35 233.14 L187.4 183.54 L187.4 183.54
						 L0 173.61 Z" class="st14"/>
			<path d="M0 173.61 L33.07 233.14 L66.13 173.61 L99.2 233.14 L132.28 173.61 L165.35 233.14 L187.4 183.54 L187.4 183.54"
					class="st15"/>
		</g>
		<g id="shape1455-61" transform="translate(50.2091,380.87) rotate(180)">
			<title>Sheet.1455</title>
			<path d="M0 233.14 L42.52 233.14" class="st15"/>
		</g>
		<g id="shape1597-64" transform="translate(50.2091,-28.3671)">
			<title>Rectangle</title>
			<rect x="0" y="119.402" width="226.772" height="113.74" class="st16"/>
		</g>
	</g>
</svg>
