<?xml version="1.0" encoding="UTF-8" standalone="no"?>
<!DOCTYPE svg PUBLIC "-//W3C//DTD SVG 1.1//EN" "http://www.w3.org/Graphics/SVG/1.1/DTD/svg11.dtd">
<!-- Generated by Microsoft Visio, SVG Export PP017A.svg Page-1 -->
<svg xmlns="http://www.w3.org/2000/svg" xmlns:xlink="http://www.w3.org/1999/xlink" xmlns:ev="http://www.w3.org/2001/xml-events"
		width="2.39345in" height="5.64081in" viewBox="0 0 172.329 406.138" xml:space="preserve" color-interpolation-filters="sRGB"
		class="st3">
	<title>PP017A</title>

	<style type="text/css">
	<![CDATA[
		.st1 {stroke:#000000;stroke-linecap:round;stroke-linejoin:round;stroke-width:2.25}
		.st2 {fill:none}
		.st3 {fill:none;fill-rule:evenodd;font-size:12px;overflow:visible;stroke-linecap:square;stroke-miterlimit:3}
	]]>
	</style>

	<g>
		<title>Page-1</title>
		<g id="shape1483-1" transform="translate(-319.979,383.751) rotate(-89.9992)">
			<title>Sheet.1483</title>
			<path d="M0 406.14 L382.63 406.14" class="st1"/>
		</g>
		<g id="shape1484-4" transform="translate(1.125,-1.125)">
			<title>Sheet.1484</title>
			<path d="M21.26 363.63 A21.2562 21.2562 -180 0 0 21.26 406.14 L21.26 363.63 Z" class="st2"/>
			<path d="M21.26 363.63 A21.2562 21.2562 -180 0 0 21.26 406.14" class="st1"/>
		</g>
		<g id="shape1485-7" transform="translate(149.948,-1.125)">
			<title>Sheet.1485</title>
			<path d="M0 406.14 A21.2562 21.2562 -180 0 0 0 363.63 L0 406.14 Z" class="st2"/>
			<path d="M0 406.14 A21.2562 21.2562 -180 0 0 0 363.63" class="st1"/>
		</g>
		<g id="shape1495-10" transform="translate(150.787,-22.8045) rotate(18.431)">
			<title>Sheet.1495</title>
			<path d="M0 406.14 L134.46 406.14" class="st1"/>
		</g>
		<g id="shape1496-13" transform="translate(-106.024,19.7078) rotate(-18.431)">
			<title>Sheet.1496</title>
			<path d="M0 406.14 L134.46 406.14" class="st1"/>
		</g>
	</g>
</svg>
