<?xml version="1.0" encoding="UTF-8" standalone="no"?>
<!DOCTYPE svg PUBLIC "-//W3C//DTD SVG 1.1//EN" "http://www.w3.org/Graphics/SVG/1.1/DTD/svg11.dtd">
<!-- Generated by Microsoft Visio, SVG Export PP015A.svg Page-1 -->
<svg xmlns="http://www.w3.org/2000/svg" xmlns:xlink="http://www.w3.org/1999/xlink" xmlns:ev="http://www.w3.org/2001/xml-events"
		width="1.88666in" height="5.84559in" viewBox="0 0 135.839 420.882" xml:space="preserve" color-interpolation-filters="sRGB"
		class="st3">
	<title>PP015A</title>

	<style type="text/css">
	<![CDATA[
		.st1 {fill:none}
		.st2 {stroke:#000000;stroke-linecap:round;stroke-linejoin:round;stroke-width:2.25}
		.st3 {fill:none;fill-rule:evenodd;font-size:12px;overflow:visible;stroke-linecap:square;stroke-miterlimit:3}
	]]>
	</style>

	<g>
		<title>Page-1</title>
		<g id="shape1445-1" transform="translate(49.7616,-341.282)">
			<title>Sheet.1445</title>
			<path d="M0 420.88 L84.95 420.88 L84.95 420.88 L0 420.88 Z" class="st1"/>
			<path d="M0 420.88 L84.95 420.88 L84.95 420.88" class="st2"/>
		</g>
		<g id="shape1446-4" transform="translate(-371.118,375.652) rotate(-89.7841)">
			<title>Sheet.1446</title>
			<path d="M0 420.88 L376.12 420.88" class="st2"/>
		</g>
		<g id="shape1447-7" transform="translate(22.0049,-1.125)">
			<title>Sheet.1447</title>
			<path d="M0 420.88 L55.68 420.88 L55.68 420.88 L0 420.88 Z" class="st1"/>
			<path d="M0 420.88 L55.68 420.88 L55.68 420.88" class="st2"/>
		</g>
		<g id="shape1448-10" transform="translate(22.0049,-42.8848)">
			<title>Sheet.1448</title>
			<path d="M0 420.88 L55.68 420.88 L55.68 420.88 L0 420.88 Z" class="st1"/>
			<path d="M0 420.88 L55.68 420.88 L55.68 420.88" class="st2"/>
		</g>
		<g id="shape1449-13" transform="translate(1.125,-1.125)">
			<title>Sheet.1449</title>
			<path d="M20.88 379.12 A20.8799 20.8799 -180 1 0 20.88 420.88 L20.88 379.12 Z" class="st1"/>
			<path d="M20.88 379.12 A20.8799 20.8799 -180 1 0 20.88 420.88" class="st2"/>
		</g>
		<g id="shape1450-16" transform="translate(77.6847,-1.125)">
			<title>Sheet.1450</title>
			<path d="M0 420.88 A20.8799 20.8799 -180 1 0 0 379.12 L0 420.88 Z" class="st1"/>
			<path d="M0 420.88 A20.8799 20.8799 -180 1 0 0 379.12" class="st2"/>
		</g>
	</g>
</svg>
