<?xml version="1.0" encoding="UTF-8" standalone="no"?>
<!DOCTYPE svg PUBLIC "-//W3C//DTD SVG 1.1//EN" "http://www.w3.org/Graphics/SVG/1.1/DTD/svg11.dtd">
<!-- Generated by Microsoft Visio, SVG Export PP016A_Detail.svg Page-1 -->
<svg xmlns="http://www.w3.org/2000/svg" xmlns:xlink="http://www.w3.org/1999/xlink" xmlns:ev="http://www.w3.org/2001/xml-events"
		width="3.97491in" height="6.94624in" viewBox="0 0 286.193 500.129" xml:space="preserve" color-interpolation-filters="sRGB"
		class="st15">
	<title>PP016A</title>

	<style type="text/css">
	<![CDATA[
		.st1 {fill:none;stroke:#ff0000;stroke-linecap:round;stroke-linejoin:round;stroke-width:0.75}
		.st2 {fill:#ff0000;font-family:Arial Narrow;font-size:0.833336em;font-weight:bold}
		.st3 {fill:none;stroke:none;stroke-linecap:round;stroke-linejoin:round;stroke-width:0.75}
		.st4 {fill:#ff0000;font-family:Arial Narrow;font-size:0.811964em;font-weight:bold}
		.st5 {baseline-shift:33.35%;font-size:0.667em}
		.st6 {fill:#ffffff}
		.st7 {stroke:#000000;stroke-linecap:round;stroke-linejoin:round;stroke-width:0.24}
		.st8 {marker-end:url(#mrkr13-15);stroke:#000000;stroke-linecap:round;stroke-linejoin:round;stroke-width:0.24}
		.st9 {fill:#000000;fill-opacity:1;stroke:#000000;stroke-opacity:1;stroke-width:0.11764705882353}
		.st10 {fill:#ffffff;stroke:none;stroke-linecap:butt;stroke-width:7.2}
		.st11 {fill:#000000;font-family:Calibri;font-size:0.666664em}
		.st12 {fill:none;stroke:#ff0000;stroke-linecap:round;stroke-linejoin:round;stroke-width:2.25}
		.st13 {fill:none}
		.st14 {stroke:#000000;stroke-linecap:round;stroke-linejoin:round;stroke-width:2.25}
		.st15 {fill:none;fill-rule:evenodd;font-size:12px;overflow:visible;stroke-linecap:square;stroke-miterlimit:3}
	]]>
	</style>

	<defs id="Markers">
		<g id="lend13">
			<path d="M 3 1 L 0 0 L 3 -1 L 3 1 " style="stroke:none"/>
		</g>
		<marker id="mrkr13-15" class="st9" refX="-25.5" orient="auto" markerUnits="strokeWidth" overflow="visible">
			<use xlink:href="#lend13" transform="scale(-8.5000000000001,-8.5000000000001) "/>
		</marker>
	</defs>
	<g>
		<title>Page-1</title>
		<g id="group1405-1" transform="translate(103.018,-38.8965)">
			<title>Sheet.1405</title>
			<g id="shape1406-2" transform="translate(2.14165,0)">
				<title>Sheet.1406</title>
				<desc>1</desc>
				<rect x="0" y="485.956" width="85.0394" height="14.1732" class="st1"/>
				<text x="40.24" y="496.04" class="st2">1</text>			</g>
			<g id="shape1407-5" transform="translate(0,-4.47576)">
				<title>Sheet.1407</title>
				<desc>A</desc>
				<rect x="0" y="485.956" width="13.2348" height="14.1732" class="st3"/>
				<text x="4" y="499.65" class="st4"><tspan class="st5">A</tspan></text>			</g>
		</g>
		<g id="shape1411-9" transform="translate(69.7266,-2.45105)">
			<title>Horizontal.1014</title>
			<desc>11mm</desc>
			<path d="M0 472.29 L0 496.13 L0 472.29 ZM155.91 472.29 L155.91 496.13 L155.91 472.29 Z" class="st6"/>
			<path d="M0 472.29 L0 496.13 L0 472.29" class="st7"/>
			<path d="M155.91 472.29 L155.91 496.13 L155.91 472.29" class="st7"/>
			<path d="M77.95 480.29 L6.12 480.29" class="st8"/>
			<path d="M77.95 480.29 L149.79 480.29" class="st8"/>
			<rect x="67.5075" y="468.685" width="20.8905" height="9.59985" class="st10"/>
			<text x="67.51" y="475.88" class="st11">11mm</text>		</g>
		<g id="group1424-22" transform="translate(-230.56,432.983) rotate(-90)">
			<title>Vertical baseline.1424</title>
			<g id="shape1425-23">
				<title>Sheet.1425</title>
			</g>
			<g id="shape1426-26">
				<title>Sheet.1426</title>
			</g>
			<g id="shape1427-29">
				<title>Sheet.1427</title>
			</g>
			<g id="shape1428-32">
				<title>Sheet.1428</title>
				<desc>3mm</desc>
				<path d="M0 472.29 L0 496.13 L0 472.29 ZM42.62 472.29 L42.62 510.3 L42.62 472.29 Z" class="st6"/>
				<path d="M0 472.29 L0 496.13 L0 472.29" class="st7"/>
				<path d="M42.62 472.29 L42.62 510.3 L42.62 472.29" class="st7"/>
				<path d="M21.31 480.29 L6.12 480.29" class="st8"/>
				<path d="M21.31 480.29 L36.5 480.29" class="st8"/>
				<rect x="12.8905" y="468.685" width="16.8357" height="9.59985" class="st10"/>
				<text x="12.89" y="475.88" class="st11">3mm</text>			</g>
		</g>
		<g id="shape1412-44" transform="translate(141.115,-485.875)">
			<title>Circle</title>
			<path d="M0 493.56 A6.56444 6.56444 0 1 1 13.13 493.56 A6.56444 6.56444 0 1 1 0 493.56 Z" class="st12"/>
		</g>
		<g id="shape1480-46" transform="translate(-465.836,390.464) rotate(-90)">
			<title>Vertical</title>
			<desc>27mm</desc>
			<path d="M0 472.29 L0 496.13 L0 472.29 ZM382.68 472.29 L382.68 510.81 L382.68 472.29 Z" class="st6"/>
			<path d="M0 472.29 L0 496.13 L0 472.29" class="st7"/>
			<path d="M382.68 472.29 L382.68 510.81 L382.68 472.29" class="st7"/>
			<path d="M191.34 480.29 L6.12 480.29" class="st8"/>
			<path d="M191.34 480.29 L376.56 480.29" class="st8"/>
			<rect x="180.893" y="468.685" width="20.8905" height="9.59985" class="st10"/>
			<text x="180.89" y="475.88" class="st11">27mm</text>		</g>
		<g id="shape1481-58" transform="translate(-423.316,92.7288) rotate(-90)">
			<title>Vertical.1481</title>
			<desc>6mm</desc>
			<path d="M0 472.29 L0 496.13 L0 472.29 ZM84.94 472.29 L84.94 496.13 L84.94 472.29 Z" class="st6"/>
			<path d="M0 472.29 L0 496.13 L0 472.29" class="st7"/>
			<path d="M84.94 472.29 L84.94 496.13 L84.94 472.29" class="st7"/>
			<path d="M42.47 480.29 L6.12 480.29" class="st8"/>
			<path d="M42.47 480.29 L78.82 480.29" class="st8"/>
			<rect x="34.0533" y="468.685" width="16.8357" height="9.59985" class="st10"/>
			<text x="34.05" y="475.88" class="st11">6mm</text>		</g>
		<g id="shape1483-70" transform="translate(190.945,-407.4)">
			<title>Sheet.1483</title>
			<path d="M0 500.13 L41.77 500.13 L41.77 500.13 L0 500.13 Z" class="st13"/>
			<path d="M0 500.13 L41.77 500.13 L41.77 500.13" class="st14"/>
		</g>
		<g id="shape1484-73" transform="translate(-351.601,391.694) rotate(-90.1268)">
			<title>Sheet.1484</title>
			<path d="M0 500.13 L382.9 500.13" class="st14"/>
		</g>
		<g id="shape1485-76" transform="translate(-309.93,390.367) rotate(-90)">
			<title>Sheet.1485</title>
			<path d="M0 500.13 L297.54 500.13" class="st14"/>
		</g>
		<g id="shape1510-79" transform="translate(92.2573,-67.3404)">
			<title>Sheet.1510</title>
			<path d="M0 500.13 L112.54 500.13 L112.54 500.13 L0 500.13 Z" class="st13"/>
			<path d="M0 500.13 L112.54 500.13 L112.54 500.13" class="st14"/>
		</g>
		<g id="shape1511-82" transform="translate(71.1439,-67.3399)">
			<title>Sheet.1511</title>
			<path d="M21.1 457.93 A21.101 21.101 -180 1 0 21.1 500.13 L21.1 457.93 Z" class="st13"/>
			<path d="M21.1 457.93 A21.101 21.101 -180 1 0 21.1 500.13" class="st14"/>
		</g>
		<g id="shape1512-85" transform="translate(204.784,-67.3399)">
			<title>Sheet.1512</title>
			<path d="M0 500.13 A21.101 21.101 -180 1 0 0 457.93 L0 500.13 Z" class="st13"/>
			<path d="M0 500.13 A21.101 21.101 -180 1 0 0 457.93" class="st14"/>
		</g>
		<g id="shape1513-88" transform="translate(92.2573,-109.542)">
			<title>Sheet.1513</title>
			<path d="M0 500.13 L112.54 500.13 L112.54 500.13 L0 500.13 Z" class="st13"/>
			<path d="M0 500.13 L112.54 500.13 L112.54 500.13" class="st14"/>
		</g>
	</g>
</svg>
