<?xml version="1.0" encoding="UTF-8" standalone="no"?>
<!DOCTYPE svg PUBLIC "-//W3C//DTD SVG 1.1//EN" "http://www.w3.org/Graphics/SVG/1.1/DTD/svg11.dtd">
<!-- Generated by Microsoft Visio, SVG Export PP012A.svg Page-1 -->
<svg xmlns="http://www.w3.org/2000/svg" xmlns:xlink="http://www.w3.org/1999/xlink" xmlns:ev="http://www.w3.org/2001/xml-events"
		width="3.77141in" height="2.78716in" viewBox="0 0 271.541 200.675" xml:space="preserve" color-interpolation-filters="sRGB"
		class="st4">
	<title>PP012A</title>

	<style type="text/css">
	<![CDATA[
		.st1 {fill:none}
		.st2 {stroke:#000000;stroke-linecap:round;stroke-linejoin:round;stroke-width:2.25}
		.st3 {fill:none;stroke:#000000;stroke-linecap:round;stroke-linejoin:round;stroke-width:2.25}
		.st4 {fill:none;fill-rule:evenodd;font-size:12px;overflow:visible;stroke-linecap:square;stroke-miterlimit:3}
	]]>
	</style>

	<g>
		<title>Page-1</title>
		<g id="group1453-1" transform="translate(1.125,-1.125)">
			<title>STPC008.213</title>
			<g id="shape1454-2" transform="translate(70.8773,-69.4488)">
				<title>Sheet.1454</title>
				<path d="M0 141.15 L33.07 200.68 L66.13 141.15 L99.2 200.68 L132.28 141.15 L165.35 200.68 L187.4 151.07 L187.4 151.07
							 L0 141.15 Z" class="st1"/>
				<path d="M0 141.15 L33.07 200.68 L66.13 141.15 L99.2 200.68 L132.28 141.15 L165.35 200.68 L187.4 151.07 L187.4 151.07"
						class="st2"/>
			</g>
			<g id="shape1455-5" transform="translate(42.5197,302.138) rotate(180)">
				<title>Sheet.1455</title>
				<path d="M0 200.68 L42.52 200.68" class="st2"/>
			</g>
			<g id="shape1456-8" transform="translate(200.675,73.1161) rotate(90)">
				<title>Sheet.1456</title>
				<path d="M0 200.68 L56.69 200.68" class="st2"/>
			</g>
			<g id="shape1457-11" transform="translate(42.5197,0)">
				<title>Sheet.1457</title>
				<path d="M0 2.25 L226.77 58.94 L226.77 143.98 L0 200.68 L0 2.25 L0 2.25 Z" class="st3"/>
			</g>
		</g>
	</g>
</svg>
