<?xml version="1.0" encoding="UTF-8" standalone="no"?>
<!DOCTYPE svg PUBLIC "-//W3C//DTD SVG 1.1//EN" "http://www.w3.org/Graphics/SVG/1.1/DTD/svg11.dtd">
<!-- Generated by Microsoft Visio, SVG Export PS003A_Detail.svg Page-1 -->
<svg xmlns="http://www.w3.org/2000/svg" xmlns:xlink="http://www.w3.org/1999/xlink" xmlns:ev="http://www.w3.org/2001/xml-events"
		width="3.14814in" height="3.00387in" viewBox="0 0 226.666 216.279" xml:space="preserve" color-interpolation-filters="sRGB"
		class="st11">
	<title>PS003A</title>

	<style type="text/css">
	<![CDATA[
		.st1 {fill:#ffffff}
		.st2 {stroke:#000000;stroke-linecap:round;stroke-linejoin:round;stroke-width:0.24}
		.st3 {marker-end:url(#mrkr13-7);stroke:#000000;stroke-linecap:round;stroke-linejoin:round;stroke-width:0.24}
		.st4 {fill:#000000;fill-opacity:1;stroke:#000000;stroke-opacity:1;stroke-width:0.11764705882353}
		.st5 {fill:#ffffff;stroke:none;stroke-linecap:butt;stroke-width:7.2}
		.st6 {fill:#000000;font-family:Calibri;font-size:0.666664em}
		.st7 {fill:none;stroke:#ff0000;stroke-linecap:round;stroke-linejoin:round;stroke-width:2.25}
		.st8 {stroke:#000000;stroke-linecap:round;stroke-linejoin:round;stroke-width:2.25}
		.st9 {fill:#000000;stroke:#000000;stroke-linecap:round;stroke-linejoin:round;stroke-width:2.25}
		.st10 {stroke:#ff0000;stroke-linecap:round;stroke-linejoin:round;stroke-width:1.5}
		.st11 {fill:none;fill-rule:evenodd;font-size:12px;overflow:visible;stroke-linecap:square;stroke-miterlimit:3}
	]]>
	</style>

	<defs id="Markers">
		<g id="lend13">
			<path d="M 3 1 L 0 0 L 3 -1 L 3 1 " style="stroke:none"/>
		</g>
		<marker id="mrkr13-7" class="st4" refX="-25.5" orient="auto" markerUnits="strokeWidth" overflow="visible">
			<use xlink:href="#lend13" transform="scale(-8.5000000000001,-8.5000000000001) "/>
		</marker>
	</defs>
	<g>
		<title>Page-1</title>
		<g id="shape1411-1" transform="translate(82.4826,-2.45105)">
			<title>Horizontal.1014</title>
			<desc>4mm</desc>
			<path d="M0 188.44 L0 212.28 L0 188.44 ZM56.69 188.44 L56.69 210.41 L56.69 188.44 Z" class="st1"/>
			<path d="M0 188.44 L0 212.28 L0 188.44" class="st2"/>
			<path d="M56.69 188.44 L56.69 210.41 L56.69 188.44" class="st2"/>
			<path d="M28.35 196.44 L6.12 196.44" class="st3"/>
			<path d="M28.35 196.44 L50.57 196.44" class="st3"/>
			<rect x="19.9286" y="184.835" width="16.8357" height="9.59985" class="st5"/>
			<text x="19.93" y="192.03" class="st6">4mm</text>		</g>
		<g id="group1424-14" transform="translate(-6.2372,162.357) rotate(-90)">
			<title>Vertical baseline.1424</title>
			<g id="shape1425-15">
				<title>Sheet.1425</title>
			</g>
			<g id="shape1426-18">
				<title>Sheet.1426</title>
			</g>
			<g id="shape1427-21">
				<title>Sheet.1427</title>
			</g>
			<g id="shape1428-24">
				<title>Sheet.1428</title>
				<desc>4mm</desc>
				<path d="M0 188.44 L0 212.28 L0 188.44 ZM56.6 188.44 L56.6 226.45 L56.6 188.44 Z" class="st1"/>
				<path d="M0 188.44 L0 212.28 L0 188.44" class="st2"/>
				<path d="M56.6 188.44 L56.6 226.45 L56.6 188.44" class="st2"/>
				<path d="M28.3 196.44 L6.12 196.44" class="st3"/>
				<path d="M28.3 196.44 L50.48 196.44" class="st3"/>
				<rect x="19.8801" y="184.835" width="16.8357" height="9.59985" class="st5"/>
				<text x="19.88" y="192.03" class="st6">4mm</text>			</g>
		</g>
		<g id="shape1412-36" transform="translate(75.9181,-75.7043)">
			<title>Circle</title>
			<path d="M0 209.71 A6.56444 6.56444 0 1 1 13.13 209.71 A6.56444 6.56444 0 1 1 0 209.71 Z" class="st7"/>
		</g>
		<g id="shape1480-38" transform="translate(-181.985,162.26) rotate(-90)">
			<title>Vertical</title>
			<desc>11mm</desc>
			<path d="M0 188.44 L0 212.28 L0 188.44 ZM155.71 188.44 L155.71 238.92 L155.71 188.44 Z" class="st1"/>
			<path d="M0 188.44 L0 212.28 L0 188.44" class="st2"/>
			<path d="M155.71 188.44 L155.71 238.92 L155.71 188.44" class="st2"/>
			<path d="M77.86 196.44 L6.12 196.44" class="st3"/>
			<path d="M77.86 196.44 L149.59 196.44" class="st3"/>
			<rect x="67.4105" y="184.835" width="20.8905" height="9.59985" class="st5"/>
			<text x="67.41" y="192.03" class="st6">11mm</text>		</g>
		<g id="shape1482-50" transform="translate(298.761,106.322) rotate(90)">
			<title>Sheet.1482</title>
			<path d="M0 216.28 L56.03 216.28" class="st8"/>
		</g>
		<g id="shape1483-53" transform="translate(355.454,106.322) rotate(90)">
			<title>Sheet.1483</title>
			<path d="M0 216.28 L56.03 216.28" class="st8"/>
		</g>
		<g id="shape1484-56" transform="translate(90.1349,-165.991)">
			<title>Sheet.1484</title>
			<ellipse cx="21.013" cy="195.266" rx="21.013" ry="21.013" class="st9"/>
		</g>
		<g id="shape1485-58" transform="translate(327.437,50.287) rotate(90)">
			<title>Sheet.1485</title>
			<path d="M0 216.28 L112.07 216.28" class="st8"/>
		</g>
		<g id="group1508-61" transform="translate(75.3959,-75.1821)">
			<title>Sheet.1508</title>
			<g id="shape1509-62" transform="translate(167.105,355.038) rotate(135)">
				<title>Sheet.1509</title>
				<path d="M0 216.28 L20.04 216.28" class="st10"/>
			</g>
			<g id="shape1510-65" transform="translate(-138.759,369.211) rotate(-135)">
				<title>Sheet.1510</title>
				<path d="M0 216.28 L20.04 216.28" class="st10"/>
			</g>
		</g>
		<g id="group1511-68" transform="translate(132.089,-75.1821)">
			<title>Sheet.1511</title>
			<g id="shape1512-69" transform="translate(167.105,355.038) rotate(135)">
				<title>Sheet.1512</title>
				<path d="M0 216.28 L20.04 216.28" class="st10"/>
			</g>
			<g id="shape1513-72" transform="translate(-138.759,369.211) rotate(-135)">
				<title>Sheet.1513</title>
				<path d="M0 216.28 L20.04 216.28" class="st10"/>
			</g>
		</g>
		<g id="shape1516-75" transform="translate(-20.4104,48.9707) rotate(-90)">
			<title>Vertical.1516</title>
			<desc>3mm</desc>
			<path d="M0 188.44 L0 212.28 L0 188.44 ZM42.52 188.44 L42.52 210.56 L42.52 188.44 Z" class="st1"/>
			<path d="M0 188.44 L0 212.28 L0 188.44" class="st2"/>
			<path d="M42.52 188.44 L42.52 210.56 L42.52 188.44" class="st2"/>
			<path d="M21.26 196.44 L6.12 196.44" class="st3"/>
			<path d="M21.26 196.44 L36.4 196.44" class="st3"/>
			<rect x="12.842" y="184.835" width="16.8357" height="9.59985" class="st5"/>
			<text x="12.84" y="192.03" class="st6">3mm</text>		</g>
	</g>
</svg>
