<?xml version="1.0" encoding="UTF-8" standalone="no"?>
<!DOCTYPE svg PUBLIC "-//W3C//DTD SVG 1.1//EN" "http://www.w3.org/Graphics/SVG/1.1/DTD/svg11.dtd">
<!-- Generated by Microsoft Visio, SVG Export PT002A.svg Page-1 -->
<svg xmlns="http://www.w3.org/2000/svg" xmlns:xlink="http://www.w3.org/1999/xlink" xmlns:ev="http://www.w3.org/2001/xml-events"
		width="3.38295in" height="9.92915in" viewBox="0 0 243.573 714.899" xml:space="preserve" color-interpolation-filters="sRGB"
		class="st2">
	<title>PT002A</title>

	<style type="text/css">
	<![CDATA[
		.st1 {stroke:#000000;stroke-linecap:round;stroke-linejoin:round;stroke-width:2.25}
		.st2 {fill:none;fill-rule:evenodd;font-size:12px;overflow:visible;stroke-linecap:square;stroke-miterlimit:3}
	]]>
	</style>

	<g>
		<title>Page-1</title>
		<g id="group1422-1" transform="translate(8.26935,-15.745)">
			<title>Sheet.1422</title>
			<g id="shape1408-2" transform="translate(941.868,89.5973) rotate(90)">
				<title>Sheet.1408</title>
				<path d="M0 714.9 L566.93 714.9" class="st1"/>
			</g>
			<g id="group1421-5">
				<title>Sheet.1421</title>
				<g id="shape1406-6" transform="translate(226.97,1371.29) rotate(180)">
					<title>Sheet.1406</title>
					<path d="M0 714.9 L226.97 714.9" class="st1"/>
				</g>
				<g id="shape1407-9" transform="translate(227.067,804.367) rotate(180)">
					<title>Sheet.1407</title>
					<path d="M0 714.9 L226.97 714.9" class="st1"/>
				</g>
				<g id="shape1409-12" transform="translate(715.097,89.4617) rotate(90)">
					<title>Sheet.1409</title>
					<path d="M0 714.9 L566.93 714.9" class="st1"/>
				</g>
				<g id="shape1413-15" transform="translate(-332.937,-544.411) rotate(-27.7592)">
					<title>Sheet.1413</title>
					<path d="M-0 714.9 A91.8868 57.0039 17.19 0 1 121.73 714.9" class="st1"/>
				</g>
				<g id="shape1414-18" transform="translate(-72.8988,719.041) rotate(-154.573)">
					<title>Sheet.1414</title>
					<path d="M-0 698.49 A98.6247 53.0395 -12.53 0 0 132.04 698.49" class="st1"/>
				</g>
				<g id="shape1415-21" transform="translate(559.97,1290.8) rotate(152.241)">
					<title>Sheet.1415</title>
					<path d="M-0 714.9 A91.8868 57.0039 17.19 0 1 121.73 714.9" class="st1"/>
				</g>
				<g id="shape1416-24" transform="translate(299.933,27.3472) rotate(25.4267)">
					<title>Sheet.1416</title>
					<path d="M-0 698.49 A98.6247 53.0395 -12.53 0 0 132.04 698.49" class="st1"/>
				</g>
			</g>
		</g>
	</g>
</svg>
