<?xml version="1.0" encoding="UTF-8" standalone="no"?>
<!DOCTYPE svg PUBLIC "-//W3C//DTD SVG 1.1//EN" "http://www.w3.org/Graphics/SVG/1.1/DTD/svg11.dtd">
<!-- Generated by Microsoft Visio, SVG Export PT006A_Detail.svg Page-1 -->
<svg xmlns="http://www.w3.org/2000/svg" xmlns:xlink="http://www.w3.org/1999/xlink" xmlns:ev="http://www.w3.org/2001/xml-events"
		width="5.19582in" height="5.45715in" viewBox="0 0 374.099 392.915" xml:space="preserve" color-interpolation-filters="sRGB"
		class="st14">
	<title>PT006A</title>

	<style type="text/css">
	<![CDATA[
		.st1 {fill:#ffffff;stroke:#ff0000;stroke-linecap:round;stroke-linejoin:round;stroke-width:2.25}
		.st2 {fill:#ffffff}
		.st3 {stroke:#000000;stroke-linecap:round;stroke-linejoin:round;stroke-width:0.24}
		.st4 {marker-end:url(#mrkr13-9);stroke:#000000;stroke-linecap:round;stroke-linejoin:round;stroke-width:0.24}
		.st5 {fill:#000000;fill-opacity:1;stroke:#000000;stroke-opacity:1;stroke-width:0.11764705882353}
		.st6 {fill:#ffffff;stroke:none;stroke-linecap:butt;stroke-width:7.2}
		.st7 {fill:#000000;font-family:Calibri;font-size:0.666664em}
		.st8 {fill:none;stroke:#ff0000;stroke-linecap:round;stroke-linejoin:round;stroke-width:0.75}
		.st9 {fill:#ff0000;font-family:Arial Narrow;font-size:0.833336em;font-weight:bold}
		.st10 {fill:none;stroke:none;stroke-linecap:round;stroke-linejoin:round;stroke-width:0.75}
		.st11 {fill:#ff0000;font-family:Arial Narrow;font-size:0.811964em;font-weight:bold}
		.st12 {baseline-shift:33.35%;font-size:0.667em}
		.st13 {stroke:#000000;stroke-linecap:round;stroke-linejoin:round;stroke-width:2.25}
		.st14 {fill:none;fill-rule:evenodd;font-size:12px;overflow:visible;stroke-linecap:square;stroke-miterlimit:3}
	]]>
	</style>

	<defs id="Markers">
		<g id="lend13">
			<path d="M 3 1 L 0 0 L 3 -1 L 3 1 " style="stroke:none"/>
		</g>
		<marker id="mrkr13-9" class="st5" refX="-25.5" orient="auto" markerUnits="strokeWidth" overflow="visible">
			<use xlink:href="#lend13" transform="scale(-8.5000000000001,-8.5000000000001) "/>
		</marker>
	</defs>
	<g>
		<title>Page-1</title>
		<g id="shape1405-1" transform="translate(249.046,-378.681) rotate(0.2)">
			<title>Circle.1508</title>
			<path d="M0 386.35 A6.56444 6.56444 0 0 1 13.13 386.35 A6.56444 6.56444 0 1 1 0 386.35 Z" class="st1"/>
		</g>
		<g id="shape1406-3" transform="translate(-358.621,347.944) rotate(-90)">
			<title>Vertical.1024</title>
			<desc>48mm</desc>
			<path d="M0 365.07 L0 388.91 L0 365.07 ZM340.25 365.07 L340.25 396.28 L340.25 365.07 Z" class="st2"/>
			<path d="M0 365.07 L0 388.91 L0 365.07" class="st3"/>
			<path d="M340.25 365.07 L340.25 396.28 L340.25 365.07" class="st3"/>
			<path d="M170.13 373.07 L6.12 373.07" class="st4"/>
			<path d="M170.13 373.07 L334.13 373.07" class="st4"/>
			<rect x="159.682" y="361.47" width="20.8905" height="9.59985" class="st6"/>
			<text x="159.68" y="368.67" class="st7">48mm</text>		</g>
		<g id="shape1408-16" transform="translate(140.876,-10.306)">
			<title>Horizontal.1026</title>
			<desc>32mm</desc>
			<path d="M0 365.07 L0 388.91 L0 365.07 ZM226.77 365.07 L226.77 396.77 L226.77 365.07 Z" class="st2"/>
			<path d="M0 365.07 L0 388.91 L0 365.07" class="st3"/>
			<path d="M226.77 365.07 L226.77 396.77 L226.77 365.07" class="st3"/>
			<path d="M113.39 373.07 L6.12 373.07" class="st4"/>
			<path d="M113.39 373.07 L220.65 373.07" class="st4"/>
			<rect x="102.941" y="361.47" width="20.8905" height="9.59985" class="st6"/>
			<text x="102.94" y="368.67" class="st7">32mm</text>		</g>
		<g id="group1417-28" transform="translate(209.601,-215.146)">
			<title>Sheet.1417</title>
			<g id="shape1418-29" transform="translate(2.14165,1.13687E-13)">
				<title>Sheet.1418</title>
				<desc>1</desc>
				<rect x="0" y="378.741" width="85.0394" height="14.1732" class="st8"/>
				<text x="40.24" y="388.83" class="st9">1</text>			</g>
			<g id="shape1419-32" transform="translate(0,-4.47576)">
				<title>Sheet.1419</title>
				<desc>A</desc>
				<rect x="0" y="378.741" width="13.2348" height="14.1732" class="st10"/>
				<text x="4" y="392.43" class="st11"><tspan class="st12">A</tspan></text>			</g>
		</g>
		<g id="shape1428-36" transform="translate(-302.764,291.348) rotate(-90)">
			<title>Vertical.1428</title>
			<desc>32mm</desc>
			<path d="M0 365.07 L0 388.91 L0 365.07 ZM226.87 365.07 L226.87 388.91 L226.87 365.07 Z" class="st2"/>
			<path d="M0 365.07 L0 388.91 L0 365.07" class="st3"/>
			<path d="M226.87 365.07 L226.87 388.91 L226.87 365.07" class="st3"/>
			<path d="M113.43 373.07 L6.12 373.07" class="st4"/>
			<path d="M113.43 373.07 L220.75 373.07" class="st4"/>
			<rect x="102.989" y="361.47" width="20.8905" height="9.59985" class="st6"/>
			<text x="102.99" y="368.67" class="st7">32mm</text>		</g>
		<g id="shape1437-48" transform="translate(-302.764,64.4793) rotate(-90)">
			<title>Vertical</title>
			<desc>8mm</desc>
			<path d="M0 365.07 L0 388.91 L0 365.07 ZM56.69 365.07 L56.69 388.62 L56.69 365.07 Z" class="st2"/>
			<path d="M0 365.07 L0 388.91 L0 365.07" class="st3"/>
			<path d="M56.69 365.07 L56.69 388.62 L56.69 365.07" class="st3"/>
			<path d="M28.35 373.07 L6.12 373.07" class="st4"/>
			<path d="M28.35 373.07 L50.57 373.07" class="st4"/>
			<rect x="19.9286" y="361.47" width="16.8357" height="9.59985" class="st6"/>
			<text x="19.93" y="368.67" class="st7">8mm</text>		</g>
		<g id="group1438-60" transform="translate(140.876,-44.3217)">
			<title>STPT006.41</title>
			<g id="shape1439-61" transform="translate(-392.915,335.862) rotate(-90)">
				<title>Sheet.1439</title>
				<path d="M0 392.91 L228.19 392.91" class="st13"/>
			</g>
			<g id="shape1440-64" transform="translate(228.189,728.776) rotate(180)">
				<title>Sheet.1440</title>
				<path d="M0 392.91 L228.19 392.91" class="st13"/>
			</g>
			<g id="shape1441-67" transform="translate(175.717,-15.5718) rotate(26.5651)">
				<title>Sheet.1441</title>
				<path d="M0 392.91 L127.56 392.91" class="st13"/>
			</g>
			<g id="shape1442-70" transform="translate(-61.6348,41.4846) rotate(-26.5662)">
				<title>Sheet.1442</title>
				<path d="M0 392.91 L127.57 392.91" class="st13"/>
			</g>
			<g id="shape1443-73" transform="translate(-164.726,335.862) rotate(-90)">
				<title>Sheet.1443</title>
				<path d="M0 392.91 L228.19 392.91" class="st13"/>
			</g>
			<g id="shape1444-76" transform="translate(228.189,500.587) rotate(180)">
				<title>Sheet.1444</title>
				<path d="M0 392.91 L228.19 392.91" class="st13"/>
			</g>
			<g id="shape1445-79" transform="translate(-175.717,-243.761) rotate(-26.5651)">
				<title>Sheet.1445</title>
				<path d="M0 392.91 L127.56 392.91" class="st13"/>
			</g>
			<g id="shape1446-82" transform="translate(289.813,-300.81) rotate(26.5662)">
				<title>Sheet.1446</title>
				<path d="M0 392.91 L127.57 392.91" class="st13"/>
			</g>
		</g>
	</g>
</svg>
