<?xml version="1.0" encoding="UTF-8" standalone="no"?>
<!DOCTYPE svg PUBLIC "-//W3C//DTD SVG 1.1//EN" "http://www.w3.org/Graphics/SVG/1.1/DTD/svg11.dtd">
<!-- Generated by Microsoft Visio, SVG Export PT001A.svg Page-1 -->
<svg xmlns="http://www.w3.org/2000/svg" xmlns:xlink="http://www.w3.org/1999/xlink" xmlns:ev="http://www.w3.org/2001/xml-events"
		xmlns:v="http://schemas.microsoft.com/visio/2003/SVGExtensions/" width="9.90887in" height="3.38874in"
		viewBox="0 0 713.438 243.989" xml:space="preserve" color-interpolation-filters="sRGB" class="st2">
	<title>PT001A</title>
	<v:documentProperties v:langID="2057" v:metric="true" v:viewMarkup="false"/>

	<style type="text/css">
	<![CDATA[
		.st1 {stroke:#000000;stroke-linecap:round;stroke-linejoin:round;stroke-width:2.25}
		.st2 {fill:none;fill-rule:evenodd;font-size:12px;overflow:visible;stroke-linecap:square;stroke-miterlimit:3}
	]]>
	</style>

	<g v:mID="0" v:index="1" v:groupContext="foregroundPage">
		<title>Page-1</title>
		<v:pageProperties v:drawingScale="0.0393701" v:pageScale="0.0393701" v:drawingUnits="24" v:shadowOffsetX="8.50394"
				v:shadowOffsetY="-8.50394"/>
		<g id="shape1514-1" v:mID="1514" v:groupContext="shape" transform="translate(884.961,8.30154) rotate(90)">
			<title>Sheet.1514</title>
			<path d="M0 243.99 L226.97 243.99" class="st1"/>
		</g>
		<g id="shape1515-4" v:mID="1515" v:groupContext="shape" transform="translate(318.039,8.20458) rotate(90)">
			<title>Sheet.1515</title>
			<path d="M0 243.99 L226.97 243.99" class="st1"/>
		</g>
		<g id="shape1516-7" v:mID="1516" v:groupContext="shape" transform="translate(279.751,109.303) rotate(116.173)">
			<title>Sheet.1516</title>
			<path d="M-0 229.2 A95.705 47.9497 -11 0 0 128.55 229.2" class="st1"/>
		</g>
		<g id="shape1517-10" v:mID="1517" v:groupContext="shape" transform="translate(-143.477,345.685) rotate(-116.932)">
			<title>Sheet.1517</title>
			<path d="M0 243.99 A95.0598 61.8729 19.61 0 1 125.18 243.99" class="st1"/>
		</g>
		<g id="shape1518-13" v:mID="1518" v:groupContext="shape" transform="translate(856.88,-105.338) rotate(62.2408)">
			<title>Sheet.1518</title>
			<path d="M-0 243.99 A91.8868 57.0039 17.19 0 1 121.73 243.99" class="st1"/>
		</g>
		<g id="shape1519-16" v:mID="1519" v:groupContext="shape" transform="translate(435.437,137.558) rotate(-64.5733)">
			<title>Sheet.1519</title>
			<path d="M-0 227.58 A98.6247 53.0395 -12.53 0 0 132.04 227.58" class="st1"/>
		</g>
		<g id="shape1520-19" v:mID="1520" v:groupContext="shape" transform="translate(74.0439,-235.687)">
			<title>Sheet.1520</title>
			<path d="M0 243.99 L566.93 243.99" class="st1"/>
		</g>
		<g id="shape1521-22" v:mID="1521" v:groupContext="shape" transform="translate(74.0439,-8.91582)">
			<title>Sheet.1521</title>
			<path d="M0 243.99 L566.93 243.99" class="st1"/>
		</g>
	</g>
</svg>
