<?xml version="1.0" encoding="UTF-8" standalone="no"?>
<!DOCTYPE svg PUBLIC "-//W3C//DTD SVG 1.1//EN" "http://www.w3.org/Graphics/SVG/1.1/DTD/svg11.dtd">
<!-- Generated by Microsoft Visio, SVG Export PT001A_Detail.svg Page-1 -->
<svg xmlns="http://www.w3.org/2000/svg" xmlns:xlink="http://www.w3.org/1999/xlink" xmlns:ev="http://www.w3.org/2001/xml-events"
		width="9.90887in" height="4.74397in" viewBox="0 0 713.438 341.566" xml:space="preserve" color-interpolation-filters="sRGB"
		class="st15">
	<title>PT001A</title>

	<style type="text/css">
	<![CDATA[
		.st1 {fill:#ffffff;stroke:#ff0000;stroke-linecap:round;stroke-linejoin:round;stroke-width:2.25}
		.st2 {fill:#ffffff}
		.st3 {stroke:#000000;stroke-linecap:round;stroke-linejoin:round;stroke-width:0.24}
		.st4 {marker-end:url(#mrkr13-9);stroke:#000000;stroke-linecap:round;stroke-linejoin:round;stroke-width:0.24}
		.st5 {fill:#000000;fill-opacity:1;stroke:#000000;stroke-opacity:1;stroke-width:0.11764705882353}
		.st6 {fill:#ffffff;stroke:none;stroke-linecap:butt}
		.st7 {fill:#000000;font-family:Calibri;font-size:0.666664em}
		.st8 {fill:#ffffff;stroke:none;stroke-linecap:butt;stroke-width:7.2}
		.st9 {stroke:#000000;stroke-linecap:round;stroke-linejoin:round;stroke-width:2.25}
		.st10 {fill:none;stroke:#ff0000;stroke-linecap:round;stroke-linejoin:round;stroke-width:0.75}
		.st11 {fill:#ff0000;font-family:Arial Narrow;font-size:0.833336em;font-weight:bold}
		.st12 {fill:none;stroke:none;stroke-linecap:round;stroke-linejoin:round;stroke-width:0.75}
		.st13 {fill:#ff0000;font-family:Arial Narrow;font-size:0.811964em;font-weight:bold}
		.st14 {baseline-shift:33.35%;font-size:0.667em}
		.st15 {fill:none;fill-rule:evenodd;font-size:12px;overflow:visible;stroke-linecap:square;stroke-miterlimit:3}
	]]>
	</style>

	<defs id="Markers">
		<g id="lend13">
			<path d="M 3 1 L 0 0 L 3 -1 L 3 1 " style="stroke:none"/>
		</g>
		<marker id="mrkr13-9" class="st5" refX="-25.5" orient="auto" markerUnits="strokeWidth" overflow="visible">
			<use xlink:href="#lend13" transform="scale(-8.5000000000001,-8.5000000000001) "/>
		</marker>
	</defs>
	<g>
		<title>Page-1</title>
		<g id="shape1405-1" transform="translate(352.116,-165.596) rotate(0.2)">
			<title>Circle.1508</title>
			<path d="M0 335 A6.56444 6.56444 0 0 1 13.13 335 A6.56444 6.56444 0 1 1 0 335 Z" class="st1"/>
		</g>
		<g id="shape1406-3" transform="translate(-177.421,282.837) rotate(-90)">
			<title>Vertical.1024</title>
			<desc>32mm</desc>
			<path d="M0 313.72 L0 337.57 L0 313.72 ZM227.19 313.72 L227.19 337.57 L227.19 313.72 Z" class="st2"/>
			<path d="M0 313.72 L0 337.57 L0 313.72" class="st3"/>
			<path d="M227.19 313.72 L227.19 337.57 L227.19 313.72" class="st3"/>
			<path d="M113.59 321.72 L6.12 321.72" class="st4"/>
			<path d="M113.59 321.72 L221.07 321.72" class="st4"/>
			<rect x="103.148" y="310.122" width="20.8905" height="9.59985" class="st6"/>
			<text x="103.15" y="317.32" class="st7">32mm</text>		</g>
		<g id="shape1407-16" transform="translate(17.351,-307.272)">
			<title>Horizontal.1025</title>
			<desc>96mm</desc>
			<path d="M0 313.72 L0 337.57 L0 313.72 ZM680.31 313.72 L680.31 358.08 L680.31 313.72 Z" class="st2"/>
			<path d="M0 313.72 L0 337.57 L0 313.72" class="st3"/>
			<path d="M680.31 313.72 L680.31 358.08 L680.31 313.72" class="st3"/>
			<path d="M340.16 321.72 L6.12 321.72" class="st4"/>
			<path d="M340.16 321.72 L674.19 321.72" class="st4"/>
			<rect x="329.712" y="310.122" width="20.8905" height="9.59985" class="st8"/>
			<text x="329.71" y="317.32" class="st7">96mm</text>		</g>
		<g id="shape1408-28" transform="translate(74.0439,-4.57277)">
			<title>Horizontal.1026</title>
			<desc>80mm</desc>
			<path d="M0 313.72 L0 337.57 L0 313.72 ZM566.93 313.72 L566.93 339.69 L566.93 313.72 Z" class="st2"/>
			<path d="M0 313.72 L0 337.57 L0 313.72" class="st3"/>
			<path d="M566.93 313.72 L566.93 339.69 L566.93 313.72" class="st3"/>
			<path d="M283.46 321.72 L6.12 321.72" class="st4"/>
			<path d="M283.46 321.72 L560.81 321.72" class="st4"/>
			<rect x="273.019" y="310.122" width="20.8905" height="9.59985" class="st8"/>
			<text x="273.02" y="317.32" class="st7">80mm</text>		</g>
		<g id="shape1409-40" transform="translate(982.538,55.6504) rotate(90)">
			<title>Sheet.1409</title>
			<path d="M0 341.57 L226.97 341.57" class="st9"/>
		</g>
		<g id="shape1410-43" transform="translate(415.616,55.5534) rotate(90)">
			<title>Sheet.1410</title>
			<path d="M0 341.57 L226.97 341.57" class="st9"/>
		</g>
		<g id="shape1411-46" transform="translate(367.323,199.692) rotate(116.173)">
			<title>Sheet.1411</title>
			<path d="M-0 326.78 A95.705 47.9497 -11 0 0 128.55 326.78" class="st9"/>
		</g>
		<g id="shape1412-49" transform="translate(-230.471,437.23) rotate(-116.932)">
			<title>Sheet.1412</title>
			<path d="M0 341.57 A95.0598 61.8729 19.61 0 1 125.18 341.57" class="st9"/>
		</g>
		<g id="shape1413-52" transform="translate(943.228,-103.436) rotate(62.2408)">
			<title>Sheet.1413</title>
			<path d="M-0 341.57 A91.8868 57.0039 17.19 0 1 121.73 341.57" class="st9"/>
		</g>
		<g id="shape1414-55" transform="translate(347.312,143.012) rotate(-64.5733)">
			<title>Sheet.1414</title>
			<path d="M-0 325.16 A98.6247 53.0395 -12.53 0 0 132.04 325.16" class="st9"/>
		</g>
		<g id="shape1415-58" transform="translate(74.0439,-285.916)">
			<title>Sheet.1415</title>
			<path d="M0 341.57 L566.93 341.57" class="st9"/>
		</g>
		<g id="shape1416-61" transform="translate(74.0439,-59.144)">
			<title>Sheet.1416</title>
			<path d="M0 341.57 L566.93 341.57" class="st9"/>
		</g>
		<g id="group1417-64" transform="translate(313.119,-165.065)">
			<title>Sheet.1417</title>
			<g id="shape1418-65" transform="translate(2.14165,1.13687E-13)">
				<title>Sheet.1418</title>
				<desc>1</desc>
				<rect x="0" y="327.393" width="85.0394" height="14.1732" class="st10"/>
				<text x="40.24" y="337.48" class="st11">1</text>			</g>
			<g id="shape1419-68" transform="translate(0,-4.47576)">
				<title>Sheet.1419</title>
				<desc>A</desc>
				<rect x="0" y="327.393" width="13.2348" height="14.1732" class="st12"/>
				<text x="4" y="341.08" class="st13"><tspan class="st14">A</tspan></text>			</g>
		</g>
	</g>
</svg>
