<?xml version="1.0" encoding="UTF-8" standalone="no"?>
<!DOCTYPE svg PUBLIC "-//W3C//DTD SVG 1.1//EN" "http://www.w3.org/Graphics/SVG/1.1/DTD/svg11.dtd">
<!-- Generated by Microsoft Visio, SVG Export PT003A_Detail.svg Page-1 -->
<svg xmlns="http://www.w3.org/2000/svg" xmlns:xlink="http://www.w3.org/1999/xlink" xmlns:ev="http://www.w3.org/2001/xml-events"
		width="7.71769in" height="11.3024in" viewBox="0 0 555.674 813.776" xml:space="preserve" color-interpolation-filters="sRGB"
		class="st17">
	<title>PT003A</title>

	<style type="text/css">
	<![CDATA[
		.st1 {stroke:#d8d8d8;stroke-linecap:round;stroke-linejoin:round;stroke-width:0.25}
		.st2 {stroke:#7f7f7f;stroke-linecap:round;stroke-linejoin:round;stroke-width:0.25}
		.st3 {fill:#ffffff;stroke:#ff0000;stroke-linecap:round;stroke-linejoin:round;stroke-width:2.25}
		.st4 {fill:none;stroke:#ff0000;stroke-linecap:round;stroke-linejoin:round;stroke-width:0.75}
		.st5 {fill:#ff0000;font-family:Arial Narrow;font-size:0.833336em;font-weight:bold}
		.st6 {fill:none;stroke:none;stroke-linecap:round;stroke-linejoin:round;stroke-width:0.75}
		.st7 {fill:#ff0000;font-family:Arial Narrow;font-size:0.811964em;font-weight:bold}
		.st8 {baseline-shift:33.35%;font-size:0.667em}
		.st9 {fill:#ffffff}
		.st10 {stroke:#000000;stroke-linecap:round;stroke-linejoin:round;stroke-width:0.24}
		.st11 {marker-end:url(#mrkr13-303);stroke:#000000;stroke-linecap:round;stroke-linejoin:round;stroke-width:0.24}
		.st12 {fill:#000000;fill-opacity:1;stroke:#000000;stroke-opacity:1;stroke-width:0.11764705882353}
		.st13 {fill:#ffffff;stroke:none;stroke-linecap:butt;stroke-width:7.2}
		.st14 {fill:#000000;font-family:Calibri;font-size:0.666664em}
		.st15 {stroke:#000000;stroke-linecap:round;stroke-linejoin:round;stroke-width:2.25}
		.st16 {stroke:#000000;stroke-dasharray:15.75,11.25;stroke-linecap:round;stroke-linejoin:round;stroke-width:2.25}
		.st17 {fill:none;fill-rule:evenodd;font-size:12px;overflow:visible;stroke-linecap:square;stroke-miterlimit:3}
	]]>
	</style>

	<defs id="Markers">
		<g id="lend13">
			<path d="M 3 1 L 0 0 L 3 -1 L 3 1 " style="stroke:none"/>
		</g>
		<marker id="mrkr13-303" class="st12" refX="-25.5" orient="auto" markerUnits="strokeWidth" overflow="visible">
			<use xlink:href="#lend13" transform="scale(-8.5000000000001,-8.5000000000001) "/>
		</marker>
	</defs>
	<g>
		<title>Page-1</title>
		<g id="group1420-1" transform="translate(0.125006,-0.12503)">
			<title>Sheet.1420</title>
			<g id="shape1309-2" transform="translate(555.424,862.133) rotate(180)">
				<title>Sheet.1309</title>
				<path d="M0 813.78 L555.42 813.78" class="st1"/>
			</g>
			<g id="shape1310-5" transform="translate(555.424,890.479) rotate(180)">
				<title>Sheet.1310</title>
				<path d="M0 813.78 L555.42 813.78" class="st2"/>
			</g>
			<g id="shape1311-8" transform="translate(555.424,904.653) rotate(180)">
				<title>Sheet.1311</title>
				<path d="M0 813.78 L555.42 813.78" class="st1"/>
			</g>
			<g id="shape1312-11" transform="translate(555.424,918.826) rotate(180)">
				<title>Sheet.1312</title>
				<path d="M0 813.78 L555.42 813.78" class="st1"/>
			</g>
			<g id="shape1313-14" transform="translate(555.424,932.999) rotate(180)">
				<title>Sheet.1313</title>
				<path d="M0 813.78 L555.42 813.78" class="st1"/>
			</g>
			<g id="shape1314-17" transform="translate(555.424,876.306) rotate(180)">
				<title>Sheet.1314</title>
				<path d="M0 813.78 L555.42 813.78" class="st1"/>
			</g>
			<g id="shape1315-20" transform="translate(555.424,947.172) rotate(180)">
				<title>Sheet.1315</title>
				<path d="M0 813.78 L555.42 813.78" class="st1"/>
			</g>
			<g id="shape1316-23" transform="translate(555.424,961.345) rotate(180)">
				<title>Sheet.1316</title>
				<path d="M0 813.78 L555.42 813.78" class="st2"/>
			</g>
			<g id="shape1317-26" transform="translate(555.424,975.519) rotate(180)">
				<title>Sheet.1317</title>
				<path d="M0 813.78 L555.42 813.78" class="st1"/>
			</g>
			<g id="shape1318-29" transform="translate(555.424,989.692) rotate(180)">
				<title>Sheet.1318</title>
				<path d="M0 813.78 L555.42 813.78" class="st1"/>
			</g>
			<g id="shape1319-32" transform="translate(555.424,1018.04) rotate(180)">
				<title>Sheet.1319</title>
				<path d="M0 813.78 L555.42 813.78" class="st1"/>
			</g>
			<g id="shape1320-35" transform="translate(555.424,1032.21) rotate(180)">
				<title>Sheet.1320</title>
				<path d="M0 813.78 L555.42 813.78" class="st2"/>
			</g>
			<g id="shape1321-38" transform="translate(555.424,1046.38) rotate(180)">
				<title>Sheet.1321</title>
				<path d="M0 813.78 L555.42 813.78" class="st1"/>
			</g>
			<g id="shape1322-41" transform="translate(555.424,1060.56) rotate(180)">
				<title>Sheet.1322</title>
				<path d="M0 813.78 L555.42 813.78" class="st1"/>
			</g>
			<g id="shape1323-44" transform="translate(555.424,1003.87) rotate(180)">
				<title>Sheet.1323</title>
				<path d="M0 813.78 L555.42 813.78" class="st1"/>
			</g>
			<g id="shape1324-47" transform="translate(555.424,1074.73) rotate(180)">
				<title>Sheet.1324</title>
				<path d="M0 813.78 L555.42 813.78" class="st1"/>
			</g>
			<g id="shape1325-50" transform="translate(555.424,1088.9) rotate(180)">
				<title>Sheet.1325</title>
				<path d="M0 813.78 L555.42 813.78" class="st1"/>
			</g>
			<g id="shape1326-53" transform="translate(555.424,1103.08) rotate(180)">
				<title>Sheet.1326</title>
				<path d="M0 813.78 L555.42 813.78" class="st2"/>
			</g>
			<g id="shape1327-56" transform="translate(555.424,1117.25) rotate(180)">
				<title>Sheet.1327</title>
				<path d="M0 813.78 L555.42 813.78" class="st1"/>
			</g>
			<g id="shape1328-59" transform="translate(555.424,1145.6) rotate(180)">
				<title>Sheet.1328</title>
				<path d="M0 813.78 L555.42 813.78" class="st1"/>
			</g>
			<g id="shape1329-62" transform="translate(555.424,1159.77) rotate(180)">
				<title>Sheet.1329</title>
				<path d="M0 813.78 L555.42 813.78" class="st1"/>
			</g>
			<g id="shape1330-65" transform="translate(555.424,1173.94) rotate(180)">
				<title>Sheet.1330</title>
				<path d="M0 813.78 L555.42 813.78" class="st2"/>
			</g>
			<g id="shape1331-68" transform="translate(555.424,1188.12) rotate(180)">
				<title>Sheet.1331</title>
				<path d="M0 813.78 L555.42 813.78" class="st1"/>
			</g>
			<g id="shape1332-71" transform="translate(555.424,1131.42) rotate(180)">
				<title>Sheet.1332</title>
				<path d="M0 813.78 L555.42 813.78" class="st1"/>
			</g>
			<g id="shape1333-74" transform="translate(555.424,1202.29) rotate(180)">
				<title>Sheet.1333</title>
				<path d="M0 813.78 L555.42 813.78" class="st1"/>
			</g>
			<g id="shape1334-77" transform="translate(555.424,1216.46) rotate(180)">
				<title>Sheet.1334</title>
				<path d="M0 813.78 L555.42 813.78" class="st1"/>
			</g>
			<g id="shape1335-80" transform="translate(555.424,1230.64) rotate(180)">
				<title>Sheet.1335</title>
				<path d="M0 813.78 L555.42 813.78" class="st1"/>
			</g>
			<g id="shape1336-83" transform="translate(555.424,1244.81) rotate(180)">
				<title>Sheet.1336</title>
				<path d="M0 813.78 L555.42 813.78" class="st2"/>
			</g>
			<g id="shape1337-86" transform="translate(555.424,1273.16) rotate(180)">
				<title>Sheet.1337</title>
				<path d="M0 813.78 L555.42 813.78" class="st1"/>
			</g>
			<g id="shape1338-89" transform="translate(555.424,1287.33) rotate(180)">
				<title>Sheet.1338</title>
				<path d="M0 813.78 L555.42 813.78" class="st1"/>
			</g>
			<g id="shape1339-92" transform="translate(555.424,1301.5) rotate(180)">
				<title>Sheet.1339</title>
				<path d="M0 813.78 L555.42 813.78" class="st1"/>
			</g>
			<g id="shape1340-95" transform="translate(555.424,1315.68) rotate(180)">
				<title>Sheet.1340</title>
				<path d="M0 813.78 L555.42 813.78" class="st2"/>
			</g>
			<g id="shape1341-98" transform="translate(555.424,1258.98) rotate(180)">
				<title>Sheet.1341</title>
				<path d="M0 813.78 L555.42 813.78" class="st1"/>
			</g>
			<g id="shape1342-101" transform="translate(555.424,1329.85) rotate(180)">
				<title>Sheet.1342</title>
				<path d="M0 813.78 L555.42 813.78" class="st1"/>
			</g>
			<g id="shape1343-104" transform="translate(555.424,1344.02) rotate(180)">
				<title>Sheet.1343</title>
				<path d="M0 813.78 L555.42 813.78" class="st1"/>
			</g>
			<g id="shape1344-107" transform="translate(555.424,1358.2) rotate(180)">
				<title>Sheet.1344</title>
				<path d="M0 813.78 L555.42 813.78" class="st1"/>
			</g>
			<g id="shape1345-110" transform="translate(555.424,1372.37) rotate(180)">
				<title>Sheet.1345</title>
				<path d="M0 813.78 L555.42 813.78" class="st1"/>
			</g>
			<g id="shape1346-113" transform="translate(555.424,1400.72) rotate(180)">
				<title>Sheet.1346</title>
				<path d="M0 813.78 L555.42 813.78" class="st1"/>
			</g>
			<g id="shape1347-116" transform="translate(555.424,1414.89) rotate(180)">
				<title>Sheet.1347</title>
				<path d="M0 813.78 L555.42 813.78" class="st1"/>
			</g>
			<g id="shape1348-119" transform="translate(555.424,1429.06) rotate(180)">
				<title>Sheet.1348</title>
				<path d="M0 813.78 L555.42 813.78" class="st1"/>
			</g>
			<g id="shape1349-122" transform="translate(555.424,1443.24) rotate(180)">
				<title>Sheet.1349</title>
				<path d="M0 813.78 L555.42 813.78" class="st1"/>
			</g>
			<g id="shape1350-125" transform="translate(555.424,1386.54) rotate(180)">
				<title>Sheet.1350</title>
				<path d="M0 813.78 L555.42 813.78" class="st2"/>
			</g>
			<g id="shape1351-128" transform="translate(555.424,1457.41) rotate(180)">
				<title>Sheet.1351</title>
				<path d="M0 813.78 L555.42 813.78" class="st2"/>
			</g>
			<g id="shape1352-131" transform="translate(555.424,1471.58) rotate(180)">
				<title>Sheet.1352</title>
				<path d="M0 813.78 L555.42 813.78" class="st1"/>
			</g>
			<g id="shape1353-134" transform="translate(555.424,1485.75) rotate(180)">
				<title>Sheet.1353</title>
				<path d="M0 813.78 L555.42 813.78" class="st1"/>
			</g>
			<g id="shape1354-137" transform="translate(555.424,1499.93) rotate(180)">
				<title>Sheet.1354</title>
				<path d="M0 813.78 L555.42 813.78" class="st1"/>
			</g>
			<g id="shape1355-140" transform="translate(555.424,1528.27) rotate(180)">
				<title>Sheet.1355</title>
				<path d="M0 813.78 L555.42 813.78" class="st2"/>
			</g>
			<g id="shape1356-143" transform="translate(555.424,1542.45) rotate(180)">
				<title>Sheet.1356</title>
				<path d="M0 813.78 L555.42 813.78" class="st1"/>
			</g>
			<g id="shape1357-146" transform="translate(555.424,1556.62) rotate(180)">
				<title>Sheet.1357</title>
				<path d="M0 813.78 L555.42 813.78" class="st1"/>
			</g>
			<g id="shape1358-149" transform="translate(555.424,1570.79) rotate(180)">
				<title>Sheet.1358</title>
				<path d="M0 813.78 L555.42 813.78" class="st1"/>
			</g>
			<g id="shape1359-152" transform="translate(555.424,1514.1) rotate(180)">
				<title>Sheet.1359</title>
				<path d="M0 813.78 L555.42 813.78" class="st1"/>
			</g>
			<g id="shape1360-155" transform="translate(555.424,1584.97) rotate(180)">
				<title>Sheet.1360</title>
				<path d="M0 813.78 L555.42 813.78" class="st1"/>
			</g>
			<g id="shape1361-158" transform="translate(555.424,1599.14) rotate(180)">
				<title>Sheet.1361</title>
				<path d="M0 813.78 L555.42 813.78" class="st2"/>
			</g>
			<g id="shape1362-161" transform="translate(865.799,0.25003) rotate(90)">
				<title>Sheet.1362</title>
				<path d="M0 813.78 L810.85 813.78" class="st2"/>
			</g>
			<g id="shape1363-164" transform="translate(879.973,1.24343) rotate(90)">
				<title>Sheet.1363</title>
				<path d="M0 813.78 L809.86 813.78" class="st1"/>
			</g>
			<g id="shape1364-167" transform="translate(894.146,1.24343) rotate(90)">
				<title>Sheet.1364</title>
				<path d="M0 813.78 L809.86 813.78" class="st1"/>
			</g>
			<g id="shape1365-170" transform="translate(908.319,1.24343) rotate(90)">
				<title>Sheet.1365</title>
				<path d="M0 813.78 L809.86 813.78" class="st1"/>
			</g>
			<g id="shape1366-173" transform="translate(936.666,0.25003) rotate(90)">
				<title>Sheet.1366</title>
				<path d="M0 813.78 L810.85 813.78" class="st2"/>
			</g>
			<g id="shape1367-176" transform="translate(950.839,1.24343) rotate(90)">
				<title>Sheet.1367</title>
				<path d="M0 813.78 L809.86 813.78" class="st1"/>
			</g>
			<g id="shape1368-179" transform="translate(965.012,1.24343) rotate(90)">
				<title>Sheet.1368</title>
				<path d="M0 813.78 L809.86 813.78" class="st1"/>
			</g>
			<g id="shape1369-182" transform="translate(979.185,1.24343) rotate(90)">
				<title>Sheet.1369</title>
				<path d="M0 813.78 L809.86 813.78" class="st1"/>
			</g>
			<g id="shape1370-185" transform="translate(922.492,1.24343) rotate(90)">
				<title>Sheet.1370</title>
				<path d="M0 813.78 L809.86 813.78" class="st1"/>
			</g>
			<g id="shape1371-188" transform="translate(993.359,1.24343) rotate(90)">
				<title>Sheet.1371</title>
				<path d="M0 813.78 L809.86 813.78" class="st1"/>
			</g>
			<g id="shape1372-191" transform="translate(1007.53,0.25003) rotate(90)">
				<title>Sheet.1372</title>
				<path d="M0 813.78 L810.85 813.78" class="st2"/>
			</g>
			<g id="shape1373-194" transform="translate(1021.7,1.24343) rotate(90)">
				<title>Sheet.1373</title>
				<path d="M0 813.78 L809.86 813.78" class="st1"/>
			</g>
			<g id="shape1374-197" transform="translate(1035.88,1.24343) rotate(90)">
				<title>Sheet.1374</title>
				<path d="M0 813.78 L809.86 813.78" class="st1"/>
			</g>
			<g id="shape1375-200" transform="translate(1064.22,1.24343) rotate(90)">
				<title>Sheet.1375</title>
				<path d="M0 813.78 L809.86 813.78" class="st1"/>
			</g>
			<g id="shape1376-203" transform="translate(1078.4,0.25003) rotate(90)">
				<title>Sheet.1376</title>
				<path d="M0 813.78 L810.85 813.78" class="st2"/>
			</g>
			<g id="shape1377-206" transform="translate(1092.57,1.24343) rotate(90)">
				<title>Sheet.1377</title>
				<path d="M0 813.78 L809.86 813.78" class="st1"/>
			</g>
			<g id="shape1378-209" transform="translate(1106.84,3.91898) rotate(90)">
				<title>Sheet.1378</title>
				<path d="M0 813.78 L809.86 813.78" class="st1"/>
			</g>
			<g id="shape1379-212" transform="translate(1050.05,1.24343) rotate(90)">
				<title>Sheet.1379</title>
				<path d="M0 813.78 L809.86 813.78" class="st1"/>
			</g>
			<g id="shape1380-215" transform="translate(1120.92,1.24343) rotate(90)">
				<title>Sheet.1380</title>
				<path d="M0 813.78 L809.86 813.78" class="st1"/>
			</g>
			<g id="shape1381-218" transform="translate(1135.09,1.24343) rotate(90)">
				<title>Sheet.1381</title>
				<path d="M0 813.78 L809.86 813.78" class="st1"/>
			</g>
			<g id="shape1382-221" transform="translate(1149.26,0.25003) rotate(90)">
				<title>Sheet.1382</title>
				<path d="M0 813.78 L810.85 813.78" class="st2"/>
			</g>
			<g id="shape1383-224" transform="translate(1163.44,1.24343) rotate(90)">
				<title>Sheet.1383</title>
				<path d="M0 813.78 L809.86 813.78" class="st1"/>
			</g>
			<g id="shape1384-227" transform="translate(1191.78,1.24343) rotate(90)">
				<title>Sheet.1384</title>
				<path d="M0 813.78 L809.86 813.78" class="st1"/>
			</g>
			<g id="shape1385-230" transform="translate(1205.96,1.24343) rotate(90)">
				<title>Sheet.1385</title>
				<path d="M0 813.78 L809.86 813.78" class="st1"/>
			</g>
			<g id="shape1386-233" transform="translate(1220.13,0.25003) rotate(90)">
				<title>Sheet.1386</title>
				<path d="M0 813.78 L810.85 813.78" class="st2"/>
			</g>
			<g id="shape1387-236" transform="translate(1234.3,1.24343) rotate(90)">
				<title>Sheet.1387</title>
				<path d="M0 813.78 L809.86 813.78" class="st1"/>
			</g>
			<g id="shape1388-239" transform="translate(1177.61,1.24343) rotate(90)">
				<title>Sheet.1388</title>
				<path d="M0 813.78 L809.86 813.78" class="st1"/>
			</g>
			<g id="shape1389-242" transform="translate(1248.48,1.24343) rotate(90)">
				<title>Sheet.1389</title>
				<path d="M0 813.78 L809.86 813.78" class="st1"/>
			</g>
			<g id="shape1390-245" transform="translate(1262.65,1.24343) rotate(90)">
				<title>Sheet.1390</title>
				<path d="M0 813.78 L809.86 813.78" class="st1"/>
			</g>
			<g id="shape1391-248" transform="translate(1276.82,1.24343) rotate(90)">
				<title>Sheet.1391</title>
				<path d="M0 813.78 L809.86 813.78" class="st1"/>
			</g>
			<g id="shape1392-251" transform="translate(1333.61,3.42147) rotate(90)">
				<title>Sheet.1392</title>
				<path d="M0 813.78 L807.68 813.78" class="st1"/>
			</g>
			<g id="shape1393-254" transform="translate(1319.34,1.24343) rotate(90)">
				<title>Sheet.1393</title>
				<path d="M0 813.78 L809.86 813.78" class="st1"/>
			</g>
			<g id="shape1394-257" transform="translate(1361.86,1.67606) rotate(90)">
				<title>Sheet.1394</title>
				<path d="M0 813.78 L809.42 813.78" class="st2"/>
			</g>
			<g id="shape1395-260" transform="translate(1305.17,1.24343) rotate(90)">
				<title>Sheet.1395</title>
				<path d="M0 813.78 L809.86 813.78" class="st1"/>
			</g>
			<g id="shape1396-263" transform="translate(823.28,1.24343) rotate(90)">
				<title>Sheet.1396</title>
				<path d="M0 813.78 L809.86 813.78" class="st1"/>
			</g>
			<g id="shape1397-266" transform="translate(837.453,1.24343) rotate(90)">
				<title>Sheet.1397</title>
				<path d="M0 813.78 L809.86 813.78" class="st1"/>
			</g>
			<g id="shape1398-269" transform="translate(851.626,1.24343) rotate(90)">
				<title>Sheet.1398</title>
				<path d="M0 813.78 L809.86 813.78" class="st1"/>
			</g>
			<g id="shape1399-272" transform="translate(1291.84,0.25003) rotate(90)">
				<title>Sheet.1399</title>
				<path d="M0 813.78 L810.85 813.78" class="st2"/>
			</g>
			<g id="shape1400-275" transform="translate(555.424,833.786) rotate(180)">
				<title>Sheet.1400</title>
				<path d="M0 813.78 L555.42 813.78" class="st1"/>
			</g>
			<g id="shape1401-278" transform="translate(555.424,847.96) rotate(180)">
				<title>Sheet.1401</title>
				<path d="M0 813.78 L555.42 813.78" class="st1"/>
			</g>
			<g id="shape1402-281" transform="translate(555.424,1613.31) rotate(180)">
				<title>Sheet.1402</title>
				<path d="M0 813.78 L555.42 813.78" class="st1"/>
			</g>
			<g id="shape1403-284" transform="translate(1347.79,1.24343) rotate(90)">
				<title>Sheet.1403</title>
				<path d="M0 813.78 L809.86 813.78" class="st1"/>
			</g>
		</g>
		<g id="shape1405-287" transform="translate(260.878,-396.976) rotate(0.2)">
			<title>Circle.1508</title>
			<path d="M0 807.21 A6.56444 6.56444 0 0 1 13.13 807.21 A6.56444 6.56444 0 1 1 0 807.21 Z" class="st3"/>
		</g>
		<g id="group1410-289" transform="translate(221.034,-396.958)">
			<title>Sheet.1410</title>
			<g id="shape1411-290" transform="translate(2.14165,1.13687E-13)">
				<title>Sheet.1411</title>
				<desc>1</desc>
				<rect x="0" y="799.603" width="85.0394" height="14.1732" class="st4"/>
				<text x="40.24" y="809.69" class="st5">1</text>			</g>
			<g id="shape1412-293" transform="translate(0,-4.47576)">
				<title>Sheet.1412</title>
				<desc>A</desc>
				<rect x="0" y="799.603" width="13.2348" height="14.1732" class="st6"/>
				<text x="4" y="813.29" class="st7"><tspan class="st8">A</tspan></text>			</g>
		</g>
		<g id="shape1417-297" transform="translate(138.078,-751.371)">
			<title>Horizontal</title>
			<desc>32mm</desc>
			<path d="M0 785.93 L0 809.78 L0 785.93 ZM225.76 785.93 L225.76 809.78 L225.76 785.93 Z" class="st9"/>
			<path d="M0 785.93 L0 809.78 L0 785.93" class="st10"/>
			<path d="M225.76 785.93 L225.76 809.78 L225.76 785.93" class="st10"/>
			<path d="M112.88 793.93 L6.12 793.93" class="st11"/>
			<path d="M112.88 793.93 L219.64 793.93" class="st11"/>
			<rect x="102.434" y="782.332" width="20.8905" height="9.59985" class="st13"/>
			<text x="102.43" y="789.53" class="st14">32mm</text>		</g>
		<g id="shape1418-310" transform="translate(-376.805,742.93) rotate(-90)">
			<title>Vertical</title>
			<desc>96mm</desc>
			<path d="M0 785.93 L0 809.78 L0 785.93 ZM680.53 785.93 L680.53 807.51 L680.53 785.93 Z" class="st9"/>
			<path d="M0 785.93 L0 809.78 L0 785.93" class="st10"/>
			<path d="M680.53 785.93 L680.53 807.51 L680.53 785.93" class="st10"/>
			<path d="M340.26 793.93 L6.12 793.93" class="st11"/>
			<path d="M340.26 793.93 L674.41 793.93" class="st11"/>
			<rect x="329.817" y="782.332" width="20.8905" height="9.59985" class="st13"/>
			<text x="329.82" y="789.53" class="st14">96mm</text>		</g>
		<g id="shape1419-322" transform="translate(-697.568,687.065) rotate(-90)">
			<title>Vertical.1528</title>
			<desc>80mm</desc>
			<path d="M0 785.93 L0 809.78 L0 785.93 ZM567.89 785.93 L567.89 802.29 L567.89 785.93 Z" class="st9"/>
			<path d="M0 785.93 L0 809.78 L0 785.93" class="st10"/>
			<path d="M567.89 785.93 L567.89 802.29 L567.89 785.93" class="st10"/>
			<path d="M283.94 793.93 L6.12 793.93" class="st11"/>
			<path d="M283.94 793.93 L561.77 793.93" class="st11"/>
			<rect x="273.497" y="782.332" width="20.8905" height="9.59985" class="st13"/>
			<text x="273.5" y="789.53" class="st14">80mm</text>		</g>
		<g id="group1437-334" transform="translate(137.066,-68.9493)">
			<title>Sheet.1437</title>
			<g id="group1425-335" transform="translate(0.0509004,0)">
				<title>Sheet.1425</title>
				<g id="shape1426-336" transform="translate(1040.75,188.475) rotate(90)">
					<title>Sheet.1426</title>
					<path d="M0 813.78 L566.93 813.78" class="st15"/>
				</g>
				<g id="group1427-339">
					<title>Sheet.1427</title>
					<g id="shape1428-340" transform="translate(226.97,1569.04) rotate(180)">
						<title>Sheet.1428</title>
						<path d="M0 813.78 L226.97 813.78" class="st15"/>
					</g>
					<g id="shape1429-343" transform="translate(227.067,1002.12) rotate(180)">
						<title>Sheet.1429</title>
						<path d="M0 813.78 L226.97 813.78" class="st15"/>
					</g>
					<g id="shape1430-346" transform="translate(813.974,188.339) rotate(90)">
						<title>Sheet.1430</title>
						<path d="M0 813.78 L566.93 813.78" class="st15"/>
					</g>
					<g id="shape1431-349" transform="translate(-378.989,-533.032) rotate(-27.7592)">
						<title>Sheet.1431</title>
						<path d="M-0 813.78 A91.8868 57.0039 17.19 0 1 121.73 813.78" class="st15"/>
					</g>
					<g id="shape1432-352" transform="translate(-115.353,907.219) rotate(-154.573)">
						<title>Sheet.1432</title>
						<path d="M-0 797.37 A98.6247 53.0395 -12.53 0 0 132.04 797.37" class="st15"/>
					</g>
					<g id="shape1433-355" transform="translate(606.023,1477.18) rotate(152.241)">
						<title>Sheet.1433</title>
						<path d="M-0 813.78 A91.8868 57.0039 17.19 0 1 121.73 813.78" class="st15"/>
					</g>
					<g id="shape1434-358" transform="translate(342.386,36.925) rotate(25.4267)">
						<title>Sheet.1434</title>
						<path d="M-0 797.37 A98.6247 53.0395 -12.53 0 0 132.04 797.37" class="st15"/>
					</g>
				</g>
			</g>
			<g id="shape1435-361" transform="translate(-0.174036,-491.001) rotate(-0.0208439)">
				<title>Sheet.1435</title>
				<path d="M0 813.78 L226.52 813.78" class="st16"/>
			</g>
			<g id="shape1436-364" transform="translate(-0.296048,-208.631) rotate(-0.0208439)">
				<title>Sheet.1436</title>
				<path d="M0 813.78 L226.52 813.78" class="st16"/>
			</g>
		</g>
	</g>
</svg>
