<?xml version="1.0" encoding="UTF-8" standalone="no"?>
<!DOCTYPE svg PUBLIC "-//W3C//DTD SVG 1.1//EN" "http://www.w3.org/Graphics/SVG/1.1/DTD/svg11.dtd">
<!-- Generated by Microsoft Visio, SVG Export PT007A.svg Page-1 -->
<svg xmlns="http://www.w3.org/2000/svg" xmlns:xlink="http://www.w3.org/1999/xlink" xmlns:ev="http://www.w3.org/2001/xml-events"
		width="0.818652in" height="3.96803in" viewBox="0 0 58.9429 285.699" xml:space="preserve" color-interpolation-filters="sRGB"
		class="st3">
	<title>PT007A</title>

	<style type="text/css">
	<![CDATA[
		.st1 {fill:none}
		.st2 {stroke:#000000;stroke-linecap:round;stroke-linejoin:round;stroke-width:2.25}
		.st3 {fill:none;fill-rule:evenodd;font-size:12px;overflow:visible;stroke-linecap:square;stroke-miterlimit:3}
	]]>
	</style>

	<g>
		<title>Page-1</title>
		<g id="group1420-1" transform="translate(1.125,-1.12501)">
			<title>STPT007.50</title>
			<g id="shape1421-2" transform="translate(2.83773E-13,-233.846)">
				<title>Sheet.1421</title>
				<path d="M56.69 285.7 A28.3444 14.1722 0 1 0 -0 285.7 L56.69 285.7 Z" class="st1"/>
				<path d="M56.69 285.7 A28.3444 14.1722 0 1 0 -0 285.7" class="st2"/>
			</g>
			<g id="shape1422-5" transform="translate(14.1722,-269.276)">
				<title>Sheet.1422</title>
				<path d="M28.34 285.7 A14.1722 14.1722 -180 0 0 -0 285.7 L28.34 285.7 Z" class="st1"/>
				<path d="M28.34 285.7 A14.1722 14.1722 -180 0 0 -0 285.7" class="st2"/>
			</g>
			<g id="shape1423-8" transform="translate(299.875,16.4262) rotate(90)">
				<title>Sheet.1423</title>
				<path d="M0 285.7 L23.16 285.7" class="st2"/>
			</g>
			<g id="shape1424-11" transform="translate(328.219,16.4262) rotate(90)">
				<title>Sheet.1424</title>
				<path d="M0 285.7 L23.16 285.7" class="st2"/>
			</g>
			<g id="shape1425-14" transform="translate(0.00401732,0)">
				<title>Sheet.1425</title>
				<path d="M0 285.7 L56.69 285.7" class="st2"/>
			</g>
			<g id="shape1426-17" transform="translate(-229.006,285.699) rotate(-90)">
				<title>Sheet.1426</title>
				<path d="M0 285.7 L233.84 285.7" class="st2"/>
			</g>
			<g id="shape1427-20" transform="translate(285.703,51.8568) rotate(90)">
				<title>Sheet.1427</title>
				<path d="M0 285.7 L233.84 285.7" class="st2"/>
			</g>
		</g>
	</g>
</svg>
