<?xml version="1.0" encoding="UTF-8" standalone="no"?>
<!DOCTYPE svg PUBLIC "-//W3C//DTD SVG 1.1//EN" "http://www.w3.org/Graphics/SVG/1.1/DTD/svg11.dtd">
<!-- Generated by Microsoft Visio, SVG Export PT002A_Detail.svg Page-1 -->
<svg xmlns="http://www.w3.org/2000/svg" xmlns:xlink="http://www.w3.org/1999/xlink" xmlns:ev="http://www.w3.org/2001/xml-events"
		width="7.71769in" height="11.1719in" viewBox="0 0 555.674 804.377" xml:space="preserve" color-interpolation-filters="sRGB"
		class="st16">
	<title>PT002A</title>

	<style type="text/css">
	<![CDATA[
		.st1 {stroke:#7f7f7f;stroke-linecap:round;stroke-linejoin:round;stroke-width:0.25}
		.st2 {stroke:#d8d8d8;stroke-linecap:round;stroke-linejoin:round;stroke-width:0.25}
		.st3 {fill:#ffffff;stroke:#ff0000;stroke-linecap:round;stroke-linejoin:round;stroke-width:2.25}
		.st4 {stroke:#000000;stroke-linecap:round;stroke-linejoin:round;stroke-width:2.25}
		.st5 {fill:none;stroke:#ff0000;stroke-linecap:round;stroke-linejoin:round;stroke-width:0.75}
		.st6 {fill:#ff0000;font-family:Arial Narrow;font-size:0.833336em;font-weight:bold}
		.st7 {fill:none;stroke:none;stroke-linecap:round;stroke-linejoin:round;stroke-width:0.75}
		.st8 {fill:#ff0000;font-family:Arial Narrow;font-size:0.811964em;font-weight:bold}
		.st9 {baseline-shift:33.35%;font-size:0.667em}
		.st10 {fill:#ffffff}
		.st11 {stroke:#000000;stroke-linecap:round;stroke-linejoin:round;stroke-width:0.24}
		.st12 {marker-end:url(#mrkr13-327);stroke:#000000;stroke-linecap:round;stroke-linejoin:round;stroke-width:0.24}
		.st13 {fill:#000000;fill-opacity:1;stroke:#000000;stroke-opacity:1;stroke-width:0.11764705882353}
		.st14 {fill:#ffffff;stroke:none;stroke-linecap:butt;stroke-width:7.2}
		.st15 {fill:#000000;font-family:Calibri;font-size:0.666664em}
		.st16 {fill:none;fill-rule:evenodd;font-size:12px;overflow:visible;stroke-linecap:square;stroke-miterlimit:3}
	]]>
	</style>

	<defs id="Markers">
		<g id="lend13">
			<path d="M 3 1 L 0 0 L 3 -1 L 3 1 " style="stroke:none"/>
		</g>
		<marker id="mrkr13-327" class="st13" refX="-25.5" orient="auto" markerUnits="strokeWidth" overflow="visible">
			<use xlink:href="#lend13" transform="scale(-8.5000000000001,-8.5000000000001) "/>
		</marker>
	</defs>
	<g>
		<title>Page-1</title>
		<g id="group1404-1" transform="translate(804.502,0.125) rotate(90)">
			<title>Sheet.1404</title>
			<g id="shape1394-2" transform="translate(1.40955,-548.086)">
				<title>Sheet.1394</title>
				<path d="M0 804.38 L800.07 804.38" class="st1"/>
			</g>
			<g id="shape1309-5" transform="translate(843.085,248.953) rotate(90)">
				<title>Sheet.1309</title>
				<path d="M0 804.38 L555.42 804.38" class="st2"/>
			</g>
			<g id="shape1310-8" transform="translate(871.431,248.953) rotate(90)">
				<title>Sheet.1310</title>
				<path d="M0 804.38 L555.42 804.38" class="st1"/>
			</g>
			<g id="shape1311-11" transform="translate(885.604,248.953) rotate(90)">
				<title>Sheet.1311</title>
				<path d="M0 804.38 L555.42 804.38" class="st2"/>
			</g>
			<g id="shape1312-14" transform="translate(899.778,248.953) rotate(90)">
				<title>Sheet.1312</title>
				<path d="M0 804.38 L555.42 804.38" class="st2"/>
			</g>
			<g id="shape1313-17" transform="translate(913.951,248.953) rotate(90)">
				<title>Sheet.1313</title>
				<path d="M0 804.38 L555.42 804.38" class="st2"/>
			</g>
			<g id="shape1314-20" transform="translate(857.258,248.953) rotate(90)">
				<title>Sheet.1314</title>
				<path d="M0 804.38 L555.42 804.38" class="st2"/>
			</g>
			<g id="shape1315-23" transform="translate(928.124,248.953) rotate(90)">
				<title>Sheet.1315</title>
				<path d="M0 804.38 L555.42 804.38" class="st2"/>
			</g>
			<g id="shape1316-26" transform="translate(942.297,248.953) rotate(90)">
				<title>Sheet.1316</title>
				<path d="M0 804.38 L555.42 804.38" class="st1"/>
			</g>
			<g id="shape1317-29" transform="translate(956.47,248.953) rotate(90)">
				<title>Sheet.1317</title>
				<path d="M0 804.38 L555.42 804.38" class="st2"/>
			</g>
			<g id="shape1318-32" transform="translate(970.644,248.953) rotate(90)">
				<title>Sheet.1318</title>
				<path d="M0 804.38 L555.42 804.38" class="st2"/>
			</g>
			<g id="shape1319-35" transform="translate(998.99,248.953) rotate(90)">
				<title>Sheet.1319</title>
				<path d="M0 804.38 L555.42 804.38" class="st2"/>
			</g>
			<g id="shape1320-38" transform="translate(1013.16,248.953) rotate(90)">
				<title>Sheet.1320</title>
				<path d="M0 804.38 L555.42 804.38" class="st1"/>
			</g>
			<g id="shape1321-41" transform="translate(1027.34,248.953) rotate(90)">
				<title>Sheet.1321</title>
				<path d="M0 804.38 L555.42 804.38" class="st2"/>
			</g>
			<g id="shape1322-44" transform="translate(1041.51,248.953) rotate(90)">
				<title>Sheet.1322</title>
				<path d="M0 804.38 L555.42 804.38" class="st2"/>
			</g>
			<g id="shape1323-47" transform="translate(984.817,248.953) rotate(90)">
				<title>Sheet.1323</title>
				<path d="M0 804.38 L555.42 804.38" class="st2"/>
			</g>
			<g id="shape1324-50" transform="translate(1055.68,248.953) rotate(90)">
				<title>Sheet.1324</title>
				<path d="M0 804.38 L555.42 804.38" class="st2"/>
			</g>
			<g id="shape1325-53" transform="translate(1069.86,248.953) rotate(90)">
				<title>Sheet.1325</title>
				<path d="M0 804.38 L555.42 804.38" class="st2"/>
			</g>
			<g id="shape1326-56" transform="translate(1084.03,248.953) rotate(90)">
				<title>Sheet.1326</title>
				<path d="M0 804.38 L555.42 804.38" class="st1"/>
			</g>
			<g id="shape1327-59" transform="translate(1098.2,248.953) rotate(90)">
				<title>Sheet.1327</title>
				<path d="M0 804.38 L555.42 804.38" class="st2"/>
			</g>
			<g id="shape1328-62" transform="translate(1126.55,248.953) rotate(90)">
				<title>Sheet.1328</title>
				<path d="M0 804.38 L555.42 804.38" class="st2"/>
			</g>
			<g id="shape1329-65" transform="translate(1140.72,248.953) rotate(90)">
				<title>Sheet.1329</title>
				<path d="M0 804.38 L555.42 804.38" class="st2"/>
			</g>
			<g id="shape1330-68" transform="translate(1154.9,248.953) rotate(90)">
				<title>Sheet.1330</title>
				<path d="M0 804.38 L555.42 804.38" class="st1"/>
			</g>
			<g id="shape1331-71" transform="translate(1169.07,248.953) rotate(90)">
				<title>Sheet.1331</title>
				<path d="M0 804.38 L555.42 804.38" class="st2"/>
			</g>
			<g id="shape1332-74" transform="translate(1112.38,248.953) rotate(90)">
				<title>Sheet.1332</title>
				<path d="M0 804.38 L555.42 804.38" class="st2"/>
			</g>
			<g id="shape1333-77" transform="translate(1183.24,248.953) rotate(90)">
				<title>Sheet.1333</title>
				<path d="M0 804.38 L555.42 804.38" class="st2"/>
			</g>
			<g id="shape1334-80" transform="translate(1197.42,248.953) rotate(90)">
				<title>Sheet.1334</title>
				<path d="M0 804.38 L555.42 804.38" class="st2"/>
			</g>
			<g id="shape1335-83" transform="translate(1211.59,248.953) rotate(90)">
				<title>Sheet.1335</title>
				<path d="M0 804.38 L555.42 804.38" class="st2"/>
			</g>
			<g id="shape1336-86" transform="translate(1225.76,248.953) rotate(90)">
				<title>Sheet.1336</title>
				<path d="M0 804.38 L555.42 804.38" class="st1"/>
			</g>
			<g id="shape1337-89" transform="translate(1254.11,248.953) rotate(90)">
				<title>Sheet.1337</title>
				<path d="M0 804.38 L555.42 804.38" class="st2"/>
			</g>
			<g id="shape1338-92" transform="translate(1268.28,248.953) rotate(90)">
				<title>Sheet.1338</title>
				<path d="M0 804.38 L555.42 804.38" class="st2"/>
			</g>
			<g id="shape1339-95" transform="translate(1282.45,248.953) rotate(90)">
				<title>Sheet.1339</title>
				<path d="M0 804.38 L555.42 804.38" class="st2"/>
			</g>
			<g id="shape1340-98" transform="translate(1296.63,248.953) rotate(90)">
				<title>Sheet.1340</title>
				<path d="M0 804.38 L555.42 804.38" class="st1"/>
			</g>
			<g id="shape1341-101" transform="translate(1239.94,248.953) rotate(90)">
				<title>Sheet.1341</title>
				<path d="M0 804.38 L555.42 804.38" class="st2"/>
			</g>
			<g id="shape1342-104" transform="translate(1310.8,248.953) rotate(90)">
				<title>Sheet.1342</title>
				<path d="M0 804.38 L555.42 804.38" class="st2"/>
			</g>
			<g id="shape1343-107" transform="translate(1324.97,248.953) rotate(90)">
				<title>Sheet.1343</title>
				<path d="M0 804.38 L555.42 804.38" class="st2"/>
			</g>
			<g id="shape1344-110" transform="translate(1339.15,248.953) rotate(90)">
				<title>Sheet.1344</title>
				<path d="M0 804.38 L555.42 804.38" class="st2"/>
			</g>
			<g id="shape1345-113" transform="translate(1353.32,248.953) rotate(90)">
				<title>Sheet.1345</title>
				<path d="M0 804.38 L555.42 804.38" class="st2"/>
			</g>
			<g id="shape1346-116" transform="translate(1381.67,248.953) rotate(90)">
				<title>Sheet.1346</title>
				<path d="M0 804.38 L555.42 804.38" class="st2"/>
			</g>
			<g id="shape1347-119" transform="translate(1395.84,248.953) rotate(90)">
				<title>Sheet.1347</title>
				<path d="M0 804.38 L555.42 804.38" class="st2"/>
			</g>
			<g id="shape1348-122" transform="translate(1410.01,248.953) rotate(90)">
				<title>Sheet.1348</title>
				<path d="M0 804.38 L555.42 804.38" class="st2"/>
			</g>
			<g id="shape1349-125" transform="translate(1424.19,248.953) rotate(90)">
				<title>Sheet.1349</title>
				<path d="M0 804.38 L555.42 804.38" class="st2"/>
			</g>
			<g id="shape1350-128" transform="translate(1367.49,248.953) rotate(90)">
				<title>Sheet.1350</title>
				<path d="M0 804.38 L555.42 804.38" class="st1"/>
			</g>
			<g id="shape1351-131" transform="translate(1438.36,248.953) rotate(90)">
				<title>Sheet.1351</title>
				<path d="M0 804.38 L555.42 804.38" class="st1"/>
			</g>
			<g id="shape1352-134" transform="translate(1452.53,248.953) rotate(90)">
				<title>Sheet.1352</title>
				<path d="M0 804.38 L555.42 804.38" class="st2"/>
			</g>
			<g id="shape1353-137" transform="translate(1466.71,248.953) rotate(90)">
				<title>Sheet.1353</title>
				<path d="M0 804.38 L555.42 804.38" class="st2"/>
			</g>
			<g id="shape1354-140" transform="translate(1480.88,248.953) rotate(90)">
				<title>Sheet.1354</title>
				<path d="M0 804.38 L555.42 804.38" class="st2"/>
			</g>
			<g id="shape1355-143" transform="translate(1509.23,248.953) rotate(90)">
				<title>Sheet.1355</title>
				<path d="M0 804.38 L555.42 804.38" class="st1"/>
			</g>
			<g id="shape1356-146" transform="translate(1523.4,248.953) rotate(90)">
				<title>Sheet.1356</title>
				<path d="M0 804.38 L555.42 804.38" class="st2"/>
			</g>
			<g id="shape1357-149" transform="translate(1537.57,248.953) rotate(90)">
				<title>Sheet.1357</title>
				<path d="M0 804.38 L555.42 804.38" class="st2"/>
			</g>
			<g id="shape1358-152" transform="translate(1551.75,248.953) rotate(90)">
				<title>Sheet.1358</title>
				<path d="M0 804.38 L555.42 804.38" class="st2"/>
			</g>
			<g id="shape1359-155" transform="translate(1495.05,248.953) rotate(90)">
				<title>Sheet.1359</title>
				<path d="M0 804.38 L555.42 804.38" class="st2"/>
			</g>
			<g id="shape1360-158" transform="translate(1565.92,248.953) rotate(90)">
				<title>Sheet.1360</title>
				<path d="M0 804.38 L555.42 804.38" class="st2"/>
			</g>
			<g id="shape1361-161" transform="translate(1580.09,248.953) rotate(90)">
				<title>Sheet.1361</title>
				<path d="M0 804.38 L555.42 804.38" class="st1"/>
			</g>
			<g id="shape1362-164" transform="translate(6.39488E-14,-52.0232)">
				<title>Sheet.1362</title>
				<path d="M0 804.38 L801.48 804.38" class="st1"/>
			</g>
			<g id="shape1363-167" transform="translate(6.39488E-14,-66.1964)">
				<title>Sheet.1363</title>
				<path d="M0 804.38 L801.48 804.38" class="st2"/>
			</g>
			<g id="shape1364-170" transform="translate(6.39488E-14,-80.3697)">
				<title>Sheet.1364</title>
				<path d="M0 804.38 L801.48 804.38" class="st2"/>
			</g>
			<g id="shape1365-173" transform="translate(0,-94.5429)">
				<title>Sheet.1365</title>
				<path d="M0 804.38 L801.48 804.38" class="st2"/>
			</g>
			<g id="shape1366-176" transform="translate(6.39488E-14,-122.889)">
				<title>Sheet.1366</title>
				<path d="M0 804.38 L801.48 804.38" class="st1"/>
			</g>
			<g id="shape1367-179" transform="translate(6.39488E-14,-137.063)">
				<title>Sheet.1367</title>
				<path d="M0 804.38 L801.48 804.38" class="st2"/>
			</g>
			<g id="shape1368-182" transform="translate(6.39488E-14,-151.236)">
				<title>Sheet.1368</title>
				<path d="M0 804.38 L801.48 804.38" class="st2"/>
			</g>
			<g id="shape1369-185" transform="translate(6.39488E-14,-165.409)">
				<title>Sheet.1369</title>
				<path d="M0 804.38 L801.48 804.38" class="st2"/>
			</g>
			<g id="shape1370-188" transform="translate(6.39488E-14,-108.716)">
				<title>Sheet.1370</title>
				<path d="M0 804.38 L801.48 804.38" class="st2"/>
			</g>
			<g id="shape1371-191" transform="translate(6.39488E-14,-179.582)">
				<title>Sheet.1371</title>
				<path d="M0 804.38 L801.48 804.38" class="st2"/>
			</g>
			<g id="shape1372-194" transform="translate(6.39488E-14,-193.755)">
				<title>Sheet.1372</title>
				<path d="M0 804.38 L801.48 804.38" class="st1"/>
			</g>
			<g id="shape1373-197" transform="translate(6.39488E-14,-207.929)">
				<title>Sheet.1373</title>
				<path d="M0 804.38 L801.48 804.38" class="st2"/>
			</g>
			<g id="shape1374-200" transform="translate(6.39488E-14,-222.102)">
				<title>Sheet.1374</title>
				<path d="M0 804.38 L801.48 804.38" class="st2"/>
			</g>
			<g id="shape1375-203" transform="translate(6.39488E-14,-250.448)">
				<title>Sheet.1375</title>
				<path d="M0 804.38 L801.48 804.38" class="st2"/>
			</g>
			<g id="shape1376-206" transform="translate(6.39488E-14,-264.622)">
				<title>Sheet.1376</title>
				<path d="M0 804.38 L801.48 804.38" class="st1"/>
			</g>
			<g id="shape1377-209" transform="translate(0,-278.795)">
				<title>Sheet.1377</title>
				<path d="M0 804.38 L801.48 804.38" class="st2"/>
			</g>
			<g id="shape1378-212" transform="translate(2.64787,-293.065)">
				<title>Sheet.1378</title>
				<path d="M0 804.38 L801.48 804.38" class="st2"/>
			</g>
			<g id="shape1379-215" transform="translate(6.39488E-14,-236.275)">
				<title>Sheet.1379</title>
				<path d="M0 804.38 L801.48 804.38" class="st2"/>
			</g>
			<g id="shape1380-218" transform="translate(0,-307.141)">
				<title>Sheet.1380</title>
				<path d="M0 804.38 L801.48 804.38" class="st2"/>
			</g>
			<g id="shape1381-221" transform="translate(6.39488E-14,-321.315)">
				<title>Sheet.1381</title>
				<path d="M0 804.38 L801.48 804.38" class="st2"/>
			</g>
			<g id="shape1382-224" transform="translate(6.39488E-14,-335.488)">
				<title>Sheet.1382</title>
				<path d="M0 804.38 L801.48 804.38" class="st1"/>
			</g>
			<g id="shape1383-227" transform="translate(6.39488E-14,-349.661)">
				<title>Sheet.1383</title>
				<path d="M0 804.38 L801.48 804.38" class="st2"/>
			</g>
			<g id="shape1384-230" transform="translate(6.39488E-14,-378.007)">
				<title>Sheet.1384</title>
				<path d="M0 804.38 L801.48 804.38" class="st2"/>
			</g>
			<g id="shape1385-233" transform="translate(6.39488E-14,-392.181)">
				<title>Sheet.1385</title>
				<path d="M0 804.38 L801.48 804.38" class="st2"/>
			</g>
			<g id="shape1386-236" transform="translate(6.39488E-14,-406.354)">
				<title>Sheet.1386</title>
				<path d="M0 804.38 L801.48 804.38" class="st1"/>
			</g>
			<g id="shape1387-239" transform="translate(6.39488E-14,-420.527)">
				<title>Sheet.1387</title>
				<path d="M0 804.38 L801.48 804.38" class="st2"/>
			</g>
			<g id="shape1388-242" transform="translate(6.39488E-14,-363.834)">
				<title>Sheet.1388</title>
				<path d="M0 804.38 L801.48 804.38" class="st2"/>
			</g>
			<g id="shape1389-245" transform="translate(6.39488E-14,-434.7)">
				<title>Sheet.1389</title>
				<path d="M0 804.38 L801.48 804.38" class="st2"/>
			</g>
			<g id="shape1390-248" transform="translate(6.39488E-14,-448.874)">
				<title>Sheet.1390</title>
				<path d="M0 804.38 L801.48 804.38" class="st2"/>
			</g>
			<g id="shape1391-251" transform="translate(6.39488E-14,-463.047)">
				<title>Sheet.1391</title>
				<path d="M0 804.38 L801.48 804.38" class="st2"/>
			</g>
			<g id="shape1392-254" transform="translate(2.15551,-519.837)">
				<title>Sheet.1392</title>
				<path d="M0 804.38 L799.32 804.38" class="st2"/>
			</g>
			<g id="shape1393-257" transform="translate(6.39488E-14,-505.567)">
				<title>Sheet.1393</title>
				<path d="M0 804.38 L801.48 804.38" class="st2"/>
			</g>
			<g id="shape1395-260" transform="translate(6.39488E-14,-491.393)">
				<title>Sheet.1395</title>
				<path d="M0 804.38 L801.48 804.38" class="st2"/>
			</g>
			<g id="shape1396-263" transform="translate(6.39488E-14,-9.50352)">
				<title>Sheet.1396</title>
				<path d="M0 804.38 L801.48 804.38" class="st2"/>
			</g>
			<g id="shape1397-266" transform="translate(6.39488E-14,-23.6768)">
				<title>Sheet.1397</title>
				<path d="M0 804.38 L801.48 804.38" class="st2"/>
			</g>
			<g id="shape1398-269" transform="translate(6.39488E-14,-37.85)">
				<title>Sheet.1398</title>
				<path d="M0 804.38 L801.48 804.38" class="st2"/>
			</g>
			<g id="shape1399-272" transform="translate(6.39488E-14,-478.063)">
				<title>Sheet.1399</title>
				<path d="M0 804.38 L801.48 804.38" class="st1"/>
			</g>
			<g id="shape1400-275" transform="translate(814.738,248.953) rotate(90)">
				<title>Sheet.1400</title>
				<path d="M0 804.38 L555.42 804.38" class="st2"/>
			</g>
			<g id="shape1401-278" transform="translate(828.911,248.953) rotate(90)">
				<title>Sheet.1401</title>
				<path d="M0 804.38 L555.42 804.38" class="st2"/>
			</g>
			<g id="shape1402-281" transform="translate(1594.27,248.953) rotate(90)">
				<title>Sheet.1402</title>
				<path d="M0 804.38 L555.42 804.38" class="st2"/>
			</g>
			<g id="shape1403-284" transform="translate(0,-534.01)">
				<title>Sheet.1403</title>
				<path d="M0 804.38 L801.48 804.38" class="st2"/>
			</g>
		</g>
		<g id="shape1508-287" transform="translate(218.57,-375.854) rotate(0.2)">
			<title>Circle.1508</title>
			<path d="M0 797.81 A6.56444 6.56444 0 0 1 13.13 797.81 A6.56444 6.56444 0 1 1 0 797.81 Z" class="st3"/>
		</g>
		<g id="shape1514-289" transform="translate(335.71,1509.35) rotate(180)">
			<title>Sheet.1514</title>
			<path d="M0 804.38 L226.97 804.38" class="st4"/>
		</g>
		<g id="shape1515-292" transform="translate(335.807,942.429) rotate(180)">
			<title>Sheet.1515</title>
			<path d="M0 804.38 L226.97 804.38" class="st4"/>
		</g>
		<g id="shape1520-295" transform="translate(1140.09,138.045) rotate(90)">
			<title>Sheet.1520</title>
			<path d="M0 804.38 L566.93 804.38" class="st4"/>
		</g>
		<g id="shape1521-298" transform="translate(913.315,138.045) rotate(90)">
			<title>Sheet.1521</title>
			<path d="M0 804.38 L566.93 804.38" class="st4"/>
		</g>
		<g id="group1501-301" transform="translate(177.768,-375.325)">
			<title>Sheet.1501</title>
			<g id="shape1502-302" transform="translate(2.14165,1.13687E-13)">
				<title>Sheet.1502</title>
				<desc>1</desc>
				<rect x="0" y="790.204" width="85.0394" height="14.1732" class="st5"/>
				<text x="40.24" y="800.29" class="st6">1</text>			</g>
			<g id="shape1503-305" transform="translate(0,-4.47576)">
				<title>Sheet.1503</title>
				<desc>A</desc>
				<rect x="0" y="790.204" width="13.2348" height="14.1732" class="st7"/>
				<text x="4" y="803.9" class="st8"><tspan class="st9">A</tspan></text>			</g>
		</g>
		<g id="shape1522-309" transform="translate(-265.872,-575.008) rotate(-27.7592)">
			<title>Sheet.1522</title>
			<path d="M-0 804.38 A91.8868 57.0039 17.19 0 1 121.73 804.38" class="st4"/>
		</g>
		<g id="shape1523-312" transform="translate(-2.57677,848.436) rotate(-154.573)">
			<title>Sheet.1523</title>
			<path d="M-0 787.97 A98.6247 53.0395 -12.53 0 0 132.04 787.97" class="st4"/>
		</g>
		<g id="shape1524-315" transform="translate(710.386,1418.56) rotate(152.241)">
			<title>Sheet.1524</title>
			<path d="M-0 804.38 A91.8868 57.0039 17.19 0 1 121.73 804.38" class="st4"/>
		</g>
		<g id="shape1525-318" transform="translate(447.091,-4.8805) rotate(25.4267)">
			<title>Sheet.1525</title>
			<path d="M-0 787.97 A98.6247 53.0395 -12.53 0 0 132.04 787.97" class="st4"/>
		</g>
		<g id="shape1526-321" transform="translate(109.092,-513.701)">
			<title>Horizontal</title>
			<desc>32mm</desc>
			<path d="M0 776.53 L0 800.38 L0 776.53 ZM225.76 776.53 L225.76 800.38 L225.76 776.53 Z" class="st10"/>
			<path d="M0 776.53 L0 800.38 L0 776.53" class="st11"/>
			<path d="M225.76 776.53 L225.76 800.38 L225.76 776.53" class="st11"/>
			<path d="M112.88 784.53 L6.12 784.53" class="st12"/>
			<path d="M112.88 784.53 L219.64 784.53" class="st12"/>
			<rect x="102.434" y="772.933" width="20.8905" height="9.59985" class="st14"/>
			<text x="102.43" y="780.13" class="st15">32mm</text>		</g>
		<g id="shape1527-334" transform="translate(-395.782,759.495) rotate(-90)">
			<title>Vertical</title>
			<desc>96mm</desc>
			<path d="M0 776.53 L0 800.38 L0 776.53 ZM678.82 776.53 L678.82 800.38 L678.82 776.53 Z" class="st10"/>
			<path d="M0 776.53 L0 800.38 L0 776.53" class="st11"/>
			<path d="M678.82 776.53 L678.82 800.38 L678.82 776.53" class="st11"/>
			<path d="M339.41 784.53 L6.12 784.53" class="st12"/>
			<path d="M339.41 784.53 L672.7 784.53" class="st12"/>
			<rect x="328.966" y="772.933" width="20.8905" height="9.59985" class="st14"/>
			<text x="328.97" y="780.13" class="st15">96mm</text>		</g>
		<g id="shape1528-346" transform="translate(-716.545,704.294) rotate(-90)">
			<title>Vertical.1528</title>
			<desc>80mm</desc>
			<path d="M0 776.53 L0 800.38 L0 776.53 ZM566.18 776.53 L566.18 800.38 L566.18 776.53 Z" class="st10"/>
			<path d="M0 776.53 L0 800.38 L0 776.53" class="st11"/>
			<path d="M566.18 776.53 L566.18 800.38 L566.18 776.53" class="st11"/>
			<path d="M283.09 784.53 L6.12 784.53" class="st12"/>
			<path d="M283.09 784.53 L560.06 784.53" class="st12"/>
			<rect x="272.646" y="772.933" width="20.8905" height="9.59985" class="st14"/>
			<text x="272.65" y="780.13" class="st15">80mm</text>		</g>
	</g>
</svg>
