<?xml version="1.0" encoding="UTF-8" standalone="no"?>
<!DOCTYPE svg PUBLIC "-//W3C//DTD SVG 1.1//EN" "http://www.w3.org/Graphics/SVG/1.1/DTD/svg11.dtd">
<!-- Generated by Microsoft Visio, SVG Export PT010A_Detail.svg Page-1 -->
<svg xmlns="http://www.w3.org/2000/svg" xmlns:xlink="http://www.w3.org/1999/xlink" xmlns:ev="http://www.w3.org/2001/xml-events"
		width="6.14365in" height="4.2747in" viewBox="0 0 442.343 307.778" xml:space="preserve" color-interpolation-filters="sRGB"
		class="st14">
	<title>PT010A</title>

	<style type="text/css">
	<![CDATA[
		.st1 {fill:#ffffff;stroke:#ff0000;stroke-linecap:round;stroke-linejoin:round;stroke-width:2.25}
		.st2 {fill:#ffffff}
		.st3 {stroke:#000000;stroke-linecap:round;stroke-linejoin:round;stroke-width:0.24}
		.st4 {marker-end:url(#mrkr13-9);stroke:#000000;stroke-linecap:round;stroke-linejoin:round;stroke-width:0.24}
		.st5 {fill:#000000;fill-opacity:1;stroke:#000000;stroke-opacity:1;stroke-width:0.11764705882353}
		.st6 {fill:#ffffff;stroke:none;stroke-linecap:butt;stroke-width:7.2}
		.st7 {fill:#000000;font-family:Calibri;font-size:0.666664em}
		.st8 {fill:none;stroke:#ff0000;stroke-linecap:round;stroke-linejoin:round;stroke-width:0.75}
		.st9 {fill:#ff0000;font-family:Arial Narrow;font-size:0.833336em;font-weight:bold}
		.st10 {fill:none;stroke:none;stroke-linecap:round;stroke-linejoin:round;stroke-width:0.75}
		.st11 {fill:#ff0000;font-family:Arial Narrow;font-size:0.811964em;font-weight:bold}
		.st12 {baseline-shift:33.35%;font-size:0.667em}
		.st13 {stroke:#000000;stroke-linecap:round;stroke-linejoin:round;stroke-width:2.25}
		.st14 {fill:none;fill-rule:evenodd;font-size:12px;overflow:visible;stroke-linecap:square;stroke-miterlimit:3}
	]]>
	</style>

	<defs id="Markers">
		<g id="lend13">
			<path d="M 3 1 L 0 0 L 3 -1 L 3 1 " style="stroke:none"/>
		</g>
		<marker id="mrkr13-9" class="st5" refX="-25.5" orient="auto" markerUnits="strokeWidth" overflow="visible">
			<use xlink:href="#lend13" transform="scale(-8.5000000000001,-8.5000000000001) "/>
		</marker>
	</defs>
	<g>
		<title>Page-1</title>
		<g id="shape1405-1" transform="translate(90.2211,-293.545) rotate(0.2)">
			<title>Circle.1508</title>
			<path d="M0 301.21 A6.56444 6.56444 0 0 1 13.13 301.21 A6.56444 6.56444 0 1 1 0 301.21 Z" class="st1"/>
		</g>
		<g id="shape1408-3" transform="translate(95.7341,-10.209)">
			<title>Horizontal.1026</title>
			<desc>48mm</desc>
			<path d="M0 279.94 L0 303.78 L0 279.94 ZM340.16 279.94 L340.16 311.54 L340.16 279.94 Z" class="st2"/>
			<path d="M0 279.94 L0 303.78 L0 279.94" class="st3"/>
			<path d="M340.16 279.94 L340.16 311.54 L340.16 279.94" class="st3"/>
			<path d="M170.08 287.94 L6.12 287.94" class="st4"/>
			<path d="M170.08 287.94 L334.04 287.94" class="st4"/>
			<rect x="159.633" y="276.334" width="20.8905" height="9.59985" class="st6"/>
			<text x="159.63" y="283.53" class="st7">48mm</text>		</g>
		<g id="group1417-16" transform="translate(235.325,-158.357)">
			<title>Sheet.1417</title>
			<g id="shape1418-17" transform="translate(2.14165,1.13687E-13)">
				<title>Sheet.1418</title>
				<desc>1</desc>
				<rect x="0" y="293.605" width="85.0394" height="14.1732" class="st8"/>
				<text x="40.24" y="303.69" class="st9">1</text>			</g>
			<g id="shape1419-20" transform="translate(0,-4.47576)">
				<title>Sheet.1419</title>
				<desc>A</desc>
				<rect x="0" y="293.605" width="13.2348" height="14.1732" class="st10"/>
				<text x="4" y="307.3" class="st11"><tspan class="st12">A</tspan></text>			</g>
		</g>
		<g id="shape1428-24" transform="translate(-236.139,220.385) rotate(-90)">
			<title>Vertical.1428</title>
			<desc>22mm</desc>
			<path d="M0 279.94 L0 303.78 L0 279.94 ZM155.91 279.94 L155.91 313.28 L155.91 279.94 Z" class="st2"/>
			<path d="M0 279.94 L0 303.78 L0 279.94" class="st3"/>
			<path d="M155.91 279.94 L155.91 313.28 L155.91 279.94" class="st3"/>
			<path d="M77.95 287.94 L6.12 287.94" class="st4"/>
			<path d="M77.95 287.94 L149.79 287.94" class="st4"/>
			<rect x="67.5075" y="276.334" width="20.8905" height="9.59985" class="st6"/>
			<text x="67.51" y="283.53" class="st7">22mm</text>		</g>
		<g id="group1429-36" transform="translate(95.7341,-87.4904)">
			<title>STPT010.62</title>
			<g id="shape1430-37" transform="translate(307.778,95.1799) rotate(90)">
				<title>Sheet.1430</title>
				<path d="M0 307.78 L212.6 307.78" class="st13"/>
			</g>
			<g id="shape1431-40">
				<title>Sheet.1431</title>
				<path d="M0 307.78 L340.16 307.78" class="st13"/>
			</g>
			<g id="shape1432-43" transform="translate(32.3792,307.778) rotate(-90)">
				<title>Sheet.1432</title>
				<path d="M0 307.78 L155.91 307.78" class="st13"/>
			</g>
		</g>
		<g id="shape1433-46" transform="translate(-273.485,220.385) rotate(-90)">
			<title>Vertical.1433</title>
			<desc>30mm</desc>
			<path d="M0 279.94 L0 303.78 L0 279.94 ZM212.6 279.94 L212.6 308.53 L212.6 279.94 Z" class="st2"/>
			<path d="M0 279.94 L0 303.78 L0 279.94" class="st3"/>
			<path d="M212.6 279.94 L212.6 308.53 L212.6 279.94" class="st3"/>
			<path d="M106.3 287.94 L6.12 287.94" class="st4"/>
			<path d="M106.3 287.94 L206.48 287.94" class="st4"/>
			<rect x="95.8539" y="276.334" width="20.8905" height="9.59985" class="st6"/>
			<text x="95.85" y="283.53" class="st7">30mm</text>		</g>
	</g>
</svg>
