<?xml version="1.0" encoding="UTF-8"?><!DOCTYPE svg PUBLIC "-//W3C//DTD SVG 1.1//EN" "http://www.w3.org/Graphics/SVG/1.1/DTD/svg11.dtd"><svg xmlns="http://www.w3.org/2000/svg" xmlns:xlink="http://www.w3.org/1999/xlink" version="1.1" width="546.057mm" height="546.057mm" viewBox="-64.5 -64.5 129 129"><defs/><g><g id="cell-VehGEhK3i6AJcqMpad5X-8" layer="Option2"><path d="M32-64L7.105427357601002e-15 0-32-63.99999999999999Z" fill="none" stroke="rgb(0, 0, 0)" stroke-miterlimit="10" pointer-events="all" stroke-linecap="round" stroke-linejoin="round"/></g><g id="cell-VehGEhK3i6AJcqMpad5X-9" layer="Option2"><path d="M64 31.999999999999993L1.4210854715202004e-14-1.4210854715202004e-14 64.00000000000001-32.000000000000014Z" fill="#000000" stroke="rgb(0, 0, 0)" stroke-miterlimit="10" pointer-events="all" stroke-linecap="round" stroke-linejoin="round"/></g><g id="cell-VehGEhK3i6AJcqMpad5X-10" layer="Option2"><path d="M-64-32L0 0-64 32Z" fill="none" stroke="rgb(0, 0, 0)" stroke-miterlimit="10" pointer-events="all" stroke-linecap="round" stroke-linejoin="round"/></g><g id="cell-OxFjoSKdfpgckHMKP-ke-3" content="&lt;object label=&quot;%LabelLines%&amp;amp;nbsp; &amp;amp;nbsp; &amp;amp;nbsp; &amp;amp;nbsp; &amp;amp;nbsp; &amp;amp;nbsp;%LabelIndex%&quot; placeholders=&quot;1&quot; LabelLines=&quot;3&quot; LabelIndex=&quot;A&quot;/&gt;" data-label="%LabelLines%&amp;nbsp; &amp;nbsp; &amp;nbsp; &amp;nbsp; &amp;nbsp; &amp;nbsp;%LabelIndex%" data-placeholders="1" data-LabelLines="3" data-LabelIndex="A" layer="Label"><path fill="none" stroke="#ff0000" pointer-events="all" d="M-40 48L40 48 40 64-40 64z" stroke-linecap="round" stroke-linejoin="round"/><g><text x="26" y="123" fill="#FF0000" font-family="Helvetica" font-size="10px" transform="translate(-64 -64) translate(-0.5 -0.5)" stroke-linecap="round" stroke-linejoin="round">3           A</text></g></g><g id="cell-OxFjoSKdfpgckHMKP-ke-2" content="&lt;object label=&quot;origo&quot;/&gt;" data-label="origo" layer="Origo"><path d="M-4-0.07000000000000028C-4-2.240000000000002-2.240000000000002-4-0.060000000000002274-4 2.1099999999999994-4 3.8700000000000045-2.240000000000002 3.8700000000000045-0.07000000000000028 3.8700000000000045 2.1099999999999994 2.1099999999999994 3.8700000000000045-0.060000000000002274 3.8700000000000045-2.240000000000002 3.8700000000000045-4 2.1099999999999994-4-0.07000000000000028" fill="none" stroke="#ff0000" stroke-miterlimit="10" pointer-events="all" stroke-linecap="round" stroke-linejoin="round"/></g></g></svg>