<?xml version="1.0" encoding="UTF-8" standalone="no"?>
<!DOCTYPE svg PUBLIC "-//W3C//DTD SVG 1.1//EN" "http://www.w3.org/Graphics/SVG/1.1/DTD/svg11.dtd">
<!-- Generated by Microsoft Visio, SVG Export PV008A_Detail.svg Page-1 -->
<svg xmlns="http://www.w3.org/2000/svg" xmlns:xlink="http://www.w3.org/1999/xlink" xmlns:ev="http://www.w3.org/2001/xml-events"
		width="2.71464in" height="2.06048in" viewBox="0 0 195.454 148.355" xml:space="preserve" color-interpolation-filters="sRGB"
		class="st16">
	<title>PV008A</title>

	<style type="text/css">
	<![CDATA[
		.st1 {fill:#ffffff;stroke:#000000;stroke-linecap:round;stroke-linejoin:round;stroke-width:2.25}
		.st2 {fill:none;stroke:#ff0000;stroke-linecap:round;stroke-linejoin:round;stroke-width:0.75}
		.st3 {fill:#ff0000;font-family:Arial Narrow;font-size:0.833336em;font-weight:bold}
		.st4 {fill:none;stroke:none;stroke-linecap:round;stroke-linejoin:round;stroke-width:0.75}
		.st5 {fill:#ff0000;font-family:Arial Narrow;font-size:0.811964em;font-weight:bold}
		.st6 {baseline-shift:33.35%;font-size:0.667em}
		.st7 {fill:#ffffff}
		.st8 {stroke:#000000;stroke-linecap:round;stroke-linejoin:round;stroke-width:0.24}
		.st9 {marker-end:url(#mrkr13-17);stroke:#000000;stroke-linecap:round;stroke-linejoin:round;stroke-width:0.24}
		.st10 {fill:#000000;fill-opacity:1;stroke:#000000;stroke-opacity:1;stroke-width:0.11764705882353}
		.st11 {fill:#ffffff;stroke:none;stroke-linecap:butt;stroke-width:7.2}
		.st12 {fill:#000000;font-family:Calibri;font-size:0.666664em}
		.st13 {stroke:#ff0000;stroke-linecap:round;stroke-linejoin:round;stroke-width:1.5}
		.st14 {fill:none;stroke:#ff0000;stroke-linecap:round;stroke-linejoin:round;stroke-width:2.25}
		.st15 {stroke:#000000;stroke-linecap:round;stroke-linejoin:round;stroke-width:2.25}
		.st16 {fill:none;fill-rule:evenodd;font-size:12px;overflow:visible;stroke-linecap:square;stroke-miterlimit:3}
	]]>
	</style>

	<defs id="Markers">
		<g id="lend13">
			<path d="M 3 1 L 0 0 L 3 -1 L 3 1 " style="stroke:none"/>
		</g>
		<marker id="mrkr13-17" class="st10" refX="-25.5" orient="auto" markerUnits="strokeWidth" overflow="visible">
			<use xlink:href="#lend13" transform="scale(-8.5000000000001,-8.5000000000001) "/>
		</marker>
	</defs>
	<g>
		<title>Page-1</title>
		<g id="shape1406-1" transform="translate(156.649,63.0418) rotate(90)">
			<title>Triangle</title>
			<path d="M57.3 148.35 L28.65 91.05 L0 148.35 L57.3 148.35 Z" class="st1"/>
		</g>
		<g id="group1407-3" transform="translate(20.6165,-0.375)">
			<title>Sheet.1407</title>
			<g id="shape1408-4" transform="translate(2.14165,0)">
				<title>Sheet.1408</title>
				<desc>1</desc>
				<rect x="0" y="134.182" width="85.0394" height="14.1732" class="st2"/>
				<text x="40.24" y="144.27" class="st3">1</text>			</g>
			<g id="shape1409-7" transform="translate(0,-4.47576)">
				<title>Sheet.1409</title>
				<desc>A</desc>
				<rect x="0" y="134.182" width="13.2348" height="14.1732" class="st4"/>
				<text x="4" y="147.87" class="st5"><tspan class="st6">A</tspan></text>			</g>
		</g>
		<g id="shape1410-11" transform="translate(8.75103,-113.964)">
			<title>Horizontal.1012</title>
			<desc>8mm</desc>
			<path d="M0 120.42 L0 144.35 L0 120.42 ZM113.39 120.42 L113.39 144.35 L113.39 120.42 Z" class="st7"/>
			<path d="M0 120.42 L0 144.35 L0 120.42" class="st8"/>
			<path d="M113.39 120.42 L113.39 144.35 L113.39 120.42" class="st8"/>
			<path d="M56.69 128.42 L6.12 128.42" class="st9"/>
			<path d="M56.69 128.42 L107.27 128.42" class="st9"/>
			<rect x="48.275" y="116.814" width="16.8357" height="9.59985" class="st11"/>
			<text x="48.28" y="124.01" class="st12">8mm</text>		</g>
		<g id="shape1411-24" transform="translate(44.6481,119.43) rotate(-90)">
			<title>Vertical.1013</title>
			<desc>4mm</desc>
			<path d="M0 120.51 L0 144.35 L0 120.51 ZM56.69 120.51 L56.69 144.35 L56.69 120.51 Z" class="st7"/>
			<path d="M0 120.51 L0 144.35 L0 120.51" class="st8"/>
			<path d="M56.69 120.51 L56.69 144.35 L56.69 120.51" class="st8"/>
			<path d="M28.35 128.51 L6.12 128.51" class="st9"/>
			<path d="M28.35 128.51 L50.57 128.51" class="st9"/>
			<rect x="19.9286" y="116.911" width="16.8357" height="9.59985" class="st11"/>
			<text x="19.93" y="124.11" class="st12">4mm</text>		</g>
		<g id="shape1412-36" transform="translate(-25.1512,120.04) rotate(-90)">
			<title>Triangle.1526</title>
			<path d="M57.3 148.35 L28.65 91.05 L0 148.35 L57.3 148.35 Z" class="st1"/>
		</g>
		<g id="group1415-38" transform="translate(0.75,-50.642)">
			<title>Sheet.1415</title>
			<g id="shape1416-39" transform="translate(119.076,239.084) rotate(135)">
				<title>Sheet.1416</title>
				<path d="M0 148.35 L20.04 148.35" class="st13"/>
			</g>
			<g id="shape1417-42" transform="translate(-90.7294,253.258) rotate(-135)">
				<title>Sheet.1417</title>
				<path d="M0 148.35 L20.04 148.35" class="st13"/>
			</g>
		</g>
		<g id="group1418-45" transform="translate(116.879,-50.1848)">
			<title>Sheet.1418</title>
			<g id="shape1419-46" transform="translate(119.076,239.084) rotate(135)">
				<title>Sheet.1419</title>
				<path d="M0 148.35 L20.04 148.35" class="st13"/>
			</g>
			<g id="shape1420-49" transform="translate(-90.7294,253.258) rotate(-135)">
				<title>Sheet.1420</title>
				<path d="M0 148.35 L20.04 148.35" class="st13"/>
			</g>
		</g>
		<a xlink:href="https://www.posccaesar.org/">
			<g id="shape1405-52" transform="translate(57.4632,-48.3412)">
				<title>Circle.1515</title>
				<path d="M0 139.93 A8.4278 8.4278 0 0 1 16.86 139.93 A8.4278 8.4278 0 1 1 0 139.93 Z" class="st14"/>
			</g>
		</a>
		<g id="shape1421-54" transform="translate(-82.4537,91.3883) rotate(-90)">
			<title>Sheet.1421</title>
			<path d="M0 148.35 L56.79 148.35" class="st15"/>
		</g>
		<g id="shape1422-57" transform="translate(83.2414,186.569) rotate(-172.59)">
			<title>Sheet.1422</title>
			<path d="M0 148.35 L36.85 148.35" class="st15"/>
		</g>
		<g id="shape1423-60" transform="translate(138.295,-94.6038) rotate(15)">
			<title>Circle</title>
			<path d="M0 138.79 A9.56882 9.56882 0 0 1 19.14 138.79 A9.56882 9.56882 0 1 1 0 138.79 Z" class="st1"/>
		</g>
	</g>
</svg>
