<?xml version="1.0" encoding="UTF-8" standalone="no"?>
<!DOCTYPE svg PUBLIC "-//W3C//DTD SVG 1.1//EN" "http://www.w3.org/Graphics/SVG/1.1/DTD/svg11.dtd">
<!-- Generated by Microsoft Visio, SVG Export PV004A_Detail.svg Page-1 -->
<svg xmlns="http://www.w3.org/2000/svg" xmlns:xlink="http://www.w3.org/1999/xlink" xmlns:ev="http://www.w3.org/2001/xml-events"
		width="2.89522in" height="2.17623in" viewBox="0 0 208.456 156.689" xml:space="preserve" color-interpolation-filters="sRGB"
		class="st16">
	<title>PV004A</title>

	<style type="text/css">
	<![CDATA[
		.st1 {fill:#ffffff;stroke:#000000;stroke-linecap:round;stroke-linejoin:round;stroke-width:2.25}
		.st2 {fill:none;stroke:#ff0000;stroke-linecap:round;stroke-linejoin:round;stroke-width:0.75}
		.st3 {fill:#ff0000;font-family:Arial Narrow;font-size:0.833336em;font-weight:bold}
		.st4 {fill:none;stroke:none;stroke-linecap:round;stroke-linejoin:round;stroke-width:0.75}
		.st5 {fill:#ff0000;font-family:Arial Narrow;font-size:0.811964em;font-weight:bold}
		.st6 {baseline-shift:33.35%;font-size:0.667em}
		.st7 {fill:#ffffff}
		.st8 {stroke:#000000;stroke-linecap:round;stroke-linejoin:round;stroke-width:0.24}
		.st9 {marker-end:url(#mrkr13-17);stroke:#000000;stroke-linecap:round;stroke-linejoin:round;stroke-width:0.24}
		.st10 {fill:#000000;fill-opacity:1;stroke:#000000;stroke-opacity:1;stroke-width:0.11764705882353}
		.st11 {fill:#ffffff;stroke:none;stroke-linecap:butt}
		.st12 {fill:#000000;font-family:Calibri;font-size:0.666664em}
		.st13 {fill:#ffffff;stroke:none;stroke-linecap:butt;stroke-width:7.2}
		.st14 {stroke:#ff0000;stroke-linecap:round;stroke-linejoin:round;stroke-width:1.5}
		.st15 {fill:none;stroke:#ff0000;stroke-linecap:round;stroke-linejoin:round;stroke-width:2.25}
		.st16 {fill:none;fill-rule:evenodd;font-size:12px;overflow:visible;stroke-linecap:square;stroke-miterlimit:3}
	]]>
	</style>

	<defs id="Markers">
		<g id="lend13">
			<path d="M 3 1 L 0 0 L 3 -1 L 3 1 " style="stroke:none"/>
		</g>
		<marker id="mrkr13-17" class="st10" refX="-25.5" orient="auto" markerUnits="strokeWidth" overflow="visible">
			<use xlink:href="#lend13" transform="scale(-8.5000000000001,-8.5000000000001) "/>
		</marker>
	</defs>
	<g>
		<title>Page-1</title>
		<g id="shape1406-1" transform="translate(164.983,63.0418) rotate(90)">
			<title>Triangle</title>
			<path d="M57.3 156.69 L28.65 99.39 L0 156.69 L57.3 156.69 Z" class="st1"/>
		</g>
		<g id="group1407-3" transform="translate(120.9,-107.922)">
			<title>Sheet.1407</title>
			<g id="shape1408-4" transform="translate(2.14165,0)">
				<title>Sheet.1408</title>
				<desc>1</desc>
				<rect x="0" y="142.516" width="85.0394" height="14.1732" class="st2"/>
				<text x="40.24" y="152.6" class="st3">1</text>			</g>
			<g id="shape1409-7" transform="translate(0,-4.47576)">
				<title>Sheet.1409</title>
				<desc>A</desc>
				<rect x="0" y="142.516" width="13.2348" height="14.1732" class="st4"/>
				<text x="4" y="156.21" class="st5"><tspan class="st6">A</tspan></text>			</g>
		</g>
		<g id="shape1410-11" transform="translate(8.75103,-122.298)">
			<title>Horizontal.1012</title>
			<desc>8mm</desc>
			<path d="M0 128.75 L0 152.69 L0 128.75 ZM113.39 128.75 L113.39 152.69 L113.39 128.75 Z" class="st7"/>
			<path d="M0 128.75 L0 152.69 L0 128.75" class="st8"/>
			<path d="M113.39 128.75 L113.39 152.69 L113.39 128.75" class="st8"/>
			<path d="M56.69 136.75 L6.12 136.75" class="st9"/>
			<path d="M56.69 136.75 L107.27 136.75" class="st9"/>
			<rect x="48.275" y="125.148" width="16.8357" height="9.59985" class="st11"/>
			<text x="48.28" y="132.35" class="st12">8mm</text>		</g>
		<g id="shape1411-24" transform="translate(36.3142,119.43) rotate(-90)">
			<title>Vertical.1013</title>
			<desc>4mm</desc>
			<path d="M0 128.85 L0 152.69 L0 128.85 ZM56.69 128.85 L56.69 152.69 L56.69 128.85 Z" class="st7"/>
			<path d="M0 128.85 L0 152.69 L0 128.85" class="st8"/>
			<path d="M56.69 128.85 L56.69 152.69 L56.69 128.85" class="st8"/>
			<path d="M28.35 136.85 L6.12 136.85" class="st9"/>
			<path d="M28.35 136.85 L50.57 136.85" class="st9"/>
			<rect x="19.9286" y="125.245" width="16.8357" height="9.59985" class="st13"/>
			<text x="19.93" y="132.44" class="st12">4mm</text>		</g>
		<g id="shape1412-36" transform="translate(-33.4851,120.04) rotate(-90)">
			<title>Triangle.1526</title>
			<path d="M57.3 156.69 L28.65 99.39 L0 156.69 L57.3 156.69 Z" class="st1"/>
		</g>
		<g id="group1415-38" transform="translate(0.75,-58.9759)">
			<title>Sheet.1415</title>
			<g id="shape1416-39" transform="translate(124.969,253.311) rotate(135)">
				<title>Sheet.1416</title>
				<path d="M0 156.69 L20.04 156.69" class="st14"/>
			</g>
			<g id="shape1417-42" transform="translate(-96.6224,267.485) rotate(-135)">
				<title>Sheet.1417</title>
				<path d="M0 156.69 L20.04 156.69" class="st14"/>
			</g>
		</g>
		<g id="group1418-45" transform="translate(116.879,-58.5187)">
			<title>Sheet.1418</title>
			<g id="shape1419-46" transform="translate(124.969,253.311) rotate(135)">
				<title>Sheet.1419</title>
				<path d="M0 156.69 L20.04 156.69" class="st14"/>
			</g>
			<g id="shape1420-49" transform="translate(-96.6224,267.485) rotate(-135)">
				<title>Sheet.1420</title>
				<path d="M0 156.69 L20.04 156.69" class="st14"/>
			</g>
		</g>
		<g id="shape1421-52" transform="translate(94.2338,190.673) rotate(180)">
			<title>Triangle.1421</title>
			<path d="M57.3 156.69 L28.65 99.39 L0 156.69 L57.3 156.69 Z" class="st1"/>
		</g>
		<g id="group1422-54" transform="translate(-84.3244,40.309) rotate(-90)">
			<title>Sheet.1422</title>
			<g id="shape1423-55" transform="translate(124.969,253.311) rotate(135)">
				<title>Sheet.1423</title>
				<path d="M0 156.69 L20.04 156.69" class="st14"/>
			</g>
			<g id="shape1424-58" transform="translate(-96.6224,267.485) rotate(-135)">
				<title>Sheet.1424</title>
				<path d="M0 156.69 L20.04 156.69" class="st14"/>
			</g>
		</g>
		<g id="shape1425-61" transform="translate(36.9313,-8.59863)">
			<title>Triangle.1425</title>
			<path d="M57.3 156.69 L28.65 99.39 L0 156.69 L57.3 156.69 Z" class="st1"/>
		</g>
		<g id="group1426-63" transform="translate(215.49,141.766) rotate(90)">
			<title>Sheet.1426</title>
			<g id="shape1427-64" transform="translate(124.969,253.311) rotate(135)">
				<title>Sheet.1427</title>
				<path d="M0 156.69 L20.04 156.69" class="st14"/>
			</g>
			<g id="shape1428-67" transform="translate(-96.6224,267.485) rotate(-135)">
				<title>Sheet.1428</title>
				<path d="M0 156.69 L20.04 156.69" class="st14"/>
			</g>
		</g>
		<a xlink:href="https://www.posccaesar.org/">
			<g id="shape1405-70" transform="translate(58.8795,-59.1378)">
				<title>Circle.1515</title>
				<path d="M0 150.12 A6.56444 6.56444 0 0 1 13.13 150.12 A6.56444 6.56444 0 1 1 0 150.12 Z" class="st15"/>
			</g>
		</a>
	</g>
</svg>
