<?xml version="1.0" encoding="UTF-8" standalone="no"?>
<!DOCTYPE svg PUBLIC "-//W3C//DTD SVG 1.1//EN" "http://www.w3.org/Graphics/SVG/1.1/DTD/svg11.dtd">
<!-- Generated by Microsoft Visio, SVG Export PV001A_Detail.svg Page-1 -->
<svg xmlns="http://www.w3.org/2000/svg" xmlns:xlink="http://www.w3.org/1999/xlink" xmlns:ev="http://www.w3.org/2001/xml-events"
		width="2.0944in" height="1.3533in" viewBox="0 0 150.797 97.4375" xml:space="preserve" color-interpolation-filters="sRGB"
		class="st9">
	<title>PV001A</title>

	<style type="text/css">
	<![CDATA[
		.st1 {fill:#ffffff;stroke:#ff0000;stroke-linecap:round;stroke-linejoin:round;stroke-width:2.25}
		.st2 {stroke:#000000;stroke-linecap:round;stroke-linejoin:round;stroke-width:2.25}
		.st3 {fill:#ffffff}
		.st4 {stroke:#000000;stroke-linecap:round;stroke-linejoin:round;stroke-width:0.24}
		.st5 {marker-end:url(#mrkr13-12);stroke:#000000;stroke-linecap:round;stroke-linejoin:round;stroke-width:0.24}
		.st6 {fill:#000000;fill-opacity:1;stroke:#000000;stroke-opacity:1;stroke-width:0.11764705882353}
		.st7 {fill:#ffffff;stroke:none;stroke-linecap:butt;stroke-width:7.2}
		.st8 {fill:#000000;font-family:Calibri;font-size:0.666664em}
		.st9 {fill:none;fill-rule:evenodd;font-size:12px;overflow:visible;stroke-linecap:square;stroke-miterlimit:3}
	]]>
	</style>

	<defs id="Markers">
		<g id="lend13">
			<path d="M 3 1 L 0 0 L 3 -1 L 3 1 " style="stroke:none"/>
		</g>
		<marker id="mrkr13-12" class="st6" refX="-25.5" orient="auto" markerUnits="strokeWidth" overflow="visible">
			<use xlink:href="#lend13" transform="scale(-8.5000000000001,-8.5000000000001) "/>
		</marker>
	</defs>
	<g>
		<title>Page-1</title>
		<g id="shape1405-1" transform="translate(97.4394,-28.33)">
			<title>Circle.1513</title>
			<path d="M0 90.87 A6.56444 6.56444 0 0 1 13.13 90.87 A6.56444 6.56444 0 1 1 0 90.87 Z" class="st1"/>
		</g>
		<g id="shape1406-3" transform="translate(201.441,34.2936) rotate(90)">
			<title>Sheet.1406</title>
			<path d="M0 97.44 L56.69 97.44" class="st2"/>
		</g>
		<g id="shape1407-6" transform="translate(-63.144,90.9865) rotate(-90)">
			<title>Vertical.1015</title>
			<desc>4mm</desc>
			<path d="M0 69.6 L0 93.44 L0 69.6 ZM56.69 69.6 L56.69 98.06 L56.69 69.6 Z" class="st3"/>
			<path d="M0 69.6 L0 93.44 L0 69.6" class="st4"/>
			<path d="M56.69 69.6 L56.69 98.06 L56.69 69.6" class="st4"/>
			<path d="M28.35 77.6 L6.12 77.6" class="st5"/>
			<path d="M28.35 77.6 L50.57 77.6" class="st5"/>
			<rect x="19.9286" y="65.9934" width="16.8357" height="9.59985" class="st7"/>
			<text x="19.93" y="73.19" class="st8">4mm</text>		</g>
		<g id="shape1408-19" transform="translate(229.788,34.2936) rotate(90)">
			<title>Sheet.1408</title>
			<path d="M0 97.44 L56.69 97.44" class="st2"/>
		</g>
		<g id="shape1409-22" transform="translate(104.004,-63.144)">
			<title>Horizontal</title>
			<desc>2mm</desc>
			<path d="M0 69.6 L0 93.44 L0 69.6 ZM28.35 69.6 L28.35 93.44 L28.35 69.6 Z" class="st3"/>
			<path d="M0 69.6 L0 93.44 L0 69.6" class="st4"/>
			<path d="M28.35 69.6 L28.35 93.44 L28.35 69.6" class="st4"/>
			<path d="M-12 77.6 L-6.12 77.6" class="st5"/>
			<path d="M40.34 77.6 L34.47 77.6" class="st5"/>
			<rect x="5.75536" y="65.9934" width="16.8357" height="9.59985" class="st7"/>
			<text x="5.76" y="73.19" class="st8">2mm</text>		</g>
	</g>
</svg>
