<?xml version="1.0" encoding="UTF-8" standalone="no"?>
<!DOCTYPE svg PUBLIC "-//W3C//DTD SVG 1.1//EN" "http://www.w3.org/Graphics/SVG/1.1/DTD/svg11.dtd">
<!-- Generated by Microsoft Visio, SVG Export PV004A_Option2.svg Page-1 -->
<svg xmlns="http://www.w3.org/2000/svg" xmlns:xlink="http://www.w3.org/1999/xlink" xmlns:ev="http://www.w3.org/2001/xml-events"
		width="2.78732in" height="1.80249in" viewBox="0 0 200.687 129.779" xml:space="preserve" color-interpolation-filters="sRGB"
		class="st9">
	<title>PV004A</title>

	<style type="text/css">
	<![CDATA[
		.st1 {fill:none;stroke:#ff0000;stroke-linecap:round;stroke-linejoin:round;stroke-width:0.75}
		.st2 {fill:#ff0000;font-family:Arial Narrow;font-size:0.833336em;font-weight:bold}
		.st3 {fill:none;stroke:none;stroke-linecap:round;stroke-linejoin:round;stroke-width:0.75}
		.st4 {fill:#ff0000;font-family:Arial Narrow;font-size:0.811964em;font-weight:bold}
		.st5 {baseline-shift:33.35%;font-size:0.667em}
		.st6 {fill:#000000;stroke:#000000;stroke-linecap:round;stroke-linejoin:round;stroke-width:2.25}
		.st7 {fill:none;stroke:#000000;stroke-linecap:round;stroke-linejoin:round;stroke-width:2.25}
		.st8 {fill:none;stroke:#ff0000;stroke-linecap:round;stroke-linejoin:round;stroke-width:2.25}
		.st9 {fill:none;fill-rule:evenodd;font-size:12px;overflow:visible;stroke-linecap:square;stroke-miterlimit:3}
	]]>
	</style>

	<g>
		<title>Page-1</title>
		<g id="group1407-1" transform="translate(113.131,-0.375)">
			<title>Sheet.1407</title>
			<g id="shape1408-2" transform="translate(2.14165,0)">
				<title>Sheet.1408</title>
				<desc>1</desc>
				<rect x="0" y="115.606" width="85.0394" height="14.1732" class="st1"/>
				<text x="40.24" y="125.69" class="st2">1</text>			</g>
			<g id="shape1409-5" transform="translate(0,-4.47576)">
				<title>Sheet.1409</title>
				<desc>A</desc>
				<rect x="0" y="115.606" width="13.2348" height="14.1732" class="st3"/>
				<text x="4" y="129.3" class="st4"><tspan class="st5">A</tspan></text>			</g>
		</g>
		<g id="shape1439-9" transform="translate(130.904,30.1824) rotate(90)">
			<title>Triangle.1439</title>
			<path d="M57.3 129.78 L28.65 72.48 L0 129.78 L57.3 129.78 Z" class="st6"/>
		</g>
		<g id="shape1440-11" transform="translate(-13.7441,87.1801) rotate(-90)">
			<title>Triangle.1440</title>
			<path d="M57.3 129.78 L28.65 72.48 L0 129.78 L57.3 129.78 Z" class="st6"/>
		</g>
		<g id="shape1441-13" transform="translate(87.065,130.904) rotate(180)">
			<title>Triangle.1441</title>
			<path d="M57.3 129.78 L28.65 72.48 L0 129.78 L57.3 129.78 Z" class="st7"/>
		</g>
		<g id="shape1442-15" transform="translate(29.7625,-14.5482)">
			<title>Triangle.1442</title>
			<path d="M57.3 129.78 L28.65 72.48 L0 129.78 L57.3 129.78 Z" class="st7"/>
		</g>
		<a xlink:href="https://www.posccaesar.org/">
			<g id="shape1405-17" transform="translate(52.1816,-64.9772)">
				<title>Circle.1515</title>
				<path d="M0 123.21 A6.56444 6.56444 0 0 1 13.13 123.21 A6.56444 6.56444 0 1 1 0 123.21 Z" class="st8"/>
			</g>
		</a>
	</g>
</svg>
