<?xml version="1.0" encoding="UTF-8" standalone="no"?>
<!DOCTYPE svg PUBLIC "-//W3C//DTD SVG 1.1//EN" "http://www.w3.org/Graphics/SVG/1.1/DTD/svg11.dtd">
<!-- Generated by Microsoft Visio, SVG Export PV016A_Option1.svg Page-1 -->
<svg xmlns="http://www.w3.org/2000/svg" xmlns:xlink="http://www.w3.org/1999/xlink" xmlns:ev="http://www.w3.org/2001/xml-events"
		width="1.62722in" height="1.65141in" viewBox="0 0 117.16 118.902" xml:space="preserve" color-interpolation-filters="sRGB"
		class="st9">
	<title>PV016A</title>

	<style type="text/css">
	<![CDATA[
		.st1 {fill:none;stroke:#ff0000;stroke-linecap:round;stroke-linejoin:round;stroke-width:0.75}
		.st2 {fill:#ff0000;font-family:Arial Narrow;font-size:0.833336em;font-weight:bold}
		.st3 {fill:none;stroke:none;stroke-linecap:round;stroke-linejoin:round;stroke-width:0.75}
		.st4 {fill:#ff0000;font-family:Arial Narrow;font-size:0.811964em;font-weight:bold}
		.st5 {baseline-shift:33.35%;font-size:0.667em}
		.st6 {fill:#000000;stroke:#000000;stroke-linecap:round;stroke-linejoin:round;stroke-width:2.25}
		.st7 {fill:none;stroke:#ff0000;stroke-linecap:round;stroke-linejoin:round;stroke-width:2.25}
		.st8 {stroke:#000000;stroke-linecap:round;stroke-linejoin:round;stroke-width:2.25}
		.st9 {fill:none;fill-rule:evenodd;font-size:12px;overflow:visible;stroke-linecap:square;stroke-miterlimit:3}
	]]>
	</style>

	<g>
		<title>Page-1</title>
		<g id="group1407-1" transform="translate(13.313,-99.8777)">
			<title>Sheet.1407</title>
			<g id="shape1408-2" transform="translate(2.14165,0)">
				<title>Sheet.1408</title>
				<desc>1</desc>
				<rect x="0" y="104.728" width="85.0394" height="14.1732" class="st1"/>
				<text x="40.24" y="114.82" class="st2">1</text>			</g>
			<g id="shape1409-5" transform="translate(0,-4.47576)">
				<title>Sheet.1409</title>
				<desc>A</desc>
				<rect x="0" y="104.728" width="13.2348" height="14.1732" class="st3"/>
				<text x="4" y="118.42" class="st4"><tspan class="st5">A</tspan></text>			</g>
		</g>
		<g id="shape1413-9" transform="translate(120.027,33.0448) rotate(90)">
			<title>Triangle.1530</title>
			<path d="M57.3 118.9 L28.65 61.6 L0 118.9 L57.3 118.9 Z" class="st6"/>
		</g>
		<g id="shape1414-11" transform="translate(-2.86686,90.0425) rotate(-90)">
			<title>Triangle.1531</title>
			<path d="M57.3 118.9 L28.65 61.6 L0 118.9 L57.3 118.9 Z" class="st6"/>
		</g>
		<a xlink:href="https://www.posccaesar.org/">
			<g id="shape1405-13" transform="translate(51.2535,-50.8906)">
				<title>Circle.1515</title>
				<path d="M0 112.34 A6.56444 6.56444 0 0 1 13.13 112.34 A6.56444 6.56444 0 1 1 0 112.34 Z" class="st7"/>
			</g>
		</a>
		<g id="group1424-15" transform="translate(51.3111,-1.125)">
			<title>Sheet.1424</title>
			<g id="shape1425-16" transform="translate(125.988,34.5257) rotate(90)">
				<title>Sheet.1425</title>
				<path d="M0 118.9 L56.69 118.9" class="st8"/>
			</g>
			<g id="shape1426-19" transform="translate(14.1732,210.12) rotate(180)">
				<title>Triangle.1417</title>
				<path d="M14.17 118.9 L7.09 91.22 L0 118.9 L14.17 118.9 Z" class="st6"/>
			</g>
		</g>
	</g>
</svg>
