<?xml version="1.0" encoding="UTF-8"?><!DOCTYPE svg PUBLIC "-//W3C//DTD SVG 1.1//EN" "http://www.w3.org/Graphics/SVG/1.1/DTD/svg11.dtd"><svg xmlns="http://www.w3.org/2000/svg" xmlns:xlink="http://www.w3.org/1999/xlink" version="1.1" width="550.29mm" height="546.057mm" viewBox="-64.5 -48.5 130 129"><defs/><g><g id="cell-JKXfnodYz0fcM0IOX-bl-13" content="&lt;object label=&quot;%LabelLines%&amp;amp;nbsp; &amp;amp;nbsp; &amp;amp;nbsp; &amp;amp;nbsp; &amp;amp;nbsp; &amp;amp;nbsp;%LabelIndex%&quot; placeholders=&quot;1&quot; LabelLines=&quot;2&quot; LabelIndex=&quot;A&quot;/&gt;" data-label="%LabelLines%&amp;nbsp; &amp;nbsp; &amp;nbsp; &amp;nbsp; &amp;nbsp; &amp;nbsp;%LabelIndex%" data-placeholders="1" data-LabelLines="2" data-LabelIndex="A" layer="Label"><path fill="none" stroke="#ff0000" pointer-events="all" d="M-40 64L40 64 40 80-40 80z" stroke-linecap="round" stroke-linejoin="round"/><g><text x="26" y="123" fill="#FF0000" font-family="Helvetica" font-size="10px" transform="translate(-64 -48) translate(-0.5 -0.5)" stroke-linecap="round" stroke-linejoin="round">2           A</text></g></g><g id="cell-JKXfnodYz0fcM0IOX-bl-8" layer="Option1"><path fill="#000000" stroke="rgb(0, 0, 0)" pointer-events="all" d="M-48 0a48 48 0 1 0 96 0 48 48 0 1 0-96 0" stroke-linecap="round" stroke-linejoin="round"/></g><g id="cell-JKXfnodYz0fcM0IOX-bl-9" layer="Option1"><path d="M48 48L48-48" fill="none" stroke="rgb(0, 0, 0)" stroke-miterlimit="10" pointer-events="stroke" stroke-linecap="round" stroke-linejoin="round"/></g><g id="cell-JKXfnodYz0fcM0IOX-bl-10" layer="Option1"><path d="M64 32L64-32" fill="none" stroke="rgb(0, 0, 0)" stroke-miterlimit="10" pointer-events="stroke" stroke-linecap="round" stroke-linejoin="round"/></g><g id="cell-JKXfnodYz0fcM0IOX-bl-11" layer="Option1"><path d="M-48 48L-48-48" fill="none" stroke="rgb(0, 0, 0)" stroke-miterlimit="10" pointer-events="stroke" stroke-linecap="round" stroke-linejoin="round"/></g><g id="cell-JKXfnodYz0fcM0IOX-bl-12" layer="Option1"><path d="M-64 32L-64-32" fill="none" stroke="rgb(0, 0, 0)" stroke-miterlimit="10" pointer-events="stroke" stroke-linecap="round" stroke-linejoin="round"/></g><g id="cell-JKXfnodYz0fcM0IOX-bl-5" content="&lt;object label=&quot;origo&quot;/&gt;" data-label="origo" layer="Origo"><path d="M-4 0C-4-2.210000000000001-2.210000000000001-4 0-4 2.2099999999999937-4 4-2.210000000000001 4 0 4 2.210000000000001 2.2099999999999937 4 0 4-2.210000000000001 4-4 2.210000000000001-4 0" fill="none" stroke="#ff0000" stroke-miterlimit="10" pointer-events="all" stroke-linecap="round" stroke-linejoin="round"/></g></g></svg>