<?xml version="1.0" encoding="UTF-8" standalone="no"?>
<!DOCTYPE svg PUBLIC "-//W3C//DTD SVG 1.1//EN" "http://www.w3.org/Graphics/SVG/1.1/DTD/svg11.dtd">
<!-- Generated by Microsoft Visio, SVG Export PV021A_Detail.svg Page-1 -->
<svg xmlns="http://www.w3.org/2000/svg" xmlns:xlink="http://www.w3.org/1999/xlink" xmlns:ev="http://www.w3.org/2001/xml-events"
		width="3.06408in" height="2.41489in" viewBox="0 0 220.614 173.872" xml:space="preserve" color-interpolation-filters="sRGB"
		class="st16">
	<title>PV021A</title>

	<style type="text/css">
	<![CDATA[
		.st1 {fill:none;stroke:#ff0000;stroke-linecap:round;stroke-linejoin:round;stroke-width:0.75}
		.st2 {fill:#ff0000;font-family:Arial Narrow;font-size:0.833336em;font-weight:bold}
		.st3 {fill:none;stroke:none;stroke-linecap:round;stroke-linejoin:round;stroke-width:0.75}
		.st4 {fill:#ff0000;font-family:Arial Narrow;font-size:0.811964em;font-weight:bold}
		.st5 {baseline-shift:33.35%;font-size:0.667em}
		.st6 {fill:#ffffff}
		.st7 {stroke:#000000;stroke-linecap:round;stroke-linejoin:round;stroke-width:0.24}
		.st8 {marker-end:url(#mrkr13-15);stroke:#000000;stroke-linecap:round;stroke-linejoin:round;stroke-width:0.24}
		.st9 {fill:#000000;fill-opacity:1;stroke:#000000;stroke-opacity:1;stroke-width:0.11764705882353}
		.st10 {fill:#ffffff;stroke:none;stroke-linecap:butt;stroke-width:7.2}
		.st11 {fill:#000000;font-family:Calibri;font-size:0.666664em}
		.st12 {stroke:#ff0000;stroke-linecap:round;stroke-linejoin:round;stroke-width:1.5}
		.st13 {fill:none;stroke:#ff0000;stroke-linecap:round;stroke-linejoin:round;stroke-width:2.25}
		.st14 {fill:none;stroke:#000000;stroke-linecap:round;stroke-linejoin:round;stroke-width:2.25}
		.st15 {stroke:#000000;stroke-linecap:round;stroke-linejoin:round;stroke-width:2.25}
		.st16 {fill:none;fill-rule:evenodd;font-size:12px;overflow:visible;stroke-linecap:square;stroke-miterlimit:3}
	]]>
	</style>

	<defs id="Markers">
		<g id="lend13">
			<path d="M 3 1 L 0 0 L 3 -1 L 3 1 " style="stroke:none"/>
		</g>
		<marker id="mrkr13-15" class="st9" refX="-25.5" orient="auto" markerUnits="strokeWidth" overflow="visible">
			<use xlink:href="#lend13" transform="scale(-8.5000000000001,-8.5000000000001) "/>
		</marker>
	</defs>
	<g>
		<title>Page-1</title>
		<g id="group1405-1" transform="translate(112.435,-0.375)">
			<title>Sheet.1405</title>
			<g id="shape1406-2" transform="translate(2.14165,0)">
				<title>Sheet.1406</title>
				<desc>2</desc>
				<rect x="0" y="159.699" width="85.0394" height="14.1732" class="st1"/>
				<text x="40.24" y="169.79" class="st2">2</text>			</g>
			<g id="shape1407-5" transform="translate(0,-4.47576)">
				<title>Sheet.1407</title>
				<desc>A</desc>
				<rect x="0" y="159.699" width="13.2348" height="14.1732" class="st3"/>
				<text x="4" y="173.39" class="st4"><tspan class="st5">A</tspan></text>			</g>
		</g>
		<g id="shape1413-9" transform="translate(100.404,-111.736)">
			<title>Horizontal.1013</title>
			<desc>6mm</desc>
			<path d="M0 146.03 L0 169.87 L0 146.03 ZM85.8 146.03 L85.8 169.87 L85.8 146.03 Z" class="st6"/>
			<path d="M0 146.03 L0 169.87 L0 146.03" class="st7"/>
			<path d="M85.8 146.03 L85.8 169.87 L85.8 146.03" class="st7"/>
			<path d="M42.9 154.03 L6.12 154.03" class="st8"/>
			<path d="M42.9 154.03 L79.68 154.03" class="st8"/>
			<rect x="34.4814" y="142.428" width="16.8357" height="9.59985" class="st10"/>
			<text x="34.48" y="149.63" class="st11">6mm</text>		</g>
		<g id="group1414-22" transform="translate(205.691,-49.9813)">
			<title>Sheet.1414</title>
			<g id="shape1415-23" transform="translate(137.119,282.645) rotate(135)">
				<title>Sheet.1415</title>
				<path d="M0 173.87 L20.04 173.87" class="st12"/>
			</g>
			<g id="shape1416-26" transform="translate(-108.773,296.818) rotate(-135)">
				<title>Sheet.1416</title>
				<path d="M0 173.87 L20.04 173.87" class="st12"/>
			</g>
		</g>
		<g id="shape1421-29" transform="translate(150.474,-50.4449)">
			<title>Circle.1413</title>
			<path d="M0 167.25 A6.62305 6.62305 0 0 1 13.25 167.25 A6.62305 6.62305 0 1 1 0 167.25 Z" class="st13"/>
		</g>
		<g id="shape1423-31" transform="translate(100.404,-28.7215)">
			<title>Sheet.1423</title>
			<path d="M0 173.87 L0 117.18 L85.04 117.18 L113.39 145.53 L85.04 173.87 L0 173.87 L0 173.87 Z" class="st14"/>
		</g>
		<g id="shape1424-33" transform="translate(295.536,74.2845) rotate(90)">
			<title>Sheet.1424</title>
			<path d="M0 173.87 L11.71 173.87" class="st15"/>
		</g>
		<g id="shape1425-36" transform="translate(107.49,-99.5876)">
			<title>Sheet.1425</title>
			<path d="M0 173.87 L28.35 173.87" class="st15"/>
		</g>
		<g id="shape1427-39" transform="translate(114.577,-57.0679)">
			<title>Sheet.1427</title>
			<path d="M0 173.87 L70.87 173.87" class="st15"/>
		</g>
		<g id="group1428-42" transform="translate(93.3172,-49.9813)">
			<title>Sheet.1428</title>
			<g id="shape1429-43" transform="translate(137.119,282.645) rotate(135)">
				<title>Sheet.1429</title>
				<path d="M0 173.87 L20.04 173.87" class="st12"/>
			</g>
			<g id="shape1430-46" transform="translate(-108.773,296.818) rotate(-135)">
				<title>Sheet.1430</title>
				<path d="M0 173.87 L20.04 173.87" class="st12"/>
			</g>
		</g>
		<g id="shape1431-49" transform="translate(100.404,-139.579)">
			<title>Horizontal.1431</title>
			<desc>8mm</desc>
			<path d="M0 146.03 L0 169.87 L0 146.03 ZM113.39 146.03 L113.39 167.34 L113.39 146.03 Z" class="st6"/>
			<path d="M0 146.03 L0 169.87 L0 146.03" class="st7"/>
			<path d="M113.39 146.03 L113.39 167.34 L113.39 146.03" class="st7"/>
			<path d="M56.69 154.03 L6.12 154.03" class="st8"/>
			<path d="M56.69 154.03 L107.27 154.03" class="st8"/>
			<rect x="48.275" y="142.428" width="16.8357" height="9.59985" class="st10"/>
			<text x="48.28" y="149.63" class="st11">8mm</text>		</g>
		<g id="shape1432-61" transform="translate(-111.736,145.248) rotate(-90)">
			<title>Vertical</title>
			<desc>4mm</desc>
			<path d="M0 146.03 L0 169.87 L0 146.03 ZM56.69 146.03 L56.69 172.33 L56.69 146.03 Z" class="st6"/>
			<path d="M0 146.03 L0 169.87 L0 146.03" class="st7"/>
			<path d="M56.69 146.03 L56.69 172.33 L56.69 146.03" class="st7"/>
			<path d="M28.35 154.03 L6.12 154.03" class="st8"/>
			<path d="M28.35 154.03 L50.57 154.03" class="st8"/>
			<rect x="19.9286" y="142.428" width="16.8357" height="9.59985" class="st10"/>
			<text x="19.93" y="149.63" class="st11">4mm</text>		</g>
		<g id="shape1433-73" transform="translate(-139.579,145.248) rotate(-90)">
			<title>Vertical.1433</title>
			<desc>5mm</desc>
			<path d="M0 146.03 L0 169.87 L0 146.03 ZM70.96 146.03 L70.96 165.12 L70.96 146.03 Z" class="st6"/>
			<path d="M0 146.03 L0 169.87 L0 146.03" class="st7"/>
			<path d="M70.96 146.03 L70.96 165.12 L70.96 146.03" class="st7"/>
			<path d="M35.48 154.03 L6.12 154.03" class="st8"/>
			<path d="M35.48 154.03 L64.84 154.03" class="st8"/>
			<rect x="27.0637" y="142.428" width="16.8357" height="9.59985" class="st10"/>
			<text x="27.06" y="149.63" class="st11">5mm</text>		</g>
	</g>
</svg>
