<?xml version="1.0" encoding="UTF-8" standalone="no"?>
<!DOCTYPE svg PUBLIC "-//W3C//DTD SVG 1.1//EN" "http://www.w3.org/Graphics/SVG/1.1/DTD/svg11.dtd">
<!-- Generated by Microsoft Visio, SVG Export PZ003A_Detail.svg Page-1 -->
<svg xmlns="http://www.w3.org/2000/svg" xmlns:xlink="http://www.w3.org/1999/xlink" xmlns:ev="http://www.w3.org/2001/xml-events"
		width="4.30955in" height="3.23876in" viewBox="0 0 310.288 233.191" xml:space="preserve" color-interpolation-filters="sRGB"
		class="st16">
	<title>PZ003A</title>

	<style type="text/css">
	<![CDATA[
		.st1 {fill:#ffffff;stroke:#ff0000;stroke-linecap:round;stroke-linejoin:round;stroke-width:2.25}
		.st2 {stroke:#000000;stroke-linecap:round;stroke-linejoin:round;stroke-width:2.25}
		.st3 {fill:#ffffff}
		.st4 {stroke:#000000;stroke-linecap:round;stroke-linejoin:round;stroke-width:0.24}
		.st5 {marker-end:url(#mrkr13-12);stroke:#000000;stroke-linecap:round;stroke-linejoin:round;stroke-width:0.24}
		.st6 {fill:#000000;fill-opacity:1;stroke:#000000;stroke-opacity:1;stroke-width:0.11764705882353}
		.st7 {fill:#ffffff;stroke:none;stroke-linecap:butt;stroke-width:7.2}
		.st8 {fill:#000000;font-family:Calibri;font-size:0.666664em}
		.st9 {fill:#ffffff;stroke:none;stroke-linecap:butt}
		.st10 {fill:none;stroke:#ff0000;stroke-linecap:round;stroke-linejoin:round;stroke-width:0.75}
		.st11 {fill:#ff0000;font-family:Arial Narrow;font-size:0.833336em;font-weight:bold}
		.st12 {fill:none;stroke:none;stroke-linecap:round;stroke-linejoin:round;stroke-width:0.75}
		.st13 {fill:#ff0000;font-family:Arial Narrow;font-size:0.811964em;font-weight:bold}
		.st14 {baseline-shift:33.35%;font-size:0.667em}
		.st15 {fill:#000000;font-family:Arial Narrow;font-size:4.00001em}
		.st16 {fill:none;fill-rule:evenodd;font-size:12px;overflow:visible;stroke-linecap:square;stroke-miterlimit:3}
	]]>
	</style>

	<defs id="Markers">
		<g id="lend13">
			<path d="M 3 1 L 0 0 L 3 -1 L 3 1 " style="stroke:none"/>
		</g>
		<marker id="mrkr13-12" class="st6" refX="-25.5" orient="auto" markerUnits="strokeWidth" overflow="visible">
			<use xlink:href="#lend13" transform="scale(-8.5000000000001,-8.5000000000001) "/>
		</marker>
	</defs>
	<g>
		<title>Page-1</title>
		<g id="shape1405-1" transform="translate(98.5953,-22.5582)">
			<title>Circle</title>
			<path d="M0 226.63 A6.56444 6.56444 0 0 1 13.13 226.63 A6.56444 6.56444 0 1 1 0 226.63 Z" class="st1"/>
		</g>
		<g id="shape1406-3" transform="translate(338.35,104.856) rotate(90)">
			<title>Sheet.1406</title>
			<path d="M0 233.19 L99.21 233.19" class="st2"/>
		</g>
		<g id="shape1407-6" transform="translate(77.0652,-198.8)">
			<title>Horizontal.1012</title>
			<desc>16mm</desc>
			<path d="M0 205.25 L0 229.19 L0 205.25 ZM226.77 205.25 L226.77 229.38 L226.77 205.25 Z" class="st3"/>
			<path d="M0 205.25 L0 229.19 L0 205.25" class="st4"/>
			<path d="M226.77 205.25 L226.77 229.38 L226.77 205.25" class="st4"/>
			<path d="M113.39 213.25 L6.12 213.25" class="st5"/>
			<path d="M113.39 213.25 L220.65 213.25" class="st5"/>
			<rect x="102.941" y="201.65" width="20.8905" height="9.59985" class="st7"/>
			<text x="102.94" y="208.85" class="st8">16mm</text>		</g>
		<g id="shape1408-19" transform="translate(508.429,104.969) rotate(90)">
			<title>Sheet.1408</title>
			<path d="M0 233.19 L99.1 233.19" class="st2"/>
		</g>
		<g id="shape1409-22" transform="translate(303.385,323.97) rotate(-179.951)">
			<title>Sheet.1409</title>
			<path d="M0 233.19 L226.77 233.19" class="st2"/>
		</g>
		<g id="shape1410-25" transform="translate(303.585,338.143) rotate(180)">
			<title>Sheet.1410</title>
			<path d="M0 233.19 L226.77 233.19" class="st2"/>
		</g>
		<g id="shape1411-28" transform="translate(-198.897,204.165) rotate(-90)">
			<title>Vertical.1015</title>
			<desc>8mm</desc>
			<path d="M0 205.35 L0 229.19 L0 205.35 ZM113.48 205.35 L113.48 237.29 L113.48 205.35 Z" class="st3"/>
			<path d="M0 205.35 L0 229.19 L0 205.35" class="st4"/>
			<path d="M113.48 205.35 L113.48 237.29 L113.48 205.35" class="st4"/>
			<path d="M56.74 213.35 L6.12 213.35" class="st5"/>
			<path d="M56.74 213.35 L107.36 213.35" class="st5"/>
			<rect x="48.3235" y="201.747" width="16.8357" height="9.59985" class="st9"/>
			<text x="48.32" y="208.95" class="st8">8mm</text>		</g>
		<g id="group1412-40" transform="translate(146.115,-0.375)">
			<title>Sheet.1412</title>
			<g id="shape1413-41" transform="translate(2.14165,0)">
				<title>Sheet.1413</title>
				<desc>1</desc>
				<rect x="0" y="219.018" width="85.0394" height="14.1732" class="st10"/>
				<text x="40.24" y="229.1" class="st11">1</text>			</g>
			<g id="shape1414-44" transform="translate(0,-4.47576)">
				<title>Sheet.1414</title>
				<desc>A</desc>
				<rect x="0" y="219.018" width="13.2348" height="14.1732" class="st12"/>
				<text x="4" y="232.71" class="st13"><tspan class="st14">A</tspan></text>			</g>
		</g>
		<g id="shape1415-48" transform="translate(147.931,-149.194)">
			<title>Sheet.1415</title>
			<desc>MW</desc>
			<rect x="0" y="190.671" width="85.0394" height="42.5197" class="st12"/>
			<text x="7.55" y="226.33" class="st15">MW</text>		</g>
	</g>
</svg>
