<?xml version="1.0" encoding="UTF-8" standalone="no"?>
<!DOCTYPE svg PUBLIC "-//W3C//DTD SVG 1.1//EN" "http://www.w3.org/Graphics/SVG/1.1/DTD/svg11.dtd">
<!-- Generated by Microsoft Visio, SVG Export PZ001A_Detail.svg Page-1 -->
<svg xmlns="http://www.w3.org/2000/svg" xmlns:xlink="http://www.w3.org/1999/xlink" xmlns:ev="http://www.w3.org/2001/xml-events"
		width="11.1719in" height="7.71769in" viewBox="0 0 804.377 555.674" xml:space="preserve" color-interpolation-filters="sRGB"
		class="st14">
	<title>PZ001A</title>

	<style type="text/css">
	<![CDATA[
		.st1 {stroke:#d8d8d8;stroke-linecap:round;stroke-linejoin:round;stroke-width:0.25}
		.st2 {stroke:#7f7f7f;stroke-linecap:round;stroke-linejoin:round;stroke-width:0.25}
		.st3 {fill:#ffffff;stroke:#ff0000;stroke-linecap:round;stroke-linejoin:round;stroke-width:2.25}
		.st4 {fill:#ffffff}
		.st5 {stroke:#000000;stroke-linecap:round;stroke-linejoin:round;stroke-width:0.24}
		.st6 {marker-end:url(#mrkr13-295);stroke:#000000;stroke-linecap:round;stroke-linejoin:round;stroke-width:0.24}
		.st7 {fill:#000000;fill-opacity:1;stroke:#000000;stroke-opacity:1;stroke-width:0.11764705882353}
		.st8 {fill:#ffffff;stroke:none;stroke-linecap:butt;stroke-width:7.2}
		.st9 {fill:#000000;font-family:Calibri;font-size:0.666664em}
		.st10 {stroke:#000000;stroke-linecap:round;stroke-linejoin:round;stroke-width:2.25}
		.st11 {fill:none}
		.st12 {fill:none;stroke:none;stroke-linecap:round;stroke-linejoin:round;stroke-width:0.75}
		.st13 {fill:#ff0000;font-family:Calibri;font-size:4.00001em}
		.st14 {fill:none;fill-rule:evenodd;font-size:12px;overflow:visible;stroke-linecap:square;stroke-miterlimit:3}
	]]>
	</style>

	<defs id="Markers">
		<g id="lend13">
			<path d="M 3 1 L 0 0 L 3 -1 L 3 1 " style="stroke:none"/>
		</g>
		<marker id="mrkr13-295" class="st7" refX="-25.5" orient="auto" markerUnits="strokeWidth" overflow="visible">
			<use xlink:href="#lend13" transform="scale(-8.5000000000001,-8.5000000000001) "/>
		</marker>
	</defs>
	<g>
		<title>Page-1</title>
		<g id="group1428-1" transform="translate(0.125,-0.125006)">
			<title>Sheet.1428</title>
			<g id="shape1429-2" transform="translate(594.381,0.250006) rotate(90)">
				<title>Sheet.1429</title>
				<path d="M0 555.67 L555.42 555.67" class="st1"/>
			</g>
			<g id="shape1430-5" transform="translate(622.728,0.250006) rotate(90)">
				<title>Sheet.1430</title>
				<path d="M0 555.67 L555.42 555.67" class="st2"/>
			</g>
			<g id="shape1431-8" transform="translate(636.901,0.250006) rotate(90)">
				<title>Sheet.1431</title>
				<path d="M0 555.67 L555.42 555.67" class="st1"/>
			</g>
			<g id="shape1432-11" transform="translate(651.074,0.250006) rotate(90)">
				<title>Sheet.1432</title>
				<path d="M0 555.67 L555.42 555.67" class="st1"/>
			</g>
			<g id="shape1433-14" transform="translate(665.247,0.250006) rotate(90)">
				<title>Sheet.1433</title>
				<path d="M0 555.67 L555.42 555.67" class="st1"/>
			</g>
			<g id="shape1434-17" transform="translate(608.555,0.250006) rotate(90)">
				<title>Sheet.1434</title>
				<path d="M0 555.67 L555.42 555.67" class="st1"/>
			</g>
			<g id="shape1435-20" transform="translate(679.421,0.250006) rotate(90)">
				<title>Sheet.1435</title>
				<path d="M0 555.67 L555.42 555.67" class="st1"/>
			</g>
			<g id="shape1436-23" transform="translate(693.594,0.250006) rotate(90)">
				<title>Sheet.1436</title>
				<path d="M0 555.67 L555.42 555.67" class="st2"/>
			</g>
			<g id="shape1437-26" transform="translate(707.767,0.250006) rotate(90)">
				<title>Sheet.1437</title>
				<path d="M0 555.67 L555.42 555.67" class="st1"/>
			</g>
			<g id="shape1438-29" transform="translate(721.94,0.250006) rotate(90)">
				<title>Sheet.1438</title>
				<path d="M0 555.67 L555.42 555.67" class="st1"/>
			</g>
			<g id="shape1439-32" transform="translate(750.287,0.250006) rotate(90)">
				<title>Sheet.1439</title>
				<path d="M0 555.67 L555.42 555.67" class="st1"/>
			</g>
			<g id="shape1440-35" transform="translate(764.46,0.250006) rotate(90)">
				<title>Sheet.1440</title>
				<path d="M0 555.67 L555.42 555.67" class="st2"/>
			</g>
			<g id="shape1441-38" transform="translate(778.633,0.250006) rotate(90)">
				<title>Sheet.1441</title>
				<path d="M0 555.67 L555.42 555.67" class="st1"/>
			</g>
			<g id="shape1442-41" transform="translate(792.807,0.250006) rotate(90)">
				<title>Sheet.1442</title>
				<path d="M0 555.67 L555.42 555.67" class="st1"/>
			</g>
			<g id="shape1443-44" transform="translate(736.114,0.250006) rotate(90)">
				<title>Sheet.1443</title>
				<path d="M0 555.67 L555.42 555.67" class="st1"/>
			</g>
			<g id="shape1444-47" transform="translate(806.98,0.250006) rotate(90)">
				<title>Sheet.1444</title>
				<path d="M0 555.67 L555.42 555.67" class="st1"/>
			</g>
			<g id="shape1445-50" transform="translate(821.153,0.250006) rotate(90)">
				<title>Sheet.1445</title>
				<path d="M0 555.67 L555.42 555.67" class="st1"/>
			</g>
			<g id="shape1446-53" transform="translate(835.326,0.250006) rotate(90)">
				<title>Sheet.1446</title>
				<path d="M0 555.67 L555.42 555.67" class="st2"/>
			</g>
			<g id="shape1447-56" transform="translate(849.499,0.250006) rotate(90)">
				<title>Sheet.1447</title>
				<path d="M0 555.67 L555.42 555.67" class="st1"/>
			</g>
			<g id="shape1448-59" transform="translate(877.846,0.250006) rotate(90)">
				<title>Sheet.1448</title>
				<path d="M0 555.67 L555.42 555.67" class="st1"/>
			</g>
			<g id="shape1449-62" transform="translate(892.019,0.250006) rotate(90)">
				<title>Sheet.1449</title>
				<path d="M0 555.67 L555.42 555.67" class="st1"/>
			</g>
			<g id="shape1450-65" transform="translate(906.192,0.250006) rotate(90)">
				<title>Sheet.1450</title>
				<path d="M0 555.67 L555.42 555.67" class="st2"/>
			</g>
			<g id="shape1451-68" transform="translate(920.366,0.250006) rotate(90)">
				<title>Sheet.1451</title>
				<path d="M0 555.67 L555.42 555.67" class="st1"/>
			</g>
			<g id="shape1452-71" transform="translate(863.673,0.250006) rotate(90)">
				<title>Sheet.1452</title>
				<path d="M0 555.67 L555.42 555.67" class="st1"/>
			</g>
			<g id="shape1453-74" transform="translate(934.539,0.250006) rotate(90)">
				<title>Sheet.1453</title>
				<path d="M0 555.67 L555.42 555.67" class="st1"/>
			</g>
			<g id="shape1454-77" transform="translate(948.712,0.250006) rotate(90)">
				<title>Sheet.1454</title>
				<path d="M0 555.67 L555.42 555.67" class="st1"/>
			</g>
			<g id="shape1455-80" transform="translate(962.885,0.250006) rotate(90)">
				<title>Sheet.1455</title>
				<path d="M0 555.67 L555.42 555.67" class="st1"/>
			</g>
			<g id="shape1456-83" transform="translate(977.058,0.250006) rotate(90)">
				<title>Sheet.1456</title>
				<path d="M0 555.67 L555.42 555.67" class="st2"/>
			</g>
			<g id="shape1457-86" transform="translate(1005.4,0.250006) rotate(90)">
				<title>Sheet.1457</title>
				<path d="M0 555.67 L555.42 555.67" class="st1"/>
			</g>
			<g id="shape1458-89" transform="translate(1019.58,0.250006) rotate(90)">
				<title>Sheet.1458</title>
				<path d="M0 555.67 L555.42 555.67" class="st1"/>
			</g>
			<g id="shape1459-92" transform="translate(1033.75,0.250006) rotate(90)">
				<title>Sheet.1459</title>
				<path d="M0 555.67 L555.42 555.67" class="st1"/>
			</g>
			<g id="shape1460-95" transform="translate(1047.92,0.250006) rotate(90)">
				<title>Sheet.1460</title>
				<path d="M0 555.67 L555.42 555.67" class="st2"/>
			</g>
			<g id="shape1461-98" transform="translate(991.232,0.250006) rotate(90)">
				<title>Sheet.1461</title>
				<path d="M0 555.67 L555.42 555.67" class="st1"/>
			</g>
			<g id="shape1462-101" transform="translate(1062.1,0.250006) rotate(90)">
				<title>Sheet.1462</title>
				<path d="M0 555.67 L555.42 555.67" class="st1"/>
			</g>
			<g id="shape1463-104" transform="translate(1076.27,0.250006) rotate(90)">
				<title>Sheet.1463</title>
				<path d="M0 555.67 L555.42 555.67" class="st1"/>
			</g>
			<g id="shape1464-107" transform="translate(1090.44,0.250006) rotate(90)">
				<title>Sheet.1464</title>
				<path d="M0 555.67 L555.42 555.67" class="st1"/>
			</g>
			<g id="shape1465-110" transform="translate(1104.62,0.250006) rotate(90)">
				<title>Sheet.1465</title>
				<path d="M0 555.67 L555.42 555.67" class="st1"/>
			</g>
			<g id="shape1466-113" transform="translate(1132.96,0.250006) rotate(90)">
				<title>Sheet.1466</title>
				<path d="M0 555.67 L555.42 555.67" class="st1"/>
			</g>
			<g id="shape1467-116" transform="translate(1147.14,0.250006) rotate(90)">
				<title>Sheet.1467</title>
				<path d="M0 555.67 L555.42 555.67" class="st1"/>
			</g>
			<g id="shape1468-119" transform="translate(1161.31,0.250006) rotate(90)">
				<title>Sheet.1468</title>
				<path d="M0 555.67 L555.42 555.67" class="st1"/>
			</g>
			<g id="shape1469-122" transform="translate(1175.48,0.250006) rotate(90)">
				<title>Sheet.1469</title>
				<path d="M0 555.67 L555.42 555.67" class="st1"/>
			</g>
			<g id="shape1470-125" transform="translate(1118.79,0.250006) rotate(90)">
				<title>Sheet.1470</title>
				<path d="M0 555.67 L555.42 555.67" class="st2"/>
			</g>
			<g id="shape1471-128" transform="translate(1189.66,0.250006) rotate(90)">
				<title>Sheet.1471</title>
				<path d="M0 555.67 L555.42 555.67" class="st2"/>
			</g>
			<g id="shape1472-131" transform="translate(1203.83,0.250006) rotate(90)">
				<title>Sheet.1472</title>
				<path d="M0 555.67 L555.42 555.67" class="st1"/>
			</g>
			<g id="shape1473-134" transform="translate(1218,0.250006) rotate(90)">
				<title>Sheet.1473</title>
				<path d="M0 555.67 L555.42 555.67" class="st1"/>
			</g>
			<g id="shape1474-137" transform="translate(1232.18,0.250006) rotate(90)">
				<title>Sheet.1474</title>
				<path d="M0 555.67 L555.42 555.67" class="st1"/>
			</g>
			<g id="shape1475-140" transform="translate(1260.52,0.250006) rotate(90)">
				<title>Sheet.1475</title>
				<path d="M0 555.67 L555.42 555.67" class="st2"/>
			</g>
			<g id="shape1476-143" transform="translate(1274.7,0.250006) rotate(90)">
				<title>Sheet.1476</title>
				<path d="M0 555.67 L555.42 555.67" class="st1"/>
			</g>
			<g id="shape1477-146" transform="translate(1288.87,0.250006) rotate(90)">
				<title>Sheet.1477</title>
				<path d="M0 555.67 L555.42 555.67" class="st1"/>
			</g>
			<g id="shape1478-149" transform="translate(1303.04,0.250006) rotate(90)">
				<title>Sheet.1478</title>
				<path d="M0 555.67 L555.42 555.67" class="st1"/>
			</g>
			<g id="shape1479-152" transform="translate(1246.35,0.250006) rotate(90)">
				<title>Sheet.1479</title>
				<path d="M0 555.67 L555.42 555.67" class="st1"/>
			</g>
			<g id="shape1480-155" transform="translate(1317.22,0.250006) rotate(90)">
				<title>Sheet.1480</title>
				<path d="M0 555.67 L555.42 555.67" class="st1"/>
			</g>
			<g id="shape1481-158" transform="translate(1331.39,0.250006) rotate(90)">
				<title>Sheet.1481</title>
				<path d="M0 555.67 L555.42 555.67" class="st2"/>
			</g>
			<g id="shape1482-161" transform="translate(0,-52.0232)">
				<title>Sheet.1482</title>
				<path d="M0 555.67 L801.48 555.67" class="st2"/>
			</g>
			<g id="shape1483-164" transform="translate(0,-66.1964)">
				<title>Sheet.1483</title>
				<path d="M0 555.67 L801.48 555.67" class="st1"/>
			</g>
			<g id="shape1484-167" transform="translate(0,-80.3697)">
				<title>Sheet.1484</title>
				<path d="M0 555.67 L801.48 555.67" class="st1"/>
			</g>
			<g id="shape1485-170" transform="translate(0,-94.5429)">
				<title>Sheet.1485</title>
				<path d="M0 555.67 L801.48 555.67" class="st1"/>
			</g>
			<g id="shape1486-173" transform="translate(0,-122.889)">
				<title>Sheet.1486</title>
				<path d="M0 555.67 L801.48 555.67" class="st2"/>
			</g>
			<g id="shape1487-176" transform="translate(0,-137.063)">
				<title>Sheet.1487</title>
				<path d="M0 555.67 L801.48 555.67" class="st1"/>
			</g>
			<g id="shape1488-179" transform="translate(0,-151.236)">
				<title>Sheet.1488</title>
				<path d="M0 555.67 L801.48 555.67" class="st1"/>
			</g>
			<g id="shape1489-182" transform="translate(0,-165.409)">
				<title>Sheet.1489</title>
				<path d="M0 555.67 L801.48 555.67" class="st1"/>
			</g>
			<g id="shape1490-185" transform="translate(0,-108.716)">
				<title>Sheet.1490</title>
				<path d="M0 555.67 L801.48 555.67" class="st1"/>
			</g>
			<g id="shape1491-188" transform="translate(0,-179.582)">
				<title>Sheet.1491</title>
				<path d="M0 555.67 L801.48 555.67" class="st1"/>
			</g>
			<g id="shape1492-191" transform="translate(0,-193.755)">
				<title>Sheet.1492</title>
				<path d="M0 555.67 L801.48 555.67" class="st2"/>
			</g>
			<g id="shape1493-194" transform="translate(0,-207.929)">
				<title>Sheet.1493</title>
				<path d="M0 555.67 L801.48 555.67" class="st1"/>
			</g>
			<g id="shape1494-197" transform="translate(0,-222.102)">
				<title>Sheet.1494</title>
				<path d="M0 555.67 L801.48 555.67" class="st1"/>
			</g>
			<g id="shape1495-200" transform="translate(0,-250.448)">
				<title>Sheet.1495</title>
				<path d="M0 555.67 L801.48 555.67" class="st1"/>
			</g>
			<g id="shape1496-203" transform="translate(0,-264.622)">
				<title>Sheet.1496</title>
				<path d="M0 555.67 L801.48 555.67" class="st2"/>
			</g>
			<g id="shape1497-206" transform="translate(0,-278.795)">
				<title>Sheet.1497</title>
				<path d="M0 555.67 L801.48 555.67" class="st1"/>
			</g>
			<g id="shape1498-209" transform="translate(2.64787,-293.065)">
				<title>Sheet.1498</title>
				<path d="M0 555.67 L801.48 555.67" class="st1"/>
			</g>
			<g id="shape1499-212" transform="translate(0,-236.275)">
				<title>Sheet.1499</title>
				<path d="M0 555.67 L801.48 555.67" class="st1"/>
			</g>
			<g id="shape1500-215" transform="translate(0,-307.141)">
				<title>Sheet.1500</title>
				<path d="M0 555.67 L801.48 555.67" class="st1"/>
			</g>
			<g id="shape1501-218" transform="translate(0,-321.315)">
				<title>Sheet.1501</title>
				<path d="M0 555.67 L801.48 555.67" class="st1"/>
			</g>
			<g id="shape1502-221" transform="translate(0,-335.488)">
				<title>Sheet.1502</title>
				<path d="M0 555.67 L801.48 555.67" class="st2"/>
			</g>
			<g id="shape1503-224" transform="translate(0,-349.661)">
				<title>Sheet.1503</title>
				<path d="M0 555.67 L801.48 555.67" class="st1"/>
			</g>
			<g id="shape1504-227" transform="translate(0,-378.007)">
				<title>Sheet.1504</title>
				<path d="M0 555.67 L801.48 555.67" class="st1"/>
			</g>
			<g id="shape1505-230" transform="translate(0,-392.181)">
				<title>Sheet.1505</title>
				<path d="M0 555.67 L801.48 555.67" class="st1"/>
			</g>
			<g id="shape1506-233" transform="translate(0,-406.354)">
				<title>Sheet.1506</title>
				<path d="M0 555.67 L801.48 555.67" class="st2"/>
			</g>
			<g id="shape1507-236" transform="translate(0,-420.527)">
				<title>Sheet.1507</title>
				<path d="M0 555.67 L801.48 555.67" class="st1"/>
			</g>
			<g id="shape1508-239" transform="translate(0,-363.834)">
				<title>Sheet.1508</title>
				<path d="M0 555.67 L801.48 555.67" class="st1"/>
			</g>
			<g id="shape1509-242" transform="translate(0,-434.7)">
				<title>Sheet.1509</title>
				<path d="M0 555.67 L801.48 555.67" class="st1"/>
			</g>
			<g id="shape1510-245" transform="translate(0,-448.874)">
				<title>Sheet.1510</title>
				<path d="M0 555.67 L801.48 555.67" class="st1"/>
			</g>
			<g id="shape1511-248" transform="translate(0,-463.047)">
				<title>Sheet.1511</title>
				<path d="M0 555.67 L801.48 555.67" class="st1"/>
			</g>
			<g id="shape1512-251" transform="translate(2.15551,-519.837)">
				<title>Sheet.1512</title>
				<path d="M0 555.67 L799.32 555.67" class="st1"/>
			</g>
			<g id="shape1513-254" transform="translate(0,-505.567)">
				<title>Sheet.1513</title>
				<path d="M0 555.67 L801.48 555.67" class="st1"/>
			</g>
			<g id="shape1514-257" transform="translate(1.40955,-548.086)">
				<title>Sheet.1514</title>
				<path d="M0 555.67 L800.07 555.67" class="st2"/>
			</g>
			<g id="shape1515-260" transform="translate(0,-491.393)">
				<title>Sheet.1515</title>
				<path d="M0 555.67 L801.48 555.67" class="st1"/>
			</g>
			<g id="shape1516-263" transform="translate(0,-9.50352)">
				<title>Sheet.1516</title>
				<path d="M0 555.67 L801.48 555.67" class="st1"/>
			</g>
			<g id="shape1517-266" transform="translate(0,-23.6768)">
				<title>Sheet.1517</title>
				<path d="M0 555.67 L801.48 555.67" class="st1"/>
			</g>
			<g id="shape1518-269" transform="translate(0,-37.85)">
				<title>Sheet.1518</title>
				<path d="M0 555.67 L801.48 555.67" class="st1"/>
			</g>
			<g id="shape1519-272" transform="translate(0,-478.063)">
				<title>Sheet.1519</title>
				<path d="M0 555.67 L801.48 555.67" class="st2"/>
			</g>
			<g id="shape1520-275" transform="translate(566.035,0.250006) rotate(90)">
				<title>Sheet.1520</title>
				<path d="M0 555.67 L555.42 555.67" class="st1"/>
			</g>
			<g id="shape1521-278" transform="translate(580.208,0.250006) rotate(90)">
				<title>Sheet.1521</title>
				<path d="M0 555.67 L555.42 555.67" class="st1"/>
			</g>
			<g id="shape1522-281" transform="translate(1345.56,0.250006) rotate(90)">
				<title>Sheet.1522</title>
				<path d="M0 555.67 L555.42 555.67" class="st1"/>
			</g>
			<g id="shape1523-284" transform="translate(0,-534.01)">
				<title>Sheet.1523</title>
				<path d="M0 555.67 L801.48 555.67" class="st1"/>
			</g>
		</g>
		<g id="shape1405-287" transform="translate(344.077,-186.667)">
			<title>Circle</title>
			<path d="M0 549.11 A6.56444 6.56444 0 0 1 13.13 549.11 A6.56444 6.56444 0 1 1 0 549.11 Z" class="st3"/>
		</g>
		<g id="shape1407-289" transform="translate(308.124,-384.197)">
			<title>Horizontal.1012</title>
			<desc>6mm</desc>
			<path d="M0 527.83 L0 551.67 L0 527.83 ZM85.04 527.83 L85.04 557.74 L85.04 527.83 Z" class="st4"/>
			<path d="M0 527.83 L0 551.67 L0 527.83" class="st5"/>
			<path d="M85.04 527.83 L85.04 557.74 L85.04 527.83" class="st5"/>
			<path d="M42.52 535.83 L6.12 535.83" class="st6"/>
			<path d="M42.52 535.83 L78.92 535.83" class="st6"/>
			<rect x="34.1018" y="524.23" width="16.8357" height="9.59985" class="st8"/>
			<text x="34.1" y="531.43" class="st9">6mm</text>		</g>
		<g id="shape1408-302" transform="translate(-63.298,234.234) rotate(-90)">
			<title>Vertical.1013</title>
			<desc>3 mm</desc>
			<path d="M0 527.83 L0 551.67 L0 527.83 ZM42.52 527.83 L42.52 551.67 L42.52 527.83 Z" class="st4"/>
			<path d="M0 527.83 L0 551.67 L0 527.83" class="st5"/>
			<path d="M42.52 527.83 L42.52 551.67 L42.52 527.83" class="st5"/>
			<path d="M21.26 535.83 L6.12 535.83" class="st6"/>
			<path d="M21.26 535.83 L36.4 535.83" class="st6"/>
			<rect x="11.9377" y="524.23" width="18.6443" height="9.59985" class="st8"/>
			<text x="11.94" y="531.43" class="st9">3 mm</text>		</g>
		<g id="shape1409-314" transform="translate(-304.243,361.793) rotate(-90)">
			<title>Vertical.1014</title>
			<desc>12mm</desc>
			<path d="M0 527.83 L0 551.67 L0 527.83 ZM170.08 527.83 L170.08 575.77 L170.08 527.83 Z" class="st4"/>
			<path d="M0 527.83 L0 551.67 L0 527.83" class="st5"/>
			<path d="M170.08 527.83 L170.08 575.77 L170.08 527.83" class="st5"/>
			<path d="M85.04 535.83 L6.12 535.83" class="st6"/>
			<path d="M85.04 535.83 L163.96 535.83" class="st6"/>
			<rect x="74.5941" y="524.23" width="20.8905" height="9.59985" class="st8"/>
			<text x="74.59" y="531.43" class="st9">12mm</text>		</g>
		<g id="shape1415-326" transform="translate(-204.365,234.883) rotate(-90)">
			<title>Sheet.1415</title>
			<path d="M0 555.67 L42.52 555.67" class="st10"/>
		</g>
		<g id="shape1416-329" transform="translate(351.309,-363.31)">
			<title>Sheet.1416</title>
			<path d="M0 555.67 L84.37 555.67" class="st10"/>
		</g>
		<g id="shape1417-332" transform="translate(991.357,192.364) rotate(90)">
			<title>Sheet.1417</title>
			<path d="M0 555.67 L42.52 555.67" class="st10"/>
		</g>
		<g id="shape1418-335" transform="translate(899.145,541.439) rotate(123.483)">
			<title>Sheet.1418</title>
			<path d="M0 555.67 L152.94 555.67" class="st10"/>
		</g>
		<g id="group1421-338" transform="translate(308.124,-193.232)">
			<title>STPA008.1418</title>
			<g id="shape1422-339" transform="translate(0,-99.212)">
				<title>Sheet.1422</title>
				<path d="M0 555.67 L85.04 555.67" class="st10"/>
			</g>
			<g id="shape1423-342" transform="translate(598.196,456.49) rotate(90.0023)">
				<title>Sheet.1423</title>
				<path d="M0 555.67 L99.21 555.67" class="st10"/>
			</g>
			<g id="shape1424-345" transform="translate(0.00401742,-99.2067)">
				<title>Sheet.1424</title>
				<path d="M85.04 555.67 A42.5177 28.3515 -180 1 0 0 555.67 L85.04 555.67 Z" class="st11"/>
				<path d="M85.04 555.67 A42.5177 28.3515 -180 1 0 0 555.67" class="st10"/>
			</g>
		</g>
		<g id="shape1425-348" transform="translate(350.644,-415.08)">
			<title>Horizontal.1425</title>
			<desc>6mm</desc>
			<path d="M0 527.83 L0 551.67 L0 527.83 ZM85.04 527.83 L85.04 553.09 L85.04 527.83 Z" class="st4"/>
			<path d="M0 527.83 L0 551.67 L0 527.83" class="st5"/>
			<path d="M85.04 527.83 L85.04 553.09 L85.04 527.83" class="st5"/>
			<path d="M42.52 535.83 L6.12 535.83" class="st6"/>
			<path d="M42.52 535.83 L78.92 535.83" class="st6"/>
			<rect x="34.1018" y="524.23" width="16.8357" height="9.59985" class="st8"/>
			<text x="34.1" y="531.43" class="st9">6mm</text>		</g>
		<g id="shape1426-360" transform="translate(-275.896,361.793) rotate(-90)">
			<title>Vertical.1426</title>
			<desc>7mm</desc>
			<path d="M0 527.83 L0 551.67 L0 527.83 ZM98.56 527.83 L98.56 580.02 L98.56 527.83 Z" class="st4"/>
			<path d="M0 527.83 L0 551.67 L0 527.83" class="st5"/>
			<path d="M98.56 527.83 L98.56 580.02 L98.56 527.83" class="st5"/>
			<path d="M49.28 535.83 L6.12 535.83" class="st6"/>
			<path d="M49.28 535.83 L92.44 535.83" class="st6"/>
			<rect x="40.861" y="524.23" width="16.8357" height="9.59985" class="st8"/>
			<text x="40.86" y="531.43" class="st9">7mm</text>		</g>
		<g id="shape1427-372" transform="translate(-34.9515,262.484) rotate(-90)">
			<title>Vertical.1427</title>
			<desc>2mm</desc>
			<path d="M0 499.48 L0 551.67 L0 499.48 ZM28.35 499.48 L28.35 551.67 L28.35 499.48 Z" class="st4"/>
			<path d="M0 499.48 L0 551.67 L0 499.48" class="st5"/>
			<path d="M28.35 499.48 L28.35 551.67 L28.35 499.48" class="st5"/>
			<path d="M-12 507.48 L-6.12 507.48" class="st6"/>
			<path d="M40.34 507.48 L34.47 507.48" class="st6"/>
			<rect x="5.75535" y="495.883" width="16.8357" height="9.59985" class="st8"/>
			<text x="5.76" y="503.08" class="st9">2mm</text>		</g>
		<g id="shape1524-384" transform="translate(308.124,-436.34)">
			<title>Horizontal.1524</title>
			<desc>9mm</desc>
			<path d="M0 527.83 L0 551.67 L0 527.83 ZM127.56 527.83 L127.56 545.09 L127.56 527.83 Z" class="st4"/>
			<path d="M0 527.83 L0 551.67 L0 527.83" class="st5"/>
			<path d="M127.56 527.83 L127.56 545.09 L127.56 527.83" class="st5"/>
			<path d="M63.78 535.83 L6.12 535.83" class="st6"/>
			<path d="M63.78 535.83 L121.44 535.83" class="st6"/>
			<rect x="55.3617" y="524.23" width="16.8357" height="9.59985" class="st8"/>
			<text x="55.36" y="531.43" class="st9">9mm</text>		</g>
		<g id="shape1525-396" transform="translate(-26.4306,36.3018) rotate(-40)">
			<title>Sheet.1525</title>
			<desc>NOT USED</desc>
			<rect x="0" y="462.13" width="463.465" height="93.5433" class="st12"/>
			<text x="130.32" y="523.3" class="st13">NOT USED</text>		</g>
	</g>
</svg>
