<?xml version="1.0" encoding="UTF-8" standalone="no"?>
<!DOCTYPE svg PUBLIC "-//W3C//DTD SVG 1.1//EN" "http://www.w3.org/Graphics/SVG/1.1/DTD/svg11.dtd">
<!-- Generated by Microsoft Visio, SVG Export PZ004A_Detail.svg Page-1 -->
<svg xmlns="http://www.w3.org/2000/svg" xmlns:xlink="http://www.w3.org/1999/xlink" xmlns:ev="http://www.w3.org/2001/xml-events"
		width="3.12845in" height="1.66538in" viewBox="0 0 225.249 119.907" xml:space="preserve" color-interpolation-filters="sRGB"
		class="st10">
	<title>PZ004A</title>

	<style type="text/css">
	<![CDATA[
		.st1 {fill:#ffffff;stroke:#ff0000;stroke-linecap:round;stroke-linejoin:round;stroke-width:2.25}
		.st2 {fill:#ffffff}
		.st3 {stroke:#000000;stroke-linecap:round;stroke-linejoin:round;stroke-width:0.24}
		.st4 {marker-end:url(#mrkr13-9);stroke:#000000;stroke-linecap:round;stroke-linejoin:round;stroke-width:0.24}
		.st5 {fill:#000000;fill-opacity:1;stroke:#000000;stroke-opacity:1;stroke-width:0.11764705882353}
		.st6 {fill:#ffffff;stroke:none;stroke-linecap:butt;stroke-width:7.2}
		.st7 {fill:#000000;font-family:Calibri;font-size:0.666664em}
		.st8 {fill:none;stroke:#000000;stroke-linecap:round;stroke-linejoin:round;stroke-width:2.25}
		.st9 {stroke:#000000;stroke-linecap:round;stroke-linejoin:round;stroke-width:2.25}
		.st10 {fill:none;fill-rule:evenodd;font-size:12px;overflow:visible;stroke-linecap:square;stroke-miterlimit:3}
	]]>
	</style>

	<defs id="Markers">
		<g id="lend13">
			<path d="M 3 1 L 0 0 L 3 -1 L 3 1 " style="stroke:none"/>
		</g>
		<marker id="mrkr13-9" class="st5" refX="-25.5" orient="auto" markerUnits="strokeWidth" overflow="visible">
			<use xlink:href="#lend13" transform="scale(-8.5000000000001,-8.5000000000001) "/>
		</marker>
	</defs>
	<g>
		<title>Page-1</title>
		<g id="shape1405-1" transform="translate(98.8472,-27.9288)">
			<title>Circle</title>
			<path d="M0 113.34 A6.56444 6.56444 0 0 1 13.13 113.34 A6.56444 6.56444 0 1 1 0 113.34 Z" class="st1"/>
		</g>
		<g id="shape1407-3" transform="translate(105.412,-85.5169)">
			<title>Horizontal.1012</title>
			<desc>8mm</desc>
			<path d="M0 91.97 L0 115.91 L0 91.97 ZM113.39 91.97 L113.39 110.24 L113.39 91.97 Z" class="st2"/>
			<path d="M0 91.97 L0 115.91 L0 91.97" class="st3"/>
			<path d="M113.39 91.97 L113.39 110.24 L113.39 91.97" class="st3"/>
			<path d="M56.69 99.97 L6.12 99.97" class="st4"/>
			<path d="M56.69 99.97 L107.27 99.97" class="st4"/>
			<rect x="48.275" y="88.3663" width="16.8357" height="9.59985" class="st6"/>
			<text x="48.28" y="95.57" class="st7">8mm</text>		</g>
		<g id="shape1411-16" transform="translate(-85.6139,113.456) rotate(-90)">
			<title>Vertical.1015</title>
			<desc>4mm</desc>
			<path d="M0 92.06 L0 115.91 L0 92.06 ZM56.29 92.06 L56.29 124.66 L56.29 92.06 Z" class="st2"/>
			<path d="M0 92.06 L0 115.91 L0 92.06" class="st3"/>
			<path d="M56.29 92.06 L56.29 124.66 L56.29 92.06" class="st3"/>
			<path d="M28.15 100.06 L6.12 100.06" class="st4"/>
			<path d="M28.15 100.06 L50.17 100.06" class="st4"/>
			<rect x="19.728" y="88.4633" width="16.8357" height="9.59985" class="st6"/>
			<text x="19.73" y="95.66" class="st7">4mm</text>		</g>
		<g id="group1415-28" transform="translate(105.412,-6.14683)">
			<title>STPK003.2</title>
			<g id="shape1416-29">
				<title>Sheet.1416</title>
				<path d="M56.69 91.56 L113.39 63.21 L113.39 119.91 L0 63.21 L0 119.91 L56.69 91.56 L56.69 91.56 Z" class="st8"/>
			</g>
			<g id="shape1417-31" transform="translate(0,-56.6929)">
				<title>Sheet.1417</title>
				<path d="M0 119.91 L113.39 119.91" class="st9"/>
			</g>
			<g id="shape1418-34" transform="translate(113.386,239.815) rotate(180)">
				<title>Sheet.1418</title>
				<path d="M0 119.91 L113.39 119.91" class="st9"/>
			</g>
		</g>
	</g>
</svg>
