<?xml version="1.0" encoding="UTF-8" standalone="no"?>
<!DOCTYPE svg PUBLIC "-//W3C//DTD SVG 1.1//EN" "http://www.w3.org/Graphics/SVG/1.1/DTD/svg11.dtd">
<!-- Generated by Microsoft Visio, SVG Export PZ009A_Detail.svg Page-1 -->
<svg xmlns="http://www.w3.org/2000/svg" xmlns:xlink="http://www.w3.org/1999/xlink" xmlns:ev="http://www.w3.org/2001/xml-events"
		width="3.91235in" height="3.83496in" viewBox="0 0 281.69 276.117" xml:space="preserve" color-interpolation-filters="sRGB"
		class="st10">
	<title>PZ009A</title>

	<style type="text/css">
	<![CDATA[
		.st1 {fill:#ffffff;stroke:#ff0000;stroke-linecap:round;stroke-linejoin:round;stroke-width:2.25}
		.st2 {fill:#ffffff}
		.st3 {stroke:#000000;stroke-linecap:round;stroke-linejoin:round;stroke-width:0.24}
		.st4 {marker-end:url(#mrkr13-9);stroke:#000000;stroke-linecap:round;stroke-linejoin:round;stroke-width:0.24}
		.st5 {fill:#000000;fill-opacity:1;stroke:#000000;stroke-opacity:1;stroke-width:0.11764705882353}
		.st6 {fill:#ffffff;stroke:none;stroke-linecap:butt;stroke-width:7.2}
		.st7 {fill:#000000;font-family:Calibri;font-size:0.666664em}
		.st8 {fill:none}
		.st9 {stroke:#000000;stroke-linecap:round;stroke-linejoin:round;stroke-width:2.25}
		.st10 {fill:none;fill-rule:evenodd;font-size:12px;overflow:visible;stroke-linecap:square;stroke-miterlimit:3}
	]]>
	</style>

	<defs id="Markers">
		<g id="lend13">
			<path d="M 3 1 L 0 0 L 3 -1 L 3 1 " style="stroke:none"/>
		</g>
		<marker id="mrkr13-9" class="st5" refX="-25.5" orient="auto" markerUnits="strokeWidth" overflow="visible">
			<use xlink:href="#lend13" transform="scale(-8.5000000000001,-8.5000000000001) "/>
		</marker>
	</defs>
	<g>
		<title>Page-1</title>
		<g id="shape1405-1" transform="translate(41.9024,-225.678)">
			<title>Circle</title>
			<path d="M0 269.55 A6.56444 6.56444 0 0 1 13.13 269.55 A6.56444 6.56444 0 1 1 0 269.55 Z" class="st1"/>
		</g>
		<g id="shape1407-3" transform="translate(48.4668,-241.727)">
			<title>Horizontal.1012</title>
			<desc>32mm</desc>
			<path d="M0 248.18 L0 272.12 L0 248.18 ZM226.77 248.18 L226.77 266.54 L226.77 248.18 Z" class="st2"/>
			<path d="M0 248.18 L0 272.12 L0 248.18" class="st3"/>
			<path d="M226.77 248.18 L226.77 266.54 L226.77 248.18" class="st3"/>
			<path d="M113.39 256.18 L6.12 256.18" class="st4"/>
			<path d="M113.39 256.18 L220.65 256.18" class="st4"/>
			<rect x="102.941" y="244.576" width="20.8905" height="9.59985" class="st6"/>
			<text x="102.94" y="251.78" class="st7">32mm</text>		</g>
		<g id="shape1411-16" transform="translate(-241.824,269.666) rotate(-90)">
			<title>Vertical.1015</title>
			<desc>32mm</desc>
			<path d="M0 248.27 L0 272.12 L0 248.27 ZM226.67 248.27 L226.67 264.75 L226.67 248.27 Z" class="st2"/>
			<path d="M0 248.27 L0 272.12 L0 248.27" class="st3"/>
			<path d="M226.67 248.27 L226.67 264.75 L226.67 248.27" class="st3"/>
			<path d="M113.34 256.27 L6.12 256.27" class="st4"/>
			<path d="M113.34 256.27 L220.55 256.27" class="st4"/>
			<rect x="102.892" y="244.673" width="20.8905" height="9.59985" class="st6"/>
			<text x="102.89" y="251.87" class="st7">32mm</text>		</g>
		<g id="group1412-28" transform="translate(48.4668,-6.45105)">
			<title>STPK008.65</title>
			<g id="shape1413-29" transform="translate(95.6693,-226.772)">
				<title>Sheet.1413</title>
				<path d="M0 276.12 L7.09 276.12 L7.09 276.12 L0 276.12 Z" class="st8"/>
				<path d="M0 276.12 L7.09 276.12 L7.09 276.12" class="st9"/>
			</g>
			<g id="shape1414-32" transform="translate(81.4961,-226.772)">
				<title>Sheet.1414</title>
				<path d="M0 276.12 L7.09 276.12 L7.09 276.12 L0 276.12 Z" class="st8"/>
				<path d="M0 276.12 L7.09 276.12 L7.09 276.12" class="st9"/>
			</g>
			<g id="shape1415-35" transform="translate(67.3228,-226.772)">
				<title>Sheet.1415</title>
				<path d="M0 276.12 L7.09 276.12 L7.09 276.12 L0 276.12 Z" class="st8"/>
				<path d="M0 276.12 L7.09 276.12 L7.09 276.12" class="st9"/>
			</g>
			<g id="shape1416-38" transform="translate(53.1496,-226.772)">
				<title>Sheet.1416</title>
				<path d="M0 276.12 L7.09 276.12 L7.09 276.12 L0 276.12 Z" class="st8"/>
				<path d="M0 276.12 L7.09 276.12 L7.09 276.12" class="st9"/>
			</g>
			<g id="shape1417-41" transform="translate(38.9764,-226.772)">
				<title>Sheet.1417</title>
				<path d="M0 276.12 L7.09 276.12 L7.09 276.12 L0 276.12 Z" class="st8"/>
				<path d="M0 276.12 L7.09 276.12 L7.09 276.12" class="st9"/>
			</g>
			<g id="shape1418-44" transform="translate(24.8032,-226.772)">
				<title>Sheet.1418</title>
				<path d="M0 276.12 L7.09 276.12 L7.09 276.12 L0 276.12 Z" class="st8"/>
				<path d="M0 276.12 L7.09 276.12 L7.09 276.12" class="st9"/>
			</g>
			<g id="shape1419-47" transform="translate(0,-226.772)">
				<title>Sheet.1419</title>
				<path d="M0 276.12 L3.54 276.12 L3.54 276.12 L0 276.12 Z" class="st8"/>
				<path d="M0 276.12 L3.54 276.12 L3.54 276.12" class="st9"/>
			</g>
			<g id="shape1420-50" transform="translate(10.6299,-226.772)">
				<title>Sheet.1420</title>
				<path d="M0 276.12 L7.09 276.12 L7.09 276.12 L0 276.12 Z" class="st8"/>
				<path d="M0 276.12 L7.09 276.12 L7.09 276.12" class="st9"/>
			</g>
			<g id="shape1421-53" transform="translate(124.016,-226.772)">
				<title>Sheet.1421</title>
				<path d="M7.09 276.12 L0 276.12 L0 276.12 L7.09 276.12 Z" class="st8"/>
				<path d="M7.09 276.12 L0 276.12 L0 276.12" class="st9"/>
			</g>
			<g id="shape1422-56" transform="translate(138.189,-226.772)">
				<title>Sheet.1422</title>
				<path d="M7.09 276.12 L0 276.12 L0 276.12 L7.09 276.12 Z" class="st8"/>
				<path d="M7.09 276.12 L0 276.12 L0 276.12" class="st9"/>
			</g>
			<g id="shape1423-59" transform="translate(152.362,-226.772)">
				<title>Sheet.1423</title>
				<path d="M7.09 276.12 L0 276.12 L0 276.12 L7.09 276.12 Z" class="st8"/>
				<path d="M7.09 276.12 L0 276.12 L0 276.12" class="st9"/>
			</g>
			<g id="shape1424-62" transform="translate(166.535,-226.772)">
				<title>Sheet.1424</title>
				<path d="M7.09 276.12 L0 276.12 L0 276.12 L7.09 276.12 Z" class="st8"/>
				<path d="M7.09 276.12 L0 276.12 L0 276.12" class="st9"/>
			</g>
			<g id="shape1425-65" transform="translate(180.709,-226.772)">
				<title>Sheet.1425</title>
				<path d="M7.09 276.12 L0 276.12 L0 276.12 L7.09 276.12 Z" class="st8"/>
				<path d="M7.09 276.12 L0 276.12 L0 276.12" class="st9"/>
			</g>
			<g id="shape1426-68" transform="translate(194.882,-226.772)">
				<title>Sheet.1426</title>
				<path d="M7.09 276.12 L0 276.12 L0 276.12 L7.09 276.12 Z" class="st8"/>
				<path d="M7.09 276.12 L0 276.12 L0 276.12" class="st9"/>
			</g>
			<g id="shape1427-71" transform="translate(223.228,-226.772)">
				<title>Sheet.1427</title>
				<path d="M3.54 276.12 L0 276.12 L0 276.12 L3.54 276.12 Z" class="st8"/>
				<path d="M3.54 276.12 L0 276.12 L0 276.12" class="st9"/>
			</g>
			<g id="shape1428-74" transform="translate(209.055,-226.772)">
				<title>Sheet.1428</title>
				<path d="M7.09 276.12 L0 276.12 L0 276.12 L7.09 276.12 Z" class="st8"/>
				<path d="M7.09 276.12 L0 276.12 L0 276.12" class="st9"/>
			</g>
			<g id="shape1429-77" transform="translate(109.843,-226.772)">
				<title>Sheet.1429</title>
				<path d="M7.09 276.12 L0 276.12 L0 276.12 L7.09 276.12 Z" class="st8"/>
				<path d="M7.09 276.12 L0 276.12 L0 276.12" class="st9"/>
			</g>
			<g id="shape1430-80" transform="translate(124.016,-95.6693)">
				<title>Sheet.1430</title>
				<path d="M7.09 276.12 L0 269.03 L0 269.03 L7.09 276.12 Z" class="st8"/>
				<path d="M7.09 276.12 L0 269.03 L0 269.03" class="st9"/>
			</g>
			<g id="shape1431-83" transform="translate(138.189,-81.4961)">
				<title>Sheet.1431</title>
				<path d="M7.09 276.12 L0 269.03 L0 269.03 L7.09 276.12 Z" class="st8"/>
				<path d="M7.09 276.12 L0 269.03 L0 269.03" class="st9"/>
			</g>
			<g id="shape1432-86" transform="translate(152.362,-67.3228)">
				<title>Sheet.1432</title>
				<path d="M7.09 276.12 L0 269.03 L0 269.03 L7.09 276.12 Z" class="st8"/>
				<path d="M7.09 276.12 L0 269.03 L0 269.03" class="st9"/>
			</g>
			<g id="shape1433-89" transform="translate(166.535,-53.1496)">
				<title>Sheet.1433</title>
				<path d="M7.09 276.12 L0 269.03 L0 269.03 L7.09 276.12 Z" class="st8"/>
				<path d="M7.09 276.12 L0 269.03 L0 269.03" class="st9"/>
			</g>
			<g id="shape1434-92" transform="translate(180.709,-38.9764)">
				<title>Sheet.1434</title>
				<path d="M7.09 276.12 L0 269.03 L0 269.03 L7.09 276.12 Z" class="st8"/>
				<path d="M7.09 276.12 L0 269.03 L0 269.03" class="st9"/>
			</g>
			<g id="shape1435-95" transform="translate(194.882,-24.8032)">
				<title>Sheet.1435</title>
				<path d="M7.09 276.12 L0 269.03 L0 269.03 L7.09 276.12 Z" class="st8"/>
				<path d="M7.09 276.12 L0 269.03 L0 269.03" class="st9"/>
			</g>
			<g id="shape1436-98" transform="translate(223.228,0)">
				<title>Sheet.1436</title>
				<path d="M3.54 276.12 L0 272.57 L0 272.57 L3.54 276.12 Z" class="st8"/>
				<path d="M3.54 276.12 L0 272.57 L0 272.57" class="st9"/>
			</g>
			<g id="shape1437-101" transform="translate(209.055,-10.6299)">
				<title>Sheet.1437</title>
				<path d="M7.09 276.12 L0 269.03 L0 269.03 L7.09 276.12 Z" class="st8"/>
				<path d="M7.09 276.12 L0 269.03 L0 269.03" class="st9"/>
			</g>
			<g id="shape1438-104" transform="translate(95.6693,-124.016)">
				<title>Sheet.1438</title>
				<path d="M0 269.03 L7.09 276.12 L7.09 276.12 L0 269.03 Z" class="st8"/>
				<path d="M0 269.03 L7.09 276.12 L7.09 276.12" class="st9"/>
			</g>
			<g id="shape1439-107" transform="translate(81.4961,-138.189)">
				<title>Sheet.1439</title>
				<path d="M0 269.03 L7.09 276.12 L7.09 276.12 L0 269.03 Z" class="st8"/>
				<path d="M0 269.03 L7.09 276.12 L7.09 276.12" class="st9"/>
			</g>
			<g id="shape1440-110" transform="translate(67.3228,-152.362)">
				<title>Sheet.1440</title>
				<path d="M0 269.03 L7.09 276.12 L7.09 276.12 L0 269.03 Z" class="st8"/>
				<path d="M0 269.03 L7.09 276.12 L7.09 276.12" class="st9"/>
			</g>
			<g id="shape1441-113" transform="translate(53.1496,-166.535)">
				<title>Sheet.1441</title>
				<path d="M0 269.03 L7.09 276.12 L7.09 276.12 L0 269.03 Z" class="st8"/>
				<path d="M0 269.03 L7.09 276.12 L7.09 276.12" class="st9"/>
			</g>
			<g id="shape1442-116" transform="translate(38.982,-180.709)">
				<title>Sheet.1442</title>
				<path d="M0 269.04 L7.08 276.12 L7.08 276.12 L0 269.04 Z" class="st8"/>
				<path d="M0 269.04 L7.08 276.12 L7.08 276.12" class="st9"/>
			</g>
			<g id="shape1443-119" transform="translate(24.8032,-194.882)">
				<title>Sheet.1443</title>
				<path d="M0 269.03 L7.09 276.12 L7.09 276.12 L0 269.03 Z" class="st8"/>
				<path d="M0 269.03 L7.09 276.12 L7.09 276.12" class="st9"/>
			</g>
			<g id="shape1444-122" transform="translate(0,-223.228)">
				<title>Sheet.1444</title>
				<path d="M0 272.57 L3.54 276.12 L3.54 276.12 L0 272.57 Z" class="st8"/>
				<path d="M0 272.57 L3.54 276.12 L3.54 276.12" class="st9"/>
			</g>
			<g id="shape1445-125" transform="translate(10.6299,-209.055)">
				<title>Sheet.1445</title>
				<path d="M0 269.03 L7.09 276.12 L7.09 276.12 L0 269.03 Z" class="st8"/>
				<path d="M0 269.03 L7.09 276.12 L7.09 276.12" class="st9"/>
			</g>
			<g id="shape1446-128" transform="translate(109.843,-109.843)">
				<title>Sheet.1446</title>
				<path d="M0 269.03 L7.09 276.12 L7.09 276.12 L0 269.03 Z" class="st8"/>
				<path d="M0 269.03 L7.09 276.12 L7.09 276.12" class="st9"/>
			</g>
			<g id="shape1447-131" transform="translate(95.6693,0)">
				<title>Sheet.1447</title>
				<path d="M0 276.12 L7.09 276.12 L7.09 276.12 L0 276.12 Z" class="st8"/>
				<path d="M0 276.12 L7.09 276.12 L7.09 276.12" class="st9"/>
			</g>
			<g id="shape1448-134" transform="translate(81.4961,0)">
				<title>Sheet.1448</title>
				<path d="M0 276.12 L7.09 276.12 L7.09 276.12 L0 276.12 Z" class="st8"/>
				<path d="M0 276.12 L7.09 276.12 L7.09 276.12" class="st9"/>
			</g>
			<g id="shape1449-137" transform="translate(67.3228,0)">
				<title>Sheet.1449</title>
				<path d="M0 276.12 L7.09 276.12 L7.09 276.12 L0 276.12 Z" class="st8"/>
				<path d="M0 276.12 L7.09 276.12 L7.09 276.12" class="st9"/>
			</g>
			<g id="shape1450-140" transform="translate(53.1496,0)">
				<title>Sheet.1450</title>
				<path d="M0 276.12 L7.09 276.12 L7.09 276.12 L0 276.12 Z" class="st8"/>
				<path d="M0 276.12 L7.09 276.12 L7.09 276.12" class="st9"/>
			</g>
			<g id="shape1451-143" transform="translate(38.9764,0)">
				<title>Sheet.1451</title>
				<path d="M0 276.12 L7.09 276.12 L7.09 276.12 L0 276.12 Z" class="st8"/>
				<path d="M0 276.12 L7.09 276.12 L7.09 276.12" class="st9"/>
			</g>
			<g id="shape1452-146" transform="translate(24.8032,0)">
				<title>Sheet.1452</title>
				<path d="M0 276.12 L7.09 276.12 L7.09 276.12 L0 276.12 Z" class="st8"/>
				<path d="M0 276.12 L7.09 276.12 L7.09 276.12" class="st9"/>
			</g>
			<g id="shape1453-149">
				<title>Sheet.1453</title>
				<path d="M0 276.12 L3.54 276.12 L3.54 276.12 L0 276.12 Z" class="st8"/>
				<path d="M0 276.12 L3.54 276.12 L3.54 276.12" class="st9"/>
			</g>
			<g id="shape1454-152" transform="translate(10.6299,0)">
				<title>Sheet.1454</title>
				<path d="M0 276.12 L7.09 276.12 L7.09 276.12 L0 276.12 Z" class="st8"/>
				<path d="M0 276.12 L7.09 276.12 L7.09 276.12" class="st9"/>
			</g>
			<g id="shape1455-155" transform="translate(124.016,0)">
				<title>Sheet.1455</title>
				<path d="M7.09 276.12 L0 276.12 L0 276.12 L7.09 276.12 Z" class="st8"/>
				<path d="M7.09 276.12 L0 276.12 L0 276.12" class="st9"/>
			</g>
			<g id="shape1456-158" transform="translate(138.189,0)">
				<title>Sheet.1456</title>
				<path d="M7.09 276.12 L0 276.12 L0 276.12 L7.09 276.12 Z" class="st8"/>
				<path d="M7.09 276.12 L0 276.12 L0 276.12" class="st9"/>
			</g>
			<g id="shape1457-161" transform="translate(152.362,0)">
				<title>Sheet.1457</title>
				<path d="M7.09 276.12 L0 276.12 L0 276.12 L7.09 276.12 Z" class="st8"/>
				<path d="M7.09 276.12 L0 276.12 L0 276.12" class="st9"/>
			</g>
			<g id="shape1458-164" transform="translate(166.535,0)">
				<title>Sheet.1458</title>
				<path d="M7.09 276.12 L0 276.12 L0 276.12 L7.09 276.12 Z" class="st8"/>
				<path d="M7.09 276.12 L0 276.12 L0 276.12" class="st9"/>
			</g>
			<g id="shape1459-167" transform="translate(180.709,0)">
				<title>Sheet.1459</title>
				<path d="M7.09 276.12 L0 276.12 L0 276.12 L7.09 276.12 Z" class="st8"/>
				<path d="M7.09 276.12 L0 276.12 L0 276.12" class="st9"/>
			</g>
			<g id="shape1460-170" transform="translate(194.882,0)">
				<title>Sheet.1460</title>
				<path d="M7.09 276.12 L0 276.12 L0 276.12 L7.09 276.12 Z" class="st8"/>
				<path d="M7.09 276.12 L0 276.12 L0 276.12" class="st9"/>
			</g>
			<g id="shape1461-173" transform="translate(223.228,0)">
				<title>Sheet.1461</title>
				<path d="M3.54 276.12 L0 276.12 L0 276.12 L3.54 276.12 Z" class="st8"/>
				<path d="M3.54 276.12 L0 276.12 L0 276.12" class="st9"/>
			</g>
			<g id="shape1462-176" transform="translate(209.055,0)">
				<title>Sheet.1462</title>
				<path d="M7.09 276.12 L0 276.12 L0 276.12 L7.09 276.12 Z" class="st8"/>
				<path d="M7.09 276.12 L0 276.12 L0 276.12" class="st9"/>
			</g>
			<g id="shape1463-179" transform="translate(109.843,0)">
				<title>Sheet.1463</title>
				<path d="M7.09 276.12 L0 276.12 L0 276.12 L7.09 276.12 Z" class="st8"/>
				<path d="M7.09 276.12 L0 276.12 L0 276.12" class="st9"/>
			</g>
			<g id="shape1464-182" transform="translate(95.6693,-95.6693)">
				<title>Sheet.1464</title>
				<path d="M0 276.12 L7.09 269.03 L7.09 269.03 L0 276.12 Z" class="st8"/>
				<path d="M0 276.12 L7.09 269.03 L7.09 269.03" class="st9"/>
			</g>
			<g id="shape1465-185" transform="translate(81.4961,-81.4961)">
				<title>Sheet.1465</title>
				<path d="M0 276.12 L7.09 269.03 L7.09 269.03 L0 276.12 Z" class="st8"/>
				<path d="M0 276.12 L7.09 269.03 L7.09 269.03" class="st9"/>
			</g>
			<g id="shape1466-188" transform="translate(67.3228,-67.3228)">
				<title>Sheet.1466</title>
				<path d="M0 276.12 L7.09 269.03 L7.09 269.03 L0 276.12 Z" class="st8"/>
				<path d="M0 276.12 L7.09 269.03 L7.09 269.03" class="st9"/>
			</g>
			<g id="shape1467-191" transform="translate(53.1496,-53.1496)">
				<title>Sheet.1467</title>
				<path d="M0 276.12 L7.09 269.03 L7.09 269.03 L0 276.12 Z" class="st8"/>
				<path d="M0 276.12 L7.09 269.03 L7.09 269.03" class="st9"/>
			</g>
			<g id="shape1468-194" transform="translate(38.9764,-38.9764)">
				<title>Sheet.1468</title>
				<path d="M0 276.12 L7.09 269.03 L7.09 269.03 L0 276.12 Z" class="st8"/>
				<path d="M0 276.12 L7.09 269.03 L7.09 269.03" class="st9"/>
			</g>
			<g id="shape1469-197" transform="translate(24.8032,-24.8032)">
				<title>Sheet.1469</title>
				<path d="M0 276.12 L7.09 269.03 L7.09 269.03 L0 276.12 Z" class="st8"/>
				<path d="M0 276.12 L7.09 269.03 L7.09 269.03" class="st9"/>
			</g>
			<g id="shape1470-200">
				<title>Sheet.1470</title>
				<path d="M0 276.12 L3.54 272.57 L3.54 272.57 L0 276.12 Z" class="st8"/>
				<path d="M0 276.12 L3.54 272.57 L3.54 272.57" class="st9"/>
			</g>
			<g id="shape1471-203" transform="translate(10.6299,-10.6299)">
				<title>Sheet.1471</title>
				<path d="M0 276.12 L7.09 269.03 L7.09 269.03 L0 276.12 Z" class="st8"/>
				<path d="M0 276.12 L7.09 269.03 L7.09 269.03" class="st9"/>
			</g>
			<g id="shape1472-206" transform="translate(124.016,-124.016)">
				<title>Sheet.1472</title>
				<path d="M7.09 269.03 L0 276.12 L0 276.12 L7.09 269.03 Z" class="st8"/>
				<path d="M7.09 269.03 L0 276.12 L0 276.12" class="st9"/>
			</g>
			<g id="shape1473-209" transform="translate(138.189,-138.189)">
				<title>Sheet.1473</title>
				<path d="M7.09 269.03 L0 276.12 L0 276.12 L7.09 269.03 Z" class="st8"/>
				<path d="M7.09 269.03 L0 276.12 L0 276.12" class="st9"/>
			</g>
			<g id="shape1474-212" transform="translate(152.362,-152.362)">
				<title>Sheet.1474</title>
				<path d="M7.09 269.03 L0 276.12 L0 276.12 L7.09 269.03 Z" class="st8"/>
				<path d="M7.09 269.03 L0 276.12 L0 276.12" class="st9"/>
			</g>
			<g id="shape1475-215" transform="translate(166.535,-166.535)">
				<title>Sheet.1475</title>
				<path d="M7.09 269.03 L0 276.12 L0 276.12 L7.09 269.03 Z" class="st8"/>
				<path d="M7.09 269.03 L0 276.12 L0 276.12" class="st9"/>
			</g>
			<g id="shape1476-218" transform="translate(180.709,-180.709)">
				<title>Sheet.1476</title>
				<path d="M7.08 269.04 L0 276.12 L0 276.12 L7.08 269.04 Z" class="st8"/>
				<path d="M7.08 269.04 L0 276.12 L0 276.12" class="st9"/>
			</g>
			<g id="shape1477-221" transform="translate(194.882,-194.882)">
				<title>Sheet.1477</title>
				<path d="M7.09 269.03 L0 276.12 L0 276.12 L7.09 269.03 Z" class="st8"/>
				<path d="M7.09 269.03 L0 276.12 L0 276.12" class="st9"/>
			</g>
			<g id="shape1478-224" transform="translate(223.228,-223.228)">
				<title>Sheet.1478</title>
				<path d="M3.54 272.57 L0 276.12 L0 276.12 L3.54 272.57 Z" class="st8"/>
				<path d="M3.54 272.57 L0 276.12 L0 276.12" class="st9"/>
			</g>
			<g id="shape1479-227" transform="translate(209.055,-209.055)">
				<title>Sheet.1479</title>
				<path d="M7.09 269.03 L0 276.12 L0 276.12 L7.09 269.03 Z" class="st8"/>
				<path d="M7.09 269.03 L0 276.12 L0 276.12" class="st9"/>
			</g>
			<g id="shape1480-230" transform="translate(109.843,-109.843)">
				<title>Sheet.1480</title>
				<path d="M7.09 269.03 L0 276.12 L0 276.12 L7.09 269.03 Z" class="st8"/>
				<path d="M7.09 269.03 L0 276.12 L0 276.12" class="st9"/>
			</g>
		</g>
	</g>
</svg>
