<?xml version="1.0" encoding="UTF-8" standalone="no"?>
<!DOCTYPE svg PUBLIC "-//W3C//DTD SVG 1.1//EN" "http://www.w3.org/Graphics/SVG/1.1/DTD/svg11.dtd">
<!-- Generated by Microsoft Visio, SVG Export PZ002A_Detail.svg Page-1 -->
<svg xmlns="http://www.w3.org/2000/svg" xmlns:xlink="http://www.w3.org/1999/xlink" xmlns:ev="http://www.w3.org/2001/xml-events"
		width="2.86905in" height="2.19727in" viewBox="0 0 206.571 158.203" xml:space="preserve" color-interpolation-filters="sRGB"
		class="st11">
	<title>PZ002A</title>

	<style type="text/css">
	<![CDATA[
		.st1 {fill:#ffffff;stroke:#ff0000;stroke-linecap:round;stroke-linejoin:round;stroke-width:2.25}
		.st2 {fill:#ffffff}
		.st3 {stroke:#000000;stroke-linecap:round;stroke-linejoin:round;stroke-width:0.24}
		.st4 {marker-end:url(#mrkr13-9);stroke:#000000;stroke-linecap:round;stroke-linejoin:round;stroke-width:0.24}
		.st5 {fill:#000000;fill-opacity:1;stroke:#000000;stroke-opacity:1;stroke-width:0.11764705882353}
		.st6 {fill:#ffffff;stroke:none;stroke-linecap:butt;stroke-width:7.2}
		.st7 {fill:#000000;font-family:Calibri;font-size:0.666664em}
		.st8 {fill:none;stroke:#000000;stroke-linecap:round;stroke-linejoin:round;stroke-width:2.25}
		.st9 {fill:none;stroke:none;stroke-linecap:round;stroke-linejoin:round;stroke-width:0.75}
		.st10 {fill:#000000;font-family:Arial Narrow;font-size:3em;font-weight:bold}
		.st11 {fill:none;fill-rule:evenodd;font-size:12px;overflow:visible;stroke-linecap:square;stroke-miterlimit:3}
	]]>
	</style>

	<defs id="Markers">
		<g id="lend13">
			<path d="M 3 1 L 0 0 L 3 -1 L 3 1 " style="stroke:none"/>
		</g>
		<marker id="mrkr13-9" class="st5" refX="-25.5" orient="auto" markerUnits="strokeWidth" overflow="visible">
			<use xlink:href="#lend13" transform="scale(-8.5000000000001,-8.5000000000001) "/>
		</marker>
	</defs>
	<g>
		<title>Page-1</title>
		<g id="shape1405-1" transform="translate(136.863,-52.1486)">
			<title>Circle</title>
			<path d="M0 151.64 A6.56444 6.56444 0 0 1 13.13 151.64 A6.56444 6.56444 0 1 1 0 151.64 Z" class="st1"/>
		</g>
		<g id="shape1425-3" transform="translate(86.7345,-123.91)">
			<title>Horizontal.1425</title>
			<desc>8mm</desc>
			<path d="M0 130.36 L0 154.2 L0 130.36 ZM113.39 130.36 L113.39 158.98 L113.39 130.36 Z" class="st2"/>
			<path d="M0 130.36 L0 154.2 L0 130.36" class="st3"/>
			<path d="M113.39 130.36 L113.39 158.98 L113.39 130.36" class="st3"/>
			<path d="M56.69 138.36 L6.12 138.36" class="st4"/>
			<path d="M56.69 138.36 L107.27 138.36" class="st4"/>
			<rect x="48.275" y="126.759" width="16.8357" height="9.59985" class="st6"/>
			<text x="48.28" y="133.96" class="st7">8mm</text>		</g>
		<g id="shape1426-16" transform="translate(-123.91,142.107) rotate(-90)">
			<title>Vertical.1426</title>
			<desc>6mm</desc>
			<path d="M0 130.36 L0 154.2 L0 130.36 ZM84.48 130.36 L84.48 182.03 L84.48 130.36 Z" class="st2"/>
			<path d="M0 130.36 L0 154.2 L0 130.36" class="st3"/>
			<path d="M84.48 130.36 L84.48 182.03 L84.48 130.36" class="st3"/>
			<path d="M42.24 138.36 L6.12 138.36" class="st4"/>
			<path d="M42.24 138.36 L78.36 138.36" class="st4"/>
			<rect x="33.8229" y="126.759" width="16.8357" height="9.59985" class="st6"/>
			<text x="33.82" y="133.96" class="st7">6mm</text>		</g>
		<g id="group1427-28" transform="translate(86.7345,-1.125)">
			<title>STPK001.1173</title>
			<g id="shape1428-29" transform="translate(14.1732,-14.1732)">
				<title>Sheet.1428</title>
				<ellipse cx="42.5197" cy="115.684" rx="42.5197" ry="42.5197" class="st8"/>
			</g>
			<g id="shape1429-31">
				<title>Sheet.1429</title>
				<ellipse cx="56.6929" cy="101.511" rx="56.6929" ry="56.6929" class="st8"/>
			</g>
		</g>
		<g id="shape1431-33" transform="translate(86.7345,-30.3666)">
			<title>STPK001.2175</title>
			<desc>MW</desc>
			<rect x="0" y="100.83" width="113.386" height="57.3731" class="st9"/>
			<text x="30.47" y="140.32" class="st10">MW</text>		</g>
	</g>
</svg>
