<?xml version="1.0" encoding="UTF-8" standalone="no"?>
<!DOCTYPE svg PUBLIC "-//W3C//DTD SVG 1.1//EN" "http://www.w3.org/Graphics/SVG/1.1/DTD/svg11.dtd">
<!-- Generated by Microsoft Visio, SVG Export PZ001A.svg Page-1 -->
<svg xmlns="http://www.w3.org/2000/svg" xmlns:xlink="http://www.w3.org/1999/xlink" xmlns:ev="http://www.w3.org/2001/xml-events"
		width="5.77657in" height="5.1433in" viewBox="0 0 415.913 370.318" xml:space="preserve" color-interpolation-filters="sRGB"
		class="st5">
	<title>PZ001A</title>

	<style type="text/css">
	<![CDATA[
		.st1 {stroke:#000000;stroke-linecap:round;stroke-linejoin:round;stroke-width:2.25}
		.st2 {fill:none}
		.st3 {fill:none;stroke:none;stroke-linecap:round;stroke-linejoin:round;stroke-width:0.75}
		.st4 {fill:#ff0000;font-family:Calibri;font-size:4.00001em}
		.st5 {fill:none;fill-rule:evenodd;font-size:12px;overflow:visible;stroke-linecap:square;stroke-miterlimit:3}
	]]>
	</style>

	<g>
		<title>Page-1</title>
		<g id="shape1415-1" transform="translate(-289.254,142.853) rotate(-90)">
			<title>Sheet.1415</title>
			<path d="M0 370.32 L42.52 370.32" class="st1"/>
		</g>
		<g id="shape1416-4" transform="translate(81.0632,-269.984)">
			<title>Sheet.1416</title>
			<path d="M0 370.32 L84.37 370.32" class="st1"/>
		</g>
		<g id="shape1417-7" transform="translate(535.754,100.334) rotate(90)">
			<title>Sheet.1417</title>
			<path d="M0 370.32 L42.52 370.32" class="st1"/>
		</g>
		<g id="shape1418-10" transform="translate(474.302,347.151) rotate(123.483)">
			<title>Sheet.1418</title>
			<path d="M0 370.32 L152.94 370.32" class="st1"/>
		</g>
		<g id="group1421-13" transform="translate(37.8777,-99.9053)">
			<title>STPA008.1418</title>
			<g id="shape1422-14" transform="translate(0,-99.212)">
				<title>Sheet.1422</title>
				<path d="M0 370.32 L85.04 370.32" class="st1"/>
			</g>
			<g id="shape1423-17" transform="translate(412.839,271.126) rotate(90.0023)">
				<title>Sheet.1423</title>
				<path d="M0 370.32 L99.21 370.32" class="st1"/>
			</g>
			<g id="shape1424-20" transform="translate(0.00401742,-99.2067)">
				<title>Sheet.1424</title>
				<path d="M85.04 370.32 A42.5177 28.3515 -180 1 0 0 370.32 L85.04 370.32 Z" class="st2"/>
				<path d="M85.04 370.32 A42.5177 28.3515 -180 1 0 0 370.32" class="st1"/>
			</g>
		</g>
		<g id="shape1525-23" transform="translate(-177.532,86.2629) rotate(-40)">
			<title>Sheet.1525</title>
			<desc>NOT USED</desc>
			<rect x="0" y="276.774" width="463.465" height="93.5433" class="st3"/>
			<text x="130.32" y="337.95" class="st4">NOT USED</text>		</g>
	</g>
</svg>
