<?xml version="1.0" encoding="UTF-8" standalone="no"?>
<!DOCTYPE svg PUBLIC "-//W3C//DTD SVG 1.1//EN" "http://www.w3.org/Graphics/SVG/1.1/DTD/svg11.dtd">
<!-- Generated by Microsoft Visio, SVG Export PZ002A_Detail.svg Page-1 -->
<svg xmlns="http://www.w3.org/2000/svg" xmlns:xlink="http://www.w3.org/1999/xlink" xmlns:ev="http://www.w3.org/2001/xml-events"
		width="11.1719in" height="7.71769in" viewBox="0 0 804.377 555.674" xml:space="preserve" color-interpolation-filters="sRGB"
		class="st13">
	<title>PZ002A</title>

	<style type="text/css">
	<![CDATA[
		.st1 {stroke:#d8d8d8;stroke-linecap:round;stroke-linejoin:round;stroke-width:0.25}
		.st2 {stroke:#7f7f7f;stroke-linecap:round;stroke-linejoin:round;stroke-width:0.25}
		.st3 {fill:#ffffff;stroke:#ff0000;stroke-linecap:round;stroke-linejoin:round;stroke-width:2.25}
		.st4 {fill:#ffffff}
		.st5 {stroke:#000000;stroke-linecap:round;stroke-linejoin:round;stroke-width:0.24}
		.st6 {marker-end:url(#mrkr13-294);stroke:#000000;stroke-linecap:round;stroke-linejoin:round;stroke-width:0.24}
		.st7 {fill:#000000;fill-opacity:1;stroke:#000000;stroke-opacity:1;stroke-width:0.11764705882353}
		.st8 {fill:#ffffff;stroke:none;stroke-linecap:butt;stroke-width:7.2}
		.st9 {fill:#000000;font-family:Calibri;font-size:0.666664em}
		.st10 {fill:none;stroke:#000000;stroke-linecap:round;stroke-linejoin:round;stroke-width:2.25}
		.st11 {fill:none;stroke:none;stroke-linecap:round;stroke-linejoin:round;stroke-width:0.75}
		.st12 {fill:#000000;font-family:Arial Narrow;font-size:3em;font-weight:bold}
		.st13 {fill:none;fill-rule:evenodd;font-size:12px;overflow:visible;stroke-linecap:square;stroke-miterlimit:3}
	]]>
	</style>

	<defs id="Markers">
		<g id="lend13">
			<path d="M 3 1 L 0 0 L 3 -1 L 3 1 " style="stroke:none"/>
		</g>
		<marker id="mrkr13-294" class="st7" refX="-25.5" orient="auto" markerUnits="strokeWidth" overflow="visible">
			<use xlink:href="#lend13" transform="scale(-8.5000000000001,-8.5000000000001) "/>
		</marker>
	</defs>
	<g>
		<title>Page-1</title>
		<g id="shape1309-1" transform="translate(594.506,0.125) rotate(90)">
			<title>Sheet.1309</title>
			<path d="M0 555.67 L555.42 555.67" class="st1"/>
		</g>
		<g id="shape1310-4" transform="translate(622.853,0.125) rotate(90)">
			<title>Sheet.1310</title>
			<path d="M0 555.67 L555.42 555.67" class="st2"/>
		</g>
		<g id="shape1311-7" transform="translate(637.026,0.125) rotate(90)">
			<title>Sheet.1311</title>
			<path d="M0 555.67 L555.42 555.67" class="st1"/>
		</g>
		<g id="shape1312-10" transform="translate(651.199,0.125) rotate(90)">
			<title>Sheet.1312</title>
			<path d="M0 555.67 L555.42 555.67" class="st1"/>
		</g>
		<g id="shape1313-13" transform="translate(665.372,0.125) rotate(90)">
			<title>Sheet.1313</title>
			<path d="M0 555.67 L555.42 555.67" class="st1"/>
		</g>
		<g id="shape1314-16" transform="translate(608.68,0.125) rotate(90)">
			<title>Sheet.1314</title>
			<path d="M0 555.67 L555.42 555.67" class="st1"/>
		</g>
		<g id="shape1315-19" transform="translate(679.546,0.125) rotate(90)">
			<title>Sheet.1315</title>
			<path d="M0 555.67 L555.42 555.67" class="st1"/>
		</g>
		<g id="shape1316-22" transform="translate(693.719,0.125) rotate(90)">
			<title>Sheet.1316</title>
			<path d="M0 555.67 L555.42 555.67" class="st2"/>
		</g>
		<g id="shape1317-25" transform="translate(707.892,0.125) rotate(90)">
			<title>Sheet.1317</title>
			<path d="M0 555.67 L555.42 555.67" class="st1"/>
		</g>
		<g id="shape1318-28" transform="translate(722.065,0.125) rotate(90)">
			<title>Sheet.1318</title>
			<path d="M0 555.67 L555.42 555.67" class="st1"/>
		</g>
		<g id="shape1319-31" transform="translate(750.412,0.125) rotate(90)">
			<title>Sheet.1319</title>
			<path d="M0 555.67 L555.42 555.67" class="st1"/>
		</g>
		<g id="shape1320-34" transform="translate(764.585,0.125) rotate(90)">
			<title>Sheet.1320</title>
			<path d="M0 555.67 L555.42 555.67" class="st2"/>
		</g>
		<g id="shape1321-37" transform="translate(778.758,0.125) rotate(90)">
			<title>Sheet.1321</title>
			<path d="M0 555.67 L555.42 555.67" class="st1"/>
		</g>
		<g id="shape1322-40" transform="translate(792.932,0.125) rotate(90)">
			<title>Sheet.1322</title>
			<path d="M0 555.67 L555.42 555.67" class="st1"/>
		</g>
		<g id="shape1323-43" transform="translate(736.239,0.125) rotate(90)">
			<title>Sheet.1323</title>
			<path d="M0 555.67 L555.42 555.67" class="st1"/>
		</g>
		<g id="shape1324-46" transform="translate(807.105,0.125) rotate(90)">
			<title>Sheet.1324</title>
			<path d="M0 555.67 L555.42 555.67" class="st1"/>
		</g>
		<g id="shape1325-49" transform="translate(821.278,0.125) rotate(90)">
			<title>Sheet.1325</title>
			<path d="M0 555.67 L555.42 555.67" class="st1"/>
		</g>
		<g id="shape1326-52" transform="translate(835.451,0.125) rotate(90)">
			<title>Sheet.1326</title>
			<path d="M0 555.67 L555.42 555.67" class="st2"/>
		</g>
		<g id="shape1327-55" transform="translate(849.624,0.125) rotate(90)">
			<title>Sheet.1327</title>
			<path d="M0 555.67 L555.42 555.67" class="st1"/>
		</g>
		<g id="shape1328-58" transform="translate(877.971,0.125) rotate(90)">
			<title>Sheet.1328</title>
			<path d="M0 555.67 L555.42 555.67" class="st1"/>
		</g>
		<g id="shape1329-61" transform="translate(892.144,0.125) rotate(90)">
			<title>Sheet.1329</title>
			<path d="M0 555.67 L555.42 555.67" class="st1"/>
		</g>
		<g id="shape1330-64" transform="translate(906.317,0.125) rotate(90)">
			<title>Sheet.1330</title>
			<path d="M0 555.67 L555.42 555.67" class="st2"/>
		</g>
		<g id="shape1331-67" transform="translate(920.491,0.125) rotate(90)">
			<title>Sheet.1331</title>
			<path d="M0 555.67 L555.42 555.67" class="st1"/>
		</g>
		<g id="shape1332-70" transform="translate(863.798,0.125) rotate(90)">
			<title>Sheet.1332</title>
			<path d="M0 555.67 L555.42 555.67" class="st1"/>
		</g>
		<g id="shape1333-73" transform="translate(934.664,0.125) rotate(90)">
			<title>Sheet.1333</title>
			<path d="M0 555.67 L555.42 555.67" class="st1"/>
		</g>
		<g id="shape1334-76" transform="translate(948.837,0.125) rotate(90)">
			<title>Sheet.1334</title>
			<path d="M0 555.67 L555.42 555.67" class="st1"/>
		</g>
		<g id="shape1335-79" transform="translate(963.01,0.125) rotate(90)">
			<title>Sheet.1335</title>
			<path d="M0 555.67 L555.42 555.67" class="st1"/>
		</g>
		<g id="shape1336-82" transform="translate(977.183,0.125) rotate(90)">
			<title>Sheet.1336</title>
			<path d="M0 555.67 L555.42 555.67" class="st2"/>
		</g>
		<g id="shape1337-85" transform="translate(1005.53,0.125) rotate(90)">
			<title>Sheet.1337</title>
			<path d="M0 555.67 L555.42 555.67" class="st1"/>
		</g>
		<g id="shape1338-88" transform="translate(1019.7,0.125) rotate(90)">
			<title>Sheet.1338</title>
			<path d="M0 555.67 L555.42 555.67" class="st1"/>
		</g>
		<g id="shape1339-91" transform="translate(1033.88,0.125) rotate(90)">
			<title>Sheet.1339</title>
			<path d="M0 555.67 L555.42 555.67" class="st1"/>
		</g>
		<g id="shape1340-94" transform="translate(1048.05,0.125) rotate(90)">
			<title>Sheet.1340</title>
			<path d="M0 555.67 L555.42 555.67" class="st2"/>
		</g>
		<g id="shape1341-97" transform="translate(991.357,0.125) rotate(90)">
			<title>Sheet.1341</title>
			<path d="M0 555.67 L555.42 555.67" class="st1"/>
		</g>
		<g id="shape1342-100" transform="translate(1062.22,0.125) rotate(90)">
			<title>Sheet.1342</title>
			<path d="M0 555.67 L555.42 555.67" class="st1"/>
		</g>
		<g id="shape1343-103" transform="translate(1076.4,0.125) rotate(90)">
			<title>Sheet.1343</title>
			<path d="M0 555.67 L555.42 555.67" class="st1"/>
		</g>
		<g id="shape1344-106" transform="translate(1090.57,0.125) rotate(90)">
			<title>Sheet.1344</title>
			<path d="M0 555.67 L555.42 555.67" class="st1"/>
		</g>
		<g id="shape1345-109" transform="translate(1104.74,0.125) rotate(90)">
			<title>Sheet.1345</title>
			<path d="M0 555.67 L555.42 555.67" class="st1"/>
		</g>
		<g id="shape1346-112" transform="translate(1133.09,0.125) rotate(90)">
			<title>Sheet.1346</title>
			<path d="M0 555.67 L555.42 555.67" class="st1"/>
		</g>
		<g id="shape1347-115" transform="translate(1147.26,0.125) rotate(90)">
			<title>Sheet.1347</title>
			<path d="M0 555.67 L555.42 555.67" class="st1"/>
		</g>
		<g id="shape1348-118" transform="translate(1161.44,0.125) rotate(90)">
			<title>Sheet.1348</title>
			<path d="M0 555.67 L555.42 555.67" class="st1"/>
		</g>
		<g id="shape1349-121" transform="translate(1175.61,0.125) rotate(90)">
			<title>Sheet.1349</title>
			<path d="M0 555.67 L555.42 555.67" class="st1"/>
		</g>
		<g id="shape1350-124" transform="translate(1118.92,0.125) rotate(90)">
			<title>Sheet.1350</title>
			<path d="M0 555.67 L555.42 555.67" class="st2"/>
		</g>
		<g id="shape1351-127" transform="translate(1189.78,0.125) rotate(90)">
			<title>Sheet.1351</title>
			<path d="M0 555.67 L555.42 555.67" class="st2"/>
		</g>
		<g id="shape1352-130" transform="translate(1203.96,0.125) rotate(90)">
			<title>Sheet.1352</title>
			<path d="M0 555.67 L555.42 555.67" class="st1"/>
		</g>
		<g id="shape1353-133" transform="translate(1218.13,0.125) rotate(90)">
			<title>Sheet.1353</title>
			<path d="M0 555.67 L555.42 555.67" class="st1"/>
		</g>
		<g id="shape1354-136" transform="translate(1232.3,0.125) rotate(90)">
			<title>Sheet.1354</title>
			<path d="M0 555.67 L555.42 555.67" class="st1"/>
		</g>
		<g id="shape1355-139" transform="translate(1260.65,0.125) rotate(90)">
			<title>Sheet.1355</title>
			<path d="M0 555.67 L555.42 555.67" class="st2"/>
		</g>
		<g id="shape1356-142" transform="translate(1274.82,0.125) rotate(90)">
			<title>Sheet.1356</title>
			<path d="M0 555.67 L555.42 555.67" class="st1"/>
		</g>
		<g id="shape1357-145" transform="translate(1288.99,0.125) rotate(90)">
			<title>Sheet.1357</title>
			<path d="M0 555.67 L555.42 555.67" class="st1"/>
		</g>
		<g id="shape1358-148" transform="translate(1303.17,0.125) rotate(90)">
			<title>Sheet.1358</title>
			<path d="M0 555.67 L555.42 555.67" class="st1"/>
		</g>
		<g id="shape1359-151" transform="translate(1246.47,0.125) rotate(90)">
			<title>Sheet.1359</title>
			<path d="M0 555.67 L555.42 555.67" class="st1"/>
		</g>
		<g id="shape1360-154" transform="translate(1317.34,0.125) rotate(90)">
			<title>Sheet.1360</title>
			<path d="M0 555.67 L555.42 555.67" class="st1"/>
		</g>
		<g id="shape1361-157" transform="translate(1331.51,0.125) rotate(90)">
			<title>Sheet.1361</title>
			<path d="M0 555.67 L555.42 555.67" class="st2"/>
		</g>
		<g id="shape1362-160" transform="translate(0.125,-52.1482)">
			<title>Sheet.1362</title>
			<path d="M0 555.67 L801.48 555.67" class="st2"/>
		</g>
		<g id="shape1363-163" transform="translate(0.125,-66.3214)">
			<title>Sheet.1363</title>
			<path d="M0 555.67 L801.48 555.67" class="st1"/>
		</g>
		<g id="shape1364-166" transform="translate(0.125,-80.4947)">
			<title>Sheet.1364</title>
			<path d="M0 555.67 L801.48 555.67" class="st1"/>
		</g>
		<g id="shape1365-169" transform="translate(0.125,-94.6679)">
			<title>Sheet.1365</title>
			<path d="M0 555.67 L801.48 555.67" class="st1"/>
		</g>
		<g id="shape1366-172" transform="translate(0.125,-123.014)">
			<title>Sheet.1366</title>
			<path d="M0 555.67 L801.48 555.67" class="st2"/>
		</g>
		<g id="shape1367-175" transform="translate(0.125,-137.188)">
			<title>Sheet.1367</title>
			<path d="M0 555.67 L801.48 555.67" class="st1"/>
		</g>
		<g id="shape1368-178" transform="translate(0.125,-151.361)">
			<title>Sheet.1368</title>
			<path d="M0 555.67 L801.48 555.67" class="st1"/>
		</g>
		<g id="shape1369-181" transform="translate(0.125,-165.534)">
			<title>Sheet.1369</title>
			<path d="M0 555.67 L801.48 555.67" class="st1"/>
		</g>
		<g id="shape1370-184" transform="translate(0.125,-108.841)">
			<title>Sheet.1370</title>
			<path d="M0 555.67 L801.48 555.67" class="st1"/>
		</g>
		<g id="shape1371-187" transform="translate(0.125,-179.707)">
			<title>Sheet.1371</title>
			<path d="M0 555.67 L801.48 555.67" class="st1"/>
		</g>
		<g id="shape1372-190" transform="translate(0.125,-193.88)">
			<title>Sheet.1372</title>
			<path d="M0 555.67 L801.48 555.67" class="st2"/>
		</g>
		<g id="shape1373-193" transform="translate(0.125,-208.054)">
			<title>Sheet.1373</title>
			<path d="M0 555.67 L801.48 555.67" class="st1"/>
		</g>
		<g id="shape1374-196" transform="translate(0.125,-222.227)">
			<title>Sheet.1374</title>
			<path d="M0 555.67 L801.48 555.67" class="st1"/>
		</g>
		<g id="shape1375-199" transform="translate(0.125,-250.573)">
			<title>Sheet.1375</title>
			<path d="M0 555.67 L801.48 555.67" class="st1"/>
		</g>
		<g id="shape1376-202" transform="translate(0.125,-264.747)">
			<title>Sheet.1376</title>
			<path d="M0 555.67 L801.48 555.67" class="st2"/>
		</g>
		<g id="shape1377-205" transform="translate(0.125,-278.92)">
			<title>Sheet.1377</title>
			<path d="M0 555.67 L801.48 555.67" class="st1"/>
		</g>
		<g id="shape1378-208" transform="translate(2.77287,-293.19)">
			<title>Sheet.1378</title>
			<path d="M0 555.67 L801.48 555.67" class="st1"/>
		</g>
		<g id="shape1379-211" transform="translate(0.125,-236.4)">
			<title>Sheet.1379</title>
			<path d="M0 555.67 L801.48 555.67" class="st1"/>
		</g>
		<g id="shape1380-214" transform="translate(0.125,-307.266)">
			<title>Sheet.1380</title>
			<path d="M0 555.67 L801.48 555.67" class="st1"/>
		</g>
		<g id="shape1381-217" transform="translate(0.125,-321.44)">
			<title>Sheet.1381</title>
			<path d="M0 555.67 L801.48 555.67" class="st1"/>
		</g>
		<g id="shape1382-220" transform="translate(0.125,-335.613)">
			<title>Sheet.1382</title>
			<path d="M0 555.67 L801.48 555.67" class="st2"/>
		</g>
		<g id="shape1383-223" transform="translate(0.125,-349.786)">
			<title>Sheet.1383</title>
			<path d="M0 555.67 L801.48 555.67" class="st1"/>
		</g>
		<g id="shape1384-226" transform="translate(0.125,-378.132)">
			<title>Sheet.1384</title>
			<path d="M0 555.67 L801.48 555.67" class="st1"/>
		</g>
		<g id="shape1385-229" transform="translate(0.125,-392.306)">
			<title>Sheet.1385</title>
			<path d="M0 555.67 L801.48 555.67" class="st1"/>
		</g>
		<g id="shape1386-232" transform="translate(0.125,-406.479)">
			<title>Sheet.1386</title>
			<path d="M0 555.67 L801.48 555.67" class="st2"/>
		</g>
		<g id="shape1387-235" transform="translate(0.125,-420.652)">
			<title>Sheet.1387</title>
			<path d="M0 555.67 L801.48 555.67" class="st1"/>
		</g>
		<g id="shape1388-238" transform="translate(0.125,-363.959)">
			<title>Sheet.1388</title>
			<path d="M0 555.67 L801.48 555.67" class="st1"/>
		</g>
		<g id="shape1389-241" transform="translate(0.125,-434.825)">
			<title>Sheet.1389</title>
			<path d="M0 555.67 L801.48 555.67" class="st1"/>
		</g>
		<g id="shape1390-244" transform="translate(0.125,-448.999)">
			<title>Sheet.1390</title>
			<path d="M0 555.67 L801.48 555.67" class="st1"/>
		</g>
		<g id="shape1391-247" transform="translate(0.125,-463.172)">
			<title>Sheet.1391</title>
			<path d="M0 555.67 L801.48 555.67" class="st1"/>
		</g>
		<g id="shape1392-250" transform="translate(2.28051,-519.962)">
			<title>Sheet.1392</title>
			<path d="M0 555.67 L799.32 555.67" class="st1"/>
		</g>
		<g id="shape1393-253" transform="translate(0.125,-505.692)">
			<title>Sheet.1393</title>
			<path d="M0 555.67 L801.48 555.67" class="st1"/>
		</g>
		<g id="shape1394-256" transform="translate(1.53455,-548.211)">
			<title>Sheet.1394</title>
			<path d="M0 555.67 L800.07 555.67" class="st2"/>
		</g>
		<g id="shape1395-259" transform="translate(0.125,-491.518)">
			<title>Sheet.1395</title>
			<path d="M0 555.67 L801.48 555.67" class="st1"/>
		</g>
		<g id="shape1396-262" transform="translate(0.125,-9.62853)">
			<title>Sheet.1396</title>
			<path d="M0 555.67 L801.48 555.67" class="st1"/>
		</g>
		<g id="shape1397-265" transform="translate(0.125,-23.8018)">
			<title>Sheet.1397</title>
			<path d="M0 555.67 L801.48 555.67" class="st1"/>
		</g>
		<g id="shape1398-268" transform="translate(0.125,-37.975)">
			<title>Sheet.1398</title>
			<path d="M0 555.67 L801.48 555.67" class="st1"/>
		</g>
		<g id="shape1399-271" transform="translate(0.125,-478.188)">
			<title>Sheet.1399</title>
			<path d="M0 555.67 L801.48 555.67" class="st2"/>
		</g>
		<g id="shape1400-274" transform="translate(566.16,0.125) rotate(90)">
			<title>Sheet.1400</title>
			<path d="M0 555.67 L555.42 555.67" class="st1"/>
		</g>
		<g id="shape1401-277" transform="translate(580.333,0.125) rotate(90)">
			<title>Sheet.1401</title>
			<path d="M0 555.67 L555.42 555.67" class="st1"/>
		</g>
		<g id="shape1402-280" transform="translate(1345.69,0.125) rotate(90)">
			<title>Sheet.1402</title>
			<path d="M0 555.67 L555.42 555.67" class="st1"/>
		</g>
		<g id="shape1403-283" transform="translate(0.125,-534.135)">
			<title>Sheet.1403</title>
			<path d="M0 555.67 L801.48 555.67" class="st1"/>
		</g>
		<g id="shape1405-286" transform="translate(400.772,-343.319)">
			<title>Circle</title>
			<path d="M0 549.11 A6.56444 6.56444 0 0 1 13.13 549.11 A6.56444 6.56444 0 1 1 0 549.11 Z" class="st3"/>
		</g>
		<g id="shape1425-288" transform="translate(350.644,-415.08)">
			<title>Horizontal.1425</title>
			<desc>8mm</desc>
			<path d="M0 527.83 L0 551.67 L0 527.83 ZM113.39 527.83 L113.39 556.45 L113.39 527.83 Z" class="st4"/>
			<path d="M0 527.83 L0 551.67 L0 527.83" class="st5"/>
			<path d="M113.39 527.83 L113.39 556.45 L113.39 527.83" class="st5"/>
			<path d="M56.69 535.83 L6.12 535.83" class="st6"/>
			<path d="M56.69 535.83 L107.27 535.83" class="st6"/>
			<rect x="48.275" y="524.23" width="16.8357" height="9.59985" class="st8"/>
			<text x="48.28" y="531.43" class="st9">8mm</text>		</g>
		<g id="shape1426-301" transform="translate(-257.471,248.407) rotate(-90)">
			<title>Vertical.1426</title>
			<desc>6mm</desc>
			<path d="M0 527.83 L0 551.67 L0 527.83 ZM84.48 527.83 L84.48 579.5 L84.48 527.83 Z" class="st4"/>
			<path d="M0 527.83 L0 551.67 L0 527.83" class="st5"/>
			<path d="M84.48 527.83 L84.48 579.5 L84.48 527.83" class="st5"/>
			<path d="M42.24 535.83 L6.12 535.83" class="st6"/>
			<path d="M42.24 535.83 L78.36 535.83" class="st6"/>
			<rect x="33.8229" y="524.23" width="16.8357" height="9.59985" class="st8"/>
			<text x="33.82" y="531.43" class="st9">6mm</text>		</g>
		<g id="group1427-313" transform="translate(350.644,-292.295)">
			<title>STPK001.1173</title>
			<g id="shape1428-314" transform="translate(14.1732,-14.1732)">
				<title>Sheet.1428</title>
				<ellipse cx="42.5197" cy="513.154" rx="42.5197" ry="42.5197" class="st10"/>
			</g>
			<g id="shape1429-316">
				<title>Sheet.1429</title>
				<ellipse cx="56.6929" cy="498.981" rx="56.6929" ry="56.6929" class="st10"/>
			</g>
		</g>
		<g id="shape1431-318" transform="translate(350.644,-321.537)">
			<title>STPK001.2175</title>
			<desc>MW</desc>
			<rect x="0" y="498.301" width="113.386" height="57.3731" class="st11"/>
			<text x="30.47" y="537.79" class="st12">MW</text>		</g>
	</g>
</svg>
