<?xml version="1.0" encoding="UTF-8" standalone="no"?>
<!DOCTYPE svg PUBLIC "-//W3C//DTD SVG 1.1//EN" "http://www.w3.org/Graphics/SVG/1.1/DTD/svg11.dtd">
<!-- Generated by Microsoft Visio, SVG Export PZ019A.svg Page-1 -->
<svg xmlns="http://www.w3.org/2000/svg" xmlns:xlink="http://www.w3.org/1999/xlink" xmlns:ev="http://www.w3.org/2001/xml-events"
		width="2.59031in" height="4.75566in" viewBox="0 0 186.502 342.407" xml:space="preserve" color-interpolation-filters="sRGB"
		class="st4">
	<title>PZ019A</title>

	<style type="text/css">
	<![CDATA[
		.st1 {stroke:#000000;stroke-linecap:round;stroke-linejoin:round;stroke-width:2.25}
		.st2 {fill:none}
		.st3 {fill:none;stroke:#000000;stroke-linecap:round;stroke-linejoin:round;stroke-width:2.25}
		.st4 {fill:none;fill-rule:evenodd;font-size:12px;overflow:visible;stroke-linecap:square;stroke-miterlimit:3}
	]]>
	</style>

	<g>
		<title>Page-1</title>
		<g id="group1452-1" transform="translate(1.125,-1.125)">
			<title>STPZ014.651</title>
			<g id="shape1453-2" transform="translate(-342.407,342.407) rotate(-90)">
				<title>Sheet.1453</title>
				<path d="M0 342.41 L226.77 342.41" class="st1"/>
			</g>
			<g id="shape1454-5" transform="translate(399.1,115.636) rotate(90)">
				<title>Sheet.1454</title>
				<path d="M0 342.41 L113.39 342.41" class="st1"/>
			</g>
			<g id="shape1455-8" transform="translate(-229.022,229.022) rotate(-90)">
				<title>Sheet.1455</title>
				<path d="M0 342.41 L226.77 342.41" class="st1"/>
			</g>
			<g id="shape1456-11" transform="translate(0.00535681,-226.784)">
				<title>Sheet.1456</title>
				<path d="M56.69 342.41 A28.3465 28.3465 -180 0 0 -0 342.41 L56.69 342.41 Z" class="st2"/>
				<path d="M56.69 342.41 A28.3465 28.3465 -180 0 0 -0 342.41" class="st1"/>
			</g>
			<g id="shape1457-14" transform="translate(56.6983,-85.0519)">
				<title>Sheet.1457</title>
				<path d="M0 314.06 A28.3465 28.3465 -180 0 0 56.69 314.06 L0 314.06 Z" class="st2"/>
				<path d="M0 314.06 A28.3465 28.3465 -180 0 0 56.69 314.06" class="st1"/>
			</g>
			<g id="shape1458-17" transform="translate(512.486,87.2894) rotate(90)">
				<title>Sheet.1458</title>
				<path d="M0 342.41 L170.08 342.41" class="st1"/>
			</g>
			<g id="shape1459-20" transform="translate(127.559,-255.118)">
				<title>Sheet.1459</title>
				<path d="M0 342.41 L56.69 342.41" class="st1"/>
			</g>
			<g id="shape1460-23" transform="translate(99.2126,-85.0394)">
				<title>Sheet.1460</title>
				<path d="M0 342.41 L85.04 342.41" class="st1"/>
			</g>
			<g id="shape1461-26" transform="translate(42.5197,-255.118)">
				<title>Sheet.1461</title>
				<path d="M0 342.41 L56.69 342.41" class="st1"/>
			</g>
			<g id="shape1462-29" transform="translate(160.157,-226.772)">
				<title>Sheet.1462</title>
				<path d="M0 342.41 L9.92 314.06 L19.84 342.41 L0 342.41 L0 342.41 Z" class="st3"/>
			</g>
			<g id="shape1463-31" transform="translate(160.157,-85.0394)">
				<title>Sheet.1463</title>
				<path d="M0 314.06 L9.92 342.41 L19.84 314.06 L0 314.06 L0 314.06 Z" class="st3"/>
			</g>
			<g id="shape1464-33" transform="translate(169.521,-253.533)">
				<title>Sheet.1464</title>
				<path d="M0 342.41 L1.12 342.41" class="st1"/>
			</g>
			<g id="shape1465-36" transform="translate(168.784,-251.413)">
				<title>Sheet.1465</title>
				<path d="M0 342.41 L2.59 342.41" class="st1"/>
			</g>
			<g id="shape1466-39" transform="translate(168.036,-249.293)">
				<title>Sheet.1466</title>
				<path d="M0 342.41 L4.08 342.41" class="st1"/>
			</g>
			<g id="shape1467-42" transform="translate(167.3,-247.172)">
				<title>Sheet.1467</title>
				<path d="M0 342.41 L5.56 342.41" class="st1"/>
			</g>
			<g id="shape1468-45" transform="translate(166.552,-245.052)">
				<title>Sheet.1468</title>
				<path d="M0 342.41 L7.05 342.41" class="st1"/>
			</g>
			<g id="shape1469-48" transform="translate(165.816,-242.931)">
				<title>Sheet.1469</title>
				<path d="M0 342.41 L8.53 342.41" class="st1"/>
			</g>
			<g id="shape1470-51" transform="translate(165.068,-240.811)">
				<title>Sheet.1470</title>
				<path d="M0 342.41 L10.02 342.41" class="st1"/>
			</g>
			<g id="shape1471-54" transform="translate(164.331,-238.691)">
				<title>Sheet.1471</title>
				<path d="M0 342.41 L11.49 342.41" class="st1"/>
			</g>
			<g id="shape1472-57" transform="translate(163.584,-236.57)">
				<title>Sheet.1472</title>
				<path d="M0 342.41 L12.99 342.41" class="st1"/>
			</g>
			<g id="shape1473-60" transform="translate(162.847,-234.45)">
				<title>Sheet.1473</title>
				<path d="M0 342.41 L14.46 342.41" class="st1"/>
			</g>
			<g id="shape1474-63" transform="translate(162.099,-232.329)">
				<title>Sheet.1474</title>
				<path d="M0 342.41 L15.96 342.41" class="st1"/>
			</g>
			<g id="shape1475-66" transform="translate(161.363,-230.209)">
				<title>Sheet.1475</title>
				<path d="M0 342.41 L17.43 342.41" class="st1"/>
			</g>
			<g id="shape1476-69" transform="translate(160.615,-228.089)">
				<title>Sheet.1476</title>
				<path d="M0 342.41 L18.93 342.41" class="st1"/>
			</g>
			<g id="shape1477-72" transform="translate(160.492,-112.426)">
				<title>Sheet.1477</title>
				<path d="M0 342.41 L19.17 342.41" class="st1"/>
			</g>
			<g id="shape1478-75" transform="translate(161.24,-110.306)">
				<title>Sheet.1478</title>
				<path d="M0 342.41 L17.68 342.41" class="st1"/>
			</g>
			<g id="shape1479-78" transform="translate(161.977,-108.185)">
				<title>Sheet.1479</title>
				<path d="M0 342.41 L16.2 342.41" class="st1"/>
			</g>
			<g id="shape1480-81" transform="translate(162.724,-106.065)">
				<title>Sheet.1480</title>
				<path d="M0 342.41 L14.71 342.41" class="st1"/>
			</g>
			<g id="shape1481-84" transform="translate(163.461,-103.944)">
				<title>Sheet.1481</title>
				<path d="M0 342.41 L13.24 342.41" class="st1"/>
			</g>
			<g id="shape1482-87" transform="translate(164.209,-101.824)">
				<title>Sheet.1482</title>
				<path d="M0 342.41 L11.74 342.41" class="st1"/>
			</g>
			<g id="shape1483-90" transform="translate(164.945,-99.7036)">
				<title>Sheet.1483</title>
				<path d="M0 342.41 L10.27 342.41" class="st1"/>
			</g>
			<g id="shape1484-93" transform="translate(165.693,-97.5832)">
				<title>Sheet.1484</title>
				<path d="M0 342.41 L8.77 342.41" class="st1"/>
			</g>
			<g id="shape1485-96" transform="translate(166.429,-95.4628)">
				<title>Sheet.1485</title>
				<path d="M0 342.41 L7.3 342.41" class="st1"/>
			</g>
			<g id="shape1486-99" transform="translate(167.177,-93.3424)">
				<title>Sheet.1486</title>
				<path d="M0 342.41 L5.8 342.41" class="st1"/>
			</g>
			<g id="shape1487-102" transform="translate(167.914,-91.222)">
				<title>Sheet.1487</title>
				<path d="M0 342.41 L4.33 342.41" class="st1"/>
			</g>
			<g id="shape1488-105" transform="translate(168.661,-89.1016)">
				<title>Sheet.1488</title>
				<path d="M0 342.41 L2.83 342.41" class="st1"/>
			</g>
			<g id="shape1489-108" transform="translate(169.398,-86.9812)">
				<title>Sheet.1489</title>
				<path d="M0 342.41 L1.36 342.41" class="st1"/>
			</g>
		</g>
	</g>
</svg>
