<?xml version="1.0" encoding="UTF-8" standalone="no"?>
<!DOCTYPE svg PUBLIC "-//W3C//DTD SVG 1.1//EN" "http://www.w3.org/Graphics/SVG/1.1/DTD/svg11.dtd">
<!-- Generated by Microsoft Visio, SVG Export PZ018A.svg Page-1 -->
<svg xmlns="http://www.w3.org/2000/svg" xmlns:xlink="http://www.w3.org/1999/xlink" xmlns:ev="http://www.w3.org/2001/xml-events"
		width="1.60605in" height="2.39345in" viewBox="0 0 115.636 172.329" xml:space="preserve" color-interpolation-filters="sRGB"
		class="st3">
	<title>PZ018A</title>

	<style type="text/css">
	<![CDATA[
		.st1 {fill:none;stroke:#000000;stroke-linecap:round;stroke-linejoin:round;stroke-width:2.25}
		.st2 {stroke:#000000;stroke-linecap:round;stroke-linejoin:round;stroke-width:2.25}
		.st3 {fill:none;fill-rule:evenodd;font-size:12px;overflow:visible;stroke-linecap:square;stroke-miterlimit:3}
	]]>
	</style>

	<g>
		<title>Page-1</title>
		<g id="group1432-1" transform="translate(1.125,-1.125)">
			<title>STPZ013.632</title>
			<g id="shape1433-2" transform="translate(0,-56.6929)">
				<title>Sheet.1433</title>
				<path d="M0 172.33 L113.39 172.33 L113.39 58.94 L0 58.94 L0 172.33 L0 172.33 Z" class="st1"/>
			</g>
			<g id="shape1434-4" transform="translate(-115.636,172.329) rotate(-90)">
				<title>Sheet.1434</title>
				<path d="M0 172.33 L56.69 172.33" class="st2"/>
			</g>
			<g id="shape1435-7" transform="translate(14.1732,-141.732)">
				<title>Sheet.1435</title>
				<path d="M0 172.33 L85.04 172.33" class="st2"/>
			</g>
			<g id="shape1436-10" transform="translate(229.022,30.5965) rotate(90)">
				<title>Sheet.1436</title>
				<path d="M0 172.33 L85.04 172.33" class="st2"/>
			</g>
			<g id="shape1437-13" transform="translate(46.7717,3.69482E-13)">
				<title>Sheet.1437</title>
				<path d="M0 143.98 L9.92 172.33 L19.84 143.98 L0 143.98 L0 143.98 Z" class="st1"/>
			</g>
			<g id="shape1438-15" transform="translate(47.2181,-27.0631)">
				<title>Sheet.1438</title>
				<path d="M0 172.33 L18.95 172.33" class="st2"/>
			</g>
			<g id="shape1439-18" transform="translate(47.9658,-24.9427)">
				<title>Sheet.1439</title>
				<path d="M0 172.33 L17.45 172.33" class="st2"/>
			</g>
			<g id="shape1440-21" transform="translate(48.7023,-22.8222)">
				<title>Sheet.1440</title>
				<path d="M0 172.33 L15.98 172.33" class="st2"/>
			</g>
			<g id="shape1441-24" transform="translate(49.4501,-20.7018)">
				<title>Sheet.1441</title>
				<path d="M0 172.33 L14.49 172.33" class="st2"/>
			</g>
			<g id="shape1442-27" transform="translate(50.1866,-18.5814)">
				<title>Sheet.1442</title>
				<path d="M0 172.33 L13.01 172.33" class="st2"/>
			</g>
			<g id="shape1443-30" transform="translate(50.9343,-16.461)">
				<title>Sheet.1443</title>
				<path d="M0 172.33 L11.52 172.33" class="st2"/>
			</g>
			<g id="shape1444-33" transform="translate(51.6709,-14.3406)">
				<title>Sheet.1444</title>
				<path d="M0 172.33 L10.04 172.33" class="st2"/>
			</g>
			<g id="shape1445-36" transform="translate(52.4186,-12.2202)">
				<title>Sheet.1445</title>
				<path d="M0 172.33 L8.55 172.33" class="st2"/>
			</g>
			<g id="shape1446-39" transform="translate(53.1552,-10.0998)">
				<title>Sheet.1446</title>
				<path d="M0 172.33 L7.08 172.33" class="st2"/>
			</g>
			<g id="shape1447-42" transform="translate(53.9029,-7.97942)">
				<title>Sheet.1447</title>
				<path d="M0 172.33 L5.58 172.33" class="st2"/>
			</g>
			<g id="shape1448-45" transform="translate(54.6395,-5.85901)">
				<title>Sheet.1448</title>
				<path d="M0 172.33 L4.11 172.33" class="st2"/>
			</g>
			<g id="shape1449-48" transform="translate(55.3872,-3.73861)">
				<title>Sheet.1449</title>
				<path d="M0 172.33 L2.61 172.33" class="st2"/>
			</g>
			<g id="shape1450-51" transform="translate(56.1238,-1.6182)">
				<title>Sheet.1450</title>
				<path d="M0 172.33 L1.14 172.33" class="st2"/>
			</g>
		</g>
	</g>
</svg>
