<?xml version="1.0" encoding="UTF-8" standalone="no"?>
<!DOCTYPE svg PUBLIC "-//W3C//DTD SVG 1.1//EN" "http://www.w3.org/Graphics/SVG/1.1/DTD/svg11.dtd">
<!-- Generated by Microsoft Visio, SVG Export PZ013A_Option1.svg PV005A -->
<svg xmlns="http://www.w3.org/2000/svg" xmlns:xlink="http://www.w3.org/1999/xlink" xmlns:ev="http://www.w3.org/2001/xml-events"
		width="11.6929in" height="8.26772in" viewBox="0 0 841.89 595.276" xml:space="preserve" color-interpolation-filters="sRGB"
		class="st18">
	<title>PZ013A</title>

	<style type="text/css">
	<![CDATA[
		.st1 {stroke:#7f7f7f;stroke-linecap:round;stroke-linejoin:round;stroke-width:0.25}
		.st2 {stroke:#d8d8d8;stroke-linecap:round;stroke-linejoin:round;stroke-width:0.25}
		.st3 {fill:none;stroke:#ff0000;stroke-linecap:round;stroke-linejoin:round;stroke-width:0.75}
		.st4 {fill:#ff0000;font-family:Arial Narrow;font-size:0.833336em;font-weight:bold}
		.st5 {fill:none;stroke:none;stroke-linecap:round;stroke-linejoin:round;stroke-width:0.75}
		.st6 {fill:#ff0000;font-family:Arial Narrow;font-size:0.811964em;font-weight:bold}
		.st7 {baseline-shift:33.35%;font-size:0.667em}
		.st8 {fill:#ffffff}
		.st9 {stroke:#000000;stroke-linecap:round;stroke-linejoin:round;stroke-width:0.24}
		.st10 {marker-end:url(#mrkr13-301);stroke:#000000;stroke-linecap:round;stroke-linejoin:round;stroke-width:0.24}
		.st11 {fill:#000000;fill-opacity:1;stroke:#000000;stroke-opacity:1;stroke-width:0.11764705882353}
		.st12 {fill:#ffffff;stroke:none;stroke-linecap:butt}
		.st13 {fill:#000000;font-family:Calibri;font-size:0.666664em}
		.st14 {fill:#ffffff;stroke:none;stroke-linecap:butt;stroke-width:7.2}
		.st15 {stroke:#000000;stroke-linecap:round;stroke-linejoin:round;stroke-width:2.25}
		.st16 {fill:#000000;stroke:#000000;stroke-linecap:round;stroke-linejoin:round;stroke-width:0.75}
		.st17 {fill:none;stroke:#ff0000;stroke-linecap:round;stroke-linejoin:round;stroke-width:2.25}
		.st18 {fill:none;fill-rule:evenodd;font-size:12px;overflow:visible;stroke-linecap:square;stroke-miterlimit:3}
	]]>
	</style>

	<defs id="Markers">
		<g id="lend13">
			<path d="M 3 1 L 0 0 L 3 -1 L 3 1 " style="stroke:none"/>
		</g>
		<marker id="mrkr13-301" class="st11" refX="-25.5" orient="auto" markerUnits="strokeWidth" overflow="visible">
			<use xlink:href="#lend13" transform="scale(-8.5000000000001,-8.5000000000001) "/>
		</marker>
	</defs>
	<g>
		<title>PZ013A</title>
		<g id="group1404-1" transform="translate(17.9854,-18.746)">
			<title>Sheet.1404</title>
			<g id="shape1394-2" transform="translate(1.40955,-548.086)" display="none">
				<title>Sheet.1394</title>
				<path d="M0 595.28 L800.07 595.28" class="st1"/>
			</g>
			<g id="shape1309-5" transform="translate(633.983,39.8518) rotate(90)" display="none">
				<title>Sheet.1309</title>
				<path d="M0 595.28 L555.42 595.28" class="st2"/>
			</g>
			<g id="shape1310-8" transform="translate(662.33,39.8518) rotate(90)" display="none">
				<title>Sheet.1310</title>
				<path d="M0 595.28 L555.42 595.28" class="st1"/>
			</g>
			<g id="shape1311-11" transform="translate(676.503,39.8518) rotate(90)" display="none">
				<title>Sheet.1311</title>
				<path d="M0 595.28 L555.42 595.28" class="st2"/>
			</g>
			<g id="shape1312-14" transform="translate(690.676,39.8518) rotate(90)" display="none">
				<title>Sheet.1312</title>
				<path d="M0 595.28 L555.42 595.28" class="st2"/>
			</g>
			<g id="shape1313-17" transform="translate(704.849,39.8518) rotate(90)" display="none">
				<title>Sheet.1313</title>
				<path d="M0 595.28 L555.42 595.28" class="st2"/>
			</g>
			<g id="shape1314-20" transform="translate(648.156,39.8518) rotate(90)" display="none">
				<title>Sheet.1314</title>
				<path d="M0 595.28 L555.42 595.28" class="st2"/>
			</g>
			<g id="shape1315-23" transform="translate(719.022,39.8518) rotate(90)" display="none">
				<title>Sheet.1315</title>
				<path d="M0 595.28 L555.42 595.28" class="st2"/>
			</g>
			<g id="shape1316-26" transform="translate(733.196,39.8518) rotate(90)" display="none">
				<title>Sheet.1316</title>
				<path d="M0 595.28 L555.42 595.28" class="st1"/>
			</g>
			<g id="shape1317-29" transform="translate(747.369,39.8518) rotate(90)" display="none">
				<title>Sheet.1317</title>
				<path d="M0 595.28 L555.42 595.28" class="st2"/>
			</g>
			<g id="shape1318-32" transform="translate(761.542,39.8518) rotate(90)" display="none">
				<title>Sheet.1318</title>
				<path d="M0 595.28 L555.42 595.28" class="st2"/>
			</g>
			<g id="shape1319-35" transform="translate(789.889,39.8518) rotate(90)" display="none">
				<title>Sheet.1319</title>
				<path d="M0 595.28 L555.42 595.28" class="st2"/>
			</g>
			<g id="shape1320-38" transform="translate(804.062,39.8518) rotate(90)" display="none">
				<title>Sheet.1320</title>
				<path d="M0 595.28 L555.42 595.28" class="st1"/>
			</g>
			<g id="shape1321-41" transform="translate(818.235,39.8518) rotate(90)" display="none">
				<title>Sheet.1321</title>
				<path d="M0 595.28 L555.42 595.28" class="st2"/>
			</g>
			<g id="shape1322-44" transform="translate(832.408,39.8518) rotate(90)" display="none">
				<title>Sheet.1322</title>
				<path d="M0 595.28 L555.42 595.28" class="st2"/>
			</g>
			<g id="shape1323-47" transform="translate(775.715,39.8518) rotate(90)" display="none">
				<title>Sheet.1323</title>
				<path d="M0 595.28 L555.42 595.28" class="st2"/>
			</g>
			<g id="shape1324-50" transform="translate(846.582,39.8518) rotate(90)" display="none">
				<title>Sheet.1324</title>
				<path d="M0 595.28 L555.42 595.28" class="st2"/>
			</g>
			<g id="shape1325-53" transform="translate(860.755,39.8518) rotate(90)" display="none">
				<title>Sheet.1325</title>
				<path d="M0 595.28 L555.42 595.28" class="st2"/>
			</g>
			<g id="shape1326-56" transform="translate(874.928,39.8518) rotate(90)" display="none">
				<title>Sheet.1326</title>
				<path d="M0 595.28 L555.42 595.28" class="st1"/>
			</g>
			<g id="shape1327-59" transform="translate(889.101,39.8518) rotate(90)" display="none">
				<title>Sheet.1327</title>
				<path d="M0 595.28 L555.42 595.28" class="st2"/>
			</g>
			<g id="shape1328-62" transform="translate(917.448,39.8518) rotate(90)" display="none">
				<title>Sheet.1328</title>
				<path d="M0 595.28 L555.42 595.28" class="st2"/>
			</g>
			<g id="shape1329-65" transform="translate(931.621,39.8518) rotate(90)" display="none">
				<title>Sheet.1329</title>
				<path d="M0 595.28 L555.42 595.28" class="st2"/>
			</g>
			<g id="shape1330-68" transform="translate(945.794,39.8518) rotate(90)" display="none">
				<title>Sheet.1330</title>
				<path d="M0 595.28 L555.42 595.28" class="st1"/>
			</g>
			<g id="shape1331-71" transform="translate(959.967,39.8518) rotate(90)" display="none">
				<title>Sheet.1331</title>
				<path d="M0 595.28 L555.42 595.28" class="st2"/>
			</g>
			<g id="shape1332-74" transform="translate(903.274,39.8518) rotate(90)" display="none">
				<title>Sheet.1332</title>
				<path d="M0 595.28 L555.42 595.28" class="st2"/>
			</g>
			<g id="shape1333-77" transform="translate(974.141,39.8518) rotate(90)" display="none">
				<title>Sheet.1333</title>
				<path d="M0 595.28 L555.42 595.28" class="st2"/>
			</g>
			<g id="shape1334-80" transform="translate(988.314,39.8518) rotate(90)" display="none">
				<title>Sheet.1334</title>
				<path d="M0 595.28 L555.42 595.28" class="st2"/>
			</g>
			<g id="shape1335-83" transform="translate(1002.49,39.8518) rotate(90)" display="none">
				<title>Sheet.1335</title>
				<path d="M0 595.28 L555.42 595.28" class="st2"/>
			</g>
			<g id="shape1336-86" transform="translate(1016.66,39.8518) rotate(90)" display="none">
				<title>Sheet.1336</title>
				<path d="M0 595.28 L555.42 595.28" class="st1"/>
			</g>
			<g id="shape1337-89" transform="translate(1045.01,39.8518) rotate(90)" display="none">
				<title>Sheet.1337</title>
				<path d="M0 595.28 L555.42 595.28" class="st2"/>
			</g>
			<g id="shape1338-92" transform="translate(1059.18,39.8518) rotate(90)" display="none">
				<title>Sheet.1338</title>
				<path d="M0 595.28 L555.42 595.28" class="st2"/>
			</g>
			<g id="shape1339-95" transform="translate(1073.35,39.8518) rotate(90)" display="none">
				<title>Sheet.1339</title>
				<path d="M0 595.28 L555.42 595.28" class="st2"/>
			</g>
			<g id="shape1340-98" transform="translate(1087.53,39.8518) rotate(90)" display="none">
				<title>Sheet.1340</title>
				<path d="M0 595.28 L555.42 595.28" class="st1"/>
			</g>
			<g id="shape1341-101" transform="translate(1030.83,39.8518) rotate(90)" display="none">
				<title>Sheet.1341</title>
				<path d="M0 595.28 L555.42 595.28" class="st2"/>
			</g>
			<g id="shape1342-104" transform="translate(1101.7,39.8518) rotate(90)" display="none">
				<title>Sheet.1342</title>
				<path d="M0 595.28 L555.42 595.28" class="st2"/>
			</g>
			<g id="shape1343-107" transform="translate(1115.87,39.8518) rotate(90)" display="none">
				<title>Sheet.1343</title>
				<path d="M0 595.28 L555.42 595.28" class="st2"/>
			</g>
			<g id="shape1344-110" transform="translate(1130.05,39.8518) rotate(90)" display="none">
				<title>Sheet.1344</title>
				<path d="M0 595.28 L555.42 595.28" class="st2"/>
			</g>
			<g id="shape1345-113" transform="translate(1144.22,39.8518) rotate(90)" display="none">
				<title>Sheet.1345</title>
				<path d="M0 595.28 L555.42 595.28" class="st2"/>
			</g>
			<g id="shape1346-116" transform="translate(1172.57,39.8518) rotate(90)" display="none">
				<title>Sheet.1346</title>
				<path d="M0 595.28 L555.42 595.28" class="st2"/>
			</g>
			<g id="shape1347-119" transform="translate(1186.74,39.8518) rotate(90)" display="none">
				<title>Sheet.1347</title>
				<path d="M0 595.28 L555.42 595.28" class="st2"/>
			</g>
			<g id="shape1348-122" transform="translate(1200.91,39.8518) rotate(90)" display="none">
				<title>Sheet.1348</title>
				<path d="M0 595.28 L555.42 595.28" class="st2"/>
			</g>
			<g id="shape1349-125" transform="translate(1215.09,39.8518) rotate(90)" display="none">
				<title>Sheet.1349</title>
				<path d="M0 595.28 L555.42 595.28" class="st2"/>
			</g>
			<g id="shape1350-128" transform="translate(1158.39,39.8518) rotate(90)" display="none">
				<title>Sheet.1350</title>
				<path d="M0 595.28 L555.42 595.28" class="st1"/>
			</g>
			<g id="shape1351-131" transform="translate(1229.26,39.8518) rotate(90)" display="none">
				<title>Sheet.1351</title>
				<path d="M0 595.28 L555.42 595.28" class="st1"/>
			</g>
			<g id="shape1352-134" transform="translate(1243.43,39.8518) rotate(90)" display="none">
				<title>Sheet.1352</title>
				<path d="M0 595.28 L555.42 595.28" class="st2"/>
			</g>
			<g id="shape1353-137" transform="translate(1257.61,39.8518) rotate(90)" display="none">
				<title>Sheet.1353</title>
				<path d="M0 595.28 L555.42 595.28" class="st2"/>
			</g>
			<g id="shape1354-140" transform="translate(1271.78,39.8518) rotate(90)" display="none">
				<title>Sheet.1354</title>
				<path d="M0 595.28 L555.42 595.28" class="st2"/>
			</g>
			<g id="shape1355-143" transform="translate(1300.12,39.8518) rotate(90)" display="none">
				<title>Sheet.1355</title>
				<path d="M0 595.28 L555.42 595.28" class="st1"/>
			</g>
			<g id="shape1356-146" transform="translate(1314.3,39.8518) rotate(90)" display="none">
				<title>Sheet.1356</title>
				<path d="M0 595.28 L555.42 595.28" class="st2"/>
			</g>
			<g id="shape1357-149" transform="translate(1328.47,39.8518) rotate(90)" display="none">
				<title>Sheet.1357</title>
				<path d="M0 595.28 L555.42 595.28" class="st2"/>
			</g>
			<g id="shape1358-152" transform="translate(1342.64,39.8518) rotate(90)" display="none">
				<title>Sheet.1358</title>
				<path d="M0 595.28 L555.42 595.28" class="st2"/>
			</g>
			<g id="shape1359-155" transform="translate(1285.95,39.8518) rotate(90)" display="none">
				<title>Sheet.1359</title>
				<path d="M0 595.28 L555.42 595.28" class="st2"/>
			</g>
			<g id="shape1360-158" transform="translate(1356.82,39.8518) rotate(90)" display="none">
				<title>Sheet.1360</title>
				<path d="M0 595.28 L555.42 595.28" class="st2"/>
			</g>
			<g id="shape1361-161" transform="translate(1370.99,39.8518) rotate(90)" display="none">
				<title>Sheet.1361</title>
				<path d="M0 595.28 L555.42 595.28" class="st1"/>
			</g>
			<g id="shape1362-164" transform="translate(6.39488E-14,-52.0232)" display="none">
				<title>Sheet.1362</title>
				<path d="M0 595.28 L801.48 595.28" class="st1"/>
			</g>
			<g id="shape1363-167" transform="translate(6.39488E-14,-66.1964)" display="none">
				<title>Sheet.1363</title>
				<path d="M0 595.28 L801.48 595.28" class="st2"/>
			</g>
			<g id="shape1364-170" transform="translate(6.39488E-14,-80.3697)" display="none">
				<title>Sheet.1364</title>
				<path d="M0 595.28 L801.48 595.28" class="st2"/>
			</g>
			<g id="shape1365-173" transform="translate(0,-94.5429)" display="none">
				<title>Sheet.1365</title>
				<path d="M0 595.28 L801.48 595.28" class="st2"/>
			</g>
			<g id="shape1366-176" transform="translate(6.39488E-14,-122.889)" display="none">
				<title>Sheet.1366</title>
				<path d="M0 595.28 L801.48 595.28" class="st1"/>
			</g>
			<g id="shape1367-179" transform="translate(6.39488E-14,-137.063)" display="none">
				<title>Sheet.1367</title>
				<path d="M0 595.28 L801.48 595.28" class="st2"/>
			</g>
			<g id="shape1368-182" transform="translate(6.39488E-14,-151.236)" display="none">
				<title>Sheet.1368</title>
				<path d="M0 595.28 L801.48 595.28" class="st2"/>
			</g>
			<g id="shape1369-185" transform="translate(6.39488E-14,-165.409)" display="none">
				<title>Sheet.1369</title>
				<path d="M0 595.28 L801.48 595.28" class="st2"/>
			</g>
			<g id="shape1370-188" transform="translate(6.39488E-14,-108.716)" display="none">
				<title>Sheet.1370</title>
				<path d="M0 595.28 L801.48 595.28" class="st2"/>
			</g>
			<g id="shape1371-191" transform="translate(6.39488E-14,-179.582)" display="none">
				<title>Sheet.1371</title>
				<path d="M0 595.28 L801.48 595.28" class="st2"/>
			</g>
			<g id="shape1372-194" transform="translate(6.39488E-14,-193.755)" display="none">
				<title>Sheet.1372</title>
				<path d="M0 595.28 L801.48 595.28" class="st1"/>
			</g>
			<g id="shape1373-197" transform="translate(6.39488E-14,-207.929)" display="none">
				<title>Sheet.1373</title>
				<path d="M0 595.28 L801.48 595.28" class="st2"/>
			</g>
			<g id="shape1374-200" transform="translate(6.39488E-14,-222.102)" display="none">
				<title>Sheet.1374</title>
				<path d="M0 595.28 L801.48 595.28" class="st2"/>
			</g>
			<g id="shape1375-203" transform="translate(6.39488E-14,-250.448)" display="none">
				<title>Sheet.1375</title>
				<path d="M0 595.28 L801.48 595.28" class="st2"/>
			</g>
			<g id="shape1376-206" transform="translate(6.39488E-14,-264.622)" display="none">
				<title>Sheet.1376</title>
				<path d="M0 595.28 L801.48 595.28" class="st1"/>
			</g>
			<g id="shape1377-209" transform="translate(0,-278.795)" display="none">
				<title>Sheet.1377</title>
				<path d="M0 595.28 L801.48 595.28" class="st2"/>
			</g>
			<g id="shape1378-212" transform="translate(2.64787,-293.065)" display="none">
				<title>Sheet.1378</title>
				<path d="M0 595.28 L801.48 595.28" class="st2"/>
			</g>
			<g id="shape1379-215" transform="translate(6.39488E-14,-236.275)" display="none">
				<title>Sheet.1379</title>
				<path d="M0 595.28 L801.48 595.28" class="st2"/>
			</g>
			<g id="shape1380-218" transform="translate(0,-307.141)" display="none">
				<title>Sheet.1380</title>
				<path d="M0 595.28 L801.48 595.28" class="st2"/>
			</g>
			<g id="shape1381-221" transform="translate(6.39488E-14,-321.315)" display="none">
				<title>Sheet.1381</title>
				<path d="M0 595.28 L801.48 595.28" class="st2"/>
			</g>
			<g id="shape1382-224" transform="translate(6.39488E-14,-335.488)" display="none">
				<title>Sheet.1382</title>
				<path d="M0 595.28 L801.48 595.28" class="st1"/>
			</g>
			<g id="shape1383-227" transform="translate(6.39488E-14,-349.661)" display="none">
				<title>Sheet.1383</title>
				<path d="M0 595.28 L801.48 595.28" class="st2"/>
			</g>
			<g id="shape1384-230" transform="translate(6.39488E-14,-378.007)" display="none">
				<title>Sheet.1384</title>
				<path d="M0 595.28 L801.48 595.28" class="st2"/>
			</g>
			<g id="shape1385-233" transform="translate(6.39488E-14,-392.181)" display="none">
				<title>Sheet.1385</title>
				<path d="M0 595.28 L801.48 595.28" class="st2"/>
			</g>
			<g id="shape1386-236" transform="translate(6.39488E-14,-406.354)" display="none">
				<title>Sheet.1386</title>
				<path d="M0 595.28 L801.48 595.28" class="st1"/>
			</g>
			<g id="shape1387-239" transform="translate(6.39488E-14,-420.527)" display="none">
				<title>Sheet.1387</title>
				<path d="M0 595.28 L801.48 595.28" class="st2"/>
			</g>
			<g id="shape1388-242" transform="translate(6.39488E-14,-363.834)" display="none">
				<title>Sheet.1388</title>
				<path d="M0 595.28 L801.48 595.28" class="st2"/>
			</g>
			<g id="shape1389-245" transform="translate(6.39488E-14,-434.7)" display="none">
				<title>Sheet.1389</title>
				<path d="M0 595.28 L801.48 595.28" class="st2"/>
			</g>
			<g id="shape1390-248" transform="translate(6.39488E-14,-448.874)" display="none">
				<title>Sheet.1390</title>
				<path d="M0 595.28 L801.48 595.28" class="st2"/>
			</g>
			<g id="shape1391-251" transform="translate(6.39488E-14,-463.047)" display="none">
				<title>Sheet.1391</title>
				<path d="M0 595.28 L801.48 595.28" class="st2"/>
			</g>
			<g id="shape1392-254" transform="translate(2.15551,-519.837)" display="none">
				<title>Sheet.1392</title>
				<path d="M0 595.28 L799.32 595.28" class="st2"/>
			</g>
			<g id="shape1393-257" transform="translate(6.39488E-14,-505.567)" display="none">
				<title>Sheet.1393</title>
				<path d="M0 595.28 L801.48 595.28" class="st2"/>
			</g>
			<g id="shape1395-260" transform="translate(6.39488E-14,-491.393)" display="none">
				<title>Sheet.1395</title>
				<path d="M0 595.28 L801.48 595.28" class="st2"/>
			</g>
			<g id="shape1396-263" transform="translate(6.39488E-14,-9.50352)" display="none">
				<title>Sheet.1396</title>
				<path d="M0 595.28 L801.48 595.28" class="st2"/>
			</g>
			<g id="shape1397-266" transform="translate(6.39488E-14,-23.6768)" display="none">
				<title>Sheet.1397</title>
				<path d="M0 595.28 L801.48 595.28" class="st2"/>
			</g>
			<g id="shape1398-269" transform="translate(6.39488E-14,-37.85)" display="none">
				<title>Sheet.1398</title>
				<path d="M0 595.28 L801.48 595.28" class="st2"/>
			</g>
			<g id="shape1399-272" transform="translate(6.39488E-14,-478.063)" display="none">
				<title>Sheet.1399</title>
				<path d="M0 595.28 L801.48 595.28" class="st1"/>
			</g>
			<g id="shape1400-275" transform="translate(605.637,39.8518) rotate(90)" display="none">
				<title>Sheet.1400</title>
				<path d="M0 595.28 L555.42 595.28" class="st2"/>
			</g>
			<g id="shape1401-278" transform="translate(619.81,39.8518) rotate(90)" display="none">
				<title>Sheet.1401</title>
				<path d="M0 595.28 L555.42 595.28" class="st2"/>
			</g>
			<g id="shape1402-281" transform="translate(1385.16,39.8518) rotate(90)" display="none">
				<title>Sheet.1402</title>
				<path d="M0 595.28 L555.42 595.28" class="st2"/>
			</g>
			<g id="shape1403-284" transform="translate(0,-534.01)" display="none">
				<title>Sheet.1403</title>
				<path d="M0 595.28 L801.48 595.28" class="st2"/>
			</g>
		</g>
		<g id="group1501-287" transform="translate(281.323,-411.024)">
			<title>Sheet.1501</title>
			<g id="shape1502-288" transform="translate(2.14165,0)" display="none">
				<title>Sheet.1502</title>
				<desc>1</desc>
				<rect x="0" y="581.102" width="85.0394" height="14.1732" class="st3"/>
				<text x="40.24" y="591.19" class="st4">1</text>			</g>
			<g id="shape1503-291" transform="translate(0,-4.47576)" display="none">
				<title>Sheet.1503</title>
				<desc>A</desc>
				<rect x="0" y="581.102" width="13.2348" height="14.1732" class="st5"/>
				<text x="4" y="594.79" class="st6"><tspan class="st7">A</tspan></text>			</g>
		</g>
		<g id="shape1539-295" transform="translate(227.331,-424.552)" display="none">
			<title>Horizontal.1007</title>
			<desc>2 mm</desc>
			<path d="M0 566.02 L0 591.28 L0 566.02 ZM28.35 566.02 L28.35 577.1 L28.35 566.02 Z" class="st8"/>
			<path d="M0 566.02 L0 591.28 L0 566.02" class="st9"/>
			<path d="M28.35 566.02 L28.35 577.1 L28.35 566.02" class="st9"/>
			<path d="M-12 574.02 L-6.12 574.02" class="st10"/>
			<path d="M40.34 574.02 L34.47 574.02" class="st10"/>
			<rect x="4.85104" y="562.414" width="18.6443" height="9.59985" class="st12"/>
			<text x="4.85" y="569.61" class="st13">2 mm</text>		</g>
		<g id="shape1540-308" transform="translate(-377.455,212.598) rotate(-90)" display="none">
			<title>Vertical.1008</title>
			<desc>3 mm</desc>
			<path d="M0 567.43 L0 591.28 L0 567.43 ZM42.52 567.43 L42.52 591.28 L42.52 567.43 Z" class="st8"/>
			<path d="M0 567.43 L0 591.28 L0 567.43" class="st9"/>
			<path d="M42.52 567.43 L42.52 591.28 L42.52 567.43" class="st9"/>
			<path d="M21.26 575.43 L6.12 575.43" class="st10"/>
			<path d="M21.26 575.43 L36.4 575.43" class="st10"/>
			<rect x="11.9377" y="563.831" width="18.6443" height="9.59985" class="st14"/>
			<text x="11.94" y="571.03" class="st13">3 mm</text>		</g>
		<g id="shape1541-320" transform="translate(212.785,-467.616)" display="none">
			<title>Horizontal.1009</title>
			<desc>4 mm</desc>
			<path d="M0 567.43 L0 591.28 L0 567.43 ZM56.32 567.43 L56.32 586.8 L56.32 567.43 Z" class="st8"/>
			<path d="M0 567.43 L0 591.28 L0 567.43" class="st9"/>
			<path d="M56.32 567.43 L56.32 586.8 L56.32 567.43" class="st9"/>
			<path d="M28.16 575.43 L6.12 575.43" class="st10"/>
			<path d="M28.16 575.43 L50.2 575.43" class="st10"/>
			<rect x="18.8378" y="563.831" width="18.6443" height="9.59985" class="st14"/>
			<text x="18.84" y="571.03" class="st13">4 mm</text>		</g>
		<g id="shape1542-332" transform="translate(-376.709,297.638) rotate(-90)" display="none">
			<title>Vertical.1010</title>
			<desc>4 mm</desc>
			<path d="M0 567.43 L0 591.28 L0 567.43 ZM56.3 567.43 L56.3 591.28 L56.3 567.43 Z" class="st8"/>
			<path d="M0 567.43 L0 591.28 L0 567.43" class="st9"/>
			<path d="M56.3 567.43 L56.3 591.28 L56.3 567.43" class="st9"/>
			<path d="M28.15 575.43 L6.12 575.43" class="st10"/>
			<path d="M28.15 575.43 L50.18 575.43" class="st10"/>
			<rect x="18.8266" y="563.831" width="18.6443" height="9.59985" class="st12"/>
			<text x="18.83" y="571.03" class="st13">4 mm</text>		</g>
		<g id="shape1543-344" transform="translate(240.758,-298.484)" display="none">
			<title>Sheet.1543</title>
			<path d="M28.35 510.24 L0 538.58 L0 595.28" class="st15"/>
		</g>
		<g id="shape1544-347" transform="translate(-180.165,661.022) rotate(-135)" display="none">
			<title>Sheet.1544</title>
			<path d="M0 595.28 L40.09 595.28" class="st15"/>
		</g>
		<g id="shape1545-350" transform="translate(226.585,-383.524)" display="none">
			<title>Sheet.1545</title>
			<path d="M28.35 552.76 L0 552.76 L14.17 595.28 L28.35 552.76 Z" class="st16"/>
		</g>
		<g id="shape1546-352" transform="translate(234.686,-419.576)" display="none">
			<title>Circle.1015</title>
			<path d="M0 588.71 A6.07211 6.56444 0 0 1 12.14 588.71 A6.07211 6.56444 0 1 1 0 588.71 Z" class="st17"/>
		</g>
		<g id="shape1547-354" transform="translate(-407.853,297.537) rotate(-90)" display="none">
			<title>Vertical.1016</title>
			<desc>6 mm</desc>
			<path d="M0 567.43 L0 591.28 L0 567.43 ZM84.74 567.43 L84.74 591.28 L84.74 567.43 Z" class="st8"/>
			<path d="M0 567.43 L0 591.28 L0 567.43" class="st9"/>
			<path d="M84.74 567.43 L84.74 591.28 L84.74 567.43" class="st9"/>
			<path d="M42.37 575.43 L6.12 575.43" class="st10"/>
			<path d="M42.37 575.43 L78.62 575.43" class="st10"/>
			<rect x="33.0483" y="563.831" width="18.6443" height="9.59985" class="st14"/>
			<text x="33.05" y="571.03" class="st13">6 mm</text>		</g>
	</g>
</svg>
