<?xml version="1.0" encoding="UTF-8" standalone="no"?>
<!DOCTYPE svg PUBLIC "-//W3C//DTD SVG 1.1//EN" "http://www.w3.org/Graphics/SVG/1.1/DTD/svg11.dtd">
<!-- Generated by Microsoft Visio, SVG Export PZ011A_Detail.svg Page-1 -->
<svg xmlns="http://www.w3.org/2000/svg" xmlns:xlink="http://www.w3.org/1999/xlink" xmlns:ev="http://www.w3.org/2001/xml-events"
		width="4.50291in" height="2.28749in" viewBox="0 0 324.209 164.699" xml:space="preserve" color-interpolation-filters="sRGB"
		class="st12">
	<title>PZ011A</title>

	<style type="text/css">
	<![CDATA[
		.st1 {fill:#ffffff;stroke:#ff0000;stroke-linecap:round;stroke-linejoin:round;stroke-width:2.25}
		.st2 {fill:#ffffff}
		.st3 {stroke:#000000;stroke-linecap:round;stroke-linejoin:round;stroke-width:0.24}
		.st4 {marker-end:url(#mrkr13-9);stroke:#000000;stroke-linecap:round;stroke-linejoin:round;stroke-width:0.24}
		.st5 {fill:#000000;fill-opacity:1;stroke:#000000;stroke-opacity:1;stroke-width:0.11764705882353}
		.st6 {fill:#ffffff;stroke:none;stroke-linecap:butt}
		.st7 {fill:#000000;font-family:Calibri;font-size:0.666664em}
		.st8 {fill:#ffffff;stroke:none;stroke-linecap:butt;stroke-width:7.2}
		.st9 {stroke:#000000;stroke-linecap:round;stroke-linejoin:round;stroke-width:2.25}
		.st10 {fill:none}
		.st11 {stroke:#ff0000;stroke-linecap:round;stroke-linejoin:round;stroke-width:1.5}
		.st12 {fill:none;fill-rule:evenodd;font-size:12px;overflow:visible;stroke-linecap:square;stroke-miterlimit:3}
	]]>
	</style>

	<defs id="Markers">
		<g id="lend13">
			<path d="M 3 1 L 0 0 L 3 -1 L 3 1 " style="stroke:none"/>
		</g>
		<marker id="mrkr13-9" class="st5" refX="-25.5" orient="auto" markerUnits="strokeWidth" overflow="visible">
			<use xlink:href="#lend13" transform="scale(-8.5000000000001,-8.5000000000001) "/>
		</marker>
	</defs>
	<g>
		<title>Page-1</title>
		<g id="shape1405-1" transform="translate(84.422,-101.067)">
			<title>Circle</title>
			<path d="M0 158.13 A6.56444 6.56444 0 0 1 13.13 158.13 A6.56444 6.56444 0 1 1 0 158.13 Z" class="st1"/>
		</g>
		<g id="shape1407-3" transform="translate(90.9865,-130.308)">
			<title>Horizontal.1012</title>
			<desc>32mm</desc>
			<path d="M0 136.76 L0 160.7 L0 136.76 ZM226.77 136.76 L226.77 155.13 L226.77 136.76 Z" class="st2"/>
			<path d="M0 136.76 L0 160.7 L0 136.76" class="st3"/>
			<path d="M226.77 136.76 L226.77 155.13 L226.77 136.76" class="st3"/>
			<path d="M113.39 144.76 L6.12 144.76" class="st4"/>
			<path d="M113.39 144.76 L220.65 144.76" class="st4"/>
			<rect x="102.941" y="133.158" width="20.8905" height="9.59985" class="st6"/>
			<text x="102.94" y="140.36" class="st7">32mm</text>		</g>
		<g id="shape1411-16" transform="translate(-130.405,113.858) rotate(-90)">
			<title>Vertical.1015</title>
			<desc>8mm</desc>
			<path d="M0 136.86 L0 160.7 L0 136.86 ZM56.69 136.86 L56.69 145.39 L56.69 136.86 Z" class="st2"/>
			<path d="M0 136.86 L0 160.7 L0 136.86" class="st3"/>
			<path d="M56.69 136.86 L56.69 145.39 L56.69 136.86" class="st3"/>
			<path d="M28.35 144.86 L6.12 144.86" class="st4"/>
			<path d="M28.35 144.86 L50.57 144.86" class="st4"/>
			<rect x="19.9286" y="133.255" width="16.8357" height="9.59985" class="st8"/>
			<text x="19.93" y="140.45" class="st7">8mm</text>		</g>
		<g id="group1412-28" transform="translate(90.9865,-50.9384)">
			<title>STPZ001.794</title>
			<g id="shape1413-29" transform="translate(0,-28.3465)">
				<title>Sheet.1413</title>
				<path d="M0 164.7 L226.77 164.7" class="st9"/>
			</g>
			<g id="shape1414-32" transform="translate(300.712,238.639) rotate(135)">
				<title>Sheet.1414</title>
				<path d="M0 164.7 L20.04 164.7" class="st9"/>
			</g>
			<g id="shape1415-35" transform="translate(53.6189,252.812) rotate(-135)">
				<title>Sheet.1415</title>
				<path d="M0 164.7 L20.04 164.7" class="st9"/>
			</g>
			<g id="shape1416-38" transform="translate(187.326,238.639) rotate(135)">
				<title>Sheet.1416</title>
				<path d="M0 164.7 L20.04 164.7" class="st9"/>
			</g>
			<g id="shape1417-41" transform="translate(-59.7669,252.812) rotate(-135)">
				<title>Sheet.1417</title>
				<path d="M0 164.7 L20.04 164.7" class="st9"/>
			</g>
			<g id="shape1418-44" transform="translate(-164.699,136.353) rotate(-90)">
				<title>Sheet.1418</title>
				<path d="M0 164.7 L28.35 164.7" class="st9"/>
			</g>
			<g id="shape1419-47" transform="translate(62.0726,136.353) rotate(-90)">
				<title>Sheet.1419</title>
				<path d="M0 164.7 L28.35 164.7" class="st9"/>
			</g>
			<g id="shape1420-50" transform="translate(221.392,136.353) rotate(90)">
				<title>Sheet.1420</title>
				<path d="M0 164.7 L28.35 164.7" class="st9"/>
			</g>
			<g id="shape1421-53" transform="translate(334.778,136.353) rotate(90)">
				<title>Sheet.1421</title>
				<path d="M0 164.7 L28.35 164.7" class="st9"/>
			</g>
			<g id="shape1422-56" transform="translate(95.6693,-56.6929)">
				<title>Sheet.1422</title>
				<path d="M0 164.7 L7.09 164.7 L7.09 164.7 L0 164.7 Z" class="st10"/>
				<path d="M0 164.7 L7.09 164.7 L7.09 164.7" class="st9"/>
			</g>
			<g id="shape1423-59" transform="translate(81.4961,-56.6929)">
				<title>Sheet.1423</title>
				<path d="M0 164.7 L7.09 164.7 L7.09 164.7 L0 164.7 Z" class="st10"/>
				<path d="M0 164.7 L7.09 164.7 L7.09 164.7" class="st9"/>
			</g>
			<g id="shape1424-62" transform="translate(67.3228,-56.6929)">
				<title>Sheet.1424</title>
				<path d="M0 164.7 L7.09 164.7 L7.09 164.7 L0 164.7 Z" class="st10"/>
				<path d="M0 164.7 L7.09 164.7 L7.09 164.7" class="st9"/>
			</g>
			<g id="shape1425-65" transform="translate(53.1496,-56.6929)">
				<title>Sheet.1425</title>
				<path d="M0 164.7 L7.09 164.7 L7.09 164.7 L0 164.7 Z" class="st10"/>
				<path d="M0 164.7 L7.09 164.7 L7.09 164.7" class="st9"/>
			</g>
			<g id="shape1426-68" transform="translate(38.9764,-56.6929)">
				<title>Sheet.1426</title>
				<path d="M0 164.7 L7.09 164.7 L7.09 164.7 L0 164.7 Z" class="st10"/>
				<path d="M0 164.7 L7.09 164.7 L7.09 164.7" class="st9"/>
			</g>
			<g id="shape1427-71" transform="translate(24.8032,-56.6929)">
				<title>Sheet.1427</title>
				<path d="M0 164.7 L7.09 164.7 L7.09 164.7 L0 164.7 Z" class="st10"/>
				<path d="M0 164.7 L7.09 164.7 L7.09 164.7" class="st9"/>
			</g>
			<g id="shape1428-74" transform="translate(0,-56.6929)">
				<title>Sheet.1428</title>
				<path d="M0 164.7 L3.54 164.7 L3.54 164.7 L0 164.7 Z" class="st10"/>
				<path d="M0 164.7 L3.54 164.7 L3.54 164.7" class="st9"/>
			</g>
			<g id="shape1429-77" transform="translate(10.6299,-56.6929)">
				<title>Sheet.1429</title>
				<path d="M0 164.7 L7.09 164.7 L7.09 164.7 L0 164.7 Z" class="st10"/>
				<path d="M0 164.7 L7.09 164.7 L7.09 164.7" class="st9"/>
			</g>
			<g id="shape1430-80" transform="translate(124.016,-56.6929)">
				<title>Sheet.1430</title>
				<path d="M7.09 164.7 L0 164.7 L0 164.7 L7.09 164.7 Z" class="st10"/>
				<path d="M7.09 164.7 L0 164.7 L0 164.7" class="st9"/>
			</g>
			<g id="shape1431-83" transform="translate(138.189,-56.6929)">
				<title>Sheet.1431</title>
				<path d="M7.09 164.7 L0 164.7 L0 164.7 L7.09 164.7 Z" class="st10"/>
				<path d="M7.09 164.7 L0 164.7 L0 164.7" class="st9"/>
			</g>
			<g id="shape1432-86" transform="translate(152.362,-56.6929)">
				<title>Sheet.1432</title>
				<path d="M7.09 164.7 L0 164.7 L0 164.7 L7.09 164.7 Z" class="st10"/>
				<path d="M7.09 164.7 L0 164.7 L0 164.7" class="st9"/>
			</g>
			<g id="shape1433-89" transform="translate(166.535,-56.6929)">
				<title>Sheet.1433</title>
				<path d="M7.09 164.7 L0 164.7 L0 164.7 L7.09 164.7 Z" class="st10"/>
				<path d="M7.09 164.7 L0 164.7 L0 164.7" class="st9"/>
			</g>
			<g id="shape1434-92" transform="translate(180.709,-56.6929)">
				<title>Sheet.1434</title>
				<path d="M7.09 164.7 L0 164.7 L0 164.7 L7.09 164.7 Z" class="st10"/>
				<path d="M7.09 164.7 L0 164.7 L0 164.7" class="st9"/>
			</g>
			<g id="shape1435-95" transform="translate(194.882,-56.6929)">
				<title>Sheet.1435</title>
				<path d="M7.09 164.7 L0 164.7 L0 164.7 L7.09 164.7 Z" class="st10"/>
				<path d="M7.09 164.7 L0 164.7 L0 164.7" class="st9"/>
			</g>
			<g id="shape1436-98" transform="translate(223.228,-56.6929)">
				<title>Sheet.1436</title>
				<path d="M3.54 164.7 L0 164.7 L0 164.7 L3.54 164.7 Z" class="st10"/>
				<path d="M3.54 164.7 L0 164.7 L0 164.7" class="st9"/>
			</g>
			<g id="shape1437-101" transform="translate(209.055,-56.6929)">
				<title>Sheet.1437</title>
				<path d="M7.09 164.7 L0 164.7 L0 164.7 L7.09 164.7 Z" class="st10"/>
				<path d="M7.09 164.7 L0 164.7 L0 164.7" class="st9"/>
			</g>
			<g id="shape1438-104" transform="translate(109.843,-56.6929)">
				<title>Sheet.1438</title>
				<path d="M7.09 164.7 L0 164.7 L0 164.7 L7.09 164.7 Z" class="st10"/>
				<path d="M7.09 164.7 L0 164.7 L0 164.7" class="st9"/>
			</g>
		</g>
		<g id="shape1439-107" transform="translate(-107.728,113.858) rotate(-90)">
			<title>Vertical.1439</title>
			<desc>4mm</desc>
			<path d="M0 136.86 L0 160.7 L0 136.86 ZM28.44 136.86 L28.44 152.2 L28.44 136.86 Z" class="st2"/>
			<path d="M0 136.86 L0 160.7 L0 136.86" class="st3"/>
			<path d="M28.44 136.86 L28.44 152.2 L28.44 136.86" class="st3"/>
			<path d="M-12 144.86 L-6.12 144.86" class="st4"/>
			<path d="M40.44 144.86 L34.56 144.86" class="st4"/>
			<rect x="5.80385" y="133.255" width="16.8357" height="9.59985" class="st8"/>
			<text x="5.8" y="140.45" class="st7">4mm</text>		</g>
		<g id="shape1440-119" transform="translate(90.9865,-2.45106)">
			<title>Horizontal.1440</title>
			<desc>8mm</desc>
			<path d="M0 136.76 L0 160.7 L0 136.76 ZM56.69 136.76 L56.69 146.23 L56.69 136.76 Z" class="st2"/>
			<path d="M0 136.76 L0 160.7 L0 136.76" class="st3"/>
			<path d="M56.69 136.76 L56.69 146.23 L56.69 136.76" class="st3"/>
			<path d="M28.35 144.76 L6.12 144.76" class="st4"/>
			<path d="M28.35 144.76 L50.57 144.76" class="st4"/>
			<rect x="19.9286" y="133.158" width="16.8357" height="9.59985" class="st8"/>
			<text x="19.93" y="140.36" class="st7">8mm</text>		</g>
		<g id="shape1441-131" transform="translate(147.679,-2.45106)">
			<title>Horizontal.1441</title>
			<desc>16mm</desc>
			<path d="M0 136.76 L0 160.7 L0 136.76 ZM113.39 136.76 L113.39 154.73 L113.39 136.76 Z" class="st2"/>
			<path d="M0 136.76 L0 160.7 L0 136.76" class="st3"/>
			<path d="M113.39 136.76 L113.39 154.73 L113.39 136.76" class="st3"/>
			<path d="M56.69 144.76 L6.12 144.76" class="st4"/>
			<path d="M56.69 144.76 L107.27 144.76" class="st4"/>
			<rect x="46.2476" y="133.158" width="20.8905" height="9.59985" class="st8"/>
			<text x="46.25" y="140.36" class="st7">16mm</text>		</g>
		<g id="shape1442-143" transform="translate(261.065,-2.45105)">
			<title>Horizontal.1442</title>
			<desc>8mm</desc>
			<path d="M0 136.76 L0 160.7 L0 136.76 ZM56.69 136.76 L56.69 146.23 L56.69 136.76 Z" class="st2"/>
			<path d="M0 136.76 L0 160.7 L0 136.76" class="st3"/>
			<path d="M56.69 136.76 L56.69 146.23 L56.69 136.76" class="st3"/>
			<path d="M28.35 144.76 L6.12 144.76" class="st4"/>
			<path d="M28.35 144.76 L50.57 144.76" class="st4"/>
			<rect x="19.9286" y="133.158" width="16.8357" height="9.59985" class="st8"/>
			<text x="19.93" y="140.36" class="st7">8mm</text>		</g>
		<g id="group1443-155" transform="translate(140.593,-43.8518)">
			<title>Sheet.1443</title>
			<g id="shape1444-156" transform="translate(130.633,266.986) rotate(135)">
				<title>Sheet.1444</title>
				<path d="M0 164.7 L20.04 164.7" class="st11"/>
			</g>
			<g id="shape1445-159" transform="translate(-102.286,281.159) rotate(-135)">
				<title>Sheet.1445</title>
				<path d="M0 164.7 L20.04 164.7" class="st11"/>
			</g>
		</g>
		<g id="group1446-162" transform="translate(253.979,-43.8518)">
			<title>Sheet.1446</title>
			<g id="shape1447-163" transform="translate(130.633,266.986) rotate(135)">
				<title>Sheet.1447</title>
				<path d="M0 164.7 L20.04 164.7" class="st11"/>
			</g>
			<g id="shape1448-166" transform="translate(-102.286,281.159) rotate(-135)">
				<title>Sheet.1448</title>
				<path d="M0 164.7 L20.04 164.7" class="st11"/>
			</g>
		</g>
	</g>
</svg>
