<?xml version="1.0" encoding="UTF-8" standalone="no"?>
<!DOCTYPE svg PUBLIC "-//W3C//DTD SVG 1.1//EN" "http://www.w3.org/Graphics/SVG/1.1/DTD/svg11.dtd">
<!-- Generated by Microsoft Visio, SVG Export PZ017A.svg Page-1 -->
<svg xmlns="http://www.w3.org/2000/svg" xmlns:xlink="http://www.w3.org/1999/xlink" xmlns:ev="http://www.w3.org/2001/xml-events"
		width="1.60605in" height="2.39345in" viewBox="0 0 115.636 172.329" xml:space="preserve" color-interpolation-filters="sRGB"
		class="st3">
	<title>PZ017A</title>

	<style type="text/css">
	<![CDATA[
		.st1 {fill:none;stroke:#000000;stroke-linecap:round;stroke-linejoin:round;stroke-width:2.25}
		.st2 {stroke:#000000;stroke-linecap:round;stroke-linejoin:round;stroke-width:2.25}
		.st3 {fill:none;fill-rule:evenodd;font-size:12px;overflow:visible;stroke-linecap:square;stroke-miterlimit:3}
	]]>
	</style>

	<g>
		<title>Page-1</title>
		<g id="group1432-1" transform="translate(1.125,-1.125)">
			<title>STPZ011.594</title>
			<g id="shape1433-2">
				<title>Sheet.1433</title>
				<path d="M0 58.94 L113.39 58.94 L113.39 172.33 L0 172.33 L0 58.94 L0 58.94 Z" class="st1"/>
			</g>
			<g id="shape1434-4" transform="translate(229.022,2.25) rotate(90)">
				<title>Sheet.1434</title>
				<path d="M0 172.33 L56.69 172.33" class="st2"/>
			</g>
			<g id="shape1435-7" transform="translate(28.3384,-28.359)">
				<title>Sheet.1435</title>
				<ellipse cx="28.3465" cy="143.982" rx="28.3465" ry="28.3465" class="st1"/>
			</g>
			<g id="shape1436-9" transform="translate(46.7717,-141.732)">
				<title>Sheet.1436</title>
				<path d="M0 172.33 L9.92 143.98 L19.84 172.33 L0 172.33 L0 172.33 Z" class="st1"/>
			</g>
			<g id="shape1437-11" transform="translate(56.4139,-169.275)">
				<title>Sheet.1437</title>
				<path d="M0 172.33 L0.56 172.33" class="st2"/>
			</g>
			<g id="shape1438-14" transform="translate(55.6662,-167.155)">
				<title>Sheet.1438</title>
				<path d="M0 172.33 L2.05 172.33" class="st2"/>
			</g>
			<g id="shape1439-17" transform="translate(54.9296,-165.034)">
				<title>Sheet.1439</title>
				<path d="M0 172.33 L3.53 172.33" class="st2"/>
			</g>
			<g id="shape1440-20" transform="translate(54.1819,-162.914)">
				<title>Sheet.1440</title>
				<path d="M0 172.33 L5.02 172.33" class="st2"/>
			</g>
			<g id="shape1441-23" transform="translate(53.4453,-160.794)">
				<title>Sheet.1441</title>
				<path d="M0 172.33 L6.5 172.33" class="st2"/>
			</g>
			<g id="shape1442-26" transform="translate(52.6976,-158.673)">
				<title>Sheet.1442</title>
				<path d="M0 172.33 L7.99 172.33" class="st2"/>
			</g>
			<g id="shape1443-29" transform="translate(51.9611,-156.553)">
				<title>Sheet.1443</title>
				<path d="M0 172.33 L9.46 172.33" class="st2"/>
			</g>
			<g id="shape1444-32" transform="translate(51.2133,-154.432)">
				<title>Sheet.1444</title>
				<path d="M0 172.33 L10.96 172.33" class="st2"/>
			</g>
			<g id="shape1445-35" transform="translate(50.4768,-152.312)">
				<title>Sheet.1445</title>
				<path d="M0 172.33 L12.43 172.33" class="st2"/>
			</g>
			<g id="shape1446-38" transform="translate(49.7291,-150.192)">
				<title>Sheet.1446</title>
				<path d="M0 172.33 L13.93 172.33" class="st2"/>
			</g>
			<g id="shape1447-41" transform="translate(48.9925,-148.071)">
				<title>Sheet.1447</title>
				<path d="M0 172.33 L15.4 172.33" class="st2"/>
			</g>
			<g id="shape1448-44" transform="translate(48.2448,-145.951)">
				<title>Sheet.1448</title>
				<path d="M0 172.33 L16.9 172.33" class="st2"/>
			</g>
			<g id="shape1449-47" transform="translate(47.5082,-143.83)">
				<title>Sheet.1449</title>
				<path d="M0 172.33 L18.37 172.33" class="st2"/>
			</g>
		</g>
	</g>
</svg>
