<?xml version="1.0" encoding="UTF-8" standalone="no"?>
<!DOCTYPE svg PUBLIC "-//W3C//DTD SVG 1.1//EN" "http://www.w3.org/Graphics/SVG/1.1/DTD/svg11.dtd">
<!-- Generated by Microsoft Visio, SVG Export PZ021A.svg Page-1 -->
<svg xmlns="http://www.w3.org/2000/svg" xmlns:xlink="http://www.w3.org/1999/xlink" xmlns:ev="http://www.w3.org/2001/xml-events"
		width="1.59776in" height="1.40195in" viewBox="0 0 115.039 100.94" xml:space="preserve" color-interpolation-filters="sRGB"
		class="st3">
	<title>PZ021A</title>

	<style type="text/css">
	<![CDATA[
		.st1 {stroke:#000000;stroke-linecap:round;stroke-linejoin:round;stroke-width:2.25}
		.st2 {fill:none}
		.st3 {fill:none;fill-rule:evenodd;font-size:12px;overflow:visible;stroke-linecap:square;stroke-miterlimit:3}
	]]>
	</style>

	<g>
		<title>Page-1</title>
		<g id="group1508-1" transform="translate(1.125,-1.125)">
			<title>Sheet.1508</title>
			<g id="shape1493-2" transform="translate(100.94,23.4104) rotate(90)">
				<title>Sheet.1493</title>
				<path d="M0 100.94 L56.39 100.94" class="st1"/>
			</g>
			<g id="shape1494-5" transform="translate(213.729,23.4104) rotate(90)">
				<title>Sheet.1494</title>
				<path d="M0 100.94 L56.39 100.94" class="st1"/>
			</g>
			<g id="shape1495-8" transform="translate(-86.8418,79.8049) rotate(-90)">
				<title>Sheet.1495</title>
				<path d="M0 100.94 L56.39 100.94" class="st1"/>
			</g>
			<g id="shape1497-11" transform="translate(157.335,23.4104) rotate(90)">
				<title>Sheet.1497</title>
				<path d="M0 100.94 L56.39 100.94" class="st1"/>
			</g>
			<g id="shape1498-14" transform="translate(14.0951,-77.5425)">
				<title>Sheet.1498</title>
				<path d="M42.3 100.94 A21.1479 21.1479 -180 0 0 0 100.94 L42.3 100.94 Z" class="st2"/>
				<path d="M42.3 100.94 A21.1479 21.1479 -180 0 0 0 100.94" class="st1"/>
			</g>
			<g id="shape1499-17" transform="translate(14.0951,-3.55271E-13)">
				<title>Sheet.1499</title>
				<path d="M0 79.79 A21.1479 21.1479 -180 0 0 42.3 79.79 L0 79.79 Z" class="st2"/>
				<path d="M0 79.79 A21.1479 21.1479 -180 0 0 42.3 79.79" class="st1"/>
			</g>
			<g id="shape1500-20" transform="translate(56.391,-77.5425)">
				<title>Sheet.1500</title>
				<path d="M0.02 100.94 A21.1479 21.1479 -180 0 0 -42.27 100.94 L0.02 100.94 Z" class="st2"/>
				<path d="M0.02 100.94 A21.1479 21.1479 -180 0 0 -42.27 100.94" class="st1"/>
			</g>
			<g id="shape1501-23" transform="translate(56.391,-3.55271E-13)">
				<title>Sheet.1501</title>
				<path d="M-42.27 79.79 A21.1479 21.1479 -180 0 0 0.02 79.79 L-42.27 79.79 Z" class="st2"/>
				<path d="M-42.27 79.79 A21.1479 21.1479 -180 0 0 0.02 79.79" class="st1"/>
			</g>
			<g id="shape1502-26" transform="translate(199.105,23.3855) rotate(90)">
				<title>Sheet.1502</title>
				<path d="M0 100.94 L56.39 100.94" class="st1"/>
			</g>
			<g id="shape1503-29" transform="translate(-45.0716,79.78) rotate(-90)">
				<title>Sheet.1503</title>
				<path d="M0 100.94 L56.39 100.94" class="st1"/>
			</g>
			<g id="shape1504-32" transform="translate(98.1683,180.733) rotate(180)">
				<title>Sheet.1504</title>
				<path d="M42.3 100.94 A21.1479 21.1479 -180 0 0 0 100.94 L42.3 100.94 Z" class="st2"/>
				<path d="M42.3 100.94 A21.1479 21.1479 -180 0 0 0 100.94" class="st1"/>
			</g>
			<g id="shape1505-35" transform="translate(98.1683,103.19) rotate(180)">
				<title>Sheet.1505</title>
				<path d="M0 79.79 A21.1479 21.1479 -180 0 0 42.3 79.79 L0 79.79 Z" class="st2"/>
				<path d="M0 79.79 A21.1479 21.1479 -180 0 0 42.3 79.79" class="st1"/>
			</g>
			<g id="shape1506-38" transform="translate(55.8724,180.733) rotate(180)">
				<title>Sheet.1506</title>
				<path d="M0.02 100.94 A21.1479 21.1479 -180 0 0 -42.27 100.94 L0.02 100.94 Z" class="st2"/>
				<path d="M0.02 100.94 A21.1479 21.1479 -180 0 0 -42.27 100.94" class="st1"/>
			</g>
			<g id="shape1507-41" transform="translate(55.8724,103.19) rotate(180)">
				<title>Sheet.1507</title>
				<path d="M-42.27 79.79 A21.1479 21.1479 -180 0 0 0.02 79.79 L-42.27 79.79 Z" class="st2"/>
				<path d="M-42.27 79.79 A21.1479 21.1479 -180 0 0 0.02 79.79" class="st1"/>
			</g>
		</g>
	</g>
</svg>
