<?xml version="1.0" encoding="UTF-8" standalone="no"?>
<!DOCTYPE svg PUBLIC "-//W3C//DTD SVG 1.1//EN" "http://www.w3.org/Graphics/SVG/1.1/DTD/svg11.dtd">
<!-- Generated by Microsoft Visio, SVG Export STPE101_Detail.svg Page-1 -->
<svg xmlns="http://www.w3.org/2000/svg" xmlns:xlink="http://www.w3.org/1999/xlink" xmlns:ev="http://www.w3.org/2001/xml-events"
		width="5.97289in" height="2.9281in" viewBox="0 0 430.048 210.823" xml:space="preserve" color-interpolation-filters="sRGB"
		class="st12">
	<title>STPE101</title>

	<style type="text/css">
	<![CDATA[
		.st1 {fill:#ffffff;stroke:#000000;stroke-linecap:round;stroke-linejoin:round;stroke-width:0.24}
		.st2 {fill:#ffffff}
		.st3 {stroke:#000000;stroke-linecap:round;stroke-linejoin:round;stroke-width:0.24}
		.st4 {marker-end:url(#mrkr13-9);stroke:#000000;stroke-linecap:round;stroke-linejoin:round;stroke-width:0.24}
		.st5 {fill:#000000;fill-opacity:1;stroke:#000000;stroke-opacity:1;stroke-width:0.11764705882353}
		.st6 {fill:#ffffff;stroke:none;stroke-linecap:butt;stroke-width:7.2}
		.st7 {fill:#000000;font-family:Calibri;font-size:0.666664em}
		.st8 {fill:none;stroke:#ff0000;stroke-linecap:round;stroke-linejoin:round;stroke-width:2.25}
		.st9 {fill:none;stroke:#c05046;stroke-linecap:round;stroke-linejoin:round;stroke-width:0.75}
		.st10 {fill:#000000;font-family:Calibri;font-size:1.00001em}
		.st11 {font-size:1em}
		.st12 {fill:none;fill-rule:evenodd;font-size:12px;overflow:visible;stroke-linecap:square;stroke-miterlimit:3}
	]]>
	</style>

	<defs id="Markers">
		<g id="lend13">
			<path d="M 3 1 L 0 0 L 3 -1 L 3 1 " style="stroke:none"/>
		</g>
		<marker id="mrkr13-9" class="st5" refX="-25.5" orient="auto" markerUnits="strokeWidth" overflow="visible">
			<use xlink:href="#lend13" transform="scale(-8.5000000000001,-8.5000000000001) "/>
		</marker>
	</defs>
	<g>
		<title>Page-1</title>
		<g id="shape1405-1" transform="translate(55.1804,-6.45105)">
			<title>Rectangle</title>
			<rect x="0" y="54.9178" width="368.504" height="155.906" class="st1"/>
		</g>
		<g id="shape1406-3" transform="translate(-176.53,204.372) rotate(-90)">
			<title>Vertical</title>
			<desc>44 mm</desc>
			<path d="M0 182.98 L0 206.82 L0 182.98 ZM155.91 182.98 L155.91 206.82 L155.91 182.98 Z" class="st2"/>
			<path d="M0 182.98 L0 206.82 L0 182.98" class="st3"/>
			<path d="M155.91 182.98 L155.91 206.82 L155.91 182.98" class="st3"/>
			<path d="M77.95 190.98 L6.12 190.98" class="st4"/>
			<path d="M77.95 190.98 L149.79 190.98" class="st4"/>
			<rect x="66.6032" y="179.379" width="22.6991" height="9.59985" class="st6"/>
			<text x="66.6" y="186.58" class="st7">44 mm</text>		</g>
		<g id="shape1407-16" transform="translate(55.1804,-176.53)">
			<title>Horizontal</title>
			<desc>104 mm</desc>
			<path d="M0 182.98 L0 206.82 L0 182.98 ZM368.42 182.98 L368.42 227.07 L368.42 182.98 Z" class="st2"/>
			<path d="M0 182.98 L0 206.82 L0 182.98" class="st3"/>
			<path d="M368.42 182.98 L368.42 227.07 L368.42 182.98" class="st3"/>
			<path d="M184.21 190.98 L6.12 190.98" class="st4"/>
			<path d="M184.21 190.98 L362.3 190.98" class="st4"/>
			<rect x="170.831" y="179.379" width="26.7539" height="9.59985" class="st6"/>
			<text x="170.83" y="186.58" class="st7">104 mm</text>		</g>
		<g id="shape1408-28" transform="translate(48.616,-155.792)">
			<title>Circle</title>
			<path d="M0 204.26 A6.56444 6.56444 0 0 1 13.13 204.26 A6.56444 6.56444 0 1 1 0 204.26 Z" class="st8"/>
		</g>
		<g id="shape1409-30" transform="translate(69.3537,-89.3644)">
			<title>Sheet.1409</title>
			<desc>Refer to project P&#38;ID design standards for content</desc>
			<rect x="0" y="149.878" width="141.732" height="60.9449" class="st9"/>
			<text x="4" y="164.68" class="st10">Refer to project P&#38;ID <tspan x="4" dy="1.2em" class="st11">design standards for </tspan><tspan
						x="4" dy="1.2em" class="st11">content</tspan></text>		</g>
	</g>
</svg>
