<?xml version="1.0" encoding="UTF-8" standalone="no"?>
<!DOCTYPE svg PUBLIC "-//W3C//DTD SVG 1.1//EN" "http://www.w3.org/Graphics/SVG/1.1/DTD/svg11.dtd">
<!-- Generated by Microsoft Visio, SVG Export STPE114_Detail.svg Page-1 -->
<svg xmlns="http://www.w3.org/2000/svg" xmlns:xlink="http://www.w3.org/1999/xlink" xmlns:ev="http://www.w3.org/2001/xml-events"
		width="5.97289in" height="4.1092in" viewBox="0 0 430.048 295.863" xml:space="preserve" color-interpolation-filters="sRGB"
		class="st13">
	<title>STPE114</title>

	<style type="text/css">
	<![CDATA[
		.st1 {fill:#ffffff;stroke:#000000;stroke-linecap:round;stroke-linejoin:round;stroke-width:0.24}
		.st2 {fill:#ffffff}
		.st3 {stroke:#000000;stroke-linecap:round;stroke-linejoin:round;stroke-width:0.24}
		.st4 {marker-end:url(#mrkr13-9);stroke:#000000;stroke-linecap:round;stroke-linejoin:round;stroke-width:0.24}
		.st5 {fill:#000000;fill-opacity:1;stroke:#000000;stroke-opacity:1;stroke-width:0.11764705882353}
		.st6 {fill:#ffffff;stroke:none;stroke-linecap:butt}
		.st7 {fill:#000000;font-family:Calibri;font-size:0.666664em}
		.st8 {fill:#ffffff;stroke:none;stroke-linecap:butt;stroke-width:7.2}
		.st9 {fill:none;stroke:#ff0000;stroke-linecap:round;stroke-linejoin:round;stroke-width:2.25}
		.st10 {fill:none;stroke:#c05046;stroke-linecap:round;stroke-linejoin:round;stroke-width:0.75}
		.st11 {fill:#000000;font-family:Calibri;font-size:1.00001em}
		.st12 {font-size:1em}
		.st13 {fill:none;fill-rule:evenodd;font-size:12px;overflow:visible;stroke-linecap:square;stroke-miterlimit:3}
	]]>
	</style>

	<defs id="Markers">
		<g id="lend13">
			<path d="M 3 1 L 0 0 L 3 -1 L 3 1 " style="stroke:none"/>
		</g>
		<marker id="mrkr13-9" class="st5" refX="-25.5" orient="auto" markerUnits="strokeWidth" overflow="visible">
			<use xlink:href="#lend13" transform="scale(-8.5000000000001,-8.5000000000001) "/>
		</marker>
	</defs>
	<g>
		<title>Page-1</title>
		<g id="shape1405-1" transform="translate(55.1804,-6.45105)">
			<title>Rectangle</title>
			<rect x="0" y="54.9178" width="368.504" height="240.945" class="st1"/>
		</g>
		<g id="shape1406-3" transform="translate(-261.569,289.412) rotate(-90)">
			<title>Vertical</title>
			<desc>64 mm</desc>
			<path d="M0 268.02 L0 291.86 L0 268.02 ZM240.94 268.02 L240.94 291.86 L240.94 268.02 Z" class="st2"/>
			<path d="M0 268.02 L0 291.86 L0 268.02" class="st3"/>
			<path d="M240.94 268.02 L240.94 291.86 L240.94 268.02" class="st3"/>
			<path d="M120.47 276.02 L6.12 276.02" class="st4"/>
			<path d="M120.47 276.02 L234.82 276.02" class="st4"/>
			<rect x="109.123" y="264.419" width="22.6991" height="9.59985" class="st6"/>
			<text x="109.12" y="271.62" class="st7">64 mm</text>		</g>
		<g id="shape1407-16" transform="translate(55.1804,-261.569)">
			<title>Horizontal</title>
			<desc>104 mm</desc>
			<path d="M0 268.02 L0 291.86 L0 268.02 ZM368.42 268.02 L368.42 312.11 L368.42 268.02 Z" class="st2"/>
			<path d="M0 268.02 L0 291.86 L0 268.02" class="st3"/>
			<path d="M368.42 268.02 L368.42 312.11 L368.42 268.02" class="st3"/>
			<path d="M184.21 276.02 L6.12 276.02" class="st4"/>
			<path d="M184.21 276.02 L362.3 276.02" class="st4"/>
			<rect x="170.831" y="264.419" width="26.7539" height="9.59985" class="st8"/>
			<text x="170.83" y="271.62" class="st7">104 mm</text>		</g>
		<g id="shape1408-28" transform="translate(48.616,-240.831)">
			<title>Circle</title>
			<path d="M0 289.3 A6.56444 6.56444 0 0 1 13.13 289.3 A6.56444 6.56444 0 1 1 0 289.3 Z" class="st9"/>
		</g>
		<g id="shape1409-30" transform="translate(69.3537,-174.404)">
			<title>Sheet.1409</title>
			<desc>Refer to project P&#38;ID design standards for content</desc>
			<rect x="0" y="234.918" width="141.732" height="60.9449" class="st10"/>
			<text x="4" y="249.72" class="st11">Refer to project P&#38;ID <tspan x="4" dy="1.2em" class="st12">design standards for </tspan><tspan
						x="4" dy="1.2em" class="st12">content</tspan></text>		</g>
	</g>
</svg>
