<?xml version="1.0" encoding="UTF-8" standalone="no"?>
<!DOCTYPE svg PUBLIC "-//W3C//DTD SVG 1.1//EN" "http://www.w3.org/Graphics/SVG/1.1/DTD/svg11.dtd">
<!-- Generated by Microsoft Visio, SVG Export STPL008_Detail.svg Page-1 -->
<svg xmlns="http://www.w3.org/2000/svg" xmlns:xlink="http://www.w3.org/1999/xlink" xmlns:ev="http://www.w3.org/2001/xml-events"
		width="3.16116in" height="1.38763in" viewBox="0 0 227.603 99.9091" xml:space="preserve" color-interpolation-filters="sRGB"
		class="st9">
	<title>STPL008</title>

	<style type="text/css">
	<![CDATA[
		.st1 {fill:#ffffff}
		.st2 {stroke:#000000;stroke-linecap:round;stroke-linejoin:round;stroke-width:0.24}
		.st3 {marker-end:url(#mrkr13-7);stroke:#000000;stroke-linecap:round;stroke-linejoin:round;stroke-width:0.24}
		.st4 {fill:#000000;fill-opacity:1;stroke:#000000;stroke-opacity:1;stroke-width:0.11764705882353}
		.st5 {fill:#ffffff;stroke:none;stroke-linecap:butt;stroke-width:7.2}
		.st6 {fill:#000000;font-family:Calibri;font-size:0.666664em}
		.st7 {fill:#ffffff;stroke:#000000;stroke-linecap:round;stroke-linejoin:round;stroke-width:2.25}
		.st8 {fill:none;stroke:#ff0000;stroke-linecap:round;stroke-linejoin:round;stroke-width:2.25}
		.st9 {fill:none;fill-rule:evenodd;font-size:12px;overflow:visible;stroke-linecap:square;stroke-miterlimit:3}
	]]>
	</style>

	<defs id="Markers">
		<g id="lend13">
			<path d="M 3 1 L 0 0 L 3 -1 L 3 1 " style="stroke:none"/>
		</g>
		<marker id="mrkr13-7" class="st4" refX="-25.5" orient="auto" markerUnits="strokeWidth" overflow="visible">
			<use xlink:href="#lend13" transform="scale(-8.5000000000001,-8.5000000000001) "/>
		</marker>
	</defs>
	<g>
		<title>Page-1</title>
		<g id="shape1408-1" transform="translate(125.243,48.7329) rotate(-90)">
			<title>Vertical</title>
			<desc>3mm</desc>
			<path d="M0 72.07 L0 95.91 L0 72.07 ZM42.28 72.07 L42.28 95.91 L42.28 72.07 Z" class="st1"/>
			<path d="M0 72.07 L0 95.91 L0 72.07" class="st2"/>
			<path d="M42.28 72.07 L42.28 95.91 L42.28 72.07" class="st2"/>
			<path d="M21.14 80.07 L6.12 80.07" class="st3"/>
			<path d="M21.14 80.07 L36.16 80.07" class="st3"/>
			<rect x="12.723" y="68.465" width="16.8357" height="9.59985" class="st5"/>
			<text x="12.72" y="75.66" class="st6">3mm</text>		</g>
		<g id="shape1409-14" transform="translate(6.45105,-2.45105)">
			<title>Horizontal</title>
			<desc>12mm</desc>
			<path d="M0 72.07 L0 95.91 L0 72.07 ZM170.08 72.07 L170.08 95.91 L170.08 72.07 Z" class="st1"/>
			<path d="M0 72.07 L0 95.91 L0 72.07" class="st2"/>
			<path d="M170.08 72.07 L170.08 95.91 L170.08 72.07" class="st2"/>
			<path d="M85.04 80.07 L6.12 80.07" class="st3"/>
			<path d="M85.04 80.07 L163.96 80.07" class="st3"/>
			<rect x="74.5941" y="68.465" width="20.8905" height="9.59985" class="st5"/>
			<text x="74.59" y="75.66" class="st6">12mm</text>		</g>
		<g id="group1410-26" transform="translate(98.7121,-15.7432)">
			<title>Sheet.1410</title>
		</g>
		<g id="shape1411-27" transform="translate(176.53,-50.9384) scale(-1,1)">
			<title>Right Triangle</title>
			<path d="M0 99.91 L170.08 99.91 L0 57.39 L0 99.91 Z" class="st7"/>
		</g>
		<g id="shape1405-29" transform="translate(169.965,-44.374)">
			<title>Circle</title>
			<path d="M0 93.34 A6.56444 6.56444 0 1 1 13.13 93.34 A6.56444 6.56444 0 1 1 0 93.34 Z" class="st8"/>
		</g>
	</g>
</svg>
