<!DOCTYPE svg PUBLIC "-//W3C//DTD SVG 1.1//EN" "http://www.w3.org/Graphics/SVG/1.1/DTD/svg11.dtd">
<!-- Generated by graphviz version 2.38.0 (20140413.2041)
 --><!-- Title: G Pages: 1 --><svg xmlns="http://www.w3.org/2000/svg" xmlns:xlink="http://www.w3.org/1999/xlink" width="1028pt" height="404pt" viewBox="0.00 0.00 1028.00 404.00">
<g id="graph0" class="graph" transform="scale(1 1) rotate(0) translate(4 400)">
<!-- 0 -->
<g id="node1" class="node"><defs>
<linearGradient id="l_0" gradientUnits="userSpaceOnUse" x1="464" y1="-83" x2="464" y2="-130">
<stop offset="0" style="stop-color:#ffffbb;stop-opacity:1.;"/>
<stop offset="1" style="stop-color:#ffffee;stop-opacity:1.;"/>
</linearGradient>
</defs>
<polygon fill="url(#l_0)" stroke="black" points="578.5,-130 349.5,-130 349.5,-83 578.5,-83 578.5,-130"/>
<text text-anchor="start" x="416" y="-115.7" font-family="Arial" font-weight="bold" font-size="11.00" fill="black">ActuatingFunction</text>
<text text-anchor="start" x="360" y="-91.5" font-family="Arial" font-size="10.00" fill="black"><a fill="navy" href="../reference/Instrumentation/ActuatingFunction.html#dexpi-instrumentation-actuatingfunction-actuatingfunctionnumber" target="_parent">ActuatingFunctionNumber</a>&#160;:</text>
<text text-anchor="start" x="483" y="-91.5" font-family="Arial" font-size="10.00" fill="black"><a fill="navy" href="../reference/DataTypes/NullableString.html" target="_parent">NullableString</a>&#160;[0..1]</text>
<polygon fill="black" stroke="black" points="578.5,-109.5 349.5,-109.5 349.5,-109.5 578.5,-109.5 578.5,-109.5"/>
</g>
<!-- 17 -->
<g id="node8" class="node"><defs>
<linearGradient id="l_1" gradientUnits="userSpaceOnUse" x1="392" y1="-1.77636e-014" x2="392" y2="-36">
<stop offset="0" style="stop-color:#ffffbb;stop-opacity:1.;"/>
<stop offset="1" style="stop-color:#ffffee;stop-opacity:1.;"/>
</linearGradient>
</defs>
<polygon fill="url(#l_1)" stroke="black" points="465,-36 319,-36 319,-0 465,-0 465,-36"/>
<text text-anchor="start" x="329" y="-16.2" font-family="Arial" font-weight="bold" font-size="11.00" fill="black"><a fill="navy" href="../reference/Piping/PipingNetworkSegment.html" target="_parent">PipingNetworkSegment</a></text>
</g>
<!-- 0&#45;&gt;17 -->
<g id="edge2" class="edge"><path fill="none" stroke="#000000" d="M445.083,-82.7731C435.198,-70.8975 423.076,-56.3343 412.913,-44.1242"/>
<polygon fill="#000000" stroke="#000000" points="406.241,-36.109 416.097,-40.916 409.44,-39.9519 412.639,-43.7949 412.639,-43.7949 412.639,-43.7949 409.44,-39.9519 409.18,-46.6737 406.241,-36.109 406.241,-36.109"/>
<text text-anchor="start" x="433.5" y="-56.5" font-family="Arial" font-size="10.00" fill="black"><a fill="navy" href="../reference/Instrumentation/ActuatingFunction.html#dexpi-instrumentation-actuatingfunction-actuatinglocation" target="_parent">ActuatingLocation</a></text>
<text text-anchor="start" x="385.241" y="-39.109" font-family="Arial" font-size="10.00" fill="black">0..1</text>
<text text-anchor="start" x="416.083" y="-72.7731" font-family="Arial" font-size="10.00" fill="black">0..1</text>
</g>
<!-- 20 -->
<g id="node9" class="node"><defs>
<linearGradient id="l_2" gradientUnits="userSpaceOnUse" x1="537" y1="-1.77636e-014" x2="537" y2="-36">
<stop offset="0" style="stop-color:#ffffbb;stop-opacity:1.;"/>
<stop offset="1" style="stop-color:#ffffee;stop-opacity:1.;"/>
</linearGradient>
</defs>
<polygon fill="url(#l_2)" stroke="black" points="591,-36 483,-36 483,-0 591,-0 591,-36"/>
<text text-anchor="start" x="493" y="-16.2" font-family="Arial" font-weight="bold" font-size="11.00" fill="black"><a fill="navy" href="../reference/Instrumentation/ActuatingSystem.html" target="_parent">ActuatingSystem</a></text>
</g>
<!-- 0&#45;&gt;20 -->
<g id="edge3" class="edge"><path fill="none" stroke="#000000" d="M498.999,-82.7889C504.802,-78.0307 510.413,-72.7073 515,-67 520.053,-60.712 524.232,-53.0752 527.54,-45.7598"/>
<polygon fill="#000000" stroke="#000000" points="531.513,-36.1404 531.855,-47.1009 529.604,-40.7619 527.696,-45.3833 527.696,-45.3833 527.696,-45.3833 529.604,-40.7619 523.537,-43.6658 531.513,-36.1404 531.513,-36.1404"/>
<text text-anchor="start" x="527" y="-56.5" font-family="Arial" font-size="10.00" fill="black"><a fill="navy" href="../reference/Instrumentation/ActuatingFunction.html#dexpi-instrumentation-actuatingfunction-systems" target="_parent">Systems</a></text>
<text text-anchor="start" x="510.513" y="-39.1404" font-family="Arial" font-size="10.00" fill="black">0..1</text>
<text text-anchor="start" x="469.999" y="-72.7889" font-family="Arial" font-size="10.00" fill="black">0..1</text>
</g>
<!-- 4 -->
<g id="node2" class="node"><defs>
<linearGradient id="l_3" gradientUnits="userSpaceOnUse" x1="928" y1="-343" x2="928" y2="-396">
<stop offset="0" style="stop-color:#fbfbfb;stop-opacity:1.;"/>
<stop offset="1" style="stop-color:#fefefe;stop-opacity:1.;"/>
</linearGradient>
</defs>
<polygon fill="url(#l_3)" stroke="black" points="1020.0,-385.0 1009.0,-396.0 836.0,-396.0 836.0,-343.0 1020.0,-343.0"/><path d="M1020.0,-385.0L1009.0,-385.0 1009.0,-396.0" fill="none" stroke="black"/>
<text text-anchor="start" x="846" y="-381.5" font-family="Arial" font-size="10.00" fill="black">For&#160;the&#160;sake&#160;of&#160;clarity,&#160;superclasses&#160;</text>
<text text-anchor="start" x="846" y="-366.5" font-family="Arial" font-size="10.00" fill="black">and&#160;associations&#160;of&#160;<a fill="navy" href="../reference/PlantStructure/TechnicalItem.html" target="_parent">TechnicalItem</a>&#160;are</text>
<text text-anchor="start" x="846" y="-351.5" font-family="Arial" font-size="10.00" fill="black">not&#160;shown&#160;in&#160;this&#160;diagram.</text>
</g>
<!-- 3 -->
<g id="node3" class="node"><defs>
<linearGradient id="l_4" gradientUnits="userSpaceOnUse" x1="928" y1="-260" x2="928" y2="-296">
<stop offset="0" style="stop-color:#ffffbb;stop-opacity:1.;"/>
<stop offset="1" style="stop-color:#ffffee;stop-opacity:1.;"/>
</linearGradient>
</defs>
<polygon fill="url(#l_4)" stroke="black" points="974.5,-296 881.5,-296 881.5,-260 974.5,-260 974.5,-296"/>
<text text-anchor="start" x="892" y="-276.2" font-family="Arial" font-weight="bold" font-style="italic" font-size="11.00" fill="black"><a fill="navy" href="../reference/PlantStructure/TechnicalItem.html" target="_parent">TechnicalItem</a></text>
</g>
<!-- 4&#45;&gt;3 -->
<g id="edge1" class="edge"><path fill="none" stroke="#000000" stroke-dasharray="5,2" d="M928,-342.613C928,-327.641 928,-309.222 928,-296.063"/>
</g>
<!-- 14&#45;inner&#45;node -->
<!-- 3&#45;&gt;14&#45;inner&#45;node -->
<g id="edge18" class="edge"><path fill="none" stroke="black" d="M928,-249.649C928,-226.987 928,-198.163 928,-196.116L927.915,-193.984"/>
<polygon fill="none" stroke="black" points="924.5,-249.822 928,-259.822 931.5,-249.822 924.5,-249.822"/>
</g>
<!-- 6 -->
<g id="node4" class="node"><defs>
<linearGradient id="l_5" gradientUnits="userSpaceOnUse" x1="213" y1="-260" x2="213" y2="-296">
<stop offset="0" style="stop-color:#ffffbb;stop-opacity:1.;"/>
<stop offset="1" style="stop-color:#ffffee;stop-opacity:1.;"/>
</linearGradient>
</defs>
<polygon fill="url(#l_5)" stroke="black" points="270.5,-296 155.5,-296 155.5,-260 270.5,-260 270.5,-296"/>
<text text-anchor="start" x="166" y="-276.2" font-family="Arial" font-weight="bold" font-style="italic" font-size="11.00" fill="black"><a fill="navy" href="../reference/DexpiModel/ConceptualObject.html" target="_parent">ConceptualObject</a></text>
</g>
<!-- 10&#45;inner&#45;node -->
<!-- 6&#45;&gt;10&#45;inner&#45;node -->
<g id="edge10" class="edge"><path fill="none" stroke="black" d="M213,-249.649C213,-226.987 213,-198.163 213,-196.116L213.028,-193.868"/>
<polygon fill="none" stroke="black" points="209.5,-249.822 213,-259.822 216.5,-249.822 209.5,-249.822"/>
</g>
<!-- 7 -->
<g id="node5" class="node"><defs>
<linearGradient id="l_6" gradientUnits="userSpaceOnUse" x1="371" y1="-260" x2="371" y2="-296">
<stop offset="0" style="stop-color:#ffffbb;stop-opacity:1.;"/>
<stop offset="1" style="stop-color:#ffffee;stop-opacity:1.;"/>
</linearGradient>
</defs>
<polygon fill="url(#l_6)" stroke="black" points="443,-296 299,-296 299,-260 443,-260 443,-296"/>
<text text-anchor="start" x="309" y="-276.2" font-family="Arial" font-weight="bold" font-style="italic" font-size="11.00" fill="black"><a fill="navy" href="../reference/Customization/CustomAttributeOwner.html" target="_parent">CustomAttributeOwner</a></text>
</g>
<!-- 32 -->
<g id="node13" class="node"><defs>
<linearGradient id="l_7" gradientUnits="userSpaceOnUse" x1="286" y1="-177" x2="286" y2="-213">
<stop offset="0" style="stop-color:#ffffbb;stop-opacity:1.;"/>
<stop offset="1" style="stop-color:#ffffee;stop-opacity:1.;"/>
</linearGradient>
</defs>
<polygon fill="url(#l_7)" stroke="black" points="340.5,-213 231.5,-213 231.5,-177 340.5,-177 340.5,-213"/>
<text text-anchor="start" x="242" y="-193.2" font-family="Arial" font-weight="bold" font-style="italic" font-size="11.00" fill="black"><a fill="navy" href="../reference/Customization/CustomAttribute.html" target="_parent">CustomAttribute</a></text>
</g>
<!-- 7&#45;&gt;32 -->
<g id="edge7" class="edge"><path fill="none" stroke="#000000" d="M294.449,-252.486C291.681,-249.933 289.17,-247.113 287,-244 282.902,-238.119 281.444,-230.772 281.315,-223.608"/>
<polygon fill="#000000" stroke="#000000" points="294.498,-252.523 301.696,-252.959 304.063,-259.77 296.865,-259.335 294.498,-252.523"/>
<polygon fill="#000000" stroke="#000000" points="281.925,-213.435 285.819,-223.687 281.626,-218.426 281.327,-223.417 281.327,-223.417 281.327,-223.417 281.626,-218.426 276.835,-223.148 281.925,-213.435 281.925,-213.435"/>
<text text-anchor="start" x="289" y="-233.5" font-family="Arial" font-size="10.00" fill="black"><a fill="navy" href="../reference/Customization/CustomAttributeOwner.html#dexpi-customization-customattributeowner-customattributes" target="_parent">CustomAttributes</a></text>
<text text-anchor="start" x="273.925" y="-216.435" font-family="Arial" font-size="10.00" fill="black">*</text>
<text text-anchor="start" x="275.063" y="-249.77" font-family="Arial" font-size="10.00" fill="black">0..1</text>
</g>
<!-- 11&#45;inner&#45;node -->
<!-- 7&#45;&gt;11&#45;inner&#45;node -->
<g id="edge12" class="edge"><path fill="none" stroke="black" d="M371,-249.649C371,-226.987 371,-198.163 371,-196.116L371.067,-193.937"/>
<polygon fill="none" stroke="black" points="367.5,-249.822 371,-259.822 374.5,-249.822 367.5,-249.822"/>
</g>
<!-- 8 -->
<g id="node6" class="node"><defs>
<linearGradient id="l_8" gradientUnits="userSpaceOnUse" x1="558" y1="-260" x2="558" y2="-296">
<stop offset="0" style="stop-color:#ffffbb;stop-opacity:1.;"/>
<stop offset="1" style="stop-color:#ffffee;stop-opacity:1.;"/>
</linearGradient>
</defs>
<polygon fill="url(#l_8)" stroke="black" points="655,-296 461,-296 461,-260 655,-260 655,-296"/>
<text text-anchor="start" x="471" y="-276.2" font-family="Arial" font-weight="bold" font-style="italic" font-size="11.00" fill="black"><a fill="navy" href="../reference/Instrumentation/SignalConveyingFunctionSource.html" target="_parent">SignalConveyingFunctionSource</a></text>
</g>
<!-- 12&#45;inner&#45;node -->
<!-- 8&#45;&gt;12&#45;inner&#45;node -->
<g id="edge14" class="edge"><path fill="none" stroke="black" d="M558,-249.649C558,-226.987 558,-198.163 558,-196.116L557.932,-193.937"/>
<polygon fill="none" stroke="black" points="554.5,-249.822 558,-259.822 561.5,-249.822 554.5,-249.822"/>
</g>
<!-- 9 -->
<g id="node7" class="node"><defs>
<linearGradient id="l_9" gradientUnits="userSpaceOnUse" x1="768" y1="-260" x2="768" y2="-296">
<stop offset="0" style="stop-color:#ffffbb;stop-opacity:1.;"/>
<stop offset="1" style="stop-color:#ffffee;stop-opacity:1.;"/>
</linearGradient>
</defs>
<polygon fill="url(#l_9)" stroke="black" points="863,-296 673,-296 673,-260 863,-260 863,-296"/>
<text text-anchor="start" x="683" y="-276.2" font-family="Arial" font-weight="bold" font-style="italic" font-size="11.00" fill="black"><a fill="navy" href="../reference/Instrumentation/SignalConveyingFunctionTarget.html" target="_parent">SignalConveyingFunctionTarget</a></text>
</g>
<!-- 13&#45;inner&#45;node -->
<!-- 9&#45;&gt;13&#45;inner&#45;node -->
<g id="edge16" class="edge"><path fill="none" stroke="black" d="M768,-249.649C768,-226.987 768,-198.163 768,-196.116L767.945,-193.984"/>
<polygon fill="none" stroke="black" points="764.5,-249.822 768,-259.822 771.5,-249.822 764.5,-249.822"/>
</g>
<!-- 23 -->
<g id="node10" class="node"><defs>
<linearGradient id="l_10" gradientUnits="userSpaceOnUse" x1="97" y1="-177" x2="97" y2="-213">
<stop offset="0" style="stop-color:#ffffbb;stop-opacity:1.;"/>
<stop offset="1" style="stop-color:#ffffee;stop-opacity:1.;"/>
</linearGradient>
</defs>
<polygon fill="url(#l_10)" stroke="black" points="194,-213 0,-213 0,-177 194,-177 194,-213"/>
<text text-anchor="start" x="10" y="-193.2" font-family="Arial" font-weight="bold" font-size="11.00" fill="black"><a fill="navy" href="../reference/Instrumentation/ProcessInstrumentationFunction.html" target="_parent">ProcessInstrumentationFunction</a></text>
</g>
<!-- 23&#45;&gt;0 -->
<g id="edge4" class="edge"><path fill="none" stroke="#000000" d="M122.096,-168.804C132.144,-160.173 144.336,-151.351 157,-146 189.424,-132.301 269.107,-122.538 339.165,-116.271"/>
<polygon fill="#000000" stroke="#000000" points="122.061,-168.836 120.306,-175.831 113.175,-176.901 114.93,-169.907 122.061,-168.836"/>
<polygon fill="#000000" stroke="#000000" points="349.425,-115.372 339.856,-120.728 344.444,-115.809 339.463,-116.245 339.463,-116.245 339.463,-116.245 344.444,-115.809 339.07,-111.763 349.425,-115.372 349.425,-115.372"/>
<text text-anchor="start" x="159.5" y="-150.5" font-family="Arial" font-size="10.00" fill="black"><a fill="navy" href="../reference/Instrumentation/ProcessInstrumentationFunction.html#dexpi-instrumentation-processinstrumentationfunction-actuatingfunctions" target="_parent">ActuatingFunctions</a></text>
<text text-anchor="start" x="341.425" y="-118.372" font-family="Arial" font-size="10.00" fill="black">*</text>
<text text-anchor="start" x="84.1751" y="-166.901" font-family="Arial" font-size="10.00" fill="black">0..1</text>
</g>
<!-- 26 -->
<g id="node11" class="node"><defs>
<linearGradient id="l_11" gradientUnits="userSpaceOnUse" x1="133" y1="-351.5" x2="133" y2="-387.5">
<stop offset="0" style="stop-color:#ffffbb;stop-opacity:1.;"/>
<stop offset="1" style="stop-color:#ffffee;stop-opacity:1.;"/>
</linearGradient>
</defs>
<polygon fill="url(#l_11)" stroke="black" points="207.5,-387.5 58.5,-387.5 58.5,-351.5 207.5,-351.5 207.5,-387.5"/>
<text text-anchor="start" x="69" y="-367.7" font-family="Arial" font-weight="bold" font-size="11.00" fill="black"><a fill="navy" href="../reference/Graphics/AttributeRepresentation.html" target="_parent">AttributeRepresentation</a></text>
</g>
<!-- 26&#45;&gt;6 -->
<g id="edge5" class="edge"><path fill="none" stroke="#000000" d="M148.425,-351.243C160.488,-337.748 177.42,-318.805 190.92,-303.702"/>
<polygon fill="#000000" stroke="#000000" points="197.623,-296.204 194.313,-306.658 194.29,-299.931 190.958,-303.659 190.958,-303.659 190.958,-303.659 194.29,-299.931 187.603,-300.66 197.623,-296.204 197.623,-296.204"/>
<text text-anchor="start" x="185.5" y="-316.5" font-family="Arial" font-size="10.00" fill="black"><a fill="navy" href="../reference/Graphics/AttributeRepresentation.html#dexpi-graphics-attributerepresentation-object" target="_parent">Object</a></text>
<text text-anchor="start" x="189.623" y="-299.204" font-family="Arial" font-size="10.00" fill="black"></text>
<text text-anchor="start" x="132.425" y="-341.243" font-family="Arial" font-size="10.00" fill="black">*</text>
</g>
<!-- 29 -->
<g id="node12" class="node"><defs>
<linearGradient id="l_12" gradientUnits="userSpaceOnUse" x1="294" y1="-351.5" x2="294" y2="-387.5">
<stop offset="0" style="stop-color:#ffffbb;stop-opacity:1.;"/>
<stop offset="1" style="stop-color:#ffffee;stop-opacity:1.;"/>
</linearGradient>
</defs>
<polygon fill="url(#l_12)" stroke="black" points="362.5,-387.5 225.5,-387.5 225.5,-351.5 362.5,-351.5 362.5,-387.5"/>
<text text-anchor="start" x="236" y="-367.7" font-family="Arial" font-weight="bold" font-size="11.00" fill="black"><a fill="navy" href="../reference/Graphics/RepresentationGroup.html" target="_parent">RepresentationGroup</a></text>
</g>
<!-- 29&#45;&gt;6 -->
<g id="edge6" class="edge"><path fill="none" stroke="#000000" d="M278.382,-351.243C266.168,-337.748 249.024,-318.805 235.356,-303.702"/>
<polygon fill="#000000" stroke="#000000" points="228.57,-296.204 238.616,-300.598 231.925,-299.911 235.28,-303.618 235.28,-303.618 235.28,-303.618 231.925,-299.911 231.943,-306.638 228.57,-296.204 228.57,-296.204"/>
<text text-anchor="start" x="258" y="-316.5" font-family="Arial" font-size="10.00" fill="black"><a fill="navy" href="../reference/Graphics/RepresentationGroup.html#dexpi-graphics-representationgroup-represents" target="_parent">Represents</a></text>
<text text-anchor="start" x="220.57" y="-299.204" font-family="Arial" font-size="10.00" fill="black"></text>
<text text-anchor="start" x="262.382" y="-341.243" font-family="Arial" font-size="10.00" fill="black">*</text>
</g>
<!-- 35 -->
<g id="node14" class="node"><defs>
<linearGradient id="l_13" gradientUnits="userSpaceOnUse" x1="663" y1="-351.5" x2="663" y2="-387.5">
<stop offset="0" style="stop-color:#ffffbb;stop-opacity:1.;"/>
<stop offset="1" style="stop-color:#ffffee;stop-opacity:1.;"/>
</linearGradient>
</defs>
<polygon fill="url(#l_13)" stroke="black" points="741.5,-387.5 584.5,-387.5 584.5,-351.5 741.5,-351.5 741.5,-387.5"/>
<text text-anchor="start" x="595" y="-367.7" font-family="Arial" font-weight="bold" font-size="11.00" fill="black"><a fill="navy" href="../reference/Instrumentation/SignalConveyingFunction.html" target="_parent">SignalConveyingFunction</a></text>
</g>
<!-- 35&#45;&gt;8 -->
<g id="edge8" class="edge"><path fill="none" stroke="#000000" d="M642.755,-351.243C626.631,-337.5 603.88,-318.108 586.009,-302.875"/>
<polygon fill="#000000" stroke="#000000" points="578.183,-296.204 588.713,-299.266 581.988,-299.447 585.793,-302.691 585.793,-302.691 585.793,-302.691 581.988,-299.447 582.874,-306.115 578.183,-296.204 578.183,-296.204"/>
<text text-anchor="start" x="616.5" y="-316.5" font-family="Arial" font-size="10.00" fill="black"><a fill="navy" href="../reference/Instrumentation/SignalConveyingFunction.html#dexpi-instrumentation-signalconveyingfunction-source" target="_parent">Source</a></text>
<text text-anchor="start" x="557.183" y="-299.204" font-family="Arial" font-size="10.00" fill="black">0..1</text>
<text text-anchor="start" x="626.755" y="-341.243" font-family="Arial" font-size="10.00" fill="black">*</text>
</g>
<!-- 35&#45;&gt;9 -->
<g id="edge9" class="edge"><path fill="none" stroke="#000000" d="M683.245,-351.243C699.369,-337.5 722.12,-318.108 739.991,-302.875"/>
<polygon fill="#000000" stroke="#000000" points="747.817,-296.204 743.126,-306.115 744.012,-299.447 740.207,-302.691 740.207,-302.691 740.207,-302.691 744.012,-299.447 737.287,-299.266 747.817,-296.204 747.817,-296.204"/>
<text text-anchor="start" x="730" y="-316.5" font-family="Arial" font-size="10.00" fill="black"><a fill="navy" href="../reference/Instrumentation/SignalConveyingFunction.html#dexpi-instrumentation-signalconveyingfunction-target" target="_parent">Target</a></text>
<text text-anchor="start" x="726.817" y="-299.204" font-family="Arial" font-size="10.00" fill="black">0..1</text>
<text text-anchor="start" x="667.245" y="-341.243" font-family="Arial" font-size="10.00" fill="black">*</text>
</g>
<!-- 10&#45;inner&#45;node&#45;&gt;0 -->
<g id="edge11" class="edge"><path fill="none" stroke="black" d="M213.028,-193.868C213.312,-192.573 215.777,-182.051 222,-177 258.062,-147.732 305.876,-130.787 349.475,-120.977"/>
</g>
<!-- 11&#45;inner&#45;node&#45;&gt;0 -->
<g id="edge13" class="edge"><path fill="none" stroke="black" d="M371.067,-193.937C372.926,-192.208 412.832,-155.092 439.74,-130.064"/>
</g>
<!-- 12&#45;inner&#45;node&#45;&gt;0 -->
<g id="edge15" class="edge"><path fill="none" stroke="black" d="M557.932,-193.937C556.053,-192.208 515.719,-155.092 488.521,-130.064"/>
</g>
<!-- 13&#45;inner&#45;node&#45;&gt;0 -->
<g id="edge17" class="edge"><path fill="none" stroke="black" d="M767.945,-193.984C764.844,-193.102 632.216,-155.364 543.2,-130.035"/>
</g>
<!-- 14&#45;inner&#45;node&#45;&gt;0 -->
<g id="edge19" class="edge"><path fill="none" stroke="black" d="M927.915,-193.984C923.11,-193.088 714.443,-154.188 578.629,-128.869"/>
</g>
</g>
</svg>