<!DOCTYPE svg PUBLIC "-//W3C//DTD SVG 1.1//EN" "http://www.w3.org/Graphics/SVG/1.1/DTD/svg11.dtd">
<!-- Generated by graphviz version 2.38.0 (20140413.2041)
 --><!-- Title: G Pages: 1 --><svg xmlns="http://www.w3.org/2000/svg" xmlns:xlink="http://www.w3.org/1999/xlink" width="833pt" height="404pt" viewBox="0.00 0.00 833.00 404.00">
<g id="graph0" class="graph" transform="scale(1 1) rotate(0) translate(4 400)">
<!-- 0 -->
<g id="node1" class="node"><defs>
<linearGradient id="l_0" gradientUnits="userSpaceOnUse" x1="371" y1="-83" x2="371" y2="-130">
<stop offset="0" style="stop-color:#ffffbb;stop-opacity:1.;"/>
<stop offset="1" style="stop-color:#ffffee;stop-opacity:1.;"/>
</linearGradient>
</defs>
<polygon fill="url(#l_0)" stroke="black" points="506,-130 236,-130 236,-83 506,-83 506,-130"/>
<text text-anchor="start" x="298" y="-115.7" font-family="Arial" font-weight="bold" font-size="11.00" fill="black">ActuatingElectricalFunction</text>
<text text-anchor="start" x="246" y="-91.5" font-family="Arial" font-size="10.00" fill="black"><a fill="navy" href="../reference/Instrumentation/ActuatingElectricalFunction.html#dexpi-instrumentation-actuatingelectricalfunction-actuatingelectricalfunctionnumber" target="_parent">ActuatingElectricalFunctionNumber</a>&#160;:</text>
<text text-anchor="start" x="410" y="-91.5" font-family="Arial" font-size="10.00" fill="black"><a fill="navy" href="../reference/DataTypes/NullableString.html" target="_parent">NullableString</a>&#160;[0..1]</text>
<polygon fill="black" stroke="black" points="506.0,-109.5 236.0,-109.5 236.0,-109.5 506.0,-109.5 506.0,-109.5"/>
</g>
<!-- 15 -->
<g id="node7" class="node"><defs>
<linearGradient id="l_1" gradientUnits="userSpaceOnUse" x1="281" y1="-1.77636e-014" x2="281" y2="-36">
<stop offset="0" style="stop-color:#ffffbb;stop-opacity:1.;"/>
<stop offset="1" style="stop-color:#ffffee;stop-opacity:1.;"/>
</linearGradient>
</defs>
<polygon fill="url(#l_1)" stroke="black" points="364,-36 198,-36 198,-0 364,-0 364,-36"/>
<text text-anchor="start" x="208" y="-16.2" font-family="Arial" font-weight="bold" font-style="italic" font-size="11.00" fill="black"><a fill="navy" href="../reference/Instrumentation/ActuatingElectricalLocation.html" target="_parent">ActuatingElectricalLocation</a></text>
</g>
<!-- 0&#45;&gt;15 -->
<g id="edge2" class="edge"><path fill="none" stroke="#000000" d="M335.024,-82.8979C328.383,-78.0244 321.741,-72.6316 316,-67 309.226,-60.3558 302.801,-52.2879 297.348,-44.6777"/>
<polygon fill="#000000" stroke="#000000" points="291.432,-36.0669 300.804,-41.7604 294.263,-40.1879 297.095,-44.3088 297.095,-44.3088 297.095,-44.3088 294.263,-40.1879 293.386,-46.8573 291.432,-36.0669 291.432,-36.0669"/>
<text text-anchor="start" x="318.5" y="-56.5" font-family="Arial" font-size="10.00" fill="black"><a fill="navy" href="../reference/Instrumentation/ActuatingElectricalFunction.html#dexpi-instrumentation-actuatingelectricalfunction-actuatingelectricallocation" target="_parent">ActuatingElectricalLocation</a></text>
<text text-anchor="start" x="270.432" y="-39.0669" font-family="Arial" font-size="10.00" fill="black">0..1</text>
<text text-anchor="start" x="306.024" y="-72.8979" font-family="Arial" font-size="10.00" fill="black">0..1</text>
</g>
<!-- 18 -->
<g id="node8" class="node"><defs>
<linearGradient id="l_2" gradientUnits="userSpaceOnUse" x1="461" y1="-1.77636e-014" x2="461" y2="-36">
<stop offset="0" style="stop-color:#ffffbb;stop-opacity:1.;"/>
<stop offset="1" style="stop-color:#ffffee;stop-opacity:1.;"/>
</linearGradient>
</defs>
<polygon fill="url(#l_2)" stroke="black" points="540,-36 382,-36 382,-0 540,-0 540,-36"/>
<text text-anchor="start" x="392" y="-16.2" font-family="Arial" font-weight="bold" font-size="11.00" fill="black"><a fill="navy" href="../reference/Instrumentation/ActuatingElectricalSystem.html" target="_parent">ActuatingElectricalSystem</a></text>
</g>
<!-- 0&#45;&gt;18 -->
<g id="edge3" class="edge"><path fill="none" stroke="#000000" d="M419.865,-82.8979C426.835,-78.2966 433.495,-72.9962 439,-67 444.604,-60.8961 448.993,-53.1184 452.327,-45.6099"/>
<polygon fill="#000000" stroke="#000000" points="456.115,-36.0577 456.611,-47.0123 454.272,-40.7055 452.428,-45.3534 452.428,-45.3534 452.428,-45.3534 454.272,-40.7055 448.245,-43.6945 456.115,-36.0577 456.115,-36.0577"/>
<text text-anchor="start" x="451" y="-56.5" font-family="Arial" font-size="10.00" fill="black"><a fill="navy" href="../reference/Instrumentation/ActuatingElectricalFunction.html#dexpi-instrumentation-actuatingelectricalfunction-systems" target="_parent">Systems</a></text>
<text text-anchor="start" x="435.115" y="-39.0577" font-family="Arial" font-size="10.00" fill="black">0..1</text>
<text text-anchor="start" x="390.865" y="-72.8979" font-family="Arial" font-size="10.00" fill="black">0..1</text>
</g>
<!-- 4 -->
<g id="node2" class="node"><defs>
<linearGradient id="l_3" gradientUnits="userSpaceOnUse" x1="733" y1="-343" x2="733" y2="-396">
<stop offset="0" style="stop-color:#fbfbfb;stop-opacity:1.;"/>
<stop offset="1" style="stop-color:#fefefe;stop-opacity:1.;"/>
</linearGradient>
</defs>
<polygon fill="url(#l_3)" stroke="black" points="825.0,-385.0 814.0,-396.0 641.0,-396.0 641.0,-343.0 825.0,-343.0"/><path d="M825.0,-385.0L814.0,-385.0 814.0,-396.0" fill="none" stroke="black"/>
<text text-anchor="start" x="651" y="-381.5" font-family="Arial" font-size="10.00" fill="black">For&#160;the&#160;sake&#160;of&#160;clarity,&#160;superclasses&#160;</text>
<text text-anchor="start" x="651" y="-366.5" font-family="Arial" font-size="10.00" fill="black">and&#160;associations&#160;of&#160;<a fill="navy" href="../reference/PlantStructure/TechnicalItem.html" target="_parent">TechnicalItem</a>&#160;are</text>
<text text-anchor="start" x="651" y="-351.5" font-family="Arial" font-size="10.00" fill="black">not&#160;shown&#160;in&#160;this&#160;diagram.</text>
</g>
<!-- 3 -->
<g id="node3" class="node"><defs>
<linearGradient id="l_4" gradientUnits="userSpaceOnUse" x1="722" y1="-260" x2="722" y2="-296">
<stop offset="0" style="stop-color:#ffffbb;stop-opacity:1.;"/>
<stop offset="1" style="stop-color:#ffffee;stop-opacity:1.;"/>
</linearGradient>
</defs>
<polygon fill="url(#l_4)" stroke="black" points="768.5,-296 675.5,-296 675.5,-260 768.5,-260 768.5,-296"/>
<text text-anchor="start" x="686" y="-276.2" font-family="Arial" font-weight="bold" font-style="italic" font-size="11.00" fill="black"><a fill="navy" href="../reference/PlantStructure/TechnicalItem.html" target="_parent">TechnicalItem</a></text>
</g>
<!-- 4&#45;&gt;3 -->
<g id="edge1" class="edge"><path fill="none" stroke="#000000" stroke-dasharray="5,2" d="M729.818,-342.613C727.978,-327.641 725.714,-309.222 724.097,-296.063"/>
</g>
<!-- 12&#45;inner&#45;node -->
<!-- 3&#45;&gt;12&#45;inner&#45;node -->
<g id="edge15" class="edge"><path fill="none" stroke="black" d="M722,-249.649C722,-226.987 722,-198.163 722,-196.116L721.936,-193.984"/>
<polygon fill="none" stroke="black" points="718.5,-249.822 722,-259.822 725.5,-249.822 718.5,-249.822"/>
</g>
<!-- 6 -->
<g id="node4" class="node"><defs>
<linearGradient id="l_5" gradientUnits="userSpaceOnUse" x1="213" y1="-260" x2="213" y2="-296">
<stop offset="0" style="stop-color:#ffffbb;stop-opacity:1.;"/>
<stop offset="1" style="stop-color:#ffffee;stop-opacity:1.;"/>
</linearGradient>
</defs>
<polygon fill="url(#l_5)" stroke="black" points="270.5,-296 155.5,-296 155.5,-260 270.5,-260 270.5,-296"/>
<text text-anchor="start" x="166" y="-276.2" font-family="Arial" font-weight="bold" font-style="italic" font-size="11.00" fill="black"><a fill="navy" href="../reference/DexpiModel/ConceptualObject.html" target="_parent">ConceptualObject</a></text>
</g>
<!-- 9&#45;inner&#45;node -->
<!-- 6&#45;&gt;9&#45;inner&#45;node -->
<g id="edge9" class="edge"><path fill="none" stroke="black" d="M213,-249.649C213,-226.987 213,-198.163 213,-196.116L213.033,-193.874"/>
<polygon fill="none" stroke="black" points="209.5,-249.822 213,-259.822 216.5,-249.822 209.5,-249.822"/>
</g>
<!-- 7 -->
<g id="node5" class="node"><defs>
<linearGradient id="l_6" gradientUnits="userSpaceOnUse" x1="371" y1="-260" x2="371" y2="-296">
<stop offset="0" style="stop-color:#ffffbb;stop-opacity:1.;"/>
<stop offset="1" style="stop-color:#ffffee;stop-opacity:1.;"/>
</linearGradient>
</defs>
<polygon fill="url(#l_6)" stroke="black" points="443,-296 299,-296 299,-260 443,-260 443,-296"/>
<text text-anchor="start" x="309" y="-276.2" font-family="Arial" font-weight="bold" font-style="italic" font-size="11.00" fill="black"><a fill="navy" href="../reference/Customization/CustomAttributeOwner.html" target="_parent">CustomAttributeOwner</a></text>
</g>
<!-- 30 -->
<g id="node12" class="node"><defs>
<linearGradient id="l_7" gradientUnits="userSpaceOnUse" x1="286" y1="-177" x2="286" y2="-213">
<stop offset="0" style="stop-color:#ffffbb;stop-opacity:1.;"/>
<stop offset="1" style="stop-color:#ffffee;stop-opacity:1.;"/>
</linearGradient>
</defs>
<polygon fill="url(#l_7)" stroke="black" points="340.5,-213 231.5,-213 231.5,-177 340.5,-177 340.5,-213"/>
<text text-anchor="start" x="242" y="-193.2" font-family="Arial" font-weight="bold" font-style="italic" font-size="11.00" fill="black"><a fill="navy" href="../reference/Customization/CustomAttribute.html" target="_parent">CustomAttribute</a></text>
</g>
<!-- 7&#45;&gt;30 -->
<g id="edge7" class="edge"><path fill="none" stroke="#000000" d="M294.449,-252.486C291.681,-249.933 289.17,-247.113 287,-244 282.902,-238.119 281.444,-230.772 281.315,-223.608"/>
<polygon fill="#000000" stroke="#000000" points="294.498,-252.523 301.696,-252.959 304.063,-259.77 296.865,-259.335 294.498,-252.523"/>
<polygon fill="#000000" stroke="#000000" points="281.925,-213.435 285.819,-223.687 281.626,-218.426 281.327,-223.417 281.327,-223.417 281.327,-223.417 281.626,-218.426 276.835,-223.148 281.925,-213.435 281.925,-213.435"/>
<text text-anchor="start" x="289" y="-233.5" font-family="Arial" font-size="10.00" fill="black"><a fill="navy" href="../reference/Customization/CustomAttributeOwner.html#dexpi-customization-customattributeowner-customattributes" target="_parent">CustomAttributes</a></text>
<text text-anchor="start" x="273.925" y="-216.435" font-family="Arial" font-size="10.00" fill="black">*</text>
<text text-anchor="start" x="275.063" y="-249.77" font-family="Arial" font-size="10.00" fill="black">0..1</text>
</g>
<!-- 10&#45;inner&#45;node -->
<!-- 7&#45;&gt;10&#45;inner&#45;node -->
<g id="edge11" class="edge"><path fill="none" stroke="black" d="M371,-249.649C371,-226.987 371,-198.163 371,-196.116L371,-193.937"/>
<polygon fill="none" stroke="black" points="367.5,-249.822 371,-259.822 374.5,-249.822 367.5,-249.822"/>
</g>
<!-- 8 -->
<g id="node6" class="node"><defs>
<linearGradient id="l_8" gradientUnits="userSpaceOnUse" x1="556" y1="-260" x2="556" y2="-296">
<stop offset="0" style="stop-color:#ffffbb;stop-opacity:1.;"/>
<stop offset="1" style="stop-color:#ffffee;stop-opacity:1.;"/>
</linearGradient>
</defs>
<polygon fill="url(#l_8)" stroke="black" points="651,-296 461,-296 461,-260 651,-260 651,-296"/>
<text text-anchor="start" x="471" y="-276.2" font-family="Arial" font-weight="bold" font-style="italic" font-size="11.00" fill="black"><a fill="navy" href="../reference/Instrumentation/SignalConveyingFunctionTarget.html" target="_parent">SignalConveyingFunctionTarget</a></text>
</g>
<!-- 11&#45;inner&#45;node -->
<!-- 8&#45;&gt;11&#45;inner&#45;node -->
<g id="edge13" class="edge"><path fill="none" stroke="black" d="M556,-249.649C556,-226.987 556,-198.163 556,-196.116L555.866,-193.937"/>
<polygon fill="none" stroke="black" points="552.5,-249.822 556,-259.822 559.5,-249.822 552.5,-249.822"/>
</g>
<!-- 21 -->
<g id="node9" class="node"><defs>
<linearGradient id="l_9" gradientUnits="userSpaceOnUse" x1="97" y1="-177" x2="97" y2="-213">
<stop offset="0" style="stop-color:#ffffbb;stop-opacity:1.;"/>
<stop offset="1" style="stop-color:#ffffee;stop-opacity:1.;"/>
</linearGradient>
</defs>
<polygon fill="url(#l_9)" stroke="black" points="194,-213 0,-213 0,-177 194,-177 194,-213"/>
<text text-anchor="start" x="10" y="-193.2" font-family="Arial" font-weight="bold" font-size="11.00" fill="black"><a fill="navy" href="../reference/Instrumentation/ProcessInstrumentationFunction.html" target="_parent">ProcessInstrumentationFunction</a></text>
</g>
<!-- 21&#45;&gt;0 -->
<g id="edge4" class="edge"><path fill="none" stroke="#000000" d="M99.2517,-165.096C101.173,-157.941 104.459,-150.922 110,-146 128.137,-129.886 175.959,-120.516 225.79,-115.067"/>
<polygon fill="#000000" stroke="#000000" points="99.2499,-165.107 102.139,-171.714 97.1506,-176.921 94.2619,-170.314 99.2499,-165.107"/>
<polygon fill="#000000" stroke="#000000" points="235.775,-114.029 226.294,-119.539 230.802,-114.546 225.829,-115.064 225.829,-115.064 225.829,-115.064 230.802,-114.546 225.364,-110.588 235.775,-114.029 235.775,-114.029"/>
<text text-anchor="start" x="112.5" y="-150.5" font-family="Arial" font-size="10.00" fill="black"><a fill="navy" href="../reference/Instrumentation/ProcessInstrumentationFunction.html#dexpi-instrumentation-processinstrumentationfunction-actuatingelectricalfunctions" target="_parent">ActuatingElectricalFunctions</a></text>
<text text-anchor="start" x="227.775" y="-117.029" font-family="Arial" font-size="10.00" fill="black">*</text>
<text text-anchor="start" x="68.1506" y="-166.921" font-family="Arial" font-size="10.00" fill="black">0..1</text>
</g>
<!-- 24 -->
<g id="node10" class="node"><defs>
<linearGradient id="l_10" gradientUnits="userSpaceOnUse" x1="141" y1="-351.5" x2="141" y2="-387.5">
<stop offset="0" style="stop-color:#ffffbb;stop-opacity:1.;"/>
<stop offset="1" style="stop-color:#ffffee;stop-opacity:1.;"/>
</linearGradient>
</defs>
<polygon fill="url(#l_10)" stroke="black" points="215.5,-387.5 66.5,-387.5 66.5,-351.5 215.5,-351.5 215.5,-387.5"/>
<text text-anchor="start" x="77" y="-367.7" font-family="Arial" font-weight="bold" font-size="11.00" fill="black"><a fill="navy" href="../reference/Graphics/AttributeRepresentation.html" target="_parent">AttributeRepresentation</a></text>
</g>
<!-- 24&#45;&gt;6 -->
<g id="edge5" class="edge"><path fill="none" stroke="#000000" d="M154.882,-351.243C165.64,-337.871 180.699,-319.152 192.793,-304.119"/>
<polygon fill="#000000" stroke="#000000" points="199.16,-296.204 196.398,-306.816 196.026,-300.099 192.892,-303.995 192.892,-303.995 192.892,-303.995 196.026,-300.099 189.386,-301.175 199.16,-296.204 199.16,-296.204"/>
<text text-anchor="start" x="188.5" y="-316.5" font-family="Arial" font-size="10.00" fill="black"><a fill="navy" href="../reference/Graphics/AttributeRepresentation.html#dexpi-graphics-attributerepresentation-object" target="_parent">Object</a></text>
<text text-anchor="start" x="191.16" y="-299.204" font-family="Arial" font-size="10.00" fill="black"></text>
<text text-anchor="start" x="138.882" y="-341.243" font-family="Arial" font-size="10.00" fill="black">*</text>
</g>
<!-- 27 -->
<g id="node11" class="node"><defs>
<linearGradient id="l_11" gradientUnits="userSpaceOnUse" x1="302" y1="-351.5" x2="302" y2="-387.5">
<stop offset="0" style="stop-color:#ffffbb;stop-opacity:1.;"/>
<stop offset="1" style="stop-color:#ffffee;stop-opacity:1.;"/>
</linearGradient>
</defs>
<polygon fill="url(#l_11)" stroke="black" points="370.5,-387.5 233.5,-387.5 233.5,-351.5 370.5,-351.5 370.5,-387.5"/>
<text text-anchor="start" x="244" y="-367.7" font-family="Arial" font-weight="bold" font-size="11.00" fill="black"><a fill="navy" href="../reference/Graphics/RepresentationGroup.html" target="_parent">RepresentationGroup</a></text>
</g>
<!-- 27&#45;&gt;6 -->
<g id="edge6" class="edge"><path fill="none" stroke="#000000" d="M284.84,-351.243C271.419,-337.748 252.582,-318.805 237.564,-303.702"/>
<polygon fill="#000000" stroke="#000000" points="230.107,-296.204 240.35,-300.121 233.633,-299.749 237.159,-303.294 237.159,-303.294 237.159,-303.294 233.633,-299.749 233.968,-306.467 230.107,-296.204 230.107,-296.204"/>
<text text-anchor="start" x="263" y="-316.5" font-family="Arial" font-size="10.00" fill="black"><a fill="navy" href="../reference/Graphics/RepresentationGroup.html#dexpi-graphics-representationgroup-represents" target="_parent">Represents</a></text>
<text text-anchor="start" x="222.107" y="-299.204" font-family="Arial" font-size="10.00" fill="black"></text>
<text text-anchor="start" x="268.84" y="-341.243" font-family="Arial" font-size="10.00" fill="black">*</text>
</g>
<!-- 33 -->
<g id="node13" class="node"><defs>
<linearGradient id="l_12" gradientUnits="userSpaceOnUse" x1="544" y1="-351.5" x2="544" y2="-387.5">
<stop offset="0" style="stop-color:#ffffbb;stop-opacity:1.;"/>
<stop offset="1" style="stop-color:#ffffee;stop-opacity:1.;"/>
</linearGradient>
</defs>
<polygon fill="url(#l_12)" stroke="black" points="622.5,-387.5 465.5,-387.5 465.5,-351.5 622.5,-351.5 622.5,-387.5"/>
<text text-anchor="start" x="476" y="-367.7" font-family="Arial" font-weight="bold" font-size="11.00" fill="black"><a fill="navy" href="../reference/Instrumentation/SignalConveyingFunction.html" target="_parent">SignalConveyingFunction</a></text>
</g>
<!-- 33&#45;&gt;8 -->
<g id="edge8" class="edge"><path fill="none" stroke="#000000" d="M546.314,-351.243C548.024,-338.49 550.386,-320.874 552.349,-306.229"/>
<polygon fill="#000000" stroke="#000000" points="553.693,-296.204 556.824,-306.713 553.029,-301.159 552.364,-306.115 552.364,-306.115 552.364,-306.115 553.029,-301.159 547.904,-305.517 553.693,-296.204 553.693,-296.204"/>
<text text-anchor="start" x="554" y="-316.5" font-family="Arial" font-size="10.00" fill="black"><a fill="navy" href="../reference/Instrumentation/SignalConveyingFunction.html#dexpi-instrumentation-signalconveyingfunction-target" target="_parent">Target</a></text>
<text text-anchor="start" x="532.693" y="-299.204" font-family="Arial" font-size="10.00" fill="black">0..1</text>
<text text-anchor="start" x="530.314" y="-341.243" font-family="Arial" font-size="10.00" fill="black">*</text>
</g>
<!-- 9&#45;inner&#45;node&#45;&gt;0 -->
<g id="edge10" class="edge"><path fill="none" stroke="black" d="M213.033,-193.874C213.364,-192.632 216.192,-182.523 222,-177 243.617,-156.447 272.414,-141.093 298.926,-130.118"/>
</g>
<!-- 10&#45;inner&#45;node&#45;&gt;0 -->
<g id="edge12" class="edge"><path fill="none" stroke="black" d="M371,-193.937C371,-192.208 371,-155.092 371,-130.064"/>
</g>
<!-- 11&#45;inner&#45;node&#45;&gt;0 -->
<g id="edge14" class="edge"><path fill="none" stroke="black" d="M555.866,-193.937C552.168,-192.208 472.787,-155.092 419.259,-130.064"/>
</g>
<!-- 12&#45;inner&#45;node&#45;&gt;0 -->
<g id="edge16" class="edge"><path fill="none" stroke="black" d="M721.936,-193.984C718.356,-193.102 565.223,-155.364 462.444,-130.035"/>
</g>
</g>
</svg>