<!DOCTYPE svg PUBLIC "-//W3C//DTD SVG 1.1//EN" "http://www.w3.org/Graphics/SVG/1.1/DTD/svg11.dtd">
<!-- Generated by graphviz version 2.38.0 (20140413.2041)
 --><!-- Title: G Pages: 1 --><svg xmlns="http://www.w3.org/2000/svg" xmlns:xlink="http://www.w3.org/1999/xlink" width="740pt" height="419pt" viewBox="0.00 0.00 739.50 419.00">
<g id="graph0" class="graph" transform="scale(1 1) rotate(0) translate(4 415)">
<!-- 0 -->
<g id="node1" class="node"><defs>
<linearGradient id="l_0" gradientUnits="userSpaceOnUse" x1="344.5" y1="-83" x2="344.5" y2="-145">
<stop offset="0" style="stop-color:#ffffbb;stop-opacity:1.;"/>
<stop offset="1" style="stop-color:#ffffee;stop-opacity:1.;"/>
</linearGradient>
</defs>
<polygon fill="url(#l_0)" stroke="black" points="457,-145 232,-145 232,-83 457,-83 457,-145"/>
<text text-anchor="start" x="301" y="-131.2" font-family="Arial" font-weight="bold" font-size="11.00" fill="black">ActuatingSystem</text>
<text text-anchor="start" x="242.5" y="-107" font-family="Arial" font-size="10.00" fill="black"><a fill="navy" href="../reference/Instrumentation/ActuatingSystem.html#dexpi-instrumentation-actuatingsystem-actuatingsystemnumber" target="_parent">ActuatingSystemNumber</a>&#160;:</text>
<text text-anchor="start" x="361.5" y="-107" font-family="Arial" font-size="10.00" fill="black"><a fill="navy" href="../reference/DataTypes/NullableString.html" target="_parent">NullableString</a>&#160;[0..1]</text>
<text text-anchor="start" x="242.5" y="-92" font-family="Arial" font-size="10.00" fill="black"><a fill="navy" href="../reference/Instrumentation/ActuatingSystem.html#dexpi-instrumentation-actuatingsystem-typicalinformation" target="_parent">TypicalInformation</a>&#160;:</text>
<text text-anchor="start" x="361.5" y="-92" font-family="Arial" font-size="10.00" fill="black"><a fill="navy" href="../reference/DataTypes/NullableString.html" target="_parent">NullableString</a>&#160;[0..1]</text>
<polygon fill="black" stroke="black" points="457.0,-125.0 232.0,-125.0 232.0,-125.0 457.0,-125.0 457.0,-125.0"/>
</g>
<!-- 14 -->
<g id="node6" class="node"><defs>
<linearGradient id="l_1" gradientUnits="userSpaceOnUse" x1="60.5" y1="-1.77636e-014" x2="60.5" y2="-36">
<stop offset="0" style="stop-color:#ffffbb;stop-opacity:1.;"/>
<stop offset="1" style="stop-color:#ffffee;stop-opacity:1.;"/>
</linearGradient>
</defs>
<polygon fill="url(#l_1)" stroke="black" points="121,-36 0,-36 0,-0 121,-0 121,-36"/>
<text text-anchor="start" x="10.5" y="-16.2" font-family="Arial" font-weight="bold" font-size="11.00" fill="black"><a fill="navy" href="../reference/Instrumentation/ControlledActuator.html" target="_parent">ControlledActuator</a></text>
</g>
<!-- 0&#45;&gt;14 -->
<g id="edge2" class="edge"><path fill="none" stroke="#000000" d="M229.563,-79.2459C216.688,-75.2269 203.79,-71.0951 191.5,-67 166.052,-58.5205 138.107,-48.3949 114.587,-39.6342"/>
<polygon fill="#000000" stroke="#000000" points="229.899,-79.3501 236.814,-77.3046 241.362,-82.9008 234.447,-84.9464 229.899,-79.3501"/>
<polygon fill="#000000" stroke="#000000" points="105.135,-36.0987 116.078,-35.3876 109.818,-37.8505 114.502,-39.6024 114.502,-39.6024 114.502,-39.6024 109.818,-37.8505 112.925,-43.8171 105.135,-36.0987 105.135,-36.0987"/>
<text text-anchor="start" x="194" y="-56.5" font-family="Arial" font-size="10.00" fill="black"><a fill="navy" href="../reference/Instrumentation/ActuatingSystem.html#dexpi-instrumentation-actuatingsystem-controlledactuator" target="_parent">ControlledActuator</a></text>
<text text-anchor="start" x="84.1354" y="-39.0987" font-family="Arial" font-size="10.00" fill="black">0..1</text>
<text text-anchor="start" x="212.362" y="-72.9008" font-family="Arial" font-size="10.00" fill="black">0..1</text>
</g>
<!-- 17 -->
<g id="node7" class="node"><defs>
<linearGradient id="l_2" gradientUnits="userSpaceOnUse" x1="244.5" y1="-1.77636e-014" x2="244.5" y2="-36">
<stop offset="0" style="stop-color:#ffffbb;stop-opacity:1.;"/>
<stop offset="1" style="stop-color:#ffffee;stop-opacity:1.;"/>
</linearGradient>
</defs>
<polygon fill="url(#l_2)" stroke="black" points="349.5,-36 139.5,-36 139.5,-0 349.5,-0 349.5,-36"/>
<text text-anchor="start" x="149.5" y="-16.2" font-family="Arial" font-weight="bold" font-size="11.00" fill="black"><a fill="navy" href="../reference/Instrumentation/CustomActuatingSystemComponent.html" target="_parent">CustomActuatingSystemComponent</a></text>
</g>
<!-- 0&#45;&gt;17 -->
<g id="edge3" class="edge"><path fill="none" stroke="#000000" d="M303.468,-74.4295C292.178,-63.8176 280.258,-52.6129 270.113,-43.0759"/>
<polygon fill="#000000" stroke="#000000" points="303.841,-74.7804 310.952,-75.9754 312.584,-82.9994 305.473,-81.8044 303.841,-74.7804"/>
<polygon fill="#000000" stroke="#000000" points="262.74,-36.1454 273.108,-39.7157 266.383,-39.57 270.026,-42.9945 270.026,-42.9945 270.026,-42.9945 266.383,-39.57 266.944,-46.2734 262.74,-36.1454 262.74,-36.1454"/>
<text text-anchor="start" x="297" y="-56.5" font-family="Arial" font-size="10.00" fill="black"><a fill="navy" href="../reference/Instrumentation/ActuatingSystem.html#dexpi-instrumentation-actuatingsystem-customcomponents" target="_parent">CustomComponents</a></text>
<text text-anchor="start" x="254.74" y="-39.1454" font-family="Arial" font-size="10.00" fill="black">*</text>
<text text-anchor="start" x="283.584" y="-72.9994" font-family="Arial" font-size="10.00" fill="black">0..1</text>
</g>
<!-- 20 -->
<g id="node8" class="node"><defs>
<linearGradient id="l_3" gradientUnits="userSpaceOnUse" x1="445.5" y1="-1.77636e-014" x2="445.5" y2="-36">
<stop offset="0" style="stop-color:#ffffbb;stop-opacity:1.;"/>
<stop offset="1" style="stop-color:#ffffee;stop-opacity:1.;"/>
</linearGradient>
</defs>
<polygon fill="url(#l_3)" stroke="black" points="523.5,-36 367.5,-36 367.5,-0 523.5,-0 523.5,-36"/>
<text text-anchor="start" x="377.5" y="-16.2" font-family="Arial" font-weight="bold" font-size="11.00" fill="black"><a fill="navy" href="../reference/Instrumentation/OperatedValveReference.html" target="_parent">OperatedValveReference</a></text>
</g>
<!-- 0&#45;&gt;20 -->
<g id="edge4" class="edge"><path fill="none" stroke="#000000" d="M385.534,-74.8097C397.029,-64.1113 409.203,-52.7813 419.557,-43.1454"/>
<polygon fill="#000000" stroke="#000000" points="385.519,-74.8239 383.852,-81.8397 376.735,-82.9994 378.402,-75.9836 385.519,-74.8239"/>
<polygon fill="#000000" stroke="#000000" points="427.078,-36.1454 422.823,-46.2524 423.418,-39.5518 419.758,-42.9583 419.758,-42.9583 419.758,-42.9583 423.418,-39.5518 416.692,-39.6642 427.078,-36.1454 427.078,-36.1454"/>
<text text-anchor="start" x="413" y="-56.5" font-family="Arial" font-size="10.00" fill="black"><a fill="navy" href="../reference/Instrumentation/ActuatingSystem.html#dexpi-instrumentation-actuatingsystem-operatedvalvereference" target="_parent">OperatedValveReference</a></text>
<text text-anchor="start" x="406.078" y="-39.1454" font-family="Arial" font-size="10.00" fill="black">0..1</text>
<text text-anchor="start" x="347.735" y="-72.9994" font-family="Arial" font-size="10.00" fill="black">0..1</text>
</g>
<!-- 23 -->
<g id="node9" class="node"><defs>
<linearGradient id="l_4" gradientUnits="userSpaceOnUse" x1="579.5" y1="-1.77636e-014" x2="579.5" y2="-36">
<stop offset="0" style="stop-color:#ffffbb;stop-opacity:1.;"/>
<stop offset="1" style="stop-color:#ffffee;stop-opacity:1.;"/>
</linearGradient>
</defs>
<polygon fill="url(#l_4)" stroke="black" points="617,-36 542,-36 542,-0 617,-0 617,-36"/>
<text text-anchor="start" x="552.5" y="-16.2" font-family="Arial" font-weight="bold" font-size="11.00" fill="black"><a fill="navy" href="../reference/Instrumentation/Positioner.html" target="_parent">Positioner</a></text>
</g>
<!-- 0&#45;&gt;23 -->
<g id="edge5" class="edge"><path fill="none" stroke="#000000" d="M468.733,-89.8542C488.325,-83.8401 507.902,-76.3359 525.5,-67 536.813,-60.9985 547.691,-52.1497 556.681,-43.6792"/>
<polygon fill="#000000" stroke="#000000" points="468.728,-89.8557 464.093,-95.3797 457.211,-93.2256 461.846,-87.7016 468.728,-89.8557"/>
<polygon fill="#000000" stroke="#000000" points="564.06,-36.4138 560.092,-46.6365 560.497,-39.9219 556.934,-43.43 556.934,-43.43 556.934,-43.43 560.497,-39.9219 553.777,-40.2234 564.06,-36.4138 564.06,-36.4138"/>
<text text-anchor="start" x="549.5" y="-56.5" font-family="Arial" font-size="10.00" fill="black"><a fill="navy" href="../reference/Instrumentation/ActuatingSystem.html#dexpi-instrumentation-actuatingsystem-positioner" target="_parent">Positioner</a></text>
<text text-anchor="start" x="543.06" y="-39.4138" font-family="Arial" font-size="10.00" fill="black">0..1</text>
<text text-anchor="start" x="445.211" y="-94.2256" font-family="Arial" font-size="10.00" fill="black">0..1</text>
</g>
<!-- 5 -->
<g id="node2" class="node"><defs>
<linearGradient id="l_5" gradientUnits="userSpaceOnUse" x1="639.5" y1="-358" x2="639.5" y2="-411">
<stop offset="0" style="stop-color:#fbfbfb;stop-opacity:1.;"/>
<stop offset="1" style="stop-color:#fefefe;stop-opacity:1.;"/>
</linearGradient>
</defs>
<polygon fill="url(#l_5)" stroke="black" points="731.5,-400.0 720.5,-411.0 547.5,-411.0 547.5,-358.0 731.5,-358.0"/><path d="M731.5,-400.0L720.5,-400.0 720.5,-411.0" fill="none" stroke="black"/>
<text text-anchor="start" x="557.5" y="-396.5" font-family="Arial" font-size="10.00" fill="black">For&#160;the&#160;sake&#160;of&#160;clarity,&#160;superclasses&#160;</text>
<text text-anchor="start" x="557.5" y="-381.5" font-family="Arial" font-size="10.00" fill="black">and&#160;associations&#160;of&#160;<a fill="navy" href="../reference/PlantStructure/TechnicalItem.html" target="_parent">TechnicalItem</a>&#160;are</text>
<text text-anchor="start" x="557.5" y="-366.5" font-family="Arial" font-size="10.00" fill="black">not&#160;shown&#160;in&#160;this&#160;diagram.</text>
</g>
<!-- 4 -->
<g id="node3" class="node"><defs>
<linearGradient id="l_6" gradientUnits="userSpaceOnUse" x1="639.5" y1="-275" x2="639.5" y2="-311">
<stop offset="0" style="stop-color:#ffffbb;stop-opacity:1.;"/>
<stop offset="1" style="stop-color:#ffffee;stop-opacity:1.;"/>
</linearGradient>
</defs>
<polygon fill="url(#l_6)" stroke="black" points="686,-311 593,-311 593,-275 686,-275 686,-311"/>
<text text-anchor="start" x="603.5" y="-291.2" font-family="Arial" font-weight="bold" font-style="italic" font-size="11.00" fill="black"><a fill="navy" href="../reference/PlantStructure/TechnicalItem.html" target="_parent">TechnicalItem</a></text>
</g>
<!-- 5&#45;&gt;4 -->
<g id="edge1" class="edge"><path fill="none" stroke="#000000" stroke-dasharray="5,2" d="M639.5,-357.613C639.5,-342.641 639.5,-324.222 639.5,-311.063"/>
</g>
<!-- 11&#45;inner&#45;node -->
<!-- 4&#45;&gt;11&#45;inner&#45;node -->
<g id="edge15" class="edge"><path fill="none" stroke="black" d="M639.5,-264.649C639.5,-241.987 639.5,-213.163 639.5,-211.116L639.446,-208.983"/>
<polygon fill="none" stroke="black" points="636,-264.822 639.5,-274.822 643,-264.822 636,-264.822"/>
</g>
<!-- 7 -->
<g id="node4" class="node"><defs>
<linearGradient id="l_7" gradientUnits="userSpaceOnUse" x1="344.5" y1="-275" x2="344.5" y2="-311">
<stop offset="0" style="stop-color:#ffffbb;stop-opacity:1.;"/>
<stop offset="1" style="stop-color:#ffffee;stop-opacity:1.;"/>
</linearGradient>
</defs>
<polygon fill="url(#l_7)" stroke="black" points="402,-311 287,-311 287,-275 402,-275 402,-311"/>
<text text-anchor="start" x="297.5" y="-291.2" font-family="Arial" font-weight="bold" font-style="italic" font-size="11.00" fill="black"><a fill="navy" href="../reference/DexpiModel/ConceptualObject.html" target="_parent">ConceptualObject</a></text>
</g>
<!-- 9&#45;inner&#45;node -->
<!-- 7&#45;&gt;9&#45;inner&#45;node -->
<g id="edge11" class="edge"><path fill="none" stroke="black" d="M344.5,-264.649C344.5,-241.987 344.5,-213.163 344.5,-211.116L344.5,-208.932"/>
<polygon fill="none" stroke="black" points="341,-264.822 344.5,-274.822 348,-264.822 341,-264.822"/>
</g>
<!-- 8 -->
<g id="node5" class="node"><defs>
<linearGradient id="l_8" gradientUnits="userSpaceOnUse" x1="502.5" y1="-275" x2="502.5" y2="-311">
<stop offset="0" style="stop-color:#ffffbb;stop-opacity:1.;"/>
<stop offset="1" style="stop-color:#ffffee;stop-opacity:1.;"/>
</linearGradient>
</defs>
<polygon fill="url(#l_8)" stroke="black" points="574.5,-311 430.5,-311 430.5,-275 574.5,-275 574.5,-311"/>
<text text-anchor="start" x="440.5" y="-291.2" font-family="Arial" font-weight="bold" font-style="italic" font-size="11.00" fill="black"><a fill="navy" href="../reference/Customization/CustomAttributeOwner.html" target="_parent">CustomAttributeOwner</a></text>
</g>
<!-- 38 -->
<g id="node14" class="node"><defs>
<linearGradient id="l_9" gradientUnits="userSpaceOnUse" x1="417.5" y1="-192" x2="417.5" y2="-228">
<stop offset="0" style="stop-color:#ffffbb;stop-opacity:1.;"/>
<stop offset="1" style="stop-color:#ffffee;stop-opacity:1.;"/>
</linearGradient>
</defs>
<polygon fill="url(#l_9)" stroke="black" points="472,-228 363,-228 363,-192 472,-192 472,-228"/>
<text text-anchor="start" x="373.5" y="-208.2" font-family="Arial" font-weight="bold" font-style="italic" font-size="11.00" fill="black"><a fill="navy" href="../reference/Customization/CustomAttribute.html" target="_parent">CustomAttribute</a></text>
</g>
<!-- 8&#45;&gt;38 -->
<g id="edge10" class="edge"><path fill="none" stroke="#000000" d="M425.949,-267.486C423.181,-264.933 420.67,-262.113 418.5,-259 414.402,-253.119 412.944,-245.772 412.815,-238.608"/>
<polygon fill="#000000" stroke="#000000" points="425.998,-267.523 433.196,-267.959 435.563,-274.77 428.365,-274.335 425.998,-267.523"/>
<polygon fill="#000000" stroke="#000000" points="413.425,-228.435 417.319,-238.687 413.126,-233.426 412.827,-238.417 412.827,-238.417 412.827,-238.417 413.126,-233.426 408.335,-238.148 413.425,-228.435 413.425,-228.435"/>
<text text-anchor="start" x="420.5" y="-248.5" font-family="Arial" font-size="10.00" fill="black"><a fill="navy" href="../reference/Customization/CustomAttributeOwner.html#dexpi-customization-customattributeowner-customattributes" target="_parent">CustomAttributes</a></text>
<text text-anchor="start" x="405.425" y="-231.435" font-family="Arial" font-size="10.00" fill="black">*</text>
<text text-anchor="start" x="406.563" y="-264.77" font-family="Arial" font-size="10.00" fill="black">0..1</text>
</g>
<!-- 10&#45;inner&#45;node -->
<!-- 8&#45;&gt;10&#45;inner&#45;node -->
<g id="edge13" class="edge"><path fill="none" stroke="black" d="M502.5,-264.649C502.5,-241.987 502.5,-213.163 502.5,-211.116L502.366,-208.884"/>
<polygon fill="none" stroke="black" points="499,-264.822 502.5,-274.822 506,-264.822 499,-264.822"/>
</g>
<!-- 26 -->
<g id="node10" class="node"><defs>
<linearGradient id="l_10" gradientUnits="userSpaceOnUse" x1="133.5" y1="-192" x2="133.5" y2="-228">
<stop offset="0" style="stop-color:#ffffbb;stop-opacity:1.;"/>
<stop offset="1" style="stop-color:#ffffee;stop-opacity:1.;"/>
</linearGradient>
</defs>
<polygon fill="url(#l_10)" stroke="black" points="190.5,-228 76.5,-228 76.5,-192 190.5,-192 190.5,-228"/>
<text text-anchor="start" x="86.5" y="-208.2" font-family="Arial" font-weight="bold" font-size="11.00" fill="black"><a fill="navy" href="../reference/DexpiModel/ConceptualModel.html" target="_parent">ConceptualModel</a></text>
</g>
<!-- 26&#45;&gt;0 -->
<g id="edge6" class="edge"><path fill="none" stroke="#000000" d="M162.801,-184.157C173.528,-175.951 186.088,-167.315 198.5,-161 207.205,-156.571 216.419,-152.466 225.817,-148.683"/>
<polygon fill="#000000" stroke="#000000" points="162.551,-184.355 160.33,-191.216 153.143,-191.804 155.364,-184.943 162.551,-184.355"/>
<polygon fill="#000000" stroke="#000000" points="235.264,-145.007 227.577,-152.827 230.605,-146.82 225.945,-148.633 225.945,-148.633 225.945,-148.633 230.605,-146.82 224.313,-144.439 235.264,-145.007 235.264,-145.007"/>
<text text-anchor="start" x="201" y="-165.5" font-family="Arial" font-size="10.00" fill="black"><a fill="navy" href="../reference/DexpiModel/ConceptualModel.html#dexpi-dexpimodel-conceptualmodel-actuatingsystems" target="_parent">ActuatingSystems</a></text>
<text text-anchor="start" x="227.264" y="-148.007" font-family="Arial" font-size="10.00" fill="black">*</text>
<text text-anchor="start" x="124.143" y="-181.804" font-family="Arial" font-size="10.00" fill="black">0..1</text>
</g>
<!-- 29 -->
<g id="node11" class="node"><defs>
<linearGradient id="l_11" gradientUnits="userSpaceOnUse" x1="267.5" y1="-192" x2="267.5" y2="-228">
<stop offset="0" style="stop-color:#ffffbb;stop-opacity:1.;"/>
<stop offset="1" style="stop-color:#ffffee;stop-opacity:1.;"/>
</linearGradient>
</defs>
<polygon fill="url(#l_11)" stroke="black" points="326,-228 209,-228 209,-192 326,-192 326,-228"/>
<text text-anchor="start" x="219.5" y="-208.2" font-family="Arial" font-weight="bold" font-size="11.00" fill="black"><a fill="navy" href="../reference/Instrumentation/ActuatingFunction.html" target="_parent">ActuatingFunction</a></text>
</g>
<!-- 29&#45;&gt;0 -->
<g id="edge7" class="edge"><path fill="none" stroke="#000000" d="M276.409,-191.846C281.688,-182.354 288.833,-170.577 296.5,-161 298.799,-158.128 301.27,-155.258 303.834,-152.434"/>
<polygon fill="#000000" stroke="#000000" points="310.785,-145.097 307.175,-155.451 307.346,-148.726 303.908,-152.356 303.908,-152.356 303.908,-152.356 307.346,-148.726 300.641,-149.261 310.785,-145.097 310.785,-145.097"/>
<text text-anchor="start" x="298.5" y="-165.5" font-family="Arial" font-size="10.00" fill="black"><a fill="navy" href="../reference/Instrumentation/ActuatingFunction.html#dexpi-instrumentation-actuatingfunction-systems" target="_parent">Systems</a></text>
<text text-anchor="start" x="289.785" y="-148.097" font-family="Arial" font-size="10.00" fill="black">0..1</text>
<text text-anchor="start" x="247.409" y="-181.846" font-family="Arial" font-size="10.00" fill="black">0..1</text>
</g>
<!-- 32 -->
<g id="node12" class="node"><defs>
<linearGradient id="l_12" gradientUnits="userSpaceOnUse" x1="241.5" y1="-366.5" x2="241.5" y2="-402.5">
<stop offset="0" style="stop-color:#ffffbb;stop-opacity:1.;"/>
<stop offset="1" style="stop-color:#ffffee;stop-opacity:1.;"/>
</linearGradient>
</defs>
<polygon fill="url(#l_12)" stroke="black" points="316,-402.5 167,-402.5 167,-366.5 316,-366.5 316,-402.5"/>
<text text-anchor="start" x="177.5" y="-382.7" font-family="Arial" font-weight="bold" font-size="11.00" fill="black"><a fill="navy" href="../reference/Graphics/AttributeRepresentation.html" target="_parent">AttributeRepresentation</a></text>
</g>
<!-- 32&#45;&gt;7 -->
<g id="edge8" class="edge"><path fill="none" stroke="#000000" d="M261.359,-366.243C277.176,-352.5 299.493,-333.108 317.024,-317.875"/>
<polygon fill="#000000" stroke="#000000" points="324.702,-311.204 320.105,-321.159 320.927,-314.483 317.153,-317.763 317.153,-317.763 317.153,-317.763 320.927,-314.483 314.201,-314.366 324.702,-311.204 324.702,-311.204"/>
<text text-anchor="start" x="308" y="-331.5" font-family="Arial" font-size="10.00" fill="black"><a fill="navy" href="../reference/Graphics/AttributeRepresentation.html#dexpi-graphics-attributerepresentation-object" target="_parent">Object</a></text>
<text text-anchor="start" x="316.702" y="-314.204" font-family="Arial" font-size="10.00" fill="black"></text>
<text text-anchor="start" x="245.359" y="-356.243" font-family="Arial" font-size="10.00" fill="black">*</text>
</g>
<!-- 35 -->
<g id="node13" class="node"><defs>
<linearGradient id="l_13" gradientUnits="userSpaceOnUse" x1="402.5" y1="-366.5" x2="402.5" y2="-402.5">
<stop offset="0" style="stop-color:#ffffbb;stop-opacity:1.;"/>
<stop offset="1" style="stop-color:#ffffee;stop-opacity:1.;"/>
</linearGradient>
</defs>
<polygon fill="url(#l_13)" stroke="black" points="471,-402.5 334,-402.5 334,-366.5 471,-366.5 471,-402.5"/>
<text text-anchor="start" x="344.5" y="-382.7" font-family="Arial" font-weight="bold" font-size="11.00" fill="black"><a fill="navy" href="../reference/Graphics/RepresentationGroup.html" target="_parent">RepresentationGroup</a></text>
</g>
<!-- 35&#45;&gt;7 -->
<g id="edge9" class="edge"><path fill="none" stroke="#000000" d="M391.317,-366.243C382.812,-353.119 370.968,-334.843 361.322,-319.958"/>
<polygon fill="#000000" stroke="#000000" points="355.649,-311.204 364.863,-317.148 358.368,-315.399 361.087,-319.595 361.087,-319.595 361.087,-319.595 358.368,-315.399 357.311,-322.043 355.649,-311.204 355.649,-311.204"/>
<text text-anchor="start" x="377.5" y="-331.5" font-family="Arial" font-size="10.00" fill="black"><a fill="navy" href="../reference/Graphics/RepresentationGroup.html#dexpi-graphics-representationgroup-represents" target="_parent">Represents</a></text>
<text text-anchor="start" x="347.649" y="-314.204" font-family="Arial" font-size="10.00" fill="black"></text>
<text text-anchor="start" x="375.317" y="-356.243" font-family="Arial" font-size="10.00" fill="black">*</text>
</g>
<!-- 9&#45;inner&#45;node&#45;&gt;0 -->
<g id="edge12" class="edge"><path fill="none" stroke="black" d="M344.5,-208.932C344.5,-207.181 344.5,-172.03 344.5,-145.239"/>
</g>
<!-- 10&#45;inner&#45;node&#45;&gt;0 -->
<g id="edge14" class="edge"><path fill="none" stroke="black" d="M502.366,-208.884C501.042,-207.743 490.148,-198.412 480.5,-192 455.416,-175.331 426.516,-158.641 401.825,-145.081"/>
</g>
<!-- 11&#45;inner&#45;node&#45;&gt;0 -->
<g id="edge16" class="edge"><path fill="none" stroke="black" d="M639.446,-208.983C636.637,-208.088 524.243,-172.274 439.038,-145.124"/>
</g>
</g>
</svg>