<!DOCTYPE svg PUBLIC "-//W3C//DTD SVG 1.1//EN" "http://www.w3.org/Graphics/SVG/1.1/DTD/svg11.dtd">
<!-- Generated by graphviz version 2.38.0 (20140413.2041)
 --><!-- Title: G Pages: 1 --><svg xmlns="http://www.w3.org/2000/svg" xmlns:xlink="http://www.w3.org/1999/xlink" width="580pt" height="419pt" viewBox="0.00 0.00 580.00 419.00">
<g id="graph0" class="graph" transform="scale(1 1) rotate(0) translate(4 415)">
<!-- 0 -->
<g id="node1" class="node"><defs>
<linearGradient id="l_0" gradientUnits="userSpaceOnUse" x1="263" y1="-83" x2="263" y2="-145">
<stop offset="0" style="stop-color:#ffffbb;stop-opacity:1.;"/>
<stop offset="1" style="stop-color:#ffffee;stop-opacity:1.;"/>
</linearGradient>
</defs>
<polygon fill="url(#l_0)" stroke="black" points="396,-145 130,-145 130,-83 396,-83 396,-145"/>
<text text-anchor="start" x="194" y="-131.2" font-family="Arial" font-weight="bold" font-size="11.00" fill="black">ActuatingElectricalSystem</text>
<text text-anchor="start" x="140" y="-107" font-family="Arial" font-size="10.00" fill="black"><a fill="navy" href="../reference/Instrumentation/ActuatingElectricalSystem.html#dexpi-instrumentation-actuatingelectricalsystem-actuatingelectricalsystemnumber" target="_parent">ActuatingElectricalSystemNumber</a>&#160;:</text>
<text text-anchor="start" x="300" y="-107" font-family="Arial" font-size="10.00" fill="black"><a fill="navy" href="../reference/DataTypes/NullableString.html" target="_parent">NullableString</a>&#160;[0..1]</text>
<text text-anchor="start" x="140" y="-92" font-family="Arial" font-size="10.00" fill="black"><a fill="navy" href="../reference/Instrumentation/ActuatingElectricalSystem.html#dexpi-instrumentation-actuatingelectricalsystem-typicalinformation" target="_parent">TypicalInformation</a>&#160;:</text>
<text text-anchor="start" x="300" y="-92" font-family="Arial" font-size="10.00" fill="black"><a fill="navy" href="../reference/DataTypes/NullableString.html" target="_parent">NullableString</a>&#160;[0..1]</text>
<polygon fill="black" stroke="black" points="396.0,-125.0 130.0,-125.0 130.0,-125.0 396.0,-125.0 396.0,-125.0"/>
</g>
<!-- 14 -->
<g id="node6" class="node"><defs>
<linearGradient id="l_1" gradientUnits="userSpaceOnUse" x1="143" y1="-1.77636e-014" x2="143" y2="-36">
<stop offset="0" style="stop-color:#ffffbb;stop-opacity:1.;"/>
<stop offset="1" style="stop-color:#ffffee;stop-opacity:1.;"/>
</linearGradient>
</defs>
<polygon fill="url(#l_1)" stroke="black" points="273,-36 13,-36 13,-0 273,-0 273,-36"/>
<text text-anchor="start" x="23" y="-16.2" font-family="Arial" font-weight="bold" font-size="11.00" fill="black"><a fill="navy" href="../reference/Instrumentation/CustomActuatingElectricalSystemComponent.html" target="_parent">CustomActuatingElectricalSystemComponent</a></text>
</g>
<!-- 0&#45;&gt;14 -->
<g id="edge2" class="edge"><path fill="none" stroke="#000000" d="M215.215,-75.5686C200.933,-64.3805 185.685,-52.437 172.9,-42.4214"/>
<polygon fill="#000000" stroke="#000000" points="215.255,-75.5994 222.445,-76.1505 224.701,-82.9994 217.511,-82.4483 215.255,-75.5994"/>
<polygon fill="#000000" stroke="#000000" points="164.888,-36.1454 175.535,-38.7695 168.824,-39.2287 172.76,-42.3121 172.76,-42.3121 172.76,-42.3121 168.824,-39.2287 169.985,-45.8546 164.888,-36.1454 164.888,-36.1454"/>
<text text-anchor="start" x="205.5" y="-56.5" font-family="Arial" font-size="10.00" fill="black"><a fill="navy" href="../reference/Instrumentation/ActuatingElectricalSystem.html#dexpi-instrumentation-actuatingelectricalsystem-customcomponents" target="_parent">CustomComponents</a></text>
<text text-anchor="start" x="156.888" y="-39.1454" font-family="Arial" font-size="10.00" fill="black">*</text>
<text text-anchor="start" x="195.701" y="-72.9994" font-family="Arial" font-size="10.00" fill="black">0..1</text>
</g>
<!-- 17 -->
<g id="node7" class="node"><defs>
<linearGradient id="l_2" gradientUnits="userSpaceOnUse" x1="384" y1="-1.77636e-014" x2="384" y2="-36">
<stop offset="0" style="stop-color:#ffffbb;stop-opacity:1.;"/>
<stop offset="1" style="stop-color:#ffffee;stop-opacity:1.;"/>
</linearGradient>
</defs>
<polygon fill="url(#l_2)" stroke="black" points="477,-36 291,-36 291,-0 477,-0 477,-36"/>
<text text-anchor="start" x="301" y="-16.2" font-family="Arial" font-weight="bold" font-size="11.00" fill="black"><a fill="navy" href="../reference/Instrumentation/ElectronicFrequencyConverter.html" target="_parent">ElectronicFrequencyConverter</a></text>
</g>
<!-- 0&#45;&gt;17 -->
<g id="edge3" class="edge"><path fill="none" stroke="#000000" d="M311.183,-75.5686C325.585,-64.3805 340.959,-52.437 353.851,-42.4214"/>
<polygon fill="#000000" stroke="#000000" points="311.094,-75.6375 308.81,-82.4772 301.618,-82.9994 303.902,-76.1596 311.094,-75.6375"/>
<polygon fill="#000000" stroke="#000000" points="361.93,-36.1454 356.794,-45.834 357.981,-39.2129 354.033,-42.2803 354.033,-42.2803 354.033,-42.2803 357.981,-39.2129 351.272,-38.7266 361.93,-36.1454 361.93,-36.1454"/>
<text text-anchor="start" x="344" y="-56.5" font-family="Arial" font-size="10.00" fill="black"><a fill="navy" href="../reference/Instrumentation/ActuatingElectricalSystem.html#dexpi-instrumentation-actuatingelectricalsystem-electronicfrequencyconverter" target="_parent">ElectronicFrequencyConverter</a></text>
<text text-anchor="start" x="340.93" y="-39.1454" font-family="Arial" font-size="10.00" fill="black">0..1</text>
<text text-anchor="start" x="272.618" y="-72.9994" font-family="Arial" font-size="10.00" fill="black">0..1</text>
</g>
<!-- 5 -->
<g id="node2" class="node"><defs>
<linearGradient id="l_3" gradientUnits="userSpaceOnUse" x1="480" y1="-358" x2="480" y2="-411">
<stop offset="0" style="stop-color:#fbfbfb;stop-opacity:1.;"/>
<stop offset="1" style="stop-color:#fefefe;stop-opacity:1.;"/>
</linearGradient>
</defs>
<polygon fill="url(#l_3)" stroke="black" points="572.0,-400.0 561.0,-411.0 388.0,-411.0 388.0,-358.0 572.0,-358.0"/><path d="M572.0,-400.0L561.0,-400.0 561.0,-411.0" fill="none" stroke="black"/>
<text text-anchor="start" x="398" y="-396.5" font-family="Arial" font-size="10.00" fill="black">For&#160;the&#160;sake&#160;of&#160;clarity,&#160;superclasses&#160;</text>
<text text-anchor="start" x="398" y="-381.5" font-family="Arial" font-size="10.00" fill="black">and&#160;associations&#160;of&#160;<a fill="navy" href="../reference/PlantStructure/TechnicalItem.html" target="_parent">TechnicalItem</a>&#160;are</text>
<text text-anchor="start" x="398" y="-366.5" font-family="Arial" font-size="10.00" fill="black">not&#160;shown&#160;in&#160;this&#160;diagram.</text>
</g>
<!-- 4 -->
<g id="node3" class="node"><defs>
<linearGradient id="l_4" gradientUnits="userSpaceOnUse" x1="480" y1="-275" x2="480" y2="-311">
<stop offset="0" style="stop-color:#ffffbb;stop-opacity:1.;"/>
<stop offset="1" style="stop-color:#ffffee;stop-opacity:1.;"/>
</linearGradient>
</defs>
<polygon fill="url(#l_4)" stroke="black" points="526.5,-311 433.5,-311 433.5,-275 526.5,-275 526.5,-311"/>
<text text-anchor="start" x="444" y="-291.2" font-family="Arial" font-weight="bold" font-style="italic" font-size="11.00" fill="black"><a fill="navy" href="../reference/PlantStructure/TechnicalItem.html" target="_parent">TechnicalItem</a></text>
</g>
<!-- 5&#45;&gt;4 -->
<g id="edge1" class="edge"><path fill="none" stroke="#000000" stroke-dasharray="5,2" d="M480,-357.613C480,-342.641 480,-324.222 480,-311.063"/>
</g>
<!-- 11&#45;inner&#45;node -->
<!-- 4&#45;&gt;11&#45;inner&#45;node -->
<g id="edge12" class="edge"><path fill="none" stroke="black" d="M480,-264.649C480,-241.987 480,-213.163 480,-211.116L479.843,-208.932"/>
<polygon fill="none" stroke="black" points="476.5,-264.822 480,-274.822 483.5,-264.822 476.5,-264.822"/>
</g>
<!-- 7 -->
<g id="node4" class="node"><defs>
<linearGradient id="l_5" gradientUnits="userSpaceOnUse" x1="185" y1="-275" x2="185" y2="-311">
<stop offset="0" style="stop-color:#ffffbb;stop-opacity:1.;"/>
<stop offset="1" style="stop-color:#ffffee;stop-opacity:1.;"/>
</linearGradient>
</defs>
<polygon fill="url(#l_5)" stroke="black" points="242.5,-311 127.5,-311 127.5,-275 242.5,-275 242.5,-311"/>
<text text-anchor="start" x="138" y="-291.2" font-family="Arial" font-weight="bold" font-style="italic" font-size="11.00" fill="black"><a fill="navy" href="../reference/DexpiModel/ConceptualObject.html" target="_parent">ConceptualObject</a></text>
</g>
<!-- 9&#45;inner&#45;node -->
<!-- 7&#45;&gt;9&#45;inner&#45;node -->
<g id="edge8" class="edge"><path fill="none" stroke="black" d="M185,-264.649C185,-241.987 185,-213.163 185,-211.116L185.047,-208.886"/>
<polygon fill="none" stroke="black" points="181.5,-264.822 185,-274.822 188.5,-264.822 181.5,-264.822"/>
</g>
<!-- 8 -->
<g id="node5" class="node"><defs>
<linearGradient id="l_6" gradientUnits="userSpaceOnUse" x1="343" y1="-275" x2="343" y2="-311">
<stop offset="0" style="stop-color:#ffffbb;stop-opacity:1.;"/>
<stop offset="1" style="stop-color:#ffffee;stop-opacity:1.;"/>
</linearGradient>
</defs>
<polygon fill="url(#l_6)" stroke="black" points="415,-311 271,-311 271,-275 415,-275 415,-311"/>
<text text-anchor="start" x="281" y="-291.2" font-family="Arial" font-weight="bold" font-style="italic" font-size="11.00" fill="black"><a fill="navy" href="../reference/Customization/CustomAttributeOwner.html" target="_parent">CustomAttributeOwner</a></text>
</g>
<!-- 29 -->
<g id="node11" class="node"><defs>
<linearGradient id="l_7" gradientUnits="userSpaceOnUse" x1="258" y1="-192" x2="258" y2="-228">
<stop offset="0" style="stop-color:#ffffbb;stop-opacity:1.;"/>
<stop offset="1" style="stop-color:#ffffee;stop-opacity:1.;"/>
</linearGradient>
</defs>
<polygon fill="url(#l_7)" stroke="black" points="312.5,-228 203.5,-228 203.5,-192 312.5,-192 312.5,-228"/>
<text text-anchor="start" x="214" y="-208.2" font-family="Arial" font-weight="bold" font-style="italic" font-size="11.00" fill="black"><a fill="navy" href="../reference/Customization/CustomAttribute.html" target="_parent">CustomAttribute</a></text>
</g>
<!-- 8&#45;&gt;29 -->
<g id="edge7" class="edge"><path fill="none" stroke="#000000" d="M266.449,-267.486C263.681,-264.933 261.17,-262.113 259,-259 254.902,-253.119 253.444,-245.772 253.315,-238.608"/>
<polygon fill="#000000" stroke="#000000" points="266.498,-267.523 273.696,-267.959 276.063,-274.77 268.865,-274.335 266.498,-267.523"/>
<polygon fill="#000000" stroke="#000000" points="253.925,-228.435 257.819,-238.687 253.626,-233.426 253.327,-238.417 253.327,-238.417 253.327,-238.417 253.626,-233.426 248.835,-238.148 253.925,-228.435 253.925,-228.435"/>
<text text-anchor="start" x="261" y="-248.5" font-family="Arial" font-size="10.00" fill="black"><a fill="navy" href="../reference/Customization/CustomAttributeOwner.html#dexpi-customization-customattributeowner-customattributes" target="_parent">CustomAttributes</a></text>
<text text-anchor="start" x="245.925" y="-231.435" font-family="Arial" font-size="10.00" fill="black">*</text>
<text text-anchor="start" x="247.063" y="-264.77" font-family="Arial" font-size="10.00" fill="black">0..1</text>
</g>
<!-- 10&#45;inner&#45;node -->
<!-- 8&#45;&gt;10&#45;inner&#45;node -->
<g id="edge10" class="edge"><path fill="none" stroke="black" d="M343,-264.649C343,-241.987 343,-213.163 343,-211.116L342.942,-208.932"/>
<polygon fill="none" stroke="black" points="339.5,-264.822 343,-274.822 346.5,-264.822 339.5,-264.822"/>
</g>
<!-- 20 -->
<g id="node8" class="node"><defs>
<linearGradient id="l_8" gradientUnits="userSpaceOnUse" x1="83" y1="-192" x2="83" y2="-228">
<stop offset="0" style="stop-color:#ffffbb;stop-opacity:1.;"/>
<stop offset="1" style="stop-color:#ffffee;stop-opacity:1.;"/>
</linearGradient>
</defs>
<polygon fill="url(#l_8)" stroke="black" points="166,-228 0,-228 0,-192 166,-192 166,-228"/>
<text text-anchor="start" x="10" y="-208.2" font-family="Arial" font-weight="bold" font-size="11.00" fill="black"><a fill="navy" href="../reference/Instrumentation/ActuatingElectricalFunction.html" target="_parent">ActuatingElectricalFunction</a></text>
</g>
<!-- 20&#45;&gt;0 -->
<g id="edge4" class="edge"><path fill="none" stroke="#000000" d="M108.495,-191.874C123.248,-182.279 142.336,-170.393 160,-161 167.395,-157.068 175.193,-153.166 183.054,-149.393"/>
<polygon fill="#000000" stroke="#000000" points="192.291,-145.03 185.171,-153.37 187.77,-147.166 183.249,-149.301 183.249,-149.301 183.249,-149.301 187.77,-147.166 181.327,-145.233 192.291,-145.03 192.291,-145.03"/>
<text text-anchor="start" x="162" y="-165.5" font-family="Arial" font-size="10.00" fill="black"><a fill="navy" href="../reference/Instrumentation/ActuatingElectricalFunction.html#dexpi-instrumentation-actuatingelectricalfunction-systems" target="_parent">Systems</a></text>
<text text-anchor="start" x="171.291" y="-148.03" font-family="Arial" font-size="10.00" fill="black">0..1</text>
<text text-anchor="start" x="79.4954" y="-181.874" font-family="Arial" font-size="10.00" fill="black">0..1</text>
</g>
<!-- 23 -->
<g id="node9" class="node"><defs>
<linearGradient id="l_9" gradientUnits="userSpaceOnUse" x1="82" y1="-366.5" x2="82" y2="-402.5">
<stop offset="0" style="stop-color:#ffffbb;stop-opacity:1.;"/>
<stop offset="1" style="stop-color:#ffffee;stop-opacity:1.;"/>
</linearGradient>
</defs>
<polygon fill="url(#l_9)" stroke="black" points="156.5,-402.5 7.5,-402.5 7.5,-366.5 156.5,-366.5 156.5,-402.5"/>
<text text-anchor="start" x="18" y="-382.7" font-family="Arial" font-weight="bold" font-size="11.00" fill="black"><a fill="navy" href="../reference/Graphics/AttributeRepresentation.html" target="_parent">AttributeRepresentation</a></text>
</g>
<!-- 23&#45;&gt;7 -->
<g id="edge5" class="edge"><path fill="none" stroke="#000000" d="M101.859,-366.243C117.676,-352.5 139.993,-333.108 157.524,-317.875"/>
<polygon fill="#000000" stroke="#000000" points="165.202,-311.204 160.605,-321.159 161.427,-314.483 157.653,-317.763 157.653,-317.763 157.653,-317.763 161.427,-314.483 154.701,-314.366 165.202,-311.204 165.202,-311.204"/>
<text text-anchor="start" x="148.5" y="-331.5" font-family="Arial" font-size="10.00" fill="black"><a fill="navy" href="../reference/Graphics/AttributeRepresentation.html#dexpi-graphics-attributerepresentation-object" target="_parent">Object</a></text>
<text text-anchor="start" x="157.202" y="-314.204" font-family="Arial" font-size="10.00" fill="black"></text>
<text text-anchor="start" x="85.8594" y="-356.243" font-family="Arial" font-size="10.00" fill="black">*</text>
</g>
<!-- 26 -->
<g id="node10" class="node"><defs>
<linearGradient id="l_10" gradientUnits="userSpaceOnUse" x1="243" y1="-366.5" x2="243" y2="-402.5">
<stop offset="0" style="stop-color:#ffffbb;stop-opacity:1.;"/>
<stop offset="1" style="stop-color:#ffffee;stop-opacity:1.;"/>
</linearGradient>
</defs>
<polygon fill="url(#l_10)" stroke="black" points="311.5,-402.5 174.5,-402.5 174.5,-366.5 311.5,-366.5 311.5,-402.5"/>
<text text-anchor="start" x="185" y="-382.7" font-family="Arial" font-weight="bold" font-size="11.00" fill="black"><a fill="navy" href="../reference/Graphics/RepresentationGroup.html" target="_parent">RepresentationGroup</a></text>
</g>
<!-- 26&#45;&gt;7 -->
<g id="edge6" class="edge"><path fill="none" stroke="#000000" d="M231.817,-366.243C223.312,-353.119 211.468,-334.843 201.822,-319.958"/>
<polygon fill="#000000" stroke="#000000" points="196.149,-311.204 205.363,-317.148 198.868,-315.399 201.587,-319.595 201.587,-319.595 201.587,-319.595 198.868,-315.399 197.811,-322.043 196.149,-311.204 196.149,-311.204"/>
<text text-anchor="start" x="218" y="-331.5" font-family="Arial" font-size="10.00" fill="black"><a fill="navy" href="../reference/Graphics/RepresentationGroup.html#dexpi-graphics-representationgroup-represents" target="_parent">Represents</a></text>
<text text-anchor="start" x="188.149" y="-314.204" font-family="Arial" font-size="10.00" fill="black"></text>
<text text-anchor="start" x="215.817" y="-356.243" font-family="Arial" font-size="10.00" fill="black">*</text>
</g>
<!-- 9&#45;inner&#45;node&#45;&gt;0 -->
<g id="edge9" class="edge"><path fill="none" stroke="black" d="M185.047,-208.886C185.517,-207.763 189.417,-198.575 194,-192 205.497,-175.508 220.141,-158.708 232.978,-145.026"/>
</g>
<!-- 10&#45;inner&#45;node&#45;&gt;0 -->
<g id="edge11" class="edge"><path fill="none" stroke="black" d="M342.942,-208.932C341.452,-207.181 311.536,-172.03 288.736,-145.239"/>
</g>
<!-- 11&#45;inner&#45;node&#45;&gt;0 -->
<g id="edge13" class="edge"><path fill="none" stroke="black" d="M479.843,-208.932C475.794,-207.178 394.396,-171.918 332.514,-145.112"/>
</g>
</g>
</svg>