<!DOCTYPE svg PUBLIC "-//W3C//DTD SVG 1.1//EN" "http://www.w3.org/Graphics/SVG/1.1/DTD/svg11.dtd">
<!-- Generated by graphviz version 2.38.0 (20140413.2041)
 --><!-- Title: G Pages: 1 --><svg xmlns="http://www.w3.org/2000/svg" xmlns:xlink="http://www.w3.org/1999/xlink" width="867pt" height="811pt" viewBox="0.00 0.00 866.50 811.00">
<g id="graph0" class="graph" transform="scale(1 1) rotate(0) translate(4 807)">
<!-- 0 -->
<g id="node1" class="node"><defs>
<linearGradient id="l_0" gradientUnits="userSpaceOnUse" x1="457.5" y1="-83" x2="457.5" y2="-130">
<stop offset="0" style="stop-color:#ffffbb;stop-opacity:1.;"/>
<stop offset="1" style="stop-color:#ffffee;stop-opacity:1.;"/>
</linearGradient>
</defs>
<polygon fill="url(#l_0)" stroke="black" points="598.5,-130 316.5,-130 316.5,-83 598.5,-83 598.5,-130"/>
<text text-anchor="start" x="431" y="-115.7" font-family="Arial" font-weight="bold" font-size="11.00" fill="black">AirEjector</text>
<text text-anchor="start" x="326.5" y="-91.5" font-family="Arial" font-size="10.00" fill="black"><a fill="navy" href="../reference/Equipment/AirEjector.html#dexpi-equipment-airejector-designcapacitymotivefluid" target="_parent">DesignCapacityMotiveFluid</a>&#160;:</text>
<text text-anchor="start" x="454.5" y="-91.5" font-family="Arial" font-size="10.00" fill="black"><a fill="navy" href="../reference/PhysicalQuantities/NullableVolumeFlowRate.html" target="_parent">NullableVolumeFlowRate</a>&#160;[0..1]</text>
<polygon fill="black" stroke="black" points="598.5,-109.5 316.5,-109.5 316.5,-109.5 598.5,-109.5 598.5,-109.5"/>
</g>
<!-- 23 -->
<g id="node11" class="node"><defs>
<linearGradient id="l_1" gradientUnits="userSpaceOnUse" x1="457.5" y1="-1.77636e-014" x2="457.5" y2="-36">
<stop offset="0" style="stop-color:#ffffbb;stop-opacity:1.;"/>
<stop offset="1" style="stop-color:#ffffee;stop-opacity:1.;"/>
</linearGradient>
</defs>
<polygon fill="url(#l_1)" stroke="black" points="489,-36 426,-36 426,-0 489,-0 489,-36"/>
<text text-anchor="start" x="436.5" y="-16.2" font-family="Arial" font-weight="bold" font-size="11.00" fill="black"><a fill="navy" href="../reference/Equipment/Impeller.html" target="_parent">Impeller</a></text>
</g>
<!-- 0&#45;&gt;23 -->
<g id="edge2" class="edge"><path fill="none" stroke="#000000" d="M457.5,-70.4403C457.5,-62.3961 457.5,-53.9596 457.5,-46.2994"/>
<polygon fill="#000000" stroke="#000000" points="457.5,-70.7731 461.5,-76.7732 457.5,-82.7731 453.5,-76.7731 457.5,-70.7731"/>
<polygon fill="#000000" stroke="#000000" points="457.5,-36.109 462,-46.1089 457.5,-41.109 457.5,-46.109 457.5,-46.109 457.5,-46.109 457.5,-41.109 453,-46.109 457.5,-36.109 457.5,-36.109"/>
<text text-anchor="start" x="459.5" y="-56.5" font-family="Arial" font-size="10.00" fill="black"><a fill="navy" href="../reference/Equipment/AirEjector.html#dexpi-equipment-airejector-impellers" target="_parent">Impellers</a></text>
<text text-anchor="start" x="449.5" y="-39.109" font-family="Arial" font-size="10.00" fill="black">*</text>
<text text-anchor="start" x="428.5" y="-72.7731" font-family="Arial" font-size="10.00" fill="black">0..1</text>
</g>
<!-- 4 -->
<g id="node2" class="node"><defs>
<linearGradient id="l_2" gradientUnits="userSpaceOnUse" x1="766.5" y1="-750" x2="766.5" y2="-803">
<stop offset="0" style="stop-color:#fbfbfb;stop-opacity:1.;"/>
<stop offset="1" style="stop-color:#fefefe;stop-opacity:1.;"/>
</linearGradient>
</defs>
<polygon fill="url(#l_2)" stroke="black" points="858.5,-792.0 847.5,-803.0 674.5,-803.0 674.5,-750.0 858.5,-750.0"/><path d="M858.5,-792.0L847.5,-792.0 847.5,-803.0" fill="none" stroke="black"/>
<text text-anchor="start" x="684.5" y="-788.5" font-family="Arial" font-size="10.00" fill="black">For&#160;the&#160;sake&#160;of&#160;clarity,&#160;superclasses&#160;</text>
<text text-anchor="start" x="684.5" y="-773.5" font-family="Arial" font-size="10.00" fill="black">and&#160;associations&#160;of&#160;<a fill="navy" href="../reference/PlantStructure/TechnicalItem.html" target="_parent">TechnicalItem</a>&#160;are</text>
<text text-anchor="start" x="684.5" y="-758.5" font-family="Arial" font-size="10.00" fill="black">not&#160;shown&#160;in&#160;this&#160;diagram.</text>
</g>
<!-- 3 -->
<g id="node3" class="node"><defs>
<linearGradient id="l_3" gradientUnits="userSpaceOnUse" x1="766.5" y1="-667" x2="766.5" y2="-703">
<stop offset="0" style="stop-color:#ffffbb;stop-opacity:1.;"/>
<stop offset="1" style="stop-color:#ffffee;stop-opacity:1.;"/>
</linearGradient>
</defs>
<polygon fill="url(#l_3)" stroke="black" points="813,-703 720,-703 720,-667 813,-667 813,-703"/>
<text text-anchor="start" x="730.5" y="-683.2" font-family="Arial" font-weight="bold" font-style="italic" font-size="11.00" fill="black"><a fill="navy" href="../reference/PlantStructure/TechnicalItem.html" target="_parent">TechnicalItem</a></text>
</g>
<!-- 4&#45;&gt;3 -->
<g id="edge1" class="edge"><path fill="none" stroke="#000000" stroke-dasharray="5,2" d="M766.5,-749.613C766.5,-734.641 766.5,-716.222 766.5,-703.063"/>
</g>
<!-- 20&#45;inner&#45;node -->
<!-- 3&#45;&gt;20&#45;inner&#45;node -->
<g id="edge27" class="edge"><path fill="none" stroke="black" d="M766.5,-656.649C766.5,-633.987 766.5,-605.163 766.5,-603.116L766.362,-600.941"/>
<polygon fill="none" stroke="black" points="763,-656.822 766.5,-666.822 770,-656.822 763,-656.822"/>
</g>
<!-- 6 -->
<g id="node4" class="node"><defs>
<linearGradient id="l_4" gradientUnits="userSpaceOnUse" x1="457.5" y1="-197" x2="457.5" y2="-233">
<stop offset="0" style="stop-color:#ffffbb;stop-opacity:1.;"/>
<stop offset="1" style="stop-color:#ffffee;stop-opacity:1.;"/>
</linearGradient>
</defs>
<polygon fill="url(#l_4)" stroke="black" points="500.5,-233 414.5,-233 414.5,-197 500.5,-197 500.5,-233"/>
<text text-anchor="start" x="424.5" y="-213.2" font-family="Arial" font-weight="bold" font-size="11.00" fill="black"><a fill="navy" href="../reference/Equipment/Compressor.html" target="_parent">Compressor</a></text>
</g>
<!-- 13&#45;inner&#45;node -->
<!-- 6&#45;&gt;13&#45;inner&#45;node -->
<g id="edge13" class="edge"><path fill="none" stroke="black" d="M457.5,-186.603C457.5,-175.422 457.5,-164.887 457.5,-164.053L457.5,-162.841"/>
<polygon fill="none" stroke="black" points="454,-186.793 457.5,-196.793 461,-186.793 454,-186.793"/>
</g>
<!-- 7 -->
<g id="node5" class="node"><defs>
<linearGradient id="l_5" gradientUnits="userSpaceOnUse" x1="457.5" y1="-349" x2="457.5" y2="-385">
<stop offset="0" style="stop-color:#ffffbb;stop-opacity:1.;"/>
<stop offset="1" style="stop-color:#ffffee;stop-opacity:1.;"/>
</linearGradient>
</defs>
<polygon fill="url(#l_5)" stroke="black" points="496.5,-385 418.5,-385 418.5,-349 496.5,-349 496.5,-385"/>
<text text-anchor="start" x="428.5" y="-365.2" font-family="Arial" font-weight="bold" font-style="italic" font-size="11.00" fill="black"><a fill="navy" href="../reference/Equipment/Equipment.html" target="_parent">Equipment</a></text>
</g>
<!-- 26 -->
<g id="node12" class="node"><defs>
<linearGradient id="l_6" gradientUnits="userSpaceOnUse" x1="51.5" y1="-266" x2="51.5" y2="-302">
<stop offset="0" style="stop-color:#ffffbb;stop-opacity:1.;"/>
<stop offset="1" style="stop-color:#ffffee;stop-opacity:1.;"/>
</linearGradient>
</defs>
<polygon fill="url(#l_6)" stroke="black" points="103,-302 0,-302 0,-266 103,-266 103,-302"/>
<text text-anchor="start" x="10.5" y="-282.2" font-family="Arial" font-weight="bold" font-size="11.00" fill="black"><a fill="navy" href="../reference/Equipment/DryingChamber.html" target="_parent">DryingChamber</a></text>
</g>
<!-- 7&#45;&gt;26 -->
<g id="edge3" class="edge"><path fill="none" stroke="#000000" d="M406.027,-366.446C342.858,-365.672 233.105,-360.013 143.5,-333 123.707,-327.033 103.174,-316.771 86.54,-307.264"/>
<polygon fill="#000000" stroke="#000000" points="406.398,-366.449 412.429,-362.495 418.398,-366.542 412.367,-370.495 406.398,-366.449"/>
<polygon fill="#000000" stroke="#000000" points="77.7299,-302.091 88.6319,-303.274 82.0418,-304.623 86.3536,-307.154 86.3536,-307.154 86.3536,-307.154 82.0418,-304.623 84.0753,-311.035 77.7299,-302.091 77.7299,-302.091"/>
<text text-anchor="start" x="146" y="-322.5" font-family="Arial" font-size="10.00" fill="black"><a fill="navy" href="../reference/Equipment/Equipment.html#dexpi-equipment-equipment-dryingchambers" target="_parent">DryingChambers</a></text>
<text text-anchor="start" x="69.7299" y="-305.091" font-family="Arial" font-size="10.00" fill="black">*</text>
<text text-anchor="start" x="389.398" y="-367.542" font-family="Arial" font-size="10.00" fill="black">0..1</text>
</g>
<!-- 29 -->
<g id="node13" class="node"><defs>
<linearGradient id="l_7" gradientUnits="userSpaceOnUse" x1="155.5" y1="-266" x2="155.5" y2="-302">
<stop offset="0" style="stop-color:#ffffbb;stop-opacity:1.;"/>
<stop offset="1" style="stop-color:#ffffee;stop-opacity:1.;"/>
</linearGradient>
</defs>
<polygon fill="url(#l_7)" stroke="black" points="189.5,-302 121.5,-302 121.5,-266 189.5,-266 189.5,-302"/>
<text text-anchor="start" x="131.5" y="-282.2" font-family="Arial" font-weight="bold" font-size="11.00" fill="black"><a fill="navy" href="../reference/Equipment/GearBox.html" target="_parent">GearBox</a></text>
</g>
<!-- 7&#45;&gt;29 -->
<g id="edge4" class="edge"><path fill="none" stroke="#000000" d="M406.201,-360.816C366.621,-355.972 310.82,-347.294 263.5,-333 241.05,-326.218 217.118,-315.924 197.503,-306.606"/>
<polygon fill="#000000" stroke="#000000" points="406.275,-360.824 412.702,-357.553 418.193,-362.227 411.767,-365.498 406.275,-360.824"/>
<polygon fill="#000000" stroke="#000000" points="188.246,-302.129 199.207,-302.432 192.747,-304.306 197.248,-306.483 197.248,-306.483 197.248,-306.483 192.747,-304.306 195.289,-310.534 188.246,-302.129 188.246,-302.129"/>
<text text-anchor="start" x="266" y="-322.5" font-family="Arial" font-size="10.00" fill="black"><a fill="navy" href="../reference/Equipment/Equipment.html#dexpi-equipment-equipment-gearboxes" target="_parent">GearBoxes</a></text>
<text text-anchor="start" x="180.246" y="-305.129" font-family="Arial" font-size="10.00" fill="black">*</text>
<text text-anchor="start" x="389.193" y="-352.227" font-family="Arial" font-size="10.00" fill="black">0..1</text>
</g>
<!-- 32 -->
<g id="node14" class="node"><defs>
<linearGradient id="l_8" gradientUnits="userSpaceOnUse" x1="270.5" y1="-266" x2="270.5" y2="-302">
<stop offset="0" style="stop-color:#ffffbb;stop-opacity:1.;"/>
<stop offset="1" style="stop-color:#ffffee;stop-opacity:1.;"/>
</linearGradient>
</defs>
<polygon fill="url(#l_8)" stroke="black" points="333.5,-302 207.5,-302 207.5,-266 333.5,-266 333.5,-302"/>
<text text-anchor="start" x="217.5" y="-282.2" font-family="Arial" font-weight="bold" font-size="11.00" fill="black"><a fill="navy" href="../reference/Equipment/MotorAsComponent.html" target="_parent">MotorAsComponent</a></text>
</g>
<!-- 7&#45;&gt;32 -->
<g id="edge5" class="edge"><path fill="none" stroke="#000000" d="M406.67,-354.044C387.398,-348.7 365.526,-341.637 346.5,-333 331.23,-326.068 315.388,-316.498 302.145,-307.726"/>
<polygon fill="#000000" stroke="#000000" points="406.692,-354.049 413.521,-351.734 418.285,-357.147 411.456,-359.463 406.692,-354.049"/>
<polygon fill="#000000" stroke="#000000" points="293.85,-302.112 304.654,-303.99 297.991,-304.914 302.132,-307.717 302.132,-307.717 302.132,-307.717 297.991,-304.914 299.61,-311.443 293.85,-302.112 293.85,-302.112"/>
<text text-anchor="start" x="349" y="-322.5" font-family="Arial" font-size="10.00" fill="black"><a fill="navy" href="../reference/Equipment/Equipment.html#dexpi-equipment-equipment-motors" target="_parent">Motors</a></text>
<text text-anchor="start" x="285.85" y="-305.112" font-family="Arial" font-size="10.00" fill="black">*</text>
<text text-anchor="start" x="389.285" y="-347.147" font-family="Arial" font-size="10.00" fill="black">0..1</text>
</g>
<!-- 35 -->
<g id="node15" class="node"><defs>
<linearGradient id="l_9" gradientUnits="userSpaceOnUse" x1="395.5" y1="-266" x2="395.5" y2="-302">
<stop offset="0" style="stop-color:#ffffbb;stop-opacity:1.;"/>
<stop offset="1" style="stop-color:#ffffee;stop-opacity:1.;"/>
</linearGradient>
</defs>
<polygon fill="url(#l_9)" stroke="black" points="439,-302 352,-302 352,-266 439,-266 439,-302"/>
<text text-anchor="start" x="362.5" y="-282.2" font-family="Arial" font-weight="bold" font-size="11.00" fill="black"><a fill="navy" href="../reference/Equipment/SprayNozzle.html" target="_parent">SprayNozzle</a></text>
</g>
<!-- 7&#45;&gt;35 -->
<g id="edge6" class="edge"><path fill="none" stroke="#000000" d="M407.357,-350.548C399.867,-346.067 393.12,-340.33 388.5,-333 384.594,-326.802 384.151,-319.272 385.269,-312.033"/>
<polygon fill="#000000" stroke="#000000" points="407.588,-350.664 414.747,-349.802 418.297,-356.08 411.137,-356.942 407.588,-350.664"/>
<polygon fill="#000000" stroke="#000000" points="387.69,-302.16 389.678,-312.944 386.499,-307.016 385.308,-311.873 385.308,-311.873 385.308,-311.873 386.499,-307.016 380.937,-310.801 387.69,-302.16 387.69,-302.16"/>
<text text-anchor="start" x="391" y="-322.5" font-family="Arial" font-size="10.00" fill="black"><a fill="navy" href="../reference/Equipment/Equipment.html#dexpi-equipment-equipment-spraynozzles" target="_parent">SprayNozzles</a></text>
<text text-anchor="start" x="379.69" y="-305.16" font-family="Arial" font-size="10.00" fill="black">*</text>
<text text-anchor="start" x="406.297" y="-346.08" font-family="Arial" font-size="10.00" fill="black">0..1</text>
</g>
<!-- 14&#45;inner&#45;node -->
<!-- 7&#45;&gt;14&#45;inner&#45;node -->
<g id="edge15" class="edge"><path fill="none" stroke="black" d="M457.5,-338.649C457.5,-315.987 457.5,-287.163 457.5,-285.116L457.5,-282.951"/>
<polygon fill="none" stroke="black" points="454,-338.822 457.5,-348.822 461,-338.822 454,-338.822"/>
</g>
<!-- 8 -->
<g id="node6" class="node"><defs>
<linearGradient id="l_10" gradientUnits="userSpaceOnUse" x1="341.5" y1="-501" x2="341.5" y2="-537">
<stop offset="0" style="stop-color:#ffffbb;stop-opacity:1.;"/>
<stop offset="1" style="stop-color:#ffffee;stop-opacity:1.;"/>
</linearGradient>
</defs>
<polygon fill="url(#l_10)" stroke="black" points="394,-537 289,-537 289,-501 394,-501 394,-537"/>
<text text-anchor="start" x="299.5" y="-517.2" font-family="Arial" font-weight="bold" font-style="italic" font-size="11.00" fill="black"><a fill="navy" href="../reference/Equipment/ChamberOwner.html" target="_parent">ChamberOwner</a></text>
</g>
<!-- 38 -->
<g id="node16" class="node"><defs>
<linearGradient id="l_11" gradientUnits="userSpaceOnUse" x1="277.5" y1="-418" x2="277.5" y2="-454">
<stop offset="0" style="stop-color:#ffffbb;stop-opacity:1.;"/>
<stop offset="1" style="stop-color:#ffffee;stop-opacity:1.;"/>
</linearGradient>
</defs>
<polygon fill="url(#l_11)" stroke="black" points="312,-454 243,-454 243,-418 312,-418 312,-454"/>
<text text-anchor="start" x="253.5" y="-434.2" font-family="Arial" font-weight="bold" font-size="11.00" fill="black"><a fill="navy" href="../reference/Equipment/Chamber.html" target="_parent">Chamber</a></text>
</g>
<!-- 8&#45;&gt;38 -->
<g id="edge7" class="edge"><path fill="none" stroke="#000000" d="M295.598,-493.09C292.972,-490.591 290.565,-487.896 288.5,-485 284.181,-478.945 281.527,-471.461 279.905,-464.22"/>
<polygon fill="#000000" stroke="#000000" points="295.859,-493.3 303.041,-493.955 305.199,-500.835 298.017,-500.181 295.859,-493.3"/>
<polygon fill="#000000" stroke="#000000" points="278.234,-454.318 284.336,-463.43 279.066,-459.248 279.898,-464.179 279.898,-464.179 279.898,-464.179 279.066,-459.248 275.461,-464.928 278.234,-454.318 278.234,-454.318"/>
<text text-anchor="start" x="291" y="-474.5" font-family="Arial" font-size="10.00" fill="black"><a fill="navy" href="../reference/Equipment/ChamberOwner.html#dexpi-equipment-chamberowner-chambers" target="_parent">Chambers</a></text>
<text text-anchor="start" x="270.234" y="-457.318" font-family="Arial" font-size="10.00" fill="black">*</text>
<text text-anchor="start" x="276.199" y="-490.835" font-family="Arial" font-size="10.00" fill="black">0..1</text>
</g>
<!-- 15&#45;inner&#45;node -->
<!-- 8&#45;&gt;15&#45;inner&#45;node -->
<g id="edge17" class="edge"><path fill="none" stroke="black" d="M341.5,-490.649C341.5,-467.987 341.5,-439.163 341.5,-437.116L341.64,-434.884"/>
<polygon fill="none" stroke="black" points="338,-490.822 341.5,-500.822 345,-490.822 338,-490.822"/>
</g>
<!-- 9 -->
<g id="node7" class="node"><defs>
<linearGradient id="l_12" gradientUnits="userSpaceOnUse" x1="457.5" y1="-501" x2="457.5" y2="-537">
<stop offset="0" style="stop-color:#ffffbb;stop-opacity:1.;"/>
<stop offset="1" style="stop-color:#ffffee;stop-opacity:1.;"/>
</linearGradient>
</defs>
<polygon fill="url(#l_12)" stroke="black" points="502.5,-537 412.5,-537 412.5,-501 502.5,-501 502.5,-537"/>
<text text-anchor="start" x="422.5" y="-517.2" font-family="Arial" font-weight="bold" font-style="italic" font-size="11.00" fill="black"><a fill="navy" href="../reference/Equipment/NozzleOwner.html" target="_parent">NozzleOwner</a></text>
</g>
<!-- 41 -->
<g id="node17" class="node"><defs>
<linearGradient id="l_13" gradientUnits="userSpaceOnUse" x1="402.5" y1="-418" x2="402.5" y2="-454">
<stop offset="0" style="stop-color:#ffffbb;stop-opacity:1.;"/>
<stop offset="1" style="stop-color:#ffffee;stop-opacity:1.;"/>
</linearGradient>
</defs>
<polygon fill="url(#l_13)" stroke="black" points="431,-454 374,-454 374,-418 431,-418 431,-454"/>
<text text-anchor="start" x="384.5" y="-434.2" font-family="Arial" font-weight="bold" font-size="11.00" fill="black"><a fill="navy" href="../reference/Equipment/Nozzle.html" target="_parent">Nozzle</a></text>
</g>
<!-- 9&#45;&gt;41 -->
<g id="edge8" class="edge"><path fill="none" stroke="#000000" d="M419.289,-492.384C417.147,-490.056 415.185,-487.592 413.5,-485 409.447,-478.763 406.878,-471.222 405.253,-463.983"/>
<polygon fill="#000000" stroke="#000000" points="419.431,-492.515 426.552,-493.651 428.242,-500.662 421.121,-499.525 419.431,-492.515"/>
<polygon fill="#000000" stroke="#000000" points="403.528,-454.118 409.683,-463.193 404.389,-459.043 405.251,-463.969 405.251,-463.969 405.251,-463.969 404.389,-459.043 400.818,-464.744 403.528,-454.118 403.528,-454.118"/>
<text text-anchor="start" x="415.5" y="-474.5" font-family="Arial" font-size="10.00" fill="black"><a fill="navy" href="../reference/Equipment/NozzleOwner.html#dexpi-equipment-nozzleowner-nozzles" target="_parent">Nozzles</a></text>
<text text-anchor="start" x="395.528" y="-457.118" font-family="Arial" font-size="10.00" fill="black">*</text>
<text text-anchor="start" x="399.242" y="-490.662" font-family="Arial" font-size="10.00" fill="black">0..1</text>
</g>
<!-- 16&#45;inner&#45;node -->
<!-- 9&#45;&gt;16&#45;inner&#45;node -->
<g id="edge19" class="edge"><path fill="none" stroke="black" d="M457.5,-490.649C457.5,-467.987 457.5,-439.163 457.5,-437.116L457.5,-434.951"/>
<polygon fill="none" stroke="black" points="454,-490.822 457.5,-500.822 461,-490.822 454,-490.822"/>
</g>
<!-- 10 -->
<g id="node8" class="node"><defs>
<linearGradient id="l_14" gradientUnits="userSpaceOnUse" x1="575.5" y1="-501" x2="575.5" y2="-537">
<stop offset="0" style="stop-color:#ffffbb;stop-opacity:1.;"/>
<stop offset="1" style="stop-color:#ffffee;stop-opacity:1.;"/>
</linearGradient>
</defs>
<polygon fill="url(#l_14)" stroke="black" points="630,-537 521,-537 521,-501 630,-501 630,-537"/>
<text text-anchor="start" x="531.5" y="-517.2" font-family="Arial" font-weight="bold" font-style="italic" font-size="11.00" fill="black"><a fill="navy" href="../reference/Equipment/TaggedPlantItem.html" target="_parent">TaggedPlantItem</a></text>
</g>
<!-- 17&#45;inner&#45;node -->
<!-- 10&#45;&gt;17&#45;inner&#45;node -->
<g id="edge21" class="edge"><path fill="none" stroke="black" d="M575.5,-490.649C575.5,-467.987 575.5,-439.163 575.5,-437.116L575.414,-434.951"/>
<polygon fill="none" stroke="black" points="572,-490.822 575.5,-500.822 579,-490.822 572,-490.822"/>
</g>
<!-- 11 -->
<g id="node9" class="node"><defs>
<linearGradient id="l_15" gradientUnits="userSpaceOnUse" x1="471.5" y1="-667" x2="471.5" y2="-703">
<stop offset="0" style="stop-color:#ffffbb;stop-opacity:1.;"/>
<stop offset="1" style="stop-color:#ffffee;stop-opacity:1.;"/>
</linearGradient>
</defs>
<polygon fill="url(#l_15)" stroke="black" points="529,-703 414,-703 414,-667 529,-667 529,-703"/>
<text text-anchor="start" x="424.5" y="-683.2" font-family="Arial" font-weight="bold" font-style="italic" font-size="11.00" fill="black"><a fill="navy" href="../reference/DexpiModel/ConceptualObject.html" target="_parent">ConceptualObject</a></text>
</g>
<!-- 18&#45;inner&#45;node -->
<!-- 11&#45;&gt;18&#45;inner&#45;node -->
<g id="edge23" class="edge"><path fill="none" stroke="black" d="M471.5,-656.649C471.5,-633.987 471.5,-605.163 471.5,-603.116L471.538,-600.879"/>
<polygon fill="none" stroke="black" points="468,-656.822 471.5,-666.822 475,-656.822 468,-656.822"/>
</g>
<!-- 12 -->
<g id="node10" class="node"><defs>
<linearGradient id="l_16" gradientUnits="userSpaceOnUse" x1="629.5" y1="-667" x2="629.5" y2="-703">
<stop offset="0" style="stop-color:#ffffbb;stop-opacity:1.;"/>
<stop offset="1" style="stop-color:#ffffee;stop-opacity:1.;"/>
</linearGradient>
</defs>
<polygon fill="url(#l_16)" stroke="black" points="701.5,-703 557.5,-703 557.5,-667 701.5,-667 701.5,-703"/>
<text text-anchor="start" x="567.5" y="-683.2" font-family="Arial" font-weight="bold" font-style="italic" font-size="11.00" fill="black"><a fill="navy" href="../reference/Customization/CustomAttributeOwner.html" target="_parent">CustomAttributeOwner</a></text>
</g>
<!-- 53 -->
<g id="node21" class="node"><defs>
<linearGradient id="l_17" gradientUnits="userSpaceOnUse" x1="544.5" y1="-584" x2="544.5" y2="-620">
<stop offset="0" style="stop-color:#ffffbb;stop-opacity:1.;"/>
<stop offset="1" style="stop-color:#ffffee;stop-opacity:1.;"/>
</linearGradient>
</defs>
<polygon fill="url(#l_17)" stroke="black" points="599,-620 490,-620 490,-584 599,-584 599,-620"/>
<text text-anchor="start" x="500.5" y="-600.2" font-family="Arial" font-weight="bold" font-style="italic" font-size="11.00" fill="black"><a fill="navy" href="../reference/Customization/CustomAttribute.html" target="_parent">CustomAttribute</a></text>
</g>
<!-- 12&#45;&gt;53 -->
<g id="edge12" class="edge"><path fill="none" stroke="#000000" d="M552.949,-659.486C550.181,-656.933 547.67,-654.113 545.5,-651 541.402,-645.119 539.944,-637.772 539.815,-630.608"/>
<polygon fill="#000000" stroke="#000000" points="552.998,-659.523 560.196,-659.959 562.563,-666.77 555.365,-666.335 552.998,-659.523"/>
<polygon fill="#000000" stroke="#000000" points="540.425,-620.435 544.319,-630.687 540.126,-625.426 539.827,-630.417 539.827,-630.417 539.827,-630.417 540.126,-625.426 535.335,-630.148 540.425,-620.435 540.425,-620.435"/>
<text text-anchor="start" x="547.5" y="-640.5" font-family="Arial" font-size="10.00" fill="black"><a fill="navy" href="../reference/Customization/CustomAttributeOwner.html#dexpi-customization-customattributeowner-customattributes" target="_parent">CustomAttributes</a></text>
<text text-anchor="start" x="532.425" y="-623.435" font-family="Arial" font-size="10.00" fill="black">*</text>
<text text-anchor="start" x="533.563" y="-656.77" font-family="Arial" font-size="10.00" fill="black">0..1</text>
</g>
<!-- 19&#45;inner&#45;node -->
<!-- 12&#45;&gt;19&#45;inner&#45;node -->
<g id="edge25" class="edge"><path fill="none" stroke="black" d="M629.5,-656.649C629.5,-633.987 629.5,-605.163 629.5,-603.116L629.461,-600.941"/>
<polygon fill="none" stroke="black" points="626,-656.822 629.5,-666.822 633,-656.822 626,-656.822"/>
</g>
<!-- 44 -->
<g id="node18" class="node"><defs>
<linearGradient id="l_18" gradientUnits="userSpaceOnUse" x1="395.5" y1="-584" x2="395.5" y2="-620">
<stop offset="0" style="stop-color:#ffffbb;stop-opacity:1.;"/>
<stop offset="1" style="stop-color:#ffffee;stop-opacity:1.;"/>
</linearGradient>
</defs>
<polygon fill="url(#l_18)" stroke="black" points="452.5,-620 338.5,-620 338.5,-584 452.5,-584 452.5,-620"/>
<text text-anchor="start" x="348.5" y="-600.2" font-family="Arial" font-weight="bold" font-size="11.00" fill="black"><a fill="navy" href="../reference/DexpiModel/ConceptualModel.html" target="_parent">ConceptualModel</a></text>
</g>
<!-- 44&#45;&gt;10 -->
<g id="edge9" class="edge"><path fill="none" stroke="#000000" d="M400.324,-572.016C402.842,-564.86 406.673,-557.862 412.5,-553 444.518,-526.287 465.123,-543.682 510.934,-536.726"/>
<polygon fill="#000000" stroke="#000000" points="400.262,-572.253 402.602,-579.074 397.205,-583.857 394.865,-577.036 400.262,-572.253"/>
<polygon fill="#000000" stroke="#000000" points="520.773,-534.92 511.751,-541.152 515.856,-535.823 510.938,-536.726 510.938,-536.726 510.938,-536.726 515.856,-535.823 510.125,-532.3 520.773,-534.92 520.773,-534.92"/>
<text text-anchor="start" x="415" y="-557.5" font-family="Arial" font-size="10.00" fill="black"><a fill="navy" href="../reference/DexpiModel/ConceptualModel.html#dexpi-dexpimodel-conceptualmodel-taggedplantitems" target="_parent">TaggedPlantItems</a></text>
<text text-anchor="start" x="512.773" y="-537.92" font-family="Arial" font-size="10.00" fill="black">*</text>
<text text-anchor="start" x="368.205" y="-573.857" font-family="Arial" font-size="10.00" fill="black">0..1</text>
</g>
<!-- 47 -->
<g id="node19" class="node"><defs>
<linearGradient id="l_19" gradientUnits="userSpaceOnUse" x1="368.5" y1="-758.5" x2="368.5" y2="-794.5">
<stop offset="0" style="stop-color:#ffffbb;stop-opacity:1.;"/>
<stop offset="1" style="stop-color:#ffffee;stop-opacity:1.;"/>
</linearGradient>
</defs>
<polygon fill="url(#l_19)" stroke="black" points="443,-794.5 294,-794.5 294,-758.5 443,-758.5 443,-794.5"/>
<text text-anchor="start" x="304.5" y="-774.7" font-family="Arial" font-weight="bold" font-size="11.00" fill="black"><a fill="navy" href="../reference/Graphics/AttributeRepresentation.html" target="_parent">AttributeRepresentation</a></text>
</g>
<!-- 47&#45;&gt;11 -->
<g id="edge10" class="edge"><path fill="none" stroke="#000000" d="M388.359,-758.243C404.176,-744.5 426.493,-725.108 444.024,-709.875"/>
<polygon fill="#000000" stroke="#000000" points="451.702,-703.204 447.105,-713.159 447.927,-706.483 444.153,-709.763 444.153,-709.763 444.153,-709.763 447.927,-706.483 441.201,-706.366 451.702,-703.204 451.702,-703.204"/>
<text text-anchor="start" x="435" y="-723.5" font-family="Arial" font-size="10.00" fill="black"><a fill="navy" href="../reference/Graphics/AttributeRepresentation.html#dexpi-graphics-attributerepresentation-object" target="_parent">Object</a></text>
<text text-anchor="start" x="443.702" y="-706.204" font-family="Arial" font-size="10.00" fill="black"></text>
<text text-anchor="start" x="372.359" y="-748.243" font-family="Arial" font-size="10.00" fill="black">*</text>
</g>
<!-- 50 -->
<g id="node20" class="node"><defs>
<linearGradient id="l_20" gradientUnits="userSpaceOnUse" x1="529.5" y1="-758.5" x2="529.5" y2="-794.5">
<stop offset="0" style="stop-color:#ffffbb;stop-opacity:1.;"/>
<stop offset="1" style="stop-color:#ffffee;stop-opacity:1.;"/>
</linearGradient>
</defs>
<polygon fill="url(#l_20)" stroke="black" points="598,-794.5 461,-794.5 461,-758.5 598,-758.5 598,-794.5"/>
<text text-anchor="start" x="471.5" y="-774.7" font-family="Arial" font-weight="bold" font-size="11.00" fill="black"><a fill="navy" href="../reference/Graphics/RepresentationGroup.html" target="_parent">RepresentationGroup</a></text>
</g>
<!-- 50&#45;&gt;11 -->
<g id="edge11" class="edge"><path fill="none" stroke="#000000" d="M518.317,-758.243C509.812,-745.119 497.968,-726.843 488.322,-711.958"/>
<polygon fill="#000000" stroke="#000000" points="482.649,-703.204 491.863,-709.148 485.368,-707.399 488.087,-711.595 488.087,-711.595 488.087,-711.595 485.368,-707.399 484.311,-714.043 482.649,-703.204 482.649,-703.204"/>
<text text-anchor="start" x="504.5" y="-723.5" font-family="Arial" font-size="10.00" fill="black"><a fill="navy" href="../reference/Graphics/RepresentationGroup.html#dexpi-graphics-representationgroup-represents" target="_parent">Represents</a></text>
<text text-anchor="start" x="474.649" y="-706.204" font-family="Arial" font-size="10.00" fill="black"></text>
<text text-anchor="start" x="502.317" y="-748.243" font-family="Arial" font-size="10.00" fill="black">*</text>
</g>
<!-- 13&#45;inner&#45;node&#45;&gt;0 -->
<g id="edge14" class="edge"><path fill="none" stroke="black" d="M457.5,-162.841C457.5,-161.061 457.5,-144.677 457.5,-130.194"/>
</g>
<!-- 14&#45;inner&#45;node&#45;&gt;6 -->
<g id="edge16" class="edge"><path fill="none" stroke="black" d="M457.5,-282.951C457.5,-281.604 457.5,-252.522 457.5,-233.135"/>
</g>
<!-- 15&#45;inner&#45;node&#45;&gt;7 -->
<g id="edge18" class="edge"><path fill="none" stroke="black" d="M341.64,-434.884C343.027,-433.739 354.434,-424.38 364.5,-418 383.235,-406.126 405.036,-394.306 422.819,-385.142"/>
</g>
<!-- 16&#45;inner&#45;node&#45;&gt;7 -->
<g id="edge20" class="edge"><path fill="none" stroke="black" d="M457.5,-434.951C457.5,-433.604 457.5,-404.522 457.5,-385.135"/>
</g>
<!-- 17&#45;inner&#45;node&#45;&gt;7 -->
<g id="edge22" class="edge"><path fill="none" stroke="black" d="M575.414,-434.951C573.042,-433.604 521.822,-404.522 487.677,-385.135"/>
</g>
<!-- 18&#45;inner&#45;node&#45;&gt;10 -->
<g id="edge24" class="edge"><path fill="none" stroke="black" d="M471.538,-600.879C471.92,-599.686 475.141,-589.959 480.5,-584 497.92,-564.629 522.388,-548.325 542.129,-537.02"/>
</g>
<!-- 19&#45;inner&#45;node&#45;&gt;10 -->
<g id="edge26" class="edge"><path fill="none" stroke="black" d="M629.461,-600.941C628.318,-599.226 602.391,-560.337 586.898,-537.098"/>
</g>
<!-- 20&#45;inner&#45;node&#45;&gt;10 -->
<g id="edge28" class="edge"><path fill="none" stroke="black" d="M766.362,-600.941C762.318,-599.226 670.615,-560.337 615.817,-537.098"/>
</g>
</g>
</svg>