<!DOCTYPE svg PUBLIC "-//W3C//DTD SVG 1.1//EN" "http://www.w3.org/Graphics/SVG/1.1/DTD/svg11.dtd">
<!-- Generated by graphviz version 2.38.0 (20140413.2041)
 --><!-- Title: G Pages: 1 --><svg xmlns="http://www.w3.org/2000/svg" xmlns:xlink="http://www.w3.org/1999/xlink" width="403pt" height="422pt" viewBox="0.00 0.00 402.50 422.00">
<g id="graph0" class="graph" transform="scale(1 1) rotate(0) translate(4 418)">
<!-- 0 -->
<g id="node1" class="node"><defs>
<linearGradient id="l_0" gradientUnits="userSpaceOnUse" x1="154.5" y1="-3.19744e-014" x2="154.5" y2="-62">
<stop offset="0" style="stop-color:#ffffbb;stop-opacity:1.;"/>
<stop offset="1" style="stop-color:#ffffee;stop-opacity:1.;"/>
</linearGradient>
</defs>
<polygon fill="url(#l_0)" stroke="black" points="305,-62 4,-62 4,-0 305,-0 305,-62"/>
<text text-anchor="start" x="52.5" y="-48.2" font-family="Arial" font-weight="bold" font-size="11.00" fill="black">AlternatingCurrentMotorAsComponent</text>
<text text-anchor="start" x="14.5" y="-24" font-family="Arial" font-size="10.00" fill="black"><a fill="navy" href="../reference/Equipment/AlternatingCurrentMotorAsComponent.html#dexpi-equipment-alternatingcurrentmotorascomponent-alternatingcurrentfrequency" target="_parent">AlternatingCurrentFrequency</a>&#160;:</text>
<text text-anchor="start" x="148.5" y="-24" font-family="Arial" font-size="10.00" fill="black"><a fill="navy" href="../reference/PhysicalQuantities/NullableElectricalFrequency.html" target="_parent">NullableElectricalFrequency</a>&#160;[0..1]</text>
<text text-anchor="start" x="14.5" y="-9" font-family="Arial" font-size="10.00" fill="black"><a fill="navy" href="../reference/Equipment/AlternatingCurrentMotorAsComponent.html#dexpi-equipment-alternatingcurrentmotorascomponent-nominalvoltage" target="_parent">NominalVoltage</a>&#160;:</text>
<text text-anchor="start" x="148.5" y="-9" font-family="Arial" font-size="10.00" fill="black"><a fill="navy" href="../reference/PhysicalQuantities/NullableVoltage.html" target="_parent">NullableVoltage</a>&#160;[0..1]</text>
<polygon fill="black" stroke="black" points="305.0,-42.0 4.0,-42.0 4.0,-42.0 305.0,-42.0 305.0,-42.0"/>
</g>
<!-- 5 -->
<g id="node2" class="node"><defs>
<linearGradient id="l_1" gradientUnits="userSpaceOnUse" x1="154.5" y1="-129" x2="154.5" y2="-165">
<stop offset="0" style="stop-color:#ffffbb;stop-opacity:1.;"/>
<stop offset="1" style="stop-color:#ffffee;stop-opacity:1.;"/>
</linearGradient>
</defs>
<polygon fill="url(#l_1)" stroke="black" points="217.5,-165 91.5,-165 91.5,-129 217.5,-129 217.5,-165"/>
<text text-anchor="start" x="101.5" y="-145.2" font-family="Arial" font-weight="bold" font-size="11.00" fill="black"><a fill="navy" href="../reference/Equipment/MotorAsComponent.html" target="_parent">MotorAsComponent</a></text>
</g>
<!-- 8&#45;inner&#45;node -->
<!-- 5&#45;&gt;8&#45;inner&#45;node -->
<g id="edge5" class="edge"><path fill="none" stroke="black" d="M154.5,-118.603C154.5,-107.422 154.5,-96.8866 154.5,-96.053L154.5,-94.9543"/>
<polygon fill="none" stroke="black" points="151,-118.793 154.5,-128.793 158,-118.793 151,-118.793"/>
</g>
<!-- 6 -->
<g id="node3" class="node"><defs>
<linearGradient id="l_2" gradientUnits="userSpaceOnUse" x1="154.5" y1="-295" x2="154.5" y2="-331">
<stop offset="0" style="stop-color:#ffffbb;stop-opacity:1.;"/>
<stop offset="1" style="stop-color:#ffffee;stop-opacity:1.;"/>
</linearGradient>
</defs>
<polygon fill="url(#l_2)" stroke="black" points="212,-331 97,-331 97,-295 212,-295 212,-331"/>
<text text-anchor="start" x="107.5" y="-311.2" font-family="Arial" font-weight="bold" font-style="italic" font-size="11.00" fill="black"><a fill="navy" href="../reference/DexpiModel/ConceptualObject.html" target="_parent">ConceptualObject</a></text>
</g>
<!-- 9&#45;inner&#45;node -->
<!-- 6&#45;&gt;9&#45;inner&#45;node -->
<g id="edge7" class="edge"><path fill="none" stroke="black" d="M154.5,-284.649C154.5,-261.987 154.5,-233.163 154.5,-231.116L154.5,-228.941"/>
<polygon fill="none" stroke="black" points="151,-284.822 154.5,-294.822 158,-284.822 151,-284.822"/>
</g>
<!-- 7 -->
<g id="node4" class="node"><defs>
<linearGradient id="l_3" gradientUnits="userSpaceOnUse" x1="322.5" y1="-295" x2="322.5" y2="-331">
<stop offset="0" style="stop-color:#ffffbb;stop-opacity:1.;"/>
<stop offset="1" style="stop-color:#ffffee;stop-opacity:1.;"/>
</linearGradient>
</defs>
<polygon fill="url(#l_3)" stroke="black" points="394.5,-331 250.5,-331 250.5,-295 394.5,-295 394.5,-331"/>
<text text-anchor="start" x="260.5" y="-311.2" font-family="Arial" font-weight="bold" font-style="italic" font-size="11.00" fill="black"><a fill="navy" href="../reference/Customization/CustomAttributeOwner.html" target="_parent">CustomAttributeOwner</a></text>
</g>
<!-- 22 -->
<g id="node8" class="node"><defs>
<linearGradient id="l_4" gradientUnits="userSpaceOnUse" x1="227.5" y1="-212" x2="227.5" y2="-248">
<stop offset="0" style="stop-color:#ffffbb;stop-opacity:1.;"/>
<stop offset="1" style="stop-color:#ffffee;stop-opacity:1.;"/>
</linearGradient>
</defs>
<polygon fill="url(#l_4)" stroke="black" points="282,-248 173,-248 173,-212 282,-212 282,-248"/>
<text text-anchor="start" x="183.5" y="-228.2" font-family="Arial" font-weight="bold" font-style="italic" font-size="11.00" fill="black"><a fill="navy" href="../reference/Customization/CustomAttribute.html" target="_parent">CustomAttribute</a></text>
</g>
<!-- 7&#45;&gt;22 -->
<g id="edge4" class="edge"><path fill="none" stroke="#000000" d="M248.566,-288.359C244.887,-285.576 241.487,-282.469 238.5,-279 233.571,-273.275 230.734,-265.784 229.132,-258.428"/>
<polygon fill="#000000" stroke="#000000" points="248.776,-288.495 255.986,-288.381 258.865,-294.992 251.655,-295.106 248.776,-288.495"/>
<polygon fill="#000000" stroke="#000000" points="227.601,-248.317 233.548,-257.53 228.35,-253.26 229.098,-258.204 229.098,-258.204 229.098,-258.204 228.35,-253.26 224.649,-258.878 227.601,-248.317 227.601,-248.317"/>
<text text-anchor="start" x="240.5" y="-268.5" font-family="Arial" font-size="10.00" fill="black"><a fill="navy" href="../reference/Customization/CustomAttributeOwner.html#dexpi-customization-customattributeowner-customattributes" target="_parent">CustomAttributes</a></text>
<text text-anchor="start" x="219.601" y="-251.317" font-family="Arial" font-size="10.00" fill="black">*</text>
<text text-anchor="start" x="229.865" y="-284.992" font-family="Arial" font-size="10.00" fill="black">0..1</text>
</g>
<!-- 10&#45;inner&#45;node -->
<!-- 7&#45;&gt;10&#45;inner&#45;node -->
<g id="edge9" class="edge"><path fill="none" stroke="black" d="M322.5,-284.649C322.5,-261.987 322.5,-233.163 322.5,-231.116L322.449,-228.972"/>
<polygon fill="none" stroke="black" points="319,-284.822 322.5,-294.822 326,-284.822 319,-284.822"/>
</g>
<!-- 13 -->
<g id="node5" class="node"><defs>
<linearGradient id="l_5" gradientUnits="userSpaceOnUse" x1="96.5" y1="-212" x2="96.5" y2="-248">
<stop offset="0" style="stop-color:#ffffbb;stop-opacity:1.;"/>
<stop offset="1" style="stop-color:#ffffee;stop-opacity:1.;"/>
</linearGradient>
</defs>
<polygon fill="url(#l_5)" stroke="black" points="135.5,-248 57.5,-248 57.5,-212 135.5,-212 135.5,-248"/>
<text text-anchor="start" x="67.5" y="-228.2" font-family="Arial" font-weight="bold" font-style="italic" font-size="11.00" fill="black"><a fill="navy" href="../reference/Equipment/Equipment.html" target="_parent">Equipment</a></text>
</g>
<!-- 13&#45;&gt;5 -->
<g id="edge1" class="edge"><path fill="none" stroke="#000000" d="M105.061,-200.642C107.809,-193.868 111.266,-186.897 115.5,-181 117.699,-177.938 120.242,-174.983 122.955,-172.184"/>
<polygon fill="#000000" stroke="#000000" points="105.042,-200.697 106.776,-207.696 100.982,-211.989 99.2477,-204.989 105.042,-200.697"/>
<polygon fill="#000000" stroke="#000000" points="130.414,-165.173 126.21,-175.301 126.771,-168.598 123.127,-172.023 123.127,-172.023 123.127,-172.023 126.771,-168.598 120.045,-168.744 130.414,-165.173 130.414,-165.173"/>
<text text-anchor="start" x="118" y="-185.5" font-family="Arial" font-size="10.00" fill="black"><a fill="navy" href="../reference/Equipment/Equipment.html#dexpi-equipment-equipment-motors" target="_parent">Motors</a></text>
<text text-anchor="start" x="122.414" y="-168.173" font-family="Arial" font-size="10.00" fill="black">*</text>
<text text-anchor="start" x="71.9817" y="-201.989" font-family="Arial" font-size="10.00" fill="black">0..1</text>
</g>
<!-- 16 -->
<g id="node6" class="node"><defs>
<linearGradient id="l_6" gradientUnits="userSpaceOnUse" x1="74.5" y1="-378" x2="74.5" y2="-414">
<stop offset="0" style="stop-color:#ffffbb;stop-opacity:1.;"/>
<stop offset="1" style="stop-color:#ffffee;stop-opacity:1.;"/>
</linearGradient>
</defs>
<polygon fill="url(#l_6)" stroke="black" points="149,-414 0,-414 0,-378 149,-378 149,-414"/>
<text text-anchor="start" x="10.5" y="-394.2" font-family="Arial" font-weight="bold" font-size="11.00" fill="black"><a fill="navy" href="../reference/Graphics/AttributeRepresentation.html" target="_parent">AttributeRepresentation</a></text>
</g>
<!-- 16&#45;&gt;6 -->
<g id="edge2" class="edge"><path fill="none" stroke="#000000" d="M91.4659,-377.822C102.815,-366.331 117.916,-351.041 130.493,-338.307"/>
<polygon fill="#000000" stroke="#000000" points="137.559,-331.153 133.733,-341.43 134.045,-334.711 130.531,-338.268 130.531,-338.268 130.531,-338.268 134.045,-334.711 127.33,-335.106 137.559,-331.153 137.559,-331.153"/>
<text text-anchor="start" x="125" y="-351.5" font-family="Arial" font-size="10.00" fill="black"><a fill="navy" href="../reference/Graphics/AttributeRepresentation.html#dexpi-graphics-attributerepresentation-object" target="_parent">Object</a></text>
<text text-anchor="start" x="129.559" y="-334.153" font-family="Arial" font-size="10.00" fill="black"></text>
<text text-anchor="start" x="75.4659" y="-367.822" font-family="Arial" font-size="10.00" fill="black">*</text>
</g>
<!-- 19 -->
<g id="node7" class="node"><defs>
<linearGradient id="l_7" gradientUnits="userSpaceOnUse" x1="235.5" y1="-378" x2="235.5" y2="-414">
<stop offset="0" style="stop-color:#ffffbb;stop-opacity:1.;"/>
<stop offset="1" style="stop-color:#ffffee;stop-opacity:1.;"/>
</linearGradient>
</defs>
<polygon fill="url(#l_7)" stroke="black" points="304,-414 167,-414 167,-378 304,-378 304,-414"/>
<text text-anchor="start" x="177.5" y="-394.2" font-family="Arial" font-weight="bold" font-size="11.00" fill="black"><a fill="navy" href="../reference/Graphics/RepresentationGroup.html" target="_parent">RepresentationGroup</a></text>
</g>
<!-- 19&#45;&gt;6 -->
<g id="edge3" class="edge"><path fill="none" stroke="#000000" d="M218.322,-377.822C206.831,-366.331 191.541,-351.041 178.807,-338.307"/>
<polygon fill="#000000" stroke="#000000" points="171.653,-331.153 181.906,-335.042 175.189,-334.689 178.724,-338.224 178.724,-338.224 178.724,-338.224 175.189,-334.689 175.542,-341.406 171.653,-331.153 171.653,-331.153"/>
<text text-anchor="start" x="204.5" y="-351.5" font-family="Arial" font-size="10.00" fill="black"><a fill="navy" href="../reference/Graphics/RepresentationGroup.html#dexpi-graphics-representationgroup-represents" target="_parent">Represents</a></text>
<text text-anchor="start" x="163.653" y="-334.153" font-family="Arial" font-size="10.00" fill="black"></text>
<text text-anchor="start" x="202.322" y="-367.822" font-family="Arial" font-size="10.00" fill="black">*</text>
</g>
<!-- 8&#45;inner&#45;node&#45;&gt;0 -->
<g id="edge6" class="edge"><path fill="none" stroke="black" d="M154.5,-94.9543C154.5,-93.9856 154.5,-77.7665 154.5,-62.0354"/>
</g>
<!-- 9&#45;inner&#45;node&#45;&gt;5 -->
<g id="edge8" class="edge"><path fill="none" stroke="black" d="M154.5,-228.941C154.5,-227.226 154.5,-188.337 154.5,-165.098"/>
</g>
<!-- 10&#45;inner&#45;node&#45;&gt;5 -->
<g id="edge10" class="edge"><path fill="none" stroke="black" d="M322.449,-228.972C321.403,-228.391 304.451,-218.983 290.5,-212 257.481,-195.472 219.414,-177.663 191.966,-165.037"/>
</g>
</g>
</svg>