<!DOCTYPE svg PUBLIC "-//W3C//DTD SVG 1.1//EN" "http://www.w3.org/Graphics/SVG/1.1/DTD/svg11.dtd">
<!-- Generated by graphviz version 2.38.0 (20140413.2041)
 --><!-- Title: G Pages: 1 --><svg xmlns="http://www.w3.org/2000/svg" xmlns:xlink="http://www.w3.org/1999/xlink" width="867pt" height="670pt" viewBox="0.00 0.00 866.50 670.00">
<g id="graph0" class="graph" transform="scale(1 1) rotate(0) translate(4 666)">
<!-- 0 -->
<g id="node1" class="node"><defs>
<linearGradient id="l_0" gradientUnits="userSpaceOnUse" x1="457.5" y1="-4.26326e-014" x2="457.5" y2="-92">
<stop offset="0" style="stop-color:#ffffbb;stop-opacity:1.;"/>
<stop offset="1" style="stop-color:#ffffee;stop-opacity:1.;"/>
</linearGradient>
</defs>
<polygon fill="url(#l_0)" stroke="black" points="605,-92 310,-92 310,-0 605,-0 605,-92"/>
<text text-anchor="start" x="439" y="-78.2" font-family="Arial" font-weight="bold" font-size="11.00" fill="black">Blower</text>
<text text-anchor="start" x="320.5" y="-54" font-family="Arial" font-size="10.00" fill="black"><a fill="navy" href="../reference/Equipment/Blower.html#dexpi-equipment-blower-designdifferentialpressure" target="_parent">DesignDifferentialPressure</a>&#160;:</text>
<text text-anchor="start" x="445.5" y="-54" font-family="Arial" font-size="10.00" fill="black"><a fill="navy" href="../reference/PhysicalQuantities/NullablePressureAbsolute.html" target="_parent">NullablePressureAbsolute</a>&#160;[0..1]</text>
<text text-anchor="start" x="320.5" y="-39" font-family="Arial" font-size="10.00" fill="black"><a fill="navy" href="../reference/Equipment/Blower.html#dexpi-equipment-blower-designrotationalspeed" target="_parent">DesignRotationalSpeed</a>&#160;:</text>
<text text-anchor="start" x="445.5" y="-39" font-family="Arial" font-size="10.00" fill="black"><a fill="navy" href="../reference/PhysicalQuantities/NullableRotationalFrequency.html" target="_parent">NullableRotationalFrequency</a>&#160;[0..1]</text>
<text text-anchor="start" x="320.5" y="-24" font-family="Arial" font-size="10.00" fill="black"><a fill="navy" href="../reference/Equipment/Blower.html#dexpi-equipment-blower-designshaftpower" target="_parent">DesignShaftPower</a>&#160;:</text>
<text text-anchor="start" x="445.5" y="-24" font-family="Arial" font-size="10.00" fill="black"><a fill="navy" href="../reference/PhysicalQuantities/NullablePower.html" target="_parent">NullablePower</a>&#160;[0..1]</text>
<text text-anchor="start" x="320.5" y="-9" font-family="Arial" font-size="10.00" fill="black"><a fill="navy" href="../reference/Equipment/Blower.html#dexpi-equipment-blower-designvolumeflowrate" target="_parent">DesignVolumeFlowRate</a>&#160;:</text>
<text text-anchor="start" x="445.5" y="-9" font-family="Arial" font-size="10.00" fill="black"><a fill="navy" href="../reference/PhysicalQuantities/NullableVolumeFlowRate.html" target="_parent">NullableVolumeFlowRate</a>&#160;[0..1]</text>
<polygon fill="black" stroke="black" points="605.0,-72.0 310.0,-72.0 310.0,-72.0 605.0,-72.0 605.0,-72.0"/>
</g>
<!-- 10 -->
<g id="node2" class="node"><defs>
<linearGradient id="l_1" gradientUnits="userSpaceOnUse" x1="766.5" y1="-609" x2="766.5" y2="-662">
<stop offset="0" style="stop-color:#fbfbfb;stop-opacity:1.;"/>
<stop offset="1" style="stop-color:#fefefe;stop-opacity:1.;"/>
</linearGradient>
</defs>
<polygon fill="url(#l_1)" stroke="black" points="858.5,-651.0 847.5,-662.0 674.5,-662.0 674.5,-609.0 858.5,-609.0"/><path d="M858.5,-651.0L847.5,-651.0 847.5,-662.0" fill="none" stroke="black"/>
<text text-anchor="start" x="684.5" y="-647.5" font-family="Arial" font-size="10.00" fill="black">For&#160;the&#160;sake&#160;of&#160;clarity,&#160;superclasses&#160;</text>
<text text-anchor="start" x="684.5" y="-632.5" font-family="Arial" font-size="10.00" fill="black">and&#160;associations&#160;of&#160;<a fill="navy" href="../reference/PlantStructure/TechnicalItem.html" target="_parent">TechnicalItem</a>&#160;are</text>
<text text-anchor="start" x="684.5" y="-617.5" font-family="Arial" font-size="10.00" fill="black">not&#160;shown&#160;in&#160;this&#160;diagram.</text>
</g>
<!-- 9 -->
<g id="node3" class="node"><defs>
<linearGradient id="l_2" gradientUnits="userSpaceOnUse" x1="766.5" y1="-526" x2="766.5" y2="-562">
<stop offset="0" style="stop-color:#ffffbb;stop-opacity:1.;"/>
<stop offset="1" style="stop-color:#ffffee;stop-opacity:1.;"/>
</linearGradient>
</defs>
<polygon fill="url(#l_2)" stroke="black" points="813,-562 720,-562 720,-526 813,-526 813,-562"/>
<text text-anchor="start" x="730.5" y="-542.2" font-family="Arial" font-weight="bold" font-style="italic" font-size="11.00" fill="black"><a fill="navy" href="../reference/PlantStructure/TechnicalItem.html" target="_parent">TechnicalItem</a></text>
</g>
<!-- 10&#45;&gt;9 -->
<g id="edge1" class="edge"><path fill="none" stroke="#000000" stroke-dasharray="5,2" d="M766.5,-608.613C766.5,-593.641 766.5,-575.222 766.5,-562.063"/>
</g>
<!-- 24&#45;inner&#45;node -->
<!-- 9&#45;&gt;24&#45;inner&#45;node -->
<g id="edge24" class="edge"><path fill="none" stroke="black" d="M766.5,-515.649C766.5,-492.987 766.5,-464.163 766.5,-462.116L766.362,-459.941"/>
<polygon fill="none" stroke="black" points="763,-515.822 766.5,-525.822 770,-515.822 763,-515.822"/>
</g>
<!-- 12 -->
<g id="node4" class="node"><defs>
<linearGradient id="l_3" gradientUnits="userSpaceOnUse" x1="457.5" y1="-208" x2="457.5" y2="-244">
<stop offset="0" style="stop-color:#ffffbb;stop-opacity:1.;"/>
<stop offset="1" style="stop-color:#ffffee;stop-opacity:1.;"/>
</linearGradient>
</defs>
<polygon fill="url(#l_3)" stroke="black" points="496.5,-244 418.5,-244 418.5,-208 496.5,-208 496.5,-244"/>
<text text-anchor="start" x="428.5" y="-224.2" font-family="Arial" font-weight="bold" font-style="italic" font-size="11.00" fill="black"><a fill="navy" href="../reference/Equipment/Equipment.html" target="_parent">Equipment</a></text>
</g>
<!-- 27 -->
<g id="node10" class="node"><defs>
<linearGradient id="l_4" gradientUnits="userSpaceOnUse" x1="51.5" y1="-125" x2="51.5" y2="-161">
<stop offset="0" style="stop-color:#ffffbb;stop-opacity:1.;"/>
<stop offset="1" style="stop-color:#ffffee;stop-opacity:1.;"/>
</linearGradient>
</defs>
<polygon fill="url(#l_4)" stroke="black" points="103,-161 0,-161 0,-125 103,-125 103,-161"/>
<text text-anchor="start" x="10.5" y="-141.2" font-family="Arial" font-weight="bold" font-size="11.00" fill="black"><a fill="navy" href="../reference/Equipment/DryingChamber.html" target="_parent">DryingChamber</a></text>
</g>
<!-- 12&#45;&gt;27 -->
<g id="edge2" class="edge"><path fill="none" stroke="#000000" d="M406.027,-225.446C342.858,-224.672 233.105,-219.013 143.5,-192 123.707,-186.033 103.174,-175.771 86.54,-166.264"/>
<polygon fill="#000000" stroke="#000000" points="406.398,-225.449 412.429,-221.495 418.398,-225.542 412.367,-229.495 406.398,-225.449"/>
<polygon fill="#000000" stroke="#000000" points="77.7299,-161.091 88.6319,-162.274 82.0418,-163.623 86.3536,-166.154 86.3536,-166.154 86.3536,-166.154 82.0418,-163.623 84.0753,-170.035 77.7299,-161.091 77.7299,-161.091"/>
<text text-anchor="start" x="146" y="-181.5" font-family="Arial" font-size="10.00" fill="black"><a fill="navy" href="../reference/Equipment/Equipment.html#dexpi-equipment-equipment-dryingchambers" target="_parent">DryingChambers</a></text>
<text text-anchor="start" x="69.7299" y="-164.091" font-family="Arial" font-size="10.00" fill="black">*</text>
<text text-anchor="start" x="389.398" y="-226.542" font-family="Arial" font-size="10.00" fill="black">0..1</text>
</g>
<!-- 30 -->
<g id="node11" class="node"><defs>
<linearGradient id="l_5" gradientUnits="userSpaceOnUse" x1="155.5" y1="-125" x2="155.5" y2="-161">
<stop offset="0" style="stop-color:#ffffbb;stop-opacity:1.;"/>
<stop offset="1" style="stop-color:#ffffee;stop-opacity:1.;"/>
</linearGradient>
</defs>
<polygon fill="url(#l_5)" stroke="black" points="189.5,-161 121.5,-161 121.5,-125 189.5,-125 189.5,-161"/>
<text text-anchor="start" x="131.5" y="-141.2" font-family="Arial" font-weight="bold" font-size="11.00" fill="black"><a fill="navy" href="../reference/Equipment/GearBox.html" target="_parent">GearBox</a></text>
</g>
<!-- 12&#45;&gt;30 -->
<g id="edge3" class="edge"><path fill="none" stroke="#000000" d="M406.201,-219.816C366.621,-214.972 310.82,-206.294 263.5,-192 241.05,-185.218 217.118,-174.924 197.503,-165.606"/>
<polygon fill="#000000" stroke="#000000" points="406.275,-219.824 412.702,-216.553 418.193,-221.227 411.767,-224.498 406.275,-219.824"/>
<polygon fill="#000000" stroke="#000000" points="188.246,-161.129 199.207,-161.432 192.747,-163.306 197.248,-165.483 197.248,-165.483 197.248,-165.483 192.747,-163.306 195.289,-169.534 188.246,-161.129 188.246,-161.129"/>
<text text-anchor="start" x="266" y="-181.5" font-family="Arial" font-size="10.00" fill="black"><a fill="navy" href="../reference/Equipment/Equipment.html#dexpi-equipment-equipment-gearboxes" target="_parent">GearBoxes</a></text>
<text text-anchor="start" x="180.246" y="-164.129" font-family="Arial" font-size="10.00" fill="black">*</text>
<text text-anchor="start" x="389.193" y="-211.227" font-family="Arial" font-size="10.00" fill="black">0..1</text>
</g>
<!-- 33 -->
<g id="node12" class="node"><defs>
<linearGradient id="l_6" gradientUnits="userSpaceOnUse" x1="270.5" y1="-125" x2="270.5" y2="-161">
<stop offset="0" style="stop-color:#ffffbb;stop-opacity:1.;"/>
<stop offset="1" style="stop-color:#ffffee;stop-opacity:1.;"/>
</linearGradient>
</defs>
<polygon fill="url(#l_6)" stroke="black" points="333.5,-161 207.5,-161 207.5,-125 333.5,-125 333.5,-161"/>
<text text-anchor="start" x="217.5" y="-141.2" font-family="Arial" font-weight="bold" font-size="11.00" fill="black"><a fill="navy" href="../reference/Equipment/MotorAsComponent.html" target="_parent">MotorAsComponent</a></text>
</g>
<!-- 12&#45;&gt;33 -->
<g id="edge4" class="edge"><path fill="none" stroke="#000000" d="M406.67,-213.044C387.398,-207.7 365.526,-200.637 346.5,-192 331.23,-185.068 315.388,-175.498 302.145,-166.726"/>
<polygon fill="#000000" stroke="#000000" points="406.692,-213.049 413.521,-210.734 418.285,-216.147 411.456,-218.463 406.692,-213.049"/>
<polygon fill="#000000" stroke="#000000" points="293.85,-161.112 304.654,-162.99 297.991,-163.914 302.132,-166.717 302.132,-166.717 302.132,-166.717 297.991,-163.914 299.61,-170.443 293.85,-161.112 293.85,-161.112"/>
<text text-anchor="start" x="349" y="-181.5" font-family="Arial" font-size="10.00" fill="black"><a fill="navy" href="../reference/Equipment/Equipment.html#dexpi-equipment-equipment-motors" target="_parent">Motors</a></text>
<text text-anchor="start" x="285.85" y="-164.112" font-family="Arial" font-size="10.00" fill="black">*</text>
<text text-anchor="start" x="389.285" y="-206.147" font-family="Arial" font-size="10.00" fill="black">0..1</text>
</g>
<!-- 36 -->
<g id="node13" class="node"><defs>
<linearGradient id="l_7" gradientUnits="userSpaceOnUse" x1="395.5" y1="-125" x2="395.5" y2="-161">
<stop offset="0" style="stop-color:#ffffbb;stop-opacity:1.;"/>
<stop offset="1" style="stop-color:#ffffee;stop-opacity:1.;"/>
</linearGradient>
</defs>
<polygon fill="url(#l_7)" stroke="black" points="439,-161 352,-161 352,-125 439,-125 439,-161"/>
<text text-anchor="start" x="362.5" y="-141.2" font-family="Arial" font-weight="bold" font-size="11.00" fill="black"><a fill="navy" href="../reference/Equipment/SprayNozzle.html" target="_parent">SprayNozzle</a></text>
</g>
<!-- 12&#45;&gt;36 -->
<g id="edge5" class="edge"><path fill="none" stroke="#000000" d="M407.357,-209.548C399.867,-205.067 393.12,-199.33 388.5,-192 384.594,-185.802 384.151,-178.272 385.269,-171.033"/>
<polygon fill="#000000" stroke="#000000" points="407.588,-209.664 414.747,-208.802 418.297,-215.08 411.137,-215.942 407.588,-209.664"/>
<polygon fill="#000000" stroke="#000000" points="387.69,-161.16 389.678,-171.944 386.499,-166.016 385.308,-170.873 385.308,-170.873 385.308,-170.873 386.499,-166.016 380.937,-169.801 387.69,-161.16 387.69,-161.16"/>
<text text-anchor="start" x="391" y="-181.5" font-family="Arial" font-size="10.00" fill="black"><a fill="navy" href="../reference/Equipment/Equipment.html#dexpi-equipment-equipment-spraynozzles" target="_parent">SprayNozzles</a></text>
<text text-anchor="start" x="379.69" y="-164.16" font-family="Arial" font-size="10.00" fill="black">*</text>
<text text-anchor="start" x="406.297" y="-205.08" font-family="Arial" font-size="10.00" fill="black">0..1</text>
</g>
<!-- 18&#45;inner&#45;node -->
<!-- 12&#45;&gt;18&#45;inner&#45;node -->
<g id="edge12" class="edge"><path fill="none" stroke="black" d="M457.5,-197.649C457.5,-174.987 457.5,-146.163 457.5,-144.116L457.5,-141.931"/>
<polygon fill="none" stroke="black" points="454,-197.822 457.5,-207.822 461,-197.822 454,-197.822"/>
</g>
<!-- 13 -->
<g id="node5" class="node"><defs>
<linearGradient id="l_8" gradientUnits="userSpaceOnUse" x1="341.5" y1="-360" x2="341.5" y2="-396">
<stop offset="0" style="stop-color:#ffffbb;stop-opacity:1.;"/>
<stop offset="1" style="stop-color:#ffffee;stop-opacity:1.;"/>
</linearGradient>
</defs>
<polygon fill="url(#l_8)" stroke="black" points="394,-396 289,-396 289,-360 394,-360 394,-396"/>
<text text-anchor="start" x="299.5" y="-376.2" font-family="Arial" font-weight="bold" font-style="italic" font-size="11.00" fill="black"><a fill="navy" href="../reference/Equipment/ChamberOwner.html" target="_parent">ChamberOwner</a></text>
</g>
<!-- 39 -->
<g id="node14" class="node"><defs>
<linearGradient id="l_9" gradientUnits="userSpaceOnUse" x1="277.5" y1="-277" x2="277.5" y2="-313">
<stop offset="0" style="stop-color:#ffffbb;stop-opacity:1.;"/>
<stop offset="1" style="stop-color:#ffffee;stop-opacity:1.;"/>
</linearGradient>
</defs>
<polygon fill="url(#l_9)" stroke="black" points="312,-313 243,-313 243,-277 312,-277 312,-313"/>
<text text-anchor="start" x="253.5" y="-293.2" font-family="Arial" font-weight="bold" font-size="11.00" fill="black"><a fill="navy" href="../reference/Equipment/Chamber.html" target="_parent">Chamber</a></text>
</g>
<!-- 13&#45;&gt;39 -->
<g id="edge6" class="edge"><path fill="none" stroke="#000000" d="M295.598,-352.09C292.972,-349.591 290.565,-346.896 288.5,-344 284.181,-337.945 281.527,-330.461 279.905,-323.22"/>
<polygon fill="#000000" stroke="#000000" points="295.859,-352.3 303.041,-352.955 305.199,-359.835 298.017,-359.181 295.859,-352.3"/>
<polygon fill="#000000" stroke="#000000" points="278.234,-313.318 284.336,-322.43 279.066,-318.248 279.898,-323.179 279.898,-323.179 279.898,-323.179 279.066,-318.248 275.461,-323.928 278.234,-313.318 278.234,-313.318"/>
<text text-anchor="start" x="291" y="-333.5" font-family="Arial" font-size="10.00" fill="black"><a fill="navy" href="../reference/Equipment/ChamberOwner.html#dexpi-equipment-chamberowner-chambers" target="_parent">Chambers</a></text>
<text text-anchor="start" x="270.234" y="-316.318" font-family="Arial" font-size="10.00" fill="black">*</text>
<text text-anchor="start" x="276.199" y="-349.835" font-family="Arial" font-size="10.00" fill="black">0..1</text>
</g>
<!-- 19&#45;inner&#45;node -->
<!-- 13&#45;&gt;19&#45;inner&#45;node -->
<g id="edge14" class="edge"><path fill="none" stroke="black" d="M341.5,-349.649C341.5,-326.987 341.5,-298.163 341.5,-296.116L341.64,-293.884"/>
<polygon fill="none" stroke="black" points="338,-349.822 341.5,-359.822 345,-349.822 338,-349.822"/>
</g>
<!-- 14 -->
<g id="node6" class="node"><defs>
<linearGradient id="l_10" gradientUnits="userSpaceOnUse" x1="457.5" y1="-360" x2="457.5" y2="-396">
<stop offset="0" style="stop-color:#ffffbb;stop-opacity:1.;"/>
<stop offset="1" style="stop-color:#ffffee;stop-opacity:1.;"/>
</linearGradient>
</defs>
<polygon fill="url(#l_10)" stroke="black" points="502.5,-396 412.5,-396 412.5,-360 502.5,-360 502.5,-396"/>
<text text-anchor="start" x="422.5" y="-376.2" font-family="Arial" font-weight="bold" font-style="italic" font-size="11.00" fill="black"><a fill="navy" href="../reference/Equipment/NozzleOwner.html" target="_parent">NozzleOwner</a></text>
</g>
<!-- 42 -->
<g id="node15" class="node"><defs>
<linearGradient id="l_11" gradientUnits="userSpaceOnUse" x1="402.5" y1="-277" x2="402.5" y2="-313">
<stop offset="0" style="stop-color:#ffffbb;stop-opacity:1.;"/>
<stop offset="1" style="stop-color:#ffffee;stop-opacity:1.;"/>
</linearGradient>
</defs>
<polygon fill="url(#l_11)" stroke="black" points="431,-313 374,-313 374,-277 431,-277 431,-313"/>
<text text-anchor="start" x="384.5" y="-293.2" font-family="Arial" font-weight="bold" font-size="11.00" fill="black"><a fill="navy" href="../reference/Equipment/Nozzle.html" target="_parent">Nozzle</a></text>
</g>
<!-- 14&#45;&gt;42 -->
<g id="edge7" class="edge"><path fill="none" stroke="#000000" d="M419.289,-351.384C417.147,-349.056 415.185,-346.592 413.5,-344 409.447,-337.763 406.878,-330.222 405.253,-322.983"/>
<polygon fill="#000000" stroke="#000000" points="419.431,-351.515 426.552,-352.651 428.242,-359.662 421.121,-358.525 419.431,-351.515"/>
<polygon fill="#000000" stroke="#000000" points="403.528,-313.118 409.683,-322.193 404.389,-318.043 405.251,-322.969 405.251,-322.969 405.251,-322.969 404.389,-318.043 400.818,-323.744 403.528,-313.118 403.528,-313.118"/>
<text text-anchor="start" x="415.5" y="-333.5" font-family="Arial" font-size="10.00" fill="black"><a fill="navy" href="../reference/Equipment/NozzleOwner.html#dexpi-equipment-nozzleowner-nozzles" target="_parent">Nozzles</a></text>
<text text-anchor="start" x="395.528" y="-316.118" font-family="Arial" font-size="10.00" fill="black">*</text>
<text text-anchor="start" x="399.242" y="-349.662" font-family="Arial" font-size="10.00" fill="black">0..1</text>
</g>
<!-- 20&#45;inner&#45;node -->
<!-- 14&#45;&gt;20&#45;inner&#45;node -->
<g id="edge16" class="edge"><path fill="none" stroke="black" d="M457.5,-349.649C457.5,-326.987 457.5,-298.163 457.5,-296.116L457.5,-293.951"/>
<polygon fill="none" stroke="black" points="454,-349.822 457.5,-359.822 461,-349.822 454,-349.822"/>
</g>
<!-- 15 -->
<g id="node7" class="node"><defs>
<linearGradient id="l_12" gradientUnits="userSpaceOnUse" x1="575.5" y1="-360" x2="575.5" y2="-396">
<stop offset="0" style="stop-color:#ffffbb;stop-opacity:1.;"/>
<stop offset="1" style="stop-color:#ffffee;stop-opacity:1.;"/>
</linearGradient>
</defs>
<polygon fill="url(#l_12)" stroke="black" points="630,-396 521,-396 521,-360 630,-360 630,-396"/>
<text text-anchor="start" x="531.5" y="-376.2" font-family="Arial" font-weight="bold" font-style="italic" font-size="11.00" fill="black"><a fill="navy" href="../reference/Equipment/TaggedPlantItem.html" target="_parent">TaggedPlantItem</a></text>
</g>
<!-- 21&#45;inner&#45;node -->
<!-- 15&#45;&gt;21&#45;inner&#45;node -->
<g id="edge18" class="edge"><path fill="none" stroke="black" d="M575.5,-349.649C575.5,-326.987 575.5,-298.163 575.5,-296.116L575.414,-293.951"/>
<polygon fill="none" stroke="black" points="572,-349.822 575.5,-359.822 579,-349.822 572,-349.822"/>
</g>
<!-- 16 -->
<g id="node8" class="node"><defs>
<linearGradient id="l_13" gradientUnits="userSpaceOnUse" x1="471.5" y1="-526" x2="471.5" y2="-562">
<stop offset="0" style="stop-color:#ffffbb;stop-opacity:1.;"/>
<stop offset="1" style="stop-color:#ffffee;stop-opacity:1.;"/>
</linearGradient>
</defs>
<polygon fill="url(#l_13)" stroke="black" points="529,-562 414,-562 414,-526 529,-526 529,-562"/>
<text text-anchor="start" x="424.5" y="-542.2" font-family="Arial" font-weight="bold" font-style="italic" font-size="11.00" fill="black"><a fill="navy" href="../reference/DexpiModel/ConceptualObject.html" target="_parent">ConceptualObject</a></text>
</g>
<!-- 22&#45;inner&#45;node -->
<!-- 16&#45;&gt;22&#45;inner&#45;node -->
<g id="edge20" class="edge"><path fill="none" stroke="black" d="M471.5,-515.649C471.5,-492.987 471.5,-464.163 471.5,-462.116L471.538,-459.879"/>
<polygon fill="none" stroke="black" points="468,-515.822 471.5,-525.822 475,-515.822 468,-515.822"/>
</g>
<!-- 17 -->
<g id="node9" class="node"><defs>
<linearGradient id="l_14" gradientUnits="userSpaceOnUse" x1="629.5" y1="-526" x2="629.5" y2="-562">
<stop offset="0" style="stop-color:#ffffbb;stop-opacity:1.;"/>
<stop offset="1" style="stop-color:#ffffee;stop-opacity:1.;"/>
</linearGradient>
</defs>
<polygon fill="url(#l_14)" stroke="black" points="701.5,-562 557.5,-562 557.5,-526 701.5,-526 701.5,-562"/>
<text text-anchor="start" x="567.5" y="-542.2" font-family="Arial" font-weight="bold" font-style="italic" font-size="11.00" fill="black"><a fill="navy" href="../reference/Customization/CustomAttributeOwner.html" target="_parent">CustomAttributeOwner</a></text>
</g>
<!-- 54 -->
<g id="node19" class="node"><defs>
<linearGradient id="l_15" gradientUnits="userSpaceOnUse" x1="544.5" y1="-443" x2="544.5" y2="-479">
<stop offset="0" style="stop-color:#ffffbb;stop-opacity:1.;"/>
<stop offset="1" style="stop-color:#ffffee;stop-opacity:1.;"/>
</linearGradient>
</defs>
<polygon fill="url(#l_15)" stroke="black" points="599,-479 490,-479 490,-443 599,-443 599,-479"/>
<text text-anchor="start" x="500.5" y="-459.2" font-family="Arial" font-weight="bold" font-style="italic" font-size="11.00" fill="black"><a fill="navy" href="../reference/Customization/CustomAttribute.html" target="_parent">CustomAttribute</a></text>
</g>
<!-- 17&#45;&gt;54 -->
<g id="edge11" class="edge"><path fill="none" stroke="#000000" d="M552.949,-518.486C550.181,-515.933 547.67,-513.113 545.5,-510 541.402,-504.119 539.944,-496.772 539.815,-489.608"/>
<polygon fill="#000000" stroke="#000000" points="552.998,-518.523 560.196,-518.959 562.563,-525.77 555.365,-525.335 552.998,-518.523"/>
<polygon fill="#000000" stroke="#000000" points="540.425,-479.435 544.319,-489.687 540.126,-484.426 539.827,-489.417 539.827,-489.417 539.827,-489.417 540.126,-484.426 535.335,-489.148 540.425,-479.435 540.425,-479.435"/>
<text text-anchor="start" x="547.5" y="-499.5" font-family="Arial" font-size="10.00" fill="black"><a fill="navy" href="../reference/Customization/CustomAttributeOwner.html#dexpi-customization-customattributeowner-customattributes" target="_parent">CustomAttributes</a></text>
<text text-anchor="start" x="532.425" y="-482.435" font-family="Arial" font-size="10.00" fill="black">*</text>
<text text-anchor="start" x="533.563" y="-515.77" font-family="Arial" font-size="10.00" fill="black">0..1</text>
</g>
<!-- 23&#45;inner&#45;node -->
<!-- 17&#45;&gt;23&#45;inner&#45;node -->
<g id="edge22" class="edge"><path fill="none" stroke="black" d="M629.5,-515.649C629.5,-492.987 629.5,-464.163 629.5,-462.116L629.461,-459.941"/>
<polygon fill="none" stroke="black" points="626,-515.822 629.5,-525.822 633,-515.822 626,-515.822"/>
</g>
<!-- 45 -->
<g id="node16" class="node"><defs>
<linearGradient id="l_16" gradientUnits="userSpaceOnUse" x1="395.5" y1="-443" x2="395.5" y2="-479">
<stop offset="0" style="stop-color:#ffffbb;stop-opacity:1.;"/>
<stop offset="1" style="stop-color:#ffffee;stop-opacity:1.;"/>
</linearGradient>
</defs>
<polygon fill="url(#l_16)" stroke="black" points="452.5,-479 338.5,-479 338.5,-443 452.5,-443 452.5,-479"/>
<text text-anchor="start" x="348.5" y="-459.2" font-family="Arial" font-weight="bold" font-size="11.00" fill="black"><a fill="navy" href="../reference/DexpiModel/ConceptualModel.html" target="_parent">ConceptualModel</a></text>
</g>
<!-- 45&#45;&gt;15 -->
<g id="edge8" class="edge"><path fill="none" stroke="#000000" d="M400.324,-431.016C402.842,-423.86 406.673,-416.862 412.5,-412 444.518,-385.287 465.123,-402.682 510.934,-395.726"/>
<polygon fill="#000000" stroke="#000000" points="400.262,-431.253 402.602,-438.074 397.205,-442.857 394.865,-436.036 400.262,-431.253"/>
<polygon fill="#000000" stroke="#000000" points="520.773,-393.92 511.751,-400.152 515.856,-394.823 510.938,-395.726 510.938,-395.726 510.938,-395.726 515.856,-394.823 510.125,-391.3 520.773,-393.92 520.773,-393.92"/>
<text text-anchor="start" x="415" y="-416.5" font-family="Arial" font-size="10.00" fill="black"><a fill="navy" href="../reference/DexpiModel/ConceptualModel.html#dexpi-dexpimodel-conceptualmodel-taggedplantitems" target="_parent">TaggedPlantItems</a></text>
<text text-anchor="start" x="512.773" y="-396.92" font-family="Arial" font-size="10.00" fill="black">*</text>
<text text-anchor="start" x="368.205" y="-432.857" font-family="Arial" font-size="10.00" fill="black">0..1</text>
</g>
<!-- 48 -->
<g id="node17" class="node"><defs>
<linearGradient id="l_17" gradientUnits="userSpaceOnUse" x1="368.5" y1="-617.5" x2="368.5" y2="-653.5">
<stop offset="0" style="stop-color:#ffffbb;stop-opacity:1.;"/>
<stop offset="1" style="stop-color:#ffffee;stop-opacity:1.;"/>
</linearGradient>
</defs>
<polygon fill="url(#l_17)" stroke="black" points="443,-653.5 294,-653.5 294,-617.5 443,-617.5 443,-653.5"/>
<text text-anchor="start" x="304.5" y="-633.7" font-family="Arial" font-weight="bold" font-size="11.00" fill="black"><a fill="navy" href="../reference/Graphics/AttributeRepresentation.html" target="_parent">AttributeRepresentation</a></text>
</g>
<!-- 48&#45;&gt;16 -->
<g id="edge9" class="edge"><path fill="none" stroke="#000000" d="M388.359,-617.243C404.176,-603.5 426.493,-584.108 444.024,-568.875"/>
<polygon fill="#000000" stroke="#000000" points="451.702,-562.204 447.105,-572.159 447.927,-565.483 444.153,-568.763 444.153,-568.763 444.153,-568.763 447.927,-565.483 441.201,-565.366 451.702,-562.204 451.702,-562.204"/>
<text text-anchor="start" x="435" y="-582.5" font-family="Arial" font-size="10.00" fill="black"><a fill="navy" href="../reference/Graphics/AttributeRepresentation.html#dexpi-graphics-attributerepresentation-object" target="_parent">Object</a></text>
<text text-anchor="start" x="443.702" y="-565.204" font-family="Arial" font-size="10.00" fill="black"></text>
<text text-anchor="start" x="372.359" y="-607.243" font-family="Arial" font-size="10.00" fill="black">*</text>
</g>
<!-- 51 -->
<g id="node18" class="node"><defs>
<linearGradient id="l_18" gradientUnits="userSpaceOnUse" x1="529.5" y1="-617.5" x2="529.5" y2="-653.5">
<stop offset="0" style="stop-color:#ffffbb;stop-opacity:1.;"/>
<stop offset="1" style="stop-color:#ffffee;stop-opacity:1.;"/>
</linearGradient>
</defs>
<polygon fill="url(#l_18)" stroke="black" points="598,-653.5 461,-653.5 461,-617.5 598,-617.5 598,-653.5"/>
<text text-anchor="start" x="471.5" y="-633.7" font-family="Arial" font-weight="bold" font-size="11.00" fill="black"><a fill="navy" href="../reference/Graphics/RepresentationGroup.html" target="_parent">RepresentationGroup</a></text>
</g>
<!-- 51&#45;&gt;16 -->
<g id="edge10" class="edge"><path fill="none" stroke="#000000" d="M518.317,-617.243C509.812,-604.119 497.968,-585.843 488.322,-570.958"/>
<polygon fill="#000000" stroke="#000000" points="482.649,-562.204 491.863,-568.148 485.368,-566.399 488.087,-570.595 488.087,-570.595 488.087,-570.595 485.368,-566.399 484.311,-573.043 482.649,-562.204 482.649,-562.204"/>
<text text-anchor="start" x="504.5" y="-582.5" font-family="Arial" font-size="10.00" fill="black"><a fill="navy" href="../reference/Graphics/RepresentationGroup.html#dexpi-graphics-representationgroup-represents" target="_parent">Represents</a></text>
<text text-anchor="start" x="474.649" y="-565.204" font-family="Arial" font-size="10.00" fill="black"></text>
<text text-anchor="start" x="502.317" y="-607.243" font-family="Arial" font-size="10.00" fill="black">*</text>
</g>
<!-- 18&#45;inner&#45;node&#45;&gt;0 -->
<g id="edge13" class="edge"><path fill="none" stroke="black" d="M457.5,-141.931C457.5,-140.465 457.5,-115.824 457.5,-92.0179"/>
</g>
<!-- 19&#45;inner&#45;node&#45;&gt;12 -->
<g id="edge15" class="edge"><path fill="none" stroke="black" d="M341.64,-293.884C343.027,-292.739 354.434,-283.38 364.5,-277 383.235,-265.126 405.036,-253.306 422.819,-244.142"/>
</g>
<!-- 20&#45;inner&#45;node&#45;&gt;12 -->
<g id="edge17" class="edge"><path fill="none" stroke="black" d="M457.5,-293.951C457.5,-292.604 457.5,-263.522 457.5,-244.135"/>
</g>
<!-- 21&#45;inner&#45;node&#45;&gt;12 -->
<g id="edge19" class="edge"><path fill="none" stroke="black" d="M575.414,-293.951C573.042,-292.604 521.822,-263.522 487.677,-244.135"/>
</g>
<!-- 22&#45;inner&#45;node&#45;&gt;15 -->
<g id="edge21" class="edge"><path fill="none" stroke="black" d="M471.538,-459.879C471.92,-458.686 475.141,-448.959 480.5,-443 497.92,-423.629 522.388,-407.325 542.129,-396.02"/>
</g>
<!-- 23&#45;inner&#45;node&#45;&gt;15 -->
<g id="edge23" class="edge"><path fill="none" stroke="black" d="M629.461,-459.941C628.318,-458.226 602.391,-419.337 586.898,-396.098"/>
</g>
<!-- 24&#45;inner&#45;node&#45;&gt;15 -->
<g id="edge25" class="edge"><path fill="none" stroke="black" d="M766.362,-459.941C762.318,-458.226 670.615,-419.337 615.817,-396.098"/>
</g>
</g>
</svg>