<!DOCTYPE svg PUBLIC "-//W3C//DTD SVG 1.1//EN" "http://www.w3.org/Graphics/SVG/1.1/DTD/svg11.dtd">
<!-- Generated by graphviz version 2.38.0 (20140413.2041)
 --><!-- Title: G Pages: 1 --><svg xmlns="http://www.w3.org/2000/svg" xmlns:xlink="http://www.w3.org/1999/xlink" width="609pt" height="334pt" viewBox="0.00 0.00 609.00 334.00">
<g id="graph0" class="graph" transform="scale(1 1) rotate(0) translate(4 330)">
<!-- 0 -->
<g id="node1" class="node"><defs>
<linearGradient id="l_0" gradientUnits="userSpaceOnUse" x1="318" y1="-3.55271e-014" x2="318" y2="-77">
<stop offset="0" style="stop-color:#ffffbb;stop-opacity:1.;"/>
<stop offset="1" style="stop-color:#ffffee;stop-opacity:1.;"/>
</linearGradient>
</defs>
<polygon fill="url(#l_0)" stroke="black" points="439,-77 197,-77 197,-0 439,-0 439,-77"/>
<text text-anchor="start" x="271.5" y="-62.7" font-family="Arial" font-weight="bold" font-size="11.00" fill="black">BriquettingRoller</text>
<text text-anchor="start" x="207" y="-38.5" font-family="Arial" font-size="10.00" fill="black"><a fill="navy" href="../reference/Equipment/BriquettingRoller.html#dexpi-equipment-briquettingroller-diameter" target="_parent">Diameter</a>&#160;:</text>
<text text-anchor="start" x="339" y="-38.5" font-family="Arial" font-size="10.00" fill="black"><a fill="navy" href="../reference/PhysicalQuantities/NullableLength.html" target="_parent">NullableLength</a>&#160;[0..1]</text>
<text text-anchor="start" x="207" y="-23.5" font-family="Arial" font-size="10.00" fill="black"><a fill="navy" href="../reference/Equipment/BriquettingRoller.html#dexpi-equipment-briquettingroller-materialofconstructioncode" target="_parent">MaterialOfConstructionCode</a>&#160;:</text>
<text text-anchor="start" x="339" y="-23.5" font-family="Arial" font-size="10.00" fill="black"><a fill="navy" href="../reference/DataTypes/NullableString.html" target="_parent">NullableString</a>&#160;[0..1]</text>
<text text-anchor="start" x="207" y="-8.5" font-family="Arial" font-size="10.00" fill="black"><a fill="navy" href="../reference/Equipment/BriquettingRoller.html#dexpi-equipment-briquettingroller-stageidentifier" target="_parent">StageIdentifier</a>&#160;:</text>
<text text-anchor="start" x="339" y="-8.5" font-family="Arial" font-size="10.00" fill="black"><a fill="navy" href="../reference/DataTypes/NullableString.html" target="_parent">NullableString</a>&#160;[0..1]</text>
<polygon fill="black" stroke="black" points="439.0,-56.5 197.0,-56.5 197.0,-56.5 439.0,-56.5 439.0,-56.5"/>
</g>
<!-- 6 -->
<g id="node2" class="node"><defs>
<linearGradient id="l_1" gradientUnits="userSpaceOnUse" x1="361" y1="-207" x2="361" y2="-243">
<stop offset="0" style="stop-color:#ffffbb;stop-opacity:1.;"/>
<stop offset="1" style="stop-color:#ffffee;stop-opacity:1.;"/>
</linearGradient>
</defs>
<polygon fill="url(#l_1)" stroke="black" points="418.5,-243 303.5,-243 303.5,-207 418.5,-207 418.5,-243"/>
<text text-anchor="start" x="314" y="-223.2" font-family="Arial" font-weight="bold" font-style="italic" font-size="11.00" fill="black"><a fill="navy" href="../reference/DexpiModel/ConceptualObject.html" target="_parent">ConceptualObject</a></text>
</g>
<!-- 8&#45;inner&#45;node -->
<!-- 6&#45;&gt;8&#45;inner&#45;node -->
<g id="edge6" class="edge"><path fill="none" stroke="black" d="M361,-196.649C361,-173.987 361,-145.163 361,-143.116L360.997,-140.92"/>
<polygon fill="none" stroke="black" points="357.5,-196.822 361,-206.822 364.5,-196.822 357.5,-196.822"/>
</g>
<!-- 7 -->
<g id="node3" class="node"><defs>
<linearGradient id="l_2" gradientUnits="userSpaceOnUse" x1="529" y1="-207" x2="529" y2="-243">
<stop offset="0" style="stop-color:#ffffbb;stop-opacity:1.;"/>
<stop offset="1" style="stop-color:#ffffee;stop-opacity:1.;"/>
</linearGradient>
</defs>
<polygon fill="url(#l_2)" stroke="black" points="601,-243 457,-243 457,-207 601,-207 601,-243"/>
<text text-anchor="start" x="467" y="-223.2" font-family="Arial" font-weight="bold" font-style="italic" font-size="11.00" fill="black"><a fill="navy" href="../reference/Customization/CustomAttributeOwner.html" target="_parent">CustomAttributeOwner</a></text>
</g>
<!-- 24 -->
<g id="node8" class="node"><defs>
<linearGradient id="l_3" gradientUnits="userSpaceOnUse" x1="434" y1="-124" x2="434" y2="-160">
<stop offset="0" style="stop-color:#ffffbb;stop-opacity:1.;"/>
<stop offset="1" style="stop-color:#ffffee;stop-opacity:1.;"/>
</linearGradient>
</defs>
<polygon fill="url(#l_3)" stroke="black" points="488.5,-160 379.5,-160 379.5,-124 488.5,-124 488.5,-160"/>
<text text-anchor="start" x="390" y="-140.2" font-family="Arial" font-weight="bold" font-style="italic" font-size="11.00" fill="black"><a fill="navy" href="../reference/Customization/CustomAttribute.html" target="_parent">CustomAttribute</a></text>
</g>
<!-- 7&#45;&gt;24 -->
<g id="edge5" class="edge"><path fill="none" stroke="#000000" d="M455.066,-200.359C451.387,-197.576 447.987,-194.469 445,-191 440.071,-185.275 437.234,-177.784 435.632,-170.428"/>
<polygon fill="#000000" stroke="#000000" points="455.276,-200.495 462.486,-200.381 465.365,-206.992 458.155,-207.106 455.276,-200.495"/>
<polygon fill="#000000" stroke="#000000" points="434.101,-160.317 440.048,-169.53 434.85,-165.26 435.598,-170.204 435.598,-170.204 435.598,-170.204 434.85,-165.26 431.149,-170.878 434.101,-160.317 434.101,-160.317"/>
<text text-anchor="start" x="447" y="-180.5" font-family="Arial" font-size="10.00" fill="black"><a fill="navy" href="../reference/Customization/CustomAttributeOwner.html#dexpi-customization-customattributeowner-customattributes" target="_parent">CustomAttributes</a></text>
<text text-anchor="start" x="426.101" y="-163.317" font-family="Arial" font-size="10.00" fill="black">*</text>
<text text-anchor="start" x="436.365" y="-196.992" font-family="Arial" font-size="10.00" fill="black">0..1</text>
</g>
<!-- 9&#45;inner&#45;node -->
<!-- 7&#45;&gt;9&#45;inner&#45;node -->
<g id="edge8" class="edge"><path fill="none" stroke="black" d="M529,-196.649C529,-173.987 529,-145.163 529,-143.116L528.949,-140.972"/>
<polygon fill="none" stroke="black" points="525.5,-196.822 529,-206.822 532.5,-196.822 525.5,-196.822"/>
</g>
<!-- 12 -->
<g id="node4" class="node"><defs>
<linearGradient id="l_4" gradientUnits="userSpaceOnUse" x1="93" y1="-124" x2="93" y2="-160">
<stop offset="0" style="stop-color:#ffffbb;stop-opacity:1.;"/>
<stop offset="1" style="stop-color:#ffffee;stop-opacity:1.;"/>
</linearGradient>
</defs>
<polygon fill="url(#l_4)" stroke="black" points="186,-160 0,-160 0,-124 186,-124 186,-160"/>
<text text-anchor="start" x="10" y="-140.2" font-family="Arial" font-weight="bold" font-size="11.00" fill="black"><a fill="navy" href="../reference/Equipment/RotatingPressureAgglomerator.html" target="_parent">RotatingPressureAgglomerator</a></text>
</g>
<!-- 12&#45;&gt;0 -->
<g id="edge1" class="edge"><path fill="none" stroke="#000000" d="M132.61,-117.678C147.275,-109.437 164.183,-100.389 180,-93 188.73,-88.9218 197.864,-84.8904 207.096,-80.9796"/>
<polygon fill="#000000" stroke="#000000" points="132.318,-117.845 129.082,-124.29 121.889,-123.782 125.124,-117.337 132.318,-117.845"/>
<polygon fill="#000000" stroke="#000000" points="216.349,-77.1118 208.858,-85.1204 211.736,-79.0402 207.123,-80.9686 207.123,-80.9686 207.123,-80.9686 211.736,-79.0402 205.387,-76.8167 216.349,-77.1118 216.349,-77.1118"/>
<text text-anchor="start" x="182.5" y="-97.5" font-family="Arial" font-size="10.00" fill="black"><a fill="navy" href="../reference/Equipment/RotatingPressureAgglomerator.html#dexpi-equipment-rotatingpressureagglomerator-briquettingrollers" target="_parent">BriquettingRollers</a></text>
<text text-anchor="start" x="208.349" y="-80.1118" font-family="Arial" font-size="10.00" fill="black">*</text>
<text text-anchor="start" x="92.889" y="-113.782" font-family="Arial" font-size="10.00" fill="black">0..1</text>
</g>
<!-- 15 -->
<g id="node5" class="node"><defs>
<linearGradient id="l_5" gradientUnits="userSpaceOnUse" x1="270" y1="-124" x2="270" y2="-160">
<stop offset="0" style="stop-color:#ffffbb;stop-opacity:1.;"/>
<stop offset="1" style="stop-color:#ffffee;stop-opacity:1.;"/>
</linearGradient>
</defs>
<polygon fill="url(#l_5)" stroke="black" points="336,-160 204,-160 204,-124 336,-124 336,-160"/>
<text text-anchor="start" x="214" y="-140.2" font-family="Arial" font-weight="bold" font-size="11.00" fill="black"><a fill="navy" href="../reference/Equipment/CustomAgglomerator.html" target="_parent">CustomAgglomerator</a></text>
</g>
<!-- 15&#45;&gt;0 -->
<g id="edge2" class="edge"><path fill="none" stroke="#000000" d="M264.131,-111.617C263.97,-105.308 264.679,-98.7992 267,-93 268.016,-90.4628 269.215,-87.9775 270.561,-85.5531"/>
<polygon fill="#000000" stroke="#000000" points="264.177,-112.06 268.787,-117.606 265.44,-123.994 260.831,-118.448 264.177,-112.06"/>
<polygon fill="#000000" stroke="#000000" points="276.007,-77.0562 274.399,-87.9035 273.309,-81.2657 270.611,-85.4751 270.611,-85.4751 270.611,-85.4751 273.309,-81.2657 266.822,-83.0467 276.007,-77.0562 276.007,-77.0562"/>
<text text-anchor="start" x="269.5" y="-97.5" font-family="Arial" font-size="10.00" fill="black"><a fill="navy" href="../reference/Equipment/CustomAgglomerator.html#dexpi-equipment-customagglomerator-briquettingrollers" target="_parent">BriquettingRollers</a></text>
<text text-anchor="start" x="268.007" y="-80.0562" font-family="Arial" font-size="10.00" fill="black">*</text>
<text text-anchor="start" x="236.44" y="-113.994" font-family="Arial" font-size="10.00" fill="black">0..1</text>
</g>
<!-- 18 -->
<g id="node6" class="node"><defs>
<linearGradient id="l_6" gradientUnits="userSpaceOnUse" x1="281" y1="-290" x2="281" y2="-326">
<stop offset="0" style="stop-color:#ffffbb;stop-opacity:1.;"/>
<stop offset="1" style="stop-color:#ffffee;stop-opacity:1.;"/>
</linearGradient>
</defs>
<polygon fill="url(#l_6)" stroke="black" points="355.5,-326 206.5,-326 206.5,-290 355.5,-290 355.5,-326"/>
<text text-anchor="start" x="217" y="-306.2" font-family="Arial" font-weight="bold" font-size="11.00" fill="black"><a fill="navy" href="../reference/Graphics/AttributeRepresentation.html" target="_parent">AttributeRepresentation</a></text>
</g>
<!-- 18&#45;&gt;6 -->
<g id="edge3" class="edge"><path fill="none" stroke="#000000" d="M297.966,-289.822C309.315,-278.331 324.416,-263.041 336.993,-250.307"/>
<polygon fill="#000000" stroke="#000000" points="344.059,-243.153 340.233,-253.43 340.545,-246.711 337.031,-250.268 337.031,-250.268 337.031,-250.268 340.545,-246.711 333.83,-247.106 344.059,-243.153 344.059,-243.153"/>
<text text-anchor="start" x="331.5" y="-263.5" font-family="Arial" font-size="10.00" fill="black"><a fill="navy" href="../reference/Graphics/AttributeRepresentation.html#dexpi-graphics-attributerepresentation-object" target="_parent">Object</a></text>
<text text-anchor="start" x="336.059" y="-246.153" font-family="Arial" font-size="10.00" fill="black"></text>
<text text-anchor="start" x="281.966" y="-279.822" font-family="Arial" font-size="10.00" fill="black">*</text>
</g>
<!-- 21 -->
<g id="node7" class="node"><defs>
<linearGradient id="l_7" gradientUnits="userSpaceOnUse" x1="442" y1="-290" x2="442" y2="-326">
<stop offset="0" style="stop-color:#ffffbb;stop-opacity:1.;"/>
<stop offset="1" style="stop-color:#ffffee;stop-opacity:1.;"/>
</linearGradient>
</defs>
<polygon fill="url(#l_7)" stroke="black" points="510.5,-326 373.5,-326 373.5,-290 510.5,-290 510.5,-326"/>
<text text-anchor="start" x="384" y="-306.2" font-family="Arial" font-weight="bold" font-size="11.00" fill="black"><a fill="navy" href="../reference/Graphics/RepresentationGroup.html" target="_parent">RepresentationGroup</a></text>
</g>
<!-- 21&#45;&gt;6 -->
<g id="edge4" class="edge"><path fill="none" stroke="#000000" d="M424.822,-289.822C413.331,-278.331 398.041,-263.041 385.307,-250.307"/>
<polygon fill="#000000" stroke="#000000" points="378.153,-243.153 388.406,-247.042 381.689,-246.689 385.224,-250.224 385.224,-250.224 385.224,-250.224 381.689,-246.689 382.042,-253.406 378.153,-243.153 378.153,-243.153"/>
<text text-anchor="start" x="411" y="-263.5" font-family="Arial" font-size="10.00" fill="black"><a fill="navy" href="../reference/Graphics/RepresentationGroup.html#dexpi-graphics-representationgroup-represents" target="_parent">Represents</a></text>
<text text-anchor="start" x="370.153" y="-246.153" font-family="Arial" font-size="10.00" fill="black"></text>
<text text-anchor="start" x="408.822" y="-279.822" font-family="Arial" font-size="10.00" fill="black">*</text>
</g>
<!-- 8&#45;inner&#45;node&#45;&gt;0 -->
<g id="edge7" class="edge"><path fill="none" stroke="black" d="M360.997,-140.92C360.929,-139.269 359.716,-112.56 352,-93 349.9,-87.6765 347.25,-82.3084 344.361,-77.1332"/>
</g>
<!-- 9&#45;inner&#45;node&#45;&gt;0 -->
<g id="edge9" class="edge"><path fill="none" stroke="black" d="M528.949,-140.972C527.903,-140.391 510.947,-130.992 497,-124 465.511,-108.214 430.542,-91.5231 399.927,-77.1821"/>
</g>
</g>
</svg>