<!DOCTYPE svg PUBLIC "-//W3C//DTD SVG 1.1//EN" "http://www.w3.org/Graphics/SVG/1.1/DTD/svg11.dtd">
<!-- Generated by graphviz version 2.38.0 (20140413.2041)
 --><!-- Title: G Pages: 1 --><svg xmlns="http://www.w3.org/2000/svg" xmlns:xlink="http://www.w3.org/1999/xlink" width="2075pt" height="514pt" viewBox="0.00 0.00 2074.50 514.00">
<g id="graph0" class="graph" transform="scale(1 1) rotate(0) translate(4 510)">
<!-- 0 -->
<g id="node1" class="node"><defs>
<linearGradient id="l_0" gradientUnits="userSpaceOnUse" x1="1030.5" y1="-1.42109e-013" x2="1030.5" y2="-257">
<stop offset="0" style="stop-color:#ffffbb;stop-opacity:1.;"/>
<stop offset="1" style="stop-color:#ffffee;stop-opacity:1.;"/>
</linearGradient>
</defs>
<polygon fill="url(#l_0)" stroke="black" points="1206,-257 855,-257 855,-0 1206,-0 1206,-257"/>
<text text-anchor="start" x="1006.5" y="-242.7" font-family="Arial" font-weight="bold" font-size="11.00" fill="black">Chamber</text>
<text text-anchor="start" x="865.5" y="-218.5" font-family="Arial" font-size="10.00" fill="black"><a fill="navy" href="../reference/Equipment/Chamber.html#dexpi-equipment-chamber-chamberdescription" target="_parent">ChamberDescription</a>&#160;:</text>
<text text-anchor="start" x="1036.5" y="-218.5" font-family="Arial" font-size="10.00" fill="black"><a fill="navy" href="../reference/DataTypes/MultiLanguageString.html" target="_parent">MultiLanguageString</a>&#160;[0..1]</text>
<text text-anchor="start" x="865.5" y="-203.5" font-family="Arial" font-size="10.00" fill="black"><a fill="navy" href="../reference/Equipment/Chamber.html#dexpi-equipment-chamber-chamberfunction" target="_parent">ChamberFunction</a>&#160;:</text>
<text text-anchor="start" x="1036.5" y="-203.5" font-family="Arial" font-size="10.00" fill="black"><a fill="navy" href="../reference/Enumerations/ChamberFunctionClassification.html" target="_parent">ChamberFunctionClassification</a>&#160;[0..1]</text>
<text text-anchor="start" x="865.5" y="-188.5" font-family="Arial" font-size="10.00" fill="black"><a fill="navy" href="../reference/Equipment/Chamber.html#dexpi-equipment-chamber-chamberfunctionrepresentation" target="_parent">ChamberFunctionRepresentation</a>&#160;:</text>
<text text-anchor="start" x="1036.5" y="-188.5" font-family="Arial" font-size="10.00" fill="black"><a fill="navy" href="../reference/DataTypes/NullableString.html" target="_parent">NullableString</a>&#160;[0..1]</text>
<text text-anchor="start" x="865.5" y="-173.5" font-family="Arial" font-size="10.00" fill="black"><a fill="navy" href="../reference/Equipment/Chamber.html#dexpi-equipment-chamber-height" target="_parent">Height</a>&#160;:</text>
<text text-anchor="start" x="1036.5" y="-173.5" font-family="Arial" font-size="10.00" fill="black"><a fill="navy" href="../reference/PhysicalQuantities/NullableLength.html" target="_parent">NullableLength</a>&#160;[0..1]</text>
<text text-anchor="start" x="865.5" y="-158.5" font-family="Arial" font-size="10.00" fill="black"><a fill="navy" href="../reference/Equipment/Chamber.html#dexpi-equipment-chamber-insidediameter" target="_parent">InsideDiameter</a>&#160;:</text>
<text text-anchor="start" x="1036.5" y="-158.5" font-family="Arial" font-size="10.00" fill="black"><a fill="navy" href="../reference/PhysicalQuantities/NullableLength.html" target="_parent">NullableLength</a>&#160;[0..1]</text>
<text text-anchor="start" x="865.5" y="-143.5" font-family="Arial" font-size="10.00" fill="black"><a fill="navy" href="../reference/Equipment/Chamber.html#dexpi-equipment-chamber-length" target="_parent">Length</a>&#160;:</text>
<text text-anchor="start" x="1036.5" y="-143.5" font-family="Arial" font-size="10.00" fill="black"><a fill="navy" href="../reference/PhysicalQuantities/NullableLength.html" target="_parent">NullableLength</a>&#160;[0..1]</text>
<text text-anchor="start" x="865.5" y="-128.5" font-family="Arial" font-size="10.00" fill="black"><a fill="navy" href="../reference/Equipment/Chamber.html#dexpi-equipment-chamber-lowerlimitdesignpressure" target="_parent">LowerLimitDesignPressure</a>&#160;:</text>
<text text-anchor="start" x="1036.5" y="-128.5" font-family="Arial" font-size="10.00" fill="black"><a fill="navy" href="../reference/PhysicalQuantities/NullablePressureGauge.html" target="_parent">NullablePressureGauge</a>&#160;[0..1]</text>
<text text-anchor="start" x="865.5" y="-113.5" font-family="Arial" font-size="10.00" fill="black"><a fill="navy" href="../reference/Equipment/Chamber.html#dexpi-equipment-chamber-lowerlimitdesigntemperature" target="_parent">LowerLimitDesignTemperature</a>&#160;:</text>
<text text-anchor="start" x="1036.5" y="-113.5" font-family="Arial" font-size="10.00" fill="black"><a fill="navy" href="../reference/PhysicalQuantities/NullableTemperature.html" target="_parent">NullableTemperature</a>&#160;[0..1]</text>
<text text-anchor="start" x="865.5" y="-98.5" font-family="Arial" font-size="10.00" fill="black"><a fill="navy" href="../reference/Equipment/Chamber.html#dexpi-equipment-chamber-materialofconstructioncode" target="_parent">MaterialOfConstructionCode</a>&#160;:</text>
<text text-anchor="start" x="1036.5" y="-98.5" font-family="Arial" font-size="10.00" fill="black"><a fill="navy" href="../reference/DataTypes/NullableString.html" target="_parent">NullableString</a>&#160;[0..1]</text>
<text text-anchor="start" x="865.5" y="-83.5" font-family="Arial" font-size="10.00" fill="black"><a fill="navy" href="../reference/Equipment/Chamber.html#dexpi-equipment-chamber-nominaldiameter" target="_parent">NominalDiameter</a>&#160;:</text>
<text text-anchor="start" x="1036.5" y="-83.5" font-family="Arial" font-size="10.00" fill="black"><a fill="navy" href="../reference/PhysicalQuantities/NullableLength.html" target="_parent">NullableLength</a>&#160;[0..1]</text>
<text text-anchor="start" x="865.5" y="-68.5" font-family="Arial" font-size="10.00" fill="black"><a fill="navy" href="../reference/Equipment/Chamber.html#dexpi-equipment-chamber-nominaldiametertyperepresentation" target="_parent">NominalDiameterTypeRepresentation</a>&#160;:</text>
<text text-anchor="start" x="1036.5" y="-68.5" font-family="Arial" font-size="10.00" fill="black"><a fill="navy" href="../reference/DataTypes/NullableString.html" target="_parent">NullableString</a>&#160;[0..1]</text>
<text text-anchor="start" x="865.5" y="-53.5" font-family="Arial" font-size="10.00" fill="black"><a fill="navy" href="../reference/Equipment/Chamber.html#dexpi-equipment-chamber-subtagname" target="_parent">SubTagName</a>&#160;:</text>
<text text-anchor="start" x="1036.5" y="-53.5" font-family="Arial" font-size="10.00" fill="black"><a fill="navy" href="../reference/DataTypes/NullableString.html" target="_parent">NullableString</a>&#160;[0..1]</text>
<text text-anchor="start" x="865.5" y="-38.5" font-family="Arial" font-size="10.00" fill="black"><a fill="navy" href="../reference/Equipment/Chamber.html#dexpi-equipment-chamber-upperlimitdesignpressure" target="_parent">UpperLimitDesignPressure</a>&#160;:</text>
<text text-anchor="start" x="1036.5" y="-38.5" font-family="Arial" font-size="10.00" fill="black"><a fill="navy" href="../reference/PhysicalQuantities/NullablePressureGauge.html" target="_parent">NullablePressureGauge</a>&#160;[0..1]</text>
<text text-anchor="start" x="865.5" y="-23.5" font-family="Arial" font-size="10.00" fill="black"><a fill="navy" href="../reference/Equipment/Chamber.html#dexpi-equipment-chamber-upperlimitdesigntemperature" target="_parent">UpperLimitDesignTemperature</a>&#160;:</text>
<text text-anchor="start" x="1036.5" y="-23.5" font-family="Arial" font-size="10.00" fill="black"><a fill="navy" href="../reference/PhysicalQuantities/NullableTemperature.html" target="_parent">NullableTemperature</a>&#160;[0..1]</text>
<text text-anchor="start" x="865.5" y="-8.5" font-family="Arial" font-size="10.00" fill="black"><a fill="navy" href="../reference/Equipment/Chamber.html#dexpi-equipment-chamber-width" target="_parent">Width</a>&#160;:</text>
<text text-anchor="start" x="1036.5" y="-8.5" font-family="Arial" font-size="10.00" fill="black"><a fill="navy" href="../reference/PhysicalQuantities/NullableLength.html" target="_parent">NullableLength</a>&#160;[0..1]</text>
<polygon fill="black" stroke="black" points="1206.0,-236.5 855.0,-236.5 855.0,-236.5 1206.0,-236.5 1206.0,-236.5"/>
</g>
<!-- 22 -->
<g id="node2" class="node"><defs>
<linearGradient id="l_1" gradientUnits="userSpaceOnUse" x1="1826.5" y1="-387" x2="1826.5" y2="-423">
<stop offset="0" style="stop-color:#ffffbb;stop-opacity:1.;"/>
<stop offset="1" style="stop-color:#ffffee;stop-opacity:1.;"/>
</linearGradient>
</defs>
<polygon fill="url(#l_1)" stroke="black" points="1884,-423 1769,-423 1769,-387 1884,-387 1884,-423"/>
<text text-anchor="start" x="1779.5" y="-403.2" font-family="Arial" font-weight="bold" font-style="italic" font-size="11.00" fill="black"><a fill="navy" href="../reference/DexpiModel/ConceptualObject.html" target="_parent">ConceptualObject</a></text>
</g>
<!-- 24&#45;inner&#45;node -->
<!-- 22&#45;&gt;24&#45;inner&#45;node -->
<g id="edge19" class="edge"><path fill="none" stroke="black" d="M1826.5,-376.649C1826.5,-353.987 1826.5,-325.163 1826.5,-323.116L1826.47,-320.866"/>
<polygon fill="none" stroke="black" points="1823,-376.822 1826.5,-386.822 1830,-376.822 1823,-376.822"/>
</g>
<!-- 23 -->
<g id="node3" class="node"><defs>
<linearGradient id="l_2" gradientUnits="userSpaceOnUse" x1="1994.5" y1="-387" x2="1994.5" y2="-423">
<stop offset="0" style="stop-color:#ffffbb;stop-opacity:1.;"/>
<stop offset="1" style="stop-color:#ffffee;stop-opacity:1.;"/>
</linearGradient>
</defs>
<polygon fill="url(#l_2)" stroke="black" points="2066.5,-423 1922.5,-423 1922.5,-387 2066.5,-387 2066.5,-423"/>
<text text-anchor="start" x="1932.5" y="-403.2" font-family="Arial" font-weight="bold" font-style="italic" font-size="11.00" fill="black"><a fill="navy" href="../reference/Customization/CustomAttributeOwner.html" target="_parent">CustomAttributeOwner</a></text>
</g>
<!-- 79 -->
<g id="node21" class="node"><defs>
<linearGradient id="l_3" gradientUnits="userSpaceOnUse" x1="1899.5" y1="-304" x2="1899.5" y2="-340">
<stop offset="0" style="stop-color:#ffffbb;stop-opacity:1.;"/>
<stop offset="1" style="stop-color:#ffffee;stop-opacity:1.;"/>
</linearGradient>
</defs>
<polygon fill="url(#l_3)" stroke="black" points="1954,-340 1845,-340 1845,-304 1954,-304 1954,-340"/>
<text text-anchor="start" x="1855.5" y="-320.2" font-family="Arial" font-weight="bold" font-style="italic" font-size="11.00" fill="black"><a fill="navy" href="../reference/Customization/CustomAttribute.html" target="_parent">CustomAttribute</a></text>
</g>
<!-- 23&#45;&gt;79 -->
<g id="edge18" class="edge"><path fill="none" stroke="#000000" d="M1920.57,-380.359C1916.89,-377.576 1913.49,-374.469 1910.5,-371 1905.57,-365.275 1902.73,-357.784 1901.13,-350.428"/>
<polygon fill="#000000" stroke="#000000" points="1920.78,-380.495 1927.99,-380.381 1930.86,-386.992 1923.65,-387.106 1920.78,-380.495"/>
<polygon fill="#000000" stroke="#000000" points="1899.6,-340.317 1905.55,-349.53 1900.35,-345.26 1901.1,-350.204 1901.1,-350.204 1901.1,-350.204 1900.35,-345.26 1896.65,-350.878 1899.6,-340.317 1899.6,-340.317"/>
<text text-anchor="start" x="1912.5" y="-360.5" font-family="Arial" font-size="10.00" fill="black"><a fill="navy" href="../reference/Customization/CustomAttributeOwner.html#dexpi-customization-customattributeowner-customattributes" target="_parent">CustomAttributes</a></text>
<text text-anchor="start" x="1891.6" y="-343.317" font-family="Arial" font-size="10.00" fill="black">*</text>
<text text-anchor="start" x="1901.86" y="-376.992" font-family="Arial" font-size="10.00" fill="black">0..1</text>
</g>
<!-- 25&#45;inner&#45;node -->
<!-- 23&#45;&gt;25&#45;inner&#45;node -->
<g id="edge21" class="edge"><path fill="none" stroke="black" d="M1994.5,-376.649C1994.5,-353.987 1994.5,-325.163 1994.5,-323.116L1994.45,-320.966"/>
<polygon fill="none" stroke="black" points="1991,-376.822 1994.5,-386.822 1998,-376.822 1991,-376.822"/>
</g>
<!-- 28 -->
<g id="node4" class="node"><defs>
<linearGradient id="l_4" gradientUnits="userSpaceOnUse" x1="51.5" y1="-304" x2="51.5" y2="-340">
<stop offset="0" style="stop-color:#ffffbb;stop-opacity:1.;"/>
<stop offset="1" style="stop-color:#ffffee;stop-opacity:1.;"/>
</linearGradient>
</defs>
<polygon fill="url(#l_4)" stroke="black" points="103,-340 0,-340 0,-304 103,-304 103,-340"/>
<text text-anchor="start" x="10.5" y="-320.2" font-family="Arial" font-weight="bold" font-size="11.00" fill="black"><a fill="navy" href="../reference/Equipment/DryingChamber.html" target="_parent">DryingChamber</a></text>
</g>
<!-- 28&#45;&gt;0 -->
<g id="edge1" class="edge"><path fill="none" stroke="#000000" d="M103.135,-306.057C105.958,-305.338 108.76,-304.647 111.5,-304 363.628,-244.468 658.377,-191.372 844.732,-159.806"/>
<polygon fill="#000000" stroke="#000000" points="854.63,-158.133 845.52,-164.237 849.7,-158.966 844.77,-159.8 844.77,-159.8 844.77,-159.8 849.7,-158.966 844.02,-155.363 854.63,-158.133 854.63,-158.133"/>
<text text-anchor="start" x="238.5" y="-277.5" font-family="Arial" font-size="10.00" fill="black"><a fill="navy" href="../reference/Equipment/DryingChamber.html#dexpi-equipment-dryingchamber-chamber" target="_parent">Chamber</a></text>
<text text-anchor="start" x="833.63" y="-161.133" font-family="Arial" font-size="10.00" fill="black">0..1</text>
<text text-anchor="start" x="91.135" y="-307.057" font-family="Arial" font-size="10.00" fill="black">0..1</text>
</g>
<!-- 31 -->
<g id="node5" class="node"><defs>
<linearGradient id="l_5" gradientUnits="userSpaceOnUse" x1="203.5" y1="-304" x2="203.5" y2="-340">
<stop offset="0" style="stop-color:#ffffbb;stop-opacity:1.;"/>
<stop offset="1" style="stop-color:#ffffee;stop-opacity:1.;"/>
</linearGradient>
</defs>
<polygon fill="url(#l_5)" stroke="black" points="286,-340 121,-340 121,-304 286,-304 286,-340"/>
<text text-anchor="start" x="131.5" y="-320.2" font-family="Arial" font-weight="bold" font-size="11.00" fill="black"><a fill="navy" href="../reference/Equipment/SedimentalCentrifugeDrum.html" target="_parent">SedimentalCentrifugeDrum</a></text>
</g>
<!-- 31&#45;&gt;0 -->
<g id="edge2" class="edge"><path fill="none" stroke="#000000" d="M264.983,-303.914C299.688,-294.443 343.912,-282.664 383.5,-273 538.461,-235.172 715.336,-196.23 844.942,-168.475"/>
<polygon fill="#000000" stroke="#000000" points="854.974,-166.328 846.137,-172.821 850.085,-167.374 845.195,-168.42 845.195,-168.42 845.195,-168.42 850.085,-167.374 844.254,-164.02 854.974,-166.328 854.974,-166.328"/>
<text text-anchor="start" x="385.5" y="-277.5" font-family="Arial" font-size="10.00" fill="black"><a fill="navy" href="../reference/Equipment/SedimentalCentrifugeDrum.html#dexpi-equipment-sedimentalcentrifugedrum-chamber" target="_parent">Chamber</a></text>
<text text-anchor="start" x="833.974" y="-169.328" font-family="Arial" font-size="10.00" fill="black">0..1</text>
<text text-anchor="start" x="248.983" y="-293.914" font-family="Arial" font-size="10.00" fill="black">*</text>
</g>
<!-- 34 -->
<g id="node6" class="node"><defs>
<linearGradient id="l_6" gradientUnits="userSpaceOnUse" x1="347.5" y1="-304" x2="347.5" y2="-340">
<stop offset="0" style="stop-color:#ffffbb;stop-opacity:1.;"/>
<stop offset="1" style="stop-color:#ffffee;stop-opacity:1.;"/>
</linearGradient>
</defs>
<polygon fill="url(#l_6)" stroke="black" points="391,-340 304,-340 304,-304 391,-304 391,-340"/>
<text text-anchor="start" x="314.5" y="-320.2" font-family="Arial" font-weight="bold" font-size="11.00" fill="black"><a fill="navy" href="../reference/Equipment/SprayNozzle.html" target="_parent">SprayNozzle</a></text>
</g>
<!-- 34&#45;&gt;0 -->
<g id="edge3" class="edge"><path fill="none" stroke="#000000" d="M388.459,-303.904C412.661,-294.148 444.045,-282.089 472.5,-273 595.284,-233.78 735.841,-197.685 845.168,-171.506"/>
<polygon fill="#000000" stroke="#000000" points="854.98,-169.163 846.299,-175.862 850.117,-170.324 845.254,-171.485 845.254,-171.485 845.254,-171.485 850.117,-170.324 844.209,-167.109 854.98,-169.163 854.98,-169.163"/>
<text text-anchor="start" x="474.5" y="-277.5" font-family="Arial" font-size="10.00" fill="black"><a fill="navy" href="../reference/Equipment/SprayNozzle.html#dexpi-equipment-spraynozzle-chamber" target="_parent">Chamber</a></text>
<text text-anchor="start" x="833.98" y="-172.163" font-family="Arial" font-size="10.00" fill="black">0..1</text>
<text text-anchor="start" x="372.459" y="-293.904" font-family="Arial" font-size="10.00" fill="black">*</text>
</g>
<!-- 37 -->
<g id="node7" class="node"><defs>
<linearGradient id="l_7" gradientUnits="userSpaceOnUse" x1="437.5" y1="-304" x2="437.5" y2="-340">
<stop offset="0" style="stop-color:#ffffbb;stop-opacity:1.;"/>
<stop offset="1" style="stop-color:#ffffee;stop-opacity:1.;"/>
</linearGradient>
</defs>
<polygon fill="url(#l_7)" stroke="black" points="466,-340 409,-340 409,-304 466,-304 466,-340"/>
<text text-anchor="start" x="419.5" y="-320.2" font-family="Arial" font-weight="bold" font-size="11.00" fill="black"><a fill="navy" href="../reference/Equipment/Nozzle.html" target="_parent">Nozzle</a></text>
</g>
<!-- 37&#45;&gt;0 -->
<g id="edge4" class="edge"><path fill="none" stroke="#000000" d="M466.401,-307.655C469.453,-306.371 472.527,-305.128 475.5,-304 596.961,-257.914 736.468,-214.09 845.228,-181.887"/>
<polygon fill="#000000" stroke="#000000" points="854.99,-179.003 846.675,-186.152 850.195,-180.42 845.4,-181.836 845.4,-181.836 845.4,-181.836 850.195,-180.42 844.125,-177.521 854.99,-179.003 854.99,-179.003"/>
<text text-anchor="start" x="552.5" y="-277.5" font-family="Arial" font-size="10.00" fill="black"><a fill="navy" href="../reference/Equipment/Nozzle.html#dexpi-equipment-nozzle-chamber" target="_parent">Chamber</a></text>
<text text-anchor="start" x="833.99" y="-182.003" font-family="Arial" font-size="10.00" fill="black">0..1</text>
<text text-anchor="start" x="454.401" y="-308.655" font-family="Arial" font-size="10.00" fill="black">*</text>
</g>
<!-- 40 -->
<g id="node8" class="node"><defs>
<linearGradient id="l_8" gradientUnits="userSpaceOnUse" x1="530.5" y1="-304" x2="530.5" y2="-340">
<stop offset="0" style="stop-color:#ffffbb;stop-opacity:1.;"/>
<stop offset="1" style="stop-color:#ffffee;stop-opacity:1.;"/>
</linearGradient>
</defs>
<polygon fill="url(#l_8)" stroke="black" points="576.5,-340 484.5,-340 484.5,-304 576.5,-304 576.5,-340"/>
<text text-anchor="start" x="494.5" y="-320.2" font-family="Arial" font-weight="bold" font-size="11.00" fill="black"><a fill="navy" href="../reference/Equipment/AgitatorRotor.html" target="_parent">AgitatorRotor</a></text>
</g>
<!-- 40&#45;&gt;0 -->
<g id="edge5" class="edge"><path fill="none" stroke="#000000" d="M575.312,-303.837C635.976,-280.603 747.888,-237.741 845.56,-200.332"/>
<polygon fill="#000000" stroke="#000000" points="854.965,-196.73 847.236,-204.509 850.296,-198.518 845.627,-200.306 845.627,-200.306 845.627,-200.306 850.296,-198.518 844.017,-196.104 854.965,-196.73 854.965,-196.73"/>
<text text-anchor="start" x="653.5" y="-277.5" font-family="Arial" font-size="10.00" fill="black"><a fill="navy" href="../reference/Equipment/AgitatorRotor.html#dexpi-equipment-agitatorrotor-chamber" target="_parent">Chamber</a></text>
<text text-anchor="start" x="833.965" y="-199.73" font-family="Arial" font-size="10.00" fill="black">0..1</text>
<text text-anchor="start" x="559.312" y="-293.837" font-family="Arial" font-size="10.00" fill="black">*</text>
</g>
<!-- 43 -->
<g id="node9" class="node"><defs>
<linearGradient id="l_9" gradientUnits="userSpaceOnUse" x1="629.5" y1="-304" x2="629.5" y2="-340">
<stop offset="0" style="stop-color:#ffffbb;stop-opacity:1.;"/>
<stop offset="1" style="stop-color:#ffffee;stop-opacity:1.;"/>
</linearGradient>
</defs>
<polygon fill="url(#l_9)" stroke="black" points="664.5,-340 594.5,-340 594.5,-304 664.5,-304 664.5,-340"/>
<text text-anchor="start" x="604.5" y="-320.2" font-family="Arial" font-weight="bold" font-size="11.00" fill="black"><a fill="navy" href="../reference/Equipment/FilterUnit.html" target="_parent">FilterUnit</a></text>
</g>
<!-- 43&#45;&gt;0 -->
<g id="edge6" class="edge"><path fill="none" stroke="#000000" d="M664.735,-304.173C705.797,-284.564 776.806,-250.653 845.397,-217.897"/>
<polygon fill="#000000" stroke="#000000" points="854.618,-213.493 847.534,-221.863 850.106,-215.648 845.595,-217.803 845.595,-217.803 845.595,-217.803 850.106,-215.648 843.655,-213.742 854.618,-213.493 854.618,-213.493"/>
<text text-anchor="start" x="728.5" y="-277.5" font-family="Arial" font-size="10.00" fill="black"><a fill="navy" href="../reference/Equipment/FilterUnit.html#dexpi-equipment-filterunit-chamber" target="_parent">Chamber</a></text>
<text text-anchor="start" x="833.618" y="-216.493" font-family="Arial" font-size="10.00" fill="black">0..1</text>
<text text-anchor="start" x="648.735" y="-294.173" font-family="Arial" font-size="10.00" fill="black">*</text>
</g>
<!-- 46 -->
<g id="node10" class="node"><defs>
<linearGradient id="l_10" gradientUnits="userSpaceOnUse" x1="757.5" y1="-304" x2="757.5" y2="-340">
<stop offset="0" style="stop-color:#ffffbb;stop-opacity:1.;"/>
<stop offset="1" style="stop-color:#ffffee;stop-opacity:1.;"/>
</linearGradient>
</defs>
<polygon fill="url(#l_10)" stroke="black" points="832,-340 683,-340 683,-304 832,-304 832,-340"/>
<text text-anchor="start" x="693.5" y="-320.2" font-family="Arial" font-weight="bold" font-size="11.00" fill="black"><a fill="navy" href="../reference/Equipment/MixingElementAssembly.html" target="_parent">MixingElementAssembly</a></text>
</g>
<!-- 46&#45;&gt;0 -->
<g id="edge7" class="edge"><path fill="none" stroke="#000000" d="M782.208,-303.668C798.434,-292.286 821.299,-276.247 846.651,-258.463"/>
<polygon fill="#000000" stroke="#000000" points="854.965,-252.632 849.362,-262.059 850.871,-255.503 846.778,-258.375 846.778,-258.375 846.778,-258.375 850.871,-255.503 844.194,-254.691 854.965,-252.632 854.965,-252.632"/>
<text text-anchor="start" x="825.5" y="-277.5" font-family="Arial" font-size="10.00" fill="black"><a fill="navy" href="../reference/Equipment/MixingElementAssembly.html#dexpi-equipment-mixingelementassembly-chamber" target="_parent">Chamber</a></text>
<text text-anchor="start" x="833.965" y="-255.632" font-family="Arial" font-size="10.00" fill="black">0..1</text>
<text text-anchor="start" x="766.208" y="-293.668" font-family="Arial" font-size="10.00" fill="black">*</text>
</g>
<!-- 49 -->
<g id="node11" class="node"><defs>
<linearGradient id="l_11" gradientUnits="userSpaceOnUse" x1="913.5" y1="-304" x2="913.5" y2="-340">
<stop offset="0" style="stop-color:#ffffbb;stop-opacity:1.;"/>
<stop offset="1" style="stop-color:#ffffee;stop-opacity:1.;"/>
</linearGradient>
</defs>
<polygon fill="url(#l_11)" stroke="black" points="976.5,-340 850.5,-340 850.5,-304 976.5,-304 976.5,-340"/>
<text text-anchor="start" x="860.5" y="-320.2" font-family="Arial" font-weight="bold" font-size="11.00" fill="black"><a fill="navy" href="../reference/Equipment/CoolingTowerRotor.html" target="_parent">CoolingTowerRotor</a></text>
</g>
<!-- 49&#45;&gt;0 -->
<g id="edge8" class="edge"><path fill="none" stroke="#000000" d="M924.089,-303.668C930.061,-293.893 938.132,-280.684 947.174,-265.885"/>
<polygon fill="#000000" stroke="#000000" points="952.601,-257.001 951.227,-267.881 949.994,-261.268 947.387,-265.535 947.387,-265.535 947.387,-265.535 949.994,-261.268 943.547,-263.189 952.601,-257.001 952.601,-257.001"/>
<text text-anchor="start" x="944.5" y="-277.5" font-family="Arial" font-size="10.00" fill="black"><a fill="navy" href="../reference/Equipment/CoolingTowerRotor.html#dexpi-equipment-coolingtowerrotor-chamber" target="_parent">Chamber</a></text>
<text text-anchor="start" x="931.601" y="-260.001" font-family="Arial" font-size="10.00" fill="black">0..1</text>
<text text-anchor="start" x="908.089" y="-293.668" font-family="Arial" font-size="10.00" fill="black">*</text>
</g>
<!-- 52 -->
<g id="node12" class="node"><defs>
<linearGradient id="l_12" gradientUnits="userSpaceOnUse" x1="1030.5" y1="-304" x2="1030.5" y2="-340">
<stop offset="0" style="stop-color:#ffffbb;stop-opacity:1.;"/>
<stop offset="1" style="stop-color:#ffffee;stop-opacity:1.;"/>
</linearGradient>
</defs>
<polygon fill="url(#l_12)" stroke="black" points="1066,-340 995,-340 995,-304 1066,-304 1066,-340"/>
<text text-anchor="start" x="1005.5" y="-320.2" font-family="Arial" font-weight="bold" font-size="11.00" fill="black"><a fill="navy" href="../reference/Equipment/Displacer.html" target="_parent">Displacer</a></text>
</g>
<!-- 52&#45;&gt;0 -->
<g id="edge9" class="edge"><path fill="none" stroke="#000000" d="M1030.5,-303.668C1030.5,-294.168 1030.5,-281.422 1030.5,-267.126"/>
<polygon fill="#000000" stroke="#000000" points="1030.5,-257.001 1035,-267.001 1030.5,-262.001 1030.5,-267.001 1030.5,-267.001 1030.5,-267.001 1030.5,-262.001 1026,-267.001 1030.5,-257.001 1030.5,-257.001"/>
<text text-anchor="start" x="1032.5" y="-277.5" font-family="Arial" font-size="10.00" fill="black"><a fill="navy" href="../reference/Equipment/Displacer.html#dexpi-equipment-displacer-chamber" target="_parent">Chamber</a></text>
<text text-anchor="start" x="1009.5" y="-260.001" font-family="Arial" font-size="10.00" fill="black">0..1</text>
<text text-anchor="start" x="1014.5" y="-293.668" font-family="Arial" font-size="10.00" fill="black">*</text>
</g>
<!-- 55 -->
<g id="node13" class="node"><defs>
<linearGradient id="l_13" gradientUnits="userSpaceOnUse" x1="1150.5" y1="-304" x2="1150.5" y2="-340">
<stop offset="0" style="stop-color:#ffffbb;stop-opacity:1.;"/>
<stop offset="1" style="stop-color:#ffffee;stop-opacity:1.;"/>
</linearGradient>
</defs>
<polygon fill="url(#l_13)" stroke="black" points="1216.5,-340 1084.5,-340 1084.5,-304 1216.5,-304 1216.5,-340"/>
<text text-anchor="start" x="1094.5" y="-320.2" font-family="Arial" font-weight="bold" font-size="11.00" fill="black"><a fill="navy" href="../reference/Equipment/HeatExchangerRotor.html" target="_parent">HeatExchangerRotor</a></text>
</g>
<!-- 55&#45;&gt;0 -->
<g id="edge10" class="edge"><path fill="none" stroke="#000000" d="M1139.64,-303.668C1133.51,-293.893 1125.24,-280.684 1115.96,-265.885"/>
<polygon fill="#000000" stroke="#000000" points="1110.4,-257.001 1119.52,-263.086 1113.05,-261.238 1115.71,-265.475 1115.71,-265.475 1115.71,-265.475 1113.05,-261.238 1111.89,-267.865 1110.4,-257.001 1110.4,-257.001"/>
<text text-anchor="start" x="1130.5" y="-277.5" font-family="Arial" font-size="10.00" fill="black"><a fill="navy" href="../reference/Equipment/HeatExchangerRotor.html#dexpi-equipment-heatexchangerrotor-chamber" target="_parent">Chamber</a></text>
<text text-anchor="start" x="1089.4" y="-260.001" font-family="Arial" font-size="10.00" fill="black">0..1</text>
<text text-anchor="start" x="1123.64" y="-293.668" font-family="Arial" font-size="10.00" fill="black">*</text>
</g>
<!-- 58 -->
<g id="node14" class="node"><defs>
<linearGradient id="l_14" gradientUnits="userSpaceOnUse" x1="1266.5" y1="-304" x2="1266.5" y2="-340">
<stop offset="0" style="stop-color:#ffffbb;stop-opacity:1.;"/>
<stop offset="1" style="stop-color:#ffffee;stop-opacity:1.;"/>
</linearGradient>
</defs>
<polygon fill="url(#l_14)" stroke="black" points="1298,-340 1235,-340 1235,-304 1298,-304 1298,-340"/>
<text text-anchor="start" x="1245.5" y="-320.2" font-family="Arial" font-weight="bold" font-size="11.00" fill="black"><a fill="navy" href="../reference/Equipment/Impeller.html" target="_parent">Impeller</a></text>
</g>
<!-- 58&#45;&gt;0 -->
<g id="edge11" class="edge"><path fill="none" stroke="#000000" d="M1245.14,-303.668C1232.42,-293.345 1214.98,-279.192 1195.49,-263.381"/>
<polygon fill="#000000" stroke="#000000" points="1187.63,-257.001 1198.23,-259.808 1191.51,-260.152 1195.39,-263.302 1195.39,-263.302 1195.39,-263.302 1191.51,-260.152 1192.56,-266.797 1187.63,-257.001 1187.63,-257.001"/>
<text text-anchor="start" x="1223.5" y="-277.5" font-family="Arial" font-size="10.00" fill="black"><a fill="navy" href="../reference/Equipment/Impeller.html#dexpi-equipment-impeller-chamber" target="_parent">Chamber</a></text>
<text text-anchor="start" x="1166.63" y="-260.001" font-family="Arial" font-size="10.00" fill="black">0..1</text>
<text text-anchor="start" x="1229.14" y="-293.668" font-family="Arial" font-size="10.00" fill="black">*</text>
</g>
<!-- 61 -->
<g id="node15" class="node"><defs>
<linearGradient id="l_15" gradientUnits="userSpaceOnUse" x1="1359.5" y1="-304" x2="1359.5" y2="-340">
<stop offset="0" style="stop-color:#ffffbb;stop-opacity:1.;"/>
<stop offset="1" style="stop-color:#ffffee;stop-opacity:1.;"/>
</linearGradient>
</defs>
<polygon fill="url(#l_15)" stroke="black" points="1403,-340 1316,-340 1316,-304 1403,-304 1403,-340"/>
<text text-anchor="start" x="1326.5" y="-320.2" font-family="Arial" font-weight="bold" font-size="11.00" fill="black"><a fill="navy" href="../reference/Equipment/TubeBundle.html" target="_parent">TubeBundle</a></text>
</g>
<!-- 61&#45;&gt;0 -->
<g id="edge12" class="edge"><path fill="none" stroke="#000000" d="M1330.01,-303.837C1302.75,-287.968 1259.76,-262.942 1214.76,-236.752"/>
<polygon fill="#000000" stroke="#000000" points="1206.04,-231.676 1216.95,-232.817 1210.36,-234.191 1214.68,-236.706 1214.68,-236.706 1214.68,-236.706 1210.36,-234.191 1212.42,-240.595 1206.04,-231.676 1206.04,-231.676"/>
<text text-anchor="start" x="1299.5" y="-277.5" font-family="Arial" font-size="10.00" fill="black"><a fill="navy" href="../reference/Equipment/TubeBundle.html#dexpi-equipment-tubebundle-chamber" target="_parent">Chamber</a></text>
<text text-anchor="start" x="1202.04" y="-234.676" font-family="Arial" font-size="10.00" fill="black">0..1</text>
<text text-anchor="start" x="1314.01" y="-293.837" font-family="Arial" font-size="10.00" fill="black">*</text>
</g>
<!-- 64 -->
<g id="node16" class="node"><defs>
<linearGradient id="l_16" gradientUnits="userSpaceOnUse" x1="1468.5" y1="-304" x2="1468.5" y2="-340">
<stop offset="0" style="stop-color:#ffffbb;stop-opacity:1.;"/>
<stop offset="1" style="stop-color:#ffffee;stop-opacity:1.;"/>
</linearGradient>
</defs>
<polygon fill="url(#l_16)" stroke="black" points="1516,-340 1421,-340 1421,-304 1516,-304 1516,-340"/>
<text text-anchor="start" x="1431.5" y="-320.2" font-family="Arial" font-weight="bold" font-size="11.00" fill="black"><a fill="navy" href="../reference/Equipment/SieveElement.html" target="_parent">SieveElement</a></text>
</g>
<!-- 64&#45;&gt;0 -->
<g id="edge13" class="edge"><path fill="none" stroke="#000000" d="M1429.24,-303.837C1380.77,-282.644 1294.95,-245.12 1215.31,-210.3"/>
<polygon fill="#000000" stroke="#000000" points="1206.13,-206.287 1217.09,-206.17 1210.71,-208.29 1215.29,-210.293 1215.29,-210.293 1215.29,-210.293 1210.71,-208.29 1213.49,-214.417 1206.13,-206.287 1206.13,-206.287"/>
<text text-anchor="start" x="1387.5" y="-277.5" font-family="Arial" font-size="10.00" fill="black"><a fill="navy" href="../reference/Equipment/SieveElement.html#dexpi-equipment-sieveelement-chamber" target="_parent">Chamber</a></text>
<text text-anchor="start" x="1202.13" y="-209.287" font-family="Arial" font-size="10.00" fill="black">0..1</text>
<text text-anchor="start" x="1413.24" y="-293.837" font-family="Arial" font-size="10.00" fill="black">*</text>
</g>
<!-- 67 -->
<g id="node17" class="node"><defs>
<linearGradient id="l_17" gradientUnits="userSpaceOnUse" x1="1609.5" y1="-304" x2="1609.5" y2="-340">
<stop offset="0" style="stop-color:#ffffbb;stop-opacity:1.;"/>
<stop offset="1" style="stop-color:#ffffee;stop-opacity:1.;"/>
</linearGradient>
</defs>
<polygon fill="url(#l_17)" stroke="black" points="1684.5,-340 1534.5,-340 1534.5,-304 1684.5,-304 1684.5,-340"/>
<text text-anchor="start" x="1544.5" y="-320.2" font-family="Arial" font-weight="bold" font-size="11.00" fill="black"><a fill="navy" href="../reference/Equipment/FilteringCentrifugeDrum.html" target="_parent">FilteringCentrifugeDrum</a></text>
</g>
<!-- 67&#45;&gt;0 -->
<g id="edge14" class="edge"><path fill="none" stroke="#000000" d="M1557.86,-303.921C1481.63,-278.707 1335.11,-230.247 1215.82,-190.793"/>
<polygon fill="#000000" stroke="#000000" points="1206.19,-187.608 1217.1,-186.476 1210.94,-189.178 1215.68,-190.748 1215.68,-190.748 1215.68,-190.748 1210.94,-189.178 1214.27,-195.02 1206.19,-187.608 1206.19,-187.608"/>
<text text-anchor="start" x="1501.5" y="-277.5" font-family="Arial" font-size="10.00" fill="black"><a fill="navy" href="../reference/Equipment/FilteringCentrifugeDrum.html#dexpi-equipment-filteringcentrifugedrum-chamber" target="_parent">Chamber</a></text>
<text text-anchor="start" x="1202.19" y="-190.608" font-family="Arial" font-size="10.00" fill="black">0..1</text>
<text text-anchor="start" x="1541.86" y="-293.921" font-family="Arial" font-size="10.00" fill="black">*</text>
</g>
<!-- 70 -->
<g id="node18" class="node"><defs>
<linearGradient id="l_18" gradientUnits="userSpaceOnUse" x1="1755.5" y1="-304" x2="1755.5" y2="-340">
<stop offset="0" style="stop-color:#ffffbb;stop-opacity:1.;"/>
<stop offset="1" style="stop-color:#ffffee;stop-opacity:1.;"/>
</linearGradient>
</defs>
<polygon fill="url(#l_18)" stroke="black" points="1808,-340 1703,-340 1703,-304 1808,-304 1808,-340"/>
<text text-anchor="start" x="1713.5" y="-320.2" font-family="Arial" font-weight="bold" font-style="italic" font-size="11.00" fill="black"><a fill="navy" href="../reference/Equipment/ChamberOwner.html" target="_parent">ChamberOwner</a></text>
</g>
<!-- 70&#45;&gt;0 -->
<g id="edge15" class="edge"><path fill="none" stroke="#000000" d="M1690.98,-303.334C1524.31,-258.59 1346.16,-211.786 1216.22,-177.838"/>
<polygon fill="#000000" stroke="#000000" points="1691.16,-303.382 1697.99,-301.076 1702.74,-306.495 1695.91,-308.802 1691.16,-303.382"/>
<polygon fill="#000000" stroke="#000000" points="1206.17,-175.211 1216.98,-173.385 1211,-176.475 1215.84,-177.738 1215.84,-177.738 1215.84,-177.738 1211,-176.475 1214.7,-182.092 1206.17,-175.211 1206.17,-175.211"/>
<text text-anchor="start" x="1625" y="-277.5" font-family="Arial" font-size="10.00" fill="black"><a fill="navy" href="../reference/Equipment/ChamberOwner.html#dexpi-equipment-chamberowner-chambers" target="_parent">Chambers</a></text>
<text text-anchor="start" x="1202.17" y="-178.211" font-family="Arial" font-size="10.00" fill="black">*</text>
<text text-anchor="start" x="1673.74" y="-307.495" font-family="Arial" font-size="10.00" fill="black">0..1</text>
</g>
<!-- 73 -->
<g id="node19" class="node"><defs>
<linearGradient id="l_19" gradientUnits="userSpaceOnUse" x1="1746.5" y1="-470" x2="1746.5" y2="-506">
<stop offset="0" style="stop-color:#ffffbb;stop-opacity:1.;"/>
<stop offset="1" style="stop-color:#ffffee;stop-opacity:1.;"/>
</linearGradient>
</defs>
<polygon fill="url(#l_19)" stroke="black" points="1821,-506 1672,-506 1672,-470 1821,-470 1821,-506"/>
<text text-anchor="start" x="1682.5" y="-486.2" font-family="Arial" font-weight="bold" font-size="11.00" fill="black"><a fill="navy" href="../reference/Graphics/AttributeRepresentation.html" target="_parent">AttributeRepresentation</a></text>
</g>
<!-- 73&#45;&gt;22 -->
<g id="edge16" class="edge"><path fill="none" stroke="#000000" d="M1763.47,-469.822C1774.81,-458.331 1789.92,-443.041 1802.49,-430.307"/>
<polygon fill="#000000" stroke="#000000" points="1809.56,-423.153 1805.73,-433.43 1806.04,-426.711 1802.53,-430.268 1802.53,-430.268 1802.53,-430.268 1806.04,-426.711 1799.33,-427.106 1809.56,-423.153 1809.56,-423.153"/>
<text text-anchor="start" x="1797" y="-443.5" font-family="Arial" font-size="10.00" fill="black"><a fill="navy" href="../reference/Graphics/AttributeRepresentation.html#dexpi-graphics-attributerepresentation-object" target="_parent">Object</a></text>
<text text-anchor="start" x="1801.56" y="-426.153" font-family="Arial" font-size="10.00" fill="black"></text>
<text text-anchor="start" x="1747.47" y="-459.822" font-family="Arial" font-size="10.00" fill="black">*</text>
</g>
<!-- 76 -->
<g id="node20" class="node"><defs>
<linearGradient id="l_20" gradientUnits="userSpaceOnUse" x1="1907.5" y1="-470" x2="1907.5" y2="-506">
<stop offset="0" style="stop-color:#ffffbb;stop-opacity:1.;"/>
<stop offset="1" style="stop-color:#ffffee;stop-opacity:1.;"/>
</linearGradient>
</defs>
<polygon fill="url(#l_20)" stroke="black" points="1976,-506 1839,-506 1839,-470 1976,-470 1976,-506"/>
<text text-anchor="start" x="1849.5" y="-486.2" font-family="Arial" font-weight="bold" font-size="11.00" fill="black"><a fill="navy" href="../reference/Graphics/RepresentationGroup.html" target="_parent">RepresentationGroup</a></text>
</g>
<!-- 76&#45;&gt;22 -->
<g id="edge17" class="edge"><path fill="none" stroke="#000000" d="M1890.32,-469.822C1878.83,-458.331 1863.54,-443.041 1850.81,-430.307"/>
<polygon fill="#000000" stroke="#000000" points="1843.65,-423.153 1853.91,-427.042 1847.19,-426.689 1850.72,-430.224 1850.72,-430.224 1850.72,-430.224 1847.19,-426.689 1847.54,-433.406 1843.65,-423.153 1843.65,-423.153"/>
<text text-anchor="start" x="1876.5" y="-443.5" font-family="Arial" font-size="10.00" fill="black"><a fill="navy" href="../reference/Graphics/RepresentationGroup.html#dexpi-graphics-representationgroup-represents" target="_parent">Represents</a></text>
<text text-anchor="start" x="1835.65" y="-426.153" font-family="Arial" font-size="10.00" fill="black"></text>
<text text-anchor="start" x="1874.32" y="-459.822" font-family="Arial" font-size="10.00" fill="black">*</text>
</g>
<!-- 24&#45;inner&#45;node&#45;&gt;0 -->
<g id="edge20" class="edge"><path fill="none" stroke="black" d="M1826.47,-320.866C1826.12,-319.546 1823.15,-308.833 1816.5,-304 1720.69,-234.325 1407.18,-180.416 1206.25,-151.94"/>
</g>
<!-- 25&#45;inner&#45;node&#45;&gt;0 -->
<g id="edge22" class="edge"><path fill="none" stroke="black" d="M1994.45,-320.966C1993.45,-320.276 1977.23,-309.154 1962.5,-304 1707.69,-214.805 1396.86,-168.276 1206.36,-146.353"/>
</g>
</g>
</svg>