<!DOCTYPE svg PUBLIC "-//W3C//DTD SVG 1.1//EN" "http://www.w3.org/Graphics/SVG/1.1/DTD/svg11.dtd">
<!-- Generated by graphviz version 2.38.0 (20140413.2041)
 --><!-- Title: G Pages: 1 --><svg xmlns="http://www.w3.org/2000/svg" xmlns:xlink="http://www.w3.org/1999/xlink" width="179pt" height="453pt" viewBox="0.00 0.00 178.50 453.00">
<g id="graph0" class="graph" transform="scale(1 1) rotate(0) translate(4 449)">
<!-- 0 -->
<g id="node1" class="node"><defs>
<linearGradient id="l_0" gradientUnits="userSpaceOnUse" x1="59.5" y1="-4.26326e-014" x2="59.5" y2="-107">
<stop offset="0" style="stop-color:#ffffbb;stop-opacity:1.;"/>
<stop offset="1" style="stop-color:#ffffee;stop-opacity:1.;"/>
</linearGradient>
</defs>
<polygon fill="url(#l_0)" stroke="black" points="114.5,-107 4.5,-107 4.5,7.10543e-015 114.5,7.10543e-015 114.5,-107"/>
<text text-anchor="start" x="35" y="-92.7" font-family="Arial" font-weight="bold" font-size="11.00" fill="black">CircleArc</text>
<text text-anchor="start" x="14.5" y="-68.5" font-family="Arial" font-size="10.00" fill="black"><a fill="navy" href="../reference/Graphics/CircleArc.html#dexpi-graphics-circlearc-center" target="_parent">Center</a>&#160;:</text>
<text text-anchor="start" x="70.5" y="-68.5" font-family="Arial" font-size="10.00" fill="black"><a fill="navy" href="../reference/Graphics/Point.html" target="_parent">Point</a>&#160;</text>
<text text-anchor="start" x="14.5" y="-53.5" font-family="Arial" font-size="10.00" fill="black"><a fill="navy" href="../reference/Graphics/CircleArc.html#dexpi-graphics-circlearc-endangle" target="_parent">EndAngle</a>&#160;:</text>
<text text-anchor="start" x="70.5" y="-53.5" font-family="Arial" font-size="10.00" fill="black"><a fill="navy" href="../reference/DataTypes/Double.html" target="_parent">Double</a>&#160;</text>
<text text-anchor="start" x="14.5" y="-38.5" font-family="Arial" font-size="10.00" fill="black"><a fill="navy" href="../reference/Graphics/CircleArc.html#dexpi-graphics-circlearc-radius" target="_parent">Radius</a>&#160;:</text>
<text text-anchor="start" x="70.5" y="-38.5" font-family="Arial" font-size="10.00" fill="black"><a fill="navy" href="../reference/DataTypes/Double.html" target="_parent">Double</a>&#160;</text>
<text text-anchor="start" x="14.5" y="-23.5" font-family="Arial" font-size="10.00" fill="black"><a fill="navy" href="../reference/Graphics/CircleArc.html#dexpi-graphics-circlearc-startangle" target="_parent">StartAngle</a>&#160;:</text>
<text text-anchor="start" x="70.5" y="-23.5" font-family="Arial" font-size="10.00" fill="black"><a fill="navy" href="../reference/DataTypes/Double.html" target="_parent">Double</a>&#160;</text>
<text text-anchor="start" x="14.5" y="-8.5" font-family="Arial" font-size="10.00" fill="black"><a fill="navy" href="../reference/Graphics/CircleArc.html#dexpi-graphics-circlearc-stroke" target="_parent">Stroke</a>&#160;:</text>
<text text-anchor="start" x="70.5" y="-8.5" font-family="Arial" font-size="10.00" fill="black"><a fill="navy" href="../reference/Graphics/Stroke.html" target="_parent">Stroke</a>&#160;</text>
<polygon fill="black" stroke="black" points="114.5,-86.5 4.5,-86.5 4.5,-86.5 114.5,-86.5 114.5,-86.5"/>
</g>
<!-- 9 -->
<g id="node2" class="node"><defs>
<linearGradient id="l_1" gradientUnits="userSpaceOnUse" x1="59.5" y1="-174" x2="59.5" y2="-210">
<stop offset="0" style="stop-color:#ffffbb;stop-opacity:1.;"/>
<stop offset="1" style="stop-color:#ffffee;stop-opacity:1.;"/>
</linearGradient>
</defs>
<polygon fill="url(#l_1)" stroke="black" points="119,-210 -7.10543e-015,-210 -7.10543e-015,-174 119,-174 119,-210"/>
<text text-anchor="start" x="10.5" y="-190.2" font-family="Arial" font-weight="bold" font-style="italic" font-size="11.00" fill="black"><a fill="navy" href="../reference/Graphics/GraphicalPrimitive.html" target="_parent">GraphicalPrimitive</a></text>
</g>
<!-- 11&#45;inner&#45;node -->
<!-- 9&#45;&gt;11&#45;inner&#45;node -->
<g id="edge3" class="edge"><path fill="none" stroke="black" d="M59.5,-163.603C59.5,-152.422 59.5,-141.887 59.5,-141.053L59.5,-139.938"/>
<polygon fill="none" stroke="black" points="56.0001,-163.793 59.5,-173.793 63.0001,-163.793 56.0001,-163.793"/>
</g>
<!-- 10 -->
<g id="node3" class="node"><defs>
<linearGradient id="l_2" gradientUnits="userSpaceOnUse" x1="90.5" y1="-326" x2="90.5" y2="-362">
<stop offset="0" style="stop-color:#ffffbb;stop-opacity:1.;"/>
<stop offset="1" style="stop-color:#ffffee;stop-opacity:1.;"/>
</linearGradient>
</defs>
<polygon fill="url(#l_2)" stroke="black" points="148,-362 33,-362 33,-326 148,-326 148,-362"/>
<text text-anchor="start" x="43.5" y="-342.2" font-family="Arial" font-weight="bold" font-style="italic" font-size="11.00" fill="black"><a fill="navy" href="../reference/Graphics/GraphicalElement.html" target="_parent">GraphicalElement</a></text>
</g>
<!-- 12&#45;inner&#45;node -->
<!-- 10&#45;&gt;12&#45;inner&#45;node -->
<g id="edge5" class="edge"><path fill="none" stroke="black" d="M90.5,-315.68C90.5,-297.835 90.5,-277.568 90.5,-276.086L90.4832,-273.921"/>
<polygon fill="none" stroke="black" points="87.0001,-315.746 90.5,-325.746 94.0001,-315.746 87.0001,-315.746"/>
</g>
<!-- 15 -->
<g id="node4" class="node"><defs>
<linearGradient id="l_3" gradientUnits="userSpaceOnUse" x1="28.5" y1="-257" x2="28.5" y2="-293">
<stop offset="0" style="stop-color:#ffffbb;stop-opacity:1.;"/>
<stop offset="1" style="stop-color:#ffffee;stop-opacity:1.;"/>
</linearGradient>
</defs>
<polygon fill="url(#l_3)" stroke="black" points="55.5,-293 1.5,-293 1.5,-257 55.5,-257 55.5,-293"/>
<text text-anchor="start" x="11.5" y="-273.2" font-family="Arial" font-weight="bold" font-style="italic" font-size="11.00" fill="black"><a fill="navy" href="../reference/Graphics/Shape.html" target="_parent">Shape</a></text>
</g>
<!-- 15&#45;&gt;9 -->
<g id="edge1" class="edge"><path fill="none" stroke="#000000" d="M25.8237,-244.607C26.1461,-238.299 27.191,-231.792 29.5,-226 30.5752,-223.303 31.979,-220.688 33.5923,-218.189"/>
<polygon fill="#000000" stroke="#000000" points="25.8291,-244.986 29.9157,-250.927 26.0032,-256.985 21.9166,-251.043 25.8291,-244.986"/>
<polygon fill="#000000" stroke="#000000" points="39.7103,-210.187 37.2109,-220.865 36.6733,-214.159 33.6362,-218.131 33.6362,-218.131 33.6362,-218.131 36.6733,-214.159 30.0614,-215.398 39.7103,-210.187 39.7103,-210.187"/>
<text text-anchor="start" x="32" y="-230.5" font-family="Arial" font-size="10.00" fill="black"><a fill="navy" href="../reference/Graphics/Shape.html#dexpi-graphics-shape-primitives" target="_parent">Primitives</a></text>
<text text-anchor="start" x="31.7103" y="-213.187" font-family="Arial" font-size="10.00" fill="black">*</text>
<text text-anchor="start" x="-2.99682" y="-246.985" font-family="Arial" font-size="10.00" fill="black">0..1</text>
</g>
<!-- 18 -->
<g id="node5" class="node"><defs>
<linearGradient id="l_4" gradientUnits="userSpaceOnUse" x1="90.5" y1="-409" x2="90.5" y2="-445">
<stop offset="0" style="stop-color:#ffffbb;stop-opacity:1.;"/>
<stop offset="1" style="stop-color:#ffffee;stop-opacity:1.;"/>
</linearGradient>
</defs>
<polygon fill="url(#l_4)" stroke="black" points="170.5,-445 10.5,-445 10.5,-409 170.5,-409 170.5,-445"/>
<text text-anchor="start" x="20.5" y="-425.2" font-family="Arial" font-weight="bold" font-style="italic" font-size="11.00" fill="black"><a fill="navy" href="../reference/Graphics/RepresentationTypeGroup.html" target="_parent">RepresentationTypeGroup</a></text>
</g>
<!-- 18&#45;&gt;10 -->
<g id="edge2" class="edge"><path fill="none" stroke="#000000" d="M90.5,-396.549C90.5,-388.604 90.5,-380.044 90.5,-372.226"/>
<polygon fill="#000000" stroke="#000000" points="90.5001,-396.822 94.5,-402.822 90.5,-408.822 86.5,-402.822 90.5001,-396.822"/>
<polygon fill="#000000" stroke="#000000" points="90.5,-362.153 95.0001,-372.153 90.5,-367.153 90.5001,-372.153 90.5001,-372.153 90.5001,-372.153 90.5,-367.153 86.0001,-372.153 90.5,-362.153 90.5,-362.153"/>
<text text-anchor="start" x="92.5" y="-382.5" font-family="Arial" font-size="10.00" fill="black"><a fill="navy" href="../reference/Graphics/RepresentationTypeGroup.html#dexpi-graphics-representationtypegroup-elements" target="_parent">Elements</a></text>
<text text-anchor="start" x="82.5" y="-365.153" font-family="Arial" font-size="10.00" fill="black">*</text>
<text text-anchor="start" x="61.5" y="-398.822" font-family="Arial" font-size="10.00" fill="black">0..1</text>
</g>
<!-- 11&#45;inner&#45;node&#45;&gt;0 -->
<g id="edge4" class="edge"><path fill="none" stroke="black" d="M59.5,-139.938C59.5,-138.866 59.5,-124.034 59.5,-107.02"/>
</g>
<!-- 12&#45;inner&#45;node&#45;&gt;9 -->
<g id="edge6" class="edge"><path fill="none" stroke="black" d="M90.4832,-273.921C90.1374,-272.297 84.48,-245.994 76.5,-226 74.3977,-220.733 71.732,-215.187 69.1386,-210.177"/>
</g>
</g>
</svg>