<!DOCTYPE svg PUBLIC "-//W3C//DTD SVG 1.1//EN" "http://www.w3.org/Graphics/SVG/1.1/DTD/svg11.dtd">
<!-- Generated by graphviz version 2.38.0 (20140413.2041)
 --><!-- Title: G Pages: 1 --><svg xmlns="http://www.w3.org/2000/svg" xmlns:xlink="http://www.w3.org/1999/xlink" width="179pt" height="438pt" viewBox="0.00 0.00 178.50 438.00">
<g id="graph0" class="graph" transform="scale(1 1) rotate(0) translate(4 434)">
<!-- 0 -->
<g id="node1" class="node"><defs>
<linearGradient id="l_0" gradientUnits="userSpaceOnUse" x1="59.5" y1="-4.26326e-014" x2="59.5" y2="-92">
<stop offset="0" style="stop-color:#ffffbb;stop-opacity:1.;"/>
<stop offset="1" style="stop-color:#ffffee;stop-opacity:1.;"/>
</linearGradient>
</defs>
<polygon fill="url(#l_0)" stroke="black" points="112,-92 7,-92 7,-0 112,-0 112,-92"/>
<text text-anchor="start" x="44" y="-78.2" font-family="Arial" font-weight="bold" font-size="11.00" fill="black">Circle</text>
<text text-anchor="start" x="17.5" y="-54" font-family="Arial" font-size="10.00" fill="black"><a fill="navy" href="../reference/Graphics/Circle.html#dexpi-graphics-circle-center" target="_parent">Center</a>&#160;:</text>
<text text-anchor="start" x="63.5" y="-54" font-family="Arial" font-size="10.00" fill="black"><a fill="navy" href="../reference/Graphics/Point.html" target="_parent">Point</a>&#160;</text>
<text text-anchor="start" x="17.5" y="-39" font-family="Arial" font-size="10.00" fill="black"><a fill="navy" href="../reference/Graphics/Circle.html#dexpi-graphics-circle-fillstyle" target="_parent">FillStyle</a>&#160;:</text>
<text text-anchor="start" x="63.5" y="-39" font-family="Arial" font-size="10.00" fill="black"><a fill="navy" href="../reference/Graphics/FillStyle.html" target="_parent">FillStyle</a>&#160;</text>
<text text-anchor="start" x="17.5" y="-24" font-family="Arial" font-size="10.00" fill="black"><a fill="navy" href="../reference/Graphics/Circle.html#dexpi-graphics-circle-radius" target="_parent">Radius</a>&#160;:</text>
<text text-anchor="start" x="63.5" y="-24" font-family="Arial" font-size="10.00" fill="black"><a fill="navy" href="../reference/DataTypes/Double.html" target="_parent">Double</a>&#160;</text>
<text text-anchor="start" x="17.5" y="-9" font-family="Arial" font-size="10.00" fill="black"><a fill="navy" href="../reference/Graphics/Circle.html#dexpi-graphics-circle-stroke" target="_parent">Stroke</a>&#160;:</text>
<text text-anchor="start" x="63.5" y="-9" font-family="Arial" font-size="10.00" fill="black"><a fill="navy" href="../reference/Graphics/Stroke.html" target="_parent">Stroke</a>&#160;</text>
<polygon fill="black" stroke="black" points="112.0,-72.0 7.0,-72.0 7.0,-72.0 112.0,-72.0 112.0,-72.0"/>
</g>
<!-- 9 -->
<g id="node2" class="node"><defs>
<linearGradient id="l_1" gradientUnits="userSpaceOnUse" x1="59.5" y1="-159" x2="59.5" y2="-195">
<stop offset="0" style="stop-color:#ffffbb;stop-opacity:1.;"/>
<stop offset="1" style="stop-color:#ffffee;stop-opacity:1.;"/>
</linearGradient>
</defs>
<polygon fill="url(#l_1)" stroke="black" points="119,-195 -7.10543e-015,-195 -7.10543e-015,-159 119,-159 119,-195"/>
<text text-anchor="start" x="10.5" y="-175.2" font-family="Arial" font-weight="bold" font-style="italic" font-size="11.00" fill="black"><a fill="navy" href="../reference/Graphics/GraphicalPrimitive.html" target="_parent">GraphicalPrimitive</a></text>
</g>
<!-- 11&#45;inner&#45;node -->
<!-- 9&#45;&gt;11&#45;inner&#45;node -->
<g id="edge3" class="edge"><path fill="none" stroke="black" d="M59.5,-148.603C59.5,-137.422 59.5,-126.887 59.5,-126.053L59.5,-124.943"/>
<polygon fill="none" stroke="black" points="56.0001,-148.793 59.5,-158.793 63.0001,-148.793 56.0001,-148.793"/>
</g>
<!-- 10 -->
<g id="node3" class="node"><defs>
<linearGradient id="l_2" gradientUnits="userSpaceOnUse" x1="90.5" y1="-311" x2="90.5" y2="-347">
<stop offset="0" style="stop-color:#ffffbb;stop-opacity:1.;"/>
<stop offset="1" style="stop-color:#ffffee;stop-opacity:1.;"/>
</linearGradient>
</defs>
<polygon fill="url(#l_2)" stroke="black" points="148,-347 33,-347 33,-311 148,-311 148,-347"/>
<text text-anchor="start" x="43.5" y="-327.2" font-family="Arial" font-weight="bold" font-style="italic" font-size="11.00" fill="black"><a fill="navy" href="../reference/Graphics/GraphicalElement.html" target="_parent">GraphicalElement</a></text>
</g>
<!-- 12&#45;inner&#45;node -->
<!-- 10&#45;&gt;12&#45;inner&#45;node -->
<g id="edge5" class="edge"><path fill="none" stroke="black" d="M90.5,-300.68C90.5,-282.835 90.5,-262.568 90.5,-261.086L90.4832,-258.921"/>
<polygon fill="none" stroke="black" points="87.0001,-300.746 90.5,-310.746 94.0001,-300.746 87.0001,-300.746"/>
</g>
<!-- 15 -->
<g id="node4" class="node"><defs>
<linearGradient id="l_3" gradientUnits="userSpaceOnUse" x1="28.5" y1="-242" x2="28.5" y2="-278">
<stop offset="0" style="stop-color:#ffffbb;stop-opacity:1.;"/>
<stop offset="1" style="stop-color:#ffffee;stop-opacity:1.;"/>
</linearGradient>
</defs>
<polygon fill="url(#l_3)" stroke="black" points="55.5,-278 1.5,-278 1.5,-242 55.5,-242 55.5,-278"/>
<text text-anchor="start" x="11.5" y="-258.2" font-family="Arial" font-weight="bold" font-style="italic" font-size="11.00" fill="black"><a fill="navy" href="../reference/Graphics/Shape.html" target="_parent">Shape</a></text>
</g>
<!-- 15&#45;&gt;9 -->
<g id="edge1" class="edge"><path fill="none" stroke="#000000" d="M25.8237,-229.607C26.1461,-223.299 27.191,-216.792 29.5,-211 30.5752,-208.303 31.979,-205.688 33.5923,-203.189"/>
<polygon fill="#000000" stroke="#000000" points="25.8291,-229.986 29.9157,-235.927 26.0032,-241.985 21.9166,-236.043 25.8291,-229.986"/>
<polygon fill="#000000" stroke="#000000" points="39.7103,-195.187 37.2109,-205.865 36.6733,-199.159 33.6362,-203.131 33.6362,-203.131 33.6362,-203.131 36.6733,-199.159 30.0614,-200.398 39.7103,-195.187 39.7103,-195.187"/>
<text text-anchor="start" x="32" y="-215.5" font-family="Arial" font-size="10.00" fill="black"><a fill="navy" href="../reference/Graphics/Shape.html#dexpi-graphics-shape-primitives" target="_parent">Primitives</a></text>
<text text-anchor="start" x="31.7103" y="-198.187" font-family="Arial" font-size="10.00" fill="black">*</text>
<text text-anchor="start" x="-2.99682" y="-231.985" font-family="Arial" font-size="10.00" fill="black">0..1</text>
</g>
<!-- 18 -->
<g id="node5" class="node"><defs>
<linearGradient id="l_4" gradientUnits="userSpaceOnUse" x1="90.5" y1="-394" x2="90.5" y2="-430">
<stop offset="0" style="stop-color:#ffffbb;stop-opacity:1.;"/>
<stop offset="1" style="stop-color:#ffffee;stop-opacity:1.;"/>
</linearGradient>
</defs>
<polygon fill="url(#l_4)" stroke="black" points="170.5,-430 10.5,-430 10.5,-394 170.5,-394 170.5,-430"/>
<text text-anchor="start" x="20.5" y="-410.2" font-family="Arial" font-weight="bold" font-style="italic" font-size="11.00" fill="black"><a fill="navy" href="../reference/Graphics/RepresentationTypeGroup.html" target="_parent">RepresentationTypeGroup</a></text>
</g>
<!-- 18&#45;&gt;10 -->
<g id="edge2" class="edge"><path fill="none" stroke="#000000" d="M90.5,-381.549C90.5,-373.604 90.5,-365.044 90.5,-357.226"/>
<polygon fill="#000000" stroke="#000000" points="90.5001,-381.822 94.5,-387.822 90.5,-393.822 86.5,-387.822 90.5001,-381.822"/>
<polygon fill="#000000" stroke="#000000" points="90.5,-347.153 95.0001,-357.153 90.5,-352.153 90.5001,-357.153 90.5001,-357.153 90.5001,-357.153 90.5,-352.153 86.0001,-357.153 90.5,-347.153 90.5,-347.153"/>
<text text-anchor="start" x="92.5" y="-367.5" font-family="Arial" font-size="10.00" fill="black"><a fill="navy" href="../reference/Graphics/RepresentationTypeGroup.html#dexpi-graphics-representationtypegroup-elements" target="_parent">Elements</a></text>
<text text-anchor="start" x="82.5" y="-350.153" font-family="Arial" font-size="10.00" fill="black">*</text>
<text text-anchor="start" x="61.5" y="-383.822" font-family="Arial" font-size="10.00" fill="black">0..1</text>
</g>
<!-- 11&#45;inner&#45;node&#45;&gt;0 -->
<g id="edge4" class="edge"><path fill="none" stroke="black" d="M59.5,-124.943C59.5,-123.91 59.5,-108.862 59.5,-92.26"/>
</g>
<!-- 12&#45;inner&#45;node&#45;&gt;9 -->
<g id="edge6" class="edge"><path fill="none" stroke="black" d="M90.4832,-258.921C90.1374,-257.297 84.48,-230.994 76.5,-211 74.3977,-205.733 71.732,-200.187 69.1386,-195.177"/>
</g>
</g>
</svg>