<!DOCTYPE svg PUBLIC "-//W3C//DTD SVG 1.1//EN" "http://www.w3.org/Graphics/SVG/1.1/DTD/svg11.dtd">
<!-- Generated by graphviz version 2.38.0 (20140413.2041)
 --><!-- Title: G Pages: 1 --><svg xmlns="http://www.w3.org/2000/svg" xmlns:xlink="http://www.w3.org/1999/xlink" width="403pt" height="293pt" viewBox="0.00 0.00 402.50 293.00">
<g id="graph0" class="graph" transform="scale(1 1) rotate(0) translate(4 289)">
<!-- 0 -->
<g id="node1" class="node"><defs>
<linearGradient id="l_0" gradientUnits="userSpaceOnUse" x1="154.5" y1="-1.77636e-014" x2="154.5" y2="-36">
<stop offset="0" style="stop-color:#ffffbb;stop-opacity:1.;"/>
<stop offset="1" style="stop-color:#ffffee;stop-opacity:1.;"/>
</linearGradient>
</defs>
<polygon fill="url(#l_0)" stroke="black" points="243,-36 66,-36 66,-0 243,-0 243,-36"/>
<text text-anchor="start" x="76.5" y="-16.2" font-family="Arial" font-weight="bold" font-style="italic" font-size="11.00" fill="black">ColumnInternalsArrangement</text>
</g>
<!-- 1 -->
<g id="node2" class="node"><defs>
<linearGradient id="l_1" gradientUnits="userSpaceOnUse" x1="154.5" y1="-166" x2="154.5" y2="-202">
<stop offset="0" style="stop-color:#ffffbb;stop-opacity:1.;"/>
<stop offset="1" style="stop-color:#ffffee;stop-opacity:1.;"/>
</linearGradient>
</defs>
<polygon fill="url(#l_1)" stroke="black" points="212,-202 97,-202 97,-166 212,-166 212,-202"/>
<text text-anchor="start" x="107.5" y="-182.2" font-family="Arial" font-weight="bold" font-style="italic" font-size="11.00" fill="black"><a fill="navy" href="../reference/DexpiModel/ConceptualObject.html" target="_parent">ConceptualObject</a></text>
</g>
<!-- 3&#45;inner&#45;node -->
<!-- 1&#45;&gt;3&#45;inner&#45;node -->
<g id="edge5" class="edge"><path fill="none" stroke="black" d="M154.5,-155.649C154.5,-132.987 154.5,-104.163 154.5,-102.116L154.5,-99.9413"/>
<polygon fill="none" stroke="black" points="151,-155.822 154.5,-165.822 158,-155.822 151,-155.822"/>
</g>
<!-- 2 -->
<g id="node3" class="node"><defs>
<linearGradient id="l_2" gradientUnits="userSpaceOnUse" x1="322.5" y1="-166" x2="322.5" y2="-202">
<stop offset="0" style="stop-color:#ffffbb;stop-opacity:1.;"/>
<stop offset="1" style="stop-color:#ffffee;stop-opacity:1.;"/>
</linearGradient>
</defs>
<polygon fill="url(#l_2)" stroke="black" points="394.5,-202 250.5,-202 250.5,-166 394.5,-166 394.5,-202"/>
<text text-anchor="start" x="260.5" y="-182.2" font-family="Arial" font-weight="bold" font-style="italic" font-size="11.00" fill="black"><a fill="navy" href="../reference/Customization/CustomAttributeOwner.html" target="_parent">CustomAttributeOwner</a></text>
</g>
<!-- 16 -->
<g id="node7" class="node"><defs>
<linearGradient id="l_3" gradientUnits="userSpaceOnUse" x1="227.5" y1="-83" x2="227.5" y2="-119">
<stop offset="0" style="stop-color:#ffffbb;stop-opacity:1.;"/>
<stop offset="1" style="stop-color:#ffffee;stop-opacity:1.;"/>
</linearGradient>
</defs>
<polygon fill="url(#l_3)" stroke="black" points="282,-119 173,-119 173,-83 282,-83 282,-119"/>
<text text-anchor="start" x="183.5" y="-99.2" font-family="Arial" font-weight="bold" font-style="italic" font-size="11.00" fill="black"><a fill="navy" href="../reference/Customization/CustomAttribute.html" target="_parent">CustomAttribute</a></text>
</g>
<!-- 2&#45;&gt;16 -->
<g id="edge4" class="edge"><path fill="none" stroke="#000000" d="M248.566,-159.359C244.887,-156.576 241.487,-153.469 238.5,-150 233.571,-144.275 230.734,-136.784 229.132,-129.428"/>
<polygon fill="#000000" stroke="#000000" points="248.776,-159.495 255.986,-159.381 258.865,-165.992 251.655,-166.106 248.776,-159.495"/>
<polygon fill="#000000" stroke="#000000" points="227.601,-119.317 233.548,-128.53 228.35,-124.26 229.098,-129.204 229.098,-129.204 229.098,-129.204 228.35,-124.26 224.649,-129.878 227.601,-119.317 227.601,-119.317"/>
<text text-anchor="start" x="240.5" y="-139.5" font-family="Arial" font-size="10.00" fill="black"><a fill="navy" href="../reference/Customization/CustomAttributeOwner.html#dexpi-customization-customattributeowner-customattributes" target="_parent">CustomAttributes</a></text>
<text text-anchor="start" x="219.601" y="-122.317" font-family="Arial" font-size="10.00" fill="black">*</text>
<text text-anchor="start" x="229.865" y="-155.992" font-family="Arial" font-size="10.00" fill="black">0..1</text>
</g>
<!-- 4&#45;inner&#45;node -->
<!-- 2&#45;&gt;4&#45;inner&#45;node -->
<g id="edge7" class="edge"><path fill="none" stroke="black" d="M322.5,-155.649C322.5,-132.987 322.5,-104.163 322.5,-102.116L322.449,-99.9717"/>
<polygon fill="none" stroke="black" points="319,-155.822 322.5,-165.822 326,-155.822 319,-155.822"/>
</g>
<!-- 7 -->
<g id="node4" class="node"><defs>
<linearGradient id="l_4" gradientUnits="userSpaceOnUse" x1="84.5" y1="-83" x2="84.5" y2="-119">
<stop offset="0" style="stop-color:#ffffbb;stop-opacity:1.;"/>
<stop offset="1" style="stop-color:#ffffee;stop-opacity:1.;"/>
</linearGradient>
</defs>
<polygon fill="url(#l_4)" stroke="black" points="135.5,-119 33.5,-119 33.5,-83 135.5,-83 135.5,-119"/>
<text text-anchor="start" x="43.5" y="-99.2" font-family="Arial" font-weight="bold" font-style="italic" font-size="11.00" fill="black"><a fill="navy" href="../reference/Equipment/ColumnSection.html" target="_parent">ColumnSection</a></text>
</g>
<!-- 7&#45;&gt;0 -->
<g id="edge1" class="edge"><path fill="none" stroke="#000000" d="M96.363,-71.974C100.009,-65.0451 104.422,-57.9187 109.5,-52 112.418,-48.5994 115.75,-45.3504 119.252,-42.3093"/>
<polygon fill="#000000" stroke="#000000" points="96.3339,-72.0344 97.334,-79.1758 91.1265,-82.8457 90.1265,-75.7042 96.3339,-72.0344"/>
<polygon fill="#000000" stroke="#000000" points="127.093,-36.0055 122.119,-45.7782 123.196,-39.1382 119.299,-42.271 119.299,-42.271 119.299,-42.271 123.196,-39.1382 116.48,-38.7637 127.093,-36.0055 127.093,-36.0055"/>
<text text-anchor="start" x="112" y="-56.5" font-family="Arial" font-size="10.00" fill="black"><a fill="navy" href="../reference/Equipment/ColumnSection.html#dexpi-equipment-columnsection-internals" target="_parent">Internals</a></text>
<text text-anchor="start" x="106.093" y="-39.0055" font-family="Arial" font-size="10.00" fill="black">0..1</text>
<text text-anchor="start" x="62.1265" y="-72.8457" font-family="Arial" font-size="10.00" fill="black">0..1</text>
</g>
<!-- 10 -->
<g id="node5" class="node"><defs>
<linearGradient id="l_5" gradientUnits="userSpaceOnUse" x1="74.5" y1="-249" x2="74.5" y2="-285">
<stop offset="0" style="stop-color:#ffffbb;stop-opacity:1.;"/>
<stop offset="1" style="stop-color:#ffffee;stop-opacity:1.;"/>
</linearGradient>
</defs>
<polygon fill="url(#l_5)" stroke="black" points="149,-285 0,-285 0,-249 149,-249 149,-285"/>
<text text-anchor="start" x="10.5" y="-265.2" font-family="Arial" font-weight="bold" font-size="11.00" fill="black"><a fill="navy" href="../reference/Graphics/AttributeRepresentation.html" target="_parent">AttributeRepresentation</a></text>
</g>
<!-- 10&#45;&gt;1 -->
<g id="edge2" class="edge"><path fill="none" stroke="#000000" d="M91.4659,-248.822C102.815,-237.331 117.916,-222.041 130.493,-209.307"/>
<polygon fill="#000000" stroke="#000000" points="137.559,-202.153 133.733,-212.43 134.045,-205.711 130.531,-209.268 130.531,-209.268 130.531,-209.268 134.045,-205.711 127.33,-206.106 137.559,-202.153 137.559,-202.153"/>
<text text-anchor="start" x="125" y="-222.5" font-family="Arial" font-size="10.00" fill="black"><a fill="navy" href="../reference/Graphics/AttributeRepresentation.html#dexpi-graphics-attributerepresentation-object" target="_parent">Object</a></text>
<text text-anchor="start" x="129.559" y="-205.153" font-family="Arial" font-size="10.00" fill="black"></text>
<text text-anchor="start" x="75.4659" y="-238.822" font-family="Arial" font-size="10.00" fill="black">*</text>
</g>
<!-- 13 -->
<g id="node6" class="node"><defs>
<linearGradient id="l_6" gradientUnits="userSpaceOnUse" x1="235.5" y1="-249" x2="235.5" y2="-285">
<stop offset="0" style="stop-color:#ffffbb;stop-opacity:1.;"/>
<stop offset="1" style="stop-color:#ffffee;stop-opacity:1.;"/>
</linearGradient>
</defs>
<polygon fill="url(#l_6)" stroke="black" points="304,-285 167,-285 167,-249 304,-249 304,-285"/>
<text text-anchor="start" x="177.5" y="-265.2" font-family="Arial" font-weight="bold" font-size="11.00" fill="black"><a fill="navy" href="../reference/Graphics/RepresentationGroup.html" target="_parent">RepresentationGroup</a></text>
</g>
<!-- 13&#45;&gt;1 -->
<g id="edge3" class="edge"><path fill="none" stroke="#000000" d="M218.322,-248.822C206.831,-237.331 191.541,-222.041 178.807,-209.307"/>
<polygon fill="#000000" stroke="#000000" points="171.653,-202.153 181.906,-206.042 175.189,-205.689 178.724,-209.224 178.724,-209.224 178.724,-209.224 175.189,-205.689 175.542,-212.406 171.653,-202.153 171.653,-202.153"/>
<text text-anchor="start" x="204.5" y="-222.5" font-family="Arial" font-size="10.00" fill="black"><a fill="navy" href="../reference/Graphics/RepresentationGroup.html#dexpi-graphics-representationgroup-represents" target="_parent">Represents</a></text>
<text text-anchor="start" x="163.653" y="-205.153" font-family="Arial" font-size="10.00" fill="black"></text>
<text text-anchor="start" x="202.322" y="-238.822" font-family="Arial" font-size="10.00" fill="black">*</text>
</g>
<!-- 3&#45;inner&#45;node&#45;&gt;0 -->
<g id="edge6" class="edge"><path fill="none" stroke="black" d="M154.5,-99.9413C154.5,-98.2263 154.5,-59.3368 154.5,-36.0976"/>
</g>
<!-- 4&#45;inner&#45;node&#45;&gt;0 -->
<g id="edge8" class="edge"><path fill="none" stroke="black" d="M322.449,-99.9717C321.403,-99.3906 304.451,-89.9833 290.5,-83 257.481,-66.4724 219.414,-48.6626 191.966,-36.0374"/>
</g>
</g>
</svg>