<!DOCTYPE svg PUBLIC "-//W3C//DTD SVG 1.1//EN" "http://www.w3.org/Graphics/SVG/1.1/DTD/svg11.dtd">
<!-- Generated by graphviz version 2.38.0 (20140413.2041)
 --><!-- Title: G Pages: 1 --><svg xmlns="http://www.w3.org/2000/svg" xmlns:xlink="http://www.w3.org/1999/xlink" width="403pt" height="388pt" viewBox="0.00 0.00 402.50 388.00">
<g id="graph0" class="graph" transform="scale(1 1) rotate(0) translate(4 384)">
<!-- 0 -->
<g id="node1" class="node"><defs>
<linearGradient id="l_0" gradientUnits="userSpaceOnUse" x1="255.5" y1="-83" x2="255.5" y2="-145">
<stop offset="0" style="stop-color:#ffffbb;stop-opacity:1.;"/>
<stop offset="1" style="stop-color:#ffffee;stop-opacity:1.;"/>
</linearGradient>
</defs>
<polygon fill="url(#l_0)" stroke="black" points="348,-145 163,-145 163,-83 348,-83 348,-145"/>
<text text-anchor="start" x="215" y="-131.2" font-family="Arial" font-weight="bold" font-style="italic" font-size="11.00" fill="black">ColumnSection</text>
<text text-anchor="start" x="173.5" y="-107" font-family="Arial" font-size="10.00" fill="black"><a fill="navy" href="../reference/Equipment/ColumnSection.html#dexpi-equipment-columnsection-height" target="_parent">Height</a>&#160;:</text>
<text text-anchor="start" x="248.5" y="-107" font-family="Arial" font-size="10.00" fill="black"><a fill="navy" href="../reference/PhysicalQuantities/NullableLength.html" target="_parent">NullableLength</a>&#160;[0..1]</text>
<text text-anchor="start" x="173.5" y="-92" font-family="Arial" font-size="10.00" fill="black"><a fill="navy" href="../reference/Equipment/ColumnSection.html#dexpi-equipment-columnsection-insidediameter" target="_parent">InsideDiameter</a>&#160;:</text>
<text text-anchor="start" x="248.5" y="-92" font-family="Arial" font-size="10.00" fill="black"><a fill="navy" href="../reference/PhysicalQuantities/NullableLength.html" target="_parent">NullableLength</a>&#160;[0..1]</text>
<polygon fill="black" stroke="black" points="348.0,-125.0 163.0,-125.0 163.0,-125.0 348.0,-125.0 348.0,-125.0"/>
</g>
<!-- 10 -->
<g id="node4" class="node"><defs>
<linearGradient id="l_1" gradientUnits="userSpaceOnUse" x1="255.5" y1="-1.77636e-014" x2="255.5" y2="-36">
<stop offset="0" style="stop-color:#ffffbb;stop-opacity:1.;"/>
<stop offset="1" style="stop-color:#ffffee;stop-opacity:1.;"/>
</linearGradient>
</defs>
<polygon fill="url(#l_1)" stroke="black" points="344,-36 167,-36 167,-0 344,-0 344,-36"/>
<text text-anchor="start" x="177.5" y="-16.2" font-family="Arial" font-weight="bold" font-style="italic" font-size="11.00" fill="black"><a fill="navy" href="../reference/Equipment/ColumnInternalsArrangement.html" target="_parent">ColumnInternalsArrangement</a></text>
</g>
<!-- 0&#45;&gt;10 -->
<g id="edge1" class="edge"><path fill="none" stroke="#000000" d="M255.5,-70.9874C255.5,-62.6328 255.5,-54.0656 255.5,-46.3578"/>
<polygon fill="#000000" stroke="#000000" points="255.5,-70.9994 259.5,-76.9994 255.5,-82.9994 251.5,-76.9993 255.5,-70.9994"/>
<polygon fill="#000000" stroke="#000000" points="255.5,-36.1454 260,-46.1454 255.5,-41.1454 255.5,-46.1454 255.5,-46.1454 255.5,-46.1454 255.5,-41.1454 251,-46.1454 255.5,-36.1454 255.5,-36.1454"/>
<text text-anchor="start" x="258" y="-56.5" font-family="Arial" font-size="10.00" fill="black"><a fill="navy" href="../reference/Equipment/ColumnSection.html#dexpi-equipment-columnsection-internals" target="_parent">Internals</a></text>
<text text-anchor="start" x="234.5" y="-39.1454" font-family="Arial" font-size="10.00" fill="black">0..1</text>
<text text-anchor="start" x="226.5" y="-72.9994" font-family="Arial" font-size="10.00" fill="black">0..1</text>
</g>
<!-- 4 -->
<g id="node2" class="node"><defs>
<linearGradient id="l_2" gradientUnits="userSpaceOnUse" x1="154.5" y1="-261" x2="154.5" y2="-297">
<stop offset="0" style="stop-color:#ffffbb;stop-opacity:1.;"/>
<stop offset="1" style="stop-color:#ffffee;stop-opacity:1.;"/>
</linearGradient>
</defs>
<polygon fill="url(#l_2)" stroke="black" points="212,-297 97,-297 97,-261 212,-261 212,-297"/>
<text text-anchor="start" x="107.5" y="-277.2" font-family="Arial" font-weight="bold" font-style="italic" font-size="11.00" fill="black"><a fill="navy" href="../reference/DexpiModel/ConceptualObject.html" target="_parent">ConceptualObject</a></text>
</g>
<!-- 6&#45;inner&#45;node -->
<!-- 4&#45;&gt;6&#45;inner&#45;node -->
<g id="edge5" class="edge"><path fill="none" stroke="black" d="M154.5,-250.649C154.5,-227.987 154.5,-199.163 154.5,-197.116L154.539,-194.879"/>
<polygon fill="none" stroke="black" points="151,-250.822 154.5,-260.822 158,-250.822 151,-250.822"/>
</g>
<!-- 5 -->
<g id="node3" class="node"><defs>
<linearGradient id="l_3" gradientUnits="userSpaceOnUse" x1="322.5" y1="-261" x2="322.5" y2="-297">
<stop offset="0" style="stop-color:#ffffbb;stop-opacity:1.;"/>
<stop offset="1" style="stop-color:#ffffee;stop-opacity:1.;"/>
</linearGradient>
</defs>
<polygon fill="url(#l_3)" stroke="black" points="394.5,-297 250.5,-297 250.5,-261 394.5,-261 394.5,-297"/>
<text text-anchor="start" x="260.5" y="-277.2" font-family="Arial" font-weight="bold" font-style="italic" font-size="11.00" fill="black"><a fill="navy" href="../reference/Customization/CustomAttributeOwner.html" target="_parent">CustomAttributeOwner</a></text>
</g>
<!-- 19 -->
<g id="node7" class="node"><defs>
<linearGradient id="l_4" gradientUnits="userSpaceOnUse" x1="227.5" y1="-178" x2="227.5" y2="-214">
<stop offset="0" style="stop-color:#ffffbb;stop-opacity:1.;"/>
<stop offset="1" style="stop-color:#ffffee;stop-opacity:1.;"/>
</linearGradient>
</defs>
<polygon fill="url(#l_4)" stroke="black" points="282,-214 173,-214 173,-178 282,-178 282,-214"/>
<text text-anchor="start" x="183.5" y="-194.2" font-family="Arial" font-weight="bold" font-style="italic" font-size="11.00" fill="black"><a fill="navy" href="../reference/Customization/CustomAttribute.html" target="_parent">CustomAttribute</a></text>
</g>
<!-- 5&#45;&gt;19 -->
<g id="edge4" class="edge"><path fill="none" stroke="#000000" d="M248.566,-254.359C244.887,-251.576 241.487,-248.469 238.5,-245 233.571,-239.275 230.734,-231.784 229.132,-224.428"/>
<polygon fill="#000000" stroke="#000000" points="248.776,-254.495 255.986,-254.381 258.865,-260.992 251.655,-261.106 248.776,-254.495"/>
<polygon fill="#000000" stroke="#000000" points="227.601,-214.317 233.548,-223.53 228.35,-219.26 229.098,-224.204 229.098,-224.204 229.098,-224.204 228.35,-219.26 224.649,-224.878 227.601,-214.317 227.601,-214.317"/>
<text text-anchor="start" x="240.5" y="-234.5" font-family="Arial" font-size="10.00" fill="black"><a fill="navy" href="../reference/Customization/CustomAttributeOwner.html#dexpi-customization-customattributeowner-customattributes" target="_parent">CustomAttributes</a></text>
<text text-anchor="start" x="219.601" y="-217.317" font-family="Arial" font-size="10.00" fill="black">*</text>
<text text-anchor="start" x="229.865" y="-250.992" font-family="Arial" font-size="10.00" fill="black">0..1</text>
</g>
<!-- 7&#45;inner&#45;node -->
<!-- 5&#45;&gt;7&#45;inner&#45;node -->
<g id="edge7" class="edge"><path fill="none" stroke="black" d="M322.5,-250.649C322.5,-227.987 322.5,-199.163 322.5,-197.116L322.451,-194.942"/>
<polygon fill="none" stroke="black" points="319,-250.822 322.5,-260.822 326,-250.822 319,-250.822"/>
</g>
<!-- 13 -->
<g id="node5" class="node"><defs>
<linearGradient id="l_5" gradientUnits="userSpaceOnUse" x1="74.5" y1="-344" x2="74.5" y2="-380">
<stop offset="0" style="stop-color:#ffffbb;stop-opacity:1.;"/>
<stop offset="1" style="stop-color:#ffffee;stop-opacity:1.;"/>
</linearGradient>
</defs>
<polygon fill="url(#l_5)" stroke="black" points="149,-380 0,-380 0,-344 149,-344 149,-380"/>
<text text-anchor="start" x="10.5" y="-360.2" font-family="Arial" font-weight="bold" font-size="11.00" fill="black"><a fill="navy" href="../reference/Graphics/AttributeRepresentation.html" target="_parent">AttributeRepresentation</a></text>
</g>
<!-- 13&#45;&gt;4 -->
<g id="edge2" class="edge"><path fill="none" stroke="#000000" d="M91.4659,-343.822C102.815,-332.331 117.916,-317.041 130.493,-304.307"/>
<polygon fill="#000000" stroke="#000000" points="137.559,-297.153 133.733,-307.43 134.045,-300.711 130.531,-304.268 130.531,-304.268 130.531,-304.268 134.045,-300.711 127.33,-301.106 137.559,-297.153 137.559,-297.153"/>
<text text-anchor="start" x="125" y="-317.5" font-family="Arial" font-size="10.00" fill="black"><a fill="navy" href="../reference/Graphics/AttributeRepresentation.html#dexpi-graphics-attributerepresentation-object" target="_parent">Object</a></text>
<text text-anchor="start" x="129.559" y="-300.153" font-family="Arial" font-size="10.00" fill="black"></text>
<text text-anchor="start" x="75.4659" y="-333.822" font-family="Arial" font-size="10.00" fill="black">*</text>
</g>
<!-- 16 -->
<g id="node6" class="node"><defs>
<linearGradient id="l_6" gradientUnits="userSpaceOnUse" x1="235.5" y1="-344" x2="235.5" y2="-380">
<stop offset="0" style="stop-color:#ffffbb;stop-opacity:1.;"/>
<stop offset="1" style="stop-color:#ffffee;stop-opacity:1.;"/>
</linearGradient>
</defs>
<polygon fill="url(#l_6)" stroke="black" points="304,-380 167,-380 167,-344 304,-344 304,-380"/>
<text text-anchor="start" x="177.5" y="-360.2" font-family="Arial" font-weight="bold" font-size="11.00" fill="black"><a fill="navy" href="../reference/Graphics/RepresentationGroup.html" target="_parent">RepresentationGroup</a></text>
</g>
<!-- 16&#45;&gt;4 -->
<g id="edge3" class="edge"><path fill="none" stroke="#000000" d="M218.322,-343.822C206.831,-332.331 191.541,-317.041 178.807,-304.307"/>
<polygon fill="#000000" stroke="#000000" points="171.653,-297.153 181.906,-301.042 175.189,-300.689 178.724,-304.224 178.724,-304.224 178.724,-304.224 175.189,-300.689 175.542,-307.406 171.653,-297.153 171.653,-297.153"/>
<text text-anchor="start" x="204.5" y="-317.5" font-family="Arial" font-size="10.00" fill="black"><a fill="navy" href="../reference/Graphics/RepresentationGroup.html#dexpi-graphics-representationgroup-represents" target="_parent">Represents</a></text>
<text text-anchor="start" x="163.653" y="-300.153" font-family="Arial" font-size="10.00" fill="black"></text>
<text text-anchor="start" x="202.322" y="-333.822" font-family="Arial" font-size="10.00" fill="black">*</text>
</g>
<!-- 6&#45;inner&#45;node&#45;&gt;0 -->
<g id="edge6" class="edge"><path fill="none" stroke="black" d="M154.539,-194.879C154.923,-193.689 158.163,-183.98 163.5,-178 174.585,-165.579 188.605,-154.394 202.337,-145.015"/>
</g>
<!-- 7&#45;inner&#45;node&#45;&gt;0 -->
<g id="edge8" class="edge"><path fill="none" stroke="black" d="M322.451,-194.942C321.286,-193.551 299.384,-167.398 280.943,-145.38"/>
</g>
</g>
</svg>