<!DOCTYPE svg PUBLIC "-//W3C//DTD SVG 1.1//EN" "http://www.w3.org/Graphics/SVG/1.1/DTD/svg11.dtd">
<!-- Generated by graphviz version 2.38.0 (20140413.2041)
 --><!-- Title: G Pages: 1 --><svg xmlns="http://www.w3.org/2000/svg" xmlns:xlink="http://www.w3.org/1999/xlink" width="403pt" height="437pt" viewBox="0.00 0.00 402.50 437.00">
<g id="graph0" class="graph" transform="scale(1 1) rotate(0) translate(4 433)">
<!-- 0 -->
<g id="node1" class="node"><defs>
<linearGradient id="l_0" gradientUnits="userSpaceOnUse" x1="154.5" y1="-3.55271e-014" x2="154.5" y2="-77">
<stop offset="0" style="stop-color:#ffffbb;stop-opacity:1.;"/>
<stop offset="1" style="stop-color:#ffffee;stop-opacity:1.;"/>
</linearGradient>
</defs>
<polygon fill="url(#l_0)" stroke="black" points="275.5,-77 33.5,-77 33.5,-0 275.5,-0 275.5,-77"/>
<text text-anchor="start" x="85" y="-62.7" font-family="Arial" font-weight="bold" font-size="11.00" fill="black">ColumnTraysArrangement</text>
<text text-anchor="start" x="43.5" y="-38.5" font-family="Arial" font-size="10.00" fill="black"><a fill="navy" href="../reference/Equipment/ColumnTraysArrangement.html#dexpi-equipment-columntraysarrangement-materialofconstructioncode" target="_parent">MaterialOfConstructionCode</a>&#160;:</text>
<text text-anchor="start" x="175.5" y="-38.5" font-family="Arial" font-size="10.00" fill="black"><a fill="navy" href="../reference/DataTypes/NullableString.html" target="_parent">NullableString</a>&#160;[0..1]</text>
<text text-anchor="start" x="43.5" y="-23.5" font-family="Arial" font-size="10.00" fill="black"><a fill="navy" href="../reference/Equipment/ColumnTraysArrangement.html#dexpi-equipment-columntraysarrangement-numberoftrays" target="_parent">NumberOfTrays</a>&#160;:</text>
<text text-anchor="start" x="175.5" y="-23.5" font-family="Arial" font-size="10.00" fill="black"><a fill="navy" href="../reference/DataTypes/NullableInteger.html" target="_parent">NullableInteger</a>&#160;[0..1]</text>
<text text-anchor="start" x="43.5" y="-8.5" font-family="Arial" font-size="10.00" fill="black"><a fill="navy" href="../reference/Equipment/ColumnTraysArrangement.html#dexpi-equipment-columntraysarrangement-traytype" target="_parent">TrayType</a>&#160;:</text>
<text text-anchor="start" x="175.5" y="-8.5" font-family="Arial" font-size="10.00" fill="black"><a fill="navy" href="../reference/DataTypes/NullableString.html" target="_parent">NullableString</a>&#160;[0..1]</text>
<polygon fill="black" stroke="black" points="275.5,-56.5 33.5,-56.5 33.5,-56.5 275.5,-56.5 275.5,-56.5"/>
</g>
<!-- 6 -->
<g id="node2" class="node"><defs>
<linearGradient id="l_1" gradientUnits="userSpaceOnUse" x1="154.5" y1="-144" x2="154.5" y2="-180">
<stop offset="0" style="stop-color:#ffffbb;stop-opacity:1.;"/>
<stop offset="1" style="stop-color:#ffffee;stop-opacity:1.;"/>
</linearGradient>
</defs>
<polygon fill="url(#l_1)" stroke="black" points="243,-180 66,-180 66,-144 243,-144 243,-180"/>
<text text-anchor="start" x="76.5" y="-160.2" font-family="Arial" font-weight="bold" font-style="italic" font-size="11.00" fill="black"><a fill="navy" href="../reference/Equipment/ColumnInternalsArrangement.html" target="_parent">ColumnInternalsArrangement</a></text>
</g>
<!-- 9&#45;inner&#45;node -->
<!-- 6&#45;&gt;9&#45;inner&#45;node -->
<g id="edge5" class="edge"><path fill="none" stroke="black" d="M154.5,-133.603C154.5,-122.422 154.5,-111.887 154.5,-111.053L154.5,-109.949"/>
<polygon fill="none" stroke="black" points="151,-133.793 154.5,-143.793 158,-133.793 151,-133.793"/>
</g>
<!-- 7 -->
<g id="node3" class="node"><defs>
<linearGradient id="l_2" gradientUnits="userSpaceOnUse" x1="154.5" y1="-310" x2="154.5" y2="-346">
<stop offset="0" style="stop-color:#ffffbb;stop-opacity:1.;"/>
<stop offset="1" style="stop-color:#ffffee;stop-opacity:1.;"/>
</linearGradient>
</defs>
<polygon fill="url(#l_2)" stroke="black" points="212,-346 97,-346 97,-310 212,-310 212,-346"/>
<text text-anchor="start" x="107.5" y="-326.2" font-family="Arial" font-weight="bold" font-style="italic" font-size="11.00" fill="black"><a fill="navy" href="../reference/DexpiModel/ConceptualObject.html" target="_parent">ConceptualObject</a></text>
</g>
<!-- 10&#45;inner&#45;node -->
<!-- 7&#45;&gt;10&#45;inner&#45;node -->
<g id="edge7" class="edge"><path fill="none" stroke="black" d="M154.5,-299.649C154.5,-276.987 154.5,-248.163 154.5,-246.116L154.5,-243.941"/>
<polygon fill="none" stroke="black" points="151,-299.822 154.5,-309.822 158,-299.822 151,-299.822"/>
</g>
<!-- 8 -->
<g id="node4" class="node"><defs>
<linearGradient id="l_3" gradientUnits="userSpaceOnUse" x1="322.5" y1="-310" x2="322.5" y2="-346">
<stop offset="0" style="stop-color:#ffffbb;stop-opacity:1.;"/>
<stop offset="1" style="stop-color:#ffffee;stop-opacity:1.;"/>
</linearGradient>
</defs>
<polygon fill="url(#l_3)" stroke="black" points="394.5,-346 250.5,-346 250.5,-310 394.5,-310 394.5,-346"/>
<text text-anchor="start" x="260.5" y="-326.2" font-family="Arial" font-weight="bold" font-style="italic" font-size="11.00" fill="black"><a fill="navy" href="../reference/Customization/CustomAttributeOwner.html" target="_parent">CustomAttributeOwner</a></text>
</g>
<!-- 23 -->
<g id="node8" class="node"><defs>
<linearGradient id="l_4" gradientUnits="userSpaceOnUse" x1="227.5" y1="-227" x2="227.5" y2="-263">
<stop offset="0" style="stop-color:#ffffbb;stop-opacity:1.;"/>
<stop offset="1" style="stop-color:#ffffee;stop-opacity:1.;"/>
</linearGradient>
</defs>
<polygon fill="url(#l_4)" stroke="black" points="282,-263 173,-263 173,-227 282,-227 282,-263"/>
<text text-anchor="start" x="183.5" y="-243.2" font-family="Arial" font-weight="bold" font-style="italic" font-size="11.00" fill="black"><a fill="navy" href="../reference/Customization/CustomAttribute.html" target="_parent">CustomAttribute</a></text>
</g>
<!-- 8&#45;&gt;23 -->
<g id="edge4" class="edge"><path fill="none" stroke="#000000" d="M248.566,-303.359C244.887,-300.576 241.487,-297.469 238.5,-294 233.571,-288.275 230.734,-280.784 229.132,-273.428"/>
<polygon fill="#000000" stroke="#000000" points="248.776,-303.495 255.986,-303.381 258.865,-309.992 251.655,-310.106 248.776,-303.495"/>
<polygon fill="#000000" stroke="#000000" points="227.601,-263.317 233.548,-272.53 228.35,-268.26 229.098,-273.204 229.098,-273.204 229.098,-273.204 228.35,-268.26 224.649,-273.878 227.601,-263.317 227.601,-263.317"/>
<text text-anchor="start" x="240.5" y="-283.5" font-family="Arial" font-size="10.00" fill="black"><a fill="navy" href="../reference/Customization/CustomAttributeOwner.html#dexpi-customization-customattributeowner-customattributes" target="_parent">CustomAttributes</a></text>
<text text-anchor="start" x="219.601" y="-266.317" font-family="Arial" font-size="10.00" fill="black">*</text>
<text text-anchor="start" x="229.865" y="-299.992" font-family="Arial" font-size="10.00" fill="black">0..1</text>
</g>
<!-- 11&#45;inner&#45;node -->
<!-- 8&#45;&gt;11&#45;inner&#45;node -->
<g id="edge9" class="edge"><path fill="none" stroke="black" d="M322.5,-299.649C322.5,-276.987 322.5,-248.163 322.5,-246.116L322.449,-243.972"/>
<polygon fill="none" stroke="black" points="319,-299.822 322.5,-309.822 326,-299.822 319,-299.822"/>
</g>
<!-- 14 -->
<g id="node5" class="node"><defs>
<linearGradient id="l_5" gradientUnits="userSpaceOnUse" x1="84.5" y1="-227" x2="84.5" y2="-263">
<stop offset="0" style="stop-color:#ffffbb;stop-opacity:1.;"/>
<stop offset="1" style="stop-color:#ffffee;stop-opacity:1.;"/>
</linearGradient>
</defs>
<polygon fill="url(#l_5)" stroke="black" points="135.5,-263 33.5,-263 33.5,-227 135.5,-227 135.5,-263"/>
<text text-anchor="start" x="43.5" y="-243.2" font-family="Arial" font-weight="bold" font-style="italic" font-size="11.00" fill="black"><a fill="navy" href="../reference/Equipment/ColumnSection.html" target="_parent">ColumnSection</a></text>
</g>
<!-- 14&#45;&gt;6 -->
<g id="edge1" class="edge"><path fill="none" stroke="#000000" d="M96.363,-215.974C100.009,-209.045 104.422,-201.919 109.5,-196 112.418,-192.599 115.75,-189.35 119.252,-186.309"/>
<polygon fill="#000000" stroke="#000000" points="96.3339,-216.034 97.334,-223.176 91.1265,-226.846 90.1265,-219.704 96.3339,-216.034"/>
<polygon fill="#000000" stroke="#000000" points="127.093,-180.006 122.119,-189.778 123.196,-183.138 119.299,-186.271 119.299,-186.271 119.299,-186.271 123.196,-183.138 116.48,-182.764 127.093,-180.006 127.093,-180.006"/>
<text text-anchor="start" x="112" y="-200.5" font-family="Arial" font-size="10.00" fill="black"><a fill="navy" href="../reference/Equipment/ColumnSection.html#dexpi-equipment-columnsection-internals" target="_parent">Internals</a></text>
<text text-anchor="start" x="106.093" y="-183.006" font-family="Arial" font-size="10.00" fill="black">0..1</text>
<text text-anchor="start" x="62.1265" y="-216.846" font-family="Arial" font-size="10.00" fill="black">0..1</text>
</g>
<!-- 17 -->
<g id="node6" class="node"><defs>
<linearGradient id="l_6" gradientUnits="userSpaceOnUse" x1="74.5" y1="-393" x2="74.5" y2="-429">
<stop offset="0" style="stop-color:#ffffbb;stop-opacity:1.;"/>
<stop offset="1" style="stop-color:#ffffee;stop-opacity:1.;"/>
</linearGradient>
</defs>
<polygon fill="url(#l_6)" stroke="black" points="149,-429 0,-429 0,-393 149,-393 149,-429"/>
<text text-anchor="start" x="10.5" y="-409.2" font-family="Arial" font-weight="bold" font-size="11.00" fill="black"><a fill="navy" href="../reference/Graphics/AttributeRepresentation.html" target="_parent">AttributeRepresentation</a></text>
</g>
<!-- 17&#45;&gt;7 -->
<g id="edge2" class="edge"><path fill="none" stroke="#000000" d="M91.4659,-392.822C102.815,-381.331 117.916,-366.041 130.493,-353.307"/>
<polygon fill="#000000" stroke="#000000" points="137.559,-346.153 133.733,-356.43 134.045,-349.711 130.531,-353.268 130.531,-353.268 130.531,-353.268 134.045,-349.711 127.33,-350.106 137.559,-346.153 137.559,-346.153"/>
<text text-anchor="start" x="125" y="-366.5" font-family="Arial" font-size="10.00" fill="black"><a fill="navy" href="../reference/Graphics/AttributeRepresentation.html#dexpi-graphics-attributerepresentation-object" target="_parent">Object</a></text>
<text text-anchor="start" x="129.559" y="-349.153" font-family="Arial" font-size="10.00" fill="black"></text>
<text text-anchor="start" x="75.4659" y="-382.822" font-family="Arial" font-size="10.00" fill="black">*</text>
</g>
<!-- 20 -->
<g id="node7" class="node"><defs>
<linearGradient id="l_7" gradientUnits="userSpaceOnUse" x1="235.5" y1="-393" x2="235.5" y2="-429">
<stop offset="0" style="stop-color:#ffffbb;stop-opacity:1.;"/>
<stop offset="1" style="stop-color:#ffffee;stop-opacity:1.;"/>
</linearGradient>
</defs>
<polygon fill="url(#l_7)" stroke="black" points="304,-429 167,-429 167,-393 304,-393 304,-429"/>
<text text-anchor="start" x="177.5" y="-409.2" font-family="Arial" font-weight="bold" font-size="11.00" fill="black"><a fill="navy" href="../reference/Graphics/RepresentationGroup.html" target="_parent">RepresentationGroup</a></text>
</g>
<!-- 20&#45;&gt;7 -->
<g id="edge3" class="edge"><path fill="none" stroke="#000000" d="M218.322,-392.822C206.831,-381.331 191.541,-366.041 178.807,-353.307"/>
<polygon fill="#000000" stroke="#000000" points="171.653,-346.153 181.906,-350.042 175.189,-349.689 178.724,-353.224 178.724,-353.224 178.724,-353.224 175.189,-349.689 175.542,-356.406 171.653,-346.153 171.653,-346.153"/>
<text text-anchor="start" x="204.5" y="-366.5" font-family="Arial" font-size="10.00" fill="black"><a fill="navy" href="../reference/Graphics/RepresentationGroup.html#dexpi-graphics-representationgroup-represents" target="_parent">Represents</a></text>
<text text-anchor="start" x="163.653" y="-349.153" font-family="Arial" font-size="10.00" fill="black"></text>
<text text-anchor="start" x="202.322" y="-382.822" font-family="Arial" font-size="10.00" fill="black">*</text>
</g>
<!-- 9&#45;inner&#45;node&#45;&gt;0 -->
<g id="edge6" class="edge"><path fill="none" stroke="black" d="M154.5,-109.949C154.5,-108.948 154.5,-93.4062 154.5,-77.1752"/>
</g>
<!-- 10&#45;inner&#45;node&#45;&gt;6 -->
<g id="edge8" class="edge"><path fill="none" stroke="black" d="M154.5,-243.941C154.5,-242.226 154.5,-203.337 154.5,-180.098"/>
</g>
<!-- 11&#45;inner&#45;node&#45;&gt;6 -->
<g id="edge10" class="edge"><path fill="none" stroke="black" d="M322.449,-243.972C321.403,-243.391 304.451,-233.983 290.5,-227 257.481,-210.472 219.414,-192.663 191.966,-180.037"/>
</g>
</g>
</svg>