<!DOCTYPE svg PUBLIC "-//W3C//DTD SVG 1.1//EN" "http://www.w3.org/Graphics/SVG/1.1/DTD/svg11.dtd">
<!-- Generated by graphviz version 2.38.0 (20140413.2041)
 --><!-- Title: G Pages: 1 --><svg xmlns="http://www.w3.org/2000/svg" xmlns:xlink="http://www.w3.org/1999/xlink" width="312pt" height="127pt" viewBox="0.00 0.00 312.00 127.00">
<g id="graph0" class="graph" transform="scale(1 1) rotate(0) translate(4 123)">
<!-- 0 -->
<g id="node1" class="node"><defs>
<linearGradient id="l_0" gradientUnits="userSpaceOnUse" x1="154.5" y1="-1.77636e-014" x2="154.5" y2="-36">
<stop offset="0" style="stop-color:#ffffbb;stop-opacity:1.;"/>
<stop offset="1" style="stop-color:#ffffee;stop-opacity:1.;"/>
</linearGradient>
</defs>
<polygon fill="url(#l_0)" stroke="black" points="212,-36 97,-36 97,-0 212,-0 212,-36"/>
<text text-anchor="start" x="107.5" y="-16.2" font-family="Arial" font-weight="bold" font-style="italic" font-size="11.00" fill="black">ConceptualObject</text>
</g>
<!-- 3 -->
<g id="node2" class="node"><defs>
<linearGradient id="l_1" gradientUnits="userSpaceOnUse" x1="74.5" y1="-83" x2="74.5" y2="-119">
<stop offset="0" style="stop-color:#ffffbb;stop-opacity:1.;"/>
<stop offset="1" style="stop-color:#ffffee;stop-opacity:1.;"/>
</linearGradient>
</defs>
<polygon fill="url(#l_1)" stroke="black" points="149,-119 0,-119 0,-83 149,-83 149,-119"/>
<text text-anchor="start" x="10.5" y="-99.2" font-family="Arial" font-weight="bold" font-size="11.00" fill="black"><a fill="navy" href="../reference/Graphics/AttributeRepresentation.html" target="_parent">AttributeRepresentation</a></text>
</g>
<!-- 3&#45;&gt;0 -->
<g id="edge1" class="edge"><path fill="none" stroke="#000000" d="M91.4659,-82.822C102.815,-71.3312 117.916,-56.0409 130.493,-43.3072"/>
<polygon fill="#000000" stroke="#000000" points="137.559,-36.1533 133.733,-46.4303 134.045,-39.7107 130.531,-43.2681 130.531,-43.2681 130.531,-43.2681 134.045,-39.7107 127.33,-40.106 137.559,-36.1533 137.559,-36.1533"/>
<text text-anchor="start" x="125" y="-56.5" font-family="Arial" font-size="10.00" fill="black"><a fill="navy" href="../reference/Graphics/AttributeRepresentation.html#dexpi-graphics-attributerepresentation-object" target="_parent">Object</a></text>
<text text-anchor="start" x="129.559" y="-39.1533" font-family="Arial" font-size="10.00" fill="black"></text>
<text text-anchor="start" x="75.4659" y="-72.822" font-family="Arial" font-size="10.00" fill="black">*</text>
</g>
<!-- 6 -->
<g id="node3" class="node"><defs>
<linearGradient id="l_2" gradientUnits="userSpaceOnUse" x1="235.5" y1="-83" x2="235.5" y2="-119">
<stop offset="0" style="stop-color:#ffffbb;stop-opacity:1.;"/>
<stop offset="1" style="stop-color:#ffffee;stop-opacity:1.;"/>
</linearGradient>
</defs>
<polygon fill="url(#l_2)" stroke="black" points="304,-119 167,-119 167,-83 304,-83 304,-119"/>
<text text-anchor="start" x="177.5" y="-99.2" font-family="Arial" font-weight="bold" font-size="11.00" fill="black"><a fill="navy" href="../reference/Graphics/RepresentationGroup.html" target="_parent">RepresentationGroup</a></text>
</g>
<!-- 6&#45;&gt;0 -->
<g id="edge2" class="edge"><path fill="none" stroke="#000000" d="M218.322,-82.822C206.831,-71.3312 191.541,-56.0409 178.807,-43.3072"/>
<polygon fill="#000000" stroke="#000000" points="171.653,-36.1533 181.906,-40.0424 175.189,-39.6888 178.724,-43.2244 178.724,-43.2244 178.724,-43.2244 175.189,-39.6888 175.542,-46.4063 171.653,-36.1533 171.653,-36.1533"/>
<text text-anchor="start" x="203.5" y="-56.5" font-family="Arial" font-size="10.00" fill="black"><a fill="navy" href="../reference/Graphics/RepresentationGroup.html#dexpi-graphics-representationgroup-represents" target="_parent">Represents</a></text>
<text text-anchor="start" x="163.653" y="-39.1533" font-family="Arial" font-size="10.00" fill="black"></text>
<text text-anchor="start" x="202.322" y="-72.822" font-family="Arial" font-size="10.00" fill="black">*</text>
</g>
</g>
</svg>