<!DOCTYPE svg PUBLIC "-//W3C//DTD SVG 1.1//EN" "http://www.w3.org/Graphics/SVG/1.1/DTD/svg11.dtd">
<!-- Generated by graphviz version 2.38.0 (20140413.2041)
 --><!-- Title: G Pages: 1 --><svg xmlns="http://www.w3.org/2000/svg" xmlns:xlink="http://www.w3.org/1999/xlink" width="222pt" height="491pt" viewBox="0.00 0.00 222.00 491.00">
<g id="graph0" class="graph" transform="scale(1 1) rotate(0) translate(4 487)">
<!-- 0 -->
<g id="node1" class="node"><defs>
<linearGradient id="l_0" gradientUnits="userSpaceOnUse" x1="103" y1="-83" x2="103" y2="-145">
<stop offset="0" style="stop-color:#ffffbb;stop-opacity:1.;"/>
<stop offset="1" style="stop-color:#ffffee;stop-opacity:1.;"/>
</linearGradient>
</defs>
<polygon fill="url(#l_0)" stroke="black" points="206,-145 0,-145 0,-83 206,-83 206,-145"/>
<text text-anchor="start" x="63" y="-131.2" font-family="Arial" font-weight="bold" font-size="11.00" fill="black">ConnectorLine</text>
<text text-anchor="start" x="10" y="-107" font-family="Arial" font-size="10.00" fill="black"><a fill="navy" href="../reference/Graphics/ConnectorLine.html#dexpi-graphics-connectorline-innerpoints" target="_parent">InnerPoints</a>&#160;:</text>
<text text-anchor="start" x="69" y="-107" font-family="Arial" font-size="10.00" fill="black"><a fill="navy" href="../reference/Graphics/Point.html" target="_parent">Point</a>&#160;[*]&#160;{ordered,&#160;nonunique}</text>
<text text-anchor="start" x="10" y="-92" font-family="Arial" font-size="10.00" fill="black"><a fill="navy" href="../reference/Graphics/ConnectorLine.html#dexpi-graphics-connectorline-stroke" target="_parent">Stroke</a>&#160;:</text>
<text text-anchor="start" x="69" y="-92" font-family="Arial" font-size="10.00" fill="black"><a fill="navy" href="../reference/Graphics/Stroke.html" target="_parent">Stroke</a>&#160;</text>
<polygon fill="black" stroke="black" points="206.0,-125.0 0.0,-125.0 0.0,-125.0 206.0,-125.0 206.0,-125.0"/>
</g>
<!-- 11 -->
<g id="node4" class="node"><defs>
<linearGradient id="l_1" gradientUnits="userSpaceOnUse" x1="103" y1="-1.77636e-014" x2="103" y2="-36">
<stop offset="0" style="stop-color:#ffffbb;stop-opacity:1.;"/>
<stop offset="1" style="stop-color:#ffffee;stop-opacity:1.;"/>
</linearGradient>
</defs>
<polygon fill="url(#l_1)" stroke="black" points="149,-36 57,-36 57,-0 149,-0 149,-36"/>
<text text-anchor="start" x="67" y="-16.2" font-family="Arial" font-weight="bold" font-style="italic" font-size="11.00" fill="black"><a fill="navy" href="../reference/Graphics/NodePosition.html" target="_parent">NodePosition</a></text>
</g>
<!-- 0&#45;&gt;11 -->
<g id="edge1" class="edge"><path fill="none" stroke="#000000" d="M79.0185,-82.9865C73.998,-73.2384 71.2255,-62.2826 75,-52 75.9062,-49.5313 77.088,-47.1208 78.4531,-44.7988"/>
<polygon fill="#000000" stroke="#000000" points="84.4312,-36.345 82.3315,-47.108 81.5443,-40.4274 78.6574,-44.5098 78.6574,-44.5098 78.6574,-44.5098 81.5443,-40.4274 74.9832,-41.9116 84.4312,-36.345 84.4312,-36.345"/>
<text text-anchor="start" x="77.5" y="-56.5" font-family="Arial" font-size="10.00" fill="black"><a fill="navy" href="../reference/Graphics/ConnectorLine.html#dexpi-graphics-connectorline-source" target="_parent">Source</a></text>
<text text-anchor="start" x="63.4312" y="-39.345" font-family="Arial" font-size="10.00" fill="black">0..1</text>
<text text-anchor="start" x="50.0185" y="-72.9865" font-family="Arial" font-size="10.00" fill="black">0..1</text>
</g>
<!-- 0&#45;&gt;11 -->
<g id="edge2" class="edge"><path fill="none" stroke="#000000" d="M109.077,-82.917C110.365,-73.0684 111.056,-62.0715 110,-52 109.794,-50.0342 109.52,-48.0131 109.201,-45.9855"/>
<polygon fill="#000000" stroke="#000000" points="107.319,-36.0192 113.596,-45.0107 108.247,-40.9324 109.174,-45.8456 109.174,-45.8456 109.174,-45.8456 108.247,-40.9324 104.753,-46.6805 107.319,-36.0192 107.319,-36.0192"/>
<text text-anchor="start" x="113" y="-56.5" font-family="Arial" font-size="10.00" fill="black"><a fill="navy" href="../reference/Graphics/ConnectorLine.html#dexpi-graphics-connectorline-target" target="_parent">Target</a></text>
<text text-anchor="start" x="86.3192" y="-39.0192" font-family="Arial" font-size="10.00" fill="black">0..1</text>
<text text-anchor="start" x="80.0771" y="-72.917" font-family="Arial" font-size="10.00" fill="black">0..1</text>
</g>
<!-- 5 -->
<g id="node2" class="node"><defs>
<linearGradient id="l_2" gradientUnits="userSpaceOnUse" x1="103" y1="-212" x2="103" y2="-248">
<stop offset="0" style="stop-color:#ffffbb;stop-opacity:1.;"/>
<stop offset="1" style="stop-color:#ffffee;stop-opacity:1.;"/>
</linearGradient>
</defs>
<polygon fill="url(#l_2)" stroke="black" points="162.5,-248 43.5,-248 43.5,-212 162.5,-212 162.5,-248"/>
<text text-anchor="start" x="54" y="-228.2" font-family="Arial" font-weight="bold" font-style="italic" font-size="11.00" fill="black"><a fill="navy" href="../reference/Graphics/GraphicalPrimitive.html" target="_parent">GraphicalPrimitive</a></text>
</g>
<!-- 7&#45;inner&#45;node -->
<!-- 5&#45;&gt;7&#45;inner&#45;node -->
<g id="edge5" class="edge"><path fill="none" stroke="black" d="M103,-201.603C103,-190.422 103,-179.887 103,-179.053L103,-177.954"/>
<polygon fill="none" stroke="black" points="99.5001,-201.793 103,-211.793 106.5,-201.793 99.5001,-201.793"/>
</g>
<!-- 6 -->
<g id="node3" class="node"><defs>
<linearGradient id="l_3" gradientUnits="userSpaceOnUse" x1="134" y1="-364" x2="134" y2="-400">
<stop offset="0" style="stop-color:#ffffbb;stop-opacity:1.;"/>
<stop offset="1" style="stop-color:#ffffee;stop-opacity:1.;"/>
</linearGradient>
</defs>
<polygon fill="url(#l_3)" stroke="black" points="191.5,-400 76.5,-400 76.5,-364 191.5,-364 191.5,-400"/>
<text text-anchor="start" x="87" y="-380.2" font-family="Arial" font-weight="bold" font-style="italic" font-size="11.00" fill="black"><a fill="navy" href="../reference/Graphics/GraphicalElement.html" target="_parent">GraphicalElement</a></text>
</g>
<!-- 8&#45;inner&#45;node -->
<!-- 6&#45;&gt;8&#45;inner&#45;node -->
<g id="edge7" class="edge"><path fill="none" stroke="black" d="M134,-353.68C134,-335.835 134,-315.568 134,-314.086L133.983,-311.921"/>
<polygon fill="none" stroke="black" points="130.5,-353.746 134,-363.746 137.5,-353.746 130.5,-353.746"/>
</g>
<!-- 16 -->
<g id="node5" class="node"><defs>
<linearGradient id="l_4" gradientUnits="userSpaceOnUse" x1="72" y1="-295" x2="72" y2="-331">
<stop offset="0" style="stop-color:#ffffbb;stop-opacity:1.;"/>
<stop offset="1" style="stop-color:#ffffee;stop-opacity:1.;"/>
</linearGradient>
</defs>
<polygon fill="url(#l_4)" stroke="black" points="99,-331 45,-331 45,-295 99,-295 99,-331"/>
<text text-anchor="start" x="55" y="-311.2" font-family="Arial" font-weight="bold" font-style="italic" font-size="11.00" fill="black"><a fill="navy" href="../reference/Graphics/Shape.html" target="_parent">Shape</a></text>
</g>
<!-- 16&#45;&gt;5 -->
<g id="edge3" class="edge"><path fill="none" stroke="#000000" d="M69.3237,-282.607C69.6461,-276.299 70.691,-269.792 73,-264 74.0752,-261.303 75.479,-258.688 77.0923,-256.189"/>
<polygon fill="#000000" stroke="#000000" points="69.3291,-282.986 73.4157,-288.927 69.5032,-294.985 65.4166,-289.043 69.3291,-282.986"/>
<polygon fill="#000000" stroke="#000000" points="83.2103,-248.187 80.7109,-258.865 80.1733,-252.159 77.1362,-256.131 77.1362,-256.131 77.1362,-256.131 80.1733,-252.159 73.5614,-253.398 83.2103,-248.187 83.2103,-248.187"/>
<text text-anchor="start" x="75.5" y="-268.5" font-family="Arial" font-size="10.00" fill="black"><a fill="navy" href="../reference/Graphics/Shape.html#dexpi-graphics-shape-primitives" target="_parent">Primitives</a></text>
<text text-anchor="start" x="75.2103" y="-251.187" font-family="Arial" font-size="10.00" fill="black">*</text>
<text text-anchor="start" x="40.5032" y="-284.985" font-family="Arial" font-size="10.00" fill="black">0..1</text>
</g>
<!-- 19 -->
<g id="node6" class="node"><defs>
<linearGradient id="l_5" gradientUnits="userSpaceOnUse" x1="134" y1="-447" x2="134" y2="-483">
<stop offset="0" style="stop-color:#ffffbb;stop-opacity:1.;"/>
<stop offset="1" style="stop-color:#ffffee;stop-opacity:1.;"/>
</linearGradient>
</defs>
<polygon fill="url(#l_5)" stroke="black" points="214,-483 54,-483 54,-447 214,-447 214,-483"/>
<text text-anchor="start" x="64" y="-463.2" font-family="Arial" font-weight="bold" font-style="italic" font-size="11.00" fill="black"><a fill="navy" href="../reference/Graphics/RepresentationTypeGroup.html" target="_parent">RepresentationTypeGroup</a></text>
</g>
<!-- 19&#45;&gt;6 -->
<g id="edge4" class="edge"><path fill="none" stroke="#000000" d="M134,-434.549C134,-426.604 134,-418.044 134,-410.226"/>
<polygon fill="#000000" stroke="#000000" points="134,-434.822 138,-440.822 134,-446.822 130,-440.822 134,-434.822"/>
<polygon fill="#000000" stroke="#000000" points="134,-400.153 138.5,-410.153 134,-405.153 134,-410.153 134,-410.153 134,-410.153 134,-405.153 129.5,-410.153 134,-400.153 134,-400.153"/>
<text text-anchor="start" x="136" y="-420.5" font-family="Arial" font-size="10.00" fill="black"><a fill="navy" href="../reference/Graphics/RepresentationTypeGroup.html#dexpi-graphics-representationtypegroup-elements" target="_parent">Elements</a></text>
<text text-anchor="start" x="126.0" y="-403.153" font-family="Arial" font-size="10.00" fill="black">*</text>
<text text-anchor="start" x="105.0" y="-436.822" font-family="Arial" font-size="10.00" fill="black">0..1</text>
</g>
<!-- 7&#45;inner&#45;node&#45;&gt;0 -->
<g id="edge6" class="edge"><path fill="none" stroke="black" d="M103,-177.954C103,-176.986 103,-160.766 103,-145.035"/>
</g>
<!-- 8&#45;inner&#45;node&#45;&gt;5 -->
<g id="edge8" class="edge"><path fill="none" stroke="black" d="M133.983,-311.921C133.637,-310.297 127.98,-283.994 120,-264 117.898,-258.733 115.232,-253.187 112.639,-248.177"/>
</g>
</g>
</svg>