<!DOCTYPE svg PUBLIC "-//W3C//DTD SVG 1.1//EN" "http://www.w3.org/Graphics/SVG/1.1/DTD/svg11.dtd">
<!-- Generated by graphviz version 2.38.0 (20140413.2041)
 --><!-- Title: G Pages: 1 --><svg xmlns="http://www.w3.org/2000/svg" xmlns:xlink="http://www.w3.org/1999/xlink" width="867pt" height="773pt" viewBox="0.00 0.00 866.50 773.00">
<g id="graph0" class="graph" transform="scale(1 1) rotate(0) translate(4 769)">
<!-- 0 -->
<g id="node1" class="node"><defs>
<linearGradient id="l_0" gradientUnits="userSpaceOnUse" x1="457.5" y1="-4.26326e-014" x2="457.5" y2="-92">
<stop offset="0" style="stop-color:#ffffbb;stop-opacity:1.;"/>
<stop offset="1" style="stop-color:#ffffee;stop-opacity:1.;"/>
</linearGradient>
</defs>
<polygon fill="url(#l_0)" stroke="black" points="614,-92 301,-92 301,-0 614,-0 614,-92"/>
<text text-anchor="start" x="432" y="-78.2" font-family="Arial" font-weight="bold" font-size="11.00" fill="black">Conveyor</text>
<text text-anchor="start" x="311.5" y="-54" font-family="Arial" font-size="10.00" fill="black"><a fill="navy" href="../reference/Equipment/Conveyor.html#dexpi-equipment-conveyor-conveyingdistance" target="_parent">ConveyingDistance</a>&#160;:</text>
<text text-anchor="start" x="454.5" y="-54" font-family="Arial" font-size="10.00" fill="black"><a fill="navy" href="../reference/PhysicalQuantities/NullableLength.html" target="_parent">NullableLength</a>&#160;[0..1]</text>
<text text-anchor="start" x="311.5" y="-39" font-family="Arial" font-size="10.00" fill="black"><a fill="navy" href="../reference/Equipment/Conveyor.html#dexpi-equipment-conveyor-conveyortype" target="_parent">ConveyorType</a>&#160;:</text>
<text text-anchor="start" x="454.5" y="-39" font-family="Arial" font-size="10.00" fill="black"><a fill="navy" href="../reference/DataTypes/NullableString.html" target="_parent">NullableString</a>&#160;[0..1]</text>
<text text-anchor="start" x="311.5" y="-24" font-family="Arial" font-size="10.00" fill="black"><a fill="navy" href="../reference/Equipment/Conveyor.html#dexpi-equipment-conveyor-designcapacitymassflowrate" target="_parent">DesignCapacityMassFlowRate</a>&#160;:</text>
<text text-anchor="start" x="454.5" y="-24" font-family="Arial" font-size="10.00" fill="black"><a fill="navy" href="../reference/PhysicalQuantities/NullableMassFlowRate.html" target="_parent">NullableMassFlowRate</a>&#160;[0..1]</text>
<text text-anchor="start" x="311.5" y="-9" font-family="Arial" font-size="10.00" fill="black"><a fill="navy" href="../reference/Equipment/Conveyor.html#dexpi-equipment-conveyor-designrotationalspeed" target="_parent">DesignRotationalSpeed</a>&#160;:</text>
<text text-anchor="start" x="454.5" y="-9" font-family="Arial" font-size="10.00" fill="black"><a fill="navy" href="../reference/PhysicalQuantities/NullableRotationalFrequency.html" target="_parent">NullableRotationalFrequency</a>&#160;[0..1]</text>
<polygon fill="black" stroke="black" points="614.0,-72.0 301.0,-72.0 301.0,-72.0 614.0,-72.0 614.0,-72.0"/>
</g>
<!-- 10 -->
<g id="node2" class="node"><defs>
<linearGradient id="l_1" gradientUnits="userSpaceOnUse" x1="766.5" y1="-712" x2="766.5" y2="-765">
<stop offset="0" style="stop-color:#fbfbfb;stop-opacity:1.;"/>
<stop offset="1" style="stop-color:#fefefe;stop-opacity:1.;"/>
</linearGradient>
</defs>
<polygon fill="url(#l_1)" stroke="black" points="858.5,-754.0 847.5,-765.0 674.5,-765.0 674.5,-712.0 858.5,-712.0"/><path d="M858.5,-754.0L847.5,-754.0 847.5,-765.0" fill="none" stroke="black"/>
<text text-anchor="start" x="684.5" y="-750.5" font-family="Arial" font-size="10.00" fill="black">For&#160;the&#160;sake&#160;of&#160;clarity,&#160;superclasses&#160;</text>
<text text-anchor="start" x="684.5" y="-735.5" font-family="Arial" font-size="10.00" fill="black">and&#160;associations&#160;of&#160;<a fill="navy" href="../reference/PlantStructure/TechnicalItem.html" target="_parent">TechnicalItem</a>&#160;are</text>
<text text-anchor="start" x="684.5" y="-720.5" font-family="Arial" font-size="10.00" fill="black">not&#160;shown&#160;in&#160;this&#160;diagram.</text>
</g>
<!-- 9 -->
<g id="node3" class="node"><defs>
<linearGradient id="l_2" gradientUnits="userSpaceOnUse" x1="766.5" y1="-629" x2="766.5" y2="-665">
<stop offset="0" style="stop-color:#ffffbb;stop-opacity:1.;"/>
<stop offset="1" style="stop-color:#ffffee;stop-opacity:1.;"/>
</linearGradient>
</defs>
<polygon fill="url(#l_2)" stroke="black" points="813,-665 720,-665 720,-629 813,-629 813,-665"/>
<text text-anchor="start" x="730.5" y="-645.2" font-family="Arial" font-weight="bold" font-style="italic" font-size="11.00" fill="black"><a fill="navy" href="../reference/PlantStructure/TechnicalItem.html" target="_parent">TechnicalItem</a></text>
</g>
<!-- 10&#45;&gt;9 -->
<g id="edge1" class="edge"><path fill="none" stroke="#000000" stroke-dasharray="5,2" d="M766.5,-711.613C766.5,-696.641 766.5,-678.222 766.5,-665.063"/>
</g>
<!-- 26&#45;inner&#45;node -->
<!-- 9&#45;&gt;26&#45;inner&#45;node -->
<g id="edge26" class="edge"><path fill="none" stroke="black" d="M766.5,-618.649C766.5,-595.987 766.5,-567.163 766.5,-565.116L766.362,-562.941"/>
<polygon fill="none" stroke="black" points="763,-618.822 766.5,-628.822 770,-618.822 763,-618.822"/>
</g>
<!-- 12 -->
<g id="node4" class="node"><defs>
<linearGradient id="l_3" gradientUnits="userSpaceOnUse" x1="457.5" y1="-159" x2="457.5" y2="-195">
<stop offset="0" style="stop-color:#ffffbb;stop-opacity:1.;"/>
<stop offset="1" style="stop-color:#ffffee;stop-opacity:1.;"/>
</linearGradient>
</defs>
<polygon fill="url(#l_3)" stroke="black" points="540,-195 375,-195 375,-159 540,-159 540,-195"/>
<text text-anchor="start" x="385.5" y="-175.2" font-family="Arial" font-weight="bold" font-size="11.00" fill="black"><a fill="navy" href="../reference/Equipment/StationaryTransportSystem.html" target="_parent">StationaryTransportSystem</a></text>
</g>
<!-- 19&#45;inner&#45;node -->
<!-- 12&#45;&gt;19&#45;inner&#45;node -->
<g id="edge12" class="edge"><path fill="none" stroke="black" d="M457.5,-148.603C457.5,-137.422 457.5,-126.887 457.5,-126.053L457.5,-124.943"/>
<polygon fill="none" stroke="black" points="454,-148.793 457.5,-158.793 461,-148.793 454,-148.793"/>
</g>
<!-- 13 -->
<g id="node5" class="node"><defs>
<linearGradient id="l_4" gradientUnits="userSpaceOnUse" x1="457.5" y1="-311" x2="457.5" y2="-347">
<stop offset="0" style="stop-color:#ffffbb;stop-opacity:1.;"/>
<stop offset="1" style="stop-color:#ffffee;stop-opacity:1.;"/>
</linearGradient>
</defs>
<polygon fill="url(#l_4)" stroke="black" points="496.5,-347 418.5,-347 418.5,-311 496.5,-311 496.5,-347"/>
<text text-anchor="start" x="428.5" y="-327.2" font-family="Arial" font-weight="bold" font-style="italic" font-size="11.00" fill="black"><a fill="navy" href="../reference/Equipment/Equipment.html" target="_parent">Equipment</a></text>
</g>
<!-- 29 -->
<g id="node11" class="node"><defs>
<linearGradient id="l_5" gradientUnits="userSpaceOnUse" x1="51.5" y1="-228" x2="51.5" y2="-264">
<stop offset="0" style="stop-color:#ffffbb;stop-opacity:1.;"/>
<stop offset="1" style="stop-color:#ffffee;stop-opacity:1.;"/>
</linearGradient>
</defs>
<polygon fill="url(#l_5)" stroke="black" points="103,-264 0,-264 0,-228 103,-228 103,-264"/>
<text text-anchor="start" x="10.5" y="-244.2" font-family="Arial" font-weight="bold" font-size="11.00" fill="black"><a fill="navy" href="../reference/Equipment/DryingChamber.html" target="_parent">DryingChamber</a></text>
</g>
<!-- 13&#45;&gt;29 -->
<g id="edge2" class="edge"><path fill="none" stroke="#000000" d="M406.027,-328.446C342.858,-327.672 233.105,-322.013 143.5,-295 123.707,-289.033 103.174,-278.771 86.54,-269.264"/>
<polygon fill="#000000" stroke="#000000" points="406.398,-328.449 412.429,-324.495 418.398,-328.542 412.367,-332.495 406.398,-328.449"/>
<polygon fill="#000000" stroke="#000000" points="77.7299,-264.091 88.6319,-265.274 82.0418,-266.623 86.3536,-269.154 86.3536,-269.154 86.3536,-269.154 82.0418,-266.623 84.0753,-273.035 77.7299,-264.091 77.7299,-264.091"/>
<text text-anchor="start" x="146" y="-284.5" font-family="Arial" font-size="10.00" fill="black"><a fill="navy" href="../reference/Equipment/Equipment.html#dexpi-equipment-equipment-dryingchambers" target="_parent">DryingChambers</a></text>
<text text-anchor="start" x="69.7299" y="-267.091" font-family="Arial" font-size="10.00" fill="black">*</text>
<text text-anchor="start" x="389.398" y="-329.542" font-family="Arial" font-size="10.00" fill="black">0..1</text>
</g>
<!-- 32 -->
<g id="node12" class="node"><defs>
<linearGradient id="l_6" gradientUnits="userSpaceOnUse" x1="155.5" y1="-228" x2="155.5" y2="-264">
<stop offset="0" style="stop-color:#ffffbb;stop-opacity:1.;"/>
<stop offset="1" style="stop-color:#ffffee;stop-opacity:1.;"/>
</linearGradient>
</defs>
<polygon fill="url(#l_6)" stroke="black" points="189.5,-264 121.5,-264 121.5,-228 189.5,-228 189.5,-264"/>
<text text-anchor="start" x="131.5" y="-244.2" font-family="Arial" font-weight="bold" font-size="11.00" fill="black"><a fill="navy" href="../reference/Equipment/GearBox.html" target="_parent">GearBox</a></text>
</g>
<!-- 13&#45;&gt;32 -->
<g id="edge3" class="edge"><path fill="none" stroke="#000000" d="M406.201,-322.816C366.621,-317.972 310.82,-309.294 263.5,-295 241.05,-288.218 217.118,-277.924 197.503,-268.606"/>
<polygon fill="#000000" stroke="#000000" points="406.275,-322.824 412.702,-319.553 418.193,-324.227 411.767,-327.498 406.275,-322.824"/>
<polygon fill="#000000" stroke="#000000" points="188.246,-264.129 199.207,-264.432 192.747,-266.306 197.248,-268.483 197.248,-268.483 197.248,-268.483 192.747,-266.306 195.289,-272.534 188.246,-264.129 188.246,-264.129"/>
<text text-anchor="start" x="266" y="-284.5" font-family="Arial" font-size="10.00" fill="black"><a fill="navy" href="../reference/Equipment/Equipment.html#dexpi-equipment-equipment-gearboxes" target="_parent">GearBoxes</a></text>
<text text-anchor="start" x="180.246" y="-267.129" font-family="Arial" font-size="10.00" fill="black">*</text>
<text text-anchor="start" x="389.193" y="-314.227" font-family="Arial" font-size="10.00" fill="black">0..1</text>
</g>
<!-- 35 -->
<g id="node13" class="node"><defs>
<linearGradient id="l_7" gradientUnits="userSpaceOnUse" x1="270.5" y1="-228" x2="270.5" y2="-264">
<stop offset="0" style="stop-color:#ffffbb;stop-opacity:1.;"/>
<stop offset="1" style="stop-color:#ffffee;stop-opacity:1.;"/>
</linearGradient>
</defs>
<polygon fill="url(#l_7)" stroke="black" points="333.5,-264 207.5,-264 207.5,-228 333.5,-228 333.5,-264"/>
<text text-anchor="start" x="217.5" y="-244.2" font-family="Arial" font-weight="bold" font-size="11.00" fill="black"><a fill="navy" href="../reference/Equipment/MotorAsComponent.html" target="_parent">MotorAsComponent</a></text>
</g>
<!-- 13&#45;&gt;35 -->
<g id="edge4" class="edge"><path fill="none" stroke="#000000" d="M406.67,-316.044C387.398,-310.7 365.526,-303.637 346.5,-295 331.23,-288.068 315.388,-278.498 302.145,-269.726"/>
<polygon fill="#000000" stroke="#000000" points="406.692,-316.049 413.521,-313.734 418.285,-319.147 411.456,-321.463 406.692,-316.049"/>
<polygon fill="#000000" stroke="#000000" points="293.85,-264.112 304.654,-265.99 297.991,-266.914 302.132,-269.717 302.132,-269.717 302.132,-269.717 297.991,-266.914 299.61,-273.443 293.85,-264.112 293.85,-264.112"/>
<text text-anchor="start" x="349" y="-284.5" font-family="Arial" font-size="10.00" fill="black"><a fill="navy" href="../reference/Equipment/Equipment.html#dexpi-equipment-equipment-motors" target="_parent">Motors</a></text>
<text text-anchor="start" x="285.85" y="-267.112" font-family="Arial" font-size="10.00" fill="black">*</text>
<text text-anchor="start" x="389.285" y="-309.147" font-family="Arial" font-size="10.00" fill="black">0..1</text>
</g>
<!-- 38 -->
<g id="node14" class="node"><defs>
<linearGradient id="l_8" gradientUnits="userSpaceOnUse" x1="395.5" y1="-228" x2="395.5" y2="-264">
<stop offset="0" style="stop-color:#ffffbb;stop-opacity:1.;"/>
<stop offset="1" style="stop-color:#ffffee;stop-opacity:1.;"/>
</linearGradient>
</defs>
<polygon fill="url(#l_8)" stroke="black" points="439,-264 352,-264 352,-228 439,-228 439,-264"/>
<text text-anchor="start" x="362.5" y="-244.2" font-family="Arial" font-weight="bold" font-size="11.00" fill="black"><a fill="navy" href="../reference/Equipment/SprayNozzle.html" target="_parent">SprayNozzle</a></text>
</g>
<!-- 13&#45;&gt;38 -->
<g id="edge5" class="edge"><path fill="none" stroke="#000000" d="M407.357,-312.548C399.867,-308.067 393.12,-302.33 388.5,-295 384.594,-288.802 384.151,-281.272 385.269,-274.033"/>
<polygon fill="#000000" stroke="#000000" points="407.588,-312.664 414.747,-311.802 418.297,-318.08 411.137,-318.942 407.588,-312.664"/>
<polygon fill="#000000" stroke="#000000" points="387.69,-264.16 389.678,-274.944 386.499,-269.016 385.308,-273.873 385.308,-273.873 385.308,-273.873 386.499,-269.016 380.937,-272.801 387.69,-264.16 387.69,-264.16"/>
<text text-anchor="start" x="391" y="-284.5" font-family="Arial" font-size="10.00" fill="black"><a fill="navy" href="../reference/Equipment/Equipment.html#dexpi-equipment-equipment-spraynozzles" target="_parent">SprayNozzles</a></text>
<text text-anchor="start" x="379.69" y="-267.16" font-family="Arial" font-size="10.00" fill="black">*</text>
<text text-anchor="start" x="406.297" y="-308.08" font-family="Arial" font-size="10.00" fill="black">0..1</text>
</g>
<!-- 20&#45;inner&#45;node -->
<!-- 13&#45;&gt;20&#45;inner&#45;node -->
<g id="edge14" class="edge"><path fill="none" stroke="black" d="M457.5,-300.649C457.5,-277.987 457.5,-249.163 457.5,-247.116L457.5,-244.951"/>
<polygon fill="none" stroke="black" points="454,-300.822 457.5,-310.822 461,-300.822 454,-300.822"/>
</g>
<!-- 14 -->
<g id="node6" class="node"><defs>
<linearGradient id="l_9" gradientUnits="userSpaceOnUse" x1="341.5" y1="-463" x2="341.5" y2="-499">
<stop offset="0" style="stop-color:#ffffbb;stop-opacity:1.;"/>
<stop offset="1" style="stop-color:#ffffee;stop-opacity:1.;"/>
</linearGradient>
</defs>
<polygon fill="url(#l_9)" stroke="black" points="394,-499 289,-499 289,-463 394,-463 394,-499"/>
<text text-anchor="start" x="299.5" y="-479.2" font-family="Arial" font-weight="bold" font-style="italic" font-size="11.00" fill="black"><a fill="navy" href="../reference/Equipment/ChamberOwner.html" target="_parent">ChamberOwner</a></text>
</g>
<!-- 41 -->
<g id="node15" class="node"><defs>
<linearGradient id="l_10" gradientUnits="userSpaceOnUse" x1="277.5" y1="-380" x2="277.5" y2="-416">
<stop offset="0" style="stop-color:#ffffbb;stop-opacity:1.;"/>
<stop offset="1" style="stop-color:#ffffee;stop-opacity:1.;"/>
</linearGradient>
</defs>
<polygon fill="url(#l_10)" stroke="black" points="312,-416 243,-416 243,-380 312,-380 312,-416"/>
<text text-anchor="start" x="253.5" y="-396.2" font-family="Arial" font-weight="bold" font-size="11.00" fill="black"><a fill="navy" href="../reference/Equipment/Chamber.html" target="_parent">Chamber</a></text>
</g>
<!-- 14&#45;&gt;41 -->
<g id="edge6" class="edge"><path fill="none" stroke="#000000" d="M295.598,-455.09C292.972,-452.591 290.565,-449.896 288.5,-447 284.181,-440.945 281.527,-433.461 279.905,-426.22"/>
<polygon fill="#000000" stroke="#000000" points="295.859,-455.3 303.041,-455.955 305.199,-462.835 298.017,-462.181 295.859,-455.3"/>
<polygon fill="#000000" stroke="#000000" points="278.234,-416.318 284.336,-425.43 279.066,-421.248 279.898,-426.179 279.898,-426.179 279.898,-426.179 279.066,-421.248 275.461,-426.928 278.234,-416.318 278.234,-416.318"/>
<text text-anchor="start" x="291" y="-436.5" font-family="Arial" font-size="10.00" fill="black"><a fill="navy" href="../reference/Equipment/ChamberOwner.html#dexpi-equipment-chamberowner-chambers" target="_parent">Chambers</a></text>
<text text-anchor="start" x="270.234" y="-419.318" font-family="Arial" font-size="10.00" fill="black">*</text>
<text text-anchor="start" x="276.199" y="-452.835" font-family="Arial" font-size="10.00" fill="black">0..1</text>
</g>
<!-- 21&#45;inner&#45;node -->
<!-- 14&#45;&gt;21&#45;inner&#45;node -->
<g id="edge16" class="edge"><path fill="none" stroke="black" d="M341.5,-452.649C341.5,-429.987 341.5,-401.163 341.5,-399.116L341.64,-396.884"/>
<polygon fill="none" stroke="black" points="338,-452.822 341.5,-462.822 345,-452.822 338,-452.822"/>
</g>
<!-- 15 -->
<g id="node7" class="node"><defs>
<linearGradient id="l_11" gradientUnits="userSpaceOnUse" x1="457.5" y1="-463" x2="457.5" y2="-499">
<stop offset="0" style="stop-color:#ffffbb;stop-opacity:1.;"/>
<stop offset="1" style="stop-color:#ffffee;stop-opacity:1.;"/>
</linearGradient>
</defs>
<polygon fill="url(#l_11)" stroke="black" points="502.5,-499 412.5,-499 412.5,-463 502.5,-463 502.5,-499"/>
<text text-anchor="start" x="422.5" y="-479.2" font-family="Arial" font-weight="bold" font-style="italic" font-size="11.00" fill="black"><a fill="navy" href="../reference/Equipment/NozzleOwner.html" target="_parent">NozzleOwner</a></text>
</g>
<!-- 44 -->
<g id="node16" class="node"><defs>
<linearGradient id="l_12" gradientUnits="userSpaceOnUse" x1="402.5" y1="-380" x2="402.5" y2="-416">
<stop offset="0" style="stop-color:#ffffbb;stop-opacity:1.;"/>
<stop offset="1" style="stop-color:#ffffee;stop-opacity:1.;"/>
</linearGradient>
</defs>
<polygon fill="url(#l_12)" stroke="black" points="431,-416 374,-416 374,-380 431,-380 431,-416"/>
<text text-anchor="start" x="384.5" y="-396.2" font-family="Arial" font-weight="bold" font-size="11.00" fill="black"><a fill="navy" href="../reference/Equipment/Nozzle.html" target="_parent">Nozzle</a></text>
</g>
<!-- 15&#45;&gt;44 -->
<g id="edge7" class="edge"><path fill="none" stroke="#000000" d="M419.289,-454.384C417.147,-452.056 415.185,-449.592 413.5,-447 409.447,-440.763 406.878,-433.222 405.253,-425.983"/>
<polygon fill="#000000" stroke="#000000" points="419.431,-454.515 426.552,-455.651 428.242,-462.662 421.121,-461.525 419.431,-454.515"/>
<polygon fill="#000000" stroke="#000000" points="403.528,-416.118 409.683,-425.193 404.389,-421.043 405.251,-425.969 405.251,-425.969 405.251,-425.969 404.389,-421.043 400.818,-426.744 403.528,-416.118 403.528,-416.118"/>
<text text-anchor="start" x="415.5" y="-436.5" font-family="Arial" font-size="10.00" fill="black"><a fill="navy" href="../reference/Equipment/NozzleOwner.html#dexpi-equipment-nozzleowner-nozzles" target="_parent">Nozzles</a></text>
<text text-anchor="start" x="395.528" y="-419.118" font-family="Arial" font-size="10.00" fill="black">*</text>
<text text-anchor="start" x="399.242" y="-452.662" font-family="Arial" font-size="10.00" fill="black">0..1</text>
</g>
<!-- 22&#45;inner&#45;node -->
<!-- 15&#45;&gt;22&#45;inner&#45;node -->
<g id="edge18" class="edge"><path fill="none" stroke="black" d="M457.5,-452.649C457.5,-429.987 457.5,-401.163 457.5,-399.116L457.5,-396.951"/>
<polygon fill="none" stroke="black" points="454,-452.822 457.5,-462.822 461,-452.822 454,-452.822"/>
</g>
<!-- 16 -->
<g id="node8" class="node"><defs>
<linearGradient id="l_13" gradientUnits="userSpaceOnUse" x1="575.5" y1="-463" x2="575.5" y2="-499">
<stop offset="0" style="stop-color:#ffffbb;stop-opacity:1.;"/>
<stop offset="1" style="stop-color:#ffffee;stop-opacity:1.;"/>
</linearGradient>
</defs>
<polygon fill="url(#l_13)" stroke="black" points="630,-499 521,-499 521,-463 630,-463 630,-499"/>
<text text-anchor="start" x="531.5" y="-479.2" font-family="Arial" font-weight="bold" font-style="italic" font-size="11.00" fill="black"><a fill="navy" href="../reference/Equipment/TaggedPlantItem.html" target="_parent">TaggedPlantItem</a></text>
</g>
<!-- 23&#45;inner&#45;node -->
<!-- 16&#45;&gt;23&#45;inner&#45;node -->
<g id="edge20" class="edge"><path fill="none" stroke="black" d="M575.5,-452.649C575.5,-429.987 575.5,-401.163 575.5,-399.116L575.414,-396.951"/>
<polygon fill="none" stroke="black" points="572,-452.822 575.5,-462.822 579,-452.822 572,-452.822"/>
</g>
<!-- 17 -->
<g id="node9" class="node"><defs>
<linearGradient id="l_14" gradientUnits="userSpaceOnUse" x1="471.5" y1="-629" x2="471.5" y2="-665">
<stop offset="0" style="stop-color:#ffffbb;stop-opacity:1.;"/>
<stop offset="1" style="stop-color:#ffffee;stop-opacity:1.;"/>
</linearGradient>
</defs>
<polygon fill="url(#l_14)" stroke="black" points="529,-665 414,-665 414,-629 529,-629 529,-665"/>
<text text-anchor="start" x="424.5" y="-645.2" font-family="Arial" font-weight="bold" font-style="italic" font-size="11.00" fill="black"><a fill="navy" href="../reference/DexpiModel/ConceptualObject.html" target="_parent">ConceptualObject</a></text>
</g>
<!-- 24&#45;inner&#45;node -->
<!-- 17&#45;&gt;24&#45;inner&#45;node -->
<g id="edge22" class="edge"><path fill="none" stroke="black" d="M471.5,-618.649C471.5,-595.987 471.5,-567.163 471.5,-565.116L471.538,-562.879"/>
<polygon fill="none" stroke="black" points="468,-618.822 471.5,-628.822 475,-618.822 468,-618.822"/>
</g>
<!-- 18 -->
<g id="node10" class="node"><defs>
<linearGradient id="l_15" gradientUnits="userSpaceOnUse" x1="629.5" y1="-629" x2="629.5" y2="-665">
<stop offset="0" style="stop-color:#ffffbb;stop-opacity:1.;"/>
<stop offset="1" style="stop-color:#ffffee;stop-opacity:1.;"/>
</linearGradient>
</defs>
<polygon fill="url(#l_15)" stroke="black" points="701.5,-665 557.5,-665 557.5,-629 701.5,-629 701.5,-665"/>
<text text-anchor="start" x="567.5" y="-645.2" font-family="Arial" font-weight="bold" font-style="italic" font-size="11.00" fill="black"><a fill="navy" href="../reference/Customization/CustomAttributeOwner.html" target="_parent">CustomAttributeOwner</a></text>
</g>
<!-- 56 -->
<g id="node20" class="node"><defs>
<linearGradient id="l_16" gradientUnits="userSpaceOnUse" x1="544.5" y1="-546" x2="544.5" y2="-582">
<stop offset="0" style="stop-color:#ffffbb;stop-opacity:1.;"/>
<stop offset="1" style="stop-color:#ffffee;stop-opacity:1.;"/>
</linearGradient>
</defs>
<polygon fill="url(#l_16)" stroke="black" points="599,-582 490,-582 490,-546 599,-546 599,-582"/>
<text text-anchor="start" x="500.5" y="-562.2" font-family="Arial" font-weight="bold" font-style="italic" font-size="11.00" fill="black"><a fill="navy" href="../reference/Customization/CustomAttribute.html" target="_parent">CustomAttribute</a></text>
</g>
<!-- 18&#45;&gt;56 -->
<g id="edge11" class="edge"><path fill="none" stroke="#000000" d="M552.949,-621.486C550.181,-618.933 547.67,-616.113 545.5,-613 541.402,-607.119 539.944,-599.772 539.815,-592.608"/>
<polygon fill="#000000" stroke="#000000" points="552.998,-621.523 560.196,-621.959 562.563,-628.77 555.365,-628.335 552.998,-621.523"/>
<polygon fill="#000000" stroke="#000000" points="540.425,-582.435 544.319,-592.687 540.126,-587.426 539.827,-592.417 539.827,-592.417 539.827,-592.417 540.126,-587.426 535.335,-592.148 540.425,-582.435 540.425,-582.435"/>
<text text-anchor="start" x="547.5" y="-602.5" font-family="Arial" font-size="10.00" fill="black"><a fill="navy" href="../reference/Customization/CustomAttributeOwner.html#dexpi-customization-customattributeowner-customattributes" target="_parent">CustomAttributes</a></text>
<text text-anchor="start" x="532.425" y="-585.435" font-family="Arial" font-size="10.00" fill="black">*</text>
<text text-anchor="start" x="533.563" y="-618.77" font-family="Arial" font-size="10.00" fill="black">0..1</text>
</g>
<!-- 25&#45;inner&#45;node -->
<!-- 18&#45;&gt;25&#45;inner&#45;node -->
<g id="edge24" class="edge"><path fill="none" stroke="black" d="M629.5,-618.649C629.5,-595.987 629.5,-567.163 629.5,-565.116L629.461,-562.941"/>
<polygon fill="none" stroke="black" points="626,-618.822 629.5,-628.822 633,-618.822 626,-618.822"/>
</g>
<!-- 47 -->
<g id="node17" class="node"><defs>
<linearGradient id="l_17" gradientUnits="userSpaceOnUse" x1="395.5" y1="-546" x2="395.5" y2="-582">
<stop offset="0" style="stop-color:#ffffbb;stop-opacity:1.;"/>
<stop offset="1" style="stop-color:#ffffee;stop-opacity:1.;"/>
</linearGradient>
</defs>
<polygon fill="url(#l_17)" stroke="black" points="452.5,-582 338.5,-582 338.5,-546 452.5,-546 452.5,-582"/>
<text text-anchor="start" x="348.5" y="-562.2" font-family="Arial" font-weight="bold" font-size="11.00" fill="black"><a fill="navy" href="../reference/DexpiModel/ConceptualModel.html" target="_parent">ConceptualModel</a></text>
</g>
<!-- 47&#45;&gt;16 -->
<g id="edge8" class="edge"><path fill="none" stroke="#000000" d="M400.324,-534.016C402.842,-526.86 406.673,-519.862 412.5,-515 444.518,-488.287 465.123,-505.682 510.934,-498.726"/>
<polygon fill="#000000" stroke="#000000" points="400.262,-534.253 402.602,-541.074 397.205,-545.857 394.865,-539.036 400.262,-534.253"/>
<polygon fill="#000000" stroke="#000000" points="520.773,-496.92 511.751,-503.152 515.856,-497.823 510.938,-498.726 510.938,-498.726 510.938,-498.726 515.856,-497.823 510.125,-494.3 520.773,-496.92 520.773,-496.92"/>
<text text-anchor="start" x="415" y="-519.5" font-family="Arial" font-size="10.00" fill="black"><a fill="navy" href="../reference/DexpiModel/ConceptualModel.html#dexpi-dexpimodel-conceptualmodel-taggedplantitems" target="_parent">TaggedPlantItems</a></text>
<text text-anchor="start" x="512.773" y="-499.92" font-family="Arial" font-size="10.00" fill="black">*</text>
<text text-anchor="start" x="368.205" y="-535.857" font-family="Arial" font-size="10.00" fill="black">0..1</text>
</g>
<!-- 50 -->
<g id="node18" class="node"><defs>
<linearGradient id="l_18" gradientUnits="userSpaceOnUse" x1="368.5" y1="-720.5" x2="368.5" y2="-756.5">
<stop offset="0" style="stop-color:#ffffbb;stop-opacity:1.;"/>
<stop offset="1" style="stop-color:#ffffee;stop-opacity:1.;"/>
</linearGradient>
</defs>
<polygon fill="url(#l_18)" stroke="black" points="443,-756.5 294,-756.5 294,-720.5 443,-720.5 443,-756.5"/>
<text text-anchor="start" x="304.5" y="-736.7" font-family="Arial" font-weight="bold" font-size="11.00" fill="black"><a fill="navy" href="../reference/Graphics/AttributeRepresentation.html" target="_parent">AttributeRepresentation</a></text>
</g>
<!-- 50&#45;&gt;17 -->
<g id="edge9" class="edge"><path fill="none" stroke="#000000" d="M388.359,-720.243C404.176,-706.5 426.493,-687.108 444.024,-671.875"/>
<polygon fill="#000000" stroke="#000000" points="451.702,-665.204 447.105,-675.159 447.927,-668.483 444.153,-671.763 444.153,-671.763 444.153,-671.763 447.927,-668.483 441.201,-668.366 451.702,-665.204 451.702,-665.204"/>
<text text-anchor="start" x="435" y="-685.5" font-family="Arial" font-size="10.00" fill="black"><a fill="navy" href="../reference/Graphics/AttributeRepresentation.html#dexpi-graphics-attributerepresentation-object" target="_parent">Object</a></text>
<text text-anchor="start" x="443.702" y="-668.204" font-family="Arial" font-size="10.00" fill="black"></text>
<text text-anchor="start" x="372.359" y="-710.243" font-family="Arial" font-size="10.00" fill="black">*</text>
</g>
<!-- 53 -->
<g id="node19" class="node"><defs>
<linearGradient id="l_19" gradientUnits="userSpaceOnUse" x1="529.5" y1="-720.5" x2="529.5" y2="-756.5">
<stop offset="0" style="stop-color:#ffffbb;stop-opacity:1.;"/>
<stop offset="1" style="stop-color:#ffffee;stop-opacity:1.;"/>
</linearGradient>
</defs>
<polygon fill="url(#l_19)" stroke="black" points="598,-756.5 461,-756.5 461,-720.5 598,-720.5 598,-756.5"/>
<text text-anchor="start" x="471.5" y="-736.7" font-family="Arial" font-weight="bold" font-size="11.00" fill="black"><a fill="navy" href="../reference/Graphics/RepresentationGroup.html" target="_parent">RepresentationGroup</a></text>
</g>
<!-- 53&#45;&gt;17 -->
<g id="edge10" class="edge"><path fill="none" stroke="#000000" d="M518.317,-720.243C509.812,-707.119 497.968,-688.843 488.322,-673.958"/>
<polygon fill="#000000" stroke="#000000" points="482.649,-665.204 491.863,-671.148 485.368,-669.399 488.087,-673.595 488.087,-673.595 488.087,-673.595 485.368,-669.399 484.311,-676.043 482.649,-665.204 482.649,-665.204"/>
<text text-anchor="start" x="504.5" y="-685.5" font-family="Arial" font-size="10.00" fill="black"><a fill="navy" href="../reference/Graphics/RepresentationGroup.html#dexpi-graphics-representationgroup-represents" target="_parent">Represents</a></text>
<text text-anchor="start" x="474.649" y="-668.204" font-family="Arial" font-size="10.00" fill="black"></text>
<text text-anchor="start" x="502.317" y="-710.243" font-family="Arial" font-size="10.00" fill="black">*</text>
</g>
<!-- 19&#45;inner&#45;node&#45;&gt;0 -->
<g id="edge13" class="edge"><path fill="none" stroke="black" d="M457.5,-124.943C457.5,-123.91 457.5,-108.862 457.5,-92.26"/>
</g>
<!-- 20&#45;inner&#45;node&#45;&gt;12 -->
<g id="edge15" class="edge"><path fill="none" stroke="black" d="M457.5,-244.951C457.5,-243.604 457.5,-214.522 457.5,-195.135"/>
</g>
<!-- 21&#45;inner&#45;node&#45;&gt;13 -->
<g id="edge17" class="edge"><path fill="none" stroke="black" d="M341.64,-396.884C343.027,-395.739 354.434,-386.38 364.5,-380 383.235,-368.126 405.036,-356.306 422.819,-347.142"/>
</g>
<!-- 22&#45;inner&#45;node&#45;&gt;13 -->
<g id="edge19" class="edge"><path fill="none" stroke="black" d="M457.5,-396.951C457.5,-395.604 457.5,-366.522 457.5,-347.135"/>
</g>
<!-- 23&#45;inner&#45;node&#45;&gt;13 -->
<g id="edge21" class="edge"><path fill="none" stroke="black" d="M575.414,-396.951C573.042,-395.604 521.822,-366.522 487.677,-347.135"/>
</g>
<!-- 24&#45;inner&#45;node&#45;&gt;16 -->
<g id="edge23" class="edge"><path fill="none" stroke="black" d="M471.538,-562.879C471.92,-561.686 475.141,-551.959 480.5,-546 497.92,-526.629 522.388,-510.325 542.129,-499.02"/>
</g>
<!-- 25&#45;inner&#45;node&#45;&gt;16 -->
<g id="edge25" class="edge"><path fill="none" stroke="black" d="M629.461,-562.941C628.318,-561.226 602.391,-522.337 586.898,-499.098"/>
</g>
<!-- 26&#45;inner&#45;node&#45;&gt;16 -->
<g id="edge27" class="edge"><path fill="none" stroke="black" d="M766.362,-562.941C762.318,-561.226 670.615,-522.337 615.817,-499.098"/>
</g>
</g>
</svg>