<!DOCTYPE svg PUBLIC "-//W3C//DTD SVG 1.1//EN" "http://www.w3.org/Graphics/SVG/1.1/DTD/svg11.dtd">
<!-- Generated by graphviz version 2.38.0 (20140413.2041)
 --><!-- Title: G Pages: 1 --><svg xmlns="http://www.w3.org/2000/svg" xmlns:xlink="http://www.w3.org/1999/xlink" width="676pt" height="402pt" viewBox="0.00 0.00 676.00 402.00">
<g id="graph0" class="graph" transform="scale(1 1) rotate(0) translate(4 398)">
<!-- 0 -->
<g id="node1" class="node"><defs>
<linearGradient id="l_0" gradientUnits="userSpaceOnUse" x1="330" y1="-83" x2="330" y2="-145">
<stop offset="0" style="stop-color:#ffffbb;stop-opacity:1.;"/>
<stop offset="1" style="stop-color:#ffffee;stop-opacity:1.;"/>
</linearGradient>
</defs>
<polygon fill="url(#l_0)" stroke="black" points="451,-145 209,-145 209,-83 451,-83 451,-145"/>
<text text-anchor="start" x="277" y="-131.2" font-family="Arial" font-weight="bold" font-size="11.00" fill="black">CoolingTowerRotor</text>
<text text-anchor="start" x="219" y="-107" font-family="Arial" font-size="10.00" fill="black"><a fill="navy" href="../reference/Equipment/CoolingTowerRotor.html#dexpi-equipment-coolingtowerrotor-diameter" target="_parent">Diameter</a>&#160;:</text>
<text text-anchor="start" x="351" y="-107" font-family="Arial" font-size="10.00" fill="black"><a fill="navy" href="../reference/PhysicalQuantities/NullableLength.html" target="_parent">NullableLength</a>&#160;[0..1]</text>
<text text-anchor="start" x="219" y="-92" font-family="Arial" font-size="10.00" fill="black"><a fill="navy" href="../reference/Equipment/CoolingTowerRotor.html#dexpi-equipment-coolingtowerrotor-materialofconstructioncode" target="_parent">MaterialOfConstructionCode</a>&#160;:</text>
<text text-anchor="start" x="351" y="-92" font-family="Arial" font-size="10.00" fill="black"><a fill="navy" href="../reference/DataTypes/NullableString.html" target="_parent">NullableString</a>&#160;[0..1]</text>
<polygon fill="black" stroke="black" points="451.0,-125.0 209.0,-125.0 209.0,-125.0 451.0,-125.0 451.0,-125.0"/>
</g>
<!-- 11 -->
<g id="node4" class="node"><defs>
<linearGradient id="l_1" gradientUnits="userSpaceOnUse" x1="330" y1="-1.77636e-014" x2="330" y2="-36">
<stop offset="0" style="stop-color:#ffffbb;stop-opacity:1.;"/>
<stop offset="1" style="stop-color:#ffffee;stop-opacity:1.;"/>
</linearGradient>
</defs>
<polygon fill="url(#l_1)" stroke="black" points="364.5,-36 295.5,-36 295.5,-0 364.5,-0 364.5,-36"/>
<text text-anchor="start" x="306" y="-16.2" font-family="Arial" font-weight="bold" font-size="11.00" fill="black"><a fill="navy" href="../reference/Equipment/Chamber.html" target="_parent">Chamber</a></text>
</g>
<!-- 0&#45;&gt;11 -->
<g id="edge1" class="edge"><path fill="none" stroke="#000000" d="M330,-82.9994C330,-71.2728 330,-57.9145 330,-46.4464"/>
<polygon fill="#000000" stroke="#000000" points="330,-36.1454 334.5,-46.1454 330,-41.1454 330,-46.1454 330,-46.1454 330,-46.1454 330,-41.1454 325.5,-46.1454 330,-36.1454 330,-36.1454"/>
<text text-anchor="start" x="332" y="-56.5" font-family="Arial" font-size="10.00" fill="black"><a fill="navy" href="../reference/Equipment/CoolingTowerRotor.html#dexpi-equipment-coolingtowerrotor-chamber" target="_parent">Chamber</a></text>
<text text-anchor="start" x="309.0" y="-39.1454" font-family="Arial" font-size="10.00" fill="black">0..1</text>
<text text-anchor="start" x="314.0" y="-72.9994" font-family="Arial" font-size="10.00" fill="black">*</text>
</g>
<!-- 5 -->
<g id="node2" class="node"><defs>
<linearGradient id="l_2" gradientUnits="userSpaceOnUse" x1="428" y1="-275" x2="428" y2="-311">
<stop offset="0" style="stop-color:#ffffbb;stop-opacity:1.;"/>
<stop offset="1" style="stop-color:#ffffee;stop-opacity:1.;"/>
</linearGradient>
</defs>
<polygon fill="url(#l_2)" stroke="black" points="485.5,-311 370.5,-311 370.5,-275 485.5,-275 485.5,-311"/>
<text text-anchor="start" x="381" y="-291.2" font-family="Arial" font-weight="bold" font-style="italic" font-size="11.00" fill="black"><a fill="navy" href="../reference/DexpiModel/ConceptualObject.html" target="_parent">ConceptualObject</a></text>
</g>
<!-- 7&#45;inner&#45;node -->
<!-- 5&#45;&gt;7&#45;inner&#45;node -->
<g id="edge8" class="edge"><path fill="none" stroke="black" d="M428,-264.649C428,-241.987 428,-213.163 428,-211.116L428.006,-208.912"/>
<polygon fill="none" stroke="black" points="424.5,-264.822 428,-274.822 431.5,-264.822 424.5,-264.822"/>
</g>
<!-- 6 -->
<g id="node3" class="node"><defs>
<linearGradient id="l_3" gradientUnits="userSpaceOnUse" x1="596" y1="-275" x2="596" y2="-311">
<stop offset="0" style="stop-color:#ffffbb;stop-opacity:1.;"/>
<stop offset="1" style="stop-color:#ffffee;stop-opacity:1.;"/>
</linearGradient>
</defs>
<polygon fill="url(#l_3)" stroke="black" points="668,-311 524,-311 524,-275 668,-275 668,-311"/>
<text text-anchor="start" x="534" y="-291.2" font-family="Arial" font-weight="bold" font-style="italic" font-size="11.00" fill="black"><a fill="navy" href="../reference/Customization/CustomAttributeOwner.html" target="_parent">CustomAttributeOwner</a></text>
</g>
<!-- 29 -->
<g id="node10" class="node"><defs>
<linearGradient id="l_4" gradientUnits="userSpaceOnUse" x1="501" y1="-192" x2="501" y2="-228">
<stop offset="0" style="stop-color:#ffffbb;stop-opacity:1.;"/>
<stop offset="1" style="stop-color:#ffffee;stop-opacity:1.;"/>
</linearGradient>
</defs>
<polygon fill="url(#l_4)" stroke="black" points="555.5,-228 446.5,-228 446.5,-192 555.5,-192 555.5,-228"/>
<text text-anchor="start" x="457" y="-208.2" font-family="Arial" font-weight="bold" font-style="italic" font-size="11.00" fill="black"><a fill="navy" href="../reference/Customization/CustomAttribute.html" target="_parent">CustomAttribute</a></text>
</g>
<!-- 6&#45;&gt;29 -->
<g id="edge7" class="edge"><path fill="none" stroke="#000000" d="M522.066,-268.359C518.387,-265.576 514.987,-262.469 512,-259 507.071,-253.275 504.234,-245.784 502.632,-238.428"/>
<polygon fill="#000000" stroke="#000000" points="522.276,-268.495 529.486,-268.381 532.365,-274.992 525.155,-275.106 522.276,-268.495"/>
<polygon fill="#000000" stroke="#000000" points="501.101,-228.317 507.048,-237.53 501.85,-233.26 502.598,-238.204 502.598,-238.204 502.598,-238.204 501.85,-233.26 498.149,-238.878 501.101,-228.317 501.101,-228.317"/>
<text text-anchor="start" x="514" y="-248.5" font-family="Arial" font-size="10.00" fill="black"><a fill="navy" href="../reference/Customization/CustomAttributeOwner.html#dexpi-customization-customattributeowner-customattributes" target="_parent">CustomAttributes</a></text>
<text text-anchor="start" x="493.101" y="-231.317" font-family="Arial" font-size="10.00" fill="black">*</text>
<text text-anchor="start" x="503.365" y="-264.992" font-family="Arial" font-size="10.00" fill="black">0..1</text>
</g>
<!-- 8&#45;inner&#45;node -->
<!-- 6&#45;&gt;8&#45;inner&#45;node -->
<g id="edge10" class="edge"><path fill="none" stroke="black" d="M596,-264.649C596,-241.987 596,-213.163 596,-211.116L595.95,-208.969"/>
<polygon fill="none" stroke="black" points="592.5,-264.822 596,-274.822 599.5,-264.822 592.5,-264.822"/>
</g>
<!-- 14 -->
<g id="node5" class="node"><defs>
<linearGradient id="l_5" gradientUnits="userSpaceOnUse" x1="57" y1="-192" x2="57" y2="-228">
<stop offset="0" style="stop-color:#ffffbb;stop-opacity:1.;"/>
<stop offset="1" style="stop-color:#ffffee;stop-opacity:1.;"/>
</linearGradient>
</defs>
<polygon fill="url(#l_5)" stroke="black" points="114,-228 0,-228 0,-192 114,-192 114,-228"/>
<text text-anchor="start" x="10" y="-208.2" font-family="Arial" font-weight="bold" font-size="11.00" fill="black"><a fill="navy" href="../reference/Equipment/DryCoolingTower.html" target="_parent">DryCoolingTower</a></text>
</g>
<!-- 14&#45;&gt;0 -->
<g id="edge2" class="edge"><path fill="none" stroke="#000000" d="M89.8445,-185.214C103.045,-176.555 118.735,-167.346 134,-161 154.523,-152.468 176.944,-145.337 199.054,-139.436"/>
<polygon fill="#000000" stroke="#000000" points="89.7875,-185.253 87.0581,-191.928 79.8471,-191.975 82.5765,-185.301 89.7875,-185.253"/>
<polygon fill="#000000" stroke="#000000" points="208.842,-136.897 200.292,-143.764 204.002,-138.153 199.162,-139.408 199.162,-139.408 199.162,-139.408 204.002,-138.153 198.032,-135.052 208.842,-136.897 208.842,-136.897"/>
<text text-anchor="start" x="136" y="-165.5" font-family="Arial" font-size="10.00" fill="black"><a fill="navy" href="../reference/Equipment/DryCoolingTower.html#dexpi-equipment-drycoolingtower-coolingtowerrotor" target="_parent">CoolingTowerRotor</a></text>
<text text-anchor="start" x="187.842" y="-139.897" font-family="Arial" font-size="10.00" fill="black">0..1</text>
<text text-anchor="start" x="50.8471" y="-181.975" font-family="Arial" font-size="10.00" fill="black">0..1</text>
</g>
<!-- 17 -->
<g id="node6" class="node"><defs>
<linearGradient id="l_6" gradientUnits="userSpaceOnUse" x1="190" y1="-192" x2="190" y2="-228">
<stop offset="0" style="stop-color:#ffffbb;stop-opacity:1.;"/>
<stop offset="1" style="stop-color:#ffffee;stop-opacity:1.;"/>
</linearGradient>
</defs>
<polygon fill="url(#l_6)" stroke="black" points="248,-228 132,-228 132,-192 248,-192 248,-228"/>
<text text-anchor="start" x="142" y="-208.2" font-family="Arial" font-weight="bold" font-size="11.00" fill="black"><a fill="navy" href="../reference/Equipment/WetCoolingTower.html" target="_parent">WetCoolingTower</a></text>
</g>
<!-- 17&#45;&gt;0 -->
<g id="edge3" class="edge"><path fill="none" stroke="#000000" d="M214.734,-183.1C222.716,-175.481 231.87,-167.464 241,-161 246.217,-157.306 251.77,-153.725 257.455,-150.301"/>
<polygon fill="#000000" stroke="#000000" points="214.515,-183.316 213.054,-190.378 205.973,-191.745 207.435,-184.683 214.515,-183.316"/>
<polygon fill="#000000" stroke="#000000" points="266.469,-145.054 260.09,-153.974 262.148,-147.569 257.827,-150.085 257.827,-150.085 257.827,-150.085 262.148,-147.569 255.563,-146.196 266.469,-145.054 266.469,-145.054"/>
<text text-anchor="start" x="243" y="-165.5" font-family="Arial" font-size="10.00" fill="black"><a fill="navy" href="../reference/Equipment/WetCoolingTower.html#dexpi-equipment-wetcoolingtower-coolingtowerrotor" target="_parent">CoolingTowerRotor</a></text>
<text text-anchor="start" x="245.469" y="-148.054" font-family="Arial" font-size="10.00" fill="black">0..1</text>
<text text-anchor="start" x="176.973" y="-181.745" font-family="Arial" font-size="10.00" fill="black">0..1</text>
</g>
<!-- 20 -->
<g id="node7" class="node"><defs>
<linearGradient id="l_7" gradientUnits="userSpaceOnUse" x1="334" y1="-192" x2="334" y2="-228">
<stop offset="0" style="stop-color:#ffffbb;stop-opacity:1.;"/>
<stop offset="1" style="stop-color:#ffffee;stop-opacity:1.;"/>
</linearGradient>
</defs>
<polygon fill="url(#l_7)" stroke="black" points="402,-228 266,-228 266,-192 402,-192 402,-228"/>
<text text-anchor="start" x="276" y="-208.2" font-family="Arial" font-weight="bold" font-size="11.00" fill="black"><a fill="navy" href="../reference/Equipment/CustomCoolingTower.html" target="_parent">CustomCoolingTower</a></text>
</g>
<!-- 20&#45;&gt;0 -->
<g id="edge4" class="edge"><path fill="none" stroke="#000000" d="M331.205,-179.447C331.13,-178.283 331.061,-177.131 331,-176 330.647,-169.406 330.406,-162.406 330.244,-155.589"/>
<polygon fill="#000000" stroke="#000000" points="331.244,-179.928 335.71,-185.59 332.201,-191.89 327.735,-186.228 331.244,-179.928"/>
<polygon fill="#000000" stroke="#000000" points="330.05,-145.111 334.735,-155.026 330.143,-150.11 330.236,-155.11 330.236,-155.11 330.236,-155.11 330.143,-150.11 325.736,-155.193 330.05,-145.111 330.05,-145.111"/>
<text text-anchor="start" x="333" y="-165.5" font-family="Arial" font-size="10.00" fill="black"><a fill="navy" href="../reference/Equipment/CustomCoolingTower.html#dexpi-equipment-customcoolingtower-coolingtowerrotor" target="_parent">CoolingTowerRotor</a></text>
<text text-anchor="start" x="309.05" y="-148.111" font-family="Arial" font-size="10.00" fill="black">0..1</text>
<text text-anchor="start" x="303.201" y="-181.89" font-family="Arial" font-size="10.00" fill="black">0..1</text>
</g>
<!-- 23 -->
<g id="node8" class="node"><defs>
<linearGradient id="l_8" gradientUnits="userSpaceOnUse" x1="348" y1="-358" x2="348" y2="-394">
<stop offset="0" style="stop-color:#ffffbb;stop-opacity:1.;"/>
<stop offset="1" style="stop-color:#ffffee;stop-opacity:1.;"/>
</linearGradient>
</defs>
<polygon fill="url(#l_8)" stroke="black" points="422.5,-394 273.5,-394 273.5,-358 422.5,-358 422.5,-394"/>
<text text-anchor="start" x="284" y="-374.2" font-family="Arial" font-weight="bold" font-size="11.00" fill="black"><a fill="navy" href="../reference/Graphics/AttributeRepresentation.html" target="_parent">AttributeRepresentation</a></text>
</g>
<!-- 23&#45;&gt;5 -->
<g id="edge5" class="edge"><path fill="none" stroke="#000000" d="M364.966,-357.822C376.315,-346.331 391.416,-331.041 403.993,-318.307"/>
<polygon fill="#000000" stroke="#000000" points="411.059,-311.153 407.233,-321.43 407.545,-314.711 404.031,-318.268 404.031,-318.268 404.031,-318.268 407.545,-314.711 400.83,-315.106 411.059,-311.153 411.059,-311.153"/>
<text text-anchor="start" x="398.5" y="-331.5" font-family="Arial" font-size="10.00" fill="black"><a fill="navy" href="../reference/Graphics/AttributeRepresentation.html#dexpi-graphics-attributerepresentation-object" target="_parent">Object</a></text>
<text text-anchor="start" x="403.059" y="-314.153" font-family="Arial" font-size="10.00" fill="black"></text>
<text text-anchor="start" x="348.966" y="-347.822" font-family="Arial" font-size="10.00" fill="black">*</text>
</g>
<!-- 26 -->
<g id="node9" class="node"><defs>
<linearGradient id="l_9" gradientUnits="userSpaceOnUse" x1="509" y1="-358" x2="509" y2="-394">
<stop offset="0" style="stop-color:#ffffbb;stop-opacity:1.;"/>
<stop offset="1" style="stop-color:#ffffee;stop-opacity:1.;"/>
</linearGradient>
</defs>
<polygon fill="url(#l_9)" stroke="black" points="577.5,-394 440.5,-394 440.5,-358 577.5,-358 577.5,-394"/>
<text text-anchor="start" x="451" y="-374.2" font-family="Arial" font-weight="bold" font-size="11.00" fill="black"><a fill="navy" href="../reference/Graphics/RepresentationGroup.html" target="_parent">RepresentationGroup</a></text>
</g>
<!-- 26&#45;&gt;5 -->
<g id="edge6" class="edge"><path fill="none" stroke="#000000" d="M491.822,-357.822C480.331,-346.331 465.041,-331.041 452.307,-318.307"/>
<polygon fill="#000000" stroke="#000000" points="445.153,-311.153 455.406,-315.042 448.689,-314.689 452.224,-318.224 452.224,-318.224 452.224,-318.224 448.689,-314.689 449.042,-321.406 445.153,-311.153 445.153,-311.153"/>
<text text-anchor="start" x="478" y="-331.5" font-family="Arial" font-size="10.00" fill="black"><a fill="navy" href="../reference/Graphics/RepresentationGroup.html#dexpi-graphics-representationgroup-represents" target="_parent">Represents</a></text>
<text text-anchor="start" x="437.153" y="-314.153" font-family="Arial" font-size="10.00" fill="black"></text>
<text text-anchor="start" x="475.822" y="-347.822" font-family="Arial" font-size="10.00" fill="black">*</text>
</g>
<!-- 7&#45;inner&#45;node&#45;&gt;0 -->
<g id="edge9" class="edge"><path fill="none" stroke="black" d="M428.006,-208.912C428.13,-207.098 429.913,-177.816 417,-161 412.421,-155.037 406.847,-149.766 400.753,-145.123"/>
</g>
<!-- 8&#45;inner&#45;node&#45;&gt;0 -->
<g id="edge11" class="edge"><path fill="none" stroke="black" d="M595.95,-208.969C594.928,-208.337 578.351,-198.12 564,-192 522.3,-174.216 475.014,-157.958 433.917,-145.011"/>
</g>
</g>
</svg>