<!DOCTYPE svg PUBLIC "-//W3C//DTD SVG 1.1//EN" "http://www.w3.org/Graphics/SVG/1.1/DTD/svg11.dtd">
<!-- Generated by graphviz version 2.38.0 (20140413.2041)
 --><!-- Title: G Pages: 1 --><svg xmlns="http://www.w3.org/2000/svg" xmlns:xlink="http://www.w3.org/1999/xlink" width="460pt" height="334pt" viewBox="0.00 0.00 460.00 334.00">
<g id="graph0" class="graph" transform="scale(1 1) rotate(0) translate(4 330)">
<!-- 0 -->
<g id="node1" class="node"><defs>
<linearGradient id="l_0" gradientUnits="userSpaceOnUse" x1="182" y1="-3.55271e-014" x2="182" y2="-77">
<stop offset="0" style="stop-color:#ffffbb;stop-opacity:1.;"/>
<stop offset="1" style="stop-color:#ffffee;stop-opacity:1.;"/>
</linearGradient>
</defs>
<polygon fill="url(#l_0)" stroke="black" points="301,-77 63,-77 63,-0 301,-0 301,-77"/>
<text text-anchor="start" x="138" y="-62.7" font-family="Arial" font-weight="bold" font-size="11.00" fill="black">CrusherElement</text>
<text text-anchor="start" x="73" y="-38.5" font-family="Arial" font-size="10.00" fill="black"><a fill="navy" href="../reference/Equipment/CrusherElement.html#dexpi-equipment-crusherelement-crusherelementtype" target="_parent">CrusherElementType</a>&#160;:</text>
<text text-anchor="start" x="205" y="-38.5" font-family="Arial" font-size="10.00" fill="black"><a fill="navy" href="../reference/DataTypes/NullableString.html" target="_parent">NullableString</a>&#160;[0..1]</text>
<text text-anchor="start" x="73" y="-23.5" font-family="Arial" font-size="10.00" fill="black"><a fill="navy" href="../reference/Equipment/CrusherElement.html#dexpi-equipment-crusherelement-materialofconstructioncode" target="_parent">MaterialOfConstructionCode</a>&#160;:</text>
<text text-anchor="start" x="205" y="-23.5" font-family="Arial" font-size="10.00" fill="black"><a fill="navy" href="../reference/DataTypes/NullableString.html" target="_parent">NullableString</a>&#160;[0..1]</text>
<text text-anchor="start" x="73" y="-8.5" font-family="Arial" font-size="10.00" fill="black"><a fill="navy" href="../reference/Equipment/CrusherElement.html#dexpi-equipment-crusherelement-stageidentifier" target="_parent">StageIdentifier</a>&#160;:</text>
<text text-anchor="start" x="205" y="-8.5" font-family="Arial" font-size="10.00" fill="black"><a fill="navy" href="../reference/DataTypes/NullableString.html" target="_parent">NullableString</a>&#160;[0..1]</text>
<polygon fill="black" stroke="black" points="301.0,-56.5 63.0,-56.5 63.0,-56.5 301.0,-56.5 301.0,-56.5"/>
</g>
<!-- 5 -->
<g id="node2" class="node"><defs>
<linearGradient id="l_1" gradientUnits="userSpaceOnUse" x1="212" y1="-207" x2="212" y2="-243">
<stop offset="0" style="stop-color:#ffffbb;stop-opacity:1.;"/>
<stop offset="1" style="stop-color:#ffffee;stop-opacity:1.;"/>
</linearGradient>
</defs>
<polygon fill="url(#l_1)" stroke="black" points="269.5,-243 154.5,-243 154.5,-207 269.5,-207 269.5,-243"/>
<text text-anchor="start" x="165" y="-223.2" font-family="Arial" font-weight="bold" font-style="italic" font-size="11.00" fill="black"><a fill="navy" href="../reference/DexpiModel/ConceptualObject.html" target="_parent">ConceptualObject</a></text>
</g>
<!-- 7&#45;inner&#45;node -->
<!-- 5&#45;&gt;7&#45;inner&#45;node -->
<g id="edge6" class="edge"><path fill="none" stroke="black" d="M212,-196.649C212,-173.987 212,-145.163 212,-143.116L212.028,-140.921"/>
<polygon fill="none" stroke="black" points="208.5,-196.822 212,-206.822 215.5,-196.822 208.5,-196.822"/>
</g>
<!-- 6 -->
<g id="node3" class="node"><defs>
<linearGradient id="l_2" gradientUnits="userSpaceOnUse" x1="380" y1="-207" x2="380" y2="-243">
<stop offset="0" style="stop-color:#ffffbb;stop-opacity:1.;"/>
<stop offset="1" style="stop-color:#ffffee;stop-opacity:1.;"/>
</linearGradient>
</defs>
<polygon fill="url(#l_2)" stroke="black" points="452,-243 308,-243 308,-207 452,-207 452,-243"/>
<text text-anchor="start" x="318" y="-223.2" font-family="Arial" font-weight="bold" font-style="italic" font-size="11.00" fill="black"><a fill="navy" href="../reference/Customization/CustomAttributeOwner.html" target="_parent">CustomAttributeOwner</a></text>
</g>
<!-- 23 -->
<g id="node8" class="node"><defs>
<linearGradient id="l_3" gradientUnits="userSpaceOnUse" x1="285" y1="-124" x2="285" y2="-160">
<stop offset="0" style="stop-color:#ffffbb;stop-opacity:1.;"/>
<stop offset="1" style="stop-color:#ffffee;stop-opacity:1.;"/>
</linearGradient>
</defs>
<polygon fill="url(#l_3)" stroke="black" points="339.5,-160 230.5,-160 230.5,-124 339.5,-124 339.5,-160"/>
<text text-anchor="start" x="241" y="-140.2" font-family="Arial" font-weight="bold" font-style="italic" font-size="11.00" fill="black"><a fill="navy" href="../reference/Customization/CustomAttribute.html" target="_parent">CustomAttribute</a></text>
</g>
<!-- 6&#45;&gt;23 -->
<g id="edge5" class="edge"><path fill="none" stroke="#000000" d="M306.066,-200.359C302.387,-197.576 298.987,-194.469 296,-191 291.071,-185.275 288.234,-177.784 286.632,-170.428"/>
<polygon fill="#000000" stroke="#000000" points="306.276,-200.495 313.486,-200.381 316.365,-206.992 309.155,-207.106 306.276,-200.495"/>
<polygon fill="#000000" stroke="#000000" points="285.101,-160.317 291.048,-169.53 285.85,-165.26 286.598,-170.204 286.598,-170.204 286.598,-170.204 285.85,-165.26 282.149,-170.878 285.101,-160.317 285.101,-160.317"/>
<text text-anchor="start" x="298" y="-180.5" font-family="Arial" font-size="10.00" fill="black"><a fill="navy" href="../reference/Customization/CustomAttributeOwner.html#dexpi-customization-customattributeowner-customattributes" target="_parent">CustomAttributes</a></text>
<text text-anchor="start" x="277.101" y="-163.317" font-family="Arial" font-size="10.00" fill="black">*</text>
<text text-anchor="start" x="287.365" y="-196.992" font-family="Arial" font-size="10.00" fill="black">0..1</text>
</g>
<!-- 8&#45;inner&#45;node -->
<!-- 6&#45;&gt;8&#45;inner&#45;node -->
<g id="edge8" class="edge"><path fill="none" stroke="black" d="M380,-196.649C380,-173.987 380,-145.163 380,-143.116L379.949,-140.972"/>
<polygon fill="none" stroke="black" points="376.5,-196.822 380,-206.822 383.5,-196.822 376.5,-196.822"/>
</g>
<!-- 11 -->
<g id="node4" class="node"><defs>
<linearGradient id="l_4" gradientUnits="userSpaceOnUse" x1="32" y1="-124" x2="32" y2="-160">
<stop offset="0" style="stop-color:#ffffbb;stop-opacity:1.;"/>
<stop offset="1" style="stop-color:#ffffee;stop-opacity:1.;"/>
</linearGradient>
</defs>
<polygon fill="url(#l_4)" stroke="black" points="64,-160 0,-160 0,-124 64,-124 64,-160"/>
<text text-anchor="start" x="10" y="-140.2" font-family="Arial" font-weight="bold" font-size="11.00" fill="black"><a fill="navy" href="../reference/Equipment/Crusher.html" target="_parent">Crusher</a></text>
</g>
<!-- 11&#45;&gt;0 -->
<g id="edge1" class="edge"><path fill="none" stroke="#000000" d="M36.0171,-111.718C38.0978,-104.946 41.2448,-98.2089 46,-93 49.1152,-89.5876 52.4755,-86.3899 56.0301,-83.3937"/>
<polygon fill="#000000" stroke="#000000" points="35.9714,-111.919 38.5392,-118.657 33.3066,-123.619 30.7389,-116.881 35.9714,-111.919"/>
<polygon fill="#000000" stroke="#000000" points="64.1027,-77.1512 58.9448,-86.8283 60.1473,-80.2099 56.192,-83.2685 56.192,-83.2685 56.192,-83.2685 60.1473,-80.2099 53.4392,-79.7087 64.1027,-77.1512 64.1027,-77.1512"/>
<text text-anchor="start" x="48" y="-97.5" font-family="Arial" font-size="10.00" fill="black"><a fill="navy" href="../reference/Equipment/Crusher.html#dexpi-equipment-crusher-crusherelements" target="_parent">CrusherElements</a></text>
<text text-anchor="start" x="56.1027" y="-80.1512" font-family="Arial" font-size="10.00" fill="black">*</text>
<text text-anchor="start" x="4.3066" y="-113.619" font-family="Arial" font-size="10.00" fill="black">0..1</text>
</g>
<!-- 14 -->
<g id="node5" class="node"><defs>
<linearGradient id="l_5" gradientUnits="userSpaceOnUse" x1="135" y1="-124" x2="135" y2="-160">
<stop offset="0" style="stop-color:#ffffbb;stop-opacity:1.;"/>
<stop offset="1" style="stop-color:#ffffee;stop-opacity:1.;"/>
</linearGradient>
</defs>
<polygon fill="url(#l_5)" stroke="black" points="175,-160 95,-160 95,-124 175,-124 175,-160"/>
<text text-anchor="start" x="105" y="-140.2" font-family="Arial" font-weight="bold" font-size="11.00" fill="black"><a fill="navy" href="../reference/Equipment/CustomMill.html" target="_parent">CustomMill</a></text>
</g>
<!-- 14&#45;&gt;0 -->
<g id="edge2" class="edge"><path fill="none" stroke="#000000" d="M129.167,-111.333C129.034,-105.118 129.744,-98.7184 132,-93 132.959,-90.5683 134.087,-88.1821 135.35,-85.8497"/>
<polygon fill="#000000" stroke="#000000" points="129.195,-111.618 133.777,-117.186 130.399,-123.557 125.817,-117.989 129.195,-111.618"/>
<polygon fill="#000000" stroke="#000000" points="140.822,-77.1383 139.314,-88 138.163,-81.3724 135.503,-85.6065 135.503,-85.6065 135.503,-85.6065 138.163,-81.3724 131.692,-83.2129 140.822,-77.1383 140.822,-77.1383"/>
<text text-anchor="start" x="134" y="-97.5" font-family="Arial" font-size="10.00" fill="black"><a fill="navy" href="../reference/Equipment/CustomMill.html#dexpi-equipment-custommill-crusherelements" target="_parent">CrusherElements</a></text>
<text text-anchor="start" x="132.822" y="-80.1383" font-family="Arial" font-size="10.00" fill="black">*</text>
<text text-anchor="start" x="101.399" y="-113.557" font-family="Arial" font-size="10.00" fill="black">0..1</text>
</g>
<!-- 17 -->
<g id="node6" class="node"><defs>
<linearGradient id="l_6" gradientUnits="userSpaceOnUse" x1="132" y1="-290" x2="132" y2="-326">
<stop offset="0" style="stop-color:#ffffbb;stop-opacity:1.;"/>
<stop offset="1" style="stop-color:#ffffee;stop-opacity:1.;"/>
</linearGradient>
</defs>
<polygon fill="url(#l_6)" stroke="black" points="206.5,-326 57.5,-326 57.5,-290 206.5,-290 206.5,-326"/>
<text text-anchor="start" x="68" y="-306.2" font-family="Arial" font-weight="bold" font-size="11.00" fill="black"><a fill="navy" href="../reference/Graphics/AttributeRepresentation.html" target="_parent">AttributeRepresentation</a></text>
</g>
<!-- 17&#45;&gt;5 -->
<g id="edge3" class="edge"><path fill="none" stroke="#000000" d="M148.966,-289.822C160.315,-278.331 175.416,-263.041 187.993,-250.307"/>
<polygon fill="#000000" stroke="#000000" points="195.059,-243.153 191.233,-253.43 191.545,-246.711 188.031,-250.268 188.031,-250.268 188.031,-250.268 191.545,-246.711 184.83,-247.106 195.059,-243.153 195.059,-243.153"/>
<text text-anchor="start" x="182.5" y="-263.5" font-family="Arial" font-size="10.00" fill="black"><a fill="navy" href="../reference/Graphics/AttributeRepresentation.html#dexpi-graphics-attributerepresentation-object" target="_parent">Object</a></text>
<text text-anchor="start" x="187.059" y="-246.153" font-family="Arial" font-size="10.00" fill="black"></text>
<text text-anchor="start" x="132.966" y="-279.822" font-family="Arial" font-size="10.00" fill="black">*</text>
</g>
<!-- 20 -->
<g id="node7" class="node"><defs>
<linearGradient id="l_7" gradientUnits="userSpaceOnUse" x1="293" y1="-290" x2="293" y2="-326">
<stop offset="0" style="stop-color:#ffffbb;stop-opacity:1.;"/>
<stop offset="1" style="stop-color:#ffffee;stop-opacity:1.;"/>
</linearGradient>
</defs>
<polygon fill="url(#l_7)" stroke="black" points="361.5,-326 224.5,-326 224.5,-290 361.5,-290 361.5,-326"/>
<text text-anchor="start" x="235" y="-306.2" font-family="Arial" font-weight="bold" font-size="11.00" fill="black"><a fill="navy" href="../reference/Graphics/RepresentationGroup.html" target="_parent">RepresentationGroup</a></text>
</g>
<!-- 20&#45;&gt;5 -->
<g id="edge4" class="edge"><path fill="none" stroke="#000000" d="M275.822,-289.822C264.331,-278.331 249.041,-263.041 236.307,-250.307"/>
<polygon fill="#000000" stroke="#000000" points="229.153,-243.153 239.406,-247.042 232.689,-246.689 236.224,-250.224 236.224,-250.224 236.224,-250.224 232.689,-246.689 233.042,-253.406 229.153,-243.153 229.153,-243.153"/>
<text text-anchor="start" x="262" y="-263.5" font-family="Arial" font-size="10.00" fill="black"><a fill="navy" href="../reference/Graphics/RepresentationGroup.html#dexpi-graphics-representationgroup-represents" target="_parent">Represents</a></text>
<text text-anchor="start" x="221.153" y="-246.153" font-family="Arial" font-size="10.00" fill="black"></text>
<text text-anchor="start" x="259.822" y="-279.822" font-family="Arial" font-size="10.00" fill="black">*</text>
</g>
<!-- 7&#45;inner&#45;node&#45;&gt;0 -->
<g id="edge7" class="edge"><path fill="none" stroke="black" d="M212.028,-140.921C212.608,-139.291 221.792,-112.913 216,-93 214.432,-87.6107 212.14,-82.2454 209.474,-77.1084"/>
</g>
<!-- 8&#45;inner&#45;node&#45;&gt;0 -->
<g id="edge9" class="edge"><path fill="none" stroke="black" d="M379.949,-140.972C378.896,-140.404 361.841,-131.199 348,-124 318.162,-108.482 285.171,-91.6261 256.513,-77.0811"/>
</g>
</g>
</svg>