<!DOCTYPE svg PUBLIC "-//W3C//DTD SVG 1.1//EN" "http://www.w3.org/Graphics/SVG/1.1/DTD/svg11.dtd">
<!-- Generated by graphviz version 2.38.0 (20140413.2041)
 --><!-- Title: G Pages: 1 --><svg xmlns="http://www.w3.org/2000/svg" xmlns:xlink="http://www.w3.org/1999/xlink" width="862pt" height="841pt" viewBox="0.00 0.00 861.50 841.00">
<g id="graph0" class="graph" transform="scale(1 1) rotate(0) translate(4 837)">
<!-- 0 -->
<g id="node1" class="node"><defs>
<linearGradient id="l_0" gradientUnits="userSpaceOnUse" x1="522.5" y1="-83" x2="522.5" y2="-160">
<stop offset="0" style="stop-color:#ffffbb;stop-opacity:1.;"/>
<stop offset="1" style="stop-color:#ffffee;stop-opacity:1.;"/>
</linearGradient>
</defs>
<polygon fill="url(#l_0)" stroke="black" points="671.5,-160 373.5,-160 373.5,-83 671.5,-83 671.5,-160"/>
<text text-anchor="start" x="469.5" y="-145.7" font-family="Arial" font-weight="bold" font-size="11.00" fill="black">CustomCompressor</text>
<text text-anchor="start" x="383.5" y="-121.5" font-family="Arial" font-size="10.00" fill="black"><a fill="navy" href="../reference/Equipment/CustomCompressor.html#dexpi-equipment-customcompressor-designcapacitymotivefluid" target="_parent">DesignCapacityMotiveFluid</a>&#160;:</text>
<text text-anchor="start" x="511.5" y="-121.5" font-family="Arial" font-size="10.00" fill="black"><a fill="navy" href="../reference/PhysicalQuantities/NullableVolumeFlowRate.html" target="_parent">NullableVolumeFlowRate</a>&#160;[0..1]</text>
<text text-anchor="start" x="383.5" y="-106.5" font-family="Arial" font-size="10.00" fill="black"><a fill="navy" href="../reference/Equipment/CustomCompressor.html#dexpi-equipment-customcompressor-designrotationalspeed" target="_parent">DesignRotationalSpeed</a>&#160;:</text>
<text text-anchor="start" x="511.5" y="-106.5" font-family="Arial" font-size="10.00" fill="black"><a fill="navy" href="../reference/PhysicalQuantities/NullableRotationalFrequency.html" target="_parent">NullableRotationalFrequency</a>&#160;[0..1]</text>
<text text-anchor="start" x="383.5" y="-91.5" font-family="Arial" font-size="10.00" fill="black"><a fill="navy" href="../reference/Equipment/CustomCompressor.html#dexpi-equipment-customcompressor-designshaftpower" target="_parent">DesignShaftPower</a>&#160;:</text>
<text text-anchor="start" x="511.5" y="-91.5" font-family="Arial" font-size="10.00" fill="black"><a fill="navy" href="../reference/PhysicalQuantities/NullablePower.html" target="_parent">NullablePower</a>&#160;[0..1]</text>
<polygon fill="black" stroke="black" points="671.5,-139.5 373.5,-139.5 373.5,-139.5 671.5,-139.5 671.5,-139.5"/>
</g>
<!-- 29 -->
<g id="node12" class="node"><defs>
<linearGradient id="l_1" gradientUnits="userSpaceOnUse" x1="480.5" y1="-1.77636e-014" x2="480.5" y2="-36">
<stop offset="0" style="stop-color:#ffffbb;stop-opacity:1.;"/>
<stop offset="1" style="stop-color:#ffffee;stop-opacity:1.;"/>
</linearGradient>
</defs>
<polygon fill="url(#l_1)" stroke="black" points="516,-36 445,-36 445,-0 516,-0 516,-36"/>
<text text-anchor="start" x="455.5" y="-16.2" font-family="Arial" font-weight="bold" font-size="11.00" fill="black"><a fill="navy" href="../reference/Equipment/Displacer.html" target="_parent">Displacer</a></text>
</g>
<!-- 0&#45;&gt;29 -->
<g id="edge2" class="edge"><path fill="none" stroke="#000000" d="M495.34,-71.4135C494.7,-69.9354 494.085,-68.4621 493.5,-67 490.828,-60.3219 488.518,-52.9067 486.618,-45.9415"/>
<polygon fill="#000000" stroke="#000000" points="495.553,-71.8677 501.718,-75.607 500.638,-82.7368 494.472,-78.9974 495.553,-71.8677"/>
<polygon fill="#000000" stroke="#000000" points="484.133,-36.1968 490.965,-44.7744 485.368,-41.0417 486.604,-45.8866 486.604,-45.8866 486.604,-45.8866 485.368,-41.0417 482.244,-46.9988 484.133,-36.1968 484.133,-36.1968"/>
<text text-anchor="start" x="495.5" y="-56.5" font-family="Arial" font-size="10.00" fill="black"><a fill="navy" href="../reference/Equipment/CustomCompressor.html#dexpi-equipment-customcompressor-displacers" target="_parent">Displacers</a></text>
<text text-anchor="start" x="476.133" y="-39.1968" font-family="Arial" font-size="10.00" fill="black">*</text>
<text text-anchor="start" x="471.638" y="-72.7368" font-family="Arial" font-size="10.00" fill="black">0..1</text>
</g>
<!-- 32 -->
<g id="node13" class="node"><defs>
<linearGradient id="l_2" gradientUnits="userSpaceOnUse" x1="565.5" y1="-1.77636e-014" x2="565.5" y2="-36">
<stop offset="0" style="stop-color:#ffffbb;stop-opacity:1.;"/>
<stop offset="1" style="stop-color:#ffffee;stop-opacity:1.;"/>
</linearGradient>
</defs>
<polygon fill="url(#l_2)" stroke="black" points="597,-36 534,-36 534,-0 597,-0 597,-36"/>
<text text-anchor="start" x="544.5" y="-16.2" font-family="Arial" font-weight="bold" font-size="11.00" fill="black"><a fill="navy" href="../reference/Equipment/Impeller.html" target="_parent">Impeller</a></text>
</g>
<!-- 0&#45;&gt;32 -->
<g id="edge3" class="edge"><path fill="none" stroke="#000000" d="M543.097,-71.8824C546.949,-62.7896 550.84,-53.6054 554.273,-45.5001"/>
<polygon fill="#000000" stroke="#000000" points="543.071,-71.9442 544.413,-79.0292 538.389,-82.9935 537.047,-75.9085 543.071,-71.9442"/>
<polygon fill="#000000" stroke="#000000" points="558.202,-36.2271 558.444,-47.1903 556.251,-40.831 554.301,-45.4349 554.301,-45.4349 554.301,-45.4349 556.251,-40.831 550.157,-43.6795 558.202,-36.2271 558.202,-36.2271"/>
<text text-anchor="start" x="551.5" y="-56.5" font-family="Arial" font-size="10.00" fill="black"><a fill="navy" href="../reference/Equipment/CustomCompressor.html#dexpi-equipment-customcompressor-impellers" target="_parent">Impellers</a></text>
<text text-anchor="start" x="550.202" y="-39.2271" font-family="Arial" font-size="10.00" fill="black">*</text>
<text text-anchor="start" x="509.389" y="-72.9935" font-family="Arial" font-size="10.00" fill="black">0..1</text>
</g>
<!-- 8 -->
<g id="node2" class="node"><defs>
<linearGradient id="l_3" gradientUnits="userSpaceOnUse" x1="761.5" y1="-780" x2="761.5" y2="-833">
<stop offset="0" style="stop-color:#fbfbfb;stop-opacity:1.;"/>
<stop offset="1" style="stop-color:#fefefe;stop-opacity:1.;"/>
</linearGradient>
</defs>
<polygon fill="url(#l_3)" stroke="black" points="853.5,-822.0 842.5,-833.0 669.5,-833.0 669.5,-780.0 853.5,-780.0"/><path d="M853.5,-822.0L842.5,-822.0 842.5,-833.0" fill="none" stroke="black"/>
<text text-anchor="start" x="679.5" y="-818.5" font-family="Arial" font-size="10.00" fill="black">For&#160;the&#160;sake&#160;of&#160;clarity,&#160;superclasses&#160;</text>
<text text-anchor="start" x="679.5" y="-803.5" font-family="Arial" font-size="10.00" fill="black">and&#160;associations&#160;of&#160;<a fill="navy" href="../reference/PlantStructure/TechnicalItem.html" target="_parent">TechnicalItem</a>&#160;are</text>
<text text-anchor="start" x="679.5" y="-788.5" font-family="Arial" font-size="10.00" fill="black">not&#160;shown&#160;in&#160;this&#160;diagram.</text>
</g>
<!-- 7 -->
<g id="node3" class="node"><defs>
<linearGradient id="l_4" gradientUnits="userSpaceOnUse" x1="761.5" y1="-697" x2="761.5" y2="-733">
<stop offset="0" style="stop-color:#ffffbb;stop-opacity:1.;"/>
<stop offset="1" style="stop-color:#ffffee;stop-opacity:1.;"/>
</linearGradient>
</defs>
<polygon fill="url(#l_4)" stroke="black" points="808,-733 715,-733 715,-697 808,-697 808,-733"/>
<text text-anchor="start" x="725.5" y="-713.2" font-family="Arial" font-weight="bold" font-style="italic" font-size="11.00" fill="black"><a fill="navy" href="../reference/PlantStructure/TechnicalItem.html" target="_parent">TechnicalItem</a></text>
</g>
<!-- 8&#45;&gt;7 -->
<g id="edge1" class="edge"><path fill="none" stroke="#000000" stroke-dasharray="5,2" d="M761.5,-779.613C761.5,-764.641 761.5,-746.222 761.5,-733.063"/>
</g>
<!-- 26&#45;inner&#45;node -->
<!-- 7&#45;&gt;26&#45;inner&#45;node -->
<g id="edge30" class="edge"><path fill="none" stroke="black" d="M761.5,-686.649C761.5,-663.987 761.5,-635.163 761.5,-633.116L761.365,-630.941"/>
<polygon fill="none" stroke="black" points="758,-686.822 761.5,-696.822 765,-686.822 758,-686.822"/>
</g>
<!-- 10 -->
<g id="node4" class="node"><defs>
<linearGradient id="l_5" gradientUnits="userSpaceOnUse" x1="457.5" y1="-227" x2="457.5" y2="-263">
<stop offset="0" style="stop-color:#ffffbb;stop-opacity:1.;"/>
<stop offset="1" style="stop-color:#ffffee;stop-opacity:1.;"/>
</linearGradient>
</defs>
<polygon fill="url(#l_5)" stroke="black" points="500.5,-263 414.5,-263 414.5,-227 500.5,-227 500.5,-263"/>
<text text-anchor="start" x="424.5" y="-243.2" font-family="Arial" font-weight="bold" font-size="11.00" fill="black"><a fill="navy" href="../reference/Equipment/Compressor.html" target="_parent">Compressor</a></text>
</g>
<!-- 18&#45;inner&#45;node -->
<!-- 10&#45;&gt;18&#45;inner&#45;node -->
<g id="edge14" class="edge"><path fill="none" stroke="black" d="M457.5,-216.603C457.5,-205.422 457.5,-194.887 457.5,-194.053L457.547,-192.949"/>
<polygon fill="none" stroke="black" points="454,-216.793 457.5,-226.793 461,-216.793 454,-216.793"/>
</g>
<!-- 11 -->
<g id="node5" class="node"><defs>
<linearGradient id="l_6" gradientUnits="userSpaceOnUse" x1="567.5" y1="-227" x2="567.5" y2="-263">
<stop offset="0" style="stop-color:#ffffbb;stop-opacity:1.;"/>
<stop offset="1" style="stop-color:#ffffee;stop-opacity:1.;"/>
</linearGradient>
</defs>
<polygon fill="url(#l_6)" stroke="black" points="616,-263 519,-263 519,-227 616,-227 616,-263"/>
<text text-anchor="start" x="529.5" y="-243.2" font-family="Arial" font-weight="bold" font-style="italic" font-size="11.00" fill="black"><a fill="navy" href="../reference/Customization/CustomObject.html" target="_parent">CustomObject</a></text>
</g>
<!-- 19&#45;inner&#45;node -->
<!-- 11&#45;&gt;19&#45;inner&#45;node -->
<g id="edge16" class="edge"><path fill="none" stroke="black" d="M567.5,-216.603C567.5,-205.422 567.5,-194.887 567.5,-194.053L567.467,-192.949"/>
<polygon fill="none" stroke="black" points="564,-216.793 567.5,-226.793 571,-216.793 564,-216.793"/>
</g>
<!-- 12 -->
<g id="node6" class="node"><defs>
<linearGradient id="l_7" gradientUnits="userSpaceOnUse" x1="457.5" y1="-379" x2="457.5" y2="-415">
<stop offset="0" style="stop-color:#ffffbb;stop-opacity:1.;"/>
<stop offset="1" style="stop-color:#ffffee;stop-opacity:1.;"/>
</linearGradient>
</defs>
<polygon fill="url(#l_7)" stroke="black" points="496.5,-415 418.5,-415 418.5,-379 496.5,-379 496.5,-415"/>
<text text-anchor="start" x="428.5" y="-395.2" font-family="Arial" font-weight="bold" font-style="italic" font-size="11.00" fill="black"><a fill="navy" href="../reference/Equipment/Equipment.html" target="_parent">Equipment</a></text>
</g>
<!-- 35 -->
<g id="node14" class="node"><defs>
<linearGradient id="l_8" gradientUnits="userSpaceOnUse" x1="51.5" y1="-296" x2="51.5" y2="-332">
<stop offset="0" style="stop-color:#ffffbb;stop-opacity:1.;"/>
<stop offset="1" style="stop-color:#ffffee;stop-opacity:1.;"/>
</linearGradient>
</defs>
<polygon fill="url(#l_8)" stroke="black" points="103,-332 0,-332 0,-296 103,-296 103,-332"/>
<text text-anchor="start" x="10.5" y="-312.2" font-family="Arial" font-weight="bold" font-size="11.00" fill="black"><a fill="navy" href="../reference/Equipment/DryingChamber.html" target="_parent">DryingChamber</a></text>
</g>
<!-- 12&#45;&gt;35 -->
<g id="edge4" class="edge"><path fill="none" stroke="#000000" d="M406.027,-396.446C342.858,-395.672 233.105,-390.013 143.5,-363 123.707,-357.033 103.174,-346.771 86.54,-337.264"/>
<polygon fill="#000000" stroke="#000000" points="406.398,-396.449 412.429,-392.495 418.398,-396.542 412.367,-400.495 406.398,-396.449"/>
<polygon fill="#000000" stroke="#000000" points="77.7299,-332.091 88.6319,-333.274 82.0418,-334.623 86.3536,-337.154 86.3536,-337.154 86.3536,-337.154 82.0418,-334.623 84.0753,-341.035 77.7299,-332.091 77.7299,-332.091"/>
<text text-anchor="start" x="146" y="-352.5" font-family="Arial" font-size="10.00" fill="black"><a fill="navy" href="../reference/Equipment/Equipment.html#dexpi-equipment-equipment-dryingchambers" target="_parent">DryingChambers</a></text>
<text text-anchor="start" x="69.7299" y="-335.091" font-family="Arial" font-size="10.00" fill="black">*</text>
<text text-anchor="start" x="389.398" y="-397.542" font-family="Arial" font-size="10.00" fill="black">0..1</text>
</g>
<!-- 38 -->
<g id="node15" class="node"><defs>
<linearGradient id="l_9" gradientUnits="userSpaceOnUse" x1="155.5" y1="-296" x2="155.5" y2="-332">
<stop offset="0" style="stop-color:#ffffbb;stop-opacity:1.;"/>
<stop offset="1" style="stop-color:#ffffee;stop-opacity:1.;"/>
</linearGradient>
</defs>
<polygon fill="url(#l_9)" stroke="black" points="189.5,-332 121.5,-332 121.5,-296 189.5,-296 189.5,-332"/>
<text text-anchor="start" x="131.5" y="-312.2" font-family="Arial" font-weight="bold" font-size="11.00" fill="black"><a fill="navy" href="../reference/Equipment/GearBox.html" target="_parent">GearBox</a></text>
</g>
<!-- 12&#45;&gt;38 -->
<g id="edge5" class="edge"><path fill="none" stroke="#000000" d="M406.201,-390.816C366.621,-385.972 310.82,-377.294 263.5,-363 241.05,-356.218 217.118,-345.924 197.503,-336.606"/>
<polygon fill="#000000" stroke="#000000" points="406.275,-390.824 412.702,-387.553 418.193,-392.227 411.767,-395.498 406.275,-390.824"/>
<polygon fill="#000000" stroke="#000000" points="188.246,-332.129 199.207,-332.432 192.747,-334.306 197.248,-336.483 197.248,-336.483 197.248,-336.483 192.747,-334.306 195.289,-340.534 188.246,-332.129 188.246,-332.129"/>
<text text-anchor="start" x="266" y="-352.5" font-family="Arial" font-size="10.00" fill="black"><a fill="navy" href="../reference/Equipment/Equipment.html#dexpi-equipment-equipment-gearboxes" target="_parent">GearBoxes</a></text>
<text text-anchor="start" x="180.246" y="-335.129" font-family="Arial" font-size="10.00" fill="black">*</text>
<text text-anchor="start" x="389.193" y="-382.227" font-family="Arial" font-size="10.00" fill="black">0..1</text>
</g>
<!-- 41 -->
<g id="node16" class="node"><defs>
<linearGradient id="l_10" gradientUnits="userSpaceOnUse" x1="270.5" y1="-296" x2="270.5" y2="-332">
<stop offset="0" style="stop-color:#ffffbb;stop-opacity:1.;"/>
<stop offset="1" style="stop-color:#ffffee;stop-opacity:1.;"/>
</linearGradient>
</defs>
<polygon fill="url(#l_10)" stroke="black" points="333.5,-332 207.5,-332 207.5,-296 333.5,-296 333.5,-332"/>
<text text-anchor="start" x="217.5" y="-312.2" font-family="Arial" font-weight="bold" font-size="11.00" fill="black"><a fill="navy" href="../reference/Equipment/MotorAsComponent.html" target="_parent">MotorAsComponent</a></text>
</g>
<!-- 12&#45;&gt;41 -->
<g id="edge6" class="edge"><path fill="none" stroke="#000000" d="M406.67,-384.044C387.398,-378.7 365.526,-371.637 346.5,-363 331.23,-356.068 315.388,-346.498 302.145,-337.726"/>
<polygon fill="#000000" stroke="#000000" points="406.692,-384.049 413.521,-381.734 418.285,-387.147 411.456,-389.463 406.692,-384.049"/>
<polygon fill="#000000" stroke="#000000" points="293.85,-332.112 304.654,-333.99 297.991,-334.914 302.132,-337.717 302.132,-337.717 302.132,-337.717 297.991,-334.914 299.61,-341.443 293.85,-332.112 293.85,-332.112"/>
<text text-anchor="start" x="349" y="-352.5" font-family="Arial" font-size="10.00" fill="black"><a fill="navy" href="../reference/Equipment/Equipment.html#dexpi-equipment-equipment-motors" target="_parent">Motors</a></text>
<text text-anchor="start" x="285.85" y="-335.112" font-family="Arial" font-size="10.00" fill="black">*</text>
<text text-anchor="start" x="389.285" y="-377.147" font-family="Arial" font-size="10.00" fill="black">0..1</text>
</g>
<!-- 44 -->
<g id="node17" class="node"><defs>
<linearGradient id="l_11" gradientUnits="userSpaceOnUse" x1="395.5" y1="-296" x2="395.5" y2="-332">
<stop offset="0" style="stop-color:#ffffbb;stop-opacity:1.;"/>
<stop offset="1" style="stop-color:#ffffee;stop-opacity:1.;"/>
</linearGradient>
</defs>
<polygon fill="url(#l_11)" stroke="black" points="439,-332 352,-332 352,-296 439,-296 439,-332"/>
<text text-anchor="start" x="362.5" y="-312.2" font-family="Arial" font-weight="bold" font-size="11.00" fill="black"><a fill="navy" href="../reference/Equipment/SprayNozzle.html" target="_parent">SprayNozzle</a></text>
</g>
<!-- 12&#45;&gt;44 -->
<g id="edge7" class="edge"><path fill="none" stroke="#000000" d="M407.357,-380.548C399.867,-376.067 393.12,-370.33 388.5,-363 384.594,-356.802 384.151,-349.272 385.269,-342.033"/>
<polygon fill="#000000" stroke="#000000" points="407.588,-380.664 414.747,-379.802 418.297,-386.08 411.137,-386.942 407.588,-380.664"/>
<polygon fill="#000000" stroke="#000000" points="387.69,-332.16 389.678,-342.944 386.499,-337.016 385.308,-341.873 385.308,-341.873 385.308,-341.873 386.499,-337.016 380.937,-340.801 387.69,-332.16 387.69,-332.16"/>
<text text-anchor="start" x="391" y="-352.5" font-family="Arial" font-size="10.00" fill="black"><a fill="navy" href="../reference/Equipment/Equipment.html#dexpi-equipment-equipment-spraynozzles" target="_parent">SprayNozzles</a></text>
<text text-anchor="start" x="379.69" y="-335.16" font-family="Arial" font-size="10.00" fill="black">*</text>
<text text-anchor="start" x="406.297" y="-376.08" font-family="Arial" font-size="10.00" fill="black">0..1</text>
</g>
<!-- 20&#45;inner&#45;node -->
<!-- 12&#45;&gt;20&#45;inner&#45;node -->
<g id="edge18" class="edge"><path fill="none" stroke="black" d="M457.5,-368.649C457.5,-345.987 457.5,-317.163 457.5,-315.116L457.5,-312.951"/>
<polygon fill="none" stroke="black" points="454,-368.822 457.5,-378.822 461,-368.822 454,-368.822"/>
</g>
<!-- 13 -->
<g id="node7" class="node"><defs>
<linearGradient id="l_12" gradientUnits="userSpaceOnUse" x1="341.5" y1="-531" x2="341.5" y2="-567">
<stop offset="0" style="stop-color:#ffffbb;stop-opacity:1.;"/>
<stop offset="1" style="stop-color:#ffffee;stop-opacity:1.;"/>
</linearGradient>
</defs>
<polygon fill="url(#l_12)" stroke="black" points="394,-567 289,-567 289,-531 394,-531 394,-567"/>
<text text-anchor="start" x="299.5" y="-547.2" font-family="Arial" font-weight="bold" font-style="italic" font-size="11.00" fill="black"><a fill="navy" href="../reference/Equipment/ChamberOwner.html" target="_parent">ChamberOwner</a></text>
</g>
<!-- 47 -->
<g id="node18" class="node"><defs>
<linearGradient id="l_13" gradientUnits="userSpaceOnUse" x1="277.5" y1="-448" x2="277.5" y2="-484">
<stop offset="0" style="stop-color:#ffffbb;stop-opacity:1.;"/>
<stop offset="1" style="stop-color:#ffffee;stop-opacity:1.;"/>
</linearGradient>
</defs>
<polygon fill="url(#l_13)" stroke="black" points="312,-484 243,-484 243,-448 312,-448 312,-484"/>
<text text-anchor="start" x="253.5" y="-464.2" font-family="Arial" font-weight="bold" font-size="11.00" fill="black"><a fill="navy" href="../reference/Equipment/Chamber.html" target="_parent">Chamber</a></text>
</g>
<!-- 13&#45;&gt;47 -->
<g id="edge8" class="edge"><path fill="none" stroke="#000000" d="M295.598,-523.09C292.972,-520.591 290.565,-517.896 288.5,-515 284.181,-508.945 281.527,-501.461 279.905,-494.22"/>
<polygon fill="#000000" stroke="#000000" points="295.859,-523.3 303.041,-523.955 305.199,-530.835 298.017,-530.181 295.859,-523.3"/>
<polygon fill="#000000" stroke="#000000" points="278.234,-484.318 284.336,-493.43 279.066,-489.248 279.898,-494.179 279.898,-494.179 279.898,-494.179 279.066,-489.248 275.461,-494.928 278.234,-484.318 278.234,-484.318"/>
<text text-anchor="start" x="291" y="-504.5" font-family="Arial" font-size="10.00" fill="black"><a fill="navy" href="../reference/Equipment/ChamberOwner.html#dexpi-equipment-chamberowner-chambers" target="_parent">Chambers</a></text>
<text text-anchor="start" x="270.234" y="-487.318" font-family="Arial" font-size="10.00" fill="black">*</text>
<text text-anchor="start" x="276.199" y="-520.835" font-family="Arial" font-size="10.00" fill="black">0..1</text>
</g>
<!-- 21&#45;inner&#45;node -->
<!-- 13&#45;&gt;21&#45;inner&#45;node -->
<g id="edge20" class="edge"><path fill="none" stroke="black" d="M341.5,-520.649C341.5,-497.987 341.5,-469.163 341.5,-467.116L341.64,-464.884"/>
<polygon fill="none" stroke="black" points="338,-520.822 341.5,-530.822 345,-520.822 338,-520.822"/>
</g>
<!-- 14 -->
<g id="node8" class="node"><defs>
<linearGradient id="l_14" gradientUnits="userSpaceOnUse" x1="457.5" y1="-531" x2="457.5" y2="-567">
<stop offset="0" style="stop-color:#ffffbb;stop-opacity:1.;"/>
<stop offset="1" style="stop-color:#ffffee;stop-opacity:1.;"/>
</linearGradient>
</defs>
<polygon fill="url(#l_14)" stroke="black" points="502.5,-567 412.5,-567 412.5,-531 502.5,-531 502.5,-567"/>
<text text-anchor="start" x="422.5" y="-547.2" font-family="Arial" font-weight="bold" font-style="italic" font-size="11.00" fill="black"><a fill="navy" href="../reference/Equipment/NozzleOwner.html" target="_parent">NozzleOwner</a></text>
</g>
<!-- 50 -->
<g id="node19" class="node"><defs>
<linearGradient id="l_15" gradientUnits="userSpaceOnUse" x1="402.5" y1="-448" x2="402.5" y2="-484">
<stop offset="0" style="stop-color:#ffffbb;stop-opacity:1.;"/>
<stop offset="1" style="stop-color:#ffffee;stop-opacity:1.;"/>
</linearGradient>
</defs>
<polygon fill="url(#l_15)" stroke="black" points="431,-484 374,-484 374,-448 431,-448 431,-484"/>
<text text-anchor="start" x="384.5" y="-464.2" font-family="Arial" font-weight="bold" font-size="11.00" fill="black"><a fill="navy" href="../reference/Equipment/Nozzle.html" target="_parent">Nozzle</a></text>
</g>
<!-- 14&#45;&gt;50 -->
<g id="edge9" class="edge"><path fill="none" stroke="#000000" d="M419.289,-522.384C417.147,-520.056 415.185,-517.592 413.5,-515 409.447,-508.763 406.878,-501.222 405.253,-493.983"/>
<polygon fill="#000000" stroke="#000000" points="419.431,-522.515 426.552,-523.651 428.242,-530.662 421.121,-529.525 419.431,-522.515"/>
<polygon fill="#000000" stroke="#000000" points="403.528,-484.118 409.683,-493.193 404.389,-489.043 405.251,-493.969 405.251,-493.969 405.251,-493.969 404.389,-489.043 400.818,-494.744 403.528,-484.118 403.528,-484.118"/>
<text text-anchor="start" x="415.5" y="-504.5" font-family="Arial" font-size="10.00" fill="black"><a fill="navy" href="../reference/Equipment/NozzleOwner.html#dexpi-equipment-nozzleowner-nozzles" target="_parent">Nozzles</a></text>
<text text-anchor="start" x="395.528" y="-487.118" font-family="Arial" font-size="10.00" fill="black">*</text>
<text text-anchor="start" x="399.242" y="-520.662" font-family="Arial" font-size="10.00" fill="black">0..1</text>
</g>
<!-- 22&#45;inner&#45;node -->
<!-- 14&#45;&gt;22&#45;inner&#45;node -->
<g id="edge22" class="edge"><path fill="none" stroke="black" d="M457.5,-520.649C457.5,-497.987 457.5,-469.163 457.5,-467.116L457.5,-464.951"/>
<polygon fill="none" stroke="black" points="454,-520.822 457.5,-530.822 461,-520.822 454,-520.822"/>
</g>
<!-- 15 -->
<g id="node9" class="node"><defs>
<linearGradient id="l_16" gradientUnits="userSpaceOnUse" x1="575.5" y1="-531" x2="575.5" y2="-567">
<stop offset="0" style="stop-color:#ffffbb;stop-opacity:1.;"/>
<stop offset="1" style="stop-color:#ffffee;stop-opacity:1.;"/>
</linearGradient>
</defs>
<polygon fill="url(#l_16)" stroke="black" points="630,-567 521,-567 521,-531 630,-531 630,-567"/>
<text text-anchor="start" x="531.5" y="-547.2" font-family="Arial" font-weight="bold" font-style="italic" font-size="11.00" fill="black"><a fill="navy" href="../reference/Equipment/TaggedPlantItem.html" target="_parent">TaggedPlantItem</a></text>
</g>
<!-- 23&#45;inner&#45;node -->
<!-- 15&#45;&gt;23&#45;inner&#45;node -->
<g id="edge24" class="edge"><path fill="none" stroke="black" d="M575.5,-520.649C575.5,-497.987 575.5,-469.163 575.5,-467.116L575.414,-464.951"/>
<polygon fill="none" stroke="black" points="572,-520.822 575.5,-530.822 579,-520.822 572,-520.822"/>
</g>
<!-- 16 -->
<g id="node10" class="node"><defs>
<linearGradient id="l_17" gradientUnits="userSpaceOnUse" x1="466.5" y1="-697" x2="466.5" y2="-733">
<stop offset="0" style="stop-color:#ffffbb;stop-opacity:1.;"/>
<stop offset="1" style="stop-color:#ffffee;stop-opacity:1.;"/>
</linearGradient>
</defs>
<polygon fill="url(#l_17)" stroke="black" points="524,-733 409,-733 409,-697 524,-697 524,-733"/>
<text text-anchor="start" x="419.5" y="-713.2" font-family="Arial" font-weight="bold" font-style="italic" font-size="11.00" fill="black"><a fill="navy" href="../reference/DexpiModel/ConceptualObject.html" target="_parent">ConceptualObject</a></text>
</g>
<!-- 24&#45;inner&#45;node -->
<!-- 16&#45;&gt;24&#45;inner&#45;node -->
<g id="edge26" class="edge"><path fill="none" stroke="black" d="M466.5,-686.649C466.5,-663.987 466.5,-635.163 466.5,-633.116L466.537,-630.878"/>
<polygon fill="none" stroke="black" points="463,-686.822 466.5,-696.822 470,-686.822 463,-686.822"/>
</g>
<!-- 17 -->
<g id="node11" class="node"><defs>
<linearGradient id="l_18" gradientUnits="userSpaceOnUse" x1="624.5" y1="-697" x2="624.5" y2="-733">
<stop offset="0" style="stop-color:#ffffbb;stop-opacity:1.;"/>
<stop offset="1" style="stop-color:#ffffee;stop-opacity:1.;"/>
</linearGradient>
</defs>
<polygon fill="url(#l_18)" stroke="black" points="696.5,-733 552.5,-733 552.5,-697 696.5,-697 696.5,-733"/>
<text text-anchor="start" x="562.5" y="-713.2" font-family="Arial" font-weight="bold" font-style="italic" font-size="11.00" fill="black"><a fill="navy" href="../reference/Customization/CustomAttributeOwner.html" target="_parent">CustomAttributeOwner</a></text>
</g>
<!-- 62 -->
<g id="node23" class="node"><defs>
<linearGradient id="l_19" gradientUnits="userSpaceOnUse" x1="539.5" y1="-614" x2="539.5" y2="-650">
<stop offset="0" style="stop-color:#ffffbb;stop-opacity:1.;"/>
<stop offset="1" style="stop-color:#ffffee;stop-opacity:1.;"/>
</linearGradient>
</defs>
<polygon fill="url(#l_19)" stroke="black" points="594,-650 485,-650 485,-614 594,-614 594,-650"/>
<text text-anchor="start" x="495.5" y="-630.2" font-family="Arial" font-weight="bold" font-style="italic" font-size="11.00" fill="black"><a fill="navy" href="../reference/Customization/CustomAttribute.html" target="_parent">CustomAttribute</a></text>
</g>
<!-- 17&#45;&gt;62 -->
<g id="edge13" class="edge"><path fill="none" stroke="#000000" d="M547.949,-689.486C545.181,-686.933 542.67,-684.113 540.5,-681 536.402,-675.119 534.944,-667.772 534.815,-660.608"/>
<polygon fill="#000000" stroke="#000000" points="547.998,-689.523 555.196,-689.959 557.563,-696.77 550.365,-696.335 547.998,-689.523"/>
<polygon fill="#000000" stroke="#000000" points="535.425,-650.435 539.319,-660.687 535.126,-655.426 534.827,-660.417 534.827,-660.417 534.827,-660.417 535.126,-655.426 530.335,-660.148 535.425,-650.435 535.425,-650.435"/>
<text text-anchor="start" x="542.5" y="-670.5" font-family="Arial" font-size="10.00" fill="black"><a fill="navy" href="../reference/Customization/CustomAttributeOwner.html#dexpi-customization-customattributeowner-customattributes" target="_parent">CustomAttributes</a></text>
<text text-anchor="start" x="527.425" y="-653.435" font-family="Arial" font-size="10.00" fill="black">*</text>
<text text-anchor="start" x="528.563" y="-686.77" font-family="Arial" font-size="10.00" fill="black">0..1</text>
</g>
<!-- 25&#45;inner&#45;node -->
<!-- 17&#45;&gt;25&#45;inner&#45;node -->
<g id="edge28" class="edge"><path fill="none" stroke="black" d="M624.5,-686.649C624.5,-663.987 624.5,-635.163 624.5,-633.116L624.464,-630.941"/>
<polygon fill="none" stroke="black" points="621,-686.822 624.5,-696.822 628,-686.822 621,-686.822"/>
</g>
<!-- 53 -->
<g id="node20" class="node"><defs>
<linearGradient id="l_20" gradientUnits="userSpaceOnUse" x1="390.5" y1="-614" x2="390.5" y2="-650">
<stop offset="0" style="stop-color:#ffffbb;stop-opacity:1.;"/>
<stop offset="1" style="stop-color:#ffffee;stop-opacity:1.;"/>
</linearGradient>
</defs>
<polygon fill="url(#l_20)" stroke="black" points="447.5,-650 333.5,-650 333.5,-614 447.5,-614 447.5,-650"/>
<text text-anchor="start" x="343.5" y="-630.2" font-family="Arial" font-weight="bold" font-size="11.00" fill="black"><a fill="navy" href="../reference/DexpiModel/ConceptualModel.html" target="_parent">ConceptualModel</a></text>
</g>
<!-- 53&#45;&gt;15 -->
<g id="edge10" class="edge"><path fill="none" stroke="#000000" d="M395.3,-601.987C397.818,-594.831 401.654,-587.84 407.5,-583 441.271,-555.04 462.895,-573.856 510.83,-566.738"/>
<polygon fill="#000000" stroke="#000000" points="395.236,-602.228 397.58,-609.048 392.186,-613.833 389.842,-607.014 395.236,-602.228"/>
<polygon fill="#000000" stroke="#000000" points="520.779,-564.947 511.735,-571.148 515.858,-565.833 510.937,-566.719 510.937,-566.719 510.937,-566.719 515.858,-565.833 510.14,-562.29 520.779,-564.947 520.779,-564.947"/>
<text text-anchor="start" x="410" y="-587.5" font-family="Arial" font-size="10.00" fill="black"><a fill="navy" href="../reference/DexpiModel/ConceptualModel.html#dexpi-dexpimodel-conceptualmodel-taggedplantitems" target="_parent">TaggedPlantItems</a></text>
<text text-anchor="start" x="512.779" y="-567.947" font-family="Arial" font-size="10.00" fill="black">*</text>
<text text-anchor="start" x="363.186" y="-603.833" font-family="Arial" font-size="10.00" fill="black">0..1</text>
</g>
<!-- 56 -->
<g id="node21" class="node"><defs>
<linearGradient id="l_21" gradientUnits="userSpaceOnUse" x1="363.5" y1="-788.5" x2="363.5" y2="-824.5">
<stop offset="0" style="stop-color:#ffffbb;stop-opacity:1.;"/>
<stop offset="1" style="stop-color:#ffffee;stop-opacity:1.;"/>
</linearGradient>
</defs>
<polygon fill="url(#l_21)" stroke="black" points="438,-824.5 289,-824.5 289,-788.5 438,-788.5 438,-824.5"/>
<text text-anchor="start" x="299.5" y="-804.7" font-family="Arial" font-weight="bold" font-size="11.00" fill="black"><a fill="navy" href="../reference/Graphics/AttributeRepresentation.html" target="_parent">AttributeRepresentation</a></text>
</g>
<!-- 56&#45;&gt;16 -->
<g id="edge11" class="edge"><path fill="none" stroke="#000000" d="M383.359,-788.243C399.176,-774.5 421.493,-755.108 439.024,-739.875"/>
<polygon fill="#000000" stroke="#000000" points="446.702,-733.204 442.105,-743.159 442.927,-736.483 439.153,-739.763 439.153,-739.763 439.153,-739.763 442.927,-736.483 436.201,-736.366 446.702,-733.204 446.702,-733.204"/>
<text text-anchor="start" x="430" y="-753.5" font-family="Arial" font-size="10.00" fill="black"><a fill="navy" href="../reference/Graphics/AttributeRepresentation.html#dexpi-graphics-attributerepresentation-object" target="_parent">Object</a></text>
<text text-anchor="start" x="438.702" y="-736.204" font-family="Arial" font-size="10.00" fill="black"></text>
<text text-anchor="start" x="367.359" y="-778.243" font-family="Arial" font-size="10.00" fill="black">*</text>
</g>
<!-- 59 -->
<g id="node22" class="node"><defs>
<linearGradient id="l_22" gradientUnits="userSpaceOnUse" x1="524.5" y1="-788.5" x2="524.5" y2="-824.5">
<stop offset="0" style="stop-color:#ffffbb;stop-opacity:1.;"/>
<stop offset="1" style="stop-color:#ffffee;stop-opacity:1.;"/>
</linearGradient>
</defs>
<polygon fill="url(#l_22)" stroke="black" points="593,-824.5 456,-824.5 456,-788.5 593,-788.5 593,-824.5"/>
<text text-anchor="start" x="466.5" y="-804.7" font-family="Arial" font-weight="bold" font-size="11.00" fill="black"><a fill="navy" href="../reference/Graphics/RepresentationGroup.html" target="_parent">RepresentationGroup</a></text>
</g>
<!-- 59&#45;&gt;16 -->
<g id="edge12" class="edge"><path fill="none" stroke="#000000" d="M513.317,-788.243C504.812,-775.119 492.968,-756.843 483.322,-741.958"/>
<polygon fill="#000000" stroke="#000000" points="477.649,-733.204 486.863,-739.148 480.368,-737.399 483.087,-741.595 483.087,-741.595 483.087,-741.595 480.368,-737.399 479.311,-744.043 477.649,-733.204 477.649,-733.204"/>
<text text-anchor="start" x="499.5" y="-753.5" font-family="Arial" font-size="10.00" fill="black"><a fill="navy" href="../reference/Graphics/RepresentationGroup.html#dexpi-graphics-representationgroup-represents" target="_parent">Represents</a></text>
<text text-anchor="start" x="469.649" y="-736.204" font-family="Arial" font-size="10.00" fill="black"></text>
<text text-anchor="start" x="497.317" y="-778.243" font-family="Arial" font-size="10.00" fill="black">*</text>
</g>
<!-- 18&#45;inner&#45;node&#45;&gt;0 -->
<g id="edge15" class="edge"><path fill="none" stroke="black" d="M457.547,-192.949C458.47,-191.948 472.799,-176.406 487.764,-160.175"/>
</g>
<!-- 19&#45;inner&#45;node&#45;&gt;0 -->
<g id="edge17" class="edge"><path fill="none" stroke="black" d="M567.467,-192.949C566.829,-191.948 556.908,-176.406 546.548,-160.175"/>
</g>
<!-- 20&#45;inner&#45;node&#45;&gt;10 -->
<g id="edge19" class="edge"><path fill="none" stroke="black" d="M457.5,-312.951C457.5,-311.604 457.5,-282.522 457.5,-263.135"/>
</g>
<!-- 21&#45;inner&#45;node&#45;&gt;12 -->
<g id="edge21" class="edge"><path fill="none" stroke="black" d="M341.64,-464.884C343.027,-463.739 354.434,-454.38 364.5,-448 383.235,-436.126 405.036,-424.306 422.819,-415.142"/>
</g>
<!-- 22&#45;inner&#45;node&#45;&gt;12 -->
<g id="edge23" class="edge"><path fill="none" stroke="black" d="M457.5,-464.951C457.5,-463.604 457.5,-434.522 457.5,-415.135"/>
</g>
<!-- 23&#45;inner&#45;node&#45;&gt;12 -->
<g id="edge25" class="edge"><path fill="none" stroke="black" d="M575.414,-464.951C573.042,-463.604 521.822,-434.522 487.677,-415.135"/>
</g>
<!-- 24&#45;inner&#45;node&#45;&gt;15 -->
<g id="edge27" class="edge"><path fill="none" stroke="black" d="M466.537,-630.878C466.911,-629.678 470.071,-619.896 475.5,-614 493.511,-594.44 518.763,-578.341 539.384,-567.183"/>
</g>
<!-- 25&#45;inner&#45;node&#45;&gt;15 -->
<g id="edge29" class="edge"><path fill="none" stroke="black" d="M624.464,-630.941C623.427,-629.226 599.901,-590.337 585.843,-567.098"/>
</g>
<!-- 26&#45;inner&#45;node&#45;&gt;15 -->
<g id="edge31" class="edge"><path fill="none" stroke="black" d="M761.365,-630.941C757.427,-629.226 668.125,-590.337 614.761,-567.098"/>
</g>
</g>
</svg>