<!DOCTYPE svg PUBLIC "-//W3C//DTD SVG 1.1//EN" "http://www.w3.org/Graphics/SVG/1.1/DTD/svg11.dtd">
<!-- Generated by graphviz version 2.38.0 (20140413.2041)
 --><!-- Title: G Pages: 1 --><svg xmlns="http://www.w3.org/2000/svg" xmlns:xlink="http://www.w3.org/1999/xlink" width="508pt" height="293pt" viewBox="0.00 0.00 508.00 293.00">
<g id="graph0" class="graph" transform="scale(1 1) rotate(0) translate(4 289)">
<!-- 0 -->
<g id="node1" class="node"><defs>
<linearGradient id="l_0" gradientUnits="userSpaceOnUse" x1="256.5" y1="-1.77636e-014" x2="256.5" y2="-36">
<stop offset="0" style="stop-color:#ffffbb;stop-opacity:1.;"/>
<stop offset="1" style="stop-color:#ffffee;stop-opacity:1.;"/>
</linearGradient>
</defs>
<polygon fill="url(#l_0)" stroke="black" points="361.5,-36 151.5,-36 151.5,-0 361.5,-0 361.5,-36"/>
<text text-anchor="start" x="161.5" y="-16.2" font-family="Arial" font-weight="bold" font-size="11.00" fill="black">CustomActuatingSystemComponent</text>
</g>
<!-- 1 -->
<g id="node2" class="node"><defs>
<linearGradient id="l_1" gradientUnits="userSpaceOnUse" x1="154.5" y1="-166" x2="154.5" y2="-202">
<stop offset="0" style="stop-color:#ffffbb;stop-opacity:1.;"/>
<stop offset="1" style="stop-color:#ffffee;stop-opacity:1.;"/>
</linearGradient>
</defs>
<polygon fill="url(#l_1)" stroke="black" points="212,-202 97,-202 97,-166 212,-166 212,-202"/>
<text text-anchor="start" x="107.5" y="-182.2" font-family="Arial" font-weight="bold" font-style="italic" font-size="11.00" fill="black"><a fill="navy" href="../reference/DexpiModel/ConceptualObject.html" target="_parent">ConceptualObject</a></text>
</g>
<!-- 4&#45;inner&#45;node -->
<!-- 1&#45;&gt;4&#45;inner&#45;node -->
<g id="edge5" class="edge"><path fill="none" stroke="black" d="M154.5,-155.649C154.5,-132.987 154.5,-104.163 154.5,-102.116L154.539,-99.8792"/>
<polygon fill="none" stroke="black" points="151,-155.822 154.5,-165.822 158,-155.822 151,-155.822"/>
</g>
<!-- 2 -->
<g id="node3" class="node"><defs>
<linearGradient id="l_2" gradientUnits="userSpaceOnUse" x1="312.5" y1="-166" x2="312.5" y2="-202">
<stop offset="0" style="stop-color:#ffffbb;stop-opacity:1.;"/>
<stop offset="1" style="stop-color:#ffffee;stop-opacity:1.;"/>
</linearGradient>
</defs>
<polygon fill="url(#l_2)" stroke="black" points="384.5,-202 240.5,-202 240.5,-166 384.5,-166 384.5,-202"/>
<text text-anchor="start" x="250.5" y="-182.2" font-family="Arial" font-weight="bold" font-style="italic" font-size="11.00" fill="black"><a fill="navy" href="../reference/Customization/CustomAttributeOwner.html" target="_parent">CustomAttributeOwner</a></text>
</g>
<!-- 18 -->
<g id="node8" class="node"><defs>
<linearGradient id="l_3" gradientUnits="userSpaceOnUse" x1="227.5" y1="-83" x2="227.5" y2="-119">
<stop offset="0" style="stop-color:#ffffbb;stop-opacity:1.;"/>
<stop offset="1" style="stop-color:#ffffee;stop-opacity:1.;"/>
</linearGradient>
</defs>
<polygon fill="url(#l_3)" stroke="black" points="282,-119 173,-119 173,-83 282,-83 282,-119"/>
<text text-anchor="start" x="183.5" y="-99.2" font-family="Arial" font-weight="bold" font-style="italic" font-size="11.00" fill="black"><a fill="navy" href="../reference/Customization/CustomAttribute.html" target="_parent">CustomAttribute</a></text>
</g>
<!-- 2&#45;&gt;18 -->
<g id="edge4" class="edge"><path fill="none" stroke="#000000" d="M235.949,-158.486C233.181,-155.933 230.67,-153.113 228.5,-150 224.402,-144.119 222.944,-136.772 222.815,-129.608"/>
<polygon fill="#000000" stroke="#000000" points="235.998,-158.523 243.196,-158.959 245.563,-165.77 238.365,-165.335 235.998,-158.523"/>
<polygon fill="#000000" stroke="#000000" points="223.425,-119.435 227.319,-129.687 223.126,-124.426 222.827,-129.417 222.827,-129.417 222.827,-129.417 223.126,-124.426 218.335,-129.148 223.425,-119.435 223.425,-119.435"/>
<text text-anchor="start" x="230.5" y="-139.5" font-family="Arial" font-size="10.00" fill="black"><a fill="navy" href="../reference/Customization/CustomAttributeOwner.html#dexpi-customization-customattributeowner-customattributes" target="_parent">CustomAttributes</a></text>
<text text-anchor="start" x="215.425" y="-122.435" font-family="Arial" font-size="10.00" fill="black">*</text>
<text text-anchor="start" x="216.563" y="-155.77" font-family="Arial" font-size="10.00" fill="black">0..1</text>
</g>
<!-- 5&#45;inner&#45;node -->
<!-- 2&#45;&gt;5&#45;inner&#45;node -->
<g id="edge7" class="edge"><path fill="none" stroke="black" d="M312.5,-155.649C312.5,-132.987 312.5,-104.163 312.5,-102.116L312.459,-99.9413"/>
<polygon fill="none" stroke="black" points="309,-155.822 312.5,-165.822 316,-155.822 309,-155.822"/>
</g>
<!-- 3 -->
<g id="node4" class="node"><defs>
<linearGradient id="l_4" gradientUnits="userSpaceOnUse" x1="451.5" y1="-166" x2="451.5" y2="-202">
<stop offset="0" style="stop-color:#ffffbb;stop-opacity:1.;"/>
<stop offset="1" style="stop-color:#ffffee;stop-opacity:1.;"/>
</linearGradient>
</defs>
<polygon fill="url(#l_4)" stroke="black" points="500,-202 403,-202 403,-166 500,-166 500,-202"/>
<text text-anchor="start" x="413.5" y="-182.2" font-family="Arial" font-weight="bold" font-style="italic" font-size="11.00" fill="black"><a fill="navy" href="../reference/Customization/CustomObject.html" target="_parent">CustomObject</a></text>
</g>
<!-- 6&#45;inner&#45;node -->
<!-- 3&#45;&gt;6&#45;inner&#45;node -->
<g id="edge9" class="edge"><path fill="none" stroke="black" d="M451.5,-155.649C451.5,-132.987 451.5,-104.163 451.5,-102.116L451.359,-99.9413"/>
<polygon fill="none" stroke="black" points="448,-155.822 451.5,-165.822 455,-155.822 448,-155.822"/>
</g>
<!-- 9 -->
<g id="node5" class="node"><defs>
<linearGradient id="l_5" gradientUnits="userSpaceOnUse" x1="81.5" y1="-83" x2="81.5" y2="-119">
<stop offset="0" style="stop-color:#ffffbb;stop-opacity:1.;"/>
<stop offset="1" style="stop-color:#ffffee;stop-opacity:1.;"/>
</linearGradient>
</defs>
<polygon fill="url(#l_5)" stroke="black" points="135.5,-119 27.5,-119 27.5,-83 135.5,-83 135.5,-119"/>
<text text-anchor="start" x="37.5" y="-99.2" font-family="Arial" font-weight="bold" font-size="11.00" fill="black"><a fill="navy" href="../reference/Instrumentation/ActuatingSystem.html" target="_parent">ActuatingSystem</a></text>
</g>
<!-- 9&#45;&gt;0 -->
<g id="edge1" class="edge"><path fill="none" stroke="#000000" d="M77.4942,-70.8668C78.0189,-63.9934 79.9484,-57.1704 84.5,-52 93.1402,-42.185 115.391,-35.2401 141.13,-30.3448"/>
<polygon fill="#000000" stroke="#000000" points="77.4962,-70.9514 81.6487,-76.8469 77.8038,-82.9474 73.6514,-77.0519 77.4962,-70.9514"/>
<polygon fill="#000000" stroke="#000000" points="151.145,-28.5672 142.086,-34.7457 146.222,-29.4411 141.299,-30.3149 141.299,-30.3149 141.299,-30.3149 146.222,-29.4411 140.513,-25.8842 151.145,-28.5672 151.145,-28.5672"/>
<text text-anchor="start" x="87" y="-56.5" font-family="Arial" font-size="10.00" fill="black"><a fill="navy" href="../reference/Instrumentation/ActuatingSystem.html#dexpi-instrumentation-actuatingsystem-customcomponents" target="_parent">CustomComponents</a></text>
<text text-anchor="start" x="143.145" y="-31.5672" font-family="Arial" font-size="10.00" fill="black">*</text>
<text text-anchor="start" x="48.8038" y="-72.9474" font-family="Arial" font-size="10.00" fill="black">0..1</text>
</g>
<!-- 12 -->
<g id="node6" class="node"><defs>
<linearGradient id="l_6" gradientUnits="userSpaceOnUse" x1="74.5" y1="-249" x2="74.5" y2="-285">
<stop offset="0" style="stop-color:#ffffbb;stop-opacity:1.;"/>
<stop offset="1" style="stop-color:#ffffee;stop-opacity:1.;"/>
</linearGradient>
</defs>
<polygon fill="url(#l_6)" stroke="black" points="149,-285 0,-285 0,-249 149,-249 149,-285"/>
<text text-anchor="start" x="10.5" y="-265.2" font-family="Arial" font-weight="bold" font-size="11.00" fill="black"><a fill="navy" href="../reference/Graphics/AttributeRepresentation.html" target="_parent">AttributeRepresentation</a></text>
</g>
<!-- 12&#45;&gt;1 -->
<g id="edge2" class="edge"><path fill="none" stroke="#000000" d="M91.4659,-248.822C102.815,-237.331 117.916,-222.041 130.493,-209.307"/>
<polygon fill="#000000" stroke="#000000" points="137.559,-202.153 133.733,-212.43 134.045,-205.711 130.531,-209.268 130.531,-209.268 130.531,-209.268 134.045,-205.711 127.33,-206.106 137.559,-202.153 137.559,-202.153"/>
<text text-anchor="start" x="125" y="-222.5" font-family="Arial" font-size="10.00" fill="black"><a fill="navy" href="../reference/Graphics/AttributeRepresentation.html#dexpi-graphics-attributerepresentation-object" target="_parent">Object</a></text>
<text text-anchor="start" x="129.559" y="-205.153" font-family="Arial" font-size="10.00" fill="black"></text>
<text text-anchor="start" x="75.4659" y="-238.822" font-family="Arial" font-size="10.00" fill="black">*</text>
</g>
<!-- 15 -->
<g id="node7" class="node"><defs>
<linearGradient id="l_7" gradientUnits="userSpaceOnUse" x1="235.5" y1="-249" x2="235.5" y2="-285">
<stop offset="0" style="stop-color:#ffffbb;stop-opacity:1.;"/>
<stop offset="1" style="stop-color:#ffffee;stop-opacity:1.;"/>
</linearGradient>
</defs>
<polygon fill="url(#l_7)" stroke="black" points="304,-285 167,-285 167,-249 304,-249 304,-285"/>
<text text-anchor="start" x="177.5" y="-265.2" font-family="Arial" font-weight="bold" font-size="11.00" fill="black"><a fill="navy" href="../reference/Graphics/RepresentationGroup.html" target="_parent">RepresentationGroup</a></text>
</g>
<!-- 15&#45;&gt;1 -->
<g id="edge3" class="edge"><path fill="none" stroke="#000000" d="M218.322,-248.822C206.831,-237.331 191.541,-222.041 178.807,-209.307"/>
<polygon fill="#000000" stroke="#000000" points="171.653,-202.153 181.906,-206.042 175.189,-205.689 178.724,-209.224 178.724,-209.224 178.724,-209.224 175.189,-205.689 175.542,-212.406 171.653,-202.153 171.653,-202.153"/>
<text text-anchor="start" x="204.5" y="-222.5" font-family="Arial" font-size="10.00" fill="black"><a fill="navy" href="../reference/Graphics/RepresentationGroup.html#dexpi-graphics-representationgroup-represents" target="_parent">Represents</a></text>
<text text-anchor="start" x="163.653" y="-205.153" font-family="Arial" font-size="10.00" fill="black"></text>
<text text-anchor="start" x="202.322" y="-238.822" font-family="Arial" font-size="10.00" fill="black">*</text>
</g>
<!-- 4&#45;inner&#45;node&#45;&gt;0 -->
<g id="edge6" class="edge"><path fill="none" stroke="black" d="M154.539,-99.8792C154.924,-98.6896 158.17,-88.9859 163.5,-83 180.574,-63.8241 204.526,-47.5148 223.847,-36.1596"/>
</g>
<!-- 5&#45;inner&#45;node&#45;&gt;0 -->
<g id="edge8" class="edge"><path fill="none" stroke="black" d="M312.459,-99.9413C311.274,-98.2263 284.387,-59.3368 268.321,-36.0976"/>
</g>
<!-- 6&#45;inner&#45;node&#45;&gt;0 -->
<g id="edge10" class="edge"><path fill="none" stroke="black" d="M451.359,-99.9413C447.23,-98.2263 353.607,-59.3368 297.661,-36.0976"/>
</g>
</g>
</svg>