<!DOCTYPE svg PUBLIC "-//W3C//DTD SVG 1.1//EN" "http://www.w3.org/Graphics/SVG/1.1/DTD/svg11.dtd">
<!-- Generated by graphviz version 2.38.0 (20140413.2041)
 --><!-- Title: G Pages: 1 --><svg xmlns="http://www.w3.org/2000/svg" xmlns:xlink="http://www.w3.org/1999/xlink" width="867pt" height="800pt" viewBox="0.00 0.00 866.50 800.00">
<g id="graph0" class="graph" transform="scale(1 1) rotate(0) translate(4 796)">
<!-- 0 -->
<g id="node1" class="node"><defs>
<linearGradient id="l_0" gradientUnits="userSpaceOnUse" x1="416.5" y1="-83" x2="416.5" y2="-119">
<stop offset="0" style="stop-color:#ffffbb;stop-opacity:1.;"/>
<stop offset="1" style="stop-color:#ffffee;stop-opacity:1.;"/>
</linearGradient>
</defs>
<polygon fill="url(#l_0)" stroke="black" points="470.5,-119 362.5,-119 362.5,-83 470.5,-83 470.5,-119"/>
<text text-anchor="start" x="372.5" y="-99.2" font-family="Arial" font-weight="bold" font-size="11.00" fill="black">CustomExtruder</text>
</g>
<!-- 23 -->
<g id="node12" class="node"><defs>
<linearGradient id="l_1" gradientUnits="userSpaceOnUse" x1="376.5" y1="-1.77636e-014" x2="376.5" y2="-36">
<stop offset="0" style="stop-color:#ffffbb;stop-opacity:1.;"/>
<stop offset="1" style="stop-color:#ffffee;stop-opacity:1.;"/>
</linearGradient>
</defs>
<polygon fill="url(#l_1)" stroke="black" points="412,-36 341,-36 341,-0 412,-0 412,-36"/>
<text text-anchor="start" x="351.5" y="-16.2" font-family="Arial" font-weight="bold" font-size="11.00" fill="black"><a fill="navy" href="../reference/Equipment/Displacer.html" target="_parent">Displacer</a></text>
</g>
<!-- 0&#45;&gt;23 -->
<g id="edge2" class="edge"><path fill="none" stroke="#000000" d="M389.452,-73.5759C387.98,-71.445 386.64,-69.2451 385.5,-67 382.251,-60.5999 380.167,-53.1836 378.832,-46.1231"/>
<polygon fill="#000000" stroke="#000000" points="389.495,-73.6292 396.38,-75.7739 397.048,-82.954 390.163,-80.8093 389.495,-73.6292"/>
<polygon fill="#000000" stroke="#000000" points="377.364,-36.1931 383.278,-45.4278 378.095,-41.1394 378.826,-46.0857 378.826,-46.0857 378.826,-46.0857 378.095,-41.1394 374.375,-46.7436 377.364,-36.1931 377.364,-36.1931"/>
<text text-anchor="start" x="387.5" y="-56.5" font-family="Arial" font-size="10.00" fill="black"><a fill="navy" href="../reference/Equipment/CustomExtruder.html#dexpi-equipment-customextruder-displacers" target="_parent">Displacers</a></text>
<text text-anchor="start" x="369.364" y="-39.1931" font-family="Arial" font-size="10.00" fill="black">*</text>
<text text-anchor="start" x="368.048" y="-72.954" font-family="Arial" font-size="10.00" fill="black">0..1</text>
</g>
<!-- 26 -->
<g id="node13" class="node"><defs>
<linearGradient id="l_2" gradientUnits="userSpaceOnUse" x1="457.5" y1="-1.77636e-014" x2="457.5" y2="-36">
<stop offset="0" style="stop-color:#ffffbb;stop-opacity:1.;"/>
<stop offset="1" style="stop-color:#ffffee;stop-opacity:1.;"/>
</linearGradient>
</defs>
<polygon fill="url(#l_2)" stroke="black" points="484.5,-36 430.5,-36 430.5,-0 484.5,-0 484.5,-36"/>
<text text-anchor="start" x="440.5" y="-16.2" font-family="Arial" font-weight="bold" font-size="11.00" fill="black"><a fill="navy" href="../reference/Equipment/Screw.html" target="_parent">Screw</a></text>
</g>
<!-- 0&#45;&gt;26 -->
<g id="edge3" class="edge"><path fill="none" stroke="#000000" d="M432.898,-71.9226C433.793,-70.2653 434.667,-68.6158 435.5,-67 439.082,-60.0542 442.717,-52.4115 445.974,-45.3063"/>
<polygon fill="#000000" stroke="#000000" points="432.727,-72.2279 433.285,-79.4174 426.863,-82.6979 426.305,-75.5084 432.727,-72.2279"/>
<polygon fill="#000000" stroke="#000000" points="450.14,-36.0664 450.132,-47.0323 448.085,-40.6247 446.03,-45.1829 446.03,-45.1829 446.03,-45.1829 448.085,-40.6247 441.927,-43.3334 450.14,-36.0664 450.14,-36.0664"/>
<text text-anchor="start" x="446" y="-56.5" font-family="Arial" font-size="10.00" fill="black"><a fill="navy" href="../reference/Equipment/CustomExtruder.html#dexpi-equipment-customextruder-screws" target="_parent">Screws</a></text>
<text text-anchor="start" x="442.14" y="-39.0664" font-family="Arial" font-size="10.00" fill="black">*</text>
<text text-anchor="start" x="397.863" y="-72.6979" font-family="Arial" font-size="10.00" fill="black">0..1</text>
</g>
<!-- 2 -->
<g id="node2" class="node"><defs>
<linearGradient id="l_3" gradientUnits="userSpaceOnUse" x1="766.5" y1="-739" x2="766.5" y2="-792">
<stop offset="0" style="stop-color:#fbfbfb;stop-opacity:1.;"/>
<stop offset="1" style="stop-color:#fefefe;stop-opacity:1.;"/>
</linearGradient>
</defs>
<polygon fill="url(#l_3)" stroke="black" points="858.5,-781.0 847.5,-792.0 674.5,-792.0 674.5,-739.0 858.5,-739.0"/><path d="M858.5,-781.0L847.5,-781.0 847.5,-792.0" fill="none" stroke="black"/>
<text text-anchor="start" x="684.5" y="-777.5" font-family="Arial" font-size="10.00" fill="black">For&#160;the&#160;sake&#160;of&#160;clarity,&#160;superclasses&#160;</text>
<text text-anchor="start" x="684.5" y="-762.5" font-family="Arial" font-size="10.00" fill="black">and&#160;associations&#160;of&#160;<a fill="navy" href="../reference/PlantStructure/TechnicalItem.html" target="_parent">TechnicalItem</a>&#160;are</text>
<text text-anchor="start" x="684.5" y="-747.5" font-family="Arial" font-size="10.00" fill="black">not&#160;shown&#160;in&#160;this&#160;diagram.</text>
</g>
<!-- 1 -->
<g id="node3" class="node"><defs>
<linearGradient id="l_4" gradientUnits="userSpaceOnUse" x1="766.5" y1="-656" x2="766.5" y2="-692">
<stop offset="0" style="stop-color:#ffffbb;stop-opacity:1.;"/>
<stop offset="1" style="stop-color:#ffffee;stop-opacity:1.;"/>
</linearGradient>
</defs>
<polygon fill="url(#l_4)" stroke="black" points="813,-692 720,-692 720,-656 813,-656 813,-692"/>
<text text-anchor="start" x="730.5" y="-672.2" font-family="Arial" font-weight="bold" font-style="italic" font-size="11.00" fill="black"><a fill="navy" href="../reference/PlantStructure/TechnicalItem.html" target="_parent">TechnicalItem</a></text>
</g>
<!-- 2&#45;&gt;1 -->
<g id="edge1" class="edge"><path fill="none" stroke="#000000" stroke-dasharray="5,2" d="M766.5,-738.613C766.5,-723.641 766.5,-705.222 766.5,-692.063"/>
</g>
<!-- 20&#45;inner&#45;node -->
<!-- 1&#45;&gt;20&#45;inner&#45;node -->
<g id="edge30" class="edge"><path fill="none" stroke="black" d="M766.5,-645.649C766.5,-622.987 766.5,-594.163 766.5,-592.116L766.362,-589.941"/>
<polygon fill="none" stroke="black" points="763,-645.822 766.5,-655.822 770,-645.822 763,-645.822"/>
</g>
<!-- 4 -->
<g id="node4" class="node"><defs>
<linearGradient id="l_5" gradientUnits="userSpaceOnUse" x1="357.5" y1="-186" x2="357.5" y2="-222">
<stop offset="0" style="stop-color:#ffffbb;stop-opacity:1.;"/>
<stop offset="1" style="stop-color:#ffffee;stop-opacity:1.;"/>
</linearGradient>
</defs>
<polygon fill="url(#l_5)" stroke="black" points="406,-222 309,-222 309,-186 406,-186 406,-222"/>
<text text-anchor="start" x="319.5" y="-202.2" font-family="Arial" font-weight="bold" font-style="italic" font-size="11.00" fill="black"><a fill="navy" href="../reference/Customization/CustomObject.html" target="_parent">CustomObject</a></text>
</g>
<!-- 12&#45;inner&#45;node -->
<!-- 4&#45;&gt;12&#45;inner&#45;node -->
<g id="edge14" class="edge"><path fill="none" stroke="black" d="M357.5,-175.603C357.5,-164.422 357.5,-153.887 357.5,-153.053L357.669,-151.857"/>
<polygon fill="none" stroke="black" points="354,-175.793 357.5,-185.793 361,-175.793 354,-175.793"/>
</g>
<!-- 5 -->
<g id="node5" class="node"><defs>
<linearGradient id="l_6" gradientUnits="userSpaceOnUse" x1="457.5" y1="-186" x2="457.5" y2="-222">
<stop offset="0" style="stop-color:#ffffbb;stop-opacity:1.;"/>
<stop offset="1" style="stop-color:#ffffee;stop-opacity:1.;"/>
</linearGradient>
</defs>
<polygon fill="url(#l_6)" stroke="black" points="491,-222 424,-222 424,-186 491,-186 491,-222"/>
<text text-anchor="start" x="434.5" y="-202.2" font-family="Arial" font-weight="bold" font-size="11.00" fill="black"><a fill="navy" href="../reference/Equipment/Extruder.html" target="_parent">Extruder</a></text>
</g>
<!-- 13&#45;inner&#45;node -->
<!-- 5&#45;&gt;13&#45;inner&#45;node -->
<g id="edge16" class="edge"><path fill="none" stroke="black" d="M457.5,-175.603C457.5,-164.422 457.5,-153.887 457.5,-153.053L457.382,-151.857"/>
<polygon fill="none" stroke="black" points="454,-175.793 457.5,-185.793 461,-175.793 454,-175.793"/>
</g>
<!-- 6 -->
<g id="node6" class="node"><defs>
<linearGradient id="l_7" gradientUnits="userSpaceOnUse" x1="457.5" y1="-338" x2="457.5" y2="-374">
<stop offset="0" style="stop-color:#ffffbb;stop-opacity:1.;"/>
<stop offset="1" style="stop-color:#ffffee;stop-opacity:1.;"/>
</linearGradient>
</defs>
<polygon fill="url(#l_7)" stroke="black" points="496.5,-374 418.5,-374 418.5,-338 496.5,-338 496.5,-374"/>
<text text-anchor="start" x="428.5" y="-354.2" font-family="Arial" font-weight="bold" font-style="italic" font-size="11.00" fill="black"><a fill="navy" href="../reference/Equipment/Equipment.html" target="_parent">Equipment</a></text>
</g>
<!-- 29 -->
<g id="node14" class="node"><defs>
<linearGradient id="l_8" gradientUnits="userSpaceOnUse" x1="51.5" y1="-255" x2="51.5" y2="-291">
<stop offset="0" style="stop-color:#ffffbb;stop-opacity:1.;"/>
<stop offset="1" style="stop-color:#ffffee;stop-opacity:1.;"/>
</linearGradient>
</defs>
<polygon fill="url(#l_8)" stroke="black" points="103,-291 0,-291 0,-255 103,-255 103,-291"/>
<text text-anchor="start" x="10.5" y="-271.2" font-family="Arial" font-weight="bold" font-size="11.00" fill="black"><a fill="navy" href="../reference/Equipment/DryingChamber.html" target="_parent">DryingChamber</a></text>
</g>
<!-- 6&#45;&gt;29 -->
<g id="edge4" class="edge"><path fill="none" stroke="#000000" d="M406.027,-355.446C342.858,-354.672 233.105,-349.013 143.5,-322 123.707,-316.033 103.174,-305.771 86.54,-296.264"/>
<polygon fill="#000000" stroke="#000000" points="406.398,-355.449 412.429,-351.495 418.398,-355.542 412.367,-359.495 406.398,-355.449"/>
<polygon fill="#000000" stroke="#000000" points="77.7299,-291.091 88.6319,-292.274 82.0418,-293.623 86.3536,-296.154 86.3536,-296.154 86.3536,-296.154 82.0418,-293.623 84.0753,-300.035 77.7299,-291.091 77.7299,-291.091"/>
<text text-anchor="start" x="146" y="-311.5" font-family="Arial" font-size="10.00" fill="black"><a fill="navy" href="../reference/Equipment/Equipment.html#dexpi-equipment-equipment-dryingchambers" target="_parent">DryingChambers</a></text>
<text text-anchor="start" x="69.7299" y="-294.091" font-family="Arial" font-size="10.00" fill="black">*</text>
<text text-anchor="start" x="389.398" y="-356.542" font-family="Arial" font-size="10.00" fill="black">0..1</text>
</g>
<!-- 32 -->
<g id="node15" class="node"><defs>
<linearGradient id="l_9" gradientUnits="userSpaceOnUse" x1="155.5" y1="-255" x2="155.5" y2="-291">
<stop offset="0" style="stop-color:#ffffbb;stop-opacity:1.;"/>
<stop offset="1" style="stop-color:#ffffee;stop-opacity:1.;"/>
</linearGradient>
</defs>
<polygon fill="url(#l_9)" stroke="black" points="189.5,-291 121.5,-291 121.5,-255 189.5,-255 189.5,-291"/>
<text text-anchor="start" x="131.5" y="-271.2" font-family="Arial" font-weight="bold" font-size="11.00" fill="black"><a fill="navy" href="../reference/Equipment/GearBox.html" target="_parent">GearBox</a></text>
</g>
<!-- 6&#45;&gt;32 -->
<g id="edge5" class="edge"><path fill="none" stroke="#000000" d="M406.201,-349.816C366.621,-344.972 310.82,-336.294 263.5,-322 241.05,-315.218 217.118,-304.924 197.503,-295.606"/>
<polygon fill="#000000" stroke="#000000" points="406.275,-349.824 412.702,-346.553 418.193,-351.227 411.767,-354.498 406.275,-349.824"/>
<polygon fill="#000000" stroke="#000000" points="188.246,-291.129 199.207,-291.432 192.747,-293.306 197.248,-295.483 197.248,-295.483 197.248,-295.483 192.747,-293.306 195.289,-299.534 188.246,-291.129 188.246,-291.129"/>
<text text-anchor="start" x="266" y="-311.5" font-family="Arial" font-size="10.00" fill="black"><a fill="navy" href="../reference/Equipment/Equipment.html#dexpi-equipment-equipment-gearboxes" target="_parent">GearBoxes</a></text>
<text text-anchor="start" x="180.246" y="-294.129" font-family="Arial" font-size="10.00" fill="black">*</text>
<text text-anchor="start" x="389.193" y="-341.227" font-family="Arial" font-size="10.00" fill="black">0..1</text>
</g>
<!-- 35 -->
<g id="node16" class="node"><defs>
<linearGradient id="l_10" gradientUnits="userSpaceOnUse" x1="270.5" y1="-255" x2="270.5" y2="-291">
<stop offset="0" style="stop-color:#ffffbb;stop-opacity:1.;"/>
<stop offset="1" style="stop-color:#ffffee;stop-opacity:1.;"/>
</linearGradient>
</defs>
<polygon fill="url(#l_10)" stroke="black" points="333.5,-291 207.5,-291 207.5,-255 333.5,-255 333.5,-291"/>
<text text-anchor="start" x="217.5" y="-271.2" font-family="Arial" font-weight="bold" font-size="11.00" fill="black"><a fill="navy" href="../reference/Equipment/MotorAsComponent.html" target="_parent">MotorAsComponent</a></text>
</g>
<!-- 6&#45;&gt;35 -->
<g id="edge6" class="edge"><path fill="none" stroke="#000000" d="M406.67,-343.044C387.398,-337.7 365.526,-330.637 346.5,-322 331.23,-315.068 315.388,-305.498 302.145,-296.726"/>
<polygon fill="#000000" stroke="#000000" points="406.692,-343.049 413.521,-340.734 418.285,-346.147 411.456,-348.463 406.692,-343.049"/>
<polygon fill="#000000" stroke="#000000" points="293.85,-291.112 304.654,-292.99 297.991,-293.914 302.132,-296.717 302.132,-296.717 302.132,-296.717 297.991,-293.914 299.61,-300.443 293.85,-291.112 293.85,-291.112"/>
<text text-anchor="start" x="349" y="-311.5" font-family="Arial" font-size="10.00" fill="black"><a fill="navy" href="../reference/Equipment/Equipment.html#dexpi-equipment-equipment-motors" target="_parent">Motors</a></text>
<text text-anchor="start" x="285.85" y="-294.112" font-family="Arial" font-size="10.00" fill="black">*</text>
<text text-anchor="start" x="389.285" y="-336.147" font-family="Arial" font-size="10.00" fill="black">0..1</text>
</g>
<!-- 38 -->
<g id="node17" class="node"><defs>
<linearGradient id="l_11" gradientUnits="userSpaceOnUse" x1="395.5" y1="-255" x2="395.5" y2="-291">
<stop offset="0" style="stop-color:#ffffbb;stop-opacity:1.;"/>
<stop offset="1" style="stop-color:#ffffee;stop-opacity:1.;"/>
</linearGradient>
</defs>
<polygon fill="url(#l_11)" stroke="black" points="439,-291 352,-291 352,-255 439,-255 439,-291"/>
<text text-anchor="start" x="362.5" y="-271.2" font-family="Arial" font-weight="bold" font-size="11.00" fill="black"><a fill="navy" href="../reference/Equipment/SprayNozzle.html" target="_parent">SprayNozzle</a></text>
</g>
<!-- 6&#45;&gt;38 -->
<g id="edge7" class="edge"><path fill="none" stroke="#000000" d="M407.357,-339.548C399.867,-335.067 393.12,-329.33 388.5,-322 384.594,-315.802 384.151,-308.272 385.269,-301.033"/>
<polygon fill="#000000" stroke="#000000" points="407.588,-339.664 414.747,-338.802 418.297,-345.08 411.137,-345.942 407.588,-339.664"/>
<polygon fill="#000000" stroke="#000000" points="387.69,-291.16 389.678,-301.944 386.499,-296.016 385.308,-300.873 385.308,-300.873 385.308,-300.873 386.499,-296.016 380.937,-299.801 387.69,-291.16 387.69,-291.16"/>
<text text-anchor="start" x="391" y="-311.5" font-family="Arial" font-size="10.00" fill="black"><a fill="navy" href="../reference/Equipment/Equipment.html#dexpi-equipment-equipment-spraynozzles" target="_parent">SprayNozzles</a></text>
<text text-anchor="start" x="379.69" y="-294.16" font-family="Arial" font-size="10.00" fill="black">*</text>
<text text-anchor="start" x="406.297" y="-335.08" font-family="Arial" font-size="10.00" fill="black">0..1</text>
</g>
<!-- 14&#45;inner&#45;node -->
<!-- 6&#45;&gt;14&#45;inner&#45;node -->
<g id="edge18" class="edge"><path fill="none" stroke="black" d="M457.5,-327.649C457.5,-304.987 457.5,-276.163 457.5,-274.116L457.5,-271.951"/>
<polygon fill="none" stroke="black" points="454,-327.822 457.5,-337.822 461,-327.822 454,-327.822"/>
</g>
<!-- 7 -->
<g id="node7" class="node"><defs>
<linearGradient id="l_12" gradientUnits="userSpaceOnUse" x1="341.5" y1="-490" x2="341.5" y2="-526">
<stop offset="0" style="stop-color:#ffffbb;stop-opacity:1.;"/>
<stop offset="1" style="stop-color:#ffffee;stop-opacity:1.;"/>
</linearGradient>
</defs>
<polygon fill="url(#l_12)" stroke="black" points="394,-526 289,-526 289,-490 394,-490 394,-526"/>
<text text-anchor="start" x="299.5" y="-506.2" font-family="Arial" font-weight="bold" font-style="italic" font-size="11.00" fill="black"><a fill="navy" href="../reference/Equipment/ChamberOwner.html" target="_parent">ChamberOwner</a></text>
</g>
<!-- 41 -->
<g id="node18" class="node"><defs>
<linearGradient id="l_13" gradientUnits="userSpaceOnUse" x1="277.5" y1="-407" x2="277.5" y2="-443">
<stop offset="0" style="stop-color:#ffffbb;stop-opacity:1.;"/>
<stop offset="1" style="stop-color:#ffffee;stop-opacity:1.;"/>
</linearGradient>
</defs>
<polygon fill="url(#l_13)" stroke="black" points="312,-443 243,-443 243,-407 312,-407 312,-443"/>
<text text-anchor="start" x="253.5" y="-423.2" font-family="Arial" font-weight="bold" font-size="11.00" fill="black"><a fill="navy" href="../reference/Equipment/Chamber.html" target="_parent">Chamber</a></text>
</g>
<!-- 7&#45;&gt;41 -->
<g id="edge8" class="edge"><path fill="none" stroke="#000000" d="M295.598,-482.09C292.972,-479.591 290.565,-476.896 288.5,-474 284.181,-467.945 281.527,-460.461 279.905,-453.22"/>
<polygon fill="#000000" stroke="#000000" points="295.859,-482.3 303.041,-482.955 305.199,-489.835 298.017,-489.181 295.859,-482.3"/>
<polygon fill="#000000" stroke="#000000" points="278.234,-443.318 284.336,-452.43 279.066,-448.248 279.898,-453.179 279.898,-453.179 279.898,-453.179 279.066,-448.248 275.461,-453.928 278.234,-443.318 278.234,-443.318"/>
<text text-anchor="start" x="291" y="-463.5" font-family="Arial" font-size="10.00" fill="black"><a fill="navy" href="../reference/Equipment/ChamberOwner.html#dexpi-equipment-chamberowner-chambers" target="_parent">Chambers</a></text>
<text text-anchor="start" x="270.234" y="-446.318" font-family="Arial" font-size="10.00" fill="black">*</text>
<text text-anchor="start" x="276.199" y="-479.835" font-family="Arial" font-size="10.00" fill="black">0..1</text>
</g>
<!-- 15&#45;inner&#45;node -->
<!-- 7&#45;&gt;15&#45;inner&#45;node -->
<g id="edge20" class="edge"><path fill="none" stroke="black" d="M341.5,-479.649C341.5,-456.987 341.5,-428.163 341.5,-426.116L341.64,-423.884"/>
<polygon fill="none" stroke="black" points="338,-479.822 341.5,-489.822 345,-479.822 338,-479.822"/>
</g>
<!-- 8 -->
<g id="node8" class="node"><defs>
<linearGradient id="l_14" gradientUnits="userSpaceOnUse" x1="457.5" y1="-490" x2="457.5" y2="-526">
<stop offset="0" style="stop-color:#ffffbb;stop-opacity:1.;"/>
<stop offset="1" style="stop-color:#ffffee;stop-opacity:1.;"/>
</linearGradient>
</defs>
<polygon fill="url(#l_14)" stroke="black" points="502.5,-526 412.5,-526 412.5,-490 502.5,-490 502.5,-526"/>
<text text-anchor="start" x="422.5" y="-506.2" font-family="Arial" font-weight="bold" font-style="italic" font-size="11.00" fill="black"><a fill="navy" href="../reference/Equipment/NozzleOwner.html" target="_parent">NozzleOwner</a></text>
</g>
<!-- 44 -->
<g id="node19" class="node"><defs>
<linearGradient id="l_15" gradientUnits="userSpaceOnUse" x1="402.5" y1="-407" x2="402.5" y2="-443">
<stop offset="0" style="stop-color:#ffffbb;stop-opacity:1.;"/>
<stop offset="1" style="stop-color:#ffffee;stop-opacity:1.;"/>
</linearGradient>
</defs>
<polygon fill="url(#l_15)" stroke="black" points="431,-443 374,-443 374,-407 431,-407 431,-443"/>
<text text-anchor="start" x="384.5" y="-423.2" font-family="Arial" font-weight="bold" font-size="11.00" fill="black"><a fill="navy" href="../reference/Equipment/Nozzle.html" target="_parent">Nozzle</a></text>
</g>
<!-- 8&#45;&gt;44 -->
<g id="edge9" class="edge"><path fill="none" stroke="#000000" d="M419.289,-481.384C417.147,-479.056 415.185,-476.592 413.5,-474 409.447,-467.763 406.878,-460.222 405.253,-452.983"/>
<polygon fill="#000000" stroke="#000000" points="419.431,-481.515 426.552,-482.651 428.242,-489.662 421.121,-488.525 419.431,-481.515"/>
<polygon fill="#000000" stroke="#000000" points="403.528,-443.118 409.683,-452.193 404.389,-448.043 405.251,-452.969 405.251,-452.969 405.251,-452.969 404.389,-448.043 400.818,-453.744 403.528,-443.118 403.528,-443.118"/>
<text text-anchor="start" x="415.5" y="-463.5" font-family="Arial" font-size="10.00" fill="black"><a fill="navy" href="../reference/Equipment/NozzleOwner.html#dexpi-equipment-nozzleowner-nozzles" target="_parent">Nozzles</a></text>
<text text-anchor="start" x="395.528" y="-446.118" font-family="Arial" font-size="10.00" fill="black">*</text>
<text text-anchor="start" x="399.242" y="-479.662" font-family="Arial" font-size="10.00" fill="black">0..1</text>
</g>
<!-- 16&#45;inner&#45;node -->
<!-- 8&#45;&gt;16&#45;inner&#45;node -->
<g id="edge22" class="edge"><path fill="none" stroke="black" d="M457.5,-479.649C457.5,-456.987 457.5,-428.163 457.5,-426.116L457.5,-423.951"/>
<polygon fill="none" stroke="black" points="454,-479.822 457.5,-489.822 461,-479.822 454,-479.822"/>
</g>
<!-- 9 -->
<g id="node9" class="node"><defs>
<linearGradient id="l_16" gradientUnits="userSpaceOnUse" x1="575.5" y1="-490" x2="575.5" y2="-526">
<stop offset="0" style="stop-color:#ffffbb;stop-opacity:1.;"/>
<stop offset="1" style="stop-color:#ffffee;stop-opacity:1.;"/>
</linearGradient>
</defs>
<polygon fill="url(#l_16)" stroke="black" points="630,-526 521,-526 521,-490 630,-490 630,-526"/>
<text text-anchor="start" x="531.5" y="-506.2" font-family="Arial" font-weight="bold" font-style="italic" font-size="11.00" fill="black"><a fill="navy" href="../reference/Equipment/TaggedPlantItem.html" target="_parent">TaggedPlantItem</a></text>
</g>
<!-- 17&#45;inner&#45;node -->
<!-- 9&#45;&gt;17&#45;inner&#45;node -->
<g id="edge24" class="edge"><path fill="none" stroke="black" d="M575.5,-479.649C575.5,-456.987 575.5,-428.163 575.5,-426.116L575.414,-423.951"/>
<polygon fill="none" stroke="black" points="572,-479.822 575.5,-489.822 579,-479.822 572,-479.822"/>
</g>
<!-- 10 -->
<g id="node10" class="node"><defs>
<linearGradient id="l_17" gradientUnits="userSpaceOnUse" x1="471.5" y1="-656" x2="471.5" y2="-692">
<stop offset="0" style="stop-color:#ffffbb;stop-opacity:1.;"/>
<stop offset="1" style="stop-color:#ffffee;stop-opacity:1.;"/>
</linearGradient>
</defs>
<polygon fill="url(#l_17)" stroke="black" points="529,-692 414,-692 414,-656 529,-656 529,-692"/>
<text text-anchor="start" x="424.5" y="-672.2" font-family="Arial" font-weight="bold" font-style="italic" font-size="11.00" fill="black"><a fill="navy" href="../reference/DexpiModel/ConceptualObject.html" target="_parent">ConceptualObject</a></text>
</g>
<!-- 18&#45;inner&#45;node -->
<!-- 10&#45;&gt;18&#45;inner&#45;node -->
<g id="edge26" class="edge"><path fill="none" stroke="black" d="M471.5,-645.649C471.5,-622.987 471.5,-594.163 471.5,-592.116L471.538,-589.879"/>
<polygon fill="none" stroke="black" points="468,-645.822 471.5,-655.822 475,-645.822 468,-645.822"/>
</g>
<!-- 11 -->
<g id="node11" class="node"><defs>
<linearGradient id="l_18" gradientUnits="userSpaceOnUse" x1="629.5" y1="-656" x2="629.5" y2="-692">
<stop offset="0" style="stop-color:#ffffbb;stop-opacity:1.;"/>
<stop offset="1" style="stop-color:#ffffee;stop-opacity:1.;"/>
</linearGradient>
</defs>
<polygon fill="url(#l_18)" stroke="black" points="701.5,-692 557.5,-692 557.5,-656 701.5,-656 701.5,-692"/>
<text text-anchor="start" x="567.5" y="-672.2" font-family="Arial" font-weight="bold" font-style="italic" font-size="11.00" fill="black"><a fill="navy" href="../reference/Customization/CustomAttributeOwner.html" target="_parent">CustomAttributeOwner</a></text>
</g>
<!-- 56 -->
<g id="node23" class="node"><defs>
<linearGradient id="l_19" gradientUnits="userSpaceOnUse" x1="544.5" y1="-573" x2="544.5" y2="-609">
<stop offset="0" style="stop-color:#ffffbb;stop-opacity:1.;"/>
<stop offset="1" style="stop-color:#ffffee;stop-opacity:1.;"/>
</linearGradient>
</defs>
<polygon fill="url(#l_19)" stroke="black" points="599,-609 490,-609 490,-573 599,-573 599,-609"/>
<text text-anchor="start" x="500.5" y="-589.2" font-family="Arial" font-weight="bold" font-style="italic" font-size="11.00" fill="black"><a fill="navy" href="../reference/Customization/CustomAttribute.html" target="_parent">CustomAttribute</a></text>
</g>
<!-- 11&#45;&gt;56 -->
<g id="edge13" class="edge"><path fill="none" stroke="#000000" d="M552.949,-648.486C550.181,-645.933 547.67,-643.113 545.5,-640 541.402,-634.119 539.944,-626.772 539.815,-619.608"/>
<polygon fill="#000000" stroke="#000000" points="552.998,-648.523 560.196,-648.959 562.563,-655.77 555.365,-655.335 552.998,-648.523"/>
<polygon fill="#000000" stroke="#000000" points="540.425,-609.435 544.319,-619.687 540.126,-614.426 539.827,-619.417 539.827,-619.417 539.827,-619.417 540.126,-614.426 535.335,-619.148 540.425,-609.435 540.425,-609.435"/>
<text text-anchor="start" x="547.5" y="-629.5" font-family="Arial" font-size="10.00" fill="black"><a fill="navy" href="../reference/Customization/CustomAttributeOwner.html#dexpi-customization-customattributeowner-customattributes" target="_parent">CustomAttributes</a></text>
<text text-anchor="start" x="532.425" y="-612.435" font-family="Arial" font-size="10.00" fill="black">*</text>
<text text-anchor="start" x="533.563" y="-645.77" font-family="Arial" font-size="10.00" fill="black">0..1</text>
</g>
<!-- 19&#45;inner&#45;node -->
<!-- 11&#45;&gt;19&#45;inner&#45;node -->
<g id="edge28" class="edge"><path fill="none" stroke="black" d="M629.5,-645.649C629.5,-622.987 629.5,-594.163 629.5,-592.116L629.461,-589.941"/>
<polygon fill="none" stroke="black" points="626,-645.822 629.5,-655.822 633,-645.822 626,-645.822"/>
</g>
<!-- 47 -->
<g id="node20" class="node"><defs>
<linearGradient id="l_20" gradientUnits="userSpaceOnUse" x1="395.5" y1="-573" x2="395.5" y2="-609">
<stop offset="0" style="stop-color:#ffffbb;stop-opacity:1.;"/>
<stop offset="1" style="stop-color:#ffffee;stop-opacity:1.;"/>
</linearGradient>
</defs>
<polygon fill="url(#l_20)" stroke="black" points="452.5,-609 338.5,-609 338.5,-573 452.5,-573 452.5,-609"/>
<text text-anchor="start" x="348.5" y="-589.2" font-family="Arial" font-weight="bold" font-size="11.00" fill="black"><a fill="navy" href="../reference/DexpiModel/ConceptualModel.html" target="_parent">ConceptualModel</a></text>
</g>
<!-- 47&#45;&gt;9 -->
<g id="edge10" class="edge"><path fill="none" stroke="#000000" d="M400.324,-561.016C402.842,-553.86 406.673,-546.862 412.5,-542 444.518,-515.287 465.123,-532.682 510.934,-525.726"/>
<polygon fill="#000000" stroke="#000000" points="400.262,-561.253 402.602,-568.074 397.205,-572.857 394.865,-566.036 400.262,-561.253"/>
<polygon fill="#000000" stroke="#000000" points="520.773,-523.92 511.751,-530.152 515.856,-524.823 510.938,-525.726 510.938,-525.726 510.938,-525.726 515.856,-524.823 510.125,-521.3 520.773,-523.92 520.773,-523.92"/>
<text text-anchor="start" x="415" y="-546.5" font-family="Arial" font-size="10.00" fill="black"><a fill="navy" href="../reference/DexpiModel/ConceptualModel.html#dexpi-dexpimodel-conceptualmodel-taggedplantitems" target="_parent">TaggedPlantItems</a></text>
<text text-anchor="start" x="512.773" y="-526.92" font-family="Arial" font-size="10.00" fill="black">*</text>
<text text-anchor="start" x="368.205" y="-562.857" font-family="Arial" font-size="10.00" fill="black">0..1</text>
</g>
<!-- 50 -->
<g id="node21" class="node"><defs>
<linearGradient id="l_21" gradientUnits="userSpaceOnUse" x1="368.5" y1="-747.5" x2="368.5" y2="-783.5">
<stop offset="0" style="stop-color:#ffffbb;stop-opacity:1.;"/>
<stop offset="1" style="stop-color:#ffffee;stop-opacity:1.;"/>
</linearGradient>
</defs>
<polygon fill="url(#l_21)" stroke="black" points="443,-783.5 294,-783.5 294,-747.5 443,-747.5 443,-783.5"/>
<text text-anchor="start" x="304.5" y="-763.7" font-family="Arial" font-weight="bold" font-size="11.00" fill="black"><a fill="navy" href="../reference/Graphics/AttributeRepresentation.html" target="_parent">AttributeRepresentation</a></text>
</g>
<!-- 50&#45;&gt;10 -->
<g id="edge11" class="edge"><path fill="none" stroke="#000000" d="M388.359,-747.243C404.176,-733.5 426.493,-714.108 444.024,-698.875"/>
<polygon fill="#000000" stroke="#000000" points="451.702,-692.204 447.105,-702.159 447.927,-695.483 444.153,-698.763 444.153,-698.763 444.153,-698.763 447.927,-695.483 441.201,-695.366 451.702,-692.204 451.702,-692.204"/>
<text text-anchor="start" x="435" y="-712.5" font-family="Arial" font-size="10.00" fill="black"><a fill="navy" href="../reference/Graphics/AttributeRepresentation.html#dexpi-graphics-attributerepresentation-object" target="_parent">Object</a></text>
<text text-anchor="start" x="443.702" y="-695.204" font-family="Arial" font-size="10.00" fill="black"></text>
<text text-anchor="start" x="372.359" y="-737.243" font-family="Arial" font-size="10.00" fill="black">*</text>
</g>
<!-- 53 -->
<g id="node22" class="node"><defs>
<linearGradient id="l_22" gradientUnits="userSpaceOnUse" x1="529.5" y1="-747.5" x2="529.5" y2="-783.5">
<stop offset="0" style="stop-color:#ffffbb;stop-opacity:1.;"/>
<stop offset="1" style="stop-color:#ffffee;stop-opacity:1.;"/>
</linearGradient>
</defs>
<polygon fill="url(#l_22)" stroke="black" points="598,-783.5 461,-783.5 461,-747.5 598,-747.5 598,-783.5"/>
<text text-anchor="start" x="471.5" y="-763.7" font-family="Arial" font-weight="bold" font-size="11.00" fill="black"><a fill="navy" href="../reference/Graphics/RepresentationGroup.html" target="_parent">RepresentationGroup</a></text>
</g>
<!-- 53&#45;&gt;10 -->
<g id="edge12" class="edge"><path fill="none" stroke="#000000" d="M518.317,-747.243C509.812,-734.119 497.968,-715.843 488.322,-700.958"/>
<polygon fill="#000000" stroke="#000000" points="482.649,-692.204 491.863,-698.148 485.368,-696.399 488.087,-700.595 488.087,-700.595 488.087,-700.595 485.368,-696.399 484.311,-703.043 482.649,-692.204 482.649,-692.204"/>
<text text-anchor="start" x="504.5" y="-712.5" font-family="Arial" font-size="10.00" fill="black"><a fill="navy" href="../reference/Graphics/RepresentationGroup.html#dexpi-graphics-representationgroup-represents" target="_parent">Represents</a></text>
<text text-anchor="start" x="474.649" y="-695.204" font-family="Arial" font-size="10.00" fill="black"></text>
<text text-anchor="start" x="502.317" y="-737.243" font-family="Arial" font-size="10.00" fill="black">*</text>
</g>
<!-- 12&#45;inner&#45;node&#45;&gt;0 -->
<g id="edge15" class="edge"><path fill="none" stroke="black" d="M357.669,-151.857C359.724,-150.115 380.079,-132.865 396.278,-119.137"/>
</g>
<!-- 13&#45;inner&#45;node&#45;&gt;0 -->
<g id="edge17" class="edge"><path fill="none" stroke="black" d="M457.382,-151.857C455.955,-150.115 441.81,-132.865 430.553,-119.137"/>
</g>
<!-- 14&#45;inner&#45;node&#45;&gt;5 -->
<g id="edge19" class="edge"><path fill="none" stroke="black" d="M457.5,-271.951C457.5,-270.604 457.5,-241.522 457.5,-222.135"/>
</g>
<!-- 15&#45;inner&#45;node&#45;&gt;6 -->
<g id="edge21" class="edge"><path fill="none" stroke="black" d="M341.64,-423.884C343.027,-422.739 354.434,-413.38 364.5,-407 383.235,-395.126 405.036,-383.306 422.819,-374.142"/>
</g>
<!-- 16&#45;inner&#45;node&#45;&gt;6 -->
<g id="edge23" class="edge"><path fill="none" stroke="black" d="M457.5,-423.951C457.5,-422.604 457.5,-393.522 457.5,-374.135"/>
</g>
<!-- 17&#45;inner&#45;node&#45;&gt;6 -->
<g id="edge25" class="edge"><path fill="none" stroke="black" d="M575.414,-423.951C573.042,-422.604 521.822,-393.522 487.677,-374.135"/>
</g>
<!-- 18&#45;inner&#45;node&#45;&gt;9 -->
<g id="edge27" class="edge"><path fill="none" stroke="black" d="M471.538,-589.879C471.92,-588.686 475.141,-578.959 480.5,-573 497.92,-553.629 522.388,-537.325 542.129,-526.02"/>
</g>
<!-- 19&#45;inner&#45;node&#45;&gt;9 -->
<g id="edge29" class="edge"><path fill="none" stroke="black" d="M629.461,-589.941C628.318,-588.226 602.391,-549.337 586.898,-526.098"/>
</g>
<!-- 20&#45;inner&#45;node&#45;&gt;9 -->
<g id="edge31" class="edge"><path fill="none" stroke="black" d="M766.362,-589.941C762.318,-588.226 670.615,-549.337 615.817,-526.098"/>
</g>
</g>
</svg>