<!DOCTYPE svg PUBLIC "-//W3C//DTD SVG 1.1//EN" "http://www.w3.org/Graphics/SVG/1.1/DTD/svg11.dtd">
<!-- Generated by graphviz version 2.38.0 (20140413.2041)
 --><!-- Title: G Pages: 1 --><svg xmlns="http://www.w3.org/2000/svg" xmlns:xlink="http://www.w3.org/1999/xlink" width="862pt" height="826pt" viewBox="0.00 0.00 861.50 826.00">
<g id="graph0" class="graph" transform="scale(1 1) rotate(0) translate(4 822)">
<!-- 0 -->
<g id="node1" class="node"><defs>
<linearGradient id="l_0" gradientUnits="userSpaceOnUse" x1="519.5" y1="-83" x2="519.5" y2="-145">
<stop offset="0" style="stop-color:#ffffbb;stop-opacity:1.;"/>
<stop offset="1" style="stop-color:#ffffee;stop-opacity:1.;"/>
</linearGradient>
</defs>
<polygon fill="url(#l_0)" stroke="black" points="636,-145 403,-145 403,-83 636,-83 636,-145"/>
<text text-anchor="start" x="471" y="-131.2" font-family="Arial" font-weight="bold" font-size="11.00" fill="black">CustomCentrifuge</text>
<text text-anchor="start" x="413.5" y="-107" font-family="Arial" font-size="10.00" fill="black"><a fill="navy" href="../reference/Equipment/CustomCentrifuge.html#dexpi-equipment-customcentrifuge-efficiency" target="_parent">Efficiency</a>&#160;:</text>
<text text-anchor="start" x="516.5" y="-107" font-family="Arial" font-size="10.00" fill="black"><a fill="navy" href="../reference/PhysicalQuantities/NullablePercentage.html" target="_parent">NullablePercentage</a>&#160;[0..1]</text>
<text text-anchor="start" x="413.5" y="-92" font-family="Arial" font-size="10.00" fill="black"><a fill="navy" href="../reference/Equipment/CustomCentrifuge.html#dexpi-equipment-customcentrifuge-minimumparticlesize" target="_parent">MinimumParticleSize</a>&#160;:</text>
<text text-anchor="start" x="516.5" y="-92" font-family="Arial" font-size="10.00" fill="black"><a fill="navy" href="../reference/PhysicalQuantities/NullableLength.html" target="_parent">NullableLength</a>&#160;[0..1]</text>
<polygon fill="black" stroke="black" points="636.0,-125.0 403.0,-125.0 403.0,-125.0 636.0,-125.0 636.0,-125.0"/>
</g>
<!-- 27 -->
<g id="node12" class="node"><defs>
<linearGradient id="l_1" gradientUnits="userSpaceOnUse" x1="431.5" y1="-1.77636e-014" x2="431.5" y2="-36">
<stop offset="0" style="stop-color:#ffffbb;stop-opacity:1.;"/>
<stop offset="1" style="stop-color:#ffffee;stop-opacity:1.;"/>
</linearGradient>
</defs>
<polygon fill="url(#l_1)" stroke="black" points="506.5,-36 356.5,-36 356.5,-0 506.5,-0 506.5,-36"/>
<text text-anchor="start" x="366.5" y="-16.2" font-family="Arial" font-weight="bold" font-size="11.00" fill="black"><a fill="navy" href="../reference/Equipment/FilteringCentrifugeDrum.html" target="_parent">FilteringCentrifugeDrum</a></text>
</g>
<!-- 0&#45;&gt;27 -->
<g id="edge2" class="edge"><path fill="none" stroke="#000000" d="M483.035,-74.0488C473.375,-63.7305 463.216,-52.8788 454.496,-43.5635"/>
<polygon fill="#000000" stroke="#000000" points="483.213,-74.2391 490.234,-75.8855 491.414,-82.9994 484.394,-81.3529 483.213,-74.2391"/>
<polygon fill="#000000" stroke="#000000" points="447.551,-36.1454 457.67,-40.3702 450.968,-39.7955 454.385,-43.4456 454.385,-43.4456 454.385,-43.4456 450.968,-39.7955 451.1,-46.5211 447.551,-36.1454 447.551,-36.1454"/>
<text text-anchor="start" x="477.5" y="-56.5" font-family="Arial" font-size="10.00" fill="black"><a fill="navy" href="../reference/Equipment/CustomCentrifuge.html#dexpi-equipment-customcentrifuge-filteringcentrifugedrum" target="_parent">FilteringCentrifugeDrum</a></text>
<text text-anchor="start" x="426.551" y="-39.1454" font-family="Arial" font-size="10.00" fill="black">0..1</text>
<text text-anchor="start" x="462.414" y="-72.9994" font-family="Arial" font-size="10.00" fill="black">0..1</text>
</g>
<!-- 30 -->
<g id="node13" class="node"><defs>
<linearGradient id="l_2" gradientUnits="userSpaceOnUse" x1="607.5" y1="-1.77636e-014" x2="607.5" y2="-36">
<stop offset="0" style="stop-color:#ffffbb;stop-opacity:1.;"/>
<stop offset="1" style="stop-color:#ffffee;stop-opacity:1.;"/>
</linearGradient>
</defs>
<polygon fill="url(#l_2)" stroke="black" points="690,-36 525,-36 525,-0 690,-0 690,-36"/>
<text text-anchor="start" x="535.5" y="-16.2" font-family="Arial" font-weight="bold" font-size="11.00" fill="black"><a fill="navy" href="../reference/Equipment/SedimentalCentrifugeDrum.html" target="_parent">SedimentalCentrifugeDrum</a></text>
</g>
<!-- 0&#45;&gt;30 -->
<g id="edge3" class="edge"><path fill="none" stroke="#000000" d="M578.315,-74.7292C580.861,-72.2423 583.275,-69.663 585.5,-67 590.672,-60.809 594.887,-53.2025 598.193,-45.8851"/>
<polygon fill="#000000" stroke="#000000" points="578.195,-74.8357 576.374,-81.813 569.232,-82.8152 571.054,-75.8379 578.195,-74.8357"/>
<polygon fill="#000000" stroke="#000000" points="602.142,-36.2462 602.515,-47.2057 600.247,-40.8731 598.351,-45.4999 598.351,-45.4999 598.351,-45.4999 600.247,-40.8731 594.187,-43.7941 602.142,-36.2462 602.142,-36.2462"/>
<text text-anchor="start" x="596.5" y="-56.5" font-family="Arial" font-size="10.00" fill="black"><a fill="navy" href="../reference/Equipment/CustomCentrifuge.html#dexpi-equipment-customcentrifuge-sedimentalcentrifugedrum" target="_parent">SedimentalCentrifugeDrum</a></text>
<text text-anchor="start" x="581.142" y="-39.2462" font-family="Arial" font-size="10.00" fill="black">0..1</text>
<text text-anchor="start" x="540.232" y="-72.8152" font-family="Arial" font-size="10.00" fill="black">0..1</text>
</g>
<!-- 6 -->
<g id="node2" class="node"><defs>
<linearGradient id="l_3" gradientUnits="userSpaceOnUse" x1="761.5" y1="-765" x2="761.5" y2="-818">
<stop offset="0" style="stop-color:#fbfbfb;stop-opacity:1.;"/>
<stop offset="1" style="stop-color:#fefefe;stop-opacity:1.;"/>
</linearGradient>
</defs>
<polygon fill="url(#l_3)" stroke="black" points="853.5,-807.0 842.5,-818.0 669.5,-818.0 669.5,-765.0 853.5,-765.0"/><path d="M853.5,-807.0L842.5,-807.0 842.5,-818.0" fill="none" stroke="black"/>
<text text-anchor="start" x="679.5" y="-803.5" font-family="Arial" font-size="10.00" fill="black">For&#160;the&#160;sake&#160;of&#160;clarity,&#160;superclasses&#160;</text>
<text text-anchor="start" x="679.5" y="-788.5" font-family="Arial" font-size="10.00" fill="black">and&#160;associations&#160;of&#160;<a fill="navy" href="../reference/PlantStructure/TechnicalItem.html" target="_parent">TechnicalItem</a>&#160;are</text>
<text text-anchor="start" x="679.5" y="-773.5" font-family="Arial" font-size="10.00" fill="black">not&#160;shown&#160;in&#160;this&#160;diagram.</text>
</g>
<!-- 5 -->
<g id="node3" class="node"><defs>
<linearGradient id="l_4" gradientUnits="userSpaceOnUse" x1="761.5" y1="-682" x2="761.5" y2="-718">
<stop offset="0" style="stop-color:#ffffbb;stop-opacity:1.;"/>
<stop offset="1" style="stop-color:#ffffee;stop-opacity:1.;"/>
</linearGradient>
</defs>
<polygon fill="url(#l_4)" stroke="black" points="808,-718 715,-718 715,-682 808,-682 808,-718"/>
<text text-anchor="start" x="725.5" y="-698.2" font-family="Arial" font-weight="bold" font-style="italic" font-size="11.00" fill="black"><a fill="navy" href="../reference/PlantStructure/TechnicalItem.html" target="_parent">TechnicalItem</a></text>
</g>
<!-- 6&#45;&gt;5 -->
<g id="edge1" class="edge"><path fill="none" stroke="#000000" stroke-dasharray="5,2" d="M761.5,-764.613C761.5,-749.641 761.5,-731.222 761.5,-718.063"/>
</g>
<!-- 24&#45;inner&#45;node -->
<!-- 5&#45;&gt;24&#45;inner&#45;node -->
<g id="edge30" class="edge"><path fill="none" stroke="black" d="M761.5,-671.649C761.5,-648.987 761.5,-620.163 761.5,-618.116L761.365,-615.941"/>
<polygon fill="none" stroke="black" points="758,-671.822 761.5,-681.822 765,-671.822 758,-671.822"/>
</g>
<!-- 8 -->
<g id="node4" class="node"><defs>
<linearGradient id="l_5" gradientUnits="userSpaceOnUse" x1="457.5" y1="-212" x2="457.5" y2="-248">
<stop offset="0" style="stop-color:#ffffbb;stop-opacity:1.;"/>
<stop offset="1" style="stop-color:#ffffee;stop-opacity:1.;"/>
</linearGradient>
</defs>
<polygon fill="url(#l_5)" stroke="black" points="496.5,-248 418.5,-248 418.5,-212 496.5,-212 496.5,-248"/>
<text text-anchor="start" x="428.5" y="-228.2" font-family="Arial" font-weight="bold" font-size="11.00" fill="black"><a fill="navy" href="../reference/Equipment/Centrifuge.html" target="_parent">Centrifuge</a></text>
</g>
<!-- 16&#45;inner&#45;node -->
<!-- 8&#45;&gt;16&#45;inner&#45;node -->
<g id="edge14" class="edge"><path fill="none" stroke="black" d="M457.5,-201.603C457.5,-190.422 457.5,-179.887 457.5,-179.053L457.545,-177.954"/>
<polygon fill="none" stroke="black" points="454,-201.793 457.5,-211.793 461,-201.793 454,-201.793"/>
</g>
<!-- 9 -->
<g id="node5" class="node"><defs>
<linearGradient id="l_6" gradientUnits="userSpaceOnUse" x1="563.5" y1="-212" x2="563.5" y2="-248">
<stop offset="0" style="stop-color:#ffffbb;stop-opacity:1.;"/>
<stop offset="1" style="stop-color:#ffffee;stop-opacity:1.;"/>
</linearGradient>
</defs>
<polygon fill="url(#l_6)" stroke="black" points="612,-248 515,-248 515,-212 612,-212 612,-248"/>
<text text-anchor="start" x="525.5" y="-228.2" font-family="Arial" font-weight="bold" font-style="italic" font-size="11.00" fill="black"><a fill="navy" href="../reference/Customization/CustomObject.html" target="_parent">CustomObject</a></text>
</g>
<!-- 17&#45;inner&#45;node -->
<!-- 9&#45;&gt;17&#45;inner&#45;node -->
<g id="edge16" class="edge"><path fill="none" stroke="black" d="M563.5,-201.603C563.5,-190.422 563.5,-179.887 563.5,-179.053L563.468,-177.954"/>
<polygon fill="none" stroke="black" points="560,-201.793 563.5,-211.793 567,-201.793 560,-201.793"/>
</g>
<!-- 10 -->
<g id="node6" class="node"><defs>
<linearGradient id="l_7" gradientUnits="userSpaceOnUse" x1="457.5" y1="-364" x2="457.5" y2="-400">
<stop offset="0" style="stop-color:#ffffbb;stop-opacity:1.;"/>
<stop offset="1" style="stop-color:#ffffee;stop-opacity:1.;"/>
</linearGradient>
</defs>
<polygon fill="url(#l_7)" stroke="black" points="496.5,-400 418.5,-400 418.5,-364 496.5,-364 496.5,-400"/>
<text text-anchor="start" x="428.5" y="-380.2" font-family="Arial" font-weight="bold" font-style="italic" font-size="11.00" fill="black"><a fill="navy" href="../reference/Equipment/Equipment.html" target="_parent">Equipment</a></text>
</g>
<!-- 33 -->
<g id="node14" class="node"><defs>
<linearGradient id="l_8" gradientUnits="userSpaceOnUse" x1="51.5" y1="-281" x2="51.5" y2="-317">
<stop offset="0" style="stop-color:#ffffbb;stop-opacity:1.;"/>
<stop offset="1" style="stop-color:#ffffee;stop-opacity:1.;"/>
</linearGradient>
</defs>
<polygon fill="url(#l_8)" stroke="black" points="103,-317 0,-317 0,-281 103,-281 103,-317"/>
<text text-anchor="start" x="10.5" y="-297.2" font-family="Arial" font-weight="bold" font-size="11.00" fill="black"><a fill="navy" href="../reference/Equipment/DryingChamber.html" target="_parent">DryingChamber</a></text>
</g>
<!-- 10&#45;&gt;33 -->
<g id="edge4" class="edge"><path fill="none" stroke="#000000" d="M406.027,-381.446C342.858,-380.672 233.105,-375.013 143.5,-348 123.707,-342.033 103.174,-331.771 86.54,-322.264"/>
<polygon fill="#000000" stroke="#000000" points="406.398,-381.449 412.429,-377.495 418.398,-381.542 412.367,-385.495 406.398,-381.449"/>
<polygon fill="#000000" stroke="#000000" points="77.7299,-317.091 88.6319,-318.274 82.0418,-319.623 86.3536,-322.154 86.3536,-322.154 86.3536,-322.154 82.0418,-319.623 84.0753,-326.035 77.7299,-317.091 77.7299,-317.091"/>
<text text-anchor="start" x="146" y="-337.5" font-family="Arial" font-size="10.00" fill="black"><a fill="navy" href="../reference/Equipment/Equipment.html#dexpi-equipment-equipment-dryingchambers" target="_parent">DryingChambers</a></text>
<text text-anchor="start" x="69.7299" y="-320.091" font-family="Arial" font-size="10.00" fill="black">*</text>
<text text-anchor="start" x="389.398" y="-382.542" font-family="Arial" font-size="10.00" fill="black">0..1</text>
</g>
<!-- 36 -->
<g id="node15" class="node"><defs>
<linearGradient id="l_9" gradientUnits="userSpaceOnUse" x1="155.5" y1="-281" x2="155.5" y2="-317">
<stop offset="0" style="stop-color:#ffffbb;stop-opacity:1.;"/>
<stop offset="1" style="stop-color:#ffffee;stop-opacity:1.;"/>
</linearGradient>
</defs>
<polygon fill="url(#l_9)" stroke="black" points="189.5,-317 121.5,-317 121.5,-281 189.5,-281 189.5,-317"/>
<text text-anchor="start" x="131.5" y="-297.2" font-family="Arial" font-weight="bold" font-size="11.00" fill="black"><a fill="navy" href="../reference/Equipment/GearBox.html" target="_parent">GearBox</a></text>
</g>
<!-- 10&#45;&gt;36 -->
<g id="edge5" class="edge"><path fill="none" stroke="#000000" d="M406.201,-375.816C366.621,-370.972 310.82,-362.294 263.5,-348 241.05,-341.218 217.118,-330.924 197.503,-321.606"/>
<polygon fill="#000000" stroke="#000000" points="406.275,-375.824 412.702,-372.553 418.193,-377.227 411.767,-380.498 406.275,-375.824"/>
<polygon fill="#000000" stroke="#000000" points="188.246,-317.129 199.207,-317.432 192.747,-319.306 197.248,-321.483 197.248,-321.483 197.248,-321.483 192.747,-319.306 195.289,-325.534 188.246,-317.129 188.246,-317.129"/>
<text text-anchor="start" x="266" y="-337.5" font-family="Arial" font-size="10.00" fill="black"><a fill="navy" href="../reference/Equipment/Equipment.html#dexpi-equipment-equipment-gearboxes" target="_parent">GearBoxes</a></text>
<text text-anchor="start" x="180.246" y="-320.129" font-family="Arial" font-size="10.00" fill="black">*</text>
<text text-anchor="start" x="389.193" y="-367.227" font-family="Arial" font-size="10.00" fill="black">0..1</text>
</g>
<!-- 39 -->
<g id="node16" class="node"><defs>
<linearGradient id="l_10" gradientUnits="userSpaceOnUse" x1="270.5" y1="-281" x2="270.5" y2="-317">
<stop offset="0" style="stop-color:#ffffbb;stop-opacity:1.;"/>
<stop offset="1" style="stop-color:#ffffee;stop-opacity:1.;"/>
</linearGradient>
</defs>
<polygon fill="url(#l_10)" stroke="black" points="333.5,-317 207.5,-317 207.5,-281 333.5,-281 333.5,-317"/>
<text text-anchor="start" x="217.5" y="-297.2" font-family="Arial" font-weight="bold" font-size="11.00" fill="black"><a fill="navy" href="../reference/Equipment/MotorAsComponent.html" target="_parent">MotorAsComponent</a></text>
</g>
<!-- 10&#45;&gt;39 -->
<g id="edge6" class="edge"><path fill="none" stroke="#000000" d="M406.67,-369.044C387.398,-363.7 365.526,-356.637 346.5,-348 331.23,-341.068 315.388,-331.498 302.145,-322.726"/>
<polygon fill="#000000" stroke="#000000" points="406.692,-369.049 413.521,-366.734 418.285,-372.147 411.456,-374.463 406.692,-369.049"/>
<polygon fill="#000000" stroke="#000000" points="293.85,-317.112 304.654,-318.99 297.991,-319.914 302.132,-322.717 302.132,-322.717 302.132,-322.717 297.991,-319.914 299.61,-326.443 293.85,-317.112 293.85,-317.112"/>
<text text-anchor="start" x="349" y="-337.5" font-family="Arial" font-size="10.00" fill="black"><a fill="navy" href="../reference/Equipment/Equipment.html#dexpi-equipment-equipment-motors" target="_parent">Motors</a></text>
<text text-anchor="start" x="285.85" y="-320.112" font-family="Arial" font-size="10.00" fill="black">*</text>
<text text-anchor="start" x="389.285" y="-362.147" font-family="Arial" font-size="10.00" fill="black">0..1</text>
</g>
<!-- 42 -->
<g id="node17" class="node"><defs>
<linearGradient id="l_11" gradientUnits="userSpaceOnUse" x1="395.5" y1="-281" x2="395.5" y2="-317">
<stop offset="0" style="stop-color:#ffffbb;stop-opacity:1.;"/>
<stop offset="1" style="stop-color:#ffffee;stop-opacity:1.;"/>
</linearGradient>
</defs>
<polygon fill="url(#l_11)" stroke="black" points="439,-317 352,-317 352,-281 439,-281 439,-317"/>
<text text-anchor="start" x="362.5" y="-297.2" font-family="Arial" font-weight="bold" font-size="11.00" fill="black"><a fill="navy" href="../reference/Equipment/SprayNozzle.html" target="_parent">SprayNozzle</a></text>
</g>
<!-- 10&#45;&gt;42 -->
<g id="edge7" class="edge"><path fill="none" stroke="#000000" d="M407.357,-365.548C399.867,-361.067 393.12,-355.33 388.5,-348 384.594,-341.802 384.151,-334.272 385.269,-327.033"/>
<polygon fill="#000000" stroke="#000000" points="407.588,-365.664 414.747,-364.802 418.297,-371.08 411.137,-371.942 407.588,-365.664"/>
<polygon fill="#000000" stroke="#000000" points="387.69,-317.16 389.678,-327.944 386.499,-322.016 385.308,-326.873 385.308,-326.873 385.308,-326.873 386.499,-322.016 380.937,-325.801 387.69,-317.16 387.69,-317.16"/>
<text text-anchor="start" x="391" y="-337.5" font-family="Arial" font-size="10.00" fill="black"><a fill="navy" href="../reference/Equipment/Equipment.html#dexpi-equipment-equipment-spraynozzles" target="_parent">SprayNozzles</a></text>
<text text-anchor="start" x="379.69" y="-320.16" font-family="Arial" font-size="10.00" fill="black">*</text>
<text text-anchor="start" x="406.297" y="-361.08" font-family="Arial" font-size="10.00" fill="black">0..1</text>
</g>
<!-- 18&#45;inner&#45;node -->
<!-- 10&#45;&gt;18&#45;inner&#45;node -->
<g id="edge18" class="edge"><path fill="none" stroke="black" d="M457.5,-353.649C457.5,-330.987 457.5,-302.163 457.5,-300.116L457.5,-297.951"/>
<polygon fill="none" stroke="black" points="454,-353.822 457.5,-363.822 461,-353.822 454,-353.822"/>
</g>
<!-- 11 -->
<g id="node7" class="node"><defs>
<linearGradient id="l_12" gradientUnits="userSpaceOnUse" x1="341.5" y1="-516" x2="341.5" y2="-552">
<stop offset="0" style="stop-color:#ffffbb;stop-opacity:1.;"/>
<stop offset="1" style="stop-color:#ffffee;stop-opacity:1.;"/>
</linearGradient>
</defs>
<polygon fill="url(#l_12)" stroke="black" points="394,-552 289,-552 289,-516 394,-516 394,-552"/>
<text text-anchor="start" x="299.5" y="-532.2" font-family="Arial" font-weight="bold" font-style="italic" font-size="11.00" fill="black"><a fill="navy" href="../reference/Equipment/ChamberOwner.html" target="_parent">ChamberOwner</a></text>
</g>
<!-- 45 -->
<g id="node18" class="node"><defs>
<linearGradient id="l_13" gradientUnits="userSpaceOnUse" x1="277.5" y1="-433" x2="277.5" y2="-469">
<stop offset="0" style="stop-color:#ffffbb;stop-opacity:1.;"/>
<stop offset="1" style="stop-color:#ffffee;stop-opacity:1.;"/>
</linearGradient>
</defs>
<polygon fill="url(#l_13)" stroke="black" points="312,-469 243,-469 243,-433 312,-433 312,-469"/>
<text text-anchor="start" x="253.5" y="-449.2" font-family="Arial" font-weight="bold" font-size="11.00" fill="black"><a fill="navy" href="../reference/Equipment/Chamber.html" target="_parent">Chamber</a></text>
</g>
<!-- 11&#45;&gt;45 -->
<g id="edge8" class="edge"><path fill="none" stroke="#000000" d="M295.598,-508.09C292.972,-505.591 290.565,-502.896 288.5,-500 284.181,-493.945 281.527,-486.461 279.905,-479.22"/>
<polygon fill="#000000" stroke="#000000" points="295.859,-508.3 303.041,-508.955 305.199,-515.835 298.017,-515.181 295.859,-508.3"/>
<polygon fill="#000000" stroke="#000000" points="278.234,-469.318 284.336,-478.43 279.066,-474.248 279.898,-479.179 279.898,-479.179 279.898,-479.179 279.066,-474.248 275.461,-479.928 278.234,-469.318 278.234,-469.318"/>
<text text-anchor="start" x="291" y="-489.5" font-family="Arial" font-size="10.00" fill="black"><a fill="navy" href="../reference/Equipment/ChamberOwner.html#dexpi-equipment-chamberowner-chambers" target="_parent">Chambers</a></text>
<text text-anchor="start" x="270.234" y="-472.318" font-family="Arial" font-size="10.00" fill="black">*</text>
<text text-anchor="start" x="276.199" y="-505.835" font-family="Arial" font-size="10.00" fill="black">0..1</text>
</g>
<!-- 19&#45;inner&#45;node -->
<!-- 11&#45;&gt;19&#45;inner&#45;node -->
<g id="edge20" class="edge"><path fill="none" stroke="black" d="M341.5,-505.649C341.5,-482.987 341.5,-454.163 341.5,-452.116L341.64,-449.884"/>
<polygon fill="none" stroke="black" points="338,-505.822 341.5,-515.822 345,-505.822 338,-505.822"/>
</g>
<!-- 12 -->
<g id="node8" class="node"><defs>
<linearGradient id="l_14" gradientUnits="userSpaceOnUse" x1="457.5" y1="-516" x2="457.5" y2="-552">
<stop offset="0" style="stop-color:#ffffbb;stop-opacity:1.;"/>
<stop offset="1" style="stop-color:#ffffee;stop-opacity:1.;"/>
</linearGradient>
</defs>
<polygon fill="url(#l_14)" stroke="black" points="502.5,-552 412.5,-552 412.5,-516 502.5,-516 502.5,-552"/>
<text text-anchor="start" x="422.5" y="-532.2" font-family="Arial" font-weight="bold" font-style="italic" font-size="11.00" fill="black"><a fill="navy" href="../reference/Equipment/NozzleOwner.html" target="_parent">NozzleOwner</a></text>
</g>
<!-- 48 -->
<g id="node19" class="node"><defs>
<linearGradient id="l_15" gradientUnits="userSpaceOnUse" x1="402.5" y1="-433" x2="402.5" y2="-469">
<stop offset="0" style="stop-color:#ffffbb;stop-opacity:1.;"/>
<stop offset="1" style="stop-color:#ffffee;stop-opacity:1.;"/>
</linearGradient>
</defs>
<polygon fill="url(#l_15)" stroke="black" points="431,-469 374,-469 374,-433 431,-433 431,-469"/>
<text text-anchor="start" x="384.5" y="-449.2" font-family="Arial" font-weight="bold" font-size="11.00" fill="black"><a fill="navy" href="../reference/Equipment/Nozzle.html" target="_parent">Nozzle</a></text>
</g>
<!-- 12&#45;&gt;48 -->
<g id="edge9" class="edge"><path fill="none" stroke="#000000" d="M419.289,-507.384C417.147,-505.056 415.185,-502.592 413.5,-500 409.447,-493.763 406.878,-486.222 405.253,-478.983"/>
<polygon fill="#000000" stroke="#000000" points="419.431,-507.515 426.552,-508.651 428.242,-515.662 421.121,-514.525 419.431,-507.515"/>
<polygon fill="#000000" stroke="#000000" points="403.528,-469.118 409.683,-478.193 404.389,-474.043 405.251,-478.969 405.251,-478.969 405.251,-478.969 404.389,-474.043 400.818,-479.744 403.528,-469.118 403.528,-469.118"/>
<text text-anchor="start" x="415.5" y="-489.5" font-family="Arial" font-size="10.00" fill="black"><a fill="navy" href="../reference/Equipment/NozzleOwner.html#dexpi-equipment-nozzleowner-nozzles" target="_parent">Nozzles</a></text>
<text text-anchor="start" x="395.528" y="-472.118" font-family="Arial" font-size="10.00" fill="black">*</text>
<text text-anchor="start" x="399.242" y="-505.662" font-family="Arial" font-size="10.00" fill="black">0..1</text>
</g>
<!-- 20&#45;inner&#45;node -->
<!-- 12&#45;&gt;20&#45;inner&#45;node -->
<g id="edge22" class="edge"><path fill="none" stroke="black" d="M457.5,-505.649C457.5,-482.987 457.5,-454.163 457.5,-452.116L457.5,-449.951"/>
<polygon fill="none" stroke="black" points="454,-505.822 457.5,-515.822 461,-505.822 454,-505.822"/>
</g>
<!-- 13 -->
<g id="node9" class="node"><defs>
<linearGradient id="l_16" gradientUnits="userSpaceOnUse" x1="575.5" y1="-516" x2="575.5" y2="-552">
<stop offset="0" style="stop-color:#ffffbb;stop-opacity:1.;"/>
<stop offset="1" style="stop-color:#ffffee;stop-opacity:1.;"/>
</linearGradient>
</defs>
<polygon fill="url(#l_16)" stroke="black" points="630,-552 521,-552 521,-516 630,-516 630,-552"/>
<text text-anchor="start" x="531.5" y="-532.2" font-family="Arial" font-weight="bold" font-style="italic" font-size="11.00" fill="black"><a fill="navy" href="../reference/Equipment/TaggedPlantItem.html" target="_parent">TaggedPlantItem</a></text>
</g>
<!-- 21&#45;inner&#45;node -->
<!-- 13&#45;&gt;21&#45;inner&#45;node -->
<g id="edge24" class="edge"><path fill="none" stroke="black" d="M575.5,-505.649C575.5,-482.987 575.5,-454.163 575.5,-452.116L575.414,-449.951"/>
<polygon fill="none" stroke="black" points="572,-505.822 575.5,-515.822 579,-505.822 572,-505.822"/>
</g>
<!-- 14 -->
<g id="node10" class="node"><defs>
<linearGradient id="l_17" gradientUnits="userSpaceOnUse" x1="466.5" y1="-682" x2="466.5" y2="-718">
<stop offset="0" style="stop-color:#ffffbb;stop-opacity:1.;"/>
<stop offset="1" style="stop-color:#ffffee;stop-opacity:1.;"/>
</linearGradient>
</defs>
<polygon fill="url(#l_17)" stroke="black" points="524,-718 409,-718 409,-682 524,-682 524,-718"/>
<text text-anchor="start" x="419.5" y="-698.2" font-family="Arial" font-weight="bold" font-style="italic" font-size="11.00" fill="black"><a fill="navy" href="../reference/DexpiModel/ConceptualObject.html" target="_parent">ConceptualObject</a></text>
</g>
<!-- 22&#45;inner&#45;node -->
<!-- 14&#45;&gt;22&#45;inner&#45;node -->
<g id="edge26" class="edge"><path fill="none" stroke="black" d="M466.5,-671.649C466.5,-648.987 466.5,-620.163 466.5,-618.116L466.537,-615.878"/>
<polygon fill="none" stroke="black" points="463,-671.822 466.5,-681.822 470,-671.822 463,-671.822"/>
</g>
<!-- 15 -->
<g id="node11" class="node"><defs>
<linearGradient id="l_18" gradientUnits="userSpaceOnUse" x1="624.5" y1="-682" x2="624.5" y2="-718">
<stop offset="0" style="stop-color:#ffffbb;stop-opacity:1.;"/>
<stop offset="1" style="stop-color:#ffffee;stop-opacity:1.;"/>
</linearGradient>
</defs>
<polygon fill="url(#l_18)" stroke="black" points="696.5,-718 552.5,-718 552.5,-682 696.5,-682 696.5,-718"/>
<text text-anchor="start" x="562.5" y="-698.2" font-family="Arial" font-weight="bold" font-style="italic" font-size="11.00" fill="black"><a fill="navy" href="../reference/Customization/CustomAttributeOwner.html" target="_parent">CustomAttributeOwner</a></text>
</g>
<!-- 60 -->
<g id="node23" class="node"><defs>
<linearGradient id="l_19" gradientUnits="userSpaceOnUse" x1="539.5" y1="-599" x2="539.5" y2="-635">
<stop offset="0" style="stop-color:#ffffbb;stop-opacity:1.;"/>
<stop offset="1" style="stop-color:#ffffee;stop-opacity:1.;"/>
</linearGradient>
</defs>
<polygon fill="url(#l_19)" stroke="black" points="594,-635 485,-635 485,-599 594,-599 594,-635"/>
<text text-anchor="start" x="495.5" y="-615.2" font-family="Arial" font-weight="bold" font-style="italic" font-size="11.00" fill="black"><a fill="navy" href="../reference/Customization/CustomAttribute.html" target="_parent">CustomAttribute</a></text>
</g>
<!-- 15&#45;&gt;60 -->
<g id="edge13" class="edge"><path fill="none" stroke="#000000" d="M547.949,-674.486C545.181,-671.933 542.67,-669.113 540.5,-666 536.402,-660.119 534.944,-652.772 534.815,-645.608"/>
<polygon fill="#000000" stroke="#000000" points="547.998,-674.523 555.196,-674.959 557.563,-681.77 550.365,-681.335 547.998,-674.523"/>
<polygon fill="#000000" stroke="#000000" points="535.425,-635.435 539.319,-645.687 535.126,-640.426 534.827,-645.417 534.827,-645.417 534.827,-645.417 535.126,-640.426 530.335,-645.148 535.425,-635.435 535.425,-635.435"/>
<text text-anchor="start" x="542.5" y="-655.5" font-family="Arial" font-size="10.00" fill="black"><a fill="navy" href="../reference/Customization/CustomAttributeOwner.html#dexpi-customization-customattributeowner-customattributes" target="_parent">CustomAttributes</a></text>
<text text-anchor="start" x="527.425" y="-638.435" font-family="Arial" font-size="10.00" fill="black">*</text>
<text text-anchor="start" x="528.563" y="-671.77" font-family="Arial" font-size="10.00" fill="black">0..1</text>
</g>
<!-- 23&#45;inner&#45;node -->
<!-- 15&#45;&gt;23&#45;inner&#45;node -->
<g id="edge28" class="edge"><path fill="none" stroke="black" d="M624.5,-671.649C624.5,-648.987 624.5,-620.163 624.5,-618.116L624.464,-615.941"/>
<polygon fill="none" stroke="black" points="621,-671.822 624.5,-681.822 628,-671.822 621,-671.822"/>
</g>
<!-- 51 -->
<g id="node20" class="node"><defs>
<linearGradient id="l_20" gradientUnits="userSpaceOnUse" x1="390.5" y1="-599" x2="390.5" y2="-635">
<stop offset="0" style="stop-color:#ffffbb;stop-opacity:1.;"/>
<stop offset="1" style="stop-color:#ffffee;stop-opacity:1.;"/>
</linearGradient>
</defs>
<polygon fill="url(#l_20)" stroke="black" points="447.5,-635 333.5,-635 333.5,-599 447.5,-599 447.5,-635"/>
<text text-anchor="start" x="343.5" y="-615.2" font-family="Arial" font-weight="bold" font-size="11.00" fill="black"><a fill="navy" href="../reference/DexpiModel/ConceptualModel.html" target="_parent">ConceptualModel</a></text>
</g>
<!-- 51&#45;&gt;13 -->
<g id="edge10" class="edge"><path fill="none" stroke="#000000" d="M395.3,-586.987C397.818,-579.831 401.654,-572.84 407.5,-568 441.271,-540.04 462.895,-558.856 510.83,-551.738"/>
<polygon fill="#000000" stroke="#000000" points="395.236,-587.228 397.58,-594.048 392.186,-598.833 389.842,-592.014 395.236,-587.228"/>
<polygon fill="#000000" stroke="#000000" points="520.779,-549.947 511.735,-556.148 515.858,-550.833 510.937,-551.719 510.937,-551.719 510.937,-551.719 515.858,-550.833 510.14,-547.29 520.779,-549.947 520.779,-549.947"/>
<text text-anchor="start" x="410" y="-572.5" font-family="Arial" font-size="10.00" fill="black"><a fill="navy" href="../reference/DexpiModel/ConceptualModel.html#dexpi-dexpimodel-conceptualmodel-taggedplantitems" target="_parent">TaggedPlantItems</a></text>
<text text-anchor="start" x="512.779" y="-552.947" font-family="Arial" font-size="10.00" fill="black">*</text>
<text text-anchor="start" x="363.186" y="-588.833" font-family="Arial" font-size="10.00" fill="black">0..1</text>
</g>
<!-- 54 -->
<g id="node21" class="node"><defs>
<linearGradient id="l_21" gradientUnits="userSpaceOnUse" x1="363.5" y1="-773.5" x2="363.5" y2="-809.5">
<stop offset="0" style="stop-color:#ffffbb;stop-opacity:1.;"/>
<stop offset="1" style="stop-color:#ffffee;stop-opacity:1.;"/>
</linearGradient>
</defs>
<polygon fill="url(#l_21)" stroke="black" points="438,-809.5 289,-809.5 289,-773.5 438,-773.5 438,-809.5"/>
<text text-anchor="start" x="299.5" y="-789.7" font-family="Arial" font-weight="bold" font-size="11.00" fill="black"><a fill="navy" href="../reference/Graphics/AttributeRepresentation.html" target="_parent">AttributeRepresentation</a></text>
</g>
<!-- 54&#45;&gt;14 -->
<g id="edge11" class="edge"><path fill="none" stroke="#000000" d="M383.359,-773.243C399.176,-759.5 421.493,-740.108 439.024,-724.875"/>
<polygon fill="#000000" stroke="#000000" points="446.702,-718.204 442.105,-728.159 442.927,-721.483 439.153,-724.763 439.153,-724.763 439.153,-724.763 442.927,-721.483 436.201,-721.366 446.702,-718.204 446.702,-718.204"/>
<text text-anchor="start" x="430" y="-738.5" font-family="Arial" font-size="10.00" fill="black"><a fill="navy" href="../reference/Graphics/AttributeRepresentation.html#dexpi-graphics-attributerepresentation-object" target="_parent">Object</a></text>
<text text-anchor="start" x="438.702" y="-721.204" font-family="Arial" font-size="10.00" fill="black"></text>
<text text-anchor="start" x="367.359" y="-763.243" font-family="Arial" font-size="10.00" fill="black">*</text>
</g>
<!-- 57 -->
<g id="node22" class="node"><defs>
<linearGradient id="l_22" gradientUnits="userSpaceOnUse" x1="524.5" y1="-773.5" x2="524.5" y2="-809.5">
<stop offset="0" style="stop-color:#ffffbb;stop-opacity:1.;"/>
<stop offset="1" style="stop-color:#ffffee;stop-opacity:1.;"/>
</linearGradient>
</defs>
<polygon fill="url(#l_22)" stroke="black" points="593,-809.5 456,-809.5 456,-773.5 593,-773.5 593,-809.5"/>
<text text-anchor="start" x="466.5" y="-789.7" font-family="Arial" font-weight="bold" font-size="11.00" fill="black"><a fill="navy" href="../reference/Graphics/RepresentationGroup.html" target="_parent">RepresentationGroup</a></text>
</g>
<!-- 57&#45;&gt;14 -->
<g id="edge12" class="edge"><path fill="none" stroke="#000000" d="M513.317,-773.243C504.812,-760.119 492.968,-741.843 483.322,-726.958"/>
<polygon fill="#000000" stroke="#000000" points="477.649,-718.204 486.863,-724.148 480.368,-722.399 483.087,-726.595 483.087,-726.595 483.087,-726.595 480.368,-722.399 479.311,-729.043 477.649,-718.204 477.649,-718.204"/>
<text text-anchor="start" x="499.5" y="-738.5" font-family="Arial" font-size="10.00" fill="black"><a fill="navy" href="../reference/Graphics/RepresentationGroup.html#dexpi-graphics-representationgroup-represents" target="_parent">Represents</a></text>
<text text-anchor="start" x="469.649" y="-721.204" font-family="Arial" font-size="10.00" fill="black"></text>
<text text-anchor="start" x="497.317" y="-763.243" font-family="Arial" font-size="10.00" fill="black">*</text>
</g>
<!-- 16&#45;inner&#45;node&#45;&gt;0 -->
<g id="edge15" class="edge"><path fill="none" stroke="black" d="M457.545,-177.954C458.498,-176.986 474.46,-160.766 489.941,-145.035"/>
</g>
<!-- 17&#45;inner&#45;node&#45;&gt;0 -->
<g id="edge17" class="edge"><path fill="none" stroke="black" d="M563.468,-177.954C562.792,-176.986 551.464,-160.766 540.477,-145.035"/>
</g>
<!-- 18&#45;inner&#45;node&#45;&gt;8 -->
<g id="edge19" class="edge"><path fill="none" stroke="black" d="M457.5,-297.951C457.5,-296.604 457.5,-267.522 457.5,-248.135"/>
</g>
<!-- 19&#45;inner&#45;node&#45;&gt;10 -->
<g id="edge21" class="edge"><path fill="none" stroke="black" d="M341.64,-449.884C343.027,-448.739 354.434,-439.38 364.5,-433 383.235,-421.126 405.036,-409.306 422.819,-400.142"/>
</g>
<!-- 20&#45;inner&#45;node&#45;&gt;10 -->
<g id="edge23" class="edge"><path fill="none" stroke="black" d="M457.5,-449.951C457.5,-448.604 457.5,-419.522 457.5,-400.135"/>
</g>
<!-- 21&#45;inner&#45;node&#45;&gt;10 -->
<g id="edge25" class="edge"><path fill="none" stroke="black" d="M575.414,-449.951C573.042,-448.604 521.822,-419.522 487.677,-400.135"/>
</g>
<!-- 22&#45;inner&#45;node&#45;&gt;13 -->
<g id="edge27" class="edge"><path fill="none" stroke="black" d="M466.537,-615.878C466.911,-614.678 470.071,-604.896 475.5,-599 493.511,-579.44 518.763,-563.341 539.384,-552.183"/>
</g>
<!-- 23&#45;inner&#45;node&#45;&gt;13 -->
<g id="edge29" class="edge"><path fill="none" stroke="black" d="M624.464,-615.941C623.427,-614.226 599.901,-575.337 585.843,-552.098"/>
</g>
<!-- 24&#45;inner&#45;node&#45;&gt;13 -->
<g id="edge31" class="edge"><path fill="none" stroke="black" d="M761.365,-615.941C757.427,-614.226 668.125,-575.337 614.761,-552.098"/>
</g>
</g>
</svg>