<!DOCTYPE svg PUBLIC "-//W3C//DTD SVG 1.1//EN" "http://www.w3.org/Graphics/SVG/1.1/DTD/svg11.dtd">
<!-- Generated by graphviz version 2.38.0 (20140413.2041)
 --><!-- Title: G Pages: 1 --><svg xmlns="http://www.w3.org/2000/svg" xmlns:xlink="http://www.w3.org/1999/xlink" width="867pt" height="950pt" viewBox="0.00 0.00 866.50 950.00">
<g id="graph0" class="graph" transform="scale(1 1) rotate(0) translate(4 946)">
<!-- 0 -->
<g id="node1" class="node"><defs>
<linearGradient id="l_0" gradientUnits="userSpaceOnUse" x1="409.5" y1="-83" x2="409.5" y2="-220">
<stop offset="0" style="stop-color:#ffffbb;stop-opacity:1.;"/>
<stop offset="1" style="stop-color:#ffffee;stop-opacity:1.;"/>
</linearGradient>
</defs>
<polygon fill="url(#l_0)" stroke="black" points="550.5,-220 268.5,-220 268.5,-83 550.5,-83 550.5,-220"/>
<text text-anchor="start" x="348" y="-205.7" font-family="Arial" font-weight="bold" font-size="11.00" fill="black">CustomHeatExchanger</text>
<text text-anchor="start" x="278.5" y="-181.5" font-family="Arial" font-size="10.00" fill="black"><a fill="navy" href="../reference/Equipment/CustomHeatExchanger.html#dexpi-equipment-customheatexchanger-designpower" target="_parent">DesignPower</a>&#160;:</text>
<text text-anchor="start" x="390.5" y="-181.5" font-family="Arial" font-size="10.00" fill="black"><a fill="navy" href="../reference/PhysicalQuantities/NullablePower.html" target="_parent">NullablePower</a>&#160;[0..1]</text>
<text text-anchor="start" x="278.5" y="-166.5" font-family="Arial" font-size="10.00" fill="black"><a fill="navy" href="../reference/Equipment/CustomHeatExchanger.html#dexpi-equipment-customheatexchanger-designrotationalspeed" target="_parent">DesignRotationalSpeed</a>&#160;:</text>
<text text-anchor="start" x="390.5" y="-166.5" font-family="Arial" font-size="10.00" fill="black"><a fill="navy" href="../reference/PhysicalQuantities/NullableRotationalFrequency.html" target="_parent">NullableRotationalFrequency</a>&#160;[0..1]</text>
<text text-anchor="start" x="278.5" y="-151.5" font-family="Arial" font-size="10.00" fill="black"><a fill="navy" href="../reference/Equipment/CustomHeatExchanger.html#dexpi-equipment-customheatexchanger-designshaftpower" target="_parent">DesignShaftPower</a>&#160;:</text>
<text text-anchor="start" x="390.5" y="-151.5" font-family="Arial" font-size="10.00" fill="black"><a fill="navy" href="../reference/PhysicalQuantities/NullablePower.html" target="_parent">NullablePower</a>&#160;[0..1]</text>
<text text-anchor="start" x="278.5" y="-136.5" font-family="Arial" font-size="10.00" fill="black"><a fill="navy" href="../reference/Equipment/CustomHeatExchanger.html#dexpi-equipment-customheatexchanger-numberofplates" target="_parent">NumberOfPlates</a>&#160;:</text>
<text text-anchor="start" x="390.5" y="-136.5" font-family="Arial" font-size="10.00" fill="black"><a fill="navy" href="../reference/DataTypes/NullableInteger.html" target="_parent">NullableInteger</a>&#160;[0..1]</text>
<text text-anchor="start" x="278.5" y="-121.5" font-family="Arial" font-size="10.00" fill="black"><a fill="navy" href="../reference/Equipment/CustomHeatExchanger.html#dexpi-equipment-customheatexchanger-plateheight" target="_parent">PlateHeight</a>&#160;:</text>
<text text-anchor="start" x="390.5" y="-121.5" font-family="Arial" font-size="10.00" fill="black"><a fill="navy" href="../reference/PhysicalQuantities/NullableLength.html" target="_parent">NullableLength</a>&#160;[0..1]</text>
<text text-anchor="start" x="278.5" y="-106.5" font-family="Arial" font-size="10.00" fill="black"><a fill="navy" href="../reference/Equipment/CustomHeatExchanger.html#dexpi-equipment-customheatexchanger-platewidth" target="_parent">PlateWidth</a>&#160;:</text>
<text text-anchor="start" x="390.5" y="-106.5" font-family="Arial" font-size="10.00" fill="black"><a fill="navy" href="../reference/PhysicalQuantities/NullableLength.html" target="_parent">NullableLength</a>&#160;[0..1]</text>
<text text-anchor="start" x="278.5" y="-91.5" font-family="Arial" font-size="10.00" fill="black"><a fill="navy" href="../reference/Equipment/CustomHeatExchanger.html#dexpi-equipment-customheatexchanger-temastandardtype" target="_parent">TemaStandardType</a>&#160;:</text>
<text text-anchor="start" x="390.5" y="-91.5" font-family="Arial" font-size="10.00" fill="black"><a fill="navy" href="../reference/DataTypes/NullableString.html" target="_parent">NullableString</a>&#160;[0..1]</text>
<polygon fill="black" stroke="black" points="550.5,-199.5 268.5,-199.5 268.5,-199.5 550.5,-199.5 550.5,-199.5"/>
</g>
<!-- 35 -->
<g id="node12" class="node"><defs>
<linearGradient id="l_1" gradientUnits="userSpaceOnUse" x1="345.5" y1="-1.77636e-014" x2="345.5" y2="-36">
<stop offset="0" style="stop-color:#ffffbb;stop-opacity:1.;"/>
<stop offset="1" style="stop-color:#ffffee;stop-opacity:1.;"/>
</linearGradient>
</defs>
<polygon fill="url(#l_1)" stroke="black" points="411.5,-36 279.5,-36 279.5,-0 411.5,-0 411.5,-36"/>
<text text-anchor="start" x="289.5" y="-16.2" font-family="Arial" font-weight="bold" font-size="11.00" fill="black"><a fill="navy" href="../reference/Equipment/HeatExchangerRotor.html" target="_parent">HeatExchangerRotor</a></text>
</g>
<!-- 0&#45;&gt;35 -->
<g id="edge2" class="edge"><path fill="none" stroke="#000000" d="M371.247,-71.9022C366.585,-62.3223 362.106,-53.121 358.23,-45.1553"/>
<polygon fill="#000000" stroke="#000000" points="371.311,-72.034 377.534,-75.6785 376.563,-82.824 370.34,-79.1795 371.311,-72.034"/>
<polygon fill="#000000" stroke="#000000" points="353.827,-36.1091 362.249,-43.1315 356.015,-40.6049 358.203,-45.1008 358.203,-45.1008 358.203,-45.1008 356.015,-40.6049 354.157,-47.0701 353.827,-36.1091 353.827,-36.1091"/>
<text text-anchor="start" x="370.5" y="-56.5" font-family="Arial" font-size="10.00" fill="black"><a fill="navy" href="../reference/Equipment/CustomHeatExchanger.html#dexpi-equipment-customheatexchanger-rotor" target="_parent">Rotor</a></text>
<text text-anchor="start" x="332.827" y="-39.1091" font-family="Arial" font-size="10.00" fill="black">0..1</text>
<text text-anchor="start" x="347.563" y="-72.824" font-family="Arial" font-size="10.00" fill="black">0..1</text>
</g>
<!-- 38 -->
<g id="node13" class="node"><defs>
<linearGradient id="l_2" gradientUnits="userSpaceOnUse" x1="473.5" y1="-1.77636e-014" x2="473.5" y2="-36">
<stop offset="0" style="stop-color:#ffffbb;stop-opacity:1.;"/>
<stop offset="1" style="stop-color:#ffffee;stop-opacity:1.;"/>
</linearGradient>
</defs>
<polygon fill="url(#l_2)" stroke="black" points="517,-36 430,-36 430,-0 517,-0 517,-36"/>
<text text-anchor="start" x="440.5" y="-16.2" font-family="Arial" font-weight="bold" font-size="11.00" fill="black"><a fill="navy" href="../reference/Equipment/TubeBundle.html" target="_parent">TubeBundle</a></text>
</g>
<!-- 0&#45;&gt;38 -->
<g id="edge3" class="edge"><path fill="none" stroke="#000000" d="M447.753,-71.9022C452.415,-62.3223 456.894,-53.121 460.77,-45.1553"/>
<polygon fill="#000000" stroke="#000000" points="447.689,-72.034 448.66,-79.1795 442.437,-82.824 441.466,-75.6785 447.689,-72.034"/>
<polygon fill="#000000" stroke="#000000" points="465.173,-36.1091 464.843,-47.0701 462.985,-40.6049 460.797,-45.1008 460.797,-45.1008 460.797,-45.1008 462.985,-40.6049 456.751,-43.1315 465.173,-36.1091 465.173,-36.1091"/>
<text text-anchor="start" x="458.5" y="-56.5" font-family="Arial" font-size="10.00" fill="black"><a fill="navy" href="../reference/Equipment/CustomHeatExchanger.html#dexpi-equipment-customheatexchanger-tubebundle" target="_parent">TubeBundle</a></text>
<text text-anchor="start" x="444.173" y="-39.1091" font-family="Arial" font-size="10.00" fill="black">0..1</text>
<text text-anchor="start" x="413.437" y="-72.824" font-family="Arial" font-size="10.00" fill="black">0..1</text>
</g>
<!-- 14 -->
<g id="node2" class="node"><defs>
<linearGradient id="l_3" gradientUnits="userSpaceOnUse" x1="766.5" y1="-889" x2="766.5" y2="-942">
<stop offset="0" style="stop-color:#fbfbfb;stop-opacity:1.;"/>
<stop offset="1" style="stop-color:#fefefe;stop-opacity:1.;"/>
</linearGradient>
</defs>
<polygon fill="url(#l_3)" stroke="black" points="858.5,-931.0 847.5,-942.0 674.5,-942.0 674.5,-889.0 858.5,-889.0"/><path d="M858.5,-931.0L847.5,-931.0 847.5,-942.0" fill="none" stroke="black"/>
<text text-anchor="start" x="684.5" y="-927.5" font-family="Arial" font-size="10.00" fill="black">For&#160;the&#160;sake&#160;of&#160;clarity,&#160;superclasses&#160;</text>
<text text-anchor="start" x="684.5" y="-912.5" font-family="Arial" font-size="10.00" fill="black">and&#160;associations&#160;of&#160;<a fill="navy" href="../reference/PlantStructure/TechnicalItem.html" target="_parent">TechnicalItem</a>&#160;are</text>
<text text-anchor="start" x="684.5" y="-897.5" font-family="Arial" font-size="10.00" fill="black">not&#160;shown&#160;in&#160;this&#160;diagram.</text>
</g>
<!-- 13 -->
<g id="node3" class="node"><defs>
<linearGradient id="l_4" gradientUnits="userSpaceOnUse" x1="766.5" y1="-806" x2="766.5" y2="-842">
<stop offset="0" style="stop-color:#ffffbb;stop-opacity:1.;"/>
<stop offset="1" style="stop-color:#ffffee;stop-opacity:1.;"/>
</linearGradient>
</defs>
<polygon fill="url(#l_4)" stroke="black" points="813,-842 720,-842 720,-806 813,-806 813,-842"/>
<text text-anchor="start" x="730.5" y="-822.2" font-family="Arial" font-weight="bold" font-style="italic" font-size="11.00" fill="black"><a fill="navy" href="../reference/PlantStructure/TechnicalItem.html" target="_parent">TechnicalItem</a></text>
</g>
<!-- 14&#45;&gt;13 -->
<g id="edge1" class="edge"><path fill="none" stroke="#000000" stroke-dasharray="5,2" d="M766.5,-888.613C766.5,-873.641 766.5,-855.222 766.5,-842.063"/>
</g>
<!-- 32&#45;inner&#45;node -->
<!-- 13&#45;&gt;32&#45;inner&#45;node -->
<g id="edge31" class="edge"><path fill="none" stroke="black" d="M766.5,-795.649C766.5,-772.987 766.5,-744.163 766.5,-742.116L766.362,-739.941"/>
<polygon fill="none" stroke="black" points="763,-795.822 766.5,-805.822 770,-795.822 763,-795.822"/>
</g>
<!-- 16 -->
<g id="node4" class="node"><defs>
<linearGradient id="l_5" gradientUnits="userSpaceOnUse" x1="339.5" y1="-336" x2="339.5" y2="-372">
<stop offset="0" style="stop-color:#ffffbb;stop-opacity:1.;"/>
<stop offset="1" style="stop-color:#ffffee;stop-opacity:1.;"/>
</linearGradient>
</defs>
<polygon fill="url(#l_5)" stroke="black" points="388,-372 291,-372 291,-336 388,-336 388,-372"/>
<text text-anchor="start" x="301.5" y="-352.2" font-family="Arial" font-weight="bold" font-style="italic" font-size="11.00" fill="black"><a fill="navy" href="../reference/Customization/CustomObject.html" target="_parent">CustomObject</a></text>
</g>
<!-- 24&#45;inner&#45;node -->
<!-- 16&#45;&gt;24&#45;inner&#45;node -->
<g id="edge15" class="edge"><path fill="none" stroke="black" d="M339.5,-325.649C339.5,-302.987 339.5,-274.163 339.5,-272.116L339.551,-269.915"/>
<polygon fill="none" stroke="black" points="336,-325.822 339.5,-335.822 343,-325.822 336,-325.822"/>
</g>
<!-- 17 -->
<g id="node5" class="node"><defs>
<linearGradient id="l_6" gradientUnits="userSpaceOnUse" x1="457.5" y1="-336" x2="457.5" y2="-372">
<stop offset="0" style="stop-color:#ffffbb;stop-opacity:1.;"/>
<stop offset="1" style="stop-color:#ffffee;stop-opacity:1.;"/>
</linearGradient>
</defs>
<polygon fill="url(#l_6)" stroke="black" points="508.5,-372 406.5,-372 406.5,-336 508.5,-336 508.5,-372"/>
<text text-anchor="start" x="416.5" y="-352.2" font-family="Arial" font-weight="bold" font-size="11.00" fill="black"><a fill="navy" href="../reference/Equipment/HeatExchanger.html" target="_parent">HeatExchanger</a></text>
</g>
<!-- 41 -->
<g id="node14" class="node"><defs>
<linearGradient id="l_7" gradientUnits="userSpaceOnUse" x1="404.5" y1="-253" x2="404.5" y2="-289">
<stop offset="0" style="stop-color:#ffffbb;stop-opacity:1.;"/>
<stop offset="1" style="stop-color:#ffffee;stop-opacity:1.;"/>
</linearGradient>
</defs>
<polygon fill="url(#l_7)" stroke="black" points="435.5,-289 373.5,-289 373.5,-253 435.5,-253 435.5,-289"/>
<text text-anchor="start" x="383.5" y="-269.2" font-family="Arial" font-weight="bold" font-size="11.00" fill="black"><a fill="navy" href="../reference/Equipment/Agitator.html" target="_parent">Agitator</a></text>
</g>
<!-- 17&#45;&gt;41 -->
<g id="edge4" class="edge"><path fill="none" stroke="#000000" d="M430.004,-335.826C424.508,-331.279 419.274,-325.952 415.5,-320 411.517,-313.718 408.971,-306.162 407.345,-298.924"/>
<polygon fill="#000000" stroke="#000000" points="405.605,-289.068 411.775,-298.134 406.475,-293.992 407.344,-298.916 407.344,-298.916 407.344,-298.916 406.475,-293.992 402.912,-299.698 405.605,-289.068 405.605,-289.068"/>
<text text-anchor="start" x="417.5" y="-309.5" font-family="Arial" font-size="10.00" fill="black"><a fill="navy" href="../reference/Equipment/HeatExchanger.html#dexpi-equipment-heatexchanger-agitator" target="_parent">Agitator</a></text>
<text text-anchor="start" x="384.605" y="-292.068" font-family="Arial" font-size="10.00" fill="black">0..1</text>
<text text-anchor="start" x="401.004" y="-325.826" font-family="Arial" font-size="10.00" fill="black">0..1</text>
</g>
<!-- 25&#45;inner&#45;node -->
<!-- 17&#45;&gt;25&#45;inner&#45;node -->
<g id="edge17" class="edge"><path fill="none" stroke="black" d="M457.5,-325.649C457.5,-302.987 457.5,-274.163 457.5,-272.116L457.465,-269.915"/>
<polygon fill="none" stroke="black" points="454,-325.822 457.5,-335.822 461,-325.822 454,-325.822"/>
</g>
<!-- 18 -->
<g id="node6" class="node"><defs>
<linearGradient id="l_8" gradientUnits="userSpaceOnUse" x1="457.5" y1="-488" x2="457.5" y2="-524">
<stop offset="0" style="stop-color:#ffffbb;stop-opacity:1.;"/>
<stop offset="1" style="stop-color:#ffffee;stop-opacity:1.;"/>
</linearGradient>
</defs>
<polygon fill="url(#l_8)" stroke="black" points="496.5,-524 418.5,-524 418.5,-488 496.5,-488 496.5,-524"/>
<text text-anchor="start" x="428.5" y="-504.2" font-family="Arial" font-weight="bold" font-style="italic" font-size="11.00" fill="black"><a fill="navy" href="../reference/Equipment/Equipment.html" target="_parent">Equipment</a></text>
</g>
<!-- 44 -->
<g id="node15" class="node"><defs>
<linearGradient id="l_9" gradientUnits="userSpaceOnUse" x1="51.5" y1="-405" x2="51.5" y2="-441">
<stop offset="0" style="stop-color:#ffffbb;stop-opacity:1.;"/>
<stop offset="1" style="stop-color:#ffffee;stop-opacity:1.;"/>
</linearGradient>
</defs>
<polygon fill="url(#l_9)" stroke="black" points="103,-441 0,-441 0,-405 103,-405 103,-441"/>
<text text-anchor="start" x="10.5" y="-421.2" font-family="Arial" font-weight="bold" font-size="11.00" fill="black"><a fill="navy" href="../reference/Equipment/DryingChamber.html" target="_parent">DryingChamber</a></text>
</g>
<!-- 18&#45;&gt;44 -->
<g id="edge5" class="edge"><path fill="none" stroke="#000000" d="M406.027,-505.446C342.858,-504.672 233.105,-499.013 143.5,-472 123.707,-466.033 103.174,-455.771 86.54,-446.264"/>
<polygon fill="#000000" stroke="#000000" points="406.398,-505.449 412.429,-501.495 418.398,-505.542 412.367,-509.495 406.398,-505.449"/>
<polygon fill="#000000" stroke="#000000" points="77.7299,-441.091 88.6319,-442.274 82.0418,-443.623 86.3536,-446.154 86.3536,-446.154 86.3536,-446.154 82.0418,-443.623 84.0753,-450.035 77.7299,-441.091 77.7299,-441.091"/>
<text text-anchor="start" x="146" y="-461.5" font-family="Arial" font-size="10.00" fill="black"><a fill="navy" href="../reference/Equipment/Equipment.html#dexpi-equipment-equipment-dryingchambers" target="_parent">DryingChambers</a></text>
<text text-anchor="start" x="69.7299" y="-444.091" font-family="Arial" font-size="10.00" fill="black">*</text>
<text text-anchor="start" x="389.398" y="-506.542" font-family="Arial" font-size="10.00" fill="black">0..1</text>
</g>
<!-- 47 -->
<g id="node16" class="node"><defs>
<linearGradient id="l_10" gradientUnits="userSpaceOnUse" x1="155.5" y1="-405" x2="155.5" y2="-441">
<stop offset="0" style="stop-color:#ffffbb;stop-opacity:1.;"/>
<stop offset="1" style="stop-color:#ffffee;stop-opacity:1.;"/>
</linearGradient>
</defs>
<polygon fill="url(#l_10)" stroke="black" points="189.5,-441 121.5,-441 121.5,-405 189.5,-405 189.5,-441"/>
<text text-anchor="start" x="131.5" y="-421.2" font-family="Arial" font-weight="bold" font-size="11.00" fill="black"><a fill="navy" href="../reference/Equipment/GearBox.html" target="_parent">GearBox</a></text>
</g>
<!-- 18&#45;&gt;47 -->
<g id="edge6" class="edge"><path fill="none" stroke="#000000" d="M406.201,-499.816C366.621,-494.972 310.82,-486.294 263.5,-472 241.05,-465.218 217.118,-454.924 197.503,-445.606"/>
<polygon fill="#000000" stroke="#000000" points="406.275,-499.824 412.702,-496.553 418.193,-501.227 411.767,-504.498 406.275,-499.824"/>
<polygon fill="#000000" stroke="#000000" points="188.246,-441.129 199.207,-441.432 192.747,-443.306 197.248,-445.483 197.248,-445.483 197.248,-445.483 192.747,-443.306 195.289,-449.534 188.246,-441.129 188.246,-441.129"/>
<text text-anchor="start" x="266" y="-461.5" font-family="Arial" font-size="10.00" fill="black"><a fill="navy" href="../reference/Equipment/Equipment.html#dexpi-equipment-equipment-gearboxes" target="_parent">GearBoxes</a></text>
<text text-anchor="start" x="180.246" y="-444.129" font-family="Arial" font-size="10.00" fill="black">*</text>
<text text-anchor="start" x="389.193" y="-491.227" font-family="Arial" font-size="10.00" fill="black">0..1</text>
</g>
<!-- 50 -->
<g id="node17" class="node"><defs>
<linearGradient id="l_11" gradientUnits="userSpaceOnUse" x1="270.5" y1="-405" x2="270.5" y2="-441">
<stop offset="0" style="stop-color:#ffffbb;stop-opacity:1.;"/>
<stop offset="1" style="stop-color:#ffffee;stop-opacity:1.;"/>
</linearGradient>
</defs>
<polygon fill="url(#l_11)" stroke="black" points="333.5,-441 207.5,-441 207.5,-405 333.5,-405 333.5,-441"/>
<text text-anchor="start" x="217.5" y="-421.2" font-family="Arial" font-weight="bold" font-size="11.00" fill="black"><a fill="navy" href="../reference/Equipment/MotorAsComponent.html" target="_parent">MotorAsComponent</a></text>
</g>
<!-- 18&#45;&gt;50 -->
<g id="edge7" class="edge"><path fill="none" stroke="#000000" d="M406.67,-493.044C387.398,-487.7 365.526,-480.637 346.5,-472 331.23,-465.068 315.388,-455.498 302.145,-446.726"/>
<polygon fill="#000000" stroke="#000000" points="406.692,-493.049 413.521,-490.734 418.285,-496.147 411.456,-498.463 406.692,-493.049"/>
<polygon fill="#000000" stroke="#000000" points="293.85,-441.112 304.654,-442.99 297.991,-443.914 302.132,-446.717 302.132,-446.717 302.132,-446.717 297.991,-443.914 299.61,-450.443 293.85,-441.112 293.85,-441.112"/>
<text text-anchor="start" x="349" y="-461.5" font-family="Arial" font-size="10.00" fill="black"><a fill="navy" href="../reference/Equipment/Equipment.html#dexpi-equipment-equipment-motors" target="_parent">Motors</a></text>
<text text-anchor="start" x="285.85" y="-444.112" font-family="Arial" font-size="10.00" fill="black">*</text>
<text text-anchor="start" x="389.285" y="-486.147" font-family="Arial" font-size="10.00" fill="black">0..1</text>
</g>
<!-- 53 -->
<g id="node18" class="node"><defs>
<linearGradient id="l_12" gradientUnits="userSpaceOnUse" x1="395.5" y1="-405" x2="395.5" y2="-441">
<stop offset="0" style="stop-color:#ffffbb;stop-opacity:1.;"/>
<stop offset="1" style="stop-color:#ffffee;stop-opacity:1.;"/>
</linearGradient>
</defs>
<polygon fill="url(#l_12)" stroke="black" points="439,-441 352,-441 352,-405 439,-405 439,-441"/>
<text text-anchor="start" x="362.5" y="-421.2" font-family="Arial" font-weight="bold" font-size="11.00" fill="black"><a fill="navy" href="../reference/Equipment/SprayNozzle.html" target="_parent">SprayNozzle</a></text>
</g>
<!-- 18&#45;&gt;53 -->
<g id="edge8" class="edge"><path fill="none" stroke="#000000" d="M407.357,-489.548C399.867,-485.067 393.12,-479.33 388.5,-472 384.594,-465.802 384.151,-458.272 385.269,-451.033"/>
<polygon fill="#000000" stroke="#000000" points="407.588,-489.664 414.747,-488.802 418.297,-495.08 411.137,-495.942 407.588,-489.664"/>
<polygon fill="#000000" stroke="#000000" points="387.69,-441.16 389.678,-451.944 386.499,-446.016 385.308,-450.873 385.308,-450.873 385.308,-450.873 386.499,-446.016 380.937,-449.801 387.69,-441.16 387.69,-441.16"/>
<text text-anchor="start" x="391" y="-461.5" font-family="Arial" font-size="10.00" fill="black"><a fill="navy" href="../reference/Equipment/Equipment.html#dexpi-equipment-equipment-spraynozzles" target="_parent">SprayNozzles</a></text>
<text text-anchor="start" x="379.69" y="-444.16" font-family="Arial" font-size="10.00" fill="black">*</text>
<text text-anchor="start" x="406.297" y="-485.08" font-family="Arial" font-size="10.00" fill="black">0..1</text>
</g>
<!-- 26&#45;inner&#45;node -->
<!-- 18&#45;&gt;26&#45;inner&#45;node -->
<g id="edge19" class="edge"><path fill="none" stroke="black" d="M457.5,-477.649C457.5,-454.987 457.5,-426.163 457.5,-424.116L457.5,-421.951"/>
<polygon fill="none" stroke="black" points="454,-477.822 457.5,-487.822 461,-477.822 454,-477.822"/>
</g>
<!-- 19 -->
<g id="node7" class="node"><defs>
<linearGradient id="l_13" gradientUnits="userSpaceOnUse" x1="341.5" y1="-640" x2="341.5" y2="-676">
<stop offset="0" style="stop-color:#ffffbb;stop-opacity:1.;"/>
<stop offset="1" style="stop-color:#ffffee;stop-opacity:1.;"/>
</linearGradient>
</defs>
<polygon fill="url(#l_13)" stroke="black" points="394,-676 289,-676 289,-640 394,-640 394,-676"/>
<text text-anchor="start" x="299.5" y="-656.2" font-family="Arial" font-weight="bold" font-style="italic" font-size="11.00" fill="black"><a fill="navy" href="../reference/Equipment/ChamberOwner.html" target="_parent">ChamberOwner</a></text>
</g>
<!-- 56 -->
<g id="node19" class="node"><defs>
<linearGradient id="l_14" gradientUnits="userSpaceOnUse" x1="277.5" y1="-557" x2="277.5" y2="-593">
<stop offset="0" style="stop-color:#ffffbb;stop-opacity:1.;"/>
<stop offset="1" style="stop-color:#ffffee;stop-opacity:1.;"/>
</linearGradient>
</defs>
<polygon fill="url(#l_14)" stroke="black" points="312,-593 243,-593 243,-557 312,-557 312,-593"/>
<text text-anchor="start" x="253.5" y="-573.2" font-family="Arial" font-weight="bold" font-size="11.00" fill="black"><a fill="navy" href="../reference/Equipment/Chamber.html" target="_parent">Chamber</a></text>
</g>
<!-- 19&#45;&gt;56 -->
<g id="edge9" class="edge"><path fill="none" stroke="#000000" d="M295.598,-632.09C292.972,-629.591 290.565,-626.896 288.5,-624 284.181,-617.945 281.527,-610.461 279.905,-603.22"/>
<polygon fill="#000000" stroke="#000000" points="295.859,-632.3 303.041,-632.955 305.199,-639.835 298.017,-639.181 295.859,-632.3"/>
<polygon fill="#000000" stroke="#000000" points="278.234,-593.318 284.336,-602.43 279.066,-598.248 279.898,-603.179 279.898,-603.179 279.898,-603.179 279.066,-598.248 275.461,-603.928 278.234,-593.318 278.234,-593.318"/>
<text text-anchor="start" x="291" y="-613.5" font-family="Arial" font-size="10.00" fill="black"><a fill="navy" href="../reference/Equipment/ChamberOwner.html#dexpi-equipment-chamberowner-chambers" target="_parent">Chambers</a></text>
<text text-anchor="start" x="270.234" y="-596.318" font-family="Arial" font-size="10.00" fill="black">*</text>
<text text-anchor="start" x="276.199" y="-629.835" font-family="Arial" font-size="10.00" fill="black">0..1</text>
</g>
<!-- 27&#45;inner&#45;node -->
<!-- 19&#45;&gt;27&#45;inner&#45;node -->
<g id="edge21" class="edge"><path fill="none" stroke="black" d="M341.5,-629.649C341.5,-606.987 341.5,-578.163 341.5,-576.116L341.64,-573.884"/>
<polygon fill="none" stroke="black" points="338,-629.822 341.5,-639.822 345,-629.822 338,-629.822"/>
</g>
<!-- 20 -->
<g id="node8" class="node"><defs>
<linearGradient id="l_15" gradientUnits="userSpaceOnUse" x1="457.5" y1="-640" x2="457.5" y2="-676">
<stop offset="0" style="stop-color:#ffffbb;stop-opacity:1.;"/>
<stop offset="1" style="stop-color:#ffffee;stop-opacity:1.;"/>
</linearGradient>
</defs>
<polygon fill="url(#l_15)" stroke="black" points="502.5,-676 412.5,-676 412.5,-640 502.5,-640 502.5,-676"/>
<text text-anchor="start" x="422.5" y="-656.2" font-family="Arial" font-weight="bold" font-style="italic" font-size="11.00" fill="black"><a fill="navy" href="../reference/Equipment/NozzleOwner.html" target="_parent">NozzleOwner</a></text>
</g>
<!-- 59 -->
<g id="node20" class="node"><defs>
<linearGradient id="l_16" gradientUnits="userSpaceOnUse" x1="402.5" y1="-557" x2="402.5" y2="-593">
<stop offset="0" style="stop-color:#ffffbb;stop-opacity:1.;"/>
<stop offset="1" style="stop-color:#ffffee;stop-opacity:1.;"/>
</linearGradient>
</defs>
<polygon fill="url(#l_16)" stroke="black" points="431,-593 374,-593 374,-557 431,-557 431,-593"/>
<text text-anchor="start" x="384.5" y="-573.2" font-family="Arial" font-weight="bold" font-size="11.00" fill="black"><a fill="navy" href="../reference/Equipment/Nozzle.html" target="_parent">Nozzle</a></text>
</g>
<!-- 20&#45;&gt;59 -->
<g id="edge10" class="edge"><path fill="none" stroke="#000000" d="M419.289,-631.384C417.147,-629.056 415.185,-626.592 413.5,-624 409.447,-617.763 406.878,-610.222 405.253,-602.983"/>
<polygon fill="#000000" stroke="#000000" points="419.431,-631.515 426.552,-632.651 428.242,-639.662 421.121,-638.525 419.431,-631.515"/>
<polygon fill="#000000" stroke="#000000" points="403.528,-593.118 409.683,-602.193 404.389,-598.043 405.251,-602.969 405.251,-602.969 405.251,-602.969 404.389,-598.043 400.818,-603.744 403.528,-593.118 403.528,-593.118"/>
<text text-anchor="start" x="415.5" y="-613.5" font-family="Arial" font-size="10.00" fill="black"><a fill="navy" href="../reference/Equipment/NozzleOwner.html#dexpi-equipment-nozzleowner-nozzles" target="_parent">Nozzles</a></text>
<text text-anchor="start" x="395.528" y="-596.118" font-family="Arial" font-size="10.00" fill="black">*</text>
<text text-anchor="start" x="399.242" y="-629.662" font-family="Arial" font-size="10.00" fill="black">0..1</text>
</g>
<!-- 28&#45;inner&#45;node -->
<!-- 20&#45;&gt;28&#45;inner&#45;node -->
<g id="edge23" class="edge"><path fill="none" stroke="black" d="M457.5,-629.649C457.5,-606.987 457.5,-578.163 457.5,-576.116L457.5,-573.951"/>
<polygon fill="none" stroke="black" points="454,-629.822 457.5,-639.822 461,-629.822 454,-629.822"/>
</g>
<!-- 21 -->
<g id="node9" class="node"><defs>
<linearGradient id="l_17" gradientUnits="userSpaceOnUse" x1="575.5" y1="-640" x2="575.5" y2="-676">
<stop offset="0" style="stop-color:#ffffbb;stop-opacity:1.;"/>
<stop offset="1" style="stop-color:#ffffee;stop-opacity:1.;"/>
</linearGradient>
</defs>
<polygon fill="url(#l_17)" stroke="black" points="630,-676 521,-676 521,-640 630,-640 630,-676"/>
<text text-anchor="start" x="531.5" y="-656.2" font-family="Arial" font-weight="bold" font-style="italic" font-size="11.00" fill="black"><a fill="navy" href="../reference/Equipment/TaggedPlantItem.html" target="_parent">TaggedPlantItem</a></text>
</g>
<!-- 29&#45;inner&#45;node -->
<!-- 21&#45;&gt;29&#45;inner&#45;node -->
<g id="edge25" class="edge"><path fill="none" stroke="black" d="M575.5,-629.649C575.5,-606.987 575.5,-578.163 575.5,-576.116L575.414,-573.951"/>
<polygon fill="none" stroke="black" points="572,-629.822 575.5,-639.822 579,-629.822 572,-629.822"/>
</g>
<!-- 22 -->
<g id="node10" class="node"><defs>
<linearGradient id="l_18" gradientUnits="userSpaceOnUse" x1="471.5" y1="-806" x2="471.5" y2="-842">
<stop offset="0" style="stop-color:#ffffbb;stop-opacity:1.;"/>
<stop offset="1" style="stop-color:#ffffee;stop-opacity:1.;"/>
</linearGradient>
</defs>
<polygon fill="url(#l_18)" stroke="black" points="529,-842 414,-842 414,-806 529,-806 529,-842"/>
<text text-anchor="start" x="424.5" y="-822.2" font-family="Arial" font-weight="bold" font-style="italic" font-size="11.00" fill="black"><a fill="navy" href="../reference/DexpiModel/ConceptualObject.html" target="_parent">ConceptualObject</a></text>
</g>
<!-- 30&#45;inner&#45;node -->
<!-- 22&#45;&gt;30&#45;inner&#45;node -->
<g id="edge27" class="edge"><path fill="none" stroke="black" d="M471.5,-795.649C471.5,-772.987 471.5,-744.163 471.5,-742.116L471.538,-739.879"/>
<polygon fill="none" stroke="black" points="468,-795.822 471.5,-805.822 475,-795.822 468,-795.822"/>
</g>
<!-- 23 -->
<g id="node11" class="node"><defs>
<linearGradient id="l_19" gradientUnits="userSpaceOnUse" x1="629.5" y1="-806" x2="629.5" y2="-842">
<stop offset="0" style="stop-color:#ffffbb;stop-opacity:1.;"/>
<stop offset="1" style="stop-color:#ffffee;stop-opacity:1.;"/>
</linearGradient>
</defs>
<polygon fill="url(#l_19)" stroke="black" points="701.5,-842 557.5,-842 557.5,-806 701.5,-806 701.5,-842"/>
<text text-anchor="start" x="567.5" y="-822.2" font-family="Arial" font-weight="bold" font-style="italic" font-size="11.00" fill="black"><a fill="navy" href="../reference/Customization/CustomAttributeOwner.html" target="_parent">CustomAttributeOwner</a></text>
</g>
<!-- 71 -->
<g id="node24" class="node"><defs>
<linearGradient id="l_20" gradientUnits="userSpaceOnUse" x1="544.5" y1="-723" x2="544.5" y2="-759">
<stop offset="0" style="stop-color:#ffffbb;stop-opacity:1.;"/>
<stop offset="1" style="stop-color:#ffffee;stop-opacity:1.;"/>
</linearGradient>
</defs>
<polygon fill="url(#l_20)" stroke="black" points="599,-759 490,-759 490,-723 599,-723 599,-759"/>
<text text-anchor="start" x="500.5" y="-739.2" font-family="Arial" font-weight="bold" font-style="italic" font-size="11.00" fill="black"><a fill="navy" href="../reference/Customization/CustomAttribute.html" target="_parent">CustomAttribute</a></text>
</g>
<!-- 23&#45;&gt;71 -->
<g id="edge14" class="edge"><path fill="none" stroke="#000000" d="M552.949,-798.486C550.181,-795.933 547.67,-793.113 545.5,-790 541.402,-784.119 539.944,-776.772 539.815,-769.608"/>
<polygon fill="#000000" stroke="#000000" points="552.998,-798.523 560.196,-798.959 562.563,-805.77 555.365,-805.335 552.998,-798.523"/>
<polygon fill="#000000" stroke="#000000" points="540.425,-759.435 544.319,-769.687 540.126,-764.426 539.827,-769.417 539.827,-769.417 539.827,-769.417 540.126,-764.426 535.335,-769.148 540.425,-759.435 540.425,-759.435"/>
<text text-anchor="start" x="547.5" y="-779.5" font-family="Arial" font-size="10.00" fill="black"><a fill="navy" href="../reference/Customization/CustomAttributeOwner.html#dexpi-customization-customattributeowner-customattributes" target="_parent">CustomAttributes</a></text>
<text text-anchor="start" x="532.425" y="-762.435" font-family="Arial" font-size="10.00" fill="black">*</text>
<text text-anchor="start" x="533.563" y="-795.77" font-family="Arial" font-size="10.00" fill="black">0..1</text>
</g>
<!-- 31&#45;inner&#45;node -->
<!-- 23&#45;&gt;31&#45;inner&#45;node -->
<g id="edge29" class="edge"><path fill="none" stroke="black" d="M629.5,-795.649C629.5,-772.987 629.5,-744.163 629.5,-742.116L629.461,-739.941"/>
<polygon fill="none" stroke="black" points="626,-795.822 629.5,-805.822 633,-795.822 626,-795.822"/>
</g>
<!-- 62 -->
<g id="node21" class="node"><defs>
<linearGradient id="l_21" gradientUnits="userSpaceOnUse" x1="395.5" y1="-723" x2="395.5" y2="-759">
<stop offset="0" style="stop-color:#ffffbb;stop-opacity:1.;"/>
<stop offset="1" style="stop-color:#ffffee;stop-opacity:1.;"/>
</linearGradient>
</defs>
<polygon fill="url(#l_21)" stroke="black" points="452.5,-759 338.5,-759 338.5,-723 452.5,-723 452.5,-759"/>
<text text-anchor="start" x="348.5" y="-739.2" font-family="Arial" font-weight="bold" font-size="11.00" fill="black"><a fill="navy" href="../reference/DexpiModel/ConceptualModel.html" target="_parent">ConceptualModel</a></text>
</g>
<!-- 62&#45;&gt;21 -->
<g id="edge11" class="edge"><path fill="none" stroke="#000000" d="M400.324,-711.016C402.842,-703.86 406.673,-696.862 412.5,-692 444.518,-665.287 465.123,-682.682 510.934,-675.726"/>
<polygon fill="#000000" stroke="#000000" points="400.262,-711.253 402.602,-718.074 397.205,-722.857 394.865,-716.036 400.262,-711.253"/>
<polygon fill="#000000" stroke="#000000" points="520.773,-673.92 511.751,-680.152 515.856,-674.823 510.938,-675.726 510.938,-675.726 510.938,-675.726 515.856,-674.823 510.125,-671.3 520.773,-673.92 520.773,-673.92"/>
<text text-anchor="start" x="415" y="-696.5" font-family="Arial" font-size="10.00" fill="black"><a fill="navy" href="../reference/DexpiModel/ConceptualModel.html#dexpi-dexpimodel-conceptualmodel-taggedplantitems" target="_parent">TaggedPlantItems</a></text>
<text text-anchor="start" x="512.773" y="-676.92" font-family="Arial" font-size="10.00" fill="black">*</text>
<text text-anchor="start" x="368.205" y="-712.857" font-family="Arial" font-size="10.00" fill="black">0..1</text>
</g>
<!-- 65 -->
<g id="node22" class="node"><defs>
<linearGradient id="l_22" gradientUnits="userSpaceOnUse" x1="368.5" y1="-897.5" x2="368.5" y2="-933.5">
<stop offset="0" style="stop-color:#ffffbb;stop-opacity:1.;"/>
<stop offset="1" style="stop-color:#ffffee;stop-opacity:1.;"/>
</linearGradient>
</defs>
<polygon fill="url(#l_22)" stroke="black" points="443,-933.5 294,-933.5 294,-897.5 443,-897.5 443,-933.5"/>
<text text-anchor="start" x="304.5" y="-913.7" font-family="Arial" font-weight="bold" font-size="11.00" fill="black"><a fill="navy" href="../reference/Graphics/AttributeRepresentation.html" target="_parent">AttributeRepresentation</a></text>
</g>
<!-- 65&#45;&gt;22 -->
<g id="edge12" class="edge"><path fill="none" stroke="#000000" d="M388.359,-897.243C404.176,-883.5 426.493,-864.108 444.024,-848.875"/>
<polygon fill="#000000" stroke="#000000" points="451.702,-842.204 447.105,-852.159 447.927,-845.483 444.153,-848.763 444.153,-848.763 444.153,-848.763 447.927,-845.483 441.201,-845.366 451.702,-842.204 451.702,-842.204"/>
<text text-anchor="start" x="435" y="-862.5" font-family="Arial" font-size="10.00" fill="black"><a fill="navy" href="../reference/Graphics/AttributeRepresentation.html#dexpi-graphics-attributerepresentation-object" target="_parent">Object</a></text>
<text text-anchor="start" x="443.702" y="-845.204" font-family="Arial" font-size="10.00" fill="black"></text>
<text text-anchor="start" x="372.359" y="-887.243" font-family="Arial" font-size="10.00" fill="black">*</text>
</g>
<!-- 68 -->
<g id="node23" class="node"><defs>
<linearGradient id="l_23" gradientUnits="userSpaceOnUse" x1="529.5" y1="-897.5" x2="529.5" y2="-933.5">
<stop offset="0" style="stop-color:#ffffbb;stop-opacity:1.;"/>
<stop offset="1" style="stop-color:#ffffee;stop-opacity:1.;"/>
</linearGradient>
</defs>
<polygon fill="url(#l_23)" stroke="black" points="598,-933.5 461,-933.5 461,-897.5 598,-897.5 598,-933.5"/>
<text text-anchor="start" x="471.5" y="-913.7" font-family="Arial" font-weight="bold" font-size="11.00" fill="black"><a fill="navy" href="../reference/Graphics/RepresentationGroup.html" target="_parent">RepresentationGroup</a></text>
</g>
<!-- 68&#45;&gt;22 -->
<g id="edge13" class="edge"><path fill="none" stroke="#000000" d="M518.317,-897.243C509.812,-884.119 497.968,-865.843 488.322,-850.958"/>
<polygon fill="#000000" stroke="#000000" points="482.649,-842.204 491.863,-848.148 485.368,-846.399 488.087,-850.595 488.087,-850.595 488.087,-850.595 485.368,-846.399 484.311,-853.043 482.649,-842.204 482.649,-842.204"/>
<text text-anchor="start" x="504.5" y="-862.5" font-family="Arial" font-size="10.00" fill="black"><a fill="navy" href="../reference/Graphics/RepresentationGroup.html#dexpi-graphics-representationgroup-represents" target="_parent">Represents</a></text>
<text text-anchor="start" x="474.649" y="-845.204" font-family="Arial" font-size="10.00" fill="black"></text>
<text text-anchor="start" x="502.317" y="-887.243" font-family="Arial" font-size="10.00" fill="black">*</text>
</g>
<!-- 24&#45;inner&#45;node&#45;&gt;0 -->
<g id="edge16" class="edge"><path fill="none" stroke="black" d="M339.551,-269.915C340.486,-268.344 354.225,-245.283 369.281,-220.01"/>
</g>
<!-- 25&#45;inner&#45;node&#45;&gt;0 -->
<g id="edge18" class="edge"><path fill="none" stroke="black" d="M457.465,-269.915C456.824,-268.344 447.403,-245.283 437.078,-220.01"/>
</g>
<!-- 26&#45;inner&#45;node&#45;&gt;17 -->
<g id="edge20" class="edge"><path fill="none" stroke="black" d="M457.5,-421.951C457.5,-420.604 457.5,-391.522 457.5,-372.135"/>
</g>
<!-- 27&#45;inner&#45;node&#45;&gt;18 -->
<g id="edge22" class="edge"><path fill="none" stroke="black" d="M341.64,-573.884C343.027,-572.739 354.434,-563.38 364.5,-557 383.235,-545.126 405.036,-533.306 422.819,-524.142"/>
</g>
<!-- 28&#45;inner&#45;node&#45;&gt;18 -->
<g id="edge24" class="edge"><path fill="none" stroke="black" d="M457.5,-573.951C457.5,-572.604 457.5,-543.522 457.5,-524.135"/>
</g>
<!-- 29&#45;inner&#45;node&#45;&gt;18 -->
<g id="edge26" class="edge"><path fill="none" stroke="black" d="M575.414,-573.951C573.042,-572.604 521.822,-543.522 487.677,-524.135"/>
</g>
<!-- 30&#45;inner&#45;node&#45;&gt;21 -->
<g id="edge28" class="edge"><path fill="none" stroke="black" d="M471.538,-739.879C471.92,-738.686 475.141,-728.959 480.5,-723 497.92,-703.629 522.388,-687.325 542.129,-676.02"/>
</g>
<!-- 31&#45;inner&#45;node&#45;&gt;21 -->
<g id="edge30" class="edge"><path fill="none" stroke="black" d="M629.461,-739.941C628.318,-738.226 602.391,-699.337 586.898,-676.098"/>
</g>
<!-- 32&#45;inner&#45;node&#45;&gt;21 -->
<g id="edge32" class="edge"><path fill="none" stroke="black" d="M766.362,-739.941C762.318,-738.226 670.615,-699.337 615.817,-676.098"/>
</g>
</g>
</svg>