<!DOCTYPE svg PUBLIC "-//W3C//DTD SVG 1.1//EN" "http://www.w3.org/Graphics/SVG/1.1/DTD/svg11.dtd">
<!-- Generated by graphviz version 2.38.0 (20140413.2041)
 --><!-- Title: G Pages: 1 --><svg xmlns="http://www.w3.org/2000/svg" xmlns:xlink="http://www.w3.org/1999/xlink" width="867pt" height="848pt" viewBox="0.00 0.00 866.50 848.00">
<g id="graph0" class="graph" transform="scale(1 1) rotate(0) translate(4 844)">
<!-- 0 -->
<g id="node1" class="node"><defs>
<linearGradient id="l_0" gradientUnits="userSpaceOnUse" x1="398.5" y1="-8.52651e-014" x2="398.5" y2="-167">
<stop offset="0" style="stop-color:#ffffbb;stop-opacity:1.;"/>
<stop offset="1" style="stop-color:#ffffee;stop-opacity:1.;"/>
</linearGradient>
</defs>
<polygon fill="url(#l_0)" stroke="black" points="555,-167 242,-167 242,-0 555,-0 555,-167"/>
<text text-anchor="start" x="306.5" y="-152.7" font-family="Arial" font-weight="bold" font-size="11.00" fill="black">CustomStationaryTransportSystem</text>
<text text-anchor="start" x="252.5" y="-128.5" font-family="Arial" font-size="10.00" fill="black"><a fill="navy" href="../reference/Equipment/CustomStationaryTransportSystem.html#dexpi-equipment-customstationarytransportsystem-conveyingdistance" target="_parent">ConveyingDistance</a>&#160;:</text>
<text text-anchor="start" x="395.5" y="-128.5" font-family="Arial" font-size="10.00" fill="black"><a fill="navy" href="../reference/PhysicalQuantities/NullableLength.html" target="_parent">NullableLength</a>&#160;[0..1]</text>
<text text-anchor="start" x="252.5" y="-113.5" font-family="Arial" font-size="10.00" fill="black"><a fill="navy" href="../reference/Equipment/CustomStationaryTransportSystem.html#dexpi-equipment-customstationarytransportsystem-conveyortype" target="_parent">ConveyorType</a>&#160;:</text>
<text text-anchor="start" x="395.5" y="-113.5" font-family="Arial" font-size="10.00" fill="black"><a fill="navy" href="../reference/DataTypes/NullableString.html" target="_parent">NullableString</a>&#160;[0..1]</text>
<text text-anchor="start" x="252.5" y="-98.5" font-family="Arial" font-size="10.00" fill="black"><a fill="navy" href="../reference/Equipment/CustomStationaryTransportSystem.html#dexpi-equipment-customstationarytransportsystem-designcapacitymassflowrate" target="_parent">DesignCapacityMassFlowRate</a>&#160;:</text>
<text text-anchor="start" x="395.5" y="-98.5" font-family="Arial" font-size="10.00" fill="black"><a fill="navy" href="../reference/PhysicalQuantities/NullableMassFlowRate.html" target="_parent">NullableMassFlowRate</a>&#160;[0..1]</text>
<text text-anchor="start" x="252.5" y="-83.5" font-family="Arial" font-size="10.00" fill="black"><a fill="navy" href="../reference/Equipment/CustomStationaryTransportSystem.html#dexpi-equipment-customstationarytransportsystem-designrotationalspeed" target="_parent">DesignRotationalSpeed</a>&#160;:</text>
<text text-anchor="start" x="395.5" y="-83.5" font-family="Arial" font-size="10.00" fill="black"><a fill="navy" href="../reference/PhysicalQuantities/NullableRotationalFrequency.html" target="_parent">NullableRotationalFrequency</a>&#160;[0..1]</text>
<text text-anchor="start" x="252.5" y="-68.5" font-family="Arial" font-size="10.00" fill="black"><a fill="navy" href="../reference/Equipment/CustomStationaryTransportSystem.html#dexpi-equipment-customstationarytransportsystem-dischargehead" target="_parent">DischargeHead</a>&#160;:</text>
<text text-anchor="start" x="395.5" y="-68.5" font-family="Arial" font-size="10.00" fill="black"><a fill="navy" href="../reference/PhysicalQuantities/NullableLength.html" target="_parent">NullableLength</a>&#160;[0..1]</text>
<text text-anchor="start" x="252.5" y="-53.5" font-family="Arial" font-size="10.00" fill="black"><a fill="navy" href="../reference/Equipment/CustomStationaryTransportSystem.html#dexpi-equipment-customstationarytransportsystem-upperlimitconveyingdistance" target="_parent">UpperLimitConveyingDistance</a>&#160;:</text>
<text text-anchor="start" x="395.5" y="-53.5" font-family="Arial" font-size="10.00" fill="black"><a fill="navy" href="../reference/PhysicalQuantities/NullableLength.html" target="_parent">NullableLength</a>&#160;[0..1]</text>
<text text-anchor="start" x="252.5" y="-38.5" font-family="Arial" font-size="10.00" fill="black"><a fill="navy" href="../reference/Equipment/CustomStationaryTransportSystem.html#dexpi-equipment-customstationarytransportsystem-upperlimitdischargehead" target="_parent">UpperLimitDischargeHead</a>&#160;:</text>
<text text-anchor="start" x="395.5" y="-38.5" font-family="Arial" font-size="10.00" fill="black"><a fill="navy" href="../reference/PhysicalQuantities/NullableLength.html" target="_parent">NullableLength</a>&#160;[0..1]</text>
<text text-anchor="start" x="252.5" y="-23.5" font-family="Arial" font-size="10.00" fill="black"><a fill="navy" href="../reference/Equipment/CustomStationaryTransportSystem.html#dexpi-equipment-customstationarytransportsystem-upperlimitloadcapacity" target="_parent">UpperLimitLoadCapacity</a>&#160;:</text>
<text text-anchor="start" x="395.5" y="-23.5" font-family="Arial" font-size="10.00" fill="black"><a fill="navy" href="../reference/PhysicalQuantities/NullableMass.html" target="_parent">NullableMass</a>&#160;[0..1]</text>
<text text-anchor="start" x="252.5" y="-8.5" font-family="Arial" font-size="10.00" fill="black"><a fill="navy" href="../reference/Equipment/CustomStationaryTransportSystem.html#dexpi-equipment-customstationarytransportsystem-upperlimitvolumecapacity" target="_parent">UpperLimitVolumeCapacity</a>&#160;:</text>
<text text-anchor="start" x="395.5" y="-8.5" font-family="Arial" font-size="10.00" fill="black"><a fill="navy" href="../reference/PhysicalQuantities/NullableVolume.html" target="_parent">NullableVolume</a>&#160;[0..1]</text>
<polygon fill="black" stroke="black" points="555.0,-146.5 242.0,-146.5 242.0,-146.5 555.0,-146.5 555.0,-146.5"/>
</g>
<!-- 17 -->
<g id="node2" class="node"><defs>
<linearGradient id="l_1" gradientUnits="userSpaceOnUse" x1="766.5" y1="-787" x2="766.5" y2="-840">
<stop offset="0" style="stop-color:#fbfbfb;stop-opacity:1.;"/>
<stop offset="1" style="stop-color:#fefefe;stop-opacity:1.;"/>
</linearGradient>
</defs>
<polygon fill="url(#l_1)" stroke="black" points="858.5,-829.0 847.5,-840.0 674.5,-840.0 674.5,-787.0 858.5,-787.0"/><path d="M858.5,-829.0L847.5,-829.0 847.5,-840.0" fill="none" stroke="black"/>
<text text-anchor="start" x="684.5" y="-825.5" font-family="Arial" font-size="10.00" fill="black">For&#160;the&#160;sake&#160;of&#160;clarity,&#160;superclasses&#160;</text>
<text text-anchor="start" x="684.5" y="-810.5" font-family="Arial" font-size="10.00" fill="black">and&#160;associations&#160;of&#160;<a fill="navy" href="../reference/PlantStructure/TechnicalItem.html" target="_parent">TechnicalItem</a>&#160;are</text>
<text text-anchor="start" x="684.5" y="-795.5" font-family="Arial" font-size="10.00" fill="black">not&#160;shown&#160;in&#160;this&#160;diagram.</text>
</g>
<!-- 16 -->
<g id="node3" class="node"><defs>
<linearGradient id="l_2" gradientUnits="userSpaceOnUse" x1="766.5" y1="-704" x2="766.5" y2="-740">
<stop offset="0" style="stop-color:#ffffbb;stop-opacity:1.;"/>
<stop offset="1" style="stop-color:#ffffee;stop-opacity:1.;"/>
</linearGradient>
</defs>
<polygon fill="url(#l_2)" stroke="black" points="813,-740 720,-740 720,-704 813,-704 813,-740"/>
<text text-anchor="start" x="730.5" y="-720.2" font-family="Arial" font-weight="bold" font-style="italic" font-size="11.00" fill="black"><a fill="navy" href="../reference/PlantStructure/TechnicalItem.html" target="_parent">TechnicalItem</a></text>
</g>
<!-- 17&#45;&gt;16 -->
<g id="edge1" class="edge"><path fill="none" stroke="#000000" stroke-dasharray="5,2" d="M766.5,-786.613C766.5,-771.641 766.5,-753.222 766.5,-740.063"/>
</g>
<!-- 35&#45;inner&#45;node -->
<!-- 16&#45;&gt;35&#45;inner&#45;node -->
<g id="edge28" class="edge"><path fill="none" stroke="black" d="M766.5,-693.649C766.5,-670.987 766.5,-642.163 766.5,-640.116L766.362,-637.941"/>
<polygon fill="none" stroke="black" points="763,-693.822 766.5,-703.822 770,-693.822 763,-693.822"/>
</g>
<!-- 19 -->
<g id="node4" class="node"><defs>
<linearGradient id="l_3" gradientUnits="userSpaceOnUse" x1="308.5" y1="-234" x2="308.5" y2="-270">
<stop offset="0" style="stop-color:#ffffbb;stop-opacity:1.;"/>
<stop offset="1" style="stop-color:#ffffee;stop-opacity:1.;"/>
</linearGradient>
</defs>
<polygon fill="url(#l_3)" stroke="black" points="357,-270 260,-270 260,-234 357,-234 357,-270"/>
<text text-anchor="start" x="270.5" y="-250.2" font-family="Arial" font-weight="bold" font-style="italic" font-size="11.00" fill="black"><a fill="navy" href="../reference/Customization/CustomObject.html" target="_parent">CustomObject</a></text>
</g>
<!-- 27&#45;inner&#45;node -->
<!-- 19&#45;&gt;27&#45;inner&#45;node -->
<g id="edge12" class="edge"><path fill="none" stroke="black" d="M308.5,-223.603C308.5,-212.422 308.5,-201.887 308.5,-201.053L308.565,-199.916"/>
<polygon fill="none" stroke="black" points="305,-223.793 308.5,-233.793 312,-223.793 305,-223.793"/>
</g>
<!-- 20 -->
<g id="node5" class="node"><defs>
<linearGradient id="l_4" gradientUnits="userSpaceOnUse" x1="457.5" y1="-234" x2="457.5" y2="-270">
<stop offset="0" style="stop-color:#ffffbb;stop-opacity:1.;"/>
<stop offset="1" style="stop-color:#ffffee;stop-opacity:1.;"/>
</linearGradient>
</defs>
<polygon fill="url(#l_4)" stroke="black" points="540,-270 375,-270 375,-234 540,-234 540,-270"/>
<text text-anchor="start" x="385.5" y="-250.2" font-family="Arial" font-weight="bold" font-size="11.00" fill="black"><a fill="navy" href="../reference/Equipment/StationaryTransportSystem.html" target="_parent">StationaryTransportSystem</a></text>
</g>
<!-- 28&#45;inner&#45;node -->
<!-- 20&#45;&gt;28&#45;inner&#45;node -->
<g id="edge14" class="edge"><path fill="none" stroke="black" d="M457.5,-223.603C457.5,-212.422 457.5,-201.887 457.5,-201.053L457.457,-199.916"/>
<polygon fill="none" stroke="black" points="454,-223.793 457.5,-233.793 461,-223.793 454,-223.793"/>
</g>
<!-- 21 -->
<g id="node6" class="node"><defs>
<linearGradient id="l_5" gradientUnits="userSpaceOnUse" x1="457.5" y1="-386" x2="457.5" y2="-422">
<stop offset="0" style="stop-color:#ffffbb;stop-opacity:1.;"/>
<stop offset="1" style="stop-color:#ffffee;stop-opacity:1.;"/>
</linearGradient>
</defs>
<polygon fill="url(#l_5)" stroke="black" points="496.5,-422 418.5,-422 418.5,-386 496.5,-386 496.5,-422"/>
<text text-anchor="start" x="428.5" y="-402.2" font-family="Arial" font-weight="bold" font-style="italic" font-size="11.00" fill="black"><a fill="navy" href="../reference/Equipment/Equipment.html" target="_parent">Equipment</a></text>
</g>
<!-- 38 -->
<g id="node12" class="node"><defs>
<linearGradient id="l_6" gradientUnits="userSpaceOnUse" x1="51.5" y1="-303" x2="51.5" y2="-339">
<stop offset="0" style="stop-color:#ffffbb;stop-opacity:1.;"/>
<stop offset="1" style="stop-color:#ffffee;stop-opacity:1.;"/>
</linearGradient>
</defs>
<polygon fill="url(#l_6)" stroke="black" points="103,-339 0,-339 0,-303 103,-303 103,-339"/>
<text text-anchor="start" x="10.5" y="-319.2" font-family="Arial" font-weight="bold" font-size="11.00" fill="black"><a fill="navy" href="../reference/Equipment/DryingChamber.html" target="_parent">DryingChamber</a></text>
</g>
<!-- 21&#45;&gt;38 -->
<g id="edge2" class="edge"><path fill="none" stroke="#000000" d="M406.027,-403.446C342.858,-402.672 233.105,-397.013 143.5,-370 123.707,-364.033 103.174,-353.771 86.54,-344.264"/>
<polygon fill="#000000" stroke="#000000" points="406.398,-403.449 412.429,-399.495 418.398,-403.542 412.367,-407.495 406.398,-403.449"/>
<polygon fill="#000000" stroke="#000000" points="77.7299,-339.091 88.6319,-340.274 82.0418,-341.623 86.3536,-344.154 86.3536,-344.154 86.3536,-344.154 82.0418,-341.623 84.0753,-348.035 77.7299,-339.091 77.7299,-339.091"/>
<text text-anchor="start" x="146" y="-359.5" font-family="Arial" font-size="10.00" fill="black"><a fill="navy" href="../reference/Equipment/Equipment.html#dexpi-equipment-equipment-dryingchambers" target="_parent">DryingChambers</a></text>
<text text-anchor="start" x="69.7299" y="-342.091" font-family="Arial" font-size="10.00" fill="black">*</text>
<text text-anchor="start" x="389.398" y="-404.542" font-family="Arial" font-size="10.00" fill="black">0..1</text>
</g>
<!-- 41 -->
<g id="node13" class="node"><defs>
<linearGradient id="l_7" gradientUnits="userSpaceOnUse" x1="155.5" y1="-303" x2="155.5" y2="-339">
<stop offset="0" style="stop-color:#ffffbb;stop-opacity:1.;"/>
<stop offset="1" style="stop-color:#ffffee;stop-opacity:1.;"/>
</linearGradient>
</defs>
<polygon fill="url(#l_7)" stroke="black" points="189.5,-339 121.5,-339 121.5,-303 189.5,-303 189.5,-339"/>
<text text-anchor="start" x="131.5" y="-319.2" font-family="Arial" font-weight="bold" font-size="11.00" fill="black"><a fill="navy" href="../reference/Equipment/GearBox.html" target="_parent">GearBox</a></text>
</g>
<!-- 21&#45;&gt;41 -->
<g id="edge3" class="edge"><path fill="none" stroke="#000000" d="M406.201,-397.816C366.621,-392.972 310.82,-384.294 263.5,-370 241.05,-363.218 217.118,-352.924 197.503,-343.606"/>
<polygon fill="#000000" stroke="#000000" points="406.275,-397.824 412.702,-394.553 418.193,-399.227 411.767,-402.498 406.275,-397.824"/>
<polygon fill="#000000" stroke="#000000" points="188.246,-339.129 199.207,-339.432 192.747,-341.306 197.248,-343.483 197.248,-343.483 197.248,-343.483 192.747,-341.306 195.289,-347.534 188.246,-339.129 188.246,-339.129"/>
<text text-anchor="start" x="266" y="-359.5" font-family="Arial" font-size="10.00" fill="black"><a fill="navy" href="../reference/Equipment/Equipment.html#dexpi-equipment-equipment-gearboxes" target="_parent">GearBoxes</a></text>
<text text-anchor="start" x="180.246" y="-342.129" font-family="Arial" font-size="10.00" fill="black">*</text>
<text text-anchor="start" x="389.193" y="-389.227" font-family="Arial" font-size="10.00" fill="black">0..1</text>
</g>
<!-- 44 -->
<g id="node14" class="node"><defs>
<linearGradient id="l_8" gradientUnits="userSpaceOnUse" x1="270.5" y1="-303" x2="270.5" y2="-339">
<stop offset="0" style="stop-color:#ffffbb;stop-opacity:1.;"/>
<stop offset="1" style="stop-color:#ffffee;stop-opacity:1.;"/>
</linearGradient>
</defs>
<polygon fill="url(#l_8)" stroke="black" points="333.5,-339 207.5,-339 207.5,-303 333.5,-303 333.5,-339"/>
<text text-anchor="start" x="217.5" y="-319.2" font-family="Arial" font-weight="bold" font-size="11.00" fill="black"><a fill="navy" href="../reference/Equipment/MotorAsComponent.html" target="_parent">MotorAsComponent</a></text>
</g>
<!-- 21&#45;&gt;44 -->
<g id="edge4" class="edge"><path fill="none" stroke="#000000" d="M406.67,-391.044C387.398,-385.7 365.526,-378.637 346.5,-370 331.23,-363.068 315.388,-353.498 302.145,-344.726"/>
<polygon fill="#000000" stroke="#000000" points="406.692,-391.049 413.521,-388.734 418.285,-394.147 411.456,-396.463 406.692,-391.049"/>
<polygon fill="#000000" stroke="#000000" points="293.85,-339.112 304.654,-340.99 297.991,-341.914 302.132,-344.717 302.132,-344.717 302.132,-344.717 297.991,-341.914 299.61,-348.443 293.85,-339.112 293.85,-339.112"/>
<text text-anchor="start" x="349" y="-359.5" font-family="Arial" font-size="10.00" fill="black"><a fill="navy" href="../reference/Equipment/Equipment.html#dexpi-equipment-equipment-motors" target="_parent">Motors</a></text>
<text text-anchor="start" x="285.85" y="-342.112" font-family="Arial" font-size="10.00" fill="black">*</text>
<text text-anchor="start" x="389.285" y="-384.147" font-family="Arial" font-size="10.00" fill="black">0..1</text>
</g>
<!-- 47 -->
<g id="node15" class="node"><defs>
<linearGradient id="l_9" gradientUnits="userSpaceOnUse" x1="395.5" y1="-303" x2="395.5" y2="-339">
<stop offset="0" style="stop-color:#ffffbb;stop-opacity:1.;"/>
<stop offset="1" style="stop-color:#ffffee;stop-opacity:1.;"/>
</linearGradient>
</defs>
<polygon fill="url(#l_9)" stroke="black" points="439,-339 352,-339 352,-303 439,-303 439,-339"/>
<text text-anchor="start" x="362.5" y="-319.2" font-family="Arial" font-weight="bold" font-size="11.00" fill="black"><a fill="navy" href="../reference/Equipment/SprayNozzle.html" target="_parent">SprayNozzle</a></text>
</g>
<!-- 21&#45;&gt;47 -->
<g id="edge5" class="edge"><path fill="none" stroke="#000000" d="M407.357,-387.548C399.867,-383.067 393.12,-377.33 388.5,-370 384.594,-363.802 384.151,-356.272 385.269,-349.033"/>
<polygon fill="#000000" stroke="#000000" points="407.588,-387.664 414.747,-386.802 418.297,-393.08 411.137,-393.942 407.588,-387.664"/>
<polygon fill="#000000" stroke="#000000" points="387.69,-339.16 389.678,-349.944 386.499,-344.016 385.308,-348.873 385.308,-348.873 385.308,-348.873 386.499,-344.016 380.937,-347.801 387.69,-339.16 387.69,-339.16"/>
<text text-anchor="start" x="391" y="-359.5" font-family="Arial" font-size="10.00" fill="black"><a fill="navy" href="../reference/Equipment/Equipment.html#dexpi-equipment-equipment-spraynozzles" target="_parent">SprayNozzles</a></text>
<text text-anchor="start" x="379.69" y="-342.16" font-family="Arial" font-size="10.00" fill="black">*</text>
<text text-anchor="start" x="406.297" y="-383.08" font-family="Arial" font-size="10.00" fill="black">0..1</text>
</g>
<!-- 29&#45;inner&#45;node -->
<!-- 21&#45;&gt;29&#45;inner&#45;node -->
<g id="edge16" class="edge"><path fill="none" stroke="black" d="M457.5,-375.649C457.5,-352.987 457.5,-324.163 457.5,-322.116L457.5,-319.951"/>
<polygon fill="none" stroke="black" points="454,-375.822 457.5,-385.822 461,-375.822 454,-375.822"/>
</g>
<!-- 22 -->
<g id="node7" class="node"><defs>
<linearGradient id="l_10" gradientUnits="userSpaceOnUse" x1="341.5" y1="-538" x2="341.5" y2="-574">
<stop offset="0" style="stop-color:#ffffbb;stop-opacity:1.;"/>
<stop offset="1" style="stop-color:#ffffee;stop-opacity:1.;"/>
</linearGradient>
</defs>
<polygon fill="url(#l_10)" stroke="black" points="394,-574 289,-574 289,-538 394,-538 394,-574"/>
<text text-anchor="start" x="299.5" y="-554.2" font-family="Arial" font-weight="bold" font-style="italic" font-size="11.00" fill="black"><a fill="navy" href="../reference/Equipment/ChamberOwner.html" target="_parent">ChamberOwner</a></text>
</g>
<!-- 50 -->
<g id="node16" class="node"><defs>
<linearGradient id="l_11" gradientUnits="userSpaceOnUse" x1="277.5" y1="-455" x2="277.5" y2="-491">
<stop offset="0" style="stop-color:#ffffbb;stop-opacity:1.;"/>
<stop offset="1" style="stop-color:#ffffee;stop-opacity:1.;"/>
</linearGradient>
</defs>
<polygon fill="url(#l_11)" stroke="black" points="312,-491 243,-491 243,-455 312,-455 312,-491"/>
<text text-anchor="start" x="253.5" y="-471.2" font-family="Arial" font-weight="bold" font-size="11.00" fill="black"><a fill="navy" href="../reference/Equipment/Chamber.html" target="_parent">Chamber</a></text>
</g>
<!-- 22&#45;&gt;50 -->
<g id="edge6" class="edge"><path fill="none" stroke="#000000" d="M295.598,-530.09C292.972,-527.591 290.565,-524.896 288.5,-522 284.181,-515.945 281.527,-508.461 279.905,-501.22"/>
<polygon fill="#000000" stroke="#000000" points="295.859,-530.3 303.041,-530.955 305.199,-537.835 298.017,-537.181 295.859,-530.3"/>
<polygon fill="#000000" stroke="#000000" points="278.234,-491.318 284.336,-500.43 279.066,-496.248 279.898,-501.179 279.898,-501.179 279.898,-501.179 279.066,-496.248 275.461,-501.928 278.234,-491.318 278.234,-491.318"/>
<text text-anchor="start" x="291" y="-511.5" font-family="Arial" font-size="10.00" fill="black"><a fill="navy" href="../reference/Equipment/ChamberOwner.html#dexpi-equipment-chamberowner-chambers" target="_parent">Chambers</a></text>
<text text-anchor="start" x="270.234" y="-494.318" font-family="Arial" font-size="10.00" fill="black">*</text>
<text text-anchor="start" x="276.199" y="-527.835" font-family="Arial" font-size="10.00" fill="black">0..1</text>
</g>
<!-- 30&#45;inner&#45;node -->
<!-- 22&#45;&gt;30&#45;inner&#45;node -->
<g id="edge18" class="edge"><path fill="none" stroke="black" d="M341.5,-527.649C341.5,-504.987 341.5,-476.163 341.5,-474.116L341.64,-471.884"/>
<polygon fill="none" stroke="black" points="338,-527.822 341.5,-537.822 345,-527.822 338,-527.822"/>
</g>
<!-- 23 -->
<g id="node8" class="node"><defs>
<linearGradient id="l_12" gradientUnits="userSpaceOnUse" x1="457.5" y1="-538" x2="457.5" y2="-574">
<stop offset="0" style="stop-color:#ffffbb;stop-opacity:1.;"/>
<stop offset="1" style="stop-color:#ffffee;stop-opacity:1.;"/>
</linearGradient>
</defs>
<polygon fill="url(#l_12)" stroke="black" points="502.5,-574 412.5,-574 412.5,-538 502.5,-538 502.5,-574"/>
<text text-anchor="start" x="422.5" y="-554.2" font-family="Arial" font-weight="bold" font-style="italic" font-size="11.00" fill="black"><a fill="navy" href="../reference/Equipment/NozzleOwner.html" target="_parent">NozzleOwner</a></text>
</g>
<!-- 53 -->
<g id="node17" class="node"><defs>
<linearGradient id="l_13" gradientUnits="userSpaceOnUse" x1="402.5" y1="-455" x2="402.5" y2="-491">
<stop offset="0" style="stop-color:#ffffbb;stop-opacity:1.;"/>
<stop offset="1" style="stop-color:#ffffee;stop-opacity:1.;"/>
</linearGradient>
</defs>
<polygon fill="url(#l_13)" stroke="black" points="431,-491 374,-491 374,-455 431,-455 431,-491"/>
<text text-anchor="start" x="384.5" y="-471.2" font-family="Arial" font-weight="bold" font-size="11.00" fill="black"><a fill="navy" href="../reference/Equipment/Nozzle.html" target="_parent">Nozzle</a></text>
</g>
<!-- 23&#45;&gt;53 -->
<g id="edge7" class="edge"><path fill="none" stroke="#000000" d="M419.289,-529.384C417.147,-527.056 415.185,-524.592 413.5,-522 409.447,-515.763 406.878,-508.222 405.253,-500.983"/>
<polygon fill="#000000" stroke="#000000" points="419.431,-529.515 426.552,-530.651 428.242,-537.662 421.121,-536.525 419.431,-529.515"/>
<polygon fill="#000000" stroke="#000000" points="403.528,-491.118 409.683,-500.193 404.389,-496.043 405.251,-500.969 405.251,-500.969 405.251,-500.969 404.389,-496.043 400.818,-501.744 403.528,-491.118 403.528,-491.118"/>
<text text-anchor="start" x="415.5" y="-511.5" font-family="Arial" font-size="10.00" fill="black"><a fill="navy" href="../reference/Equipment/NozzleOwner.html#dexpi-equipment-nozzleowner-nozzles" target="_parent">Nozzles</a></text>
<text text-anchor="start" x="395.528" y="-494.118" font-family="Arial" font-size="10.00" fill="black">*</text>
<text text-anchor="start" x="399.242" y="-527.662" font-family="Arial" font-size="10.00" fill="black">0..1</text>
</g>
<!-- 31&#45;inner&#45;node -->
<!-- 23&#45;&gt;31&#45;inner&#45;node -->
<g id="edge20" class="edge"><path fill="none" stroke="black" d="M457.5,-527.649C457.5,-504.987 457.5,-476.163 457.5,-474.116L457.5,-471.951"/>
<polygon fill="none" stroke="black" points="454,-527.822 457.5,-537.822 461,-527.822 454,-527.822"/>
</g>
<!-- 24 -->
<g id="node9" class="node"><defs>
<linearGradient id="l_14" gradientUnits="userSpaceOnUse" x1="575.5" y1="-538" x2="575.5" y2="-574">
<stop offset="0" style="stop-color:#ffffbb;stop-opacity:1.;"/>
<stop offset="1" style="stop-color:#ffffee;stop-opacity:1.;"/>
</linearGradient>
</defs>
<polygon fill="url(#l_14)" stroke="black" points="630,-574 521,-574 521,-538 630,-538 630,-574"/>
<text text-anchor="start" x="531.5" y="-554.2" font-family="Arial" font-weight="bold" font-style="italic" font-size="11.00" fill="black"><a fill="navy" href="../reference/Equipment/TaggedPlantItem.html" target="_parent">TaggedPlantItem</a></text>
</g>
<!-- 32&#45;inner&#45;node -->
<!-- 24&#45;&gt;32&#45;inner&#45;node -->
<g id="edge22" class="edge"><path fill="none" stroke="black" d="M575.5,-527.649C575.5,-504.987 575.5,-476.163 575.5,-474.116L575.414,-471.951"/>
<polygon fill="none" stroke="black" points="572,-527.822 575.5,-537.822 579,-527.822 572,-527.822"/>
</g>
<!-- 25 -->
<g id="node10" class="node"><defs>
<linearGradient id="l_15" gradientUnits="userSpaceOnUse" x1="471.5" y1="-704" x2="471.5" y2="-740">
<stop offset="0" style="stop-color:#ffffbb;stop-opacity:1.;"/>
<stop offset="1" style="stop-color:#ffffee;stop-opacity:1.;"/>
</linearGradient>
</defs>
<polygon fill="url(#l_15)" stroke="black" points="529,-740 414,-740 414,-704 529,-704 529,-740"/>
<text text-anchor="start" x="424.5" y="-720.2" font-family="Arial" font-weight="bold" font-style="italic" font-size="11.00" fill="black"><a fill="navy" href="../reference/DexpiModel/ConceptualObject.html" target="_parent">ConceptualObject</a></text>
</g>
<!-- 33&#45;inner&#45;node -->
<!-- 25&#45;&gt;33&#45;inner&#45;node -->
<g id="edge24" class="edge"><path fill="none" stroke="black" d="M471.5,-693.649C471.5,-670.987 471.5,-642.163 471.5,-640.116L471.538,-637.879"/>
<polygon fill="none" stroke="black" points="468,-693.822 471.5,-703.822 475,-693.822 468,-693.822"/>
</g>
<!-- 26 -->
<g id="node11" class="node"><defs>
<linearGradient id="l_16" gradientUnits="userSpaceOnUse" x1="629.5" y1="-704" x2="629.5" y2="-740">
<stop offset="0" style="stop-color:#ffffbb;stop-opacity:1.;"/>
<stop offset="1" style="stop-color:#ffffee;stop-opacity:1.;"/>
</linearGradient>
</defs>
<polygon fill="url(#l_16)" stroke="black" points="701.5,-740 557.5,-740 557.5,-704 701.5,-704 701.5,-740"/>
<text text-anchor="start" x="567.5" y="-720.2" font-family="Arial" font-weight="bold" font-style="italic" font-size="11.00" fill="black"><a fill="navy" href="../reference/Customization/CustomAttributeOwner.html" target="_parent">CustomAttributeOwner</a></text>
</g>
<!-- 65 -->
<g id="node21" class="node"><defs>
<linearGradient id="l_17" gradientUnits="userSpaceOnUse" x1="544.5" y1="-621" x2="544.5" y2="-657">
<stop offset="0" style="stop-color:#ffffbb;stop-opacity:1.;"/>
<stop offset="1" style="stop-color:#ffffee;stop-opacity:1.;"/>
</linearGradient>
</defs>
<polygon fill="url(#l_17)" stroke="black" points="599,-657 490,-657 490,-621 599,-621 599,-657"/>
<text text-anchor="start" x="500.5" y="-637.2" font-family="Arial" font-weight="bold" font-style="italic" font-size="11.00" fill="black"><a fill="navy" href="../reference/Customization/CustomAttribute.html" target="_parent">CustomAttribute</a></text>
</g>
<!-- 26&#45;&gt;65 -->
<g id="edge11" class="edge"><path fill="none" stroke="#000000" d="M552.949,-696.486C550.181,-693.933 547.67,-691.113 545.5,-688 541.402,-682.119 539.944,-674.772 539.815,-667.608"/>
<polygon fill="#000000" stroke="#000000" points="552.998,-696.523 560.196,-696.959 562.563,-703.77 555.365,-703.335 552.998,-696.523"/>
<polygon fill="#000000" stroke="#000000" points="540.425,-657.435 544.319,-667.687 540.126,-662.426 539.827,-667.417 539.827,-667.417 539.827,-667.417 540.126,-662.426 535.335,-667.148 540.425,-657.435 540.425,-657.435"/>
<text text-anchor="start" x="547.5" y="-677.5" font-family="Arial" font-size="10.00" fill="black"><a fill="navy" href="../reference/Customization/CustomAttributeOwner.html#dexpi-customization-customattributeowner-customattributes" target="_parent">CustomAttributes</a></text>
<text text-anchor="start" x="532.425" y="-660.435" font-family="Arial" font-size="10.00" fill="black">*</text>
<text text-anchor="start" x="533.563" y="-693.77" font-family="Arial" font-size="10.00" fill="black">0..1</text>
</g>
<!-- 34&#45;inner&#45;node -->
<!-- 26&#45;&gt;34&#45;inner&#45;node -->
<g id="edge26" class="edge"><path fill="none" stroke="black" d="M629.5,-693.649C629.5,-670.987 629.5,-642.163 629.5,-640.116L629.461,-637.941"/>
<polygon fill="none" stroke="black" points="626,-693.822 629.5,-703.822 633,-693.822 626,-693.822"/>
</g>
<!-- 56 -->
<g id="node18" class="node"><defs>
<linearGradient id="l_18" gradientUnits="userSpaceOnUse" x1="395.5" y1="-621" x2="395.5" y2="-657">
<stop offset="0" style="stop-color:#ffffbb;stop-opacity:1.;"/>
<stop offset="1" style="stop-color:#ffffee;stop-opacity:1.;"/>
</linearGradient>
</defs>
<polygon fill="url(#l_18)" stroke="black" points="452.5,-657 338.5,-657 338.5,-621 452.5,-621 452.5,-657"/>
<text text-anchor="start" x="348.5" y="-637.2" font-family="Arial" font-weight="bold" font-size="11.00" fill="black"><a fill="navy" href="../reference/DexpiModel/ConceptualModel.html" target="_parent">ConceptualModel</a></text>
</g>
<!-- 56&#45;&gt;24 -->
<g id="edge8" class="edge"><path fill="none" stroke="#000000" d="M400.324,-609.016C402.842,-601.86 406.673,-594.862 412.5,-590 444.518,-563.287 465.123,-580.682 510.934,-573.726"/>
<polygon fill="#000000" stroke="#000000" points="400.262,-609.253 402.602,-616.074 397.205,-620.857 394.865,-614.036 400.262,-609.253"/>
<polygon fill="#000000" stroke="#000000" points="520.773,-571.92 511.751,-578.152 515.856,-572.823 510.938,-573.726 510.938,-573.726 510.938,-573.726 515.856,-572.823 510.125,-569.3 520.773,-571.92 520.773,-571.92"/>
<text text-anchor="start" x="415" y="-594.5" font-family="Arial" font-size="10.00" fill="black"><a fill="navy" href="../reference/DexpiModel/ConceptualModel.html#dexpi-dexpimodel-conceptualmodel-taggedplantitems" target="_parent">TaggedPlantItems</a></text>
<text text-anchor="start" x="512.773" y="-574.92" font-family="Arial" font-size="10.00" fill="black">*</text>
<text text-anchor="start" x="368.205" y="-610.857" font-family="Arial" font-size="10.00" fill="black">0..1</text>
</g>
<!-- 59 -->
<g id="node19" class="node"><defs>
<linearGradient id="l_19" gradientUnits="userSpaceOnUse" x1="368.5" y1="-795.5" x2="368.5" y2="-831.5">
<stop offset="0" style="stop-color:#ffffbb;stop-opacity:1.;"/>
<stop offset="1" style="stop-color:#ffffee;stop-opacity:1.;"/>
</linearGradient>
</defs>
<polygon fill="url(#l_19)" stroke="black" points="443,-831.5 294,-831.5 294,-795.5 443,-795.5 443,-831.5"/>
<text text-anchor="start" x="304.5" y="-811.7" font-family="Arial" font-weight="bold" font-size="11.00" fill="black"><a fill="navy" href="../reference/Graphics/AttributeRepresentation.html" target="_parent">AttributeRepresentation</a></text>
</g>
<!-- 59&#45;&gt;25 -->
<g id="edge9" class="edge"><path fill="none" stroke="#000000" d="M388.359,-795.243C404.176,-781.5 426.493,-762.108 444.024,-746.875"/>
<polygon fill="#000000" stroke="#000000" points="451.702,-740.204 447.105,-750.159 447.927,-743.483 444.153,-746.763 444.153,-746.763 444.153,-746.763 447.927,-743.483 441.201,-743.366 451.702,-740.204 451.702,-740.204"/>
<text text-anchor="start" x="435" y="-760.5" font-family="Arial" font-size="10.00" fill="black"><a fill="navy" href="../reference/Graphics/AttributeRepresentation.html#dexpi-graphics-attributerepresentation-object" target="_parent">Object</a></text>
<text text-anchor="start" x="443.702" y="-743.204" font-family="Arial" font-size="10.00" fill="black"></text>
<text text-anchor="start" x="372.359" y="-785.243" font-family="Arial" font-size="10.00" fill="black">*</text>
</g>
<!-- 62 -->
<g id="node20" class="node"><defs>
<linearGradient id="l_20" gradientUnits="userSpaceOnUse" x1="529.5" y1="-795.5" x2="529.5" y2="-831.5">
<stop offset="0" style="stop-color:#ffffbb;stop-opacity:1.;"/>
<stop offset="1" style="stop-color:#ffffee;stop-opacity:1.;"/>
</linearGradient>
</defs>
<polygon fill="url(#l_20)" stroke="black" points="598,-831.5 461,-831.5 461,-795.5 598,-795.5 598,-831.5"/>
<text text-anchor="start" x="471.5" y="-811.7" font-family="Arial" font-weight="bold" font-size="11.00" fill="black"><a fill="navy" href="../reference/Graphics/RepresentationGroup.html" target="_parent">RepresentationGroup</a></text>
</g>
<!-- 62&#45;&gt;25 -->
<g id="edge10" class="edge"><path fill="none" stroke="#000000" d="M518.317,-795.243C509.812,-782.119 497.968,-763.843 488.322,-748.958"/>
<polygon fill="#000000" stroke="#000000" points="482.649,-740.204 491.863,-746.148 485.368,-744.399 488.087,-748.595 488.087,-748.595 488.087,-748.595 485.368,-744.399 484.311,-751.043 482.649,-740.204 482.649,-740.204"/>
<text text-anchor="start" x="504.5" y="-760.5" font-family="Arial" font-size="10.00" fill="black"><a fill="navy" href="../reference/Graphics/RepresentationGroup.html#dexpi-graphics-representationgroup-represents" target="_parent">Represents</a></text>
<text text-anchor="start" x="474.649" y="-743.204" font-family="Arial" font-size="10.00" fill="black"></text>
<text text-anchor="start" x="502.317" y="-785.243" font-family="Arial" font-size="10.00" fill="black">*</text>
</g>
<!-- 27&#45;inner&#45;node&#45;&gt;0 -->
<g id="edge13" class="edge"><path fill="none" stroke="black" d="M308.565,-199.916C309.497,-198.721 320.298,-184.859 334.114,-167.129"/>
</g>
<!-- 28&#45;inner&#45;node&#45;&gt;0 -->
<g id="edge15" class="edge"><path fill="none" stroke="black" d="M457.457,-199.916C456.847,-198.721 449.766,-184.859 440.709,-167.129"/>
</g>
<!-- 29&#45;inner&#45;node&#45;&gt;20 -->
<g id="edge17" class="edge"><path fill="none" stroke="black" d="M457.5,-319.951C457.5,-318.604 457.5,-289.522 457.5,-270.135"/>
</g>
<!-- 30&#45;inner&#45;node&#45;&gt;21 -->
<g id="edge19" class="edge"><path fill="none" stroke="black" d="M341.64,-471.884C343.027,-470.739 354.434,-461.38 364.5,-455 383.235,-443.126 405.036,-431.306 422.819,-422.142"/>
</g>
<!-- 31&#45;inner&#45;node&#45;&gt;21 -->
<g id="edge21" class="edge"><path fill="none" stroke="black" d="M457.5,-471.951C457.5,-470.604 457.5,-441.522 457.5,-422.135"/>
</g>
<!-- 32&#45;inner&#45;node&#45;&gt;21 -->
<g id="edge23" class="edge"><path fill="none" stroke="black" d="M575.414,-471.951C573.042,-470.604 521.822,-441.522 487.677,-422.135"/>
</g>
<!-- 33&#45;inner&#45;node&#45;&gt;24 -->
<g id="edge25" class="edge"><path fill="none" stroke="black" d="M471.538,-637.879C471.92,-636.686 475.141,-626.959 480.5,-621 497.92,-601.629 522.388,-585.325 542.129,-574.02"/>
</g>
<!-- 34&#45;inner&#45;node&#45;&gt;24 -->
<g id="edge27" class="edge"><path fill="none" stroke="black" d="M629.461,-637.941C628.318,-636.226 602.391,-597.337 586.898,-574.098"/>
</g>
<!-- 35&#45;inner&#45;node&#45;&gt;24 -->
<g id="edge29" class="edge"><path fill="none" stroke="black" d="M766.362,-637.941C762.318,-636.226 670.615,-597.337 615.817,-574.098"/>
</g>
</g>
</svg>