<!DOCTYPE svg PUBLIC "-//W3C//DTD SVG 1.1//EN" "http://www.w3.org/Graphics/SVG/1.1/DTD/svg11.dtd">
<!-- Generated by graphviz version 2.38.0 (20140413.2041)
 --><!-- Title: G Pages: 1 --><svg xmlns="http://www.w3.org/2000/svg" xmlns:xlink="http://www.w3.org/1999/xlink" width="244pt" height="241pt" viewBox="0.00 0.00 244.00 241.00">
<g id="graph0" class="graph" transform="scale(1 1) rotate(0) translate(4 237)">
<!-- 0 -->
<g id="node1" class="node"><defs>
<linearGradient id="l_0" gradientUnits="userSpaceOnUse" x1="118" y1="-1.77636e-014" x2="118" y2="-47">
<stop offset="0" style="stop-color:#ffffbb;stop-opacity:1.;"/>
<stop offset="1" style="stop-color:#ffffee;stop-opacity:1.;"/>
</linearGradient>
</defs>
<polygon fill="url(#l_0)" stroke="black" points="236,-47 0,-47 0,3.55271e-015 236,3.55271e-015 236,-47"/>
<text text-anchor="start" x="32.5" y="-32.7" font-family="Arial" font-weight="bold" font-size="11.00" fill="black">CustomPressureGaugeAttribute</text>
<text text-anchor="start" x="10" y="-8.5" font-family="Arial" font-size="10.00" fill="black"><a fill="navy" href="../reference/Customization/CustomPressureGaugeAttribute.html#dexpi-customization-custompressuregaugeattribute-value" target="_parent">Value</a>&#160;:</text>
<text text-anchor="start" x="45" y="-8.5" font-family="Arial" font-size="10.00" fill="black"><a fill="navy" href="../reference/PhysicalQuantities/NullablePressureGauge.html" target="_parent">NullablePressureGauge</a>&#160;&#160;{redefines&#160;<a fill="navy" href="../reference/Customization/CustomAttribute.html#dexpi-customization-customattribute-value" target="_parent">Value</a>}</text>
<polygon fill="black" stroke="black" points="236.0,-26.5 0.0,-26.5 0.0,-26.5 236.0,-26.5 236.0,-26.5"/>
</g>
<!-- 4 -->
<g id="node2" class="node"><defs>
<linearGradient id="l_1" gradientUnits="userSpaceOnUse" x1="118" y1="-114" x2="118" y2="-150">
<stop offset="0" style="stop-color:#ffffbb;stop-opacity:1.;"/>
<stop offset="1" style="stop-color:#ffffee;stop-opacity:1.;"/>
</linearGradient>
</defs>
<polygon fill="url(#l_1)" stroke="black" points="172.5,-150 63.5,-150 63.5,-114 172.5,-114 172.5,-150"/>
<text text-anchor="start" x="74" y="-130.2" font-family="Arial" font-weight="bold" font-style="italic" font-size="11.00" fill="black"><a fill="navy" href="../reference/Customization/CustomAttribute.html" target="_parent">CustomAttribute</a></text>
</g>
<!-- 5&#45;inner&#45;node -->
<!-- 4&#45;&gt;5&#45;inner&#45;node -->
<g id="edge2" class="edge"><path fill="none" stroke="black" d="M118,-103.603C118,-92.4221 118,-81.8866 118,-81.053L118,-79.8408"/>
<polygon fill="none" stroke="black" points="114.5,-103.793 118,-113.793 121.5,-103.793 114.5,-103.793"/>
</g>
<!-- 8 -->
<g id="node3" class="node"><defs>
<linearGradient id="l_2" gradientUnits="userSpaceOnUse" x1="118" y1="-197" x2="118" y2="-233">
<stop offset="0" style="stop-color:#ffffbb;stop-opacity:1.;"/>
<stop offset="1" style="stop-color:#ffffee;stop-opacity:1.;"/>
</linearGradient>
</defs>
<polygon fill="url(#l_2)" stroke="black" points="190,-233 46,-233 46,-197 190,-197 190,-233"/>
<text text-anchor="start" x="56" y="-213.2" font-family="Arial" font-weight="bold" font-style="italic" font-size="11.00" fill="black"><a fill="navy" href="../reference/Customization/CustomAttributeOwner.html" target="_parent">CustomAttributeOwner</a></text>
</g>
<!-- 8&#45;&gt;4 -->
<g id="edge1" class="edge"><path fill="none" stroke="#000000" d="M118,-184.549C118,-176.604 118,-168.044 118,-160.226"/>
<polygon fill="#000000" stroke="#000000" points="118,-184.822 122,-190.822 118,-196.822 114,-190.822 118,-184.822"/>
<polygon fill="#000000" stroke="#000000" points="118,-150.153 122.5,-160.153 118,-155.153 118,-160.153 118,-160.153 118,-160.153 118,-155.153 113.5,-160.153 118,-150.153 118,-150.153"/>
<text text-anchor="start" x="120" y="-170.5" font-family="Arial" font-size="10.00" fill="black"><a fill="navy" href="../reference/Customization/CustomAttributeOwner.html#dexpi-customization-customattributeowner-customattributes" target="_parent">CustomAttributes</a></text>
<text text-anchor="start" x="110.0" y="-153.153" font-family="Arial" font-size="10.00" fill="black">*</text>
<text text-anchor="start" x="89.0" y="-186.822" font-family="Arial" font-size="10.00" fill="black">0..1</text>
</g>
<!-- 5&#45;inner&#45;node&#45;&gt;0 -->
<g id="edge3" class="edge"><path fill="none" stroke="black" d="M118,-79.8408C118,-78.0605 118,-61.6765 118,-47.1941"/>
</g>
</g>
</svg>