<!DOCTYPE svg PUBLIC "-//W3C//DTD SVG 1.1//EN" "http://www.w3.org/Graphics/SVG/1.1/DTD/svg11.dtd">
<!-- Generated by graphviz version 2.38.0 (20140413.2041)
 --><!-- Title: G Pages: 1 --><svg xmlns="http://www.w3.org/2000/svg" xmlns:xlink="http://www.w3.org/1999/xlink" width="934pt" height="614pt" viewBox="0.00 0.00 933.50 614.00">
<g id="graph0" class="graph" transform="scale(1 1) rotate(0) translate(4 610)">
<!-- 0 -->
<g id="node1" class="node"><defs>
<linearGradient id="l_0" gradientUnits="userSpaceOnUse" x1="342.5" y1="-1.77636e-014" x2="342.5" y2="-36">
<stop offset="0" style="stop-color:#ffffbb;stop-opacity:1.;"/>
<stop offset="1" style="stop-color:#ffffee;stop-opacity:1.;"/>
</linearGradient>
</defs>
<polygon fill="url(#l_0)" stroke="black" points="401.5,-36 283.5,-36 283.5,-0 401.5,-0 401.5,-36"/>
<text text-anchor="start" x="293.5" y="-16.2" font-family="Arial" font-weight="bold" font-size="11.00" fill="black">CustomEquipment</text>
</g>
<!-- 2 -->
<g id="node2" class="node"><defs>
<linearGradient id="l_1" gradientUnits="userSpaceOnUse" x1="833.5" y1="-553" x2="833.5" y2="-606">
<stop offset="0" style="stop-color:#fbfbfb;stop-opacity:1.;"/>
<stop offset="1" style="stop-color:#fefefe;stop-opacity:1.;"/>
</linearGradient>
</defs>
<polygon fill="url(#l_1)" stroke="black" points="925.5,-595.0 914.5,-606.0 741.5,-606.0 741.5,-553.0 925.5,-553.0"/><path d="M925.5,-595.0L914.5,-595.0 914.5,-606.0" fill="none" stroke="black"/>
<text text-anchor="start" x="751.5" y="-591.5" font-family="Arial" font-size="10.00" fill="black">For&#160;the&#160;sake&#160;of&#160;clarity,&#160;superclasses&#160;</text>
<text text-anchor="start" x="751.5" y="-576.5" font-family="Arial" font-size="10.00" fill="black">and&#160;associations&#160;of&#160;<a fill="navy" href="../reference/PlantStructure/TechnicalItem.html" target="_parent">TechnicalItem</a>&#160;are</text>
<text text-anchor="start" x="751.5" y="-561.5" font-family="Arial" font-size="10.00" fill="black">not&#160;shown&#160;in&#160;this&#160;diagram.</text>
</g>
<!-- 1 -->
<g id="node3" class="node"><defs>
<linearGradient id="l_2" gradientUnits="userSpaceOnUse" x1="833.5" y1="-470" x2="833.5" y2="-506">
<stop offset="0" style="stop-color:#ffffbb;stop-opacity:1.;"/>
<stop offset="1" style="stop-color:#ffffee;stop-opacity:1.;"/>
</linearGradient>
</defs>
<polygon fill="url(#l_2)" stroke="black" points="880,-506 787,-506 787,-470 880,-470 880,-506"/>
<text text-anchor="start" x="797.5" y="-486.2" font-family="Arial" font-weight="bold" font-style="italic" font-size="11.00" fill="black"><a fill="navy" href="../reference/PlantStructure/TechnicalItem.html" target="_parent">TechnicalItem</a></text>
</g>
<!-- 2&#45;&gt;1 -->
<g id="edge1" class="edge"><path fill="none" stroke="#000000" stroke-dasharray="5,2" d="M833.5,-552.613C833.5,-537.641 833.5,-519.222 833.5,-506.063"/>
</g>
<!-- 18&#45;inner&#45;node -->
<!-- 1&#45;&gt;18&#45;inner&#45;node -->
<g id="edge26" class="edge"><path fill="none" stroke="black" d="M833.5,-459.649C833.5,-436.987 833.5,-408.163 833.5,-406.116L833.362,-403.941"/>
<polygon fill="none" stroke="black" points="830,-459.822 833.5,-469.822 837,-459.822 830,-459.822"/>
</g>
<!-- 4 -->
<g id="node4" class="node"><defs>
<linearGradient id="l_3" gradientUnits="userSpaceOnUse" x1="48.5" y1="-152" x2="48.5" y2="-188">
<stop offset="0" style="stop-color:#ffffbb;stop-opacity:1.;"/>
<stop offset="1" style="stop-color:#ffffee;stop-opacity:1.;"/>
</linearGradient>
</defs>
<polygon fill="url(#l_3)" stroke="black" points="97,-188 0,-188 0,-152 97,-152 97,-188"/>
<text text-anchor="start" x="10.5" y="-168.2" font-family="Arial" font-weight="bold" font-style="italic" font-size="11.00" fill="black"><a fill="navy" href="../reference/Customization/CustomObject.html" target="_parent">CustomObject</a></text>
</g>
<!-- 11&#45;inner&#45;node -->
<!-- 4&#45;&gt;11&#45;inner&#45;node -->
<g id="edge12" class="edge"><path fill="none" stroke="black" d="M48.5,-141.649C48.5,-118.987 48.5,-90.1627 48.5,-88.1156L48.5251,-85.8643"/>
<polygon fill="none" stroke="black" points="45.0001,-141.822 48.5,-151.822 52.0001,-141.822 45.0001,-141.822"/>
</g>
<!-- 5 -->
<g id="node5" class="node"><defs>
<linearGradient id="l_4" gradientUnits="userSpaceOnUse" x1="524.5" y1="-152" x2="524.5" y2="-188">
<stop offset="0" style="stop-color:#ffffbb;stop-opacity:1.;"/>
<stop offset="1" style="stop-color:#ffffee;stop-opacity:1.;"/>
</linearGradient>
</defs>
<polygon fill="url(#l_4)" stroke="black" points="563.5,-188 485.5,-188 485.5,-152 563.5,-152 563.5,-188"/>
<text text-anchor="start" x="495.5" y="-168.2" font-family="Arial" font-weight="bold" font-style="italic" font-size="11.00" fill="black"><a fill="navy" href="../reference/Equipment/Equipment.html" target="_parent">Equipment</a></text>
</g>
<!-- 21 -->
<g id="node11" class="node"><defs>
<linearGradient id="l_5" gradientUnits="userSpaceOnUse" x1="118.5" y1="-69" x2="118.5" y2="-105">
<stop offset="0" style="stop-color:#ffffbb;stop-opacity:1.;"/>
<stop offset="1" style="stop-color:#ffffee;stop-opacity:1.;"/>
</linearGradient>
</defs>
<polygon fill="url(#l_5)" stroke="black" points="170,-105 67,-105 67,-69 170,-69 170,-105"/>
<text text-anchor="start" x="77.5" y="-85.2" font-family="Arial" font-weight="bold" font-size="11.00" fill="black"><a fill="navy" href="../reference/Equipment/DryingChamber.html" target="_parent">DryingChamber</a></text>
</g>
<!-- 5&#45;&gt;21 -->
<g id="edge2" class="edge"><path fill="none" stroke="#000000" d="M473.027,-169.446C409.858,-168.672 300.105,-163.013 210.5,-136 190.707,-130.033 170.174,-119.771 153.54,-110.264"/>
<polygon fill="#000000" stroke="#000000" points="473.398,-169.449 479.429,-165.495 485.398,-169.542 479.367,-173.495 473.398,-169.449"/>
<polygon fill="#000000" stroke="#000000" points="144.73,-105.091 155.632,-106.274 149.042,-107.623 153.354,-110.154 153.354,-110.154 153.354,-110.154 149.042,-107.623 151.075,-114.035 144.73,-105.091 144.73,-105.091"/>
<text text-anchor="start" x="213" y="-125.5" font-family="Arial" font-size="10.00" fill="black"><a fill="navy" href="../reference/Equipment/Equipment.html#dexpi-equipment-equipment-dryingchambers" target="_parent">DryingChambers</a></text>
<text text-anchor="start" x="136.73" y="-108.091" font-family="Arial" font-size="10.00" fill="black">*</text>
<text text-anchor="start" x="456.398" y="-170.542" font-family="Arial" font-size="10.00" fill="black">0..1</text>
</g>
<!-- 24 -->
<g id="node12" class="node"><defs>
<linearGradient id="l_6" gradientUnits="userSpaceOnUse" x1="222.5" y1="-69" x2="222.5" y2="-105">
<stop offset="0" style="stop-color:#ffffbb;stop-opacity:1.;"/>
<stop offset="1" style="stop-color:#ffffee;stop-opacity:1.;"/>
</linearGradient>
</defs>
<polygon fill="url(#l_6)" stroke="black" points="256.5,-105 188.5,-105 188.5,-69 256.5,-69 256.5,-105"/>
<text text-anchor="start" x="198.5" y="-85.2" font-family="Arial" font-weight="bold" font-size="11.00" fill="black"><a fill="navy" href="../reference/Equipment/GearBox.html" target="_parent">GearBox</a></text>
</g>
<!-- 5&#45;&gt;24 -->
<g id="edge3" class="edge"><path fill="none" stroke="#000000" d="M473.201,-163.816C433.621,-158.972 377.82,-150.294 330.5,-136 308.05,-129.218 284.118,-118.924 264.503,-109.606"/>
<polygon fill="#000000" stroke="#000000" points="473.275,-163.824 479.702,-160.553 485.193,-165.227 478.767,-168.498 473.275,-163.824"/>
<polygon fill="#000000" stroke="#000000" points="255.246,-105.129 266.207,-105.432 259.747,-107.306 264.248,-109.483 264.248,-109.483 264.248,-109.483 259.747,-107.306 262.289,-113.534 255.246,-105.129 255.246,-105.129"/>
<text text-anchor="start" x="333" y="-125.5" font-family="Arial" font-size="10.00" fill="black"><a fill="navy" href="../reference/Equipment/Equipment.html#dexpi-equipment-equipment-gearboxes" target="_parent">GearBoxes</a></text>
<text text-anchor="start" x="247.246" y="-108.129" font-family="Arial" font-size="10.00" fill="black">*</text>
<text text-anchor="start" x="456.193" y="-155.227" font-family="Arial" font-size="10.00" fill="black">0..1</text>
</g>
<!-- 27 -->
<g id="node13" class="node"><defs>
<linearGradient id="l_7" gradientUnits="userSpaceOnUse" x1="337.5" y1="-69" x2="337.5" y2="-105">
<stop offset="0" style="stop-color:#ffffbb;stop-opacity:1.;"/>
<stop offset="1" style="stop-color:#ffffee;stop-opacity:1.;"/>
</linearGradient>
</defs>
<polygon fill="url(#l_7)" stroke="black" points="400.5,-105 274.5,-105 274.5,-69 400.5,-69 400.5,-105"/>
<text text-anchor="start" x="284.5" y="-85.2" font-family="Arial" font-weight="bold" font-size="11.00" fill="black"><a fill="navy" href="../reference/Equipment/MotorAsComponent.html" target="_parent">MotorAsComponent</a></text>
</g>
<!-- 5&#45;&gt;27 -->
<g id="edge4" class="edge"><path fill="none" stroke="#000000" d="M473.67,-157.044C454.398,-151.7 432.526,-144.637 413.5,-136 398.23,-129.068 382.388,-119.498 369.145,-110.726"/>
<polygon fill="#000000" stroke="#000000" points="473.692,-157.049 480.521,-154.734 485.285,-160.147 478.456,-162.463 473.692,-157.049"/>
<polygon fill="#000000" stroke="#000000" points="360.85,-105.112 371.654,-106.99 364.991,-107.914 369.132,-110.717 369.132,-110.717 369.132,-110.717 364.991,-107.914 366.61,-114.443 360.85,-105.112 360.85,-105.112"/>
<text text-anchor="start" x="416" y="-125.5" font-family="Arial" font-size="10.00" fill="black"><a fill="navy" href="../reference/Equipment/Equipment.html#dexpi-equipment-equipment-motors" target="_parent">Motors</a></text>
<text text-anchor="start" x="352.85" y="-108.112" font-family="Arial" font-size="10.00" fill="black">*</text>
<text text-anchor="start" x="456.285" y="-150.147" font-family="Arial" font-size="10.00" fill="black">0..1</text>
</g>
<!-- 30 -->
<g id="node14" class="node"><defs>
<linearGradient id="l_8" gradientUnits="userSpaceOnUse" x1="462.5" y1="-69" x2="462.5" y2="-105">
<stop offset="0" style="stop-color:#ffffbb;stop-opacity:1.;"/>
<stop offset="1" style="stop-color:#ffffee;stop-opacity:1.;"/>
</linearGradient>
</defs>
<polygon fill="url(#l_8)" stroke="black" points="506,-105 419,-105 419,-69 506,-69 506,-105"/>
<text text-anchor="start" x="429.5" y="-85.2" font-family="Arial" font-weight="bold" font-size="11.00" fill="black"><a fill="navy" href="../reference/Equipment/SprayNozzle.html" target="_parent">SprayNozzle</a></text>
</g>
<!-- 5&#45;&gt;30 -->
<g id="edge5" class="edge"><path fill="none" stroke="#000000" d="M474.357,-153.548C466.867,-149.067 460.12,-143.33 455.5,-136 451.594,-129.802 451.151,-122.272 452.269,-115.033"/>
<polygon fill="#000000" stroke="#000000" points="474.588,-153.664 481.747,-152.802 485.297,-159.08 478.137,-159.942 474.588,-153.664"/>
<polygon fill="#000000" stroke="#000000" points="454.69,-105.16 456.678,-115.944 453.499,-110.016 452.308,-114.873 452.308,-114.873 452.308,-114.873 453.499,-110.016 447.937,-113.801 454.69,-105.16 454.69,-105.16"/>
<text text-anchor="start" x="458" y="-125.5" font-family="Arial" font-size="10.00" fill="black"><a fill="navy" href="../reference/Equipment/Equipment.html#dexpi-equipment-equipment-spraynozzles" target="_parent">SprayNozzles</a></text>
<text text-anchor="start" x="446.69" y="-108.16" font-family="Arial" font-size="10.00" fill="black">*</text>
<text text-anchor="start" x="473.297" y="-149.08" font-family="Arial" font-size="10.00" fill="black">0..1</text>
</g>
<!-- 12&#45;inner&#45;node -->
<!-- 5&#45;&gt;12&#45;inner&#45;node -->
<g id="edge14" class="edge"><path fill="none" stroke="black" d="M524.5,-141.649C524.5,-118.987 524.5,-90.1627 524.5,-88.1156L524.464,-85.8682"/>
<polygon fill="none" stroke="black" points="521,-141.822 524.5,-151.822 528,-141.822 521,-141.822"/>
</g>
<!-- 6 -->
<g id="node6" class="node"><defs>
<linearGradient id="l_9" gradientUnits="userSpaceOnUse" x1="408.5" y1="-304" x2="408.5" y2="-340">
<stop offset="0" style="stop-color:#ffffbb;stop-opacity:1.;"/>
<stop offset="1" style="stop-color:#ffffee;stop-opacity:1.;"/>
</linearGradient>
</defs>
<polygon fill="url(#l_9)" stroke="black" points="461,-340 356,-340 356,-304 461,-304 461,-340"/>
<text text-anchor="start" x="366.5" y="-320.2" font-family="Arial" font-weight="bold" font-style="italic" font-size="11.00" fill="black"><a fill="navy" href="../reference/Equipment/ChamberOwner.html" target="_parent">ChamberOwner</a></text>
</g>
<!-- 33 -->
<g id="node15" class="node"><defs>
<linearGradient id="l_10" gradientUnits="userSpaceOnUse" x1="344.5" y1="-221" x2="344.5" y2="-257">
<stop offset="0" style="stop-color:#ffffbb;stop-opacity:1.;"/>
<stop offset="1" style="stop-color:#ffffee;stop-opacity:1.;"/>
</linearGradient>
</defs>
<polygon fill="url(#l_10)" stroke="black" points="379,-257 310,-257 310,-221 379,-221 379,-257"/>
<text text-anchor="start" x="320.5" y="-237.2" font-family="Arial" font-weight="bold" font-size="11.00" fill="black"><a fill="navy" href="../reference/Equipment/Chamber.html" target="_parent">Chamber</a></text>
</g>
<!-- 6&#45;&gt;33 -->
<g id="edge6" class="edge"><path fill="none" stroke="#000000" d="M362.598,-296.09C359.972,-293.591 357.565,-290.896 355.5,-288 351.181,-281.945 348.527,-274.461 346.905,-267.22"/>
<polygon fill="#000000" stroke="#000000" points="362.859,-296.3 370.041,-296.955 372.199,-303.835 365.017,-303.181 362.859,-296.3"/>
<polygon fill="#000000" stroke="#000000" points="345.234,-257.318 351.336,-266.43 346.066,-262.248 346.898,-267.179 346.898,-267.179 346.898,-267.179 346.066,-262.248 342.461,-267.928 345.234,-257.318 345.234,-257.318"/>
<text text-anchor="start" x="358" y="-277.5" font-family="Arial" font-size="10.00" fill="black"><a fill="navy" href="../reference/Equipment/ChamberOwner.html#dexpi-equipment-chamberowner-chambers" target="_parent">Chambers</a></text>
<text text-anchor="start" x="337.234" y="-260.318" font-family="Arial" font-size="10.00" fill="black">*</text>
<text text-anchor="start" x="343.199" y="-293.835" font-family="Arial" font-size="10.00" fill="black">0..1</text>
</g>
<!-- 13&#45;inner&#45;node -->
<!-- 6&#45;&gt;13&#45;inner&#45;node -->
<g id="edge16" class="edge"><path fill="none" stroke="black" d="M408.5,-293.649C408.5,-270.987 408.5,-242.163 408.5,-240.116L408.64,-237.884"/>
<polygon fill="none" stroke="black" points="405,-293.822 408.5,-303.822 412,-293.822 405,-293.822"/>
</g>
<!-- 7 -->
<g id="node7" class="node"><defs>
<linearGradient id="l_11" gradientUnits="userSpaceOnUse" x1="524.5" y1="-304" x2="524.5" y2="-340">
<stop offset="0" style="stop-color:#ffffbb;stop-opacity:1.;"/>
<stop offset="1" style="stop-color:#ffffee;stop-opacity:1.;"/>
</linearGradient>
</defs>
<polygon fill="url(#l_11)" stroke="black" points="569.5,-340 479.5,-340 479.5,-304 569.5,-304 569.5,-340"/>
<text text-anchor="start" x="489.5" y="-320.2" font-family="Arial" font-weight="bold" font-style="italic" font-size="11.00" fill="black"><a fill="navy" href="../reference/Equipment/NozzleOwner.html" target="_parent">NozzleOwner</a></text>
</g>
<!-- 36 -->
<g id="node16" class="node"><defs>
<linearGradient id="l_12" gradientUnits="userSpaceOnUse" x1="469.5" y1="-221" x2="469.5" y2="-257">
<stop offset="0" style="stop-color:#ffffbb;stop-opacity:1.;"/>
<stop offset="1" style="stop-color:#ffffee;stop-opacity:1.;"/>
</linearGradient>
</defs>
<polygon fill="url(#l_12)" stroke="black" points="498,-257 441,-257 441,-221 498,-221 498,-257"/>
<text text-anchor="start" x="451.5" y="-237.2" font-family="Arial" font-weight="bold" font-size="11.00" fill="black"><a fill="navy" href="../reference/Equipment/Nozzle.html" target="_parent">Nozzle</a></text>
</g>
<!-- 7&#45;&gt;36 -->
<g id="edge7" class="edge"><path fill="none" stroke="#000000" d="M486.289,-295.384C484.147,-293.056 482.185,-290.592 480.5,-288 476.447,-281.763 473.878,-274.222 472.253,-266.983"/>
<polygon fill="#000000" stroke="#000000" points="486.431,-295.515 493.552,-296.651 495.242,-303.662 488.121,-302.525 486.431,-295.515"/>
<polygon fill="#000000" stroke="#000000" points="470.528,-257.118 476.683,-266.193 471.389,-262.043 472.251,-266.969 472.251,-266.969 472.251,-266.969 471.389,-262.043 467.818,-267.744 470.528,-257.118 470.528,-257.118"/>
<text text-anchor="start" x="482.5" y="-277.5" font-family="Arial" font-size="10.00" fill="black"><a fill="navy" href="../reference/Equipment/NozzleOwner.html#dexpi-equipment-nozzleowner-nozzles" target="_parent">Nozzles</a></text>
<text text-anchor="start" x="462.528" y="-260.118" font-family="Arial" font-size="10.00" fill="black">*</text>
<text text-anchor="start" x="466.242" y="-293.662" font-family="Arial" font-size="10.00" fill="black">0..1</text>
</g>
<!-- 14&#45;inner&#45;node -->
<!-- 7&#45;&gt;14&#45;inner&#45;node -->
<g id="edge18" class="edge"><path fill="none" stroke="black" d="M524.5,-293.649C524.5,-270.987 524.5,-242.163 524.5,-240.116L524.5,-237.951"/>
<polygon fill="none" stroke="black" points="521,-293.822 524.5,-303.822 528,-293.822 521,-293.822"/>
</g>
<!-- 8 -->
<g id="node8" class="node"><defs>
<linearGradient id="l_13" gradientUnits="userSpaceOnUse" x1="642.5" y1="-304" x2="642.5" y2="-340">
<stop offset="0" style="stop-color:#ffffbb;stop-opacity:1.;"/>
<stop offset="1" style="stop-color:#ffffee;stop-opacity:1.;"/>
</linearGradient>
</defs>
<polygon fill="url(#l_13)" stroke="black" points="697,-340 588,-340 588,-304 697,-304 697,-340"/>
<text text-anchor="start" x="598.5" y="-320.2" font-family="Arial" font-weight="bold" font-style="italic" font-size="11.00" fill="black"><a fill="navy" href="../reference/Equipment/TaggedPlantItem.html" target="_parent">TaggedPlantItem</a></text>
</g>
<!-- 15&#45;inner&#45;node -->
<!-- 8&#45;&gt;15&#45;inner&#45;node -->
<g id="edge20" class="edge"><path fill="none" stroke="black" d="M642.5,-293.649C642.5,-270.987 642.5,-242.163 642.5,-240.116L642.414,-237.951"/>
<polygon fill="none" stroke="black" points="639,-293.822 642.5,-303.822 646,-293.822 639,-293.822"/>
</g>
<!-- 9 -->
<g id="node9" class="node"><defs>
<linearGradient id="l_14" gradientUnits="userSpaceOnUse" x1="538.5" y1="-470" x2="538.5" y2="-506">
<stop offset="0" style="stop-color:#ffffbb;stop-opacity:1.;"/>
<stop offset="1" style="stop-color:#ffffee;stop-opacity:1.;"/>
</linearGradient>
</defs>
<polygon fill="url(#l_14)" stroke="black" points="596,-506 481,-506 481,-470 596,-470 596,-506"/>
<text text-anchor="start" x="491.5" y="-486.2" font-family="Arial" font-weight="bold" font-style="italic" font-size="11.00" fill="black"><a fill="navy" href="../reference/DexpiModel/ConceptualObject.html" target="_parent">ConceptualObject</a></text>
</g>
<!-- 16&#45;inner&#45;node -->
<!-- 9&#45;&gt;16&#45;inner&#45;node -->
<g id="edge22" class="edge"><path fill="none" stroke="black" d="M538.5,-459.649C538.5,-436.987 538.5,-408.163 538.5,-406.116L538.538,-403.879"/>
<polygon fill="none" stroke="black" points="535,-459.822 538.5,-469.822 542,-459.822 535,-459.822"/>
</g>
<!-- 10 -->
<g id="node10" class="node"><defs>
<linearGradient id="l_15" gradientUnits="userSpaceOnUse" x1="696.5" y1="-470" x2="696.5" y2="-506">
<stop offset="0" style="stop-color:#ffffbb;stop-opacity:1.;"/>
<stop offset="1" style="stop-color:#ffffee;stop-opacity:1.;"/>
</linearGradient>
</defs>
<polygon fill="url(#l_15)" stroke="black" points="768.5,-506 624.5,-506 624.5,-470 768.5,-470 768.5,-506"/>
<text text-anchor="start" x="634.5" y="-486.2" font-family="Arial" font-weight="bold" font-style="italic" font-size="11.00" fill="black"><a fill="navy" href="../reference/Customization/CustomAttributeOwner.html" target="_parent">CustomAttributeOwner</a></text>
</g>
<!-- 48 -->
<g id="node20" class="node"><defs>
<linearGradient id="l_16" gradientUnits="userSpaceOnUse" x1="611.5" y1="-387" x2="611.5" y2="-423">
<stop offset="0" style="stop-color:#ffffbb;stop-opacity:1.;"/>
<stop offset="1" style="stop-color:#ffffee;stop-opacity:1.;"/>
</linearGradient>
</defs>
<polygon fill="url(#l_16)" stroke="black" points="666,-423 557,-423 557,-387 666,-387 666,-423"/>
<text text-anchor="start" x="567.5" y="-403.2" font-family="Arial" font-weight="bold" font-style="italic" font-size="11.00" fill="black"><a fill="navy" href="../reference/Customization/CustomAttribute.html" target="_parent">CustomAttribute</a></text>
</g>
<!-- 10&#45;&gt;48 -->
<g id="edge11" class="edge"><path fill="none" stroke="#000000" d="M619.949,-462.486C617.181,-459.933 614.67,-457.113 612.5,-454 608.402,-448.119 606.944,-440.772 606.815,-433.608"/>
<polygon fill="#000000" stroke="#000000" points="619.998,-462.523 627.196,-462.959 629.563,-469.77 622.365,-469.335 619.998,-462.523"/>
<polygon fill="#000000" stroke="#000000" points="607.425,-423.435 611.319,-433.687 607.126,-428.426 606.827,-433.417 606.827,-433.417 606.827,-433.417 607.126,-428.426 602.335,-433.148 607.425,-423.435 607.425,-423.435"/>
<text text-anchor="start" x="614.5" y="-443.5" font-family="Arial" font-size="10.00" fill="black"><a fill="navy" href="../reference/Customization/CustomAttributeOwner.html#dexpi-customization-customattributeowner-customattributes" target="_parent">CustomAttributes</a></text>
<text text-anchor="start" x="599.425" y="-426.435" font-family="Arial" font-size="10.00" fill="black">*</text>
<text text-anchor="start" x="600.563" y="-459.77" font-family="Arial" font-size="10.00" fill="black">0..1</text>
</g>
<!-- 17&#45;inner&#45;node -->
<!-- 10&#45;&gt;17&#45;inner&#45;node -->
<g id="edge24" class="edge"><path fill="none" stroke="black" d="M696.5,-459.649C696.5,-436.987 696.5,-408.163 696.5,-406.116L696.461,-403.941"/>
<polygon fill="none" stroke="black" points="693,-459.822 696.5,-469.822 700,-459.822 693,-459.822"/>
</g>
<!-- 39 -->
<g id="node17" class="node"><defs>
<linearGradient id="l_17" gradientUnits="userSpaceOnUse" x1="462.5" y1="-387" x2="462.5" y2="-423">
<stop offset="0" style="stop-color:#ffffbb;stop-opacity:1.;"/>
<stop offset="1" style="stop-color:#ffffee;stop-opacity:1.;"/>
</linearGradient>
</defs>
<polygon fill="url(#l_17)" stroke="black" points="519.5,-423 405.5,-423 405.5,-387 519.5,-387 519.5,-423"/>
<text text-anchor="start" x="415.5" y="-403.2" font-family="Arial" font-weight="bold" font-size="11.00" fill="black"><a fill="navy" href="../reference/DexpiModel/ConceptualModel.html" target="_parent">ConceptualModel</a></text>
</g>
<!-- 39&#45;&gt;8 -->
<g id="edge8" class="edge"><path fill="none" stroke="#000000" d="M467.324,-375.016C469.842,-367.86 473.673,-360.862 479.5,-356 511.518,-329.287 532.123,-346.682 577.934,-339.726"/>
<polygon fill="#000000" stroke="#000000" points="467.262,-375.253 469.602,-382.074 464.205,-386.857 461.865,-380.036 467.262,-375.253"/>
<polygon fill="#000000" stroke="#000000" points="587.773,-337.92 578.751,-344.152 582.856,-338.823 577.938,-339.726 577.938,-339.726 577.938,-339.726 582.856,-338.823 577.125,-335.3 587.773,-337.92 587.773,-337.92"/>
<text text-anchor="start" x="482" y="-360.5" font-family="Arial" font-size="10.00" fill="black"><a fill="navy" href="../reference/DexpiModel/ConceptualModel.html#dexpi-dexpimodel-conceptualmodel-taggedplantitems" target="_parent">TaggedPlantItems</a></text>
<text text-anchor="start" x="579.773" y="-340.92" font-family="Arial" font-size="10.00" fill="black">*</text>
<text text-anchor="start" x="435.205" y="-376.857" font-family="Arial" font-size="10.00" fill="black">0..1</text>
</g>
<!-- 42 -->
<g id="node18" class="node"><defs>
<linearGradient id="l_18" gradientUnits="userSpaceOnUse" x1="435.5" y1="-561.5" x2="435.5" y2="-597.5">
<stop offset="0" style="stop-color:#ffffbb;stop-opacity:1.;"/>
<stop offset="1" style="stop-color:#ffffee;stop-opacity:1.;"/>
</linearGradient>
</defs>
<polygon fill="url(#l_18)" stroke="black" points="510,-597.5 361,-597.5 361,-561.5 510,-561.5 510,-597.5"/>
<text text-anchor="start" x="371.5" y="-577.7" font-family="Arial" font-weight="bold" font-size="11.00" fill="black"><a fill="navy" href="../reference/Graphics/AttributeRepresentation.html" target="_parent">AttributeRepresentation</a></text>
</g>
<!-- 42&#45;&gt;9 -->
<g id="edge9" class="edge"><path fill="none" stroke="#000000" d="M455.359,-561.243C471.176,-547.5 493.493,-528.108 511.024,-512.875"/>
<polygon fill="#000000" stroke="#000000" points="518.702,-506.204 514.105,-516.159 514.927,-509.483 511.153,-512.763 511.153,-512.763 511.153,-512.763 514.927,-509.483 508.201,-509.366 518.702,-506.204 518.702,-506.204"/>
<text text-anchor="start" x="502" y="-526.5" font-family="Arial" font-size="10.00" fill="black"><a fill="navy" href="../reference/Graphics/AttributeRepresentation.html#dexpi-graphics-attributerepresentation-object" target="_parent">Object</a></text>
<text text-anchor="start" x="510.702" y="-509.204" font-family="Arial" font-size="10.00" fill="black"></text>
<text text-anchor="start" x="439.359" y="-551.243" font-family="Arial" font-size="10.00" fill="black">*</text>
</g>
<!-- 45 -->
<g id="node19" class="node"><defs>
<linearGradient id="l_19" gradientUnits="userSpaceOnUse" x1="596.5" y1="-561.5" x2="596.5" y2="-597.5">
<stop offset="0" style="stop-color:#ffffbb;stop-opacity:1.;"/>
<stop offset="1" style="stop-color:#ffffee;stop-opacity:1.;"/>
</linearGradient>
</defs>
<polygon fill="url(#l_19)" stroke="black" points="665,-597.5 528,-597.5 528,-561.5 665,-561.5 665,-597.5"/>
<text text-anchor="start" x="538.5" y="-577.7" font-family="Arial" font-weight="bold" font-size="11.00" fill="black"><a fill="navy" href="../reference/Graphics/RepresentationGroup.html" target="_parent">RepresentationGroup</a></text>
</g>
<!-- 45&#45;&gt;9 -->
<g id="edge10" class="edge"><path fill="none" stroke="#000000" d="M585.317,-561.243C576.812,-548.119 564.968,-529.843 555.322,-514.958"/>
<polygon fill="#000000" stroke="#000000" points="549.649,-506.204 558.863,-512.148 552.368,-510.399 555.087,-514.595 555.087,-514.595 555.087,-514.595 552.368,-510.399 551.311,-517.043 549.649,-506.204 549.649,-506.204"/>
<text text-anchor="start" x="571.5" y="-526.5" font-family="Arial" font-size="10.00" fill="black"><a fill="navy" href="../reference/Graphics/RepresentationGroup.html#dexpi-graphics-representationgroup-represents" target="_parent">Represents</a></text>
<text text-anchor="start" x="541.649" y="-509.204" font-family="Arial" font-size="10.00" fill="black"></text>
<text text-anchor="start" x="569.317" y="-551.243" font-family="Arial" font-size="10.00" fill="black">*</text>
</g>
<!-- 11&#45;inner&#45;node&#45;&gt;0 -->
<g id="edge13" class="edge"><path fill="none" stroke="black" d="M48.5251,-85.8643C48.7796,-84.5307 51.0181,-73.714 57.5,-69 92.6932,-43.4056 210.782,-29.5536 283.448,-23.2727"/>
</g>
<!-- 12&#45;inner&#45;node&#45;&gt;0 -->
<g id="edge15" class="edge"><path fill="none" stroke="black" d="M524.464,-85.8682C524.1,-84.572 520.987,-74.045 514.5,-69 482.097,-43.8006 437.38,-31.2946 401.663,-25.0917"/>
</g>
<!-- 13&#45;inner&#45;node&#45;&gt;5 -->
<g id="edge17" class="edge"><path fill="none" stroke="black" d="M408.64,-237.884C410.027,-236.739 421.434,-227.38 431.5,-221 450.235,-209.126 472.036,-197.306 489.819,-188.142"/>
</g>
<!-- 14&#45;inner&#45;node&#45;&gt;5 -->
<g id="edge19" class="edge"><path fill="none" stroke="black" d="M524.5,-237.951C524.5,-236.604 524.5,-207.522 524.5,-188.135"/>
</g>
<!-- 15&#45;inner&#45;node&#45;&gt;5 -->
<g id="edge21" class="edge"><path fill="none" stroke="black" d="M642.414,-237.951C640.042,-236.604 588.822,-207.522 554.677,-188.135"/>
</g>
<!-- 16&#45;inner&#45;node&#45;&gt;8 -->
<g id="edge23" class="edge"><path fill="none" stroke="black" d="M538.538,-403.879C538.92,-402.686 542.141,-392.959 547.5,-387 564.92,-367.629 589.388,-351.325 609.129,-340.02"/>
</g>
<!-- 17&#45;inner&#45;node&#45;&gt;8 -->
<g id="edge25" class="edge"><path fill="none" stroke="black" d="M696.461,-403.941C695.318,-402.226 669.391,-363.337 653.898,-340.098"/>
</g>
<!-- 18&#45;inner&#45;node&#45;&gt;8 -->
<g id="edge27" class="edge"><path fill="none" stroke="black" d="M833.362,-403.941C829.318,-402.226 737.615,-363.337 682.817,-340.098"/>
</g>
</g>
</svg>