<!DOCTYPE svg PUBLIC "-//W3C//DTD SVG 1.1//EN" "http://www.w3.org/Graphics/SVG/1.1/DTD/svg11.dtd">
<!-- Generated by graphviz version 2.38.0 (20140413.2041)
 --><!-- Title: G Pages: 1 --><svg xmlns="http://www.w3.org/2000/svg" xmlns:xlink="http://www.w3.org/1999/xlink" width="867pt" height="728pt" viewBox="0.00 0.00 866.50 728.00">
<g id="graph0" class="graph" transform="scale(1 1) rotate(0) translate(4 724)">
<!-- 0 -->
<g id="node1" class="node"><defs>
<linearGradient id="l_0" gradientUnits="userSpaceOnUse" x1="401.5" y1="-1.77636e-014" x2="401.5" y2="-47">
<stop offset="0" style="stop-color:#ffffbb;stop-opacity:1.;"/>
<stop offset="1" style="stop-color:#ffffee;stop-opacity:1.;"/>
</linearGradient>
</defs>
<polygon fill="url(#l_0)" stroke="black" points="518,-47 285,-47 285,3.55271e-015 518,3.55271e-015 518,-47"/>
<text text-anchor="start" x="318" y="-32.7" font-family="Arial" font-weight="bold" font-size="11.00" fill="black">CustomMobileTransportSystem</text>
<text text-anchor="start" x="295.5" y="-8.5" font-family="Arial" font-size="10.00" fill="black"><a fill="navy" href="../reference/Equipment/CustomMobileTransportSystem.html#dexpi-equipment-custommobiletransportsystem-upperlimitdischargehead" target="_parent">UpperLimitDischargeHead</a>&#160;:</text>
<text text-anchor="start" x="418.5" y="-8.5" font-family="Arial" font-size="10.00" fill="black"><a fill="navy" href="../reference/PhysicalQuantities/NullableLength.html" target="_parent">NullableLength</a>&#160;[0..1]</text>
<polygon fill="black" stroke="black" points="518.0,-26.5 285.0,-26.5 285.0,-26.5 518.0,-26.5 518.0,-26.5"/>
</g>
<!-- 4 -->
<g id="node2" class="node"><defs>
<linearGradient id="l_1" gradientUnits="userSpaceOnUse" x1="766.5" y1="-667" x2="766.5" y2="-720">
<stop offset="0" style="stop-color:#fbfbfb;stop-opacity:1.;"/>
<stop offset="1" style="stop-color:#fefefe;stop-opacity:1.;"/>
</linearGradient>
</defs>
<polygon fill="url(#l_1)" stroke="black" points="858.5,-709.0 847.5,-720.0 674.5,-720.0 674.5,-667.0 858.5,-667.0"/><path d="M858.5,-709.0L847.5,-709.0 847.5,-720.0" fill="none" stroke="black"/>
<text text-anchor="start" x="684.5" y="-705.5" font-family="Arial" font-size="10.00" fill="black">For&#160;the&#160;sake&#160;of&#160;clarity,&#160;superclasses&#160;</text>
<text text-anchor="start" x="684.5" y="-690.5" font-family="Arial" font-size="10.00" fill="black">and&#160;associations&#160;of&#160;<a fill="navy" href="../reference/PlantStructure/TechnicalItem.html" target="_parent">TechnicalItem</a>&#160;are</text>
<text text-anchor="start" x="684.5" y="-675.5" font-family="Arial" font-size="10.00" fill="black">not&#160;shown&#160;in&#160;this&#160;diagram.</text>
</g>
<!-- 3 -->
<g id="node3" class="node"><defs>
<linearGradient id="l_2" gradientUnits="userSpaceOnUse" x1="766.5" y1="-584" x2="766.5" y2="-620">
<stop offset="0" style="stop-color:#ffffbb;stop-opacity:1.;"/>
<stop offset="1" style="stop-color:#ffffee;stop-opacity:1.;"/>
</linearGradient>
</defs>
<polygon fill="url(#l_2)" stroke="black" points="813,-620 720,-620 720,-584 813,-584 813,-620"/>
<text text-anchor="start" x="730.5" y="-600.2" font-family="Arial" font-weight="bold" font-style="italic" font-size="11.00" fill="black"><a fill="navy" href="../reference/PlantStructure/TechnicalItem.html" target="_parent">TechnicalItem</a></text>
</g>
<!-- 4&#45;&gt;3 -->
<g id="edge1" class="edge"><path fill="none" stroke="#000000" stroke-dasharray="5,2" d="M766.5,-666.613C766.5,-651.641 766.5,-633.222 766.5,-620.063"/>
</g>
<!-- 22&#45;inner&#45;node -->
<!-- 3&#45;&gt;22&#45;inner&#45;node -->
<g id="edge28" class="edge"><path fill="none" stroke="black" d="M766.5,-573.649C766.5,-550.987 766.5,-522.163 766.5,-520.116L766.362,-517.941"/>
<polygon fill="none" stroke="black" points="763,-573.822 766.5,-583.822 770,-573.822 763,-573.822"/>
</g>
<!-- 6 -->
<g id="node4" class="node"><defs>
<linearGradient id="l_3" gradientUnits="userSpaceOnUse" x1="317.5" y1="-114" x2="317.5" y2="-150">
<stop offset="0" style="stop-color:#ffffbb;stop-opacity:1.;"/>
<stop offset="1" style="stop-color:#ffffee;stop-opacity:1.;"/>
</linearGradient>
</defs>
<polygon fill="url(#l_3)" stroke="black" points="366,-150 269,-150 269,-114 366,-114 366,-150"/>
<text text-anchor="start" x="279.5" y="-130.2" font-family="Arial" font-weight="bold" font-style="italic" font-size="11.00" fill="black"><a fill="navy" href="../reference/Customization/CustomObject.html" target="_parent">CustomObject</a></text>
</g>
<!-- 14&#45;inner&#45;node -->
<!-- 6&#45;&gt;14&#45;inner&#45;node -->
<g id="edge12" class="edge"><path fill="none" stroke="black" d="M317.5,-103.603C317.5,-92.4221 317.5,-81.8866 317.5,-81.053L317.561,-79.9598"/>
<polygon fill="none" stroke="black" points="314,-103.793 317.5,-113.793 321,-103.793 314,-103.793"/>
</g>
<!-- 7 -->
<g id="node5" class="node"><defs>
<linearGradient id="l_4" gradientUnits="userSpaceOnUse" x1="457.5" y1="-114" x2="457.5" y2="-150">
<stop offset="0" style="stop-color:#ffffbb;stop-opacity:1.;"/>
<stop offset="1" style="stop-color:#ffffee;stop-opacity:1.;"/>
</linearGradient>
</defs>
<polygon fill="url(#l_4)" stroke="black" points="531,-150 384,-150 384,-114 531,-114 531,-150"/>
<text text-anchor="start" x="394.5" y="-130.2" font-family="Arial" font-weight="bold" font-size="11.00" fill="black"><a fill="navy" href="../reference/Equipment/MobileTransportSystem.html" target="_parent">MobileTransportSystem</a></text>
</g>
<!-- 15&#45;inner&#45;node -->
<!-- 7&#45;&gt;15&#45;inner&#45;node -->
<g id="edge14" class="edge"><path fill="none" stroke="black" d="M457.5,-103.603C457.5,-92.4221 457.5,-81.8866 457.5,-81.053L457.339,-79.8408"/>
<polygon fill="none" stroke="black" points="454,-103.793 457.5,-113.793 461,-103.793 454,-103.793"/>
</g>
<!-- 8 -->
<g id="node6" class="node"><defs>
<linearGradient id="l_5" gradientUnits="userSpaceOnUse" x1="457.5" y1="-266" x2="457.5" y2="-302">
<stop offset="0" style="stop-color:#ffffbb;stop-opacity:1.;"/>
<stop offset="1" style="stop-color:#ffffee;stop-opacity:1.;"/>
</linearGradient>
</defs>
<polygon fill="url(#l_5)" stroke="black" points="496.5,-302 418.5,-302 418.5,-266 496.5,-266 496.5,-302"/>
<text text-anchor="start" x="428.5" y="-282.2" font-family="Arial" font-weight="bold" font-style="italic" font-size="11.00" fill="black"><a fill="navy" href="../reference/Equipment/Equipment.html" target="_parent">Equipment</a></text>
</g>
<!-- 25 -->
<g id="node12" class="node"><defs>
<linearGradient id="l_6" gradientUnits="userSpaceOnUse" x1="51.5" y1="-183" x2="51.5" y2="-219">
<stop offset="0" style="stop-color:#ffffbb;stop-opacity:1.;"/>
<stop offset="1" style="stop-color:#ffffee;stop-opacity:1.;"/>
</linearGradient>
</defs>
<polygon fill="url(#l_6)" stroke="black" points="103,-219 0,-219 0,-183 103,-183 103,-219"/>
<text text-anchor="start" x="10.5" y="-199.2" font-family="Arial" font-weight="bold" font-size="11.00" fill="black"><a fill="navy" href="../reference/Equipment/DryingChamber.html" target="_parent">DryingChamber</a></text>
</g>
<!-- 8&#45;&gt;25 -->
<g id="edge2" class="edge"><path fill="none" stroke="#000000" d="M406.027,-283.446C342.858,-282.672 233.105,-277.013 143.5,-250 123.707,-244.033 103.174,-233.771 86.54,-224.264"/>
<polygon fill="#000000" stroke="#000000" points="406.398,-283.449 412.429,-279.495 418.398,-283.542 412.367,-287.495 406.398,-283.449"/>
<polygon fill="#000000" stroke="#000000" points="77.7299,-219.091 88.6319,-220.274 82.0418,-221.623 86.3536,-224.154 86.3536,-224.154 86.3536,-224.154 82.0418,-221.623 84.0753,-228.035 77.7299,-219.091 77.7299,-219.091"/>
<text text-anchor="start" x="146" y="-239.5" font-family="Arial" font-size="10.00" fill="black"><a fill="navy" href="../reference/Equipment/Equipment.html#dexpi-equipment-equipment-dryingchambers" target="_parent">DryingChambers</a></text>
<text text-anchor="start" x="69.7299" y="-222.091" font-family="Arial" font-size="10.00" fill="black">*</text>
<text text-anchor="start" x="389.398" y="-284.542" font-family="Arial" font-size="10.00" fill="black">0..1</text>
</g>
<!-- 28 -->
<g id="node13" class="node"><defs>
<linearGradient id="l_7" gradientUnits="userSpaceOnUse" x1="155.5" y1="-183" x2="155.5" y2="-219">
<stop offset="0" style="stop-color:#ffffbb;stop-opacity:1.;"/>
<stop offset="1" style="stop-color:#ffffee;stop-opacity:1.;"/>
</linearGradient>
</defs>
<polygon fill="url(#l_7)" stroke="black" points="189.5,-219 121.5,-219 121.5,-183 189.5,-183 189.5,-219"/>
<text text-anchor="start" x="131.5" y="-199.2" font-family="Arial" font-weight="bold" font-size="11.00" fill="black"><a fill="navy" href="../reference/Equipment/GearBox.html" target="_parent">GearBox</a></text>
</g>
<!-- 8&#45;&gt;28 -->
<g id="edge3" class="edge"><path fill="none" stroke="#000000" d="M406.201,-277.816C366.621,-272.972 310.82,-264.294 263.5,-250 241.05,-243.218 217.118,-232.924 197.503,-223.606"/>
<polygon fill="#000000" stroke="#000000" points="406.275,-277.824 412.702,-274.553 418.193,-279.227 411.767,-282.498 406.275,-277.824"/>
<polygon fill="#000000" stroke="#000000" points="188.246,-219.129 199.207,-219.432 192.747,-221.306 197.248,-223.483 197.248,-223.483 197.248,-223.483 192.747,-221.306 195.289,-227.534 188.246,-219.129 188.246,-219.129"/>
<text text-anchor="start" x="266" y="-239.5" font-family="Arial" font-size="10.00" fill="black"><a fill="navy" href="../reference/Equipment/Equipment.html#dexpi-equipment-equipment-gearboxes" target="_parent">GearBoxes</a></text>
<text text-anchor="start" x="180.246" y="-222.129" font-family="Arial" font-size="10.00" fill="black">*</text>
<text text-anchor="start" x="389.193" y="-269.227" font-family="Arial" font-size="10.00" fill="black">0..1</text>
</g>
<!-- 31 -->
<g id="node14" class="node"><defs>
<linearGradient id="l_8" gradientUnits="userSpaceOnUse" x1="270.5" y1="-183" x2="270.5" y2="-219">
<stop offset="0" style="stop-color:#ffffbb;stop-opacity:1.;"/>
<stop offset="1" style="stop-color:#ffffee;stop-opacity:1.;"/>
</linearGradient>
</defs>
<polygon fill="url(#l_8)" stroke="black" points="333.5,-219 207.5,-219 207.5,-183 333.5,-183 333.5,-219"/>
<text text-anchor="start" x="217.5" y="-199.2" font-family="Arial" font-weight="bold" font-size="11.00" fill="black"><a fill="navy" href="../reference/Equipment/MotorAsComponent.html" target="_parent">MotorAsComponent</a></text>
</g>
<!-- 8&#45;&gt;31 -->
<g id="edge4" class="edge"><path fill="none" stroke="#000000" d="M406.67,-271.044C387.398,-265.7 365.526,-258.637 346.5,-250 331.23,-243.068 315.388,-233.498 302.145,-224.726"/>
<polygon fill="#000000" stroke="#000000" points="406.692,-271.049 413.521,-268.734 418.285,-274.147 411.456,-276.463 406.692,-271.049"/>
<polygon fill="#000000" stroke="#000000" points="293.85,-219.112 304.654,-220.99 297.991,-221.914 302.132,-224.717 302.132,-224.717 302.132,-224.717 297.991,-221.914 299.61,-228.443 293.85,-219.112 293.85,-219.112"/>
<text text-anchor="start" x="349" y="-239.5" font-family="Arial" font-size="10.00" fill="black"><a fill="navy" href="../reference/Equipment/Equipment.html#dexpi-equipment-equipment-motors" target="_parent">Motors</a></text>
<text text-anchor="start" x="285.85" y="-222.112" font-family="Arial" font-size="10.00" fill="black">*</text>
<text text-anchor="start" x="389.285" y="-264.147" font-family="Arial" font-size="10.00" fill="black">0..1</text>
</g>
<!-- 34 -->
<g id="node15" class="node"><defs>
<linearGradient id="l_9" gradientUnits="userSpaceOnUse" x1="395.5" y1="-183" x2="395.5" y2="-219">
<stop offset="0" style="stop-color:#ffffbb;stop-opacity:1.;"/>
<stop offset="1" style="stop-color:#ffffee;stop-opacity:1.;"/>
</linearGradient>
</defs>
<polygon fill="url(#l_9)" stroke="black" points="439,-219 352,-219 352,-183 439,-183 439,-219"/>
<text text-anchor="start" x="362.5" y="-199.2" font-family="Arial" font-weight="bold" font-size="11.00" fill="black"><a fill="navy" href="../reference/Equipment/SprayNozzle.html" target="_parent">SprayNozzle</a></text>
</g>
<!-- 8&#45;&gt;34 -->
<g id="edge5" class="edge"><path fill="none" stroke="#000000" d="M407.357,-267.548C399.867,-263.067 393.12,-257.33 388.5,-250 384.594,-243.802 384.151,-236.272 385.269,-229.033"/>
<polygon fill="#000000" stroke="#000000" points="407.588,-267.664 414.747,-266.802 418.297,-273.08 411.137,-273.942 407.588,-267.664"/>
<polygon fill="#000000" stroke="#000000" points="387.69,-219.16 389.678,-229.944 386.499,-224.016 385.308,-228.873 385.308,-228.873 385.308,-228.873 386.499,-224.016 380.937,-227.801 387.69,-219.16 387.69,-219.16"/>
<text text-anchor="start" x="391" y="-239.5" font-family="Arial" font-size="10.00" fill="black"><a fill="navy" href="../reference/Equipment/Equipment.html#dexpi-equipment-equipment-spraynozzles" target="_parent">SprayNozzles</a></text>
<text text-anchor="start" x="379.69" y="-222.16" font-family="Arial" font-size="10.00" fill="black">*</text>
<text text-anchor="start" x="406.297" y="-263.08" font-family="Arial" font-size="10.00" fill="black">0..1</text>
</g>
<!-- 16&#45;inner&#45;node -->
<!-- 8&#45;&gt;16&#45;inner&#45;node -->
<g id="edge16" class="edge"><path fill="none" stroke="black" d="M457.5,-255.649C457.5,-232.987 457.5,-204.163 457.5,-202.116L457.5,-199.951"/>
<polygon fill="none" stroke="black" points="454,-255.822 457.5,-265.822 461,-255.822 454,-255.822"/>
</g>
<!-- 9 -->
<g id="node7" class="node"><defs>
<linearGradient id="l_10" gradientUnits="userSpaceOnUse" x1="341.5" y1="-418" x2="341.5" y2="-454">
<stop offset="0" style="stop-color:#ffffbb;stop-opacity:1.;"/>
<stop offset="1" style="stop-color:#ffffee;stop-opacity:1.;"/>
</linearGradient>
</defs>
<polygon fill="url(#l_10)" stroke="black" points="394,-454 289,-454 289,-418 394,-418 394,-454"/>
<text text-anchor="start" x="299.5" y="-434.2" font-family="Arial" font-weight="bold" font-style="italic" font-size="11.00" fill="black"><a fill="navy" href="../reference/Equipment/ChamberOwner.html" target="_parent">ChamberOwner</a></text>
</g>
<!-- 37 -->
<g id="node16" class="node"><defs>
<linearGradient id="l_11" gradientUnits="userSpaceOnUse" x1="277.5" y1="-335" x2="277.5" y2="-371">
<stop offset="0" style="stop-color:#ffffbb;stop-opacity:1.;"/>
<stop offset="1" style="stop-color:#ffffee;stop-opacity:1.;"/>
</linearGradient>
</defs>
<polygon fill="url(#l_11)" stroke="black" points="312,-371 243,-371 243,-335 312,-335 312,-371"/>
<text text-anchor="start" x="253.5" y="-351.2" font-family="Arial" font-weight="bold" font-size="11.00" fill="black"><a fill="navy" href="../reference/Equipment/Chamber.html" target="_parent">Chamber</a></text>
</g>
<!-- 9&#45;&gt;37 -->
<g id="edge6" class="edge"><path fill="none" stroke="#000000" d="M295.598,-410.09C292.972,-407.591 290.565,-404.896 288.5,-402 284.181,-395.945 281.527,-388.461 279.905,-381.22"/>
<polygon fill="#000000" stroke="#000000" points="295.859,-410.3 303.041,-410.955 305.199,-417.835 298.017,-417.181 295.859,-410.3"/>
<polygon fill="#000000" stroke="#000000" points="278.234,-371.318 284.336,-380.43 279.066,-376.248 279.898,-381.179 279.898,-381.179 279.898,-381.179 279.066,-376.248 275.461,-381.928 278.234,-371.318 278.234,-371.318"/>
<text text-anchor="start" x="291" y="-391.5" font-family="Arial" font-size="10.00" fill="black"><a fill="navy" href="../reference/Equipment/ChamberOwner.html#dexpi-equipment-chamberowner-chambers" target="_parent">Chambers</a></text>
<text text-anchor="start" x="270.234" y="-374.318" font-family="Arial" font-size="10.00" fill="black">*</text>
<text text-anchor="start" x="276.199" y="-407.835" font-family="Arial" font-size="10.00" fill="black">0..1</text>
</g>
<!-- 17&#45;inner&#45;node -->
<!-- 9&#45;&gt;17&#45;inner&#45;node -->
<g id="edge18" class="edge"><path fill="none" stroke="black" d="M341.5,-407.649C341.5,-384.987 341.5,-356.163 341.5,-354.116L341.64,-351.884"/>
<polygon fill="none" stroke="black" points="338,-407.822 341.5,-417.822 345,-407.822 338,-407.822"/>
</g>
<!-- 10 -->
<g id="node8" class="node"><defs>
<linearGradient id="l_12" gradientUnits="userSpaceOnUse" x1="457.5" y1="-418" x2="457.5" y2="-454">
<stop offset="0" style="stop-color:#ffffbb;stop-opacity:1.;"/>
<stop offset="1" style="stop-color:#ffffee;stop-opacity:1.;"/>
</linearGradient>
</defs>
<polygon fill="url(#l_12)" stroke="black" points="502.5,-454 412.5,-454 412.5,-418 502.5,-418 502.5,-454"/>
<text text-anchor="start" x="422.5" y="-434.2" font-family="Arial" font-weight="bold" font-style="italic" font-size="11.00" fill="black"><a fill="navy" href="../reference/Equipment/NozzleOwner.html" target="_parent">NozzleOwner</a></text>
</g>
<!-- 40 -->
<g id="node17" class="node"><defs>
<linearGradient id="l_13" gradientUnits="userSpaceOnUse" x1="402.5" y1="-335" x2="402.5" y2="-371">
<stop offset="0" style="stop-color:#ffffbb;stop-opacity:1.;"/>
<stop offset="1" style="stop-color:#ffffee;stop-opacity:1.;"/>
</linearGradient>
</defs>
<polygon fill="url(#l_13)" stroke="black" points="431,-371 374,-371 374,-335 431,-335 431,-371"/>
<text text-anchor="start" x="384.5" y="-351.2" font-family="Arial" font-weight="bold" font-size="11.00" fill="black"><a fill="navy" href="../reference/Equipment/Nozzle.html" target="_parent">Nozzle</a></text>
</g>
<!-- 10&#45;&gt;40 -->
<g id="edge7" class="edge"><path fill="none" stroke="#000000" d="M419.289,-409.384C417.147,-407.056 415.185,-404.592 413.5,-402 409.447,-395.763 406.878,-388.222 405.253,-380.983"/>
<polygon fill="#000000" stroke="#000000" points="419.431,-409.515 426.552,-410.651 428.242,-417.662 421.121,-416.525 419.431,-409.515"/>
<polygon fill="#000000" stroke="#000000" points="403.528,-371.118 409.683,-380.193 404.389,-376.043 405.251,-380.969 405.251,-380.969 405.251,-380.969 404.389,-376.043 400.818,-381.744 403.528,-371.118 403.528,-371.118"/>
<text text-anchor="start" x="415.5" y="-391.5" font-family="Arial" font-size="10.00" fill="black"><a fill="navy" href="../reference/Equipment/NozzleOwner.html#dexpi-equipment-nozzleowner-nozzles" target="_parent">Nozzles</a></text>
<text text-anchor="start" x="395.528" y="-374.118" font-family="Arial" font-size="10.00" fill="black">*</text>
<text text-anchor="start" x="399.242" y="-407.662" font-family="Arial" font-size="10.00" fill="black">0..1</text>
</g>
<!-- 18&#45;inner&#45;node -->
<!-- 10&#45;&gt;18&#45;inner&#45;node -->
<g id="edge20" class="edge"><path fill="none" stroke="black" d="M457.5,-407.649C457.5,-384.987 457.5,-356.163 457.5,-354.116L457.5,-351.951"/>
<polygon fill="none" stroke="black" points="454,-407.822 457.5,-417.822 461,-407.822 454,-407.822"/>
</g>
<!-- 11 -->
<g id="node9" class="node"><defs>
<linearGradient id="l_14" gradientUnits="userSpaceOnUse" x1="575.5" y1="-418" x2="575.5" y2="-454">
<stop offset="0" style="stop-color:#ffffbb;stop-opacity:1.;"/>
<stop offset="1" style="stop-color:#ffffee;stop-opacity:1.;"/>
</linearGradient>
</defs>
<polygon fill="url(#l_14)" stroke="black" points="630,-454 521,-454 521,-418 630,-418 630,-454"/>
<text text-anchor="start" x="531.5" y="-434.2" font-family="Arial" font-weight="bold" font-style="italic" font-size="11.00" fill="black"><a fill="navy" href="../reference/Equipment/TaggedPlantItem.html" target="_parent">TaggedPlantItem</a></text>
</g>
<!-- 19&#45;inner&#45;node -->
<!-- 11&#45;&gt;19&#45;inner&#45;node -->
<g id="edge22" class="edge"><path fill="none" stroke="black" d="M575.5,-407.649C575.5,-384.987 575.5,-356.163 575.5,-354.116L575.414,-351.951"/>
<polygon fill="none" stroke="black" points="572,-407.822 575.5,-417.822 579,-407.822 572,-407.822"/>
</g>
<!-- 12 -->
<g id="node10" class="node"><defs>
<linearGradient id="l_15" gradientUnits="userSpaceOnUse" x1="471.5" y1="-584" x2="471.5" y2="-620">
<stop offset="0" style="stop-color:#ffffbb;stop-opacity:1.;"/>
<stop offset="1" style="stop-color:#ffffee;stop-opacity:1.;"/>
</linearGradient>
</defs>
<polygon fill="url(#l_15)" stroke="black" points="529,-620 414,-620 414,-584 529,-584 529,-620"/>
<text text-anchor="start" x="424.5" y="-600.2" font-family="Arial" font-weight="bold" font-style="italic" font-size="11.00" fill="black"><a fill="navy" href="../reference/DexpiModel/ConceptualObject.html" target="_parent">ConceptualObject</a></text>
</g>
<!-- 20&#45;inner&#45;node -->
<!-- 12&#45;&gt;20&#45;inner&#45;node -->
<g id="edge24" class="edge"><path fill="none" stroke="black" d="M471.5,-573.649C471.5,-550.987 471.5,-522.163 471.5,-520.116L471.538,-517.879"/>
<polygon fill="none" stroke="black" points="468,-573.822 471.5,-583.822 475,-573.822 468,-573.822"/>
</g>
<!-- 13 -->
<g id="node11" class="node"><defs>
<linearGradient id="l_16" gradientUnits="userSpaceOnUse" x1="629.5" y1="-584" x2="629.5" y2="-620">
<stop offset="0" style="stop-color:#ffffbb;stop-opacity:1.;"/>
<stop offset="1" style="stop-color:#ffffee;stop-opacity:1.;"/>
</linearGradient>
</defs>
<polygon fill="url(#l_16)" stroke="black" points="701.5,-620 557.5,-620 557.5,-584 701.5,-584 701.5,-620"/>
<text text-anchor="start" x="567.5" y="-600.2" font-family="Arial" font-weight="bold" font-style="italic" font-size="11.00" fill="black"><a fill="navy" href="../reference/Customization/CustomAttributeOwner.html" target="_parent">CustomAttributeOwner</a></text>
</g>
<!-- 52 -->
<g id="node21" class="node"><defs>
<linearGradient id="l_17" gradientUnits="userSpaceOnUse" x1="544.5" y1="-501" x2="544.5" y2="-537">
<stop offset="0" style="stop-color:#ffffbb;stop-opacity:1.;"/>
<stop offset="1" style="stop-color:#ffffee;stop-opacity:1.;"/>
</linearGradient>
</defs>
<polygon fill="url(#l_17)" stroke="black" points="599,-537 490,-537 490,-501 599,-501 599,-537"/>
<text text-anchor="start" x="500.5" y="-517.2" font-family="Arial" font-weight="bold" font-style="italic" font-size="11.00" fill="black"><a fill="navy" href="../reference/Customization/CustomAttribute.html" target="_parent">CustomAttribute</a></text>
</g>
<!-- 13&#45;&gt;52 -->
<g id="edge11" class="edge"><path fill="none" stroke="#000000" d="M552.949,-576.486C550.181,-573.933 547.67,-571.113 545.5,-568 541.402,-562.119 539.944,-554.772 539.815,-547.608"/>
<polygon fill="#000000" stroke="#000000" points="552.998,-576.523 560.196,-576.959 562.563,-583.77 555.365,-583.335 552.998,-576.523"/>
<polygon fill="#000000" stroke="#000000" points="540.425,-537.435 544.319,-547.687 540.126,-542.426 539.827,-547.417 539.827,-547.417 539.827,-547.417 540.126,-542.426 535.335,-547.148 540.425,-537.435 540.425,-537.435"/>
<text text-anchor="start" x="547.5" y="-557.5" font-family="Arial" font-size="10.00" fill="black"><a fill="navy" href="../reference/Customization/CustomAttributeOwner.html#dexpi-customization-customattributeowner-customattributes" target="_parent">CustomAttributes</a></text>
<text text-anchor="start" x="532.425" y="-540.435" font-family="Arial" font-size="10.00" fill="black">*</text>
<text text-anchor="start" x="533.563" y="-573.77" font-family="Arial" font-size="10.00" fill="black">0..1</text>
</g>
<!-- 21&#45;inner&#45;node -->
<!-- 13&#45;&gt;21&#45;inner&#45;node -->
<g id="edge26" class="edge"><path fill="none" stroke="black" d="M629.5,-573.649C629.5,-550.987 629.5,-522.163 629.5,-520.116L629.461,-517.941"/>
<polygon fill="none" stroke="black" points="626,-573.822 629.5,-583.822 633,-573.822 626,-573.822"/>
</g>
<!-- 43 -->
<g id="node18" class="node"><defs>
<linearGradient id="l_18" gradientUnits="userSpaceOnUse" x1="395.5" y1="-501" x2="395.5" y2="-537">
<stop offset="0" style="stop-color:#ffffbb;stop-opacity:1.;"/>
<stop offset="1" style="stop-color:#ffffee;stop-opacity:1.;"/>
</linearGradient>
</defs>
<polygon fill="url(#l_18)" stroke="black" points="452.5,-537 338.5,-537 338.5,-501 452.5,-501 452.5,-537"/>
<text text-anchor="start" x="348.5" y="-517.2" font-family="Arial" font-weight="bold" font-size="11.00" fill="black"><a fill="navy" href="../reference/DexpiModel/ConceptualModel.html" target="_parent">ConceptualModel</a></text>
</g>
<!-- 43&#45;&gt;11 -->
<g id="edge8" class="edge"><path fill="none" stroke="#000000" d="M400.324,-489.016C402.842,-481.86 406.673,-474.862 412.5,-470 444.518,-443.287 465.123,-460.682 510.934,-453.726"/>
<polygon fill="#000000" stroke="#000000" points="400.262,-489.253 402.602,-496.074 397.205,-500.857 394.865,-494.036 400.262,-489.253"/>
<polygon fill="#000000" stroke="#000000" points="520.773,-451.92 511.751,-458.152 515.856,-452.823 510.938,-453.726 510.938,-453.726 510.938,-453.726 515.856,-452.823 510.125,-449.3 520.773,-451.92 520.773,-451.92"/>
<text text-anchor="start" x="415" y="-474.5" font-family="Arial" font-size="10.00" fill="black"><a fill="navy" href="../reference/DexpiModel/ConceptualModel.html#dexpi-dexpimodel-conceptualmodel-taggedplantitems" target="_parent">TaggedPlantItems</a></text>
<text text-anchor="start" x="512.773" y="-454.92" font-family="Arial" font-size="10.00" fill="black">*</text>
<text text-anchor="start" x="368.205" y="-490.857" font-family="Arial" font-size="10.00" fill="black">0..1</text>
</g>
<!-- 46 -->
<g id="node19" class="node"><defs>
<linearGradient id="l_19" gradientUnits="userSpaceOnUse" x1="368.5" y1="-675.5" x2="368.5" y2="-711.5">
<stop offset="0" style="stop-color:#ffffbb;stop-opacity:1.;"/>
<stop offset="1" style="stop-color:#ffffee;stop-opacity:1.;"/>
</linearGradient>
</defs>
<polygon fill="url(#l_19)" stroke="black" points="443,-711.5 294,-711.5 294,-675.5 443,-675.5 443,-711.5"/>
<text text-anchor="start" x="304.5" y="-691.7" font-family="Arial" font-weight="bold" font-size="11.00" fill="black"><a fill="navy" href="../reference/Graphics/AttributeRepresentation.html" target="_parent">AttributeRepresentation</a></text>
</g>
<!-- 46&#45;&gt;12 -->
<g id="edge9" class="edge"><path fill="none" stroke="#000000" d="M388.359,-675.243C404.176,-661.5 426.493,-642.108 444.024,-626.875"/>
<polygon fill="#000000" stroke="#000000" points="451.702,-620.204 447.105,-630.159 447.927,-623.483 444.153,-626.763 444.153,-626.763 444.153,-626.763 447.927,-623.483 441.201,-623.366 451.702,-620.204 451.702,-620.204"/>
<text text-anchor="start" x="435" y="-640.5" font-family="Arial" font-size="10.00" fill="black"><a fill="navy" href="../reference/Graphics/AttributeRepresentation.html#dexpi-graphics-attributerepresentation-object" target="_parent">Object</a></text>
<text text-anchor="start" x="443.702" y="-623.204" font-family="Arial" font-size="10.00" fill="black"></text>
<text text-anchor="start" x="372.359" y="-665.243" font-family="Arial" font-size="10.00" fill="black">*</text>
</g>
<!-- 49 -->
<g id="node20" class="node"><defs>
<linearGradient id="l_20" gradientUnits="userSpaceOnUse" x1="529.5" y1="-675.5" x2="529.5" y2="-711.5">
<stop offset="0" style="stop-color:#ffffbb;stop-opacity:1.;"/>
<stop offset="1" style="stop-color:#ffffee;stop-opacity:1.;"/>
</linearGradient>
</defs>
<polygon fill="url(#l_20)" stroke="black" points="598,-711.5 461,-711.5 461,-675.5 598,-675.5 598,-711.5"/>
<text text-anchor="start" x="471.5" y="-691.7" font-family="Arial" font-weight="bold" font-size="11.00" fill="black"><a fill="navy" href="../reference/Graphics/RepresentationGroup.html" target="_parent">RepresentationGroup</a></text>
</g>
<!-- 49&#45;&gt;12 -->
<g id="edge10" class="edge"><path fill="none" stroke="#000000" d="M518.317,-675.243C509.812,-662.119 497.968,-643.843 488.322,-628.958"/>
<polygon fill="#000000" stroke="#000000" points="482.649,-620.204 491.863,-626.148 485.368,-624.399 488.087,-628.595 488.087,-628.595 488.087,-628.595 485.368,-624.399 484.311,-631.043 482.649,-620.204 482.649,-620.204"/>
<text text-anchor="start" x="504.5" y="-640.5" font-family="Arial" font-size="10.00" fill="black"><a fill="navy" href="../reference/Graphics/RepresentationGroup.html#dexpi-graphics-representationgroup-represents" target="_parent">Represents</a></text>
<text text-anchor="start" x="474.649" y="-623.204" font-family="Arial" font-size="10.00" fill="black"></text>
<text text-anchor="start" x="502.317" y="-665.243" font-family="Arial" font-size="10.00" fill="black">*</text>
</g>
<!-- 14&#45;inner&#45;node&#45;&gt;0 -->
<g id="edge13" class="edge"><path fill="none" stroke="black" d="M317.561,-79.9598C318.972,-79.0276 344.644,-62.0658 367.228,-47.144"/>
</g>
<!-- 15&#45;inner&#45;node&#45;&gt;0 -->
<g id="edge15" class="edge"><path fill="none" stroke="black" d="M457.339,-79.8408C455.543,-78.0605 439.011,-61.6765 424.399,-47.1941"/>
</g>
<!-- 16&#45;inner&#45;node&#45;&gt;7 -->
<g id="edge17" class="edge"><path fill="none" stroke="black" d="M457.5,-199.951C457.5,-198.604 457.5,-169.522 457.5,-150.135"/>
</g>
<!-- 17&#45;inner&#45;node&#45;&gt;8 -->
<g id="edge19" class="edge"><path fill="none" stroke="black" d="M341.64,-351.884C343.027,-350.739 354.434,-341.38 364.5,-335 383.235,-323.126 405.036,-311.306 422.819,-302.142"/>
</g>
<!-- 18&#45;inner&#45;node&#45;&gt;8 -->
<g id="edge21" class="edge"><path fill="none" stroke="black" d="M457.5,-351.951C457.5,-350.604 457.5,-321.522 457.5,-302.135"/>
</g>
<!-- 19&#45;inner&#45;node&#45;&gt;8 -->
<g id="edge23" class="edge"><path fill="none" stroke="black" d="M575.414,-351.951C573.042,-350.604 521.822,-321.522 487.677,-302.135"/>
</g>
<!-- 20&#45;inner&#45;node&#45;&gt;11 -->
<g id="edge25" class="edge"><path fill="none" stroke="black" d="M471.538,-517.879C471.92,-516.686 475.141,-506.959 480.5,-501 497.92,-481.629 522.388,-465.325 542.129,-454.02"/>
</g>
<!-- 21&#45;inner&#45;node&#45;&gt;11 -->
<g id="edge27" class="edge"><path fill="none" stroke="black" d="M629.461,-517.941C628.318,-516.226 602.391,-477.337 586.898,-454.098"/>
</g>
<!-- 22&#45;inner&#45;node&#45;&gt;11 -->
<g id="edge29" class="edge"><path fill="none" stroke="black" d="M766.362,-517.941C762.318,-516.226 670.615,-477.337 615.817,-454.098"/>
</g>
</g>
</svg>