<!DOCTYPE svg PUBLIC "-//W3C//DTD SVG 1.1//EN" "http://www.w3.org/Graphics/SVG/1.1/DTD/svg11.dtd">
<!-- Generated by graphviz version 2.38.0 (20140413.2041)
 --><!-- Title: G Pages: 1 --><svg xmlns="http://www.w3.org/2000/svg" xmlns:xlink="http://www.w3.org/1999/xlink" width="226pt" height="241pt" viewBox="0.00 0.00 226.00 241.00">
<g id="graph0" class="graph" transform="scale(1 1) rotate(0) translate(4 237)">
<!-- 0 -->
<g id="node1" class="node"><defs>
<linearGradient id="l_0" gradientUnits="userSpaceOnUse" x1="109" y1="-1.77636e-014" x2="109" y2="-47">
<stop offset="0" style="stop-color:#ffffbb;stop-opacity:1.;"/>
<stop offset="1" style="stop-color:#ffffee;stop-opacity:1.;"/>
</linearGradient>
</defs>
<polygon fill="url(#l_0)" stroke="black" points="218,-47 0,-47 0,3.55271e-015 218,3.55271e-015 218,-47"/>
<text text-anchor="start" x="35" y="-32.7" font-family="Arial" font-weight="bold" font-size="11.00" fill="black">CustomPercentageAttribute</text>
<text text-anchor="start" x="10" y="-8.5" font-family="Arial" font-size="10.00" fill="black"><a fill="navy" href="../reference/Customization/CustomPercentageAttribute.html#dexpi-customization-custompercentageattribute-value" target="_parent">Value</a>&#160;:</text>
<text text-anchor="start" x="45" y="-8.5" font-family="Arial" font-size="10.00" fill="black"><a fill="navy" href="../reference/PhysicalQuantities/NullablePercentage.html" target="_parent">NullablePercentage</a>&#160;&#160;{redefines&#160;<a fill="navy" href="../reference/Customization/CustomAttribute.html#dexpi-customization-customattribute-value" target="_parent">Value</a>}</text>
<polygon fill="black" stroke="black" points="218.0,-26.5 0.0,-26.5 0.0,-26.5 218.0,-26.5 218.0,-26.5"/>
</g>
<!-- 4 -->
<g id="node2" class="node"><defs>
<linearGradient id="l_1" gradientUnits="userSpaceOnUse" x1="109" y1="-114" x2="109" y2="-150">
<stop offset="0" style="stop-color:#ffffbb;stop-opacity:1.;"/>
<stop offset="1" style="stop-color:#ffffee;stop-opacity:1.;"/>
</linearGradient>
</defs>
<polygon fill="url(#l_1)" stroke="black" points="163.5,-150 54.5,-150 54.5,-114 163.5,-114 163.5,-150"/>
<text text-anchor="start" x="65" y="-130.2" font-family="Arial" font-weight="bold" font-style="italic" font-size="11.00" fill="black"><a fill="navy" href="../reference/Customization/CustomAttribute.html" target="_parent">CustomAttribute</a></text>
</g>
<!-- 5&#45;inner&#45;node -->
<!-- 4&#45;&gt;5&#45;inner&#45;node -->
<g id="edge2" class="edge"><path fill="none" stroke="black" d="M109,-103.603C109,-92.4221 109,-81.8866 109,-81.053L109,-79.8408"/>
<polygon fill="none" stroke="black" points="105.5,-103.793 109,-113.793 112.5,-103.793 105.5,-103.793"/>
</g>
<!-- 8 -->
<g id="node3" class="node"><defs>
<linearGradient id="l_2" gradientUnits="userSpaceOnUse" x1="109" y1="-197" x2="109" y2="-233">
<stop offset="0" style="stop-color:#ffffbb;stop-opacity:1.;"/>
<stop offset="1" style="stop-color:#ffffee;stop-opacity:1.;"/>
</linearGradient>
</defs>
<polygon fill="url(#l_2)" stroke="black" points="181,-233 37,-233 37,-197 181,-197 181,-233"/>
<text text-anchor="start" x="47" y="-213.2" font-family="Arial" font-weight="bold" font-style="italic" font-size="11.00" fill="black"><a fill="navy" href="../reference/Customization/CustomAttributeOwner.html" target="_parent">CustomAttributeOwner</a></text>
</g>
<!-- 8&#45;&gt;4 -->
<g id="edge1" class="edge"><path fill="none" stroke="#000000" d="M109,-184.549C109,-176.604 109,-168.044 109,-160.226"/>
<polygon fill="#000000" stroke="#000000" points="109,-184.822 113,-190.822 109,-196.822 105,-190.822 109,-184.822"/>
<polygon fill="#000000" stroke="#000000" points="109,-150.153 113.5,-160.153 109,-155.153 109,-160.153 109,-160.153 109,-160.153 109,-155.153 104.5,-160.153 109,-150.153 109,-150.153"/>
<text text-anchor="start" x="111" y="-170.5" font-family="Arial" font-size="10.00" fill="black"><a fill="navy" href="../reference/Customization/CustomAttributeOwner.html#dexpi-customization-customattributeowner-customattributes" target="_parent">CustomAttributes</a></text>
<text text-anchor="start" x="101.0" y="-153.153" font-family="Arial" font-size="10.00" fill="black">*</text>
<text text-anchor="start" x="80.0" y="-186.822" font-family="Arial" font-size="10.00" fill="black">0..1</text>
</g>
<!-- 5&#45;inner&#45;node&#45;&gt;0 -->
<g id="edge3" class="edge"><path fill="none" stroke="black" d="M109,-79.8408C109,-78.0605 109,-61.6765 109,-47.1941"/>
</g>
</g>
</svg>