<!DOCTYPE svg PUBLIC "-//W3C//DTD SVG 1.1//EN" "http://www.w3.org/Graphics/SVG/1.1/DTD/svg11.dtd">
<!-- Generated by graphviz version 2.38.0 (20140413.2041)
 --><!-- Title: G Pages: 1 --><svg xmlns="http://www.w3.org/2000/svg" xmlns:xlink="http://www.w3.org/1999/xlink" width="567pt" height="293pt" viewBox="0.00 0.00 567.00 293.00">
<g id="graph0" class="graph" transform="scale(1 1) rotate(0) translate(4 289)">
<!-- 0 -->
<g id="node1" class="node"><defs>
<linearGradient id="l_0" gradientUnits="userSpaceOnUse" x1="287.5" y1="-1.77636e-014" x2="287.5" y2="-36">
<stop offset="0" style="stop-color:#ffffbb;stop-opacity:1.;"/>
<stop offset="1" style="stop-color:#ffffee;stop-opacity:1.;"/>
</linearGradient>
</defs>
<polygon fill="url(#l_0)" stroke="black" points="436,-36 139,-36 139,-0 436,-0 436,-36"/>
<text text-anchor="start" x="149.5" y="-16.2" font-family="Arial" font-weight="bold" font-size="11.00" fill="black">CustomProcessSignalGeneratingSystemComponent</text>
</g>
<!-- 1 -->
<g id="node2" class="node"><defs>
<linearGradient id="l_1" gradientUnits="userSpaceOnUse" x1="213.5" y1="-166" x2="213.5" y2="-202">
<stop offset="0" style="stop-color:#ffffbb;stop-opacity:1.;"/>
<stop offset="1" style="stop-color:#ffffee;stop-opacity:1.;"/>
</linearGradient>
</defs>
<polygon fill="url(#l_1)" stroke="black" points="271,-202 156,-202 156,-166 271,-166 271,-202"/>
<text text-anchor="start" x="166.5" y="-182.2" font-family="Arial" font-weight="bold" font-style="italic" font-size="11.00" fill="black"><a fill="navy" href="../reference/DexpiModel/ConceptualObject.html" target="_parent">ConceptualObject</a></text>
</g>
<!-- 4&#45;inner&#45;node -->
<!-- 1&#45;&gt;4&#45;inner&#45;node -->
<g id="edge5" class="edge"><path fill="none" stroke="black" d="M213.5,-155.649C213.5,-132.987 213.5,-104.163 213.5,-102.116L213.545,-99.8844"/>
<polygon fill="none" stroke="black" points="210,-155.822 213.5,-165.822 217,-155.822 210,-155.822"/>
</g>
<!-- 2 -->
<g id="node3" class="node"><defs>
<linearGradient id="l_2" gradientUnits="userSpaceOnUse" x1="371.5" y1="-166" x2="371.5" y2="-202">
<stop offset="0" style="stop-color:#ffffbb;stop-opacity:1.;"/>
<stop offset="1" style="stop-color:#ffffee;stop-opacity:1.;"/>
</linearGradient>
</defs>
<polygon fill="url(#l_2)" stroke="black" points="443.5,-202 299.5,-202 299.5,-166 443.5,-166 443.5,-202"/>
<text text-anchor="start" x="309.5" y="-182.2" font-family="Arial" font-weight="bold" font-style="italic" font-size="11.00" fill="black"><a fill="navy" href="../reference/Customization/CustomAttributeOwner.html" target="_parent">CustomAttributeOwner</a></text>
</g>
<!-- 18 -->
<g id="node8" class="node"><defs>
<linearGradient id="l_3" gradientUnits="userSpaceOnUse" x1="286.5" y1="-83" x2="286.5" y2="-119">
<stop offset="0" style="stop-color:#ffffbb;stop-opacity:1.;"/>
<stop offset="1" style="stop-color:#ffffee;stop-opacity:1.;"/>
</linearGradient>
</defs>
<polygon fill="url(#l_3)" stroke="black" points="341,-119 232,-119 232,-83 341,-83 341,-119"/>
<text text-anchor="start" x="242.5" y="-99.2" font-family="Arial" font-weight="bold" font-style="italic" font-size="11.00" fill="black"><a fill="navy" href="../reference/Customization/CustomAttribute.html" target="_parent">CustomAttribute</a></text>
</g>
<!-- 2&#45;&gt;18 -->
<g id="edge4" class="edge"><path fill="none" stroke="#000000" d="M294.949,-158.486C292.181,-155.933 289.67,-153.113 287.5,-150 283.402,-144.119 281.944,-136.772 281.815,-129.608"/>
<polygon fill="#000000" stroke="#000000" points="294.998,-158.523 302.196,-158.959 304.563,-165.77 297.365,-165.335 294.998,-158.523"/>
<polygon fill="#000000" stroke="#000000" points="282.425,-119.435 286.319,-129.687 282.126,-124.426 281.827,-129.417 281.827,-129.417 281.827,-129.417 282.126,-124.426 277.335,-129.148 282.425,-119.435 282.425,-119.435"/>
<text text-anchor="start" x="289.5" y="-139.5" font-family="Arial" font-size="10.00" fill="black"><a fill="navy" href="../reference/Customization/CustomAttributeOwner.html#dexpi-customization-customattributeowner-customattributes" target="_parent">CustomAttributes</a></text>
<text text-anchor="start" x="274.425" y="-122.435" font-family="Arial" font-size="10.00" fill="black">*</text>
<text text-anchor="start" x="275.563" y="-155.77" font-family="Arial" font-size="10.00" fill="black">0..1</text>
</g>
<!-- 5&#45;inner&#45;node -->
<!-- 2&#45;&gt;5&#45;inner&#45;node -->
<g id="edge7" class="edge"><path fill="none" stroke="black" d="M371.5,-155.649C371.5,-132.987 371.5,-104.163 371.5,-102.116L371.439,-99.9413"/>
<polygon fill="none" stroke="black" points="368,-155.822 371.5,-165.822 375,-155.822 368,-155.822"/>
</g>
<!-- 3 -->
<g id="node4" class="node"><defs>
<linearGradient id="l_4" gradientUnits="userSpaceOnUse" x1="510.5" y1="-166" x2="510.5" y2="-202">
<stop offset="0" style="stop-color:#ffffbb;stop-opacity:1.;"/>
<stop offset="1" style="stop-color:#ffffee;stop-opacity:1.;"/>
</linearGradient>
</defs>
<polygon fill="url(#l_4)" stroke="black" points="559,-202 462,-202 462,-166 559,-166 559,-202"/>
<text text-anchor="start" x="472.5" y="-182.2" font-family="Arial" font-weight="bold" font-style="italic" font-size="11.00" fill="black"><a fill="navy" href="../reference/Customization/CustomObject.html" target="_parent">CustomObject</a></text>
</g>
<!-- 6&#45;inner&#45;node -->
<!-- 3&#45;&gt;6&#45;inner&#45;node -->
<g id="edge9" class="edge"><path fill="none" stroke="black" d="M510.5,-155.649C510.5,-132.987 510.5,-104.163 510.5,-102.116L510.338,-99.9413"/>
<polygon fill="none" stroke="black" points="507,-155.822 510.5,-165.822 514,-155.822 507,-155.822"/>
</g>
<!-- 9 -->
<g id="node5" class="node"><defs>
<linearGradient id="l_5" gradientUnits="userSpaceOnUse" x1="97.5" y1="-83" x2="97.5" y2="-119">
<stop offset="0" style="stop-color:#ffffbb;stop-opacity:1.;"/>
<stop offset="1" style="stop-color:#ffffee;stop-opacity:1.;"/>
</linearGradient>
</defs>
<polygon fill="url(#l_5)" stroke="black" points="195,-119 0,-119 0,-83 195,-83 195,-119"/>
<text text-anchor="start" x="10.5" y="-99.2" font-family="Arial" font-weight="bold" font-size="11.00" fill="black"><a fill="navy" href="../reference/Instrumentation/ProcessSignalGeneratingSystem.html" target="_parent">ProcessSignalGeneratingSystem</a></text>
</g>
<!-- 9&#45;&gt;0 -->
<g id="edge1" class="edge"><path fill="none" stroke="#000000" d="M116.195,-73.3726C123.001,-65.4197 131.307,-57.3933 140.5,-52 148.705,-47.1867 157.545,-43.075 166.674,-39.5626"/>
<polygon fill="#000000" stroke="#000000" points="116.133,-73.451 115.541,-80.6378 108.679,-82.855 109.271,-75.6683 116.133,-73.451"/>
<polygon fill="#000000" stroke="#000000" points="176.278,-36.1151 168.386,-43.7291 171.572,-37.8044 166.866,-39.4937 166.866,-39.4937 166.866,-39.4937 171.572,-37.8044 165.346,-35.2583 176.278,-36.1151 176.278,-36.1151"/>
<text text-anchor="start" x="143" y="-56.5" font-family="Arial" font-size="10.00" fill="black"><a fill="navy" href="../reference/Instrumentation/ProcessSignalGeneratingSystem.html#dexpi-instrumentation-processsignalgeneratingsystem-customcomponents" target="_parent">CustomComponents</a></text>
<text text-anchor="start" x="168.278" y="-39.1151" font-family="Arial" font-size="10.00" fill="black">*</text>
<text text-anchor="start" x="79.679" y="-72.855" font-family="Arial" font-size="10.00" fill="black">0..1</text>
</g>
<!-- 12 -->
<g id="node6" class="node"><defs>
<linearGradient id="l_6" gradientUnits="userSpaceOnUse" x1="133.5" y1="-249" x2="133.5" y2="-285">
<stop offset="0" style="stop-color:#ffffbb;stop-opacity:1.;"/>
<stop offset="1" style="stop-color:#ffffee;stop-opacity:1.;"/>
</linearGradient>
</defs>
<polygon fill="url(#l_6)" stroke="black" points="208,-285 59,-285 59,-249 208,-249 208,-285"/>
<text text-anchor="start" x="69.5" y="-265.2" font-family="Arial" font-weight="bold" font-size="11.00" fill="black"><a fill="navy" href="../reference/Graphics/AttributeRepresentation.html" target="_parent">AttributeRepresentation</a></text>
</g>
<!-- 12&#45;&gt;1 -->
<g id="edge2" class="edge"><path fill="none" stroke="#000000" d="M150.466,-248.822C161.815,-237.331 176.916,-222.041 189.493,-209.307"/>
<polygon fill="#000000" stroke="#000000" points="196.559,-202.153 192.733,-212.43 193.045,-205.711 189.531,-209.268 189.531,-209.268 189.531,-209.268 193.045,-205.711 186.33,-206.106 196.559,-202.153 196.559,-202.153"/>
<text text-anchor="start" x="184" y="-222.5" font-family="Arial" font-size="10.00" fill="black"><a fill="navy" href="../reference/Graphics/AttributeRepresentation.html#dexpi-graphics-attributerepresentation-object" target="_parent">Object</a></text>
<text text-anchor="start" x="188.559" y="-205.153" font-family="Arial" font-size="10.00" fill="black"></text>
<text text-anchor="start" x="134.466" y="-238.822" font-family="Arial" font-size="10.00" fill="black">*</text>
</g>
<!-- 15 -->
<g id="node7" class="node"><defs>
<linearGradient id="l_7" gradientUnits="userSpaceOnUse" x1="294.5" y1="-249" x2="294.5" y2="-285">
<stop offset="0" style="stop-color:#ffffbb;stop-opacity:1.;"/>
<stop offset="1" style="stop-color:#ffffee;stop-opacity:1.;"/>
</linearGradient>
</defs>
<polygon fill="url(#l_7)" stroke="black" points="363,-285 226,-285 226,-249 363,-249 363,-285"/>
<text text-anchor="start" x="236.5" y="-265.2" font-family="Arial" font-weight="bold" font-size="11.00" fill="black"><a fill="navy" href="../reference/Graphics/RepresentationGroup.html" target="_parent">RepresentationGroup</a></text>
</g>
<!-- 15&#45;&gt;1 -->
<g id="edge3" class="edge"><path fill="none" stroke="#000000" d="M277.322,-248.822C265.831,-237.331 250.541,-222.041 237.807,-209.307"/>
<polygon fill="#000000" stroke="#000000" points="230.653,-202.153 240.906,-206.042 234.189,-205.689 237.724,-209.224 237.724,-209.224 237.724,-209.224 234.189,-205.689 234.542,-212.406 230.653,-202.153 230.653,-202.153"/>
<text text-anchor="start" x="263.5" y="-222.5" font-family="Arial" font-size="10.00" fill="black"><a fill="navy" href="../reference/Graphics/RepresentationGroup.html#dexpi-graphics-representationgroup-represents" target="_parent">Represents</a></text>
<text text-anchor="start" x="222.653" y="-205.153" font-family="Arial" font-size="10.00" fill="black"></text>
<text text-anchor="start" x="261.322" y="-238.822" font-family="Arial" font-size="10.00" fill="black">*</text>
</g>
<!-- 4&#45;inner&#45;node&#45;&gt;0 -->
<g id="edge6" class="edge"><path fill="none" stroke="black" d="M213.545,-99.8844C213.992,-98.745 217.713,-89.4285 222.5,-83 235.552,-65.4708 253.421,-48.2426 267.12,-36.0847"/>
</g>
<!-- 5&#45;inner&#45;node&#45;&gt;0 -->
<g id="edge8" class="edge"><path fill="none" stroke="black" d="M371.439,-99.9413C369.661,-98.2263 329.331,-59.3368 305.231,-36.0976"/>
</g>
<!-- 6&#45;inner&#45;node&#45;&gt;0 -->
<g id="edge10" class="edge"><path fill="none" stroke="black" d="M510.338,-99.9413C505.61,-98.2239 398.252,-59.2281 334.303,-36.0003"/>
</g>
</g>
</svg>