<!DOCTYPE svg PUBLIC "-//W3C//DTD SVG 1.1//EN" "http://www.w3.org/Graphics/SVG/1.1/DTD/svg11.dtd">
<!-- Generated by graphviz version 2.38.0 (20140413.2041)
 --><!-- Title: G Pages: 1 --><svg xmlns="http://www.w3.org/2000/svg" xmlns:xlink="http://www.w3.org/1999/xlink" width="263pt" height="241pt" viewBox="0.00 0.00 263.00 241.00">
<g id="graph0" class="graph" transform="scale(1 1) rotate(0) translate(4 237)">
<!-- 0 -->
<g id="node1" class="node"><defs>
<linearGradient id="l_0" gradientUnits="userSpaceOnUse" x1="127.5" y1="-1.77636e-014" x2="127.5" y2="-47">
<stop offset="0" style="stop-color:#ffffbb;stop-opacity:1.;"/>
<stop offset="1" style="stop-color:#ffffee;stop-opacity:1.;"/>
</linearGradient>
</defs>
<polygon fill="url(#l_0)" stroke="black" points="255,-47 0,-47 0,3.55271e-015 255,3.55271e-015 255,-47"/>
<text text-anchor="start" x="31.5" y="-32.7" font-family="Arial" font-weight="bold" font-size="11.00" fill="black">CustomElectricalFrequencyAttribute</text>
<text text-anchor="start" x="10.5" y="-8.5" font-family="Arial" font-size="10.00" fill="black"><a fill="navy" href="../reference/Customization/CustomElectricalFrequencyAttribute.html#dexpi-customization-customelectricalfrequencyattribute-value" target="_parent">Value</a>&#160;:</text>
<text text-anchor="start" x="45.5" y="-8.5" font-family="Arial" font-size="10.00" fill="black"><a fill="navy" href="../reference/PhysicalQuantities/NullableElectricalFrequency.html" target="_parent">NullableElectricalFrequency</a>&#160;&#160;{redefines&#160;<a fill="navy" href="../reference/Customization/CustomAttribute.html#dexpi-customization-customattribute-value" target="_parent">Value</a>}</text>
<polygon fill="black" stroke="black" points="255.0,-26.5 0.0,-26.5 0.0,-26.5 255.0,-26.5 255.0,-26.5"/>
</g>
<!-- 4 -->
<g id="node2" class="node"><defs>
<linearGradient id="l_1" gradientUnits="userSpaceOnUse" x1="127.5" y1="-114" x2="127.5" y2="-150">
<stop offset="0" style="stop-color:#ffffbb;stop-opacity:1.;"/>
<stop offset="1" style="stop-color:#ffffee;stop-opacity:1.;"/>
</linearGradient>
</defs>
<polygon fill="url(#l_1)" stroke="black" points="182,-150 73,-150 73,-114 182,-114 182,-150"/>
<text text-anchor="start" x="83.5" y="-130.2" font-family="Arial" font-weight="bold" font-style="italic" font-size="11.00" fill="black"><a fill="navy" href="../reference/Customization/CustomAttribute.html" target="_parent">CustomAttribute</a></text>
</g>
<!-- 5&#45;inner&#45;node -->
<!-- 4&#45;&gt;5&#45;inner&#45;node -->
<g id="edge2" class="edge"><path fill="none" stroke="black" d="M127.5,-103.603C127.5,-92.4221 127.5,-81.8866 127.5,-81.053L127.5,-79.8408"/>
<polygon fill="none" stroke="black" points="124,-103.793 127.5,-113.793 131,-103.793 124,-103.793"/>
</g>
<!-- 8 -->
<g id="node3" class="node"><defs>
<linearGradient id="l_2" gradientUnits="userSpaceOnUse" x1="127.5" y1="-197" x2="127.5" y2="-233">
<stop offset="0" style="stop-color:#ffffbb;stop-opacity:1.;"/>
<stop offset="1" style="stop-color:#ffffee;stop-opacity:1.;"/>
</linearGradient>
</defs>
<polygon fill="url(#l_2)" stroke="black" points="199.5,-233 55.5,-233 55.5,-197 199.5,-197 199.5,-233"/>
<text text-anchor="start" x="65.5" y="-213.2" font-family="Arial" font-weight="bold" font-style="italic" font-size="11.00" fill="black"><a fill="navy" href="../reference/Customization/CustomAttributeOwner.html" target="_parent">CustomAttributeOwner</a></text>
</g>
<!-- 8&#45;&gt;4 -->
<g id="edge1" class="edge"><path fill="none" stroke="#000000" d="M127.5,-184.549C127.5,-176.604 127.5,-168.044 127.5,-160.226"/>
<polygon fill="#000000" stroke="#000000" points="127.5,-184.822 131.5,-190.822 127.5,-196.822 123.5,-190.822 127.5,-184.822"/>
<polygon fill="#000000" stroke="#000000" points="127.5,-150.153 132,-160.153 127.5,-155.153 127.5,-160.153 127.5,-160.153 127.5,-160.153 127.5,-155.153 123,-160.153 127.5,-150.153 127.5,-150.153"/>
<text text-anchor="start" x="129.5" y="-170.5" font-family="Arial" font-size="10.00" fill="black"><a fill="navy" href="../reference/Customization/CustomAttributeOwner.html#dexpi-customization-customattributeowner-customattributes" target="_parent">CustomAttributes</a></text>
<text text-anchor="start" x="119.5" y="-153.153" font-family="Arial" font-size="10.00" fill="black">*</text>
<text text-anchor="start" x="98.5" y="-186.822" font-family="Arial" font-size="10.00" fill="black">0..1</text>
</g>
<!-- 5&#45;inner&#45;node&#45;&gt;0 -->
<g id="edge3" class="edge"><path fill="none" stroke="black" d="M127.5,-79.8408C127.5,-78.0605 127.5,-61.6765 127.5,-47.1941"/>
</g>
</g>
</svg>