<!DOCTYPE svg PUBLIC "-//W3C//DTD SVG 1.1//EN" "http://www.w3.org/Graphics/SVG/1.1/DTD/svg11.dtd">
<!-- Generated by graphviz version 2.38.0 (20140413.2041)
 --><!-- Title: G Pages: 1 --><svg xmlns="http://www.w3.org/2000/svg" xmlns:xlink="http://www.w3.org/1999/xlink" width="867pt" height="758pt" viewBox="0.00 0.00 866.50 758.00">
<g id="graph0" class="graph" transform="scale(1 1) rotate(0) translate(4 754)">
<!-- 0 -->
<g id="node1" class="node"><defs>
<linearGradient id="l_0" gradientUnits="userSpaceOnUse" x1="418.5" y1="-3.55271e-014" x2="418.5" y2="-77">
<stop offset="0" style="stop-color:#ffffbb;stop-opacity:1.;"/>
<stop offset="1" style="stop-color:#ffffee;stop-opacity:1.;"/>
</linearGradient>
</defs>
<polygon fill="url(#l_0)" stroke="black" points="569,-77 268,-77 268,-0 569,-0 569,-77"/>
<text text-anchor="start" x="382.5" y="-62.7" font-family="Arial" font-weight="bold" font-size="11.00" fill="black">CustomMotor</text>
<text text-anchor="start" x="278.5" y="-38.5" font-family="Arial" font-size="10.00" fill="black"><a fill="navy" href="../reference/Equipment/CustomMotor.html#dexpi-equipment-custommotor-alternatingcurrentfrequency" target="_parent">AlternatingCurrentFrequency</a>&#160;:</text>
<text text-anchor="start" x="412.5" y="-38.5" font-family="Arial" font-size="10.00" fill="black"><a fill="navy" href="../reference/PhysicalQuantities/NullableElectricalFrequency.html" target="_parent">NullableElectricalFrequency</a>&#160;[0..1]</text>
<text text-anchor="start" x="278.5" y="-23.5" font-family="Arial" font-size="10.00" fill="black"><a fill="navy" href="../reference/Equipment/CustomMotor.html#dexpi-equipment-custommotor-fueltype" target="_parent">FuelType</a>&#160;:</text>
<text text-anchor="start" x="412.5" y="-23.5" font-family="Arial" font-size="10.00" fill="black"><a fill="navy" href="../reference/DataTypes/NullableString.html" target="_parent">NullableString</a>&#160;[0..1]</text>
<text text-anchor="start" x="278.5" y="-8.5" font-family="Arial" font-size="10.00" fill="black"><a fill="navy" href="../reference/Equipment/CustomMotor.html#dexpi-equipment-custommotor-nominalvoltage" target="_parent">NominalVoltage</a>&#160;:</text>
<text text-anchor="start" x="412.5" y="-8.5" font-family="Arial" font-size="10.00" fill="black"><a fill="navy" href="../reference/PhysicalQuantities/NullableVoltage.html" target="_parent">NullableVoltage</a>&#160;[0..1]</text>
<polygon fill="black" stroke="black" points="569.0,-56.5 268.0,-56.5 268.0,-56.5 569.0,-56.5 569.0,-56.5"/>
</g>
<!-- 8 -->
<g id="node2" class="node"><defs>
<linearGradient id="l_1" gradientUnits="userSpaceOnUse" x1="766.5" y1="-697" x2="766.5" y2="-750">
<stop offset="0" style="stop-color:#fbfbfb;stop-opacity:1.;"/>
<stop offset="1" style="stop-color:#fefefe;stop-opacity:1.;"/>
</linearGradient>
</defs>
<polygon fill="url(#l_1)" stroke="black" points="858.5,-739.0 847.5,-750.0 674.5,-750.0 674.5,-697.0 858.5,-697.0"/><path d="M858.5,-739.0L847.5,-739.0 847.5,-750.0" fill="none" stroke="black"/>
<text text-anchor="start" x="684.5" y="-735.5" font-family="Arial" font-size="10.00" fill="black">For&#160;the&#160;sake&#160;of&#160;clarity,&#160;superclasses&#160;</text>
<text text-anchor="start" x="684.5" y="-720.5" font-family="Arial" font-size="10.00" fill="black">and&#160;associations&#160;of&#160;<a fill="navy" href="../reference/PlantStructure/TechnicalItem.html" target="_parent">TechnicalItem</a>&#160;are</text>
<text text-anchor="start" x="684.5" y="-705.5" font-family="Arial" font-size="10.00" fill="black">not&#160;shown&#160;in&#160;this&#160;diagram.</text>
</g>
<!-- 7 -->
<g id="node3" class="node"><defs>
<linearGradient id="l_2" gradientUnits="userSpaceOnUse" x1="766.5" y1="-614" x2="766.5" y2="-650">
<stop offset="0" style="stop-color:#ffffbb;stop-opacity:1.;"/>
<stop offset="1" style="stop-color:#ffffee;stop-opacity:1.;"/>
</linearGradient>
</defs>
<polygon fill="url(#l_2)" stroke="black" points="813,-650 720,-650 720,-614 813,-614 813,-650"/>
<text text-anchor="start" x="730.5" y="-630.2" font-family="Arial" font-weight="bold" font-style="italic" font-size="11.00" fill="black"><a fill="navy" href="../reference/PlantStructure/TechnicalItem.html" target="_parent">TechnicalItem</a></text>
</g>
<!-- 8&#45;&gt;7 -->
<g id="edge1" class="edge"><path fill="none" stroke="#000000" stroke-dasharray="5,2" d="M766.5,-696.613C766.5,-681.641 766.5,-663.222 766.5,-650.063"/>
</g>
<!-- 26&#45;inner&#45;node -->
<!-- 7&#45;&gt;26&#45;inner&#45;node -->
<g id="edge28" class="edge"><path fill="none" stroke="black" d="M766.5,-603.649C766.5,-580.987 766.5,-552.163 766.5,-550.116L766.362,-547.941"/>
<polygon fill="none" stroke="black" points="763,-603.822 766.5,-613.822 770,-603.822 763,-603.822"/>
</g>
<!-- 10 -->
<g id="node4" class="node"><defs>
<linearGradient id="l_3" gradientUnits="userSpaceOnUse" x1="363.5" y1="-144" x2="363.5" y2="-180">
<stop offset="0" style="stop-color:#ffffbb;stop-opacity:1.;"/>
<stop offset="1" style="stop-color:#ffffee;stop-opacity:1.;"/>
</linearGradient>
</defs>
<polygon fill="url(#l_3)" stroke="black" points="412,-180 315,-180 315,-144 412,-144 412,-180"/>
<text text-anchor="start" x="325.5" y="-160.2" font-family="Arial" font-weight="bold" font-style="italic" font-size="11.00" fill="black"><a fill="navy" href="../reference/Customization/CustomObject.html" target="_parent">CustomObject</a></text>
</g>
<!-- 18&#45;inner&#45;node -->
<!-- 10&#45;&gt;18&#45;inner&#45;node -->
<g id="edge12" class="edge"><path fill="none" stroke="black" d="M363.5,-133.603C363.5,-122.422 363.5,-111.887 363.5,-111.053L363.54,-109.949"/>
<polygon fill="none" stroke="black" points="360,-133.793 363.5,-143.793 367,-133.793 360,-133.793"/>
</g>
<!-- 11 -->
<g id="node5" class="node"><defs>
<linearGradient id="l_4" gradientUnits="userSpaceOnUse" x1="457.5" y1="-144" x2="457.5" y2="-180">
<stop offset="0" style="stop-color:#ffffbb;stop-opacity:1.;"/>
<stop offset="1" style="stop-color:#ffffee;stop-opacity:1.;"/>
</linearGradient>
</defs>
<polygon fill="url(#l_4)" stroke="black" points="484.5,-180 430.5,-180 430.5,-144 484.5,-144 484.5,-180"/>
<text text-anchor="start" x="441.5" y="-160.2" font-family="Arial" font-weight="bold" font-size="11.00" fill="black"><a fill="navy" href="../reference/Equipment/Motor.html" target="_parent">Motor</a></text>
</g>
<!-- 19&#45;inner&#45;node -->
<!-- 11&#45;&gt;19&#45;inner&#45;node -->
<g id="edge14" class="edge"><path fill="none" stroke="black" d="M457.5,-133.603C457.5,-122.422 457.5,-111.887 457.5,-111.053L457.472,-109.949"/>
<polygon fill="none" stroke="black" points="454,-133.793 457.5,-143.793 461,-133.793 454,-133.793"/>
</g>
<!-- 12 -->
<g id="node6" class="node"><defs>
<linearGradient id="l_5" gradientUnits="userSpaceOnUse" x1="457.5" y1="-296" x2="457.5" y2="-332">
<stop offset="0" style="stop-color:#ffffbb;stop-opacity:1.;"/>
<stop offset="1" style="stop-color:#ffffee;stop-opacity:1.;"/>
</linearGradient>
</defs>
<polygon fill="url(#l_5)" stroke="black" points="496.5,-332 418.5,-332 418.5,-296 496.5,-296 496.5,-332"/>
<text text-anchor="start" x="428.5" y="-312.2" font-family="Arial" font-weight="bold" font-style="italic" font-size="11.00" fill="black"><a fill="navy" href="../reference/Equipment/Equipment.html" target="_parent">Equipment</a></text>
</g>
<!-- 29 -->
<g id="node12" class="node"><defs>
<linearGradient id="l_6" gradientUnits="userSpaceOnUse" x1="51.5" y1="-213" x2="51.5" y2="-249">
<stop offset="0" style="stop-color:#ffffbb;stop-opacity:1.;"/>
<stop offset="1" style="stop-color:#ffffee;stop-opacity:1.;"/>
</linearGradient>
</defs>
<polygon fill="url(#l_6)" stroke="black" points="103,-249 0,-249 0,-213 103,-213 103,-249"/>
<text text-anchor="start" x="10.5" y="-229.2" font-family="Arial" font-weight="bold" font-size="11.00" fill="black"><a fill="navy" href="../reference/Equipment/DryingChamber.html" target="_parent">DryingChamber</a></text>
</g>
<!-- 12&#45;&gt;29 -->
<g id="edge2" class="edge"><path fill="none" stroke="#000000" d="M406.027,-313.446C342.858,-312.672 233.105,-307.013 143.5,-280 123.707,-274.033 103.174,-263.771 86.54,-254.264"/>
<polygon fill="#000000" stroke="#000000" points="406.398,-313.449 412.429,-309.495 418.398,-313.542 412.367,-317.495 406.398,-313.449"/>
<polygon fill="#000000" stroke="#000000" points="77.7299,-249.091 88.6319,-250.274 82.0418,-251.623 86.3536,-254.154 86.3536,-254.154 86.3536,-254.154 82.0418,-251.623 84.0753,-258.035 77.7299,-249.091 77.7299,-249.091"/>
<text text-anchor="start" x="146" y="-269.5" font-family="Arial" font-size="10.00" fill="black"><a fill="navy" href="../reference/Equipment/Equipment.html#dexpi-equipment-equipment-dryingchambers" target="_parent">DryingChambers</a></text>
<text text-anchor="start" x="69.7299" y="-252.091" font-family="Arial" font-size="10.00" fill="black">*</text>
<text text-anchor="start" x="389.398" y="-314.542" font-family="Arial" font-size="10.00" fill="black">0..1</text>
</g>
<!-- 32 -->
<g id="node13" class="node"><defs>
<linearGradient id="l_7" gradientUnits="userSpaceOnUse" x1="155.5" y1="-213" x2="155.5" y2="-249">
<stop offset="0" style="stop-color:#ffffbb;stop-opacity:1.;"/>
<stop offset="1" style="stop-color:#ffffee;stop-opacity:1.;"/>
</linearGradient>
</defs>
<polygon fill="url(#l_7)" stroke="black" points="189.5,-249 121.5,-249 121.5,-213 189.5,-213 189.5,-249"/>
<text text-anchor="start" x="131.5" y="-229.2" font-family="Arial" font-weight="bold" font-size="11.00" fill="black"><a fill="navy" href="../reference/Equipment/GearBox.html" target="_parent">GearBox</a></text>
</g>
<!-- 12&#45;&gt;32 -->
<g id="edge3" class="edge"><path fill="none" stroke="#000000" d="M406.201,-307.816C366.621,-302.972 310.82,-294.294 263.5,-280 241.05,-273.218 217.118,-262.924 197.503,-253.606"/>
<polygon fill="#000000" stroke="#000000" points="406.275,-307.824 412.702,-304.553 418.193,-309.227 411.767,-312.498 406.275,-307.824"/>
<polygon fill="#000000" stroke="#000000" points="188.246,-249.129 199.207,-249.432 192.747,-251.306 197.248,-253.483 197.248,-253.483 197.248,-253.483 192.747,-251.306 195.289,-257.534 188.246,-249.129 188.246,-249.129"/>
<text text-anchor="start" x="266" y="-269.5" font-family="Arial" font-size="10.00" fill="black"><a fill="navy" href="../reference/Equipment/Equipment.html#dexpi-equipment-equipment-gearboxes" target="_parent">GearBoxes</a></text>
<text text-anchor="start" x="180.246" y="-252.129" font-family="Arial" font-size="10.00" fill="black">*</text>
<text text-anchor="start" x="389.193" y="-299.227" font-family="Arial" font-size="10.00" fill="black">0..1</text>
</g>
<!-- 35 -->
<g id="node14" class="node"><defs>
<linearGradient id="l_8" gradientUnits="userSpaceOnUse" x1="270.5" y1="-213" x2="270.5" y2="-249">
<stop offset="0" style="stop-color:#ffffbb;stop-opacity:1.;"/>
<stop offset="1" style="stop-color:#ffffee;stop-opacity:1.;"/>
</linearGradient>
</defs>
<polygon fill="url(#l_8)" stroke="black" points="333.5,-249 207.5,-249 207.5,-213 333.5,-213 333.5,-249"/>
<text text-anchor="start" x="217.5" y="-229.2" font-family="Arial" font-weight="bold" font-size="11.00" fill="black"><a fill="navy" href="../reference/Equipment/MotorAsComponent.html" target="_parent">MotorAsComponent</a></text>
</g>
<!-- 12&#45;&gt;35 -->
<g id="edge4" class="edge"><path fill="none" stroke="#000000" d="M406.67,-301.044C387.398,-295.7 365.526,-288.637 346.5,-280 331.23,-273.068 315.388,-263.498 302.145,-254.726"/>
<polygon fill="#000000" stroke="#000000" points="406.692,-301.049 413.521,-298.734 418.285,-304.147 411.456,-306.463 406.692,-301.049"/>
<polygon fill="#000000" stroke="#000000" points="293.85,-249.112 304.654,-250.99 297.991,-251.914 302.132,-254.717 302.132,-254.717 302.132,-254.717 297.991,-251.914 299.61,-258.443 293.85,-249.112 293.85,-249.112"/>
<text text-anchor="start" x="349" y="-269.5" font-family="Arial" font-size="10.00" fill="black"><a fill="navy" href="../reference/Equipment/Equipment.html#dexpi-equipment-equipment-motors" target="_parent">Motors</a></text>
<text text-anchor="start" x="285.85" y="-252.112" font-family="Arial" font-size="10.00" fill="black">*</text>
<text text-anchor="start" x="389.285" y="-294.147" font-family="Arial" font-size="10.00" fill="black">0..1</text>
</g>
<!-- 38 -->
<g id="node15" class="node"><defs>
<linearGradient id="l_9" gradientUnits="userSpaceOnUse" x1="395.5" y1="-213" x2="395.5" y2="-249">
<stop offset="0" style="stop-color:#ffffbb;stop-opacity:1.;"/>
<stop offset="1" style="stop-color:#ffffee;stop-opacity:1.;"/>
</linearGradient>
</defs>
<polygon fill="url(#l_9)" stroke="black" points="439,-249 352,-249 352,-213 439,-213 439,-249"/>
<text text-anchor="start" x="362.5" y="-229.2" font-family="Arial" font-weight="bold" font-size="11.00" fill="black"><a fill="navy" href="../reference/Equipment/SprayNozzle.html" target="_parent">SprayNozzle</a></text>
</g>
<!-- 12&#45;&gt;38 -->
<g id="edge5" class="edge"><path fill="none" stroke="#000000" d="M407.357,-297.548C399.867,-293.067 393.12,-287.33 388.5,-280 384.594,-273.802 384.151,-266.272 385.269,-259.033"/>
<polygon fill="#000000" stroke="#000000" points="407.588,-297.664 414.747,-296.802 418.297,-303.08 411.137,-303.942 407.588,-297.664"/>
<polygon fill="#000000" stroke="#000000" points="387.69,-249.16 389.678,-259.944 386.499,-254.016 385.308,-258.873 385.308,-258.873 385.308,-258.873 386.499,-254.016 380.937,-257.801 387.69,-249.16 387.69,-249.16"/>
<text text-anchor="start" x="391" y="-269.5" font-family="Arial" font-size="10.00" fill="black"><a fill="navy" href="../reference/Equipment/Equipment.html#dexpi-equipment-equipment-spraynozzles" target="_parent">SprayNozzles</a></text>
<text text-anchor="start" x="379.69" y="-252.16" font-family="Arial" font-size="10.00" fill="black">*</text>
<text text-anchor="start" x="406.297" y="-293.08" font-family="Arial" font-size="10.00" fill="black">0..1</text>
</g>
<!-- 20&#45;inner&#45;node -->
<!-- 12&#45;&gt;20&#45;inner&#45;node -->
<g id="edge16" class="edge"><path fill="none" stroke="black" d="M457.5,-285.649C457.5,-262.987 457.5,-234.163 457.5,-232.116L457.5,-229.951"/>
<polygon fill="none" stroke="black" points="454,-285.822 457.5,-295.822 461,-285.822 454,-285.822"/>
</g>
<!-- 13 -->
<g id="node7" class="node"><defs>
<linearGradient id="l_10" gradientUnits="userSpaceOnUse" x1="341.5" y1="-448" x2="341.5" y2="-484">
<stop offset="0" style="stop-color:#ffffbb;stop-opacity:1.;"/>
<stop offset="1" style="stop-color:#ffffee;stop-opacity:1.;"/>
</linearGradient>
</defs>
<polygon fill="url(#l_10)" stroke="black" points="394,-484 289,-484 289,-448 394,-448 394,-484"/>
<text text-anchor="start" x="299.5" y="-464.2" font-family="Arial" font-weight="bold" font-style="italic" font-size="11.00" fill="black"><a fill="navy" href="../reference/Equipment/ChamberOwner.html" target="_parent">ChamberOwner</a></text>
</g>
<!-- 41 -->
<g id="node16" class="node"><defs>
<linearGradient id="l_11" gradientUnits="userSpaceOnUse" x1="277.5" y1="-365" x2="277.5" y2="-401">
<stop offset="0" style="stop-color:#ffffbb;stop-opacity:1.;"/>
<stop offset="1" style="stop-color:#ffffee;stop-opacity:1.;"/>
</linearGradient>
</defs>
<polygon fill="url(#l_11)" stroke="black" points="312,-401 243,-401 243,-365 312,-365 312,-401"/>
<text text-anchor="start" x="253.5" y="-381.2" font-family="Arial" font-weight="bold" font-size="11.00" fill="black"><a fill="navy" href="../reference/Equipment/Chamber.html" target="_parent">Chamber</a></text>
</g>
<!-- 13&#45;&gt;41 -->
<g id="edge6" class="edge"><path fill="none" stroke="#000000" d="M295.598,-440.09C292.972,-437.591 290.565,-434.896 288.5,-432 284.181,-425.945 281.527,-418.461 279.905,-411.22"/>
<polygon fill="#000000" stroke="#000000" points="295.859,-440.3 303.041,-440.955 305.199,-447.835 298.017,-447.181 295.859,-440.3"/>
<polygon fill="#000000" stroke="#000000" points="278.234,-401.318 284.336,-410.43 279.066,-406.248 279.898,-411.179 279.898,-411.179 279.898,-411.179 279.066,-406.248 275.461,-411.928 278.234,-401.318 278.234,-401.318"/>
<text text-anchor="start" x="291" y="-421.5" font-family="Arial" font-size="10.00" fill="black"><a fill="navy" href="../reference/Equipment/ChamberOwner.html#dexpi-equipment-chamberowner-chambers" target="_parent">Chambers</a></text>
<text text-anchor="start" x="270.234" y="-404.318" font-family="Arial" font-size="10.00" fill="black">*</text>
<text text-anchor="start" x="276.199" y="-437.835" font-family="Arial" font-size="10.00" fill="black">0..1</text>
</g>
<!-- 21&#45;inner&#45;node -->
<!-- 13&#45;&gt;21&#45;inner&#45;node -->
<g id="edge18" class="edge"><path fill="none" stroke="black" d="M341.5,-437.649C341.5,-414.987 341.5,-386.163 341.5,-384.116L341.64,-381.884"/>
<polygon fill="none" stroke="black" points="338,-437.822 341.5,-447.822 345,-437.822 338,-437.822"/>
</g>
<!-- 14 -->
<g id="node8" class="node"><defs>
<linearGradient id="l_12" gradientUnits="userSpaceOnUse" x1="457.5" y1="-448" x2="457.5" y2="-484">
<stop offset="0" style="stop-color:#ffffbb;stop-opacity:1.;"/>
<stop offset="1" style="stop-color:#ffffee;stop-opacity:1.;"/>
</linearGradient>
</defs>
<polygon fill="url(#l_12)" stroke="black" points="502.5,-484 412.5,-484 412.5,-448 502.5,-448 502.5,-484"/>
<text text-anchor="start" x="422.5" y="-464.2" font-family="Arial" font-weight="bold" font-style="italic" font-size="11.00" fill="black"><a fill="navy" href="../reference/Equipment/NozzleOwner.html" target="_parent">NozzleOwner</a></text>
</g>
<!-- 44 -->
<g id="node17" class="node"><defs>
<linearGradient id="l_13" gradientUnits="userSpaceOnUse" x1="402.5" y1="-365" x2="402.5" y2="-401">
<stop offset="0" style="stop-color:#ffffbb;stop-opacity:1.;"/>
<stop offset="1" style="stop-color:#ffffee;stop-opacity:1.;"/>
</linearGradient>
</defs>
<polygon fill="url(#l_13)" stroke="black" points="431,-401 374,-401 374,-365 431,-365 431,-401"/>
<text text-anchor="start" x="384.5" y="-381.2" font-family="Arial" font-weight="bold" font-size="11.00" fill="black"><a fill="navy" href="../reference/Equipment/Nozzle.html" target="_parent">Nozzle</a></text>
</g>
<!-- 14&#45;&gt;44 -->
<g id="edge7" class="edge"><path fill="none" stroke="#000000" d="M419.289,-439.384C417.147,-437.056 415.185,-434.592 413.5,-432 409.447,-425.763 406.878,-418.222 405.253,-410.983"/>
<polygon fill="#000000" stroke="#000000" points="419.431,-439.515 426.552,-440.651 428.242,-447.662 421.121,-446.525 419.431,-439.515"/>
<polygon fill="#000000" stroke="#000000" points="403.528,-401.118 409.683,-410.193 404.389,-406.043 405.251,-410.969 405.251,-410.969 405.251,-410.969 404.389,-406.043 400.818,-411.744 403.528,-401.118 403.528,-401.118"/>
<text text-anchor="start" x="415.5" y="-421.5" font-family="Arial" font-size="10.00" fill="black"><a fill="navy" href="../reference/Equipment/NozzleOwner.html#dexpi-equipment-nozzleowner-nozzles" target="_parent">Nozzles</a></text>
<text text-anchor="start" x="395.528" y="-404.118" font-family="Arial" font-size="10.00" fill="black">*</text>
<text text-anchor="start" x="399.242" y="-437.662" font-family="Arial" font-size="10.00" fill="black">0..1</text>
</g>
<!-- 22&#45;inner&#45;node -->
<!-- 14&#45;&gt;22&#45;inner&#45;node -->
<g id="edge20" class="edge"><path fill="none" stroke="black" d="M457.5,-437.649C457.5,-414.987 457.5,-386.163 457.5,-384.116L457.5,-381.951"/>
<polygon fill="none" stroke="black" points="454,-437.822 457.5,-447.822 461,-437.822 454,-437.822"/>
</g>
<!-- 15 -->
<g id="node9" class="node"><defs>
<linearGradient id="l_14" gradientUnits="userSpaceOnUse" x1="575.5" y1="-448" x2="575.5" y2="-484">
<stop offset="0" style="stop-color:#ffffbb;stop-opacity:1.;"/>
<stop offset="1" style="stop-color:#ffffee;stop-opacity:1.;"/>
</linearGradient>
</defs>
<polygon fill="url(#l_14)" stroke="black" points="630,-484 521,-484 521,-448 630,-448 630,-484"/>
<text text-anchor="start" x="531.5" y="-464.2" font-family="Arial" font-weight="bold" font-style="italic" font-size="11.00" fill="black"><a fill="navy" href="../reference/Equipment/TaggedPlantItem.html" target="_parent">TaggedPlantItem</a></text>
</g>
<!-- 23&#45;inner&#45;node -->
<!-- 15&#45;&gt;23&#45;inner&#45;node -->
<g id="edge22" class="edge"><path fill="none" stroke="black" d="M575.5,-437.649C575.5,-414.987 575.5,-386.163 575.5,-384.116L575.414,-381.951"/>
<polygon fill="none" stroke="black" points="572,-437.822 575.5,-447.822 579,-437.822 572,-437.822"/>
</g>
<!-- 16 -->
<g id="node10" class="node"><defs>
<linearGradient id="l_15" gradientUnits="userSpaceOnUse" x1="471.5" y1="-614" x2="471.5" y2="-650">
<stop offset="0" style="stop-color:#ffffbb;stop-opacity:1.;"/>
<stop offset="1" style="stop-color:#ffffee;stop-opacity:1.;"/>
</linearGradient>
</defs>
<polygon fill="url(#l_15)" stroke="black" points="529,-650 414,-650 414,-614 529,-614 529,-650"/>
<text text-anchor="start" x="424.5" y="-630.2" font-family="Arial" font-weight="bold" font-style="italic" font-size="11.00" fill="black"><a fill="navy" href="../reference/DexpiModel/ConceptualObject.html" target="_parent">ConceptualObject</a></text>
</g>
<!-- 24&#45;inner&#45;node -->
<!-- 16&#45;&gt;24&#45;inner&#45;node -->
<g id="edge24" class="edge"><path fill="none" stroke="black" d="M471.5,-603.649C471.5,-580.987 471.5,-552.163 471.5,-550.116L471.538,-547.879"/>
<polygon fill="none" stroke="black" points="468,-603.822 471.5,-613.822 475,-603.822 468,-603.822"/>
</g>
<!-- 17 -->
<g id="node11" class="node"><defs>
<linearGradient id="l_16" gradientUnits="userSpaceOnUse" x1="629.5" y1="-614" x2="629.5" y2="-650">
<stop offset="0" style="stop-color:#ffffbb;stop-opacity:1.;"/>
<stop offset="1" style="stop-color:#ffffee;stop-opacity:1.;"/>
</linearGradient>
</defs>
<polygon fill="url(#l_16)" stroke="black" points="701.5,-650 557.5,-650 557.5,-614 701.5,-614 701.5,-650"/>
<text text-anchor="start" x="567.5" y="-630.2" font-family="Arial" font-weight="bold" font-style="italic" font-size="11.00" fill="black"><a fill="navy" href="../reference/Customization/CustomAttributeOwner.html" target="_parent">CustomAttributeOwner</a></text>
</g>
<!-- 56 -->
<g id="node21" class="node"><defs>
<linearGradient id="l_17" gradientUnits="userSpaceOnUse" x1="544.5" y1="-531" x2="544.5" y2="-567">
<stop offset="0" style="stop-color:#ffffbb;stop-opacity:1.;"/>
<stop offset="1" style="stop-color:#ffffee;stop-opacity:1.;"/>
</linearGradient>
</defs>
<polygon fill="url(#l_17)" stroke="black" points="599,-567 490,-567 490,-531 599,-531 599,-567"/>
<text text-anchor="start" x="500.5" y="-547.2" font-family="Arial" font-weight="bold" font-style="italic" font-size="11.00" fill="black"><a fill="navy" href="../reference/Customization/CustomAttribute.html" target="_parent">CustomAttribute</a></text>
</g>
<!-- 17&#45;&gt;56 -->
<g id="edge11" class="edge"><path fill="none" stroke="#000000" d="M552.949,-606.486C550.181,-603.933 547.67,-601.113 545.5,-598 541.402,-592.119 539.944,-584.772 539.815,-577.608"/>
<polygon fill="#000000" stroke="#000000" points="552.998,-606.523 560.196,-606.959 562.563,-613.77 555.365,-613.335 552.998,-606.523"/>
<polygon fill="#000000" stroke="#000000" points="540.425,-567.435 544.319,-577.687 540.126,-572.426 539.827,-577.417 539.827,-577.417 539.827,-577.417 540.126,-572.426 535.335,-577.148 540.425,-567.435 540.425,-567.435"/>
<text text-anchor="start" x="547.5" y="-587.5" font-family="Arial" font-size="10.00" fill="black"><a fill="navy" href="../reference/Customization/CustomAttributeOwner.html#dexpi-customization-customattributeowner-customattributes" target="_parent">CustomAttributes</a></text>
<text text-anchor="start" x="532.425" y="-570.435" font-family="Arial" font-size="10.00" fill="black">*</text>
<text text-anchor="start" x="533.563" y="-603.77" font-family="Arial" font-size="10.00" fill="black">0..1</text>
</g>
<!-- 25&#45;inner&#45;node -->
<!-- 17&#45;&gt;25&#45;inner&#45;node -->
<g id="edge26" class="edge"><path fill="none" stroke="black" d="M629.5,-603.649C629.5,-580.987 629.5,-552.163 629.5,-550.116L629.461,-547.941"/>
<polygon fill="none" stroke="black" points="626,-603.822 629.5,-613.822 633,-603.822 626,-603.822"/>
</g>
<!-- 47 -->
<g id="node18" class="node"><defs>
<linearGradient id="l_18" gradientUnits="userSpaceOnUse" x1="395.5" y1="-531" x2="395.5" y2="-567">
<stop offset="0" style="stop-color:#ffffbb;stop-opacity:1.;"/>
<stop offset="1" style="stop-color:#ffffee;stop-opacity:1.;"/>
</linearGradient>
</defs>
<polygon fill="url(#l_18)" stroke="black" points="452.5,-567 338.5,-567 338.5,-531 452.5,-531 452.5,-567"/>
<text text-anchor="start" x="348.5" y="-547.2" font-family="Arial" font-weight="bold" font-size="11.00" fill="black"><a fill="navy" href="../reference/DexpiModel/ConceptualModel.html" target="_parent">ConceptualModel</a></text>
</g>
<!-- 47&#45;&gt;15 -->
<g id="edge8" class="edge"><path fill="none" stroke="#000000" d="M400.324,-519.016C402.842,-511.86 406.673,-504.862 412.5,-500 444.518,-473.287 465.123,-490.682 510.934,-483.726"/>
<polygon fill="#000000" stroke="#000000" points="400.262,-519.253 402.602,-526.074 397.205,-530.857 394.865,-524.036 400.262,-519.253"/>
<polygon fill="#000000" stroke="#000000" points="520.773,-481.92 511.751,-488.152 515.856,-482.823 510.938,-483.726 510.938,-483.726 510.938,-483.726 515.856,-482.823 510.125,-479.3 520.773,-481.92 520.773,-481.92"/>
<text text-anchor="start" x="415" y="-504.5" font-family="Arial" font-size="10.00" fill="black"><a fill="navy" href="../reference/DexpiModel/ConceptualModel.html#dexpi-dexpimodel-conceptualmodel-taggedplantitems" target="_parent">TaggedPlantItems</a></text>
<text text-anchor="start" x="512.773" y="-484.92" font-family="Arial" font-size="10.00" fill="black">*</text>
<text text-anchor="start" x="368.205" y="-520.857" font-family="Arial" font-size="10.00" fill="black">0..1</text>
</g>
<!-- 50 -->
<g id="node19" class="node"><defs>
<linearGradient id="l_19" gradientUnits="userSpaceOnUse" x1="368.5" y1="-705.5" x2="368.5" y2="-741.5">
<stop offset="0" style="stop-color:#ffffbb;stop-opacity:1.;"/>
<stop offset="1" style="stop-color:#ffffee;stop-opacity:1.;"/>
</linearGradient>
</defs>
<polygon fill="url(#l_19)" stroke="black" points="443,-741.5 294,-741.5 294,-705.5 443,-705.5 443,-741.5"/>
<text text-anchor="start" x="304.5" y="-721.7" font-family="Arial" font-weight="bold" font-size="11.00" fill="black"><a fill="navy" href="../reference/Graphics/AttributeRepresentation.html" target="_parent">AttributeRepresentation</a></text>
</g>
<!-- 50&#45;&gt;16 -->
<g id="edge9" class="edge"><path fill="none" stroke="#000000" d="M388.359,-705.243C404.176,-691.5 426.493,-672.108 444.024,-656.875"/>
<polygon fill="#000000" stroke="#000000" points="451.702,-650.204 447.105,-660.159 447.927,-653.483 444.153,-656.763 444.153,-656.763 444.153,-656.763 447.927,-653.483 441.201,-653.366 451.702,-650.204 451.702,-650.204"/>
<text text-anchor="start" x="435" y="-670.5" font-family="Arial" font-size="10.00" fill="black"><a fill="navy" href="../reference/Graphics/AttributeRepresentation.html#dexpi-graphics-attributerepresentation-object" target="_parent">Object</a></text>
<text text-anchor="start" x="443.702" y="-653.204" font-family="Arial" font-size="10.00" fill="black"></text>
<text text-anchor="start" x="372.359" y="-695.243" font-family="Arial" font-size="10.00" fill="black">*</text>
</g>
<!-- 53 -->
<g id="node20" class="node"><defs>
<linearGradient id="l_20" gradientUnits="userSpaceOnUse" x1="529.5" y1="-705.5" x2="529.5" y2="-741.5">
<stop offset="0" style="stop-color:#ffffbb;stop-opacity:1.;"/>
<stop offset="1" style="stop-color:#ffffee;stop-opacity:1.;"/>
</linearGradient>
</defs>
<polygon fill="url(#l_20)" stroke="black" points="598,-741.5 461,-741.5 461,-705.5 598,-705.5 598,-741.5"/>
<text text-anchor="start" x="471.5" y="-721.7" font-family="Arial" font-weight="bold" font-size="11.00" fill="black"><a fill="navy" href="../reference/Graphics/RepresentationGroup.html" target="_parent">RepresentationGroup</a></text>
</g>
<!-- 53&#45;&gt;16 -->
<g id="edge10" class="edge"><path fill="none" stroke="#000000" d="M518.317,-705.243C509.812,-692.119 497.968,-673.843 488.322,-658.958"/>
<polygon fill="#000000" stroke="#000000" points="482.649,-650.204 491.863,-656.148 485.368,-654.399 488.087,-658.595 488.087,-658.595 488.087,-658.595 485.368,-654.399 484.311,-661.043 482.649,-650.204 482.649,-650.204"/>
<text text-anchor="start" x="504.5" y="-670.5" font-family="Arial" font-size="10.00" fill="black"><a fill="navy" href="../reference/Graphics/RepresentationGroup.html#dexpi-graphics-representationgroup-represents" target="_parent">Represents</a></text>
<text text-anchor="start" x="474.649" y="-653.204" font-family="Arial" font-size="10.00" fill="black"></text>
<text text-anchor="start" x="502.317" y="-695.243" font-family="Arial" font-size="10.00" fill="black">*</text>
</g>
<!-- 18&#45;inner&#45;node&#45;&gt;0 -->
<g id="edge13" class="edge"><path fill="none" stroke="black" d="M363.54,-109.949C364.321,-108.948 376.446,-93.4062 389.108,-77.1752"/>
</g>
<!-- 19&#45;inner&#45;node&#45;&gt;0 -->
<g id="edge15" class="edge"><path fill="none" stroke="black" d="M457.472,-109.949C456.918,-108.948 448.32,-93.4062 439.342,-77.1752"/>
</g>
<!-- 20&#45;inner&#45;node&#45;&gt;11 -->
<g id="edge17" class="edge"><path fill="none" stroke="black" d="M457.5,-229.951C457.5,-228.604 457.5,-199.522 457.5,-180.135"/>
</g>
<!-- 21&#45;inner&#45;node&#45;&gt;12 -->
<g id="edge19" class="edge"><path fill="none" stroke="black" d="M341.64,-381.884C343.027,-380.739 354.434,-371.38 364.5,-365 383.235,-353.126 405.036,-341.306 422.819,-332.142"/>
</g>
<!-- 22&#45;inner&#45;node&#45;&gt;12 -->
<g id="edge21" class="edge"><path fill="none" stroke="black" d="M457.5,-381.951C457.5,-380.604 457.5,-351.522 457.5,-332.135"/>
</g>
<!-- 23&#45;inner&#45;node&#45;&gt;12 -->
<g id="edge23" class="edge"><path fill="none" stroke="black" d="M575.414,-381.951C573.042,-380.604 521.822,-351.522 487.677,-332.135"/>
</g>
<!-- 24&#45;inner&#45;node&#45;&gt;15 -->
<g id="edge25" class="edge"><path fill="none" stroke="black" d="M471.538,-547.879C471.92,-546.686 475.141,-536.959 480.5,-531 497.92,-511.629 522.388,-495.325 542.129,-484.02"/>
</g>
<!-- 25&#45;inner&#45;node&#45;&gt;15 -->
<g id="edge27" class="edge"><path fill="none" stroke="black" d="M629.461,-547.941C628.318,-546.226 602.391,-507.337 586.898,-484.098"/>
</g>
<!-- 26&#45;inner&#45;node&#45;&gt;15 -->
<g id="edge29" class="edge"><path fill="none" stroke="black" d="M766.362,-547.941C762.318,-546.226 670.615,-507.337 615.817,-484.098"/>
</g>
</g>
</svg>