<!DOCTYPE svg PUBLIC "-//W3C//DTD SVG 1.1//EN" "http://www.w3.org/Graphics/SVG/1.1/DTD/svg11.dtd">
<!-- Generated by graphviz version 2.38.0 (20140413.2041)
 --><!-- Title: G Pages: 1 --><svg xmlns="http://www.w3.org/2000/svg" xmlns:xlink="http://www.w3.org/1999/xlink" width="862pt" height="800pt" viewBox="0.00 0.00 861.50 800.00">
<g id="graph0" class="graph" transform="scale(1 1) rotate(0) translate(4 796)">
<!-- 0 -->
<g id="node1" class="node"><defs>
<linearGradient id="l_0" gradientUnits="userSpaceOnUse" x1="513.5" y1="-83" x2="513.5" y2="-119">
<stop offset="0" style="stop-color:#ffffbb;stop-opacity:1.;"/>
<stop offset="1" style="stop-color:#ffffee;stop-opacity:1.;"/>
</linearGradient>
</defs>
<polygon fill="url(#l_0)" stroke="black" points="563,-119 464,-119 464,-83 563,-83 563,-119"/>
<text text-anchor="start" x="474.5" y="-99.2" font-family="Arial" font-weight="bold" font-size="11.00" fill="black">CustomBlower</text>
</g>
<!-- 23 -->
<g id="node12" class="node"><defs>
<linearGradient id="l_1" gradientUnits="userSpaceOnUse" x1="513.5" y1="-1.77636e-014" x2="513.5" y2="-36">
<stop offset="0" style="stop-color:#ffffbb;stop-opacity:1.;"/>
<stop offset="1" style="stop-color:#ffffee;stop-opacity:1.;"/>
</linearGradient>
</defs>
<polygon fill="url(#l_1)" stroke="black" points="545,-36 482,-36 482,-0 545,-0 545,-36"/>
<text text-anchor="start" x="492.5" y="-16.2" font-family="Arial" font-weight="bold" font-size="11.00" fill="black"><a fill="navy" href="../reference/Equipment/Impeller.html" target="_parent">Impeller</a></text>
</g>
<!-- 0&#45;&gt;23 -->
<g id="edge2" class="edge"><path fill="none" stroke="#000000" d="M513.5,-70.5488C513.5,-62.6036 513.5,-54.0441 513.5,-46.2265"/>
<polygon fill="#000000" stroke="#000000" points="513.5,-70.822 517.5,-76.822 513.5,-82.822 509.5,-76.822 513.5,-70.822"/>
<polygon fill="#000000" stroke="#000000" points="513.5,-36.1533 518,-46.1532 513.5,-41.1533 513.5,-46.1533 513.5,-46.1533 513.5,-46.1533 513.5,-41.1533 509,-46.1533 513.5,-36.1533 513.5,-36.1533"/>
<text text-anchor="start" x="515.5" y="-56.5" font-family="Arial" font-size="10.00" fill="black"><a fill="navy" href="../reference/Equipment/CustomBlower.html#dexpi-equipment-customblower-impellers" target="_parent">Impellers</a></text>
<text text-anchor="start" x="505.5" y="-39.1533" font-family="Arial" font-size="10.00" fill="black">*</text>
<text text-anchor="start" x="484.5" y="-72.822" font-family="Arial" font-size="10.00" fill="black">0..1</text>
</g>
<!-- 2 -->
<g id="node2" class="node"><defs>
<linearGradient id="l_2" gradientUnits="userSpaceOnUse" x1="761.5" y1="-739" x2="761.5" y2="-792">
<stop offset="0" style="stop-color:#fbfbfb;stop-opacity:1.;"/>
<stop offset="1" style="stop-color:#fefefe;stop-opacity:1.;"/>
</linearGradient>
</defs>
<polygon fill="url(#l_2)" stroke="black" points="853.5,-781.0 842.5,-792.0 669.5,-792.0 669.5,-739.0 853.5,-739.0"/><path d="M853.5,-781.0L842.5,-781.0 842.5,-792.0" fill="none" stroke="black"/>
<text text-anchor="start" x="679.5" y="-777.5" font-family="Arial" font-size="10.00" fill="black">For&#160;the&#160;sake&#160;of&#160;clarity,&#160;superclasses&#160;</text>
<text text-anchor="start" x="679.5" y="-762.5" font-family="Arial" font-size="10.00" fill="black">and&#160;associations&#160;of&#160;<a fill="navy" href="../reference/PlantStructure/TechnicalItem.html" target="_parent">TechnicalItem</a>&#160;are</text>
<text text-anchor="start" x="679.5" y="-747.5" font-family="Arial" font-size="10.00" fill="black">not&#160;shown&#160;in&#160;this&#160;diagram.</text>
</g>
<!-- 1 -->
<g id="node3" class="node"><defs>
<linearGradient id="l_3" gradientUnits="userSpaceOnUse" x1="761.5" y1="-656" x2="761.5" y2="-692">
<stop offset="0" style="stop-color:#ffffbb;stop-opacity:1.;"/>
<stop offset="1" style="stop-color:#ffffee;stop-opacity:1.;"/>
</linearGradient>
</defs>
<polygon fill="url(#l_3)" stroke="black" points="808,-692 715,-692 715,-656 808,-656 808,-692"/>
<text text-anchor="start" x="725.5" y="-672.2" font-family="Arial" font-weight="bold" font-style="italic" font-size="11.00" fill="black"><a fill="navy" href="../reference/PlantStructure/TechnicalItem.html" target="_parent">TechnicalItem</a></text>
</g>
<!-- 2&#45;&gt;1 -->
<g id="edge1" class="edge"><path fill="none" stroke="#000000" stroke-dasharray="5,2" d="M761.5,-738.613C761.5,-723.641 761.5,-705.222 761.5,-692.063"/>
</g>
<!-- 20&#45;inner&#45;node -->
<!-- 1&#45;&gt;20&#45;inner&#45;node -->
<g id="edge29" class="edge"><path fill="none" stroke="black" d="M761.5,-645.649C761.5,-622.987 761.5,-594.163 761.5,-592.116L761.365,-589.941"/>
<polygon fill="none" stroke="black" points="758,-645.822 761.5,-655.822 765,-645.822 758,-645.822"/>
</g>
<!-- 4 -->
<g id="node4" class="node"><defs>
<linearGradient id="l_4" gradientUnits="userSpaceOnUse" x1="457.5" y1="-186" x2="457.5" y2="-222">
<stop offset="0" style="stop-color:#ffffbb;stop-opacity:1.;"/>
<stop offset="1" style="stop-color:#ffffee;stop-opacity:1.;"/>
</linearGradient>
</defs>
<polygon fill="url(#l_4)" stroke="black" points="486.5,-222 428.5,-222 428.5,-186 486.5,-186 486.5,-222"/>
<text text-anchor="start" x="438.5" y="-202.2" font-family="Arial" font-weight="bold" font-size="11.00" fill="black"><a fill="navy" href="../reference/Equipment/Blower.html" target="_parent">Blower</a></text>
</g>
<!-- 12&#45;inner&#45;node -->
<!-- 4&#45;&gt;12&#45;inner&#45;node -->
<g id="edge13" class="edge"><path fill="none" stroke="black" d="M457.5,-175.603C457.5,-164.422 457.5,-153.887 457.5,-153.053L457.661,-151.857"/>
<polygon fill="none" stroke="black" points="454,-175.793 457.5,-185.793 461,-175.793 454,-175.793"/>
</g>
<!-- 5 -->
<g id="node5" class="node"><defs>
<linearGradient id="l_5" gradientUnits="userSpaceOnUse" x1="553.5" y1="-186" x2="553.5" y2="-222">
<stop offset="0" style="stop-color:#ffffbb;stop-opacity:1.;"/>
<stop offset="1" style="stop-color:#ffffee;stop-opacity:1.;"/>
</linearGradient>
</defs>
<polygon fill="url(#l_5)" stroke="black" points="602,-222 505,-222 505,-186 602,-186 602,-222"/>
<text text-anchor="start" x="515.5" y="-202.2" font-family="Arial" font-weight="bold" font-style="italic" font-size="11.00" fill="black"><a fill="navy" href="../reference/Customization/CustomObject.html" target="_parent">CustomObject</a></text>
</g>
<!-- 13&#45;inner&#45;node -->
<!-- 5&#45;&gt;13&#45;inner&#45;node -->
<g id="edge15" class="edge"><path fill="none" stroke="black" d="M553.5,-175.603C553.5,-164.422 553.5,-153.887 553.5,-153.053L553.385,-151.857"/>
<polygon fill="none" stroke="black" points="550,-175.793 553.5,-185.793 557,-175.793 550,-175.793"/>
</g>
<!-- 6 -->
<g id="node6" class="node"><defs>
<linearGradient id="l_6" gradientUnits="userSpaceOnUse" x1="457.5" y1="-338" x2="457.5" y2="-374">
<stop offset="0" style="stop-color:#ffffbb;stop-opacity:1.;"/>
<stop offset="1" style="stop-color:#ffffee;stop-opacity:1.;"/>
</linearGradient>
</defs>
<polygon fill="url(#l_6)" stroke="black" points="496.5,-374 418.5,-374 418.5,-338 496.5,-338 496.5,-374"/>
<text text-anchor="start" x="428.5" y="-354.2" font-family="Arial" font-weight="bold" font-style="italic" font-size="11.00" fill="black"><a fill="navy" href="../reference/Equipment/Equipment.html" target="_parent">Equipment</a></text>
</g>
<!-- 26 -->
<g id="node13" class="node"><defs>
<linearGradient id="l_7" gradientUnits="userSpaceOnUse" x1="51.5" y1="-255" x2="51.5" y2="-291">
<stop offset="0" style="stop-color:#ffffbb;stop-opacity:1.;"/>
<stop offset="1" style="stop-color:#ffffee;stop-opacity:1.;"/>
</linearGradient>
</defs>
<polygon fill="url(#l_7)" stroke="black" points="103,-291 0,-291 0,-255 103,-255 103,-291"/>
<text text-anchor="start" x="10.5" y="-271.2" font-family="Arial" font-weight="bold" font-size="11.00" fill="black"><a fill="navy" href="../reference/Equipment/DryingChamber.html" target="_parent">DryingChamber</a></text>
</g>
<!-- 6&#45;&gt;26 -->
<g id="edge3" class="edge"><path fill="none" stroke="#000000" d="M406.027,-355.446C342.858,-354.672 233.105,-349.013 143.5,-322 123.707,-316.033 103.174,-305.771 86.54,-296.264"/>
<polygon fill="#000000" stroke="#000000" points="406.398,-355.449 412.429,-351.495 418.398,-355.542 412.367,-359.495 406.398,-355.449"/>
<polygon fill="#000000" stroke="#000000" points="77.7299,-291.091 88.6319,-292.274 82.0418,-293.623 86.3536,-296.154 86.3536,-296.154 86.3536,-296.154 82.0418,-293.623 84.0753,-300.035 77.7299,-291.091 77.7299,-291.091"/>
<text text-anchor="start" x="146" y="-311.5" font-family="Arial" font-size="10.00" fill="black"><a fill="navy" href="../reference/Equipment/Equipment.html#dexpi-equipment-equipment-dryingchambers" target="_parent">DryingChambers</a></text>
<text text-anchor="start" x="69.7299" y="-294.091" font-family="Arial" font-size="10.00" fill="black">*</text>
<text text-anchor="start" x="389.398" y="-356.542" font-family="Arial" font-size="10.00" fill="black">0..1</text>
</g>
<!-- 29 -->
<g id="node14" class="node"><defs>
<linearGradient id="l_8" gradientUnits="userSpaceOnUse" x1="155.5" y1="-255" x2="155.5" y2="-291">
<stop offset="0" style="stop-color:#ffffbb;stop-opacity:1.;"/>
<stop offset="1" style="stop-color:#ffffee;stop-opacity:1.;"/>
</linearGradient>
</defs>
<polygon fill="url(#l_8)" stroke="black" points="189.5,-291 121.5,-291 121.5,-255 189.5,-255 189.5,-291"/>
<text text-anchor="start" x="131.5" y="-271.2" font-family="Arial" font-weight="bold" font-size="11.00" fill="black"><a fill="navy" href="../reference/Equipment/GearBox.html" target="_parent">GearBox</a></text>
</g>
<!-- 6&#45;&gt;29 -->
<g id="edge4" class="edge"><path fill="none" stroke="#000000" d="M406.201,-349.816C366.621,-344.972 310.82,-336.294 263.5,-322 241.05,-315.218 217.118,-304.924 197.503,-295.606"/>
<polygon fill="#000000" stroke="#000000" points="406.275,-349.824 412.702,-346.553 418.193,-351.227 411.767,-354.498 406.275,-349.824"/>
<polygon fill="#000000" stroke="#000000" points="188.246,-291.129 199.207,-291.432 192.747,-293.306 197.248,-295.483 197.248,-295.483 197.248,-295.483 192.747,-293.306 195.289,-299.534 188.246,-291.129 188.246,-291.129"/>
<text text-anchor="start" x="266" y="-311.5" font-family="Arial" font-size="10.00" fill="black"><a fill="navy" href="../reference/Equipment/Equipment.html#dexpi-equipment-equipment-gearboxes" target="_parent">GearBoxes</a></text>
<text text-anchor="start" x="180.246" y="-294.129" font-family="Arial" font-size="10.00" fill="black">*</text>
<text text-anchor="start" x="389.193" y="-341.227" font-family="Arial" font-size="10.00" fill="black">0..1</text>
</g>
<!-- 32 -->
<g id="node15" class="node"><defs>
<linearGradient id="l_9" gradientUnits="userSpaceOnUse" x1="270.5" y1="-255" x2="270.5" y2="-291">
<stop offset="0" style="stop-color:#ffffbb;stop-opacity:1.;"/>
<stop offset="1" style="stop-color:#ffffee;stop-opacity:1.;"/>
</linearGradient>
</defs>
<polygon fill="url(#l_9)" stroke="black" points="333.5,-291 207.5,-291 207.5,-255 333.5,-255 333.5,-291"/>
<text text-anchor="start" x="217.5" y="-271.2" font-family="Arial" font-weight="bold" font-size="11.00" fill="black"><a fill="navy" href="../reference/Equipment/MotorAsComponent.html" target="_parent">MotorAsComponent</a></text>
</g>
<!-- 6&#45;&gt;32 -->
<g id="edge5" class="edge"><path fill="none" stroke="#000000" d="M406.67,-343.044C387.398,-337.7 365.526,-330.637 346.5,-322 331.23,-315.068 315.388,-305.498 302.145,-296.726"/>
<polygon fill="#000000" stroke="#000000" points="406.692,-343.049 413.521,-340.734 418.285,-346.147 411.456,-348.463 406.692,-343.049"/>
<polygon fill="#000000" stroke="#000000" points="293.85,-291.112 304.654,-292.99 297.991,-293.914 302.132,-296.717 302.132,-296.717 302.132,-296.717 297.991,-293.914 299.61,-300.443 293.85,-291.112 293.85,-291.112"/>
<text text-anchor="start" x="349" y="-311.5" font-family="Arial" font-size="10.00" fill="black"><a fill="navy" href="../reference/Equipment/Equipment.html#dexpi-equipment-equipment-motors" target="_parent">Motors</a></text>
<text text-anchor="start" x="285.85" y="-294.112" font-family="Arial" font-size="10.00" fill="black">*</text>
<text text-anchor="start" x="389.285" y="-336.147" font-family="Arial" font-size="10.00" fill="black">0..1</text>
</g>
<!-- 35 -->
<g id="node16" class="node"><defs>
<linearGradient id="l_10" gradientUnits="userSpaceOnUse" x1="395.5" y1="-255" x2="395.5" y2="-291">
<stop offset="0" style="stop-color:#ffffbb;stop-opacity:1.;"/>
<stop offset="1" style="stop-color:#ffffee;stop-opacity:1.;"/>
</linearGradient>
</defs>
<polygon fill="url(#l_10)" stroke="black" points="439,-291 352,-291 352,-255 439,-255 439,-291"/>
<text text-anchor="start" x="362.5" y="-271.2" font-family="Arial" font-weight="bold" font-size="11.00" fill="black"><a fill="navy" href="../reference/Equipment/SprayNozzle.html" target="_parent">SprayNozzle</a></text>
</g>
<!-- 6&#45;&gt;35 -->
<g id="edge6" class="edge"><path fill="none" stroke="#000000" d="M407.357,-339.548C399.867,-335.067 393.12,-329.33 388.5,-322 384.594,-315.802 384.151,-308.272 385.269,-301.033"/>
<polygon fill="#000000" stroke="#000000" points="407.588,-339.664 414.747,-338.802 418.297,-345.08 411.137,-345.942 407.588,-339.664"/>
<polygon fill="#000000" stroke="#000000" points="387.69,-291.16 389.678,-301.944 386.499,-296.016 385.308,-300.873 385.308,-300.873 385.308,-300.873 386.499,-296.016 380.937,-299.801 387.69,-291.16 387.69,-291.16"/>
<text text-anchor="start" x="391" y="-311.5" font-family="Arial" font-size="10.00" fill="black"><a fill="navy" href="../reference/Equipment/Equipment.html#dexpi-equipment-equipment-spraynozzles" target="_parent">SprayNozzles</a></text>
<text text-anchor="start" x="379.69" y="-294.16" font-family="Arial" font-size="10.00" fill="black">*</text>
<text text-anchor="start" x="406.297" y="-335.08" font-family="Arial" font-size="10.00" fill="black">0..1</text>
</g>
<!-- 14&#45;inner&#45;node -->
<!-- 6&#45;&gt;14&#45;inner&#45;node -->
<g id="edge17" class="edge"><path fill="none" stroke="black" d="M457.5,-327.649C457.5,-304.987 457.5,-276.163 457.5,-274.116L457.5,-271.951"/>
<polygon fill="none" stroke="black" points="454,-327.822 457.5,-337.822 461,-327.822 454,-327.822"/>
</g>
<!-- 7 -->
<g id="node7" class="node"><defs>
<linearGradient id="l_11" gradientUnits="userSpaceOnUse" x1="341.5" y1="-490" x2="341.5" y2="-526">
<stop offset="0" style="stop-color:#ffffbb;stop-opacity:1.;"/>
<stop offset="1" style="stop-color:#ffffee;stop-opacity:1.;"/>
</linearGradient>
</defs>
<polygon fill="url(#l_11)" stroke="black" points="394,-526 289,-526 289,-490 394,-490 394,-526"/>
<text text-anchor="start" x="299.5" y="-506.2" font-family="Arial" font-weight="bold" font-style="italic" font-size="11.00" fill="black"><a fill="navy" href="../reference/Equipment/ChamberOwner.html" target="_parent">ChamberOwner</a></text>
</g>
<!-- 38 -->
<g id="node17" class="node"><defs>
<linearGradient id="l_12" gradientUnits="userSpaceOnUse" x1="277.5" y1="-407" x2="277.5" y2="-443">
<stop offset="0" style="stop-color:#ffffbb;stop-opacity:1.;"/>
<stop offset="1" style="stop-color:#ffffee;stop-opacity:1.;"/>
</linearGradient>
</defs>
<polygon fill="url(#l_12)" stroke="black" points="312,-443 243,-443 243,-407 312,-407 312,-443"/>
<text text-anchor="start" x="253.5" y="-423.2" font-family="Arial" font-weight="bold" font-size="11.00" fill="black"><a fill="navy" href="../reference/Equipment/Chamber.html" target="_parent">Chamber</a></text>
</g>
<!-- 7&#45;&gt;38 -->
<g id="edge7" class="edge"><path fill="none" stroke="#000000" d="M295.598,-482.09C292.972,-479.591 290.565,-476.896 288.5,-474 284.181,-467.945 281.527,-460.461 279.905,-453.22"/>
<polygon fill="#000000" stroke="#000000" points="295.859,-482.3 303.041,-482.955 305.199,-489.835 298.017,-489.181 295.859,-482.3"/>
<polygon fill="#000000" stroke="#000000" points="278.234,-443.318 284.336,-452.43 279.066,-448.248 279.898,-453.179 279.898,-453.179 279.898,-453.179 279.066,-448.248 275.461,-453.928 278.234,-443.318 278.234,-443.318"/>
<text text-anchor="start" x="291" y="-463.5" font-family="Arial" font-size="10.00" fill="black"><a fill="navy" href="../reference/Equipment/ChamberOwner.html#dexpi-equipment-chamberowner-chambers" target="_parent">Chambers</a></text>
<text text-anchor="start" x="270.234" y="-446.318" font-family="Arial" font-size="10.00" fill="black">*</text>
<text text-anchor="start" x="276.199" y="-479.835" font-family="Arial" font-size="10.00" fill="black">0..1</text>
</g>
<!-- 15&#45;inner&#45;node -->
<!-- 7&#45;&gt;15&#45;inner&#45;node -->
<g id="edge19" class="edge"><path fill="none" stroke="black" d="M341.5,-479.649C341.5,-456.987 341.5,-428.163 341.5,-426.116L341.64,-423.884"/>
<polygon fill="none" stroke="black" points="338,-479.822 341.5,-489.822 345,-479.822 338,-479.822"/>
</g>
<!-- 8 -->
<g id="node8" class="node"><defs>
<linearGradient id="l_13" gradientUnits="userSpaceOnUse" x1="457.5" y1="-490" x2="457.5" y2="-526">
<stop offset="0" style="stop-color:#ffffbb;stop-opacity:1.;"/>
<stop offset="1" style="stop-color:#ffffee;stop-opacity:1.;"/>
</linearGradient>
</defs>
<polygon fill="url(#l_13)" stroke="black" points="502.5,-526 412.5,-526 412.5,-490 502.5,-490 502.5,-526"/>
<text text-anchor="start" x="422.5" y="-506.2" font-family="Arial" font-weight="bold" font-style="italic" font-size="11.00" fill="black"><a fill="navy" href="../reference/Equipment/NozzleOwner.html" target="_parent">NozzleOwner</a></text>
</g>
<!-- 41 -->
<g id="node18" class="node"><defs>
<linearGradient id="l_14" gradientUnits="userSpaceOnUse" x1="402.5" y1="-407" x2="402.5" y2="-443">
<stop offset="0" style="stop-color:#ffffbb;stop-opacity:1.;"/>
<stop offset="1" style="stop-color:#ffffee;stop-opacity:1.;"/>
</linearGradient>
</defs>
<polygon fill="url(#l_14)" stroke="black" points="431,-443 374,-443 374,-407 431,-407 431,-443"/>
<text text-anchor="start" x="384.5" y="-423.2" font-family="Arial" font-weight="bold" font-size="11.00" fill="black"><a fill="navy" href="../reference/Equipment/Nozzle.html" target="_parent">Nozzle</a></text>
</g>
<!-- 8&#45;&gt;41 -->
<g id="edge8" class="edge"><path fill="none" stroke="#000000" d="M419.289,-481.384C417.147,-479.056 415.185,-476.592 413.5,-474 409.447,-467.763 406.878,-460.222 405.253,-452.983"/>
<polygon fill="#000000" stroke="#000000" points="419.431,-481.515 426.552,-482.651 428.242,-489.662 421.121,-488.525 419.431,-481.515"/>
<polygon fill="#000000" stroke="#000000" points="403.528,-443.118 409.683,-452.193 404.389,-448.043 405.251,-452.969 405.251,-452.969 405.251,-452.969 404.389,-448.043 400.818,-453.744 403.528,-443.118 403.528,-443.118"/>
<text text-anchor="start" x="415.5" y="-463.5" font-family="Arial" font-size="10.00" fill="black"><a fill="navy" href="../reference/Equipment/NozzleOwner.html#dexpi-equipment-nozzleowner-nozzles" target="_parent">Nozzles</a></text>
<text text-anchor="start" x="395.528" y="-446.118" font-family="Arial" font-size="10.00" fill="black">*</text>
<text text-anchor="start" x="399.242" y="-479.662" font-family="Arial" font-size="10.00" fill="black">0..1</text>
</g>
<!-- 16&#45;inner&#45;node -->
<!-- 8&#45;&gt;16&#45;inner&#45;node -->
<g id="edge21" class="edge"><path fill="none" stroke="black" d="M457.5,-479.649C457.5,-456.987 457.5,-428.163 457.5,-426.116L457.5,-423.951"/>
<polygon fill="none" stroke="black" points="454,-479.822 457.5,-489.822 461,-479.822 454,-479.822"/>
</g>
<!-- 9 -->
<g id="node9" class="node"><defs>
<linearGradient id="l_15" gradientUnits="userSpaceOnUse" x1="575.5" y1="-490" x2="575.5" y2="-526">
<stop offset="0" style="stop-color:#ffffbb;stop-opacity:1.;"/>
<stop offset="1" style="stop-color:#ffffee;stop-opacity:1.;"/>
</linearGradient>
</defs>
<polygon fill="url(#l_15)" stroke="black" points="630,-526 521,-526 521,-490 630,-490 630,-526"/>
<text text-anchor="start" x="531.5" y="-506.2" font-family="Arial" font-weight="bold" font-style="italic" font-size="11.00" fill="black"><a fill="navy" href="../reference/Equipment/TaggedPlantItem.html" target="_parent">TaggedPlantItem</a></text>
</g>
<!-- 17&#45;inner&#45;node -->
<!-- 9&#45;&gt;17&#45;inner&#45;node -->
<g id="edge23" class="edge"><path fill="none" stroke="black" d="M575.5,-479.649C575.5,-456.987 575.5,-428.163 575.5,-426.116L575.414,-423.951"/>
<polygon fill="none" stroke="black" points="572,-479.822 575.5,-489.822 579,-479.822 572,-479.822"/>
</g>
<!-- 10 -->
<g id="node10" class="node"><defs>
<linearGradient id="l_16" gradientUnits="userSpaceOnUse" x1="466.5" y1="-656" x2="466.5" y2="-692">
<stop offset="0" style="stop-color:#ffffbb;stop-opacity:1.;"/>
<stop offset="1" style="stop-color:#ffffee;stop-opacity:1.;"/>
</linearGradient>
</defs>
<polygon fill="url(#l_16)" stroke="black" points="524,-692 409,-692 409,-656 524,-656 524,-692"/>
<text text-anchor="start" x="419.5" y="-672.2" font-family="Arial" font-weight="bold" font-style="italic" font-size="11.00" fill="black"><a fill="navy" href="../reference/DexpiModel/ConceptualObject.html" target="_parent">ConceptualObject</a></text>
</g>
<!-- 18&#45;inner&#45;node -->
<!-- 10&#45;&gt;18&#45;inner&#45;node -->
<g id="edge25" class="edge"><path fill="none" stroke="black" d="M466.5,-645.649C466.5,-622.987 466.5,-594.163 466.5,-592.116L466.537,-589.878"/>
<polygon fill="none" stroke="black" points="463,-645.822 466.5,-655.822 470,-645.822 463,-645.822"/>
</g>
<!-- 11 -->
<g id="node11" class="node"><defs>
<linearGradient id="l_17" gradientUnits="userSpaceOnUse" x1="624.5" y1="-656" x2="624.5" y2="-692">
<stop offset="0" style="stop-color:#ffffbb;stop-opacity:1.;"/>
<stop offset="1" style="stop-color:#ffffee;stop-opacity:1.;"/>
</linearGradient>
</defs>
<polygon fill="url(#l_17)" stroke="black" points="696.5,-692 552.5,-692 552.5,-656 696.5,-656 696.5,-692"/>
<text text-anchor="start" x="562.5" y="-672.2" font-family="Arial" font-weight="bold" font-style="italic" font-size="11.00" fill="black"><a fill="navy" href="../reference/Customization/CustomAttributeOwner.html" target="_parent">CustomAttributeOwner</a></text>
</g>
<!-- 53 -->
<g id="node22" class="node"><defs>
<linearGradient id="l_18" gradientUnits="userSpaceOnUse" x1="539.5" y1="-573" x2="539.5" y2="-609">
<stop offset="0" style="stop-color:#ffffbb;stop-opacity:1.;"/>
<stop offset="1" style="stop-color:#ffffee;stop-opacity:1.;"/>
</linearGradient>
</defs>
<polygon fill="url(#l_18)" stroke="black" points="594,-609 485,-609 485,-573 594,-573 594,-609"/>
<text text-anchor="start" x="495.5" y="-589.2" font-family="Arial" font-weight="bold" font-style="italic" font-size="11.00" fill="black"><a fill="navy" href="../reference/Customization/CustomAttribute.html" target="_parent">CustomAttribute</a></text>
</g>
<!-- 11&#45;&gt;53 -->
<g id="edge12" class="edge"><path fill="none" stroke="#000000" d="M547.949,-648.486C545.181,-645.933 542.67,-643.113 540.5,-640 536.402,-634.119 534.944,-626.772 534.815,-619.608"/>
<polygon fill="#000000" stroke="#000000" points="547.998,-648.523 555.196,-648.959 557.563,-655.77 550.365,-655.335 547.998,-648.523"/>
<polygon fill="#000000" stroke="#000000" points="535.425,-609.435 539.319,-619.687 535.126,-614.426 534.827,-619.417 534.827,-619.417 534.827,-619.417 535.126,-614.426 530.335,-619.148 535.425,-609.435 535.425,-609.435"/>
<text text-anchor="start" x="542.5" y="-629.5" font-family="Arial" font-size="10.00" fill="black"><a fill="navy" href="../reference/Customization/CustomAttributeOwner.html#dexpi-customization-customattributeowner-customattributes" target="_parent">CustomAttributes</a></text>
<text text-anchor="start" x="527.425" y="-612.435" font-family="Arial" font-size="10.00" fill="black">*</text>
<text text-anchor="start" x="528.563" y="-645.77" font-family="Arial" font-size="10.00" fill="black">0..1</text>
</g>
<!-- 19&#45;inner&#45;node -->
<!-- 11&#45;&gt;19&#45;inner&#45;node -->
<g id="edge27" class="edge"><path fill="none" stroke="black" d="M624.5,-645.649C624.5,-622.987 624.5,-594.163 624.5,-592.116L624.464,-589.941"/>
<polygon fill="none" stroke="black" points="621,-645.822 624.5,-655.822 628,-645.822 621,-645.822"/>
</g>
<!-- 44 -->
<g id="node19" class="node"><defs>
<linearGradient id="l_19" gradientUnits="userSpaceOnUse" x1="390.5" y1="-573" x2="390.5" y2="-609">
<stop offset="0" style="stop-color:#ffffbb;stop-opacity:1.;"/>
<stop offset="1" style="stop-color:#ffffee;stop-opacity:1.;"/>
</linearGradient>
</defs>
<polygon fill="url(#l_19)" stroke="black" points="447.5,-609 333.5,-609 333.5,-573 447.5,-573 447.5,-609"/>
<text text-anchor="start" x="343.5" y="-589.2" font-family="Arial" font-weight="bold" font-size="11.00" fill="black"><a fill="navy" href="../reference/DexpiModel/ConceptualModel.html" target="_parent">ConceptualModel</a></text>
</g>
<!-- 44&#45;&gt;9 -->
<g id="edge9" class="edge"><path fill="none" stroke="#000000" d="M395.3,-560.987C397.818,-553.831 401.654,-546.84 407.5,-542 441.271,-514.04 462.895,-532.856 510.83,-525.738"/>
<polygon fill="#000000" stroke="#000000" points="395.236,-561.228 397.58,-568.048 392.186,-572.833 389.842,-566.014 395.236,-561.228"/>
<polygon fill="#000000" stroke="#000000" points="520.779,-523.947 511.735,-530.148 515.858,-524.833 510.937,-525.719 510.937,-525.719 510.937,-525.719 515.858,-524.833 510.14,-521.29 520.779,-523.947 520.779,-523.947"/>
<text text-anchor="start" x="410" y="-546.5" font-family="Arial" font-size="10.00" fill="black"><a fill="navy" href="../reference/DexpiModel/ConceptualModel.html#dexpi-dexpimodel-conceptualmodel-taggedplantitems" target="_parent">TaggedPlantItems</a></text>
<text text-anchor="start" x="512.779" y="-526.947" font-family="Arial" font-size="10.00" fill="black">*</text>
<text text-anchor="start" x="363.186" y="-562.833" font-family="Arial" font-size="10.00" fill="black">0..1</text>
</g>
<!-- 47 -->
<g id="node20" class="node"><defs>
<linearGradient id="l_20" gradientUnits="userSpaceOnUse" x1="363.5" y1="-747.5" x2="363.5" y2="-783.5">
<stop offset="0" style="stop-color:#ffffbb;stop-opacity:1.;"/>
<stop offset="1" style="stop-color:#ffffee;stop-opacity:1.;"/>
</linearGradient>
</defs>
<polygon fill="url(#l_20)" stroke="black" points="438,-783.5 289,-783.5 289,-747.5 438,-747.5 438,-783.5"/>
<text text-anchor="start" x="299.5" y="-763.7" font-family="Arial" font-weight="bold" font-size="11.00" fill="black"><a fill="navy" href="../reference/Graphics/AttributeRepresentation.html" target="_parent">AttributeRepresentation</a></text>
</g>
<!-- 47&#45;&gt;10 -->
<g id="edge10" class="edge"><path fill="none" stroke="#000000" d="M383.359,-747.243C399.176,-733.5 421.493,-714.108 439.024,-698.875"/>
<polygon fill="#000000" stroke="#000000" points="446.702,-692.204 442.105,-702.159 442.927,-695.483 439.153,-698.763 439.153,-698.763 439.153,-698.763 442.927,-695.483 436.201,-695.366 446.702,-692.204 446.702,-692.204"/>
<text text-anchor="start" x="430" y="-712.5" font-family="Arial" font-size="10.00" fill="black"><a fill="navy" href="../reference/Graphics/AttributeRepresentation.html#dexpi-graphics-attributerepresentation-object" target="_parent">Object</a></text>
<text text-anchor="start" x="438.702" y="-695.204" font-family="Arial" font-size="10.00" fill="black"></text>
<text text-anchor="start" x="367.359" y="-737.243" font-family="Arial" font-size="10.00" fill="black">*</text>
</g>
<!-- 50 -->
<g id="node21" class="node"><defs>
<linearGradient id="l_21" gradientUnits="userSpaceOnUse" x1="524.5" y1="-747.5" x2="524.5" y2="-783.5">
<stop offset="0" style="stop-color:#ffffbb;stop-opacity:1.;"/>
<stop offset="1" style="stop-color:#ffffee;stop-opacity:1.;"/>
</linearGradient>
</defs>
<polygon fill="url(#l_21)" stroke="black" points="593,-783.5 456,-783.5 456,-747.5 593,-747.5 593,-783.5"/>
<text text-anchor="start" x="466.5" y="-763.7" font-family="Arial" font-weight="bold" font-size="11.00" fill="black"><a fill="navy" href="../reference/Graphics/RepresentationGroup.html" target="_parent">RepresentationGroup</a></text>
</g>
<!-- 50&#45;&gt;10 -->
<g id="edge11" class="edge"><path fill="none" stroke="#000000" d="M513.317,-747.243C504.812,-734.119 492.968,-715.843 483.322,-700.958"/>
<polygon fill="#000000" stroke="#000000" points="477.649,-692.204 486.863,-698.148 480.368,-696.399 483.087,-700.595 483.087,-700.595 483.087,-700.595 480.368,-696.399 479.311,-703.043 477.649,-692.204 477.649,-692.204"/>
<text text-anchor="start" x="499.5" y="-712.5" font-family="Arial" font-size="10.00" fill="black"><a fill="navy" href="../reference/Graphics/RepresentationGroup.html#dexpi-graphics-representationgroup-represents" target="_parent">Represents</a></text>
<text text-anchor="start" x="469.649" y="-695.204" font-family="Arial" font-size="10.00" fill="black"></text>
<text text-anchor="start" x="497.317" y="-737.243" font-family="Arial" font-size="10.00" fill="black">*</text>
</g>
<!-- 12&#45;inner&#45;node&#45;&gt;0 -->
<g id="edge14" class="edge"><path fill="none" stroke="black" d="M457.661,-151.857C459.611,-150.115 478.931,-132.865 494.306,-119.137"/>
</g>
<!-- 13&#45;inner&#45;node&#45;&gt;0 -->
<g id="edge16" class="edge"><path fill="none" stroke="black" d="M553.385,-151.857C551.992,-150.115 538.192,-132.865 527.21,-119.137"/>
</g>
<!-- 14&#45;inner&#45;node&#45;&gt;4 -->
<g id="edge18" class="edge"><path fill="none" stroke="black" d="M457.5,-271.951C457.5,-270.604 457.5,-241.522 457.5,-222.135"/>
</g>
<!-- 15&#45;inner&#45;node&#45;&gt;6 -->
<g id="edge20" class="edge"><path fill="none" stroke="black" d="M341.64,-423.884C343.027,-422.739 354.434,-413.38 364.5,-407 383.235,-395.126 405.036,-383.306 422.819,-374.142"/>
</g>
<!-- 16&#45;inner&#45;node&#45;&gt;6 -->
<g id="edge22" class="edge"><path fill="none" stroke="black" d="M457.5,-423.951C457.5,-422.604 457.5,-393.522 457.5,-374.135"/>
</g>
<!-- 17&#45;inner&#45;node&#45;&gt;6 -->
<g id="edge24" class="edge"><path fill="none" stroke="black" d="M575.414,-423.951C573.042,-422.604 521.822,-393.522 487.677,-374.135"/>
</g>
<!-- 18&#45;inner&#45;node&#45;&gt;9 -->
<g id="edge26" class="edge"><path fill="none" stroke="black" d="M466.537,-589.878C466.911,-588.678 470.071,-578.896 475.5,-573 493.511,-553.44 518.763,-537.341 539.384,-526.183"/>
</g>
<!-- 19&#45;inner&#45;node&#45;&gt;9 -->
<g id="edge28" class="edge"><path fill="none" stroke="black" d="M624.464,-589.941C623.427,-588.226 599.901,-549.337 585.843,-526.098"/>
</g>
<!-- 20&#45;inner&#45;node&#45;&gt;9 -->
<g id="edge30" class="edge"><path fill="none" stroke="black" d="M761.365,-589.941C757.427,-588.226 668.125,-549.337 614.761,-526.098"/>
</g>
</g>
</svg>