<!DOCTYPE svg PUBLIC "-//W3C//DTD SVG 1.1//EN" "http://www.w3.org/Graphics/SVG/1.1/DTD/svg11.dtd">
<!-- Generated by graphviz version 2.38.0 (20140413.2041)
 --><!-- Title: G Pages: 1 --><svg xmlns="http://www.w3.org/2000/svg" xmlns:xlink="http://www.w3.org/1999/xlink" width="275pt" height="138pt" viewBox="0.00 0.00 274.50 138.00">
<g id="graph0" class="graph" transform="scale(1 1) rotate(0) translate(4 134)">
<!-- 0 -->
<g id="node1" class="node"><defs>
<linearGradient id="l_0" gradientUnits="userSpaceOnUse" x1="189" y1="-94" x2="189" y2="-130">
<stop offset="0" style="stop-color:#eeeeff;stop-opacity:1.;"/>
<stop offset="1" style="stop-color:#f8f8ff;stop-opacity:1.;"/>
</linearGradient>
</defs>
<polygon fill="url(#l_0)" stroke="black" points="247.5,-130 130.5,-130 130.5,-94 247.5,-94 247.5,-130"/>
<text text-anchor="start" x="141" y="-110.2" font-family="Arial" text-decoration="underline" font-size="11.00" fill="black">filterUnit1&#160;:&#160;<a fill="navy" href="../reference/Equipment/FilterUnit.html" target="_parent">FilterUnit</a></text>
</g>
<!-- 2 -->
<g id="node2" class="node"><defs>
<linearGradient id="l_1" gradientUnits="userSpaceOnUse" x1="189" y1="-3.19744e-014" x2="189" y2="-62">
<stop offset="0" style="stop-color:#eeeeff;stop-opacity:1.;"/>
<stop offset="1" style="stop-color:#f8f8ff;stop-opacity:1.;"/>
</linearGradient>
</defs>
<polygon fill="url(#l_1)" stroke="black" points="266.5,-62 111.5,-62 111.5,-0 266.5,-0 266.5,-62"/>
<text text-anchor="start" x="150.5" y="-48.2" font-family="Arial" text-decoration="underline" font-size="11.00" fill="black">length1&#160;:&#160;<a fill="navy" href="../reference/PhysicalQuantities/Length.html" target="_parent">Length</a></text>
<text text-anchor="start" x="122" y="-24" font-family="Arial" font-size="10.00" fill="black"><a fill="navy" href="../reference/PhysicalQuantities/Length.html#dexpi-physicalquantities-length-unit" target="_parent">Unit</a>:&#160;<a fill="navy" href="../reference/PhysicalQuantities/LengthUnit.html" target="_parent">LengthUnit</a>&#160;=&#160;</text>
<text text-anchor="start" x="208" y="-24" font-family="Arial" font-size="10.00" fill="black"><a fill="navy" href="../reference/PhysicalQuantities/LengthUnit.html#dexpi-physicalquantities-lengthunit-micrometre" target="_parent">Micrometre</a></text>
<text text-anchor="start" x="122" y="-9" font-family="Arial" font-size="10.00" fill="black"><a fill="navy" href="../reference/PhysicalQuantities/Length.html#dexpi-physicalquantities-length-value" target="_parent">Value</a>:&#160;<a fill="navy" href="../reference/DataTypes/Double.html" target="_parent">Double</a>&#160;=&#160;</text>
<text text-anchor="start" x="208" y="-9" font-family="Arial" font-size="10.00" fill="black">50.0</text>
<polygon fill="black" stroke="black" points="266.5,-42.0 111.5,-42.0 111.5,-42.0 266.5,-42.0 266.5,-42.0"/>
</g>
<!-- 0&#45;&gt;2 -->
<g id="edge1" class="edge"><path fill="none" stroke="#000000" d="M189,-93.8582C189,-87.4936 189,-79.9744 189,-72.4106"/>
<polygon fill="#000000" stroke="#000000" points="189,-62.1729 193.5,-72.1729 189,-67.1729 189,-72.1729 189,-72.1729 189,-72.1729 189,-67.1729 184.5,-72.173 189,-62.1729 189,-62.1729"/>
<text text-anchor="start" x="-4.4" y="-65.3729" font-family="Arial" font-size="11.00" fill="black"><a fill="navy" href="../reference/Equipment/FilterUnit.html#dexpi-equipment-filterunit-lowerlimitpermeableparticlediameter" target="_parent">LowerLimitPermeableParticleDiameter</a></text>
</g>
</g>
</svg>