<!DOCTYPE svg PUBLIC "-//W3C//DTD SVG 1.1//EN" "http://www.w3.org/Graphics/SVG/1.1/DTD/svg11.dtd">
<!-- Generated by graphviz version 2.38.0 (20140413.2041)
 --><!-- Title: G Pages: 1 --><svg xmlns="http://www.w3.org/2000/svg" xmlns:xlink="http://www.w3.org/1999/xlink" width="342pt" height="391pt" viewBox="0.00 0.00 342.00 391.00">
<g id="graph0" class="graph" transform="scale(1 1) rotate(0) translate(4 387)">
<!-- 0 -->
<g id="node1" class="node"><defs>
<linearGradient id="l_0" gradientUnits="userSpaceOnUse" x1="135" y1="-238" x2="135" y2="-274">
<stop offset="0" style="stop-color:#ffffbb;stop-opacity:1.;"/>
<stop offset="1" style="stop-color:#ffffee;stop-opacity:1.;"/>
</linearGradient>
</defs>
<polygon fill="url(#l_0)" stroke="black" points="235.5,-274 34.5,-274 34.5,-238 235.5,-238 235.5,-274"/>
<text text-anchor="start" x="45" y="-254.2" font-family="Arial" font-weight="bold" font-style="italic" font-size="11.00" fill="black"><a fill="navy" href="../reference/PlantStructure/IndustrialComplexParentStructure.html" target="_parent">IndustrialComplexParentStructure</a></text>
</g>
<!-- 13&#45;inner&#45;node -->
<!-- 0&#45;&gt;13&#45;inner&#45;node -->
<g id="edge3" class="edge"><path fill="none" stroke="black" d="M128.507,-227.945C125.793,-216.638 123.215,-205.895 123.013,-205.053L122.982,-203.948"/>
<polygon fill="none" stroke="black" points="125.133,-228.886 130.87,-237.793 131.94,-227.252 125.133,-228.886"/>
</g>
<!-- 16&#45;inner&#45;node -->
<!-- 0&#45;&gt;16&#45;inner&#45;node -->
<g id="edge5" class="edge"><path fill="none" stroke="black" d="M142.034,-227.945C144.974,-216.638 147.767,-205.895 147.986,-205.053L148.059,-203.954"/>
<polygon fill="none" stroke="black" points="138.603,-227.234 139.474,-237.793 145.378,-228.995 138.603,-227.234"/>
</g>
<!-- 1 -->
<g id="node2" class="node"><defs>
<linearGradient id="l_1" gradientUnits="userSpaceOnUse" x1="135" y1="-321" x2="135" y2="-383">
<stop offset="0" style="stop-color:#ffffbb;stop-opacity:1.;"/>
<stop offset="1" style="stop-color:#ffffee;stop-opacity:1.;"/>
</linearGradient>
</defs>
<polygon fill="url(#l_1)" stroke="black" points="270,-383 0,-383 0,-321 270,-321 270,-383"/>
<text text-anchor="start" x="86.5" y="-369.2" font-family="Arial" font-weight="bold" font-size="11.00" fill="black"><a fill="navy" href="../reference/PlantStructure/IndustrialComplex.html" target="_parent">IndustrialComplex</a></text>
<text text-anchor="start" x="10" y="-345" font-family="Arial" font-size="10.00" fill="black"><a fill="navy" href="../reference/PlantStructure/IndustrialComplex.html#dexpi-plantstructure-industrialcomplex-industrialcomplexidentificationcode" target="_parent">IndustrialComplexIdentificationCode</a>&#160;:</text>
<text text-anchor="start" x="174" y="-345" font-family="Arial" font-size="10.00" fill="black"><a fill="navy" href="../reference/DataTypes/NullableString.html" target="_parent">NullableString</a>&#160;[0..1]</text>
<text text-anchor="start" x="10" y="-330" font-family="Arial" font-size="10.00" fill="black"><a fill="navy" href="../reference/PlantStructure/IndustrialComplex.html#dexpi-plantstructure-industrialcomplex-industrialcomplexname" target="_parent">IndustrialComplexName</a>&#160;:</text>
<text text-anchor="start" x="174" y="-330" font-family="Arial" font-size="10.00" fill="black"><a fill="navy" href="../reference/DataTypes/NullableString.html" target="_parent">NullableString</a>&#160;[0..1]</text>
<polygon fill="black" stroke="black" points="270.0,-363.0 0.0,-363.0 0.0,-363.0 270.0,-363.0 270.0,-363.0"/>
</g>
<!-- 1&#45;&gt;0 -->
<g id="edge1" class="edge"><path fill="none" stroke="#000000" d="M135,-320.999C135,-309.273 135,-295.915 135,-284.446"/>
<polygon fill="#000000" stroke="#000000" points="135,-274.145 139.5,-284.145 135,-279.145 135,-284.145 135,-284.145 135,-284.145 135,-279.145 130.5,-284.145 135,-274.145 135,-274.145"/>
<text text-anchor="start" x="137.5" y="-294.5" font-family="Arial" font-size="10.00" fill="black"><a fill="navy" href="../reference/PlantStructure/IndustrialComplex.html#dexpi-plantstructure-industrialcomplex-parentstructure" target="_parent">ParentStructure</a></text>
<text text-anchor="start" x="114.0" y="-277.145" font-family="Arial" font-size="10.00" fill="black">0..1</text>
<text text-anchor="start" x="119.0" y="-310.999" font-family="Arial" font-size="10.00" fill="black">*</text>
</g>
<!-- 5 -->
<g id="node3" class="node"><defs>
<linearGradient id="l_2" gradientUnits="userSpaceOnUse" x1="137" y1="-3.19744e-014" x2="137" y2="-62">
<stop offset="0" style="stop-color:#ffffbb;stop-opacity:1.;"/>
<stop offset="1" style="stop-color:#ffffee;stop-opacity:1.;"/>
</linearGradient>
</defs>
<polygon fill="url(#l_2)" stroke="black" points="255.5,-62 18.5,-62 18.5,-0 255.5,-0 255.5,-62"/>
<text text-anchor="start" x="109" y="-48.2" font-family="Arial" font-weight="bold" font-size="11.00" fill="black"><a fill="navy" href="../reference/PlantStructure/Enterprise.html" target="_parent">Enterprise</a></text>
<text text-anchor="start" x="29" y="-24" font-family="Arial" font-size="10.00" fill="black"><a fill="navy" href="../reference/PlantStructure/Enterprise.html#dexpi-plantstructure-enterprise-enterpriseidentificationcode" target="_parent">EnterpriseIdentificationCode</a>&#160;:</text>
<text text-anchor="start" x="160" y="-24" font-family="Arial" font-size="10.00" fill="black"><a fill="navy" href="../reference/DataTypes/NullableString.html" target="_parent">NullableString</a>&#160;[0..1]</text>
<text text-anchor="start" x="29" y="-9" font-family="Arial" font-size="10.00" fill="black"><a fill="navy" href="../reference/PlantStructure/Enterprise.html#dexpi-plantstructure-enterprise-enterprisename" target="_parent">EnterpriseName</a>&#160;:</text>
<text text-anchor="start" x="160" y="-9" font-family="Arial" font-size="10.00" fill="black"><a fill="navy" href="../reference/DataTypes/NullableString.html" target="_parent">NullableString</a>&#160;[0..1]</text>
<polygon fill="black" stroke="black" points="255.5,-42.0 18.5,-42.0 18.5,-42.0 255.5,-42.0 255.5,-42.0"/>
</g>
<!-- 8 -->
<g id="node4" class="node"><defs>
<linearGradient id="l_3" gradientUnits="userSpaceOnUse" x1="229" y1="-109" x2="229" y2="-171">
<stop offset="0" style="stop-color:#ffffbb;stop-opacity:1.;"/>
<stop offset="1" style="stop-color:#ffffee;stop-opacity:1.;"/>
</linearGradient>
</defs>
<polygon fill="url(#l_3)" stroke="black" points="334,-171 124,-171 124,-109 334,-109 334,-171"/>
<text text-anchor="start" x="218" y="-157.2" font-family="Arial" font-weight="bold" font-size="11.00" fill="black"><a fill="navy" href="../reference/PlantStructure/Site.html" target="_parent">Site</a></text>
<text text-anchor="start" x="134" y="-133" font-family="Arial" font-size="10.00" fill="black"><a fill="navy" href="../reference/PlantStructure/Site.html#dexpi-plantstructure-site-siteidentificationcode" target="_parent">SiteIdentificationCode</a>&#160;:</text>
<text text-anchor="start" x="238" y="-133" font-family="Arial" font-size="10.00" fill="black"><a fill="navy" href="../reference/DataTypes/NullableString.html" target="_parent">NullableString</a>&#160;[0..1]</text>
<text text-anchor="start" x="134" y="-118" font-family="Arial" font-size="10.00" fill="black"><a fill="navy" href="../reference/PlantStructure/Site.html#dexpi-plantstructure-site-sitename" target="_parent">SiteName</a>&#160;:</text>
<text text-anchor="start" x="238" y="-118" font-family="Arial" font-size="10.00" fill="black"><a fill="navy" href="../reference/DataTypes/NullableString.html" target="_parent">NullableString</a>&#160;[0..1]</text>
<polygon fill="black" stroke="black" points="334.0,-151.0 124.0,-151.0 124.0,-151.0 334.0,-151.0 334.0,-151.0"/>
</g>
<!-- 8&#45;&gt;5 -->
<g id="edge2" class="edge"><path fill="none" stroke="#000000" d="M203.128,-108.91C192.741,-96.8293 180.649,-82.7653 169.666,-69.9921"/>
<polygon fill="#000000" stroke="#000000" points="162.997,-62.2351 172.928,-66.8838 166.256,-66.0264 169.516,-69.8177 169.516,-69.8177 169.516,-69.8177 166.256,-66.0264 166.104,-72.7515 162.997,-62.2351 162.997,-62.2351"/>
<text text-anchor="start" x="190.5" y="-82.5" font-family="Arial" font-size="10.00" fill="black"><a fill="navy" href="../reference/PlantStructure/Site.html#dexpi-plantstructure-site-parentstructure" target="_parent">ParentStructure</a></text>
<text text-anchor="start" x="141.997" y="-65.2351" font-family="Arial" font-size="10.00" fill="black">0..1</text>
<text text-anchor="start" x="187.128" y="-98.91" font-family="Arial" font-size="10.00" fill="black">*</text>
</g>
<!-- 13&#45;inner&#45;node&#45;&gt;5 -->
<g id="edge4" class="edge"><path fill="none" stroke="black" d="M122.982,-203.948C122.616,-202.877 116.734,-185.517 115,-171 111.731,-143.639 111.178,-136.289 115,-109 117.198,-93.3038 121.801,-76.3177 126.232,-62.3031"/>
</g>
<!-- 16&#45;inner&#45;node&#45;&gt;8 -->
<g id="edge6" class="edge"><path fill="none" stroke="black" d="M148.059,-203.954C149.304,-202.986 170.157,-186.766 190.383,-171.035"/>
</g>
</g>
</svg>