<!DOCTYPE svg PUBLIC "-//W3C//DTD SVG 1.1//EN" "http://www.w3.org/Graphics/SVG/1.1/DTD/svg11.dtd">
<!-- Generated by graphviz version 2.38.0 (20140413.2041)
 --><!-- Title: G Pages: 1 --><svg xmlns="http://www.w3.org/2000/svg" xmlns:xlink="http://www.w3.org/1999/xlink" width="257pt" height="138pt" viewBox="0.00 0.00 256.50 138.00">
<g id="graph0" class="graph" transform="scale(1 1) rotate(0) translate(4 134)">
<!-- 0 -->
<g id="node1" class="node"><defs>
<linearGradient id="l_0" gradientUnits="userSpaceOnUse" x1="151" y1="-94" x2="151" y2="-130">
<stop offset="0" style="stop-color:#eeeeff;stop-opacity:1.;"/>
<stop offset="1" style="stop-color:#f8f8ff;stop-opacity:1.;"/>
</linearGradient>
</defs>
<polygon fill="url(#l_0)" stroke="black" points="213.5,-130 88.5,-130 88.5,-94 213.5,-94 213.5,-130"/>
<text text-anchor="start" x="99" y="-110.2" font-family="Arial" text-decoration="underline" font-size="11.00" fill="black">chamber1&#160;:&#160;<a fill="navy" href="../reference/Equipment/Chamber.html" target="_parent">Chamber</a></text>
</g>
<!-- 2 -->
<g id="node2" class="node"><defs>
<linearGradient id="l_1" gradientUnits="userSpaceOnUse" x1="151" y1="-3.19744e-014" x2="151" y2="-62">
<stop offset="0" style="stop-color:#eeeeff;stop-opacity:1.;"/>
<stop offset="1" style="stop-color:#f8f8ff;stop-opacity:1.;"/>
</linearGradient>
</defs>
<polygon fill="url(#l_1)" stroke="black" points="248.5,-62 53.5,-62 53.5,-0 248.5,-0 248.5,-62"/>
<text text-anchor="start" x="82.5" y="-48.2" font-family="Arial" text-decoration="underline" font-size="11.00" fill="black">temperature1&#160;:&#160;<a fill="navy" href="../reference/PhysicalQuantities/Temperature.html" target="_parent">Temperature</a></text>
<text text-anchor="start" x="64" y="-24" font-family="Arial" font-size="10.00" fill="black"><a fill="navy" href="../reference/PhysicalQuantities/Temperature.html#dexpi-physicalquantities-temperature-unit" target="_parent">Unit</a>:&#160;<a fill="navy" href="../reference/PhysicalQuantities/TemperatureUnit.html" target="_parent">TemperatureUnit</a>&#160;=&#160;</text>
<text text-anchor="start" x="175" y="-24" font-family="Arial" font-size="10.00" fill="black"><a fill="navy" href="../reference/PhysicalQuantities/TemperatureUnit.html#dexpi-physicalquantities-temperatureunit-degreecelsius" target="_parent">DegreeCelsius</a></text>
<text text-anchor="start" x="64" y="-9" font-family="Arial" font-size="10.00" fill="black"><a fill="navy" href="../reference/PhysicalQuantities/Temperature.html#dexpi-physicalquantities-temperature-value" target="_parent">Value</a>:&#160;<a fill="navy" href="../reference/DataTypes/Double.html" target="_parent">Double</a>&#160;=&#160;</text>
<text text-anchor="start" x="175" y="-9" font-family="Arial" font-size="10.00" fill="black">100.0</text>
<polygon fill="black" stroke="black" points="248.5,-42.0 53.5,-42.0 53.5,-42.0 248.5,-42.0 248.5,-42.0"/>
</g>
<!-- 0&#45;&gt;2 -->
<g id="edge1" class="edge"><path fill="none" stroke="#000000" d="M151,-93.8582C151,-87.4936 151,-79.9744 151,-72.4106"/>
<polygon fill="#000000" stroke="#000000" points="151,-62.1729 155.5,-72.1729 151,-67.1729 151,-72.1729 151,-72.1729 151,-72.1729 151,-67.1729 146.5,-72.173 151,-62.1729 151,-62.1729"/>
<text text-anchor="start" x="-4.4" y="-65.3729" font-family="Arial" font-size="11.00" fill="black"><a fill="navy" href="../reference/Equipment/Chamber.html#dexpi-equipment-chamber-upperlimitdesigntemperature" target="_parent">UpperLimitDesignTemperature</a></text>
</g>
</g>
</svg>