<!DOCTYPE svg PUBLIC "-//W3C//DTD SVG 1.1//EN" "http://www.w3.org/Graphics/SVG/1.1/DTD/svg11.dtd">
<!-- Generated by graphviz version 2.38.0 (20140413.2041)
 --><!-- Title: G Pages: 1 --><svg xmlns="http://www.w3.org/2000/svg" xmlns:xlink="http://www.w3.org/1999/xlink" width="325pt" height="232pt" viewBox="0.00 0.00 325.00 232.00">
<g id="graph0" class="graph" transform="scale(1 1) rotate(0) translate(4 228)">
<!-- 0 -->
<g id="node1" class="node"><defs>
<linearGradient id="l_0" gradientUnits="userSpaceOnUse" x1="158.5" y1="-188" x2="158.5" y2="-224">
<stop offset="0" style="stop-color:#eeeeff;stop-opacity:1.;"/>
<stop offset="1" style="stop-color:#f8f8ff;stop-opacity:1.;"/>
</linearGradient>
</defs>
<polygon fill="url(#l_0)" stroke="black" points="202.5,-224 114.5,-224 114.5,-188 202.5,-188 202.5,-224"/>
<text text-anchor="start" x="124.5" y="-204.2" font-family="Arial" text-decoration="underline" font-size="11.00" fill="black">sieve1&#160;:&#160;<a fill="navy" href="../reference/Equipment/Sieve.html" target="_parent">Sieve</a></text>
</g>
<!-- 2 -->
<g id="node2" class="node"><defs>
<linearGradient id="l_1" gradientUnits="userSpaceOnUse" x1="158.5" y1="-94" x2="158.5" y2="-156">
<stop offset="0" style="stop-color:#eeeeff;stop-opacity:1.;"/>
<stop offset="1" style="stop-color:#f8f8ff;stop-opacity:1.;"/>
</linearGradient>
</defs>
<polygon fill="url(#l_1)" stroke="black" points="317,-156 0,-156 0,-94 317,-94 317,-156"/>
<text text-anchor="start" x="40.5" y="-142.2" font-family="Arial" text-decoration="underline" font-size="11.00" fill="black">customLengthAttribute1&#160;:&#160;<a fill="navy" href="../reference/Customization/CustomLengthAttribute.html" target="_parent">CustomLengthAttribute</a></text>
<text text-anchor="start" x="10.5" y="-118" font-family="Arial" font-size="10.00" fill="black"><a fill="navy" href="../reference/Customization/CustomAttribute.html#dexpi-customization-customattribute-attributename" target="_parent">AttributeName</a>:&#160;<a fill="navy" href="../reference/DataTypes/String.html" target="_parent">String</a>&#160;=&#160;</text>
<text text-anchor="start" x="120.5" y="-118" font-family="Arial" font-size="10.00" fill="black">"DesignDiameter"</text>
<text text-anchor="start" x="10.5" y="-103" font-family="Arial" font-size="10.00" fill="black"><a fill="navy" href="../reference/Customization/CustomAttribute.html#dexpi-customization-customattribute-attributeuri" target="_parent">AttributeURI</a>:&#160;<a fill="navy" href="../reference/DataTypes/AnyURI.html" target="_parent">AnyURI</a>&#160;=&#160;</text>
<text text-anchor="start" x="120.5" y="-103" font-family="Arial" font-size="10.00" fill="black">"http://www.example.org/15a4252a1da9c5"</text>
<polygon fill="black" stroke="black" points="317.0,-136.0 0.0,-136.0 0.0,-136.0 317.0,-136.0 317.0,-136.0"/>
</g>
<!-- 0&#45;&gt;2 -->
<g id="edge2" class="edge"><path fill="none" stroke="#000000" d="M158.5,-187.858C158.5,-181.494 158.5,-173.974 158.5,-166.411"/>
<polygon fill="#000000" stroke="#000000" points="158.5,-156.173 163,-166.173 158.5,-161.173 158.5,-166.173 158.5,-166.173 158.5,-166.173 158.5,-161.173 154,-166.173 158.5,-156.173 158.5,-156.173"/>
<text text-anchor="start" x="69.1" y="-159.373" font-family="Arial" font-size="11.00" fill="black"><a fill="navy" href="../reference/Customization/CustomAttributeOwner.html#dexpi-customization-customattributeowner-customattributes" target="_parent">CustomAttributes</a></text>
</g>
<!-- 8 -->
<g id="node3" class="node"><defs>
<linearGradient id="l_2" gradientUnits="userSpaceOnUse" x1="158.5" y1="-3.19744e-014" x2="158.5" y2="-62">
<stop offset="0" style="stop-color:#eeeeff;stop-opacity:1.;"/>
<stop offset="1" style="stop-color:#f8f8ff;stop-opacity:1.;"/>
</linearGradient>
</defs>
<polygon fill="url(#l_2)" stroke="black" points="224,-62 93,-62 93,-0 224,-0 224,-62"/>
<text text-anchor="start" x="120" y="-48.2" font-family="Arial" text-decoration="underline" font-size="11.00" fill="black">length1&#160;:&#160;<a fill="navy" href="../reference/PhysicalQuantities/Length.html" target="_parent">Length</a></text>
<text text-anchor="start" x="103.5" y="-24" font-family="Arial" font-size="10.00" fill="black"><a fill="navy" href="../reference/PhysicalQuantities/Length.html#dexpi-physicalquantities-length-unit" target="_parent">Unit</a>:&#160;<a fill="navy" href="../reference/PhysicalQuantities/LengthUnit.html" target="_parent">LengthUnit</a>&#160;=&#160;</text>
<text text-anchor="start" x="189.5" y="-24" font-family="Arial" font-size="10.00" fill="black"><a fill="navy" href="../reference/PhysicalQuantities/LengthUnit.html#dexpi-physicalquantities-lengthunit-metre" target="_parent">Metre</a></text>
<text text-anchor="start" x="103.5" y="-9" font-family="Arial" font-size="10.00" fill="black"><a fill="navy" href="../reference/PhysicalQuantities/Length.html#dexpi-physicalquantities-length-value" target="_parent">Value</a>:&#160;<a fill="navy" href="../reference/DataTypes/Double.html" target="_parent">Double</a>&#160;=&#160;</text>
<text text-anchor="start" x="189.5" y="-9" font-family="Arial" font-size="10.00" fill="black">0.8</text>
<polygon fill="black" stroke="black" points="224.0,-42.0 93.0,-42.0 93.0,-42.0 224.0,-42.0 224.0,-42.0"/>
</g>
<!-- 2&#45;&gt;8 -->
<g id="edge1" class="edge"><path fill="none" stroke="#000000" d="M158.5,-93.8758C158.5,-86.9657 158.5,-79.5109 158.5,-72.2503"/>
<polygon fill="#000000" stroke="#000000" points="158.5,-62.1919 163,-72.1919 158.5,-67.1919 158.5,-72.1919 158.5,-72.1919 158.5,-72.1919 158.5,-67.1919 154,-72.192 158.5,-62.1919 158.5,-62.1919"/>
<text text-anchor="start" x="126.1" y="-65.3919" font-family="Arial" font-size="11.00" fill="black"><a fill="navy" href="../reference/Customization/CustomLengthAttribute.html#dexpi-customization-customlengthattribute-value" target="_parent">Value</a></text>
</g>
</g>
</svg>