<!DOCTYPE svg PUBLIC "-//W3C//DTD SVG 1.1//EN" "http://www.w3.org/Graphics/SVG/1.1/DTD/svg11.dtd">
<!-- Generated by graphviz version 2.38.0 (20140413.2041)
 --><!-- Title: G Pages: 1 --><svg xmlns="http://www.w3.org/2000/svg" xmlns:xlink="http://www.w3.org/1999/xlink" width="169pt" height="138pt" viewBox="0.00 0.00 169.00 138.00">
<g id="graph0" class="graph" transform="scale(1 1) rotate(0) translate(4 134)">
<!-- 0 -->
<g id="node1" class="node"><defs>
<linearGradient id="l_0" gradientUnits="userSpaceOnUse" x1="80.5" y1="-94" x2="80.5" y2="-130">
<stop offset="0" style="stop-color:#eeeeff;stop-opacity:1.;"/>
<stop offset="1" style="stop-color:#f8f8ff;stop-opacity:1.;"/>
</linearGradient>
</defs>
<polygon fill="url(#l_0)" stroke="black" points="139,-130 22,-130 22,-94 139,-94 139,-130"/>
<text text-anchor="start" x="32.5" y="-110.2" font-family="Arial" text-decoration="underline" font-size="11.00" fill="black">filterUnit1&#160;:&#160;<a fill="navy" href="../reference/Equipment/FilterUnit.html" target="_parent">FilterUnit</a></text>
</g>
<!-- 2 -->
<g id="node2" class="node"><defs>
<linearGradient id="l_1" gradientUnits="userSpaceOnUse" x1="80.5" y1="-3.19744e-014" x2="80.5" y2="-62">
<stop offset="0" style="stop-color:#eeeeff;stop-opacity:1.;"/>
<stop offset="1" style="stop-color:#f8f8ff;stop-opacity:1.;"/>
</linearGradient>
</defs>
<polygon fill="url(#l_1)" stroke="black" points="161,-62 0,-62 0,-0 161,-0 161,-62"/>
<text text-anchor="start" x="17.5" y="-48.2" font-family="Arial" text-decoration="underline" font-size="11.00" fill="black">percentage1&#160;:&#160;<a fill="navy" href="../reference/PhysicalQuantities/Percentage.html" target="_parent">Percentage</a></text>
<text text-anchor="start" x="10.5" y="-24" font-family="Arial" font-size="10.00" fill="black"><a fill="navy" href="../reference/PhysicalQuantities/Percentage.html#dexpi-physicalquantities-percentage-unit" target="_parent">Unit</a>:&#160;<a fill="navy" href="../reference/PhysicalQuantities/PercentageUnit.html" target="_parent">PercentageUnit</a>&#160;=&#160;</text>
<text text-anchor="start" x="117.5" y="-24" font-family="Arial" font-size="10.00" fill="black"><a fill="navy" href="../reference/PhysicalQuantities/PercentageUnit.html#dexpi-physicalquantities-percentageunit-percent" target="_parent">Percent</a></text>
<text text-anchor="start" x="10.5" y="-9" font-family="Arial" font-size="10.00" fill="black"><a fill="navy" href="../reference/PhysicalQuantities/Percentage.html#dexpi-physicalquantities-percentage-value" target="_parent">Value</a>:&#160;<a fill="navy" href="../reference/DataTypes/Double.html" target="_parent">Double</a>&#160;=&#160;</text>
<text text-anchor="start" x="117.5" y="-9" font-family="Arial" font-size="10.00" fill="black">90.0</text>
<polygon fill="black" stroke="black" points="161.0,-42.0 0.0,-42.0 0.0,-42.0 161.0,-42.0 161.0,-42.0"/>
</g>
<!-- 0&#45;&gt;2 -->
<g id="edge1" class="edge"><path fill="none" stroke="#000000" d="M80.5,-93.8582C80.5,-87.4936 80.5,-79.9744 80.5,-72.4106"/>
<polygon fill="#000000" stroke="#000000" points="80.5,-62.1729 85.0001,-72.1729 80.5,-67.1729 80.5001,-72.1729 80.5001,-72.1729 80.5001,-72.1729 80.5,-67.1729 76.0001,-72.173 80.5,-62.1729 80.5,-62.1729"/>
<text text-anchor="start" x="28.1" y="-65.3729" font-family="Arial" font-size="11.00" fill="black"><a fill="navy" href="../reference/Equipment/FilterUnit.html#dexpi-equipment-filterunit-efficiency" target="_parent">Efficiency</a></text>
</g>
</g>
</svg>