<!DOCTYPE svg PUBLIC "-//W3C//DTD SVG 1.1//EN" "http://www.w3.org/Graphics/SVG/1.1/DTD/svg11.dtd">
<!-- Generated by graphviz version 2.38.0 (20140413.2041)
 --><!-- Title: G Pages: 1 --><svg xmlns="http://www.w3.org/2000/svg" xmlns:xlink="http://www.w3.org/1999/xlink" width="328pt" height="232pt" viewBox="0.00 0.00 328.00 232.00">
<g id="graph0" class="graph" transform="scale(1 1) rotate(0) translate(4 228)">
<!-- 0 -->
<g id="node1" class="node"><defs>
<linearGradient id="l_0" gradientUnits="userSpaceOnUse" x1="160" y1="-188" x2="160" y2="-224">
<stop offset="0" style="stop-color:#eeeeff;stop-opacity:1.;"/>
<stop offset="1" style="stop-color:#f8f8ff;stop-opacity:1.;"/>
</linearGradient>
</defs>
<polygon fill="url(#l_0)" stroke="black" points="268,-224 52,-224 52,-188 268,-188 268,-224"/>
<text text-anchor="start" x="62" y="-204.2" font-family="Arial" text-decoration="underline" font-size="11.00" fill="black">customEquipment1&#160;:&#160;<a fill="navy" href="../reference/Equipment/CustomEquipment.html" target="_parent">CustomEquipment</a></text>
</g>
<!-- 2 -->
<g id="node2" class="node"><defs>
<linearGradient id="l_1" gradientUnits="userSpaceOnUse" x1="160" y1="-94" x2="160" y2="-156">
<stop offset="0" style="stop-color:#eeeeff;stop-opacity:1.;"/>
<stop offset="1" style="stop-color:#f8f8ff;stop-opacity:1.;"/>
</linearGradient>
</defs>
<polygon fill="url(#l_1)" stroke="black" points="320,-156 0,-156 0,-94 320,-94 320,-156"/>
<text text-anchor="start" x="38.5" y="-142.2" font-family="Arial" text-decoration="underline" font-size="11.00" fill="black">customVoltageAttribute1&#160;:&#160;<a fill="navy" href="../reference/Customization/CustomVoltageAttribute.html" target="_parent">CustomVoltageAttribute</a></text>
<text text-anchor="start" x="10" y="-118" font-family="Arial" font-size="10.00" fill="black"><a fill="navy" href="../reference/Customization/CustomAttribute.html#dexpi-customization-customattribute-attributename" target="_parent">AttributeName</a>:&#160;<a fill="navy" href="../reference/DataTypes/String.html" target="_parent">String</a>&#160;=&#160;</text>
<text text-anchor="start" x="120" y="-118" font-family="Arial" font-size="10.00" fill="black">"NominalVoltage"</text>
<text text-anchor="start" x="10" y="-103" font-family="Arial" font-size="10.00" fill="black"><a fill="navy" href="../reference/Customization/CustomAttribute.html#dexpi-customization-customattribute-attributeuri" target="_parent">AttributeURI</a>:&#160;<a fill="navy" href="../reference/DataTypes/AnyURI.html" target="_parent">AnyURI</a>&#160;=&#160;</text>
<text text-anchor="start" x="120" y="-103" font-family="Arial" font-size="10.00" fill="black">"http://data.posccaesar.org/rdl/RDS369449"</text>
<polygon fill="black" stroke="black" points="320.0,-136.0 0.0,-136.0 0.0,-136.0 320.0,-136.0 320.0,-136.0"/>
</g>
<!-- 0&#45;&gt;2 -->
<g id="edge2" class="edge"><path fill="none" stroke="#000000" d="M160,-187.858C160,-181.494 160,-173.974 160,-166.411"/>
<polygon fill="#000000" stroke="#000000" points="160,-156.173 164.5,-166.173 160,-161.173 160,-166.173 160,-166.173 160,-166.173 160,-161.173 155.5,-166.173 160,-156.173 160,-156.173"/>
<text text-anchor="start" x="70.6" y="-159.373" font-family="Arial" font-size="11.00" fill="black"><a fill="navy" href="../reference/Customization/CustomAttributeOwner.html#dexpi-customization-customattributeowner-customattributes" target="_parent">CustomAttributes</a></text>
</g>
<!-- 8 -->
<g id="node3" class="node"><defs>
<linearGradient id="l_2" gradientUnits="userSpaceOnUse" x1="160" y1="-3.19744e-014" x2="160" y2="-62">
<stop offset="0" style="stop-color:#eeeeff;stop-opacity:1.;"/>
<stop offset="1" style="stop-color:#f8f8ff;stop-opacity:1.;"/>
</linearGradient>
</defs>
<polygon fill="url(#l_2)" stroke="black" points="224,-62 96,-62 96,-0 224,-0 224,-62"/>
<text text-anchor="start" x="117" y="-48.2" font-family="Arial" text-decoration="underline" font-size="11.00" fill="black">voltage1&#160;:&#160;<a fill="navy" href="../reference/PhysicalQuantities/Voltage.html" target="_parent">Voltage</a></text>
<text text-anchor="start" x="106" y="-24" font-family="Arial" font-size="10.00" fill="black"><a fill="navy" href="../reference/PhysicalQuantities/Voltage.html#dexpi-physicalquantities-voltage-unit" target="_parent">Unit</a>:&#160;<a fill="navy" href="../reference/PhysicalQuantities/VoltageUnit.html" target="_parent">VoltageUnit</a>&#160;=&#160;</text>
<text text-anchor="start" x="196" y="-24" font-family="Arial" font-size="10.00" fill="black"><a fill="navy" href="../reference/PhysicalQuantities/VoltageUnit.html#dexpi-physicalquantities-voltageunit-volt" target="_parent">Volt</a></text>
<text text-anchor="start" x="106" y="-9" font-family="Arial" font-size="10.00" fill="black"><a fill="navy" href="../reference/PhysicalQuantities/Voltage.html#dexpi-physicalquantities-voltage-value" target="_parent">Value</a>:&#160;<a fill="navy" href="../reference/DataTypes/Double.html" target="_parent">Double</a>&#160;=&#160;</text>
<text text-anchor="start" x="196" y="-9" font-family="Arial" font-size="10.00" fill="black">230</text>
<polygon fill="black" stroke="black" points="224.0,-42.0 96.0,-42.0 96.0,-42.0 224.0,-42.0 224.0,-42.0"/>
</g>
<!-- 2&#45;&gt;8 -->
<g id="edge1" class="edge"><path fill="none" stroke="#000000" d="M160,-93.8758C160,-86.9657 160,-79.5109 160,-72.2503"/>
<polygon fill="#000000" stroke="#000000" points="160,-62.1919 164.5,-72.1919 160,-67.1919 160,-72.1919 160,-72.1919 160,-72.1919 160,-67.1919 155.5,-72.192 160,-62.1919 160,-62.1919"/>
<text text-anchor="start" x="127.6" y="-65.3919" font-family="Arial" font-size="11.00" fill="black"><a fill="navy" href="../reference/Customization/CustomVoltageAttribute.html#dexpi-customization-customvoltageattribute-value" target="_parent">Value</a></text>
</g>
</g>
</svg>