<!DOCTYPE svg PUBLIC "-//W3C//DTD SVG 1.1//EN" "http://www.w3.org/Graphics/SVG/1.1/DTD/svg11.dtd">
<!-- Generated by graphviz version 2.38.0 (20140413.2041)
 --><!-- Title: G Pages: 1 --><svg xmlns="http://www.w3.org/2000/svg" xmlns:xlink="http://www.w3.org/1999/xlink" width="287pt" height="112pt" viewBox="0.00 0.00 287.00 112.00">
<g id="graph0" class="graph" transform="scale(1 1) rotate(0) translate(4 108)">
<!-- 0 -->
<g id="node1" class="node"><defs>
<linearGradient id="l_0" gradientUnits="userSpaceOnUse" x1="139.5" y1="-68" x2="139.5" y2="-104">
<stop offset="0" style="stop-color:#eeeeff;stop-opacity:1.;"/>
<stop offset="1" style="stop-color:#f8f8ff;stop-opacity:1.;"/>
</linearGradient>
</defs>
<polygon fill="url(#l_0)" stroke="black" points="239.5,-104 39.5,-104 39.5,-68 239.5,-68 239.5,-104"/>
<text text-anchor="start" x="49.5" y="-84.2" font-family="Arial" text-decoration="underline" font-size="11.00" fill="black">actuatingSystem1&#160;:&#160;<a fill="navy" href="../reference/Instrumentation/ActuatingSystem.html" target="_parent">ActuatingSystem</a></text>
</g>
<!-- 2 -->
<g id="node2" class="node"><defs>
<linearGradient id="l_1" gradientUnits="userSpaceOnUse" x1="139.5" y1="-1.77636e-014" x2="139.5" y2="-36">
<stop offset="0" style="stop-color:#eeeeff;stop-opacity:1.;"/>
<stop offset="1" style="stop-color:#f8f8ff;stop-opacity:1.;"/>
</linearGradient>
</defs>
<polygon fill="url(#l_1)" stroke="black" points="279,-36 0,-36 0,-0 279,-0 279,-36"/>
<text text-anchor="start" x="10.5" y="-16.2" font-family="Arial" text-decoration="underline" font-size="11.00" fill="black">operatedValveReference1&#160;:&#160;<a fill="navy" href="../reference/Instrumentation/OperatedValveReference.html" target="_parent">OperatedValveReference</a></text>
</g>
<!-- 0&#45;&gt;2 -->
<g id="edge1" class="edge"><path fill="none" stroke="#000000" d="M139.5,-55.5962C139.5,-49.0584 139.5,-42.33 139.5,-36.4541"/>
<polygon fill="#000000" stroke="#000000" points="139.5,-55.6593 143.5,-61.6593 139.5,-67.6593 135.5,-61.6592 139.5,-55.6593"/>
<text text-anchor="start" x="11.1" y="-39.6541" font-family="Arial" font-size="11.00" fill="black">OperatedValveReference</text>
</g>
</g>
</svg>