<!DOCTYPE svg PUBLIC "-//W3C//DTD SVG 1.1//EN" "http://www.w3.org/Graphics/SVG/1.1/DTD/svg11.dtd">
<!-- Generated by graphviz version 2.38.0 (20140413.2041)
 --><!-- Title: G Pages: 1 --><svg xmlns="http://www.w3.org/2000/svg" xmlns:xlink="http://www.w3.org/1999/xlink" width="130pt" height="112pt" viewBox="0.00 0.00 130.00 112.00">
<g id="graph0" class="graph" transform="scale(1 1) rotate(0) translate(4 108)">
<!-- 0 -->
<g id="node1" class="node"><defs>
<linearGradient id="l_0" gradientUnits="userSpaceOnUse" x1="61" y1="-68" x2="61" y2="-104">
<stop offset="0" style="stop-color:#eeeeff;stop-opacity:1.;"/>
<stop offset="1" style="stop-color:#f8f8ff;stop-opacity:1.;"/>
</linearGradient>
</defs>
<polygon fill="url(#l_0)" stroke="black" points="122,-104 7.10543e-015,-104 7.10543e-015,-68 122,-68 122,-104"/>
<text text-anchor="start" x="10" y="-84.2" font-family="Arial" text-decoration="underline" font-size="11.00" fill="black">gasFilter1&#160;:&#160;<a fill="navy" href="../reference/Equipment/GasFilter.html" target="_parent">GasFilter</a></text>
</g>
<!-- 2 -->
<g id="node2" class="node"><defs>
<linearGradient id="l_1" gradientUnits="userSpaceOnUse" x1="61" y1="-1.77636e-014" x2="61" y2="-36">
<stop offset="0" style="stop-color:#eeeeff;stop-opacity:1.;"/>
<stop offset="1" style="stop-color:#f8f8ff;stop-opacity:1.;"/>
</linearGradient>
</defs>
<polygon fill="url(#l_1)" stroke="black" points="119.5,-36 2.5,-36 2.5,-0 119.5,-0 119.5,-36"/>
<text text-anchor="start" x="13" y="-16.2" font-family="Arial" text-decoration="underline" font-size="11.00" fill="black">filterUnit1&#160;:&#160;<a fill="navy" href="../reference/Equipment/FilterUnit.html" target="_parent">FilterUnit</a></text>
</g>
<!-- 0&#45;&gt;2 -->
<g id="edge1" class="edge"><path fill="none" stroke="#000000" d="M61,-55.5962C61,-49.0584 61,-42.33 61,-36.4541"/>
<polygon fill="#000000" stroke="#000000" points="61.0001,-55.6593 65,-61.6593 61,-67.6593 57,-61.6592 61.0001,-55.6593"/>
<text text-anchor="start" x="13.6" y="-39.6541" font-family="Arial" font-size="11.00" fill="black">FilterUnit</text>
</g>
</g>
</svg>