<!DOCTYPE svg PUBLIC "-//W3C//DTD SVG 1.1//EN" "http://www.w3.org/Graphics/SVG/1.1/DTD/svg11.dtd">
<!-- Generated by graphviz version 2.38.0 (20140413.2041)
 --><!-- Title: G Pages: 1 --><svg xmlns="http://www.w3.org/2000/svg" xmlns:xlink="http://www.w3.org/1999/xlink" width="244pt" height="138pt" viewBox="0.00 0.00 244.00 138.00">
<g id="graph0" class="graph" transform="scale(1 1) rotate(0) translate(4 134)">
<!-- 0 -->
<g id="node1" class="node"><defs>
<linearGradient id="l_0" gradientUnits="userSpaceOnUse" x1="132" y1="-94" x2="132" y2="-130">
<stop offset="0" style="stop-color:#eeeeff;stop-opacity:1.;"/>
<stop offset="1" style="stop-color:#f8f8ff;stop-opacity:1.;"/>
</linearGradient>
</defs>
<polygon fill="url(#l_0)" stroke="black" points="166.5,-130 97.5,-130 97.5,-94 166.5,-94 166.5,-130"/>
<text text-anchor="start" x="108" y="-110.2" font-family="Arial" text-decoration="underline" font-size="11.00" fill="black">fan1&#160;:&#160;<a fill="navy" href="../reference/Equipment/Fan.html" target="_parent">Fan</a></text>
</g>
<!-- 2 -->
<g id="node2" class="node"><defs>
<linearGradient id="l_1" gradientUnits="userSpaceOnUse" x1="132" y1="-3.19744e-014" x2="132" y2="-62">
<stop offset="0" style="stop-color:#eeeeff;stop-opacity:1.;"/>
<stop offset="1" style="stop-color:#f8f8ff;stop-opacity:1.;"/>
</linearGradient>
</defs>
<polygon fill="url(#l_1)" stroke="black" points="236,-62 28,-62 28,-0 236,-0 236,-62"/>
<text text-anchor="start" x="38" y="-48.2" font-family="Arial" text-decoration="underline" font-size="11.00" fill="black">pressureAbsolute1&#160;:&#160;<a fill="navy" href="../reference/PhysicalQuantities/PressureAbsolute.html" target="_parent">PressureAbsolute</a></text>
<text text-anchor="start" x="38" y="-24" font-family="Arial" font-size="10.00" fill="black"><a fill="navy" href="../reference/PhysicalQuantities/PressureAbsolute.html#dexpi-physicalquantities-pressureabsolute-unit" target="_parent">Unit</a>:&#160;<a fill="navy" href="../reference/PhysicalQuantities/PressureAbsoluteUnit.html" target="_parent">PressureAbsoluteUnit</a>&#160;=&#160;</text>
<text text-anchor="start" x="191" y="-24" font-family="Arial" font-size="10.00" fill="black"><a fill="navy" href="../reference/PhysicalQuantities/PressureAbsoluteUnit.html#dexpi-physicalquantities-pressureabsoluteunit-bar" target="_parent">Bar</a></text>
<text text-anchor="start" x="38" y="-9" font-family="Arial" font-size="10.00" fill="black"><a fill="navy" href="../reference/PhysicalQuantities/PressureAbsolute.html#dexpi-physicalquantities-pressureabsolute-value" target="_parent">Value</a>:&#160;<a fill="navy" href="../reference/DataTypes/Double.html" target="_parent">Double</a>&#160;=&#160;</text>
<text text-anchor="start" x="191" y="-9" font-family="Arial" font-size="10.00" fill="black">4.8</text>
<polygon fill="black" stroke="black" points="236.0,-42.0 28.0,-42.0 28.0,-42.0 236.0,-42.0 236.0,-42.0"/>
</g>
<!-- 0&#45;&gt;2 -->
<g id="edge1" class="edge"><path fill="none" stroke="#000000" d="M132,-93.8582C132,-87.4936 132,-79.9744 132,-72.4106"/>
<polygon fill="#000000" stroke="#000000" points="132,-62.1729 136.5,-72.1729 132,-67.1729 132,-72.1729 132,-72.1729 132,-72.1729 132,-67.1729 127.5,-72.173 132,-62.1729 132,-62.1729"/>
<text text-anchor="start" x="-4.4" y="-65.3729" font-family="Arial" font-size="11.00" fill="black"><a fill="navy" href="../reference/Equipment/Fan.html#dexpi-equipment-fan-designdifferentialpressure" target="_parent">DesignDifferentialPressure</a></text>
</g>
</g>
</svg>