<!DOCTYPE svg PUBLIC "-//W3C//DTD SVG 1.1//EN" "http://www.w3.org/Graphics/SVG/1.1/DTD/svg11.dtd">
<!-- Generated by graphviz version 2.38.0 (20140413.2041)
 --><!-- Title: G Pages: 1 --><svg xmlns="http://www.w3.org/2000/svg" xmlns:xlink="http://www.w3.org/1999/xlink" width="217pt" height="138pt" viewBox="0.00 0.00 217.00 138.00">
<g id="graph0" class="graph" transform="scale(1 1) rotate(0) translate(4 134)">
<!-- 0 -->
<g id="node1" class="node"><defs>
<linearGradient id="l_0" gradientUnits="userSpaceOnUse" x1="104.5" y1="-94" x2="104.5" y2="-130">
<stop offset="0" style="stop-color:#eeeeff;stop-opacity:1.;"/>
<stop offset="1" style="stop-color:#f8f8ff;stop-opacity:1.;"/>
</linearGradient>
</defs>
<polygon fill="url(#l_0)" stroke="black" points="209,-130 0,-130 0,-94 209,-94 209,-130"/>
<text text-anchor="start" x="10.5" y="-110.2" font-family="Arial" text-decoration="underline" font-size="11.00" fill="black">filteringCentrifuge1&#160;:&#160;<a fill="navy" href="../reference/Equipment/FilteringCentrifuge.html" target="_parent">FilteringCentrifuge</a></text>
</g>
<!-- 2 -->
<g id="node2" class="node"><defs>
<linearGradient id="l_1" gradientUnits="userSpaceOnUse" x1="104.5" y1="-3.19744e-014" x2="104.5" y2="-62">
<stop offset="0" style="stop-color:#eeeeff;stop-opacity:1.;"/>
<stop offset="1" style="stop-color:#f8f8ff;stop-opacity:1.;"/>
</linearGradient>
</defs>
<polygon fill="url(#l_1)" stroke="black" points="182,-62 27,-62 27,-0 182,-0 182,-62"/>
<text text-anchor="start" x="66" y="-48.2" font-family="Arial" text-decoration="underline" font-size="11.00" fill="black">length1&#160;:&#160;<a fill="navy" href="../reference/PhysicalQuantities/Length.html" target="_parent">Length</a></text>
<text text-anchor="start" x="37.5" y="-24" font-family="Arial" font-size="10.00" fill="black"><a fill="navy" href="../reference/PhysicalQuantities/Length.html#dexpi-physicalquantities-length-unit" target="_parent">Unit</a>:&#160;<a fill="navy" href="../reference/PhysicalQuantities/LengthUnit.html" target="_parent">LengthUnit</a>&#160;=&#160;</text>
<text text-anchor="start" x="123.5" y="-24" font-family="Arial" font-size="10.00" fill="black"><a fill="navy" href="../reference/PhysicalQuantities/LengthUnit.html#dexpi-physicalquantities-lengthunit-micrometre" target="_parent">Micrometre</a></text>
<text text-anchor="start" x="37.5" y="-9" font-family="Arial" font-size="10.00" fill="black"><a fill="navy" href="../reference/PhysicalQuantities/Length.html#dexpi-physicalquantities-length-value" target="_parent">Value</a>:&#160;<a fill="navy" href="../reference/DataTypes/Double.html" target="_parent">Double</a>&#160;=&#160;</text>
<text text-anchor="start" x="123.5" y="-9" font-family="Arial" font-size="10.00" fill="black">7.0</text>
<polygon fill="black" stroke="black" points="182.0,-42.0 27.0,-42.0 27.0,-42.0 182.0,-42.0 182.0,-42.0"/>
</g>
<!-- 0&#45;&gt;2 -->
<g id="edge1" class="edge"><path fill="none" stroke="#000000" d="M104.5,-93.8582C104.5,-87.4936 104.5,-79.9744 104.5,-72.4106"/>
<polygon fill="#000000" stroke="#000000" points="104.5,-62.1729 109,-72.1729 104.5,-67.1729 104.5,-72.1729 104.5,-72.1729 104.5,-72.1729 104.5,-67.1729 100,-72.173 104.5,-62.1729 104.5,-62.1729"/>
<text text-anchor="start" x="-2.9" y="-65.3729" font-family="Arial" font-size="11.00" fill="black"><a fill="navy" href="../reference/Equipment/FilteringCentrifuge.html#dexpi-equipment-filteringcentrifuge-minimumparticlesize" target="_parent">MinimumParticleSize</a></text>
</g>
</g>
</svg>