<!DOCTYPE svg PUBLIC "-//W3C//DTD SVG 1.1//EN" "http://www.w3.org/Graphics/SVG/1.1/DTD/svg11.dtd">
<!-- Generated by graphviz version 2.38.0 (20140413.2041)
 --><!-- Title: G Pages: 1 --><svg xmlns="http://www.w3.org/2000/svg" xmlns:xlink="http://www.w3.org/1999/xlink" width="281pt" height="138pt" viewBox="0.00 0.00 280.50 138.00">
<g id="graph0" class="graph" transform="scale(1 1) rotate(0) translate(4 134)">
<!-- 0 -->
<g id="node1" class="node"><defs>
<linearGradient id="l_0" gradientUnits="userSpaceOnUse" x1="188" y1="-94" x2="188" y2="-130">
<stop offset="0" style="stop-color:#eeeeff;stop-opacity:1.;"/>
<stop offset="1" style="stop-color:#f8f8ff;stop-opacity:1.;"/>
</linearGradient>
</defs>
<polygon fill="url(#l_0)" stroke="black" points="272.5,-130 103.5,-130 103.5,-94 272.5,-94 272.5,-130"/>
<text text-anchor="start" x="114" y="-110.2" font-family="Arial" text-decoration="underline" font-size="11.00" fill="black">sieveElement1&#160;:&#160;<a fill="navy" href="../reference/Equipment/SieveElement.html" target="_parent">SieveElement</a></text>
</g>
<!-- 2 -->
<g id="node2" class="node"><defs>
<linearGradient id="l_1" gradientUnits="userSpaceOnUse" x1="188" y1="-3.19744e-014" x2="188" y2="-62">
<stop offset="0" style="stop-color:#eeeeff;stop-opacity:1.;"/>
<stop offset="1" style="stop-color:#f8f8ff;stop-opacity:1.;"/>
</linearGradient>
</defs>
<polygon fill="url(#l_1)" stroke="black" points="265.5,-62 110.5,-62 110.5,-0 265.5,-0 265.5,-62"/>
<text text-anchor="start" x="149.5" y="-48.2" font-family="Arial" text-decoration="underline" font-size="11.00" fill="black">length1&#160;:&#160;<a fill="navy" href="../reference/PhysicalQuantities/Length.html" target="_parent">Length</a></text>
<text text-anchor="start" x="121" y="-24" font-family="Arial" font-size="10.00" fill="black"><a fill="navy" href="../reference/PhysicalQuantities/Length.html#dexpi-physicalquantities-length-unit" target="_parent">Unit</a>:&#160;<a fill="navy" href="../reference/PhysicalQuantities/LengthUnit.html" target="_parent">LengthUnit</a>&#160;=&#160;</text>
<text text-anchor="start" x="207" y="-24" font-family="Arial" font-size="10.00" fill="black"><a fill="navy" href="../reference/PhysicalQuantities/LengthUnit.html#dexpi-physicalquantities-lengthunit-micrometre" target="_parent">Micrometre</a></text>
<text text-anchor="start" x="121" y="-9" font-family="Arial" font-size="10.00" fill="black"><a fill="navy" href="../reference/PhysicalQuantities/Length.html#dexpi-physicalquantities-length-value" target="_parent">Value</a>:&#160;<a fill="navy" href="../reference/DataTypes/Double.html" target="_parent">Double</a>&#160;=&#160;</text>
<text text-anchor="start" x="207" y="-9" font-family="Arial" font-size="10.00" fill="black">400.0</text>
<polygon fill="black" stroke="black" points="265.5,-42.0 110.5,-42.0 110.5,-42.0 265.5,-42.0 265.5,-42.0"/>
</g>
<!-- 0&#45;&gt;2 -->
<g id="edge1" class="edge"><path fill="none" stroke="#000000" d="M188,-93.8582C188,-87.4936 188,-79.9744 188,-72.4106"/>
<polygon fill="#000000" stroke="#000000" points="188,-62.1729 192.5,-72.1729 188,-67.1729 188,-72.1729 188,-72.1729 188,-72.1729 188,-67.1729 183.5,-72.173 188,-62.1729 188,-62.1729"/>
<text text-anchor="start" x="-4.4" y="-65.3729" font-family="Arial" font-size="11.00" fill="black"><a fill="navy" href="../reference/Equipment/SieveElement.html#dexpi-equipment-sieveelement-upperlimitpermeableparticlediameter" target="_parent">UpperLimitPermeableParticleDiameter</a></text>
</g>
</g>
</svg>