<!DOCTYPE svg PUBLIC "-//W3C//DTD SVG 1.1//EN" "http://www.w3.org/Graphics/SVG/1.1/DTD/svg11.dtd">
<!-- Generated by graphviz version 2.38.0 (20140413.2041)
 --><!-- Title: G Pages: 1 --><svg xmlns="http://www.w3.org/2000/svg" xmlns:xlink="http://www.w3.org/1999/xlink" width="242pt" height="138pt" viewBox="0.00 0.00 242.00 138.00">
<g id="graph0" class="graph" transform="scale(1 1) rotate(0) translate(4 134)">
<!-- 0 -->
<g id="node1" class="node"><defs>
<linearGradient id="l_0" gradientUnits="userSpaceOnUse" x1="117" y1="-94" x2="117" y2="-130">
<stop offset="0" style="stop-color:#eeeeff;stop-opacity:1.;"/>
<stop offset="1" style="stop-color:#f8f8ff;stop-opacity:1.;"/>
</linearGradient>
</defs>
<polygon fill="url(#l_0)" stroke="black" points="234,-130 1.42109e-014,-130 1.42109e-014,-94 234,-94 234,-130"/>
<text text-anchor="start" x="10" y="-110.2" font-family="Arial" text-decoration="underline" font-size="11.00" fill="black">heatedSurfaceDryer1&#160;:&#160;<a fill="navy" href="../reference/Equipment/HeatedSurfaceDryer.html" target="_parent">HeatedSurfaceDryer</a></text>
</g>
<!-- 2 -->
<g id="node2" class="node"><defs>
<linearGradient id="l_1" gradientUnits="userSpaceOnUse" x1="117" y1="-3.19744e-014" x2="117" y2="-62">
<stop offset="0" style="stop-color:#eeeeff;stop-opacity:1.;"/>
<stop offset="1" style="stop-color:#f8f8ff;stop-opacity:1.;"/>
</linearGradient>
</defs>
<polygon fill="url(#l_1)" stroke="black" points="196,-62 38,-62 38,-0 196,-0 196,-62"/>
<text text-anchor="start" x="87" y="-48.2" font-family="Arial" text-decoration="underline" font-size="11.00" fill="black">area1&#160;:&#160;<a fill="navy" href="../reference/PhysicalQuantities/Area.html" target="_parent">Area</a></text>
<text text-anchor="start" x="48" y="-24" font-family="Arial" font-size="10.00" fill="black"><a fill="navy" href="../reference/PhysicalQuantities/Area.html#dexpi-physicalquantities-area-unit" target="_parent">Unit</a>:&#160;<a fill="navy" href="../reference/PhysicalQuantities/AreaUnit.html" target="_parent">AreaUnit</a>&#160;=&#160;</text>
<text text-anchor="start" x="125" y="-24" font-family="Arial" font-size="10.00" fill="black"><a fill="navy" href="../reference/PhysicalQuantities/AreaUnit.html#dexpi-physicalquantities-areaunit-metresquared" target="_parent">MetreSquared</a></text>
<text text-anchor="start" x="48" y="-9" font-family="Arial" font-size="10.00" fill="black"><a fill="navy" href="../reference/PhysicalQuantities/Area.html#dexpi-physicalquantities-area-value" target="_parent">Value</a>:&#160;<a fill="navy" href="../reference/DataTypes/Double.html" target="_parent">Double</a>&#160;=&#160;</text>
<text text-anchor="start" x="125" y="-9" font-family="Arial" font-size="10.00" fill="black">6.0</text>
<polygon fill="black" stroke="black" points="196.0,-42.0 38.0,-42.0 38.0,-42.0 196.0,-42.0 196.0,-42.0"/>
</g>
<!-- 0&#45;&gt;2 -->
<g id="edge1" class="edge"><path fill="none" stroke="#000000" d="M117,-93.8582C117,-87.4936 117,-79.9744 117,-72.4106"/>
<polygon fill="#000000" stroke="#000000" points="117,-62.1729 121.5,-72.1729 117,-67.1729 117,-72.1729 117,-72.1729 117,-72.1729 117,-67.1729 112.5,-72.173 117,-62.1729 117,-62.1729"/>
<text text-anchor="start" x="16.6" y="-65.3729" font-family="Arial" font-size="11.00" fill="black"><a fill="navy" href="../reference/Equipment/HeatedSurfaceDryer.html#dexpi-equipment-heatedsurfacedryer-heatedsurfacearea" target="_parent">HeatedSurfaceArea</a></text>
</g>
</g>
</svg>