<!DOCTYPE svg PUBLIC "-//W3C//DTD SVG 1.1//EN" "http://www.w3.org/Graphics/SVG/1.1/DTD/svg11.dtd">
<!-- Generated by graphviz version 2.38.0 (20140413.2041)
 --><!-- Title: G Pages: 1 --><svg xmlns="http://www.w3.org/2000/svg" xmlns:xlink="http://www.w3.org/1999/xlink" width="198pt" height="138pt" viewBox="0.00 0.00 198.00 138.00">
<g id="graph0" class="graph" transform="scale(1 1) rotate(0) translate(4 134)">
<!-- 0 -->
<g id="node1" class="node"><defs>
<linearGradient id="l_0" gradientUnits="userSpaceOnUse" x1="120" y1="-94" x2="120" y2="-130">
<stop offset="0" style="stop-color:#eeeeff;stop-opacity:1.;"/>
<stop offset="1" style="stop-color:#f8f8ff;stop-opacity:1.;"/>
</linearGradient>
</defs>
<polygon fill="url(#l_0)" stroke="black" points="150,-130 90,-130 90,-94 150,-94 150,-130"/>
<text text-anchor="start" x="100" y="-110.2" font-family="Arial" text-decoration="underline" font-size="11.00" fill="black">lift1&#160;:&#160;<a fill="navy" href="../reference/Equipment/Lift.html" target="_parent">Lift</a></text>
</g>
<!-- 2 -->
<g id="node2" class="node"><defs>
<linearGradient id="l_1" gradientUnits="userSpaceOnUse" x1="120" y1="-3.19744e-014" x2="120" y2="-62">
<stop offset="0" style="stop-color:#eeeeff;stop-opacity:1.;"/>
<stop offset="1" style="stop-color:#f8f8ff;stop-opacity:1.;"/>
</linearGradient>
</defs>
<polygon fill="url(#l_1)" stroke="black" points="190,-62 50,-62 50,-0 190,-0 190,-62"/>
<text text-anchor="start" x="85" y="-48.2" font-family="Arial" text-decoration="underline" font-size="11.00" fill="black">mass1&#160;:&#160;<a fill="navy" href="../reference/PhysicalQuantities/Mass.html" target="_parent">Mass</a></text>
<text text-anchor="start" x="60" y="-24" font-family="Arial" font-size="10.00" fill="black"><a fill="navy" href="../reference/PhysicalQuantities/Mass.html#dexpi-physicalquantities-mass-unit" target="_parent">Unit</a>:&#160;<a fill="navy" href="../reference/PhysicalQuantities/MassUnit.html" target="_parent">MassUnit</a>&#160;=&#160;</text>
<text text-anchor="start" x="141" y="-24" font-family="Arial" font-size="10.00" fill="black"><a fill="navy" href="../reference/PhysicalQuantities/MassUnit.html#dexpi-physicalquantities-massunit-kilogram" target="_parent">Kilogram</a></text>
<text text-anchor="start" x="60" y="-9" font-family="Arial" font-size="10.00" fill="black"><a fill="navy" href="../reference/PhysicalQuantities/Mass.html#dexpi-physicalquantities-mass-value" target="_parent">Value</a>:&#160;<a fill="navy" href="../reference/DataTypes/Double.html" target="_parent">Double</a>&#160;=&#160;</text>
<text text-anchor="start" x="141" y="-9" font-family="Arial" font-size="10.00" fill="black">900.0</text>
<polygon fill="black" stroke="black" points="190.0,-42.0 50.0,-42.0 50.0,-42.0 190.0,-42.0 190.0,-42.0"/>
</g>
<!-- 0&#45;&gt;2 -->
<g id="edge1" class="edge"><path fill="none" stroke="#000000" d="M120,-93.8582C120,-87.4936 120,-79.9744 120,-72.4106"/>
<polygon fill="#000000" stroke="#000000" points="120,-62.1729 124.5,-72.1729 120,-67.1729 120,-72.1729 120,-72.1729 120,-72.1729 120,-67.1729 115.5,-72.173 120,-62.1729 120,-62.1729"/>
<text text-anchor="start" x="-4.4" y="-65.3729" font-family="Arial" font-size="11.00" fill="black"><a fill="navy" href="../reference/Equipment/Lift.html#dexpi-equipment-lift-upperlimitloadcapacity" target="_parent">UpperLimitLoadCapacity</a></text>
</g>
</g>
</svg>