<!DOCTYPE svg PUBLIC "-//W3C//DTD SVG 1.1//EN" "http://www.w3.org/Graphics/SVG/1.1/DTD/svg11.dtd">
<!-- Generated by graphviz version 2.38.0 (20140413.2041)
 --><!-- Title: G Pages: 1 --><svg xmlns="http://www.w3.org/2000/svg" xmlns:xlink="http://www.w3.org/1999/xlink" width="227pt" height="138pt" viewBox="0.00 0.00 227.00 138.00">
<g id="graph0" class="graph" transform="scale(1 1) rotate(0) translate(4 134)">
<!-- 0 -->
<g id="node1" class="node"><defs>
<linearGradient id="l_0" gradientUnits="userSpaceOnUse" x1="109.5" y1="-94" x2="109.5" y2="-130">
<stop offset="0" style="stop-color:#eeeeff;stop-opacity:1.;"/>
<stop offset="1" style="stop-color:#f8f8ff;stop-opacity:1.;"/>
</linearGradient>
</defs>
<polygon fill="url(#l_0)" stroke="black" points="219,-130 0,-130 0,-94 219,-94 219,-130"/>
<text text-anchor="start" x="10.5" y="-110.2" font-family="Arial" text-decoration="underline" font-size="11.00" fill="black">rotaryCompressor1&#160;:&#160;<a fill="navy" href="../reference/Equipment/RotaryCompressor.html" target="_parent">RotaryCompressor</a></text>
</g>
<!-- 2 -->
<g id="node2" class="node"><defs>
<linearGradient id="l_1" gradientUnits="userSpaceOnUse" x1="109.5" y1="-3.19744e-014" x2="109.5" y2="-62">
<stop offset="0" style="stop-color:#eeeeff;stop-opacity:1.;"/>
<stop offset="1" style="stop-color:#f8f8ff;stop-opacity:1.;"/>
</linearGradient>
</defs>
<polygon fill="url(#l_1)" stroke="black" points="179,-62 40,-62 40,-0 179,-0 179,-62"/>
<text text-anchor="start" x="71.5" y="-48.2" font-family="Arial" text-decoration="underline" font-size="11.00" fill="black">power1&#160;:&#160;<a fill="navy" href="../reference/PhysicalQuantities/Power.html" target="_parent">Power</a></text>
<text text-anchor="start" x="50.5" y="-24" font-family="Arial" font-size="10.00" fill="black"><a fill="navy" href="../reference/PhysicalQuantities/Power.html#dexpi-physicalquantities-power-unit" target="_parent">Unit</a>:&#160;<a fill="navy" href="../reference/PhysicalQuantities/PowerUnit.html" target="_parent">PowerUnit</a>&#160;=&#160;</text>
<text text-anchor="start" x="134.5" y="-24" font-family="Arial" font-size="10.00" fill="black"><a fill="navy" href="../reference/PhysicalQuantities/PowerUnit.html#dexpi-physicalquantities-powerunit-kilowatt" target="_parent">Kilowatt</a></text>
<text text-anchor="start" x="50.5" y="-9" font-family="Arial" font-size="10.00" fill="black"><a fill="navy" href="../reference/PhysicalQuantities/Power.html#dexpi-physicalquantities-power-value" target="_parent">Value</a>:&#160;<a fill="navy" href="../reference/DataTypes/Double.html" target="_parent">Double</a>&#160;=&#160;</text>
<text text-anchor="start" x="134.5" y="-9" font-family="Arial" font-size="10.00" fill="black">400.0</text>
<polygon fill="black" stroke="black" points="179.0,-42.0 40.0,-42.0 40.0,-42.0 179.0,-42.0 179.0,-42.0"/>
</g>
<!-- 0&#45;&gt;2 -->
<g id="edge1" class="edge"><path fill="none" stroke="#000000" d="M109.5,-93.8582C109.5,-87.4936 109.5,-79.9744 109.5,-72.4106"/>
<polygon fill="#000000" stroke="#000000" points="109.5,-62.1729 114,-72.1729 109.5,-67.1729 109.5,-72.1729 109.5,-72.1729 109.5,-72.1729 109.5,-67.1729 105,-72.173 109.5,-62.1729 109.5,-62.1729"/>
<text text-anchor="start" x="13.1" y="-65.3729" font-family="Arial" font-size="11.00" fill="black"><a fill="navy" href="../reference/Equipment/RotaryCompressor.html#dexpi-equipment-rotarycompressor-designshaftpower" target="_parent">DesignShaftPower</a></text>
</g>
</g>
</svg>