<!DOCTYPE svg PUBLIC "-//W3C//DTD SVG 1.1//EN" "http://www.w3.org/Graphics/SVG/1.1/DTD/svg11.dtd">
<!-- Generated by graphviz version 2.38.0 (20140413.2041)
 --><!-- Title: G Pages: 1 --><svg xmlns="http://www.w3.org/2000/svg" xmlns:xlink="http://www.w3.org/1999/xlink" width="338pt" height="189pt" viewBox="0.00 0.00 337.50 189.00">
<g id="graph0" class="graph" transform="scale(1 1) rotate(0) translate(4 185)">
<!-- 0 -->
<g id="node1" class="node"><defs>
<linearGradient id="l_0" gradientUnits="userSpaceOnUse" x1="106.5" y1="-142" x2="106.5" y2="-181">
<stop offset="0" style="stop-color:#ffffbb;stop-opacity:1.;"/>
<stop offset="1" style="stop-color:#ffffee;stop-opacity:1.;"/>
</linearGradient>
</defs>
<polygon fill="url(#l_0)" stroke="black" points="155,-181 58,-181 58,-142 155,-142 155,-181"/>
<text text-anchor="start" x="75" y="-166.5" font-family="Arial" font-size="10.00" fill="black">&lt;&lt;dataType&gt;&gt;</text>
<text text-anchor="start" x="68.5" y="-151.7" font-family="Arial" font-weight="bold" font-style="italic" font-size="11.00" fill="black"><a fill="navy" href="../reference/PhysicalQuantities/NullablePower.html" target="_parent">NullablePower</a></text>
</g>
<!-- 8&#45;inner&#45;node -->
<!-- 0&#45;&gt;8&#45;inner&#45;node -->
<g id="edge1" class="edge"><path fill="none" stroke="black" d="M101.406,-131.92C99.4531,-120.959 97.6515,-110.85 97.5091,-110.051L97.4667,-108.95"/>
<polygon fill="none" stroke="black" points="97.9995,-132.752 103.2,-141.982 104.891,-131.523 97.9995,-132.752"/>
</g>
<!-- 9&#45;inner&#45;node -->
<!-- 0&#45;&gt;9&#45;inner&#45;node -->
<g id="edge3" class="edge"><path fill="none" stroke="black" d="M112.159,-131.92C114.33,-120.959 116.332,-110.85 116.49,-110.051L116.534,-108.95"/>
<polygon fill="none" stroke="black" points="108.676,-131.493 110.167,-141.982 115.543,-132.853 108.676,-131.493"/>
</g>
<!-- 1 -->
<g id="node2" class="node"><defs>
<linearGradient id="l_1" gradientUnits="userSpaceOnUse" x1="51.5" y1="-3.55271e-014" x2="51.5" y2="-77">
<stop offset="0" style="stop-color:#ffffbb;stop-opacity:1.;"/>
<stop offset="1" style="stop-color:#ffffee;stop-opacity:1.;"/>
</linearGradient>
</defs>
<polygon fill="url(#l_1)" stroke="black" points="103,-77 0,-77 0,-0 103,-0 103,-77"/>
<text text-anchor="start" x="20" y="-62.5" font-family="Arial" font-size="10.00" fill="black">&lt;&lt;dataType&gt;&gt;</text>
<text text-anchor="start" x="35" y="-47.7" font-family="Arial" font-weight="bold" font-size="11.00" fill="black"><a fill="navy" href="../reference/PhysicalQuantities/Power.html" target="_parent">Power</a></text>
<text text-anchor="start" x="10.5" y="-23.5" font-family="Arial" font-size="10.00" fill="black"><a fill="navy" href="../reference/PhysicalQuantities/Power.html#dexpi-physicalquantities-power-unit" target="_parent">Unit</a>&#160;:</text>
<text text-anchor="start" x="45.5" y="-23.5" font-family="Arial" font-size="10.00" fill="black"><a fill="navy" href="../reference/PhysicalQuantities/PowerUnit.html" target="_parent">PowerUnit</a>&#160;</text>
<text text-anchor="start" x="10.5" y="-8.5" font-family="Arial" font-size="10.00" fill="black"><a fill="navy" href="../reference/PhysicalQuantities/Power.html#dexpi-physicalquantities-power-value" target="_parent">Value</a>&#160;:</text>
<text text-anchor="start" x="45.5" y="-8.5" font-family="Arial" font-size="10.00" fill="black"><a fill="navy" href="../reference/DataTypes/Double.html" target="_parent">Double</a>&#160;</text>
<polygon fill="black" stroke="black" points="103.0,-41.5 0.0,-41.5 0.0,-41.5 103.0,-41.5 103.0,-41.5"/>
</g>
<!-- 6 -->
<g id="node3" class="node"><defs>
<linearGradient id="l_2" gradientUnits="userSpaceOnUse" x1="163.5" y1="-19" x2="163.5" y2="-58">
<stop offset="0" style="stop-color:#ffffbb;stop-opacity:1.;"/>
<stop offset="1" style="stop-color:#ffffee;stop-opacity:1.;"/>
</linearGradient>
</defs>
<polygon fill="url(#l_2)" stroke="black" points="205.5,-58 121.5,-58 121.5,-19 205.5,-19 205.5,-58"/>
<text text-anchor="start" x="131.5" y="-43.5" font-family="Arial" font-size="10.00" fill="black">&lt;&lt;dataType&gt;&gt;</text>
<text text-anchor="start" x="136" y="-28.7" font-family="Arial" font-weight="bold" font-size="11.00" fill="black"><a fill="navy" href="../reference/PhysicalQuantities/NullPower.html" target="_parent">NullPower</a></text>
</g>
<!-- 7 -->
<g id="node4" class="node"><defs>
<linearGradient id="l_3" gradientUnits="userSpaceOnUse" x1="251.5" y1="-143.5" x2="251.5" y2="-179.5">
<stop offset="0" style="stop-color:#eeeeff;stop-opacity:1.;"/>
<stop offset="1" style="stop-color:#f8f8ff;stop-opacity:1.;"/>
</linearGradient>
</defs>
<polygon fill="url(#l_3)" stroke="black" points="329.5,-179.5 173.5,-179.5 173.5,-143.5 329.5,-143.5 329.5,-179.5"/>
<text text-anchor="start" x="183.5" y="-159.7" font-family="Arial" text-decoration="underline" font-size="11.00" fill="black"><a fill="navy" href="../reference/PhysicalQuantities/NULL_POWER.html" target="_parent">NULL_POWER</a>&#160;:&#160;<a fill="navy" href="../reference/PhysicalQuantities/NullPower.html" target="_parent">NullPower</a></text>
</g>
<!-- 8&#45;inner&#45;node&#45;&gt;1 -->
<g id="edge2" class="edge"><path fill="none" stroke="black" d="M97.4667,-108.95C96.8192,-107.971 86.8412,-92.8959 76.347,-77.0406"/>
</g>
<!-- 9&#45;inner&#45;node&#45;&gt;6 -->
<g id="edge4" class="edge"><path fill="none" stroke="black" d="M116.534,-108.95C117.462,-107.577 137.166,-78.4406 150.754,-58.3478"/>
</g>
</g>
</svg>