<!DOCTYPE svg PUBLIC "-//W3C//DTD SVG 1.1//EN" "http://www.w3.org/Graphics/SVG/1.1/DTD/svg11.dtd">
<!-- Generated by graphviz version 2.38.0 (20140413.2041)
 --><!-- Title: G Pages: 1 --><svg xmlns="http://www.w3.org/2000/svg" xmlns:xlink="http://www.w3.org/1999/xlink" width="344pt" height="232pt" viewBox="0.00 0.00 344.00 232.00">
<g id="graph0" class="graph" transform="scale(1 1) rotate(0) translate(4 228)">
<!-- 0 -->
<g id="node1" class="node"><defs>
<linearGradient id="l_0" gradientUnits="userSpaceOnUse" x1="168" y1="-188" x2="168" y2="-224">
<stop offset="0" style="stop-color:#eeeeff;stop-opacity:1.;"/>
<stop offset="1" style="stop-color:#f8f8ff;stop-opacity:1.;"/>
</linearGradient>
</defs>
<polygon fill="url(#l_0)" stroke="black" points="272,-224 64,-224 64,-188 272,-188 272,-224"/>
<text text-anchor="start" x="74" y="-204.2" font-family="Arial" text-decoration="underline" font-size="11.00" fill="black">wasteGasEmitter1&#160;:&#160;<a fill="navy" href="../reference/Equipment/WasteGasEmitter.html" target="_parent">WasteGasEmitter</a></text>
</g>
<!-- 2 -->
<g id="node2" class="node"><defs>
<linearGradient id="l_1" gradientUnits="userSpaceOnUse" x1="168" y1="-94" x2="168" y2="-156">
<stop offset="0" style="stop-color:#eeeeff;stop-opacity:1.;"/>
<stop offset="1" style="stop-color:#f8f8ff;stop-opacity:1.;"/>
</linearGradient>
</defs>
<polygon fill="url(#l_1)" stroke="black" points="336,-156 0,-156 0,-94 336,-94 336,-156"/>
<text text-anchor="start" x="10" y="-142.2" font-family="Arial" text-decoration="underline" font-size="11.00" fill="black">customMassFlowRateAttribute1&#160;:&#160;<a fill="navy" href="../reference/Customization/CustomMassFlowRateAttribute.html" target="_parent">CustomMassFlowRateAttribute</a></text>
<text text-anchor="start" x="10" y="-118" font-family="Arial" font-size="10.00" fill="black"><a fill="navy" href="../reference/Customization/CustomAttribute.html#dexpi-customization-customattribute-attributename" target="_parent">AttributeName</a>:&#160;<a fill="navy" href="../reference/DataTypes/String.html" target="_parent">String</a>&#160;=&#160;</text>
<text text-anchor="start" x="122" y="-118" font-family="Arial" font-size="10.00" fill="black">"DesignMassFlowRate"</text>
<text text-anchor="start" x="10" y="-103" font-family="Arial" font-size="10.00" fill="black"><a fill="navy" href="../reference/Customization/CustomAttribute.html#dexpi-customization-customattribute-attributeuri" target="_parent">AttributeURI</a>:&#160;<a fill="navy" href="../reference/DataTypes/AnyURI.html" target="_parent">AnyURI</a>&#160;=&#160;</text>
<text text-anchor="start" x="122" y="-103" font-family="Arial" font-size="10.00" fill="black">"http://data.posccaesar.org/rdl/RDS14286182"</text>
<polygon fill="black" stroke="black" points="336.0,-136.0 0.0,-136.0 0.0,-136.0 336.0,-136.0 336.0,-136.0"/>
</g>
<!-- 0&#45;&gt;2 -->
<g id="edge2" class="edge"><path fill="none" stroke="#000000" d="M168,-187.858C168,-181.494 168,-173.974 168,-166.411"/>
<polygon fill="#000000" stroke="#000000" points="168,-156.173 172.5,-166.173 168,-161.173 168,-166.173 168,-166.173 168,-166.173 168,-161.173 163.5,-166.173 168,-156.173 168,-156.173"/>
<text text-anchor="start" x="78.6" y="-159.373" font-family="Arial" font-size="11.00" fill="black"><a fill="navy" href="../reference/Customization/CustomAttributeOwner.html#dexpi-customization-customattributeowner-customattributes" target="_parent">CustomAttributes</a></text>
</g>
<!-- 8 -->
<g id="node3" class="node"><defs>
<linearGradient id="l_2" gradientUnits="userSpaceOnUse" x1="168" y1="-3.19744e-014" x2="168" y2="-62">
<stop offset="0" style="stop-color:#eeeeff;stop-opacity:1.;"/>
<stop offset="1" style="stop-color:#f8f8ff;stop-opacity:1.;"/>
</linearGradient>
</defs>
<polygon fill="url(#l_2)" stroke="black" points="280.5,-62 55.5,-62 55.5,-0 280.5,-0 280.5,-62"/>
<text text-anchor="start" x="87" y="-48.2" font-family="Arial" text-decoration="underline" font-size="11.00" fill="black">massFlowRate1&#160;:&#160;<a fill="navy" href="../reference/PhysicalQuantities/MassFlowRate.html" target="_parent">MassFlowRate</a></text>
<text text-anchor="start" x="66" y="-24" font-family="Arial" font-size="10.00" fill="black"><a fill="navy" href="../reference/PhysicalQuantities/MassFlowRate.html#dexpi-physicalquantities-massflowrate-unit" target="_parent">Unit</a>:&#160;<a fill="navy" href="../reference/PhysicalQuantities/MassFlowRateUnit.html" target="_parent">MassFlowRateUnit</a>&#160;=&#160;</text>
<text text-anchor="start" x="188" y="-24" font-family="Arial" font-size="10.00" fill="black"><a fill="navy" href="../reference/PhysicalQuantities/MassFlowRateUnit.html#dexpi-physicalquantities-massflowrateunit-kilogramperminute" target="_parent">KilogramPerMinute</a></text>
<text text-anchor="start" x="66" y="-9" font-family="Arial" font-size="10.00" fill="black"><a fill="navy" href="../reference/PhysicalQuantities/MassFlowRate.html#dexpi-physicalquantities-massflowrate-value" target="_parent">Value</a>:&#160;<a fill="navy" href="../reference/DataTypes/Double.html" target="_parent">Double</a>&#160;=&#160;</text>
<text text-anchor="start" x="188" y="-9" font-family="Arial" font-size="10.00" fill="black">3</text>
<polygon fill="black" stroke="black" points="280.5,-42.0 55.5,-42.0 55.5,-42.0 280.5,-42.0 280.5,-42.0"/>
</g>
<!-- 2&#45;&gt;8 -->
<g id="edge1" class="edge"><path fill="none" stroke="#000000" d="M168,-93.8758C168,-86.9657 168,-79.5109 168,-72.2503"/>
<polygon fill="#000000" stroke="#000000" points="168,-62.1919 172.5,-72.1919 168,-67.1919 168,-72.1919 168,-72.1919 168,-72.1919 168,-67.1919 163.5,-72.192 168,-62.1919 168,-62.1919"/>
<text text-anchor="start" x="135.6" y="-65.3919" font-family="Arial" font-size="11.00" fill="black"><a fill="navy" href="../reference/Customization/CustomMassFlowRateAttribute.html#dexpi-customization-custommassflowrateattribute-value" target="_parent">Value</a></text>
</g>
</g>
</svg>