<!DOCTYPE svg PUBLIC "-//W3C//DTD SVG 1.1//EN" "http://www.w3.org/Graphics/SVG/1.1/DTD/svg11.dtd">
<!-- Generated by graphviz version 2.38.0 (20140413.2041)
 --><!-- Title: G Pages: 1 --><svg xmlns="http://www.w3.org/2000/svg" xmlns:xlink="http://www.w3.org/1999/xlink" width="272pt" height="138pt" viewBox="0.00 0.00 271.50 138.00">
<g id="graph0" class="graph" transform="scale(1 1) rotate(0) translate(4 134)">
<!-- 0 -->
<g id="node1" class="node"><defs>
<linearGradient id="l_0" gradientUnits="userSpaceOnUse" x1="151" y1="-94" x2="151" y2="-130">
<stop offset="0" style="stop-color:#eeeeff;stop-opacity:1.;"/>
<stop offset="1" style="stop-color:#f8f8ff;stop-opacity:1.;"/>
</linearGradient>
</defs>
<polygon fill="url(#l_0)" stroke="black" points="184.5,-130 117.5,-130 117.5,-94 184.5,-94 184.5,-130"/>
<text text-anchor="start" x="128" y="-110.2" font-family="Arial" text-decoration="underline" font-size="11.00" fill="black">mill1&#160;:&#160;<a fill="navy" href="../reference/Equipment/Mill.html" target="_parent">Mill</a></text>
</g>
<!-- 2 -->
<g id="node2" class="node"><defs>
<linearGradient id="l_1" gradientUnits="userSpaceOnUse" x1="151" y1="-3.19744e-014" x2="151" y2="-62">
<stop offset="0" style="stop-color:#eeeeff;stop-opacity:1.;"/>
<stop offset="1" style="stop-color:#f8f8ff;stop-opacity:1.;"/>
</linearGradient>
</defs>
<polygon fill="url(#l_1)" stroke="black" points="263.5,-62 38.5,-62 38.5,-0 263.5,-0 263.5,-62"/>
<text text-anchor="start" x="70" y="-48.2" font-family="Arial" text-decoration="underline" font-size="11.00" fill="black">massFlowRate1&#160;:&#160;<a fill="navy" href="../reference/PhysicalQuantities/MassFlowRate.html" target="_parent">MassFlowRate</a></text>
<text text-anchor="start" x="49" y="-24" font-family="Arial" font-size="10.00" fill="black"><a fill="navy" href="../reference/PhysicalQuantities/MassFlowRate.html#dexpi-physicalquantities-massflowrate-unit" target="_parent">Unit</a>:&#160;<a fill="navy" href="../reference/PhysicalQuantities/MassFlowRateUnit.html" target="_parent">MassFlowRateUnit</a>&#160;=&#160;</text>
<text text-anchor="start" x="171" y="-24" font-family="Arial" font-size="10.00" fill="black"><a fill="navy" href="../reference/PhysicalQuantities/MassFlowRateUnit.html#dexpi-physicalquantities-massflowrateunit-kilogramperminute" target="_parent">KilogramPerMinute</a></text>
<text text-anchor="start" x="49" y="-9" font-family="Arial" font-size="10.00" fill="black"><a fill="navy" href="../reference/PhysicalQuantities/MassFlowRate.html#dexpi-physicalquantities-massflowrate-value" target="_parent">Value</a>:&#160;<a fill="navy" href="../reference/DataTypes/Double.html" target="_parent">Double</a>&#160;=&#160;</text>
<text text-anchor="start" x="171" y="-9" font-family="Arial" font-size="10.00" fill="black">40.0</text>
<polygon fill="black" stroke="black" points="263.5,-42.0 38.5,-42.0 38.5,-42.0 263.5,-42.0 263.5,-42.0"/>
</g>
<!-- 0&#45;&gt;2 -->
<g id="edge1" class="edge"><path fill="none" stroke="#000000" d="M151,-93.8582C151,-87.4936 151,-79.9744 151,-72.4106"/>
<polygon fill="#000000" stroke="#000000" points="151,-62.1729 155.5,-72.1729 151,-67.1729 151,-72.1729 151,-72.1729 151,-72.1729 151,-67.1729 146.5,-72.173 151,-62.1729 151,-62.1729"/>
<text text-anchor="start" x="-4.4" y="-65.3729" font-family="Arial" font-size="11.00" fill="black"><a fill="navy" href="../reference/Equipment/Mill.html#dexpi-equipment-mill-designcapacitymassflowrate" target="_parent">DesignCapacityMassFlowRate</a></text>
</g>
</g>
</svg>