<!DOCTYPE svg PUBLIC "-//W3C//DTD SVG 1.1//EN" "http://www.w3.org/Graphics/SVG/1.1/DTD/svg11.dtd">
<!-- Generated by graphviz version 2.38.0 (20140413.2041)
 --><!-- Title: G Pages: 1 --><svg xmlns="http://www.w3.org/2000/svg" xmlns:xlink="http://www.w3.org/1999/xlink" width="221pt" height="138pt" viewBox="0.00 0.00 221.00 138.00">
<g id="graph0" class="graph" transform="scale(1 1) rotate(0) translate(4 134)">
<!-- 0 -->
<g id="node1" class="node"><defs>
<linearGradient id="l_0" gradientUnits="userSpaceOnUse" x1="121" y1="-94" x2="121" y2="-130">
<stop offset="0" style="stop-color:#eeeeff;stop-opacity:1.;"/>
<stop offset="1" style="stop-color:#f8f8ff;stop-opacity:1.;"/>
</linearGradient>
</defs>
<polygon fill="url(#l_0)" stroke="black" points="213,-130 29,-130 29,-94 213,-94 213,-130"/>
<text text-anchor="start" x="39" y="-110.2" font-family="Arial" text-decoration="underline" font-size="11.00" fill="black">heatExchanger1&#160;:&#160;<a fill="navy" href="../reference/Equipment/HeatExchanger.html" target="_parent">HeatExchanger</a></text>
</g>
<!-- 2 -->
<g id="node2" class="node"><defs>
<linearGradient id="l_1" gradientUnits="userSpaceOnUse" x1="121" y1="-3.19744e-014" x2="121" y2="-62">
<stop offset="0" style="stop-color:#eeeeff;stop-opacity:1.;"/>
<stop offset="1" style="stop-color:#f8f8ff;stop-opacity:1.;"/>
</linearGradient>
</defs>
<polygon fill="url(#l_1)" stroke="black" points="200,-62 42,-62 42,-0 200,-0 200,-62"/>
<text text-anchor="start" x="91" y="-48.2" font-family="Arial" text-decoration="underline" font-size="11.00" fill="black">area1&#160;:&#160;<a fill="navy" href="../reference/PhysicalQuantities/Area.html" target="_parent">Area</a></text>
<text text-anchor="start" x="52" y="-24" font-family="Arial" font-size="10.00" fill="black"><a fill="navy" href="../reference/PhysicalQuantities/Area.html#dexpi-physicalquantities-area-unit" target="_parent">Unit</a>:&#160;<a fill="navy" href="../reference/PhysicalQuantities/AreaUnit.html" target="_parent">AreaUnit</a>&#160;=&#160;</text>
<text text-anchor="start" x="129" y="-24" font-family="Arial" font-size="10.00" fill="black"><a fill="navy" href="../reference/PhysicalQuantities/AreaUnit.html#dexpi-physicalquantities-areaunit-metresquared" target="_parent">MetreSquared</a></text>
<text text-anchor="start" x="52" y="-9" font-family="Arial" font-size="10.00" fill="black"><a fill="navy" href="../reference/PhysicalQuantities/Area.html#dexpi-physicalquantities-area-value" target="_parent">Value</a>:&#160;<a fill="navy" href="../reference/DataTypes/Double.html" target="_parent">Double</a>&#160;=&#160;</text>
<text text-anchor="start" x="129" y="-9" font-family="Arial" font-size="10.00" fill="black">46.8</text>
<polygon fill="black" stroke="black" points="200.0,-42.0 42.0,-42.0 42.0,-42.0 200.0,-42.0 200.0,-42.0"/>
</g>
<!-- 0&#45;&gt;2 -->
<g id="edge1" class="edge"><path fill="none" stroke="#000000" d="M121,-93.8582C121,-87.4936 121,-79.9744 121,-72.4106"/>
<polygon fill="#000000" stroke="#000000" points="121,-62.1729 125.5,-72.1729 121,-67.1729 121,-72.1729 121,-72.1729 121,-72.1729 121,-67.1729 116.5,-72.173 121,-62.1729 121,-62.1729"/>
<text text-anchor="start" x="-4.4" y="-65.3729" font-family="Arial" font-size="11.00" fill="black"><a fill="navy" href="../reference/Equipment/HeatExchanger.html#dexpi-equipment-heatexchanger-designheattransferarea" target="_parent">DesignHeatTransferArea</a></text>
</g>
</g>
</svg>