<!DOCTYPE svg PUBLIC "-//W3C//DTD SVG 1.1//EN" "http://www.w3.org/Graphics/SVG/1.1/DTD/svg11.dtd">
<!-- Generated by graphviz version 2.38.0 (20140413.2041)
 --><!-- Title: G Pages: 1 --><svg xmlns="http://www.w3.org/2000/svg" xmlns:xlink="http://www.w3.org/1999/xlink" width="180pt" height="138pt" viewBox="0.00 0.00 180.00 138.00">
<g id="graph0" class="graph" transform="scale(1 1) rotate(0) translate(4 134)">
<!-- 0 -->
<g id="node1" class="node"><defs>
<linearGradient id="l_0" gradientUnits="userSpaceOnUse" x1="86" y1="-94" x2="86" y2="-130">
<stop offset="0" style="stop-color:#eeeeff;stop-opacity:1.;"/>
<stop offset="1" style="stop-color:#f8f8ff;stop-opacity:1.;"/>
</linearGradient>
</defs>
<polygon fill="url(#l_0)" stroke="black" points="172,-130 0,-130 0,-94 172,-94 172,-130"/>
<text text-anchor="start" x="10" y="-110.2" font-family="Arial" text-decoration="underline" font-size="11.00" fill="black">vibratingSieve1&#160;:&#160;<a fill="navy" href="../reference/Equipment/VibratingSieve.html" target="_parent">VibratingSieve</a></text>
</g>
<!-- 2 -->
<g id="node2" class="node"><defs>
<linearGradient id="l_1" gradientUnits="userSpaceOnUse" x1="86" y1="-3.19744e-014" x2="86" y2="-62">
<stop offset="0" style="stop-color:#eeeeff;stop-opacity:1.;"/>
<stop offset="1" style="stop-color:#f8f8ff;stop-opacity:1.;"/>
</linearGradient>
</defs>
<polygon fill="url(#l_1)" stroke="black" points="155.5,-62 16.5,-62 16.5,-0 155.5,-0 155.5,-62"/>
<text text-anchor="start" x="48" y="-48.2" font-family="Arial" text-decoration="underline" font-size="11.00" fill="black">power1&#160;:&#160;<a fill="navy" href="../reference/PhysicalQuantities/Power.html" target="_parent">Power</a></text>
<text text-anchor="start" x="27" y="-24" font-family="Arial" font-size="10.00" fill="black"><a fill="navy" href="../reference/PhysicalQuantities/Power.html#dexpi-physicalquantities-power-unit" target="_parent">Unit</a>:&#160;<a fill="navy" href="../reference/PhysicalQuantities/PowerUnit.html" target="_parent">PowerUnit</a>&#160;=&#160;</text>
<text text-anchor="start" x="111" y="-24" font-family="Arial" font-size="10.00" fill="black"><a fill="navy" href="../reference/PhysicalQuantities/PowerUnit.html#dexpi-physicalquantities-powerunit-kilowatt" target="_parent">Kilowatt</a></text>
<text text-anchor="start" x="27" y="-9" font-family="Arial" font-size="10.00" fill="black"><a fill="navy" href="../reference/PhysicalQuantities/Power.html#dexpi-physicalquantities-power-value" target="_parent">Value</a>:&#160;<a fill="navy" href="../reference/DataTypes/Double.html" target="_parent">Double</a>&#160;=&#160;</text>
<text text-anchor="start" x="111" y="-9" font-family="Arial" font-size="10.00" fill="black">500.0</text>
<polygon fill="black" stroke="black" points="155.5,-42.0 16.5,-42.0 16.5,-42.0 155.5,-42.0 155.5,-42.0"/>
</g>
<!-- 0&#45;&gt;2 -->
<g id="edge1" class="edge"><path fill="none" stroke="#000000" d="M86,-93.8582C86,-87.4936 86,-79.9744 86,-72.4106"/>
<polygon fill="#000000" stroke="#000000" points="86,-62.1729 90.5001,-72.1729 86,-67.1729 86.0001,-72.1729 86.0001,-72.1729 86.0001,-72.1729 86,-67.1729 81.5001,-72.173 86,-62.1729 86,-62.1729"/>
<text text-anchor="start" x="14.6" y="-65.3729" font-family="Arial" font-size="11.00" fill="black"><a fill="navy" href="../reference/Equipment/VibratingSieve.html#dexpi-equipment-vibratingsieve-designpower" target="_parent">DesignPower</a></text>
</g>
</g>
</svg>