<!DOCTYPE svg PUBLIC "-//W3C//DTD SVG 1.1//EN" "http://www.w3.org/Graphics/SVG/1.1/DTD/svg11.dtd">
<!-- Generated by graphviz version 2.38.0 (20140413.2041)
 --><!-- Title: G Pages: 1 --><svg xmlns="http://www.w3.org/2000/svg" xmlns:xlink="http://www.w3.org/1999/xlink" width="430pt" height="232pt" viewBox="0.00 0.00 430.00 232.00">
<g id="graph0" class="graph" transform="scale(1 1) rotate(0) translate(4 228)">
<!-- 0 -->
<g id="node1" class="node"><defs>
<linearGradient id="l_0" gradientUnits="userSpaceOnUse" x1="211" y1="-188" x2="211" y2="-224">
<stop offset="0" style="stop-color:#eeeeff;stop-opacity:1.;"/>
<stop offset="1" style="stop-color:#f8f8ff;stop-opacity:1.;"/>
</linearGradient>
</defs>
<polygon fill="url(#l_0)" stroke="black" points="250,-224 172,-224 172,-188 250,-188 250,-224"/>
<text text-anchor="start" x="182" y="-204.2" font-family="Arial" text-decoration="underline" font-size="11.00" fill="black">ship1&#160;:&#160;<a fill="navy" href="../reference/Equipment/Ship.html" target="_parent">Ship</a></text>
</g>
<!-- 2 -->
<g id="node2" class="node"><defs>
<linearGradient id="l_1" gradientUnits="userSpaceOnUse" x1="211" y1="-94" x2="211" y2="-156">
<stop offset="0" style="stop-color:#eeeeff;stop-opacity:1.;"/>
<stop offset="1" style="stop-color:#f8f8ff;stop-opacity:1.;"/>
</linearGradient>
</defs>
<polygon fill="url(#l_1)" stroke="black" points="422,-156 0,-156 0,-94 422,-94 422,-156"/>
<text text-anchor="start" x="10" y="-142.2" font-family="Arial" text-decoration="underline" font-size="11.00" fill="black">customNumberPerTimeIntervalAttribute1&#160;:&#160;<a fill="navy" href="../reference/Customization/CustomNumberPerTimeIntervalAttribute.html" target="_parent">CustomNumberPerTimeIntervalAttribute</a></text>
<text text-anchor="start" x="10" y="-118" font-family="Arial" font-size="10.00" fill="black"><a fill="navy" href="../reference/Customization/CustomAttribute.html#dexpi-customization-customattribute-attributename" target="_parent">AttributeName</a>:&#160;<a fill="navy" href="../reference/DataTypes/String.html" target="_parent">String</a>&#160;=&#160;</text>
<text text-anchor="start" x="174" y="-118" font-family="Arial" font-size="10.00" fill="black">"LowerLimitNumberOfJourneysPerTime"</text>
<text text-anchor="start" x="10" y="-103" font-family="Arial" font-size="10.00" fill="black"><a fill="navy" href="../reference/Customization/CustomAttribute.html#dexpi-customization-customattribute-attributeuri" target="_parent">AttributeURI</a>:&#160;<a fill="navy" href="../reference/DataTypes/AnyURI.html" target="_parent">AnyURI</a>&#160;=&#160;</text>
<text text-anchor="start" x="174" y="-103" font-family="Arial" font-size="10.00" fill="black">"http://www.example.org/b0f7d045d243e4"</text>
<polygon fill="black" stroke="black" points="422.0,-136.0 0.0,-136.0 0.0,-136.0 422.0,-136.0 422.0,-136.0"/>
</g>
<!-- 0&#45;&gt;2 -->
<g id="edge2" class="edge"><path fill="none" stroke="#000000" d="M211,-187.858C211,-181.494 211,-173.974 211,-166.411"/>
<polygon fill="#000000" stroke="#000000" points="211,-156.173 215.5,-166.173 211,-161.173 211,-166.173 211,-166.173 211,-166.173 211,-161.173 206.5,-166.173 211,-156.173 211,-156.173"/>
<text text-anchor="start" x="121.6" y="-159.373" font-family="Arial" font-size="11.00" fill="black"><a fill="navy" href="../reference/Customization/CustomAttributeOwner.html#dexpi-customization-customattributeowner-customattributes" target="_parent">CustomAttributes</a></text>
</g>
<!-- 8 -->
<g id="node3" class="node"><defs>
<linearGradient id="l_2" gradientUnits="userSpaceOnUse" x1="211" y1="-3.19744e-014" x2="211" y2="-62">
<stop offset="0" style="stop-color:#eeeeff;stop-opacity:1.;"/>
<stop offset="1" style="stop-color:#f8f8ff;stop-opacity:1.;"/>
</linearGradient>
</defs>
<polygon fill="url(#l_2)" stroke="black" points="343.5,-62 78.5,-62 78.5,-0 343.5,-0 343.5,-62"/>
<text text-anchor="start" x="89" y="-48.2" font-family="Arial" text-decoration="underline" font-size="11.00" fill="black">numberPerTimeInterval1&#160;:&#160;<a fill="navy" href="../reference/PhysicalQuantities/NumberPerTimeInterval.html" target="_parent">NumberPerTimeInterval</a></text>
<text text-anchor="start" x="89" y="-24" font-family="Arial" font-size="10.00" fill="black"><a fill="navy" href="../reference/PhysicalQuantities/NumberPerTimeInterval.html#dexpi-physicalquantities-numberpertimeinterval-unit" target="_parent">Unit</a>:&#160;<a fill="navy" href="../reference/PhysicalQuantities/NumberPerTimeIntervalUnit.html" target="_parent">NumberPerTimeIntervalUnit</a>&#160;=&#160;</text>
<text text-anchor="start" x="252" y="-24" font-family="Arial" font-size="10.00" fill="black"><a fill="navy" href="../reference/PhysicalQuantities/NumberPerTimeIntervalUnit.html#dexpi-physicalquantities-numberpertimeintervalunit-reciprocalminute" target="_parent">ReciprocalMinute</a></text>
<text text-anchor="start" x="89" y="-9" font-family="Arial" font-size="10.00" fill="black"><a fill="navy" href="../reference/PhysicalQuantities/NumberPerTimeInterval.html#dexpi-physicalquantities-numberpertimeinterval-value" target="_parent">Value</a>:&#160;<a fill="navy" href="../reference/DataTypes/Double.html" target="_parent">Double</a>&#160;=&#160;</text>
<text text-anchor="start" x="252" y="-9" font-family="Arial" font-size="10.00" fill="black">1.1e-05</text>
<polygon fill="black" stroke="black" points="343.5,-42.0 78.5,-42.0 78.5,-42.0 343.5,-42.0 343.5,-42.0"/>
</g>
<!-- 2&#45;&gt;8 -->
<g id="edge1" class="edge"><path fill="none" stroke="#000000" d="M211,-93.8758C211,-86.9657 211,-79.5109 211,-72.2503"/>
<polygon fill="#000000" stroke="#000000" points="211,-62.1919 215.5,-72.1919 211,-67.1919 211,-72.1919 211,-72.1919 211,-72.1919 211,-67.1919 206.5,-72.192 211,-62.1919 211,-62.1919"/>
<text text-anchor="start" x="178.6" y="-65.3919" font-family="Arial" font-size="11.00" fill="black"><a fill="navy" href="../reference/Customization/CustomNumberPerTimeIntervalAttribute.html#dexpi-customization-customnumberpertimeintervalattribute-value" target="_parent">Value</a></text>
</g>
</g>
</svg>