<!DOCTYPE svg PUBLIC "-//W3C//DTD SVG 1.1//EN" "http://www.w3.org/Graphics/SVG/1.1/DTD/svg11.dtd">
<!-- Generated by graphviz version 2.38.0 (20140413.2041)
 --><!-- Title: G Pages: 1 --><svg xmlns="http://www.w3.org/2000/svg" xmlns:xlink="http://www.w3.org/1999/xlink" width="206pt" height="189pt" viewBox="0.00 0.00 206.00 189.00">
<g id="graph0" class="graph" transform="scale(1 1) rotate(0) translate(4 185)">
<!-- 0 -->
<g id="node1" class="node"><defs>
<linearGradient id="l_0" gradientUnits="userSpaceOnUse" x1="101" y1="-142" x2="101" y2="-181">
<stop offset="0" style="stop-color:#ffffbb;stop-opacity:1.;"/>
<stop offset="1" style="stop-color:#ffffee;stop-opacity:1.;"/>
</linearGradient>
</defs>
<polygon fill="url(#l_0)" stroke="black" points="145,-181 57,-181 57,-142 145,-142 145,-181"/>
<text text-anchor="start" x="69" y="-166.5" font-family="Arial" font-size="10.00" fill="black">&lt;&lt;dataType&gt;&gt;</text>
<text text-anchor="start" x="67" y="-151.7" font-family="Arial" font-weight="bold" font-style="italic" font-size="11.00" fill="black"><a fill="navy" href="../reference/PhysicalQuantities/NullableArea.html" target="_parent">NullableArea</a></text>
</g>
<!-- 7&#45;inner&#45;node -->
<!-- 0&#45;&gt;7&#45;inner&#45;node -->
<g id="edge1" class="edge"><path fill="none" stroke="black" d="M95.9065,-131.92C93.9531,-120.959 92.1515,-110.85 92.0091,-110.051L91.9681,-108.95"/>
<polygon fill="none" stroke="black" points="92.4995,-132.752 97.6998,-141.982 99.3909,-131.523 92.4995,-132.752"/>
</g>
<!-- 8&#45;inner&#45;node -->
<!-- 0&#45;&gt;8&#45;inner&#45;node -->
<g id="edge3" class="edge"><path fill="none" stroke="black" d="M106.659,-131.92C108.83,-120.959 110.832,-110.85 110.99,-110.051L111.033,-108.95"/>
<polygon fill="none" stroke="black" points="103.176,-131.493 104.667,-141.982 110.043,-132.853 103.176,-131.493"/>
</g>
<!-- 1 -->
<g id="node2" class="node"><defs>
<linearGradient id="l_1" gradientUnits="userSpaceOnUse" x1="48" y1="-3.55271e-014" x2="48" y2="-77">
<stop offset="0" style="stop-color:#ffffbb;stop-opacity:1.;"/>
<stop offset="1" style="stop-color:#ffffee;stop-opacity:1.;"/>
</linearGradient>
</defs>
<polygon fill="url(#l_1)" stroke="black" points="96,-77 0,-77 0,-0 96,-0 96,-77"/>
<text text-anchor="start" x="16" y="-62.5" font-family="Arial" font-size="10.00" fill="black">&lt;&lt;dataType&gt;&gt;</text>
<text text-anchor="start" x="35.5" y="-47.7" font-family="Arial" font-weight="bold" font-size="11.00" fill="black"><a fill="navy" href="../reference/PhysicalQuantities/Area.html" target="_parent">Area</a></text>
<text text-anchor="start" x="10" y="-23.5" font-family="Arial" font-size="10.00" fill="black"><a fill="navy" href="../reference/PhysicalQuantities/Area.html#dexpi-physicalquantities-area-unit" target="_parent">Unit</a>&#160;:</text>
<text text-anchor="start" x="45" y="-23.5" font-family="Arial" font-size="10.00" fill="black"><a fill="navy" href="../reference/PhysicalQuantities/AreaUnit.html" target="_parent">AreaUnit</a>&#160;</text>
<text text-anchor="start" x="10" y="-8.5" font-family="Arial" font-size="10.00" fill="black"><a fill="navy" href="../reference/PhysicalQuantities/Area.html#dexpi-physicalquantities-area-value" target="_parent">Value</a>&#160;:</text>
<text text-anchor="start" x="45" y="-8.5" font-family="Arial" font-size="10.00" fill="black"><a fill="navy" href="../reference/DataTypes/Double.html" target="_parent">Double</a>&#160;</text>
<polygon fill="black" stroke="black" points="96.0,-41.5 0.0,-41.5 0.0,-41.5 96.0,-41.5 96.0,-41.5"/>
</g>
<!-- 6 -->
<g id="node3" class="node"><defs>
<linearGradient id="l_2" gradientUnits="userSpaceOnUse" x1="156" y1="-19" x2="156" y2="-58">
<stop offset="0" style="stop-color:#ffffbb;stop-opacity:1.;"/>
<stop offset="1" style="stop-color:#ffffee;stop-opacity:1.;"/>
</linearGradient>
</defs>
<polygon fill="url(#l_2)" stroke="black" points="198,-58 114,-58 114,-19 198,-19 198,-58"/>
<text text-anchor="start" x="124" y="-43.5" font-family="Arial" font-size="10.00" fill="black">&lt;&lt;dataType&gt;&gt;</text>
<text text-anchor="start" x="133" y="-28.7" font-family="Arial" font-weight="bold" font-size="11.00" fill="black"><a fill="navy" href="../reference/PhysicalQuantities/NullArea.html" target="_parent">NullArea</a></text>
</g>
<!-- 7&#45;inner&#45;node&#45;&gt;1 -->
<g id="edge2" class="edge"><path fill="none" stroke="black" d="M91.9681,-108.95C91.3488,-107.971 81.8046,-92.8959 71.7667,-77.0406"/>
</g>
<!-- 8&#45;inner&#45;node&#45;&gt;6 -->
<g id="edge4" class="edge"><path fill="none" stroke="black" d="M111.033,-108.95C111.922,-107.577 130.787,-78.4406 143.796,-58.3478"/>
</g>
</g>
</svg>