<!DOCTYPE svg PUBLIC "-//W3C//DTD SVG 1.1//EN" "http://www.w3.org/Graphics/SVG/1.1/DTD/svg11.dtd">
<!-- Generated by graphviz version 2.38.0 (20140413.2041)
 --><!-- Title: G Pages: 1 --><svg xmlns="http://www.w3.org/2000/svg" xmlns:xlink="http://www.w3.org/1999/xlink" width="395pt" height="112pt" viewBox="0.00 0.00 395.00 112.00">
<g id="graph0" class="graph" transform="scale(1 1) rotate(0) translate(4 108)">
<!-- 0 -->
<g id="node1" class="node"><defs>
<linearGradient id="l_0" gradientUnits="userSpaceOnUse" x1="193.5" y1="-68" x2="193.5" y2="-104">
<stop offset="0" style="stop-color:#eeeeff;stop-opacity:1.;"/>
<stop offset="1" style="stop-color:#f8f8ff;stop-opacity:1.;"/>
</linearGradient>
</defs>
<polygon fill="url(#l_0)" stroke="black" points="387,-104 0,-104 0,-68 387,-68 387,-104"/>
<text text-anchor="start" x="10.5" y="-84.2" font-family="Arial" text-decoration="underline" font-size="11.00" fill="black">reciprocatingPressureAgglomerator1&#160;:&#160;<a fill="navy" href="../reference/Equipment/ReciprocatingPressureAgglomerator.html" target="_parent">ReciprocatingPressureAgglomerator</a></text>
</g>
<!-- 2 -->
<g id="node2" class="node"><defs>
<linearGradient id="l_1" gradientUnits="userSpaceOnUse" x1="193.5" y1="-1.77636e-014" x2="193.5" y2="-36">
<stop offset="0" style="stop-color:#eeeeff;stop-opacity:1.;"/>
<stop offset="1" style="stop-color:#f8f8ff;stop-opacity:1.;"/>
</linearGradient>
</defs>
<polygon fill="url(#l_1)" stroke="black" points="256.5,-36 130.5,-36 130.5,-0 256.5,-0 256.5,-36"/>
<text text-anchor="start" x="140.5" y="-16.2" font-family="Arial" text-decoration="underline" font-size="11.00" fill="black">displacer1&#160;:&#160;<a fill="navy" href="../reference/Equipment/Displacer.html" target="_parent">Displacer</a></text>
</g>
<!-- 0&#45;&gt;2 -->
<g id="edge1" class="edge"><path fill="none" stroke="#000000" d="M193.5,-55.5962C193.5,-49.0584 193.5,-42.33 193.5,-36.4541"/>
<polygon fill="#000000" stroke="#000000" points="193.5,-55.6593 197.5,-61.6593 193.5,-67.6593 189.5,-61.6592 193.5,-55.6593"/>
<text text-anchor="start" x="136.1" y="-39.6541" font-family="Arial" font-size="11.00" fill="black">Displacers</text>
</g>
</g>
</svg>