<!DOCTYPE svg PUBLIC "-//W3C//DTD SVG 1.1//EN" "http://www.w3.org/Graphics/SVG/1.1/DTD/svg11.dtd">
<!-- Generated by graphviz version 2.38.0 (20140413.2041)
 --><!-- Title: G Pages: 1 --><svg xmlns="http://www.w3.org/2000/svg" xmlns:xlink="http://www.w3.org/1999/xlink" width="392pt" height="232pt" viewBox="0.00 0.00 392.00 232.00">
<g id="graph0" class="graph" transform="scale(1 1) rotate(0) translate(4 228)">
<!-- 0 -->
<g id="node1" class="node"><defs>
<linearGradient id="l_0" gradientUnits="userSpaceOnUse" x1="192" y1="-188" x2="192" y2="-224">
<stop offset="0" style="stop-color:#eeeeff;stop-opacity:1.;"/>
<stop offset="1" style="stop-color:#f8f8ff;stop-opacity:1.;"/>
</linearGradient>
</defs>
<polygon fill="url(#l_0)" stroke="black" points="258,-224 126,-224 126,-188 258,-188 258,-224"/>
<text text-anchor="start" x="136" y="-204.2" font-family="Arial" text-decoration="underline" font-size="11.00" fill="black">positioner1&#160;:&#160;<a fill="navy" href="../reference/Instrumentation/Positioner.html" target="_parent">Positioner</a></text>
</g>
<!-- 2 -->
<g id="node2" class="node"><defs>
<linearGradient id="l_1" gradientUnits="userSpaceOnUse" x1="192" y1="-94" x2="192" y2="-156">
<stop offset="0" style="stop-color:#eeeeff;stop-opacity:1.;"/>
<stop offset="1" style="stop-color:#f8f8ff;stop-opacity:1.;"/>
</linearGradient>
</defs>
<polygon fill="url(#l_1)" stroke="black" points="384,-156 0,-156 0,-94 384,-94 384,-156"/>
<text text-anchor="start" x="10" y="-142.2" font-family="Arial" text-decoration="underline" font-size="11.00" fill="black">customElectricalFrequencyAttribute1&#160;:&#160;<a fill="navy" href="../reference/Customization/CustomElectricalFrequencyAttribute.html" target="_parent">CustomElectricalFrequencyAttribute</a></text>
<text text-anchor="start" x="10" y="-118" font-family="Arial" font-size="10.00" fill="black"><a fill="navy" href="../reference/Customization/CustomAttribute.html#dexpi-customization-customattribute-attributename" target="_parent">AttributeName</a>:&#160;<a fill="navy" href="../reference/DataTypes/String.html" target="_parent">String</a>&#160;=&#160;</text>
<text text-anchor="start" x="155" y="-118" font-family="Arial" font-size="10.00" fill="black">"AlternatingCurrentFrequency"</text>
<text text-anchor="start" x="10" y="-103" font-family="Arial" font-size="10.00" fill="black"><a fill="navy" href="../reference/Customization/CustomAttribute.html#dexpi-customization-customattribute-attributeuri" target="_parent">AttributeURI</a>:&#160;<a fill="navy" href="../reference/DataTypes/AnyURI.html" target="_parent">AnyURI</a>&#160;=&#160;</text>
<text text-anchor="start" x="155" y="-103" font-family="Arial" font-size="10.00" fill="black">"http://www.example.org/9c2c76fc470069"</text>
<polygon fill="black" stroke="black" points="384.0,-136.0 0.0,-136.0 0.0,-136.0 384.0,-136.0 384.0,-136.0"/>
</g>
<!-- 0&#45;&gt;2 -->
<g id="edge2" class="edge"><path fill="none" stroke="#000000" d="M192,-187.858C192,-181.494 192,-173.974 192,-166.411"/>
<polygon fill="#000000" stroke="#000000" points="192,-156.173 196.5,-166.173 192,-161.173 192,-166.173 192,-166.173 192,-166.173 192,-161.173 187.5,-166.173 192,-156.173 192,-156.173"/>
<text text-anchor="start" x="102.6" y="-159.373" font-family="Arial" font-size="11.00" fill="black"><a fill="navy" href="../reference/Customization/CustomAttributeOwner.html#dexpi-customization-customattributeowner-customattributes" target="_parent">CustomAttributes</a></text>
</g>
<!-- 8 -->
<g id="node3" class="node"><defs>
<linearGradient id="l_2" gradientUnits="userSpaceOnUse" x1="192" y1="-3.19744e-014" x2="192" y2="-62">
<stop offset="0" style="stop-color:#eeeeff;stop-opacity:1.;"/>
<stop offset="1" style="stop-color:#f8f8ff;stop-opacity:1.;"/>
</linearGradient>
</defs>
<polygon fill="url(#l_2)" stroke="black" points="306,-62 78,-62 78,-0 306,-0 306,-62"/>
<text text-anchor="start" x="88" y="-48.2" font-family="Arial" text-decoration="underline" font-size="11.00" fill="black">electricalFrequency1&#160;:&#160;<a fill="navy" href="../reference/PhysicalQuantities/ElectricalFrequency.html" target="_parent">ElectricalFrequency</a></text>
<text text-anchor="start" x="88" y="-24" font-family="Arial" font-size="10.00" fill="black"><a fill="navy" href="../reference/PhysicalQuantities/ElectricalFrequency.html#dexpi-physicalquantities-electricalfrequency-unit" target="_parent">Unit</a>:&#160;<a fill="navy" href="../reference/PhysicalQuantities/ElectricalFrequencyUnit.html" target="_parent">ElectricalFrequencyUnit</a>&#160;=&#160;</text>
<text text-anchor="start" x="251" y="-24" font-family="Arial" font-size="10.00" fill="black"><a fill="navy" href="../reference/PhysicalQuantities/ElectricalFrequencyUnit.html#dexpi-physicalquantities-electricalfrequencyunit-hertz" target="_parent">Hertz</a></text>
<text text-anchor="start" x="88" y="-9" font-family="Arial" font-size="10.00" fill="black"><a fill="navy" href="../reference/PhysicalQuantities/ElectricalFrequency.html#dexpi-physicalquantities-electricalfrequency-value" target="_parent">Value</a>:&#160;<a fill="navy" href="../reference/DataTypes/Double.html" target="_parent">Double</a>&#160;=&#160;</text>
<text text-anchor="start" x="251" y="-9" font-family="Arial" font-size="10.00" fill="black">50</text>
<polygon fill="black" stroke="black" points="306.0,-42.0 78.0,-42.0 78.0,-42.0 306.0,-42.0 306.0,-42.0"/>
</g>
<!-- 2&#45;&gt;8 -->
<g id="edge1" class="edge"><path fill="none" stroke="#000000" d="M192,-93.8758C192,-86.9657 192,-79.5109 192,-72.2503"/>
<polygon fill="#000000" stroke="#000000" points="192,-62.1919 196.5,-72.1919 192,-67.1919 192,-72.1919 192,-72.1919 192,-72.1919 192,-67.1919 187.5,-72.192 192,-62.1919 192,-62.1919"/>
<text text-anchor="start" x="159.6" y="-65.3919" font-family="Arial" font-size="11.00" fill="black"><a fill="navy" href="../reference/Customization/CustomElectricalFrequencyAttribute.html#dexpi-customization-customelectricalfrequencyattribute-value" target="_parent">Value</a></text>
</g>
</g>
</svg>