<!DOCTYPE svg PUBLIC "-//W3C//DTD SVG 1.1//EN" "http://www.w3.org/Graphics/SVG/1.1/DTD/svg11.dtd">
<!-- Generated by graphviz version 2.38.0 (20140413.2041)
 --><!-- Title: G Pages: 1 --><svg xmlns="http://www.w3.org/2000/svg" xmlns:xlink="http://www.w3.org/1999/xlink" width="313pt" height="151pt" viewBox="0.00 0.00 313.00 151.00">
<g id="graph0" class="graph" transform="scale(1 1) rotate(0) translate(4 147)">
<!-- 0 -->
<g id="node1" class="node"><defs>
<linearGradient id="l_0" gradientUnits="userSpaceOnUse" x1="89" y1="-104" x2="89" y2="-143">
<stop offset="0" style="stop-color:#ffffbb;stop-opacity:1.;"/>
<stop offset="1" style="stop-color:#ffffee;stop-opacity:1.;"/>
</linearGradient>
</defs>
<polygon fill="url(#l_0)" stroke="black" points="137,-143 41,-143 41,-104 137,-104 137,-143"/>
<text text-anchor="start" x="57" y="-128.5" font-family="Arial" font-size="10.00" fill="black">&lt;&lt;dataType&gt;&gt;</text>
<text text-anchor="start" x="51" y="-113.7" font-family="Arial" font-weight="bold" font-style="italic" font-size="11.00" fill="black"><a fill="navy" href="../reference/DataTypes/NullableString.html" target="_parent">NullableString</a></text>
</g>
<!-- 4&#45;inner&#45;node -->
<!-- 0&#45;&gt;4&#45;inner&#45;node -->
<g id="edge1" class="edge"><path fill="none" stroke="black" d="M83.9065,-93.9195C81.9531,-82.9589 80.1515,-72.8503 80.0091,-72.0508L79.8853,-70.8551"/>
<polygon fill="none" stroke="black" points="80.4995,-94.7517 85.6998,-103.982 87.3909,-93.5234 80.4995,-94.7517"/>
</g>
<!-- 5&#45;inner&#45;node -->
<!-- 0&#45;&gt;5&#45;inner&#45;node -->
<g id="edge3" class="edge"><path fill="none" stroke="black" d="M94.6595,-93.9195C96.8299,-82.9589 98.8316,-72.8503 98.9899,-72.0508L99.1176,-70.8551"/>
<polygon fill="none" stroke="black" points="91.1761,-93.493 92.6668,-103.982 98.0427,-94.8528 91.1761,-93.493"/>
</g>
<!-- 1 -->
<g id="node2" class="node"><defs>
<linearGradient id="l_1" gradientUnits="userSpaceOnUse" x1="40" y1="-1.77636e-014" x2="40" y2="-39">
<stop offset="0" style="stop-color:#ffffbb;stop-opacity:1.;"/>
<stop offset="1" style="stop-color:#ffffee;stop-opacity:1.;"/>
</linearGradient>
</defs>
<polygon fill="url(#l_1)" stroke="black" points="80,-39 0,-39 0,-0 80,-0 80,-39"/>
<text text-anchor="start" x="10" y="-24.5" font-family="Arial" font-size="10.00" fill="black">&lt;&lt;primitive&gt;&gt;</text>
<text text-anchor="start" x="23.5" y="-9.7" font-family="Arial" font-weight="bold" font-size="11.00" fill="black"><a fill="navy" href="../reference/DataTypes/String.html" target="_parent">String</a></text>
</g>
<!-- 2 -->
<g id="node3" class="node"><defs>
<linearGradient id="l_2" gradientUnits="userSpaceOnUse" x1="140" y1="-1.77636e-014" x2="140" y2="-39">
<stop offset="0" style="stop-color:#ffffbb;stop-opacity:1.;"/>
<stop offset="1" style="stop-color:#ffffee;stop-opacity:1.;"/>
</linearGradient>
</defs>
<polygon fill="url(#l_2)" stroke="black" points="182,-39 98,-39 98,-0 182,-0 182,-39"/>
<text text-anchor="start" x="108" y="-24.5" font-family="Arial" font-size="10.00" fill="black">&lt;&lt;dataType&gt;&gt;</text>
<text text-anchor="start" x="113" y="-9.7" font-family="Arial" font-weight="bold" font-size="11.00" fill="black"><a fill="navy" href="../reference/DataTypes/NullString.html" target="_parent">NullString</a></text>
</g>
<!-- 3 -->
<g id="node4" class="node"><defs>
<linearGradient id="l_3" gradientUnits="userSpaceOnUse" x1="230" y1="-105.5" x2="230" y2="-141.5">
<stop offset="0" style="stop-color:#eeeeff;stop-opacity:1.;"/>
<stop offset="1" style="stop-color:#f8f8ff;stop-opacity:1.;"/>
</linearGradient>
</defs>
<polygon fill="url(#l_3)" stroke="black" points="305,-141.5 155,-141.5 155,-105.5 305,-105.5 305,-141.5"/>
<text text-anchor="start" x="165" y="-121.7" font-family="Arial" text-decoration="underline" font-size="11.00" fill="black"><a fill="navy" href="../reference/DataTypes/NULL_STRING.html" target="_parent">NULL_STRING</a>&#160;:&#160;<a fill="navy" href="../reference/DataTypes/NullString.html" target="_parent">NullString</a></text>
</g>
<!-- 4&#45;inner&#45;node&#45;&gt;1 -->
<g id="edge2" class="edge"><path fill="none" stroke="black" d="M79.8853,-70.8551C78.538,-69.1543 65.5868,-52.8033 54.8022,-39.1877"/>
</g>
<!-- 5&#45;inner&#45;node&#45;&gt;2 -->
<g id="edge4" class="edge"><path fill="none" stroke="black" d="M99.1176,-70.8551C100.499,-69.1543 113.774,-52.8033 124.828,-39.1877"/>
</g>
</g>
</svg>