<!DOCTYPE svg PUBLIC "-//W3C//DTD SVG 1.1//EN" "http://www.w3.org/Graphics/SVG/1.1/DTD/svg11.dtd">
<!-- Generated by graphviz version 2.38.0 (20140413.2041)
 --><!-- Title: G Pages: 1 --><svg xmlns="http://www.w3.org/2000/svg" xmlns:xlink="http://www.w3.org/1999/xlink" width="322pt" height="232pt" viewBox="0.00 0.00 322.00 232.00">
<g id="graph0" class="graph" transform="scale(1 1) rotate(0) translate(4 228)">
<!-- 0 -->
<g id="node1" class="node"><defs>
<linearGradient id="l_0" gradientUnits="userSpaceOnUse" x1="157" y1="-188" x2="157" y2="-224">
<stop offset="0" style="stop-color:#eeeeff;stop-opacity:1.;"/>
<stop offset="1" style="stop-color:#f8f8ff;stop-opacity:1.;"/>
</linearGradient>
</defs>
<polygon fill="url(#l_0)" stroke="black" points="200.5,-224 113.5,-224 113.5,-188 200.5,-188 200.5,-224"/>
<text text-anchor="start" x="124" y="-204.2" font-family="Arial" text-decoration="underline" font-size="11.00" fill="black">truck1&#160;:&#160;<a fill="navy" href="../reference/Equipment/Truck.html" target="_parent">Truck</a></text>
</g>
<!-- 2 -->
<g id="node2" class="node"><defs>
<linearGradient id="l_1" gradientUnits="userSpaceOnUse" x1="157" y1="-94" x2="157" y2="-156">
<stop offset="0" style="stop-color:#eeeeff;stop-opacity:1.;"/>
<stop offset="1" style="stop-color:#f8f8ff;stop-opacity:1.;"/>
</linearGradient>
</defs>
<polygon fill="url(#l_1)" stroke="black" points="314,-156 0,-156 0,-94 314,-94 314,-156"/>
<text text-anchor="start" x="49" y="-142.2" font-family="Arial" text-decoration="underline" font-size="11.00" fill="black">customAreaAttribute1&#160;:&#160;<a fill="navy" href="../reference/Customization/CustomAreaAttribute.html" target="_parent">CustomAreaAttribute</a></text>
<text text-anchor="start" x="10" y="-118" font-family="Arial" font-size="10.00" fill="black"><a fill="navy" href="../reference/Customization/CustomAttribute.html#dexpi-customization-customattribute-attributename" target="_parent">AttributeName</a>:&#160;<a fill="navy" href="../reference/DataTypes/String.html" target="_parent">String</a>&#160;=&#160;</text>
<text text-anchor="start" x="120" y="-118" font-family="Arial" font-size="10.00" fill="black">"LowerLimitCargoArea"</text>
<text text-anchor="start" x="10" y="-103" font-family="Arial" font-size="10.00" fill="black"><a fill="navy" href="../reference/Customization/CustomAttribute.html#dexpi-customization-customattribute-attributeuri" target="_parent">AttributeURI</a>:&#160;<a fill="navy" href="../reference/DataTypes/AnyURI.html" target="_parent">AnyURI</a>&#160;=&#160;</text>
<text text-anchor="start" x="120" y="-103" font-family="Arial" font-size="10.00" fill="black">"http://www.example.org/9926bcaf834762"</text>
<polygon fill="black" stroke="black" points="314.0,-136.0 0.0,-136.0 0.0,-136.0 314.0,-136.0 314.0,-136.0"/>
</g>
<!-- 0&#45;&gt;2 -->
<g id="edge2" class="edge"><path fill="none" stroke="#000000" d="M157,-187.858C157,-181.494 157,-173.974 157,-166.411"/>
<polygon fill="#000000" stroke="#000000" points="157,-156.173 161.5,-166.173 157,-161.173 157,-166.173 157,-166.173 157,-166.173 157,-161.173 152.5,-166.173 157,-156.173 157,-156.173"/>
<text text-anchor="start" x="67.6" y="-159.373" font-family="Arial" font-size="11.00" fill="black"><a fill="navy" href="../reference/Customization/CustomAttributeOwner.html#dexpi-customization-customattributeowner-customattributes" target="_parent">CustomAttributes</a></text>
</g>
<!-- 8 -->
<g id="node3" class="node"><defs>
<linearGradient id="l_2" gradientUnits="userSpaceOnUse" x1="157" y1="-3.19744e-014" x2="157" y2="-62">
<stop offset="0" style="stop-color:#eeeeff;stop-opacity:1.;"/>
<stop offset="1" style="stop-color:#f8f8ff;stop-opacity:1.;"/>
</linearGradient>
</defs>
<polygon fill="url(#l_2)" stroke="black" points="236,-62 78,-62 78,-0 236,-0 236,-62"/>
<text text-anchor="start" x="127" y="-48.2" font-family="Arial" text-decoration="underline" font-size="11.00" fill="black">area1&#160;:&#160;<a fill="navy" href="../reference/PhysicalQuantities/Area.html" target="_parent">Area</a></text>
<text text-anchor="start" x="88" y="-24" font-family="Arial" font-size="10.00" fill="black"><a fill="navy" href="../reference/PhysicalQuantities/Area.html#dexpi-physicalquantities-area-unit" target="_parent">Unit</a>:&#160;<a fill="navy" href="../reference/PhysicalQuantities/AreaUnit.html" target="_parent">AreaUnit</a>&#160;=&#160;</text>
<text text-anchor="start" x="165" y="-24" font-family="Arial" font-size="10.00" fill="black"><a fill="navy" href="../reference/PhysicalQuantities/AreaUnit.html#dexpi-physicalquantities-areaunit-metresquared" target="_parent">MetreSquared</a></text>
<text text-anchor="start" x="88" y="-9" font-family="Arial" font-size="10.00" fill="black"><a fill="navy" href="../reference/PhysicalQuantities/Area.html#dexpi-physicalquantities-area-value" target="_parent">Value</a>:&#160;<a fill="navy" href="../reference/DataTypes/Double.html" target="_parent">Double</a>&#160;=&#160;</text>
<text text-anchor="start" x="165" y="-9" font-family="Arial" font-size="10.00" fill="black">32</text>
<polygon fill="black" stroke="black" points="236.0,-42.0 78.0,-42.0 78.0,-42.0 236.0,-42.0 236.0,-42.0"/>
</g>
<!-- 2&#45;&gt;8 -->
<g id="edge1" class="edge"><path fill="none" stroke="#000000" d="M157,-93.8758C157,-86.9657 157,-79.5109 157,-72.2503"/>
<polygon fill="#000000" stroke="#000000" points="157,-62.1919 161.5,-72.1919 157,-67.1919 157,-72.1919 157,-72.1919 157,-72.1919 157,-67.1919 152.5,-72.192 157,-62.1919 157,-62.1919"/>
<text text-anchor="start" x="124.6" y="-65.3919" font-family="Arial" font-size="11.00" fill="black"><a fill="navy" href="../reference/Customization/CustomAreaAttribute.html#dexpi-customization-customareaattribute-value" target="_parent">Value</a></text>
</g>
</g>
</svg>