<!DOCTYPE svg PUBLIC "-//W3C//DTD SVG 1.1//EN" "http://www.w3.org/Graphics/SVG/1.1/DTD/svg11.dtd">
<!-- Generated by graphviz version 2.38.0 (20140413.2041)
 --><!-- Title: G Pages: 1 --><svg xmlns="http://www.w3.org/2000/svg" xmlns:xlink="http://www.w3.org/1999/xlink" width="182pt" height="138pt" viewBox="0.00 0.00 181.50 138.00">
<g id="graph0" class="graph" transform="scale(1 1) rotate(0) translate(4 134)">
<!-- 0 -->
<g id="node1" class="node"><defs>
<linearGradient id="l_0" gradientUnits="userSpaceOnUse" x1="104" y1="-94" x2="104" y2="-130">
<stop offset="0" style="stop-color:#eeeeff;stop-opacity:1.;"/>
<stop offset="1" style="stop-color:#f8f8ff;stop-opacity:1.;"/>
</linearGradient>
</defs>
<polygon fill="url(#l_0)" stroke="black" points="153.5,-130 54.5,-130 54.5,-94 153.5,-94 153.5,-130"/>
<text text-anchor="start" x="65" y="-110.2" font-family="Arial" text-decoration="underline" font-size="11.00" fill="black">heater1&#160;:&#160;<a fill="navy" href="../reference/Equipment/Heater.html" target="_parent">Heater</a></text>
</g>
<!-- 2 -->
<g id="node2" class="node"><defs>
<linearGradient id="l_1" gradientUnits="userSpaceOnUse" x1="104" y1="-3.19744e-014" x2="104" y2="-62">
<stop offset="0" style="stop-color:#eeeeff;stop-opacity:1.;"/>
<stop offset="1" style="stop-color:#f8f8ff;stop-opacity:1.;"/>
</linearGradient>
</defs>
<polygon fill="url(#l_1)" stroke="black" points="173.5,-62 34.5,-62 34.5,-0 173.5,-0 173.5,-62"/>
<text text-anchor="start" x="66" y="-48.2" font-family="Arial" text-decoration="underline" font-size="11.00" fill="black">power1&#160;:&#160;<a fill="navy" href="../reference/PhysicalQuantities/Power.html" target="_parent">Power</a></text>
<text text-anchor="start" x="45" y="-24" font-family="Arial" font-size="10.00" fill="black"><a fill="navy" href="../reference/PhysicalQuantities/Power.html#dexpi-physicalquantities-power-unit" target="_parent">Unit</a>:&#160;<a fill="navy" href="../reference/PhysicalQuantities/PowerUnit.html" target="_parent">PowerUnit</a>&#160;=&#160;</text>
<text text-anchor="start" x="129" y="-24" font-family="Arial" font-size="10.00" fill="black"><a fill="navy" href="../reference/PhysicalQuantities/PowerUnit.html#dexpi-physicalquantities-powerunit-kilowatt" target="_parent">Kilowatt</a></text>
<text text-anchor="start" x="45" y="-9" font-family="Arial" font-size="10.00" fill="black"><a fill="navy" href="../reference/PhysicalQuantities/Power.html#dexpi-physicalquantities-power-value" target="_parent">Value</a>:&#160;<a fill="navy" href="../reference/DataTypes/Double.html" target="_parent">Double</a>&#160;=&#160;</text>
<text text-anchor="start" x="129" y="-9" font-family="Arial" font-size="10.00" fill="black">313.0</text>
<polygon fill="black" stroke="black" points="173.5,-42.0 34.5,-42.0 34.5,-42.0 173.5,-42.0 173.5,-42.0"/>
</g>
<!-- 0&#45;&gt;2 -->
<g id="edge1" class="edge"><path fill="none" stroke="#000000" d="M104,-93.8582C104,-87.4936 104,-79.9744 104,-72.4106"/>
<polygon fill="#000000" stroke="#000000" points="104,-62.1729 108.5,-72.1729 104,-67.1729 104,-72.1729 104,-72.1729 104,-72.1729 104,-67.1729 99.5001,-72.173 104,-62.1729 104,-62.1729"/>
<text text-anchor="start" x="-4.4" y="-65.3729" font-family="Arial" font-size="11.00" fill="black"><a fill="navy" href="../reference/Equipment/Heater.html#dexpi-equipment-heater-designheatflowrate" target="_parent">DesignHeatFlowRate</a></text>
</g>
</g>
</svg>