<!DOCTYPE svg PUBLIC "-//W3C//DTD SVG 1.1//EN" "http://www.w3.org/Graphics/SVG/1.1/DTD/svg11.dtd">
<!-- Generated by graphviz version 2.38.0 (20140413.2041)
 --><!-- Title: G Pages: 1 --><svg xmlns="http://www.w3.org/2000/svg" xmlns:xlink="http://www.w3.org/1999/xlink" width="230pt" height="112pt" viewBox="0.00 0.00 230.00 112.00">
<g id="graph0" class="graph" transform="scale(1 1) rotate(0) translate(4 108)">
<!-- 0 -->
<g id="node1" class="node"><defs>
<linearGradient id="l_0" gradientUnits="userSpaceOnUse" x1="111" y1="-68" x2="111" y2="-104">
<stop offset="0" style="stop-color:#eeeeff;stop-opacity:1.;"/>
<stop offset="1" style="stop-color:#f8f8ff;stop-opacity:1.;"/>
</linearGradient>
</defs>
<polygon fill="url(#l_0)" stroke="black" points="215,-104 7,-104 7,-68 215,-68 215,-104"/>
<text text-anchor="start" x="17" y="-84.2" font-family="Arial" text-decoration="underline" font-size="11.00" fill="black">wetCoolingTower1&#160;:&#160;<a fill="navy" href="../reference/Equipment/WetCoolingTower.html" target="_parent">WetCoolingTower</a></text>
</g>
<!-- 2 -->
<g id="node2" class="node"><defs>
<linearGradient id="l_1" gradientUnits="userSpaceOnUse" x1="111" y1="-1.77636e-014" x2="111" y2="-36">
<stop offset="0" style="stop-color:#eeeeff;stop-opacity:1.;"/>
<stop offset="1" style="stop-color:#f8f8ff;stop-opacity:1.;"/>
</linearGradient>
</defs>
<polygon fill="url(#l_1)" stroke="black" points="222,-36 0,-36 0,-0 222,-0 222,-36"/>
<text text-anchor="start" x="10" y="-16.2" font-family="Arial" text-decoration="underline" font-size="11.00" fill="black">coolingTowerRotor1&#160;:&#160;<a fill="navy" href="../reference/Equipment/CoolingTowerRotor.html" target="_parent">CoolingTowerRotor</a></text>
</g>
<!-- 0&#45;&gt;2 -->
<g id="edge1" class="edge"><path fill="none" stroke="#000000" d="M111,-55.5962C111,-49.0584 111,-42.33 111,-36.4541"/>
<polygon fill="#000000" stroke="#000000" points="111,-55.6593 115,-61.6593 111,-67.6593 107,-61.6592 111,-55.6593"/>
<text text-anchor="start" x="11.6" y="-39.6541" font-family="Arial" font-size="11.00" fill="black">CoolingTowerRotor</text>
</g>
</g>
</svg>