<!DOCTYPE svg PUBLIC "-//W3C//DTD SVG 1.1//EN" "http://www.w3.org/Graphics/SVG/1.1/DTD/svg11.dtd">
<!-- Generated by graphviz version 2.38.0 (20140413.2041)
 --><!-- Title: G Pages: 1 --><svg xmlns="http://www.w3.org/2000/svg" xmlns:xlink="http://www.w3.org/1999/xlink" width="236pt" height="138pt" viewBox="0.00 0.00 235.50 138.00">
<g id="graph0" class="graph" transform="scale(1 1) rotate(0) translate(4 134)">
<!-- 0 -->
<g id="node1" class="node"><defs>
<linearGradient id="l_0" gradientUnits="userSpaceOnUse" x1="133" y1="-94" x2="133" y2="-130">
<stop offset="0" style="stop-color:#eeeeff;stop-opacity:1.;"/>
<stop offset="1" style="stop-color:#f8f8ff;stop-opacity:1.;"/>
</linearGradient>
</defs>
<polygon fill="url(#l_0)" stroke="black" points="195.5,-130 70.5,-130 70.5,-94 195.5,-94 195.5,-130"/>
<text text-anchor="start" x="81" y="-110.2" font-family="Arial" text-decoration="underline" font-size="11.00" fill="black">chamber1&#160;:&#160;<a fill="navy" href="../reference/Equipment/Chamber.html" target="_parent">Chamber</a></text>
</g>
<!-- 2 -->
<g id="node2" class="node"><defs>
<linearGradient id="l_1" gradientUnits="userSpaceOnUse" x1="133" y1="-3.19744e-014" x2="133" y2="-62">
<stop offset="0" style="stop-color:#eeeeff;stop-opacity:1.;"/>
<stop offset="1" style="stop-color:#f8f8ff;stop-opacity:1.;"/>
</linearGradient>
</defs>
<polygon fill="url(#l_1)" stroke="black" points="227.5,-62 38.5,-62 38.5,-0 227.5,-0 227.5,-62"/>
<text text-anchor="start" x="49" y="-48.2" font-family="Arial" text-decoration="underline" font-size="11.00" fill="black">pressureGauge1&#160;:&#160;<a fill="navy" href="../reference/PhysicalQuantities/PressureGauge.html" target="_parent">PressureGauge</a></text>
<text text-anchor="start" x="49" y="-24" font-family="Arial" font-size="10.00" fill="black"><a fill="navy" href="../reference/PhysicalQuantities/PressureGauge.html#dexpi-physicalquantities-pressuregauge-unit" target="_parent">Unit</a>:&#160;<a fill="navy" href="../reference/PhysicalQuantities/PressureGaugeUnit.html" target="_parent">PressureGaugeUnit</a>&#160;=&#160;</text>
<text text-anchor="start" x="186" y="-24" font-family="Arial" font-size="10.00" fill="black"><a fill="navy" href="../reference/PhysicalQuantities/PressureGaugeUnit.html#dexpi-physicalquantities-pressuregaugeunit-bar" target="_parent">Bar</a></text>
<text text-anchor="start" x="49" y="-9" font-family="Arial" font-size="10.00" fill="black"><a fill="navy" href="../reference/PhysicalQuantities/PressureGauge.html#dexpi-physicalquantities-pressuregauge-value" target="_parent">Value</a>:&#160;<a fill="navy" href="../reference/DataTypes/Double.html" target="_parent">Double</a>&#160;=&#160;</text>
<text text-anchor="start" x="186" y="-9" font-family="Arial" font-size="10.00" fill="black">60.0</text>
<polygon fill="black" stroke="black" points="227.5,-42.0 38.5,-42.0 38.5,-42.0 227.5,-42.0 227.5,-42.0"/>
</g>
<!-- 0&#45;&gt;2 -->
<g id="edge1" class="edge"><path fill="none" stroke="#000000" d="M133,-93.8582C133,-87.4936 133,-79.9744 133,-72.4106"/>
<polygon fill="#000000" stroke="#000000" points="133,-62.1729 137.5,-72.1729 133,-67.1729 133,-72.1729 133,-72.1729 133,-72.1729 133,-67.1729 128.5,-72.173 133,-62.1729 133,-62.1729"/>
<text text-anchor="start" x="-4.4" y="-65.3729" font-family="Arial" font-size="11.00" fill="black"><a fill="navy" href="../reference/Equipment/Chamber.html#dexpi-equipment-chamber-upperlimitdesignpressure" target="_parent">UpperLimitDesignPressure</a></text>
</g>
</g>
</svg>