<!DOCTYPE svg PUBLIC "-//W3C//DTD SVG 1.1//EN" "http://www.w3.org/Graphics/SVG/1.1/DTD/svg11.dtd">
<!-- Generated by graphviz version 2.38.0 (20140413.2041)
 --><!-- Title: G Pages: 1 --><svg xmlns="http://www.w3.org/2000/svg" xmlns:xlink="http://www.w3.org/1999/xlink" width="563pt" height="296pt" viewBox="0.00 0.00 563.07 296.00">
<g id="graph0" class="graph" transform="scale(1 1) rotate(0) translate(4 292)">
<!-- 0 -->
<g id="node1" class="node"><defs>
<linearGradient id="l_0" gradientUnits="userSpaceOnUse" x1="106.5" y1="-4.9738e-014" x2="106.5" y2="-122">
<stop offset="0" style="stop-color:#ffffbb;stop-opacity:1.;"/>
<stop offset="1" style="stop-color:#ffffee;stop-opacity:1.;"/>
</linearGradient>
</defs>
<polygon fill="url(#l_0)" stroke="black" points="176,-122 37,-122 37,7.10543e-015 176,7.10543e-015 176,-122"/>
<text text-anchor="start" x="85" y="-108.2" font-family="Arial" font-weight="bold" font-size="11.00" fill="black">Diagram</text>
<text text-anchor="start" x="47.5" y="-84" font-family="Arial" font-size="10.00" fill="black"><a fill="navy" href="../reference/Graphics/Diagram.html#dexpi-graphics-diagram-backgroundcolor" target="_parent">BackgroundColor</a>&#160;:</text>
<text text-anchor="start" x="132.5" y="-84" font-family="Arial" font-size="10.00" fill="black"><a fill="navy" href="../reference/Graphics/Color.html" target="_parent">Color</a>&#160;</text>
<text text-anchor="start" x="47.5" y="-69" font-family="Arial" font-size="10.00" fill="black"><a fill="navy" href="../reference/Graphics/Diagram.html#dexpi-graphics-diagram-maxx" target="_parent">MaxX</a>&#160;:</text>
<text text-anchor="start" x="132.5" y="-69" font-family="Arial" font-size="10.00" fill="black"><a fill="navy" href="../reference/DataTypes/Double.html" target="_parent">Double</a>&#160;</text>
<text text-anchor="start" x="47.5" y="-54" font-family="Arial" font-size="10.00" fill="black"><a fill="navy" href="../reference/Graphics/Diagram.html#dexpi-graphics-diagram-maxy" target="_parent">MaxY</a>&#160;:</text>
<text text-anchor="start" x="132.5" y="-54" font-family="Arial" font-size="10.00" fill="black"><a fill="navy" href="../reference/DataTypes/Double.html" target="_parent">Double</a>&#160;</text>
<text text-anchor="start" x="47.5" y="-39" font-family="Arial" font-size="10.00" fill="black"><a fill="navy" href="../reference/Graphics/Diagram.html#dexpi-graphics-diagram-minx" target="_parent">MinX</a>&#160;:</text>
<text text-anchor="start" x="132.5" y="-39" font-family="Arial" font-size="10.00" fill="black"><a fill="navy" href="../reference/DataTypes/Double.html" target="_parent">Double</a>&#160;</text>
<text text-anchor="start" x="47.5" y="-24" font-family="Arial" font-size="10.00" fill="black"><a fill="navy" href="../reference/Graphics/Diagram.html#dexpi-graphics-diagram-miny" target="_parent">MinY</a>&#160;:</text>
<text text-anchor="start" x="132.5" y="-24" font-family="Arial" font-size="10.00" fill="black"><a fill="navy" href="../reference/DataTypes/Double.html" target="_parent">Double</a>&#160;</text>
<text text-anchor="start" x="47.5" y="-9" font-family="Arial" font-size="10.00" fill="black"><a fill="navy" href="../reference/Graphics/Diagram.html#dexpi-graphics-diagram-name" target="_parent">Name</a>&#160;:</text>
<text text-anchor="start" x="132.5" y="-9" font-family="Arial" font-size="10.00" fill="black"><a fill="navy" href="../reference/DataTypes/String.html" target="_parent">String</a>&#160;</text>
<polygon fill="black" stroke="black" points="176.0,-102.0 37.0,-102.0 37.0,-102.0 176.0,-102.0 176.0,-102.0"/>
</g>
<!-- 10 -->
<g id="node2" class="node"><defs>
<linearGradient id="l_1" gradientUnits="userSpaceOnUse" x1="68.5" y1="-252" x2="68.5" y2="-288">
<stop offset="0" style="stop-color:#ffffbb;stop-opacity:1.;"/>
<stop offset="1" style="stop-color:#ffffee;stop-opacity:1.;"/>
</linearGradient>
</defs>
<polygon fill="url(#l_1)" stroke="black" points="137,-288 0,-288 0,-252 137,-252 137,-288"/>
<text text-anchor="start" x="10.5" y="-268.2" font-family="Arial" font-weight="bold" font-size="11.00" fill="black"><a fill="navy" href="../reference/Graphics/RepresentationGroup.html" target="_parent">RepresentationGroup</a></text>
</g>
<!-- 11 -->
<g id="node3" class="node"><defs>
<linearGradient id="l_2" gradientUnits="userSpaceOnUse" x1="484.5" y1="-169" x2="484.5" y2="-205">
<stop offset="0" style="stop-color:#ffffbb;stop-opacity:1.;"/>
<stop offset="1" style="stop-color:#ffffee;stop-opacity:1.;"/>
</linearGradient>
</defs>
<polygon fill="url(#l_2)" stroke="black" points="535.5,-205 433.5,-205 433.5,-169 535.5,-169 535.5,-205"/>
<text text-anchor="start" x="443.5" y="-185.2" font-family="Arial" font-weight="bold" font-style="italic" font-size="11.00" fill="black"><a fill="navy" href="../reference/Graphics/GraphicsGroup.html" target="_parent">GraphicsGroup</a></text>
</g>
<!-- 10&#45;&gt;11 -->
<g id="edge2" class="edge"><path fill="none" stroke="#000000" d="M149.088,-263.497C203.602,-258.733 276.968,-250.29 340.5,-236 371.183,-229.099 404.554,-218.2 431.438,-208.531"/>
<polygon fill="#000000" stroke="#000000" points="149.013,-263.503 143.371,-267.995 137.055,-264.515 142.697,-260.024 149.013,-263.503"/>
<polygon fill="#000000" stroke="#000000" points="441.032,-205.034 433.177,-212.687 436.334,-206.746 431.636,-208.459 431.636,-208.459 431.636,-208.459 436.334,-206.746 430.095,-204.231 441.032,-205.034 441.032,-205.034"/>
<text text-anchor="start" x="395.5" y="-225.5" font-family="Arial" font-size="10.00" fill="black"><a fill="navy" href="../reference/Graphics/RepresentationGroup.html#dexpi-graphics-representationgroup-groups" target="_parent">Groups</a></text>
<text text-anchor="start" x="433.032" y="-208.034" font-family="Arial" font-size="10.00" fill="black">*</text>
<text text-anchor="start" x="125.055" y="-265.515" font-family="Arial" font-size="10.00" fill="black">0..1</text>
</g>
<!-- 21 -->
<g id="node5" class="node"><defs>
<linearGradient id="l_3" gradientUnits="userSpaceOnUse" x1="235.5" y1="-169" x2="235.5" y2="-205">
<stop offset="0" style="stop-color:#ffffbb;stop-opacity:1.;"/>
<stop offset="1" style="stop-color:#ffffee;stop-opacity:1.;"/>
</linearGradient>
</defs>
<polygon fill="url(#l_3)" stroke="black" points="281.5,-205 189.5,-205 189.5,-169 281.5,-169 281.5,-205"/>
<text text-anchor="start" x="199.5" y="-185.2" font-family="Arial" font-weight="bold" font-style="italic" font-size="11.00" fill="black"><a fill="navy" href="../reference/Graphics/NodePosition.html" target="_parent">NodePosition</a></text>
</g>
<!-- 10&#45;&gt;21 -->
<g id="edge3" class="edge"><path fill="none" stroke="#000000" d="M115.065,-246.415C138.937,-234.836 167.853,-220.811 191.367,-209.406"/>
<polygon fill="#000000" stroke="#000000" points="114.713,-246.585 111.061,-252.803 103.916,-251.822 107.569,-245.605 114.713,-246.585"/>
<polygon fill="#000000" stroke="#000000" points="200.421,-205.014 193.388,-213.427 195.923,-207.196 191.424,-209.378 191.424,-209.378 191.424,-209.378 195.923,-207.196 189.46,-205.329 200.421,-205.014 200.421,-205.014"/>
<text text-anchor="start" x="169.5" y="-225.5" font-family="Arial" font-size="10.00" fill="black"><a fill="navy" href="../reference/Graphics/RepresentationGroup.html#dexpi-graphics-representationgroup-nodepositions" target="_parent">NodePositions</a></text>
<text text-anchor="start" x="192.421" y="-208.014" font-family="Arial" font-size="10.00" fill="black">*</text>
<text text-anchor="start" x="74.9164" y="-241.822" font-family="Arial" font-size="10.00" fill="black">0..1</text>
</g>
<!-- 24 -->
<g id="node6" class="node"><defs>
<linearGradient id="l_4" gradientUnits="userSpaceOnUse" x1="357.5" y1="-169" x2="357.5" y2="-205">
<stop offset="0" style="stop-color:#ffffbb;stop-opacity:1.;"/>
<stop offset="1" style="stop-color:#ffffee;stop-opacity:1.;"/>
</linearGradient>
</defs>
<polygon fill="url(#l_4)" stroke="black" points="415,-205 300,-205 300,-169 415,-169 415,-205"/>
<text text-anchor="start" x="310.5" y="-185.2" font-family="Arial" font-weight="bold" font-style="italic" font-size="11.00" fill="black"><a fill="navy" href="../reference/DexpiModel/ConceptualObject.html" target="_parent">ConceptualObject</a></text>
</g>
<!-- 10&#45;&gt;24 -->
<g id="edge4" class="edge"><path fill="none" stroke="#000000" d="M137.057,-258.927C168.603,-253.49 206.311,-245.849 239.5,-236 263.879,-228.765 290.164,-218.346 311.724,-209.062"/>
<polygon fill="#000000" stroke="#000000" points="320.964,-205.029 313.599,-213.154 316.381,-207.03 311.798,-209.03 311.798,-209.03 311.798,-209.03 316.381,-207.03 309.998,-204.905 320.964,-205.029 320.964,-205.029"/>
<text text-anchor="start" x="284.5" y="-225.5" font-family="Arial" font-size="10.00" fill="black"><a fill="navy" href="../reference/Graphics/RepresentationGroup.html#dexpi-graphics-representationgroup-represents" target="_parent">Represents</a></text>
<text text-anchor="start" x="312.964" y="-208.029" font-family="Arial" font-size="10.00" fill="black"></text>
<text text-anchor="start" x="125.057" y="-248.927" font-family="Arial" font-size="10.00" fill="black">*</text>
</g>
<!-- 12&#45;inner&#45;node -->
<!-- 10&#45;&gt;12&#45;inner&#45;node -->
<g id="edge5" class="edge"><path fill="none" stroke="black" d="M68.5,-241.649C68.5,-218.987 68.5,-190.163 68.5,-188.116L68.5275,-185.91"/>
<polygon fill="none" stroke="black" points="65.0001,-241.822 68.5,-251.822 72.0001,-241.822 65.0001,-241.822"/>
</g>
<!-- 13&#45;inner&#45;node -->
<!-- 11&#45;&gt;13&#45;inner&#45;node -->
<g id="edge7" class="edge"><path fill="none" stroke="black" d="M484.5,-158.426C484.5,-122.519 484.5,-64.0549 484.5,-62.0528L484.574,-62.0641"/>
<polygon fill="none" stroke="black" points="481,-158.758 484.5,-168.758 488,-158.758 481,-158.758"/>
</g>
<!-- 16 -->
<g id="node4" class="node"><defs>
<linearGradient id="l_5" gradientUnits="userSpaceOnUse" x1="129.5" y1="-169" x2="129.5" y2="-205">
<stop offset="0" style="stop-color:#ffffbb;stop-opacity:1.;"/>
<stop offset="1" style="stop-color:#ffffee;stop-opacity:1.;"/>
</linearGradient>
</defs>
<polygon fill="url(#l_5)" stroke="black" points="171.5,-205 87.5,-205 87.5,-169 171.5,-169 171.5,-205"/>
<text text-anchor="start" x="97.5" y="-185.2" font-family="Arial" font-weight="bold" font-size="11.00" fill="black"><a fill="navy" href="../reference/DexpiModel/DexpiModel.html" target="_parent">DexpiModel</a></text>
</g>
<!-- 16&#45;&gt;0 -->
<g id="edge1" class="edge"><path fill="none" stroke="#000000" d="M124.06,-156.67C122.677,-149.215 121.131,-140.879 119.545,-132.327"/>
<polygon fill="#000000" stroke="#000000" points="124.113,-156.96 129.141,-162.129 126.302,-168.758 121.275,-163.588 124.113,-156.96"/>
<polygon fill="#000000" stroke="#000000" points="117.672,-122.229 123.92,-131.241 118.583,-127.145 119.495,-132.062 119.495,-132.062 119.495,-132.062 118.583,-127.145 115.071,-132.882 117.672,-122.229 117.672,-122.229"/>
<text text-anchor="start" x="126" y="-142.5" font-family="Arial" font-size="10.00" fill="black"><a fill="navy" href="../reference/DexpiModel/DexpiModel.html#dexpi-dexpimodel-dexpimodel-diagram" target="_parent">Diagram</a></text>
<text text-anchor="start" x="96.672" y="-125.229" font-family="Arial" font-size="10.00" fill="black">0..1</text>
<text text-anchor="start" x="97.302" y="-158.758" font-family="Arial" font-size="10.00" fill="black">0..1</text>
</g>
<!-- 12&#45;inner&#45;node&#45;&gt;0 -->
<g id="edge6" class="edge"><path fill="none" stroke="black" d="M68.5275,-185.91C69.1051,-184.025 78.6703,-152.813 88.0548,-122.189"/>
</g>
<!-- 13&#45;inner&#45;node&#45;&gt;10 -->
<g id="edge8" class="edge"><path fill="none" stroke="black" d="M484.574,-62.0641C487.642,-64.745 585.518,-150.957 544.5,-205 520.24,-236.964 263.318,-257.045 137.354,-265.04"/>
</g>
</g>
</svg>