<!DOCTYPE svg PUBLIC "-//W3C//DTD SVG 1.1//EN" "http://www.w3.org/Graphics/SVG/1.1/DTD/svg11.dtd">
<!-- Generated by graphviz version 2.38.0 (20140413.2041)
 --><!-- Title: G Pages: 1 --><svg xmlns="http://www.w3.org/2000/svg" xmlns:xlink="http://www.w3.org/1999/xlink" width="373pt" height="232pt" viewBox="0.00 0.00 373.00 232.00">
<g id="graph0" class="graph" transform="scale(1 1) rotate(0) translate(4 228)">
<!-- 0 -->
<g id="node1" class="node"><defs>
<linearGradient id="l_0" gradientUnits="userSpaceOnUse" x1="182.5" y1="-188" x2="182.5" y2="-224">
<stop offset="0" style="stop-color:#eeeeff;stop-opacity:1.;"/>
<stop offset="1" style="stop-color:#f8f8ff;stop-opacity:1.;"/>
</linearGradient>
</defs>
<polygon fill="url(#l_0)" stroke="black" points="290.5,-224 74.5,-224 74.5,-188 290.5,-188 290.5,-224"/>
<text text-anchor="start" x="84.5" y="-204.2" font-family="Arial" text-decoration="underline" font-size="11.00" fill="black">customEquipment1&#160;:&#160;<a fill="navy" href="../reference/Equipment/CustomEquipment.html" target="_parent">CustomEquipment</a></text>
</g>
<!-- 2 -->
<g id="node2" class="node"><defs>
<linearGradient id="l_1" gradientUnits="userSpaceOnUse" x1="182.5" y1="-94" x2="182.5" y2="-156">
<stop offset="0" style="stop-color:#eeeeff;stop-opacity:1.;"/>
<stop offset="1" style="stop-color:#f8f8ff;stop-opacity:1.;"/>
</linearGradient>
</defs>
<polygon fill="url(#l_1)" stroke="black" points="365,-156 0,-156 0,-94 365,-94 365,-156"/>
<text text-anchor="start" x="10.5" y="-142.2" font-family="Arial" text-decoration="underline" font-size="11.00" fill="black">customPressureAbsoluteAttribute1&#160;:&#160;<a fill="navy" href="../reference/Customization/CustomPressureAbsoluteAttribute.html" target="_parent">CustomPressureAbsoluteAttribute</a></text>
<text text-anchor="start" x="10.5" y="-118" font-family="Arial" font-size="10.00" fill="black"><a fill="navy" href="../reference/Customization/CustomAttribute.html#dexpi-customization-customattribute-attributename" target="_parent">AttributeName</a>:&#160;<a fill="navy" href="../reference/DataTypes/String.html" target="_parent">String</a>&#160;=&#160;</text>
<text text-anchor="start" x="145.5" y="-118" font-family="Arial" font-size="10.00" fill="black">"UpperLimitAllowableDesignPressureDrop"</text>
<text text-anchor="start" x="10.5" y="-103" font-family="Arial" font-size="10.00" fill="black"><a fill="navy" href="../reference/Customization/CustomAttribute.html#dexpi-customization-customattribute-attributeuri" target="_parent">AttributeURI</a>:&#160;<a fill="navy" href="../reference/DataTypes/AnyURI.html" target="_parent">AnyURI</a>&#160;=&#160;</text>
<text text-anchor="start" x="145.5" y="-103" font-family="Arial" font-size="10.00" fill="black">"http://www.example.org/5257fef273782e"</text>
<polygon fill="black" stroke="black" points="365.0,-136.0 0.0,-136.0 0.0,-136.0 365.0,-136.0 365.0,-136.0"/>
</g>
<!-- 0&#45;&gt;2 -->
<g id="edge2" class="edge"><path fill="none" stroke="#000000" d="M182.5,-187.858C182.5,-181.494 182.5,-173.974 182.5,-166.411"/>
<polygon fill="#000000" stroke="#000000" points="182.5,-156.173 187,-166.173 182.5,-161.173 182.5,-166.173 182.5,-166.173 182.5,-166.173 182.5,-161.173 178,-166.173 182.5,-156.173 182.5,-156.173"/>
<text text-anchor="start" x="93.1" y="-159.373" font-family="Arial" font-size="11.00" fill="black"><a fill="navy" href="../reference/Customization/CustomAttributeOwner.html#dexpi-customization-customattributeowner-customattributes" target="_parent">CustomAttributes</a></text>
</g>
<!-- 8 -->
<g id="node3" class="node"><defs>
<linearGradient id="l_2" gradientUnits="userSpaceOnUse" x1="182.5" y1="-3.19744e-014" x2="182.5" y2="-62">
<stop offset="0" style="stop-color:#eeeeff;stop-opacity:1.;"/>
<stop offset="1" style="stop-color:#f8f8ff;stop-opacity:1.;"/>
</linearGradient>
</defs>
<polygon fill="url(#l_2)" stroke="black" points="286.5,-62 78.5,-62 78.5,-0 286.5,-0 286.5,-62"/>
<text text-anchor="start" x="88.5" y="-48.2" font-family="Arial" text-decoration="underline" font-size="11.00" fill="black">pressureAbsolute1&#160;:&#160;<a fill="navy" href="../reference/PhysicalQuantities/PressureAbsolute.html" target="_parent">PressureAbsolute</a></text>
<text text-anchor="start" x="88.5" y="-24" font-family="Arial" font-size="10.00" fill="black"><a fill="navy" href="../reference/PhysicalQuantities/PressureAbsolute.html#dexpi-physicalquantities-pressureabsolute-unit" target="_parent">Unit</a>:&#160;<a fill="navy" href="../reference/PhysicalQuantities/PressureAbsoluteUnit.html" target="_parent">PressureAbsoluteUnit</a>&#160;=&#160;</text>
<text text-anchor="start" x="241.5" y="-24" font-family="Arial" font-size="10.00" fill="black"><a fill="navy" href="../reference/PhysicalQuantities/PressureAbsoluteUnit.html#dexpi-physicalquantities-pressureabsoluteunit-bar" target="_parent">Bar</a></text>
<text text-anchor="start" x="88.5" y="-9" font-family="Arial" font-size="10.00" fill="black"><a fill="navy" href="../reference/PhysicalQuantities/PressureAbsolute.html#dexpi-physicalquantities-pressureabsolute-value" target="_parent">Value</a>:&#160;<a fill="navy" href="../reference/DataTypes/Double.html" target="_parent">Double</a>&#160;=&#160;</text>
<text text-anchor="start" x="241.5" y="-9" font-family="Arial" font-size="10.00" fill="black">0.2</text>
<polygon fill="black" stroke="black" points="286.5,-42.0 78.5,-42.0 78.5,-42.0 286.5,-42.0 286.5,-42.0"/>
</g>
<!-- 2&#45;&gt;8 -->
<g id="edge1" class="edge"><path fill="none" stroke="#000000" d="M182.5,-93.8758C182.5,-86.9657 182.5,-79.5109 182.5,-72.2503"/>
<polygon fill="#000000" stroke="#000000" points="182.5,-62.1919 187,-72.1919 182.5,-67.1919 182.5,-72.1919 182.5,-72.1919 182.5,-72.1919 182.5,-67.1919 178,-72.192 182.5,-62.1919 182.5,-62.1919"/>
<text text-anchor="start" x="150.1" y="-65.3919" font-family="Arial" font-size="11.00" fill="black"><a fill="navy" href="../reference/Customization/CustomPressureAbsoluteAttribute.html#dexpi-customization-custompressureabsoluteattribute-value" target="_parent">Value</a></text>
</g>
</g>
</svg>