<!DOCTYPE svg PUBLIC "-//W3C//DTD SVG 1.1//EN" "http://www.w3.org/Graphics/SVG/1.1/DTD/svg11.dtd">
<!-- Generated by graphviz version 2.38.0 (20140413.2041)
 --><!-- Title: G Pages: 1 --><svg xmlns="http://www.w3.org/2000/svg" xmlns:xlink="http://www.w3.org/1999/xlink" width="214pt" height="112pt" viewBox="0.00 0.00 214.00 112.00">
<g id="graph0" class="graph" transform="scale(1 1) rotate(0) translate(4 108)">
<!-- 0 -->
<g id="node1" class="node"><defs>
<linearGradient id="l_0" gradientUnits="userSpaceOnUse" x1="103" y1="-68" x2="103" y2="-104">
<stop offset="0" style="stop-color:#eeeeff;stop-opacity:1.;"/>
<stop offset="1" style="stop-color:#f8f8ff;stop-opacity:1.;"/>
</linearGradient>
</defs>
<polygon fill="url(#l_0)" stroke="black" points="206,-104 0,-104 0,-68 206,-68 206,-104"/>
<text text-anchor="start" x="10" y="-84.2" font-family="Arial" text-decoration="underline" font-size="11.00" fill="black">centrifugalBlower1&#160;:&#160;<a fill="navy" href="../reference/Equipment/CentrifugalBlower.html" target="_parent">CentrifugalBlower</a></text>
</g>
<!-- 2 -->
<g id="node2" class="node"><defs>
<linearGradient id="l_1" gradientUnits="userSpaceOnUse" x1="103" y1="-1.77636e-014" x2="103" y2="-36">
<stop offset="0" style="stop-color:#eeeeff;stop-opacity:1.;"/>
<stop offset="1" style="stop-color:#f8f8ff;stop-opacity:1.;"/>
</linearGradient>
</defs>
<polygon fill="url(#l_1)" stroke="black" points="159,-36 47,-36 47,-0 159,-0 159,-36"/>
<text text-anchor="start" x="57" y="-16.2" font-family="Arial" text-decoration="underline" font-size="11.00" fill="black">impeller1&#160;:&#160;<a fill="navy" href="../reference/Equipment/Impeller.html" target="_parent">Impeller</a></text>
</g>
<!-- 0&#45;&gt;2 -->
<g id="edge1" class="edge"><path fill="none" stroke="#000000" d="M103,-55.5962C103,-49.0584 103,-42.33 103,-36.4541"/>
<polygon fill="#000000" stroke="#000000" points="103,-55.6593 107,-61.6593 103,-67.6593 99,-61.6592 103,-55.6593"/>
<text text-anchor="start" x="53.6" y="-39.6541" font-family="Arial" font-size="11.00" fill="black">Impellers</text>
</g>
</g>
</svg>