<!DOCTYPE svg PUBLIC "-//W3C//DTD SVG 1.1//EN" "http://www.w3.org/Graphics/SVG/1.1/DTD/svg11.dtd">
<!-- Generated by graphviz version 2.38.0 (20140413.2041)
 --><!-- Title: G Pages: 1 --><svg xmlns="http://www.w3.org/2000/svg" xmlns:xlink="http://www.w3.org/1999/xlink" width="155pt" height="112pt" viewBox="0.00 0.00 155.00 112.00">
<g id="graph0" class="graph" transform="scale(1 1) rotate(0) translate(4 108)">
<!-- 0 -->
<g id="node1" class="node"><defs>
<linearGradient id="l_0" gradientUnits="userSpaceOnUse" x1="73.5" y1="-68" x2="73.5" y2="-104">
<stop offset="0" style="stop-color:#eeeeff;stop-opacity:1.;"/>
<stop offset="1" style="stop-color:#f8f8ff;stop-opacity:1.;"/>
</linearGradient>
</defs>
<polygon fill="url(#l_0)" stroke="black" points="147,-104 0,-104 0,-68 147,-68 147,-104"/>
<text text-anchor="start" x="10.5" y="-84.2" font-family="Arial" text-decoration="underline" font-size="11.00" fill="black">axialBlower1&#160;:&#160;<a fill="navy" href="../reference/Equipment/AxialBlower.html" target="_parent">AxialBlower</a></text>
</g>
<!-- 2 -->
<g id="node2" class="node"><defs>
<linearGradient id="l_1" gradientUnits="userSpaceOnUse" x1="73.5" y1="-1.77636e-014" x2="73.5" y2="-36">
<stop offset="0" style="stop-color:#eeeeff;stop-opacity:1.;"/>
<stop offset="1" style="stop-color:#f8f8ff;stop-opacity:1.;"/>
</linearGradient>
</defs>
<polygon fill="url(#l_1)" stroke="black" points="129.5,-36 17.5,-36 17.5,-0 129.5,-0 129.5,-36"/>
<text text-anchor="start" x="27.5" y="-16.2" font-family="Arial" text-decoration="underline" font-size="11.00" fill="black">impeller1&#160;:&#160;<a fill="navy" href="../reference/Equipment/Impeller.html" target="_parent">Impeller</a></text>
</g>
<!-- 0&#45;&gt;2 -->
<g id="edge1" class="edge"><path fill="none" stroke="#000000" d="M73.5,-55.5962C73.5,-49.0584 73.5,-42.33 73.5,-36.4541"/>
<polygon fill="#000000" stroke="#000000" points="73.5001,-55.6593 77.5,-61.6593 73.5,-67.6593 69.5,-61.6592 73.5001,-55.6593"/>
<text text-anchor="start" x="24.1" y="-39.6541" font-family="Arial" font-size="11.00" fill="black">Impellers</text>
</g>
</g>
</svg>