<!DOCTYPE svg PUBLIC "-//W3C//DTD SVG 1.1//EN" "http://www.w3.org/Graphics/SVG/1.1/DTD/svg11.dtd">
<!-- Generated by graphviz version 2.38.0 (20140413.2041)
 --><!-- Title: G Pages: 1 --><svg xmlns="http://www.w3.org/2000/svg" xmlns:xlink="http://www.w3.org/1999/xlink" width="176pt" height="293pt" viewBox="0.00 0.00 176.00 293.00">
<g id="graph0" class="graph" transform="scale(1 1) rotate(0) translate(4 289)">
<!-- 0 -->
<g id="node1" class="node"><defs>
<linearGradient id="l_0" gradientUnits="userSpaceOnUse" x1="84" y1="-3.55271e-014" x2="84" y2="-77">
<stop offset="0" style="stop-color:#ffffbb;stop-opacity:1.;"/>
<stop offset="1" style="stop-color:#ffffee;stop-opacity:1.;"/>
</linearGradient>
</defs>
<polygon fill="url(#l_0)" stroke="black" points="165,-77 3,-77 3,-0 165,-0 165,-77"/>
<text text-anchor="start" x="52" y="-62.5" font-family="Arial" font-size="10.00" fill="black">&lt;&lt;dataType&gt;&gt;</text>
<text text-anchor="start" x="31" y="-47.7" font-family="Arial" font-weight="bold" font-size="11.00" fill="black">ElectricalFrequency</text>
<text text-anchor="start" x="13" y="-23.5" font-family="Arial" font-size="10.00" fill="black"><a fill="navy" href="../reference/PhysicalQuantities/ElectricalFrequency.html#dexpi-physicalquantities-electricalfrequency-unit" target="_parent">Unit</a>&#160;:</text>
<text text-anchor="start" x="48" y="-23.5" font-family="Arial" font-size="10.00" fill="black"><a fill="navy" href="../reference/PhysicalQuantities/ElectricalFrequencyUnit.html" target="_parent">ElectricalFrequencyUnit</a>&#160;</text>
<text text-anchor="start" x="13" y="-8.5" font-family="Arial" font-size="10.00" fill="black"><a fill="navy" href="../reference/PhysicalQuantities/ElectricalFrequency.html#dexpi-physicalquantities-electricalfrequency-value" target="_parent">Value</a>&#160;:</text>
<text text-anchor="start" x="48" y="-8.5" font-family="Arial" font-size="10.00" fill="black"><a fill="navy" href="../reference/DataTypes/Double.html" target="_parent">Double</a>&#160;</text>
<polygon fill="black" stroke="black" points="165.0,-41.5 3.0,-41.5 3.0,-41.5 165.0,-41.5 165.0,-41.5"/>
</g>
<!-- 5 -->
<g id="node2" class="node"><defs>
<linearGradient id="l_1" gradientUnits="userSpaceOnUse" x1="84" y1="-142" x2="84" y2="-181">
<stop offset="0" style="stop-color:#ffffbb;stop-opacity:1.;"/>
<stop offset="1" style="stop-color:#ffffee;stop-opacity:1.;"/>
</linearGradient>
</defs>
<polygon fill="url(#l_1)" stroke="black" points="168,-181 0,-181 0,-142 168,-142 168,-181"/>
<text text-anchor="start" x="52" y="-166.5" font-family="Arial" font-size="10.00" fill="black">&lt;&lt;dataType&gt;&gt;</text>
<text text-anchor="start" x="10" y="-151.7" font-family="Arial" font-weight="bold" font-style="italic" font-size="11.00" fill="black"><a fill="navy" href="../reference/PhysicalQuantities/NullableElectricalFrequency.html" target="_parent">NullableElectricalFrequency</a></text>
</g>
<!-- 7&#45;inner&#45;node -->
<!-- 5&#45;&gt;7&#45;inner&#45;node -->
<g id="edge1" class="edge"><path fill="none" stroke="black" d="M84,-131.92C84,-120.959 84,-110.85 84,-110.051L84,-108.95"/>
<polygon fill="none" stroke="black" points="80.5001,-131.982 84,-141.982 87.5001,-131.982 80.5001,-131.982"/>
</g>
<!-- 6 -->
<g id="node3" class="node"><defs>
<linearGradient id="l_2" gradientUnits="userSpaceOnUse" x1="84" y1="-246" x2="84" y2="-285">
<stop offset="0" style="stop-color:#ffffbb;stop-opacity:1.;"/>
<stop offset="1" style="stop-color:#ffffee;stop-opacity:1.;"/>
</linearGradient>
</defs>
<polygon fill="url(#l_2)" stroke="black" points="143.5,-285 24.5,-285 24.5,-246 143.5,-246 143.5,-285"/>
<text text-anchor="start" x="52.5" y="-270.5" font-family="Arial" font-size="10.00" fill="black">&lt;&lt;dataType&gt;&gt;</text>
<text text-anchor="start" x="35" y="-255.7" font-family="Arial" font-weight="bold" font-style="italic" font-size="11.00" fill="black"><a fill="navy" href="../reference/PhysicalQuantities/NullableFrequency.html" target="_parent">NullableFrequency</a></text>
</g>
<!-- 8&#45;inner&#45;node -->
<!-- 6&#45;&gt;8&#45;inner&#45;node -->
<g id="edge3" class="edge"><path fill="none" stroke="black" d="M84,-235.92C84,-224.959 84,-214.85 84,-214.051L84,-212.855"/>
<polygon fill="none" stroke="black" points="80.5001,-235.982 84,-245.982 87.5001,-235.982 80.5001,-235.982"/>
</g>
<!-- 7&#45;inner&#45;node&#45;&gt;0 -->
<g id="edge2" class="edge"><path fill="none" stroke="black" d="M84,-108.95C84,-107.971 84,-92.8959 84,-77.0406"/>
</g>
<!-- 8&#45;inner&#45;node&#45;&gt;5 -->
<g id="edge4" class="edge"><path fill="none" stroke="black" d="M84,-212.855C84,-211.154 84,-194.803 84,-181.188"/>
</g>
</g>
</svg>