<!DOCTYPE svg PUBLIC "-//W3C//DTD SVG 1.1//EN" "http://www.w3.org/Graphics/SVG/1.1/DTD/svg11.dtd">
<!-- Generated by graphviz version 2.38.0 (20140413.2041)
 --><!-- Title: G Pages: 1 --><svg xmlns="http://www.w3.org/2000/svg" xmlns:xlink="http://www.w3.org/1999/xlink" width="194pt" height="483pt" viewBox="0.00 0.00 194.00 483.00">
<g id="graph0" class="graph" transform="scale(1 1) rotate(0) translate(4 479)">
<!-- 0 -->
<g id="node1" class="node"><defs>
<linearGradient id="l_0" gradientUnits="userSpaceOnUse" x1="75" y1="-7.10543e-014" x2="75" y2="-137">
<stop offset="0" style="stop-color:#ffffbb;stop-opacity:1.;"/>
<stop offset="1" style="stop-color:#ffffee;stop-opacity:1.;"/>
</linearGradient>
</defs>
<polygon fill="url(#l_0)" stroke="black" points="150,-137 0,-137 0,-0 150,-0 150,-137"/>
<text text-anchor="start" x="48" y="-122.7" font-family="Arial" font-weight="bold" font-size="11.00" fill="black">EllipseArc</text>
<text text-anchor="start" x="10" y="-98.5" font-family="Arial" font-size="10.00" fill="black"><a fill="navy" href="../reference/Graphics/EllipseArc.html#dexpi-graphics-ellipsearc-center" target="_parent">Center</a>&#160;:</text>
<text text-anchor="start" x="106" y="-98.5" font-family="Arial" font-size="10.00" fill="black"><a fill="navy" href="../reference/Graphics/Point.html" target="_parent">Point</a>&#160;</text>
<text text-anchor="start" x="10" y="-83.5" font-family="Arial" font-size="10.00" fill="black"><a fill="navy" href="../reference/Graphics/EllipseArc.html#dexpi-graphics-ellipsearc-endangle" target="_parent">EndAngle</a>&#160;:</text>
<text text-anchor="start" x="106" y="-83.5" font-family="Arial" font-size="10.00" fill="black"><a fill="navy" href="../reference/DataTypes/Double.html" target="_parent">Double</a>&#160;</text>
<text text-anchor="start" x="10" y="-68.5" font-family="Arial" font-size="10.00" fill="black"><a fill="navy" href="../reference/Graphics/EllipseArc.html#dexpi-graphics-ellipsearc-horizontalsemiaxis" target="_parent">HorizontalSemiAxis</a>&#160;:</text>
<text text-anchor="start" x="106" y="-68.5" font-family="Arial" font-size="10.00" fill="black"><a fill="navy" href="../reference/DataTypes/Double.html" target="_parent">Double</a>&#160;</text>
<text text-anchor="start" x="10" y="-53.5" font-family="Arial" font-size="10.00" fill="black"><a fill="navy" href="../reference/Graphics/EllipseArc.html#dexpi-graphics-ellipsearc-rotation" target="_parent">Rotation</a>&#160;:</text>
<text text-anchor="start" x="106" y="-53.5" font-family="Arial" font-size="10.00" fill="black"><a fill="navy" href="../reference/DataTypes/Double.html" target="_parent">Double</a>&#160;</text>
<text text-anchor="start" x="10" y="-38.5" font-family="Arial" font-size="10.00" fill="black"><a fill="navy" href="../reference/Graphics/EllipseArc.html#dexpi-graphics-ellipsearc-startangle" target="_parent">StartAngle</a>&#160;:</text>
<text text-anchor="start" x="106" y="-38.5" font-family="Arial" font-size="10.00" fill="black"><a fill="navy" href="../reference/DataTypes/Double.html" target="_parent">Double</a>&#160;</text>
<text text-anchor="start" x="10" y="-23.5" font-family="Arial" font-size="10.00" fill="black"><a fill="navy" href="../reference/Graphics/EllipseArc.html#dexpi-graphics-ellipsearc-stroke" target="_parent">Stroke</a>&#160;:</text>
<text text-anchor="start" x="106" y="-23.5" font-family="Arial" font-size="10.00" fill="black"><a fill="navy" href="../reference/Graphics/Stroke.html" target="_parent">Stroke</a>&#160;</text>
<text text-anchor="start" x="10" y="-8.5" font-family="Arial" font-size="10.00" fill="black"><a fill="navy" href="../reference/Graphics/EllipseArc.html#dexpi-graphics-ellipsearc-verticalsemiaxis" target="_parent">VerticalSemiAxis</a>&#160;:</text>
<text text-anchor="start" x="106" y="-8.5" font-family="Arial" font-size="10.00" fill="black"><a fill="navy" href="../reference/DataTypes/Double.html" target="_parent">Double</a>&#160;</text>
<polygon fill="black" stroke="black" points="150.0,-116.5 0.0,-116.5 0.0,-116.5 150.0,-116.5 150.0,-116.5"/>
</g>
<!-- 11 -->
<g id="node2" class="node"><defs>
<linearGradient id="l_1" gradientUnits="userSpaceOnUse" x1="75" y1="-204" x2="75" y2="-240">
<stop offset="0" style="stop-color:#ffffbb;stop-opacity:1.;"/>
<stop offset="1" style="stop-color:#ffffee;stop-opacity:1.;"/>
</linearGradient>
</defs>
<polygon fill="url(#l_1)" stroke="black" points="134.5,-240 15.5,-240 15.5,-204 134.5,-204 134.5,-240"/>
<text text-anchor="start" x="26" y="-220.2" font-family="Arial" font-weight="bold" font-style="italic" font-size="11.00" fill="black"><a fill="navy" href="../reference/Graphics/GraphicalPrimitive.html" target="_parent">GraphicalPrimitive</a></text>
</g>
<!-- 13&#45;inner&#45;node -->
<!-- 11&#45;&gt;13&#45;inner&#45;node -->
<g id="edge3" class="edge"><path fill="none" stroke="black" d="M75,-193.603C75,-182.422 75,-171.887 75,-171.053L75,-169.927"/>
<polygon fill="none" stroke="black" points="71.5001,-193.793 75,-203.793 78.5001,-193.793 71.5001,-193.793"/>
</g>
<!-- 12 -->
<g id="node3" class="node"><defs>
<linearGradient id="l_2" gradientUnits="userSpaceOnUse" x1="106" y1="-356" x2="106" y2="-392">
<stop offset="0" style="stop-color:#ffffbb;stop-opacity:1.;"/>
<stop offset="1" style="stop-color:#ffffee;stop-opacity:1.;"/>
</linearGradient>
</defs>
<polygon fill="url(#l_2)" stroke="black" points="163.5,-392 48.5,-392 48.5,-356 163.5,-356 163.5,-392"/>
<text text-anchor="start" x="59" y="-372.2" font-family="Arial" font-weight="bold" font-style="italic" font-size="11.00" fill="black"><a fill="navy" href="../reference/Graphics/GraphicalElement.html" target="_parent">GraphicalElement</a></text>
</g>
<!-- 14&#45;inner&#45;node -->
<!-- 12&#45;&gt;14&#45;inner&#45;node -->
<g id="edge5" class="edge"><path fill="none" stroke="black" d="M106,-345.68C106,-327.835 106,-307.568 106,-306.086L105.983,-303.921"/>
<polygon fill="none" stroke="black" points="102.5,-345.746 106,-355.746 109.5,-345.746 102.5,-345.746"/>
</g>
<!-- 17 -->
<g id="node4" class="node"><defs>
<linearGradient id="l_3" gradientUnits="userSpaceOnUse" x1="44" y1="-287" x2="44" y2="-323">
<stop offset="0" style="stop-color:#ffffbb;stop-opacity:1.;"/>
<stop offset="1" style="stop-color:#ffffee;stop-opacity:1.;"/>
</linearGradient>
</defs>
<polygon fill="url(#l_3)" stroke="black" points="71,-323 17,-323 17,-287 71,-287 71,-323"/>
<text text-anchor="start" x="27" y="-303.2" font-family="Arial" font-weight="bold" font-style="italic" font-size="11.00" fill="black"><a fill="navy" href="../reference/Graphics/Shape.html" target="_parent">Shape</a></text>
</g>
<!-- 17&#45;&gt;11 -->
<g id="edge1" class="edge"><path fill="none" stroke="#000000" d="M41.3237,-274.607C41.6461,-268.299 42.691,-261.792 45,-256 46.0752,-253.303 47.479,-250.688 49.0923,-248.189"/>
<polygon fill="#000000" stroke="#000000" points="41.3291,-274.986 45.4157,-280.927 41.5032,-286.985 37.4166,-281.043 41.3291,-274.986"/>
<polygon fill="#000000" stroke="#000000" points="55.2103,-240.187 52.7109,-250.865 52.1733,-244.159 49.1362,-248.131 49.1362,-248.131 49.1362,-248.131 52.1733,-244.159 45.5614,-245.398 55.2103,-240.187 55.2103,-240.187"/>
<text text-anchor="start" x="47.5" y="-260.5" font-family="Arial" font-size="10.00" fill="black"><a fill="navy" href="../reference/Graphics/Shape.html#dexpi-graphics-shape-primitives" target="_parent">Primitives</a></text>
<text text-anchor="start" x="47.2103" y="-243.187" font-family="Arial" font-size="10.00" fill="black">*</text>
<text text-anchor="start" x="12.5032" y="-276.985" font-family="Arial" font-size="10.00" fill="black">0..1</text>
</g>
<!-- 20 -->
<g id="node5" class="node"><defs>
<linearGradient id="l_4" gradientUnits="userSpaceOnUse" x1="106" y1="-439" x2="106" y2="-475">
<stop offset="0" style="stop-color:#ffffbb;stop-opacity:1.;"/>
<stop offset="1" style="stop-color:#ffffee;stop-opacity:1.;"/>
</linearGradient>
</defs>
<polygon fill="url(#l_4)" stroke="black" points="186,-475 26,-475 26,-439 186,-439 186,-475"/>
<text text-anchor="start" x="36" y="-455.2" font-family="Arial" font-weight="bold" font-style="italic" font-size="11.00" fill="black"><a fill="navy" href="../reference/Graphics/RepresentationTypeGroup.html" target="_parent">RepresentationTypeGroup</a></text>
</g>
<!-- 20&#45;&gt;12 -->
<g id="edge2" class="edge"><path fill="none" stroke="#000000" d="M106,-426.549C106,-418.604 106,-410.044 106,-402.226"/>
<polygon fill="#000000" stroke="#000000" points="106,-426.822 110,-432.822 106,-438.822 102,-432.822 106,-426.822"/>
<polygon fill="#000000" stroke="#000000" points="106,-392.153 110.5,-402.153 106,-397.153 106,-402.153 106,-402.153 106,-402.153 106,-397.153 101.5,-402.153 106,-392.153 106,-392.153"/>
<text text-anchor="start" x="108" y="-412.5" font-family="Arial" font-size="10.00" fill="black"><a fill="navy" href="../reference/Graphics/RepresentationTypeGroup.html#dexpi-graphics-representationtypegroup-elements" target="_parent">Elements</a></text>
<text text-anchor="start" x="98.0" y="-395.153" font-family="Arial" font-size="10.00" fill="black">*</text>
<text text-anchor="start" x="77.0" y="-428.822" font-family="Arial" font-size="10.00" fill="black">0..1</text>
</g>
<!-- 13&#45;inner&#45;node&#45;&gt;0 -->
<g id="edge4" class="edge"><path fill="none" stroke="black" d="M75,-169.927C75,-168.792 75,-154.528 75,-137.088"/>
</g>
<!-- 14&#45;inner&#45;node&#45;&gt;11 -->
<g id="edge6" class="edge"><path fill="none" stroke="black" d="M105.983,-303.921C105.637,-302.297 99.98,-275.994 92,-256 89.8977,-250.733 87.232,-245.187 84.6386,-240.177"/>
</g>
</g>
</svg>