<!DOCTYPE svg PUBLIC "-//W3C//DTD SVG 1.1//EN" "http://www.w3.org/Graphics/SVG/1.1/DTD/svg11.dtd">
<!-- Generated by graphviz version 2.38.0 (20140413.2041)
 --><!-- Title: G Pages: 1 --><svg xmlns="http://www.w3.org/2000/svg" xmlns:xlink="http://www.w3.org/1999/xlink" width="924pt" height="471pt" viewBox="0.00 0.00 924.00 471.00">
<g id="graph0" class="graph" transform="scale(1 1) rotate(0) translate(4 467)">
<!-- 0 -->
<g id="node1" class="node"><defs>
<linearGradient id="l_0" gradientUnits="userSpaceOnUse" x1="403.5" y1="-3.19744e-014" x2="403.5" y2="-62">
<stop offset="0" style="stop-color:#ffffbb;stop-opacity:1.;"/>
<stop offset="1" style="stop-color:#ffffee;stop-opacity:1.;"/>
</linearGradient>
</defs>
<polygon fill="url(#l_0)" stroke="black" points="522,-62 285,-62 285,-0 522,-0 522,-62"/>
<text text-anchor="start" x="375.5" y="-48.2" font-family="Arial" font-weight="bold" font-size="11.00" fill="black">Enterprise</text>
<text text-anchor="start" x="295.5" y="-24" font-family="Arial" font-size="10.00" fill="black"><a fill="navy" href="../reference/PlantStructure/Enterprise.html#dexpi-plantstructure-enterprise-enterpriseidentificationcode" target="_parent">EnterpriseIdentificationCode</a>&#160;:</text>
<text text-anchor="start" x="426.5" y="-24" font-family="Arial" font-size="10.00" fill="black"><a fill="navy" href="../reference/DataTypes/NullableString.html" target="_parent">NullableString</a>&#160;[0..1]</text>
<text text-anchor="start" x="295.5" y="-9" font-family="Arial" font-size="10.00" fill="black"><a fill="navy" href="../reference/PlantStructure/Enterprise.html#dexpi-plantstructure-enterprise-enterprisename" target="_parent">EnterpriseName</a>&#160;:</text>
<text text-anchor="start" x="426.5" y="-9" font-family="Arial" font-size="10.00" fill="black"><a fill="navy" href="../reference/DataTypes/NullableString.html" target="_parent">NullableString</a>&#160;[0..1]</text>
<polygon fill="black" stroke="black" points="522.0,-42.0 285.0,-42.0 285.0,-42.0 522.0,-42.0 522.0,-42.0"/>
</g>
<!-- 4 -->
<g id="node2" class="node"><defs>
<linearGradient id="l_1" gradientUnits="userSpaceOnUse" x1="100.5" y1="-178" x2="100.5" y2="-214">
<stop offset="0" style="stop-color:#ffffbb;stop-opacity:1.;"/>
<stop offset="1" style="stop-color:#ffffee;stop-opacity:1.;"/>
</linearGradient>
</defs>
<polygon fill="url(#l_1)" stroke="black" points="201,-214 0,-214 0,-178 201,-178 201,-214"/>
<text text-anchor="start" x="10.5" y="-194.2" font-family="Arial" font-weight="bold" font-style="italic" font-size="11.00" fill="black"><a fill="navy" href="../reference/PlantStructure/IndustrialComplexParentStructure.html" target="_parent">IndustrialComplexParentStructure</a></text>
</g>
<!-- 11&#45;inner&#45;node -->
<!-- 4&#45;&gt;11&#45;inner&#45;node -->
<g id="edge10" class="edge"><path fill="none" stroke="black" d="M100.5,-167.68C100.5,-149.835 100.5,-129.568 100.5,-128.086L100.555,-125.983"/>
<polygon fill="none" stroke="black" points="97.0001,-167.746 100.5,-177.746 104,-167.746 97.0001,-167.746"/>
</g>
<!-- 5 -->
<g id="node3" class="node"><defs>
<linearGradient id="l_2" gradientUnits="userSpaceOnUse" x1="304.5" y1="-178" x2="304.5" y2="-214">
<stop offset="0" style="stop-color:#ffffbb;stop-opacity:1.;"/>
<stop offset="1" style="stop-color:#ffffee;stop-opacity:1.;"/>
</linearGradient>
</defs>
<polygon fill="url(#l_2)" stroke="black" points="390,-214 219,-214 219,-178 390,-178 390,-214"/>
<text text-anchor="start" x="229.5" y="-194.2" font-family="Arial" font-weight="bold" font-style="italic" font-size="11.00" fill="black"><a fill="navy" href="../reference/PlantStructure/PlantSectionParentStructure.html" target="_parent">PlantSectionParentStructure</a></text>
</g>
<!-- 12&#45;inner&#45;node -->
<!-- 5&#45;&gt;12&#45;inner&#45;node -->
<g id="edge12" class="edge"><path fill="none" stroke="black" d="M304.5,-167.68C304.5,-149.835 304.5,-129.568 304.5,-128.086L304.572,-125.932"/>
<polygon fill="none" stroke="black" points="301,-167.746 304.5,-177.746 308,-167.746 301,-167.746"/>
</g>
<!-- 6 -->
<g id="node4" class="node"><defs>
<linearGradient id="l_3" gradientUnits="userSpaceOnUse" x1="468.5" y1="-178" x2="468.5" y2="-214">
<stop offset="0" style="stop-color:#ffffbb;stop-opacity:1.;"/>
<stop offset="1" style="stop-color:#ffffee;stop-opacity:1.;"/>
</linearGradient>
</defs>
<polygon fill="url(#l_3)" stroke="black" points="528.5,-214 408.5,-214 408.5,-178 528.5,-178 528.5,-214"/>
<text text-anchor="start" x="418.5" y="-194.2" font-family="Arial" font-weight="bold" font-style="italic" font-size="11.00" fill="black"><a fill="navy" href="../reference/PlantStructure/PlantStructureItem.html" target="_parent">PlantStructureItem</a></text>
</g>
<!-- 13&#45;inner&#45;node -->
<!-- 6&#45;&gt;13&#45;inner&#45;node -->
<g id="edge14" class="edge"><path fill="none" stroke="black" d="M468.5,-167.68C468.5,-149.835 468.5,-129.568 468.5,-128.086L468.453,-125.932"/>
<polygon fill="none" stroke="black" points="465,-167.746 468.5,-177.746 472,-167.746 465,-167.746"/>
</g>
<!-- 7 -->
<g id="node5" class="node"><defs>
<linearGradient id="l_4" gradientUnits="userSpaceOnUse" x1="633.5" y1="-178" x2="633.5" y2="-214">
<stop offset="0" style="stop-color:#ffffbb;stop-opacity:1.;"/>
<stop offset="1" style="stop-color:#ffffee;stop-opacity:1.;"/>
</linearGradient>
</defs>
<polygon fill="url(#l_4)" stroke="black" points="720.5,-214 546.5,-214 546.5,-178 720.5,-178 720.5,-214"/>
<text text-anchor="start" x="556.5" y="-194.2" font-family="Arial" font-weight="bold" font-style="italic" font-size="11.00" fill="black"><a fill="navy" href="../reference/PlantStructure/ProcessPlantParentStructure.html" target="_parent">ProcessPlantParentStructure</a></text>
</g>
<!-- 14&#45;inner&#45;node -->
<!-- 7&#45;&gt;14&#45;inner&#45;node -->
<g id="edge16" class="edge"><path fill="none" stroke="black" d="M633.5,-167.68C633.5,-149.835 633.5,-129.568 633.5,-128.086L633.333,-125.932"/>
<polygon fill="none" stroke="black" points="630,-167.746 633.5,-177.746 637,-167.746 630,-167.746"/>
</g>
<!-- 8 -->
<g id="node6" class="node"><defs>
<linearGradient id="l_5" gradientUnits="userSpaceOnUse" x1="827.5" y1="-178" x2="827.5" y2="-214">
<stop offset="0" style="stop-color:#ffffbb;stop-opacity:1.;"/>
<stop offset="1" style="stop-color:#ffffee;stop-opacity:1.;"/>
</linearGradient>
</defs>
<polygon fill="url(#l_5)" stroke="black" points="916,-214 739,-214 739,-178 916,-178 916,-214"/>
<text text-anchor="start" x="749.5" y="-194.2" font-family="Arial" font-weight="bold" font-style="italic" font-size="11.00" fill="black"><a fill="navy" href="../reference/PlantStructure/TechnicalItemParentStructure.html" target="_parent">TechnicalItemParentStructure</a></text>
</g>
<!-- 15&#45;inner&#45;node -->
<!-- 8&#45;&gt;15&#45;inner&#45;node -->
<g id="edge18" class="edge"><path fill="none" stroke="black" d="M827.5,-167.68C827.5,-149.835 827.5,-129.568 827.5,-128.086L827.423,-125.983"/>
<polygon fill="none" stroke="black" points="824,-167.746 827.5,-177.746 831,-167.746 824,-167.746"/>
</g>
<!-- 9 -->
<g id="node7" class="node"><defs>
<linearGradient id="l_6" gradientUnits="userSpaceOnUse" x1="438.5" y1="-344" x2="438.5" y2="-380">
<stop offset="0" style="stop-color:#ffffbb;stop-opacity:1.;"/>
<stop offset="1" style="stop-color:#ffffee;stop-opacity:1.;"/>
</linearGradient>
</defs>
<polygon fill="url(#l_6)" stroke="black" points="496,-380 381,-380 381,-344 496,-344 496,-380"/>
<text text-anchor="start" x="391.5" y="-360.2" font-family="Arial" font-weight="bold" font-style="italic" font-size="11.00" fill="black"><a fill="navy" href="../reference/DexpiModel/ConceptualObject.html" target="_parent">ConceptualObject</a></text>
</g>
<!-- 16&#45;inner&#45;node -->
<!-- 9&#45;&gt;16&#45;inner&#45;node -->
<g id="edge20" class="edge"><path fill="none" stroke="black" d="M438.5,-333.649C438.5,-310.987 438.5,-282.163 438.5,-280.116L438.529,-277.949"/>
<polygon fill="none" stroke="black" points="435,-333.822 438.5,-343.822 442,-333.822 435,-333.822"/>
</g>
<!-- 10 -->
<g id="node8" class="node"><defs>
<linearGradient id="l_7" gradientUnits="userSpaceOnUse" x1="596.5" y1="-344" x2="596.5" y2="-380">
<stop offset="0" style="stop-color:#ffffbb;stop-opacity:1.;"/>
<stop offset="1" style="stop-color:#ffffee;stop-opacity:1.;"/>
</linearGradient>
</defs>
<polygon fill="url(#l_7)" stroke="black" points="668.5,-380 524.5,-380 524.5,-344 668.5,-344 668.5,-380"/>
<text text-anchor="start" x="534.5" y="-360.2" font-family="Arial" font-weight="bold" font-style="italic" font-size="11.00" fill="black"><a fill="navy" href="../reference/Customization/CustomAttributeOwner.html" target="_parent">CustomAttributeOwner</a></text>
</g>
<!-- 44 -->
<g id="node17" class="node"><defs>
<linearGradient id="l_8" gradientUnits="userSpaceOnUse" x1="511.5" y1="-261" x2="511.5" y2="-297">
<stop offset="0" style="stop-color:#ffffbb;stop-opacity:1.;"/>
<stop offset="1" style="stop-color:#ffffee;stop-opacity:1.;"/>
</linearGradient>
</defs>
<polygon fill="url(#l_8)" stroke="black" points="566,-297 457,-297 457,-261 566,-261 566,-297"/>
<text text-anchor="start" x="467.5" y="-277.2" font-family="Arial" font-weight="bold" font-style="italic" font-size="11.00" fill="black"><a fill="navy" href="../reference/Customization/CustomAttribute.html" target="_parent">CustomAttribute</a></text>
</g>
<!-- 10&#45;&gt;44 -->
<g id="edge9" class="edge"><path fill="none" stroke="#000000" d="M519.949,-336.486C517.181,-333.933 514.67,-331.113 512.5,-328 508.402,-322.119 506.944,-314.772 506.815,-307.608"/>
<polygon fill="#000000" stroke="#000000" points="519.998,-336.523 527.196,-336.959 529.563,-343.77 522.365,-343.335 519.998,-336.523"/>
<polygon fill="#000000" stroke="#000000" points="507.425,-297.435 511.319,-307.687 507.126,-302.426 506.827,-307.417 506.827,-307.417 506.827,-307.417 507.126,-302.426 502.335,-307.148 507.425,-297.435 507.425,-297.435"/>
<text text-anchor="start" x="514.5" y="-317.5" font-family="Arial" font-size="10.00" fill="black"><a fill="navy" href="../reference/Customization/CustomAttributeOwner.html#dexpi-customization-customattributeowner-customattributes" target="_parent">CustomAttributes</a></text>
<text text-anchor="start" x="499.425" y="-300.435" font-family="Arial" font-size="10.00" fill="black">*</text>
<text text-anchor="start" x="500.563" y="-333.77" font-family="Arial" font-size="10.00" fill="black">0..1</text>
</g>
<!-- 17&#45;inner&#45;node -->
<!-- 10&#45;&gt;17&#45;inner&#45;node -->
<g id="edge22" class="edge"><path fill="none" stroke="black" d="M596.5,-333.649C596.5,-310.987 596.5,-282.163 596.5,-280.116L596.365,-277.886"/>
<polygon fill="none" stroke="black" points="593,-333.822 596.5,-343.822 600,-333.822 593,-333.822"/>
</g>
<!-- 20 -->
<g id="node9" class="node"><defs>
<linearGradient id="l_9" gradientUnits="userSpaceOnUse" x1="54.5" y1="-109" x2="54.5" y2="-145">
<stop offset="0" style="stop-color:#ffffbb;stop-opacity:1.;"/>
<stop offset="1" style="stop-color:#ffffee;stop-opacity:1.;"/>
</linearGradient>
</defs>
<polygon fill="url(#l_9)" stroke="black" points="81.5,-145 27.5,-145 27.5,-109 81.5,-109 81.5,-145"/>
<text text-anchor="start" x="43.5" y="-125.2" font-family="Arial" font-weight="bold" font-size="11.00" fill="black"><a fill="navy" href="../reference/PlantStructure/Site.html" target="_parent">Site</a></text>
</g>
<!-- 20&#45;&gt;0 -->
<g id="edge1" class="edge"><path fill="none" stroke="#000000" d="M76.5215,-108.774C91.0595,-98.2682 110.967,-85.4668 130.5,-78 175.986,-60.6122 228.229,-49.7824 274.755,-43.0432"/>
<polygon fill="#000000" stroke="#000000" points="284.9,-41.6248 275.619,-47.4663 279.948,-42.3172 274.996,-43.0096 274.996,-43.0096 274.996,-43.0096 279.948,-42.3172 274.373,-38.553 284.9,-41.6248 284.9,-41.6248"/>
<text text-anchor="start" x="133" y="-82.5" font-family="Arial" font-size="10.00" fill="black"><a fill="navy" href="../reference/PlantStructure/Site.html#dexpi-plantstructure-site-parentstructure" target="_parent">ParentStructure</a></text>
<text text-anchor="start" x="263.9" y="-44.6248" font-family="Arial" font-size="10.00" fill="black">0..1</text>
<text text-anchor="start" x="60.5215" y="-98.774" font-family="Arial" font-size="10.00" fill="black">*</text>
</g>
<!-- 23 -->
<g id="node10" class="node"><defs>
<linearGradient id="l_10" gradientUnits="userSpaceOnUse" x1="100.5" y1="-261" x2="100.5" y2="-297">
<stop offset="0" style="stop-color:#ffffbb;stop-opacity:1.;"/>
<stop offset="1" style="stop-color:#ffffee;stop-opacity:1.;"/>
</linearGradient>
</defs>
<polygon fill="url(#l_10)" stroke="black" points="159,-297 42,-297 42,-261 159,-261 159,-297"/>
<text text-anchor="start" x="52.5" y="-277.2" font-family="Arial" font-weight="bold" font-size="11.00" fill="black"><a fill="navy" href="../reference/PlantStructure/IndustrialComplex.html" target="_parent">IndustrialComplex</a></text>
</g>
<!-- 23&#45;&gt;4 -->
<g id="edge2" class="edge"><path fill="none" stroke="#000000" d="M100.5,-260.822C100.5,-250.19 100.5,-236.306 100.5,-224.204"/>
<polygon fill="#000000" stroke="#000000" points="100.5,-214.153 105,-224.153 100.5,-219.153 100.5,-224.153 100.5,-224.153 100.5,-224.153 100.5,-219.153 96.0001,-224.153 100.5,-214.153 100.5,-214.153"/>
<text text-anchor="start" x="103" y="-234.5" font-family="Arial" font-size="10.00" fill="black"><a fill="navy" href="../reference/PlantStructure/IndustrialComplex.html#dexpi-plantstructure-industrialcomplex-parentstructure" target="_parent">ParentStructure</a></text>
<text text-anchor="start" x="79.5" y="-217.153" font-family="Arial" font-size="10.00" fill="black">0..1</text>
<text text-anchor="start" x="84.5" y="-250.822" font-family="Arial" font-size="10.00" fill="black">*</text>
</g>
<!-- 26 -->
<g id="node11" class="node"><defs>
<linearGradient id="l_11" gradientUnits="userSpaceOnUse" x1="243.5" y1="-261" x2="243.5" y2="-297">
<stop offset="0" style="stop-color:#ffffbb;stop-opacity:1.;"/>
<stop offset="1" style="stop-color:#ffffee;stop-opacity:1.;"/>
</linearGradient>
</defs>
<polygon fill="url(#l_11)" stroke="black" points="287.5,-297 199.5,-297 199.5,-261 287.5,-261 287.5,-297"/>
<text text-anchor="start" x="209.5" y="-277.2" font-family="Arial" font-weight="bold" font-size="11.00" fill="black"><a fill="navy" href="../reference/PlantStructure/PlantSection.html" target="_parent">PlantSection</a></text>
</g>
<!-- 26&#45;&gt;5 -->
<g id="edge3" class="edge"><path fill="none" stroke="#000000" d="M250.263,-260.651C254.441,-251.097 260.367,-239.324 267.5,-230 269.778,-227.022 272.353,-224.102 275.056,-221.306"/>
<polygon fill="#000000" stroke="#000000" points="282.4,-214.243 278.313,-224.418 278.797,-217.709 275.193,-221.175 275.193,-221.175 275.193,-221.175 278.797,-217.709 272.074,-217.931 282.4,-214.243 282.4,-214.243"/>
<text text-anchor="start" x="270" y="-234.5" font-family="Arial" font-size="10.00" fill="black"><a fill="navy" href="../reference/PlantStructure/PlantSection.html#dexpi-plantstructure-plantsection-parentstructure" target="_parent">ParentStructure</a></text>
<text text-anchor="start" x="261.4" y="-217.243" font-family="Arial" font-size="10.00" fill="black">0..1</text>
<text text-anchor="start" x="234.263" y="-250.651" font-family="Arial" font-size="10.00" fill="black">*</text>
</g>
<!-- 29 -->
<g id="node12" class="node"><defs>
<linearGradient id="l_12" gradientUnits="userSpaceOnUse" x1="362.5" y1="-261" x2="362.5" y2="-297">
<stop offset="0" style="stop-color:#ffffbb;stop-opacity:1.;"/>
<stop offset="1" style="stop-color:#ffffee;stop-opacity:1.;"/>
</linearGradient>
</defs>
<polygon fill="url(#l_12)" stroke="black" points="419.5,-297 305.5,-297 305.5,-261 419.5,-261 419.5,-297"/>
<text text-anchor="start" x="315.5" y="-277.2" font-family="Arial" font-weight="bold" font-size="11.00" fill="black"><a fill="navy" href="../reference/DexpiModel/ConceptualModel.html" target="_parent">ConceptualModel</a></text>
</g>
<!-- 29&#45;&gt;6 -->
<g id="edge4" class="edge"><path fill="none" stroke="#000000" d="M354.554,-248.798C354.313,-242.102 355.508,-235.38 359.5,-230 362.386,-226.111 379.026,-220.366 398.471,-214.755"/>
<polygon fill="#000000" stroke="#000000" points="354.587,-249.025 359.418,-254.379 356.334,-260.897 351.503,-255.544 354.587,-249.025"/>
<polygon fill="#000000" stroke="#000000" points="408.194,-212.019 399.786,-219.059 403.381,-213.373 398.567,-214.727 398.567,-214.727 398.567,-214.727 403.381,-213.373 397.349,-210.396 408.194,-212.019 408.194,-212.019"/>
<text text-anchor="start" x="362" y="-234.5" font-family="Arial" font-size="10.00" fill="black"><a fill="navy" href="../reference/DexpiModel/ConceptualModel.html#dexpi-dexpimodel-conceptualmodel-plantstructureitems" target="_parent">PlantStructureItems</a></text>
<text text-anchor="start" x="400.194" y="-215.019" font-family="Arial" font-size="10.00" fill="black">*</text>
<text text-anchor="start" x="327.334" y="-250.897" font-family="Arial" font-size="10.00" fill="black">0..1</text>
</g>
<!-- 32 -->
<g id="node13" class="node"><defs>
<linearGradient id="l_13" gradientUnits="userSpaceOnUse" x1="660.5" y1="-261" x2="660.5" y2="-297">
<stop offset="0" style="stop-color:#ffffbb;stop-opacity:1.;"/>
<stop offset="1" style="stop-color:#ffffee;stop-opacity:1.;"/>
</linearGradient>
</defs>
<polygon fill="url(#l_13)" stroke="black" points="706,-297 615,-297 615,-261 706,-261 706,-297"/>
<text text-anchor="start" x="625.5" y="-277.2" font-family="Arial" font-weight="bold" font-size="11.00" fill="black"><a fill="navy" href="../reference/PlantStructure/ProcessPlant.html" target="_parent">ProcessPlant</a></text>
</g>
<!-- 32&#45;&gt;7 -->
<g id="edge5" class="edge"><path fill="none" stroke="#000000" d="M654.774,-260.822C651.194,-250.083 646.508,-236.025 642.446,-223.837"/>
<polygon fill="#000000" stroke="#000000" points="639.218,-214.153 646.649,-222.217 640.799,-218.897 642.38,-223.64 642.38,-223.64 642.38,-223.64 640.799,-218.897 638.111,-225.063 639.218,-214.153 639.218,-214.153"/>
<text text-anchor="start" x="652" y="-234.5" font-family="Arial" font-size="10.00" fill="black"><a fill="navy" href="../reference/PlantStructure/ProcessPlant.html#dexpi-plantstructure-processplant-parentstructure" target="_parent">ParentStructure</a></text>
<text text-anchor="start" x="618.218" y="-217.153" font-family="Arial" font-size="10.00" fill="black">0..1</text>
<text text-anchor="start" x="638.774" y="-250.822" font-family="Arial" font-size="10.00" fill="black">*</text>
</g>
<!-- 35 -->
<g id="node14" class="node"><defs>
<linearGradient id="l_14" gradientUnits="userSpaceOnUse" x1="827.5" y1="-261" x2="827.5" y2="-297">
<stop offset="0" style="stop-color:#ffffbb;stop-opacity:1.;"/>
<stop offset="1" style="stop-color:#ffffee;stop-opacity:1.;"/>
</linearGradient>
</defs>
<polygon fill="url(#l_14)" stroke="black" points="874,-297 781,-297 781,-261 874,-261 874,-297"/>
<text text-anchor="start" x="791.5" y="-277.2" font-family="Arial" font-weight="bold" font-style="italic" font-size="11.00" fill="black"><a fill="navy" href="../reference/PlantStructure/TechnicalItem.html" target="_parent">TechnicalItem</a></text>
</g>
<!-- 35&#45;&gt;8 -->
<g id="edge6" class="edge"><path fill="none" stroke="#000000" d="M827.5,-260.822C827.5,-250.19 827.5,-236.306 827.5,-224.204"/>
<polygon fill="#000000" stroke="#000000" points="827.5,-214.153 832,-224.153 827.5,-219.153 827.5,-224.153 827.5,-224.153 827.5,-224.153 827.5,-219.153 823,-224.153 827.5,-214.153 827.5,-214.153"/>
<text text-anchor="start" x="830" y="-234.5" font-family="Arial" font-size="10.00" fill="black"><a fill="navy" href="../reference/PlantStructure/TechnicalItem.html#dexpi-plantstructure-technicalitem-parentstructure" target="_parent">ParentStructure</a></text>
<text text-anchor="start" x="806.5" y="-217.153" font-family="Arial" font-size="10.00" fill="black">0..1</text>
<text text-anchor="start" x="811.5" y="-250.822" font-family="Arial" font-size="10.00" fill="black">*</text>
</g>
<!-- 38 -->
<g id="node15" class="node"><defs>
<linearGradient id="l_15" gradientUnits="userSpaceOnUse" x1="358.5" y1="-427" x2="358.5" y2="-463">
<stop offset="0" style="stop-color:#ffffbb;stop-opacity:1.;"/>
<stop offset="1" style="stop-color:#ffffee;stop-opacity:1.;"/>
</linearGradient>
</defs>
<polygon fill="url(#l_15)" stroke="black" points="433,-463 284,-463 284,-427 433,-427 433,-463"/>
<text text-anchor="start" x="294.5" y="-443.2" font-family="Arial" font-weight="bold" font-size="11.00" fill="black"><a fill="navy" href="../reference/Graphics/AttributeRepresentation.html" target="_parent">AttributeRepresentation</a></text>
</g>
<!-- 38&#45;&gt;9 -->
<g id="edge7" class="edge"><path fill="none" stroke="#000000" d="M375.466,-426.822C386.815,-415.331 401.916,-400.041 414.493,-387.307"/>
<polygon fill="#000000" stroke="#000000" points="421.559,-380.153 417.733,-390.43 418.045,-383.711 414.531,-387.268 414.531,-387.268 414.531,-387.268 418.045,-383.711 411.33,-384.106 421.559,-380.153 421.559,-380.153"/>
<text text-anchor="start" x="409" y="-400.5" font-family="Arial" font-size="10.00" fill="black"><a fill="navy" href="../reference/Graphics/AttributeRepresentation.html#dexpi-graphics-attributerepresentation-object" target="_parent">Object</a></text>
<text text-anchor="start" x="413.559" y="-383.153" font-family="Arial" font-size="10.00" fill="black"></text>
<text text-anchor="start" x="359.466" y="-416.822" font-family="Arial" font-size="10.00" fill="black">*</text>
</g>
<!-- 41 -->
<g id="node16" class="node"><defs>
<linearGradient id="l_16" gradientUnits="userSpaceOnUse" x1="519.5" y1="-427" x2="519.5" y2="-463">
<stop offset="0" style="stop-color:#ffffbb;stop-opacity:1.;"/>
<stop offset="1" style="stop-color:#ffffee;stop-opacity:1.;"/>
</linearGradient>
</defs>
<polygon fill="url(#l_16)" stroke="black" points="588,-463 451,-463 451,-427 588,-427 588,-463"/>
<text text-anchor="start" x="461.5" y="-443.2" font-family="Arial" font-weight="bold" font-size="11.00" fill="black"><a fill="navy" href="../reference/Graphics/RepresentationGroup.html" target="_parent">RepresentationGroup</a></text>
</g>
<!-- 41&#45;&gt;9 -->
<g id="edge8" class="edge"><path fill="none" stroke="#000000" d="M502.322,-426.822C490.831,-415.331 475.541,-400.041 462.807,-387.307"/>
<polygon fill="#000000" stroke="#000000" points="455.653,-380.153 465.906,-384.042 459.189,-383.689 462.724,-387.224 462.724,-387.224 462.724,-387.224 459.189,-383.689 459.542,-390.406 455.653,-380.153 455.653,-380.153"/>
<text text-anchor="start" x="488.5" y="-400.5" font-family="Arial" font-size="10.00" fill="black"><a fill="navy" href="../reference/Graphics/RepresentationGroup.html#dexpi-graphics-representationgroup-represents" target="_parent">Represents</a></text>
<text text-anchor="start" x="447.653" y="-383.153" font-family="Arial" font-size="10.00" fill="black"></text>
<text text-anchor="start" x="486.322" y="-416.822" font-family="Arial" font-size="10.00" fill="black">*</text>
</g>
<!-- 11&#45;inner&#45;node&#45;&gt;0 -->
<g id="edge11" class="edge"><path fill="none" stroke="black" d="M100.555,-125.983C103.441,-125.088 218.883,-89.274 306.398,-62.124"/>
</g>
<!-- 12&#45;inner&#45;node&#45;&gt;0 -->
<g id="edge13" class="edge"><path fill="none" stroke="black" d="M304.572,-125.932C306.416,-124.181 343.437,-89.0298 371.652,-62.2394"/>
</g>
<!-- 13&#45;inner&#45;node&#45;&gt;0 -->
<g id="edge15" class="edge"><path fill="none" stroke="black" d="M468.453,-125.932C467.242,-124.181 442.935,-89.0298 424.41,-62.2394"/>
</g>
<!-- 14&#45;inner&#45;node&#45;&gt;0 -->
<g id="edge17" class="edge"><path fill="none" stroke="black" d="M633.333,-125.932C629.042,-124.178 542.768,-88.9181 477.178,-62.1118"/>
</g>
<!-- 15&#45;inner&#45;node&#45;&gt;0 -->
<g id="edge19" class="edge"><path fill="none" stroke="black" d="M827.423,-125.983C823.194,-125.045 646.202,-85.8066 522.277,-58.3327"/>
</g>
<!-- 16&#45;inner&#45;node&#45;&gt;6 -->
<g id="edge21" class="edge"><path fill="none" stroke="black" d="M438.529,-277.949C439.13,-276.891 448.825,-259.735 454.5,-245 458.369,-234.955 461.774,-223.38 464.258,-214.113"/>
</g>
<!-- 17&#45;inner&#45;node&#45;&gt;6 -->
<g id="edge23" class="edge"><path fill="none" stroke="black" d="M596.365,-277.886C595.031,-276.76 584.058,-267.546 574.5,-261 549.67,-243.993 520.296,-226.447 498.774,-214.038"/>
</g>
</g>
</svg>