<!DOCTYPE svg PUBLIC "-//W3C//DTD SVG 1.1//EN" "http://www.w3.org/Graphics/SVG/1.1/DTD/svg11.dtd">
<!-- Generated by graphviz version 2.38.0 (20140413.2041)
 --><!-- Title: G Pages: 1 --><svg xmlns="http://www.w3.org/2000/svg" xmlns:xlink="http://www.w3.org/1999/xlink" width="867pt" height="614pt" viewBox="0.00 0.00 866.50 614.00">
<g id="graph0" class="graph" transform="scale(1 1) rotate(0) translate(4 610)">
<!-- 0 -->
<g id="node1" class="node"><defs>
<linearGradient id="l_0" gradientUnits="userSpaceOnUse" x1="457.5" y1="-1.77636e-014" x2="457.5" y2="-36">
<stop offset="0" style="stop-color:#ffffbb;stop-opacity:1.;"/>
<stop offset="1" style="stop-color:#ffffee;stop-opacity:1.;"/>
</linearGradient>
</defs>
<polygon fill="url(#l_0)" stroke="black" points="484.5,-36 430.5,-36 430.5,-0 484.5,-0 484.5,-36"/>
<text text-anchor="start" x="443.5" y="-16.2" font-family="Arial" font-weight="bold" font-size="11.00" fill="black">Filter</text>
</g>
<!-- 2 -->
<g id="node2" class="node"><defs>
<linearGradient id="l_1" gradientUnits="userSpaceOnUse" x1="766.5" y1="-553" x2="766.5" y2="-606">
<stop offset="0" style="stop-color:#fbfbfb;stop-opacity:1.;"/>
<stop offset="1" style="stop-color:#fefefe;stop-opacity:1.;"/>
</linearGradient>
</defs>
<polygon fill="url(#l_1)" stroke="black" points="858.5,-595.0 847.5,-606.0 674.5,-606.0 674.5,-553.0 858.5,-553.0"/><path d="M858.5,-595.0L847.5,-595.0 847.5,-606.0" fill="none" stroke="black"/>
<text text-anchor="start" x="684.5" y="-591.5" font-family="Arial" font-size="10.00" fill="black">For&#160;the&#160;sake&#160;of&#160;clarity,&#160;superclasses&#160;</text>
<text text-anchor="start" x="684.5" y="-576.5" font-family="Arial" font-size="10.00" fill="black">and&#160;associations&#160;of&#160;<a fill="navy" href="../reference/PlantStructure/TechnicalItem.html" target="_parent">TechnicalItem</a>&#160;are</text>
<text text-anchor="start" x="684.5" y="-561.5" font-family="Arial" font-size="10.00" fill="black">not&#160;shown&#160;in&#160;this&#160;diagram.</text>
</g>
<!-- 1 -->
<g id="node3" class="node"><defs>
<linearGradient id="l_2" gradientUnits="userSpaceOnUse" x1="766.5" y1="-470" x2="766.5" y2="-506">
<stop offset="0" style="stop-color:#ffffbb;stop-opacity:1.;"/>
<stop offset="1" style="stop-color:#ffffee;stop-opacity:1.;"/>
</linearGradient>
</defs>
<polygon fill="url(#l_2)" stroke="black" points="813,-506 720,-506 720,-470 813,-470 813,-506"/>
<text text-anchor="start" x="730.5" y="-486.2" font-family="Arial" font-weight="bold" font-style="italic" font-size="11.00" fill="black"><a fill="navy" href="../reference/PlantStructure/TechnicalItem.html" target="_parent">TechnicalItem</a></text>
</g>
<!-- 2&#45;&gt;1 -->
<g id="edge1" class="edge"><path fill="none" stroke="#000000" stroke-dasharray="5,2" d="M766.5,-552.613C766.5,-537.641 766.5,-519.222 766.5,-506.063"/>
</g>
<!-- 16&#45;inner&#45;node -->
<!-- 1&#45;&gt;16&#45;inner&#45;node -->
<g id="edge24" class="edge"><path fill="none" stroke="black" d="M766.5,-459.649C766.5,-436.987 766.5,-408.163 766.5,-406.116L766.362,-403.941"/>
<polygon fill="none" stroke="black" points="763,-459.822 766.5,-469.822 770,-459.822 763,-459.822"/>
</g>
<!-- 4 -->
<g id="node4" class="node"><defs>
<linearGradient id="l_3" gradientUnits="userSpaceOnUse" x1="457.5" y1="-152" x2="457.5" y2="-188">
<stop offset="0" style="stop-color:#ffffbb;stop-opacity:1.;"/>
<stop offset="1" style="stop-color:#ffffee;stop-opacity:1.;"/>
</linearGradient>
</defs>
<polygon fill="url(#l_3)" stroke="black" points="496.5,-188 418.5,-188 418.5,-152 496.5,-152 496.5,-188"/>
<text text-anchor="start" x="428.5" y="-168.2" font-family="Arial" font-weight="bold" font-style="italic" font-size="11.00" fill="black"><a fill="navy" href="../reference/Equipment/Equipment.html" target="_parent">Equipment</a></text>
</g>
<!-- 19 -->
<g id="node10" class="node"><defs>
<linearGradient id="l_4" gradientUnits="userSpaceOnUse" x1="51.5" y1="-69" x2="51.5" y2="-105">
<stop offset="0" style="stop-color:#ffffbb;stop-opacity:1.;"/>
<stop offset="1" style="stop-color:#ffffee;stop-opacity:1.;"/>
</linearGradient>
</defs>
<polygon fill="url(#l_4)" stroke="black" points="103,-105 0,-105 0,-69 103,-69 103,-105"/>
<text text-anchor="start" x="10.5" y="-85.2" font-family="Arial" font-weight="bold" font-size="11.00" fill="black"><a fill="navy" href="../reference/Equipment/DryingChamber.html" target="_parent">DryingChamber</a></text>
</g>
<!-- 4&#45;&gt;19 -->
<g id="edge2" class="edge"><path fill="none" stroke="#000000" d="M406.027,-169.446C342.858,-168.672 233.105,-163.013 143.5,-136 123.707,-130.033 103.174,-119.771 86.54,-110.264"/>
<polygon fill="#000000" stroke="#000000" points="406.398,-169.449 412.429,-165.495 418.398,-169.542 412.367,-173.495 406.398,-169.449"/>
<polygon fill="#000000" stroke="#000000" points="77.7299,-105.091 88.6319,-106.274 82.0418,-107.623 86.3536,-110.154 86.3536,-110.154 86.3536,-110.154 82.0418,-107.623 84.0753,-114.035 77.7299,-105.091 77.7299,-105.091"/>
<text text-anchor="start" x="146" y="-125.5" font-family="Arial" font-size="10.00" fill="black"><a fill="navy" href="../reference/Equipment/Equipment.html#dexpi-equipment-equipment-dryingchambers" target="_parent">DryingChambers</a></text>
<text text-anchor="start" x="69.7299" y="-108.091" font-family="Arial" font-size="10.00" fill="black">*</text>
<text text-anchor="start" x="389.398" y="-170.542" font-family="Arial" font-size="10.00" fill="black">0..1</text>
</g>
<!-- 22 -->
<g id="node11" class="node"><defs>
<linearGradient id="l_5" gradientUnits="userSpaceOnUse" x1="155.5" y1="-69" x2="155.5" y2="-105">
<stop offset="0" style="stop-color:#ffffbb;stop-opacity:1.;"/>
<stop offset="1" style="stop-color:#ffffee;stop-opacity:1.;"/>
</linearGradient>
</defs>
<polygon fill="url(#l_5)" stroke="black" points="189.5,-105 121.5,-105 121.5,-69 189.5,-69 189.5,-105"/>
<text text-anchor="start" x="131.5" y="-85.2" font-family="Arial" font-weight="bold" font-size="11.00" fill="black"><a fill="navy" href="../reference/Equipment/GearBox.html" target="_parent">GearBox</a></text>
</g>
<!-- 4&#45;&gt;22 -->
<g id="edge3" class="edge"><path fill="none" stroke="#000000" d="M406.201,-163.816C366.621,-158.972 310.82,-150.294 263.5,-136 241.05,-129.218 217.118,-118.924 197.503,-109.606"/>
<polygon fill="#000000" stroke="#000000" points="406.275,-163.824 412.702,-160.553 418.193,-165.227 411.767,-168.498 406.275,-163.824"/>
<polygon fill="#000000" stroke="#000000" points="188.246,-105.129 199.207,-105.432 192.747,-107.306 197.248,-109.483 197.248,-109.483 197.248,-109.483 192.747,-107.306 195.289,-113.534 188.246,-105.129 188.246,-105.129"/>
<text text-anchor="start" x="266" y="-125.5" font-family="Arial" font-size="10.00" fill="black"><a fill="navy" href="../reference/Equipment/Equipment.html#dexpi-equipment-equipment-gearboxes" target="_parent">GearBoxes</a></text>
<text text-anchor="start" x="180.246" y="-108.129" font-family="Arial" font-size="10.00" fill="black">*</text>
<text text-anchor="start" x="389.193" y="-155.227" font-family="Arial" font-size="10.00" fill="black">0..1</text>
</g>
<!-- 25 -->
<g id="node12" class="node"><defs>
<linearGradient id="l_6" gradientUnits="userSpaceOnUse" x1="270.5" y1="-69" x2="270.5" y2="-105">
<stop offset="0" style="stop-color:#ffffbb;stop-opacity:1.;"/>
<stop offset="1" style="stop-color:#ffffee;stop-opacity:1.;"/>
</linearGradient>
</defs>
<polygon fill="url(#l_6)" stroke="black" points="333.5,-105 207.5,-105 207.5,-69 333.5,-69 333.5,-105"/>
<text text-anchor="start" x="217.5" y="-85.2" font-family="Arial" font-weight="bold" font-size="11.00" fill="black"><a fill="navy" href="../reference/Equipment/MotorAsComponent.html" target="_parent">MotorAsComponent</a></text>
</g>
<!-- 4&#45;&gt;25 -->
<g id="edge4" class="edge"><path fill="none" stroke="#000000" d="M406.67,-157.044C387.398,-151.7 365.526,-144.637 346.5,-136 331.23,-129.068 315.388,-119.498 302.145,-110.726"/>
<polygon fill="#000000" stroke="#000000" points="406.692,-157.049 413.521,-154.734 418.285,-160.147 411.456,-162.463 406.692,-157.049"/>
<polygon fill="#000000" stroke="#000000" points="293.85,-105.112 304.654,-106.99 297.991,-107.914 302.132,-110.717 302.132,-110.717 302.132,-110.717 297.991,-107.914 299.61,-114.443 293.85,-105.112 293.85,-105.112"/>
<text text-anchor="start" x="349" y="-125.5" font-family="Arial" font-size="10.00" fill="black"><a fill="navy" href="../reference/Equipment/Equipment.html#dexpi-equipment-equipment-motors" target="_parent">Motors</a></text>
<text text-anchor="start" x="285.85" y="-108.112" font-family="Arial" font-size="10.00" fill="black">*</text>
<text text-anchor="start" x="389.285" y="-150.147" font-family="Arial" font-size="10.00" fill="black">0..1</text>
</g>
<!-- 28 -->
<g id="node13" class="node"><defs>
<linearGradient id="l_7" gradientUnits="userSpaceOnUse" x1="395.5" y1="-69" x2="395.5" y2="-105">
<stop offset="0" style="stop-color:#ffffbb;stop-opacity:1.;"/>
<stop offset="1" style="stop-color:#ffffee;stop-opacity:1.;"/>
</linearGradient>
</defs>
<polygon fill="url(#l_7)" stroke="black" points="439,-105 352,-105 352,-69 439,-69 439,-105"/>
<text text-anchor="start" x="362.5" y="-85.2" font-family="Arial" font-weight="bold" font-size="11.00" fill="black"><a fill="navy" href="../reference/Equipment/SprayNozzle.html" target="_parent">SprayNozzle</a></text>
</g>
<!-- 4&#45;&gt;28 -->
<g id="edge5" class="edge"><path fill="none" stroke="#000000" d="M407.357,-153.548C399.867,-149.067 393.12,-143.33 388.5,-136 384.594,-129.802 384.151,-122.272 385.269,-115.033"/>
<polygon fill="#000000" stroke="#000000" points="407.588,-153.664 414.747,-152.802 418.297,-159.08 411.137,-159.942 407.588,-153.664"/>
<polygon fill="#000000" stroke="#000000" points="387.69,-105.16 389.678,-115.944 386.499,-110.016 385.308,-114.873 385.308,-114.873 385.308,-114.873 386.499,-110.016 380.937,-113.801 387.69,-105.16 387.69,-105.16"/>
<text text-anchor="start" x="391" y="-125.5" font-family="Arial" font-size="10.00" fill="black"><a fill="navy" href="../reference/Equipment/Equipment.html#dexpi-equipment-equipment-spraynozzles" target="_parent">SprayNozzles</a></text>
<text text-anchor="start" x="379.69" y="-108.16" font-family="Arial" font-size="10.00" fill="black">*</text>
<text text-anchor="start" x="406.297" y="-149.08" font-family="Arial" font-size="10.00" fill="black">0..1</text>
</g>
<!-- 10&#45;inner&#45;node -->
<!-- 4&#45;&gt;10&#45;inner&#45;node -->
<g id="edge12" class="edge"><path fill="none" stroke="black" d="M457.5,-141.649C457.5,-118.987 457.5,-90.1627 457.5,-88.1156L457.5,-85.9514"/>
<polygon fill="none" stroke="black" points="454,-141.822 457.5,-151.822 461,-141.822 454,-141.822"/>
</g>
<!-- 5 -->
<g id="node5" class="node"><defs>
<linearGradient id="l_8" gradientUnits="userSpaceOnUse" x1="341.5" y1="-304" x2="341.5" y2="-340">
<stop offset="0" style="stop-color:#ffffbb;stop-opacity:1.;"/>
<stop offset="1" style="stop-color:#ffffee;stop-opacity:1.;"/>
</linearGradient>
</defs>
<polygon fill="url(#l_8)" stroke="black" points="394,-340 289,-340 289,-304 394,-304 394,-340"/>
<text text-anchor="start" x="299.5" y="-320.2" font-family="Arial" font-weight="bold" font-style="italic" font-size="11.00" fill="black"><a fill="navy" href="../reference/Equipment/ChamberOwner.html" target="_parent">ChamberOwner</a></text>
</g>
<!-- 31 -->
<g id="node14" class="node"><defs>
<linearGradient id="l_9" gradientUnits="userSpaceOnUse" x1="277.5" y1="-221" x2="277.5" y2="-257">
<stop offset="0" style="stop-color:#ffffbb;stop-opacity:1.;"/>
<stop offset="1" style="stop-color:#ffffee;stop-opacity:1.;"/>
</linearGradient>
</defs>
<polygon fill="url(#l_9)" stroke="black" points="312,-257 243,-257 243,-221 312,-221 312,-257"/>
<text text-anchor="start" x="253.5" y="-237.2" font-family="Arial" font-weight="bold" font-size="11.00" fill="black"><a fill="navy" href="../reference/Equipment/Chamber.html" target="_parent">Chamber</a></text>
</g>
<!-- 5&#45;&gt;31 -->
<g id="edge6" class="edge"><path fill="none" stroke="#000000" d="M295.598,-296.09C292.972,-293.591 290.565,-290.896 288.5,-288 284.181,-281.945 281.527,-274.461 279.905,-267.22"/>
<polygon fill="#000000" stroke="#000000" points="295.859,-296.3 303.041,-296.955 305.199,-303.835 298.017,-303.181 295.859,-296.3"/>
<polygon fill="#000000" stroke="#000000" points="278.234,-257.318 284.336,-266.43 279.066,-262.248 279.898,-267.179 279.898,-267.179 279.898,-267.179 279.066,-262.248 275.461,-267.928 278.234,-257.318 278.234,-257.318"/>
<text text-anchor="start" x="291" y="-277.5" font-family="Arial" font-size="10.00" fill="black"><a fill="navy" href="../reference/Equipment/ChamberOwner.html#dexpi-equipment-chamberowner-chambers" target="_parent">Chambers</a></text>
<text text-anchor="start" x="270.234" y="-260.318" font-family="Arial" font-size="10.00" fill="black">*</text>
<text text-anchor="start" x="276.199" y="-293.835" font-family="Arial" font-size="10.00" fill="black">0..1</text>
</g>
<!-- 11&#45;inner&#45;node -->
<!-- 5&#45;&gt;11&#45;inner&#45;node -->
<g id="edge14" class="edge"><path fill="none" stroke="black" d="M341.5,-293.649C341.5,-270.987 341.5,-242.163 341.5,-240.116L341.64,-237.884"/>
<polygon fill="none" stroke="black" points="338,-293.822 341.5,-303.822 345,-293.822 338,-293.822"/>
</g>
<!-- 6 -->
<g id="node6" class="node"><defs>
<linearGradient id="l_10" gradientUnits="userSpaceOnUse" x1="457.5" y1="-304" x2="457.5" y2="-340">
<stop offset="0" style="stop-color:#ffffbb;stop-opacity:1.;"/>
<stop offset="1" style="stop-color:#ffffee;stop-opacity:1.;"/>
</linearGradient>
</defs>
<polygon fill="url(#l_10)" stroke="black" points="502.5,-340 412.5,-340 412.5,-304 502.5,-304 502.5,-340"/>
<text text-anchor="start" x="422.5" y="-320.2" font-family="Arial" font-weight="bold" font-style="italic" font-size="11.00" fill="black"><a fill="navy" href="../reference/Equipment/NozzleOwner.html" target="_parent">NozzleOwner</a></text>
</g>
<!-- 34 -->
<g id="node15" class="node"><defs>
<linearGradient id="l_11" gradientUnits="userSpaceOnUse" x1="402.5" y1="-221" x2="402.5" y2="-257">
<stop offset="0" style="stop-color:#ffffbb;stop-opacity:1.;"/>
<stop offset="1" style="stop-color:#ffffee;stop-opacity:1.;"/>
</linearGradient>
</defs>
<polygon fill="url(#l_11)" stroke="black" points="431,-257 374,-257 374,-221 431,-221 431,-257"/>
<text text-anchor="start" x="384.5" y="-237.2" font-family="Arial" font-weight="bold" font-size="11.00" fill="black"><a fill="navy" href="../reference/Equipment/Nozzle.html" target="_parent">Nozzle</a></text>
</g>
<!-- 6&#45;&gt;34 -->
<g id="edge7" class="edge"><path fill="none" stroke="#000000" d="M419.289,-295.384C417.147,-293.056 415.185,-290.592 413.5,-288 409.447,-281.763 406.878,-274.222 405.253,-266.983"/>
<polygon fill="#000000" stroke="#000000" points="419.431,-295.515 426.552,-296.651 428.242,-303.662 421.121,-302.525 419.431,-295.515"/>
<polygon fill="#000000" stroke="#000000" points="403.528,-257.118 409.683,-266.193 404.389,-262.043 405.251,-266.969 405.251,-266.969 405.251,-266.969 404.389,-262.043 400.818,-267.744 403.528,-257.118 403.528,-257.118"/>
<text text-anchor="start" x="415.5" y="-277.5" font-family="Arial" font-size="10.00" fill="black"><a fill="navy" href="../reference/Equipment/NozzleOwner.html#dexpi-equipment-nozzleowner-nozzles" target="_parent">Nozzles</a></text>
<text text-anchor="start" x="395.528" y="-260.118" font-family="Arial" font-size="10.00" fill="black">*</text>
<text text-anchor="start" x="399.242" y="-293.662" font-family="Arial" font-size="10.00" fill="black">0..1</text>
</g>
<!-- 12&#45;inner&#45;node -->
<!-- 6&#45;&gt;12&#45;inner&#45;node -->
<g id="edge16" class="edge"><path fill="none" stroke="black" d="M457.5,-293.649C457.5,-270.987 457.5,-242.163 457.5,-240.116L457.5,-237.951"/>
<polygon fill="none" stroke="black" points="454,-293.822 457.5,-303.822 461,-293.822 454,-293.822"/>
</g>
<!-- 7 -->
<g id="node7" class="node"><defs>
<linearGradient id="l_12" gradientUnits="userSpaceOnUse" x1="575.5" y1="-304" x2="575.5" y2="-340">
<stop offset="0" style="stop-color:#ffffbb;stop-opacity:1.;"/>
<stop offset="1" style="stop-color:#ffffee;stop-opacity:1.;"/>
</linearGradient>
</defs>
<polygon fill="url(#l_12)" stroke="black" points="630,-340 521,-340 521,-304 630,-304 630,-340"/>
<text text-anchor="start" x="531.5" y="-320.2" font-family="Arial" font-weight="bold" font-style="italic" font-size="11.00" fill="black"><a fill="navy" href="../reference/Equipment/TaggedPlantItem.html" target="_parent">TaggedPlantItem</a></text>
</g>
<!-- 13&#45;inner&#45;node -->
<!-- 7&#45;&gt;13&#45;inner&#45;node -->
<g id="edge18" class="edge"><path fill="none" stroke="black" d="M575.5,-293.649C575.5,-270.987 575.5,-242.163 575.5,-240.116L575.414,-237.951"/>
<polygon fill="none" stroke="black" points="572,-293.822 575.5,-303.822 579,-293.822 572,-293.822"/>
</g>
<!-- 8 -->
<g id="node8" class="node"><defs>
<linearGradient id="l_13" gradientUnits="userSpaceOnUse" x1="471.5" y1="-470" x2="471.5" y2="-506">
<stop offset="0" style="stop-color:#ffffbb;stop-opacity:1.;"/>
<stop offset="1" style="stop-color:#ffffee;stop-opacity:1.;"/>
</linearGradient>
</defs>
<polygon fill="url(#l_13)" stroke="black" points="529,-506 414,-506 414,-470 529,-470 529,-506"/>
<text text-anchor="start" x="424.5" y="-486.2" font-family="Arial" font-weight="bold" font-style="italic" font-size="11.00" fill="black"><a fill="navy" href="../reference/DexpiModel/ConceptualObject.html" target="_parent">ConceptualObject</a></text>
</g>
<!-- 14&#45;inner&#45;node -->
<!-- 8&#45;&gt;14&#45;inner&#45;node -->
<g id="edge20" class="edge"><path fill="none" stroke="black" d="M471.5,-459.649C471.5,-436.987 471.5,-408.163 471.5,-406.116L471.538,-403.879"/>
<polygon fill="none" stroke="black" points="468,-459.822 471.5,-469.822 475,-459.822 468,-459.822"/>
</g>
<!-- 9 -->
<g id="node9" class="node"><defs>
<linearGradient id="l_14" gradientUnits="userSpaceOnUse" x1="629.5" y1="-470" x2="629.5" y2="-506">
<stop offset="0" style="stop-color:#ffffbb;stop-opacity:1.;"/>
<stop offset="1" style="stop-color:#ffffee;stop-opacity:1.;"/>
</linearGradient>
</defs>
<polygon fill="url(#l_14)" stroke="black" points="701.5,-506 557.5,-506 557.5,-470 701.5,-470 701.5,-506"/>
<text text-anchor="start" x="567.5" y="-486.2" font-family="Arial" font-weight="bold" font-style="italic" font-size="11.00" fill="black"><a fill="navy" href="../reference/Customization/CustomAttributeOwner.html" target="_parent">CustomAttributeOwner</a></text>
</g>
<!-- 46 -->
<g id="node19" class="node"><defs>
<linearGradient id="l_15" gradientUnits="userSpaceOnUse" x1="544.5" y1="-387" x2="544.5" y2="-423">
<stop offset="0" style="stop-color:#ffffbb;stop-opacity:1.;"/>
<stop offset="1" style="stop-color:#ffffee;stop-opacity:1.;"/>
</linearGradient>
</defs>
<polygon fill="url(#l_15)" stroke="black" points="599,-423 490,-423 490,-387 599,-387 599,-423"/>
<text text-anchor="start" x="500.5" y="-403.2" font-family="Arial" font-weight="bold" font-style="italic" font-size="11.00" fill="black"><a fill="navy" href="../reference/Customization/CustomAttribute.html" target="_parent">CustomAttribute</a></text>
</g>
<!-- 9&#45;&gt;46 -->
<g id="edge11" class="edge"><path fill="none" stroke="#000000" d="M552.949,-462.486C550.181,-459.933 547.67,-457.113 545.5,-454 541.402,-448.119 539.944,-440.772 539.815,-433.608"/>
<polygon fill="#000000" stroke="#000000" points="552.998,-462.523 560.196,-462.959 562.563,-469.77 555.365,-469.335 552.998,-462.523"/>
<polygon fill="#000000" stroke="#000000" points="540.425,-423.435 544.319,-433.687 540.126,-428.426 539.827,-433.417 539.827,-433.417 539.827,-433.417 540.126,-428.426 535.335,-433.148 540.425,-423.435 540.425,-423.435"/>
<text text-anchor="start" x="547.5" y="-443.5" font-family="Arial" font-size="10.00" fill="black"><a fill="navy" href="../reference/Customization/CustomAttributeOwner.html#dexpi-customization-customattributeowner-customattributes" target="_parent">CustomAttributes</a></text>
<text text-anchor="start" x="532.425" y="-426.435" font-family="Arial" font-size="10.00" fill="black">*</text>
<text text-anchor="start" x="533.563" y="-459.77" font-family="Arial" font-size="10.00" fill="black">0..1</text>
</g>
<!-- 15&#45;inner&#45;node -->
<!-- 9&#45;&gt;15&#45;inner&#45;node -->
<g id="edge22" class="edge"><path fill="none" stroke="black" d="M629.5,-459.649C629.5,-436.987 629.5,-408.163 629.5,-406.116L629.461,-403.941"/>
<polygon fill="none" stroke="black" points="626,-459.822 629.5,-469.822 633,-459.822 626,-459.822"/>
</g>
<!-- 37 -->
<g id="node16" class="node"><defs>
<linearGradient id="l_16" gradientUnits="userSpaceOnUse" x1="395.5" y1="-387" x2="395.5" y2="-423">
<stop offset="0" style="stop-color:#ffffbb;stop-opacity:1.;"/>
<stop offset="1" style="stop-color:#ffffee;stop-opacity:1.;"/>
</linearGradient>
</defs>
<polygon fill="url(#l_16)" stroke="black" points="452.5,-423 338.5,-423 338.5,-387 452.5,-387 452.5,-423"/>
<text text-anchor="start" x="348.5" y="-403.2" font-family="Arial" font-weight="bold" font-size="11.00" fill="black"><a fill="navy" href="../reference/DexpiModel/ConceptualModel.html" target="_parent">ConceptualModel</a></text>
</g>
<!-- 37&#45;&gt;7 -->
<g id="edge8" class="edge"><path fill="none" stroke="#000000" d="M400.324,-375.016C402.842,-367.86 406.673,-360.862 412.5,-356 444.518,-329.287 465.123,-346.682 510.934,-339.726"/>
<polygon fill="#000000" stroke="#000000" points="400.262,-375.253 402.602,-382.074 397.205,-386.857 394.865,-380.036 400.262,-375.253"/>
<polygon fill="#000000" stroke="#000000" points="520.773,-337.92 511.751,-344.152 515.856,-338.823 510.938,-339.726 510.938,-339.726 510.938,-339.726 515.856,-338.823 510.125,-335.3 520.773,-337.92 520.773,-337.92"/>
<text text-anchor="start" x="415" y="-360.5" font-family="Arial" font-size="10.00" fill="black"><a fill="navy" href="../reference/DexpiModel/ConceptualModel.html#dexpi-dexpimodel-conceptualmodel-taggedplantitems" target="_parent">TaggedPlantItems</a></text>
<text text-anchor="start" x="512.773" y="-340.92" font-family="Arial" font-size="10.00" fill="black">*</text>
<text text-anchor="start" x="368.205" y="-376.857" font-family="Arial" font-size="10.00" fill="black">0..1</text>
</g>
<!-- 40 -->
<g id="node17" class="node"><defs>
<linearGradient id="l_17" gradientUnits="userSpaceOnUse" x1="368.5" y1="-561.5" x2="368.5" y2="-597.5">
<stop offset="0" style="stop-color:#ffffbb;stop-opacity:1.;"/>
<stop offset="1" style="stop-color:#ffffee;stop-opacity:1.;"/>
</linearGradient>
</defs>
<polygon fill="url(#l_17)" stroke="black" points="443,-597.5 294,-597.5 294,-561.5 443,-561.5 443,-597.5"/>
<text text-anchor="start" x="304.5" y="-577.7" font-family="Arial" font-weight="bold" font-size="11.00" fill="black"><a fill="navy" href="../reference/Graphics/AttributeRepresentation.html" target="_parent">AttributeRepresentation</a></text>
</g>
<!-- 40&#45;&gt;8 -->
<g id="edge9" class="edge"><path fill="none" stroke="#000000" d="M388.359,-561.243C404.176,-547.5 426.493,-528.108 444.024,-512.875"/>
<polygon fill="#000000" stroke="#000000" points="451.702,-506.204 447.105,-516.159 447.927,-509.483 444.153,-512.763 444.153,-512.763 444.153,-512.763 447.927,-509.483 441.201,-509.366 451.702,-506.204 451.702,-506.204"/>
<text text-anchor="start" x="435" y="-526.5" font-family="Arial" font-size="10.00" fill="black"><a fill="navy" href="../reference/Graphics/AttributeRepresentation.html#dexpi-graphics-attributerepresentation-object" target="_parent">Object</a></text>
<text text-anchor="start" x="443.702" y="-509.204" font-family="Arial" font-size="10.00" fill="black"></text>
<text text-anchor="start" x="372.359" y="-551.243" font-family="Arial" font-size="10.00" fill="black">*</text>
</g>
<!-- 43 -->
<g id="node18" class="node"><defs>
<linearGradient id="l_18" gradientUnits="userSpaceOnUse" x1="529.5" y1="-561.5" x2="529.5" y2="-597.5">
<stop offset="0" style="stop-color:#ffffbb;stop-opacity:1.;"/>
<stop offset="1" style="stop-color:#ffffee;stop-opacity:1.;"/>
</linearGradient>
</defs>
<polygon fill="url(#l_18)" stroke="black" points="598,-597.5 461,-597.5 461,-561.5 598,-561.5 598,-597.5"/>
<text text-anchor="start" x="471.5" y="-577.7" font-family="Arial" font-weight="bold" font-size="11.00" fill="black"><a fill="navy" href="../reference/Graphics/RepresentationGroup.html" target="_parent">RepresentationGroup</a></text>
</g>
<!-- 43&#45;&gt;8 -->
<g id="edge10" class="edge"><path fill="none" stroke="#000000" d="M518.317,-561.243C509.812,-548.119 497.968,-529.843 488.322,-514.958"/>
<polygon fill="#000000" stroke="#000000" points="482.649,-506.204 491.863,-512.148 485.368,-510.399 488.087,-514.595 488.087,-514.595 488.087,-514.595 485.368,-510.399 484.311,-517.043 482.649,-506.204 482.649,-506.204"/>
<text text-anchor="start" x="504.5" y="-526.5" font-family="Arial" font-size="10.00" fill="black"><a fill="navy" href="../reference/Graphics/RepresentationGroup.html#dexpi-graphics-representationgroup-represents" target="_parent">Represents</a></text>
<text text-anchor="start" x="474.649" y="-509.204" font-family="Arial" font-size="10.00" fill="black"></text>
<text text-anchor="start" x="502.317" y="-551.243" font-family="Arial" font-size="10.00" fill="black">*</text>
</g>
<!-- 10&#45;inner&#45;node&#45;&gt;0 -->
<g id="edge13" class="edge"><path fill="none" stroke="black" d="M457.5,-85.9514C457.5,-84.6042 457.5,-55.5221 457.5,-36.1346"/>
</g>
<!-- 11&#45;inner&#45;node&#45;&gt;4 -->
<g id="edge15" class="edge"><path fill="none" stroke="black" d="M341.64,-237.884C343.027,-236.739 354.434,-227.38 364.5,-221 383.235,-209.126 405.036,-197.306 422.819,-188.142"/>
</g>
<!-- 12&#45;inner&#45;node&#45;&gt;4 -->
<g id="edge17" class="edge"><path fill="none" stroke="black" d="M457.5,-237.951C457.5,-236.604 457.5,-207.522 457.5,-188.135"/>
</g>
<!-- 13&#45;inner&#45;node&#45;&gt;4 -->
<g id="edge19" class="edge"><path fill="none" stroke="black" d="M575.414,-237.951C573.042,-236.604 521.822,-207.522 487.677,-188.135"/>
</g>
<!-- 14&#45;inner&#45;node&#45;&gt;7 -->
<g id="edge21" class="edge"><path fill="none" stroke="black" d="M471.538,-403.879C471.92,-402.686 475.141,-392.959 480.5,-387 497.92,-367.629 522.388,-351.325 542.129,-340.02"/>
</g>
<!-- 15&#45;inner&#45;node&#45;&gt;7 -->
<g id="edge23" class="edge"><path fill="none" stroke="black" d="M629.461,-403.941C628.318,-402.226 602.391,-363.337 586.898,-340.098"/>
</g>
<!-- 16&#45;inner&#45;node&#45;&gt;7 -->
<g id="edge25" class="edge"><path fill="none" stroke="black" d="M766.362,-403.941C762.318,-402.226 670.615,-363.337 615.817,-340.098"/>
</g>
</g>
</svg>