<!DOCTYPE svg PUBLIC "-//W3C//DTD SVG 1.1//EN" "http://www.w3.org/Graphics/SVG/1.1/DTD/svg11.dtd">
<!-- Generated by graphviz version 2.38.0 (20140413.2041)
 --><!-- Title: G Pages: 1 --><svg xmlns="http://www.w3.org/2000/svg" xmlns:xlink="http://www.w3.org/1999/xlink" width="546pt" height="402pt" viewBox="0.00 0.00 546.00 402.00">
<g id="graph0" class="graph" transform="scale(1 1) rotate(0) translate(4 398)">
<!-- 0 -->
<g id="node1" class="node"><defs>
<linearGradient id="l_0" gradientUnits="userSpaceOnUse" x1="259" y1="-83" x2="259" y2="-145">
<stop offset="0" style="stop-color:#ffffbb;stop-opacity:1.;"/>
<stop offset="1" style="stop-color:#ffffee;stop-opacity:1.;"/>
</linearGradient>
</defs>
<polygon fill="url(#l_0)" stroke="black" points="380,-145 138,-145 138,-83 380,-83 380,-145"/>
<text text-anchor="start" x="194" y="-131.2" font-family="Arial" font-weight="bold" font-size="11.00" fill="black">FilteringCentrifugeDrum</text>
<text text-anchor="start" x="148" y="-107" font-family="Arial" font-size="10.00" fill="black"><a fill="navy" href="../reference/Equipment/FilteringCentrifugeDrum.html#dexpi-equipment-filteringcentrifugedrum-diameter" target="_parent">Diameter</a>&#160;:</text>
<text text-anchor="start" x="280" y="-107" font-family="Arial" font-size="10.00" fill="black"><a fill="navy" href="../reference/PhysicalQuantities/NullableLength.html" target="_parent">NullableLength</a>&#160;[0..1]</text>
<text text-anchor="start" x="148" y="-92" font-family="Arial" font-size="10.00" fill="black"><a fill="navy" href="../reference/Equipment/FilteringCentrifugeDrum.html#dexpi-equipment-filteringcentrifugedrum-materialofconstructioncode" target="_parent">MaterialOfConstructionCode</a>&#160;:</text>
<text text-anchor="start" x="280" y="-92" font-family="Arial" font-size="10.00" fill="black"><a fill="navy" href="../reference/DataTypes/NullableString.html" target="_parent">NullableString</a>&#160;[0..1]</text>
<polygon fill="black" stroke="black" points="380.0,-125.0 138.0,-125.0 138.0,-125.0 380.0,-125.0 380.0,-125.0"/>
</g>
<!-- 11 -->
<g id="node4" class="node"><defs>
<linearGradient id="l_1" gradientUnits="userSpaceOnUse" x1="259" y1="-1.77636e-014" x2="259" y2="-36">
<stop offset="0" style="stop-color:#ffffbb;stop-opacity:1.;"/>
<stop offset="1" style="stop-color:#ffffee;stop-opacity:1.;"/>
</linearGradient>
</defs>
<polygon fill="url(#l_1)" stroke="black" points="293.5,-36 224.5,-36 224.5,-0 293.5,-0 293.5,-36"/>
<text text-anchor="start" x="235" y="-16.2" font-family="Arial" font-weight="bold" font-size="11.00" fill="black"><a fill="navy" href="../reference/Equipment/Chamber.html" target="_parent">Chamber</a></text>
</g>
<!-- 0&#45;&gt;11 -->
<g id="edge1" class="edge"><path fill="none" stroke="#000000" d="M259,-82.9994C259,-71.2728 259,-57.9145 259,-46.4464"/>
<polygon fill="#000000" stroke="#000000" points="259,-36.1454 263.5,-46.1454 259,-41.1454 259,-46.1454 259,-46.1454 259,-46.1454 259,-41.1454 254.5,-46.1454 259,-36.1454 259,-36.1454"/>
<text text-anchor="start" x="261" y="-56.5" font-family="Arial" font-size="10.00" fill="black"><a fill="navy" href="../reference/Equipment/FilteringCentrifugeDrum.html#dexpi-equipment-filteringcentrifugedrum-chamber" target="_parent">Chamber</a></text>
<text text-anchor="start" x="238.0" y="-39.1454" font-family="Arial" font-size="10.00" fill="black">0..1</text>
<text text-anchor="start" x="243.0" y="-72.9994" font-family="Arial" font-size="10.00" fill="black">*</text>
</g>
<!-- 5 -->
<g id="node2" class="node"><defs>
<linearGradient id="l_2" gradientUnits="userSpaceOnUse" x1="298" y1="-275" x2="298" y2="-311">
<stop offset="0" style="stop-color:#ffffbb;stop-opacity:1.;"/>
<stop offset="1" style="stop-color:#ffffee;stop-opacity:1.;"/>
</linearGradient>
</defs>
<polygon fill="url(#l_2)" stroke="black" points="355.5,-311 240.5,-311 240.5,-275 355.5,-275 355.5,-311"/>
<text text-anchor="start" x="251" y="-291.2" font-family="Arial" font-weight="bold" font-style="italic" font-size="11.00" fill="black"><a fill="navy" href="../reference/DexpiModel/ConceptualObject.html" target="_parent">ConceptualObject</a></text>
</g>
<!-- 7&#45;inner&#45;node -->
<!-- 5&#45;&gt;7&#45;inner&#45;node -->
<g id="edge7" class="edge"><path fill="none" stroke="black" d="M298,-264.649C298,-241.987 298,-213.163 298,-211.116L298.047,-208.919"/>
<polygon fill="none" stroke="black" points="294.5,-264.822 298,-274.822 301.5,-264.822 294.5,-264.822"/>
</g>
<!-- 6 -->
<g id="node3" class="node"><defs>
<linearGradient id="l_3" gradientUnits="userSpaceOnUse" x1="466" y1="-275" x2="466" y2="-311">
<stop offset="0" style="stop-color:#ffffbb;stop-opacity:1.;"/>
<stop offset="1" style="stop-color:#ffffee;stop-opacity:1.;"/>
</linearGradient>
</defs>
<polygon fill="url(#l_3)" stroke="black" points="538,-311 394,-311 394,-275 538,-275 538,-311"/>
<text text-anchor="start" x="404" y="-291.2" font-family="Arial" font-weight="bold" font-style="italic" font-size="11.00" fill="black"><a fill="navy" href="../reference/Customization/CustomAttributeOwner.html" target="_parent">CustomAttributeOwner</a></text>
</g>
<!-- 26 -->
<g id="node9" class="node"><defs>
<linearGradient id="l_4" gradientUnits="userSpaceOnUse" x1="371" y1="-192" x2="371" y2="-228">
<stop offset="0" style="stop-color:#ffffbb;stop-opacity:1.;"/>
<stop offset="1" style="stop-color:#ffffee;stop-opacity:1.;"/>
</linearGradient>
</defs>
<polygon fill="url(#l_4)" stroke="black" points="425.5,-228 316.5,-228 316.5,-192 425.5,-192 425.5,-228"/>
<text text-anchor="start" x="327" y="-208.2" font-family="Arial" font-weight="bold" font-style="italic" font-size="11.00" fill="black"><a fill="navy" href="../reference/Customization/CustomAttribute.html" target="_parent">CustomAttribute</a></text>
</g>
<!-- 6&#45;&gt;26 -->
<g id="edge6" class="edge"><path fill="none" stroke="#000000" d="M392.066,-268.359C388.387,-265.576 384.987,-262.469 382,-259 377.071,-253.275 374.234,-245.784 372.632,-238.428"/>
<polygon fill="#000000" stroke="#000000" points="392.276,-268.495 399.486,-268.381 402.365,-274.992 395.155,-275.106 392.276,-268.495"/>
<polygon fill="#000000" stroke="#000000" points="371.101,-228.317 377.048,-237.53 371.85,-233.26 372.598,-238.204 372.598,-238.204 372.598,-238.204 371.85,-233.26 368.149,-238.878 371.101,-228.317 371.101,-228.317"/>
<text text-anchor="start" x="384" y="-248.5" font-family="Arial" font-size="10.00" fill="black"><a fill="navy" href="../reference/Customization/CustomAttributeOwner.html#dexpi-customization-customattributeowner-customattributes" target="_parent">CustomAttributes</a></text>
<text text-anchor="start" x="363.101" y="-231.317" font-family="Arial" font-size="10.00" fill="black">*</text>
<text text-anchor="start" x="373.365" y="-264.992" font-family="Arial" font-size="10.00" fill="black">0..1</text>
</g>
<!-- 8&#45;inner&#45;node -->
<!-- 6&#45;&gt;8&#45;inner&#45;node -->
<g id="edge9" class="edge"><path fill="none" stroke="black" d="M466,-264.649C466,-241.987 466,-213.163 466,-211.116L465.949,-208.971"/>
<polygon fill="none" stroke="black" points="462.5,-264.822 466,-274.822 469.5,-264.822 462.5,-264.822"/>
</g>
<!-- 14 -->
<g id="node5" class="node"><defs>
<linearGradient id="l_5" gradientUnits="userSpaceOnUse" x1="61" y1="-192" x2="61" y2="-228">
<stop offset="0" style="stop-color:#ffffbb;stop-opacity:1.;"/>
<stop offset="1" style="stop-color:#ffffee;stop-opacity:1.;"/>
</linearGradient>
</defs>
<polygon fill="url(#l_5)" stroke="black" points="122,-228 7.10543e-015,-228 7.10543e-015,-192 122,-192 122,-228"/>
<text text-anchor="start" x="10" y="-208.2" font-family="Arial" font-weight="bold" font-size="11.00" fill="black"><a fill="navy" href="../reference/Equipment/FilteringCentrifuge.html" target="_parent">FilteringCentrifuge</a></text>
</g>
<!-- 14&#45;&gt;0 -->
<g id="edge2" class="edge"><path fill="none" stroke="#000000" d="M69.2781,-180.215C72.5401,-173.082 76.9904,-166.045 83,-161 96.2444,-149.882 111.875,-141.415 128.264,-134.975"/>
<polygon fill="#000000" stroke="#000000" points="69.2158,-180.38 70.8287,-187.408 64.9613,-191.601 63.3484,-184.572 69.2158,-180.38"/>
<polygon fill="#000000" stroke="#000000" points="137.989,-131.412 130.148,-139.078 133.294,-133.132 128.6,-134.852 128.6,-134.852 128.6,-134.852 133.294,-133.132 127.052,-130.627 137.989,-131.412 137.989,-131.412"/>
<text text-anchor="start" x="85" y="-165.5" font-family="Arial" font-size="10.00" fill="black"><a fill="navy" href="../reference/Equipment/FilteringCentrifuge.html#dexpi-equipment-filteringcentrifuge-filteringcentrifugedrum" target="_parent">FilteringCentrifugeDrum</a></text>
<text text-anchor="start" x="116.989" y="-134.412" font-family="Arial" font-size="10.00" fill="black">0..1</text>
<text text-anchor="start" x="35.9613" y="-181.601" font-family="Arial" font-size="10.00" fill="black">0..1</text>
</g>
<!-- 17 -->
<g id="node6" class="node"><defs>
<linearGradient id="l_6" gradientUnits="userSpaceOnUse" x1="199" y1="-192" x2="199" y2="-228">
<stop offset="0" style="stop-color:#ffffbb;stop-opacity:1.;"/>
<stop offset="1" style="stop-color:#ffffee;stop-opacity:1.;"/>
</linearGradient>
</defs>
<polygon fill="url(#l_6)" stroke="black" points="258,-228 140,-228 140,-192 258,-192 258,-228"/>
<text text-anchor="start" x="150" y="-208.2" font-family="Arial" font-weight="bold" font-size="11.00" fill="black"><a fill="navy" href="../reference/Equipment/CustomCentrifuge.html" target="_parent">CustomCentrifuge</a></text>
</g>
<!-- 17&#45;&gt;0 -->
<g id="edge3" class="edge"><path fill="none" stroke="#000000" d="M192.378,-179.767C192.204,-173.321 193.096,-166.716 196,-161 197.38,-158.283 199.004,-155.689 200.819,-153.216"/>
<polygon fill="#000000" stroke="#000000" points="192.379,-179.776 197.052,-185.268 193.778,-191.694 189.106,-186.201 192.379,-179.776"/>
<polygon fill="#000000" stroke="#000000" points="207.645,-145.277 204.538,-155.793 204.385,-149.068 201.126,-152.86 201.126,-152.86 201.126,-152.86 204.385,-149.068 197.713,-149.926 207.645,-145.277 207.645,-145.277"/>
<text text-anchor="start" x="198" y="-165.5" font-family="Arial" font-size="10.00" fill="black"><a fill="navy" href="../reference/Equipment/CustomCentrifuge.html#dexpi-equipment-customcentrifuge-filteringcentrifugedrum" target="_parent">FilteringCentrifugeDrum</a></text>
<text text-anchor="start" x="186.645" y="-148.277" font-family="Arial" font-size="10.00" fill="black">0..1</text>
<text text-anchor="start" x="164.778" y="-181.694" font-family="Arial" font-size="10.00" fill="black">0..1</text>
</g>
<!-- 20 -->
<g id="node7" class="node"><defs>
<linearGradient id="l_7" gradientUnits="userSpaceOnUse" x1="218" y1="-358" x2="218" y2="-394">
<stop offset="0" style="stop-color:#ffffbb;stop-opacity:1.;"/>
<stop offset="1" style="stop-color:#ffffee;stop-opacity:1.;"/>
</linearGradient>
</defs>
<polygon fill="url(#l_7)" stroke="black" points="292.5,-394 143.5,-394 143.5,-358 292.5,-358 292.5,-394"/>
<text text-anchor="start" x="154" y="-374.2" font-family="Arial" font-weight="bold" font-size="11.00" fill="black"><a fill="navy" href="../reference/Graphics/AttributeRepresentation.html" target="_parent">AttributeRepresentation</a></text>
</g>
<!-- 20&#45;&gt;5 -->
<g id="edge4" class="edge"><path fill="none" stroke="#000000" d="M234.966,-357.822C246.315,-346.331 261.416,-331.041 273.993,-318.307"/>
<polygon fill="#000000" stroke="#000000" points="281.059,-311.153 277.233,-321.43 277.545,-314.711 274.031,-318.268 274.031,-318.268 274.031,-318.268 277.545,-314.711 270.83,-315.106 281.059,-311.153 281.059,-311.153"/>
<text text-anchor="start" x="268.5" y="-331.5" font-family="Arial" font-size="10.00" fill="black"><a fill="navy" href="../reference/Graphics/AttributeRepresentation.html#dexpi-graphics-attributerepresentation-object" target="_parent">Object</a></text>
<text text-anchor="start" x="273.059" y="-314.153" font-family="Arial" font-size="10.00" fill="black"></text>
<text text-anchor="start" x="218.966" y="-347.822" font-family="Arial" font-size="10.00" fill="black">*</text>
</g>
<!-- 23 -->
<g id="node8" class="node"><defs>
<linearGradient id="l_8" gradientUnits="userSpaceOnUse" x1="379" y1="-358" x2="379" y2="-394">
<stop offset="0" style="stop-color:#ffffbb;stop-opacity:1.;"/>
<stop offset="1" style="stop-color:#ffffee;stop-opacity:1.;"/>
</linearGradient>
</defs>
<polygon fill="url(#l_8)" stroke="black" points="447.5,-394 310.5,-394 310.5,-358 447.5,-358 447.5,-394"/>
<text text-anchor="start" x="321" y="-374.2" font-family="Arial" font-weight="bold" font-size="11.00" fill="black"><a fill="navy" href="../reference/Graphics/RepresentationGroup.html" target="_parent">RepresentationGroup</a></text>
</g>
<!-- 23&#45;&gt;5 -->
<g id="edge5" class="edge"><path fill="none" stroke="#000000" d="M361.822,-357.822C350.331,-346.331 335.041,-331.041 322.307,-318.307"/>
<polygon fill="#000000" stroke="#000000" points="315.153,-311.153 325.406,-315.042 318.689,-314.689 322.224,-318.224 322.224,-318.224 322.224,-318.224 318.689,-314.689 319.042,-321.406 315.153,-311.153 315.153,-311.153"/>
<text text-anchor="start" x="348" y="-331.5" font-family="Arial" font-size="10.00" fill="black"><a fill="navy" href="../reference/Graphics/RepresentationGroup.html#dexpi-graphics-representationgroup-represents" target="_parent">Represents</a></text>
<text text-anchor="start" x="307.153" y="-314.153" font-family="Arial" font-size="10.00" fill="black"></text>
<text text-anchor="start" x="345.822" y="-347.822" font-family="Arial" font-size="10.00" fill="black">*</text>
</g>
<!-- 7&#45;inner&#45;node&#45;&gt;0 -->
<g id="edge8" class="edge"><path fill="none" stroke="black" d="M298.047,-208.919C299,-207.254 314.122,-180.313 306,-161 303.61,-155.317 300.137,-149.984 296.144,-145.107"/>
</g>
<!-- 8&#45;inner&#45;node&#45;&gt;0 -->
<g id="edge10" class="edge"><path fill="none" stroke="black" d="M465.949,-208.971C464.909,-208.379 448.039,-198.806 434,-192 400.399,-175.71 362.534,-158.867 330.642,-145.103"/>
</g>
</g>
</svg>