<!DOCTYPE svg PUBLIC "-//W3C//DTD SVG 1.1//EN" "http://www.w3.org/Graphics/SVG/1.1/DTD/svg11.dtd">
<!-- Generated by graphviz version 2.38.0 (20140413.2041)
 --><!-- Title: G Pages: 1 --><svg xmlns="http://www.w3.org/2000/svg" xmlns:xlink="http://www.w3.org/1999/xlink" width="1081pt" height="445pt" viewBox="0.00 0.00 1081.00 445.00">
<g id="graph0" class="graph" transform="scale(1 1) rotate(0) translate(4 441)">
<!-- 0 -->
<g id="node1" class="node"><defs>
<linearGradient id="l_0" gradientUnits="userSpaceOnUse" x1="839.5" y1="-1.77636e-014" x2="839.5" y2="-36">
<stop offset="0" style="stop-color:#ffffbb;stop-opacity:1.;"/>
<stop offset="1" style="stop-color:#ffffee;stop-opacity:1.;"/>
</linearGradient>
</defs>
<polygon fill="url(#l_0)" stroke="black" points="934,-36 745,-36 745,-0 934,-0 934,-36"/>
<text text-anchor="start" x="755.5" y="-16.2" font-family="Arial" font-weight="bold" font-size="11.00" fill="black">FlowOutPipeOffPageConnector</text>
</g>
<!-- 1 -->
<g id="node2" class="node"><defs>
<linearGradient id="l_1" gradientUnits="userSpaceOnUse" x1="607.5" y1="-152" x2="607.5" y2="-188">
<stop offset="0" style="stop-color:#ffffbb;stop-opacity:1.;"/>
<stop offset="1" style="stop-color:#ffffee;stop-opacity:1.;"/>
</linearGradient>
</defs>
<polygon fill="url(#l_1)" stroke="black" points="678.5,-188 536.5,-188 536.5,-152 678.5,-152 678.5,-188"/>
<text text-anchor="start" x="546.5" y="-168.2" font-family="Arial" font-weight="bold" font-style="italic" font-size="11.00" fill="black"><a fill="navy" href="../reference/Piping/PipeOffPageConnector.html" target="_parent">PipeOffPageConnector</a></text>
</g>
<!-- 15 -->
<g id="node8" class="node"><defs>
<linearGradient id="l_2" gradientUnits="userSpaceOnUse" x1="723.5" y1="-69" x2="723.5" y2="-105">
<stop offset="0" style="stop-color:#ffffbb;stop-opacity:1.;"/>
<stop offset="1" style="stop-color:#ffffee;stop-opacity:1.;"/>
</linearGradient>
</defs>
<polygon fill="url(#l_2)" stroke="black" points="821,-105 626,-105 626,-69 821,-69 821,-105"/>
<text text-anchor="start" x="636.5" y="-85.2" font-family="Arial" font-weight="bold" font-style="italic" font-size="11.00" fill="black"><a fill="navy" href="../reference/Piping/PipeOffPageConnectorReference.html" target="_parent">PipeOffPageConnectorReference</a></text>
</g>
<!-- 1&#45;&gt;15 -->
<g id="edge1" class="edge"><path fill="none" stroke="#000000" d="M642.094,-144.844C657.385,-134.167 675.284,-121.668 690.398,-111.114"/>
<polygon fill="#000000" stroke="#000000" points="641.939,-144.952 639.31,-151.666 632.101,-151.822 634.73,-145.107 641.939,-144.952"/>
<polygon fill="#000000" stroke="#000000" points="698.935,-105.153 693.312,-114.568 694.835,-108.016 690.736,-110.878 690.736,-110.878 690.736,-110.878 694.835,-108.016 688.16,-107.189 698.935,-105.153 698.935,-105.153"/>
<text text-anchor="start" x="678.5" y="-125.5" font-family="Arial" font-size="10.00" fill="black"><a fill="navy" href="../reference/Piping/PipeOffPageConnector.html#dexpi-piping-pipeoffpageconnector-connectorreference" target="_parent">ConnectorReference</a></text>
<text text-anchor="start" x="677.935" y="-108.153" font-family="Arial" font-size="10.00" fill="black">0..1</text>
<text text-anchor="start" x="603.101" y="-141.822" font-family="Arial" font-size="10.00" fill="black">0..1</text>
</g>
<!-- 7&#45;inner&#45;node -->
<!-- 1&#45;&gt;7&#45;inner&#45;node -->
<g id="edge10" class="edge"><path fill="none" stroke="black" d="M607.5,-141.649C607.5,-118.987 607.5,-90.1627 607.5,-88.1156L607.526,-85.8661"/>
<polygon fill="none" stroke="black" points="604,-141.822 607.5,-151.822 611,-141.822 604,-141.822"/>
</g>
<!-- 2 -->
<g id="node3" class="node"><defs>
<linearGradient id="l_3" gradientUnits="userSpaceOnUse" x1="1015.5" y1="-318" x2="1015.5" y2="-354">
<stop offset="0" style="stop-color:#ffffbb;stop-opacity:1.;"/>
<stop offset="1" style="stop-color:#ffffee;stop-opacity:1.;"/>
</linearGradient>
</defs>
<polygon fill="url(#l_3)" stroke="black" points="1071,-354 960,-354 960,-318 1071,-318 1071,-354"/>
<text text-anchor="start" x="970.5" y="-334.2" font-family="Arial" font-weight="bold" font-style="italic" font-size="11.00" fill="black"><a fill="navy" href="../reference/Piping/PipingTargetItem.html" target="_parent">PipingTargetItem</a></text>
</g>
<!-- 8&#45;inner&#45;node -->
<!-- 2&#45;&gt;8&#45;inner&#45;node -->
<g id="edge12" class="edge"><path fill="none" stroke="black" d="M1015.5,-307.649C1015.5,-284.987 1015.5,-256.163 1015.5,-254.116L1015.37,-251.831"/>
<polygon fill="none" stroke="black" points="1012,-307.822 1015.5,-317.822 1019,-307.822 1012,-307.822"/>
</g>
<!-- 3 -->
<g id="node4" class="node"><defs>
<linearGradient id="l_4" gradientUnits="userSpaceOnUse" x1="148.5" y1="-318" x2="148.5" y2="-354">
<stop offset="0" style="stop-color:#ffffbb;stop-opacity:1.;"/>
<stop offset="1" style="stop-color:#ffffee;stop-opacity:1.;"/>
</linearGradient>
</defs>
<polygon fill="url(#l_4)" stroke="black" points="206,-354 91,-354 91,-318 206,-318 206,-354"/>
<text text-anchor="start" x="101.5" y="-334.2" font-family="Arial" font-weight="bold" font-style="italic" font-size="11.00" fill="black"><a fill="navy" href="../reference/DexpiModel/ConceptualObject.html" target="_parent">ConceptualObject</a></text>
</g>
<!-- 9&#45;inner&#45;node -->
<!-- 3&#45;&gt;9&#45;inner&#45;node -->
<g id="edge14" class="edge"><path fill="none" stroke="black" d="M148.5,-307.649C148.5,-284.987 148.5,-256.163 148.5,-254.116L148.584,-251.985"/>
<polygon fill="none" stroke="black" points="145,-307.822 148.5,-317.822 152,-307.822 145,-307.822"/>
</g>
<!-- 4 -->
<g id="node5" class="node"><defs>
<linearGradient id="l_5" gradientUnits="userSpaceOnUse" x1="482.5" y1="-318" x2="482.5" y2="-354">
<stop offset="0" style="stop-color:#ffffbb;stop-opacity:1.;"/>
<stop offset="1" style="stop-color:#ffffee;stop-opacity:1.;"/>
</linearGradient>
</defs>
<polygon fill="url(#l_5)" stroke="black" points="554.5,-354 410.5,-354 410.5,-318 554.5,-318 554.5,-354"/>
<text text-anchor="start" x="420.5" y="-334.2" font-family="Arial" font-weight="bold" font-style="italic" font-size="11.00" fill="black"><a fill="navy" href="../reference/Customization/CustomAttributeOwner.html" target="_parent">CustomAttributeOwner</a></text>
</g>
<!-- 33 -->
<g id="node14" class="node"><defs>
<linearGradient id="l_6" gradientUnits="userSpaceOnUse" x1="555.5" y1="-235" x2="555.5" y2="-271">
<stop offset="0" style="stop-color:#ffffbb;stop-opacity:1.;"/>
<stop offset="1" style="stop-color:#ffffee;stop-opacity:1.;"/>
</linearGradient>
</defs>
<polygon fill="url(#l_6)" stroke="black" points="610,-271 501,-271 501,-235 610,-235 610,-271"/>
<text text-anchor="start" x="511.5" y="-251.2" font-family="Arial" font-weight="bold" font-style="italic" font-size="11.00" fill="black"><a fill="navy" href="../reference/Customization/CustomAttribute.html" target="_parent">CustomAttribute</a></text>
</g>
<!-- 4&#45;&gt;33 -->
<g id="edge7" class="edge"><path fill="none" stroke="#000000" d="M506.055,-308.864C514.755,-299.21 524.582,-288.306 533.17,-278.777"/>
<polygon fill="#000000" stroke="#000000" points="506.015,-308.908 504.97,-316.043 497.981,-317.822 499.027,-310.687 506.015,-308.908"/>
<polygon fill="#000000" stroke="#000000" points="540.041,-271.153 536.689,-281.594 536.694,-274.867 533.346,-278.582 533.346,-278.582 533.346,-278.582 536.694,-274.867 530.003,-275.569 540.041,-271.153 540.041,-271.153"/>
<text text-anchor="start" x="528.5" y="-291.5" font-family="Arial" font-size="10.00" fill="black"><a fill="navy" href="../reference/Customization/CustomAttributeOwner.html#dexpi-customization-customattributeowner-customattributes" target="_parent">CustomAttributes</a></text>
<text text-anchor="start" x="532.041" y="-274.153" font-family="Arial" font-size="10.00" fill="black">*</text>
<text text-anchor="start" x="468.981" y="-307.822" font-family="Arial" font-size="10.00" fill="black">0..1</text>
</g>
<!-- 10&#45;inner&#45;node -->
<!-- 4&#45;&gt;10&#45;inner&#45;node -->
<g id="edge16" class="edge"><path fill="none" stroke="black" d="M482.5,-307.649C482.5,-284.987 482.5,-256.163 482.5,-254.116L482.535,-251.876"/>
<polygon fill="none" stroke="black" points="479,-307.822 482.5,-317.822 486,-307.822 479,-307.822"/>
</g>
<!-- 5 -->
<g id="node6" class="node"><defs>
<linearGradient id="l_7" gradientUnits="userSpaceOnUse" x1="308.5" y1="-318" x2="308.5" y2="-354">
<stop offset="0" style="stop-color:#ffffbb;stop-opacity:1.;"/>
<stop offset="1" style="stop-color:#ffffee;stop-opacity:1.;"/>
</linearGradient>
</defs>
<polygon fill="url(#l_7)" stroke="black" points="392.5,-354 224.5,-354 224.5,-318 392.5,-318 392.5,-354"/>
<text text-anchor="start" x="234.5" y="-334.2" font-family="Arial" font-weight="bold" font-style="italic" font-size="11.00" fill="black"><a fill="navy" href="../reference/Piping/PipingNetworkSegmentItem.html" target="_parent">PipingNetworkSegmentItem</a></text>
</g>
<!-- 11&#45;inner&#45;node -->
<!-- 5&#45;&gt;11&#45;inner&#45;node -->
<g id="edge18" class="edge"><path fill="none" stroke="black" d="M308.5,-307.649C308.5,-284.987 308.5,-256.163 308.5,-254.116L308.554,-251.985"/>
<polygon fill="none" stroke="black" points="305,-307.822 308.5,-317.822 312,-307.822 305,-307.822"/>
</g>
<!-- 6 -->
<g id="node7" class="node"><defs>
<linearGradient id="l_8" gradientUnits="userSpaceOnUse" x1="883.5" y1="-318" x2="883.5" y2="-354">
<stop offset="0" style="stop-color:#ffffbb;stop-opacity:1.;"/>
<stop offset="1" style="stop-color:#ffffee;stop-opacity:1.;"/>
</linearGradient>
</defs>
<polygon fill="url(#l_8)" stroke="black" points="942,-354 825,-354 825,-318 942,-318 942,-354"/>
<text text-anchor="start" x="835.5" y="-334.2" font-family="Arial" font-weight="bold" font-style="italic" font-size="11.00" fill="black"><a fill="navy" href="../reference/Piping/PipingNodeOwner.html" target="_parent">PipingNodeOwner</a></text>
</g>
<!-- 38 -->
<g id="node15" class="node"><defs>
<linearGradient id="l_9" gradientUnits="userSpaceOnUse" x1="943.5" y1="-235" x2="943.5" y2="-271">
<stop offset="0" style="stop-color:#ffffbb;stop-opacity:1.;"/>
<stop offset="1" style="stop-color:#ffffee;stop-opacity:1.;"/>
</linearGradient>
</defs>
<polygon fill="url(#l_9)" stroke="black" points="985,-271 902,-271 902,-235 985,-235 985,-271"/>
<text text-anchor="start" x="912.5" y="-251.2" font-family="Arial" font-weight="bold" font-size="11.00" fill="black"><a fill="navy" href="../reference/Piping/PipingNode.html" target="_parent">PipingNode</a></text>
</g>
<!-- 6&#45;&gt;38 -->
<g id="edge9" class="edge"><path fill="none" stroke="#000000" d="M903.4,-308.135C910.244,-298.896 917.88,-288.586 924.638,-279.463"/>
<polygon fill="#000000" stroke="#000000" points="903.367,-308.179 903.01,-315.382 896.224,-317.822 896.582,-310.62 903.367,-308.179"/>
<polygon fill="#000000" stroke="#000000" points="930.794,-271.153 928.458,-281.867 927.818,-275.171 924.842,-279.189 924.842,-279.189 924.842,-279.189 927.818,-275.171 921.226,-276.51 930.794,-271.153 930.794,-271.153"/>
<text text-anchor="start" x="921.5" y="-291.5" font-family="Arial" font-size="10.00" fill="black"><a fill="navy" href="../reference/Piping/PipingNodeOwner.html#dexpi-piping-pipingnodeowner-nodes" target="_parent">Nodes</a></text>
<text text-anchor="start" x="922.794" y="-274.153" font-family="Arial" font-size="10.00" fill="black">*</text>
<text text-anchor="start" x="867.224" y="-307.822" font-family="Arial" font-size="10.00" fill="black">0..1</text>
</g>
<!-- 12&#45;inner&#45;node -->
<!-- 6&#45;&gt;12&#45;inner&#45;node -->
<g id="edge20" class="edge"><path fill="none" stroke="black" d="M883.5,-307.649C883.5,-284.987 883.5,-256.163 883.5,-254.116L883.461,-251.871"/>
<polygon fill="none" stroke="black" points="880,-307.822 883.5,-317.822 887,-307.822 880,-307.822"/>
</g>
<!-- 18 -->
<g id="node9" class="node"><defs>
<linearGradient id="l_10" gradientUnits="userSpaceOnUse" x1="746.5" y1="-235" x2="746.5" y2="-271">
<stop offset="0" style="stop-color:#ffffbb;stop-opacity:1.;"/>
<stop offset="1" style="stop-color:#ffffee;stop-opacity:1.;"/>
</linearGradient>
</defs>
<polygon fill="url(#l_10)" stroke="black" points="864.5,-271 628.5,-271 628.5,-235 864.5,-235 864.5,-271"/>
<text text-anchor="start" x="638.5" y="-251.2" font-family="Arial" font-weight="bold" font-size="11.00" fill="black"><a fill="navy" href="../reference/Piping/PipeOffPageConnectorObjectReference.html" target="_parent">PipeOffPageConnectorObjectReference</a></text>
</g>
<!-- 18&#45;&gt;1 -->
<g id="edge2" class="edge"><path fill="none" stroke="#000000" d="M717.022,-234.822C696.197,-222.687 668.101,-206.314 645.58,-193.19"/>
<polygon fill="#000000" stroke="#000000" points="636.936,-188.153 647.842,-189.3 641.256,-190.671 645.576,-193.188 645.576,-193.188 645.576,-193.188 641.256,-190.671 643.31,-197.076 636.936,-188.153 636.936,-188.153"/>
<text text-anchor="start" x="691.5" y="-208.5" font-family="Arial" font-size="10.00" fill="black"><a fill="navy" href="../reference/Piping/PipeOffPageConnectorObjectReference.html#dexpi-piping-pipeoffpageconnectorobjectreference-referencedconnector" target="_parent">ReferencedConnector</a></text>
<text text-anchor="start" x="615.936" y="-191.153" font-family="Arial" font-size="10.00" fill="black">0..1</text>
<text text-anchor="start" x="701.022" y="-224.822" font-family="Arial" font-size="10.00" fill="black">*</text>
</g>
<!-- 21 -->
<g id="node10" class="node"><defs>
<linearGradient id="l_11" gradientUnits="userSpaceOnUse" x1="721.5" y1="-401" x2="721.5" y2="-437">
<stop offset="0" style="stop-color:#ffffbb;stop-opacity:1.;"/>
<stop offset="1" style="stop-color:#ffffee;stop-opacity:1.;"/>
</linearGradient>
</defs>
<polygon fill="url(#l_11)" stroke="black" points="794.5,-437 648.5,-437 648.5,-401 794.5,-401 794.5,-437"/>
<text text-anchor="start" x="658.5" y="-417.2" font-family="Arial" font-weight="bold" font-size="11.00" fill="black"><a fill="navy" href="../reference/Piping/PipingNetworkSegment.html" target="_parent">PipingNetworkSegment</a></text>
</g>
<!-- 21&#45;&gt;2 -->
<g id="edge3" class="edge"><path fill="none" stroke="#000000" d="M783.491,-400.921C832.294,-387.475 900.144,-368.782 949.864,-355.083"/>
<polygon fill="#000000" stroke="#000000" points="959.556,-352.413 951.11,-359.408 954.735,-353.741 949.915,-355.069 949.915,-355.069 949.915,-355.069 954.735,-353.741 948.719,-350.731 959.556,-352.413 959.556,-352.413"/>
<text text-anchor="start" x="897.5" y="-374.5" font-family="Arial" font-size="10.00" fill="black"><a fill="navy" href="../reference/Piping/PipingNetworkSegment.html#dexpi-piping-pipingnetworksegment-targetitem" target="_parent">TargetItem</a></text>
<text text-anchor="start" x="938.556" y="-355.413" font-family="Arial" font-size="10.00" fill="black">0..1</text>
<text text-anchor="start" x="754.491" y="-390.921" font-family="Arial" font-size="10.00" fill="black">0..1</text>
</g>
<!-- 21&#45;&gt;5 -->
<g id="edge8" class="edge"><path fill="none" stroke="#000000" d="M636.066,-401.244C568.052,-387.905 472.95,-369.253 402.731,-355.481"/>
<polygon fill="#000000" stroke="#000000" points="636.364,-401.303 643.022,-398.532 648.14,-403.612 641.482,-406.383 636.364,-401.303"/>
<polygon fill="#000000" stroke="#000000" points="392.558,-353.486 403.237,-350.995 397.464,-354.448 402.371,-355.411 402.371,-355.411 402.371,-355.411 397.464,-354.448 401.505,-359.826 392.558,-353.486 392.558,-353.486"/>
<text text-anchor="start" x="555" y="-374.5" font-family="Arial" font-size="10.00" fill="black"><a fill="navy" href="../reference/Piping/PipingNetworkSegment.html#dexpi-piping-pipingnetworksegment-items" target="_parent">Items</a></text>
<text text-anchor="start" x="388.558" y="-356.486" font-family="Arial" font-size="10.00" fill="black">*</text>
<text text-anchor="start" x="619.14" y="-404.612" font-family="Arial" font-size="10.00" fill="black">0..1</text>
</g>
<!-- 24 -->
<g id="node11" class="node"><defs>
<linearGradient id="l_12" gradientUnits="userSpaceOnUse" x1="1015.5" y1="-401" x2="1015.5" y2="-437">
<stop offset="0" style="stop-color:#ffffbb;stop-opacity:1.;"/>
<stop offset="1" style="stop-color:#ffffee;stop-opacity:1.;"/>
</linearGradient>
</defs>
<polygon fill="url(#l_12)" stroke="black" points="1073,-437 958,-437 958,-401 1073,-401 1073,-437"/>
<text text-anchor="start" x="968.5" y="-417.2" font-family="Arial" font-weight="bold" font-style="italic" font-size="11.00" fill="black"><a fill="navy" href="../reference/Piping/PipingConnection.html" target="_parent">PipingConnection</a></text>
</g>
<!-- 24&#45;&gt;2 -->
<g id="edge4" class="edge"><path fill="none" stroke="#000000" d="M1015.5,-400.822C1015.5,-390.19 1015.5,-376.306 1015.5,-364.204"/>
<polygon fill="#000000" stroke="#000000" points="1015.5,-354.153 1020,-364.153 1015.5,-359.153 1015.5,-364.153 1015.5,-364.153 1015.5,-364.153 1015.5,-359.153 1011,-364.153 1015.5,-354.153 1015.5,-354.153"/>
<text text-anchor="start" x="1017.5" y="-374.5" font-family="Arial" font-size="10.00" fill="black"><a fill="navy" href="../reference/Piping/PipingConnection.html#dexpi-piping-pipingconnection-targetitem" target="_parent">TargetItem</a></text>
<text text-anchor="start" x="994.5" y="-357.153" font-family="Arial" font-size="10.00" fill="black">0..1</text>
<text text-anchor="start" x="986.5" y="-390.822" font-family="Arial" font-size="10.00" fill="black">0..1</text>
</g>
<!-- 27 -->
<g id="node12" class="node"><defs>
<linearGradient id="l_13" gradientUnits="userSpaceOnUse" x1="229.5" y1="-401" x2="229.5" y2="-437">
<stop offset="0" style="stop-color:#ffffbb;stop-opacity:1.;"/>
<stop offset="1" style="stop-color:#ffffee;stop-opacity:1.;"/>
</linearGradient>
</defs>
<polygon fill="url(#l_13)" stroke="black" points="304,-437 155,-437 155,-401 304,-401 304,-437"/>
<text text-anchor="start" x="165.5" y="-417.2" font-family="Arial" font-weight="bold" font-size="11.00" fill="black"><a fill="navy" href="../reference/Graphics/AttributeRepresentation.html" target="_parent">AttributeRepresentation</a></text>
</g>
<!-- 27&#45;&gt;3 -->
<g id="edge5" class="edge"><path fill="none" stroke="#000000" d="M212.322,-400.822C200.831,-389.331 185.541,-374.041 172.807,-361.307"/>
<polygon fill="#000000" stroke="#000000" points="165.653,-354.153 175.906,-358.042 169.189,-357.689 172.724,-361.224 172.724,-361.224 172.724,-361.224 169.189,-357.689 169.542,-364.406 165.653,-354.153 165.653,-354.153"/>
<text text-anchor="start" x="199" y="-374.5" font-family="Arial" font-size="10.00" fill="black"><a fill="navy" href="../reference/Graphics/AttributeRepresentation.html#dexpi-graphics-attributerepresentation-object" target="_parent">Object</a></text>
<text text-anchor="start" x="157.653" y="-357.153" font-family="Arial" font-size="10.00" fill="black"></text>
<text text-anchor="start" x="196.322" y="-390.822" font-family="Arial" font-size="10.00" fill="black">*</text>
</g>
<!-- 30 -->
<g id="node13" class="node"><defs>
<linearGradient id="l_14" gradientUnits="userSpaceOnUse" x1="68.5" y1="-401" x2="68.5" y2="-437">
<stop offset="0" style="stop-color:#ffffbb;stop-opacity:1.;"/>
<stop offset="1" style="stop-color:#ffffee;stop-opacity:1.;"/>
</linearGradient>
</defs>
<polygon fill="url(#l_14)" stroke="black" points="137,-437 0,-437 0,-401 137,-401 137,-437"/>
<text text-anchor="start" x="10.5" y="-417.2" font-family="Arial" font-weight="bold" font-size="11.00" fill="black"><a fill="navy" href="../reference/Graphics/RepresentationGroup.html" target="_parent">RepresentationGroup</a></text>
</g>
<!-- 30&#45;&gt;3 -->
<g id="edge6" class="edge"><path fill="none" stroke="#000000" d="M85.4659,-400.822C96.8149,-389.331 111.916,-374.041 124.493,-361.307"/>
<polygon fill="#000000" stroke="#000000" points="131.559,-354.153 127.733,-364.43 128.045,-357.711 124.531,-361.268 124.531,-361.268 124.531,-361.268 128.045,-357.711 121.33,-358.106 131.559,-354.153 131.559,-354.153"/>
<text text-anchor="start" x="118.5" y="-374.5" font-family="Arial" font-size="10.00" fill="black"><a fill="navy" href="../reference/Graphics/RepresentationGroup.html#dexpi-graphics-representationgroup-represents" target="_parent">Represents</a></text>
<text text-anchor="start" x="123.559" y="-357.153" font-family="Arial" font-size="10.00" fill="black"></text>
<text text-anchor="start" x="69.4659" y="-390.822" font-family="Arial" font-size="10.00" fill="black">*</text>
</g>
<!-- 7&#45;inner&#45;node&#45;&gt;0 -->
<g id="edge11" class="edge"><path fill="none" stroke="black" d="M607.526,-85.8661C607.794,-84.5495 610.13,-73.8646 616.5,-69 652.998,-41.1249 702.081,-28.2353 744.907,-22.4785"/>
</g>
<!-- 8&#45;inner&#45;node&#45;&gt;0 -->
<g id="edge13" class="edge"><path fill="none" stroke="black" d="M1015.37,-251.831C1010.94,-245.961 892.131,-88.6756 852.344,-36.0033"/>
</g>
<!-- 9&#45;inner&#45;node&#45;&gt;1 -->
<g id="edge15" class="edge"><path fill="none" stroke="black" d="M148.584,-251.985C153.872,-251.052 408.707,-206.081 536.289,-183.567"/>
</g>
<!-- 10&#45;inner&#45;node&#45;&gt;1 -->
<g id="edge17" class="edge"><path fill="none" stroke="black" d="M482.535,-251.876C482.888,-250.656 485.882,-240.716 491.5,-235 511.654,-214.495 539.783,-198.756 563.293,-188.017"/>
</g>
<!-- 11&#45;inner&#45;node&#45;&gt;1 -->
<g id="edge19" class="edge"><path fill="none" stroke="black" d="M308.554,-251.985C311.784,-251.11 457.862,-211.537 544.595,-188.041"/>
</g>
<!-- 12&#45;inner&#45;node&#45;&gt;1 -->
<g id="edge21" class="edge"><path fill="none" stroke="black" d="M883.461,-251.871C883.075,-250.603 879.784,-240.296 873.5,-235 843.707,-209.892 829.056,-214.372 791.5,-204 754.742,-193.849 712.964,-186.064 678.518,-180.612"/>
</g>
</g>
</svg>