<!DOCTYPE svg PUBLIC "-//W3C//DTD SVG 1.1//EN" "http://www.w3.org/Graphics/SVG/1.1/DTD/svg11.dtd">
<!-- Generated by graphviz version 2.38.0 (20140413.2041)
 --><!-- Title: G Pages: 1 --><svg xmlns="http://www.w3.org/2000/svg" xmlns:xlink="http://www.w3.org/1999/xlink" width="109pt" height="189pt" viewBox="0.00 0.00 109.00 189.00">
<g id="graph0" class="graph" transform="scale(1 1) rotate(0) translate(4 185)">
<!-- 0 -->
<g id="node1" class="node"><defs>
<linearGradient id="l_0" gradientUnits="userSpaceOnUse" x1="50.5" y1="-3.55271e-014" x2="50.5" y2="-77">
<stop offset="0" style="stop-color:#ffffbb;stop-opacity:1.;"/>
<stop offset="1" style="stop-color:#ffffee;stop-opacity:1.;"/>
</linearGradient>
</defs>
<polygon fill="url(#l_0)" stroke="black" points="101,-77 0,-77 0,-0 101,-0 101,-77"/>
<text text-anchor="start" x="19" y="-62.5" font-family="Arial" font-size="10.00" fill="black">&lt;&lt;dataType&gt;&gt;</text>
<text text-anchor="start" x="35.5" y="-47.7" font-family="Arial" font-weight="bold" font-size="11.00" fill="black">Force</text>
<text text-anchor="start" x="10.5" y="-23.5" font-family="Arial" font-size="10.00" fill="black"><a fill="navy" href="../reference/PhysicalQuantities/Force.html#dexpi-physicalquantities-force-unit" target="_parent">Unit</a>&#160;:</text>
<text text-anchor="start" x="45.5" y="-23.5" font-family="Arial" font-size="10.00" fill="black"><a fill="navy" href="../reference/PhysicalQuantities/ForceUnit.html" target="_parent">ForceUnit</a>&#160;</text>
<text text-anchor="start" x="10.5" y="-8.5" font-family="Arial" font-size="10.00" fill="black"><a fill="navy" href="../reference/PhysicalQuantities/Force.html#dexpi-physicalquantities-force-value" target="_parent">Value</a>&#160;:</text>
<text text-anchor="start" x="45.5" y="-8.5" font-family="Arial" font-size="10.00" fill="black"><a fill="navy" href="../reference/DataTypes/Double.html" target="_parent">Double</a>&#160;</text>
<polygon fill="black" stroke="black" points="101.0,-41.5 0.0,-41.5 0.0,-41.5 101.0,-41.5 101.0,-41.5"/>
</g>
<!-- 5 -->
<g id="node2" class="node"><defs>
<linearGradient id="l_1" gradientUnits="userSpaceOnUse" x1="50.5" y1="-142" x2="50.5" y2="-181">
<stop offset="0" style="stop-color:#ffffbb;stop-opacity:1.;"/>
<stop offset="1" style="stop-color:#ffffee;stop-opacity:1.;"/>
</linearGradient>
</defs>
<polygon fill="url(#l_1)" stroke="black" points="97,-181 4,-181 4,-142 97,-142 97,-181"/>
<text text-anchor="start" x="19" y="-166.5" font-family="Arial" font-size="10.00" fill="black">&lt;&lt;dataType&gt;&gt;</text>
<text text-anchor="start" x="14.5" y="-151.7" font-family="Arial" font-weight="bold" font-style="italic" font-size="11.00" fill="black"><a fill="navy" href="../reference/PhysicalQuantities/NullableForce.html" target="_parent">NullableForce</a></text>
</g>
<!-- 6&#45;inner&#45;node -->
<!-- 5&#45;&gt;6&#45;inner&#45;node -->
<g id="edge1" class="edge"><path fill="none" stroke="black" d="M50.5,-131.92C50.5,-120.959 50.5,-110.85 50.5,-110.051L50.5,-108.95"/>
<polygon fill="none" stroke="black" points="47.0001,-131.982 50.5,-141.982 54.0001,-131.982 47.0001,-131.982"/>
</g>
<!-- 6&#45;inner&#45;node&#45;&gt;0 -->
<g id="edge2" class="edge"><path fill="none" stroke="black" d="M50.5,-108.95C50.5,-107.971 50.5,-92.8959 50.5,-77.0406"/>
</g>
</g>
</svg>