<!DOCTYPE svg PUBLIC "-//W3C//DTD SVG 1.1//EN" "http://www.w3.org/Graphics/SVG/1.1/DTD/svg11.dtd">
<!-- Generated by graphviz version 2.38.0 (20140413.2041)
 --><!-- Title: G Pages: 1 --><svg xmlns="http://www.w3.org/2000/svg" xmlns:xlink="http://www.w3.org/1999/xlink" width="867pt" height="856pt" viewBox="0.00 0.00 866.50 856.00">
<g id="graph0" class="graph" transform="scale(1 1) rotate(0) translate(4 852)">
<!-- 0 -->
<g id="node1" class="node"><defs>
<linearGradient id="l_0" gradientUnits="userSpaceOnUse" x1="457.5" y1="-83" x2="457.5" y2="-175">
<stop offset="0" style="stop-color:#ffffbb;stop-opacity:1.;"/>
<stop offset="1" style="stop-color:#ffffee;stop-opacity:1.;"/>
</linearGradient>
</defs>
<polygon fill="url(#l_0)" stroke="black" points="636.5,-175 278.5,-175 278.5,-83 636.5,-83 636.5,-175"/>
<text text-anchor="start" x="433" y="-161.2" font-family="Arial" font-weight="bold" font-size="11.00" fill="black">GasFilter</text>
<text text-anchor="start" x="288.5" y="-137" font-family="Arial" font-size="10.00" fill="black"><a fill="navy" href="../reference/Equipment/GasFilter.html#dexpi-equipment-gasfilter-designcapacityvolumeflowrate" target="_parent">DesignCapacityVolumeFlowRate</a>&#160;:</text>
<text text-anchor="start" x="476.5" y="-137" font-family="Arial" font-size="10.00" fill="black"><a fill="navy" href="../reference/PhysicalQuantities/NullableVolumeFlowRate.html" target="_parent">NullableVolumeFlowRate</a>&#160;[0..1]</text>
<text text-anchor="start" x="288.5" y="-122" font-family="Arial" font-size="10.00" fill="black"><a fill="navy" href="../reference/Equipment/GasFilter.html#dexpi-equipment-gasfilter-designrotationalspeed" target="_parent">DesignRotationalSpeed</a>&#160;:</text>
<text text-anchor="start" x="476.5" y="-122" font-family="Arial" font-size="10.00" fill="black"><a fill="navy" href="../reference/PhysicalQuantities/NullableRotationalFrequency.html" target="_parent">NullableRotationalFrequency</a>&#160;[0..1]</text>
<text text-anchor="start" x="288.5" y="-107" font-family="Arial" font-size="10.00" fill="black"><a fill="navy" href="../reference/Equipment/GasFilter.html#dexpi-equipment-gasfilter-designshaftpower" target="_parent">DesignShaftPower</a>&#160;:</text>
<text text-anchor="start" x="476.5" y="-107" font-family="Arial" font-size="10.00" fill="black"><a fill="navy" href="../reference/PhysicalQuantities/NullablePower.html" target="_parent">NullablePower</a>&#160;[0..1]</text>
<text text-anchor="start" x="288.5" y="-92" font-family="Arial" font-size="10.00" fill="black"><a fill="navy" href="../reference/Equipment/GasFilter.html#dexpi-equipment-gasfilter-upperlimitallowabledesignpressuredrop" target="_parent">UpperLimitAllowableDesignPressureDrop</a>&#160;:</text>
<text text-anchor="start" x="476.5" y="-92" font-family="Arial" font-size="10.00" fill="black"><a fill="navy" href="../reference/PhysicalQuantities/NullablePressureAbsolute.html" target="_parent">NullablePressureAbsolute</a>&#160;[0..1]</text>
<polygon fill="black" stroke="black" points="636.5,-155.0 278.5,-155.0 278.5,-155.0 636.5,-155.0 636.5,-155.0"/>
</g>
<!-- 29 -->
<g id="node11" class="node"><defs>
<linearGradient id="l_1" gradientUnits="userSpaceOnUse" x1="457.5" y1="-1.77636e-014" x2="457.5" y2="-36">
<stop offset="0" style="stop-color:#ffffbb;stop-opacity:1.;"/>
<stop offset="1" style="stop-color:#ffffee;stop-opacity:1.;"/>
</linearGradient>
</defs>
<polygon fill="url(#l_1)" stroke="black" points="492.5,-36 422.5,-36 422.5,-0 492.5,-0 492.5,-36"/>
<text text-anchor="start" x="432.5" y="-16.2" font-family="Arial" font-weight="bold" font-size="11.00" fill="black"><a fill="navy" href="../reference/Equipment/FilterUnit.html" target="_parent">FilterUnit</a></text>
</g>
<!-- 0&#45;&gt;29 -->
<g id="edge2" class="edge"><path fill="none" stroke="#000000" d="M457.5,-70.6218C457.5,-62.1249 457.5,-53.7215 457.5,-46.2409"/>
<polygon fill="#000000" stroke="#000000" points="457.5,-70.7211 461.5,-76.7212 457.5,-82.7211 453.5,-76.7211 457.5,-70.7211"/>
<polygon fill="#000000" stroke="#000000" points="457.5,-36.0378 462,-46.0378 457.5,-41.0378 457.5,-46.0378 457.5,-46.0378 457.5,-46.0378 457.5,-41.0378 453,-46.0378 457.5,-36.0378 457.5,-36.0378"/>
<text text-anchor="start" x="459.5" y="-56.5" font-family="Arial" font-size="10.00" fill="black"><a fill="navy" href="../reference/Equipment/GasFilter.html#dexpi-equipment-gasfilter-filterunit" target="_parent">FilterUnit</a></text>
<text text-anchor="start" x="436.5" y="-39.0378" font-family="Arial" font-size="10.00" fill="black">0..1</text>
<text text-anchor="start" x="428.5" y="-72.7211" font-family="Arial" font-size="10.00" fill="black">0..1</text>
</g>
<!-- 10 -->
<g id="node2" class="node"><defs>
<linearGradient id="l_2" gradientUnits="userSpaceOnUse" x1="766.5" y1="-795" x2="766.5" y2="-848">
<stop offset="0" style="stop-color:#fbfbfb;stop-opacity:1.;"/>
<stop offset="1" style="stop-color:#fefefe;stop-opacity:1.;"/>
</linearGradient>
</defs>
<polygon fill="url(#l_2)" stroke="black" points="858.5,-837.0 847.5,-848.0 674.5,-848.0 674.5,-795.0 858.5,-795.0"/><path d="M858.5,-837.0L847.5,-837.0 847.5,-848.0" fill="none" stroke="black"/>
<text text-anchor="start" x="684.5" y="-833.5" font-family="Arial" font-size="10.00" fill="black">For&#160;the&#160;sake&#160;of&#160;clarity,&#160;superclasses&#160;</text>
<text text-anchor="start" x="684.5" y="-818.5" font-family="Arial" font-size="10.00" fill="black">and&#160;associations&#160;of&#160;<a fill="navy" href="../reference/PlantStructure/TechnicalItem.html" target="_parent">TechnicalItem</a>&#160;are</text>
<text text-anchor="start" x="684.5" y="-803.5" font-family="Arial" font-size="10.00" fill="black">not&#160;shown&#160;in&#160;this&#160;diagram.</text>
</g>
<!-- 9 -->
<g id="node3" class="node"><defs>
<linearGradient id="l_3" gradientUnits="userSpaceOnUse" x1="766.5" y1="-712" x2="766.5" y2="-748">
<stop offset="0" style="stop-color:#ffffbb;stop-opacity:1.;"/>
<stop offset="1" style="stop-color:#ffffee;stop-opacity:1.;"/>
</linearGradient>
</defs>
<polygon fill="url(#l_3)" stroke="black" points="813,-748 720,-748 720,-712 813,-712 813,-748"/>
<text text-anchor="start" x="730.5" y="-728.2" font-family="Arial" font-weight="bold" font-style="italic" font-size="11.00" fill="black"><a fill="navy" href="../reference/PlantStructure/TechnicalItem.html" target="_parent">TechnicalItem</a></text>
</g>
<!-- 10&#45;&gt;9 -->
<g id="edge1" class="edge"><path fill="none" stroke="#000000" stroke-dasharray="5,2" d="M766.5,-794.613C766.5,-779.641 766.5,-761.222 766.5,-748.063"/>
</g>
<!-- 26&#45;inner&#45;node -->
<!-- 9&#45;&gt;26&#45;inner&#45;node -->
<g id="edge27" class="edge"><path fill="none" stroke="black" d="M766.5,-701.649C766.5,-678.987 766.5,-650.163 766.5,-648.116L766.362,-645.941"/>
<polygon fill="none" stroke="black" points="763,-701.822 766.5,-711.822 770,-701.822 763,-701.822"/>
</g>
<!-- 12 -->
<g id="node4" class="node"><defs>
<linearGradient id="l_4" gradientUnits="userSpaceOnUse" x1="457.5" y1="-242" x2="457.5" y2="-278">
<stop offset="0" style="stop-color:#ffffbb;stop-opacity:1.;"/>
<stop offset="1" style="stop-color:#ffffee;stop-opacity:1.;"/>
</linearGradient>
</defs>
<polygon fill="url(#l_4)" stroke="black" points="484.5,-278 430.5,-278 430.5,-242 484.5,-242 484.5,-278"/>
<text text-anchor="start" x="443.5" y="-258.2" font-family="Arial" font-weight="bold" font-size="11.00" fill="black"><a fill="navy" href="../reference/Equipment/Filter.html" target="_parent">Filter</a></text>
</g>
<!-- 19&#45;inner&#45;node -->
<!-- 12&#45;&gt;19&#45;inner&#45;node -->
<g id="edge13" class="edge"><path fill="none" stroke="black" d="M457.5,-231.603C457.5,-220.422 457.5,-209.887 457.5,-209.053L457.5,-207.943"/>
<polygon fill="none" stroke="black" points="454,-231.793 457.5,-241.793 461,-231.793 454,-231.793"/>
</g>
<!-- 13 -->
<g id="node5" class="node"><defs>
<linearGradient id="l_5" gradientUnits="userSpaceOnUse" x1="457.5" y1="-394" x2="457.5" y2="-430">
<stop offset="0" style="stop-color:#ffffbb;stop-opacity:1.;"/>
<stop offset="1" style="stop-color:#ffffee;stop-opacity:1.;"/>
</linearGradient>
</defs>
<polygon fill="url(#l_5)" stroke="black" points="496.5,-430 418.5,-430 418.5,-394 496.5,-394 496.5,-430"/>
<text text-anchor="start" x="428.5" y="-410.2" font-family="Arial" font-weight="bold" font-style="italic" font-size="11.00" fill="black"><a fill="navy" href="../reference/Equipment/Equipment.html" target="_parent">Equipment</a></text>
</g>
<!-- 32 -->
<g id="node12" class="node"><defs>
<linearGradient id="l_6" gradientUnits="userSpaceOnUse" x1="51.5" y1="-311" x2="51.5" y2="-347">
<stop offset="0" style="stop-color:#ffffbb;stop-opacity:1.;"/>
<stop offset="1" style="stop-color:#ffffee;stop-opacity:1.;"/>
</linearGradient>
</defs>
<polygon fill="url(#l_6)" stroke="black" points="103,-347 0,-347 0,-311 103,-311 103,-347"/>
<text text-anchor="start" x="10.5" y="-327.2" font-family="Arial" font-weight="bold" font-size="11.00" fill="black"><a fill="navy" href="../reference/Equipment/DryingChamber.html" target="_parent">DryingChamber</a></text>
</g>
<!-- 13&#45;&gt;32 -->
<g id="edge3" class="edge"><path fill="none" stroke="#000000" d="M406.027,-411.446C342.858,-410.672 233.105,-405.013 143.5,-378 123.707,-372.033 103.174,-361.771 86.54,-352.264"/>
<polygon fill="#000000" stroke="#000000" points="406.398,-411.449 412.429,-407.495 418.398,-411.542 412.367,-415.495 406.398,-411.449"/>
<polygon fill="#000000" stroke="#000000" points="77.7299,-347.091 88.6319,-348.274 82.0418,-349.623 86.3536,-352.154 86.3536,-352.154 86.3536,-352.154 82.0418,-349.623 84.0753,-356.035 77.7299,-347.091 77.7299,-347.091"/>
<text text-anchor="start" x="146" y="-367.5" font-family="Arial" font-size="10.00" fill="black"><a fill="navy" href="../reference/Equipment/Equipment.html#dexpi-equipment-equipment-dryingchambers" target="_parent">DryingChambers</a></text>
<text text-anchor="start" x="69.7299" y="-350.091" font-family="Arial" font-size="10.00" fill="black">*</text>
<text text-anchor="start" x="389.398" y="-412.542" font-family="Arial" font-size="10.00" fill="black">0..1</text>
</g>
<!-- 35 -->
<g id="node13" class="node"><defs>
<linearGradient id="l_7" gradientUnits="userSpaceOnUse" x1="155.5" y1="-311" x2="155.5" y2="-347">
<stop offset="0" style="stop-color:#ffffbb;stop-opacity:1.;"/>
<stop offset="1" style="stop-color:#ffffee;stop-opacity:1.;"/>
</linearGradient>
</defs>
<polygon fill="url(#l_7)" stroke="black" points="189.5,-347 121.5,-347 121.5,-311 189.5,-311 189.5,-347"/>
<text text-anchor="start" x="131.5" y="-327.2" font-family="Arial" font-weight="bold" font-size="11.00" fill="black"><a fill="navy" href="../reference/Equipment/GearBox.html" target="_parent">GearBox</a></text>
</g>
<!-- 13&#45;&gt;35 -->
<g id="edge4" class="edge"><path fill="none" stroke="#000000" d="M406.201,-405.816C366.621,-400.972 310.82,-392.294 263.5,-378 241.05,-371.218 217.118,-360.924 197.503,-351.606"/>
<polygon fill="#000000" stroke="#000000" points="406.275,-405.824 412.702,-402.553 418.193,-407.227 411.767,-410.498 406.275,-405.824"/>
<polygon fill="#000000" stroke="#000000" points="188.246,-347.129 199.207,-347.432 192.747,-349.306 197.248,-351.483 197.248,-351.483 197.248,-351.483 192.747,-349.306 195.289,-355.534 188.246,-347.129 188.246,-347.129"/>
<text text-anchor="start" x="266" y="-367.5" font-family="Arial" font-size="10.00" fill="black"><a fill="navy" href="../reference/Equipment/Equipment.html#dexpi-equipment-equipment-gearboxes" target="_parent">GearBoxes</a></text>
<text text-anchor="start" x="180.246" y="-350.129" font-family="Arial" font-size="10.00" fill="black">*</text>
<text text-anchor="start" x="389.193" y="-397.227" font-family="Arial" font-size="10.00" fill="black">0..1</text>
</g>
<!-- 38 -->
<g id="node14" class="node"><defs>
<linearGradient id="l_8" gradientUnits="userSpaceOnUse" x1="270.5" y1="-311" x2="270.5" y2="-347">
<stop offset="0" style="stop-color:#ffffbb;stop-opacity:1.;"/>
<stop offset="1" style="stop-color:#ffffee;stop-opacity:1.;"/>
</linearGradient>
</defs>
<polygon fill="url(#l_8)" stroke="black" points="333.5,-347 207.5,-347 207.5,-311 333.5,-311 333.5,-347"/>
<text text-anchor="start" x="217.5" y="-327.2" font-family="Arial" font-weight="bold" font-size="11.00" fill="black"><a fill="navy" href="../reference/Equipment/MotorAsComponent.html" target="_parent">MotorAsComponent</a></text>
</g>
<!-- 13&#45;&gt;38 -->
<g id="edge5" class="edge"><path fill="none" stroke="#000000" d="M406.67,-399.044C387.398,-393.7 365.526,-386.637 346.5,-378 331.23,-371.068 315.388,-361.498 302.145,-352.726"/>
<polygon fill="#000000" stroke="#000000" points="406.692,-399.049 413.521,-396.734 418.285,-402.147 411.456,-404.463 406.692,-399.049"/>
<polygon fill="#000000" stroke="#000000" points="293.85,-347.112 304.654,-348.99 297.991,-349.914 302.132,-352.717 302.132,-352.717 302.132,-352.717 297.991,-349.914 299.61,-356.443 293.85,-347.112 293.85,-347.112"/>
<text text-anchor="start" x="349" y="-367.5" font-family="Arial" font-size="10.00" fill="black"><a fill="navy" href="../reference/Equipment/Equipment.html#dexpi-equipment-equipment-motors" target="_parent">Motors</a></text>
<text text-anchor="start" x="285.85" y="-350.112" font-family="Arial" font-size="10.00" fill="black">*</text>
<text text-anchor="start" x="389.285" y="-392.147" font-family="Arial" font-size="10.00" fill="black">0..1</text>
</g>
<!-- 41 -->
<g id="node15" class="node"><defs>
<linearGradient id="l_9" gradientUnits="userSpaceOnUse" x1="395.5" y1="-311" x2="395.5" y2="-347">
<stop offset="0" style="stop-color:#ffffbb;stop-opacity:1.;"/>
<stop offset="1" style="stop-color:#ffffee;stop-opacity:1.;"/>
</linearGradient>
</defs>
<polygon fill="url(#l_9)" stroke="black" points="439,-347 352,-347 352,-311 439,-311 439,-347"/>
<text text-anchor="start" x="362.5" y="-327.2" font-family="Arial" font-weight="bold" font-size="11.00" fill="black"><a fill="navy" href="../reference/Equipment/SprayNozzle.html" target="_parent">SprayNozzle</a></text>
</g>
<!-- 13&#45;&gt;41 -->
<g id="edge6" class="edge"><path fill="none" stroke="#000000" d="M407.357,-395.548C399.867,-391.067 393.12,-385.33 388.5,-378 384.594,-371.802 384.151,-364.272 385.269,-357.033"/>
<polygon fill="#000000" stroke="#000000" points="407.588,-395.664 414.747,-394.802 418.297,-401.08 411.137,-401.942 407.588,-395.664"/>
<polygon fill="#000000" stroke="#000000" points="387.69,-347.16 389.678,-357.944 386.499,-352.016 385.308,-356.873 385.308,-356.873 385.308,-356.873 386.499,-352.016 380.937,-355.801 387.69,-347.16 387.69,-347.16"/>
<text text-anchor="start" x="391" y="-367.5" font-family="Arial" font-size="10.00" fill="black"><a fill="navy" href="../reference/Equipment/Equipment.html#dexpi-equipment-equipment-spraynozzles" target="_parent">SprayNozzles</a></text>
<text text-anchor="start" x="379.69" y="-350.16" font-family="Arial" font-size="10.00" fill="black">*</text>
<text text-anchor="start" x="406.297" y="-391.08" font-family="Arial" font-size="10.00" fill="black">0..1</text>
</g>
<!-- 20&#45;inner&#45;node -->
<!-- 13&#45;&gt;20&#45;inner&#45;node -->
<g id="edge15" class="edge"><path fill="none" stroke="black" d="M457.5,-383.649C457.5,-360.987 457.5,-332.163 457.5,-330.116L457.5,-327.951"/>
<polygon fill="none" stroke="black" points="454,-383.822 457.5,-393.822 461,-383.822 454,-383.822"/>
</g>
<!-- 14 -->
<g id="node6" class="node"><defs>
<linearGradient id="l_10" gradientUnits="userSpaceOnUse" x1="341.5" y1="-546" x2="341.5" y2="-582">
<stop offset="0" style="stop-color:#ffffbb;stop-opacity:1.;"/>
<stop offset="1" style="stop-color:#ffffee;stop-opacity:1.;"/>
</linearGradient>
</defs>
<polygon fill="url(#l_10)" stroke="black" points="394,-582 289,-582 289,-546 394,-546 394,-582"/>
<text text-anchor="start" x="299.5" y="-562.2" font-family="Arial" font-weight="bold" font-style="italic" font-size="11.00" fill="black"><a fill="navy" href="../reference/Equipment/ChamberOwner.html" target="_parent">ChamberOwner</a></text>
</g>
<!-- 44 -->
<g id="node16" class="node"><defs>
<linearGradient id="l_11" gradientUnits="userSpaceOnUse" x1="277.5" y1="-463" x2="277.5" y2="-499">
<stop offset="0" style="stop-color:#ffffbb;stop-opacity:1.;"/>
<stop offset="1" style="stop-color:#ffffee;stop-opacity:1.;"/>
</linearGradient>
</defs>
<polygon fill="url(#l_11)" stroke="black" points="312,-499 243,-499 243,-463 312,-463 312,-499"/>
<text text-anchor="start" x="253.5" y="-479.2" font-family="Arial" font-weight="bold" font-size="11.00" fill="black"><a fill="navy" href="../reference/Equipment/Chamber.html" target="_parent">Chamber</a></text>
</g>
<!-- 14&#45;&gt;44 -->
<g id="edge7" class="edge"><path fill="none" stroke="#000000" d="M295.598,-538.09C292.972,-535.591 290.565,-532.896 288.5,-530 284.181,-523.945 281.527,-516.461 279.905,-509.22"/>
<polygon fill="#000000" stroke="#000000" points="295.859,-538.3 303.041,-538.955 305.199,-545.835 298.017,-545.181 295.859,-538.3"/>
<polygon fill="#000000" stroke="#000000" points="278.234,-499.318 284.336,-508.43 279.066,-504.248 279.898,-509.179 279.898,-509.179 279.898,-509.179 279.066,-504.248 275.461,-509.928 278.234,-499.318 278.234,-499.318"/>
<text text-anchor="start" x="291" y="-519.5" font-family="Arial" font-size="10.00" fill="black"><a fill="navy" href="../reference/Equipment/ChamberOwner.html#dexpi-equipment-chamberowner-chambers" target="_parent">Chambers</a></text>
<text text-anchor="start" x="270.234" y="-502.318" font-family="Arial" font-size="10.00" fill="black">*</text>
<text text-anchor="start" x="276.199" y="-535.835" font-family="Arial" font-size="10.00" fill="black">0..1</text>
</g>
<!-- 21&#45;inner&#45;node -->
<!-- 14&#45;&gt;21&#45;inner&#45;node -->
<g id="edge17" class="edge"><path fill="none" stroke="black" d="M341.5,-535.649C341.5,-512.987 341.5,-484.163 341.5,-482.116L341.64,-479.884"/>
<polygon fill="none" stroke="black" points="338,-535.822 341.5,-545.822 345,-535.822 338,-535.822"/>
</g>
<!-- 15 -->
<g id="node7" class="node"><defs>
<linearGradient id="l_12" gradientUnits="userSpaceOnUse" x1="457.5" y1="-546" x2="457.5" y2="-582">
<stop offset="0" style="stop-color:#ffffbb;stop-opacity:1.;"/>
<stop offset="1" style="stop-color:#ffffee;stop-opacity:1.;"/>
</linearGradient>
</defs>
<polygon fill="url(#l_12)" stroke="black" points="502.5,-582 412.5,-582 412.5,-546 502.5,-546 502.5,-582"/>
<text text-anchor="start" x="422.5" y="-562.2" font-family="Arial" font-weight="bold" font-style="italic" font-size="11.00" fill="black"><a fill="navy" href="../reference/Equipment/NozzleOwner.html" target="_parent">NozzleOwner</a></text>
</g>
<!-- 47 -->
<g id="node17" class="node"><defs>
<linearGradient id="l_13" gradientUnits="userSpaceOnUse" x1="402.5" y1="-463" x2="402.5" y2="-499">
<stop offset="0" style="stop-color:#ffffbb;stop-opacity:1.;"/>
<stop offset="1" style="stop-color:#ffffee;stop-opacity:1.;"/>
</linearGradient>
</defs>
<polygon fill="url(#l_13)" stroke="black" points="431,-499 374,-499 374,-463 431,-463 431,-499"/>
<text text-anchor="start" x="384.5" y="-479.2" font-family="Arial" font-weight="bold" font-size="11.00" fill="black"><a fill="navy" href="../reference/Equipment/Nozzle.html" target="_parent">Nozzle</a></text>
</g>
<!-- 15&#45;&gt;47 -->
<g id="edge8" class="edge"><path fill="none" stroke="#000000" d="M419.289,-537.384C417.147,-535.056 415.185,-532.592 413.5,-530 409.447,-523.763 406.878,-516.222 405.253,-508.983"/>
<polygon fill="#000000" stroke="#000000" points="419.431,-537.515 426.552,-538.651 428.242,-545.662 421.121,-544.525 419.431,-537.515"/>
<polygon fill="#000000" stroke="#000000" points="403.528,-499.118 409.683,-508.193 404.389,-504.043 405.251,-508.969 405.251,-508.969 405.251,-508.969 404.389,-504.043 400.818,-509.744 403.528,-499.118 403.528,-499.118"/>
<text text-anchor="start" x="415.5" y="-519.5" font-family="Arial" font-size="10.00" fill="black"><a fill="navy" href="../reference/Equipment/NozzleOwner.html#dexpi-equipment-nozzleowner-nozzles" target="_parent">Nozzles</a></text>
<text text-anchor="start" x="395.528" y="-502.118" font-family="Arial" font-size="10.00" fill="black">*</text>
<text text-anchor="start" x="399.242" y="-535.662" font-family="Arial" font-size="10.00" fill="black">0..1</text>
</g>
<!-- 22&#45;inner&#45;node -->
<!-- 15&#45;&gt;22&#45;inner&#45;node -->
<g id="edge19" class="edge"><path fill="none" stroke="black" d="M457.5,-535.649C457.5,-512.987 457.5,-484.163 457.5,-482.116L457.5,-479.951"/>
<polygon fill="none" stroke="black" points="454,-535.822 457.5,-545.822 461,-535.822 454,-535.822"/>
</g>
<!-- 16 -->
<g id="node8" class="node"><defs>
<linearGradient id="l_14" gradientUnits="userSpaceOnUse" x1="575.5" y1="-546" x2="575.5" y2="-582">
<stop offset="0" style="stop-color:#ffffbb;stop-opacity:1.;"/>
<stop offset="1" style="stop-color:#ffffee;stop-opacity:1.;"/>
</linearGradient>
</defs>
<polygon fill="url(#l_14)" stroke="black" points="630,-582 521,-582 521,-546 630,-546 630,-582"/>
<text text-anchor="start" x="531.5" y="-562.2" font-family="Arial" font-weight="bold" font-style="italic" font-size="11.00" fill="black"><a fill="navy" href="../reference/Equipment/TaggedPlantItem.html" target="_parent">TaggedPlantItem</a></text>
</g>
<!-- 23&#45;inner&#45;node -->
<!-- 16&#45;&gt;23&#45;inner&#45;node -->
<g id="edge21" class="edge"><path fill="none" stroke="black" d="M575.5,-535.649C575.5,-512.987 575.5,-484.163 575.5,-482.116L575.414,-479.951"/>
<polygon fill="none" stroke="black" points="572,-535.822 575.5,-545.822 579,-535.822 572,-535.822"/>
</g>
<!-- 17 -->
<g id="node9" class="node"><defs>
<linearGradient id="l_15" gradientUnits="userSpaceOnUse" x1="471.5" y1="-712" x2="471.5" y2="-748">
<stop offset="0" style="stop-color:#ffffbb;stop-opacity:1.;"/>
<stop offset="1" style="stop-color:#ffffee;stop-opacity:1.;"/>
</linearGradient>
</defs>
<polygon fill="url(#l_15)" stroke="black" points="529,-748 414,-748 414,-712 529,-712 529,-748"/>
<text text-anchor="start" x="424.5" y="-728.2" font-family="Arial" font-weight="bold" font-style="italic" font-size="11.00" fill="black"><a fill="navy" href="../reference/DexpiModel/ConceptualObject.html" target="_parent">ConceptualObject</a></text>
</g>
<!-- 24&#45;inner&#45;node -->
<!-- 17&#45;&gt;24&#45;inner&#45;node -->
<g id="edge23" class="edge"><path fill="none" stroke="black" d="M471.5,-701.649C471.5,-678.987 471.5,-650.163 471.5,-648.116L471.538,-645.879"/>
<polygon fill="none" stroke="black" points="468,-701.822 471.5,-711.822 475,-701.822 468,-701.822"/>
</g>
<!-- 18 -->
<g id="node10" class="node"><defs>
<linearGradient id="l_16" gradientUnits="userSpaceOnUse" x1="629.5" y1="-712" x2="629.5" y2="-748">
<stop offset="0" style="stop-color:#ffffbb;stop-opacity:1.;"/>
<stop offset="1" style="stop-color:#ffffee;stop-opacity:1.;"/>
</linearGradient>
</defs>
<polygon fill="url(#l_16)" stroke="black" points="701.5,-748 557.5,-748 557.5,-712 701.5,-712 701.5,-748"/>
<text text-anchor="start" x="567.5" y="-728.2" font-family="Arial" font-weight="bold" font-style="italic" font-size="11.00" fill="black"><a fill="navy" href="../reference/Customization/CustomAttributeOwner.html" target="_parent">CustomAttributeOwner</a></text>
</g>
<!-- 59 -->
<g id="node21" class="node"><defs>
<linearGradient id="l_17" gradientUnits="userSpaceOnUse" x1="544.5" y1="-629" x2="544.5" y2="-665">
<stop offset="0" style="stop-color:#ffffbb;stop-opacity:1.;"/>
<stop offset="1" style="stop-color:#ffffee;stop-opacity:1.;"/>
</linearGradient>
</defs>
<polygon fill="url(#l_17)" stroke="black" points="599,-665 490,-665 490,-629 599,-629 599,-665"/>
<text text-anchor="start" x="500.5" y="-645.2" font-family="Arial" font-weight="bold" font-style="italic" font-size="11.00" fill="black"><a fill="navy" href="../reference/Customization/CustomAttribute.html" target="_parent">CustomAttribute</a></text>
</g>
<!-- 18&#45;&gt;59 -->
<g id="edge12" class="edge"><path fill="none" stroke="#000000" d="M552.949,-704.486C550.181,-701.933 547.67,-699.113 545.5,-696 541.402,-690.119 539.944,-682.772 539.815,-675.608"/>
<polygon fill="#000000" stroke="#000000" points="552.998,-704.523 560.196,-704.959 562.563,-711.77 555.365,-711.335 552.998,-704.523"/>
<polygon fill="#000000" stroke="#000000" points="540.425,-665.435 544.319,-675.687 540.126,-670.426 539.827,-675.417 539.827,-675.417 539.827,-675.417 540.126,-670.426 535.335,-675.148 540.425,-665.435 540.425,-665.435"/>
<text text-anchor="start" x="547.5" y="-685.5" font-family="Arial" font-size="10.00" fill="black"><a fill="navy" href="../reference/Customization/CustomAttributeOwner.html#dexpi-customization-customattributeowner-customattributes" target="_parent">CustomAttributes</a></text>
<text text-anchor="start" x="532.425" y="-668.435" font-family="Arial" font-size="10.00" fill="black">*</text>
<text text-anchor="start" x="533.563" y="-701.77" font-family="Arial" font-size="10.00" fill="black">0..1</text>
</g>
<!-- 25&#45;inner&#45;node -->
<!-- 18&#45;&gt;25&#45;inner&#45;node -->
<g id="edge25" class="edge"><path fill="none" stroke="black" d="M629.5,-701.649C629.5,-678.987 629.5,-650.163 629.5,-648.116L629.461,-645.941"/>
<polygon fill="none" stroke="black" points="626,-701.822 629.5,-711.822 633,-701.822 626,-701.822"/>
</g>
<!-- 50 -->
<g id="node18" class="node"><defs>
<linearGradient id="l_18" gradientUnits="userSpaceOnUse" x1="395.5" y1="-629" x2="395.5" y2="-665">
<stop offset="0" style="stop-color:#ffffbb;stop-opacity:1.;"/>
<stop offset="1" style="stop-color:#ffffee;stop-opacity:1.;"/>
</linearGradient>
</defs>
<polygon fill="url(#l_18)" stroke="black" points="452.5,-665 338.5,-665 338.5,-629 452.5,-629 452.5,-665"/>
<text text-anchor="start" x="348.5" y="-645.2" font-family="Arial" font-weight="bold" font-size="11.00" fill="black"><a fill="navy" href="../reference/DexpiModel/ConceptualModel.html" target="_parent">ConceptualModel</a></text>
</g>
<!-- 50&#45;&gt;16 -->
<g id="edge9" class="edge"><path fill="none" stroke="#000000" d="M400.324,-617.016C402.842,-609.86 406.673,-602.862 412.5,-598 444.518,-571.287 465.123,-588.682 510.934,-581.726"/>
<polygon fill="#000000" stroke="#000000" points="400.262,-617.253 402.602,-624.074 397.205,-628.857 394.865,-622.036 400.262,-617.253"/>
<polygon fill="#000000" stroke="#000000" points="520.773,-579.92 511.751,-586.152 515.856,-580.823 510.938,-581.726 510.938,-581.726 510.938,-581.726 515.856,-580.823 510.125,-577.3 520.773,-579.92 520.773,-579.92"/>
<text text-anchor="start" x="415" y="-602.5" font-family="Arial" font-size="10.00" fill="black"><a fill="navy" href="../reference/DexpiModel/ConceptualModel.html#dexpi-dexpimodel-conceptualmodel-taggedplantitems" target="_parent">TaggedPlantItems</a></text>
<text text-anchor="start" x="512.773" y="-582.92" font-family="Arial" font-size="10.00" fill="black">*</text>
<text text-anchor="start" x="368.205" y="-618.857" font-family="Arial" font-size="10.00" fill="black">0..1</text>
</g>
<!-- 53 -->
<g id="node19" class="node"><defs>
<linearGradient id="l_19" gradientUnits="userSpaceOnUse" x1="368.5" y1="-803.5" x2="368.5" y2="-839.5">
<stop offset="0" style="stop-color:#ffffbb;stop-opacity:1.;"/>
<stop offset="1" style="stop-color:#ffffee;stop-opacity:1.;"/>
</linearGradient>
</defs>
<polygon fill="url(#l_19)" stroke="black" points="443,-839.5 294,-839.5 294,-803.5 443,-803.5 443,-839.5"/>
<text text-anchor="start" x="304.5" y="-819.7" font-family="Arial" font-weight="bold" font-size="11.00" fill="black"><a fill="navy" href="../reference/Graphics/AttributeRepresentation.html" target="_parent">AttributeRepresentation</a></text>
</g>
<!-- 53&#45;&gt;17 -->
<g id="edge10" class="edge"><path fill="none" stroke="#000000" d="M388.359,-803.243C404.176,-789.5 426.493,-770.108 444.024,-754.875"/>
<polygon fill="#000000" stroke="#000000" points="451.702,-748.204 447.105,-758.159 447.927,-751.483 444.153,-754.763 444.153,-754.763 444.153,-754.763 447.927,-751.483 441.201,-751.366 451.702,-748.204 451.702,-748.204"/>
<text text-anchor="start" x="435" y="-768.5" font-family="Arial" font-size="10.00" fill="black"><a fill="navy" href="../reference/Graphics/AttributeRepresentation.html#dexpi-graphics-attributerepresentation-object" target="_parent">Object</a></text>
<text text-anchor="start" x="443.702" y="-751.204" font-family="Arial" font-size="10.00" fill="black"></text>
<text text-anchor="start" x="372.359" y="-793.243" font-family="Arial" font-size="10.00" fill="black">*</text>
</g>
<!-- 56 -->
<g id="node20" class="node"><defs>
<linearGradient id="l_20" gradientUnits="userSpaceOnUse" x1="529.5" y1="-803.5" x2="529.5" y2="-839.5">
<stop offset="0" style="stop-color:#ffffbb;stop-opacity:1.;"/>
<stop offset="1" style="stop-color:#ffffee;stop-opacity:1.;"/>
</linearGradient>
</defs>
<polygon fill="url(#l_20)" stroke="black" points="598,-839.5 461,-839.5 461,-803.5 598,-803.5 598,-839.5"/>
<text text-anchor="start" x="471.5" y="-819.7" font-family="Arial" font-weight="bold" font-size="11.00" fill="black"><a fill="navy" href="../reference/Graphics/RepresentationGroup.html" target="_parent">RepresentationGroup</a></text>
</g>
<!-- 56&#45;&gt;17 -->
<g id="edge11" class="edge"><path fill="none" stroke="#000000" d="M518.317,-803.243C509.812,-790.119 497.968,-771.843 488.322,-756.958"/>
<polygon fill="#000000" stroke="#000000" points="482.649,-748.204 491.863,-754.148 485.368,-752.399 488.087,-756.595 488.087,-756.595 488.087,-756.595 485.368,-752.399 484.311,-759.043 482.649,-748.204 482.649,-748.204"/>
<text text-anchor="start" x="504.5" y="-768.5" font-family="Arial" font-size="10.00" fill="black"><a fill="navy" href="../reference/Graphics/RepresentationGroup.html#dexpi-graphics-representationgroup-represents" target="_parent">Represents</a></text>
<text text-anchor="start" x="474.649" y="-751.204" font-family="Arial" font-size="10.00" fill="black"></text>
<text text-anchor="start" x="502.317" y="-793.243" font-family="Arial" font-size="10.00" fill="black">*</text>
</g>
<!-- 19&#45;inner&#45;node&#45;&gt;0 -->
<g id="edge14" class="edge"><path fill="none" stroke="black" d="M457.5,-207.943C457.5,-206.91 457.5,-191.862 457.5,-175.26"/>
</g>
<!-- 20&#45;inner&#45;node&#45;&gt;12 -->
<g id="edge16" class="edge"><path fill="none" stroke="black" d="M457.5,-327.951C457.5,-326.604 457.5,-297.522 457.5,-278.135"/>
</g>
<!-- 21&#45;inner&#45;node&#45;&gt;13 -->
<g id="edge18" class="edge"><path fill="none" stroke="black" d="M341.64,-479.884C343.027,-478.739 354.434,-469.38 364.5,-463 383.235,-451.126 405.036,-439.306 422.819,-430.142"/>
</g>
<!-- 22&#45;inner&#45;node&#45;&gt;13 -->
<g id="edge20" class="edge"><path fill="none" stroke="black" d="M457.5,-479.951C457.5,-478.604 457.5,-449.522 457.5,-430.135"/>
</g>
<!-- 23&#45;inner&#45;node&#45;&gt;13 -->
<g id="edge22" class="edge"><path fill="none" stroke="black" d="M575.414,-479.951C573.042,-478.604 521.822,-449.522 487.677,-430.135"/>
</g>
<!-- 24&#45;inner&#45;node&#45;&gt;16 -->
<g id="edge24" class="edge"><path fill="none" stroke="black" d="M471.538,-645.879C471.92,-644.686 475.141,-634.959 480.5,-629 497.92,-609.629 522.388,-593.325 542.129,-582.02"/>
</g>
<!-- 25&#45;inner&#45;node&#45;&gt;16 -->
<g id="edge26" class="edge"><path fill="none" stroke="black" d="M629.461,-645.941C628.318,-644.226 602.391,-605.337 586.898,-582.098"/>
</g>
<!-- 26&#45;inner&#45;node&#45;&gt;16 -->
<g id="edge28" class="edge"><path fill="none" stroke="black" d="M766.362,-645.941C762.318,-644.226 670.615,-605.337 615.817,-582.098"/>
</g>
</g>
</svg>