<!DOCTYPE svg PUBLIC "-//W3C//DTD SVG 1.1//EN" "http://www.w3.org/Graphics/SVG/1.1/DTD/svg11.dtd">
<!-- Generated by graphviz version 2.38.0 (20140413.2041)
 --><!-- Title: G Pages: 1 --><svg xmlns="http://www.w3.org/2000/svg" xmlns:xlink="http://www.w3.org/1999/xlink" width="406pt" height="364pt" viewBox="0.00 0.00 406.00 364.00">
<g id="graph0" class="graph" transform="scale(1 1) rotate(0) translate(4 360)">
<!-- 0 -->
<g id="node1" class="node"><defs>
<linearGradient id="l_0" gradientUnits="userSpaceOnUse" x1="163" y1="-4.26326e-014" x2="163" y2="-107">
<stop offset="0" style="stop-color:#ffffbb;stop-opacity:1.;"/>
<stop offset="1" style="stop-color:#ffffee;stop-opacity:1.;"/>
</linearGradient>
</defs>
<polygon fill="url(#l_0)" stroke="black" points="326,-107 0,-107 0,7.10543e-015 326,7.10543e-015 326,-107"/>
<text text-anchor="start" x="139" y="-92.7" font-family="Arial" font-weight="bold" font-size="11.00" fill="black">GearBox</text>
<text text-anchor="start" x="10" y="-68.5" font-family="Arial" font-size="10.00" fill="black"><a fill="navy" href="../reference/Equipment/GearBox.html#dexpi-equipment-gearbox-designinletpower" target="_parent">DesignInletPower</a>&#160;:</text>
<text text-anchor="start" x="166" y="-68.5" font-family="Arial" font-size="10.00" fill="black"><a fill="navy" href="../reference/PhysicalQuantities/NullablePower.html" target="_parent">NullablePower</a>&#160;[0..1]</text>
<text text-anchor="start" x="10" y="-53.5" font-family="Arial" font-size="10.00" fill="black"><a fill="navy" href="../reference/Equipment/GearBox.html#dexpi-equipment-gearbox-designinletrotationalfrequency" target="_parent">DesignInletRotationalFrequency</a>&#160;:</text>
<text text-anchor="start" x="166" y="-53.5" font-family="Arial" font-size="10.00" fill="black"><a fill="navy" href="../reference/PhysicalQuantities/NullableRotationalFrequency.html" target="_parent">NullableRotationalFrequency</a>&#160;[0..1]</text>
<text text-anchor="start" x="10" y="-38.5" font-family="Arial" font-size="10.00" fill="black"><a fill="navy" href="../reference/Equipment/GearBox.html#dexpi-equipment-gearbox-designoutletpower" target="_parent">DesignOutletPower</a>&#160;:</text>
<text text-anchor="start" x="166" y="-38.5" font-family="Arial" font-size="10.00" fill="black"><a fill="navy" href="../reference/PhysicalQuantities/NullablePower.html" target="_parent">NullablePower</a>&#160;[0..1]</text>
<text text-anchor="start" x="10" y="-23.5" font-family="Arial" font-size="10.00" fill="black"><a fill="navy" href="../reference/Equipment/GearBox.html#dexpi-equipment-gearbox-designoutletrotationalfrequency" target="_parent">DesignOutletRotationalFrequency</a>&#160;:</text>
<text text-anchor="start" x="166" y="-23.5" font-family="Arial" font-size="10.00" fill="black"><a fill="navy" href="../reference/PhysicalQuantities/NullableRotationalFrequency.html" target="_parent">NullableRotationalFrequency</a>&#160;[0..1]</text>
<text text-anchor="start" x="10" y="-8.5" font-family="Arial" font-size="10.00" fill="black"><a fill="navy" href="../reference/Equipment/GearBox.html#dexpi-equipment-gearbox-subtagname" target="_parent">SubTagName</a>&#160;:</text>
<text text-anchor="start" x="166" y="-8.5" font-family="Arial" font-size="10.00" fill="black"><a fill="navy" href="../reference/DataTypes/NullableString.html" target="_parent">NullableString</a>&#160;[0..1]</text>
<polygon fill="black" stroke="black" points="326.0,-86.5 0.0,-86.5 0.0,-86.5 326.0,-86.5 326.0,-86.5"/>
</g>
<!-- 9 -->
<g id="node2" class="node"><defs>
<linearGradient id="l_1" gradientUnits="userSpaceOnUse" x1="158" y1="-237" x2="158" y2="-273">
<stop offset="0" style="stop-color:#ffffbb;stop-opacity:1.;"/>
<stop offset="1" style="stop-color:#ffffee;stop-opacity:1.;"/>
</linearGradient>
</defs>
<polygon fill="url(#l_1)" stroke="black" points="215.5,-273 100.5,-273 100.5,-237 215.5,-237 215.5,-273"/>
<text text-anchor="start" x="111" y="-253.2" font-family="Arial" font-weight="bold" font-style="italic" font-size="11.00" fill="black"><a fill="navy" href="../reference/DexpiModel/ConceptualObject.html" target="_parent">ConceptualObject</a></text>
</g>
<!-- 11&#45;inner&#45;node -->
<!-- 9&#45;&gt;11&#45;inner&#45;node -->
<g id="edge5" class="edge"><path fill="none" stroke="black" d="M158,-226.649C158,-203.987 158,-175.163 158,-173.116L158.004,-170.916"/>
<polygon fill="none" stroke="black" points="154.5,-226.822 158,-236.822 161.5,-226.822 154.5,-226.822"/>
</g>
<!-- 10 -->
<g id="node3" class="node"><defs>
<linearGradient id="l_2" gradientUnits="userSpaceOnUse" x1="326" y1="-237" x2="326" y2="-273">
<stop offset="0" style="stop-color:#ffffbb;stop-opacity:1.;"/>
<stop offset="1" style="stop-color:#ffffee;stop-opacity:1.;"/>
</linearGradient>
</defs>
<polygon fill="url(#l_2)" stroke="black" points="398,-273 254,-273 254,-237 398,-237 398,-273"/>
<text text-anchor="start" x="264" y="-253.2" font-family="Arial" font-weight="bold" font-style="italic" font-size="11.00" fill="black"><a fill="navy" href="../reference/Customization/CustomAttributeOwner.html" target="_parent">CustomAttributeOwner</a></text>
</g>
<!-- 24 -->
<g id="node7" class="node"><defs>
<linearGradient id="l_3" gradientUnits="userSpaceOnUse" x1="231" y1="-154" x2="231" y2="-190">
<stop offset="0" style="stop-color:#ffffbb;stop-opacity:1.;"/>
<stop offset="1" style="stop-color:#ffffee;stop-opacity:1.;"/>
</linearGradient>
</defs>
<polygon fill="url(#l_3)" stroke="black" points="285.5,-190 176.5,-190 176.5,-154 285.5,-154 285.5,-190"/>
<text text-anchor="start" x="187" y="-170.2" font-family="Arial" font-weight="bold" font-style="italic" font-size="11.00" fill="black"><a fill="navy" href="../reference/Customization/CustomAttribute.html" target="_parent">CustomAttribute</a></text>
</g>
<!-- 10&#45;&gt;24 -->
<g id="edge4" class="edge"><path fill="none" stroke="#000000" d="M252.066,-230.359C248.387,-227.576 244.987,-224.469 242,-221 237.071,-215.275 234.234,-207.784 232.632,-200.428"/>
<polygon fill="#000000" stroke="#000000" points="252.276,-230.495 259.486,-230.381 262.365,-236.992 255.155,-237.106 252.276,-230.495"/>
<polygon fill="#000000" stroke="#000000" points="231.101,-190.317 237.048,-199.53 231.85,-195.26 232.598,-200.204 232.598,-200.204 232.598,-200.204 231.85,-195.26 228.149,-200.878 231.101,-190.317 231.101,-190.317"/>
<text text-anchor="start" x="244" y="-210.5" font-family="Arial" font-size="10.00" fill="black"><a fill="navy" href="../reference/Customization/CustomAttributeOwner.html#dexpi-customization-customattributeowner-customattributes" target="_parent">CustomAttributes</a></text>
<text text-anchor="start" x="223.101" y="-193.317" font-family="Arial" font-size="10.00" fill="black">*</text>
<text text-anchor="start" x="233.365" y="-226.992" font-family="Arial" font-size="10.00" fill="black">0..1</text>
</g>
<!-- 12&#45;inner&#45;node -->
<!-- 10&#45;&gt;12&#45;inner&#45;node -->
<g id="edge7" class="edge"><path fill="none" stroke="black" d="M326,-226.649C326,-203.987 326,-175.163 326,-173.116L325.882,-170.916"/>
<polygon fill="none" stroke="black" points="322.5,-226.822 326,-236.822 329.5,-226.822 322.5,-226.822"/>
</g>
<!-- 15 -->
<g id="node4" class="node"><defs>
<linearGradient id="l_4" gradientUnits="userSpaceOnUse" x1="95" y1="-154" x2="95" y2="-190">
<stop offset="0" style="stop-color:#ffffbb;stop-opacity:1.;"/>
<stop offset="1" style="stop-color:#ffffee;stop-opacity:1.;"/>
</linearGradient>
</defs>
<polygon fill="url(#l_4)" stroke="black" points="134,-190 56,-190 56,-154 134,-154 134,-190"/>
<text text-anchor="start" x="66" y="-170.2" font-family="Arial" font-weight="bold" font-style="italic" font-size="11.00" fill="black"><a fill="navy" href="../reference/Equipment/Equipment.html" target="_parent">Equipment</a></text>
</g>
<!-- 15&#45;&gt;0 -->
<g id="edge1" class="edge"><path fill="none" stroke="#000000" d="M97.191,-141.983C98.3934,-135.526 100.224,-128.863 103,-123 104.125,-120.625 105.357,-118.269 106.677,-115.94"/>
<polygon fill="#000000" stroke="#000000" points="97.1901,-141.99 100.343,-148.476 95.5694,-153.88 92.4164,-147.395 97.1901,-141.99"/>
<polygon fill="#000000" stroke="#000000" points="112.167,-107.108 110.709,-117.977 109.527,-111.355 106.887,-115.601 106.887,-115.601 106.887,-115.601 109.527,-111.355 103.066,-113.225 112.167,-107.108 112.167,-107.108"/>
<text text-anchor="start" x="105.5" y="-127.5" font-family="Arial" font-size="10.00" fill="black"><a fill="navy" href="../reference/Equipment/Equipment.html#dexpi-equipment-equipment-gearboxes" target="_parent">GearBoxes</a></text>
<text text-anchor="start" x="104.167" y="-110.108" font-family="Arial" font-size="10.00" fill="black">*</text>
<text text-anchor="start" x="66.5694" y="-143.88" font-family="Arial" font-size="10.00" fill="black">0..1</text>
</g>
<!-- 18 -->
<g id="node5" class="node"><defs>
<linearGradient id="l_5" gradientUnits="userSpaceOnUse" x1="78" y1="-320" x2="78" y2="-356">
<stop offset="0" style="stop-color:#ffffbb;stop-opacity:1.;"/>
<stop offset="1" style="stop-color:#ffffee;stop-opacity:1.;"/>
</linearGradient>
</defs>
<polygon fill="url(#l_5)" stroke="black" points="152.5,-356 3.5,-356 3.5,-320 152.5,-320 152.5,-356"/>
<text text-anchor="start" x="14" y="-336.2" font-family="Arial" font-weight="bold" font-size="11.00" fill="black"><a fill="navy" href="../reference/Graphics/AttributeRepresentation.html" target="_parent">AttributeRepresentation</a></text>
</g>
<!-- 18&#45;&gt;9 -->
<g id="edge2" class="edge"><path fill="none" stroke="#000000" d="M94.9659,-319.822C106.315,-308.331 121.416,-293.041 133.993,-280.307"/>
<polygon fill="#000000" stroke="#000000" points="141.059,-273.153 137.233,-283.43 137.545,-276.711 134.031,-280.268 134.031,-280.268 134.031,-280.268 137.545,-276.711 130.83,-277.106 141.059,-273.153 141.059,-273.153"/>
<text text-anchor="start" x="128.5" y="-293.5" font-family="Arial" font-size="10.00" fill="black"><a fill="navy" href="../reference/Graphics/AttributeRepresentation.html#dexpi-graphics-attributerepresentation-object" target="_parent">Object</a></text>
<text text-anchor="start" x="133.059" y="-276.153" font-family="Arial" font-size="10.00" fill="black"></text>
<text text-anchor="start" x="78.9659" y="-309.822" font-family="Arial" font-size="10.00" fill="black">*</text>
</g>
<!-- 21 -->
<g id="node6" class="node"><defs>
<linearGradient id="l_6" gradientUnits="userSpaceOnUse" x1="239" y1="-320" x2="239" y2="-356">
<stop offset="0" style="stop-color:#ffffbb;stop-opacity:1.;"/>
<stop offset="1" style="stop-color:#ffffee;stop-opacity:1.;"/>
</linearGradient>
</defs>
<polygon fill="url(#l_6)" stroke="black" points="307.5,-356 170.5,-356 170.5,-320 307.5,-320 307.5,-356"/>
<text text-anchor="start" x="181" y="-336.2" font-family="Arial" font-weight="bold" font-size="11.00" fill="black"><a fill="navy" href="../reference/Graphics/RepresentationGroup.html" target="_parent">RepresentationGroup</a></text>
</g>
<!-- 21&#45;&gt;9 -->
<g id="edge3" class="edge"><path fill="none" stroke="#000000" d="M221.822,-319.822C210.331,-308.331 195.041,-293.041 182.307,-280.307"/>
<polygon fill="#000000" stroke="#000000" points="175.153,-273.153 185.406,-277.042 178.689,-276.689 182.224,-280.224 182.224,-280.224 182.224,-280.224 178.689,-276.689 179.042,-283.406 175.153,-273.153 175.153,-273.153"/>
<text text-anchor="start" x="208" y="-293.5" font-family="Arial" font-size="10.00" fill="black"><a fill="navy" href="../reference/Graphics/RepresentationGroup.html#dexpi-graphics-representationgroup-represents" target="_parent">Represents</a></text>
<text text-anchor="start" x="167.153" y="-276.153" font-family="Arial" font-size="10.00" fill="black"></text>
<text text-anchor="start" x="205.822" y="-309.822" font-family="Arial" font-size="10.00" fill="black">*</text>
</g>
<!-- 11&#45;inner&#45;node&#45;&gt;0 -->
<g id="edge6" class="edge"><path fill="none" stroke="black" d="M158.004,-170.916C158.083,-169.062 159.458,-137.021 160.746,-107.025"/>
</g>
<!-- 12&#45;inner&#45;node&#45;&gt;0 -->
<g id="edge8" class="edge"><path fill="none" stroke="black" d="M325.882,-170.916C323.289,-169.062 278.459,-137.021 236.49,-107.025"/>
</g>
</g>
</svg>