<!DOCTYPE svg PUBLIC "-//W3C//DTD SVG 1.1//EN" "http://www.w3.org/Graphics/SVG/1.1/DTD/svg11.dtd">
<!-- Generated by graphviz version 2.38.0 (20140413.2041)
 --><!-- Title: G Pages: 1 --><svg xmlns="http://www.w3.org/2000/svg" xmlns:xlink="http://www.w3.org/1999/xlink" width="1141pt" height="534pt" viewBox="0.00 0.00 1140.50 534.00">
<g id="graph0" class="graph" transform="scale(1 1) rotate(0) translate(4 530)">
<!-- 0 -->
<g id="node1" class="node"><defs>
<linearGradient id="l_0" gradientUnits="userSpaceOnUse" x1="575.5" y1="-1.77636e-014" x2="575.5" y2="-36">
<stop offset="0" style="stop-color:#ffffbb;stop-opacity:1.;"/>
<stop offset="1" style="stop-color:#ffffee;stop-opacity:1.;"/>
</linearGradient>
</defs>
<polygon fill="url(#l_0)" stroke="black" points="616.5,-36 534.5,-36 534.5,-0 616.5,-0 616.5,-36"/>
<text text-anchor="start" x="544.5" y="-16.2" font-family="Arial" font-weight="bold" font-size="11.00" fill="black">GlobeValve</text>
</g>
<!-- 1 -->
<g id="node2" class="node"><defs>
<linearGradient id="l_1" gradientUnits="userSpaceOnUse" x1="575.5" y1="-103" x2="575.5" y2="-139">
<stop offset="0" style="stop-color:#ffffbb;stop-opacity:1.;"/>
<stop offset="1" style="stop-color:#ffffee;stop-opacity:1.;"/>
</linearGradient>
</defs>
<polygon fill="url(#l_1)" stroke="black" points="625.5,-139 525.5,-139 525.5,-103 625.5,-103 625.5,-139"/>
<text text-anchor="start" x="535.5" y="-119.2" font-family="Arial" font-weight="bold" font-size="11.00" fill="black"><a fill="navy" href="../reference/Piping/OperatedValve.html" target="_parent">OperatedValve</a></text>
</g>
<!-- 10&#45;inner&#45;node -->
<!-- 1&#45;&gt;10&#45;inner&#45;node -->
<g id="edge12" class="edge"><path fill="none" stroke="black" d="M575.5,-92.603C575.5,-81.4221 575.5,-70.8866 575.5,-70.053L575.5,-68.8566"/>
<polygon fill="none" stroke="black" points="572,-92.7928 575.5,-102.793 579,-92.7929 572,-92.7928"/>
</g>
<!-- 2 -->
<g id="node3" class="node"><defs>
<linearGradient id="l_2" gradientUnits="userSpaceOnUse" x1="637.5" y1="-255" x2="637.5" y2="-291">
<stop offset="0" style="stop-color:#ffffbb;stop-opacity:1.;"/>
<stop offset="1" style="stop-color:#ffffee;stop-opacity:1.;"/>
</linearGradient>
</defs>
<polygon fill="url(#l_2)" stroke="black" points="696,-291 579,-291 579,-255 696,-255 696,-291"/>
<text text-anchor="start" x="589.5" y="-271.2" font-family="Arial" font-weight="bold" font-style="italic" font-size="11.00" fill="black"><a fill="navy" href="../reference/Piping/PipingComponent.html" target="_parent">PipingComponent</a></text>
</g>
<!-- 11&#45;inner&#45;node -->
<!-- 2&#45;&gt;11&#45;inner&#45;node -->
<g id="edge14" class="edge"><path fill="none" stroke="black" d="M637.5,-244.68C637.5,-226.835 637.5,-206.568 637.5,-205.086L637.443,-202.888"/>
<polygon fill="none" stroke="black" points="634,-244.746 637.5,-254.746 641,-244.746 634,-244.746"/>
</g>
<!-- 3 -->
<g id="node4" class="node"><defs>
<linearGradient id="l_3" gradientUnits="userSpaceOnUse" x1="154.5" y1="-407" x2="154.5" y2="-443">
<stop offset="0" style="stop-color:#ffffbb;stop-opacity:1.;"/>
<stop offset="1" style="stop-color:#ffffee;stop-opacity:1.;"/>
</linearGradient>
</defs>
<polygon fill="url(#l_3)" stroke="black" points="212,-443 97,-443 97,-407 212,-407 212,-443"/>
<text text-anchor="start" x="107.5" y="-423.2" font-family="Arial" font-weight="bold" font-style="italic" font-size="11.00" fill="black"><a fill="navy" href="../reference/DexpiModel/ConceptualObject.html" target="_parent">ConceptualObject</a></text>
</g>
<!-- 12&#45;inner&#45;node -->
<!-- 3&#45;&gt;12&#45;inner&#45;node -->
<g id="edge16" class="edge"><path fill="none" stroke="black" d="M154.5,-396.649C154.5,-373.987 154.5,-345.163 154.5,-343.116L154.578,-340.984"/>
<polygon fill="none" stroke="black" points="151,-396.822 154.5,-406.822 158,-396.822 151,-396.822"/>
</g>
<!-- 4 -->
<g id="node5" class="node"><defs>
<linearGradient id="l_4" gradientUnits="userSpaceOnUse" x1="302.5" y1="-407" x2="302.5" y2="-443">
<stop offset="0" style="stop-color:#ffffbb;stop-opacity:1.;"/>
<stop offset="1" style="stop-color:#ffffee;stop-opacity:1.;"/>
</linearGradient>
</defs>
<polygon fill="url(#l_4)" stroke="black" points="374.5,-443 230.5,-443 230.5,-407 374.5,-407 374.5,-443"/>
<text text-anchor="start" x="240.5" y="-423.2" font-family="Arial" font-weight="bold" font-style="italic" font-size="11.00" fill="black"><a fill="navy" href="../reference/Customization/CustomAttributeOwner.html" target="_parent">CustomAttributeOwner</a></text>
</g>
<!-- 30 -->
<g id="node14" class="node"><defs>
<linearGradient id="l_5" gradientUnits="userSpaceOnUse" x1="375.5" y1="-324" x2="375.5" y2="-360">
<stop offset="0" style="stop-color:#ffffbb;stop-opacity:1.;"/>
<stop offset="1" style="stop-color:#ffffee;stop-opacity:1.;"/>
</linearGradient>
</defs>
<polygon fill="url(#l_5)" stroke="black" points="430,-360 321,-360 321,-324 430,-324 430,-360"/>
<text text-anchor="start" x="331.5" y="-340.2" font-family="Arial" font-weight="bold" font-style="italic" font-size="11.00" fill="black"><a fill="navy" href="../reference/Customization/CustomAttribute.html" target="_parent">CustomAttribute</a></text>
</g>
<!-- 4&#45;&gt;30 -->
<g id="edge4" class="edge"><path fill="none" stroke="#000000" d="M326.055,-397.864C334.755,-388.21 344.582,-377.306 353.17,-367.777"/>
<polygon fill="#000000" stroke="#000000" points="326.015,-397.908 324.97,-405.043 317.981,-406.822 319.027,-399.687 326.015,-397.908"/>
<polygon fill="#000000" stroke="#000000" points="360.041,-360.153 356.689,-370.594 356.694,-363.867 353.346,-367.582 353.346,-367.582 353.346,-367.582 356.694,-363.867 350.003,-364.569 360.041,-360.153 360.041,-360.153"/>
<text text-anchor="start" x="348.5" y="-380.5" font-family="Arial" font-size="10.00" fill="black"><a fill="navy" href="../reference/Customization/CustomAttributeOwner.html#dexpi-customization-customattributeowner-customattributes" target="_parent">CustomAttributes</a></text>
<text text-anchor="start" x="352.041" y="-363.153" font-family="Arial" font-size="10.00" fill="black">*</text>
<text text-anchor="start" x="288.981" y="-396.822" font-family="Arial" font-size="10.00" fill="black">0..1</text>
</g>
<!-- 13&#45;inner&#45;node -->
<!-- 4&#45;&gt;13&#45;inner&#45;node -->
<g id="edge18" class="edge"><path fill="none" stroke="black" d="M302.5,-396.649C302.5,-373.987 302.5,-345.163 302.5,-343.116L302.525,-340.864"/>
<polygon fill="none" stroke="black" points="299,-396.822 302.5,-406.822 306,-396.822 299,-396.822"/>
</g>
<!-- 5 -->
<g id="node6" class="node"><defs>
<linearGradient id="l_6" gradientUnits="userSpaceOnUse" x1="476.5" y1="-407" x2="476.5" y2="-443">
<stop offset="0" style="stop-color:#ffffbb;stop-opacity:1.;"/>
<stop offset="1" style="stop-color:#ffffee;stop-opacity:1.;"/>
</linearGradient>
</defs>
<polygon fill="url(#l_6)" stroke="black" points="560.5,-443 392.5,-443 392.5,-407 560.5,-407 560.5,-443"/>
<text text-anchor="start" x="402.5" y="-423.2" font-family="Arial" font-weight="bold" font-style="italic" font-size="11.00" fill="black"><a fill="navy" href="../reference/Piping/PipingNetworkSegmentItem.html" target="_parent">PipingNetworkSegmentItem</a></text>
</g>
<!-- 14&#45;inner&#45;node -->
<!-- 5&#45;&gt;14&#45;inner&#45;node -->
<g id="edge20" class="edge"><path fill="none" stroke="black" d="M476.5,-396.649C476.5,-373.987 476.5,-345.163 476.5,-343.116L476.617,-340.951"/>
<polygon fill="none" stroke="black" points="473,-396.822 476.5,-406.822 480,-396.822 473,-396.822"/>
</g>
<!-- 6 -->
<g id="node7" class="node"><defs>
<linearGradient id="l_7" gradientUnits="userSpaceOnUse" x1="637.5" y1="-407" x2="637.5" y2="-443">
<stop offset="0" style="stop-color:#ffffbb;stop-opacity:1.;"/>
<stop offset="1" style="stop-color:#ffffee;stop-opacity:1.;"/>
</linearGradient>
</defs>
<polygon fill="url(#l_7)" stroke="black" points="696,-443 579,-443 579,-407 696,-407 696,-443"/>
<text text-anchor="start" x="589.5" y="-423.2" font-family="Arial" font-weight="bold" font-style="italic" font-size="11.00" fill="black"><a fill="navy" href="../reference/Piping/PipingNodeOwner.html" target="_parent">PipingNodeOwner</a></text>
</g>
<!-- 36 -->
<g id="node16" class="node"><defs>
<linearGradient id="l_8" gradientUnits="userSpaceOnUse" x1="697.5" y1="-324" x2="697.5" y2="-360">
<stop offset="0" style="stop-color:#ffffbb;stop-opacity:1.;"/>
<stop offset="1" style="stop-color:#ffffee;stop-opacity:1.;"/>
</linearGradient>
</defs>
<polygon fill="url(#l_8)" stroke="black" points="739,-360 656,-360 656,-324 739,-324 739,-360"/>
<text text-anchor="start" x="666.5" y="-340.2" font-family="Arial" font-weight="bold" font-size="11.00" fill="black"><a fill="navy" href="../reference/Piping/PipingNode.html" target="_parent">PipingNode</a></text>
</g>
<!-- 6&#45;&gt;36 -->
<g id="edge6" class="edge"><path fill="none" stroke="#000000" d="M657.4,-397.135C664.244,-387.896 671.88,-377.586 678.638,-368.463"/>
<polygon fill="#000000" stroke="#000000" points="657.367,-397.179 657.01,-404.382 650.224,-406.822 650.582,-399.62 657.367,-397.179"/>
<polygon fill="#000000" stroke="#000000" points="684.794,-360.153 682.458,-370.867 681.818,-364.171 678.842,-368.189 678.842,-368.189 678.842,-368.189 681.818,-364.171 675.226,-365.51 684.794,-360.153 684.794,-360.153"/>
<text text-anchor="start" x="674.5" y="-380.5" font-family="Arial" font-size="10.00" fill="black"><a fill="navy" href="../reference/Piping/PipingNodeOwner.html#dexpi-piping-pipingnodeowner-nodes" target="_parent">Nodes</a></text>
<text text-anchor="start" x="676.794" y="-363.153" font-family="Arial" font-size="10.00" fill="black">*</text>
<text text-anchor="start" x="621.224" y="-396.822" font-family="Arial" font-size="10.00" fill="black">0..1</text>
</g>
<!-- 15&#45;inner&#45;node -->
<!-- 6&#45;&gt;15&#45;inner&#45;node -->
<g id="edge22" class="edge"><path fill="none" stroke="black" d="M637.5,-396.649C637.5,-373.987 637.5,-345.163 637.5,-343.116L637.5,-340.951"/>
<polygon fill="none" stroke="black" points="634,-396.822 637.5,-406.822 641,-396.822 634,-396.822"/>
</g>
<!-- 7 -->
<g id="node8" class="node"><defs>
<linearGradient id="l_9" gradientUnits="userSpaceOnUse" x1="900.5" y1="-407" x2="900.5" y2="-443">
<stop offset="0" style="stop-color:#ffffbb;stop-opacity:1.;"/>
<stop offset="1" style="stop-color:#ffffee;stop-opacity:1.;"/>
</linearGradient>
</defs>
<polygon fill="url(#l_9)" stroke="black" points="957.5,-443 843.5,-443 843.5,-407 957.5,-407 957.5,-443"/>
<text text-anchor="start" x="853.5" y="-423.2" font-family="Arial" font-weight="bold" font-style="italic" font-size="11.00" fill="black"><a fill="navy" href="../reference/Piping/PipingSourceItem.html" target="_parent">PipingSourceItem</a></text>
</g>
<!-- 16&#45;inner&#45;node -->
<!-- 7&#45;&gt;16&#45;inner&#45;node -->
<g id="edge24" class="edge"><path fill="none" stroke="black" d="M900.5,-396.649C900.5,-373.987 900.5,-345.163 900.5,-343.116L900.452,-340.988"/>
<polygon fill="none" stroke="black" points="897,-396.822 900.5,-406.822 904,-396.822 897,-396.822"/>
</g>
<!-- 8 -->
<g id="node9" class="node"><defs>
<linearGradient id="l_10" gradientUnits="userSpaceOnUse" x1="769.5" y1="-407" x2="769.5" y2="-443">
<stop offset="0" style="stop-color:#ffffbb;stop-opacity:1.;"/>
<stop offset="1" style="stop-color:#ffffee;stop-opacity:1.;"/>
</linearGradient>
</defs>
<polygon fill="url(#l_10)" stroke="black" points="825,-443 714,-443 714,-407 825,-407 825,-443"/>
<text text-anchor="start" x="724.5" y="-423.2" font-family="Arial" font-weight="bold" font-style="italic" font-size="11.00" fill="black"><a fill="navy" href="../reference/Piping/PipingTargetItem.html" target="_parent">PipingTargetItem</a></text>
</g>
<!-- 17&#45;inner&#45;node -->
<!-- 8&#45;&gt;17&#45;inner&#45;node -->
<g id="edge26" class="edge"><path fill="none" stroke="black" d="M769.5,-396.649C769.5,-373.987 769.5,-345.163 769.5,-343.116L769.377,-340.878"/>
<polygon fill="none" stroke="black" points="766,-396.822 769.5,-406.822 773,-396.822 766,-396.822"/>
</g>
<!-- 9 -->
<g id="node10" class="node"><defs>
<linearGradient id="l_11" gradientUnits="userSpaceOnUse" x1="1030.5" y1="-407" x2="1030.5" y2="-443">
<stop offset="0" style="stop-color:#ffffbb;stop-opacity:1.;"/>
<stop offset="1" style="stop-color:#ffffee;stop-opacity:1.;"/>
</linearGradient>
</defs>
<polygon fill="url(#l_11)" stroke="black" points="1085,-443 976,-443 976,-407 1085,-407 1085,-443"/>
<text text-anchor="start" x="986.5" y="-423.2" font-family="Arial" font-weight="bold" font-style="italic" font-size="11.00" fill="black"><a fill="navy" href="../reference/Instrumentation/SensingLocation.html" target="_parent">SensingLocation</a></text>
</g>
<!-- 18&#45;inner&#45;node -->
<!-- 9&#45;&gt;18&#45;inner&#45;node -->
<g id="edge28" class="edge"><path fill="none" stroke="black" d="M1030.5,-396.649C1030.5,-373.987 1030.5,-345.163 1030.5,-343.116L1030.43,-340.988"/>
<polygon fill="none" stroke="black" points="1027,-396.822 1030.5,-406.822 1034,-396.822 1027,-396.822"/>
</g>
<!-- 21 -->
<g id="node11" class="node"><defs>
<linearGradient id="l_12" gradientUnits="userSpaceOnUse" x1="540.5" y1="-186" x2="540.5" y2="-222">
<stop offset="0" style="stop-color:#ffffbb;stop-opacity:1.;"/>
<stop offset="1" style="stop-color:#ffffee;stop-opacity:1.;"/>
</linearGradient>
</defs>
<polygon fill="url(#l_12)" stroke="black" points="618.5,-222 462.5,-222 462.5,-186 618.5,-186 618.5,-222"/>
<text text-anchor="start" x="472.5" y="-202.2" font-family="Arial" font-weight="bold" font-size="11.00" fill="black"><a fill="navy" href="../reference/Instrumentation/OperatedValveReference.html" target="_parent">OperatedValveReference</a></text>
</g>
<!-- 21&#45;&gt;1 -->
<g id="edge1" class="edge"><path fill="none" stroke="#000000" d="M547.923,-185.822C552.609,-174.976 558.759,-160.744 564.061,-148.472"/>
<polygon fill="#000000" stroke="#000000" points="568.088,-139.153 568.252,-150.118 566.105,-143.743 564.122,-148.333 564.122,-148.333 564.122,-148.333 566.105,-143.743 559.991,-146.548 568.088,-139.153 568.088,-139.153"/>
<text text-anchor="start" x="562.5" y="-159.5" font-family="Arial" font-size="10.00" fill="black"><a fill="navy" href="../reference/Instrumentation/OperatedValveReference.html#dexpi-instrumentation-operatedvalvereference-valve" target="_parent">Valve</a></text>
<text text-anchor="start" x="547.088" y="-142.153" font-family="Arial" font-size="10.00" fill="black">0..1</text>
<text text-anchor="start" x="518.923" y="-175.822" font-family="Arial" font-size="10.00" fill="black">0..1</text>
</g>
<!-- 24 -->
<g id="node12" class="node"><defs>
<linearGradient id="l_13" gradientUnits="userSpaceOnUse" x1="74.5" y1="-490" x2="74.5" y2="-526">
<stop offset="0" style="stop-color:#ffffbb;stop-opacity:1.;"/>
<stop offset="1" style="stop-color:#ffffee;stop-opacity:1.;"/>
</linearGradient>
</defs>
<polygon fill="url(#l_13)" stroke="black" points="149,-526 0,-526 0,-490 149,-490 149,-526"/>
<text text-anchor="start" x="10.5" y="-506.2" font-family="Arial" font-weight="bold" font-size="11.00" fill="black"><a fill="navy" href="../reference/Graphics/AttributeRepresentation.html" target="_parent">AttributeRepresentation</a></text>
</g>
<!-- 24&#45;&gt;3 -->
<g id="edge2" class="edge"><path fill="none" stroke="#000000" d="M91.4659,-489.822C102.815,-478.331 117.916,-463.041 130.493,-450.307"/>
<polygon fill="#000000" stroke="#000000" points="137.559,-443.153 133.733,-453.43 134.045,-446.711 130.531,-450.268 130.531,-450.268 130.531,-450.268 134.045,-446.711 127.33,-447.106 137.559,-443.153 137.559,-443.153"/>
<text text-anchor="start" x="125" y="-463.5" font-family="Arial" font-size="10.00" fill="black"><a fill="navy" href="../reference/Graphics/AttributeRepresentation.html#dexpi-graphics-attributerepresentation-object" target="_parent">Object</a></text>
<text text-anchor="start" x="129.559" y="-446.153" font-family="Arial" font-size="10.00" fill="black"></text>
<text text-anchor="start" x="75.4659" y="-479.822" font-family="Arial" font-size="10.00" fill="black">*</text>
</g>
<!-- 27 -->
<g id="node13" class="node"><defs>
<linearGradient id="l_14" gradientUnits="userSpaceOnUse" x1="235.5" y1="-490" x2="235.5" y2="-526">
<stop offset="0" style="stop-color:#ffffbb;stop-opacity:1.;"/>
<stop offset="1" style="stop-color:#ffffee;stop-opacity:1.;"/>
</linearGradient>
</defs>
<polygon fill="url(#l_14)" stroke="black" points="304,-526 167,-526 167,-490 304,-490 304,-526"/>
<text text-anchor="start" x="177.5" y="-506.2" font-family="Arial" font-weight="bold" font-size="11.00" fill="black"><a fill="navy" href="../reference/Graphics/RepresentationGroup.html" target="_parent">RepresentationGroup</a></text>
</g>
<!-- 27&#45;&gt;3 -->
<g id="edge3" class="edge"><path fill="none" stroke="#000000" d="M218.322,-489.822C206.831,-478.331 191.541,-463.041 178.807,-450.307"/>
<polygon fill="#000000" stroke="#000000" points="171.653,-443.153 181.906,-447.042 175.189,-446.689 178.724,-450.224 178.724,-450.224 178.724,-450.224 175.189,-446.689 175.542,-453.406 171.653,-443.153 171.653,-443.153"/>
<text text-anchor="start" x="204.5" y="-463.5" font-family="Arial" font-size="10.00" fill="black"><a fill="navy" href="../reference/Graphics/RepresentationGroup.html#dexpi-graphics-representationgroup-represents" target="_parent">Represents</a></text>
<text text-anchor="start" x="163.653" y="-446.153" font-family="Arial" font-size="10.00" fill="black"></text>
<text text-anchor="start" x="202.322" y="-479.822" font-family="Arial" font-size="10.00" fill="black">*</text>
</g>
<!-- 33 -->
<g id="node15" class="node"><defs>
<linearGradient id="l_15" gradientUnits="userSpaceOnUse" x1="677.5" y1="-490" x2="677.5" y2="-526">
<stop offset="0" style="stop-color:#ffffbb;stop-opacity:1.;"/>
<stop offset="1" style="stop-color:#ffffee;stop-opacity:1.;"/>
</linearGradient>
</defs>
<polygon fill="url(#l_15)" stroke="black" points="750.5,-526 604.5,-526 604.5,-490 750.5,-490 750.5,-526"/>
<text text-anchor="start" x="614.5" y="-506.2" font-family="Arial" font-weight="bold" font-size="11.00" fill="black"><a fill="navy" href="../reference/Piping/PipingNetworkSegment.html" target="_parent">PipingNetworkSegment</a></text>
</g>
<!-- 33&#45;&gt;5 -->
<g id="edge5" class="edge"><path fill="none" stroke="#000000" d="M623.623,-485.288C594.057,-473.374 557.576,-458.672 528.338,-446.89"/>
<polygon fill="#000000" stroke="#000000" points="623.743,-485.337 630.803,-483.869 634.873,-489.822 627.813,-491.289 623.743,-485.337"/>
<polygon fill="#000000" stroke="#000000" points="518.72,-443.014 529.678,-442.578 523.358,-444.883 527.996,-446.752 527.996,-446.752 527.996,-446.752 523.358,-444.883 526.314,-450.926 518.72,-443.014 518.72,-443.014"/>
<text text-anchor="start" x="597" y="-463.5" font-family="Arial" font-size="10.00" fill="black"><a fill="navy" href="../reference/Piping/PipingNetworkSegment.html#dexpi-piping-pipingnetworksegment-items" target="_parent">Items</a></text>
<text text-anchor="start" x="510.72" y="-446.014" font-family="Arial" font-size="10.00" fill="black">*</text>
<text text-anchor="start" x="605.873" y="-479.822" font-family="Arial" font-size="10.00" fill="black">0..1</text>
</g>
<!-- 33&#45;&gt;7 -->
<g id="edge8" class="edge"><path fill="none" stroke="#000000" d="M704.814,-489.997C712.569,-484.99 720.954,-479.402 728.5,-474 737.248,-467.737 737.699,-463.437 747.5,-459 780.658,-443.99 794.081,-450.313 833.354,-443.023"/>
<polygon fill="#000000" stroke="#000000" points="843.322,-440.99 834.423,-447.398 838.422,-441.989 833.523,-442.989 833.523,-442.989 833.523,-442.989 838.422,-441.989 832.624,-438.58 843.322,-440.99 843.322,-440.99"/>
<text text-anchor="start" x="749.5" y="-463.5" font-family="Arial" font-size="10.00" fill="black"><a fill="navy" href="../reference/Piping/PipingNetworkSegment.html#dexpi-piping-pipingnetworksegment-sourceitem" target="_parent">SourceItem</a></text>
<text text-anchor="start" x="822.322" y="-443.99" font-family="Arial" font-size="10.00" fill="black">0..1</text>
<text text-anchor="start" x="675.814" y="-479.997" font-family="Arial" font-size="10.00" fill="black">0..1</text>
</g>
<!-- 33&#45;&gt;8 -->
<g id="edge9" class="edge"><path fill="none" stroke="#000000" d="M673.401,-489.963C672.028,-480.047 672.188,-467.807 678.5,-459 682.323,-453.666 692.281,-448.516 704.277,-443.933"/>
<polygon fill="#000000" stroke="#000000" points="713.779,-440.546 705.87,-448.143 709.069,-442.225 704.359,-443.904 704.359,-443.904 704.359,-443.904 709.069,-442.225 702.848,-439.665 713.779,-440.546 713.779,-440.546"/>
<text text-anchor="start" x="680.5" y="-463.5" font-family="Arial" font-size="10.00" fill="black"><a fill="navy" href="../reference/Piping/PipingNetworkSegment.html#dexpi-piping-pipingnetworksegment-targetitem" target="_parent">TargetItem</a></text>
<text text-anchor="start" x="692.779" y="-443.546" font-family="Arial" font-size="10.00" fill="black">0..1</text>
<text text-anchor="start" x="644.401" y="-479.963" font-family="Arial" font-size="10.00" fill="black">0..1</text>
</g>
<!-- 39 -->
<g id="node17" class="node"><defs>
<linearGradient id="l_16" gradientUnits="userSpaceOnUse" x1="840.5" y1="-490" x2="840.5" y2="-526">
<stop offset="0" style="stop-color:#ffffbb;stop-opacity:1.;"/>
<stop offset="1" style="stop-color:#ffffee;stop-opacity:1.;"/>
</linearGradient>
</defs>
<polygon fill="url(#l_16)" stroke="black" points="898,-526 783,-526 783,-490 898,-490 898,-526"/>
<text text-anchor="start" x="793.5" y="-506.2" font-family="Arial" font-weight="bold" font-style="italic" font-size="11.00" fill="black"><a fill="navy" href="../reference/Piping/PipingConnection.html" target="_parent">PipingConnection</a></text>
</g>
<!-- 39&#45;&gt;7 -->
<g id="edge7" class="edge"><path fill="none" stroke="#000000" d="M863.349,-489.937C868.763,-485.182 874.205,-479.735 878.5,-474 883.26,-467.644 887.317,-460.093 890.603,-452.884"/>
<polygon fill="#000000" stroke="#000000" points="894.598,-443.41 894.859,-454.373 892.655,-448.017 890.712,-452.624 890.712,-452.624 890.712,-452.624 892.655,-448.017 886.566,-450.876 894.598,-443.41 894.598,-443.41"/>
<text text-anchor="start" x="889.5" y="-463.5" font-family="Arial" font-size="10.00" fill="black"><a fill="navy" href="../reference/Piping/PipingConnection.html#dexpi-piping-pipingconnection-sourceitem" target="_parent">SourceItem</a></text>
<text text-anchor="start" x="873.598" y="-446.41" font-family="Arial" font-size="10.00" fill="black">0..1</text>
<text text-anchor="start" x="834.349" y="-479.937" font-family="Arial" font-size="10.00" fill="black">0..1</text>
</g>
<!-- 39&#45;&gt;8 -->
<g id="edge10" class="edge"><path fill="none" stroke="#000000" d="M829.29,-489.933C822.775,-480.468 814.161,-468.688 805.5,-459 802.842,-456.027 799.946,-453.033 796.989,-450.125"/>
<polygon fill="#000000" stroke="#000000" points="789.613,-443.138 799.967,-446.748 793.243,-446.576 796.873,-450.015 796.873,-450.015 796.873,-450.015 793.243,-446.576 793.778,-453.282 789.613,-443.138 789.613,-443.138"/>
<text text-anchor="start" x="818.5" y="-463.5" font-family="Arial" font-size="10.00" fill="black"><a fill="navy" href="../reference/Piping/PipingConnection.html#dexpi-piping-pipingconnection-targetitem" target="_parent">TargetItem</a></text>
<text text-anchor="start" x="768.613" y="-446.138" font-family="Arial" font-size="10.00" fill="black">0..1</text>
<text text-anchor="start" x="800.29" y="-479.933" font-family="Arial" font-size="10.00" fill="black">0..1</text>
</g>
<!-- 48 -->
<g id="node18" class="node"><defs>
<linearGradient id="l_17" gradientUnits="userSpaceOnUse" x1="1030.5" y1="-490" x2="1030.5" y2="-526">
<stop offset="0" style="stop-color:#ffffbb;stop-opacity:1.;"/>
<stop offset="1" style="stop-color:#ffffee;stop-opacity:1.;"/>
</linearGradient>
</defs>
<polygon fill="url(#l_17)" stroke="black" points="1132.5,-526 928.5,-526 928.5,-490 1132.5,-490 1132.5,-526"/>
<text text-anchor="start" x="938.5" y="-506.2" font-family="Arial" font-weight="bold" font-size="11.00" fill="black"><a fill="navy" href="../reference/Instrumentation/ProcessSignalGeneratingFunction.html" target="_parent">ProcessSignalGeneratingFunction</a></text>
</g>
<!-- 48&#45;&gt;9 -->
<g id="edge11" class="edge"><path fill="none" stroke="#000000" d="M1030.5,-489.822C1030.5,-479.19 1030.5,-465.306 1030.5,-453.204"/>
<polygon fill="#000000" stroke="#000000" points="1030.5,-443.153 1035,-453.153 1030.5,-448.153 1030.5,-453.153 1030.5,-453.153 1030.5,-453.153 1030.5,-448.153 1026,-453.153 1030.5,-443.153 1030.5,-443.153"/>
<text text-anchor="start" x="1033" y="-463.5" font-family="Arial" font-size="10.00" fill="black"><a fill="navy" href="../reference/Instrumentation/ProcessSignalGeneratingFunction.html#dexpi-instrumentation-processsignalgeneratingfunction-sensinglocation" target="_parent">SensingLocation</a></text>
<text text-anchor="start" x="1009.5" y="-446.153" font-family="Arial" font-size="10.00" fill="black">0..1</text>
<text text-anchor="start" x="1014.5" y="-479.822" font-family="Arial" font-size="10.00" fill="black">*</text>
</g>
<!-- 10&#45;inner&#45;node&#45;&gt;0 -->
<g id="edge13" class="edge"><path fill="none" stroke="black" d="M575.5,-68.8566C575.5,-67.1153 575.5,-49.8654 575.5,-36.1372"/>
</g>
<!-- 11&#45;inner&#45;node&#45;&gt;1 -->
<g id="edge15" class="edge"><path fill="none" stroke="black" d="M637.443,-202.888C636.875,-201.785 632.188,-192.75 627.5,-186 615.985,-169.42 601.38,-151.689 590.582,-139.104"/>
</g>
<!-- 12&#45;inner&#45;node&#45;&gt;2 -->
<g id="edge17" class="edge"><path fill="none" stroke="black" d="M154.578,-340.984C157.832,-340.33 262.648,-319.29 347.5,-307 427.362,-295.433 520.086,-285.487 578.766,-279.621"/>
</g>
<!-- 13&#45;inner&#45;node&#45;&gt;2 -->
<g id="edge19" class="edge"><path fill="none" stroke="black" d="M302.525,-340.864C302.773,-339.522 304.968,-328.644 311.5,-324 353.384,-294.223 496.807,-281.621 578.785,-276.749"/>
</g>
<!-- 14&#45;inner&#45;node&#45;&gt;2 -->
<g id="edge21" class="edge"><path fill="none" stroke="black" d="M476.617,-340.951C479.854,-339.604 549.738,-310.522 596.326,-291.135"/>
</g>
<!-- 15&#45;inner&#45;node&#45;&gt;2 -->
<g id="edge23" class="edge"><path fill="none" stroke="black" d="M637.5,-340.951C637.5,-339.604 637.5,-310.522 637.5,-291.135"/>
</g>
<!-- 16&#45;inner&#45;node&#45;&gt;2 -->
<g id="edge25" class="edge"><path fill="none" stroke="black" d="M900.452,-340.988C897.651,-340.274 772.671,-308.435 696.044,-288.914"/>
</g>
<!-- 17&#45;inner&#45;node&#45;&gt;2 -->
<g id="edge27" class="edge"><path fill="none" stroke="black" d="M769.377,-340.878C768.155,-339.679 758.086,-329.902 748.5,-324 727.712,-311.201 703.088,-299.774 682.32,-291.085"/>
</g>
<!-- 18&#45;inner&#45;node&#45;&gt;2 -->
<g id="edge29" class="edge"><path fill="none" stroke="black" d="M1030.43,-340.988C1025.87,-340.211 804.855,-302.531 696.349,-284.033"/>
</g>
</g>
</svg>