<!DOCTYPE svg PUBLIC "-//W3C//DTD SVG 1.1//EN" "http://www.w3.org/Graphics/SVG/1.1/DTD/svg11.dtd">
<!-- Generated by graphviz version 2.38.0 (20140413.2041)
 --><!-- Title: G Pages: 1 --><svg xmlns="http://www.w3.org/2000/svg" xmlns:xlink="http://www.w3.org/1999/xlink" width="145pt" height="127pt" viewBox="0.00 0.00 145.00 127.00">
<g id="graph0" class="graph" transform="scale(1 1) rotate(0) translate(4 123)">
<!-- 0 -->
<g id="node1" class="node"><defs>
<linearGradient id="l_0" gradientUnits="userSpaceOnUse" x1="68.5" y1="-1.77636e-014" x2="68.5" y2="-36">
<stop offset="0" style="stop-color:#ffffbb;stop-opacity:1.;"/>
<stop offset="1" style="stop-color:#ffffee;stop-opacity:1.;"/>
</linearGradient>
</defs>
<polygon fill="url(#l_0)" stroke="black" points="119.5,-36 17.5,-36 17.5,-0 119.5,-0 119.5,-36"/>
<text text-anchor="start" x="27.5" y="-16.2" font-family="Arial" font-weight="bold" font-style="italic" font-size="11.00" fill="black">GraphicsGroup</text>
</g>
<!-- 3 -->
<g id="node2" class="node"><defs>
<linearGradient id="l_1" gradientUnits="userSpaceOnUse" x1="68.5" y1="-83" x2="68.5" y2="-119">
<stop offset="0" style="stop-color:#ffffbb;stop-opacity:1.;"/>
<stop offset="1" style="stop-color:#ffffee;stop-opacity:1.;"/>
</linearGradient>
</defs>
<polygon fill="url(#l_1)" stroke="black" points="137,-119 0,-119 0,-83 137,-83 137,-119"/>
<text text-anchor="start" x="10.5" y="-99.2" font-family="Arial" font-weight="bold" font-size="11.00" fill="black"><a fill="navy" href="../reference/Graphics/RepresentationGroup.html" target="_parent">RepresentationGroup</a></text>
</g>
<!-- 3&#45;&gt;0 -->
<g id="edge1" class="edge"><path fill="none" stroke="#000000" d="M68.5,-70.5488C68.5,-62.6036 68.5,-54.0441 68.5,-46.2265"/>
<polygon fill="#000000" stroke="#000000" points="68.5001,-70.822 72.5,-76.822 68.5,-82.822 64.5,-76.822 68.5001,-70.822"/>
<polygon fill="#000000" stroke="#000000" points="68.5,-36.1533 73.0001,-46.1532 68.5,-41.1533 68.5001,-46.1533 68.5001,-46.1533 68.5001,-46.1533 68.5,-41.1533 64.0001,-46.1533 68.5,-36.1533 68.5,-36.1533"/>
<text text-anchor="start" x="70.5" y="-56.5" font-family="Arial" font-size="10.00" fill="black"><a fill="navy" href="../reference/Graphics/RepresentationGroup.html#dexpi-graphics-representationgroup-groups" target="_parent">Groups</a></text>
<text text-anchor="start" x="60.5" y="-39.1533" font-family="Arial" font-size="10.00" fill="black">*</text>
<text text-anchor="start" x="39.5" y="-72.822" font-family="Arial" font-size="10.00" fill="black">0..1</text>
</g>
</g>
</svg>