<!DOCTYPE svg PUBLIC "-//W3C//DTD SVG 1.1//EN" "http://www.w3.org/Graphics/SVG/1.1/DTD/svg11.dtd">
<!-- Generated by graphviz version 2.38.0 (20140413.2041)
 --><!-- Title: G Pages: 1 --><svg xmlns="http://www.w3.org/2000/svg" xmlns:xlink="http://www.w3.org/1999/xlink" width="867pt" height="738pt" viewBox="0.00 0.00 866.50 738.00">
<g id="graph0" class="graph" transform="scale(1 1) rotate(0) translate(4 734)">
<!-- 0 -->
<g id="node1" class="node"><defs>
<linearGradient id="l_0" gradientUnits="userSpaceOnUse" x1="457.5" y1="-83" x2="457.5" y2="-160">
<stop offset="0" style="stop-color:#ffffbb;stop-opacity:1.;"/>
<stop offset="1" style="stop-color:#ffffee;stop-opacity:1.;"/>
</linearGradient>
</defs>
<polygon fill="url(#l_0)" stroke="black" points="617.5,-160 297.5,-160 297.5,-83 617.5,-83 617.5,-160"/>
<text text-anchor="start" x="416.5" y="-145.7" font-family="Arial" font-weight="bold" font-size="11.00" fill="black">HeatExchanger</text>
<text text-anchor="start" x="307.5" y="-121.5" font-family="Arial" font-size="10.00" fill="black"><a fill="navy" href="../reference/Equipment/HeatExchanger.html#dexpi-equipment-heatexchanger-designheatflowrate" target="_parent">DesignHeatFlowRate</a>&#160;:</text>
<text text-anchor="start" x="447.5" y="-121.5" font-family="Arial" font-size="10.00" fill="black"><a fill="navy" href="../reference/PhysicalQuantities/NullablePower.html" target="_parent">NullablePower</a>&#160;[0..1]</text>
<text text-anchor="start" x="307.5" y="-106.5" font-family="Arial" font-size="10.00" fill="black"><a fill="navy" href="../reference/Equipment/HeatExchanger.html#dexpi-equipment-heatexchanger-designheattransferarea" target="_parent">DesignHeatTransferArea</a>&#160;:</text>
<text text-anchor="start" x="447.5" y="-106.5" font-family="Arial" font-size="10.00" fill="black"><a fill="navy" href="../reference/PhysicalQuantities/NullableArea.html" target="_parent">NullableArea</a>&#160;[0..1]</text>
<text text-anchor="start" x="307.5" y="-91.5" font-family="Arial" font-size="10.00" fill="black"><a fill="navy" href="../reference/Equipment/HeatExchanger.html#dexpi-equipment-heatexchanger-designheattransfercoefficient" target="_parent">DesignHeatTransferCoefficient</a>&#160;:</text>
<text text-anchor="start" x="447.5" y="-91.5" font-family="Arial" font-size="10.00" fill="black"><a fill="navy" href="../reference/PhysicalQuantities/NullableHeatTransferCoefficient.html" target="_parent">NullableHeatTransferCoefficient</a>&#160;[0..1]</text>
<polygon fill="black" stroke="black" points="617.5,-139.5 297.5,-139.5 297.5,-139.5 617.5,-139.5 617.5,-139.5"/>
</g>
<!-- 25 -->
<g id="node10" class="node"><defs>
<linearGradient id="l_1" gradientUnits="userSpaceOnUse" x1="457.5" y1="-1.77636e-014" x2="457.5" y2="-36">
<stop offset="0" style="stop-color:#ffffbb;stop-opacity:1.;"/>
<stop offset="1" style="stop-color:#ffffee;stop-opacity:1.;"/>
</linearGradient>
</defs>
<polygon fill="url(#l_1)" stroke="black" points="488.5,-36 426.5,-36 426.5,-0 488.5,-0 488.5,-36"/>
<text text-anchor="start" x="436.5" y="-16.2" font-family="Arial" font-weight="bold" font-size="11.00" fill="black"><a fill="navy" href="../reference/Equipment/Agitator.html" target="_parent">Agitator</a></text>
</g>
<!-- 0&#45;&gt;25 -->
<g id="edge2" class="edge"><path fill="none" stroke="#000000" d="M457.5,-82.9935C457.5,-70.8397 457.5,-57.5964 457.5,-46.327"/>
<polygon fill="#000000" stroke="#000000" points="457.5,-36.2271 462,-46.227 457.5,-41.2271 457.5,-46.2271 457.5,-46.2271 457.5,-46.2271 457.5,-41.2271 453,-46.2271 457.5,-36.2271 457.5,-36.2271"/>
<text text-anchor="start" x="459.5" y="-56.5" font-family="Arial" font-size="10.00" fill="black"><a fill="navy" href="../reference/Equipment/HeatExchanger.html#dexpi-equipment-heatexchanger-agitator" target="_parent">Agitator</a></text>
<text text-anchor="start" x="436.5" y="-39.2271" font-family="Arial" font-size="10.00" fill="black">0..1</text>
<text text-anchor="start" x="428.5" y="-72.9935" font-family="Arial" font-size="10.00" fill="black">0..1</text>
</g>
<!-- 8 -->
<g id="node2" class="node"><defs>
<linearGradient id="l_2" gradientUnits="userSpaceOnUse" x1="766.5" y1="-677" x2="766.5" y2="-730">
<stop offset="0" style="stop-color:#fbfbfb;stop-opacity:1.;"/>
<stop offset="1" style="stop-color:#fefefe;stop-opacity:1.;"/>
</linearGradient>
</defs>
<polygon fill="url(#l_2)" stroke="black" points="858.5,-719.0 847.5,-730.0 674.5,-730.0 674.5,-677.0 858.5,-677.0"/><path d="M858.5,-719.0L847.5,-719.0 847.5,-730.0" fill="none" stroke="black"/>
<text text-anchor="start" x="684.5" y="-715.5" font-family="Arial" font-size="10.00" fill="black">For&#160;the&#160;sake&#160;of&#160;clarity,&#160;superclasses&#160;</text>
<text text-anchor="start" x="684.5" y="-700.5" font-family="Arial" font-size="10.00" fill="black">and&#160;associations&#160;of&#160;<a fill="navy" href="../reference/PlantStructure/TechnicalItem.html" target="_parent">TechnicalItem</a>&#160;are</text>
<text text-anchor="start" x="684.5" y="-685.5" font-family="Arial" font-size="10.00" fill="black">not&#160;shown&#160;in&#160;this&#160;diagram.</text>
</g>
<!-- 7 -->
<g id="node3" class="node"><defs>
<linearGradient id="l_3" gradientUnits="userSpaceOnUse" x1="766.5" y1="-594" x2="766.5" y2="-630">
<stop offset="0" style="stop-color:#ffffbb;stop-opacity:1.;"/>
<stop offset="1" style="stop-color:#ffffee;stop-opacity:1.;"/>
</linearGradient>
</defs>
<polygon fill="url(#l_3)" stroke="black" points="813,-630 720,-630 720,-594 813,-594 813,-630"/>
<text text-anchor="start" x="730.5" y="-610.2" font-family="Arial" font-weight="bold" font-style="italic" font-size="11.00" fill="black"><a fill="navy" href="../reference/PlantStructure/TechnicalItem.html" target="_parent">TechnicalItem</a></text>
</g>
<!-- 8&#45;&gt;7 -->
<g id="edge1" class="edge"><path fill="none" stroke="#000000" stroke-dasharray="5,2" d="M766.5,-676.613C766.5,-661.641 766.5,-643.222 766.5,-630.063"/>
</g>
<!-- 22&#45;inner&#45;node -->
<!-- 7&#45;&gt;22&#45;inner&#45;node -->
<g id="edge25" class="edge"><path fill="none" stroke="black" d="M766.5,-583.649C766.5,-560.987 766.5,-532.163 766.5,-530.116L766.362,-527.941"/>
<polygon fill="none" stroke="black" points="763,-583.822 766.5,-593.822 770,-583.822 763,-583.822"/>
</g>
<!-- 10 -->
<g id="node4" class="node"><defs>
<linearGradient id="l_4" gradientUnits="userSpaceOnUse" x1="457.5" y1="-276" x2="457.5" y2="-312">
<stop offset="0" style="stop-color:#ffffbb;stop-opacity:1.;"/>
<stop offset="1" style="stop-color:#ffffee;stop-opacity:1.;"/>
</linearGradient>
</defs>
<polygon fill="url(#l_4)" stroke="black" points="496.5,-312 418.5,-312 418.5,-276 496.5,-276 496.5,-312"/>
<text text-anchor="start" x="428.5" y="-292.2" font-family="Arial" font-weight="bold" font-style="italic" font-size="11.00" fill="black"><a fill="navy" href="../reference/Equipment/Equipment.html" target="_parent">Equipment</a></text>
</g>
<!-- 28 -->
<g id="node11" class="node"><defs>
<linearGradient id="l_5" gradientUnits="userSpaceOnUse" x1="51.5" y1="-193" x2="51.5" y2="-229">
<stop offset="0" style="stop-color:#ffffbb;stop-opacity:1.;"/>
<stop offset="1" style="stop-color:#ffffee;stop-opacity:1.;"/>
</linearGradient>
</defs>
<polygon fill="url(#l_5)" stroke="black" points="103,-229 0,-229 0,-193 103,-193 103,-229"/>
<text text-anchor="start" x="10.5" y="-209.2" font-family="Arial" font-weight="bold" font-size="11.00" fill="black"><a fill="navy" href="../reference/Equipment/DryingChamber.html" target="_parent">DryingChamber</a></text>
</g>
<!-- 10&#45;&gt;28 -->
<g id="edge3" class="edge"><path fill="none" stroke="#000000" d="M406.027,-293.446C342.858,-292.672 233.105,-287.013 143.5,-260 123.707,-254.033 103.174,-243.771 86.54,-234.264"/>
<polygon fill="#000000" stroke="#000000" points="406.398,-293.449 412.429,-289.495 418.398,-293.542 412.367,-297.495 406.398,-293.449"/>
<polygon fill="#000000" stroke="#000000" points="77.7299,-229.091 88.6319,-230.274 82.0418,-231.623 86.3536,-234.154 86.3536,-234.154 86.3536,-234.154 82.0418,-231.623 84.0753,-238.035 77.7299,-229.091 77.7299,-229.091"/>
<text text-anchor="start" x="146" y="-249.5" font-family="Arial" font-size="10.00" fill="black"><a fill="navy" href="../reference/Equipment/Equipment.html#dexpi-equipment-equipment-dryingchambers" target="_parent">DryingChambers</a></text>
<text text-anchor="start" x="69.7299" y="-232.091" font-family="Arial" font-size="10.00" fill="black">*</text>
<text text-anchor="start" x="389.398" y="-294.542" font-family="Arial" font-size="10.00" fill="black">0..1</text>
</g>
<!-- 31 -->
<g id="node12" class="node"><defs>
<linearGradient id="l_6" gradientUnits="userSpaceOnUse" x1="155.5" y1="-193" x2="155.5" y2="-229">
<stop offset="0" style="stop-color:#ffffbb;stop-opacity:1.;"/>
<stop offset="1" style="stop-color:#ffffee;stop-opacity:1.;"/>
</linearGradient>
</defs>
<polygon fill="url(#l_6)" stroke="black" points="189.5,-229 121.5,-229 121.5,-193 189.5,-193 189.5,-229"/>
<text text-anchor="start" x="131.5" y="-209.2" font-family="Arial" font-weight="bold" font-size="11.00" fill="black"><a fill="navy" href="../reference/Equipment/GearBox.html" target="_parent">GearBox</a></text>
</g>
<!-- 10&#45;&gt;31 -->
<g id="edge4" class="edge"><path fill="none" stroke="#000000" d="M406.201,-287.816C366.621,-282.972 310.82,-274.294 263.5,-260 241.05,-253.218 217.118,-242.924 197.503,-233.606"/>
<polygon fill="#000000" stroke="#000000" points="406.275,-287.824 412.702,-284.553 418.193,-289.227 411.767,-292.498 406.275,-287.824"/>
<polygon fill="#000000" stroke="#000000" points="188.246,-229.129 199.207,-229.432 192.747,-231.306 197.248,-233.483 197.248,-233.483 197.248,-233.483 192.747,-231.306 195.289,-237.534 188.246,-229.129 188.246,-229.129"/>
<text text-anchor="start" x="266" y="-249.5" font-family="Arial" font-size="10.00" fill="black"><a fill="navy" href="../reference/Equipment/Equipment.html#dexpi-equipment-equipment-gearboxes" target="_parent">GearBoxes</a></text>
<text text-anchor="start" x="180.246" y="-232.129" font-family="Arial" font-size="10.00" fill="black">*</text>
<text text-anchor="start" x="389.193" y="-279.227" font-family="Arial" font-size="10.00" fill="black">0..1</text>
</g>
<!-- 34 -->
<g id="node13" class="node"><defs>
<linearGradient id="l_7" gradientUnits="userSpaceOnUse" x1="270.5" y1="-193" x2="270.5" y2="-229">
<stop offset="0" style="stop-color:#ffffbb;stop-opacity:1.;"/>
<stop offset="1" style="stop-color:#ffffee;stop-opacity:1.;"/>
</linearGradient>
</defs>
<polygon fill="url(#l_7)" stroke="black" points="333.5,-229 207.5,-229 207.5,-193 333.5,-193 333.5,-229"/>
<text text-anchor="start" x="217.5" y="-209.2" font-family="Arial" font-weight="bold" font-size="11.00" fill="black"><a fill="navy" href="../reference/Equipment/MotorAsComponent.html" target="_parent">MotorAsComponent</a></text>
</g>
<!-- 10&#45;&gt;34 -->
<g id="edge5" class="edge"><path fill="none" stroke="#000000" d="M406.67,-281.044C387.398,-275.7 365.526,-268.637 346.5,-260 331.23,-253.068 315.388,-243.498 302.145,-234.726"/>
<polygon fill="#000000" stroke="#000000" points="406.692,-281.049 413.521,-278.734 418.285,-284.147 411.456,-286.463 406.692,-281.049"/>
<polygon fill="#000000" stroke="#000000" points="293.85,-229.112 304.654,-230.99 297.991,-231.914 302.132,-234.717 302.132,-234.717 302.132,-234.717 297.991,-231.914 299.61,-238.443 293.85,-229.112 293.85,-229.112"/>
<text text-anchor="start" x="349" y="-249.5" font-family="Arial" font-size="10.00" fill="black"><a fill="navy" href="../reference/Equipment/Equipment.html#dexpi-equipment-equipment-motors" target="_parent">Motors</a></text>
<text text-anchor="start" x="285.85" y="-232.112" font-family="Arial" font-size="10.00" fill="black">*</text>
<text text-anchor="start" x="389.285" y="-274.147" font-family="Arial" font-size="10.00" fill="black">0..1</text>
</g>
<!-- 37 -->
<g id="node14" class="node"><defs>
<linearGradient id="l_8" gradientUnits="userSpaceOnUse" x1="395.5" y1="-193" x2="395.5" y2="-229">
<stop offset="0" style="stop-color:#ffffbb;stop-opacity:1.;"/>
<stop offset="1" style="stop-color:#ffffee;stop-opacity:1.;"/>
</linearGradient>
</defs>
<polygon fill="url(#l_8)" stroke="black" points="439,-229 352,-229 352,-193 439,-193 439,-229"/>
<text text-anchor="start" x="362.5" y="-209.2" font-family="Arial" font-weight="bold" font-size="11.00" fill="black"><a fill="navy" href="../reference/Equipment/SprayNozzle.html" target="_parent">SprayNozzle</a></text>
</g>
<!-- 10&#45;&gt;37 -->
<g id="edge6" class="edge"><path fill="none" stroke="#000000" d="M407.357,-277.548C399.867,-273.067 393.12,-267.33 388.5,-260 384.594,-253.802 384.151,-246.272 385.269,-239.033"/>
<polygon fill="#000000" stroke="#000000" points="407.588,-277.664 414.747,-276.802 418.297,-283.08 411.137,-283.942 407.588,-277.664"/>
<polygon fill="#000000" stroke="#000000" points="387.69,-229.16 389.678,-239.944 386.499,-234.016 385.308,-238.873 385.308,-238.873 385.308,-238.873 386.499,-234.016 380.937,-237.801 387.69,-229.16 387.69,-229.16"/>
<text text-anchor="start" x="391" y="-249.5" font-family="Arial" font-size="10.00" fill="black"><a fill="navy" href="../reference/Equipment/Equipment.html#dexpi-equipment-equipment-spraynozzles" target="_parent">SprayNozzles</a></text>
<text text-anchor="start" x="379.69" y="-232.16" font-family="Arial" font-size="10.00" fill="black">*</text>
<text text-anchor="start" x="406.297" y="-273.08" font-family="Arial" font-size="10.00" fill="black">0..1</text>
</g>
<!-- 16&#45;inner&#45;node -->
<!-- 10&#45;&gt;16&#45;inner&#45;node -->
<g id="edge13" class="edge"><path fill="none" stroke="black" d="M457.5,-265.649C457.5,-242.987 457.5,-214.163 457.5,-212.116L457.5,-209.937"/>
<polygon fill="none" stroke="black" points="454,-265.822 457.5,-275.822 461,-265.822 454,-265.822"/>
</g>
<!-- 11 -->
<g id="node5" class="node"><defs>
<linearGradient id="l_9" gradientUnits="userSpaceOnUse" x1="341.5" y1="-428" x2="341.5" y2="-464">
<stop offset="0" style="stop-color:#ffffbb;stop-opacity:1.;"/>
<stop offset="1" style="stop-color:#ffffee;stop-opacity:1.;"/>
</linearGradient>
</defs>
<polygon fill="url(#l_9)" stroke="black" points="394,-464 289,-464 289,-428 394,-428 394,-464"/>
<text text-anchor="start" x="299.5" y="-444.2" font-family="Arial" font-weight="bold" font-style="italic" font-size="11.00" fill="black"><a fill="navy" href="../reference/Equipment/ChamberOwner.html" target="_parent">ChamberOwner</a></text>
</g>
<!-- 40 -->
<g id="node15" class="node"><defs>
<linearGradient id="l_10" gradientUnits="userSpaceOnUse" x1="277.5" y1="-345" x2="277.5" y2="-381">
<stop offset="0" style="stop-color:#ffffbb;stop-opacity:1.;"/>
<stop offset="1" style="stop-color:#ffffee;stop-opacity:1.;"/>
</linearGradient>
</defs>
<polygon fill="url(#l_10)" stroke="black" points="312,-381 243,-381 243,-345 312,-345 312,-381"/>
<text text-anchor="start" x="253.5" y="-361.2" font-family="Arial" font-weight="bold" font-size="11.00" fill="black"><a fill="navy" href="../reference/Equipment/Chamber.html" target="_parent">Chamber</a></text>
</g>
<!-- 11&#45;&gt;40 -->
<g id="edge7" class="edge"><path fill="none" stroke="#000000" d="M295.598,-420.09C292.972,-417.591 290.565,-414.896 288.5,-412 284.181,-405.945 281.527,-398.461 279.905,-391.22"/>
<polygon fill="#000000" stroke="#000000" points="295.859,-420.3 303.041,-420.955 305.199,-427.835 298.017,-427.181 295.859,-420.3"/>
<polygon fill="#000000" stroke="#000000" points="278.234,-381.318 284.336,-390.43 279.066,-386.248 279.898,-391.179 279.898,-391.179 279.898,-391.179 279.066,-386.248 275.461,-391.928 278.234,-381.318 278.234,-381.318"/>
<text text-anchor="start" x="291" y="-401.5" font-family="Arial" font-size="10.00" fill="black"><a fill="navy" href="../reference/Equipment/ChamberOwner.html#dexpi-equipment-chamberowner-chambers" target="_parent">Chambers</a></text>
<text text-anchor="start" x="270.234" y="-384.318" font-family="Arial" font-size="10.00" fill="black">*</text>
<text text-anchor="start" x="276.199" y="-417.835" font-family="Arial" font-size="10.00" fill="black">0..1</text>
</g>
<!-- 17&#45;inner&#45;node -->
<!-- 11&#45;&gt;17&#45;inner&#45;node -->
<g id="edge15" class="edge"><path fill="none" stroke="black" d="M341.5,-417.649C341.5,-394.987 341.5,-366.163 341.5,-364.116L341.64,-361.884"/>
<polygon fill="none" stroke="black" points="338,-417.822 341.5,-427.822 345,-417.822 338,-417.822"/>
</g>
<!-- 12 -->
<g id="node6" class="node"><defs>
<linearGradient id="l_11" gradientUnits="userSpaceOnUse" x1="457.5" y1="-428" x2="457.5" y2="-464">
<stop offset="0" style="stop-color:#ffffbb;stop-opacity:1.;"/>
<stop offset="1" style="stop-color:#ffffee;stop-opacity:1.;"/>
</linearGradient>
</defs>
<polygon fill="url(#l_11)" stroke="black" points="502.5,-464 412.5,-464 412.5,-428 502.5,-428 502.5,-464"/>
<text text-anchor="start" x="422.5" y="-444.2" font-family="Arial" font-weight="bold" font-style="italic" font-size="11.00" fill="black"><a fill="navy" href="../reference/Equipment/NozzleOwner.html" target="_parent">NozzleOwner</a></text>
</g>
<!-- 43 -->
<g id="node16" class="node"><defs>
<linearGradient id="l_12" gradientUnits="userSpaceOnUse" x1="402.5" y1="-345" x2="402.5" y2="-381">
<stop offset="0" style="stop-color:#ffffbb;stop-opacity:1.;"/>
<stop offset="1" style="stop-color:#ffffee;stop-opacity:1.;"/>
</linearGradient>
</defs>
<polygon fill="url(#l_12)" stroke="black" points="431,-381 374,-381 374,-345 431,-345 431,-381"/>
<text text-anchor="start" x="384.5" y="-361.2" font-family="Arial" font-weight="bold" font-size="11.00" fill="black"><a fill="navy" href="../reference/Equipment/Nozzle.html" target="_parent">Nozzle</a></text>
</g>
<!-- 12&#45;&gt;43 -->
<g id="edge8" class="edge"><path fill="none" stroke="#000000" d="M419.289,-419.384C417.147,-417.056 415.185,-414.592 413.5,-412 409.447,-405.763 406.878,-398.222 405.253,-390.983"/>
<polygon fill="#000000" stroke="#000000" points="419.431,-419.515 426.552,-420.651 428.242,-427.662 421.121,-426.525 419.431,-419.515"/>
<polygon fill="#000000" stroke="#000000" points="403.528,-381.118 409.683,-390.193 404.389,-386.043 405.251,-390.969 405.251,-390.969 405.251,-390.969 404.389,-386.043 400.818,-391.744 403.528,-381.118 403.528,-381.118"/>
<text text-anchor="start" x="415.5" y="-401.5" font-family="Arial" font-size="10.00" fill="black"><a fill="navy" href="../reference/Equipment/NozzleOwner.html#dexpi-equipment-nozzleowner-nozzles" target="_parent">Nozzles</a></text>
<text text-anchor="start" x="395.528" y="-384.118" font-family="Arial" font-size="10.00" fill="black">*</text>
<text text-anchor="start" x="399.242" y="-417.662" font-family="Arial" font-size="10.00" fill="black">0..1</text>
</g>
<!-- 18&#45;inner&#45;node -->
<!-- 12&#45;&gt;18&#45;inner&#45;node -->
<g id="edge17" class="edge"><path fill="none" stroke="black" d="M457.5,-417.649C457.5,-394.987 457.5,-366.163 457.5,-364.116L457.5,-361.951"/>
<polygon fill="none" stroke="black" points="454,-417.822 457.5,-427.822 461,-417.822 454,-417.822"/>
</g>
<!-- 13 -->
<g id="node7" class="node"><defs>
<linearGradient id="l_13" gradientUnits="userSpaceOnUse" x1="575.5" y1="-428" x2="575.5" y2="-464">
<stop offset="0" style="stop-color:#ffffbb;stop-opacity:1.;"/>
<stop offset="1" style="stop-color:#ffffee;stop-opacity:1.;"/>
</linearGradient>
</defs>
<polygon fill="url(#l_13)" stroke="black" points="630,-464 521,-464 521,-428 630,-428 630,-464"/>
<text text-anchor="start" x="531.5" y="-444.2" font-family="Arial" font-weight="bold" font-style="italic" font-size="11.00" fill="black"><a fill="navy" href="../reference/Equipment/TaggedPlantItem.html" target="_parent">TaggedPlantItem</a></text>
</g>
<!-- 19&#45;inner&#45;node -->
<!-- 13&#45;&gt;19&#45;inner&#45;node -->
<g id="edge19" class="edge"><path fill="none" stroke="black" d="M575.5,-417.649C575.5,-394.987 575.5,-366.163 575.5,-364.116L575.414,-361.951"/>
<polygon fill="none" stroke="black" points="572,-417.822 575.5,-427.822 579,-417.822 572,-417.822"/>
</g>
<!-- 14 -->
<g id="node8" class="node"><defs>
<linearGradient id="l_14" gradientUnits="userSpaceOnUse" x1="471.5" y1="-594" x2="471.5" y2="-630">
<stop offset="0" style="stop-color:#ffffbb;stop-opacity:1.;"/>
<stop offset="1" style="stop-color:#ffffee;stop-opacity:1.;"/>
</linearGradient>
</defs>
<polygon fill="url(#l_14)" stroke="black" points="529,-630 414,-630 414,-594 529,-594 529,-630"/>
<text text-anchor="start" x="424.5" y="-610.2" font-family="Arial" font-weight="bold" font-style="italic" font-size="11.00" fill="black"><a fill="navy" href="../reference/DexpiModel/ConceptualObject.html" target="_parent">ConceptualObject</a></text>
</g>
<!-- 20&#45;inner&#45;node -->
<!-- 14&#45;&gt;20&#45;inner&#45;node -->
<g id="edge21" class="edge"><path fill="none" stroke="black" d="M471.5,-583.649C471.5,-560.987 471.5,-532.163 471.5,-530.116L471.538,-527.879"/>
<polygon fill="none" stroke="black" points="468,-583.822 471.5,-593.822 475,-583.822 468,-583.822"/>
</g>
<!-- 15 -->
<g id="node9" class="node"><defs>
<linearGradient id="l_15" gradientUnits="userSpaceOnUse" x1="629.5" y1="-594" x2="629.5" y2="-630">
<stop offset="0" style="stop-color:#ffffbb;stop-opacity:1.;"/>
<stop offset="1" style="stop-color:#ffffee;stop-opacity:1.;"/>
</linearGradient>
</defs>
<polygon fill="url(#l_15)" stroke="black" points="701.5,-630 557.5,-630 557.5,-594 701.5,-594 701.5,-630"/>
<text text-anchor="start" x="567.5" y="-610.2" font-family="Arial" font-weight="bold" font-style="italic" font-size="11.00" fill="black"><a fill="navy" href="../reference/Customization/CustomAttributeOwner.html" target="_parent">CustomAttributeOwner</a></text>
</g>
<!-- 55 -->
<g id="node20" class="node"><defs>
<linearGradient id="l_16" gradientUnits="userSpaceOnUse" x1="544.5" y1="-511" x2="544.5" y2="-547">
<stop offset="0" style="stop-color:#ffffbb;stop-opacity:1.;"/>
<stop offset="1" style="stop-color:#ffffee;stop-opacity:1.;"/>
</linearGradient>
</defs>
<polygon fill="url(#l_16)" stroke="black" points="599,-547 490,-547 490,-511 599,-511 599,-547"/>
<text text-anchor="start" x="500.5" y="-527.2" font-family="Arial" font-weight="bold" font-style="italic" font-size="11.00" fill="black"><a fill="navy" href="../reference/Customization/CustomAttribute.html" target="_parent">CustomAttribute</a></text>
</g>
<!-- 15&#45;&gt;55 -->
<g id="edge12" class="edge"><path fill="none" stroke="#000000" d="M552.949,-586.486C550.181,-583.933 547.67,-581.113 545.5,-578 541.402,-572.119 539.944,-564.772 539.815,-557.608"/>
<polygon fill="#000000" stroke="#000000" points="552.998,-586.523 560.196,-586.959 562.563,-593.77 555.365,-593.335 552.998,-586.523"/>
<polygon fill="#000000" stroke="#000000" points="540.425,-547.435 544.319,-557.687 540.126,-552.426 539.827,-557.417 539.827,-557.417 539.827,-557.417 540.126,-552.426 535.335,-557.148 540.425,-547.435 540.425,-547.435"/>
<text text-anchor="start" x="547.5" y="-567.5" font-family="Arial" font-size="10.00" fill="black"><a fill="navy" href="../reference/Customization/CustomAttributeOwner.html#dexpi-customization-customattributeowner-customattributes" target="_parent">CustomAttributes</a></text>
<text text-anchor="start" x="532.425" y="-550.435" font-family="Arial" font-size="10.00" fill="black">*</text>
<text text-anchor="start" x="533.563" y="-583.77" font-family="Arial" font-size="10.00" fill="black">0..1</text>
</g>
<!-- 21&#45;inner&#45;node -->
<!-- 15&#45;&gt;21&#45;inner&#45;node -->
<g id="edge23" class="edge"><path fill="none" stroke="black" d="M629.5,-583.649C629.5,-560.987 629.5,-532.163 629.5,-530.116L629.461,-527.941"/>
<polygon fill="none" stroke="black" points="626,-583.822 629.5,-593.822 633,-583.822 626,-583.822"/>
</g>
<!-- 46 -->
<g id="node17" class="node"><defs>
<linearGradient id="l_17" gradientUnits="userSpaceOnUse" x1="395.5" y1="-511" x2="395.5" y2="-547">
<stop offset="0" style="stop-color:#ffffbb;stop-opacity:1.;"/>
<stop offset="1" style="stop-color:#ffffee;stop-opacity:1.;"/>
</linearGradient>
</defs>
<polygon fill="url(#l_17)" stroke="black" points="452.5,-547 338.5,-547 338.5,-511 452.5,-511 452.5,-547"/>
<text text-anchor="start" x="348.5" y="-527.2" font-family="Arial" font-weight="bold" font-size="11.00" fill="black"><a fill="navy" href="../reference/DexpiModel/ConceptualModel.html" target="_parent">ConceptualModel</a></text>
</g>
<!-- 46&#45;&gt;13 -->
<g id="edge9" class="edge"><path fill="none" stroke="#000000" d="M400.324,-499.016C402.842,-491.86 406.673,-484.862 412.5,-480 444.518,-453.287 465.123,-470.682 510.934,-463.726"/>
<polygon fill="#000000" stroke="#000000" points="400.262,-499.253 402.602,-506.074 397.205,-510.857 394.865,-504.036 400.262,-499.253"/>
<polygon fill="#000000" stroke="#000000" points="520.773,-461.92 511.751,-468.152 515.856,-462.823 510.938,-463.726 510.938,-463.726 510.938,-463.726 515.856,-462.823 510.125,-459.3 520.773,-461.92 520.773,-461.92"/>
<text text-anchor="start" x="415" y="-484.5" font-family="Arial" font-size="10.00" fill="black"><a fill="navy" href="../reference/DexpiModel/ConceptualModel.html#dexpi-dexpimodel-conceptualmodel-taggedplantitems" target="_parent">TaggedPlantItems</a></text>
<text text-anchor="start" x="512.773" y="-464.92" font-family="Arial" font-size="10.00" fill="black">*</text>
<text text-anchor="start" x="368.205" y="-500.857" font-family="Arial" font-size="10.00" fill="black">0..1</text>
</g>
<!-- 49 -->
<g id="node18" class="node"><defs>
<linearGradient id="l_18" gradientUnits="userSpaceOnUse" x1="368.5" y1="-685.5" x2="368.5" y2="-721.5">
<stop offset="0" style="stop-color:#ffffbb;stop-opacity:1.;"/>
<stop offset="1" style="stop-color:#ffffee;stop-opacity:1.;"/>
</linearGradient>
</defs>
<polygon fill="url(#l_18)" stroke="black" points="443,-721.5 294,-721.5 294,-685.5 443,-685.5 443,-721.5"/>
<text text-anchor="start" x="304.5" y="-701.7" font-family="Arial" font-weight="bold" font-size="11.00" fill="black"><a fill="navy" href="../reference/Graphics/AttributeRepresentation.html" target="_parent">AttributeRepresentation</a></text>
</g>
<!-- 49&#45;&gt;14 -->
<g id="edge10" class="edge"><path fill="none" stroke="#000000" d="M388.359,-685.243C404.176,-671.5 426.493,-652.108 444.024,-636.875"/>
<polygon fill="#000000" stroke="#000000" points="451.702,-630.204 447.105,-640.159 447.927,-633.483 444.153,-636.763 444.153,-636.763 444.153,-636.763 447.927,-633.483 441.201,-633.366 451.702,-630.204 451.702,-630.204"/>
<text text-anchor="start" x="435" y="-650.5" font-family="Arial" font-size="10.00" fill="black"><a fill="navy" href="../reference/Graphics/AttributeRepresentation.html#dexpi-graphics-attributerepresentation-object" target="_parent">Object</a></text>
<text text-anchor="start" x="443.702" y="-633.204" font-family="Arial" font-size="10.00" fill="black"></text>
<text text-anchor="start" x="372.359" y="-675.243" font-family="Arial" font-size="10.00" fill="black">*</text>
</g>
<!-- 52 -->
<g id="node19" class="node"><defs>
<linearGradient id="l_19" gradientUnits="userSpaceOnUse" x1="529.5" y1="-685.5" x2="529.5" y2="-721.5">
<stop offset="0" style="stop-color:#ffffbb;stop-opacity:1.;"/>
<stop offset="1" style="stop-color:#ffffee;stop-opacity:1.;"/>
</linearGradient>
</defs>
<polygon fill="url(#l_19)" stroke="black" points="598,-721.5 461,-721.5 461,-685.5 598,-685.5 598,-721.5"/>
<text text-anchor="start" x="471.5" y="-701.7" font-family="Arial" font-weight="bold" font-size="11.00" fill="black"><a fill="navy" href="../reference/Graphics/RepresentationGroup.html" target="_parent">RepresentationGroup</a></text>
</g>
<!-- 52&#45;&gt;14 -->
<g id="edge11" class="edge"><path fill="none" stroke="#000000" d="M518.317,-685.243C509.812,-672.119 497.968,-653.843 488.322,-638.958"/>
<polygon fill="#000000" stroke="#000000" points="482.649,-630.204 491.863,-636.148 485.368,-634.399 488.087,-638.595 488.087,-638.595 488.087,-638.595 485.368,-634.399 484.311,-641.043 482.649,-630.204 482.649,-630.204"/>
<text text-anchor="start" x="504.5" y="-650.5" font-family="Arial" font-size="10.00" fill="black"><a fill="navy" href="../reference/Graphics/RepresentationGroup.html#dexpi-graphics-representationgroup-represents" target="_parent">Represents</a></text>
<text text-anchor="start" x="474.649" y="-633.204" font-family="Arial" font-size="10.00" fill="black"></text>
<text text-anchor="start" x="502.317" y="-675.243" font-family="Arial" font-size="10.00" fill="black">*</text>
</g>
<!-- 16&#45;inner&#45;node&#45;&gt;0 -->
<g id="edge14" class="edge"><path fill="none" stroke="black" d="M457.5,-209.937C457.5,-208.508 457.5,-183.212 457.5,-160.195"/>
</g>
<!-- 17&#45;inner&#45;node&#45;&gt;10 -->
<g id="edge16" class="edge"><path fill="none" stroke="black" d="M341.64,-361.884C343.027,-360.739 354.434,-351.38 364.5,-345 383.235,-333.126 405.036,-321.306 422.819,-312.142"/>
</g>
<!-- 18&#45;inner&#45;node&#45;&gt;10 -->
<g id="edge18" class="edge"><path fill="none" stroke="black" d="M457.5,-361.951C457.5,-360.604 457.5,-331.522 457.5,-312.135"/>
</g>
<!-- 19&#45;inner&#45;node&#45;&gt;10 -->
<g id="edge20" class="edge"><path fill="none" stroke="black" d="M575.414,-361.951C573.042,-360.604 521.822,-331.522 487.677,-312.135"/>
</g>
<!-- 20&#45;inner&#45;node&#45;&gt;13 -->
<g id="edge22" class="edge"><path fill="none" stroke="black" d="M471.538,-527.879C471.92,-526.686 475.141,-516.959 480.5,-511 497.92,-491.629 522.388,-475.325 542.129,-464.02"/>
</g>
<!-- 21&#45;inner&#45;node&#45;&gt;13 -->
<g id="edge24" class="edge"><path fill="none" stroke="black" d="M629.461,-527.941C628.318,-526.226 602.391,-487.337 586.898,-464.098"/>
</g>
<!-- 22&#45;inner&#45;node&#45;&gt;13 -->
<g id="edge26" class="edge"><path fill="none" stroke="black" d="M766.362,-527.941C762.318,-526.226 670.615,-487.337 615.817,-464.098"/>
</g>
</g>
</svg>