<!DOCTYPE svg PUBLIC "-//W3C//DTD SVG 1.1//EN" "http://www.w3.org/Graphics/SVG/1.1/DTD/svg11.dtd">
<!-- Generated by graphviz version 2.38.0 (20140413.2041)
 --><!-- Title: G Pages: 1 --><svg xmlns="http://www.w3.org/2000/svg" xmlns:xlink="http://www.w3.org/1999/xlink" width="686pt" height="387pt" viewBox="0.00 0.00 686.00 387.00">
<g id="graph0" class="graph" transform="scale(1 1) rotate(0) translate(4 383)">
<!-- 0 -->
<g id="node1" class="node"><defs>
<linearGradient id="l_0" gradientUnits="userSpaceOnUse" x1="348" y1="-83" x2="348" y2="-130">
<stop offset="0" style="stop-color:#ffffbb;stop-opacity:1.;"/>
<stop offset="1" style="stop-color:#ffffee;stop-opacity:1.;"/>
</linearGradient>
</defs>
<polygon fill="url(#l_0)" stroke="black" points="467,-130 229,-130 229,-83 467,-83 467,-130"/>
<text text-anchor="start" x="292" y="-115.7" font-family="Arial" font-weight="bold" font-size="11.00" fill="black">HeatExchangerRotor</text>
<text text-anchor="start" x="239" y="-91.5" font-family="Arial" font-size="10.00" fill="black"><a fill="navy" href="../reference/Equipment/HeatExchangerRotor.html#dexpi-equipment-heatexchangerrotor-materialofconstructioncode" target="_parent">MaterialOfConstructionCode</a>&#160;:</text>
<text text-anchor="start" x="371" y="-91.5" font-family="Arial" font-size="10.00" fill="black"><a fill="navy" href="../reference/DataTypes/NullableString.html" target="_parent">NullableString</a>&#160;[0..1]</text>
<polygon fill="black" stroke="black" points="467.0,-109.5 229.0,-109.5 229.0,-109.5 467.0,-109.5 467.0,-109.5"/>
</g>
<!-- 9 -->
<g id="node4" class="node"><defs>
<linearGradient id="l_1" gradientUnits="userSpaceOnUse" x1="348" y1="-1.77636e-014" x2="348" y2="-36">
<stop offset="0" style="stop-color:#ffffbb;stop-opacity:1.;"/>
<stop offset="1" style="stop-color:#ffffee;stop-opacity:1.;"/>
</linearGradient>
</defs>
<polygon fill="url(#l_1)" stroke="black" points="382.5,-36 313.5,-36 313.5,-0 382.5,-0 382.5,-36"/>
<text text-anchor="start" x="324" y="-16.2" font-family="Arial" font-weight="bold" font-size="11.00" fill="black"><a fill="navy" href="../reference/Equipment/Chamber.html" target="_parent">Chamber</a></text>
</g>
<!-- 0&#45;&gt;9 -->
<g id="edge1" class="edge"><path fill="none" stroke="#000000" d="M348,-82.7731C348,-71.5826 348,-58.0057 348,-46.26"/>
<polygon fill="#000000" stroke="#000000" points="348,-36.109 352.5,-46.1089 348,-41.109 348,-46.109 348,-46.109 348,-46.109 348,-41.109 343.5,-46.109 348,-36.109 348,-36.109"/>
<text text-anchor="start" x="350" y="-56.5" font-family="Arial" font-size="10.00" fill="black"><a fill="navy" href="../reference/Equipment/HeatExchangerRotor.html#dexpi-equipment-heatexchangerrotor-chamber" target="_parent">Chamber</a></text>
<text text-anchor="start" x="327.0" y="-39.109" font-family="Arial" font-size="10.00" fill="black">0..1</text>
<text text-anchor="start" x="332.0" y="-72.7731" font-family="Arial" font-size="10.00" fill="black">*</text>
</g>
<!-- 3 -->
<g id="node2" class="node"><defs>
<linearGradient id="l_2" gradientUnits="userSpaceOnUse" x1="438" y1="-260" x2="438" y2="-296">
<stop offset="0" style="stop-color:#ffffbb;stop-opacity:1.;"/>
<stop offset="1" style="stop-color:#ffffee;stop-opacity:1.;"/>
</linearGradient>
</defs>
<polygon fill="url(#l_2)" stroke="black" points="495.5,-296 380.5,-296 380.5,-260 495.5,-260 495.5,-296"/>
<text text-anchor="start" x="391" y="-276.2" font-family="Arial" font-weight="bold" font-style="italic" font-size="11.00" fill="black"><a fill="navy" href="../reference/DexpiModel/ConceptualObject.html" target="_parent">ConceptualObject</a></text>
</g>
<!-- 5&#45;inner&#45;node -->
<!-- 3&#45;&gt;5&#45;inner&#45;node -->
<g id="edge8" class="edge"><path fill="none" stroke="black" d="M438,-249.649C438,-226.987 438,-198.163 438,-196.116L437.949,-193.883"/>
<polygon fill="none" stroke="black" points="434.5,-249.822 438,-259.822 441.5,-249.822 434.5,-249.822"/>
</g>
<!-- 4 -->
<g id="node3" class="node"><defs>
<linearGradient id="l_3" gradientUnits="userSpaceOnUse" x1="606" y1="-260" x2="606" y2="-296">
<stop offset="0" style="stop-color:#ffffbb;stop-opacity:1.;"/>
<stop offset="1" style="stop-color:#ffffee;stop-opacity:1.;"/>
</linearGradient>
</defs>
<polygon fill="url(#l_3)" stroke="black" points="678,-296 534,-296 534,-260 678,-260 678,-296"/>
<text text-anchor="start" x="544" y="-276.2" font-family="Arial" font-weight="bold" font-style="italic" font-size="11.00" fill="black"><a fill="navy" href="../reference/Customization/CustomAttributeOwner.html" target="_parent">CustomAttributeOwner</a></text>
</g>
<!-- 27 -->
<g id="node10" class="node"><defs>
<linearGradient id="l_4" gradientUnits="userSpaceOnUse" x1="511" y1="-177" x2="511" y2="-213">
<stop offset="0" style="stop-color:#ffffbb;stop-opacity:1.;"/>
<stop offset="1" style="stop-color:#ffffee;stop-opacity:1.;"/>
</linearGradient>
</defs>
<polygon fill="url(#l_4)" stroke="black" points="565.5,-213 456.5,-213 456.5,-177 565.5,-177 565.5,-213"/>
<text text-anchor="start" x="467" y="-193.2" font-family="Arial" font-weight="bold" font-style="italic" font-size="11.00" fill="black"><a fill="navy" href="../reference/Customization/CustomAttribute.html" target="_parent">CustomAttribute</a></text>
</g>
<!-- 4&#45;&gt;27 -->
<g id="edge7" class="edge"><path fill="none" stroke="#000000" d="M532.066,-253.359C528.387,-250.576 524.987,-247.469 522,-244 517.071,-238.275 514.234,-230.784 512.632,-223.428"/>
<polygon fill="#000000" stroke="#000000" points="532.276,-253.495 539.486,-253.381 542.365,-259.992 535.155,-260.106 532.276,-253.495"/>
<polygon fill="#000000" stroke="#000000" points="511.101,-213.317 517.048,-222.53 511.85,-218.26 512.598,-223.204 512.598,-223.204 512.598,-223.204 511.85,-218.26 508.149,-223.878 511.101,-213.317 511.101,-213.317"/>
<text text-anchor="start" x="524" y="-233.5" font-family="Arial" font-size="10.00" fill="black"><a fill="navy" href="../reference/Customization/CustomAttributeOwner.html#dexpi-customization-customattributeowner-customattributes" target="_parent">CustomAttributes</a></text>
<text text-anchor="start" x="503.101" y="-216.317" font-family="Arial" font-size="10.00" fill="black">*</text>
<text text-anchor="start" x="513.365" y="-249.992" font-family="Arial" font-size="10.00" fill="black">0..1</text>
</g>
<!-- 6&#45;inner&#45;node -->
<!-- 4&#45;&gt;6&#45;inner&#45;node -->
<g id="edge10" class="edge"><path fill="none" stroke="black" d="M606,-249.649C606,-226.987 606,-198.163 606,-196.116L605.95,-193.969"/>
<polygon fill="none" stroke="black" points="602.5,-249.822 606,-259.822 609.5,-249.822 602.5,-249.822"/>
</g>
<!-- 12 -->
<g id="node5" class="node"><defs>
<linearGradient id="l_5" gradientUnits="userSpaceOnUse" x1="57" y1="-177" x2="57" y2="-213">
<stop offset="0" style="stop-color:#ffffbb;stop-opacity:1.;"/>
<stop offset="1" style="stop-color:#ffffee;stop-opacity:1.;"/>
</linearGradient>
</defs>
<polygon fill="url(#l_5)" stroke="black" points="114,-213 0,-213 0,-177 114,-177 114,-213"/>
<text text-anchor="start" x="10" y="-193.2" font-family="Arial" font-weight="bold" font-size="11.00" fill="black"><a fill="navy" href="../reference/Equipment/AirCoolingSystem.html" target="_parent">AirCoolingSystem</a></text>
</g>
<!-- 12&#45;&gt;0 -->
<g id="edge2" class="edge"><path fill="none" stroke="#000000" d="M125.898,-173.52C166.803,-161.361 219.008,-145.843 262.525,-132.907"/>
<polygon fill="#000000" stroke="#000000" points="125.648,-173.594 121.036,-179.138 114.145,-177.014 118.757,-171.47 125.648,-173.594"/>
<polygon fill="#000000" stroke="#000000" points="272.241,-130.019 263.938,-137.182 267.449,-131.444 262.656,-132.869 262.656,-132.869 262.656,-132.869 267.449,-131.444 261.374,-128.555 272.241,-130.019 272.241,-130.019"/>
<text text-anchor="start" x="214" y="-150.5" font-family="Arial" font-size="10.00" fill="black"><a fill="navy" href="../reference/Equipment/AirCoolingSystem.html#dexpi-equipment-aircoolingsystem-rotor" target="_parent">Rotor</a></text>
<text text-anchor="start" x="251.241" y="-133.019" font-family="Arial" font-size="10.00" fill="black">0..1</text>
<text text-anchor="start" x="85.145" y="-167.014" font-family="Arial" font-size="10.00" fill="black">0..1</text>
</g>
<!-- 15 -->
<g id="node6" class="node"><defs>
<linearGradient id="l_6" gradientUnits="userSpaceOnUse" x1="195" y1="-177" x2="195" y2="-213">
<stop offset="0" style="stop-color:#ffffbb;stop-opacity:1.;"/>
<stop offset="1" style="stop-color:#ffffee;stop-opacity:1.;"/>
</linearGradient>
</defs>
<polygon fill="url(#l_6)" stroke="black" points="258,-213 132,-213 132,-177 258,-177 258,-213"/>
<text text-anchor="start" x="142" y="-193.2" font-family="Arial" font-weight="bold" font-size="11.00" fill="black"><a fill="navy" href="../reference/Equipment/ThinFilmEvaporator.html" target="_parent">ThinFilmEvaporator</a></text>
</g>
<!-- 15&#45;&gt;0 -->
<g id="edge3" class="edge"><path fill="none" stroke="#000000" d="M235.737,-170.969C255.218,-159.955 278.691,-146.684 299.126,-135.131"/>
<polygon fill="#000000" stroke="#000000" points="235.674,-171.005 232.42,-177.439 225.228,-176.91 228.482,-170.475 235.674,-171.005"/>
<polygon fill="#000000" stroke="#000000" points="307.976,-130.128 301.486,-138.967 303.623,-132.589 299.271,-135.05 299.271,-135.05 299.271,-135.05 303.623,-132.589 297.056,-131.132 307.976,-130.128 307.976,-130.128"/>
<text text-anchor="start" x="279" y="-150.5" font-family="Arial" font-size="10.00" fill="black"><a fill="navy" href="../reference/Equipment/ThinFilmEvaporator.html#dexpi-equipment-thinfilmevaporator-rotor" target="_parent">Rotor</a></text>
<text text-anchor="start" x="286.976" y="-133.128" font-family="Arial" font-size="10.00" fill="black">0..1</text>
<text text-anchor="start" x="196.228" y="-166.91" font-family="Arial" font-size="10.00" fill="black">0..1</text>
</g>
<!-- 18 -->
<g id="node7" class="node"><defs>
<linearGradient id="l_7" gradientUnits="userSpaceOnUse" x1="348" y1="-177" x2="348" y2="-213">
<stop offset="0" style="stop-color:#ffffbb;stop-opacity:1.;"/>
<stop offset="1" style="stop-color:#ffffee;stop-opacity:1.;"/>
</linearGradient>
</defs>
<polygon fill="url(#l_7)" stroke="black" points="419.5,-213 276.5,-213 276.5,-177 419.5,-177 419.5,-213"/>
<text text-anchor="start" x="287" y="-193.2" font-family="Arial" font-weight="bold" font-size="11.00" fill="black"><a fill="navy" href="../reference/Equipment/CustomHeatExchanger.html" target="_parent">CustomHeatExchanger</a></text>
</g>
<!-- 18&#45;&gt;0 -->
<g id="edge4" class="edge"><path fill="none" stroke="#000000" d="M348,-164.55C348,-156.724 348,-148.226 348,-140.237"/>
<polygon fill="#000000" stroke="#000000" points="348,-164.91 352,-170.91 348,-176.91 344,-170.91 348,-164.91"/>
<polygon fill="#000000" stroke="#000000" points="348,-130.128 352.5,-140.128 348,-135.128 348,-140.128 348,-140.128 348,-140.128 348,-135.128 343.5,-140.128 348,-130.128 348,-130.128"/>
<text text-anchor="start" x="350" y="-150.5" font-family="Arial" font-size="10.00" fill="black"><a fill="navy" href="../reference/Equipment/CustomHeatExchanger.html#dexpi-equipment-customheatexchanger-rotor" target="_parent">Rotor</a></text>
<text text-anchor="start" x="327.0" y="-133.128" font-family="Arial" font-size="10.00" fill="black">0..1</text>
<text text-anchor="start" x="319.0" y="-166.91" font-family="Arial" font-size="10.00" fill="black">0..1</text>
</g>
<!-- 21 -->
<g id="node8" class="node"><defs>
<linearGradient id="l_8" gradientUnits="userSpaceOnUse" x1="358" y1="-343" x2="358" y2="-379">
<stop offset="0" style="stop-color:#ffffbb;stop-opacity:1.;"/>
<stop offset="1" style="stop-color:#ffffee;stop-opacity:1.;"/>
</linearGradient>
</defs>
<polygon fill="url(#l_8)" stroke="black" points="432.5,-379 283.5,-379 283.5,-343 432.5,-343 432.5,-379"/>
<text text-anchor="start" x="294" y="-359.2" font-family="Arial" font-weight="bold" font-size="11.00" fill="black"><a fill="navy" href="../reference/Graphics/AttributeRepresentation.html" target="_parent">AttributeRepresentation</a></text>
</g>
<!-- 21&#45;&gt;3 -->
<g id="edge5" class="edge"><path fill="none" stroke="#000000" d="M374.966,-342.822C386.315,-331.331 401.416,-316.041 413.993,-303.307"/>
<polygon fill="#000000" stroke="#000000" points="421.059,-296.153 417.233,-306.43 417.545,-299.711 414.031,-303.268 414.031,-303.268 414.031,-303.268 417.545,-299.711 410.83,-300.106 421.059,-296.153 421.059,-296.153"/>
<text text-anchor="start" x="408.5" y="-316.5" font-family="Arial" font-size="10.00" fill="black"><a fill="navy" href="../reference/Graphics/AttributeRepresentation.html#dexpi-graphics-attributerepresentation-object" target="_parent">Object</a></text>
<text text-anchor="start" x="413.059" y="-299.153" font-family="Arial" font-size="10.00" fill="black"></text>
<text text-anchor="start" x="358.966" y="-332.822" font-family="Arial" font-size="10.00" fill="black">*</text>
</g>
<!-- 24 -->
<g id="node9" class="node"><defs>
<linearGradient id="l_9" gradientUnits="userSpaceOnUse" x1="519" y1="-343" x2="519" y2="-379">
<stop offset="0" style="stop-color:#ffffbb;stop-opacity:1.;"/>
<stop offset="1" style="stop-color:#ffffee;stop-opacity:1.;"/>
</linearGradient>
</defs>
<polygon fill="url(#l_9)" stroke="black" points="587.5,-379 450.5,-379 450.5,-343 587.5,-343 587.5,-379"/>
<text text-anchor="start" x="461" y="-359.2" font-family="Arial" font-weight="bold" font-size="11.00" fill="black"><a fill="navy" href="../reference/Graphics/RepresentationGroup.html" target="_parent">RepresentationGroup</a></text>
</g>
<!-- 24&#45;&gt;3 -->
<g id="edge6" class="edge"><path fill="none" stroke="#000000" d="M501.822,-342.822C490.331,-331.331 475.041,-316.041 462.307,-303.307"/>
<polygon fill="#000000" stroke="#000000" points="455.153,-296.153 465.406,-300.042 458.689,-299.689 462.224,-303.224 462.224,-303.224 462.224,-303.224 458.689,-299.689 459.042,-306.406 455.153,-296.153 455.153,-296.153"/>
<text text-anchor="start" x="488" y="-316.5" font-family="Arial" font-size="10.00" fill="black"><a fill="navy" href="../reference/Graphics/RepresentationGroup.html#dexpi-graphics-representationgroup-represents" target="_parent">Represents</a></text>
<text text-anchor="start" x="447.153" y="-299.153" font-family="Arial" font-size="10.00" fill="black"></text>
<text text-anchor="start" x="485.822" y="-332.822" font-family="Arial" font-size="10.00" fill="black">*</text>
</g>
<!-- 5&#45;inner&#45;node&#45;&gt;0 -->
<g id="edge9" class="edge"><path fill="none" stroke="black" d="M437.949,-193.883C437.446,-192.731 433.254,-183.319 428,-177 413.532,-159.599 394.499,-142.875 378.628,-130.195"/>
</g>
<!-- 6&#45;inner&#45;node&#45;&gt;0 -->
<g id="edge11" class="edge"><path fill="none" stroke="black" d="M605.95,-193.969C604.932,-193.328 588.41,-182.98 574,-177 529.166,-158.395 477.53,-142.149 434.943,-130.053"/>
</g>
</g>
</svg>