<!DOCTYPE svg PUBLIC "-//W3C//DTD SVG 1.1//EN" "http://www.w3.org/Graphics/SVG/1.1/DTD/svg11.dtd">
<!-- Generated by graphviz version 2.38.0 (20140413.2041)
 --><!-- Title: G Pages: 1 --><svg xmlns="http://www.w3.org/2000/svg" xmlns:xlink="http://www.w3.org/1999/xlink" width="867pt" height="685pt" viewBox="0.00 0.00 866.50 685.00">
<g id="graph0" class="graph" transform="scale(1 1) rotate(0) translate(4 681)">
<!-- 0 -->
<g id="node1" class="node"><defs>
<linearGradient id="l_0" gradientUnits="userSpaceOnUse" x1="457.5" y1="-4.26326e-014" x2="457.5" y2="-107">
<stop offset="0" style="stop-color:#ffffbb;stop-opacity:1.;"/>
<stop offset="1" style="stop-color:#ffffee;stop-opacity:1.;"/>
</linearGradient>
</defs>
<polygon fill="url(#l_0)" stroke="black" points="595,-107 320,-107 320,7.10543e-015 595,7.10543e-015 595,-107"/>
<text text-anchor="start" x="439.5" y="-92.7" font-family="Arial" font-weight="bold" font-size="11.00" fill="black">Heater</text>
<text text-anchor="start" x="330.5" y="-68.5" font-family="Arial" font-size="10.00" fill="black"><a fill="navy" href="../reference/Equipment/Heater.html#dexpi-equipment-heater-designheatflowrate" target="_parent">DesignHeatFlowRate</a>&#160;:</text>
<text text-anchor="start" x="451.5" y="-68.5" font-family="Arial" font-size="10.00" fill="black"><a fill="navy" href="../reference/PhysicalQuantities/NullablePower.html" target="_parent">NullablePower</a>&#160;[0..1]</text>
<text text-anchor="start" x="330.5" y="-53.5" font-family="Arial" font-size="10.00" fill="black"><a fill="navy" href="../reference/Equipment/Heater.html#dexpi-equipment-heater-designmassflowrate" target="_parent">DesignMassFlowRate</a>&#160;:</text>
<text text-anchor="start" x="451.5" y="-53.5" font-family="Arial" font-size="10.00" fill="black"><a fill="navy" href="../reference/PhysicalQuantities/NullableMassFlowRate.html" target="_parent">NullableMassFlowRate</a>&#160;[0..1]</text>
<text text-anchor="start" x="330.5" y="-38.5" font-family="Arial" font-size="10.00" fill="black"><a fill="navy" href="../reference/Equipment/Heater.html#dexpi-equipment-heater-designoutletpressure" target="_parent">DesignOutletPressure</a>&#160;:</text>
<text text-anchor="start" x="451.5" y="-38.5" font-family="Arial" font-size="10.00" fill="black"><a fill="navy" href="../reference/PhysicalQuantities/NullablePressureGauge.html" target="_parent">NullablePressureGauge</a>&#160;[0..1]</text>
<text text-anchor="start" x="330.5" y="-23.5" font-family="Arial" font-size="10.00" fill="black"><a fill="navy" href="../reference/Equipment/Heater.html#dexpi-equipment-heater-designoutlettemperature" target="_parent">DesignOutletTemperature</a>&#160;:</text>
<text text-anchor="start" x="451.5" y="-23.5" font-family="Arial" font-size="10.00" fill="black"><a fill="navy" href="../reference/PhysicalQuantities/NullableTemperature.html" target="_parent">NullableTemperature</a>&#160;[0..1]</text>
<text text-anchor="start" x="330.5" y="-8.5" font-family="Arial" font-size="10.00" fill="black"><a fill="navy" href="../reference/Equipment/Heater.html#dexpi-equipment-heater-designvolumeflowrate" target="_parent">DesignVolumeFlowRate</a>&#160;:</text>
<text text-anchor="start" x="451.5" y="-8.5" font-family="Arial" font-size="10.00" fill="black"><a fill="navy" href="../reference/PhysicalQuantities/NullableVolumeFlowRate.html" target="_parent">NullableVolumeFlowRate</a>&#160;[0..1]</text>
<polygon fill="black" stroke="black" points="595.0,-86.5 320.0,-86.5 320.0,-86.5 595.0,-86.5 595.0,-86.5"/>
</g>
<!-- 12 -->
<g id="node2" class="node"><defs>
<linearGradient id="l_1" gradientUnits="userSpaceOnUse" x1="766.5" y1="-624" x2="766.5" y2="-677">
<stop offset="0" style="stop-color:#fbfbfb;stop-opacity:1.;"/>
<stop offset="1" style="stop-color:#fefefe;stop-opacity:1.;"/>
</linearGradient>
</defs>
<polygon fill="url(#l_1)" stroke="black" points="858.5,-666.0 847.5,-677.0 674.5,-677.0 674.5,-624.0 858.5,-624.0"/><path d="M858.5,-666.0L847.5,-666.0 847.5,-677.0" fill="none" stroke="black"/>
<text text-anchor="start" x="684.5" y="-662.5" font-family="Arial" font-size="10.00" fill="black">For&#160;the&#160;sake&#160;of&#160;clarity,&#160;superclasses&#160;</text>
<text text-anchor="start" x="684.5" y="-647.5" font-family="Arial" font-size="10.00" fill="black">and&#160;associations&#160;of&#160;<a fill="navy" href="../reference/PlantStructure/TechnicalItem.html" target="_parent">TechnicalItem</a>&#160;are</text>
<text text-anchor="start" x="684.5" y="-632.5" font-family="Arial" font-size="10.00" fill="black">not&#160;shown&#160;in&#160;this&#160;diagram.</text>
</g>
<!-- 11 -->
<g id="node3" class="node"><defs>
<linearGradient id="l_2" gradientUnits="userSpaceOnUse" x1="766.5" y1="-541" x2="766.5" y2="-577">
<stop offset="0" style="stop-color:#ffffbb;stop-opacity:1.;"/>
<stop offset="1" style="stop-color:#ffffee;stop-opacity:1.;"/>
</linearGradient>
</defs>
<polygon fill="url(#l_2)" stroke="black" points="813,-577 720,-577 720,-541 813,-541 813,-577"/>
<text text-anchor="start" x="730.5" y="-557.2" font-family="Arial" font-weight="bold" font-style="italic" font-size="11.00" fill="black"><a fill="navy" href="../reference/PlantStructure/TechnicalItem.html" target="_parent">TechnicalItem</a></text>
</g>
<!-- 12&#45;&gt;11 -->
<g id="edge1" class="edge"><path fill="none" stroke="#000000" stroke-dasharray="5,2" d="M766.5,-623.613C766.5,-608.641 766.5,-590.222 766.5,-577.063"/>
</g>
<!-- 26&#45;inner&#45;node -->
<!-- 11&#45;&gt;26&#45;inner&#45;node -->
<g id="edge24" class="edge"><path fill="none" stroke="black" d="M766.5,-530.649C766.5,-507.987 766.5,-479.163 766.5,-477.116L766.362,-474.941"/>
<polygon fill="none" stroke="black" points="763,-530.822 766.5,-540.822 770,-530.822 763,-530.822"/>
</g>
<!-- 14 -->
<g id="node4" class="node"><defs>
<linearGradient id="l_3" gradientUnits="userSpaceOnUse" x1="457.5" y1="-223" x2="457.5" y2="-259">
<stop offset="0" style="stop-color:#ffffbb;stop-opacity:1.;"/>
<stop offset="1" style="stop-color:#ffffee;stop-opacity:1.;"/>
</linearGradient>
</defs>
<polygon fill="url(#l_3)" stroke="black" points="496.5,-259 418.5,-259 418.5,-223 496.5,-223 496.5,-259"/>
<text text-anchor="start" x="428.5" y="-239.2" font-family="Arial" font-weight="bold" font-style="italic" font-size="11.00" fill="black"><a fill="navy" href="../reference/Equipment/Equipment.html" target="_parent">Equipment</a></text>
</g>
<!-- 29 -->
<g id="node10" class="node"><defs>
<linearGradient id="l_4" gradientUnits="userSpaceOnUse" x1="51.5" y1="-140" x2="51.5" y2="-176">
<stop offset="0" style="stop-color:#ffffbb;stop-opacity:1.;"/>
<stop offset="1" style="stop-color:#ffffee;stop-opacity:1.;"/>
</linearGradient>
</defs>
<polygon fill="url(#l_4)" stroke="black" points="103,-176 0,-176 0,-140 103,-140 103,-176"/>
<text text-anchor="start" x="10.5" y="-156.2" font-family="Arial" font-weight="bold" font-size="11.00" fill="black"><a fill="navy" href="../reference/Equipment/DryingChamber.html" target="_parent">DryingChamber</a></text>
</g>
<!-- 14&#45;&gt;29 -->
<g id="edge2" class="edge"><path fill="none" stroke="#000000" d="M406.027,-240.446C342.858,-239.672 233.105,-234.013 143.5,-207 123.707,-201.033 103.174,-190.771 86.54,-181.264"/>
<polygon fill="#000000" stroke="#000000" points="406.398,-240.449 412.429,-236.495 418.398,-240.542 412.367,-244.495 406.398,-240.449"/>
<polygon fill="#000000" stroke="#000000" points="77.7299,-176.091 88.6319,-177.274 82.0418,-178.623 86.3536,-181.154 86.3536,-181.154 86.3536,-181.154 82.0418,-178.623 84.0753,-185.035 77.7299,-176.091 77.7299,-176.091"/>
<text text-anchor="start" x="146" y="-196.5" font-family="Arial" font-size="10.00" fill="black"><a fill="navy" href="../reference/Equipment/Equipment.html#dexpi-equipment-equipment-dryingchambers" target="_parent">DryingChambers</a></text>
<text text-anchor="start" x="69.7299" y="-179.091" font-family="Arial" font-size="10.00" fill="black">*</text>
<text text-anchor="start" x="389.398" y="-241.542" font-family="Arial" font-size="10.00" fill="black">0..1</text>
</g>
<!-- 32 -->
<g id="node11" class="node"><defs>
<linearGradient id="l_5" gradientUnits="userSpaceOnUse" x1="155.5" y1="-140" x2="155.5" y2="-176">
<stop offset="0" style="stop-color:#ffffbb;stop-opacity:1.;"/>
<stop offset="1" style="stop-color:#ffffee;stop-opacity:1.;"/>
</linearGradient>
</defs>
<polygon fill="url(#l_5)" stroke="black" points="189.5,-176 121.5,-176 121.5,-140 189.5,-140 189.5,-176"/>
<text text-anchor="start" x="131.5" y="-156.2" font-family="Arial" font-weight="bold" font-size="11.00" fill="black"><a fill="navy" href="../reference/Equipment/GearBox.html" target="_parent">GearBox</a></text>
</g>
<!-- 14&#45;&gt;32 -->
<g id="edge3" class="edge"><path fill="none" stroke="#000000" d="M406.201,-234.816C366.621,-229.972 310.82,-221.294 263.5,-207 241.05,-200.218 217.118,-189.924 197.503,-180.606"/>
<polygon fill="#000000" stroke="#000000" points="406.275,-234.824 412.702,-231.553 418.193,-236.227 411.767,-239.498 406.275,-234.824"/>
<polygon fill="#000000" stroke="#000000" points="188.246,-176.129 199.207,-176.432 192.747,-178.306 197.248,-180.483 197.248,-180.483 197.248,-180.483 192.747,-178.306 195.289,-184.534 188.246,-176.129 188.246,-176.129"/>
<text text-anchor="start" x="266" y="-196.5" font-family="Arial" font-size="10.00" fill="black"><a fill="navy" href="../reference/Equipment/Equipment.html#dexpi-equipment-equipment-gearboxes" target="_parent">GearBoxes</a></text>
<text text-anchor="start" x="180.246" y="-179.129" font-family="Arial" font-size="10.00" fill="black">*</text>
<text text-anchor="start" x="389.193" y="-226.227" font-family="Arial" font-size="10.00" fill="black">0..1</text>
</g>
<!-- 35 -->
<g id="node12" class="node"><defs>
<linearGradient id="l_6" gradientUnits="userSpaceOnUse" x1="270.5" y1="-140" x2="270.5" y2="-176">
<stop offset="0" style="stop-color:#ffffbb;stop-opacity:1.;"/>
<stop offset="1" style="stop-color:#ffffee;stop-opacity:1.;"/>
</linearGradient>
</defs>
<polygon fill="url(#l_6)" stroke="black" points="333.5,-176 207.5,-176 207.5,-140 333.5,-140 333.5,-176"/>
<text text-anchor="start" x="217.5" y="-156.2" font-family="Arial" font-weight="bold" font-size="11.00" fill="black"><a fill="navy" href="../reference/Equipment/MotorAsComponent.html" target="_parent">MotorAsComponent</a></text>
</g>
<!-- 14&#45;&gt;35 -->
<g id="edge4" class="edge"><path fill="none" stroke="#000000" d="M406.67,-228.044C387.398,-222.7 365.526,-215.637 346.5,-207 331.23,-200.068 315.388,-190.498 302.145,-181.726"/>
<polygon fill="#000000" stroke="#000000" points="406.692,-228.049 413.521,-225.734 418.285,-231.147 411.456,-233.463 406.692,-228.049"/>
<polygon fill="#000000" stroke="#000000" points="293.85,-176.112 304.654,-177.99 297.991,-178.914 302.132,-181.717 302.132,-181.717 302.132,-181.717 297.991,-178.914 299.61,-185.443 293.85,-176.112 293.85,-176.112"/>
<text text-anchor="start" x="349" y="-196.5" font-family="Arial" font-size="10.00" fill="black"><a fill="navy" href="../reference/Equipment/Equipment.html#dexpi-equipment-equipment-motors" target="_parent">Motors</a></text>
<text text-anchor="start" x="285.85" y="-179.112" font-family="Arial" font-size="10.00" fill="black">*</text>
<text text-anchor="start" x="389.285" y="-221.147" font-family="Arial" font-size="10.00" fill="black">0..1</text>
</g>
<!-- 38 -->
<g id="node13" class="node"><defs>
<linearGradient id="l_7" gradientUnits="userSpaceOnUse" x1="395.5" y1="-140" x2="395.5" y2="-176">
<stop offset="0" style="stop-color:#ffffbb;stop-opacity:1.;"/>
<stop offset="1" style="stop-color:#ffffee;stop-opacity:1.;"/>
</linearGradient>
</defs>
<polygon fill="url(#l_7)" stroke="black" points="439,-176 352,-176 352,-140 439,-140 439,-176"/>
<text text-anchor="start" x="362.5" y="-156.2" font-family="Arial" font-weight="bold" font-size="11.00" fill="black"><a fill="navy" href="../reference/Equipment/SprayNozzle.html" target="_parent">SprayNozzle</a></text>
</g>
<!-- 14&#45;&gt;38 -->
<g id="edge5" class="edge"><path fill="none" stroke="#000000" d="M407.357,-224.548C399.867,-220.067 393.12,-214.33 388.5,-207 384.594,-200.802 384.151,-193.272 385.269,-186.033"/>
<polygon fill="#000000" stroke="#000000" points="407.588,-224.664 414.747,-223.802 418.297,-230.08 411.137,-230.942 407.588,-224.664"/>
<polygon fill="#000000" stroke="#000000" points="387.69,-176.16 389.678,-186.944 386.499,-181.016 385.308,-185.873 385.308,-185.873 385.308,-185.873 386.499,-181.016 380.937,-184.801 387.69,-176.16 387.69,-176.16"/>
<text text-anchor="start" x="391" y="-196.5" font-family="Arial" font-size="10.00" fill="black"><a fill="navy" href="../reference/Equipment/Equipment.html#dexpi-equipment-equipment-spraynozzles" target="_parent">SprayNozzles</a></text>
<text text-anchor="start" x="379.69" y="-179.16" font-family="Arial" font-size="10.00" fill="black">*</text>
<text text-anchor="start" x="406.297" y="-220.08" font-family="Arial" font-size="10.00" fill="black">0..1</text>
</g>
<!-- 20&#45;inner&#45;node -->
<!-- 14&#45;&gt;20&#45;inner&#45;node -->
<g id="edge12" class="edge"><path fill="none" stroke="black" d="M457.5,-212.649C457.5,-189.987 457.5,-161.163 457.5,-159.116L457.5,-156.926"/>
<polygon fill="none" stroke="black" points="454,-212.822 457.5,-222.822 461,-212.822 454,-212.822"/>
</g>
<!-- 15 -->
<g id="node5" class="node"><defs>
<linearGradient id="l_8" gradientUnits="userSpaceOnUse" x1="341.5" y1="-375" x2="341.5" y2="-411">
<stop offset="0" style="stop-color:#ffffbb;stop-opacity:1.;"/>
<stop offset="1" style="stop-color:#ffffee;stop-opacity:1.;"/>
</linearGradient>
</defs>
<polygon fill="url(#l_8)" stroke="black" points="394,-411 289,-411 289,-375 394,-375 394,-411"/>
<text text-anchor="start" x="299.5" y="-391.2" font-family="Arial" font-weight="bold" font-style="italic" font-size="11.00" fill="black"><a fill="navy" href="../reference/Equipment/ChamberOwner.html" target="_parent">ChamberOwner</a></text>
</g>
<!-- 41 -->
<g id="node14" class="node"><defs>
<linearGradient id="l_9" gradientUnits="userSpaceOnUse" x1="277.5" y1="-292" x2="277.5" y2="-328">
<stop offset="0" style="stop-color:#ffffbb;stop-opacity:1.;"/>
<stop offset="1" style="stop-color:#ffffee;stop-opacity:1.;"/>
</linearGradient>
</defs>
<polygon fill="url(#l_9)" stroke="black" points="312,-328 243,-328 243,-292 312,-292 312,-328"/>
<text text-anchor="start" x="253.5" y="-308.2" font-family="Arial" font-weight="bold" font-size="11.00" fill="black"><a fill="navy" href="../reference/Equipment/Chamber.html" target="_parent">Chamber</a></text>
</g>
<!-- 15&#45;&gt;41 -->
<g id="edge6" class="edge"><path fill="none" stroke="#000000" d="M295.598,-367.09C292.972,-364.591 290.565,-361.896 288.5,-359 284.181,-352.945 281.527,-345.461 279.905,-338.22"/>
<polygon fill="#000000" stroke="#000000" points="295.859,-367.3 303.041,-367.955 305.199,-374.835 298.017,-374.181 295.859,-367.3"/>
<polygon fill="#000000" stroke="#000000" points="278.234,-328.318 284.336,-337.43 279.066,-333.248 279.898,-338.179 279.898,-338.179 279.898,-338.179 279.066,-333.248 275.461,-338.928 278.234,-328.318 278.234,-328.318"/>
<text text-anchor="start" x="291" y="-348.5" font-family="Arial" font-size="10.00" fill="black"><a fill="navy" href="../reference/Equipment/ChamberOwner.html#dexpi-equipment-chamberowner-chambers" target="_parent">Chambers</a></text>
<text text-anchor="start" x="270.234" y="-331.318" font-family="Arial" font-size="10.00" fill="black">*</text>
<text text-anchor="start" x="276.199" y="-364.835" font-family="Arial" font-size="10.00" fill="black">0..1</text>
</g>
<!-- 21&#45;inner&#45;node -->
<!-- 15&#45;&gt;21&#45;inner&#45;node -->
<g id="edge14" class="edge"><path fill="none" stroke="black" d="M341.5,-364.649C341.5,-341.987 341.5,-313.163 341.5,-311.116L341.64,-308.884"/>
<polygon fill="none" stroke="black" points="338,-364.822 341.5,-374.822 345,-364.822 338,-364.822"/>
</g>
<!-- 16 -->
<g id="node6" class="node"><defs>
<linearGradient id="l_10" gradientUnits="userSpaceOnUse" x1="457.5" y1="-375" x2="457.5" y2="-411">
<stop offset="0" style="stop-color:#ffffbb;stop-opacity:1.;"/>
<stop offset="1" style="stop-color:#ffffee;stop-opacity:1.;"/>
</linearGradient>
</defs>
<polygon fill="url(#l_10)" stroke="black" points="502.5,-411 412.5,-411 412.5,-375 502.5,-375 502.5,-411"/>
<text text-anchor="start" x="422.5" y="-391.2" font-family="Arial" font-weight="bold" font-style="italic" font-size="11.00" fill="black"><a fill="navy" href="../reference/Equipment/NozzleOwner.html" target="_parent">NozzleOwner</a></text>
</g>
<!-- 44 -->
<g id="node15" class="node"><defs>
<linearGradient id="l_11" gradientUnits="userSpaceOnUse" x1="402.5" y1="-292" x2="402.5" y2="-328">
<stop offset="0" style="stop-color:#ffffbb;stop-opacity:1.;"/>
<stop offset="1" style="stop-color:#ffffee;stop-opacity:1.;"/>
</linearGradient>
</defs>
<polygon fill="url(#l_11)" stroke="black" points="431,-328 374,-328 374,-292 431,-292 431,-328"/>
<text text-anchor="start" x="384.5" y="-308.2" font-family="Arial" font-weight="bold" font-size="11.00" fill="black"><a fill="navy" href="../reference/Equipment/Nozzle.html" target="_parent">Nozzle</a></text>
</g>
<!-- 16&#45;&gt;44 -->
<g id="edge7" class="edge"><path fill="none" stroke="#000000" d="M419.289,-366.384C417.147,-364.056 415.185,-361.592 413.5,-359 409.447,-352.763 406.878,-345.222 405.253,-337.983"/>
<polygon fill="#000000" stroke="#000000" points="419.431,-366.515 426.552,-367.651 428.242,-374.662 421.121,-373.525 419.431,-366.515"/>
<polygon fill="#000000" stroke="#000000" points="403.528,-328.118 409.683,-337.193 404.389,-333.043 405.251,-337.969 405.251,-337.969 405.251,-337.969 404.389,-333.043 400.818,-338.744 403.528,-328.118 403.528,-328.118"/>
<text text-anchor="start" x="415.5" y="-348.5" font-family="Arial" font-size="10.00" fill="black"><a fill="navy" href="../reference/Equipment/NozzleOwner.html#dexpi-equipment-nozzleowner-nozzles" target="_parent">Nozzles</a></text>
<text text-anchor="start" x="395.528" y="-331.118" font-family="Arial" font-size="10.00" fill="black">*</text>
<text text-anchor="start" x="399.242" y="-364.662" font-family="Arial" font-size="10.00" fill="black">0..1</text>
</g>
<!-- 22&#45;inner&#45;node -->
<!-- 16&#45;&gt;22&#45;inner&#45;node -->
<g id="edge16" class="edge"><path fill="none" stroke="black" d="M457.5,-364.649C457.5,-341.987 457.5,-313.163 457.5,-311.116L457.5,-308.951"/>
<polygon fill="none" stroke="black" points="454,-364.822 457.5,-374.822 461,-364.822 454,-364.822"/>
</g>
<!-- 17 -->
<g id="node7" class="node"><defs>
<linearGradient id="l_12" gradientUnits="userSpaceOnUse" x1="575.5" y1="-375" x2="575.5" y2="-411">
<stop offset="0" style="stop-color:#ffffbb;stop-opacity:1.;"/>
<stop offset="1" style="stop-color:#ffffee;stop-opacity:1.;"/>
</linearGradient>
</defs>
<polygon fill="url(#l_12)" stroke="black" points="630,-411 521,-411 521,-375 630,-375 630,-411"/>
<text text-anchor="start" x="531.5" y="-391.2" font-family="Arial" font-weight="bold" font-style="italic" font-size="11.00" fill="black"><a fill="navy" href="../reference/Equipment/TaggedPlantItem.html" target="_parent">TaggedPlantItem</a></text>
</g>
<!-- 23&#45;inner&#45;node -->
<!-- 17&#45;&gt;23&#45;inner&#45;node -->
<g id="edge18" class="edge"><path fill="none" stroke="black" d="M575.5,-364.649C575.5,-341.987 575.5,-313.163 575.5,-311.116L575.414,-308.951"/>
<polygon fill="none" stroke="black" points="572,-364.822 575.5,-374.822 579,-364.822 572,-364.822"/>
</g>
<!-- 18 -->
<g id="node8" class="node"><defs>
<linearGradient id="l_13" gradientUnits="userSpaceOnUse" x1="471.5" y1="-541" x2="471.5" y2="-577">
<stop offset="0" style="stop-color:#ffffbb;stop-opacity:1.;"/>
<stop offset="1" style="stop-color:#ffffee;stop-opacity:1.;"/>
</linearGradient>
</defs>
<polygon fill="url(#l_13)" stroke="black" points="529,-577 414,-577 414,-541 529,-541 529,-577"/>
<text text-anchor="start" x="424.5" y="-557.2" font-family="Arial" font-weight="bold" font-style="italic" font-size="11.00" fill="black"><a fill="navy" href="../reference/DexpiModel/ConceptualObject.html" target="_parent">ConceptualObject</a></text>
</g>
<!-- 24&#45;inner&#45;node -->
<!-- 18&#45;&gt;24&#45;inner&#45;node -->
<g id="edge20" class="edge"><path fill="none" stroke="black" d="M471.5,-530.649C471.5,-507.987 471.5,-479.163 471.5,-477.116L471.538,-474.879"/>
<polygon fill="none" stroke="black" points="468,-530.822 471.5,-540.822 475,-530.822 468,-530.822"/>
</g>
<!-- 19 -->
<g id="node9" class="node"><defs>
<linearGradient id="l_14" gradientUnits="userSpaceOnUse" x1="629.5" y1="-541" x2="629.5" y2="-577">
<stop offset="0" style="stop-color:#ffffbb;stop-opacity:1.;"/>
<stop offset="1" style="stop-color:#ffffee;stop-opacity:1.;"/>
</linearGradient>
</defs>
<polygon fill="url(#l_14)" stroke="black" points="701.5,-577 557.5,-577 557.5,-541 701.5,-541 701.5,-577"/>
<text text-anchor="start" x="567.5" y="-557.2" font-family="Arial" font-weight="bold" font-style="italic" font-size="11.00" fill="black"><a fill="navy" href="../reference/Customization/CustomAttributeOwner.html" target="_parent">CustomAttributeOwner</a></text>
</g>
<!-- 56 -->
<g id="node19" class="node"><defs>
<linearGradient id="l_15" gradientUnits="userSpaceOnUse" x1="544.5" y1="-458" x2="544.5" y2="-494">
<stop offset="0" style="stop-color:#ffffbb;stop-opacity:1.;"/>
<stop offset="1" style="stop-color:#ffffee;stop-opacity:1.;"/>
</linearGradient>
</defs>
<polygon fill="url(#l_15)" stroke="black" points="599,-494 490,-494 490,-458 599,-458 599,-494"/>
<text text-anchor="start" x="500.5" y="-474.2" font-family="Arial" font-weight="bold" font-style="italic" font-size="11.00" fill="black"><a fill="navy" href="../reference/Customization/CustomAttribute.html" target="_parent">CustomAttribute</a></text>
</g>
<!-- 19&#45;&gt;56 -->
<g id="edge11" class="edge"><path fill="none" stroke="#000000" d="M552.949,-533.486C550.181,-530.933 547.67,-528.113 545.5,-525 541.402,-519.119 539.944,-511.772 539.815,-504.608"/>
<polygon fill="#000000" stroke="#000000" points="552.998,-533.523 560.196,-533.959 562.563,-540.77 555.365,-540.335 552.998,-533.523"/>
<polygon fill="#000000" stroke="#000000" points="540.425,-494.435 544.319,-504.687 540.126,-499.426 539.827,-504.417 539.827,-504.417 539.827,-504.417 540.126,-499.426 535.335,-504.148 540.425,-494.435 540.425,-494.435"/>
<text text-anchor="start" x="547.5" y="-514.5" font-family="Arial" font-size="10.00" fill="black"><a fill="navy" href="../reference/Customization/CustomAttributeOwner.html#dexpi-customization-customattributeowner-customattributes" target="_parent">CustomAttributes</a></text>
<text text-anchor="start" x="532.425" y="-497.435" font-family="Arial" font-size="10.00" fill="black">*</text>
<text text-anchor="start" x="533.563" y="-530.77" font-family="Arial" font-size="10.00" fill="black">0..1</text>
</g>
<!-- 25&#45;inner&#45;node -->
<!-- 19&#45;&gt;25&#45;inner&#45;node -->
<g id="edge22" class="edge"><path fill="none" stroke="black" d="M629.5,-530.649C629.5,-507.987 629.5,-479.163 629.5,-477.116L629.461,-474.941"/>
<polygon fill="none" stroke="black" points="626,-530.822 629.5,-540.822 633,-530.822 626,-530.822"/>
</g>
<!-- 47 -->
<g id="node16" class="node"><defs>
<linearGradient id="l_16" gradientUnits="userSpaceOnUse" x1="395.5" y1="-458" x2="395.5" y2="-494">
<stop offset="0" style="stop-color:#ffffbb;stop-opacity:1.;"/>
<stop offset="1" style="stop-color:#ffffee;stop-opacity:1.;"/>
</linearGradient>
</defs>
<polygon fill="url(#l_16)" stroke="black" points="452.5,-494 338.5,-494 338.5,-458 452.5,-458 452.5,-494"/>
<text text-anchor="start" x="348.5" y="-474.2" font-family="Arial" font-weight="bold" font-size="11.00" fill="black"><a fill="navy" href="../reference/DexpiModel/ConceptualModel.html" target="_parent">ConceptualModel</a></text>
</g>
<!-- 47&#45;&gt;17 -->
<g id="edge8" class="edge"><path fill="none" stroke="#000000" d="M400.324,-446.016C402.842,-438.86 406.673,-431.862 412.5,-427 444.518,-400.287 465.123,-417.682 510.934,-410.726"/>
<polygon fill="#000000" stroke="#000000" points="400.262,-446.253 402.602,-453.074 397.205,-457.857 394.865,-451.036 400.262,-446.253"/>
<polygon fill="#000000" stroke="#000000" points="520.773,-408.92 511.751,-415.152 515.856,-409.823 510.938,-410.726 510.938,-410.726 510.938,-410.726 515.856,-409.823 510.125,-406.3 520.773,-408.92 520.773,-408.92"/>
<text text-anchor="start" x="415" y="-431.5" font-family="Arial" font-size="10.00" fill="black"><a fill="navy" href="../reference/DexpiModel/ConceptualModel.html#dexpi-dexpimodel-conceptualmodel-taggedplantitems" target="_parent">TaggedPlantItems</a></text>
<text text-anchor="start" x="512.773" y="-411.92" font-family="Arial" font-size="10.00" fill="black">*</text>
<text text-anchor="start" x="368.205" y="-447.857" font-family="Arial" font-size="10.00" fill="black">0..1</text>
</g>
<!-- 50 -->
<g id="node17" class="node"><defs>
<linearGradient id="l_17" gradientUnits="userSpaceOnUse" x1="368.5" y1="-632.5" x2="368.5" y2="-668.5">
<stop offset="0" style="stop-color:#ffffbb;stop-opacity:1.;"/>
<stop offset="1" style="stop-color:#ffffee;stop-opacity:1.;"/>
</linearGradient>
</defs>
<polygon fill="url(#l_17)" stroke="black" points="443,-668.5 294,-668.5 294,-632.5 443,-632.5 443,-668.5"/>
<text text-anchor="start" x="304.5" y="-648.7" font-family="Arial" font-weight="bold" font-size="11.00" fill="black"><a fill="navy" href="../reference/Graphics/AttributeRepresentation.html" target="_parent">AttributeRepresentation</a></text>
</g>
<!-- 50&#45;&gt;18 -->
<g id="edge9" class="edge"><path fill="none" stroke="#000000" d="M388.359,-632.243C404.176,-618.5 426.493,-599.108 444.024,-583.875"/>
<polygon fill="#000000" stroke="#000000" points="451.702,-577.204 447.105,-587.159 447.927,-580.483 444.153,-583.763 444.153,-583.763 444.153,-583.763 447.927,-580.483 441.201,-580.366 451.702,-577.204 451.702,-577.204"/>
<text text-anchor="start" x="435" y="-597.5" font-family="Arial" font-size="10.00" fill="black"><a fill="navy" href="../reference/Graphics/AttributeRepresentation.html#dexpi-graphics-attributerepresentation-object" target="_parent">Object</a></text>
<text text-anchor="start" x="443.702" y="-580.204" font-family="Arial" font-size="10.00" fill="black"></text>
<text text-anchor="start" x="372.359" y="-622.243" font-family="Arial" font-size="10.00" fill="black">*</text>
</g>
<!-- 53 -->
<g id="node18" class="node"><defs>
<linearGradient id="l_18" gradientUnits="userSpaceOnUse" x1="529.5" y1="-632.5" x2="529.5" y2="-668.5">
<stop offset="0" style="stop-color:#ffffbb;stop-opacity:1.;"/>
<stop offset="1" style="stop-color:#ffffee;stop-opacity:1.;"/>
</linearGradient>
</defs>
<polygon fill="url(#l_18)" stroke="black" points="598,-668.5 461,-668.5 461,-632.5 598,-632.5 598,-668.5"/>
<text text-anchor="start" x="471.5" y="-648.7" font-family="Arial" font-weight="bold" font-size="11.00" fill="black"><a fill="navy" href="../reference/Graphics/RepresentationGroup.html" target="_parent">RepresentationGroup</a></text>
</g>
<!-- 53&#45;&gt;18 -->
<g id="edge10" class="edge"><path fill="none" stroke="#000000" d="M518.317,-632.243C509.812,-619.119 497.968,-600.843 488.322,-585.958"/>
<polygon fill="#000000" stroke="#000000" points="482.649,-577.204 491.863,-583.148 485.368,-581.399 488.087,-585.595 488.087,-585.595 488.087,-585.595 485.368,-581.399 484.311,-588.043 482.649,-577.204 482.649,-577.204"/>
<text text-anchor="start" x="504.5" y="-597.5" font-family="Arial" font-size="10.00" fill="black"><a fill="navy" href="../reference/Graphics/RepresentationGroup.html#dexpi-graphics-representationgroup-represents" target="_parent">Represents</a></text>
<text text-anchor="start" x="474.649" y="-580.204" font-family="Arial" font-size="10.00" fill="black"></text>
<text text-anchor="start" x="502.317" y="-622.243" font-family="Arial" font-size="10.00" fill="black">*</text>
</g>
<!-- 20&#45;inner&#45;node&#45;&gt;0 -->
<g id="edge13" class="edge"><path fill="none" stroke="black" d="M457.5,-156.926C457.5,-155.428 457.5,-131.538 457.5,-107.209"/>
</g>
<!-- 21&#45;inner&#45;node&#45;&gt;14 -->
<g id="edge15" class="edge"><path fill="none" stroke="black" d="M341.64,-308.884C343.027,-307.739 354.434,-298.38 364.5,-292 383.235,-280.126 405.036,-268.306 422.819,-259.142"/>
</g>
<!-- 22&#45;inner&#45;node&#45;&gt;14 -->
<g id="edge17" class="edge"><path fill="none" stroke="black" d="M457.5,-308.951C457.5,-307.604 457.5,-278.522 457.5,-259.135"/>
</g>
<!-- 23&#45;inner&#45;node&#45;&gt;14 -->
<g id="edge19" class="edge"><path fill="none" stroke="black" d="M575.414,-308.951C573.042,-307.604 521.822,-278.522 487.677,-259.135"/>
</g>
<!-- 24&#45;inner&#45;node&#45;&gt;17 -->
<g id="edge21" class="edge"><path fill="none" stroke="black" d="M471.538,-474.879C471.92,-473.686 475.141,-463.959 480.5,-458 497.92,-438.629 522.388,-422.325 542.129,-411.02"/>
</g>
<!-- 25&#45;inner&#45;node&#45;&gt;17 -->
<g id="edge23" class="edge"><path fill="none" stroke="black" d="M629.461,-474.941C628.318,-473.226 602.391,-434.337 586.898,-411.098"/>
</g>
<!-- 26&#45;inner&#45;node&#45;&gt;17 -->
<g id="edge25" class="edge"><path fill="none" stroke="black" d="M766.362,-474.941C762.318,-473.226 670.615,-434.337 615.817,-411.098"/>
</g>
</g>
</svg>