<!DOCTYPE svg PUBLIC "-//W3C//DTD SVG 1.1//EN" "http://www.w3.org/Graphics/SVG/1.1/DTD/svg11.dtd">
<!-- Generated by graphviz version 2.38.0 (20140413.2041)
 --><!-- Title: G Pages: 1 --><svg xmlns="http://www.w3.org/2000/svg" xmlns:xlink="http://www.w3.org/1999/xlink" width="1641pt" height="417pt" viewBox="0.00 0.00 1640.50 417.00">
<g id="graph0" class="graph" transform="scale(1 1) rotate(0) translate(4 413)">
<!-- 0 -->
<g id="node1" class="node"><defs>
<linearGradient id="l_0" gradientUnits="userSpaceOnUse" x1="775.5" y1="-83" x2="775.5" y2="-160">
<stop offset="0" style="stop-color:#ffffbb;stop-opacity:1.;"/>
<stop offset="1" style="stop-color:#ffffee;stop-opacity:1.;"/>
</linearGradient>
</defs>
<polygon fill="url(#l_0)" stroke="black" points="896.5,-160 654.5,-160 654.5,-83 896.5,-83 896.5,-160"/>
<text text-anchor="start" x="754" y="-145.7" font-family="Arial" font-weight="bold" font-size="11.00" fill="black">Impeller</text>
<text text-anchor="start" x="664.5" y="-121.5" font-family="Arial" font-size="10.00" fill="black"><a fill="navy" href="../reference/Equipment/Impeller.html#dexpi-equipment-impeller-diameter" target="_parent">Diameter</a>&#160;:</text>
<text text-anchor="start" x="796.5" y="-121.5" font-family="Arial" font-size="10.00" fill="black"><a fill="navy" href="../reference/PhysicalQuantities/NullableLength.html" target="_parent">NullableLength</a>&#160;[0..1]</text>
<text text-anchor="start" x="664.5" y="-106.5" font-family="Arial" font-size="10.00" fill="black"><a fill="navy" href="../reference/Equipment/Impeller.html#dexpi-equipment-impeller-materialofconstructioncode" target="_parent">MaterialOfConstructionCode</a>&#160;:</text>
<text text-anchor="start" x="796.5" y="-106.5" font-family="Arial" font-size="10.00" fill="black"><a fill="navy" href="../reference/DataTypes/NullableString.html" target="_parent">NullableString</a>&#160;[0..1]</text>
<text text-anchor="start" x="664.5" y="-91.5" font-family="Arial" font-size="10.00" fill="black"><a fill="navy" href="../reference/Equipment/Impeller.html#dexpi-equipment-impeller-stageidentifier" target="_parent">StageIdentifier</a>&#160;:</text>
<text text-anchor="start" x="796.5" y="-91.5" font-family="Arial" font-size="10.00" fill="black"><a fill="navy" href="../reference/DataTypes/NullableString.html" target="_parent">NullableString</a>&#160;[0..1]</text>
<polygon fill="black" stroke="black" points="896.5,-139.5 654.5,-139.5 654.5,-139.5 896.5,-139.5 896.5,-139.5"/>
</g>
<!-- 12 -->
<g id="node4" class="node"><defs>
<linearGradient id="l_1" gradientUnits="userSpaceOnUse" x1="775.5" y1="-1.77636e-014" x2="775.5" y2="-36">
<stop offset="0" style="stop-color:#ffffbb;stop-opacity:1.;"/>
<stop offset="1" style="stop-color:#ffffee;stop-opacity:1.;"/>
</linearGradient>
</defs>
<polygon fill="url(#l_1)" stroke="black" points="810,-36 741,-36 741,-0 810,-0 810,-36"/>
<text text-anchor="start" x="751.5" y="-16.2" font-family="Arial" font-weight="bold" font-size="11.00" fill="black"><a fill="navy" href="../reference/Equipment/Chamber.html" target="_parent">Chamber</a></text>
</g>
<!-- 0&#45;&gt;12 -->
<g id="edge1" class="edge"><path fill="none" stroke="#000000" d="M775.5,-82.9935C775.5,-70.8397 775.5,-57.5964 775.5,-46.327"/>
<polygon fill="#000000" stroke="#000000" points="775.5,-36.2271 780,-46.227 775.5,-41.2271 775.5,-46.2271 775.5,-46.2271 775.5,-46.2271 775.5,-41.2271 771,-46.2271 775.5,-36.2271 775.5,-36.2271"/>
<text text-anchor="start" x="777.5" y="-56.5" font-family="Arial" font-size="10.00" fill="black"><a fill="navy" href="../reference/Equipment/Impeller.html#dexpi-equipment-impeller-chamber" target="_parent">Chamber</a></text>
<text text-anchor="start" x="754.5" y="-39.2271" font-family="Arial" font-size="10.00" fill="black">0..1</text>
<text text-anchor="start" x="759.5" y="-72.9935" font-family="Arial" font-size="10.00" fill="black">*</text>
</g>
<!-- 6 -->
<g id="node2" class="node"><defs>
<linearGradient id="l_2" gradientUnits="userSpaceOnUse" x1="1392.5" y1="-290" x2="1392.5" y2="-326">
<stop offset="0" style="stop-color:#ffffbb;stop-opacity:1.;"/>
<stop offset="1" style="stop-color:#ffffee;stop-opacity:1.;"/>
</linearGradient>
</defs>
<polygon fill="url(#l_2)" stroke="black" points="1450,-326 1335,-326 1335,-290 1450,-290 1450,-326"/>
<text text-anchor="start" x="1345.5" y="-306.2" font-family="Arial" font-weight="bold" font-style="italic" font-size="11.00" fill="black"><a fill="navy" href="../reference/DexpiModel/ConceptualObject.html" target="_parent">ConceptualObject</a></text>
</g>
<!-- 8&#45;inner&#45;node -->
<!-- 6&#45;&gt;8&#45;inner&#45;node -->
<g id="edge17" class="edge"><path fill="none" stroke="black" d="M1392.5,-279.649C1392.5,-256.987 1392.5,-228.163 1392.5,-226.116L1392.47,-223.866"/>
<polygon fill="none" stroke="black" points="1389,-279.822 1392.5,-289.822 1396,-279.822 1389,-279.822"/>
</g>
<!-- 7 -->
<g id="node3" class="node"><defs>
<linearGradient id="l_3" gradientUnits="userSpaceOnUse" x1="1560.5" y1="-290" x2="1560.5" y2="-326">
<stop offset="0" style="stop-color:#ffffbb;stop-opacity:1.;"/>
<stop offset="1" style="stop-color:#ffffee;stop-opacity:1.;"/>
</linearGradient>
</defs>
<polygon fill="url(#l_3)" stroke="black" points="1632.5,-326 1488.5,-326 1488.5,-290 1632.5,-290 1632.5,-326"/>
<text text-anchor="start" x="1498.5" y="-306.2" font-family="Arial" font-weight="bold" font-style="italic" font-size="11.00" fill="black"><a fill="navy" href="../reference/Customization/CustomAttributeOwner.html" target="_parent">CustomAttributeOwner</a></text>
</g>
<!-- 57 -->
<g id="node19" class="node"><defs>
<linearGradient id="l_4" gradientUnits="userSpaceOnUse" x1="1465.5" y1="-207" x2="1465.5" y2="-243">
<stop offset="0" style="stop-color:#ffffbb;stop-opacity:1.;"/>
<stop offset="1" style="stop-color:#ffffee;stop-opacity:1.;"/>
</linearGradient>
</defs>
<polygon fill="url(#l_4)" stroke="black" points="1520,-243 1411,-243 1411,-207 1520,-207 1520,-243"/>
<text text-anchor="start" x="1421.5" y="-223.2" font-family="Arial" font-weight="bold" font-style="italic" font-size="11.00" fill="black"><a fill="navy" href="../reference/Customization/CustomAttribute.html" target="_parent">CustomAttribute</a></text>
</g>
<!-- 7&#45;&gt;57 -->
<g id="edge16" class="edge"><path fill="none" stroke="#000000" d="M1486.57,-283.359C1482.89,-280.576 1479.49,-277.469 1476.5,-274 1471.57,-268.275 1468.73,-260.784 1467.13,-253.428"/>
<polygon fill="#000000" stroke="#000000" points="1486.78,-283.495 1493.99,-283.381 1496.86,-289.992 1489.65,-290.106 1486.78,-283.495"/>
<polygon fill="#000000" stroke="#000000" points="1465.6,-243.317 1471.55,-252.53 1466.35,-248.26 1467.1,-253.204 1467.1,-253.204 1467.1,-253.204 1466.35,-248.26 1462.65,-253.878 1465.6,-243.317 1465.6,-243.317"/>
<text text-anchor="start" x="1478.5" y="-263.5" font-family="Arial" font-size="10.00" fill="black"><a fill="navy" href="../reference/Customization/CustomAttributeOwner.html#dexpi-customization-customattributeowner-customattributes" target="_parent">CustomAttributes</a></text>
<text text-anchor="start" x="1457.6" y="-246.317" font-family="Arial" font-size="10.00" fill="black">*</text>
<text text-anchor="start" x="1467.86" y="-279.992" font-family="Arial" font-size="10.00" fill="black">0..1</text>
</g>
<!-- 9&#45;inner&#45;node -->
<!-- 7&#45;&gt;9&#45;inner&#45;node -->
<g id="edge19" class="edge"><path fill="none" stroke="black" d="M1560.5,-279.649C1560.5,-256.987 1560.5,-228.163 1560.5,-226.116L1560.45,-223.965"/>
<polygon fill="none" stroke="black" points="1557,-279.822 1560.5,-289.822 1564,-279.822 1557,-279.822"/>
</g>
<!-- 15 -->
<g id="node5" class="node"><defs>
<linearGradient id="l_5" gradientUnits="userSpaceOnUse" x1="36.5" y1="-207" x2="36.5" y2="-243">
<stop offset="0" style="stop-color:#ffffbb;stop-opacity:1.;"/>
<stop offset="1" style="stop-color:#ffffee;stop-opacity:1.;"/>
</linearGradient>
</defs>
<polygon fill="url(#l_5)" stroke="black" points="73,-243 0,-243 0,-207 73,-207 73,-243"/>
<text text-anchor="start" x="10.5" y="-223.2" font-family="Arial" font-weight="bold" font-size="11.00" fill="black"><a fill="navy" href="../reference/Equipment/AirEjector.html" target="_parent">AirEjector</a></text>
</g>
<!-- 15&#45;&gt;0 -->
<g id="edge2" class="edge"><path fill="none" stroke="#000000" d="M84.6308,-203.677C110.506,-193.641 143.234,-182.35 173.5,-176 333.311,-142.468 521.292,-129.934 644.135,-125.26"/>
<polygon fill="#000000" stroke="#000000" points="84.4158,-203.762 80.3085,-209.689 73.2576,-208.178 77.3649,-202.251 84.4158,-203.762"/>
<polygon fill="#000000" stroke="#000000" points="654.339,-124.884 644.511,-129.749 649.342,-125.068 644.346,-125.252 644.346,-125.252 644.346,-125.252 649.342,-125.068 644.18,-120.755 654.339,-124.884 654.339,-124.884"/>
<text text-anchor="start" x="175.5" y="-180.5" font-family="Arial" font-size="10.00" fill="black"><a fill="navy" href="../reference/Equipment/AirEjector.html#dexpi-equipment-airejector-impellers" target="_parent">Impellers</a></text>
<text text-anchor="start" x="646.339" y="-116.884" font-family="Arial" font-size="10.00" fill="black">*</text>
<text text-anchor="start" x="61.2576" y="-209.178" font-family="Arial" font-size="10.00" fill="black">0..1</text>
</g>
<!-- 18 -->
<g id="node6" class="node"><defs>
<linearGradient id="l_6" gradientUnits="userSpaceOnUse" x1="127.5" y1="-207" x2="127.5" y2="-243">
<stop offset="0" style="stop-color:#ffffbb;stop-opacity:1.;"/>
<stop offset="1" style="stop-color:#ffffee;stop-opacity:1.;"/>
</linearGradient>
</defs>
<polygon fill="url(#l_6)" stroke="black" points="164,-243 91,-243 91,-207 164,-207 164,-243"/>
<text text-anchor="start" x="101.5" y="-223.2" font-family="Arial" font-weight="bold" font-size="11.00" fill="black"><a fill="navy" href="../reference/Equipment/RadialFan.html" target="_parent">RadialFan</a></text>
</g>
<!-- 18&#45;&gt;0 -->
<g id="edge3" class="edge"><path fill="none" stroke="#000000" d="M175.74,-205.989C222.216,-190.372 235.637,-184.939 281.5,-176 403.268,-152.268 544.122,-138.316 644.19,-130.645"/>
<polygon fill="#000000" stroke="#000000" points="175.628,-206.026 171.206,-211.722 164.247,-209.83 168.67,-204.134 175.628,-206.026"/>
<polygon fill="#000000" stroke="#000000" points="654.354,-129.877 644.721,-135.118 649.368,-130.254 644.382,-130.631 644.382,-130.631 644.382,-130.631 649.368,-130.254 644.043,-126.144 654.354,-129.877 654.354,-129.877"/>
<text text-anchor="start" x="283.5" y="-180.5" font-family="Arial" font-size="10.00" fill="black"><a fill="navy" href="../reference/Equipment/RadialFan.html#dexpi-equipment-radialfan-impellers" target="_parent">Impellers</a></text>
<text text-anchor="start" x="646.354" y="-132.877" font-family="Arial" font-size="10.00" fill="black">*</text>
<text text-anchor="start" x="152.247" y="-210.83" font-family="Arial" font-size="10.00" fill="black">0..1</text>
</g>
<!-- 21 -->
<g id="node7" class="node"><defs>
<linearGradient id="l_7" gradientUnits="userSpaceOnUse" x1="223.5" y1="-207" x2="223.5" y2="-243">
<stop offset="0" style="stop-color:#ffffbb;stop-opacity:1.;"/>
<stop offset="1" style="stop-color:#ffffee;stop-opacity:1.;"/>
</linearGradient>
</defs>
<polygon fill="url(#l_7)" stroke="black" points="265,-243 182,-243 182,-207 265,-207 265,-243"/>
<text text-anchor="start" x="192.5" y="-223.2" font-family="Arial" font-weight="bold" font-size="11.00" fill="black"><a fill="navy" href="../reference/Equipment/AxialBlower.html" target="_parent">AxialBlower</a></text>
</g>
<!-- 21&#45;&gt;0 -->
<g id="edge4" class="edge"><path fill="none" stroke="#000000" d="M276.974,-206.016C327.825,-190.644 342.565,-185.957 392.5,-176 475.508,-159.449 569.644,-146.224 643.817,-137.064"/>
<polygon fill="#000000" stroke="#000000" points="276.657,-206.112 272.069,-211.675 265.169,-209.579 269.757,-204.016 276.657,-206.112"/>
<polygon fill="#000000" stroke="#000000" points="654.147,-135.799 644.769,-141.481 649.184,-136.407 644.222,-137.015 644.222,-137.015 644.222,-137.015 649.184,-136.407 643.674,-132.548 654.147,-135.799 654.147,-135.799"/>
<text text-anchor="start" x="394.5" y="-180.5" font-family="Arial" font-size="10.00" fill="black"><a fill="navy" href="../reference/Equipment/AxialBlower.html#dexpi-equipment-axialblower-impellers" target="_parent">Impellers</a></text>
<text text-anchor="start" x="646.147" y="-138.799" font-family="Arial" font-size="10.00" fill="black">*</text>
<text text-anchor="start" x="253.169" y="-210.579" font-family="Arial" font-size="10.00" fill="black">0..1</text>
</g>
<!-- 24 -->
<g id="node8" class="node"><defs>
<linearGradient id="l_8" gradientUnits="userSpaceOnUse" x1="341.5" y1="-207" x2="341.5" y2="-243">
<stop offset="0" style="stop-color:#ffffbb;stop-opacity:1.;"/>
<stop offset="1" style="stop-color:#ffffee;stop-opacity:1.;"/>
</linearGradient>
</defs>
<polygon fill="url(#l_8)" stroke="black" points="400,-243 283,-243 283,-207 400,-207 400,-243"/>
<text text-anchor="start" x="293.5" y="-223.2" font-family="Arial" font-weight="bold" font-size="11.00" fill="black"><a fill="navy" href="../reference/Equipment/CentrifugalBlower.html" target="_parent">CentrifugalBlower</a></text>
</g>
<!-- 24&#45;&gt;0 -->
<g id="edge5" class="edge"><path fill="none" stroke="#000000" d="M400.276,-203.013C427.23,-193.888 459.742,-183.575 489.5,-176 539.648,-163.234 595.459,-152.118 644.371,-143.375"/>
<polygon fill="#000000" stroke="#000000" points="400.056,-203.088 395.674,-208.815 388.702,-206.973 393.084,-201.246 400.056,-203.088"/>
<polygon fill="#000000" stroke="#000000" points="654.377,-141.603 645.316,-147.778 649.454,-142.475 644.531,-143.347 644.531,-143.347 644.531,-143.347 649.454,-142.475 643.745,-138.916 654.377,-141.603 654.377,-141.603"/>
<text text-anchor="start" x="491.5" y="-180.5" font-family="Arial" font-size="10.00" fill="black"><a fill="navy" href="../reference/Equipment/CentrifugalBlower.html#dexpi-equipment-centrifugalblower-impellers" target="_parent">Impellers</a></text>
<text text-anchor="start" x="646.377" y="-144.603" font-family="Arial" font-size="10.00" fill="black">*</text>
<text text-anchor="start" x="359.702" y="-196.973" font-family="Arial" font-size="10.00" fill="black">0..1</text>
</g>
<!-- 27 -->
<g id="node9" class="node"><defs>
<linearGradient id="l_9" gradientUnits="userSpaceOnUse" x1="450.5" y1="-207" x2="450.5" y2="-243">
<stop offset="0" style="stop-color:#ffffbb;stop-opacity:1.;"/>
<stop offset="1" style="stop-color:#ffffee;stop-opacity:1.;"/>
</linearGradient>
</defs>
<polygon fill="url(#l_9)" stroke="black" points="483,-243 418,-243 418,-207 483,-207 483,-243"/>
<text text-anchor="start" x="428.5" y="-223.2" font-family="Arial" font-weight="bold" font-size="11.00" fill="black"><a fill="navy" href="../reference/Equipment/AxialFan.html" target="_parent">AxialFan</a></text>
</g>
<!-- 27&#45;&gt;0 -->
<g id="edge6" class="edge"><path fill="none" stroke="#000000" d="M494.523,-206.015C547.705,-186.66 599.273,-170.68 644.608,-157.585"/>
<polygon fill="#000000" stroke="#000000" points="494.346,-206.08 490.095,-211.905 483.083,-210.222 487.334,-204.397 494.346,-206.08"/>
<polygon fill="#000000" stroke="#000000" points="654.485,-154.749 646.116,-161.834 649.679,-156.129 644.874,-157.509 644.874,-157.509 644.874,-157.509 649.679,-156.129 643.632,-153.184 654.485,-154.749 654.485,-154.749"/>
<text text-anchor="start" x="578.5" y="-180.5" font-family="Arial" font-size="10.00" fill="black"><a fill="navy" href="../reference/Equipment/AxialFan.html#dexpi-equipment-axialfan-impellers" target="_parent">Impellers</a></text>
<text text-anchor="start" x="646.485" y="-157.749" font-family="Arial" font-size="10.00" fill="black">*</text>
<text text-anchor="start" x="471.083" y="-211.222" font-family="Arial" font-size="10.00" fill="black">0..1</text>
</g>
<!-- 30 -->
<g id="node10" class="node"><defs>
<linearGradient id="l_10" gradientUnits="userSpaceOnUse" x1="556.5" y1="-207" x2="556.5" y2="-243">
<stop offset="0" style="stop-color:#ffffbb;stop-opacity:1.;"/>
<stop offset="1" style="stop-color:#ffffee;stop-opacity:1.;"/>
</linearGradient>
</defs>
<polygon fill="url(#l_10)" stroke="black" points="612,-243 501,-243 501,-207 612,-207 612,-243"/>
<text text-anchor="start" x="511.5" y="-223.2" font-family="Arial" font-weight="bold" font-size="11.00" fill="black"><a fill="navy" href="../reference/Equipment/AxialCompressor.html" target="_parent">AxialCompressor</a></text>
</g>
<!-- 30&#45;&gt;0 -->
<g id="edge7" class="edge"><path fill="none" stroke="#000000" d="M604.836,-201.598C628.46,-190.649 657.676,-177.108 685.217,-164.344"/>
<polygon fill="#000000" stroke="#000000" points="604.538,-201.736 600.776,-207.888 593.65,-206.782 597.412,-200.63 604.538,-201.736"/>
<polygon fill="#000000" stroke="#000000" points="694.482,-160.049 687.302,-168.337 689.946,-162.152 685.409,-164.254 685.409,-164.254 685.409,-164.254 689.946,-162.152 683.517,-160.172 694.482,-160.049 694.482,-160.049"/>
<text text-anchor="start" x="661.5" y="-180.5" font-family="Arial" font-size="10.00" fill="black"><a fill="navy" href="../reference/Equipment/AxialCompressor.html#dexpi-equipment-axialcompressor-impellers" target="_parent">Impellers</a></text>
<text text-anchor="start" x="686.482" y="-163.049" font-family="Arial" font-size="10.00" fill="black">*</text>
<text text-anchor="start" x="564.65" y="-196.782" font-family="Arial" font-size="10.00" fill="black">0..1</text>
</g>
<!-- 33 -->
<g id="node11" class="node"><defs>
<linearGradient id="l_11" gradientUnits="userSpaceOnUse" x1="702.5" y1="-207" x2="702.5" y2="-243">
<stop offset="0" style="stop-color:#ffffbb;stop-opacity:1.;"/>
<stop offset="1" style="stop-color:#ffffee;stop-opacity:1.;"/>
</linearGradient>
</defs>
<polygon fill="url(#l_11)" stroke="black" points="775,-243 630,-243 630,-207 775,-207 775,-243"/>
<text text-anchor="start" x="640.5" y="-223.2" font-family="Arial" font-weight="bold" font-size="11.00" fill="black"><a fill="navy" href="../reference/Equipment/CentrifugalCompressor.html" target="_parent">CentrifugalCompressor</a></text>
</g>
<!-- 33&#45;&gt;0 -->
<g id="edge8" class="edge"><path fill="none" stroke="#000000" d="M721.891,-197.038C728.26,-188.183 735.527,-178.079 742.611,-168.23"/>
<polygon fill="#000000" stroke="#000000" points="721.89,-197.04 721.634,-204.246 714.883,-206.782 715.139,-199.575 721.89,-197.04"/>
<polygon fill="#000000" stroke="#000000" points="748.494,-160.049 746.309,-170.795 745.575,-164.108 742.655,-168.168 742.655,-168.168 742.655,-168.168 745.575,-164.108 739.002,-165.54 748.494,-160.049 748.494,-160.049"/>
<text text-anchor="start" x="739.5" y="-180.5" font-family="Arial" font-size="10.00" fill="black"><a fill="navy" href="../reference/Equipment/CentrifugalCompressor.html#dexpi-equipment-centrifugalcompressor-impellers" target="_parent">Impellers</a></text>
<text text-anchor="start" x="740.494" y="-163.049" font-family="Arial" font-size="10.00" fill="black">*</text>
<text text-anchor="start" x="685.883" y="-196.782" font-family="Arial" font-size="10.00" fill="black">0..1</text>
</g>
<!-- 36 -->
<g id="node12" class="node"><defs>
<linearGradient id="l_12" gradientUnits="userSpaceOnUse" x1="848.5" y1="-207" x2="848.5" y2="-243">
<stop offset="0" style="stop-color:#ffffbb;stop-opacity:1.;"/>
<stop offset="1" style="stop-color:#ffffee;stop-opacity:1.;"/>
</linearGradient>
</defs>
<polygon fill="url(#l_12)" stroke="black" points="903.5,-243 793.5,-243 793.5,-207 903.5,-207 903.5,-243"/>
<text text-anchor="start" x="803.5" y="-223.2" font-family="Arial" font-weight="bold" font-size="11.00" fill="black"><a fill="navy" href="../reference/Equipment/CentrifugalPump.html" target="_parent">CentrifugalPump</a></text>
</g>
<!-- 36&#45;&gt;0 -->
<g id="edge9" class="edge"><path fill="none" stroke="#000000" d="M829.109,-197.038C822.74,-188.183 815.473,-178.079 808.389,-168.23"/>
<polygon fill="#000000" stroke="#000000" points="829.11,-197.04 835.861,-199.575 836.117,-206.782 829.366,-204.246 829.11,-197.04"/>
<polygon fill="#000000" stroke="#000000" points="802.506,-160.049 811.998,-165.54 805.425,-164.108 808.345,-168.168 808.345,-168.168 808.345,-168.168 805.425,-164.108 804.691,-170.795 802.506,-160.049 802.506,-160.049"/>
<text text-anchor="start" x="825.5" y="-180.5" font-family="Arial" font-size="10.00" fill="black"><a fill="navy" href="../reference/Equipment/CentrifugalPump.html#dexpi-equipment-centrifugalpump-impellers" target="_parent">Impellers</a></text>
<text text-anchor="start" x="794.506" y="-163.049" font-family="Arial" font-size="10.00" fill="black">*</text>
<text text-anchor="start" x="807.117" y="-196.782" font-family="Arial" font-size="10.00" fill="black">0..1</text>
</g>
<!-- 39 -->
<g id="node13" class="node"><defs>
<linearGradient id="l_13" gradientUnits="userSpaceOnUse" x1="962.5" y1="-207" x2="962.5" y2="-243">
<stop offset="0" style="stop-color:#ffffbb;stop-opacity:1.;"/>
<stop offset="1" style="stop-color:#ffffee;stop-opacity:1.;"/>
</linearGradient>
</defs>
<polygon fill="url(#l_13)" stroke="black" points="1003,-243 922,-243 922,-207 1003,-207 1003,-243"/>
<text text-anchor="start" x="932.5" y="-223.2" font-family="Arial" font-weight="bold" font-size="11.00" fill="black"><a fill="navy" href="../reference/Equipment/CustomFan.html" target="_parent">CustomFan</a></text>
</g>
<!-- 39&#45;&gt;0 -->
<g id="edge10" class="edge"><path fill="none" stroke="#000000" d="M920.013,-200.939C900.366,-190.275 876.388,-177.26 853.654,-164.92"/>
<polygon fill="#000000" stroke="#000000" points="920.231,-201.057 927.413,-200.404 930.778,-206.782 923.597,-207.435 920.231,-201.057"/>
<polygon fill="#000000" stroke="#000000" points="844.679,-160.049 855.615,-160.865 849.074,-162.434 853.468,-164.82 853.468,-164.82 853.468,-164.82 849.074,-162.434 851.322,-168.775 844.679,-160.049 844.679,-160.049"/>
<text text-anchor="start" x="899.5" y="-180.5" font-family="Arial" font-size="10.00" fill="black"><a fill="navy" href="../reference/Equipment/CustomFan.html#dexpi-equipment-customfan-impellers" target="_parent">Impellers</a></text>
<text text-anchor="start" x="836.679" y="-163.049" font-family="Arial" font-size="10.00" fill="black">*</text>
<text text-anchor="start" x="901.778" y="-196.782" font-family="Arial" font-size="10.00" fill="black">0..1</text>
</g>
<!-- 42 -->
<g id="node14" class="node"><defs>
<linearGradient id="l_14" gradientUnits="userSpaceOnUse" x1="1070.5" y1="-207" x2="1070.5" y2="-243">
<stop offset="0" style="stop-color:#ffffbb;stop-opacity:1.;"/>
<stop offset="1" style="stop-color:#ffffee;stop-opacity:1.;"/>
</linearGradient>
</defs>
<polygon fill="url(#l_14)" stroke="black" points="1120,-243 1021,-243 1021,-207 1120,-207 1120,-243"/>
<text text-anchor="start" x="1031.5" y="-223.2" font-family="Arial" font-weight="bold" font-size="11.00" fill="black"><a fill="navy" href="../reference/Equipment/CustomBlower.html" target="_parent">CustomBlower</a></text>
</g>
<!-- 42&#45;&gt;0 -->
<g id="edge11" class="edge"><path fill="none" stroke="#000000" d="M1016.5,-202.429C994.581,-193.89 968.942,-184.181 945.5,-176 932.806,-171.57 919.523,-167.103 906.218,-162.738"/>
<polygon fill="#000000" stroke="#000000" points="1016.76,-202.528 1023.8,-200.991 1027.93,-206.904 1020.88,-208.44 1016.76,-202.528"/>
<polygon fill="#000000" stroke="#000000" points="896.533,-159.58 907.436,-158.402 901.287,-161.13 906.041,-162.68 906.041,-162.68 906.041,-162.68 901.287,-161.13 904.645,-166.958 896.533,-159.58 896.533,-159.58"/>
<text text-anchor="start" x="986.5" y="-180.5" font-family="Arial" font-size="10.00" fill="black"><a fill="navy" href="../reference/Equipment/CustomBlower.html#dexpi-equipment-customblower-impellers" target="_parent">Impellers</a></text>
<text text-anchor="start" x="892.533" y="-162.58" font-family="Arial" font-size="10.00" fill="black">*</text>
<text text-anchor="start" x="998.93" y="-196.904" font-family="Arial" font-size="10.00" fill="black">0..1</text>
</g>
<!-- 45 -->
<g id="node15" class="node"><defs>
<linearGradient id="l_15" gradientUnits="userSpaceOnUse" x1="1183.5" y1="-207" x2="1183.5" y2="-243">
<stop offset="0" style="stop-color:#ffffbb;stop-opacity:1.;"/>
<stop offset="1" style="stop-color:#ffffee;stop-opacity:1.;"/>
</linearGradient>
</defs>
<polygon fill="url(#l_15)" stroke="black" points="1229,-243 1138,-243 1138,-207 1229,-207 1229,-243"/>
<text text-anchor="start" x="1148.5" y="-223.2" font-family="Arial" font-weight="bold" font-size="11.00" fill="black"><a fill="navy" href="../reference/Equipment/CustomPump.html" target="_parent">CustomPump</a></text>
</g>
<!-- 45&#45;&gt;0 -->
<g id="edge12" class="edge"><path fill="none" stroke="#000000" d="M1126.32,-204.298C1098.25,-195.019 1063.81,-184.213 1032.5,-176 991.876,-165.345 947.198,-155.428 906.648,-147.099"/>
<polygon fill="#000000" stroke="#000000" points="1126.55,-204.374 1133.5,-202.477 1137.93,-208.17 1130.97,-210.067 1126.55,-204.374"/>
<polygon fill="#000000" stroke="#000000" points="896.706,-145.072 907.403,-142.661 901.605,-146.071 906.504,-147.07 906.504,-147.07 906.504,-147.07 901.605,-146.071 905.605,-151.48 896.706,-145.072 896.706,-145.072"/>
<text text-anchor="start" x="1085.5" y="-180.5" font-family="Arial" font-size="10.00" fill="black"><a fill="navy" href="../reference/Equipment/CustomPump.html#dexpi-equipment-custompump-impellers" target="_parent">Impellers</a></text>
<text text-anchor="start" x="892.706" y="-148.072" font-family="Arial" font-size="10.00" fill="black">*</text>
<text text-anchor="start" x="1108.93" y="-209.17" font-family="Arial" font-size="10.00" fill="black">0..1</text>
</g>
<!-- 48 -->
<g id="node16" class="node"><defs>
<linearGradient id="l_16" gradientUnits="userSpaceOnUse" x1="1310.5" y1="-207" x2="1310.5" y2="-243">
<stop offset="0" style="stop-color:#ffffbb;stop-opacity:1.;"/>
<stop offset="1" style="stop-color:#ffffee;stop-opacity:1.;"/>
</linearGradient>
</defs>
<polygon fill="url(#l_16)" stroke="black" points="1373.5,-243 1247.5,-243 1247.5,-207 1373.5,-207 1373.5,-243"/>
<text text-anchor="start" x="1257.5" y="-223.2" font-family="Arial" font-weight="bold" font-size="11.00" fill="black"><a fill="navy" href="../reference/Equipment/CustomCompressor.html" target="_parent">CustomCompressor</a></text>
</g>
<!-- 48&#45;&gt;0 -->
<g id="edge13" class="edge"><path fill="none" stroke="#000000" d="M1241.8,-203.632C1208.68,-194.311 1168.25,-183.663 1131.5,-176 1057.74,-160.618 974.494,-147.859 907.06,-138.663"/>
<polygon fill="#000000" stroke="#000000" points="1242.11,-203.719 1248.98,-201.511 1253.66,-206.998 1246.79,-209.206 1242.11,-203.719"/>
<polygon fill="#000000" stroke="#000000" points="896.803,-137.275 907.316,-134.157 901.758,-137.946 906.713,-138.616 906.713,-138.616 906.713,-138.616 901.758,-137.946 906.109,-143.076 896.803,-137.275 896.803,-137.275"/>
<text text-anchor="start" x="1193.5" y="-180.5" font-family="Arial" font-size="10.00" fill="black"><a fill="navy" href="../reference/Equipment/CustomCompressor.html#dexpi-equipment-customcompressor-impellers" target="_parent">Impellers</a></text>
<text text-anchor="start" x="892.803" y="-129.275" font-family="Arial" font-size="10.00" fill="black">*</text>
<text text-anchor="start" x="1224.66" y="-196.998" font-family="Arial" font-size="10.00" fill="black">0..1</text>
</g>
<!-- 51 -->
<g id="node17" class="node"><defs>
<linearGradient id="l_17" gradientUnits="userSpaceOnUse" x1="1312.5" y1="-373" x2="1312.5" y2="-409">
<stop offset="0" style="stop-color:#ffffbb;stop-opacity:1.;"/>
<stop offset="1" style="stop-color:#ffffee;stop-opacity:1.;"/>
</linearGradient>
</defs>
<polygon fill="url(#l_17)" stroke="black" points="1387,-409 1238,-409 1238,-373 1387,-373 1387,-409"/>
<text text-anchor="start" x="1248.5" y="-389.2" font-family="Arial" font-weight="bold" font-size="11.00" fill="black"><a fill="navy" href="../reference/Graphics/AttributeRepresentation.html" target="_parent">AttributeRepresentation</a></text>
</g>
<!-- 51&#45;&gt;6 -->
<g id="edge14" class="edge"><path fill="none" stroke="#000000" d="M1329.47,-372.822C1340.81,-361.331 1355.92,-346.041 1368.49,-333.307"/>
<polygon fill="#000000" stroke="#000000" points="1375.56,-326.153 1371.73,-336.43 1372.04,-329.711 1368.53,-333.268 1368.53,-333.268 1368.53,-333.268 1372.04,-329.711 1365.33,-330.106 1375.56,-326.153 1375.56,-326.153"/>
<text text-anchor="start" x="1363" y="-346.5" font-family="Arial" font-size="10.00" fill="black"><a fill="navy" href="../reference/Graphics/AttributeRepresentation.html#dexpi-graphics-attributerepresentation-object" target="_parent">Object</a></text>
<text text-anchor="start" x="1367.56" y="-329.153" font-family="Arial" font-size="10.00" fill="black"></text>
<text text-anchor="start" x="1313.47" y="-362.822" font-family="Arial" font-size="10.00" fill="black">*</text>
</g>
<!-- 54 -->
<g id="node18" class="node"><defs>
<linearGradient id="l_18" gradientUnits="userSpaceOnUse" x1="1473.5" y1="-373" x2="1473.5" y2="-409">
<stop offset="0" style="stop-color:#ffffbb;stop-opacity:1.;"/>
<stop offset="1" style="stop-color:#ffffee;stop-opacity:1.;"/>
</linearGradient>
</defs>
<polygon fill="url(#l_18)" stroke="black" points="1542,-409 1405,-409 1405,-373 1542,-373 1542,-409"/>
<text text-anchor="start" x="1415.5" y="-389.2" font-family="Arial" font-weight="bold" font-size="11.00" fill="black"><a fill="navy" href="../reference/Graphics/RepresentationGroup.html" target="_parent">RepresentationGroup</a></text>
</g>
<!-- 54&#45;&gt;6 -->
<g id="edge15" class="edge"><path fill="none" stroke="#000000" d="M1456.32,-372.822C1444.83,-361.331 1429.54,-346.041 1416.81,-333.307"/>
<polygon fill="#000000" stroke="#000000" points="1409.65,-326.153 1419.91,-330.042 1413.19,-329.689 1416.72,-333.224 1416.72,-333.224 1416.72,-333.224 1413.19,-329.689 1413.54,-336.406 1409.65,-326.153 1409.65,-326.153"/>
<text text-anchor="start" x="1442.5" y="-346.5" font-family="Arial" font-size="10.00" fill="black"><a fill="navy" href="../reference/Graphics/RepresentationGroup.html#dexpi-graphics-representationgroup-represents" target="_parent">Represents</a></text>
<text text-anchor="start" x="1401.65" y="-329.153" font-family="Arial" font-size="10.00" fill="black"></text>
<text text-anchor="start" x="1440.32" y="-362.822" font-family="Arial" font-size="10.00" fill="black">*</text>
</g>
<!-- 8&#45;inner&#45;node&#45;&gt;0 -->
<g id="edge18" class="edge"><path fill="none" stroke="black" d="M1392.47,-223.866C1392.12,-222.544 1389.16,-211.817 1382.5,-207 1329.81,-168.883 1303.66,-186.626 1239.5,-176 1123.7,-156.82 990.508,-142.226 896.614,-133.163"/>
</g>
<!-- 9&#45;inner&#45;node&#45;&gt;0 -->
<g id="edge20" class="edge"><path fill="none" stroke="black" d="M1560.45,-223.965C1559.46,-223.256 1543.33,-211.835 1528.5,-207 1435.87,-176.806 1408.21,-187.73 1311.5,-176 1169.34,-158.759 1005.48,-143.002 896.735,-133.122"/>
</g>
</g>
</svg>