<!DOCTYPE svg PUBLIC "-//W3C//DTD SVG 1.1//EN" "http://www.w3.org/Graphics/SVG/1.1/DTD/svg11.dtd">
<!-- Generated by graphviz version 2.38.0 (20140413.2041)
 --><!-- Title: G Pages: 1 --><svg xmlns="http://www.w3.org/2000/svg" xmlns:xlink="http://www.w3.org/1999/xlink" width="1141pt" height="532pt" viewBox="0.00 0.00 1140.50 532.00">
<g id="graph0" class="graph" transform="scale(1 1) rotate(0) translate(4 528)">
<!-- 0 -->
<g id="node1" class="node"><defs>
<linearGradient id="l_0" gradientUnits="userSpaceOnUse" x1="580.5" y1="-7.10543e-014" x2="580.5" y2="-137">
<stop offset="0" style="stop-color:#ffffbb;stop-opacity:1.;"/>
<stop offset="1" style="stop-color:#ffffee;stop-opacity:1.;"/>
</linearGradient>
</defs>
<polygon fill="url(#l_0)" stroke="black" points="750.5,-137 410.5,-137 410.5,-0 750.5,-0 750.5,-137"/>
<text text-anchor="start" x="524" y="-122.7" font-family="Arial" font-weight="bold" font-size="11.00" fill="black">InlinePrimaryElement</text>
<text text-anchor="start" x="420.5" y="-98.5" font-family="Arial" font-size="10.00" fill="black"><a fill="navy" href="../reference/Piping/InlinePrimaryElement.html#dexpi-piping-inlineprimaryelement-heattracingtype" target="_parent">HeatTracingType</a>&#160;:</text>
<text text-anchor="start" x="583.5" y="-98.5" font-family="Arial" font-size="10.00" fill="black"><a fill="navy" href="../reference/Enumerations/HeatTracingTypeClassification.html" target="_parent">HeatTracingTypeClassification</a>&#160;[0..1]</text>
<text text-anchor="start" x="420.5" y="-83.5" font-family="Arial" font-size="10.00" fill="black"><a fill="navy" href="../reference/Piping/InlinePrimaryElement.html#dexpi-piping-inlineprimaryelement-heattracingtyperepresentation" target="_parent">HeatTracingTypeRepresentation</a>&#160;:</text>
<text text-anchor="start" x="583.5" y="-83.5" font-family="Arial" font-size="10.00" fill="black"><a fill="navy" href="../reference/DataTypes/NullableString.html" target="_parent">NullableString</a>&#160;[0..1]</text>
<text text-anchor="start" x="420.5" y="-68.5" font-family="Arial" font-size="10.00" fill="black"><a fill="navy" href="../reference/Piping/InlinePrimaryElement.html#dexpi-piping-inlineprimaryelement-insulationthickness" target="_parent">InsulationThickness</a>&#160;:</text>
<text text-anchor="start" x="583.5" y="-68.5" font-family="Arial" font-size="10.00" fill="black"><a fill="navy" href="../reference/PhysicalQuantities/NullableLength.html" target="_parent">NullableLength</a>&#160;[0..1]</text>
<text text-anchor="start" x="420.5" y="-53.5" font-family="Arial" font-size="10.00" fill="black"><a fill="navy" href="../reference/Piping/InlinePrimaryElement.html#dexpi-piping-inlineprimaryelement-insulationtype" target="_parent">InsulationType</a>&#160;:</text>
<text text-anchor="start" x="583.5" y="-53.5" font-family="Arial" font-size="10.00" fill="black"><a fill="navy" href="../reference/DataTypes/NullableString.html" target="_parent">NullableString</a>&#160;[0..1]</text>
<text text-anchor="start" x="420.5" y="-38.5" font-family="Arial" font-size="10.00" fill="black"><a fill="navy" href="../reference/Piping/InlinePrimaryElement.html#dexpi-piping-inlineprimaryelement-lowerlimitheattracingtemperature" target="_parent">LowerLimitHeatTracingTemperature</a>&#160;:</text>
<text text-anchor="start" x="583.5" y="-38.5" font-family="Arial" font-size="10.00" fill="black"><a fill="navy" href="../reference/PhysicalQuantities/NullableTemperature.html" target="_parent">NullableTemperature</a>&#160;[0..1]</text>
<text text-anchor="start" x="420.5" y="-23.5" font-family="Arial" font-size="10.00" fill="black"><a fill="navy" href="../reference/Piping/InlinePrimaryElement.html#dexpi-piping-inlineprimaryelement-pipingcomponentname" target="_parent">PipingComponentName</a>&#160;:</text>
<text text-anchor="start" x="583.5" y="-23.5" font-family="Arial" font-size="10.00" fill="black"><a fill="navy" href="../reference/DataTypes/NullableString.html" target="_parent">NullableString</a>&#160;[0..1]</text>
<text text-anchor="start" x="420.5" y="-8.5" font-family="Arial" font-size="10.00" fill="black"><a fill="navy" href="../reference/Piping/InlinePrimaryElement.html#dexpi-piping-inlineprimaryelement-pipingcomponentnumber" target="_parent">PipingComponentNumber</a>&#160;:</text>
<text text-anchor="start" x="583.5" y="-8.5" font-family="Arial" font-size="10.00" fill="black"><a fill="navy" href="../reference/DataTypes/NullableString.html" target="_parent">NullableString</a>&#160;[0..1]</text>
<polygon fill="black" stroke="black" points="750.5,-116.5 410.5,-116.5 410.5,-116.5 750.5,-116.5 750.5,-116.5"/>
</g>
<!-- 12 -->
<g id="node2" class="node"><defs>
<linearGradient id="l_1" gradientUnits="userSpaceOnUse" x1="637.5" y1="-253" x2="637.5" y2="-289">
<stop offset="0" style="stop-color:#ffffbb;stop-opacity:1.;"/>
<stop offset="1" style="stop-color:#ffffee;stop-opacity:1.;"/>
</linearGradient>
</defs>
<polygon fill="url(#l_1)" stroke="black" points="696,-289 579,-289 579,-253 696,-253 696,-289"/>
<text text-anchor="start" x="589.5" y="-269.2" font-family="Arial" font-weight="bold" font-style="italic" font-size="11.00" fill="black"><a fill="navy" href="../reference/Piping/PipingComponent.html" target="_parent">PipingComponent</a></text>
</g>
<!-- 20&#45;inner&#45;node -->
<!-- 12&#45;&gt;20&#45;inner&#45;node -->
<g id="edge12" class="edge"><path fill="none" stroke="black" d="M637.5,-242.68C637.5,-224.835 637.5,-204.568 637.5,-203.086L637.481,-200.921"/>
<polygon fill="none" stroke="black" points="634,-242.746 637.5,-252.746 641,-242.746 634,-242.746"/>
</g>
<!-- 13 -->
<g id="node3" class="node"><defs>
<linearGradient id="l_2" gradientUnits="userSpaceOnUse" x1="154.5" y1="-405" x2="154.5" y2="-441">
<stop offset="0" style="stop-color:#ffffbb;stop-opacity:1.;"/>
<stop offset="1" style="stop-color:#ffffee;stop-opacity:1.;"/>
</linearGradient>
</defs>
<polygon fill="url(#l_2)" stroke="black" points="212,-441 97,-441 97,-405 212,-405 212,-441"/>
<text text-anchor="start" x="107.5" y="-421.2" font-family="Arial" font-weight="bold" font-style="italic" font-size="11.00" fill="black"><a fill="navy" href="../reference/DexpiModel/ConceptualObject.html" target="_parent">ConceptualObject</a></text>
</g>
<!-- 21&#45;inner&#45;node -->
<!-- 13&#45;&gt;21&#45;inner&#45;node -->
<g id="edge14" class="edge"><path fill="none" stroke="black" d="M154.5,-394.649C154.5,-371.987 154.5,-343.163 154.5,-341.116L154.578,-338.984"/>
<polygon fill="none" stroke="black" points="151,-394.822 154.5,-404.822 158,-394.822 151,-394.822"/>
</g>
<!-- 14 -->
<g id="node4" class="node"><defs>
<linearGradient id="l_3" gradientUnits="userSpaceOnUse" x1="302.5" y1="-405" x2="302.5" y2="-441">
<stop offset="0" style="stop-color:#ffffbb;stop-opacity:1.;"/>
<stop offset="1" style="stop-color:#ffffee;stop-opacity:1.;"/>
</linearGradient>
</defs>
<polygon fill="url(#l_3)" stroke="black" points="374.5,-441 230.5,-441 230.5,-405 374.5,-405 374.5,-441"/>
<text text-anchor="start" x="240.5" y="-421.2" font-family="Arial" font-weight="bold" font-style="italic" font-size="11.00" fill="black"><a fill="navy" href="../reference/Customization/CustomAttributeOwner.html" target="_parent">CustomAttributeOwner</a></text>
</g>
<!-- 39 -->
<g id="node13" class="node"><defs>
<linearGradient id="l_4" gradientUnits="userSpaceOnUse" x1="375.5" y1="-322" x2="375.5" y2="-358">
<stop offset="0" style="stop-color:#ffffbb;stop-opacity:1.;"/>
<stop offset="1" style="stop-color:#ffffee;stop-opacity:1.;"/>
</linearGradient>
</defs>
<polygon fill="url(#l_4)" stroke="black" points="430,-358 321,-358 321,-322 430,-322 430,-358"/>
<text text-anchor="start" x="331.5" y="-338.2" font-family="Arial" font-weight="bold" font-style="italic" font-size="11.00" fill="black"><a fill="navy" href="../reference/Customization/CustomAttribute.html" target="_parent">CustomAttribute</a></text>
</g>
<!-- 14&#45;&gt;39 -->
<g id="edge4" class="edge"><path fill="none" stroke="#000000" d="M326.055,-395.864C334.755,-386.21 344.582,-375.306 353.17,-365.777"/>
<polygon fill="#000000" stroke="#000000" points="326.015,-395.908 324.97,-403.043 317.981,-404.822 319.027,-397.687 326.015,-395.908"/>
<polygon fill="#000000" stroke="#000000" points="360.041,-358.153 356.689,-368.594 356.694,-361.867 353.346,-365.582 353.346,-365.582 353.346,-365.582 356.694,-361.867 350.003,-362.569 360.041,-358.153 360.041,-358.153"/>
<text text-anchor="start" x="348.5" y="-378.5" font-family="Arial" font-size="10.00" fill="black"><a fill="navy" href="../reference/Customization/CustomAttributeOwner.html#dexpi-customization-customattributeowner-customattributes" target="_parent">CustomAttributes</a></text>
<text text-anchor="start" x="352.041" y="-361.153" font-family="Arial" font-size="10.00" fill="black">*</text>
<text text-anchor="start" x="288.981" y="-394.822" font-family="Arial" font-size="10.00" fill="black">0..1</text>
</g>
<!-- 22&#45;inner&#45;node -->
<!-- 14&#45;&gt;22&#45;inner&#45;node -->
<g id="edge16" class="edge"><path fill="none" stroke="black" d="M302.5,-394.649C302.5,-371.987 302.5,-343.163 302.5,-341.116L302.525,-338.864"/>
<polygon fill="none" stroke="black" points="299,-394.822 302.5,-404.822 306,-394.822 299,-394.822"/>
</g>
<!-- 15 -->
<g id="node5" class="node"><defs>
<linearGradient id="l_5" gradientUnits="userSpaceOnUse" x1="476.5" y1="-405" x2="476.5" y2="-441">
<stop offset="0" style="stop-color:#ffffbb;stop-opacity:1.;"/>
<stop offset="1" style="stop-color:#ffffee;stop-opacity:1.;"/>
</linearGradient>
</defs>
<polygon fill="url(#l_5)" stroke="black" points="560.5,-441 392.5,-441 392.5,-405 560.5,-405 560.5,-441"/>
<text text-anchor="start" x="402.5" y="-421.2" font-family="Arial" font-weight="bold" font-style="italic" font-size="11.00" fill="black"><a fill="navy" href="../reference/Piping/PipingNetworkSegmentItem.html" target="_parent">PipingNetworkSegmentItem</a></text>
</g>
<!-- 23&#45;inner&#45;node -->
<!-- 15&#45;&gt;23&#45;inner&#45;node -->
<g id="edge18" class="edge"><path fill="none" stroke="black" d="M476.5,-394.649C476.5,-371.987 476.5,-343.163 476.5,-341.116L476.617,-338.951"/>
<polygon fill="none" stroke="black" points="473,-394.822 476.5,-404.822 480,-394.822 473,-394.822"/>
</g>
<!-- 16 -->
<g id="node6" class="node"><defs>
<linearGradient id="l_6" gradientUnits="userSpaceOnUse" x1="637.5" y1="-405" x2="637.5" y2="-441">
<stop offset="0" style="stop-color:#ffffbb;stop-opacity:1.;"/>
<stop offset="1" style="stop-color:#ffffee;stop-opacity:1.;"/>
</linearGradient>
</defs>
<polygon fill="url(#l_6)" stroke="black" points="696,-441 579,-441 579,-405 696,-405 696,-441"/>
<text text-anchor="start" x="589.5" y="-421.2" font-family="Arial" font-weight="bold" font-style="italic" font-size="11.00" fill="black"><a fill="navy" href="../reference/Piping/PipingNodeOwner.html" target="_parent">PipingNodeOwner</a></text>
</g>
<!-- 45 -->
<g id="node15" class="node"><defs>
<linearGradient id="l_7" gradientUnits="userSpaceOnUse" x1="697.5" y1="-322" x2="697.5" y2="-358">
<stop offset="0" style="stop-color:#ffffbb;stop-opacity:1.;"/>
<stop offset="1" style="stop-color:#ffffee;stop-opacity:1.;"/>
</linearGradient>
</defs>
<polygon fill="url(#l_7)" stroke="black" points="739,-358 656,-358 656,-322 739,-322 739,-358"/>
<text text-anchor="start" x="666.5" y="-338.2" font-family="Arial" font-weight="bold" font-size="11.00" fill="black"><a fill="navy" href="../reference/Piping/PipingNode.html" target="_parent">PipingNode</a></text>
</g>
<!-- 16&#45;&gt;45 -->
<g id="edge6" class="edge"><path fill="none" stroke="#000000" d="M657.4,-395.135C664.244,-385.896 671.88,-375.586 678.638,-366.463"/>
<polygon fill="#000000" stroke="#000000" points="657.367,-395.179 657.01,-402.382 650.224,-404.822 650.582,-397.62 657.367,-395.179"/>
<polygon fill="#000000" stroke="#000000" points="684.794,-358.153 682.458,-368.867 681.818,-362.171 678.842,-366.189 678.842,-366.189 678.842,-366.189 681.818,-362.171 675.226,-363.51 684.794,-358.153 684.794,-358.153"/>
<text text-anchor="start" x="674.5" y="-378.5" font-family="Arial" font-size="10.00" fill="black"><a fill="navy" href="../reference/Piping/PipingNodeOwner.html#dexpi-piping-pipingnodeowner-nodes" target="_parent">Nodes</a></text>
<text text-anchor="start" x="676.794" y="-361.153" font-family="Arial" font-size="10.00" fill="black">*</text>
<text text-anchor="start" x="621.224" y="-394.822" font-family="Arial" font-size="10.00" fill="black">0..1</text>
</g>
<!-- 24&#45;inner&#45;node -->
<!-- 16&#45;&gt;24&#45;inner&#45;node -->
<g id="edge20" class="edge"><path fill="none" stroke="black" d="M637.5,-394.649C637.5,-371.987 637.5,-343.163 637.5,-341.116L637.5,-338.951"/>
<polygon fill="none" stroke="black" points="634,-394.822 637.5,-404.822 641,-394.822 634,-394.822"/>
</g>
<!-- 17 -->
<g id="node7" class="node"><defs>
<linearGradient id="l_8" gradientUnits="userSpaceOnUse" x1="900.5" y1="-405" x2="900.5" y2="-441">
<stop offset="0" style="stop-color:#ffffbb;stop-opacity:1.;"/>
<stop offset="1" style="stop-color:#ffffee;stop-opacity:1.;"/>
</linearGradient>
</defs>
<polygon fill="url(#l_8)" stroke="black" points="957.5,-441 843.5,-441 843.5,-405 957.5,-405 957.5,-441"/>
<text text-anchor="start" x="853.5" y="-421.2" font-family="Arial" font-weight="bold" font-style="italic" font-size="11.00" fill="black"><a fill="navy" href="../reference/Piping/PipingSourceItem.html" target="_parent">PipingSourceItem</a></text>
</g>
<!-- 25&#45;inner&#45;node -->
<!-- 17&#45;&gt;25&#45;inner&#45;node -->
<g id="edge22" class="edge"><path fill="none" stroke="black" d="M900.5,-394.649C900.5,-371.987 900.5,-343.163 900.5,-341.116L900.452,-338.988"/>
<polygon fill="none" stroke="black" points="897,-394.822 900.5,-404.822 904,-394.822 897,-394.822"/>
</g>
<!-- 18 -->
<g id="node8" class="node"><defs>
<linearGradient id="l_9" gradientUnits="userSpaceOnUse" x1="769.5" y1="-405" x2="769.5" y2="-441">
<stop offset="0" style="stop-color:#ffffbb;stop-opacity:1.;"/>
<stop offset="1" style="stop-color:#ffffee;stop-opacity:1.;"/>
</linearGradient>
</defs>
<polygon fill="url(#l_9)" stroke="black" points="825,-441 714,-441 714,-405 825,-405 825,-441"/>
<text text-anchor="start" x="724.5" y="-421.2" font-family="Arial" font-weight="bold" font-style="italic" font-size="11.00" fill="black"><a fill="navy" href="../reference/Piping/PipingTargetItem.html" target="_parent">PipingTargetItem</a></text>
</g>
<!-- 26&#45;inner&#45;node -->
<!-- 18&#45;&gt;26&#45;inner&#45;node -->
<g id="edge24" class="edge"><path fill="none" stroke="black" d="M769.5,-394.649C769.5,-371.987 769.5,-343.163 769.5,-341.116L769.377,-338.878"/>
<polygon fill="none" stroke="black" points="766,-394.822 769.5,-404.822 773,-394.822 766,-394.822"/>
</g>
<!-- 19 -->
<g id="node9" class="node"><defs>
<linearGradient id="l_10" gradientUnits="userSpaceOnUse" x1="1030.5" y1="-405" x2="1030.5" y2="-441">
<stop offset="0" style="stop-color:#ffffbb;stop-opacity:1.;"/>
<stop offset="1" style="stop-color:#ffffee;stop-opacity:1.;"/>
</linearGradient>
</defs>
<polygon fill="url(#l_10)" stroke="black" points="1085,-441 976,-441 976,-405 1085,-405 1085,-441"/>
<text text-anchor="start" x="986.5" y="-421.2" font-family="Arial" font-weight="bold" font-style="italic" font-size="11.00" fill="black"><a fill="navy" href="../reference/Instrumentation/SensingLocation.html" target="_parent">SensingLocation</a></text>
</g>
<!-- 27&#45;inner&#45;node -->
<!-- 19&#45;&gt;27&#45;inner&#45;node -->
<g id="edge26" class="edge"><path fill="none" stroke="black" d="M1030.5,-394.649C1030.5,-371.987 1030.5,-343.163 1030.5,-341.116L1030.43,-338.988"/>
<polygon fill="none" stroke="black" points="1027,-394.822 1030.5,-404.822 1034,-394.822 1027,-394.822"/>
</g>
<!-- 30 -->
<g id="node10" class="node"><defs>
<linearGradient id="l_11" gradientUnits="userSpaceOnUse" x1="524.5" y1="-184" x2="524.5" y2="-220">
<stop offset="0" style="stop-color:#ffffbb;stop-opacity:1.;"/>
<stop offset="1" style="stop-color:#ffffee;stop-opacity:1.;"/>
</linearGradient>
</defs>
<polygon fill="url(#l_11)" stroke="black" points="619,-220 430,-220 430,-184 619,-184 619,-220"/>
<text text-anchor="start" x="440.5" y="-200.2" font-family="Arial" font-weight="bold" font-size="11.00" fill="black"><a fill="navy" href="../reference/Instrumentation/InlinePrimaryElementReference.html" target="_parent">InlinePrimaryElementReference</a></text>
</g>
<!-- 30&#45;&gt;0 -->
<g id="edge1" class="edge"><path fill="none" stroke="#000000" d="M522.574,-183.747C522.099,-174.439 522.429,-162.869 525.5,-153 526.17,-150.845 526.915,-148.694 527.723,-146.552"/>
<polygon fill="#000000" stroke="#000000" points="531.654,-137.23 531.915,-148.192 529.711,-141.837 527.769,-146.444 527.769,-146.444 527.769,-146.444 529.711,-141.837 523.622,-144.696 531.654,-137.23 531.654,-137.23"/>
<text text-anchor="start" x="528" y="-157.5" font-family="Arial" font-size="10.00" fill="black"><a fill="navy" href="../reference/Instrumentation/InlinePrimaryElementReference.html#dexpi-instrumentation-inlineprimaryelementreference-inlineprimaryelement" target="_parent">InlinePrimaryElement</a></text>
<text text-anchor="start" x="510.654" y="-140.23" font-family="Arial" font-size="10.00" fill="black">0..1</text>
<text text-anchor="start" x="493.574" y="-173.747" font-family="Arial" font-size="10.00" fill="black">0..1</text>
</g>
<!-- 33 -->
<g id="node11" class="node"><defs>
<linearGradient id="l_12" gradientUnits="userSpaceOnUse" x1="74.5" y1="-488" x2="74.5" y2="-524">
<stop offset="0" style="stop-color:#ffffbb;stop-opacity:1.;"/>
<stop offset="1" style="stop-color:#ffffee;stop-opacity:1.;"/>
</linearGradient>
</defs>
<polygon fill="url(#l_12)" stroke="black" points="149,-524 0,-524 0,-488 149,-488 149,-524"/>
<text text-anchor="start" x="10.5" y="-504.2" font-family="Arial" font-weight="bold" font-size="11.00" fill="black"><a fill="navy" href="../reference/Graphics/AttributeRepresentation.html" target="_parent">AttributeRepresentation</a></text>
</g>
<!-- 33&#45;&gt;13 -->
<g id="edge2" class="edge"><path fill="none" stroke="#000000" d="M91.4659,-487.822C102.815,-476.331 117.916,-461.041 130.493,-448.307"/>
<polygon fill="#000000" stroke="#000000" points="137.559,-441.153 133.733,-451.43 134.045,-444.711 130.531,-448.268 130.531,-448.268 130.531,-448.268 134.045,-444.711 127.33,-445.106 137.559,-441.153 137.559,-441.153"/>
<text text-anchor="start" x="125" y="-461.5" font-family="Arial" font-size="10.00" fill="black"><a fill="navy" href="../reference/Graphics/AttributeRepresentation.html#dexpi-graphics-attributerepresentation-object" target="_parent">Object</a></text>
<text text-anchor="start" x="129.559" y="-444.153" font-family="Arial" font-size="10.00" fill="black"></text>
<text text-anchor="start" x="75.4659" y="-477.822" font-family="Arial" font-size="10.00" fill="black">*</text>
</g>
<!-- 36 -->
<g id="node12" class="node"><defs>
<linearGradient id="l_13" gradientUnits="userSpaceOnUse" x1="235.5" y1="-488" x2="235.5" y2="-524">
<stop offset="0" style="stop-color:#ffffbb;stop-opacity:1.;"/>
<stop offset="1" style="stop-color:#ffffee;stop-opacity:1.;"/>
</linearGradient>
</defs>
<polygon fill="url(#l_13)" stroke="black" points="304,-524 167,-524 167,-488 304,-488 304,-524"/>
<text text-anchor="start" x="177.5" y="-504.2" font-family="Arial" font-weight="bold" font-size="11.00" fill="black"><a fill="navy" href="../reference/Graphics/RepresentationGroup.html" target="_parent">RepresentationGroup</a></text>
</g>
<!-- 36&#45;&gt;13 -->
<g id="edge3" class="edge"><path fill="none" stroke="#000000" d="M218.322,-487.822C206.831,-476.331 191.541,-461.041 178.807,-448.307"/>
<polygon fill="#000000" stroke="#000000" points="171.653,-441.153 181.906,-445.042 175.189,-444.689 178.724,-448.224 178.724,-448.224 178.724,-448.224 175.189,-444.689 175.542,-451.406 171.653,-441.153 171.653,-441.153"/>
<text text-anchor="start" x="204.5" y="-461.5" font-family="Arial" font-size="10.00" fill="black"><a fill="navy" href="../reference/Graphics/RepresentationGroup.html#dexpi-graphics-representationgroup-represents" target="_parent">Represents</a></text>
<text text-anchor="start" x="163.653" y="-444.153" font-family="Arial" font-size="10.00" fill="black"></text>
<text text-anchor="start" x="202.322" y="-477.822" font-family="Arial" font-size="10.00" fill="black">*</text>
</g>
<!-- 42 -->
<g id="node14" class="node"><defs>
<linearGradient id="l_14" gradientUnits="userSpaceOnUse" x1="677.5" y1="-488" x2="677.5" y2="-524">
<stop offset="0" style="stop-color:#ffffbb;stop-opacity:1.;"/>
<stop offset="1" style="stop-color:#ffffee;stop-opacity:1.;"/>
</linearGradient>
</defs>
<polygon fill="url(#l_14)" stroke="black" points="750.5,-524 604.5,-524 604.5,-488 750.5,-488 750.5,-524"/>
<text text-anchor="start" x="614.5" y="-504.2" font-family="Arial" font-weight="bold" font-size="11.00" fill="black"><a fill="navy" href="../reference/Piping/PipingNetworkSegment.html" target="_parent">PipingNetworkSegment</a></text>
</g>
<!-- 42&#45;&gt;15 -->
<g id="edge5" class="edge"><path fill="none" stroke="#000000" d="M623.623,-483.288C594.057,-471.374 557.576,-456.672 528.338,-444.89"/>
<polygon fill="#000000" stroke="#000000" points="623.743,-483.337 630.803,-481.869 634.873,-487.822 627.813,-489.289 623.743,-483.337"/>
<polygon fill="#000000" stroke="#000000" points="518.72,-441.014 529.678,-440.578 523.358,-442.883 527.996,-444.752 527.996,-444.752 527.996,-444.752 523.358,-442.883 526.314,-448.926 518.72,-441.014 518.72,-441.014"/>
<text text-anchor="start" x="597" y="-461.5" font-family="Arial" font-size="10.00" fill="black"><a fill="navy" href="../reference/Piping/PipingNetworkSegment.html#dexpi-piping-pipingnetworksegment-items" target="_parent">Items</a></text>
<text text-anchor="start" x="510.72" y="-444.014" font-family="Arial" font-size="10.00" fill="black">*</text>
<text text-anchor="start" x="605.873" y="-477.822" font-family="Arial" font-size="10.00" fill="black">0..1</text>
</g>
<!-- 42&#45;&gt;17 -->
<g id="edge8" class="edge"><path fill="none" stroke="#000000" d="M704.814,-487.997C712.569,-482.99 720.954,-477.402 728.5,-472 737.248,-465.737 737.699,-461.437 747.5,-457 780.658,-441.99 794.081,-448.313 833.354,-441.023"/>
<polygon fill="#000000" stroke="#000000" points="843.322,-438.99 834.423,-445.398 838.422,-439.989 833.523,-440.989 833.523,-440.989 833.523,-440.989 838.422,-439.989 832.624,-436.58 843.322,-438.99 843.322,-438.99"/>
<text text-anchor="start" x="749.5" y="-461.5" font-family="Arial" font-size="10.00" fill="black"><a fill="navy" href="../reference/Piping/PipingNetworkSegment.html#dexpi-piping-pipingnetworksegment-sourceitem" target="_parent">SourceItem</a></text>
<text text-anchor="start" x="822.322" y="-441.99" font-family="Arial" font-size="10.00" fill="black">0..1</text>
<text text-anchor="start" x="675.814" y="-477.997" font-family="Arial" font-size="10.00" fill="black">0..1</text>
</g>
<!-- 42&#45;&gt;18 -->
<g id="edge9" class="edge"><path fill="none" stroke="#000000" d="M673.401,-487.963C672.028,-478.047 672.188,-465.807 678.5,-457 682.323,-451.666 692.281,-446.516 704.277,-441.933"/>
<polygon fill="#000000" stroke="#000000" points="713.779,-438.546 705.87,-446.143 709.069,-440.225 704.359,-441.904 704.359,-441.904 704.359,-441.904 709.069,-440.225 702.848,-437.665 713.779,-438.546 713.779,-438.546"/>
<text text-anchor="start" x="680.5" y="-461.5" font-family="Arial" font-size="10.00" fill="black"><a fill="navy" href="../reference/Piping/PipingNetworkSegment.html#dexpi-piping-pipingnetworksegment-targetitem" target="_parent">TargetItem</a></text>
<text text-anchor="start" x="692.779" y="-441.546" font-family="Arial" font-size="10.00" fill="black">0..1</text>
<text text-anchor="start" x="644.401" y="-477.963" font-family="Arial" font-size="10.00" fill="black">0..1</text>
</g>
<!-- 48 -->
<g id="node16" class="node"><defs>
<linearGradient id="l_15" gradientUnits="userSpaceOnUse" x1="840.5" y1="-488" x2="840.5" y2="-524">
<stop offset="0" style="stop-color:#ffffbb;stop-opacity:1.;"/>
<stop offset="1" style="stop-color:#ffffee;stop-opacity:1.;"/>
</linearGradient>
</defs>
<polygon fill="url(#l_15)" stroke="black" points="898,-524 783,-524 783,-488 898,-488 898,-524"/>
<text text-anchor="start" x="793.5" y="-504.2" font-family="Arial" font-weight="bold" font-style="italic" font-size="11.00" fill="black"><a fill="navy" href="../reference/Piping/PipingConnection.html" target="_parent">PipingConnection</a></text>
</g>
<!-- 48&#45;&gt;17 -->
<g id="edge7" class="edge"><path fill="none" stroke="#000000" d="M863.349,-487.937C868.763,-483.182 874.205,-477.735 878.5,-472 883.26,-465.644 887.317,-458.093 890.603,-450.884"/>
<polygon fill="#000000" stroke="#000000" points="894.598,-441.41 894.859,-452.373 892.655,-446.017 890.712,-450.624 890.712,-450.624 890.712,-450.624 892.655,-446.017 886.566,-448.876 894.598,-441.41 894.598,-441.41"/>
<text text-anchor="start" x="889.5" y="-461.5" font-family="Arial" font-size="10.00" fill="black"><a fill="navy" href="../reference/Piping/PipingConnection.html#dexpi-piping-pipingconnection-sourceitem" target="_parent">SourceItem</a></text>
<text text-anchor="start" x="873.598" y="-444.41" font-family="Arial" font-size="10.00" fill="black">0..1</text>
<text text-anchor="start" x="834.349" y="-477.937" font-family="Arial" font-size="10.00" fill="black">0..1</text>
</g>
<!-- 48&#45;&gt;18 -->
<g id="edge10" class="edge"><path fill="none" stroke="#000000" d="M829.29,-487.933C822.775,-478.468 814.161,-466.688 805.5,-457 802.842,-454.027 799.946,-451.033 796.989,-448.125"/>
<polygon fill="#000000" stroke="#000000" points="789.613,-441.138 799.967,-444.748 793.243,-444.576 796.873,-448.015 796.873,-448.015 796.873,-448.015 793.243,-444.576 793.778,-451.282 789.613,-441.138 789.613,-441.138"/>
<text text-anchor="start" x="818.5" y="-461.5" font-family="Arial" font-size="10.00" fill="black"><a fill="navy" href="../reference/Piping/PipingConnection.html#dexpi-piping-pipingconnection-targetitem" target="_parent">TargetItem</a></text>
<text text-anchor="start" x="768.613" y="-444.138" font-family="Arial" font-size="10.00" fill="black">0..1</text>
<text text-anchor="start" x="800.29" y="-477.933" font-family="Arial" font-size="10.00" fill="black">0..1</text>
</g>
<!-- 57 -->
<g id="node17" class="node"><defs>
<linearGradient id="l_16" gradientUnits="userSpaceOnUse" x1="1030.5" y1="-488" x2="1030.5" y2="-524">
<stop offset="0" style="stop-color:#ffffbb;stop-opacity:1.;"/>
<stop offset="1" style="stop-color:#ffffee;stop-opacity:1.;"/>
</linearGradient>
</defs>
<polygon fill="url(#l_16)" stroke="black" points="1132.5,-524 928.5,-524 928.5,-488 1132.5,-488 1132.5,-524"/>
<text text-anchor="start" x="938.5" y="-504.2" font-family="Arial" font-weight="bold" font-size="11.00" fill="black"><a fill="navy" href="../reference/Instrumentation/ProcessSignalGeneratingFunction.html" target="_parent">ProcessSignalGeneratingFunction</a></text>
</g>
<!-- 57&#45;&gt;19 -->
<g id="edge11" class="edge"><path fill="none" stroke="#000000" d="M1030.5,-487.822C1030.5,-477.19 1030.5,-463.306 1030.5,-451.204"/>
<polygon fill="#000000" stroke="#000000" points="1030.5,-441.153 1035,-451.153 1030.5,-446.153 1030.5,-451.153 1030.5,-451.153 1030.5,-451.153 1030.5,-446.153 1026,-451.153 1030.5,-441.153 1030.5,-441.153"/>
<text text-anchor="start" x="1033" y="-461.5" font-family="Arial" font-size="10.00" fill="black"><a fill="navy" href="../reference/Instrumentation/ProcessSignalGeneratingFunction.html#dexpi-instrumentation-processsignalgeneratingfunction-sensinglocation" target="_parent">SensingLocation</a></text>
<text text-anchor="start" x="1009.5" y="-444.153" font-family="Arial" font-size="10.00" fill="black">0..1</text>
<text text-anchor="start" x="1014.5" y="-477.822" font-family="Arial" font-size="10.00" fill="black">*</text>
</g>
<!-- 20&#45;inner&#45;node&#45;&gt;0 -->
<g id="edge13" class="edge"><path fill="none" stroke="black" d="M637.481,-200.921C637.085,-199.301 630.621,-173.072 622.5,-153 620.431,-147.886 618.17,-142.657 615.806,-137.434"/>
</g>
<!-- 21&#45;inner&#45;node&#45;&gt;12 -->
<g id="edge15" class="edge"><path fill="none" stroke="black" d="M154.578,-338.984C157.832,-338.33 262.648,-317.29 347.5,-305 427.362,-293.433 520.086,-283.487 578.766,-277.621"/>
</g>
<!-- 22&#45;inner&#45;node&#45;&gt;12 -->
<g id="edge17" class="edge"><path fill="none" stroke="black" d="M302.525,-338.864C302.773,-337.522 304.968,-326.644 311.5,-322 353.384,-292.223 496.807,-279.621 578.785,-274.749"/>
</g>
<!-- 23&#45;inner&#45;node&#45;&gt;12 -->
<g id="edge19" class="edge"><path fill="none" stroke="black" d="M476.617,-338.951C479.854,-337.604 549.738,-308.522 596.326,-289.135"/>
</g>
<!-- 24&#45;inner&#45;node&#45;&gt;12 -->
<g id="edge21" class="edge"><path fill="none" stroke="black" d="M637.5,-338.951C637.5,-337.604 637.5,-308.522 637.5,-289.135"/>
</g>
<!-- 25&#45;inner&#45;node&#45;&gt;12 -->
<g id="edge23" class="edge"><path fill="none" stroke="black" d="M900.452,-338.988C897.651,-338.274 772.671,-306.435 696.044,-286.914"/>
</g>
<!-- 26&#45;inner&#45;node&#45;&gt;12 -->
<g id="edge25" class="edge"><path fill="none" stroke="black" d="M769.377,-338.878C768.155,-337.679 758.086,-327.902 748.5,-322 727.712,-309.201 703.088,-297.774 682.32,-289.085"/>
</g>
<!-- 27&#45;inner&#45;node&#45;&gt;12 -->
<g id="edge27" class="edge"><path fill="none" stroke="black" d="M1030.43,-338.988C1025.87,-338.211 804.855,-300.531 696.349,-282.033"/>
</g>
</g>
</svg>