<!DOCTYPE svg PUBLIC "-//W3C//DTD SVG 1.1//EN" "http://www.w3.org/Graphics/SVG/1.1/DTD/svg11.dtd">
<!-- Generated by graphviz version 2.38.0 (20140413.2041)
 --><!-- Title: G Pages: 1 --><svg xmlns="http://www.w3.org/2000/svg" xmlns:xlink="http://www.w3.org/1999/xlink" width="573pt" height="404pt" viewBox="0.00 0.00 572.50 404.00">
<g id="graph0" class="graph" transform="scale(1 1) rotate(0) translate(4 400)">
<!-- 0 -->
<g id="node1" class="node"><defs>
<linearGradient id="l_0" gradientUnits="userSpaceOnUse" x1="300.5" y1="-83" x2="300.5" y2="-130">
<stop offset="0" style="stop-color:#ffffbb;stop-opacity:1.;"/>
<stop offset="1" style="stop-color:#ffffee;stop-opacity:1.;"/>
</linearGradient>
</defs>
<polygon fill="url(#l_0)" stroke="black" points="438.5,-130 162.5,-130 162.5,-83 438.5,-83 438.5,-130"/>
<text text-anchor="start" x="222" y="-115.7" font-family="Arial" font-weight="bold" font-size="11.00" fill="black">InstrumentationLoopFunction</text>
<text text-anchor="start" x="172.5" y="-91.5" font-family="Arial" font-size="10.00" fill="black"><a fill="navy" href="../reference/Instrumentation/InstrumentationLoopFunction.html#dexpi-instrumentation-instrumentationloopfunction-instrumentationloopfunctionnumber" target="_parent">InstrumentationLoopFunctionNumber</a>&#160;:</text>
<text text-anchor="start" x="342.5" y="-91.5" font-family="Arial" font-size="10.00" fill="black"><a fill="navy" href="../reference/DataTypes/NullableString.html" target="_parent">NullableString</a>&#160;[0..1]</text>
<polygon fill="black" stroke="black" points="438.5,-109.5 162.5,-109.5 162.5,-109.5 438.5,-109.5 438.5,-109.5"/>
</g>
<!-- 13 -->
<g id="node6" class="node"><defs>
<linearGradient id="l_1" gradientUnits="userSpaceOnUse" x1="300.5" y1="-1.77636e-014" x2="300.5" y2="-36">
<stop offset="0" style="stop-color:#ffffbb;stop-opacity:1.;"/>
<stop offset="1" style="stop-color:#ffffee;stop-opacity:1.;"/>
</linearGradient>
</defs>
<polygon fill="url(#l_1)" stroke="black" points="397.5,-36 203.5,-36 203.5,-0 397.5,-0 397.5,-36"/>
<text text-anchor="start" x="213.5" y="-16.2" font-family="Arial" font-weight="bold" font-size="11.00" fill="black"><a fill="navy" href="../reference/Instrumentation/ProcessInstrumentationFunction.html" target="_parent">ProcessInstrumentationFunction</a></text>
</g>
<!-- 0&#45;&gt;13 -->
<g id="edge2" class="edge"><path fill="none" stroke="#000000" d="M300.5,-82.7731C300.5,-71.5826 300.5,-58.0057 300.5,-46.26"/>
<polygon fill="#000000" stroke="#000000" points="300.5,-36.109 305,-46.1089 300.5,-41.109 300.5,-46.109 300.5,-46.109 300.5,-46.109 300.5,-41.109 296,-46.109 300.5,-36.109 300.5,-36.109"/>
<text text-anchor="start" x="302.5" y="-56.5" font-family="Arial" font-size="10.00" fill="black"><a fill="navy" href="../reference/Instrumentation/InstrumentationLoopFunction.html#dexpi-instrumentation-instrumentationloopfunction-processinstrumentationfunctions" target="_parent">ProcessInstrumentationFunctions</a></text>
<text text-anchor="start" x="292.5" y="-39.109" font-family="Arial" font-size="10.00" fill="black">*</text>
<text text-anchor="start" x="271.5" y="-72.7731" font-family="Arial" font-size="10.00" fill="black">0..1</text>
</g>
<!-- 4 -->
<g id="node2" class="node"><defs>
<linearGradient id="l_2" gradientUnits="userSpaceOnUse" x1="472.5" y1="-343" x2="472.5" y2="-396">
<stop offset="0" style="stop-color:#fbfbfb;stop-opacity:1.;"/>
<stop offset="1" style="stop-color:#fefefe;stop-opacity:1.;"/>
</linearGradient>
</defs>
<polygon fill="url(#l_2)" stroke="black" points="564.5,-385.0 553.5,-396.0 380.5,-396.0 380.5,-343.0 564.5,-343.0"/><path d="M564.5,-385.0L553.5,-385.0 553.5,-396.0" fill="none" stroke="black"/>
<text text-anchor="start" x="390.5" y="-381.5" font-family="Arial" font-size="10.00" fill="black">For&#160;the&#160;sake&#160;of&#160;clarity,&#160;superclasses&#160;</text>
<text text-anchor="start" x="390.5" y="-366.5" font-family="Arial" font-size="10.00" fill="black">and&#160;associations&#160;of&#160;<a fill="navy" href="../reference/PlantStructure/TechnicalItem.html" target="_parent">TechnicalItem</a>&#160;are</text>
<text text-anchor="start" x="390.5" y="-351.5" font-family="Arial" font-size="10.00" fill="black">not&#160;shown&#160;in&#160;this&#160;diagram.</text>
</g>
<!-- 3 -->
<g id="node3" class="node"><defs>
<linearGradient id="l_3" gradientUnits="userSpaceOnUse" x1="472.5" y1="-260" x2="472.5" y2="-296">
<stop offset="0" style="stop-color:#ffffbb;stop-opacity:1.;"/>
<stop offset="1" style="stop-color:#ffffee;stop-opacity:1.;"/>
</linearGradient>
</defs>
<polygon fill="url(#l_3)" stroke="black" points="519,-296 426,-296 426,-260 519,-260 519,-296"/>
<text text-anchor="start" x="436.5" y="-276.2" font-family="Arial" font-weight="bold" font-style="italic" font-size="11.00" fill="black"><a fill="navy" href="../reference/PlantStructure/TechnicalItem.html" target="_parent">TechnicalItem</a></text>
</g>
<!-- 4&#45;&gt;3 -->
<g id="edge1" class="edge"><path fill="none" stroke="#000000" stroke-dasharray="5,2" d="M472.5,-342.613C472.5,-327.641 472.5,-309.222 472.5,-296.063"/>
</g>
<!-- 10&#45;inner&#45;node -->
<!-- 3&#45;&gt;10&#45;inner&#45;node -->
<g id="edge11" class="edge"><path fill="none" stroke="black" d="M472.5,-249.649C472.5,-226.987 472.5,-198.163 472.5,-196.116L472.375,-193.937"/>
<polygon fill="none" stroke="black" points="469,-249.822 472.5,-259.822 476,-249.822 469,-249.822"/>
</g>
<!-- 6 -->
<g id="node4" class="node"><defs>
<linearGradient id="l_4" gradientUnits="userSpaceOnUse" x1="177.5" y1="-260" x2="177.5" y2="-296">
<stop offset="0" style="stop-color:#ffffbb;stop-opacity:1.;"/>
<stop offset="1" style="stop-color:#ffffee;stop-opacity:1.;"/>
</linearGradient>
</defs>
<polygon fill="url(#l_4)" stroke="black" points="235,-296 120,-296 120,-260 235,-260 235,-296"/>
<text text-anchor="start" x="130.5" y="-276.2" font-family="Arial" font-weight="bold" font-style="italic" font-size="11.00" fill="black"><a fill="navy" href="../reference/DexpiModel/ConceptualObject.html" target="_parent">ConceptualObject</a></text>
</g>
<!-- 8&#45;inner&#45;node -->
<!-- 6&#45;&gt;8&#45;inner&#45;node -->
<g id="edge7" class="edge"><path fill="none" stroke="black" d="M177.5,-249.649C177.5,-226.987 177.5,-198.163 177.5,-196.116L177.528,-193.869"/>
<polygon fill="none" stroke="black" points="174,-249.822 177.5,-259.822 181,-249.822 174,-249.822"/>
</g>
<!-- 7 -->
<g id="node5" class="node"><defs>
<linearGradient id="l_5" gradientUnits="userSpaceOnUse" x1="335.5" y1="-260" x2="335.5" y2="-296">
<stop offset="0" style="stop-color:#ffffbb;stop-opacity:1.;"/>
<stop offset="1" style="stop-color:#ffffee;stop-opacity:1.;"/>
</linearGradient>
</defs>
<polygon fill="url(#l_5)" stroke="black" points="407.5,-296 263.5,-296 263.5,-260 407.5,-260 407.5,-296"/>
<text text-anchor="start" x="273.5" y="-276.2" font-family="Arial" font-weight="bold" font-style="italic" font-size="11.00" fill="black"><a fill="navy" href="../reference/Customization/CustomAttributeOwner.html" target="_parent">CustomAttributeOwner</a></text>
</g>
<!-- 25 -->
<g id="node10" class="node"><defs>
<linearGradient id="l_6" gradientUnits="userSpaceOnUse" x1="250.5" y1="-177" x2="250.5" y2="-213">
<stop offset="0" style="stop-color:#ffffbb;stop-opacity:1.;"/>
<stop offset="1" style="stop-color:#ffffee;stop-opacity:1.;"/>
</linearGradient>
</defs>
<polygon fill="url(#l_6)" stroke="black" points="305,-213 196,-213 196,-177 305,-177 305,-213"/>
<text text-anchor="start" x="206.5" y="-193.2" font-family="Arial" font-weight="bold" font-style="italic" font-size="11.00" fill="black"><a fill="navy" href="../reference/Customization/CustomAttribute.html" target="_parent">CustomAttribute</a></text>
</g>
<!-- 7&#45;&gt;25 -->
<g id="edge6" class="edge"><path fill="none" stroke="#000000" d="M258.949,-252.486C256.181,-249.933 253.67,-247.113 251.5,-244 247.402,-238.119 245.944,-230.772 245.815,-223.608"/>
<polygon fill="#000000" stroke="#000000" points="258.998,-252.523 266.196,-252.959 268.563,-259.77 261.365,-259.335 258.998,-252.523"/>
<polygon fill="#000000" stroke="#000000" points="246.425,-213.435 250.319,-223.687 246.126,-218.426 245.827,-223.417 245.827,-223.417 245.827,-223.417 246.126,-218.426 241.335,-223.148 246.425,-213.435 246.425,-213.435"/>
<text text-anchor="start" x="253.5" y="-233.5" font-family="Arial" font-size="10.00" fill="black"><a fill="navy" href="../reference/Customization/CustomAttributeOwner.html#dexpi-customization-customattributeowner-customattributes" target="_parent">CustomAttributes</a></text>
<text text-anchor="start" x="238.425" y="-216.435" font-family="Arial" font-size="10.00" fill="black">*</text>
<text text-anchor="start" x="239.563" y="-249.77" font-family="Arial" font-size="10.00" fill="black">0..1</text>
</g>
<!-- 9&#45;inner&#45;node -->
<!-- 7&#45;&gt;9&#45;inner&#45;node -->
<g id="edge9" class="edge"><path fill="none" stroke="black" d="M335.5,-249.649C335.5,-226.987 335.5,-198.163 335.5,-196.116L335.475,-193.937"/>
<polygon fill="none" stroke="black" points="332,-249.822 335.5,-259.822 339,-249.822 332,-249.822"/>
</g>
<!-- 16 -->
<g id="node7" class="node"><defs>
<linearGradient id="l_7" gradientUnits="userSpaceOnUse" x1="101.5" y1="-177" x2="101.5" y2="-213">
<stop offset="0" style="stop-color:#ffffbb;stop-opacity:1.;"/>
<stop offset="1" style="stop-color:#ffffee;stop-opacity:1.;"/>
</linearGradient>
</defs>
<polygon fill="url(#l_7)" stroke="black" points="158.5,-213 44.5,-213 44.5,-177 158.5,-177 158.5,-213"/>
<text text-anchor="start" x="54.5" y="-193.2" font-family="Arial" font-weight="bold" font-size="11.00" fill="black"><a fill="navy" href="../reference/DexpiModel/ConceptualModel.html" target="_parent">ConceptualModel</a></text>
</g>
<!-- 16&#45;&gt;0 -->
<g id="edge3" class="edge"><path fill="none" stroke="#000000" d="M95.4823,-164.483C95.6569,-157.797 97.2448,-151.157 101.5,-146 109.57,-136.219 128.868,-128.894 152.433,-123.417"/>
<polygon fill="#000000" stroke="#000000" points="95.4982,-164.676 99.9802,-170.325 96.4894,-176.635 92.0075,-170.986 95.4982,-164.676"/>
<polygon fill="#000000" stroke="#000000" points="162.398,-121.257 153.578,-127.773 157.511,-122.316 152.625,-123.375 152.625,-123.375 152.625,-123.375 157.511,-122.316 151.671,-118.978 162.398,-121.257 162.398,-121.257"/>
<text text-anchor="start" x="104" y="-150.5" font-family="Arial" font-size="10.00" fill="black"><a fill="navy" href="../reference/DexpiModel/ConceptualModel.html#dexpi-dexpimodel-conceptualmodel-instrumentationloopfunctions" target="_parent">InstrumentationLoopFunctions</a></text>
<text text-anchor="start" x="154.398" y="-124.257" font-family="Arial" font-size="10.00" fill="black">*</text>
<text text-anchor="start" x="67.4894" y="-166.635" font-family="Arial" font-size="10.00" fill="black">0..1</text>
</g>
<!-- 19 -->
<g id="node8" class="node"><defs>
<linearGradient id="l_8" gradientUnits="userSpaceOnUse" x1="74.5" y1="-351.5" x2="74.5" y2="-387.5">
<stop offset="0" style="stop-color:#ffffbb;stop-opacity:1.;"/>
<stop offset="1" style="stop-color:#ffffee;stop-opacity:1.;"/>
</linearGradient>
</defs>
<polygon fill="url(#l_8)" stroke="black" points="149,-387.5 0,-387.5 0,-351.5 149,-351.5 149,-387.5"/>
<text text-anchor="start" x="10.5" y="-367.7" font-family="Arial" font-weight="bold" font-size="11.00" fill="black"><a fill="navy" href="../reference/Graphics/AttributeRepresentation.html" target="_parent">AttributeRepresentation</a></text>
</g>
<!-- 19&#45;&gt;6 -->
<g id="edge4" class="edge"><path fill="none" stroke="#000000" d="M94.3594,-351.243C110.176,-337.5 132.493,-318.108 150.024,-302.875"/>
<polygon fill="#000000" stroke="#000000" points="157.702,-296.204 153.105,-306.159 153.927,-299.483 150.153,-302.763 150.153,-302.763 150.153,-302.763 153.927,-299.483 147.201,-299.366 157.702,-296.204 157.702,-296.204"/>
<text text-anchor="start" x="141" y="-316.5" font-family="Arial" font-size="10.00" fill="black"><a fill="navy" href="../reference/Graphics/AttributeRepresentation.html#dexpi-graphics-attributerepresentation-object" target="_parent">Object</a></text>
<text text-anchor="start" x="149.702" y="-299.204" font-family="Arial" font-size="10.00" fill="black"></text>
<text text-anchor="start" x="78.3594" y="-341.243" font-family="Arial" font-size="10.00" fill="black">*</text>
</g>
<!-- 22 -->
<g id="node9" class="node"><defs>
<linearGradient id="l_9" gradientUnits="userSpaceOnUse" x1="235.5" y1="-351.5" x2="235.5" y2="-387.5">
<stop offset="0" style="stop-color:#ffffbb;stop-opacity:1.;"/>
<stop offset="1" style="stop-color:#ffffee;stop-opacity:1.;"/>
</linearGradient>
</defs>
<polygon fill="url(#l_9)" stroke="black" points="304,-387.5 167,-387.5 167,-351.5 304,-351.5 304,-387.5"/>
<text text-anchor="start" x="177.5" y="-367.7" font-family="Arial" font-weight="bold" font-size="11.00" fill="black"><a fill="navy" href="../reference/Graphics/RepresentationGroup.html" target="_parent">RepresentationGroup</a></text>
</g>
<!-- 22&#45;&gt;6 -->
<g id="edge5" class="edge"><path fill="none" stroke="#000000" d="M224.317,-351.243C215.812,-338.119 203.968,-319.843 194.322,-304.958"/>
<polygon fill="#000000" stroke="#000000" points="188.649,-296.204 197.863,-302.148 191.368,-300.399 194.087,-304.595 194.087,-304.595 194.087,-304.595 191.368,-300.399 190.311,-307.043 188.649,-296.204 188.649,-296.204"/>
<text text-anchor="start" x="210.5" y="-316.5" font-family="Arial" font-size="10.00" fill="black"><a fill="navy" href="../reference/Graphics/RepresentationGroup.html#dexpi-graphics-representationgroup-represents" target="_parent">Represents</a></text>
<text text-anchor="start" x="180.649" y="-299.204" font-family="Arial" font-size="10.00" fill="black"></text>
<text text-anchor="start" x="208.317" y="-341.243" font-family="Arial" font-size="10.00" fill="black">*</text>
</g>
<!-- 8&#45;inner&#45;node&#45;&gt;0 -->
<g id="edge8" class="edge"><path fill="none" stroke="black" d="M177.528,-193.869C177.815,-192.576 180.298,-182.077 186.5,-177 205.869,-161.144 218.631,-173.179 240.5,-161 255.01,-152.92 268.995,-140.791 279.808,-130.124"/>
</g>
<!-- 9&#45;inner&#45;node&#45;&gt;0 -->
<g id="edge10" class="edge"><path fill="none" stroke="black" d="M335.475,-193.937C334.775,-192.208 319.757,-155.092 309.63,-130.064"/>
</g>
<!-- 10&#45;inner&#45;node&#45;&gt;0 -->
<g id="edge12" class="edge"><path fill="none" stroke="black" d="M472.375,-193.937C468.937,-192.208 395.134,-155.092 345.368,-130.064"/>
</g>
</g>
</svg>