<!DOCTYPE svg PUBLIC "-//W3C//DTD SVG 1.1//EN" "http://www.w3.org/Graphics/SVG/1.1/DTD/svg11.dtd">
<!-- Generated by graphviz version 2.38.0 (20140413.2041)
 --><!-- Title: G Pages: 1 --><svg xmlns="http://www.w3.org/2000/svg" xmlns:xlink="http://www.w3.org/1999/xlink" width="222pt" height="485pt" viewBox="0.00 0.00 221.50 485.00">
<g id="graph0" class="graph" transform="scale(1 1) rotate(0) translate(4 481)">
<!-- 0 -->
<g id="node1" class="node"><defs>
<linearGradient id="l_0" gradientUnits="userSpaceOnUse" x1="133.5" y1="-1.77636e-014" x2="133.5" y2="-36">
<stop offset="0" style="stop-color:#ffffbb;stop-opacity:1.;"/>
<stop offset="1" style="stop-color:#ffffee;stop-opacity:1.;"/>
</linearGradient>
</defs>
<polygon fill="url(#l_0)" stroke="black" points="184.5,-36 82.5,-36 82.5,-0 184.5,-0 184.5,-36"/>
<text text-anchor="start" x="92.5" y="-16.2" font-family="Arial" font-weight="bold" font-size="11.00" fill="black">InsulationLabel</text>
</g>
<!-- 1 -->
<g id="node2" class="node"><defs>
<linearGradient id="l_1" gradientUnits="userSpaceOnUse" x1="133.5" y1="-103" x2="133.5" y2="-139">
<stop offset="0" style="stop-color:#ffffbb;stop-opacity:1.;"/>
<stop offset="1" style="stop-color:#ffffee;stop-opacity:1.;"/>
</linearGradient>
</defs>
<polygon fill="url(#l_1)" stroke="black" points="160.5,-139 106.5,-139 106.5,-103 160.5,-103 160.5,-139"/>
<text text-anchor="start" x="118.5" y="-119.2" font-family="Arial" font-weight="bold" font-size="11.00" fill="black"><a fill="navy" href="../reference/Graphics/Label.html" target="_parent">Label</a></text>
</g>
<!-- 4&#45;inner&#45;node -->
<!-- 1&#45;&gt;4&#45;inner&#45;node -->
<g id="edge3" class="edge"><path fill="none" stroke="black" d="M133.5,-92.603C133.5,-81.4221 133.5,-70.8866 133.5,-70.053L133.5,-68.8566"/>
<polygon fill="none" stroke="black" points="130,-92.7928 133.5,-102.793 137,-92.7929 130,-92.7928"/>
</g>
<!-- 2 -->
<g id="node3" class="node"><defs>
<linearGradient id="l_2" gradientUnits="userSpaceOnUse" x1="133.5" y1="-255" x2="133.5" y2="-291">
<stop offset="0" style="stop-color:#ffffbb;stop-opacity:1.;"/>
<stop offset="1" style="stop-color:#ffffee;stop-opacity:1.;"/>
</linearGradient>
</defs>
<polygon fill="url(#l_2)" stroke="black" points="213.5,-291 53.5,-291 53.5,-255 213.5,-255 213.5,-291"/>
<text text-anchor="start" x="63.5" y="-271.2" font-family="Arial" font-weight="bold" font-style="italic" font-size="11.00" fill="black"><a fill="navy" href="../reference/Graphics/RepresentationTypeGroup.html" target="_parent">RepresentationTypeGroup</a></text>
</g>
<!-- 9 -->
<g id="node5" class="node"><defs>
<linearGradient id="l_3" gradientUnits="userSpaceOnUse" x1="57.5" y1="-172" x2="57.5" y2="-208">
<stop offset="0" style="stop-color:#ffffbb;stop-opacity:1.;"/>
<stop offset="1" style="stop-color:#ffffee;stop-opacity:1.;"/>
</linearGradient>
</defs>
<polygon fill="url(#l_3)" stroke="black" points="115,-208 0,-208 0,-172 115,-172 115,-208"/>
<text text-anchor="start" x="10.5" y="-188.2" font-family="Arial" font-weight="bold" font-style="italic" font-size="11.00" fill="black"><a fill="navy" href="../reference/Graphics/GraphicalElement.html" target="_parent">GraphicalElement</a></text>
</g>
<!-- 2&#45;&gt;9 -->
<g id="edge1" class="edge"><path fill="none" stroke="#000000" d="M92.839,-247.76C89.499,-245.013 86.3265,-242.084 83.5,-239 77.7365,-232.712 72.812,-224.913 68.8488,-217.442"/>
<polygon fill="#000000" stroke="#000000" points="92.9264,-247.825 100.128,-248.204 102.547,-254.998 95.346,-254.618 92.9264,-247.825"/>
<polygon fill="#000000" stroke="#000000" points="64.3523,-208.293 72.8018,-215.283 66.5577,-212.78 68.7632,-217.268 68.7632,-217.268 68.7632,-217.268 66.5577,-212.78 64.7246,-219.253 64.3523,-208.293 64.3523,-208.293"/>
<text text-anchor="start" x="85.5" y="-228.5" font-family="Arial" font-size="10.00" fill="black"><a fill="navy" href="../reference/Graphics/RepresentationTypeGroup.html#dexpi-graphics-representationtypegroup-elements" target="_parent">Elements</a></text>
<text text-anchor="start" x="56.3523" y="-211.293" font-family="Arial" font-size="10.00" fill="black">*</text>
<text text-anchor="start" x="73.5472" y="-244.998" font-family="Arial" font-size="10.00" fill="black">0..1</text>
</g>
<!-- 5&#45;inner&#45;node -->
<!-- 2&#45;&gt;5&#45;inner&#45;node -->
<g id="edge5" class="edge"><path fill="none" stroke="black" d="M133.5,-244.649C133.5,-221.987 133.5,-193.163 133.5,-191.116L133.5,-188.951"/>
<polygon fill="none" stroke="black" points="130,-244.822 133.5,-254.822 137,-244.822 130,-244.822"/>
</g>
<!-- 3 -->
<g id="node4" class="node"><defs>
<linearGradient id="l_4" gradientUnits="userSpaceOnUse" x1="133.5" y1="-358" x2="133.5" y2="-394">
<stop offset="0" style="stop-color:#ffffbb;stop-opacity:1.;"/>
<stop offset="1" style="stop-color:#ffffee;stop-opacity:1.;"/>
</linearGradient>
</defs>
<polygon fill="url(#l_4)" stroke="black" points="184.5,-394 82.5,-394 82.5,-358 184.5,-358 184.5,-394"/>
<text text-anchor="start" x="92.5" y="-374.2" font-family="Arial" font-weight="bold" font-style="italic" font-size="11.00" fill="black"><a fill="navy" href="../reference/Graphics/GraphicsGroup.html" target="_parent">GraphicsGroup</a></text>
</g>
<!-- 6&#45;inner&#45;node -->
<!-- 3&#45;&gt;6&#45;inner&#45;node -->
<g id="edge7" class="edge"><path fill="none" stroke="black" d="M133.5,-347.603C133.5,-336.422 133.5,-325.887 133.5,-325.053L133.5,-323.857"/>
<polygon fill="none" stroke="black" points="130,-347.793 133.5,-357.793 137,-347.793 130,-347.793"/>
</g>
<!-- 12 -->
<g id="node6" class="node"><defs>
<linearGradient id="l_5" gradientUnits="userSpaceOnUse" x1="133.5" y1="-441" x2="133.5" y2="-477">
<stop offset="0" style="stop-color:#ffffbb;stop-opacity:1.;"/>
<stop offset="1" style="stop-color:#ffffee;stop-opacity:1.;"/>
</linearGradient>
</defs>
<polygon fill="url(#l_5)" stroke="black" points="202,-477 65,-477 65,-441 202,-441 202,-477"/>
<text text-anchor="start" x="75.5" y="-457.2" font-family="Arial" font-weight="bold" font-size="11.00" fill="black"><a fill="navy" href="../reference/Graphics/RepresentationGroup.html" target="_parent">RepresentationGroup</a></text>
</g>
<!-- 12&#45;&gt;3 -->
<g id="edge2" class="edge"><path fill="none" stroke="#000000" d="M133.5,-428.549C133.5,-420.604 133.5,-412.044 133.5,-404.226"/>
<polygon fill="#000000" stroke="#000000" points="133.5,-428.822 137.5,-434.822 133.5,-440.822 129.5,-434.822 133.5,-428.822"/>
<polygon fill="#000000" stroke="#000000" points="133.5,-394.153 138,-404.153 133.5,-399.153 133.5,-404.153 133.5,-404.153 133.5,-404.153 133.5,-399.153 129,-404.153 133.5,-394.153 133.5,-394.153"/>
<text text-anchor="start" x="135.5" y="-414.5" font-family="Arial" font-size="10.00" fill="black"><a fill="navy" href="../reference/Graphics/RepresentationGroup.html#dexpi-graphics-representationgroup-groups" target="_parent">Groups</a></text>
<text text-anchor="start" x="125.5" y="-397.153" font-family="Arial" font-size="10.00" fill="black">*</text>
<text text-anchor="start" x="104.5" y="-430.822" font-family="Arial" font-size="10.00" fill="black">0..1</text>
</g>
<!-- 4&#45;inner&#45;node&#45;&gt;0 -->
<g id="edge4" class="edge"><path fill="none" stroke="black" d="M133.5,-68.8566C133.5,-67.1153 133.5,-49.8654 133.5,-36.1372"/>
</g>
<!-- 5&#45;inner&#45;node&#45;&gt;1 -->
<g id="edge6" class="edge"><path fill="none" stroke="black" d="M133.5,-188.951C133.5,-187.604 133.5,-158.522 133.5,-139.135"/>
</g>
<!-- 6&#45;inner&#45;node&#45;&gt;2 -->
<g id="edge8" class="edge"><path fill="none" stroke="black" d="M133.5,-323.857C133.5,-322.115 133.5,-304.865 133.5,-291.137"/>
</g>
</g>
</svg>