<!DOCTYPE svg PUBLIC "-//W3C//DTD SVG 1.1//EN" "http://www.w3.org/Graphics/SVG/1.1/DTD/svg11.dtd">
<!-- Generated by graphviz version 2.38.0 (20140413.2041)
 --><!-- Title: G Pages: 1 --><svg xmlns="http://www.w3.org/2000/svg" xmlns:xlink="http://www.w3.org/1999/xlink" width="867pt" height="807pt" viewBox="0.00 0.00 866.50 807.00">
<g id="graph0" class="graph" transform="scale(1 1) rotate(0) translate(4 803)">
<!-- 0 -->
<g id="node1" class="node"><defs>
<linearGradient id="l_0" gradientUnits="userSpaceOnUse" x1="457.5" y1="-3.55271e-014" x2="457.5" y2="-77">
<stop offset="0" style="stop-color:#ffffbb;stop-opacity:1.;"/>
<stop offset="1" style="stop-color:#ffffee;stop-opacity:1.;"/>
</linearGradient>
</defs>
<polygon fill="url(#l_0)" stroke="black" points="636.5,-77 278.5,-77 278.5,-0 636.5,-0 636.5,-77"/>
<text text-anchor="start" x="434.5" y="-62.7" font-family="Arial" font-weight="bold" font-size="11.00" fill="black">Kneader</text>
<text text-anchor="start" x="288.5" y="-38.5" font-family="Arial" font-size="10.00" fill="black"><a fill="navy" href="../reference/Equipment/Kneader.html#dexpi-equipment-kneader-designrotationalspeed" target="_parent">DesignRotationalSpeed</a>&#160;:</text>
<text text-anchor="start" x="476.5" y="-38.5" font-family="Arial" font-size="10.00" fill="black"><a fill="navy" href="../reference/PhysicalQuantities/NullableRotationalFrequency.html" target="_parent">NullableRotationalFrequency</a>&#160;[0..1]</text>
<text text-anchor="start" x="288.5" y="-23.5" font-family="Arial" font-size="10.00" fill="black"><a fill="navy" href="../reference/Equipment/Kneader.html#dexpi-equipment-kneader-designshaftpower" target="_parent">DesignShaftPower</a>&#160;:</text>
<text text-anchor="start" x="476.5" y="-23.5" font-family="Arial" font-size="10.00" fill="black"><a fill="navy" href="../reference/PhysicalQuantities/NullablePower.html" target="_parent">NullablePower</a>&#160;[0..1]</text>
<text text-anchor="start" x="288.5" y="-8.5" font-family="Arial" font-size="10.00" fill="black"><a fill="navy" href="../reference/Equipment/Kneader.html#dexpi-equipment-kneader-upperlimitallowabledesignpressuredrop" target="_parent">UpperLimitAllowableDesignPressureDrop</a>&#160;:</text>
<text text-anchor="start" x="476.5" y="-8.5" font-family="Arial" font-size="10.00" fill="black"><a fill="navy" href="../reference/PhysicalQuantities/NullablePressureAbsolute.html" target="_parent">NullablePressureAbsolute</a>&#160;[0..1]</text>
<polygon fill="black" stroke="black" points="636.5,-56.5 278.5,-56.5 278.5,-56.5 636.5,-56.5 636.5,-56.5"/>
</g>
<!-- 8 -->
<g id="node2" class="node"><defs>
<linearGradient id="l_1" gradientUnits="userSpaceOnUse" x1="766.5" y1="-746" x2="766.5" y2="-799">
<stop offset="0" style="stop-color:#fbfbfb;stop-opacity:1.;"/>
<stop offset="1" style="stop-color:#fefefe;stop-opacity:1.;"/>
</linearGradient>
</defs>
<polygon fill="url(#l_1)" stroke="black" points="858.5,-788.0 847.5,-799.0 674.5,-799.0 674.5,-746.0 858.5,-746.0"/><path d="M858.5,-788.0L847.5,-788.0 847.5,-799.0" fill="none" stroke="black"/>
<text text-anchor="start" x="684.5" y="-784.5" font-family="Arial" font-size="10.00" fill="black">For&#160;the&#160;sake&#160;of&#160;clarity,&#160;superclasses&#160;</text>
<text text-anchor="start" x="684.5" y="-769.5" font-family="Arial" font-size="10.00" fill="black">and&#160;associations&#160;of&#160;<a fill="navy" href="../reference/PlantStructure/TechnicalItem.html" target="_parent">TechnicalItem</a>&#160;are</text>
<text text-anchor="start" x="684.5" y="-754.5" font-family="Arial" font-size="10.00" fill="black">not&#160;shown&#160;in&#160;this&#160;diagram.</text>
</g>
<!-- 7 -->
<g id="node3" class="node"><defs>
<linearGradient id="l_2" gradientUnits="userSpaceOnUse" x1="766.5" y1="-663" x2="766.5" y2="-699">
<stop offset="0" style="stop-color:#ffffbb;stop-opacity:1.;"/>
<stop offset="1" style="stop-color:#ffffee;stop-opacity:1.;"/>
</linearGradient>
</defs>
<polygon fill="url(#l_2)" stroke="black" points="813,-699 720,-699 720,-663 813,-663 813,-699"/>
<text text-anchor="start" x="730.5" y="-679.2" font-family="Arial" font-weight="bold" font-style="italic" font-size="11.00" fill="black"><a fill="navy" href="../reference/PlantStructure/TechnicalItem.html" target="_parent">TechnicalItem</a></text>
</g>
<!-- 8&#45;&gt;7 -->
<g id="edge1" class="edge"><path fill="none" stroke="#000000" stroke-dasharray="5,2" d="M766.5,-745.613C766.5,-730.641 766.5,-712.222 766.5,-699.063"/>
</g>
<!-- 24&#45;inner&#45;node -->
<!-- 7&#45;&gt;24&#45;inner&#45;node -->
<g id="edge27" class="edge"><path fill="none" stroke="black" d="M766.5,-652.649C766.5,-629.987 766.5,-601.163 766.5,-599.116L766.362,-596.941"/>
<polygon fill="none" stroke="black" points="763,-652.822 766.5,-662.822 770,-652.822 763,-652.822"/>
</g>
<!-- 10 -->
<g id="node4" class="node"><defs>
<linearGradient id="l_3" gradientUnits="userSpaceOnUse" x1="457.5" y1="-193" x2="457.5" y2="-229">
<stop offset="0" style="stop-color:#ffffbb;stop-opacity:1.;"/>
<stop offset="1" style="stop-color:#ffffee;stop-opacity:1.;"/>
</linearGradient>
</defs>
<polygon fill="url(#l_3)" stroke="black" points="484.5,-229 430.5,-229 430.5,-193 484.5,-193 484.5,-229"/>
<text text-anchor="start" x="442.5" y="-209.2" font-family="Arial" font-weight="bold" font-size="11.00" fill="black"><a fill="navy" href="../reference/Equipment/Mixer.html" target="_parent">Mixer</a></text>
</g>
<!-- 27 -->
<g id="node11" class="node"><defs>
<linearGradient id="l_4" gradientUnits="userSpaceOnUse" x1="322.5" y1="-110" x2="322.5" y2="-146">
<stop offset="0" style="stop-color:#ffffbb;stop-opacity:1.;"/>
<stop offset="1" style="stop-color:#ffffee;stop-opacity:1.;"/>
</linearGradient>
</defs>
<polygon fill="url(#l_4)" stroke="black" points="397,-146 248,-146 248,-110 397,-110 397,-146"/>
<text text-anchor="start" x="258.5" y="-126.2" font-family="Arial" font-weight="bold" font-size="11.00" fill="black"><a fill="navy" href="../reference/Equipment/MixingElementAssembly.html" target="_parent">MixingElementAssembly</a></text>
</g>
<!-- 10&#45;&gt;27 -->
<g id="edge2" class="edge"><path fill="none" stroke="#000000" d="M417.957,-209.669C390.578,-207.279 355.277,-199.548 333.5,-177 328.11,-171.419 325.159,-163.763 323.596,-156.205"/>
<polygon fill="#000000" stroke="#000000" points="418.307,-209.691 424.545,-206.073 430.283,-210.44 424.045,-214.058 418.307,-209.691"/>
<polygon fill="#000000" stroke="#000000" points="322.224,-146.162 328.036,-155.461 322.901,-151.116 323.577,-156.07 323.577,-156.07 323.577,-156.07 322.901,-151.116 319.119,-156.679 322.224,-146.162 322.224,-146.162"/>
<text text-anchor="start" x="335.5" y="-166.5" font-family="Arial" font-size="10.00" fill="black"><a fill="navy" href="../reference/Equipment/Mixer.html#dexpi-equipment-mixer-mixingelementassemblies" target="_parent">MixingElementAssemblies</a></text>
<text text-anchor="start" x="314.224" y="-149.162" font-family="Arial" font-size="10.00" fill="black">*</text>
<text text-anchor="start" x="401.283" y="-211.44" font-family="Arial" font-size="10.00" fill="black">0..1</text>
</g>
<!-- 17&#45;inner&#45;node -->
<!-- 10&#45;&gt;17&#45;inner&#45;node -->
<g id="edge13" class="edge"><path fill="none" stroke="black" d="M457.5,-182.649C457.5,-159.987 457.5,-131.163 457.5,-129.116L457.5,-126.937"/>
<polygon fill="none" stroke="black" points="454,-182.822 457.5,-192.822 461,-182.822 454,-182.822"/>
</g>
<!-- 11 -->
<g id="node5" class="node"><defs>
<linearGradient id="l_5" gradientUnits="userSpaceOnUse" x1="457.5" y1="-345" x2="457.5" y2="-381">
<stop offset="0" style="stop-color:#ffffbb;stop-opacity:1.;"/>
<stop offset="1" style="stop-color:#ffffee;stop-opacity:1.;"/>
</linearGradient>
</defs>
<polygon fill="url(#l_5)" stroke="black" points="496.5,-381 418.5,-381 418.5,-345 496.5,-345 496.5,-381"/>
<text text-anchor="start" x="428.5" y="-361.2" font-family="Arial" font-weight="bold" font-style="italic" font-size="11.00" fill="black"><a fill="navy" href="../reference/Equipment/Equipment.html" target="_parent">Equipment</a></text>
</g>
<!-- 30 -->
<g id="node12" class="node"><defs>
<linearGradient id="l_6" gradientUnits="userSpaceOnUse" x1="51.5" y1="-262" x2="51.5" y2="-298">
<stop offset="0" style="stop-color:#ffffbb;stop-opacity:1.;"/>
<stop offset="1" style="stop-color:#ffffee;stop-opacity:1.;"/>
</linearGradient>
</defs>
<polygon fill="url(#l_6)" stroke="black" points="103,-298 0,-298 0,-262 103,-262 103,-298"/>
<text text-anchor="start" x="10.5" y="-278.2" font-family="Arial" font-weight="bold" font-size="11.00" fill="black"><a fill="navy" href="../reference/Equipment/DryingChamber.html" target="_parent">DryingChamber</a></text>
</g>
<!-- 11&#45;&gt;30 -->
<g id="edge3" class="edge"><path fill="none" stroke="#000000" d="M406.027,-362.446C342.858,-361.672 233.105,-356.013 143.5,-329 123.707,-323.033 103.174,-312.771 86.54,-303.264"/>
<polygon fill="#000000" stroke="#000000" points="406.398,-362.449 412.429,-358.495 418.398,-362.542 412.367,-366.495 406.398,-362.449"/>
<polygon fill="#000000" stroke="#000000" points="77.7299,-298.091 88.6319,-299.274 82.0418,-300.623 86.3536,-303.154 86.3536,-303.154 86.3536,-303.154 82.0418,-300.623 84.0753,-307.035 77.7299,-298.091 77.7299,-298.091"/>
<text text-anchor="start" x="146" y="-318.5" font-family="Arial" font-size="10.00" fill="black"><a fill="navy" href="../reference/Equipment/Equipment.html#dexpi-equipment-equipment-dryingchambers" target="_parent">DryingChambers</a></text>
<text text-anchor="start" x="69.7299" y="-301.091" font-family="Arial" font-size="10.00" fill="black">*</text>
<text text-anchor="start" x="389.398" y="-363.542" font-family="Arial" font-size="10.00" fill="black">0..1</text>
</g>
<!-- 33 -->
<g id="node13" class="node"><defs>
<linearGradient id="l_7" gradientUnits="userSpaceOnUse" x1="155.5" y1="-262" x2="155.5" y2="-298">
<stop offset="0" style="stop-color:#ffffbb;stop-opacity:1.;"/>
<stop offset="1" style="stop-color:#ffffee;stop-opacity:1.;"/>
</linearGradient>
</defs>
<polygon fill="url(#l_7)" stroke="black" points="189.5,-298 121.5,-298 121.5,-262 189.5,-262 189.5,-298"/>
<text text-anchor="start" x="131.5" y="-278.2" font-family="Arial" font-weight="bold" font-size="11.00" fill="black"><a fill="navy" href="../reference/Equipment/GearBox.html" target="_parent">GearBox</a></text>
</g>
<!-- 11&#45;&gt;33 -->
<g id="edge4" class="edge"><path fill="none" stroke="#000000" d="M406.201,-356.816C366.621,-351.972 310.82,-343.294 263.5,-329 241.05,-322.218 217.118,-311.924 197.503,-302.606"/>
<polygon fill="#000000" stroke="#000000" points="406.275,-356.824 412.702,-353.553 418.193,-358.227 411.767,-361.498 406.275,-356.824"/>
<polygon fill="#000000" stroke="#000000" points="188.246,-298.129 199.207,-298.432 192.747,-300.306 197.248,-302.483 197.248,-302.483 197.248,-302.483 192.747,-300.306 195.289,-306.534 188.246,-298.129 188.246,-298.129"/>
<text text-anchor="start" x="266" y="-318.5" font-family="Arial" font-size="10.00" fill="black"><a fill="navy" href="../reference/Equipment/Equipment.html#dexpi-equipment-equipment-gearboxes" target="_parent">GearBoxes</a></text>
<text text-anchor="start" x="180.246" y="-301.129" font-family="Arial" font-size="10.00" fill="black">*</text>
<text text-anchor="start" x="389.193" y="-348.227" font-family="Arial" font-size="10.00" fill="black">0..1</text>
</g>
<!-- 36 -->
<g id="node14" class="node"><defs>
<linearGradient id="l_8" gradientUnits="userSpaceOnUse" x1="270.5" y1="-262" x2="270.5" y2="-298">
<stop offset="0" style="stop-color:#ffffbb;stop-opacity:1.;"/>
<stop offset="1" style="stop-color:#ffffee;stop-opacity:1.;"/>
</linearGradient>
</defs>
<polygon fill="url(#l_8)" stroke="black" points="333.5,-298 207.5,-298 207.5,-262 333.5,-262 333.5,-298"/>
<text text-anchor="start" x="217.5" y="-278.2" font-family="Arial" font-weight="bold" font-size="11.00" fill="black"><a fill="navy" href="../reference/Equipment/MotorAsComponent.html" target="_parent">MotorAsComponent</a></text>
</g>
<!-- 11&#45;&gt;36 -->
<g id="edge5" class="edge"><path fill="none" stroke="#000000" d="M406.67,-350.044C387.398,-344.7 365.526,-337.637 346.5,-329 331.23,-322.068 315.388,-312.498 302.145,-303.726"/>
<polygon fill="#000000" stroke="#000000" points="406.692,-350.049 413.521,-347.734 418.285,-353.147 411.456,-355.463 406.692,-350.049"/>
<polygon fill="#000000" stroke="#000000" points="293.85,-298.112 304.654,-299.99 297.991,-300.914 302.132,-303.717 302.132,-303.717 302.132,-303.717 297.991,-300.914 299.61,-307.443 293.85,-298.112 293.85,-298.112"/>
<text text-anchor="start" x="349" y="-318.5" font-family="Arial" font-size="10.00" fill="black"><a fill="navy" href="../reference/Equipment/Equipment.html#dexpi-equipment-equipment-motors" target="_parent">Motors</a></text>
<text text-anchor="start" x="285.85" y="-301.112" font-family="Arial" font-size="10.00" fill="black">*</text>
<text text-anchor="start" x="389.285" y="-343.147" font-family="Arial" font-size="10.00" fill="black">0..1</text>
</g>
<!-- 39 -->
<g id="node15" class="node"><defs>
<linearGradient id="l_9" gradientUnits="userSpaceOnUse" x1="395.5" y1="-262" x2="395.5" y2="-298">
<stop offset="0" style="stop-color:#ffffbb;stop-opacity:1.;"/>
<stop offset="1" style="stop-color:#ffffee;stop-opacity:1.;"/>
</linearGradient>
</defs>
<polygon fill="url(#l_9)" stroke="black" points="439,-298 352,-298 352,-262 439,-262 439,-298"/>
<text text-anchor="start" x="362.5" y="-278.2" font-family="Arial" font-weight="bold" font-size="11.00" fill="black"><a fill="navy" href="../reference/Equipment/SprayNozzle.html" target="_parent">SprayNozzle</a></text>
</g>
<!-- 11&#45;&gt;39 -->
<g id="edge6" class="edge"><path fill="none" stroke="#000000" d="M407.357,-346.548C399.867,-342.067 393.12,-336.33 388.5,-329 384.594,-322.802 384.151,-315.272 385.269,-308.033"/>
<polygon fill="#000000" stroke="#000000" points="407.588,-346.664 414.747,-345.802 418.297,-352.08 411.137,-352.942 407.588,-346.664"/>
<polygon fill="#000000" stroke="#000000" points="387.69,-298.16 389.678,-308.944 386.499,-303.016 385.308,-307.873 385.308,-307.873 385.308,-307.873 386.499,-303.016 380.937,-306.801 387.69,-298.16 387.69,-298.16"/>
<text text-anchor="start" x="391" y="-318.5" font-family="Arial" font-size="10.00" fill="black"><a fill="navy" href="../reference/Equipment/Equipment.html#dexpi-equipment-equipment-spraynozzles" target="_parent">SprayNozzles</a></text>
<text text-anchor="start" x="379.69" y="-301.16" font-family="Arial" font-size="10.00" fill="black">*</text>
<text text-anchor="start" x="406.297" y="-342.08" font-family="Arial" font-size="10.00" fill="black">0..1</text>
</g>
<!-- 18&#45;inner&#45;node -->
<!-- 11&#45;&gt;18&#45;inner&#45;node -->
<g id="edge15" class="edge"><path fill="none" stroke="black" d="M457.5,-334.649C457.5,-311.987 457.5,-283.163 457.5,-281.116L457.5,-278.951"/>
<polygon fill="none" stroke="black" points="454,-334.822 457.5,-344.822 461,-334.822 454,-334.822"/>
</g>
<!-- 12 -->
<g id="node6" class="node"><defs>
<linearGradient id="l_10" gradientUnits="userSpaceOnUse" x1="341.5" y1="-497" x2="341.5" y2="-533">
<stop offset="0" style="stop-color:#ffffbb;stop-opacity:1.;"/>
<stop offset="1" style="stop-color:#ffffee;stop-opacity:1.;"/>
</linearGradient>
</defs>
<polygon fill="url(#l_10)" stroke="black" points="394,-533 289,-533 289,-497 394,-497 394,-533"/>
<text text-anchor="start" x="299.5" y="-513.2" font-family="Arial" font-weight="bold" font-style="italic" font-size="11.00" fill="black"><a fill="navy" href="../reference/Equipment/ChamberOwner.html" target="_parent">ChamberOwner</a></text>
</g>
<!-- 42 -->
<g id="node16" class="node"><defs>
<linearGradient id="l_11" gradientUnits="userSpaceOnUse" x1="277.5" y1="-414" x2="277.5" y2="-450">
<stop offset="0" style="stop-color:#ffffbb;stop-opacity:1.;"/>
<stop offset="1" style="stop-color:#ffffee;stop-opacity:1.;"/>
</linearGradient>
</defs>
<polygon fill="url(#l_11)" stroke="black" points="312,-450 243,-450 243,-414 312,-414 312,-450"/>
<text text-anchor="start" x="253.5" y="-430.2" font-family="Arial" font-weight="bold" font-size="11.00" fill="black"><a fill="navy" href="../reference/Equipment/Chamber.html" target="_parent">Chamber</a></text>
</g>
<!-- 12&#45;&gt;42 -->
<g id="edge7" class="edge"><path fill="none" stroke="#000000" d="M295.598,-489.09C292.972,-486.591 290.565,-483.896 288.5,-481 284.181,-474.945 281.527,-467.461 279.905,-460.22"/>
<polygon fill="#000000" stroke="#000000" points="295.859,-489.3 303.041,-489.955 305.199,-496.835 298.017,-496.181 295.859,-489.3"/>
<polygon fill="#000000" stroke="#000000" points="278.234,-450.318 284.336,-459.43 279.066,-455.248 279.898,-460.179 279.898,-460.179 279.898,-460.179 279.066,-455.248 275.461,-460.928 278.234,-450.318 278.234,-450.318"/>
<text text-anchor="start" x="291" y="-470.5" font-family="Arial" font-size="10.00" fill="black"><a fill="navy" href="../reference/Equipment/ChamberOwner.html#dexpi-equipment-chamberowner-chambers" target="_parent">Chambers</a></text>
<text text-anchor="start" x="270.234" y="-453.318" font-family="Arial" font-size="10.00" fill="black">*</text>
<text text-anchor="start" x="276.199" y="-486.835" font-family="Arial" font-size="10.00" fill="black">0..1</text>
</g>
<!-- 19&#45;inner&#45;node -->
<!-- 12&#45;&gt;19&#45;inner&#45;node -->
<g id="edge17" class="edge"><path fill="none" stroke="black" d="M341.5,-486.649C341.5,-463.987 341.5,-435.163 341.5,-433.116L341.64,-430.884"/>
<polygon fill="none" stroke="black" points="338,-486.822 341.5,-496.822 345,-486.822 338,-486.822"/>
</g>
<!-- 13 -->
<g id="node7" class="node"><defs>
<linearGradient id="l_12" gradientUnits="userSpaceOnUse" x1="457.5" y1="-497" x2="457.5" y2="-533">
<stop offset="0" style="stop-color:#ffffbb;stop-opacity:1.;"/>
<stop offset="1" style="stop-color:#ffffee;stop-opacity:1.;"/>
</linearGradient>
</defs>
<polygon fill="url(#l_12)" stroke="black" points="502.5,-533 412.5,-533 412.5,-497 502.5,-497 502.5,-533"/>
<text text-anchor="start" x="422.5" y="-513.2" font-family="Arial" font-weight="bold" font-style="italic" font-size="11.00" fill="black"><a fill="navy" href="../reference/Equipment/NozzleOwner.html" target="_parent">NozzleOwner</a></text>
</g>
<!-- 45 -->
<g id="node17" class="node"><defs>
<linearGradient id="l_13" gradientUnits="userSpaceOnUse" x1="402.5" y1="-414" x2="402.5" y2="-450">
<stop offset="0" style="stop-color:#ffffbb;stop-opacity:1.;"/>
<stop offset="1" style="stop-color:#ffffee;stop-opacity:1.;"/>
</linearGradient>
</defs>
<polygon fill="url(#l_13)" stroke="black" points="431,-450 374,-450 374,-414 431,-414 431,-450"/>
<text text-anchor="start" x="384.5" y="-430.2" font-family="Arial" font-weight="bold" font-size="11.00" fill="black"><a fill="navy" href="../reference/Equipment/Nozzle.html" target="_parent">Nozzle</a></text>
</g>
<!-- 13&#45;&gt;45 -->
<g id="edge8" class="edge"><path fill="none" stroke="#000000" d="M419.289,-488.384C417.147,-486.056 415.185,-483.592 413.5,-481 409.447,-474.763 406.878,-467.222 405.253,-459.983"/>
<polygon fill="#000000" stroke="#000000" points="419.431,-488.515 426.552,-489.651 428.242,-496.662 421.121,-495.525 419.431,-488.515"/>
<polygon fill="#000000" stroke="#000000" points="403.528,-450.118 409.683,-459.193 404.389,-455.043 405.251,-459.969 405.251,-459.969 405.251,-459.969 404.389,-455.043 400.818,-460.744 403.528,-450.118 403.528,-450.118"/>
<text text-anchor="start" x="415.5" y="-470.5" font-family="Arial" font-size="10.00" fill="black"><a fill="navy" href="../reference/Equipment/NozzleOwner.html#dexpi-equipment-nozzleowner-nozzles" target="_parent">Nozzles</a></text>
<text text-anchor="start" x="395.528" y="-453.118" font-family="Arial" font-size="10.00" fill="black">*</text>
<text text-anchor="start" x="399.242" y="-486.662" font-family="Arial" font-size="10.00" fill="black">0..1</text>
</g>
<!-- 20&#45;inner&#45;node -->
<!-- 13&#45;&gt;20&#45;inner&#45;node -->
<g id="edge19" class="edge"><path fill="none" stroke="black" d="M457.5,-486.649C457.5,-463.987 457.5,-435.163 457.5,-433.116L457.5,-430.951"/>
<polygon fill="none" stroke="black" points="454,-486.822 457.5,-496.822 461,-486.822 454,-486.822"/>
</g>
<!-- 14 -->
<g id="node8" class="node"><defs>
<linearGradient id="l_14" gradientUnits="userSpaceOnUse" x1="575.5" y1="-497" x2="575.5" y2="-533">
<stop offset="0" style="stop-color:#ffffbb;stop-opacity:1.;"/>
<stop offset="1" style="stop-color:#ffffee;stop-opacity:1.;"/>
</linearGradient>
</defs>
<polygon fill="url(#l_14)" stroke="black" points="630,-533 521,-533 521,-497 630,-497 630,-533"/>
<text text-anchor="start" x="531.5" y="-513.2" font-family="Arial" font-weight="bold" font-style="italic" font-size="11.00" fill="black"><a fill="navy" href="../reference/Equipment/TaggedPlantItem.html" target="_parent">TaggedPlantItem</a></text>
</g>
<!-- 21&#45;inner&#45;node -->
<!-- 14&#45;&gt;21&#45;inner&#45;node -->
<g id="edge21" class="edge"><path fill="none" stroke="black" d="M575.5,-486.649C575.5,-463.987 575.5,-435.163 575.5,-433.116L575.414,-430.951"/>
<polygon fill="none" stroke="black" points="572,-486.822 575.5,-496.822 579,-486.822 572,-486.822"/>
</g>
<!-- 15 -->
<g id="node9" class="node"><defs>
<linearGradient id="l_15" gradientUnits="userSpaceOnUse" x1="471.5" y1="-663" x2="471.5" y2="-699">
<stop offset="0" style="stop-color:#ffffbb;stop-opacity:1.;"/>
<stop offset="1" style="stop-color:#ffffee;stop-opacity:1.;"/>
</linearGradient>
</defs>
<polygon fill="url(#l_15)" stroke="black" points="529,-699 414,-699 414,-663 529,-663 529,-699"/>
<text text-anchor="start" x="424.5" y="-679.2" font-family="Arial" font-weight="bold" font-style="italic" font-size="11.00" fill="black"><a fill="navy" href="../reference/DexpiModel/ConceptualObject.html" target="_parent">ConceptualObject</a></text>
</g>
<!-- 22&#45;inner&#45;node -->
<!-- 15&#45;&gt;22&#45;inner&#45;node -->
<g id="edge23" class="edge"><path fill="none" stroke="black" d="M471.5,-652.649C471.5,-629.987 471.5,-601.163 471.5,-599.116L471.538,-596.879"/>
<polygon fill="none" stroke="black" points="468,-652.822 471.5,-662.822 475,-652.822 468,-652.822"/>
</g>
<!-- 16 -->
<g id="node10" class="node"><defs>
<linearGradient id="l_16" gradientUnits="userSpaceOnUse" x1="629.5" y1="-663" x2="629.5" y2="-699">
<stop offset="0" style="stop-color:#ffffbb;stop-opacity:1.;"/>
<stop offset="1" style="stop-color:#ffffee;stop-opacity:1.;"/>
</linearGradient>
</defs>
<polygon fill="url(#l_16)" stroke="black" points="701.5,-699 557.5,-699 557.5,-663 701.5,-663 701.5,-699"/>
<text text-anchor="start" x="567.5" y="-679.2" font-family="Arial" font-weight="bold" font-style="italic" font-size="11.00" fill="black"><a fill="navy" href="../reference/Customization/CustomAttributeOwner.html" target="_parent">CustomAttributeOwner</a></text>
</g>
<!-- 57 -->
<g id="node21" class="node"><defs>
<linearGradient id="l_17" gradientUnits="userSpaceOnUse" x1="544.5" y1="-580" x2="544.5" y2="-616">
<stop offset="0" style="stop-color:#ffffbb;stop-opacity:1.;"/>
<stop offset="1" style="stop-color:#ffffee;stop-opacity:1.;"/>
</linearGradient>
</defs>
<polygon fill="url(#l_17)" stroke="black" points="599,-616 490,-616 490,-580 599,-580 599,-616"/>
<text text-anchor="start" x="500.5" y="-596.2" font-family="Arial" font-weight="bold" font-style="italic" font-size="11.00" fill="black"><a fill="navy" href="../reference/Customization/CustomAttribute.html" target="_parent">CustomAttribute</a></text>
</g>
<!-- 16&#45;&gt;57 -->
<g id="edge12" class="edge"><path fill="none" stroke="#000000" d="M552.949,-655.486C550.181,-652.933 547.67,-650.113 545.5,-647 541.402,-641.119 539.944,-633.772 539.815,-626.608"/>
<polygon fill="#000000" stroke="#000000" points="552.998,-655.523 560.196,-655.959 562.563,-662.77 555.365,-662.335 552.998,-655.523"/>
<polygon fill="#000000" stroke="#000000" points="540.425,-616.435 544.319,-626.687 540.126,-621.426 539.827,-626.417 539.827,-626.417 539.827,-626.417 540.126,-621.426 535.335,-626.148 540.425,-616.435 540.425,-616.435"/>
<text text-anchor="start" x="547.5" y="-636.5" font-family="Arial" font-size="10.00" fill="black"><a fill="navy" href="../reference/Customization/CustomAttributeOwner.html#dexpi-customization-customattributeowner-customattributes" target="_parent">CustomAttributes</a></text>
<text text-anchor="start" x="532.425" y="-619.435" font-family="Arial" font-size="10.00" fill="black">*</text>
<text text-anchor="start" x="533.563" y="-652.77" font-family="Arial" font-size="10.00" fill="black">0..1</text>
</g>
<!-- 23&#45;inner&#45;node -->
<!-- 16&#45;&gt;23&#45;inner&#45;node -->
<g id="edge25" class="edge"><path fill="none" stroke="black" d="M629.5,-652.649C629.5,-629.987 629.5,-601.163 629.5,-599.116L629.461,-596.941"/>
<polygon fill="none" stroke="black" points="626,-652.822 629.5,-662.822 633,-652.822 626,-652.822"/>
</g>
<!-- 48 -->
<g id="node18" class="node"><defs>
<linearGradient id="l_18" gradientUnits="userSpaceOnUse" x1="395.5" y1="-580" x2="395.5" y2="-616">
<stop offset="0" style="stop-color:#ffffbb;stop-opacity:1.;"/>
<stop offset="1" style="stop-color:#ffffee;stop-opacity:1.;"/>
</linearGradient>
</defs>
<polygon fill="url(#l_18)" stroke="black" points="452.5,-616 338.5,-616 338.5,-580 452.5,-580 452.5,-616"/>
<text text-anchor="start" x="348.5" y="-596.2" font-family="Arial" font-weight="bold" font-size="11.00" fill="black"><a fill="navy" href="../reference/DexpiModel/ConceptualModel.html" target="_parent">ConceptualModel</a></text>
</g>
<!-- 48&#45;&gt;14 -->
<g id="edge9" class="edge"><path fill="none" stroke="#000000" d="M400.324,-568.016C402.842,-560.86 406.673,-553.862 412.5,-549 444.518,-522.287 465.123,-539.682 510.934,-532.726"/>
<polygon fill="#000000" stroke="#000000" points="400.262,-568.253 402.602,-575.074 397.205,-579.857 394.865,-573.036 400.262,-568.253"/>
<polygon fill="#000000" stroke="#000000" points="520.773,-530.92 511.751,-537.152 515.856,-531.823 510.938,-532.726 510.938,-532.726 510.938,-532.726 515.856,-531.823 510.125,-528.3 520.773,-530.92 520.773,-530.92"/>
<text text-anchor="start" x="415" y="-553.5" font-family="Arial" font-size="10.00" fill="black"><a fill="navy" href="../reference/DexpiModel/ConceptualModel.html#dexpi-dexpimodel-conceptualmodel-taggedplantitems" target="_parent">TaggedPlantItems</a></text>
<text text-anchor="start" x="512.773" y="-533.92" font-family="Arial" font-size="10.00" fill="black">*</text>
<text text-anchor="start" x="368.205" y="-569.857" font-family="Arial" font-size="10.00" fill="black">0..1</text>
</g>
<!-- 51 -->
<g id="node19" class="node"><defs>
<linearGradient id="l_19" gradientUnits="userSpaceOnUse" x1="368.5" y1="-754.5" x2="368.5" y2="-790.5">
<stop offset="0" style="stop-color:#ffffbb;stop-opacity:1.;"/>
<stop offset="1" style="stop-color:#ffffee;stop-opacity:1.;"/>
</linearGradient>
</defs>
<polygon fill="url(#l_19)" stroke="black" points="443,-790.5 294,-790.5 294,-754.5 443,-754.5 443,-790.5"/>
<text text-anchor="start" x="304.5" y="-770.7" font-family="Arial" font-weight="bold" font-size="11.00" fill="black"><a fill="navy" href="../reference/Graphics/AttributeRepresentation.html" target="_parent">AttributeRepresentation</a></text>
</g>
<!-- 51&#45;&gt;15 -->
<g id="edge10" class="edge"><path fill="none" stroke="#000000" d="M388.359,-754.243C404.176,-740.5 426.493,-721.108 444.024,-705.875"/>
<polygon fill="#000000" stroke="#000000" points="451.702,-699.204 447.105,-709.159 447.927,-702.483 444.153,-705.763 444.153,-705.763 444.153,-705.763 447.927,-702.483 441.201,-702.366 451.702,-699.204 451.702,-699.204"/>
<text text-anchor="start" x="435" y="-719.5" font-family="Arial" font-size="10.00" fill="black"><a fill="navy" href="../reference/Graphics/AttributeRepresentation.html#dexpi-graphics-attributerepresentation-object" target="_parent">Object</a></text>
<text text-anchor="start" x="443.702" y="-702.204" font-family="Arial" font-size="10.00" fill="black"></text>
<text text-anchor="start" x="372.359" y="-744.243" font-family="Arial" font-size="10.00" fill="black">*</text>
</g>
<!-- 54 -->
<g id="node20" class="node"><defs>
<linearGradient id="l_20" gradientUnits="userSpaceOnUse" x1="529.5" y1="-754.5" x2="529.5" y2="-790.5">
<stop offset="0" style="stop-color:#ffffbb;stop-opacity:1.;"/>
<stop offset="1" style="stop-color:#ffffee;stop-opacity:1.;"/>
</linearGradient>
</defs>
<polygon fill="url(#l_20)" stroke="black" points="598,-790.5 461,-790.5 461,-754.5 598,-754.5 598,-790.5"/>
<text text-anchor="start" x="471.5" y="-770.7" font-family="Arial" font-weight="bold" font-size="11.00" fill="black"><a fill="navy" href="../reference/Graphics/RepresentationGroup.html" target="_parent">RepresentationGroup</a></text>
</g>
<!-- 54&#45;&gt;15 -->
<g id="edge11" class="edge"><path fill="none" stroke="#000000" d="M518.317,-754.243C509.812,-741.119 497.968,-722.843 488.322,-707.958"/>
<polygon fill="#000000" stroke="#000000" points="482.649,-699.204 491.863,-705.148 485.368,-703.399 488.087,-707.595 488.087,-707.595 488.087,-707.595 485.368,-703.399 484.311,-710.043 482.649,-699.204 482.649,-699.204"/>
<text text-anchor="start" x="504.5" y="-719.5" font-family="Arial" font-size="10.00" fill="black"><a fill="navy" href="../reference/Graphics/RepresentationGroup.html#dexpi-graphics-representationgroup-represents" target="_parent">Represents</a></text>
<text text-anchor="start" x="474.649" y="-702.204" font-family="Arial" font-size="10.00" fill="black"></text>
<text text-anchor="start" x="502.317" y="-744.243" font-family="Arial" font-size="10.00" fill="black">*</text>
</g>
<!-- 17&#45;inner&#45;node&#45;&gt;0 -->
<g id="edge14" class="edge"><path fill="none" stroke="black" d="M457.5,-126.937C457.5,-125.508 457.5,-100.212 457.5,-77.1951"/>
</g>
<!-- 18&#45;inner&#45;node&#45;&gt;10 -->
<g id="edge16" class="edge"><path fill="none" stroke="black" d="M457.5,-278.951C457.5,-277.604 457.5,-248.522 457.5,-229.135"/>
</g>
<!-- 19&#45;inner&#45;node&#45;&gt;11 -->
<g id="edge18" class="edge"><path fill="none" stroke="black" d="M341.64,-430.884C343.027,-429.739 354.434,-420.38 364.5,-414 383.235,-402.126 405.036,-390.306 422.819,-381.142"/>
</g>
<!-- 20&#45;inner&#45;node&#45;&gt;11 -->
<g id="edge20" class="edge"><path fill="none" stroke="black" d="M457.5,-430.951C457.5,-429.604 457.5,-400.522 457.5,-381.135"/>
</g>
<!-- 21&#45;inner&#45;node&#45;&gt;11 -->
<g id="edge22" class="edge"><path fill="none" stroke="black" d="M575.414,-430.951C573.042,-429.604 521.822,-400.522 487.677,-381.135"/>
</g>
<!-- 22&#45;inner&#45;node&#45;&gt;14 -->
<g id="edge24" class="edge"><path fill="none" stroke="black" d="M471.538,-596.879C471.92,-595.686 475.141,-585.959 480.5,-580 497.92,-560.629 522.388,-544.325 542.129,-533.02"/>
</g>
<!-- 23&#45;inner&#45;node&#45;&gt;14 -->
<g id="edge26" class="edge"><path fill="none" stroke="black" d="M629.461,-596.941C628.318,-595.226 602.391,-556.337 586.898,-533.098"/>
</g>
<!-- 24&#45;inner&#45;node&#45;&gt;14 -->
<g id="edge28" class="edge"><path fill="none" stroke="black" d="M766.362,-596.941C762.318,-595.226 670.615,-556.337 615.817,-533.098"/>
</g>
</g>
</svg>