<!DOCTYPE svg PUBLIC "-//W3C//DTD SVG 1.1//EN" "http://www.w3.org/Graphics/SVG/1.1/DTD/svg11.dtd">
<!-- Generated by graphviz version 2.38.0 (20140413.2041)
 --><!-- Title: G Pages: 1 --><svg xmlns="http://www.w3.org/2000/svg" xmlns:xlink="http://www.w3.org/1999/xlink" width="403pt" height="334pt" viewBox="0.00 0.00 402.50 334.00">
<g id="graph0" class="graph" transform="scale(1 1) rotate(0) translate(4 330)">
<!-- 0 -->
<g id="node1" class="node"><defs>
<linearGradient id="l_0" gradientUnits="userSpaceOnUse" x1="154.5" y1="-3.55271e-014" x2="154.5" y2="-77">
<stop offset="0" style="stop-color:#ffffbb;stop-opacity:1.;"/>
<stop offset="1" style="stop-color:#ffffee;stop-opacity:1.;"/>
</linearGradient>
</defs>
<polygon fill="url(#l_0)" stroke="black" points="307,-77 2,-77 2,-0 307,-0 307,-77"/>
<text text-anchor="start" x="102" y="-62.7" font-family="Arial" font-weight="bold" font-size="11.00" fill="black">MotorAsComponent</text>
<text text-anchor="start" x="12.5" y="-38.5" font-family="Arial" font-size="10.00" fill="black"><a fill="navy" href="../reference/Equipment/MotorAsComponent.html#dexpi-equipment-motorascomponent-nominalpower" target="_parent">NominalPower</a>&#160;:</text>
<text text-anchor="start" x="147.5" y="-38.5" font-family="Arial" font-size="10.00" fill="black"><a fill="navy" href="../reference/PhysicalQuantities/NullablePower.html" target="_parent">NullablePower</a>&#160;[0..1]</text>
<text text-anchor="start" x="12.5" y="-23.5" font-family="Arial" font-size="10.00" fill="black"><a fill="navy" href="../reference/Equipment/MotorAsComponent.html#dexpi-equipment-motorascomponent-nominalrotationalfrequency" target="_parent">NominalRotationalFrequency</a>&#160;:</text>
<text text-anchor="start" x="147.5" y="-23.5" font-family="Arial" font-size="10.00" fill="black"><a fill="navy" href="../reference/PhysicalQuantities/NullableRotationalFrequency.html" target="_parent">NullableRotationalFrequency</a>&#160;[0..1]</text>
<text text-anchor="start" x="12.5" y="-8.5" font-family="Arial" font-size="10.00" fill="black"><a fill="navy" href="../reference/Equipment/MotorAsComponent.html#dexpi-equipment-motorascomponent-subtagname" target="_parent">SubTagName</a>&#160;:</text>
<text text-anchor="start" x="147.5" y="-8.5" font-family="Arial" font-size="10.00" fill="black"><a fill="navy" href="../reference/DataTypes/NullableString.html" target="_parent">NullableString</a>&#160;[0..1]</text>
<polygon fill="black" stroke="black" points="307.0,-56.5 2.0,-56.5 2.0,-56.5 307.0,-56.5 307.0,-56.5"/>
</g>
<!-- 7 -->
<g id="node2" class="node"><defs>
<linearGradient id="l_1" gradientUnits="userSpaceOnUse" x1="154.5" y1="-207" x2="154.5" y2="-243">
<stop offset="0" style="stop-color:#ffffbb;stop-opacity:1.;"/>
<stop offset="1" style="stop-color:#ffffee;stop-opacity:1.;"/>
</linearGradient>
</defs>
<polygon fill="url(#l_1)" stroke="black" points="212,-243 97,-243 97,-207 212,-207 212,-243"/>
<text text-anchor="start" x="107.5" y="-223.2" font-family="Arial" font-weight="bold" font-style="italic" font-size="11.00" fill="black"><a fill="navy" href="../reference/DexpiModel/ConceptualObject.html" target="_parent">ConceptualObject</a></text>
</g>
<!-- 9&#45;inner&#45;node -->
<!-- 7&#45;&gt;9&#45;inner&#45;node -->
<g id="edge5" class="edge"><path fill="none" stroke="black" d="M154.5,-196.649C154.5,-173.987 154.5,-145.163 154.5,-143.116L154.5,-140.926"/>
<polygon fill="none" stroke="black" points="151,-196.822 154.5,-206.822 158,-196.822 151,-196.822"/>
</g>
<!-- 8 -->
<g id="node3" class="node"><defs>
<linearGradient id="l_2" gradientUnits="userSpaceOnUse" x1="322.5" y1="-207" x2="322.5" y2="-243">
<stop offset="0" style="stop-color:#ffffbb;stop-opacity:1.;"/>
<stop offset="1" style="stop-color:#ffffee;stop-opacity:1.;"/>
</linearGradient>
</defs>
<polygon fill="url(#l_2)" stroke="black" points="394.5,-243 250.5,-243 250.5,-207 394.5,-207 394.5,-243"/>
<text text-anchor="start" x="260.5" y="-223.2" font-family="Arial" font-weight="bold" font-style="italic" font-size="11.00" fill="black"><a fill="navy" href="../reference/Customization/CustomAttributeOwner.html" target="_parent">CustomAttributeOwner</a></text>
</g>
<!-- 22 -->
<g id="node7" class="node"><defs>
<linearGradient id="l_3" gradientUnits="userSpaceOnUse" x1="227.5" y1="-124" x2="227.5" y2="-160">
<stop offset="0" style="stop-color:#ffffbb;stop-opacity:1.;"/>
<stop offset="1" style="stop-color:#ffffee;stop-opacity:1.;"/>
</linearGradient>
</defs>
<polygon fill="url(#l_3)" stroke="black" points="282,-160 173,-160 173,-124 282,-124 282,-160"/>
<text text-anchor="start" x="183.5" y="-140.2" font-family="Arial" font-weight="bold" font-style="italic" font-size="11.00" fill="black"><a fill="navy" href="../reference/Customization/CustomAttribute.html" target="_parent">CustomAttribute</a></text>
</g>
<!-- 8&#45;&gt;22 -->
<g id="edge4" class="edge"><path fill="none" stroke="#000000" d="M248.566,-200.359C244.887,-197.576 241.487,-194.469 238.5,-191 233.571,-185.275 230.734,-177.784 229.132,-170.428"/>
<polygon fill="#000000" stroke="#000000" points="248.776,-200.495 255.986,-200.381 258.865,-206.992 251.655,-207.106 248.776,-200.495"/>
<polygon fill="#000000" stroke="#000000" points="227.601,-160.317 233.548,-169.53 228.35,-165.26 229.098,-170.204 229.098,-170.204 229.098,-170.204 228.35,-165.26 224.649,-170.878 227.601,-160.317 227.601,-160.317"/>
<text text-anchor="start" x="240.5" y="-180.5" font-family="Arial" font-size="10.00" fill="black"><a fill="navy" href="../reference/Customization/CustomAttributeOwner.html#dexpi-customization-customattributeowner-customattributes" target="_parent">CustomAttributes</a></text>
<text text-anchor="start" x="219.601" y="-163.317" font-family="Arial" font-size="10.00" fill="black">*</text>
<text text-anchor="start" x="229.865" y="-196.992" font-family="Arial" font-size="10.00" fill="black">0..1</text>
</g>
<!-- 10&#45;inner&#45;node -->
<!-- 8&#45;&gt;10&#45;inner&#45;node -->
<g id="edge7" class="edge"><path fill="none" stroke="black" d="M322.5,-196.649C322.5,-173.987 322.5,-145.163 322.5,-143.116L322.378,-140.926"/>
<polygon fill="none" stroke="black" points="319,-196.822 322.5,-206.822 326,-196.822 319,-196.822"/>
</g>
<!-- 13 -->
<g id="node4" class="node"><defs>
<linearGradient id="l_4" gradientUnits="userSpaceOnUse" x1="96.5" y1="-124" x2="96.5" y2="-160">
<stop offset="0" style="stop-color:#ffffbb;stop-opacity:1.;"/>
<stop offset="1" style="stop-color:#ffffee;stop-opacity:1.;"/>
</linearGradient>
</defs>
<polygon fill="url(#l_4)" stroke="black" points="135.5,-160 57.5,-160 57.5,-124 135.5,-124 135.5,-160"/>
<text text-anchor="start" x="67.5" y="-140.2" font-family="Arial" font-weight="bold" font-style="italic" font-size="11.00" fill="black"><a fill="navy" href="../reference/Equipment/Equipment.html" target="_parent">Equipment</a></text>
</g>
<!-- 13&#45;&gt;0 -->
<g id="edge1" class="edge"><path fill="none" stroke="#000000" d="M106.443,-112.408C109.086,-105.884 112.149,-99.0842 115.5,-93 116.878,-90.4987 118.355,-87.979 119.9,-85.4681"/>
<polygon fill="#000000" stroke="#000000" points="106.437,-112.424 108.041,-119.455 102.169,-123.64 100.564,-116.61 106.437,-112.424"/>
<polygon fill="#000000" stroke="#000000" points="125.366,-77.0041 123.721,-87.8458 122.654,-81.2043 119.941,-85.4045 119.941,-85.4045 119.941,-85.4045 122.654,-81.2043 116.161,-82.9631 125.366,-77.0041 125.366,-77.0041"/>
<text text-anchor="start" x="118" y="-97.5" font-family="Arial" font-size="10.00" fill="black"><a fill="navy" href="../reference/Equipment/Equipment.html#dexpi-equipment-equipment-motors" target="_parent">Motors</a></text>
<text text-anchor="start" x="117.366" y="-80.0041" font-family="Arial" font-size="10.00" fill="black">*</text>
<text text-anchor="start" x="73.169" y="-113.64" font-family="Arial" font-size="10.00" fill="black">0..1</text>
</g>
<!-- 16 -->
<g id="node5" class="node"><defs>
<linearGradient id="l_5" gradientUnits="userSpaceOnUse" x1="74.5" y1="-290" x2="74.5" y2="-326">
<stop offset="0" style="stop-color:#ffffbb;stop-opacity:1.;"/>
<stop offset="1" style="stop-color:#ffffee;stop-opacity:1.;"/>
</linearGradient>
</defs>
<polygon fill="url(#l_5)" stroke="black" points="149,-326 0,-326 0,-290 149,-290 149,-326"/>
<text text-anchor="start" x="10.5" y="-306.2" font-family="Arial" font-weight="bold" font-size="11.00" fill="black"><a fill="navy" href="../reference/Graphics/AttributeRepresentation.html" target="_parent">AttributeRepresentation</a></text>
</g>
<!-- 16&#45;&gt;7 -->
<g id="edge2" class="edge"><path fill="none" stroke="#000000" d="M91.4659,-289.822C102.815,-278.331 117.916,-263.041 130.493,-250.307"/>
<polygon fill="#000000" stroke="#000000" points="137.559,-243.153 133.733,-253.43 134.045,-246.711 130.531,-250.268 130.531,-250.268 130.531,-250.268 134.045,-246.711 127.33,-247.106 137.559,-243.153 137.559,-243.153"/>
<text text-anchor="start" x="125" y="-263.5" font-family="Arial" font-size="10.00" fill="black"><a fill="navy" href="../reference/Graphics/AttributeRepresentation.html#dexpi-graphics-attributerepresentation-object" target="_parent">Object</a></text>
<text text-anchor="start" x="129.559" y="-246.153" font-family="Arial" font-size="10.00" fill="black"></text>
<text text-anchor="start" x="75.4659" y="-279.822" font-family="Arial" font-size="10.00" fill="black">*</text>
</g>
<!-- 19 -->
<g id="node6" class="node"><defs>
<linearGradient id="l_6" gradientUnits="userSpaceOnUse" x1="235.5" y1="-290" x2="235.5" y2="-326">
<stop offset="0" style="stop-color:#ffffbb;stop-opacity:1.;"/>
<stop offset="1" style="stop-color:#ffffee;stop-opacity:1.;"/>
</linearGradient>
</defs>
<polygon fill="url(#l_6)" stroke="black" points="304,-326 167,-326 167,-290 304,-290 304,-326"/>
<text text-anchor="start" x="177.5" y="-306.2" font-family="Arial" font-weight="bold" font-size="11.00" fill="black"><a fill="navy" href="../reference/Graphics/RepresentationGroup.html" target="_parent">RepresentationGroup</a></text>
</g>
<!-- 19&#45;&gt;7 -->
<g id="edge3" class="edge"><path fill="none" stroke="#000000" d="M218.322,-289.822C206.831,-278.331 191.541,-263.041 178.807,-250.307"/>
<polygon fill="#000000" stroke="#000000" points="171.653,-243.153 181.906,-247.042 175.189,-246.689 178.724,-250.224 178.724,-250.224 178.724,-250.224 175.189,-246.689 175.542,-253.406 171.653,-243.153 171.653,-243.153"/>
<text text-anchor="start" x="204.5" y="-263.5" font-family="Arial" font-size="10.00" fill="black"><a fill="navy" href="../reference/Graphics/RepresentationGroup.html#dexpi-graphics-representationgroup-represents" target="_parent">Represents</a></text>
<text text-anchor="start" x="163.653" y="-246.153" font-family="Arial" font-size="10.00" fill="black"></text>
<text text-anchor="start" x="202.322" y="-279.822" font-family="Arial" font-size="10.00" fill="black">*</text>
</g>
<!-- 9&#45;inner&#45;node&#45;&gt;0 -->
<g id="edge6" class="edge"><path fill="none" stroke="black" d="M154.5,-140.926C154.5,-139.144 154.5,-105.3 154.5,-77.1912"/>
</g>
<!-- 10&#45;inner&#45;node&#45;&gt;0 -->
<g id="edge8" class="edge"><path fill="none" stroke="black" d="M322.378,-140.926C319.427,-139.144 263.41,-105.3 216.885,-77.1912"/>
</g>
</g>
</svg>