<!DOCTYPE svg PUBLIC "-//W3C//DTD SVG 1.1//EN" "http://www.w3.org/Graphics/SVG/1.1/DTD/svg11.dtd">
<!-- Generated by graphviz version 2.38.0 (20140413.2041)
 --><!-- Title: G Pages: 1 --><svg xmlns="http://www.w3.org/2000/svg" xmlns:xlink="http://www.w3.org/1999/xlink" width="104pt" height="151pt" viewBox="0.00 0.00 104.00 151.00">
<g id="graph0" class="graph" transform="scale(1 1) rotate(0) translate(4 147)">
<!-- 0 -->
<g id="node1" class="node"><defs>
<linearGradient id="l_0" gradientUnits="userSpaceOnUse" x1="48" y1="-1.77636e-014" x2="48" y2="-39">
<stop offset="0" style="stop-color:#ffffbb;stop-opacity:1.;"/>
<stop offset="1" style="stop-color:#ffffee;stop-opacity:1.;"/>
</linearGradient>
</defs>
<polygon fill="url(#l_0)" stroke="black" points="90,-39 6,-39 6,-0 90,-0 90,-39"/>
<text text-anchor="start" x="16" y="-24.5" font-family="Arial" font-size="10.00" fill="black">&lt;&lt;dataType&gt;&gt;</text>
<text text-anchor="start" x="21" y="-9.7" font-family="Arial" font-weight="bold" font-size="11.00" fill="black">NullString</text>
</g>
<!-- 1 -->
<g id="node2" class="node"><defs>
<linearGradient id="l_1" gradientUnits="userSpaceOnUse" x1="48" y1="-104" x2="48" y2="-143">
<stop offset="0" style="stop-color:#ffffbb;stop-opacity:1.;"/>
<stop offset="1" style="stop-color:#ffffee;stop-opacity:1.;"/>
</linearGradient>
</defs>
<polygon fill="url(#l_1)" stroke="black" points="96,-143 0,-143 0,-104 96,-104 96,-143"/>
<text text-anchor="start" x="16" y="-128.5" font-family="Arial" font-size="10.00" fill="black">&lt;&lt;dataType&gt;&gt;</text>
<text text-anchor="start" x="10" y="-113.7" font-family="Arial" font-weight="bold" font-style="italic" font-size="11.00" fill="black"><a fill="navy" href="../reference/DataTypes/NullableString.html" target="_parent">NullableString</a></text>
</g>
<!-- 2&#45;inner&#45;node -->
<!-- 1&#45;&gt;2&#45;inner&#45;node -->
<g id="edge1" class="edge"><path fill="none" stroke="black" d="M48,-93.9195C48,-82.9589 48,-72.8503 48,-72.0508L48,-70.8551"/>
<polygon fill="none" stroke="black" points="44.5001,-93.9824 48,-103.982 51.5001,-93.9825 44.5001,-93.9824"/>
</g>
<!-- 2&#45;inner&#45;node&#45;&gt;0 -->
<g id="edge2" class="edge"><path fill="none" stroke="black" d="M48,-70.8551C48,-69.1543 48,-52.8033 48,-39.1877"/>
</g>
</g>
</svg>