<!DOCTYPE svg PUBLIC "-//W3C//DTD SVG 1.1//EN" "http://www.w3.org/Graphics/SVG/1.1/DTD/svg11.dtd">
<!-- Generated by graphviz version 2.38.0 (20140413.2041)
 --><!-- Title: G Pages: 1 --><svg xmlns="http://www.w3.org/2000/svg" xmlns:xlink="http://www.w3.org/1999/xlink" width="176pt" height="255pt" viewBox="0.00 0.00 176.00 255.00">
<g id="graph0" class="graph" transform="scale(1 1) rotate(0) translate(4 251)">
<!-- 0 -->
<g id="node1" class="node"><defs>
<linearGradient id="l_0" gradientUnits="userSpaceOnUse" x1="84" y1="-1.77636e-014" x2="84" y2="-39">
<stop offset="0" style="stop-color:#ffffbb;stop-opacity:1.;"/>
<stop offset="1" style="stop-color:#ffffee;stop-opacity:1.;"/>
</linearGradient>
</defs>
<polygon fill="url(#l_0)" stroke="black" points="157.5,-39 10.5,-39 10.5,-0 157.5,-0 157.5,-39"/>
<text text-anchor="start" x="52.5" y="-24.5" font-family="Arial" font-size="10.00" fill="black">&lt;&lt;dataType&gt;&gt;</text>
<text text-anchor="start" x="21" y="-9.7" font-family="Arial" font-weight="bold" font-size="11.00" fill="black">NullElectricalFrequency</text>
</g>
<!-- 1 -->
<g id="node2" class="node"><defs>
<linearGradient id="l_1" gradientUnits="userSpaceOnUse" x1="84" y1="-104" x2="84" y2="-143">
<stop offset="0" style="stop-color:#ffffbb;stop-opacity:1.;"/>
<stop offset="1" style="stop-color:#ffffee;stop-opacity:1.;"/>
</linearGradient>
</defs>
<polygon fill="url(#l_1)" stroke="black" points="168,-143 0,-143 0,-104 168,-104 168,-143"/>
<text text-anchor="start" x="52" y="-128.5" font-family="Arial" font-size="10.00" fill="black">&lt;&lt;dataType&gt;&gt;</text>
<text text-anchor="start" x="10" y="-113.7" font-family="Arial" font-weight="bold" font-style="italic" font-size="11.00" fill="black"><a fill="navy" href="../reference/PhysicalQuantities/NullableElectricalFrequency.html" target="_parent">NullableElectricalFrequency</a></text>
</g>
<!-- 3&#45;inner&#45;node -->
<!-- 1&#45;&gt;3&#45;inner&#45;node -->
<g id="edge1" class="edge"><path fill="none" stroke="black" d="M84,-93.9195C84,-82.9589 84,-72.8503 84,-72.0508L84,-70.8551"/>
<polygon fill="none" stroke="black" points="80.5001,-93.9824 84,-103.982 87.5001,-93.9825 80.5001,-93.9824"/>
</g>
<!-- 2 -->
<g id="node3" class="node"><defs>
<linearGradient id="l_2" gradientUnits="userSpaceOnUse" x1="84" y1="-208" x2="84" y2="-247">
<stop offset="0" style="stop-color:#ffffbb;stop-opacity:1.;"/>
<stop offset="1" style="stop-color:#ffffee;stop-opacity:1.;"/>
</linearGradient>
</defs>
<polygon fill="url(#l_2)" stroke="black" points="143.5,-247 24.5,-247 24.5,-208 143.5,-208 143.5,-247"/>
<text text-anchor="start" x="52.5" y="-232.5" font-family="Arial" font-size="10.00" fill="black">&lt;&lt;dataType&gt;&gt;</text>
<text text-anchor="start" x="35" y="-217.7" font-family="Arial" font-weight="bold" font-style="italic" font-size="11.00" fill="black"><a fill="navy" href="../reference/PhysicalQuantities/NullableFrequency.html" target="_parent">NullableFrequency</a></text>
</g>
<!-- 4&#45;inner&#45;node -->
<!-- 2&#45;&gt;4&#45;inner&#45;node -->
<g id="edge3" class="edge"><path fill="none" stroke="black" d="M84,-197.92C84,-186.959 84,-176.85 84,-176.051L84,-174.855"/>
<polygon fill="none" stroke="black" points="80.5001,-197.982 84,-207.982 87.5001,-197.982 80.5001,-197.982"/>
</g>
<!-- 3&#45;inner&#45;node&#45;&gt;0 -->
<g id="edge2" class="edge"><path fill="none" stroke="black" d="M84,-70.8551C84,-69.1543 84,-52.8033 84,-39.1877"/>
</g>
<!-- 4&#45;inner&#45;node&#45;&gt;1 -->
<g id="edge4" class="edge"><path fill="none" stroke="black" d="M84,-174.855C84,-173.154 84,-156.803 84,-143.188"/>
</g>
</g>
</svg>