<!DOCTYPE svg PUBLIC "-//W3C//DTD SVG 1.1//EN" "http://www.w3.org/Graphics/SVG/1.1/DTD/svg11.dtd">
<!-- Generated by graphviz version 2.38.0 (20140413.2041)
 --><!-- Title: G Pages: 1 --><svg xmlns="http://www.w3.org/2000/svg" xmlns:xlink="http://www.w3.org/1999/xlink" width="153pt" height="255pt" viewBox="0.00 0.00 153.00 255.00">
<g id="graph0" class="graph" transform="scale(1 1) rotate(0) translate(4 251)">
<!-- 0 -->
<g id="node1" class="node"><defs>
<linearGradient id="l_0" gradientUnits="userSpaceOnUse" x1="72.5" y1="-1.77636e-014" x2="72.5" y2="-39">
<stop offset="0" style="stop-color:#ffffbb;stop-opacity:1.;"/>
<stop offset="1" style="stop-color:#ffffee;stop-opacity:1.;"/>
</linearGradient>
</defs>
<polygon fill="url(#l_0)" stroke="black" points="135.5,-39 9.5,-39 9.5,-0 135.5,-0 135.5,-39"/>
<text text-anchor="start" x="40.5" y="-24.5" font-family="Arial" font-size="10.00" fill="black">&lt;&lt;dataType&gt;&gt;</text>
<text text-anchor="start" x="19.5" y="-9.7" font-family="Arial" font-weight="bold" font-size="11.00" fill="black">NullPressureGauge</text>
</g>
<!-- 1 -->
<g id="node2" class="node"><defs>
<linearGradient id="l_1" gradientUnits="userSpaceOnUse" x1="72.5" y1="-104" x2="72.5" y2="-143">
<stop offset="0" style="stop-color:#ffffbb;stop-opacity:1.;"/>
<stop offset="1" style="stop-color:#ffffee;stop-opacity:1.;"/>
</linearGradient>
</defs>
<polygon fill="url(#l_1)" stroke="black" points="145,-143 0,-143 0,-104 145,-104 145,-143"/>
<text text-anchor="start" x="41" y="-128.5" font-family="Arial" font-size="10.00" fill="black">&lt;&lt;dataType&gt;&gt;</text>
<text text-anchor="start" x="10.5" y="-113.7" font-family="Arial" font-weight="bold" font-style="italic" font-size="11.00" fill="black"><a fill="navy" href="../reference/PhysicalQuantities/NullablePressureGauge.html" target="_parent">NullablePressureGauge</a></text>
</g>
<!-- 3&#45;inner&#45;node -->
<!-- 1&#45;&gt;3&#45;inner&#45;node -->
<g id="edge1" class="edge"><path fill="none" stroke="black" d="M72.5,-93.9195C72.5,-82.9589 72.5,-72.8503 72.5,-72.0508L72.5,-70.8551"/>
<polygon fill="none" stroke="black" points="69.0001,-93.9824 72.5,-103.982 76.0001,-93.9825 69.0001,-93.9824"/>
</g>
<!-- 2 -->
<g id="node3" class="node"><defs>
<linearGradient id="l_2" gradientUnits="userSpaceOnUse" x1="72.5" y1="-208" x2="72.5" y2="-247">
<stop offset="0" style="stop-color:#ffffbb;stop-opacity:1.;"/>
<stop offset="1" style="stop-color:#ffffee;stop-opacity:1.;"/>
</linearGradient>
</defs>
<polygon fill="url(#l_2)" stroke="black" points="128,-247 17,-247 17,-208 128,-208 128,-247"/>
<text text-anchor="start" x="41" y="-232.5" font-family="Arial" font-size="10.00" fill="black">&lt;&lt;dataType&gt;&gt;</text>
<text text-anchor="start" x="27.5" y="-217.7" font-family="Arial" font-weight="bold" font-style="italic" font-size="11.00" fill="black"><a fill="navy" href="../reference/PhysicalQuantities/NullablePressure.html" target="_parent">NullablePressure</a></text>
</g>
<!-- 4&#45;inner&#45;node -->
<!-- 2&#45;&gt;4&#45;inner&#45;node -->
<g id="edge3" class="edge"><path fill="none" stroke="black" d="M72.5,-197.92C72.5,-186.959 72.5,-176.85 72.5,-176.051L72.5,-174.855"/>
<polygon fill="none" stroke="black" points="69.0001,-197.982 72.5,-207.982 76.0001,-197.982 69.0001,-197.982"/>
</g>
<!-- 3&#45;inner&#45;node&#45;&gt;0 -->
<g id="edge2" class="edge"><path fill="none" stroke="black" d="M72.5,-70.8551C72.5,-69.1543 72.5,-52.8033 72.5,-39.1877"/>
</g>
<!-- 4&#45;inner&#45;node&#45;&gt;1 -->
<g id="edge4" class="edge"><path fill="none" stroke="black" d="M72.5,-174.855C72.5,-173.154 72.5,-156.803 72.5,-143.188"/>
</g>
</g>
</svg>