<!DOCTYPE svg PUBLIC "-//W3C//DTD SVG 1.1//EN" "http://www.w3.org/Graphics/SVG/1.1/DTD/svg11.dtd">
<!-- Generated by graphviz version 2.38.0 (20140413.2041)
 --><!-- Title: G Pages: 1 --><svg xmlns="http://www.w3.org/2000/svg" xmlns:xlink="http://www.w3.org/1999/xlink" width="131pt" height="151pt" viewBox="0.00 0.00 131.00 151.00">
<g id="graph0" class="graph" transform="scale(1 1) rotate(0) translate(4 147)">
<!-- 0 -->
<g id="node1" class="node"><defs>
<linearGradient id="l_0" gradientUnits="userSpaceOnUse" x1="61.5" y1="-1.77636e-014" x2="61.5" y2="-39">
<stop offset="0" style="stop-color:#ffffbb;stop-opacity:1.;"/>
<stop offset="1" style="stop-color:#ffffee;stop-opacity:1.;"/>
</linearGradient>
</defs>
<polygon fill="url(#l_0)" stroke="black" points="113,-39 10,-39 10,-0 113,-0 113,-39"/>
<text text-anchor="start" x="30" y="-24.5" font-family="Arial" font-size="10.00" fill="black">&lt;&lt;dataType&gt;&gt;</text>
<text text-anchor="start" x="20.5" y="-9.7" font-family="Arial" font-weight="bold" font-size="11.00" fill="black">NullPercentage</text>
</g>
<!-- 1 -->
<g id="node2" class="node"><defs>
<linearGradient id="l_1" gradientUnits="userSpaceOnUse" x1="61.5" y1="-104" x2="61.5" y2="-143">
<stop offset="0" style="stop-color:#ffffbb;stop-opacity:1.;"/>
<stop offset="1" style="stop-color:#ffffee;stop-opacity:1.;"/>
</linearGradient>
</defs>
<polygon fill="url(#l_1)" stroke="black" points="123,-143 0,-143 0,-104 123,-104 123,-143"/>
<text text-anchor="start" x="30" y="-128.5" font-family="Arial" font-size="10.00" fill="black">&lt;&lt;dataType&gt;&gt;</text>
<text text-anchor="start" x="10.5" y="-113.7" font-family="Arial" font-weight="bold" font-style="italic" font-size="11.00" fill="black"><a fill="navy" href="../reference/PhysicalQuantities/NullablePercentage.html" target="_parent">NullablePercentage</a></text>
</g>
<!-- 2&#45;inner&#45;node -->
<!-- 1&#45;&gt;2&#45;inner&#45;node -->
<g id="edge1" class="edge"><path fill="none" stroke="black" d="M61.5,-93.9195C61.5,-82.9589 61.5,-72.8503 61.5,-72.0508L61.5,-70.8551"/>
<polygon fill="none" stroke="black" points="58.0001,-93.9824 61.5,-103.982 65.0001,-93.9825 58.0001,-93.9824"/>
</g>
<!-- 2&#45;inner&#45;node&#45;&gt;0 -->
<g id="edge2" class="edge"><path fill="none" stroke="black" d="M61.5,-70.8551C61.5,-69.1543 61.5,-52.8033 61.5,-39.1877"/>
</g>
</g>
</svg>