<!DOCTYPE svg PUBLIC "-//W3C//DTD SVG 1.1//EN" "http://www.w3.org/Graphics/SVG/1.1/DTD/svg11.dtd">
<!-- Generated by graphviz version 2.38.0 (20140413.2041)
 --><!-- Title: G Pages: 1 --><svg xmlns="http://www.w3.org/2000/svg" xmlns:xlink="http://www.w3.org/1999/xlink" width="166pt" height="151pt" viewBox="0.00 0.00 166.00 151.00">
<g id="graph0" class="graph" transform="scale(1 1) rotate(0) translate(4 147)">
<!-- 0 -->
<g id="node1" class="node"><defs>
<linearGradient id="l_0" gradientUnits="userSpaceOnUse" x1="79" y1="-1.77636e-014" x2="79" y2="-39">
<stop offset="0" style="stop-color:#ffffbb;stop-opacity:1.;"/>
<stop offset="1" style="stop-color:#ffffee;stop-opacity:1.;"/>
</linearGradient>
</defs>
<polygon fill="url(#l_0)" stroke="black" points="158,-39 0,-39 0,-0 158,-0 158,-39"/>
<text text-anchor="start" x="47" y="-24.5" font-family="Arial" font-size="10.00" fill="black">&lt;&lt;dataType&gt;&gt;</text>
<text text-anchor="start" x="10" y="-9.7" font-family="Arial" font-weight="bold" font-style="italic" font-size="11.00" fill="black">NullablePressureAbsolute</text>
</g>
<!-- 1 -->
<g id="node2" class="node"><defs>
<linearGradient id="l_1" gradientUnits="userSpaceOnUse" x1="79" y1="-104" x2="79" y2="-143">
<stop offset="0" style="stop-color:#ffffbb;stop-opacity:1.;"/>
<stop offset="1" style="stop-color:#ffffee;stop-opacity:1.;"/>
</linearGradient>
</defs>
<polygon fill="url(#l_1)" stroke="black" points="134.5,-143 23.5,-143 23.5,-104 134.5,-104 134.5,-143"/>
<text text-anchor="start" x="47.5" y="-128.5" font-family="Arial" font-size="10.00" fill="black">&lt;&lt;dataType&gt;&gt;</text>
<text text-anchor="start" x="34" y="-113.7" font-family="Arial" font-weight="bold" font-style="italic" font-size="11.00" fill="black"><a fill="navy" href="../reference/PhysicalQuantities/NullablePressure.html" target="_parent">NullablePressure</a></text>
</g>
<!-- 2&#45;inner&#45;node -->
<!-- 1&#45;&gt;2&#45;inner&#45;node -->
<g id="edge1" class="edge"><path fill="none" stroke="black" d="M79,-93.9195C79,-82.9589 79,-72.8503 79,-72.0508L79,-70.8551"/>
<polygon fill="none" stroke="black" points="75.5001,-93.9824 79,-103.982 82.5001,-93.9825 75.5001,-93.9824"/>
</g>
<!-- 2&#45;inner&#45;node&#45;&gt;0 -->
<g id="edge2" class="edge"><path fill="none" stroke="black" d="M79,-70.8551C79,-69.1543 79,-52.8033 79,-39.1877"/>
</g>
</g>
</svg>