<!DOCTYPE svg PUBLIC "-//W3C//DTD SVG 1.1//EN" "http://www.w3.org/Graphics/SVG/1.1/DTD/svg11.dtd">
<!-- Generated by graphviz version 2.38.0 (20140413.2041)
 --><!-- Title: G Pages: 1 --><svg xmlns="http://www.w3.org/2000/svg" xmlns:xlink="http://www.w3.org/1999/xlink" width="153pt" height="151pt" viewBox="0.00 0.00 153.00 151.00">
<g id="graph0" class="graph" transform="scale(1 1) rotate(0) translate(4 147)">
<!-- 0 -->
<g id="node1" class="node"><defs>
<linearGradient id="l_0" gradientUnits="userSpaceOnUse" x1="72.5" y1="-1.77636e-014" x2="72.5" y2="-39">
<stop offset="0" style="stop-color:#ffffbb;stop-opacity:1.;"/>
<stop offset="1" style="stop-color:#ffffee;stop-opacity:1.;"/>
</linearGradient>
</defs>
<polygon fill="url(#l_0)" stroke="black" points="145,-39 0,-39 0,-0 145,-0 145,-39"/>
<text text-anchor="start" x="41" y="-24.5" font-family="Arial" font-size="10.00" fill="black">&lt;&lt;dataType&gt;&gt;</text>
<text text-anchor="start" x="10.5" y="-9.7" font-family="Arial" font-weight="bold" font-style="italic" font-size="11.00" fill="black">NullablePressureGauge</text>
</g>
<!-- 1 -->
<g id="node2" class="node"><defs>
<linearGradient id="l_1" gradientUnits="userSpaceOnUse" x1="72.5" y1="-104" x2="72.5" y2="-143">
<stop offset="0" style="stop-color:#ffffbb;stop-opacity:1.;"/>
<stop offset="1" style="stop-color:#ffffee;stop-opacity:1.;"/>
</linearGradient>
</defs>
<polygon fill="url(#l_1)" stroke="black" points="128,-143 17,-143 17,-104 128,-104 128,-143"/>
<text text-anchor="start" x="41" y="-128.5" font-family="Arial" font-size="10.00" fill="black">&lt;&lt;dataType&gt;&gt;</text>
<text text-anchor="start" x="27.5" y="-113.7" font-family="Arial" font-weight="bold" font-style="italic" font-size="11.00" fill="black"><a fill="navy" href="../reference/PhysicalQuantities/NullablePressure.html" target="_parent">NullablePressure</a></text>
</g>
<!-- 2&#45;inner&#45;node -->
<!-- 1&#45;&gt;2&#45;inner&#45;node -->
<g id="edge1" class="edge"><path fill="none" stroke="black" d="M72.5,-93.9195C72.5,-82.9589 72.5,-72.8503 72.5,-72.0508L72.5,-70.8551"/>
<polygon fill="none" stroke="black" points="69.0001,-93.9824 72.5,-103.982 76.0001,-93.9825 69.0001,-93.9824"/>
</g>
<!-- 2&#45;inner&#45;node&#45;&gt;0 -->
<g id="edge2" class="edge"><path fill="none" stroke="black" d="M72.5,-70.8551C72.5,-69.1543 72.5,-52.8033 72.5,-39.1877"/>
</g>
</g>
</svg>