<!DOCTYPE svg PUBLIC "-//W3C//DTD SVG 1.1//EN" "http://www.w3.org/Graphics/SVG/1.1/DTD/svg11.dtd">
<!-- Generated by graphviz version 2.38.0 (20140413.2041)
 --><!-- Title: G Pages: 1 --><svg xmlns="http://www.w3.org/2000/svg" xmlns:xlink="http://www.w3.org/1999/xlink" width="197pt" height="293pt" viewBox="0.00 0.00 197.00 293.00">
<g id="graph0" class="graph" transform="scale(1 1) rotate(0) translate(4 289)">
<!-- 0 -->
<g id="node1" class="node"><defs>
<linearGradient id="l_0" gradientUnits="userSpaceOnUse" x1="94.5" y1="-3.55271e-014" x2="94.5" y2="-77">
<stop offset="0" style="stop-color:#ffffbb;stop-opacity:1.;"/>
<stop offset="1" style="stop-color:#ffffee;stop-opacity:1.;"/>
</linearGradient>
</defs>
<polygon fill="url(#l_0)" stroke="black" points="182.5,-77 6.5,-77 6.5,-0 182.5,-0 182.5,-77"/>
<text text-anchor="start" x="62.5" y="-62.5" font-family="Arial" font-size="10.00" fill="black">&lt;&lt;dataType&gt;&gt;</text>
<text text-anchor="start" x="30.5" y="-47.7" font-family="Arial" font-weight="bold" font-size="11.00" fill="black">NumberPerTimeInterval</text>
<text text-anchor="start" x="16.5" y="-23.5" font-family="Arial" font-size="10.00" fill="black"><a fill="navy" href="../reference/PhysicalQuantities/NumberPerTimeInterval.html#dexpi-physicalquantities-numberpertimeinterval-unit" target="_parent">Unit</a>&#160;:</text>
<text text-anchor="start" x="51.5" y="-23.5" font-family="Arial" font-size="10.00" fill="black"><a fill="navy" href="../reference/PhysicalQuantities/NumberPerTimeIntervalUnit.html" target="_parent">NumberPerTimeIntervalUnit</a>&#160;</text>
<text text-anchor="start" x="16.5" y="-8.5" font-family="Arial" font-size="10.00" fill="black"><a fill="navy" href="../reference/PhysicalQuantities/NumberPerTimeInterval.html#dexpi-physicalquantities-numberpertimeinterval-value" target="_parent">Value</a>&#160;:</text>
<text text-anchor="start" x="51.5" y="-8.5" font-family="Arial" font-size="10.00" fill="black"><a fill="navy" href="../reference/DataTypes/Double.html" target="_parent">Double</a>&#160;</text>
<polygon fill="black" stroke="black" points="182.5,-41.5 6.5,-41.5 6.5,-41.5 182.5,-41.5 182.5,-41.5"/>
</g>
<!-- 5 -->
<g id="node2" class="node"><defs>
<linearGradient id="l_1" gradientUnits="userSpaceOnUse" x1="94.5" y1="-142" x2="94.5" y2="-181">
<stop offset="0" style="stop-color:#ffffbb;stop-opacity:1.;"/>
<stop offset="1" style="stop-color:#ffffee;stop-opacity:1.;"/>
</linearGradient>
</defs>
<polygon fill="url(#l_1)" stroke="black" points="189,-181 0,-181 0,-142 189,-142 189,-181"/>
<text text-anchor="start" x="63" y="-166.5" font-family="Arial" font-size="10.00" fill="black">&lt;&lt;dataType&gt;&gt;</text>
<text text-anchor="start" x="10.5" y="-151.7" font-family="Arial" font-weight="bold" font-style="italic" font-size="11.00" fill="black"><a fill="navy" href="../reference/PhysicalQuantities/NullableNumberPerTimeInterval.html" target="_parent">NullableNumberPerTimeInterval</a></text>
</g>
<!-- 7&#45;inner&#45;node -->
<!-- 5&#45;&gt;7&#45;inner&#45;node -->
<g id="edge1" class="edge"><path fill="none" stroke="black" d="M94.5,-131.92C94.5,-120.959 94.5,-110.85 94.5,-110.051L94.5,-108.95"/>
<polygon fill="none" stroke="black" points="91.0001,-131.982 94.5,-141.982 98.0001,-131.982 91.0001,-131.982"/>
</g>
<!-- 6 -->
<g id="node3" class="node"><defs>
<linearGradient id="l_2" gradientUnits="userSpaceOnUse" x1="94.5" y1="-246" x2="94.5" y2="-285">
<stop offset="0" style="stop-color:#ffffbb;stop-opacity:1.;"/>
<stop offset="1" style="stop-color:#ffffee;stop-opacity:1.;"/>
</linearGradient>
</defs>
<polygon fill="url(#l_2)" stroke="black" points="154,-285 35,-285 35,-246 154,-246 154,-285"/>
<text text-anchor="start" x="63" y="-270.5" font-family="Arial" font-size="10.00" fill="black">&lt;&lt;dataType&gt;&gt;</text>
<text text-anchor="start" x="45.5" y="-255.7" font-family="Arial" font-weight="bold" font-style="italic" font-size="11.00" fill="black"><a fill="navy" href="../reference/PhysicalQuantities/NullableFrequency.html" target="_parent">NullableFrequency</a></text>
</g>
<!-- 8&#45;inner&#45;node -->
<!-- 6&#45;&gt;8&#45;inner&#45;node -->
<g id="edge3" class="edge"><path fill="none" stroke="black" d="M94.5,-235.92C94.5,-224.959 94.5,-214.85 94.5,-214.051L94.5,-212.855"/>
<polygon fill="none" stroke="black" points="91.0001,-235.982 94.5,-245.982 98.0001,-235.982 91.0001,-235.982"/>
</g>
<!-- 7&#45;inner&#45;node&#45;&gt;0 -->
<g id="edge2" class="edge"><path fill="none" stroke="black" d="M94.5,-108.95C94.5,-107.971 94.5,-92.8959 94.5,-77.0406"/>
</g>
<!-- 8&#45;inner&#45;node&#45;&gt;5 -->
<g id="edge4" class="edge"><path fill="none" stroke="black" d="M94.5,-212.855C94.5,-211.154 94.5,-194.803 94.5,-181.188"/>
</g>
</g>
</svg>