<!DOCTYPE svg PUBLIC "-//W3C//DTD SVG 1.1//EN" "http://www.w3.org/Graphics/SVG/1.1/DTD/svg11.dtd">
<!-- Generated by graphviz version 2.38.0 (20140413.2041)
 --><!-- Title: G Pages: 1 --><svg xmlns="http://www.w3.org/2000/svg" xmlns:xlink="http://www.w3.org/1999/xlink" width="403pt" height="387pt" viewBox="0.00 0.00 402.50 387.00">
<g id="graph0" class="graph" transform="scale(1 1) rotate(0) translate(4 383)">
<!-- 0 -->
<g id="node1" class="node"><defs>
<linearGradient id="l_0" gradientUnits="userSpaceOnUse" x1="181.5" y1="-83" x2="181.5" y2="-130">
<stop offset="0" style="stop-color:#ffffbb;stop-opacity:1.;"/>
<stop offset="1" style="stop-color:#ffffee;stop-opacity:1.;"/>
</linearGradient>
</defs>
<polygon fill="url(#l_0)" stroke="black" points="269,-130 94,-130 94,-83 269,-83 269,-130"/>
<text text-anchor="start" x="114" y="-115.7" font-family="Arial" font-weight="bold" font-size="11.00" fill="black">OperatedValveReference</text>
<text text-anchor="start" x="104.5" y="-91.5" font-family="Arial" font-size="10.00" fill="black"><a fill="navy" href="../reference/Instrumentation/OperatedValveReference.html#dexpi-instrumentation-operatedvalvereference-subtagname" target="_parent">SubTagName</a>&#160;:</text>
<text text-anchor="start" x="173.5" y="-91.5" font-family="Arial" font-size="10.00" fill="black"><a fill="navy" href="../reference/DataTypes/NullableString.html" target="_parent">NullableString</a>&#160;[0..1]</text>
<polygon fill="black" stroke="black" points="269.0,-109.5 94.0,-109.5 94.0,-109.5 269.0,-109.5 269.0,-109.5"/>
</g>
<!-- 9 -->
<g id="node4" class="node"><defs>
<linearGradient id="l_1" gradientUnits="userSpaceOnUse" x1="181.5" y1="-1.77636e-014" x2="181.5" y2="-36">
<stop offset="0" style="stop-color:#ffffbb;stop-opacity:1.;"/>
<stop offset="1" style="stop-color:#ffffee;stop-opacity:1.;"/>
</linearGradient>
</defs>
<polygon fill="url(#l_1)" stroke="black" points="231.5,-36 131.5,-36 131.5,-0 231.5,-0 231.5,-36"/>
<text text-anchor="start" x="141.5" y="-16.2" font-family="Arial" font-weight="bold" font-size="11.00" fill="black"><a fill="navy" href="../reference/Piping/OperatedValve.html" target="_parent">OperatedValve</a></text>
</g>
<!-- 0&#45;&gt;9 -->
<g id="edge1" class="edge"><path fill="none" stroke="#000000" d="M181.5,-82.7731C181.5,-71.5826 181.5,-58.0057 181.5,-46.26"/>
<polygon fill="#000000" stroke="#000000" points="181.5,-36.109 186,-46.1089 181.5,-41.109 181.5,-46.109 181.5,-46.109 181.5,-46.109 181.5,-41.109 177,-46.109 181.5,-36.109 181.5,-36.109"/>
<text text-anchor="start" x="183.5" y="-56.5" font-family="Arial" font-size="10.00" fill="black"><a fill="navy" href="../reference/Instrumentation/OperatedValveReference.html#dexpi-instrumentation-operatedvalvereference-valve" target="_parent">Valve</a></text>
<text text-anchor="start" x="160.5" y="-39.109" font-family="Arial" font-size="10.00" fill="black">0..1</text>
<text text-anchor="start" x="152.5" y="-72.7731" font-family="Arial" font-size="10.00" fill="black">0..1</text>
</g>
<!-- 3 -->
<g id="node2" class="node"><defs>
<linearGradient id="l_2" gradientUnits="userSpaceOnUse" x1="154.5" y1="-260" x2="154.5" y2="-296">
<stop offset="0" style="stop-color:#ffffbb;stop-opacity:1.;"/>
<stop offset="1" style="stop-color:#ffffee;stop-opacity:1.;"/>
</linearGradient>
</defs>
<polygon fill="url(#l_2)" stroke="black" points="212,-296 97,-296 97,-260 212,-260 212,-296"/>
<text text-anchor="start" x="107.5" y="-276.2" font-family="Arial" font-weight="bold" font-style="italic" font-size="11.00" fill="black"><a fill="navy" href="../reference/DexpiModel/ConceptualObject.html" target="_parent">ConceptualObject</a></text>
</g>
<!-- 5&#45;inner&#45;node -->
<!-- 3&#45;&gt;5&#45;inner&#45;node -->
<g id="edge6" class="edge"><path fill="none" stroke="black" d="M154.5,-249.649C154.5,-226.987 154.5,-198.163 154.5,-196.116L154.523,-193.948"/>
<polygon fill="none" stroke="black" points="151,-249.822 154.5,-259.822 158,-249.822 151,-249.822"/>
</g>
<!-- 4 -->
<g id="node3" class="node"><defs>
<linearGradient id="l_3" gradientUnits="userSpaceOnUse" x1="322.5" y1="-260" x2="322.5" y2="-296">
<stop offset="0" style="stop-color:#ffffbb;stop-opacity:1.;"/>
<stop offset="1" style="stop-color:#ffffee;stop-opacity:1.;"/>
</linearGradient>
</defs>
<polygon fill="url(#l_3)" stroke="black" points="394.5,-296 250.5,-296 250.5,-260 394.5,-260 394.5,-296"/>
<text text-anchor="start" x="260.5" y="-276.2" font-family="Arial" font-weight="bold" font-style="italic" font-size="11.00" fill="black"><a fill="navy" href="../reference/Customization/CustomAttributeOwner.html" target="_parent">CustomAttributeOwner</a></text>
</g>
<!-- 21 -->
<g id="node8" class="node"><defs>
<linearGradient id="l_4" gradientUnits="userSpaceOnUse" x1="227.5" y1="-177" x2="227.5" y2="-213">
<stop offset="0" style="stop-color:#ffffbb;stop-opacity:1.;"/>
<stop offset="1" style="stop-color:#ffffee;stop-opacity:1.;"/>
</linearGradient>
</defs>
<polygon fill="url(#l_4)" stroke="black" points="282,-213 173,-213 173,-177 282,-177 282,-213"/>
<text text-anchor="start" x="183.5" y="-193.2" font-family="Arial" font-weight="bold" font-style="italic" font-size="11.00" fill="black"><a fill="navy" href="../reference/Customization/CustomAttribute.html" target="_parent">CustomAttribute</a></text>
</g>
<!-- 4&#45;&gt;21 -->
<g id="edge5" class="edge"><path fill="none" stroke="#000000" d="M248.566,-253.359C244.887,-250.576 241.487,-247.469 238.5,-244 233.571,-238.275 230.734,-230.784 229.132,-223.428"/>
<polygon fill="#000000" stroke="#000000" points="248.776,-253.495 255.986,-253.381 258.865,-259.992 251.655,-260.106 248.776,-253.495"/>
<polygon fill="#000000" stroke="#000000" points="227.601,-213.317 233.548,-222.53 228.35,-218.26 229.098,-223.204 229.098,-223.204 229.098,-223.204 228.35,-218.26 224.649,-223.878 227.601,-213.317 227.601,-213.317"/>
<text text-anchor="start" x="240.5" y="-233.5" font-family="Arial" font-size="10.00" fill="black"><a fill="navy" href="../reference/Customization/CustomAttributeOwner.html#dexpi-customization-customattributeowner-customattributes" target="_parent">CustomAttributes</a></text>
<text text-anchor="start" x="219.601" y="-216.317" font-family="Arial" font-size="10.00" fill="black">*</text>
<text text-anchor="start" x="229.865" y="-249.992" font-family="Arial" font-size="10.00" fill="black">0..1</text>
</g>
<!-- 6&#45;inner&#45;node -->
<!-- 4&#45;&gt;6&#45;inner&#45;node -->
<g id="edge8" class="edge"><path fill="none" stroke="black" d="M322.5,-249.649C322.5,-226.987 322.5,-198.163 322.5,-196.116L322.398,-193.937"/>
<polygon fill="none" stroke="black" points="319,-249.822 322.5,-259.822 326,-249.822 319,-249.822"/>
</g>
<!-- 12 -->
<g id="node5" class="node"><defs>
<linearGradient id="l_5" gradientUnits="userSpaceOnUse" x1="55.5" y1="-177" x2="55.5" y2="-213">
<stop offset="0" style="stop-color:#ffffbb;stop-opacity:1.;"/>
<stop offset="1" style="stop-color:#ffffee;stop-opacity:1.;"/>
</linearGradient>
</defs>
<polygon fill="url(#l_5)" stroke="black" points="109.5,-213 1.5,-213 1.5,-177 109.5,-177 109.5,-213"/>
<text text-anchor="start" x="11.5" y="-193.2" font-family="Arial" font-weight="bold" font-size="11.00" fill="black"><a fill="navy" href="../reference/Instrumentation/ActuatingSystem.html" target="_parent">ActuatingSystem</a></text>
</g>
<!-- 12&#45;&gt;0 -->
<g id="edge2" class="edge"><path fill="none" stroke="#000000" d="M47.5386,-164.786C47.2982,-158.092 48.4972,-151.372 52.5,-146 60.7594,-134.916 72.088,-126.898 84.6267,-121.122"/>
<polygon fill="#000000" stroke="#000000" points="47.5724,-165.016 52.4043,-170.369 49.3218,-176.888 44.4898,-171.535 47.5724,-165.016"/>
<polygon fill="#000000" stroke="#000000" points="93.9441,-117.3 86.3999,-125.258 89.3181,-119.197 84.6921,-121.095 84.6921,-121.095 84.6921,-121.095 89.3181,-119.197 82.9844,-116.931 93.9441,-117.3 93.9441,-117.3"/>
<text text-anchor="start" x="55" y="-150.5" font-family="Arial" font-size="10.00" fill="black"><a fill="navy" href="../reference/Instrumentation/ActuatingSystem.html#dexpi-instrumentation-actuatingsystem-operatedvalvereference" target="_parent">OperatedValveReference</a></text>
<text text-anchor="start" x="72.9441" y="-120.3" font-family="Arial" font-size="10.00" fill="black">0..1</text>
<text text-anchor="start" x="20.3218" y="-166.888" font-family="Arial" font-size="10.00" fill="black">0..1</text>
</g>
<!-- 15 -->
<g id="node6" class="node"><defs>
<linearGradient id="l_6" gradientUnits="userSpaceOnUse" x1="74.5" y1="-343" x2="74.5" y2="-379">
<stop offset="0" style="stop-color:#ffffbb;stop-opacity:1.;"/>
<stop offset="1" style="stop-color:#ffffee;stop-opacity:1.;"/>
</linearGradient>
</defs>
<polygon fill="url(#l_6)" stroke="black" points="149,-379 0,-379 0,-343 149,-343 149,-379"/>
<text text-anchor="start" x="10.5" y="-359.2" font-family="Arial" font-weight="bold" font-size="11.00" fill="black"><a fill="navy" href="../reference/Graphics/AttributeRepresentation.html" target="_parent">AttributeRepresentation</a></text>
</g>
<!-- 15&#45;&gt;3 -->
<g id="edge3" class="edge"><path fill="none" stroke="#000000" d="M91.4659,-342.822C102.815,-331.331 117.916,-316.041 130.493,-303.307"/>
<polygon fill="#000000" stroke="#000000" points="137.559,-296.153 133.733,-306.43 134.045,-299.711 130.531,-303.268 130.531,-303.268 130.531,-303.268 134.045,-299.711 127.33,-300.106 137.559,-296.153 137.559,-296.153"/>
<text text-anchor="start" x="125" y="-316.5" font-family="Arial" font-size="10.00" fill="black"><a fill="navy" href="../reference/Graphics/AttributeRepresentation.html#dexpi-graphics-attributerepresentation-object" target="_parent">Object</a></text>
<text text-anchor="start" x="129.559" y="-299.153" font-family="Arial" font-size="10.00" fill="black"></text>
<text text-anchor="start" x="75.4659" y="-332.822" font-family="Arial" font-size="10.00" fill="black">*</text>
</g>
<!-- 18 -->
<g id="node7" class="node"><defs>
<linearGradient id="l_7" gradientUnits="userSpaceOnUse" x1="235.5" y1="-343" x2="235.5" y2="-379">
<stop offset="0" style="stop-color:#ffffbb;stop-opacity:1.;"/>
<stop offset="1" style="stop-color:#ffffee;stop-opacity:1.;"/>
</linearGradient>
</defs>
<polygon fill="url(#l_7)" stroke="black" points="304,-379 167,-379 167,-343 304,-343 304,-379"/>
<text text-anchor="start" x="177.5" y="-359.2" font-family="Arial" font-weight="bold" font-size="11.00" fill="black"><a fill="navy" href="../reference/Graphics/RepresentationGroup.html" target="_parent">RepresentationGroup</a></text>
</g>
<!-- 18&#45;&gt;3 -->
<g id="edge4" class="edge"><path fill="none" stroke="#000000" d="M218.322,-342.822C206.831,-331.331 191.541,-316.041 178.807,-303.307"/>
<polygon fill="#000000" stroke="#000000" points="171.653,-296.153 181.906,-300.042 175.189,-299.689 178.724,-303.224 178.724,-303.224 178.724,-303.224 175.189,-299.689 175.542,-306.406 171.653,-296.153 171.653,-296.153"/>
<text text-anchor="start" x="204.5" y="-316.5" font-family="Arial" font-size="10.00" fill="black"><a fill="navy" href="../reference/Graphics/RepresentationGroup.html#dexpi-graphics-representationgroup-represents" target="_parent">Represents</a></text>
<text text-anchor="start" x="163.653" y="-299.153" font-family="Arial" font-size="10.00" fill="black"></text>
<text text-anchor="start" x="202.322" y="-332.822" font-family="Arial" font-size="10.00" fill="black">*</text>
</g>
<!-- 5&#45;inner&#45;node&#45;&gt;0 -->
<g id="edge7" class="edge"><path fill="none" stroke="black" d="M154.523,-193.948C155.004,-192.877 162.76,-175.517 167.5,-161 170.778,-150.961 173.824,-139.671 176.232,-130.059"/>
</g>
<!-- 6&#45;inner&#45;node&#45;&gt;0 -->
<g id="edge9" class="edge"><path fill="none" stroke="black" d="M322.398,-193.937C319.579,-192.208 259.078,-155.092 218.281,-130.064"/>
</g>
</g>
</svg>