<!DOCTYPE svg PUBLIC "-//W3C//DTD SVG 1.1//EN" "http://www.w3.org/Graphics/SVG/1.1/DTD/svg11.dtd">
<!-- Generated by graphviz version 2.38.0 (20140413.2041)
 --><!-- Title: G Pages: 1 --><svg xmlns="http://www.w3.org/2000/svg" xmlns:xlink="http://www.w3.org/1999/xlink" width="593pt" height="319pt" viewBox="0.00 0.00 593.00 319.00">
<g id="graph0" class="graph" transform="scale(1 1) rotate(0) translate(4 315)">
<!-- 0 -->
<g id="node1" class="node"><defs>
<linearGradient id="l_0" gradientUnits="userSpaceOnUse" x1="301" y1="-3.19744e-014" x2="301" y2="-62">
<stop offset="0" style="stop-color:#ffffbb;stop-opacity:1.;"/>
<stop offset="1" style="stop-color:#ffffee;stop-opacity:1.;"/>
</linearGradient>
</defs>
<polygon fill="url(#l_0)" stroke="black" points="422,-62 180,-62 180,-0 422,-0 422,-62"/>
<text text-anchor="start" x="263.5" y="-48.2" font-family="Arial" font-weight="bold" font-size="11.00" fill="black">PelletizerDisc</text>
<text text-anchor="start" x="190" y="-24" font-family="Arial" font-size="10.00" fill="black"><a fill="navy" href="../reference/Equipment/PelletizerDisc.html#dexpi-equipment-pelletizerdisc-diameter" target="_parent">Diameter</a>&#160;:</text>
<text text-anchor="start" x="322" y="-24" font-family="Arial" font-size="10.00" fill="black"><a fill="navy" href="../reference/PhysicalQuantities/NullableLength.html" target="_parent">NullableLength</a>&#160;[0..1]</text>
<text text-anchor="start" x="190" y="-9" font-family="Arial" font-size="10.00" fill="black"><a fill="navy" href="../reference/Equipment/PelletizerDisc.html#dexpi-equipment-pelletizerdisc-materialofconstructioncode" target="_parent">MaterialOfConstructionCode</a>&#160;:</text>
<text text-anchor="start" x="322" y="-9" font-family="Arial" font-size="10.00" fill="black"><a fill="navy" href="../reference/DataTypes/NullableString.html" target="_parent">NullableString</a>&#160;[0..1]</text>
<polygon fill="black" stroke="black" points="422.0,-42.0 180.0,-42.0 180.0,-42.0 422.0,-42.0 422.0,-42.0"/>
</g>
<!-- 5 -->
<g id="node2" class="node"><defs>
<linearGradient id="l_1" gradientUnits="userSpaceOnUse" x1="345" y1="-192" x2="345" y2="-228">
<stop offset="0" style="stop-color:#ffffbb;stop-opacity:1.;"/>
<stop offset="1" style="stop-color:#ffffee;stop-opacity:1.;"/>
</linearGradient>
</defs>
<polygon fill="url(#l_1)" stroke="black" points="402.5,-228 287.5,-228 287.5,-192 402.5,-192 402.5,-228"/>
<text text-anchor="start" x="298" y="-208.2" font-family="Arial" font-weight="bold" font-style="italic" font-size="11.00" fill="black"><a fill="navy" href="../reference/DexpiModel/ConceptualObject.html" target="_parent">ConceptualObject</a></text>
</g>
<!-- 7&#45;inner&#45;node -->
<!-- 5&#45;&gt;7&#45;inner&#45;node -->
<g id="edge6" class="edge"><path fill="none" stroke="black" d="M345,-181.649C345,-158.987 345,-130.163 345,-128.116L344.978,-125.921"/>
<polygon fill="none" stroke="black" points="341.5,-181.822 345,-191.822 348.5,-181.822 341.5,-181.822"/>
</g>
<!-- 6 -->
<g id="node3" class="node"><defs>
<linearGradient id="l_2" gradientUnits="userSpaceOnUse" x1="513" y1="-192" x2="513" y2="-228">
<stop offset="0" style="stop-color:#ffffbb;stop-opacity:1.;"/>
<stop offset="1" style="stop-color:#ffffee;stop-opacity:1.;"/>
</linearGradient>
</defs>
<polygon fill="url(#l_2)" stroke="black" points="585,-228 441,-228 441,-192 585,-192 585,-228"/>
<text text-anchor="start" x="451" y="-208.2" font-family="Arial" font-weight="bold" font-style="italic" font-size="11.00" fill="black"><a fill="navy" href="../reference/Customization/CustomAttributeOwner.html" target="_parent">CustomAttributeOwner</a></text>
</g>
<!-- 23 -->
<g id="node8" class="node"><defs>
<linearGradient id="l_3" gradientUnits="userSpaceOnUse" x1="418" y1="-109" x2="418" y2="-145">
<stop offset="0" style="stop-color:#ffffbb;stop-opacity:1.;"/>
<stop offset="1" style="stop-color:#ffffee;stop-opacity:1.;"/>
</linearGradient>
</defs>
<polygon fill="url(#l_3)" stroke="black" points="472.5,-145 363.5,-145 363.5,-109 472.5,-109 472.5,-145"/>
<text text-anchor="start" x="374" y="-125.2" font-family="Arial" font-weight="bold" font-style="italic" font-size="11.00" fill="black"><a fill="navy" href="../reference/Customization/CustomAttribute.html" target="_parent">CustomAttribute</a></text>
</g>
<!-- 6&#45;&gt;23 -->
<g id="edge5" class="edge"><path fill="none" stroke="#000000" d="M439.066,-185.359C435.387,-182.576 431.987,-179.469 429,-176 424.071,-170.275 421.234,-162.784 419.632,-155.428"/>
<polygon fill="#000000" stroke="#000000" points="439.276,-185.495 446.486,-185.381 449.365,-191.992 442.155,-192.106 439.276,-185.495"/>
<polygon fill="#000000" stroke="#000000" points="418.101,-145.317 424.048,-154.53 418.85,-150.26 419.598,-155.204 419.598,-155.204 419.598,-155.204 418.85,-150.26 415.149,-155.878 418.101,-145.317 418.101,-145.317"/>
<text text-anchor="start" x="431" y="-165.5" font-family="Arial" font-size="10.00" fill="black"><a fill="navy" href="../reference/Customization/CustomAttributeOwner.html#dexpi-customization-customattributeowner-customattributes" target="_parent">CustomAttributes</a></text>
<text text-anchor="start" x="410.101" y="-148.317" font-family="Arial" font-size="10.00" fill="black">*</text>
<text text-anchor="start" x="420.365" y="-181.992" font-family="Arial" font-size="10.00" fill="black">0..1</text>
</g>
<!-- 8&#45;inner&#45;node -->
<!-- 6&#45;&gt;8&#45;inner&#45;node -->
<g id="edge8" class="edge"><path fill="none" stroke="black" d="M513,-181.649C513,-158.987 513,-130.163 513,-128.116L512.949,-125.971"/>
<polygon fill="none" stroke="black" points="509.5,-181.822 513,-191.822 516.5,-181.822 509.5,-181.822"/>
</g>
<!-- 11 -->
<g id="node4" class="node"><defs>
<linearGradient id="l_4" gradientUnits="userSpaceOnUse" x1="88" y1="-109" x2="88" y2="-145">
<stop offset="0" style="stop-color:#ffffbb;stop-opacity:1.;"/>
<stop offset="1" style="stop-color:#ffffee;stop-opacity:1.;"/>
</linearGradient>
</defs>
<polygon fill="url(#l_4)" stroke="black" points="176,-145 0,-145 0,-109 176,-109 176,-145"/>
<text text-anchor="start" x="10" y="-125.2" font-family="Arial" font-weight="bold" font-size="11.00" fill="black"><a fill="navy" href="../reference/Equipment/RotatingGrowthAgglomerator.html" target="_parent">RotatingGrowthAgglomerator</a></text>
</g>
<!-- 11&#45;&gt;0 -->
<g id="edge1" class="edge"><path fill="none" stroke="#000000" d="M134.465,-103.866C152.099,-95.5925 172.409,-86.2153 191,-78 199.946,-74.0468 209.337,-69.9858 218.704,-65.9916"/>
<polygon fill="#000000" stroke="#000000" points="134.447,-103.874 130.723,-110.049 123.591,-108.986 127.315,-102.811 134.447,-103.874"/>
<polygon fill="#000000" stroke="#000000" points="228.046,-62.026 220.599,-70.0759 223.443,-63.9798 218.841,-65.9336 218.841,-65.9336 218.841,-65.9336 223.443,-63.9798 217.082,-61.7914 228.046,-62.026 228.046,-62.026"/>
<text text-anchor="start" x="193.5" y="-82.5" font-family="Arial" font-size="10.00" fill="black"><a fill="navy" href="../reference/Equipment/RotatingGrowthAgglomerator.html#dexpi-equipment-rotatinggrowthagglomerator-pelletizerdisc" target="_parent">PelletizerDisc</a></text>
<text text-anchor="start" x="207.046" y="-65.026" font-family="Arial" font-size="10.00" fill="black">0..1</text>
<text text-anchor="start" x="94.591" y="-98.986" font-family="Arial" font-size="10.00" fill="black">0..1</text>
</g>
<!-- 14 -->
<g id="node5" class="node"><defs>
<linearGradient id="l_5" gradientUnits="userSpaceOnUse" x1="260" y1="-109" x2="260" y2="-145">
<stop offset="0" style="stop-color:#ffffbb;stop-opacity:1.;"/>
<stop offset="1" style="stop-color:#ffffee;stop-opacity:1.;"/>
</linearGradient>
</defs>
<polygon fill="url(#l_5)" stroke="black" points="326,-145 194,-145 194,-109 326,-109 326,-145"/>
<text text-anchor="start" x="204" y="-125.2" font-family="Arial" font-weight="bold" font-size="11.00" fill="black"><a fill="navy" href="../reference/Equipment/CustomAgglomerator.html" target="_parent">CustomAgglomerator</a></text>
</g>
<!-- 14&#45;&gt;0 -->
<g id="edge2" class="edge"><path fill="none" stroke="#000000" d="M258.958,-96.3313C259.532,-90.1157 260.74,-83.717 263,-78 263.95,-75.5977 265.075,-73.2269 266.332,-70.9043"/>
<polygon fill="#000000" stroke="#000000" points="258.95,-96.5624 262.74,-102.697 258.535,-108.555 254.745,-102.42 258.95,-96.5624"/>
<polygon fill="#000000" stroke="#000000" points="271.747,-62.22 270.275,-73.0866 269.102,-66.4628 266.456,-70.7056 266.456,-70.7056 266.456,-70.7056 269.102,-66.4628 262.638,-68.3245 271.747,-62.22 271.747,-62.22"/>
<text text-anchor="start" x="265.5" y="-82.5" font-family="Arial" font-size="10.00" fill="black"><a fill="navy" href="../reference/Equipment/CustomAgglomerator.html#dexpi-equipment-customagglomerator-pelletizerdisc" target="_parent">PelletizerDisc</a></text>
<text text-anchor="start" x="250.747" y="-65.22" font-family="Arial" font-size="10.00" fill="black">0..1</text>
<text text-anchor="start" x="229.535" y="-98.555" font-family="Arial" font-size="10.00" fill="black">0..1</text>
</g>
<!-- 17 -->
<g id="node6" class="node"><defs>
<linearGradient id="l_6" gradientUnits="userSpaceOnUse" x1="265" y1="-275" x2="265" y2="-311">
<stop offset="0" style="stop-color:#ffffbb;stop-opacity:1.;"/>
<stop offset="1" style="stop-color:#ffffee;stop-opacity:1.;"/>
</linearGradient>
</defs>
<polygon fill="url(#l_6)" stroke="black" points="339.5,-311 190.5,-311 190.5,-275 339.5,-275 339.5,-311"/>
<text text-anchor="start" x="201" y="-291.2" font-family="Arial" font-weight="bold" font-size="11.00" fill="black"><a fill="navy" href="../reference/Graphics/AttributeRepresentation.html" target="_parent">AttributeRepresentation</a></text>
</g>
<!-- 17&#45;&gt;5 -->
<g id="edge3" class="edge"><path fill="none" stroke="#000000" d="M281.966,-274.822C293.315,-263.331 308.416,-248.041 320.993,-235.307"/>
<polygon fill="#000000" stroke="#000000" points="328.059,-228.153 324.233,-238.43 324.545,-231.711 321.031,-235.268 321.031,-235.268 321.031,-235.268 324.545,-231.711 317.83,-232.106 328.059,-228.153 328.059,-228.153"/>
<text text-anchor="start" x="315.5" y="-248.5" font-family="Arial" font-size="10.00" fill="black"><a fill="navy" href="../reference/Graphics/AttributeRepresentation.html#dexpi-graphics-attributerepresentation-object" target="_parent">Object</a></text>
<text text-anchor="start" x="320.059" y="-231.153" font-family="Arial" font-size="10.00" fill="black"></text>
<text text-anchor="start" x="265.966" y="-264.822" font-family="Arial" font-size="10.00" fill="black">*</text>
</g>
<!-- 20 -->
<g id="node7" class="node"><defs>
<linearGradient id="l_7" gradientUnits="userSpaceOnUse" x1="426" y1="-275" x2="426" y2="-311">
<stop offset="0" style="stop-color:#ffffbb;stop-opacity:1.;"/>
<stop offset="1" style="stop-color:#ffffee;stop-opacity:1.;"/>
</linearGradient>
</defs>
<polygon fill="url(#l_7)" stroke="black" points="494.5,-311 357.5,-311 357.5,-275 494.5,-275 494.5,-311"/>
<text text-anchor="start" x="368" y="-291.2" font-family="Arial" font-weight="bold" font-size="11.00" fill="black"><a fill="navy" href="../reference/Graphics/RepresentationGroup.html" target="_parent">RepresentationGroup</a></text>
</g>
<!-- 20&#45;&gt;5 -->
<g id="edge4" class="edge"><path fill="none" stroke="#000000" d="M408.822,-274.822C397.331,-263.331 382.041,-248.041 369.307,-235.307"/>
<polygon fill="#000000" stroke="#000000" points="362.153,-228.153 372.406,-232.042 365.689,-231.689 369.224,-235.224 369.224,-235.224 369.224,-235.224 365.689,-231.689 366.042,-238.406 362.153,-228.153 362.153,-228.153"/>
<text text-anchor="start" x="395" y="-248.5" font-family="Arial" font-size="10.00" fill="black"><a fill="navy" href="../reference/Graphics/RepresentationGroup.html#dexpi-graphics-representationgroup-represents" target="_parent">Represents</a></text>
<text text-anchor="start" x="354.153" y="-231.153" font-family="Arial" font-size="10.00" fill="black"></text>
<text text-anchor="start" x="392.822" y="-264.822" font-family="Arial" font-size="10.00" fill="black">*</text>
</g>
<!-- 7&#45;inner&#45;node&#45;&gt;0 -->
<g id="edge7" class="edge"><path fill="none" stroke="black" d="M344.978,-125.921C344.532,-124.289 337.251,-97.8774 328,-78 325.578,-72.7948 322.745,-67.4127 319.843,-62.2448"/>
</g>
<!-- 8&#45;inner&#45;node&#45;&gt;0 -->
<g id="edge9" class="edge"><path fill="none" stroke="black" d="M512.949,-125.971C511.911,-125.375 495.073,-115.734 481,-109 446.66,-92.5695 407.915,-75.7774 375.191,-62.085"/>
</g>
</g>
</svg>