<!DOCTYPE svg PUBLIC "-//W3C//DTD SVG 1.1//EN" "http://www.w3.org/Graphics/SVG/1.1/DTD/svg11.dtd">
<!-- Generated by graphviz version 2.38.0 (20140413.2041)
 --><!-- Title: G Pages: 1 --><svg xmlns="http://www.w3.org/2000/svg" xmlns:xlink="http://www.w3.org/1999/xlink" width="599pt" height="327pt" viewBox="0.00 0.00 598.50 327.00">
<g id="graph0" class="graph" transform="scale(1 1) rotate(0) translate(4 323)">
<!-- 0 -->
<g id="node1" class="node"><defs>
<linearGradient id="l_0" gradientUnits="userSpaceOnUse" x1="118" y1="-200" x2="118" y2="-236">
<stop offset="0" style="stop-color:#ffffbb;stop-opacity:1.;"/>
<stop offset="1" style="stop-color:#ffffee;stop-opacity:1.;"/>
</linearGradient>
</defs>
<polygon fill="url(#l_0)" stroke="black" points="236,-236 0,-236 0,-200 236,-200 236,-236"/>
<text text-anchor="start" x="10" y="-216.2" font-family="Arial" font-weight="bold" font-size="11.00" fill="black">PipeOffPageConnectorObjectReference</text>
</g>
<!-- 9 -->
<g id="node5" class="node"><defs>
<linearGradient id="l_1" gradientUnits="userSpaceOnUse" x1="211" y1="-117" x2="211" y2="-153">
<stop offset="0" style="stop-color:#ffffbb;stop-opacity:1.;"/>
<stop offset="1" style="stop-color:#ffffee;stop-opacity:1.;"/>
</linearGradient>
</defs>
<polygon fill="url(#l_1)" stroke="black" points="282,-153 140,-153 140,-117 282,-117 282,-153"/>
<text text-anchor="start" x="150" y="-133.2" font-family="Arial" font-weight="bold" font-style="italic" font-size="11.00" fill="black"><a fill="navy" href="../reference/Piping/PipeOffPageConnector.html" target="_parent">PipeOffPageConnector</a></text>
</g>
<!-- 0&#45;&gt;9 -->
<g id="edge1" class="edge"><path fill="none" stroke="#000000" d="M137.723,-199.822C151.039,-188.224 168.8,-172.755 183.501,-159.951"/>
<polygon fill="#000000" stroke="#000000" points="191.306,-153.153 186.72,-163.114 187.535,-156.437 183.765,-159.721 183.765,-159.721 183.765,-159.721 187.535,-156.437 180.809,-156.328 191.306,-153.153 191.306,-153.153"/>
<text text-anchor="start" x="175" y="-173.5" font-family="Arial" font-size="10.00" fill="black"><a fill="navy" href="../reference/Piping/PipeOffPageConnectorObjectReference.html#dexpi-piping-pipeoffpageconnectorobjectreference-referencedconnector" target="_parent">ReferencedConnector</a></text>
<text text-anchor="start" x="170.306" y="-156.153" font-family="Arial" font-size="10.00" fill="black">0..1</text>
<text text-anchor="start" x="121.723" y="-189.822" font-family="Arial" font-size="10.00" fill="black">*</text>
</g>
<!-- 1 -->
<g id="node2" class="node"><defs>
<linearGradient id="l_2" gradientUnits="userSpaceOnUse" x1="277" y1="-34" x2="277" y2="-70">
<stop offset="0" style="stop-color:#ffffbb;stop-opacity:1.;"/>
<stop offset="1" style="stop-color:#ffffee;stop-opacity:1.;"/>
</linearGradient>
</defs>
<polygon fill="url(#l_2)" stroke="black" points="374.5,-70 179.5,-70 179.5,-34 374.5,-34 374.5,-70"/>
<text text-anchor="start" x="190" y="-50.2" font-family="Arial" font-weight="bold" font-style="italic" font-size="11.00" fill="black"><a fill="navy" href="../reference/Piping/PipeOffPageConnectorReference.html" target="_parent">PipeOffPageConnectorReference</a></text>
</g>
<!-- 4&#45;inner&#45;node -->
<!-- 1&#45;&gt;4&#45;inner&#45;node -->
<g id="edge6" class="edge"><path fill="none" stroke="black" d="M277,-23.603C277,-12.4221 277,-1.88664 277,-1.05302L276.95,-1.00039"/>
<polygon fill="none" stroke="black" points="273.5,-23.7928 277,-33.7928 280.5,-23.7929 273.5,-23.7928"/>
</g>
<!-- 2 -->
<g id="node3" class="node"><defs>
<linearGradient id="l_3" gradientUnits="userSpaceOnUse" x1="315" y1="-200" x2="315" y2="-236">
<stop offset="0" style="stop-color:#ffffbb;stop-opacity:1.;"/>
<stop offset="1" style="stop-color:#ffffee;stop-opacity:1.;"/>
</linearGradient>
</defs>
<polygon fill="url(#l_3)" stroke="black" points="372.5,-236 257.5,-236 257.5,-200 372.5,-200 372.5,-236"/>
<text text-anchor="start" x="268" y="-216.2" font-family="Arial" font-weight="bold" font-style="italic" font-size="11.00" fill="black"><a fill="navy" href="../reference/DexpiModel/ConceptualObject.html" target="_parent">ConceptualObject</a></text>
</g>
<!-- 5&#45;inner&#45;node -->
<!-- 2&#45;&gt;5&#45;inner&#45;node -->
<g id="edge8" class="edge"><path fill="none" stroke="black" d="M315,-189.649C315,-166.987 315,-138.163 315,-136.116L314.99,-133.919"/>
<polygon fill="none" stroke="black" points="311.5,-189.822 315,-199.822 318.5,-189.822 311.5,-189.822"/>
</g>
<!-- 3 -->
<g id="node4" class="node"><defs>
<linearGradient id="l_4" gradientUnits="userSpaceOnUse" x1="463" y1="-200" x2="463" y2="-236">
<stop offset="0" style="stop-color:#ffffbb;stop-opacity:1.;"/>
<stop offset="1" style="stop-color:#ffffee;stop-opacity:1.;"/>
</linearGradient>
</defs>
<polygon fill="url(#l_4)" stroke="black" points="535,-236 391,-236 391,-200 535,-200 535,-236"/>
<text text-anchor="start" x="401" y="-216.2" font-family="Arial" font-weight="bold" font-style="italic" font-size="11.00" fill="black"><a fill="navy" href="../reference/Customization/CustomAttributeOwner.html" target="_parent">CustomAttributeOwner</a></text>
</g>
<!-- 20 -->
<g id="node8" class="node"><defs>
<linearGradient id="l_5" gradientUnits="userSpaceOnUse" x1="536" y1="-117" x2="536" y2="-153">
<stop offset="0" style="stop-color:#ffffbb;stop-opacity:1.;"/>
<stop offset="1" style="stop-color:#ffffee;stop-opacity:1.;"/>
</linearGradient>
</defs>
<polygon fill="url(#l_5)" stroke="black" points="590.5,-153 481.5,-153 481.5,-117 590.5,-117 590.5,-153"/>
<text text-anchor="start" x="492" y="-133.2" font-family="Arial" font-weight="bold" font-style="italic" font-size="11.00" fill="black"><a fill="navy" href="../reference/Customization/CustomAttribute.html" target="_parent">CustomAttribute</a></text>
</g>
<!-- 3&#45;&gt;20 -->
<g id="edge5" class="edge"><path fill="none" stroke="#000000" d="M486.555,-190.864C495.255,-181.21 505.082,-170.306 513.67,-160.777"/>
<polygon fill="#000000" stroke="#000000" points="486.515,-190.908 485.47,-198.043 478.481,-199.822 479.527,-192.687 486.515,-190.908"/>
<polygon fill="#000000" stroke="#000000" points="520.541,-153.153 517.189,-163.594 517.194,-156.867 513.846,-160.582 513.846,-160.582 513.846,-160.582 517.194,-156.867 510.503,-157.569 520.541,-153.153 520.541,-153.153"/>
<text text-anchor="start" x="509" y="-173.5" font-family="Arial" font-size="10.00" fill="black"><a fill="navy" href="../reference/Customization/CustomAttributeOwner.html#dexpi-customization-customattributeowner-customattributes" target="_parent">CustomAttributes</a></text>
<text text-anchor="start" x="512.541" y="-156.153" font-family="Arial" font-size="10.00" fill="black">*</text>
<text text-anchor="start" x="449.481" y="-189.822" font-family="Arial" font-size="10.00" fill="black">0..1</text>
</g>
<!-- 6&#45;inner&#45;node -->
<!-- 3&#45;&gt;6&#45;inner&#45;node -->
<g id="edge10" class="edge"><path fill="none" stroke="black" d="M463,-189.649C463,-166.987 463,-138.163 463,-136.116L462.865,-133.941"/>
<polygon fill="none" stroke="black" points="459.5,-189.822 463,-199.822 466.5,-189.822 459.5,-189.822"/>
</g>
<!-- 9&#45;&gt;1 -->
<g id="edge2" class="edge"><path fill="none" stroke="#000000" d="M202.029,-104.895C201.554,-98.2873 202.44,-91.5801 206,-86 208.239,-82.4905 210.958,-79.3485 214.011,-76.5361"/>
<polygon fill="#000000" stroke="#000000" points="202.043,-104.972 207.045,-110.166 204.174,-116.781 199.172,-111.587 202.043,-104.972"/>
<polygon fill="#000000" stroke="#000000" points="222.202,-70.2031 217.043,-79.8798 218.247,-73.2614 214.291,-76.3197 214.291,-76.3197 214.291,-76.3197 218.247,-73.2614 211.538,-72.7596 222.202,-70.2031 222.202,-70.2031"/>
<text text-anchor="start" x="208" y="-90.5" font-family="Arial" font-size="10.00" fill="black"><a fill="navy" href="../reference/Piping/PipeOffPageConnector.html#dexpi-piping-pipeoffpageconnector-connectorreference" target="_parent">ConnectorReference</a></text>
<text text-anchor="start" x="201.202" y="-73.2031" font-family="Arial" font-size="10.00" fill="black">0..1</text>
<text text-anchor="start" x="175.174" y="-106.781" font-family="Arial" font-size="10.00" fill="black">0..1</text>
</g>
<!-- 14 -->
<g id="node6" class="node"><defs>
<linearGradient id="l_6" gradientUnits="userSpaceOnUse" x1="234" y1="-283" x2="234" y2="-319">
<stop offset="0" style="stop-color:#ffffbb;stop-opacity:1.;"/>
<stop offset="1" style="stop-color:#ffffee;stop-opacity:1.;"/>
</linearGradient>
</defs>
<polygon fill="url(#l_6)" stroke="black" points="308.5,-319 159.5,-319 159.5,-283 308.5,-283 308.5,-319"/>
<text text-anchor="start" x="170" y="-299.2" font-family="Arial" font-weight="bold" font-size="11.00" fill="black"><a fill="navy" href="../reference/Graphics/AttributeRepresentation.html" target="_parent">AttributeRepresentation</a></text>
</g>
<!-- 14&#45;&gt;2 -->
<g id="edge3" class="edge"><path fill="none" stroke="#000000" d="M251.178,-282.822C262.669,-271.331 277.959,-256.041 290.693,-243.307"/>
<polygon fill="#000000" stroke="#000000" points="297.847,-236.153 293.958,-246.406 294.311,-239.689 290.776,-243.224 290.776,-243.224 290.776,-243.224 294.311,-239.689 287.594,-240.042 297.847,-236.153 297.847,-236.153"/>
<text text-anchor="start" x="284.5" y="-256.5" font-family="Arial" font-size="10.00" fill="black"><a fill="navy" href="../reference/Graphics/AttributeRepresentation.html#dexpi-graphics-attributerepresentation-object" target="_parent">Object</a></text>
<text text-anchor="start" x="289.847" y="-239.153" font-family="Arial" font-size="10.00" fill="black"></text>
<text text-anchor="start" x="235.178" y="-272.822" font-family="Arial" font-size="10.00" fill="black">*</text>
</g>
<!-- 17 -->
<g id="node7" class="node"><defs>
<linearGradient id="l_7" gradientUnits="userSpaceOnUse" x1="395" y1="-283" x2="395" y2="-319">
<stop offset="0" style="stop-color:#ffffbb;stop-opacity:1.;"/>
<stop offset="1" style="stop-color:#ffffee;stop-opacity:1.;"/>
</linearGradient>
</defs>
<polygon fill="url(#l_7)" stroke="black" points="463.5,-319 326.5,-319 326.5,-283 463.5,-283 463.5,-319"/>
<text text-anchor="start" x="337" y="-299.2" font-family="Arial" font-weight="bold" font-size="11.00" fill="black"><a fill="navy" href="../reference/Graphics/RepresentationGroup.html" target="_parent">RepresentationGroup</a></text>
</g>
<!-- 17&#45;&gt;2 -->
<g id="edge4" class="edge"><path fill="none" stroke="#000000" d="M378.034,-282.822C366.685,-271.331 351.584,-256.041 339.007,-243.307"/>
<polygon fill="#000000" stroke="#000000" points="331.941,-236.153 342.17,-240.106 335.455,-239.711 338.969,-243.268 338.969,-243.268 338.969,-243.268 335.455,-239.711 335.767,-246.43 331.941,-236.153 331.941,-236.153"/>
<text text-anchor="start" x="365" y="-256.5" font-family="Arial" font-size="10.00" fill="black"><a fill="navy" href="../reference/Graphics/RepresentationGroup.html#dexpi-graphics-representationgroup-represents" target="_parent">Represents</a></text>
<text text-anchor="start" x="323.941" y="-239.153" font-family="Arial" font-size="10.00" fill="black"></text>
<text text-anchor="start" x="362.034" y="-272.822" font-family="Arial" font-size="10.00" fill="black">*</text>
</g>
<!-- 4&#45;inner&#45;node&#45;&gt;0 -->
<g id="edge7" class="edge"><path fill="none" stroke="black" d="M276.95,-1.00039C274.838,-1.01912 206.98,-1.86968 170,-34 120.51,-77.0005 116.504,-163.342 117.201,-199.959"/>
</g>
<!-- 5&#45;inner&#45;node&#45;&gt;1 -->
<g id="edge9" class="edge"><path fill="none" stroke="black" d="M314.99,-133.919C314.79,-132.248 311.437,-105.22 302,-86 299.339,-80.5804 295.733,-75.1645 292.088,-70.3333"/>
</g>
<!-- 6&#45;inner&#45;node&#45;&gt;1 -->
<g id="edge11" class="edge"><path fill="none" stroke="black" d="M462.865,-133.941C458.927,-132.226 369.625,-93.3368 316.261,-70.0976"/>
</g>
</g>
</svg>