<!DOCTYPE svg PUBLIC "-//W3C//DTD SVG 1.1//EN" "http://www.w3.org/Graphics/SVG/1.1/DTD/svg11.dtd">
<!-- Generated by graphviz version 2.38.0 (20140413.2041)
 --><!-- Title: G Pages: 1 --><svg xmlns="http://www.w3.org/2000/svg" xmlns:xlink="http://www.w3.org/1999/xlink" width="1141pt" height="498pt" viewBox="0.00 0.00 1140.50 498.00">
<g id="graph0" class="graph" transform="scale(1 1) rotate(0) translate(4 494)">
<!-- 0 -->
<g id="node1" class="node"><defs>
<linearGradient id="l_0" gradientUnits="userSpaceOnUse" x1="637.5" y1="-7.10543e-014" x2="637.5" y2="-152">
<stop offset="0" style="stop-color:#ffffbb;stop-opacity:1.;"/>
<stop offset="1" style="stop-color:#ffffee;stop-opacity:1.;"/>
</linearGradient>
</defs>
<polygon fill="url(#l_0)" stroke="black" points="807.5,-152 467.5,-152 467.5,-0 807.5,-0 807.5,-152"/>
<text text-anchor="start" x="608.5" y="-138.2" font-family="Arial" font-weight="bold" font-size="11.00" fill="black">PipeFitting</text>
<text text-anchor="start" x="477.5" y="-114" font-family="Arial" font-size="10.00" fill="black"><a fill="navy" href="../reference/Piping/PipeFitting.html#dexpi-piping-pipefitting-heattracingtype" target="_parent">HeatTracingType</a>&#160;:</text>
<text text-anchor="start" x="640.5" y="-114" font-family="Arial" font-size="10.00" fill="black"><a fill="navy" href="../reference/Enumerations/HeatTracingTypeClassification.html" target="_parent">HeatTracingTypeClassification</a>&#160;[0..1]</text>
<text text-anchor="start" x="477.5" y="-99" font-family="Arial" font-size="10.00" fill="black"><a fill="navy" href="../reference/Piping/PipeFitting.html#dexpi-piping-pipefitting-heattracingtyperepresentation" target="_parent">HeatTracingTypeRepresentation</a>&#160;:</text>
<text text-anchor="start" x="640.5" y="-99" font-family="Arial" font-size="10.00" fill="black"><a fill="navy" href="../reference/DataTypes/NullableString.html" target="_parent">NullableString</a>&#160;[0..1]</text>
<text text-anchor="start" x="477.5" y="-84" font-family="Arial" font-size="10.00" fill="black"><a fill="navy" href="../reference/Piping/PipeFitting.html#dexpi-piping-pipefitting-insulationthickness" target="_parent">InsulationThickness</a>&#160;:</text>
<text text-anchor="start" x="640.5" y="-84" font-family="Arial" font-size="10.00" fill="black"><a fill="navy" href="../reference/PhysicalQuantities/NullableLength.html" target="_parent">NullableLength</a>&#160;[0..1]</text>
<text text-anchor="start" x="477.5" y="-69" font-family="Arial" font-size="10.00" fill="black"><a fill="navy" href="../reference/Piping/PipeFitting.html#dexpi-piping-pipefitting-insulationtype" target="_parent">InsulationType</a>&#160;:</text>
<text text-anchor="start" x="640.5" y="-69" font-family="Arial" font-size="10.00" fill="black"><a fill="navy" href="../reference/DataTypes/NullableString.html" target="_parent">NullableString</a>&#160;[0..1]</text>
<text text-anchor="start" x="477.5" y="-54" font-family="Arial" font-size="10.00" fill="black"><a fill="navy" href="../reference/Piping/PipeFitting.html#dexpi-piping-pipefitting-lowerlimitheattracingtemperature" target="_parent">LowerLimitHeatTracingTemperature</a>&#160;:</text>
<text text-anchor="start" x="640.5" y="-54" font-family="Arial" font-size="10.00" fill="black"><a fill="navy" href="../reference/PhysicalQuantities/NullableTemperature.html" target="_parent">NullableTemperature</a>&#160;[0..1]</text>
<text text-anchor="start" x="477.5" y="-39" font-family="Arial" font-size="10.00" fill="black"><a fill="navy" href="../reference/Piping/PipeFitting.html#dexpi-piping-pipefitting-pipingclasscode" target="_parent">PipingClassCode</a>&#160;:</text>
<text text-anchor="start" x="640.5" y="-39" font-family="Arial" font-size="10.00" fill="black"><a fill="navy" href="../reference/DataTypes/NullableString.html" target="_parent">NullableString</a>&#160;[0..1]</text>
<text text-anchor="start" x="477.5" y="-24" font-family="Arial" font-size="10.00" fill="black"><a fill="navy" href="../reference/Piping/PipeFitting.html#dexpi-piping-pipefitting-pipingcomponentname" target="_parent">PipingComponentName</a>&#160;:</text>
<text text-anchor="start" x="640.5" y="-24" font-family="Arial" font-size="10.00" fill="black"><a fill="navy" href="../reference/DataTypes/NullableString.html" target="_parent">NullableString</a>&#160;[0..1]</text>
<text text-anchor="start" x="477.5" y="-9" font-family="Arial" font-size="10.00" fill="black"><a fill="navy" href="../reference/Piping/PipeFitting.html#dexpi-piping-pipefitting-pipingcomponentnumber" target="_parent">PipingComponentNumber</a>&#160;:</text>
<text text-anchor="start" x="640.5" y="-9" font-family="Arial" font-size="10.00" fill="black"><a fill="navy" href="../reference/DataTypes/NullableString.html" target="_parent">NullableString</a>&#160;[0..1]</text>
<polygon fill="black" stroke="black" points="807.5,-132.0 467.5,-132.0 467.5,-132.0 807.5,-132.0 807.5,-132.0"/>
</g>
<!-- 13 -->
<g id="node2" class="node"><defs>
<linearGradient id="l_1" gradientUnits="userSpaceOnUse" x1="637.5" y1="-219" x2="637.5" y2="-255">
<stop offset="0" style="stop-color:#ffffbb;stop-opacity:1.;"/>
<stop offset="1" style="stop-color:#ffffee;stop-opacity:1.;"/>
</linearGradient>
</defs>
<polygon fill="url(#l_1)" stroke="black" points="696,-255 579,-255 579,-219 696,-219 696,-255"/>
<text text-anchor="start" x="589.5" y="-235.2" font-family="Arial" font-weight="bold" font-style="italic" font-size="11.00" fill="black"><a fill="navy" href="../reference/Piping/PipingComponent.html" target="_parent">PipingComponent</a></text>
</g>
<!-- 21&#45;inner&#45;node -->
<!-- 13&#45;&gt;21&#45;inner&#45;node -->
<g id="edge11" class="edge"><path fill="none" stroke="black" d="M637.5,-208.603C637.5,-197.422 637.5,-186.887 637.5,-186.053L637.5,-184.922"/>
<polygon fill="none" stroke="black" points="634,-208.793 637.5,-218.793 641,-208.793 634,-208.793"/>
</g>
<!-- 14 -->
<g id="node3" class="node"><defs>
<linearGradient id="l_2" gradientUnits="userSpaceOnUse" x1="154.5" y1="-371" x2="154.5" y2="-407">
<stop offset="0" style="stop-color:#ffffbb;stop-opacity:1.;"/>
<stop offset="1" style="stop-color:#ffffee;stop-opacity:1.;"/>
</linearGradient>
</defs>
<polygon fill="url(#l_2)" stroke="black" points="212,-407 97,-407 97,-371 212,-371 212,-407"/>
<text text-anchor="start" x="107.5" y="-387.2" font-family="Arial" font-weight="bold" font-style="italic" font-size="11.00" fill="black"><a fill="navy" href="../reference/DexpiModel/ConceptualObject.html" target="_parent">ConceptualObject</a></text>
</g>
<!-- 22&#45;inner&#45;node -->
<!-- 14&#45;&gt;22&#45;inner&#45;node -->
<g id="edge13" class="edge"><path fill="none" stroke="black" d="M154.5,-360.649C154.5,-337.987 154.5,-309.163 154.5,-307.116L154.578,-304.984"/>
<polygon fill="none" stroke="black" points="151,-360.822 154.5,-370.822 158,-360.822 151,-360.822"/>
</g>
<!-- 15 -->
<g id="node4" class="node"><defs>
<linearGradient id="l_3" gradientUnits="userSpaceOnUse" x1="302.5" y1="-371" x2="302.5" y2="-407">
<stop offset="0" style="stop-color:#ffffbb;stop-opacity:1.;"/>
<stop offset="1" style="stop-color:#ffffee;stop-opacity:1.;"/>
</linearGradient>
</defs>
<polygon fill="url(#l_3)" stroke="black" points="374.5,-407 230.5,-407 230.5,-371 374.5,-371 374.5,-407"/>
<text text-anchor="start" x="240.5" y="-387.2" font-family="Arial" font-weight="bold" font-style="italic" font-size="11.00" fill="black"><a fill="navy" href="../reference/Customization/CustomAttributeOwner.html" target="_parent">CustomAttributeOwner</a></text>
</g>
<!-- 37 -->
<g id="node12" class="node"><defs>
<linearGradient id="l_4" gradientUnits="userSpaceOnUse" x1="375.5" y1="-288" x2="375.5" y2="-324">
<stop offset="0" style="stop-color:#ffffbb;stop-opacity:1.;"/>
<stop offset="1" style="stop-color:#ffffee;stop-opacity:1.;"/>
</linearGradient>
</defs>
<polygon fill="url(#l_4)" stroke="black" points="430,-324 321,-324 321,-288 430,-288 430,-324"/>
<text text-anchor="start" x="331.5" y="-304.2" font-family="Arial" font-weight="bold" font-style="italic" font-size="11.00" fill="black"><a fill="navy" href="../reference/Customization/CustomAttribute.html" target="_parent">CustomAttribute</a></text>
</g>
<!-- 15&#45;&gt;37 -->
<g id="edge3" class="edge"><path fill="none" stroke="#000000" d="M326.055,-361.864C334.755,-352.21 344.582,-341.306 353.17,-331.777"/>
<polygon fill="#000000" stroke="#000000" points="326.015,-361.908 324.97,-369.043 317.981,-370.822 319.027,-363.687 326.015,-361.908"/>
<polygon fill="#000000" stroke="#000000" points="360.041,-324.153 356.689,-334.594 356.694,-327.867 353.346,-331.582 353.346,-331.582 353.346,-331.582 356.694,-327.867 350.003,-328.569 360.041,-324.153 360.041,-324.153"/>
<text text-anchor="start" x="348.5" y="-344.5" font-family="Arial" font-size="10.00" fill="black"><a fill="navy" href="../reference/Customization/CustomAttributeOwner.html#dexpi-customization-customattributeowner-customattributes" target="_parent">CustomAttributes</a></text>
<text text-anchor="start" x="352.041" y="-327.153" font-family="Arial" font-size="10.00" fill="black">*</text>
<text text-anchor="start" x="288.981" y="-360.822" font-family="Arial" font-size="10.00" fill="black">0..1</text>
</g>
<!-- 23&#45;inner&#45;node -->
<!-- 15&#45;&gt;23&#45;inner&#45;node -->
<g id="edge15" class="edge"><path fill="none" stroke="black" d="M302.5,-360.649C302.5,-337.987 302.5,-309.163 302.5,-307.116L302.525,-304.864"/>
<polygon fill="none" stroke="black" points="299,-360.822 302.5,-370.822 306,-360.822 299,-360.822"/>
</g>
<!-- 16 -->
<g id="node5" class="node"><defs>
<linearGradient id="l_5" gradientUnits="userSpaceOnUse" x1="476.5" y1="-371" x2="476.5" y2="-407">
<stop offset="0" style="stop-color:#ffffbb;stop-opacity:1.;"/>
<stop offset="1" style="stop-color:#ffffee;stop-opacity:1.;"/>
</linearGradient>
</defs>
<polygon fill="url(#l_5)" stroke="black" points="560.5,-407 392.5,-407 392.5,-371 560.5,-371 560.5,-407"/>
<text text-anchor="start" x="402.5" y="-387.2" font-family="Arial" font-weight="bold" font-style="italic" font-size="11.00" fill="black"><a fill="navy" href="../reference/Piping/PipingNetworkSegmentItem.html" target="_parent">PipingNetworkSegmentItem</a></text>
</g>
<!-- 24&#45;inner&#45;node -->
<!-- 16&#45;&gt;24&#45;inner&#45;node -->
<g id="edge17" class="edge"><path fill="none" stroke="black" d="M476.5,-360.649C476.5,-337.987 476.5,-309.163 476.5,-307.116L476.617,-304.951"/>
<polygon fill="none" stroke="black" points="473,-360.822 476.5,-370.822 480,-360.822 473,-360.822"/>
</g>
<!-- 17 -->
<g id="node6" class="node"><defs>
<linearGradient id="l_6" gradientUnits="userSpaceOnUse" x1="637.5" y1="-371" x2="637.5" y2="-407">
<stop offset="0" style="stop-color:#ffffbb;stop-opacity:1.;"/>
<stop offset="1" style="stop-color:#ffffee;stop-opacity:1.;"/>
</linearGradient>
</defs>
<polygon fill="url(#l_6)" stroke="black" points="696,-407 579,-407 579,-371 696,-371 696,-407"/>
<text text-anchor="start" x="589.5" y="-387.2" font-family="Arial" font-weight="bold" font-style="italic" font-size="11.00" fill="black"><a fill="navy" href="../reference/Piping/PipingNodeOwner.html" target="_parent">PipingNodeOwner</a></text>
</g>
<!-- 43 -->
<g id="node14" class="node"><defs>
<linearGradient id="l_7" gradientUnits="userSpaceOnUse" x1="697.5" y1="-288" x2="697.5" y2="-324">
<stop offset="0" style="stop-color:#ffffbb;stop-opacity:1.;"/>
<stop offset="1" style="stop-color:#ffffee;stop-opacity:1.;"/>
</linearGradient>
</defs>
<polygon fill="url(#l_7)" stroke="black" points="739,-324 656,-324 656,-288 739,-288 739,-324"/>
<text text-anchor="start" x="666.5" y="-304.2" font-family="Arial" font-weight="bold" font-size="11.00" fill="black"><a fill="navy" href="../reference/Piping/PipingNode.html" target="_parent">PipingNode</a></text>
</g>
<!-- 17&#45;&gt;43 -->
<g id="edge5" class="edge"><path fill="none" stroke="#000000" d="M657.4,-361.135C664.244,-351.896 671.88,-341.586 678.638,-332.463"/>
<polygon fill="#000000" stroke="#000000" points="657.367,-361.179 657.01,-368.382 650.224,-370.822 650.582,-363.62 657.367,-361.179"/>
<polygon fill="#000000" stroke="#000000" points="684.794,-324.153 682.458,-334.867 681.818,-328.171 678.842,-332.189 678.842,-332.189 678.842,-332.189 681.818,-328.171 675.226,-329.51 684.794,-324.153 684.794,-324.153"/>
<text text-anchor="start" x="675.5" y="-344.5" font-family="Arial" font-size="10.00" fill="black"><a fill="navy" href="../reference/Piping/PipingNodeOwner.html#dexpi-piping-pipingnodeowner-nodes" target="_parent">Nodes</a></text>
<text text-anchor="start" x="676.794" y="-327.153" font-family="Arial" font-size="10.00" fill="black">*</text>
<text text-anchor="start" x="621.224" y="-360.822" font-family="Arial" font-size="10.00" fill="black">0..1</text>
</g>
<!-- 25&#45;inner&#45;node -->
<!-- 17&#45;&gt;25&#45;inner&#45;node -->
<g id="edge19" class="edge"><path fill="none" stroke="black" d="M637.5,-360.649C637.5,-337.987 637.5,-309.163 637.5,-307.116L637.5,-304.951"/>
<polygon fill="none" stroke="black" points="634,-360.822 637.5,-370.822 641,-360.822 634,-360.822"/>
</g>
<!-- 18 -->
<g id="node7" class="node"><defs>
<linearGradient id="l_8" gradientUnits="userSpaceOnUse" x1="900.5" y1="-371" x2="900.5" y2="-407">
<stop offset="0" style="stop-color:#ffffbb;stop-opacity:1.;"/>
<stop offset="1" style="stop-color:#ffffee;stop-opacity:1.;"/>
</linearGradient>
</defs>
<polygon fill="url(#l_8)" stroke="black" points="957.5,-407 843.5,-407 843.5,-371 957.5,-371 957.5,-407"/>
<text text-anchor="start" x="853.5" y="-387.2" font-family="Arial" font-weight="bold" font-style="italic" font-size="11.00" fill="black"><a fill="navy" href="../reference/Piping/PipingSourceItem.html" target="_parent">PipingSourceItem</a></text>
</g>
<!-- 26&#45;inner&#45;node -->
<!-- 18&#45;&gt;26&#45;inner&#45;node -->
<g id="edge21" class="edge"><path fill="none" stroke="black" d="M900.5,-360.649C900.5,-337.987 900.5,-309.163 900.5,-307.116L900.452,-304.988"/>
<polygon fill="none" stroke="black" points="897,-360.822 900.5,-370.822 904,-360.822 897,-360.822"/>
</g>
<!-- 19 -->
<g id="node8" class="node"><defs>
<linearGradient id="l_9" gradientUnits="userSpaceOnUse" x1="769.5" y1="-371" x2="769.5" y2="-407">
<stop offset="0" style="stop-color:#ffffbb;stop-opacity:1.;"/>
<stop offset="1" style="stop-color:#ffffee;stop-opacity:1.;"/>
</linearGradient>
</defs>
<polygon fill="url(#l_9)" stroke="black" points="825,-407 714,-407 714,-371 825,-371 825,-407"/>
<text text-anchor="start" x="724.5" y="-387.2" font-family="Arial" font-weight="bold" font-style="italic" font-size="11.00" fill="black"><a fill="navy" href="../reference/Piping/PipingTargetItem.html" target="_parent">PipingTargetItem</a></text>
</g>
<!-- 27&#45;inner&#45;node -->
<!-- 19&#45;&gt;27&#45;inner&#45;node -->
<g id="edge23" class="edge"><path fill="none" stroke="black" d="M769.5,-360.649C769.5,-337.987 769.5,-309.163 769.5,-307.116L769.369,-304.879"/>
<polygon fill="none" stroke="black" points="766,-360.822 769.5,-370.822 773,-360.822 766,-360.822"/>
</g>
<!-- 20 -->
<g id="node9" class="node"><defs>
<linearGradient id="l_10" gradientUnits="userSpaceOnUse" x1="1030.5" y1="-371" x2="1030.5" y2="-407">
<stop offset="0" style="stop-color:#ffffbb;stop-opacity:1.;"/>
<stop offset="1" style="stop-color:#ffffee;stop-opacity:1.;"/>
</linearGradient>
</defs>
<polygon fill="url(#l_10)" stroke="black" points="1085,-407 976,-407 976,-371 1085,-371 1085,-407"/>
<text text-anchor="start" x="986.5" y="-387.2" font-family="Arial" font-weight="bold" font-style="italic" font-size="11.00" fill="black"><a fill="navy" href="../reference/Instrumentation/SensingLocation.html" target="_parent">SensingLocation</a></text>
</g>
<!-- 28&#45;inner&#45;node -->
<!-- 20&#45;&gt;28&#45;inner&#45;node -->
<g id="edge25" class="edge"><path fill="none" stroke="black" d="M1030.5,-360.649C1030.5,-337.987 1030.5,-309.163 1030.5,-307.116L1030.43,-304.988"/>
<polygon fill="none" stroke="black" points="1027,-360.822 1030.5,-370.822 1034,-360.822 1027,-360.822"/>
</g>
<!-- 31 -->
<g id="node10" class="node"><defs>
<linearGradient id="l_11" gradientUnits="userSpaceOnUse" x1="74.5" y1="-454" x2="74.5" y2="-490">
<stop offset="0" style="stop-color:#ffffbb;stop-opacity:1.;"/>
<stop offset="1" style="stop-color:#ffffee;stop-opacity:1.;"/>
</linearGradient>
</defs>
<polygon fill="url(#l_11)" stroke="black" points="149,-490 0,-490 0,-454 149,-454 149,-490"/>
<text text-anchor="start" x="10.5" y="-470.2" font-family="Arial" font-weight="bold" font-size="11.00" fill="black"><a fill="navy" href="../reference/Graphics/AttributeRepresentation.html" target="_parent">AttributeRepresentation</a></text>
</g>
<!-- 31&#45;&gt;14 -->
<g id="edge1" class="edge"><path fill="none" stroke="#000000" d="M91.4659,-453.822C102.815,-442.331 117.916,-427.041 130.493,-414.307"/>
<polygon fill="#000000" stroke="#000000" points="137.559,-407.153 133.733,-417.43 134.045,-410.711 130.531,-414.268 130.531,-414.268 130.531,-414.268 134.045,-410.711 127.33,-411.106 137.559,-407.153 137.559,-407.153"/>
<text text-anchor="start" x="125" y="-427.5" font-family="Arial" font-size="10.00" fill="black"><a fill="navy" href="../reference/Graphics/AttributeRepresentation.html#dexpi-graphics-attributerepresentation-object" target="_parent">Object</a></text>
<text text-anchor="start" x="129.559" y="-410.153" font-family="Arial" font-size="10.00" fill="black"></text>
<text text-anchor="start" x="75.4659" y="-443.822" font-family="Arial" font-size="10.00" fill="black">*</text>
</g>
<!-- 34 -->
<g id="node11" class="node"><defs>
<linearGradient id="l_12" gradientUnits="userSpaceOnUse" x1="235.5" y1="-454" x2="235.5" y2="-490">
<stop offset="0" style="stop-color:#ffffbb;stop-opacity:1.;"/>
<stop offset="1" style="stop-color:#ffffee;stop-opacity:1.;"/>
</linearGradient>
</defs>
<polygon fill="url(#l_12)" stroke="black" points="304,-490 167,-490 167,-454 304,-454 304,-490"/>
<text text-anchor="start" x="177.5" y="-470.2" font-family="Arial" font-weight="bold" font-size="11.00" fill="black"><a fill="navy" href="../reference/Graphics/RepresentationGroup.html" target="_parent">RepresentationGroup</a></text>
</g>
<!-- 34&#45;&gt;14 -->
<g id="edge2" class="edge"><path fill="none" stroke="#000000" d="M218.322,-453.822C206.831,-442.331 191.541,-427.041 178.807,-414.307"/>
<polygon fill="#000000" stroke="#000000" points="171.653,-407.153 181.906,-411.042 175.189,-410.689 178.724,-414.224 178.724,-414.224 178.724,-414.224 175.189,-410.689 175.542,-417.406 171.653,-407.153 171.653,-407.153"/>
<text text-anchor="start" x="204.5" y="-427.5" font-family="Arial" font-size="10.00" fill="black"><a fill="navy" href="../reference/Graphics/RepresentationGroup.html#dexpi-graphics-representationgroup-represents" target="_parent">Represents</a></text>
<text text-anchor="start" x="163.653" y="-410.153" font-family="Arial" font-size="10.00" fill="black"></text>
<text text-anchor="start" x="202.322" y="-443.822" font-family="Arial" font-size="10.00" fill="black">*</text>
</g>
<!-- 40 -->
<g id="node13" class="node"><defs>
<linearGradient id="l_13" gradientUnits="userSpaceOnUse" x1="677.5" y1="-454" x2="677.5" y2="-490">
<stop offset="0" style="stop-color:#ffffbb;stop-opacity:1.;"/>
<stop offset="1" style="stop-color:#ffffee;stop-opacity:1.;"/>
</linearGradient>
</defs>
<polygon fill="url(#l_13)" stroke="black" points="750.5,-490 604.5,-490 604.5,-454 750.5,-454 750.5,-490"/>
<text text-anchor="start" x="614.5" y="-470.2" font-family="Arial" font-weight="bold" font-size="11.00" fill="black"><a fill="navy" href="../reference/Piping/PipingNetworkSegment.html" target="_parent">PipingNetworkSegment</a></text>
</g>
<!-- 40&#45;&gt;16 -->
<g id="edge4" class="edge"><path fill="none" stroke="#000000" d="M623.623,-449.288C594.057,-437.374 557.576,-422.672 528.338,-410.89"/>
<polygon fill="#000000" stroke="#000000" points="623.743,-449.337 630.803,-447.869 634.873,-453.822 627.813,-455.289 623.743,-449.337"/>
<polygon fill="#000000" stroke="#000000" points="518.72,-407.014 529.678,-406.578 523.358,-408.883 527.996,-410.752 527.996,-410.752 527.996,-410.752 523.358,-408.883 526.314,-414.926 518.72,-407.014 518.72,-407.014"/>
<text text-anchor="start" x="598" y="-427.5" font-family="Arial" font-size="10.00" fill="black"><a fill="navy" href="../reference/Piping/PipingNetworkSegment.html#dexpi-piping-pipingnetworksegment-items" target="_parent">Items</a></text>
<text text-anchor="start" x="510.72" y="-410.014" font-family="Arial" font-size="10.00" fill="black">*</text>
<text text-anchor="start" x="605.873" y="-443.822" font-family="Arial" font-size="10.00" fill="black">0..1</text>
</g>
<!-- 40&#45;&gt;18 -->
<g id="edge7" class="edge"><path fill="none" stroke="#000000" d="M704.814,-453.997C712.569,-448.99 720.954,-443.402 728.5,-438 737.248,-431.737 737.703,-427.447 747.5,-423 780.343,-408.092 793.583,-414.253 833.373,-406.808"/>
<polygon fill="#000000" stroke="#000000" points="843.176,-404.804 834.28,-411.216 838.277,-405.805 833.378,-406.807 833.378,-406.807 833.378,-406.807 838.277,-405.805 832.477,-402.398 843.176,-404.804 843.176,-404.804"/>
<text text-anchor="start" x="749.5" y="-427.5" font-family="Arial" font-size="10.00" fill="black"><a fill="navy" href="../reference/Piping/PipingNetworkSegment.html#dexpi-piping-pipingnetworksegment-sourceitem" target="_parent">SourceItem</a></text>
<text text-anchor="start" x="822.176" y="-407.804" font-family="Arial" font-size="10.00" fill="black">0..1</text>
<text text-anchor="start" x="675.814" y="-443.997" font-family="Arial" font-size="10.00" fill="black">0..1</text>
</g>
<!-- 40&#45;&gt;19 -->
<g id="edge8" class="edge"><path fill="none" stroke="#000000" d="M673.401,-453.963C672.028,-444.047 672.188,-431.807 678.5,-423 682.323,-417.666 692.281,-412.516 704.277,-407.933"/>
<polygon fill="#000000" stroke="#000000" points="713.779,-404.546 705.87,-412.143 709.069,-406.225 704.359,-407.904 704.359,-407.904 704.359,-407.904 709.069,-406.225 702.848,-403.665 713.779,-404.546 713.779,-404.546"/>
<text text-anchor="start" x="680.5" y="-427.5" font-family="Arial" font-size="10.00" fill="black"><a fill="navy" href="../reference/Piping/PipingNetworkSegment.html#dexpi-piping-pipingnetworksegment-targetitem" target="_parent">TargetItem</a></text>
<text text-anchor="start" x="692.779" y="-407.546" font-family="Arial" font-size="10.00" fill="black">0..1</text>
<text text-anchor="start" x="644.401" y="-443.963" font-family="Arial" font-size="10.00" fill="black">0..1</text>
</g>
<!-- 46 -->
<g id="node15" class="node"><defs>
<linearGradient id="l_14" gradientUnits="userSpaceOnUse" x1="840.5" y1="-454" x2="840.5" y2="-490">
<stop offset="0" style="stop-color:#ffffbb;stop-opacity:1.;"/>
<stop offset="1" style="stop-color:#ffffee;stop-opacity:1.;"/>
</linearGradient>
</defs>
<polygon fill="url(#l_14)" stroke="black" points="898,-490 783,-490 783,-454 898,-454 898,-490"/>
<text text-anchor="start" x="793.5" y="-470.2" font-family="Arial" font-weight="bold" font-style="italic" font-size="11.00" fill="black"><a fill="navy" href="../reference/Piping/PipingConnection.html" target="_parent">PipingConnection</a></text>
</g>
<!-- 46&#45;&gt;18 -->
<g id="edge6" class="edge"><path fill="none" stroke="#000000" d="M863.349,-453.937C868.763,-449.182 874.205,-443.735 878.5,-438 883.26,-431.644 887.317,-424.093 890.603,-416.884"/>
<polygon fill="#000000" stroke="#000000" points="894.598,-407.41 894.859,-418.373 892.655,-412.017 890.712,-416.624 890.712,-416.624 890.712,-416.624 892.655,-412.017 886.566,-414.876 894.598,-407.41 894.598,-407.41"/>
<text text-anchor="start" x="890.5" y="-427.5" font-family="Arial" font-size="10.00" fill="black"><a fill="navy" href="../reference/Piping/PipingConnection.html#dexpi-piping-pipingconnection-sourceitem" target="_parent">SourceItem</a></text>
<text text-anchor="start" x="873.598" y="-410.41" font-family="Arial" font-size="10.00" fill="black">0..1</text>
<text text-anchor="start" x="834.349" y="-443.937" font-family="Arial" font-size="10.00" fill="black">0..1</text>
</g>
<!-- 46&#45;&gt;19 -->
<g id="edge9" class="edge"><path fill="none" stroke="#000000" d="M829.29,-453.933C822.775,-444.468 814.161,-432.688 805.5,-423 802.842,-420.027 799.946,-417.033 796.989,-414.125"/>
<polygon fill="#000000" stroke="#000000" points="789.613,-407.138 799.967,-410.748 793.243,-410.576 796.873,-414.015 796.873,-414.015 796.873,-414.015 793.243,-410.576 793.778,-417.282 789.613,-407.138 789.613,-407.138"/>
<text text-anchor="start" x="819.5" y="-427.5" font-family="Arial" font-size="10.00" fill="black"><a fill="navy" href="../reference/Piping/PipingConnection.html#dexpi-piping-pipingconnection-targetitem" target="_parent">TargetItem</a></text>
<text text-anchor="start" x="768.613" y="-410.138" font-family="Arial" font-size="10.00" fill="black">0..1</text>
<text text-anchor="start" x="800.29" y="-443.933" font-family="Arial" font-size="10.00" fill="black">0..1</text>
</g>
<!-- 55 -->
<g id="node16" class="node"><defs>
<linearGradient id="l_15" gradientUnits="userSpaceOnUse" x1="1030.5" y1="-454" x2="1030.5" y2="-490">
<stop offset="0" style="stop-color:#ffffbb;stop-opacity:1.;"/>
<stop offset="1" style="stop-color:#ffffee;stop-opacity:1.;"/>
</linearGradient>
</defs>
<polygon fill="url(#l_15)" stroke="black" points="1132.5,-490 928.5,-490 928.5,-454 1132.5,-454 1132.5,-490"/>
<text text-anchor="start" x="938.5" y="-470.2" font-family="Arial" font-weight="bold" font-size="11.00" fill="black"><a fill="navy" href="../reference/Instrumentation/ProcessSignalGeneratingFunction.html" target="_parent">ProcessSignalGeneratingFunction</a></text>
</g>
<!-- 55&#45;&gt;20 -->
<g id="edge10" class="edge"><path fill="none" stroke="#000000" d="M1030.5,-453.822C1030.5,-443.19 1030.5,-429.306 1030.5,-417.204"/>
<polygon fill="#000000" stroke="#000000" points="1030.5,-407.153 1035,-417.153 1030.5,-412.153 1030.5,-417.153 1030.5,-417.153 1030.5,-417.153 1030.5,-412.153 1026,-417.153 1030.5,-407.153 1030.5,-407.153"/>
<text text-anchor="start" x="1033" y="-427.5" font-family="Arial" font-size="10.00" fill="black"><a fill="navy" href="../reference/Instrumentation/ProcessSignalGeneratingFunction.html#dexpi-instrumentation-processsignalgeneratingfunction-sensinglocation" target="_parent">SensingLocation</a></text>
<text text-anchor="start" x="1009.5" y="-410.153" font-family="Arial" font-size="10.00" fill="black">0..1</text>
<text text-anchor="start" x="1014.5" y="-443.822" font-family="Arial" font-size="10.00" fill="black">*</text>
</g>
<!-- 21&#45;inner&#45;node&#45;&gt;0 -->
<g id="edge12" class="edge"><path fill="none" stroke="black" d="M637.5,-184.922C637.5,-183.759 637.5,-169.786 637.5,-152.257"/>
</g>
<!-- 22&#45;inner&#45;node&#45;&gt;13 -->
<g id="edge14" class="edge"><path fill="none" stroke="black" d="M154.578,-304.984C157.832,-304.33 262.648,-283.29 347.5,-271 427.362,-259.433 520.086,-249.487 578.766,-243.621"/>
</g>
<!-- 23&#45;inner&#45;node&#45;&gt;13 -->
<g id="edge16" class="edge"><path fill="none" stroke="black" d="M302.525,-304.864C302.773,-303.522 304.968,-292.644 311.5,-288 353.384,-258.223 496.807,-245.621 578.785,-240.749"/>
</g>
<!-- 24&#45;inner&#45;node&#45;&gt;13 -->
<g id="edge18" class="edge"><path fill="none" stroke="black" d="M476.617,-304.951C479.854,-303.604 549.738,-274.522 596.326,-255.135"/>
</g>
<!-- 25&#45;inner&#45;node&#45;&gt;13 -->
<g id="edge20" class="edge"><path fill="none" stroke="black" d="M637.5,-304.951C637.5,-303.604 637.5,-274.522 637.5,-255.135"/>
</g>
<!-- 26&#45;inner&#45;node&#45;&gt;13 -->
<g id="edge22" class="edge"><path fill="none" stroke="black" d="M900.452,-304.988C897.651,-304.274 772.671,-272.435 696.044,-252.914"/>
</g>
<!-- 27&#45;inner&#45;node&#45;&gt;13 -->
<g id="edge24" class="edge"><path fill="none" stroke="black" d="M769.369,-304.879C768.076,-303.689 757.423,-293.978 747.5,-288 726.477,-275.334 701.694,-263.801 680.979,-255.012"/>
</g>
<!-- 28&#45;inner&#45;node&#45;&gt;13 -->
<g id="edge26" class="edge"><path fill="none" stroke="black" d="M1030.43,-304.988C1025.87,-304.211 804.855,-266.531 696.349,-248.033"/>
</g>
</g>
</svg>