<!DOCTYPE svg PUBLIC "-//W3C//DTD SVG 1.1//EN" "http://www.w3.org/Graphics/SVG/1.1/DTD/svg11.dtd">
<!-- Generated by graphviz version 2.38.0 (20140413.2041)
 --><!-- Title: G Pages: 1 --><svg xmlns="http://www.w3.org/2000/svg" xmlns:xlink="http://www.w3.org/1999/xlink" width="786pt" height="279pt" viewBox="0.00 0.00 785.50 279.00">
<g id="graph0" class="graph" transform="scale(1 1) rotate(0) translate(4 275)">
<!-- 0 -->
<g id="node1" class="node"><defs>
<linearGradient id="l_0" gradientUnits="userSpaceOnUse" x1="322.5" y1="-1.77636e-014" x2="322.5" y2="-36">
<stop offset="0" style="stop-color:#ffffbb;stop-opacity:1.;"/>
<stop offset="1" style="stop-color:#ffffee;stop-opacity:1.;"/>
</linearGradient>
</defs>
<polygon fill="url(#l_0)" stroke="black" points="349.5,-36 295.5,-36 295.5,-0 349.5,-0 349.5,-36"/>
<text text-anchor="start" x="310.5" y="-16.2" font-family="Arial" font-weight="bold" font-size="11.00" fill="black">Pipe</text>
</g>
<!-- 1 -->
<g id="node2" class="node"><defs>
<linearGradient id="l_1" gradientUnits="userSpaceOnUse" x1="154.5" y1="-152" x2="154.5" y2="-188">
<stop offset="0" style="stop-color:#ffffbb;stop-opacity:1.;"/>
<stop offset="1" style="stop-color:#ffffee;stop-opacity:1.;"/>
</linearGradient>
</defs>
<polygon fill="url(#l_1)" stroke="black" points="212,-188 97,-188 97,-152 212,-152 212,-188"/>
<text text-anchor="start" x="107.5" y="-168.2" font-family="Arial" font-weight="bold" font-style="italic" font-size="11.00" fill="black"><a fill="navy" href="../reference/DexpiModel/ConceptualObject.html" target="_parent">ConceptualObject</a></text>
</g>
<!-- 4&#45;inner&#45;node -->
<!-- 1&#45;&gt;4&#45;inner&#45;node -->
<g id="edge9" class="edge"><path fill="none" stroke="black" d="M154.5,-141.649C154.5,-118.987 154.5,-90.1627 154.5,-88.1156L154.529,-85.8692"/>
<polygon fill="none" stroke="black" points="151,-141.822 154.5,-151.822 158,-141.822 151,-141.822"/>
</g>
<!-- 2 -->
<g id="node3" class="node"><defs>
<linearGradient id="l_2" gradientUnits="userSpaceOnUse" x1="322.5" y1="-152" x2="322.5" y2="-188">
<stop offset="0" style="stop-color:#ffffbb;stop-opacity:1.;"/>
<stop offset="1" style="stop-color:#ffffee;stop-opacity:1.;"/>
</linearGradient>
</defs>
<polygon fill="url(#l_2)" stroke="black" points="394.5,-188 250.5,-188 250.5,-152 394.5,-152 394.5,-188"/>
<text text-anchor="start" x="260.5" y="-168.2" font-family="Arial" font-weight="bold" font-style="italic" font-size="11.00" fill="black"><a fill="navy" href="../reference/Customization/CustomAttributeOwner.html" target="_parent">CustomAttributeOwner</a></text>
</g>
<!-- 15 -->
<g id="node7" class="node"><defs>
<linearGradient id="l_3" gradientUnits="userSpaceOnUse" x1="227.5" y1="-69" x2="227.5" y2="-105">
<stop offset="0" style="stop-color:#ffffbb;stop-opacity:1.;"/>
<stop offset="1" style="stop-color:#ffffee;stop-opacity:1.;"/>
</linearGradient>
</defs>
<polygon fill="url(#l_3)" stroke="black" points="282,-105 173,-105 173,-69 282,-69 282,-105"/>
<text text-anchor="start" x="183.5" y="-85.2" font-family="Arial" font-weight="bold" font-style="italic" font-size="11.00" fill="black"><a fill="navy" href="../reference/Customization/CustomAttribute.html" target="_parent">CustomAttribute</a></text>
</g>
<!-- 2&#45;&gt;15 -->
<g id="edge3" class="edge"><path fill="none" stroke="#000000" d="M248.566,-145.359C244.887,-142.576 241.487,-139.469 238.5,-136 233.571,-130.275 230.734,-122.784 229.132,-115.428"/>
<polygon fill="#000000" stroke="#000000" points="248.776,-145.495 255.986,-145.381 258.865,-151.992 251.655,-152.106 248.776,-145.495"/>
<polygon fill="#000000" stroke="#000000" points="227.601,-105.317 233.548,-114.53 228.35,-110.26 229.098,-115.204 229.098,-115.204 229.098,-115.204 228.35,-110.26 224.649,-115.878 227.601,-105.317 227.601,-105.317"/>
<text text-anchor="start" x="240.5" y="-125.5" font-family="Arial" font-size="10.00" fill="black"><a fill="navy" href="../reference/Customization/CustomAttributeOwner.html#dexpi-customization-customattributeowner-customattributes" target="_parent">CustomAttributes</a></text>
<text text-anchor="start" x="219.601" y="-108.317" font-family="Arial" font-size="10.00" fill="black">*</text>
<text text-anchor="start" x="229.865" y="-141.992" font-family="Arial" font-size="10.00" fill="black">0..1</text>
</g>
<!-- 5&#45;inner&#45;node -->
<!-- 2&#45;&gt;5&#45;inner&#45;node -->
<g id="edge11" class="edge"><path fill="none" stroke="black" d="M322.5,-141.649C322.5,-118.987 322.5,-90.1627 322.5,-88.1156L322.5,-85.9514"/>
<polygon fill="none" stroke="black" points="319,-141.822 322.5,-151.822 326,-141.822 319,-141.822"/>
</g>
<!-- 3 -->
<g id="node4" class="node"><defs>
<linearGradient id="l_4" gradientUnits="userSpaceOnUse" x1="704.5" y1="-152" x2="704.5" y2="-188">
<stop offset="0" style="stop-color:#ffffbb;stop-opacity:1.;"/>
<stop offset="1" style="stop-color:#ffffee;stop-opacity:1.;"/>
</linearGradient>
</defs>
<polygon fill="url(#l_4)" stroke="black" points="762,-188 647,-188 647,-152 762,-152 762,-188"/>
<text text-anchor="start" x="657.5" y="-168.2" font-family="Arial" font-weight="bold" font-style="italic" font-size="11.00" fill="black"><a fill="navy" href="../reference/Piping/PipingConnection.html" target="_parent">PipingConnection</a></text>
</g>
<!-- 18 -->
<g id="node8" class="node"><defs>
<linearGradient id="l_5" gradientUnits="userSpaceOnUse" x1="398.5" y1="-69" x2="398.5" y2="-105">
<stop offset="0" style="stop-color:#ffffbb;stop-opacity:1.;"/>
<stop offset="1" style="stop-color:#ffffee;stop-opacity:1.;"/>
</linearGradient>
</defs>
<polygon fill="url(#l_5)" stroke="black" points="455.5,-105 341.5,-105 341.5,-69 455.5,-69 455.5,-105"/>
<text text-anchor="start" x="351.5" y="-85.2" font-family="Arial" font-weight="bold" font-style="italic" font-size="11.00" fill="black"><a fill="navy" href="../reference/Piping/PipingSourceItem.html" target="_parent">PipingSourceItem</a></text>
</g>
<!-- 3&#45;&gt;18 -->
<g id="edge4" class="edge"><path fill="none" stroke="#000000" d="M646.774,-168.708C574.676,-167.264 456.524,-161.005 421.5,-136 414.335,-130.885 409.318,-122.93 405.842,-114.956"/>
<polygon fill="#000000" stroke="#000000" points="402.326,-105.412 410.005,-113.24 404.054,-110.103 405.783,-114.795 405.783,-114.795 405.783,-114.795 404.054,-110.103 401.56,-116.351 402.326,-105.412 402.326,-105.412"/>
<text text-anchor="start" x="423.5" y="-125.5" font-family="Arial" font-size="10.00" fill="black"><a fill="navy" href="../reference/Piping/PipingConnection.html#dexpi-piping-pipingconnection-sourceitem" target="_parent">SourceItem</a></text>
<text text-anchor="start" x="381.326" y="-108.412" font-family="Arial" font-size="10.00" fill="black">0..1</text>
<text text-anchor="start" x="617.774" y="-169.708" font-family="Arial" font-size="10.00" fill="black">0..1</text>
</g>
<!-- 21 -->
<g id="node9" class="node"><defs>
<linearGradient id="l_6" gradientUnits="userSpaceOnUse" x1="515.5" y1="-69" x2="515.5" y2="-105">
<stop offset="0" style="stop-color:#ffffbb;stop-opacity:1.;"/>
<stop offset="1" style="stop-color:#ffffee;stop-opacity:1.;"/>
</linearGradient>
</defs>
<polygon fill="url(#l_6)" stroke="black" points="557,-105 474,-105 474,-69 557,-69 557,-105"/>
<text text-anchor="start" x="484.5" y="-85.2" font-family="Arial" font-weight="bold" font-size="11.00" fill="black"><a fill="navy" href="../reference/Piping/PipingNode.html" target="_parent">PipingNode</a></text>
</g>
<!-- 3&#45;&gt;21 -->
<g id="edge5" class="edge"><path fill="none" stroke="#000000" d="M646.91,-168.645C588.347,-166.914 503.334,-160.16 482.5,-136 476.259,-128.763 479.122,-120.328 485.219,-112.566"/>
<polygon fill="#000000" stroke="#000000" points="492.176,-105.097 488.653,-115.482 488.768,-108.756 485.36,-112.415 485.36,-112.415 485.36,-112.415 488.768,-108.756 482.067,-109.347 492.176,-105.097 492.176,-105.097"/>
<text text-anchor="start" x="484.5" y="-125.5" font-family="Arial" font-size="10.00" fill="black"><a fill="navy" href="../reference/Piping/PipingConnection.html#dexpi-piping-pipingconnection-sourcenode" target="_parent">SourceNode</a></text>
<text text-anchor="start" x="471.176" y="-108.097" font-family="Arial" font-size="10.00" fill="black">0..1</text>
<text text-anchor="start" x="617.91" y="-158.645" font-family="Arial" font-size="10.00" fill="black">0..1</text>
</g>
<!-- 3&#45;&gt;21 -->
<g id="edge7" class="edge"><path fill="none" stroke="#000000" d="M646.713,-157.592C626.195,-152.42 603.294,-145.33 583.5,-136 569.616,-129.456 555.547,-120.079 543.836,-111.346"/>
<polygon fill="#000000" stroke="#000000" points="535.762,-105.151 546.435,-107.669 539.729,-108.195 543.696,-111.239 543.696,-111.239 543.696,-111.239 539.729,-108.195 540.957,-114.809 535.762,-105.151 535.762,-105.151"/>
<text text-anchor="start" x="585.5" y="-125.5" font-family="Arial" font-size="10.00" fill="black"><a fill="navy" href="../reference/Piping/PipingConnection.html#dexpi-piping-pipingconnection-targetnode" target="_parent">TargetNode</a></text>
<text text-anchor="start" x="514.762" y="-108.151" font-family="Arial" font-size="10.00" fill="black">0..1</text>
<text text-anchor="start" x="617.713" y="-147.592" font-family="Arial" font-size="10.00" fill="black">0..1</text>
</g>
<!-- 24 -->
<g id="node10" class="node"><defs>
<linearGradient id="l_7" gradientUnits="userSpaceOnUse" x1="630.5" y1="-69" x2="630.5" y2="-105">
<stop offset="0" style="stop-color:#ffffbb;stop-opacity:1.;"/>
<stop offset="1" style="stop-color:#ffffee;stop-opacity:1.;"/>
</linearGradient>
</defs>
<polygon fill="url(#l_7)" stroke="black" points="686,-105 575,-105 575,-69 686,-69 686,-105"/>
<text text-anchor="start" x="585.5" y="-85.2" font-family="Arial" font-weight="bold" font-style="italic" font-size="11.00" fill="black"><a fill="navy" href="../reference/Piping/PipingTargetItem.html" target="_parent">PipingTargetItem</a></text>
</g>
<!-- 3&#45;&gt;24 -->
<g id="edge6" class="edge"><path fill="none" stroke="#000000" d="M669.169,-151.856C662.353,-147.39 655.719,-142.09 650.5,-136 645.33,-129.968 641.352,-122.411 638.356,-115.09"/>
<polygon fill="#000000" stroke="#000000" points="634.861,-105.419 642.492,-113.294 636.56,-110.121 638.26,-114.824 638.26,-114.824 638.26,-114.824 636.56,-110.121 634.028,-116.353 634.861,-105.419 634.861,-105.419"/>
<text text-anchor="start" x="652.5" y="-125.5" font-family="Arial" font-size="10.00" fill="black"><a fill="navy" href="../reference/Piping/PipingConnection.html#dexpi-piping-pipingconnection-targetitem" target="_parent">TargetItem</a></text>
<text text-anchor="start" x="613.861" y="-108.419" font-family="Arial" font-size="10.00" fill="black">0..1</text>
<text text-anchor="start" x="640.169" y="-141.856" font-family="Arial" font-size="10.00" fill="black">0..1</text>
</g>
<!-- 6&#45;inner&#45;node -->
<!-- 3&#45;&gt;6&#45;inner&#45;node -->
<g id="edge13" class="edge"><path fill="none" stroke="black" d="M704.5,-141.649C704.5,-118.987 704.5,-90.1627 704.5,-88.1156L704.468,-85.8624"/>
<polygon fill="none" stroke="black" points="701,-141.822 704.5,-151.822 708,-141.822 701,-141.822"/>
</g>
<!-- 9 -->
<g id="node5" class="node"><defs>
<linearGradient id="l_8" gradientUnits="userSpaceOnUse" x1="74.5" y1="-235" x2="74.5" y2="-271">
<stop offset="0" style="stop-color:#ffffbb;stop-opacity:1.;"/>
<stop offset="1" style="stop-color:#ffffee;stop-opacity:1.;"/>
</linearGradient>
</defs>
<polygon fill="url(#l_8)" stroke="black" points="149,-271 0,-271 0,-235 149,-235 149,-271"/>
<text text-anchor="start" x="10.5" y="-251.2" font-family="Arial" font-weight="bold" font-size="11.00" fill="black"><a fill="navy" href="../reference/Graphics/AttributeRepresentation.html" target="_parent">AttributeRepresentation</a></text>
</g>
<!-- 9&#45;&gt;1 -->
<g id="edge1" class="edge"><path fill="none" stroke="#000000" d="M91.4659,-234.822C102.815,-223.331 117.916,-208.041 130.493,-195.307"/>
<polygon fill="#000000" stroke="#000000" points="137.559,-188.153 133.733,-198.43 134.045,-191.711 130.531,-195.268 130.531,-195.268 130.531,-195.268 134.045,-191.711 127.33,-192.106 137.559,-188.153 137.559,-188.153"/>
<text text-anchor="start" x="125" y="-208.5" font-family="Arial" font-size="10.00" fill="black"><a fill="navy" href="../reference/Graphics/AttributeRepresentation.html#dexpi-graphics-attributerepresentation-object" target="_parent">Object</a></text>
<text text-anchor="start" x="129.559" y="-191.153" font-family="Arial" font-size="10.00" fill="black"></text>
<text text-anchor="start" x="75.4659" y="-224.822" font-family="Arial" font-size="10.00" fill="black">*</text>
</g>
<!-- 12 -->
<g id="node6" class="node"><defs>
<linearGradient id="l_9" gradientUnits="userSpaceOnUse" x1="235.5" y1="-235" x2="235.5" y2="-271">
<stop offset="0" style="stop-color:#ffffbb;stop-opacity:1.;"/>
<stop offset="1" style="stop-color:#ffffee;stop-opacity:1.;"/>
</linearGradient>
</defs>
<polygon fill="url(#l_9)" stroke="black" points="304,-271 167,-271 167,-235 304,-235 304,-271"/>
<text text-anchor="start" x="177.5" y="-251.2" font-family="Arial" font-weight="bold" font-size="11.00" fill="black"><a fill="navy" href="../reference/Graphics/RepresentationGroup.html" target="_parent">RepresentationGroup</a></text>
</g>
<!-- 12&#45;&gt;1 -->
<g id="edge2" class="edge"><path fill="none" stroke="#000000" d="M218.322,-234.822C206.831,-223.331 191.541,-208.041 178.807,-195.307"/>
<polygon fill="#000000" stroke="#000000" points="171.653,-188.153 181.906,-192.042 175.189,-191.689 178.724,-195.224 178.724,-195.224 178.724,-195.224 175.189,-191.689 175.542,-198.406 171.653,-188.153 171.653,-188.153"/>
<text text-anchor="start" x="204.5" y="-208.5" font-family="Arial" font-size="10.00" fill="black"><a fill="navy" href="../reference/Graphics/RepresentationGroup.html#dexpi-graphics-representationgroup-represents" target="_parent">Represents</a></text>
<text text-anchor="start" x="163.653" y="-191.153" font-family="Arial" font-size="10.00" fill="black"></text>
<text text-anchor="start" x="202.322" y="-224.822" font-family="Arial" font-size="10.00" fill="black">*</text>
</g>
<!-- 29 -->
<g id="node11" class="node"><defs>
<linearGradient id="l_10" gradientUnits="userSpaceOnUse" x1="704.5" y1="-235" x2="704.5" y2="-271">
<stop offset="0" style="stop-color:#ffffbb;stop-opacity:1.;"/>
<stop offset="1" style="stop-color:#ffffee;stop-opacity:1.;"/>
</linearGradient>
</defs>
<polygon fill="url(#l_10)" stroke="black" points="777.5,-271 631.5,-271 631.5,-235 777.5,-235 777.5,-271"/>
<text text-anchor="start" x="641.5" y="-251.2" font-family="Arial" font-weight="bold" font-size="11.00" fill="black"><a fill="navy" href="../reference/Piping/PipingNetworkSegment.html" target="_parent">PipingNetworkSegment</a></text>
</g>
<!-- 29&#45;&gt;3 -->
<g id="edge8" class="edge"><path fill="none" stroke="#000000" d="M704.5,-222.549C704.5,-214.604 704.5,-206.044 704.5,-198.226"/>
<polygon fill="#000000" stroke="#000000" points="704.5,-222.822 708.5,-228.822 704.5,-234.822 700.5,-228.822 704.5,-222.822"/>
<polygon fill="#000000" stroke="#000000" points="704.5,-188.153 709,-198.153 704.5,-193.153 704.5,-198.153 704.5,-198.153 704.5,-198.153 704.5,-193.153 700,-198.153 704.5,-188.153 704.5,-188.153"/>
<text text-anchor="start" x="707" y="-208.5" font-family="Arial" font-size="10.00" fill="black"><a fill="navy" href="../reference/Piping/PipingNetworkSegment.html#dexpi-piping-pipingnetworksegment-connections" target="_parent">Connections</a></text>
<text text-anchor="start" x="696.5" y="-191.153" font-family="Arial" font-size="10.00" fill="black">*</text>
<text text-anchor="start" x="675.5" y="-224.822" font-family="Arial" font-size="10.00" fill="black">0..1</text>
</g>
<!-- 4&#45;inner&#45;node&#45;&gt;0 -->
<g id="edge10" class="edge"><path fill="none" stroke="black" d="M154.529,-85.8692C154.82,-84.5824 157.341,-74.1281 163.5,-69 201.972,-36.9693 261.059,-25.3961 295.329,-21.2586"/>
</g>
<!-- 5&#45;inner&#45;node&#45;&gt;0 -->
<g id="edge12" class="edge"><path fill="none" stroke="black" d="M322.5,-85.9514C322.5,-84.6042 322.5,-55.5221 322.5,-36.1346"/>
</g>
<!-- 6&#45;inner&#45;node&#45;&gt;0 -->
<g id="edge14" class="edge"><path fill="none" stroke="black" d="M704.468,-85.8624C704.145,-84.5098 701.345,-73.5471 694.5,-69 637.71,-31.2761 425.22,-21.8162 349.505,-19.6192"/>
</g>
</g>
</svg>