<!DOCTYPE svg PUBLIC "-//W3C//DTD SVG 1.1//EN" "http://www.w3.org/Graphics/SVG/1.1/DTD/svg11.dtd">
<!-- Generated by graphviz version 2.38.0 (20140413.2041)
 --><!-- Title: G Pages: 1 --><svg xmlns="http://www.w3.org/2000/svg" xmlns:xlink="http://www.w3.org/1999/xlink" width="258pt" height="279pt" viewBox="0.00 0.00 257.50 279.00">
<g id="graph0" class="graph" transform="scale(1 1) rotate(0) translate(4 275)">
<!-- 0 -->
<g id="node1" class="node"><defs>
<linearGradient id="l_0" gradientUnits="userSpaceOnUse" x1="137.5" y1="-1.77636e-014" x2="137.5" y2="-36">
<stop offset="0" style="stop-color:#ffffbb;stop-opacity:1.;"/>
<stop offset="1" style="stop-color:#ffffee;stop-opacity:1.;"/>
</linearGradient>
</defs>
<polygon fill="url(#l_0)" stroke="black" points="226.5,-36 48.5,-36 48.5,-0 226.5,-0 226.5,-36"/>
<text text-anchor="start" x="58.5" y="-16.2" font-family="Arial" font-weight="bold" font-size="11.00" fill="black">PipeOffPageConnectorShape</text>
</g>
<!-- 1 -->
<g id="node2" class="node"><defs>
<linearGradient id="l_1" gradientUnits="userSpaceOnUse" x1="137.5" y1="-152" x2="137.5" y2="-188">
<stop offset="0" style="stop-color:#ffffbb;stop-opacity:1.;"/>
<stop offset="1" style="stop-color:#ffffee;stop-opacity:1.;"/>
</linearGradient>
</defs>
<polygon fill="url(#l_1)" stroke="black" points="164.5,-188 110.5,-188 110.5,-152 164.5,-152 164.5,-188"/>
<text text-anchor="start" x="120.5" y="-168.2" font-family="Arial" font-weight="bold" font-style="italic" font-size="11.00" fill="black"><a fill="navy" href="../reference/Graphics/Shape.html" target="_parent">Shape</a></text>
</g>
<!-- 5 -->
<g id="node3" class="node"><defs>
<linearGradient id="l_2" gradientUnits="userSpaceOnUse" x1="59.5" y1="-69" x2="59.5" y2="-105">
<stop offset="0" style="stop-color:#ffffbb;stop-opacity:1.;"/>
<stop offset="1" style="stop-color:#ffffee;stop-opacity:1.;"/>
</linearGradient>
</defs>
<polygon fill="url(#l_2)" stroke="black" points="119,-105 -7.10543e-015,-105 -7.10543e-015,-69 119,-69 119,-105"/>
<text text-anchor="start" x="10.5" y="-85.2" font-family="Arial" font-weight="bold" font-style="italic" font-size="11.00" fill="black"><a fill="navy" href="../reference/Graphics/GraphicalPrimitive.html" target="_parent">GraphicalPrimitive</a></text>
</g>
<!-- 1&#45;&gt;5 -->
<g id="edge1" class="edge"><path fill="none" stroke="#000000" d="M100.266,-148.005C95.3288,-144.361 90.5741,-140.335 86.5,-136 80.6065,-129.73 75.5198,-121.936 71.401,-114.464"/>
<polygon fill="#000000" stroke="#000000" points="100.558,-148.202 107.769,-148.248 110.499,-154.923 103.288,-154.876 100.558,-148.202"/>
<polygon fill="#000000" stroke="#000000" points="66.7136,-105.312 75.2774,-112.161 68.9929,-109.762 71.2721,-114.212 71.2721,-114.212 71.2721,-114.212 68.9929,-109.762 67.2668,-116.264 66.7136,-105.312 66.7136,-105.312"/>
<text text-anchor="start" x="89" y="-125.5" font-family="Arial" font-size="10.00" fill="black"><a fill="navy" href="../reference/Graphics/Shape.html#dexpi-graphics-shape-primitives" target="_parent">Primitives</a></text>
<text text-anchor="start" x="58.7136" y="-108.312" font-family="Arial" font-size="10.00" fill="black">*</text>
<text text-anchor="start" x="81.499" y="-155.923" font-family="Arial" font-size="10.00" fill="black">0..1</text>
</g>
<!-- 2&#45;inner&#45;node -->
<!-- 1&#45;&gt;2&#45;inner&#45;node -->
<g id="edge4" class="edge"><path fill="none" stroke="black" d="M137.5,-141.649C137.5,-118.987 137.5,-90.1627 137.5,-88.1156L137.5,-85.9514"/>
<polygon fill="none" stroke="black" points="134,-141.822 137.5,-151.822 141,-141.822 134,-141.822"/>
</g>
<!-- 8 -->
<g id="node4" class="node"><defs>
<linearGradient id="l_3" gradientUnits="userSpaceOnUse" x1="79.5" y1="-235" x2="79.5" y2="-271">
<stop offset="0" style="stop-color:#ffffbb;stop-opacity:1.;"/>
<stop offset="1" style="stop-color:#ffffee;stop-opacity:1.;"/>
</linearGradient>
</defs>
<polygon fill="url(#l_3)" stroke="black" points="123.5,-271 35.5,-271 35.5,-235 123.5,-235 123.5,-271"/>
<text text-anchor="start" x="45.5" y="-251.2" font-family="Arial" font-weight="bold" font-size="11.00" fill="black"><a fill="navy" href="../reference/Graphics/ShapeUsage.html" target="_parent">ShapeUsage</a></text>
</g>
<!-- 8&#45;&gt;1 -->
<g id="edge2" class="edge"><path fill="none" stroke="#000000" d="M91.8003,-234.822C99.7976,-223.653 110.365,-208.895 119.324,-196.384"/>
<polygon fill="#000000" stroke="#000000" points="125.217,-188.153 123.054,-198.904 122.306,-192.219 119.396,-196.284 119.396,-196.284 119.396,-196.284 122.306,-192.219 115.737,-193.664 125.217,-188.153 125.217,-188.153"/>
<text text-anchor="start" x="116.5" y="-208.5" font-family="Arial" font-size="10.00" fill="black"><a fill="navy" href="../reference/Graphics/ShapeUsage.html#dexpi-graphics-shapeusage-shape" target="_parent">Shape</a></text>
<text text-anchor="start" x="117.217" y="-191.153" font-family="Arial" font-size="10.00" fill="black"></text>
<text text-anchor="start" x="75.8003" y="-224.822" font-family="Arial" font-size="10.00" fill="black">*</text>
</g>
<!-- 11 -->
<g id="node5" class="node"><defs>
<linearGradient id="l_4" gradientUnits="userSpaceOnUse" x1="195.5" y1="-235" x2="195.5" y2="-271">
<stop offset="0" style="stop-color:#ffffbb;stop-opacity:1.;"/>
<stop offset="1" style="stop-color:#ffffee;stop-opacity:1.;"/>
</linearGradient>
</defs>
<polygon fill="url(#l_4)" stroke="black" points="249.5,-271 141.5,-271 141.5,-235 249.5,-235 249.5,-271"/>
<text text-anchor="start" x="151.5" y="-251.2" font-family="Arial" font-weight="bold" font-size="11.00" fill="black"><a fill="navy" href="../reference/Graphics/ShapeCatalogue.html" target="_parent">ShapeCatalogue</a></text>
</g>
<!-- 11&#45;&gt;1 -->
<g id="edge3" class="edge"><path fill="none" stroke="#000000" d="M176.001,-224.768C169.432,-215.595 162.132,-205.4 155.67,-196.376"/>
<polygon fill="#000000" stroke="#000000" points="176.213,-225.065 182.959,-227.615 183.2,-234.822 176.454,-232.272 176.213,-225.065"/>
<polygon fill="#000000" stroke="#000000" points="149.783,-188.153 159.263,-193.664 152.694,-192.219 155.604,-196.284 155.604,-196.284 155.604,-196.284 152.694,-192.219 151.946,-198.904 149.783,-188.153 149.783,-188.153"/>
<text text-anchor="start" x="174.5" y="-208.5" font-family="Arial" font-size="10.00" fill="black"><a fill="navy" href="../reference/Graphics/ShapeCatalogue.html#dexpi-graphics-shapecatalogue-shapes" target="_parent">Shapes</a></text>
<text text-anchor="start" x="141.783" y="-191.153" font-family="Arial" font-size="10.00" fill="black">*</text>
<text text-anchor="start" x="154.2" y="-224.822" font-family="Arial" font-size="10.00" fill="black">0..1</text>
</g>
<!-- 2&#45;inner&#45;node&#45;&gt;0 -->
<g id="edge5" class="edge"><path fill="none" stroke="black" d="M137.5,-85.9514C137.5,-84.6042 137.5,-55.5221 137.5,-36.1346"/>
</g>
</g>
</svg>