<!DOCTYPE svg PUBLIC "-//W3C//DTD SVG 1.1//EN" "http://www.w3.org/Graphics/SVG/1.1/DTD/svg11.dtd">
<!-- Generated by graphviz version 2.38.0 (20140413.2041)
 --><!-- Title: G Pages: 1 --><svg xmlns="http://www.w3.org/2000/svg" xmlns:xlink="http://www.w3.org/1999/xlink" width="815pt" height="376pt" viewBox="0.00 0.00 814.50 376.00">
<g id="graph0" class="graph" transform="scale(1 1) rotate(0) translate(4 372)">
<!-- 0 -->
<g id="node1" class="node"><defs>
<linearGradient id="l_0" gradientUnits="userSpaceOnUse" x1="413" y1="-83" x2="413" y2="-119">
<stop offset="0" style="stop-color:#ffffbb;stop-opacity:1.;"/>
<stop offset="1" style="stop-color:#ffffee;stop-opacity:1.;"/>
</linearGradient>
</defs>
<polygon fill="url(#l_0)" stroke="black" points="484,-119 342,-119 342,-83 484,-83 484,-119"/>
<text text-anchor="start" x="352" y="-99.2" font-family="Arial" font-weight="bold" font-style="italic" font-size="11.00" fill="black">PipeOffPageConnector</text>
</g>
<!-- 11 -->
<g id="node6" class="node"><defs>
<linearGradient id="l_1" gradientUnits="userSpaceOnUse" x1="413" y1="-1.77636e-014" x2="413" y2="-36">
<stop offset="0" style="stop-color:#ffffbb;stop-opacity:1.;"/>
<stop offset="1" style="stop-color:#ffffee;stop-opacity:1.;"/>
</linearGradient>
</defs>
<polygon fill="url(#l_1)" stroke="black" points="510.5,-36 315.5,-36 315.5,-0 510.5,-0 510.5,-36"/>
<text text-anchor="start" x="326" y="-16.2" font-family="Arial" font-weight="bold" font-style="italic" font-size="11.00" fill="black"><a fill="navy" href="../reference/Piping/PipeOffPageConnectorReference.html" target="_parent">PipeOffPageConnectorReference</a></text>
</g>
<!-- 0&#45;&gt;11 -->
<g id="edge1" class="edge"><path fill="none" stroke="#000000" d="M413,-70.5488C413,-62.6036 413,-54.0441 413,-46.2265"/>
<polygon fill="#000000" stroke="#000000" points="413,-70.822 417,-76.822 413,-82.822 409,-76.822 413,-70.822"/>
<polygon fill="#000000" stroke="#000000" points="413,-36.1533 417.5,-46.1532 413,-41.1533 413,-46.1533 413,-46.1533 413,-46.1533 413,-41.1533 408.5,-46.1533 413,-36.1533 413,-36.1533"/>
<text text-anchor="start" x="415" y="-56.5" font-family="Arial" font-size="10.00" fill="black"><a fill="navy" href="../reference/Piping/PipeOffPageConnector.html#dexpi-piping-pipeoffpageconnector-connectorreference" target="_parent">ConnectorReference</a></text>
<text text-anchor="start" x="392.0" y="-39.1533" font-family="Arial" font-size="10.00" fill="black">0..1</text>
<text text-anchor="start" x="384.0" y="-72.822" font-family="Arial" font-size="10.00" fill="black">0..1</text>
</g>
<!-- 1 -->
<g id="node2" class="node"><defs>
<linearGradient id="l_2" gradientUnits="userSpaceOnUse" x1="255" y1="-249" x2="255" y2="-285">
<stop offset="0" style="stop-color:#ffffbb;stop-opacity:1.;"/>
<stop offset="1" style="stop-color:#ffffee;stop-opacity:1.;"/>
</linearGradient>
</defs>
<polygon fill="url(#l_2)" stroke="black" points="312.5,-285 197.5,-285 197.5,-249 312.5,-249 312.5,-285"/>
<text text-anchor="start" x="208" y="-265.2" font-family="Arial" font-weight="bold" font-style="italic" font-size="11.00" fill="black"><a fill="navy" href="../reference/DexpiModel/ConceptualObject.html" target="_parent">ConceptualObject</a></text>
</g>
<!-- 5&#45;inner&#45;node -->
<!-- 1&#45;&gt;5&#45;inner&#45;node -->
<g id="edge8" class="edge"><path fill="none" stroke="black" d="M255,-238.649C255,-215.987 255,-187.163 255,-185.116L255.032,-182.873"/>
<polygon fill="none" stroke="black" points="251.5,-238.822 255,-248.822 258.5,-238.822 251.5,-238.822"/>
</g>
<!-- 2 -->
<g id="node3" class="node"><defs>
<linearGradient id="l_3" gradientUnits="userSpaceOnUse" x1="413" y1="-249" x2="413" y2="-285">
<stop offset="0" style="stop-color:#ffffbb;stop-opacity:1.;"/>
<stop offset="1" style="stop-color:#ffffee;stop-opacity:1.;"/>
</linearGradient>
</defs>
<polygon fill="url(#l_3)" stroke="black" points="485,-285 341,-285 341,-249 485,-249 485,-285"/>
<text text-anchor="start" x="351" y="-265.2" font-family="Arial" font-weight="bold" font-style="italic" font-size="11.00" fill="black"><a fill="navy" href="../reference/Customization/CustomAttributeOwner.html" target="_parent">CustomAttributeOwner</a></text>
</g>
<!-- 23 -->
<g id="node10" class="node"><defs>
<linearGradient id="l_4" gradientUnits="userSpaceOnUse" x1="328" y1="-166" x2="328" y2="-202">
<stop offset="0" style="stop-color:#ffffbb;stop-opacity:1.;"/>
<stop offset="1" style="stop-color:#ffffee;stop-opacity:1.;"/>
</linearGradient>
</defs>
<polygon fill="url(#l_4)" stroke="black" points="382.5,-202 273.5,-202 273.5,-166 382.5,-166 382.5,-202"/>
<text text-anchor="start" x="284" y="-182.2" font-family="Arial" font-weight="bold" font-style="italic" font-size="11.00" fill="black"><a fill="navy" href="../reference/Customization/CustomAttribute.html" target="_parent">CustomAttribute</a></text>
</g>
<!-- 2&#45;&gt;23 -->
<g id="edge5" class="edge"><path fill="none" stroke="#000000" d="M336.449,-241.486C333.681,-238.933 331.17,-236.113 329,-233 324.902,-227.119 323.444,-219.772 323.315,-212.608"/>
<polygon fill="#000000" stroke="#000000" points="336.498,-241.523 343.696,-241.959 346.063,-248.77 338.865,-248.335 336.498,-241.523"/>
<polygon fill="#000000" stroke="#000000" points="323.925,-202.435 327.819,-212.687 323.626,-207.426 323.327,-212.417 323.327,-212.417 323.327,-212.417 323.626,-207.426 318.835,-212.148 323.925,-202.435 323.925,-202.435"/>
<text text-anchor="start" x="331" y="-222.5" font-family="Arial" font-size="10.00" fill="black"><a fill="navy" href="../reference/Customization/CustomAttributeOwner.html#dexpi-customization-customattributeowner-customattributes" target="_parent">CustomAttributes</a></text>
<text text-anchor="start" x="315.925" y="-205.435" font-family="Arial" font-size="10.00" fill="black">*</text>
<text text-anchor="start" x="317.063" y="-238.77" font-family="Arial" font-size="10.00" fill="black">0..1</text>
</g>
<!-- 6&#45;inner&#45;node -->
<!-- 2&#45;&gt;6&#45;inner&#45;node -->
<g id="edge10" class="edge"><path fill="none" stroke="black" d="M413,-238.649C413,-215.987 413,-187.163 413,-185.116L413,-182.941"/>
<polygon fill="none" stroke="black" points="409.5,-238.822 413,-248.822 416.5,-238.822 409.5,-238.822"/>
</g>
<!-- 3 -->
<g id="node4" class="node"><defs>
<linearGradient id="l_5" gradientUnits="userSpaceOnUse" x1="587" y1="-249" x2="587" y2="-285">
<stop offset="0" style="stop-color:#ffffbb;stop-opacity:1.;"/>
<stop offset="1" style="stop-color:#ffffee;stop-opacity:1.;"/>
</linearGradient>
</defs>
<polygon fill="url(#l_5)" stroke="black" points="671,-285 503,-285 503,-249 671,-249 671,-285"/>
<text text-anchor="start" x="513" y="-265.2" font-family="Arial" font-weight="bold" font-style="italic" font-size="11.00" fill="black"><a fill="navy" href="../reference/Piping/PipingNetworkSegmentItem.html" target="_parent">PipingNetworkSegmentItem</a></text>
</g>
<!-- 7&#45;inner&#45;node -->
<!-- 3&#45;&gt;7&#45;inner&#45;node -->
<g id="edge12" class="edge"><path fill="none" stroke="black" d="M587,-238.649C587,-215.987 587,-187.163 587,-185.116L586.874,-182.941"/>
<polygon fill="none" stroke="black" points="583.5,-238.822 587,-248.822 590.5,-238.822 583.5,-238.822"/>
</g>
<!-- 4 -->
<g id="node5" class="node"><defs>
<linearGradient id="l_6" gradientUnits="userSpaceOnUse" x1="748" y1="-249" x2="748" y2="-285">
<stop offset="0" style="stop-color:#ffffbb;stop-opacity:1.;"/>
<stop offset="1" style="stop-color:#ffffee;stop-opacity:1.;"/>
</linearGradient>
</defs>
<polygon fill="url(#l_6)" stroke="black" points="806.5,-285 689.5,-285 689.5,-249 806.5,-249 806.5,-285"/>
<text text-anchor="start" x="700" y="-265.2" font-family="Arial" font-weight="bold" font-style="italic" font-size="11.00" fill="black"><a fill="navy" href="../reference/Piping/PipingNodeOwner.html" target="_parent">PipingNodeOwner</a></text>
</g>
<!-- 29 -->
<g id="node12" class="node"><defs>
<linearGradient id="l_7" gradientUnits="userSpaceOnUse" x1="688" y1="-166" x2="688" y2="-202">
<stop offset="0" style="stop-color:#ffffbb;stop-opacity:1.;"/>
<stop offset="1" style="stop-color:#ffffee;stop-opacity:1.;"/>
</linearGradient>
</defs>
<polygon fill="url(#l_7)" stroke="black" points="729.5,-202 646.5,-202 646.5,-166 729.5,-166 729.5,-202"/>
<text text-anchor="start" x="657" y="-182.2" font-family="Arial" font-weight="bold" font-size="11.00" fill="black"><a fill="navy" href="../reference/Piping/PipingNode.html" target="_parent">PipingNode</a></text>
</g>
<!-- 4&#45;&gt;29 -->
<g id="edge7" class="edge"><path fill="none" stroke="#000000" d="M717.986,-240.149C715.857,-237.824 713.832,-235.428 712,-233 707.14,-226.557 702.821,-218.978 699.233,-211.77"/>
<polygon fill="#000000" stroke="#000000" points="718.032,-240.195 725.103,-241.61 726.517,-248.681 719.446,-247.266 718.032,-240.195"/>
<polygon fill="#000000" stroke="#000000" points="694.812,-202.312 703.123,-209.466 696.93,-206.842 699.047,-211.371 699.047,-211.371 699.047,-211.371 696.93,-206.842 694.97,-213.277 694.812,-202.312 694.812,-202.312"/>
<text text-anchor="start" x="714" y="-222.5" font-family="Arial" font-size="10.00" fill="black"><a fill="navy" href="../reference/Piping/PipingNodeOwner.html#dexpi-piping-pipingnodeowner-nodes" target="_parent">Nodes</a></text>
<text text-anchor="start" x="686.812" y="-205.312" font-family="Arial" font-size="10.00" fill="black">*</text>
<text text-anchor="start" x="697.517" y="-238.681" font-family="Arial" font-size="10.00" fill="black">0..1</text>
</g>
<!-- 8&#45;inner&#45;node -->
<!-- 4&#45;&gt;8&#45;inner&#45;node -->
<g id="edge14" class="edge"><path fill="none" stroke="black" d="M748,-238.649C748,-215.987 748,-187.163 748,-185.116L747.974,-182.865"/>
<polygon fill="none" stroke="black" points="744.5,-238.822 748,-248.822 751.5,-238.822 744.5,-238.822"/>
</g>
<!-- 14 -->
<g id="node7" class="node"><defs>
<linearGradient id="l_8" gradientUnits="userSpaceOnUse" x1="118" y1="-166" x2="118" y2="-202">
<stop offset="0" style="stop-color:#ffffbb;stop-opacity:1.;"/>
<stop offset="1" style="stop-color:#ffffee;stop-opacity:1.;"/>
</linearGradient>
</defs>
<polygon fill="url(#l_8)" stroke="black" points="236,-202 0,-202 0,-166 236,-166 236,-202"/>
<text text-anchor="start" x="10" y="-182.2" font-family="Arial" font-weight="bold" font-size="11.00" fill="black"><a fill="navy" href="../reference/Piping/PipeOffPageConnectorObjectReference.html" target="_parent">PipeOffPageConnectorObjectReference</a></text>
</g>
<!-- 14&#45;&gt;0 -->
<g id="edge2" class="edge"><path fill="none" stroke="#000000" d="M136.094,-165.784C148.361,-155.143 165.479,-142.188 183,-135 230.101,-115.678 286.66,-107.387 331.905,-103.946"/>
<polygon fill="#000000" stroke="#000000" points="341.967,-103.246 332.304,-108.429 336.979,-103.593 331.991,-103.94 331.991,-103.94 331.991,-103.94 336.979,-103.593 331.679,-99.4511 341.967,-103.246 341.967,-103.246"/>
<text text-anchor="start" x="185" y="-139.5" font-family="Arial" font-size="10.00" fill="black"><a fill="navy" href="../reference/Piping/PipeOffPageConnectorObjectReference.html#dexpi-piping-pipeoffpageconnectorobjectreference-referencedconnector" target="_parent">ReferencedConnector</a></text>
<text text-anchor="start" x="320.967" y="-106.246" font-family="Arial" font-size="10.00" fill="black">0..1</text>
<text text-anchor="start" x="120.094" y="-155.784" font-family="Arial" font-size="10.00" fill="black">*</text>
</g>
<!-- 17 -->
<g id="node8" class="node"><defs>
<linearGradient id="l_9" gradientUnits="userSpaceOnUse" x1="175" y1="-332" x2="175" y2="-368">
<stop offset="0" style="stop-color:#ffffbb;stop-opacity:1.;"/>
<stop offset="1" style="stop-color:#ffffee;stop-opacity:1.;"/>
</linearGradient>
</defs>
<polygon fill="url(#l_9)" stroke="black" points="249.5,-368 100.5,-368 100.5,-332 249.5,-332 249.5,-368"/>
<text text-anchor="start" x="111" y="-348.2" font-family="Arial" font-weight="bold" font-size="11.00" fill="black"><a fill="navy" href="../reference/Graphics/AttributeRepresentation.html" target="_parent">AttributeRepresentation</a></text>
</g>
<!-- 17&#45;&gt;1 -->
<g id="edge3" class="edge"><path fill="none" stroke="#000000" d="M191.966,-331.822C203.315,-320.331 218.416,-305.041 230.993,-292.307"/>
<polygon fill="#000000" stroke="#000000" points="238.059,-285.153 234.233,-295.43 234.545,-288.711 231.031,-292.268 231.031,-292.268 231.031,-292.268 234.545,-288.711 227.83,-289.106 238.059,-285.153 238.059,-285.153"/>
<text text-anchor="start" x="225.5" y="-305.5" font-family="Arial" font-size="10.00" fill="black"><a fill="navy" href="../reference/Graphics/AttributeRepresentation.html#dexpi-graphics-attributerepresentation-object" target="_parent">Object</a></text>
<text text-anchor="start" x="230.059" y="-288.153" font-family="Arial" font-size="10.00" fill="black"></text>
<text text-anchor="start" x="175.966" y="-321.822" font-family="Arial" font-size="10.00" fill="black">*</text>
</g>
<!-- 20 -->
<g id="node9" class="node"><defs>
<linearGradient id="l_10" gradientUnits="userSpaceOnUse" x1="336" y1="-332" x2="336" y2="-368">
<stop offset="0" style="stop-color:#ffffbb;stop-opacity:1.;"/>
<stop offset="1" style="stop-color:#ffffee;stop-opacity:1.;"/>
</linearGradient>
</defs>
<polygon fill="url(#l_10)" stroke="black" points="404.5,-368 267.5,-368 267.5,-332 404.5,-332 404.5,-368"/>
<text text-anchor="start" x="278" y="-348.2" font-family="Arial" font-weight="bold" font-size="11.00" fill="black"><a fill="navy" href="../reference/Graphics/RepresentationGroup.html" target="_parent">RepresentationGroup</a></text>
</g>
<!-- 20&#45;&gt;1 -->
<g id="edge4" class="edge"><path fill="none" stroke="#000000" d="M318.822,-331.822C307.331,-320.331 292.041,-305.041 279.307,-292.307"/>
<polygon fill="#000000" stroke="#000000" points="272.153,-285.153 282.406,-289.042 275.689,-288.689 279.224,-292.224 279.224,-292.224 279.224,-292.224 275.689,-288.689 276.042,-295.406 272.153,-285.153 272.153,-285.153"/>
<text text-anchor="start" x="305" y="-305.5" font-family="Arial" font-size="10.00" fill="black"><a fill="navy" href="../reference/Graphics/RepresentationGroup.html#dexpi-graphics-representationgroup-represents" target="_parent">Represents</a></text>
<text text-anchor="start" x="264.153" y="-288.153" font-family="Arial" font-size="10.00" fill="black"></text>
<text text-anchor="start" x="302.822" y="-321.822" font-family="Arial" font-size="10.00" fill="black">*</text>
</g>
<!-- 26 -->
<g id="node11" class="node"><defs>
<linearGradient id="l_11" gradientUnits="userSpaceOnUse" x1="587" y1="-332" x2="587" y2="-368">
<stop offset="0" style="stop-color:#ffffbb;stop-opacity:1.;"/>
<stop offset="1" style="stop-color:#ffffee;stop-opacity:1.;"/>
</linearGradient>
</defs>
<polygon fill="url(#l_11)" stroke="black" points="660,-368 514,-368 514,-332 660,-332 660,-368"/>
<text text-anchor="start" x="524" y="-348.2" font-family="Arial" font-weight="bold" font-size="11.00" fill="black"><a fill="navy" href="../reference/Piping/PipingNetworkSegment.html" target="_parent">PipingNetworkSegment</a></text>
</g>
<!-- 26&#45;&gt;3 -->
<g id="edge6" class="edge"><path fill="none" stroke="#000000" d="M587,-319.549C587,-311.604 587,-303.044 587,-295.226"/>
<polygon fill="#000000" stroke="#000000" points="587,-319.822 591,-325.822 587,-331.822 583,-325.822 587,-319.822"/>
<polygon fill="#000000" stroke="#000000" points="587,-285.153 591.5,-295.153 587,-290.153 587,-295.153 587,-295.153 587,-295.153 587,-290.153 582.5,-295.153 587,-285.153 587,-285.153"/>
<text text-anchor="start" x="589.5" y="-305.5" font-family="Arial" font-size="10.00" fill="black"><a fill="navy" href="../reference/Piping/PipingNetworkSegment.html#dexpi-piping-pipingnetworksegment-items" target="_parent">Items</a></text>
<text text-anchor="start" x="579.0" y="-288.153" font-family="Arial" font-size="10.00" fill="black">*</text>
<text text-anchor="start" x="558.0" y="-321.822" font-family="Arial" font-size="10.00" fill="black">0..1</text>
</g>
<!-- 5&#45;inner&#45;node&#45;&gt;0 -->
<g id="edge9" class="edge"><path fill="none" stroke="black" d="M255.032,-182.873C255.353,-181.62 258.107,-171.433 264,-166 287.7,-144.15 320.007,-129.042 348.48,-119.017"/>
</g>
<!-- 6&#45;inner&#45;node&#45;&gt;0 -->
<g id="edge11" class="edge"><path fill="none" stroke="black" d="M413,-182.941C413,-181.226 413,-142.337 413,-119.098"/>
</g>
<!-- 7&#45;inner&#45;node&#45;&gt;0 -->
<g id="edge13" class="edge"><path fill="none" stroke="black" d="M586.874,-182.941C583.19,-181.226 499.65,-142.337 449.728,-119.098"/>
</g>
<!-- 8&#45;inner&#45;node&#45;&gt;0 -->
<g id="edge15" class="edge"><path fill="none" stroke="black" d="M747.974,-182.865C747.714,-181.539 745.434,-170.779 739,-166 699.47,-136.637 567.642,-117.972 484.226,-108.796"/>
</g>
</g>
</svg>