<!DOCTYPE svg PUBLIC "-//W3C//DTD SVG 1.1//EN" "http://www.w3.org/Graphics/SVG/1.1/DTD/svg11.dtd">
<!-- Generated by graphviz version 2.38.0 (20140413.2041)
 --><!-- Title: G Pages: 1 --><svg xmlns="http://www.w3.org/2000/svg" xmlns:xlink="http://www.w3.org/1999/xlink" width="944pt" height="702pt" viewBox="0.00 0.00 943.50 702.00">
<g id="graph0" class="graph" transform="scale(1 1) rotate(0) translate(4 698)">
<!-- 0 -->
<g id="node1" class="node"><defs>
<linearGradient id="l_0" gradientUnits="userSpaceOnUse" x1="413.5" y1="-83" x2="413.5" y2="-445">
<stop offset="0" style="stop-color:#ffffbb;stop-opacity:1.;"/>
<stop offset="1" style="stop-color:#ffffee;stop-opacity:1.;"/>
</linearGradient>
</defs>
<polygon fill="url(#l_0)" stroke="black" points="665,-445 162,-445 162,-83 665,-83 665,-445"/>
<text text-anchor="start" x="351" y="-431.2" font-family="Arial" font-weight="bold" font-size="11.00" fill="black">PipingNetworkSegment</text>
<text text-anchor="start" x="172.5" y="-407" font-family="Arial" font-size="10.00" fill="black"><a fill="navy" href="../reference/Piping/PipingNetworkSegment.html#dexpi-piping-pipingnetworksegment-colorcode" target="_parent">ColorCode</a>&#160;:</text>
<text text-anchor="start" x="390.5" y="-407" font-family="Arial" font-size="10.00" fill="black"><a fill="navy" href="../reference/DataTypes/NullableString.html" target="_parent">NullableString</a>&#160;[0..1]</text>
<text text-anchor="start" x="172.5" y="-392" font-family="Arial" font-size="10.00" fill="black"><a fill="navy" href="../reference/Piping/PipingNetworkSegment.html#dexpi-piping-pipingnetworksegment-flowdirection" target="_parent">FlowDirection</a>&#160;:</text>
<text text-anchor="start" x="390.5" y="-392" font-family="Arial" font-size="10.00" fill="black"><a fill="navy" href="../reference/Enumerations/PipingNetworkSegmentFlowClassification.html" target="_parent">PipingNetworkSegmentFlowClassification</a>&#160;[0..1]</text>
<text text-anchor="start" x="172.5" y="-377" font-family="Arial" font-size="10.00" fill="black"><a fill="navy" href="../reference/Piping/PipingNetworkSegment.html#dexpi-piping-pipingnetworksegment-fluidcode" target="_parent">FluidCode</a>&#160;:</text>
<text text-anchor="start" x="390.5" y="-377" font-family="Arial" font-size="10.00" fill="black"><a fill="navy" href="../reference/DataTypes/NullableString.html" target="_parent">NullableString</a>&#160;[0..1]</text>
<text text-anchor="start" x="172.5" y="-362" font-family="Arial" font-size="10.00" fill="black"><a fill="navy" href="../reference/Piping/PipingNetworkSegment.html#dexpi-piping-pipingnetworksegment-heattracingtype" target="_parent">HeatTracingType</a>&#160;:</text>
<text text-anchor="start" x="390.5" y="-362" font-family="Arial" font-size="10.00" fill="black"><a fill="navy" href="../reference/Enumerations/HeatTracingTypeClassification.html" target="_parent">HeatTracingTypeClassification</a>&#160;[0..1]</text>
<text text-anchor="start" x="172.5" y="-347" font-family="Arial" font-size="10.00" fill="black"><a fill="navy" href="../reference/Piping/PipingNetworkSegment.html#dexpi-piping-pipingnetworksegment-heattracingtyperepresentation" target="_parent">HeatTracingTypeRepresentation</a>&#160;:</text>
<text text-anchor="start" x="390.5" y="-347" font-family="Arial" font-size="10.00" fill="black"><a fill="navy" href="../reference/DataTypes/NullableString.html" target="_parent">NullableString</a>&#160;[0..1]</text>
<text text-anchor="start" x="172.5" y="-332" font-family="Arial" font-size="10.00" fill="black"><a fill="navy" href="../reference/Piping/PipingNetworkSegment.html#dexpi-piping-pipingnetworksegment-inclination" target="_parent">Inclination</a>&#160;:</text>
<text text-anchor="start" x="390.5" y="-332" font-family="Arial" font-size="10.00" fill="black"><a fill="navy" href="../reference/PhysicalQuantities/NullablePercentage.html" target="_parent">NullablePercentage</a>&#160;[0..1]</text>
<text text-anchor="start" x="172.5" y="-317" font-family="Arial" font-size="10.00" fill="black"><a fill="navy" href="../reference/Piping/PipingNetworkSegment.html#dexpi-piping-pipingnetworksegment-insulationthickness" target="_parent">InsulationThickness</a>&#160;:</text>
<text text-anchor="start" x="390.5" y="-317" font-family="Arial" font-size="10.00" fill="black"><a fill="navy" href="../reference/PhysicalQuantities/NullableLength.html" target="_parent">NullableLength</a>&#160;[0..1]</text>
<text text-anchor="start" x="172.5" y="-302" font-family="Arial" font-size="10.00" fill="black"><a fill="navy" href="../reference/Piping/PipingNetworkSegment.html#dexpi-piping-pipingnetworksegment-insulationtype" target="_parent">InsulationType</a>&#160;:</text>
<text text-anchor="start" x="390.5" y="-302" font-family="Arial" font-size="10.00" fill="black"><a fill="navy" href="../reference/DataTypes/NullableString.html" target="_parent">NullableString</a>&#160;[0..1]</text>
<text text-anchor="start" x="172.5" y="-287" font-family="Arial" font-size="10.00" fill="black"><a fill="navy" href="../reference/Piping/PipingNetworkSegment.html#dexpi-piping-pipingnetworksegment-jacketedpipe" target="_parent">JacketedPipe</a>&#160;:</text>
<text text-anchor="start" x="390.5" y="-287" font-family="Arial" font-size="10.00" fill="black"><a fill="navy" href="../reference/Enumerations/JacketedPipeClassification.html" target="_parent">JacketedPipeClassification</a>&#160;[0..1]</text>
<text text-anchor="start" x="172.5" y="-272" font-family="Arial" font-size="10.00" fill="black"><a fill="navy" href="../reference/Piping/PipingNetworkSegment.html#dexpi-piping-pipingnetworksegment-lowerlimitheattracingtemperature" target="_parent">LowerLimitHeatTracingTemperature</a>&#160;:</text>
<text text-anchor="start" x="390.5" y="-272" font-family="Arial" font-size="10.00" fill="black"><a fill="navy" href="../reference/PhysicalQuantities/NullableTemperature.html" target="_parent">NullableTemperature</a>&#160;[0..1]</text>
<text text-anchor="start" x="172.5" y="-257" font-family="Arial" font-size="10.00" fill="black"><a fill="navy" href="../reference/Piping/PipingNetworkSegment.html#dexpi-piping-pipingnetworksegment-nominaldiameternumericalvaluerepresentation" target="_parent">NominalDiameterNumericalValueRepresentation</a>&#160;:</text>
<text text-anchor="start" x="390.5" y="-257" font-family="Arial" font-size="10.00" fill="black"><a fill="navy" href="../reference/DataTypes/NullableString.html" target="_parent">NullableString</a>&#160;[0..1]</text>
<text text-anchor="start" x="172.5" y="-242" font-family="Arial" font-size="10.00" fill="black"><a fill="navy" href="../reference/Piping/PipingNetworkSegment.html#dexpi-piping-pipingnetworksegment-nominaldiameterrepresentation" target="_parent">NominalDiameterRepresentation</a>&#160;:</text>
<text text-anchor="start" x="390.5" y="-242" font-family="Arial" font-size="10.00" fill="black"><a fill="navy" href="../reference/DataTypes/NullableString.html" target="_parent">NullableString</a>&#160;[0..1]</text>
<text text-anchor="start" x="172.5" y="-227" font-family="Arial" font-size="10.00" fill="black"><a fill="navy" href="../reference/Piping/PipingNetworkSegment.html#dexpi-piping-pipingnetworksegment-nominaldiameterstandard" target="_parent">NominalDiameterStandard</a>&#160;:</text>
<text text-anchor="start" x="390.5" y="-227" font-family="Arial" font-size="10.00" fill="black"><a fill="navy" href="../reference/Enumerations/NominalDiameterStandardClassification.html" target="_parent">NominalDiameterStandardClassification</a>&#160;[0..1]</text>
<text text-anchor="start" x="172.5" y="-212" font-family="Arial" font-size="10.00" fill="black"><a fill="navy" href="../reference/Piping/PipingNetworkSegment.html#dexpi-piping-pipingnetworksegment-nominaldiametertyperepresentation" target="_parent">NominalDiameterTypeRepresentation</a>&#160;:</text>
<text text-anchor="start" x="390.5" y="-212" font-family="Arial" font-size="10.00" fill="black"><a fill="navy" href="../reference/DataTypes/NullableString.html" target="_parent">NullableString</a>&#160;[0..1]</text>
<text text-anchor="start" x="172.5" y="-197" font-family="Arial" font-size="10.00" fill="black"><a fill="navy" href="../reference/Piping/PipingNetworkSegment.html#dexpi-piping-pipingnetworksegment-onhold" target="_parent">OnHold</a>&#160;:</text>
<text text-anchor="start" x="390.5" y="-197" font-family="Arial" font-size="10.00" fill="black"><a fill="navy" href="../reference/Enumerations/OnHoldClassification.html" target="_parent">OnHoldClassification</a>&#160;[0..1]</text>
<text text-anchor="start" x="172.5" y="-182" font-family="Arial" font-size="10.00" fill="black"><a fill="navy" href="../reference/Piping/PipingNetworkSegment.html#dexpi-piping-pipingnetworksegment-operatingtemperature" target="_parent">OperatingTemperature</a>&#160;:</text>
<text text-anchor="start" x="390.5" y="-182" font-family="Arial" font-size="10.00" fill="black"><a fill="navy" href="../reference/PhysicalQuantities/NullableTemperature.html" target="_parent">NullableTemperature</a>&#160;[0..1]</text>
<text text-anchor="start" x="172.5" y="-167" font-family="Arial" font-size="10.00" fill="black"><a fill="navy" href="../reference/Piping/PipingNetworkSegment.html#dexpi-piping-pipingnetworksegment-pipingclasscode" target="_parent">PipingClassCode</a>&#160;:</text>
<text text-anchor="start" x="390.5" y="-167" font-family="Arial" font-size="10.00" fill="black"><a fill="navy" href="../reference/DataTypes/NullableString.html" target="_parent">NullableString</a>&#160;[0..1]</text>
<text text-anchor="start" x="172.5" y="-152" font-family="Arial" font-size="10.00" fill="black"><a fill="navy" href="../reference/Piping/PipingNetworkSegment.html#dexpi-piping-pipingnetworksegment-pressuretestcircuitnumber" target="_parent">PressureTestCircuitNumber</a>&#160;:</text>
<text text-anchor="start" x="390.5" y="-152" font-family="Arial" font-size="10.00" fill="black"><a fill="navy" href="../reference/DataTypes/NullableString.html" target="_parent">NullableString</a>&#160;[0..1]</text>
<text text-anchor="start" x="172.5" y="-137" font-family="Arial" font-size="10.00" fill="black"><a fill="navy" href="../reference/Piping/PipingNetworkSegment.html#dexpi-piping-pipingnetworksegment-primarysecondarypipingnetworksegment" target="_parent">PrimarySecondaryPipingNetworkSegment</a>&#160;:</text>
<text text-anchor="start" x="390.5" y="-137" font-family="Arial" font-size="10.00" fill="black"><a fill="navy" href="../reference/Enumerations/PrimarySecondaryPipingNetworkSegmentClassification.html" target="_parent">PrimarySecondaryPipingNetworkSegmentClassification</a>&#160;[0..1]</text>
<text text-anchor="start" x="172.5" y="-122" font-family="Arial" font-size="10.00" fill="black"><a fill="navy" href="../reference/Piping/PipingNetworkSegment.html#dexpi-piping-pipingnetworksegment-segmentnumber" target="_parent">SegmentNumber</a>&#160;:</text>
<text text-anchor="start" x="390.5" y="-122" font-family="Arial" font-size="10.00" fill="black"><a fill="navy" href="../reference/DataTypes/NullableString.html" target="_parent">NullableString</a>&#160;[0..1]</text>
<text text-anchor="start" x="172.5" y="-107" font-family="Arial" font-size="10.00" fill="black"><a fill="navy" href="../reference/Piping/PipingNetworkSegment.html#dexpi-piping-pipingnetworksegment-siphon" target="_parent">Siphon</a>&#160;:</text>
<text text-anchor="start" x="390.5" y="-107" font-family="Arial" font-size="10.00" fill="black"><a fill="navy" href="../reference/Enumerations/SiphonClassification.html" target="_parent">SiphonClassification</a>&#160;[0..1]</text>
<text text-anchor="start" x="172.5" y="-92" font-family="Arial" font-size="10.00" fill="black"><a fill="navy" href="../reference/Piping/PipingNetworkSegment.html#dexpi-piping-pipingnetworksegment-slope" target="_parent">Slope</a>&#160;:</text>
<text text-anchor="start" x="390.5" y="-92" font-family="Arial" font-size="10.00" fill="black"><a fill="navy" href="../reference/Enumerations/PipingNetworkSegmentSlopeClassification.html" target="_parent">PipingNetworkSegmentSlopeClassification</a>&#160;[0..1]</text>
<polygon fill="black" stroke="black" points="665.0,-425.0 162.0,-425.0 162.0,-425.0 665.0,-425.0 665.0,-425.0"/>
</g>
<!-- 45 -->
<g id="node6" class="node"><defs>
<linearGradient id="l_1" gradientUnits="userSpaceOnUse" x1="57.5" y1="-1.77636e-014" x2="57.5" y2="-36">
<stop offset="0" style="stop-color:#ffffbb;stop-opacity:1.;"/>
<stop offset="1" style="stop-color:#ffffee;stop-opacity:1.;"/>
</linearGradient>
</defs>
<polygon fill="url(#l_1)" stroke="black" points="115,-36 0,-36 0,-0 115,-0 115,-36"/>
<text text-anchor="start" x="10.5" y="-16.2" font-family="Arial" font-weight="bold" font-style="italic" font-size="11.00" fill="black"><a fill="navy" href="../reference/Piping/PipingConnection.html" target="_parent">PipingConnection</a></text>
</g>
<!-- 0&#45;&gt;45 -->
<g id="edge1" class="edge"><path fill="none" stroke="#000000" d="M151.888,-83.6932C128.33,-67.5464 107.3,-53.1326 91.1036,-42.0317"/>
<polygon fill="#000000" stroke="#000000" points="152.008,-83.7752 159.219,-83.8679 161.906,-90.5594 154.696,-90.4667 152.008,-83.7752"/>
<polygon fill="#000000" stroke="#000000" points="82.6174,-36.2153 93.41,-38.157 86.7417,-39.0421 90.8659,-41.8688 90.8659,-41.8688 90.8659,-41.8688 86.7417,-39.0421 88.3219,-45.5807 82.6174,-36.2153 82.6174,-36.2153"/>
<text text-anchor="start" x="129" y="-56.5" font-family="Arial" font-size="10.00" fill="black"><a fill="navy" href="../reference/Piping/PipingNetworkSegment.html#dexpi-piping-pipingnetworksegment-connections" target="_parent">Connections</a></text>
<text text-anchor="start" x="74.6174" y="-39.2153" font-family="Arial" font-size="10.00" fill="black">*</text>
<text text-anchor="start" x="132.906" y="-91.5594" font-family="Arial" font-size="10.00" fill="black">0..1</text>
</g>
<!-- 48 -->
<g id="node7" class="node"><defs>
<linearGradient id="l_2" gradientUnits="userSpaceOnUse" x1="217.5" y1="-1.77636e-014" x2="217.5" y2="-36">
<stop offset="0" style="stop-color:#ffffbb;stop-opacity:1.;"/>
<stop offset="1" style="stop-color:#ffffee;stop-opacity:1.;"/>
</linearGradient>
</defs>
<polygon fill="url(#l_2)" stroke="black" points="301.5,-36 133.5,-36 133.5,-0 301.5,-0 301.5,-36"/>
<text text-anchor="start" x="143.5" y="-16.2" font-family="Arial" font-weight="bold" font-style="italic" font-size="11.00" fill="black"><a fill="navy" href="../reference/Piping/PipingNetworkSegmentItem.html" target="_parent">PipingNetworkSegmentItem</a></text>
</g>
<!-- 0&#45;&gt;48 -->
<g id="edge2" class="edge"><path fill="none" stroke="#000000" d="M261.145,-73.334C252.32,-62.3475 244.355,-52.4317 237.719,-44.1705"/>
<polygon fill="#000000" stroke="#000000" points="261.226,-73.434 268.102,-75.6067 268.741,-82.7894 261.865,-80.6167 261.226,-73.434"/>
<polygon fill="#000000" stroke="#000000" points="231.304,-36.1849 241.075,-41.163 234.436,-40.083 237.567,-43.9811 237.567,-43.9811 237.567,-43.9811 234.436,-40.083 234.059,-46.7993 231.304,-36.1849 231.304,-36.1849"/>
<text text-anchor="start" x="258" y="-56.5" font-family="Arial" font-size="10.00" fill="black"><a fill="navy" href="../reference/Piping/PipingNetworkSegment.html#dexpi-piping-pipingnetworksegment-items" target="_parent">Items</a></text>
<text text-anchor="start" x="223.304" y="-39.1849" font-family="Arial" font-size="10.00" fill="black">*</text>
<text text-anchor="start" x="239.741" y="-72.7894" font-family="Arial" font-size="10.00" fill="black">0..1</text>
</g>
<!-- 51 -->
<g id="node8" class="node"><defs>
<linearGradient id="l_3" gradientUnits="userSpaceOnUse" x1="376.5" y1="-1.77636e-014" x2="376.5" y2="-36">
<stop offset="0" style="stop-color:#ffffbb;stop-opacity:1.;"/>
<stop offset="1" style="stop-color:#ffffee;stop-opacity:1.;"/>
</linearGradient>
</defs>
<polygon fill="url(#l_3)" stroke="black" points="433.5,-36 319.5,-36 319.5,-0 433.5,-0 433.5,-36"/>
<text text-anchor="start" x="329.5" y="-16.2" font-family="Arial" font-weight="bold" font-style="italic" font-size="11.00" fill="black"><a fill="navy" href="../reference/Piping/PipingSourceItem.html" target="_parent">PipingSourceItem</a></text>
</g>
<!-- 0&#45;&gt;51 -->
<g id="edge3" class="edge"><path fill="none" stroke="#000000" d="M378.183,-82.9542C377.557,-77.5849 376.992,-72.2579 376.5,-67 375.878,-60.3571 375.646,-53.1745 375.619,-46.4394"/>
<polygon fill="#000000" stroke="#000000" points="375.722,-36.366 380.12,-46.4112 375.671,-41.3657 375.62,-46.3655 375.62,-46.3655 375.62,-46.3655 375.671,-41.3657 371.12,-46.3198 375.722,-36.366 375.722,-36.366"/>
<text text-anchor="start" x="378.5" y="-56.5" font-family="Arial" font-size="10.00" fill="black"><a fill="navy" href="../reference/Piping/PipingNetworkSegment.html#dexpi-piping-pipingnetworksegment-sourceitem" target="_parent">SourceItem</a></text>
<text text-anchor="start" x="354.722" y="-39.366" font-family="Arial" font-size="10.00" fill="black">0..1</text>
<text text-anchor="start" x="349.183" y="-72.9542" font-family="Arial" font-size="10.00" fill="black">0..1</text>
</g>
<!-- 54 -->
<g id="node9" class="node"><defs>
<linearGradient id="l_4" gradientUnits="userSpaceOnUse" x1="494.5" y1="-1.77636e-014" x2="494.5" y2="-36">
<stop offset="0" style="stop-color:#ffffbb;stop-opacity:1.;"/>
<stop offset="1" style="stop-color:#ffffee;stop-opacity:1.;"/>
</linearGradient>
</defs>
<polygon fill="url(#l_4)" stroke="black" points="536,-36 453,-36 453,-0 536,-0 536,-36"/>
<text text-anchor="start" x="463.5" y="-16.2" font-family="Arial" font-weight="bold" font-size="11.00" fill="black"><a fill="navy" href="../reference/Piping/PipingNode.html" target="_parent">PipingNode</a></text>
</g>
<!-- 0&#45;&gt;54 -->
<g id="edge4" class="edge"><path fill="none" stroke="#000000" d="M438.318,-82.9724C442.628,-72.1759 447.651,-61.7524 453.5,-52 455.286,-49.0223 457.445,-46.2015 459.827,-43.5566"/>
<polygon fill="#000000" stroke="#000000" points="467.492,-36.1687 463.415,-46.3484 463.892,-39.6385 460.292,-43.1083 460.292,-43.1083 460.292,-43.1083 463.892,-39.6385 457.169,-39.8682 467.492,-36.1687 467.492,-36.1687"/>
<text text-anchor="start" x="455.5" y="-56.5" font-family="Arial" font-size="10.00" fill="black"><a fill="navy" href="../reference/Piping/PipingNetworkSegment.html#dexpi-piping-pipingnetworksegment-sourcenode" target="_parent">SourceNode</a></text>
<text text-anchor="start" x="446.492" y="-39.1687" font-family="Arial" font-size="10.00" fill="black">0..1</text>
<text text-anchor="start" x="409.318" y="-72.9724" font-family="Arial" font-size="10.00" fill="black">0..1</text>
</g>
<!-- 0&#45;&gt;54 -->
<g id="edge6" class="edge"><path fill="none" stroke="#000000" d="M507.291,-82.87C508.844,-77.5725 510.254,-72.2763 511.5,-67 513.032,-60.5117 513.071,-58.479 511.5,-52 510.969,-49.8118 510.267,-47.6062 509.45,-45.4287"/>
<polygon fill="#000000" stroke="#000000" points="505.306,-36.2038 513.508,-43.4818 507.355,-40.7647 509.404,-45.3257 509.404,-45.3257 509.404,-45.3257 507.355,-40.7647 505.299,-47.1697 505.306,-36.2038 505.306,-36.2038"/>
<text text-anchor="start" x="515.5" y="-56.5" font-family="Arial" font-size="10.00" fill="black"><a fill="navy" href="../reference/Piping/PipingNetworkSegment.html#dexpi-piping-pipingnetworksegment-targetnode" target="_parent">TargetNode</a></text>
<text text-anchor="start" x="484.306" y="-39.2038" font-family="Arial" font-size="10.00" fill="black">0..1</text>
<text text-anchor="start" x="478.291" y="-72.87" font-family="Arial" font-size="10.00" fill="black">0..1</text>
</g>
<!-- 57 -->
<g id="node10" class="node"><defs>
<linearGradient id="l_5" gradientUnits="userSpaceOnUse" x1="610.5" y1="-1.77636e-014" x2="610.5" y2="-36">
<stop offset="0" style="stop-color:#ffffbb;stop-opacity:1.;"/>
<stop offset="1" style="stop-color:#ffffee;stop-opacity:1.;"/>
</linearGradient>
</defs>
<polygon fill="url(#l_5)" stroke="black" points="666,-36 555,-36 555,-0 666,-0 666,-36"/>
<text text-anchor="start" x="565.5" y="-16.2" font-family="Arial" font-weight="bold" font-style="italic" font-size="11.00" fill="black"><a fill="navy" href="../reference/Piping/PipingTargetItem.html" target="_parent">PipingTargetItem</a></text>
</g>
<!-- 0&#45;&gt;57 -->
<g id="edge5" class="edge"><path fill="none" stroke="#000000" d="M558.998,-82.7894C570.959,-67.9745 581.713,-54.6553 590.261,-44.0672"/>
<polygon fill="#000000" stroke="#000000" points="596.625,-36.1849 593.845,-46.7924 593.484,-40.0752 590.343,-43.9656 590.343,-43.9656 590.343,-43.9656 593.484,-40.0752 586.842,-41.1387 596.625,-36.1849 596.625,-36.1849"/>
<text text-anchor="start" x="584.5" y="-56.5" font-family="Arial" font-size="10.00" fill="black"><a fill="navy" href="../reference/Piping/PipingNetworkSegment.html#dexpi-piping-pipingnetworksegment-targetitem" target="_parent">TargetItem</a></text>
<text text-anchor="start" x="575.625" y="-39.1849" font-family="Arial" font-size="10.00" fill="black">0..1</text>
<text text-anchor="start" x="529.998" y="-72.7894" font-family="Arial" font-size="10.00" fill="black">0..1</text>
</g>
<!-- 35 -->
<g id="node2" class="node"><defs>
<linearGradient id="l_6" gradientUnits="userSpaceOnUse" x1="334.5" y1="-575" x2="334.5" y2="-611">
<stop offset="0" style="stop-color:#ffffbb;stop-opacity:1.;"/>
<stop offset="1" style="stop-color:#ffffee;stop-opacity:1.;"/>
</linearGradient>
</defs>
<polygon fill="url(#l_6)" stroke="black" points="417.5,-611 251.5,-611 251.5,-575 417.5,-575 417.5,-611"/>
<text text-anchor="start" x="261.5" y="-591.2" font-family="Arial" font-weight="bold" font-style="italic" font-size="11.00" fill="black"><a fill="navy" href="../reference/Instrumentation/ActuatingElectricalLocation.html" target="_parent">ActuatingElectricalLocation</a></text>
</g>
<!-- 39&#45;inner&#45;node -->
<!-- 35&#45;&gt;39&#45;inner&#45;node -->
<g id="edge14" class="edge"><path fill="none" stroke="black" d="M334.5,-564.649C334.5,-541.987 334.5,-513.163 334.5,-511.116L334.514,-508.956"/>
<polygon fill="none" stroke="black" points="331,-564.822 334.5,-574.822 338,-564.822 331,-564.822"/>
</g>
<!-- 36 -->
<g id="node3" class="node"><defs>
<linearGradient id="l_7" gradientUnits="userSpaceOnUse" x1="493.5" y1="-575" x2="493.5" y2="-611">
<stop offset="0" style="stop-color:#ffffbb;stop-opacity:1.;"/>
<stop offset="1" style="stop-color:#ffffee;stop-opacity:1.;"/>
</linearGradient>
</defs>
<polygon fill="url(#l_7)" stroke="black" points="551,-611 436,-611 436,-575 551,-575 551,-611"/>
<text text-anchor="start" x="446.5" y="-591.2" font-family="Arial" font-weight="bold" font-style="italic" font-size="11.00" fill="black"><a fill="navy" href="../reference/DexpiModel/ConceptualObject.html" target="_parent">ConceptualObject</a></text>
</g>
<!-- 40&#45;inner&#45;node -->
<!-- 36&#45;&gt;40&#45;inner&#45;node -->
<g id="edge16" class="edge"><path fill="none" stroke="black" d="M493.5,-564.649C493.5,-541.987 493.5,-513.163 493.5,-511.116L493.485,-508.956"/>
<polygon fill="none" stroke="black" points="490,-564.822 493.5,-574.822 497,-564.822 490,-564.822"/>
</g>
<!-- 37 -->
<g id="node4" class="node"><defs>
<linearGradient id="l_8" gradientUnits="userSpaceOnUse" x1="661.5" y1="-575" x2="661.5" y2="-611">
<stop offset="0" style="stop-color:#ffffbb;stop-opacity:1.;"/>
<stop offset="1" style="stop-color:#ffffee;stop-opacity:1.;"/>
</linearGradient>
</defs>
<polygon fill="url(#l_8)" stroke="black" points="733.5,-611 589.5,-611 589.5,-575 733.5,-575 733.5,-611"/>
<text text-anchor="start" x="599.5" y="-591.2" font-family="Arial" font-weight="bold" font-style="italic" font-size="11.00" fill="black"><a fill="navy" href="../reference/Customization/CustomAttributeOwner.html" target="_parent">CustomAttributeOwner</a></text>
</g>
<!-- 77 -->
<g id="node16" class="node"><defs>
<linearGradient id="l_9" gradientUnits="userSpaceOnUse" x1="566.5" y1="-492" x2="566.5" y2="-528">
<stop offset="0" style="stop-color:#ffffbb;stop-opacity:1.;"/>
<stop offset="1" style="stop-color:#ffffee;stop-opacity:1.;"/>
</linearGradient>
</defs>
<polygon fill="url(#l_9)" stroke="black" points="621,-528 512,-528 512,-492 621,-492 621,-528"/>
<text text-anchor="start" x="522.5" y="-508.2" font-family="Arial" font-weight="bold" font-style="italic" font-size="11.00" fill="black"><a fill="navy" href="../reference/Customization/CustomAttribute.html" target="_parent">CustomAttribute</a></text>
</g>
<!-- 37&#45;&gt;77 -->
<g id="edge12" class="edge"><path fill="none" stroke="#000000" d="M587.566,-568.359C583.887,-565.576 580.487,-562.469 577.5,-559 572.571,-553.275 569.734,-545.784 568.132,-538.428"/>
<polygon fill="#000000" stroke="#000000" points="587.776,-568.495 594.986,-568.381 597.865,-574.992 590.655,-575.106 587.776,-568.495"/>
<polygon fill="#000000" stroke="#000000" points="566.601,-528.317 572.548,-537.53 567.35,-533.26 568.098,-538.204 568.098,-538.204 568.098,-538.204 567.35,-533.26 563.649,-538.878 566.601,-528.317 566.601,-528.317"/>
<text text-anchor="start" x="579.5" y="-548.5" font-family="Arial" font-size="10.00" fill="black"><a fill="navy" href="../reference/Customization/CustomAttributeOwner.html#dexpi-customization-customattributeowner-customattributes" target="_parent">CustomAttributes</a></text>
<text text-anchor="start" x="558.601" y="-531.317" font-family="Arial" font-size="10.00" fill="black">*</text>
<text text-anchor="start" x="568.865" y="-564.992" font-family="Arial" font-size="10.00" fill="black">0..1</text>
</g>
<!-- 41&#45;inner&#45;node -->
<!-- 37&#45;&gt;41&#45;inner&#45;node -->
<g id="edge18" class="edge"><path fill="none" stroke="black" d="M661.5,-564.649C661.5,-541.987 661.5,-513.163 661.5,-511.116L661.455,-508.956"/>
<polygon fill="none" stroke="black" points="658,-564.822 661.5,-574.822 665,-564.822 658,-564.822"/>
</g>
<!-- 38 -->
<g id="node5" class="node"><defs>
<linearGradient id="l_10" gradientUnits="userSpaceOnUse" x1="824.5" y1="-575" x2="824.5" y2="-611">
<stop offset="0" style="stop-color:#ffffbb;stop-opacity:1.;"/>
<stop offset="1" style="stop-color:#ffffee;stop-opacity:1.;"/>
</linearGradient>
</defs>
<polygon fill="url(#l_10)" stroke="black" points="879,-611 770,-611 770,-575 879,-575 879,-611"/>
<text text-anchor="start" x="780.5" y="-591.2" font-family="Arial" font-weight="bold" font-style="italic" font-size="11.00" fill="black"><a fill="navy" href="../reference/Instrumentation/SensingLocation.html" target="_parent">SensingLocation</a></text>
</g>
<!-- 42&#45;inner&#45;node -->
<!-- 38&#45;&gt;42&#45;inner&#45;node -->
<g id="edge20" class="edge"><path fill="none" stroke="black" d="M824.5,-564.649C824.5,-541.987 824.5,-513.163 824.5,-511.116L824.425,-508.956"/>
<polygon fill="none" stroke="black" points="821,-564.822 824.5,-574.822 828,-564.822 821,-564.822"/>
</g>
<!-- 62 -->
<g id="node11" class="node"><defs>
<linearGradient id="l_11" gradientUnits="userSpaceOnUse" x1="102.5" y1="-492" x2="102.5" y2="-528">
<stop offset="0" style="stop-color:#ffffbb;stop-opacity:1.;"/>
<stop offset="1" style="stop-color:#ffffee;stop-opacity:1.;"/>
</linearGradient>
</defs>
<polygon fill="url(#l_11)" stroke="black" points="161,-528 44,-528 44,-492 161,-492 161,-528"/>
<text text-anchor="start" x="54.5" y="-508.2" font-family="Arial" font-weight="bold" font-size="11.00" fill="black"><a fill="navy" href="../reference/Instrumentation/ActuatingFunction.html" target="_parent">ActuatingFunction</a></text>
</g>
<!-- 62&#45;&gt;0 -->
<g id="edge7" class="edge"><path fill="none" stroke="#000000" d="M124.369,-491.842C137.364,-481.647 155.333,-467.549 176.01,-451.327"/>
<polygon fill="#000000" stroke="#000000" points="184.062,-445.009 178.972,-454.722 180.129,-448.095 176.195,-451.182 176.195,-451.182 176.195,-451.182 180.129,-448.095 173.417,-447.641 184.062,-445.009 184.062,-445.009"/>
<text text-anchor="start" x="165" y="-465.5" font-family="Arial" font-size="10.00" fill="black"><a fill="navy" href="../reference/Instrumentation/ActuatingFunction.html#dexpi-instrumentation-actuatingfunction-actuatinglocation" target="_parent">ActuatingLocation</a></text>
<text text-anchor="start" x="163.062" y="-448.009" font-family="Arial" font-size="10.00" fill="black">0..1</text>
<text text-anchor="start" x="95.369" y="-481.842" font-family="Arial" font-size="10.00" fill="black">0..1</text>
</g>
<!-- 65 -->
<g id="node12" class="node"><defs>
<linearGradient id="l_12" gradientUnits="userSpaceOnUse" x1="247.5" y1="-492" x2="247.5" y2="-528">
<stop offset="0" style="stop-color:#ffffbb;stop-opacity:1.;"/>
<stop offset="1" style="stop-color:#ffffee;stop-opacity:1.;"/>
</linearGradient>
</defs>
<polygon fill="url(#l_12)" stroke="black" points="316,-528 179,-528 179,-492 316,-492 316,-528"/>
<text text-anchor="start" x="189.5" y="-508.2" font-family="Arial" font-weight="bold" font-size="11.00" fill="black"><a fill="navy" href="../reference/Piping/PipingNetworkSystem.html" target="_parent">PipingNetworkSystem</a></text>
</g>
<!-- 65&#45;&gt;0 -->
<g id="edge8" class="edge"><path fill="none" stroke="#000000" d="M266.089,-481.677C271.644,-473.511 278.199,-463.877 285.404,-453.286"/>
<polygon fill="#000000" stroke="#000000" points="265.923,-481.921 265.855,-489.132 259.173,-491.842 259.241,-484.632 265.923,-481.921"/>
<polygon fill="#000000" stroke="#000000" points="291.035,-445.009 289.131,-455.808 288.222,-449.143 285.41,-453.277 285.41,-453.277 285.41,-453.277 288.222,-449.143 281.689,-450.746 291.035,-445.009 291.035,-445.009"/>
<text text-anchor="start" x="282" y="-465.5" font-family="Arial" font-size="10.00" fill="black"><a fill="navy" href="../reference/Piping/PipingNetworkSystem.html#dexpi-piping-pipingnetworksystem-segments" target="_parent">Segments</a></text>
<text text-anchor="start" x="283.035" y="-448.009" font-family="Arial" font-size="10.00" fill="black">*</text>
<text text-anchor="start" x="230.173" y="-481.842" font-family="Arial" font-size="10.00" fill="black">0..1</text>
</g>
<!-- 68 -->
<g id="node13" class="node"><defs>
<linearGradient id="l_13" gradientUnits="userSpaceOnUse" x1="307.5" y1="-658" x2="307.5" y2="-694">
<stop offset="0" style="stop-color:#ffffbb;stop-opacity:1.;"/>
<stop offset="1" style="stop-color:#ffffee;stop-opacity:1.;"/>
</linearGradient>
</defs>
<polygon fill="url(#l_13)" stroke="black" points="390.5,-694 224.5,-694 224.5,-658 390.5,-658 390.5,-694"/>
<text text-anchor="start" x="234.5" y="-674.2" font-family="Arial" font-weight="bold" font-size="11.00" fill="black"><a fill="navy" href="../reference/Instrumentation/ActuatingElectricalFunction.html" target="_parent">ActuatingElectricalFunction</a></text>
</g>
<!-- 68&#45;&gt;35 -->
<g id="edge9" class="edge"><path fill="none" stroke="#000000" d="M313.226,-657.822C316.806,-647.083 321.492,-633.025 325.554,-620.837"/>
<polygon fill="#000000" stroke="#000000" points="328.782,-611.153 329.889,-622.063 327.201,-615.897 325.62,-620.64 325.62,-620.64 325.62,-620.64 327.201,-615.897 321.351,-619.217 328.782,-611.153 328.782,-611.153"/>
<text text-anchor="start" x="326" y="-631.5" font-family="Arial" font-size="10.00" fill="black"><a fill="navy" href="../reference/Instrumentation/ActuatingElectricalFunction.html#dexpi-instrumentation-actuatingelectricalfunction-actuatingelectricallocation" target="_parent">ActuatingElectricalLocation</a></text>
<text text-anchor="start" x="307.782" y="-614.153" font-family="Arial" font-size="10.00" fill="black">0..1</text>
<text text-anchor="start" x="284.226" y="-647.822" font-family="Arial" font-size="10.00" fill="black">0..1</text>
</g>
<!-- 71 -->
<g id="node14" class="node"><defs>
<linearGradient id="l_14" gradientUnits="userSpaceOnUse" x1="483.5" y1="-658" x2="483.5" y2="-694">
<stop offset="0" style="stop-color:#ffffbb;stop-opacity:1.;"/>
<stop offset="1" style="stop-color:#ffffee;stop-opacity:1.;"/>
</linearGradient>
</defs>
<polygon fill="url(#l_14)" stroke="black" points="558,-694 409,-694 409,-658 558,-658 558,-694"/>
<text text-anchor="start" x="419.5" y="-674.2" font-family="Arial" font-weight="bold" font-size="11.00" fill="black"><a fill="navy" href="../reference/Graphics/AttributeRepresentation.html" target="_parent">AttributeRepresentation</a></text>
</g>
<!-- 71&#45;&gt;36 -->
<g id="edge10" class="edge"><path fill="none" stroke="#000000" d="M485.621,-657.822C486.933,-647.19 488.647,-633.306 490.142,-621.204"/>
<polygon fill="#000000" stroke="#000000" points="491.382,-611.153 494.623,-621.629 490.77,-616.116 490.157,-621.078 490.157,-621.078 490.157,-621.078 490.77,-616.116 485.691,-620.526 491.382,-611.153 491.382,-611.153"/>
<text text-anchor="start" x="492" y="-631.5" font-family="Arial" font-size="10.00" fill="black"><a fill="navy" href="../reference/Graphics/AttributeRepresentation.html#dexpi-graphics-attributerepresentation-object" target="_parent">Object</a></text>
<text text-anchor="start" x="483.382" y="-614.153" font-family="Arial" font-size="10.00" fill="black"></text>
<text text-anchor="start" x="469.621" y="-647.822" font-family="Arial" font-size="10.00" fill="black">*</text>
</g>
<!-- 74 -->
<g id="node15" class="node"><defs>
<linearGradient id="l_15" gradientUnits="userSpaceOnUse" x1="644.5" y1="-658" x2="644.5" y2="-694">
<stop offset="0" style="stop-color:#ffffbb;stop-opacity:1.;"/>
<stop offset="1" style="stop-color:#ffffee;stop-opacity:1.;"/>
</linearGradient>
</defs>
<polygon fill="url(#l_15)" stroke="black" points="713,-694 576,-694 576,-658 713,-658 713,-694"/>
<text text-anchor="start" x="586.5" y="-674.2" font-family="Arial" font-weight="bold" font-size="11.00" fill="black"><a fill="navy" href="../reference/Graphics/RepresentationGroup.html" target="_parent">RepresentationGroup</a></text>
</g>
<!-- 74&#45;&gt;36 -->
<g id="edge11" class="edge"><path fill="none" stroke="#000000" d="M612.477,-657.822C589.678,-645.592 558.855,-629.058 534.294,-615.883"/>
<polygon fill="#000000" stroke="#000000" points="525.218,-611.014 536.157,-611.776 529.624,-613.378 534.03,-615.741 534.03,-615.741 534.03,-615.741 529.624,-613.378 531.903,-619.707 525.218,-611.014 525.218,-611.014"/>
<text text-anchor="start" x="585.5" y="-631.5" font-family="Arial" font-size="10.00" fill="black"><a fill="navy" href="../reference/Graphics/RepresentationGroup.html#dexpi-graphics-representationgroup-represents" target="_parent">Represents</a></text>
<text text-anchor="start" x="517.218" y="-614.014" font-family="Arial" font-size="10.00" fill="black"></text>
<text text-anchor="start" x="596.477" y="-647.822" font-family="Arial" font-size="10.00" fill="black">*</text>
</g>
<!-- 80 -->
<g id="node17" class="node"><defs>
<linearGradient id="l_16" gradientUnits="userSpaceOnUse" x1="833.5" y1="-658" x2="833.5" y2="-694">
<stop offset="0" style="stop-color:#ffffbb;stop-opacity:1.;"/>
<stop offset="1" style="stop-color:#ffffee;stop-opacity:1.;"/>
</linearGradient>
</defs>
<polygon fill="url(#l_16)" stroke="black" points="935.5,-694 731.5,-694 731.5,-658 935.5,-658 935.5,-694"/>
<text text-anchor="start" x="741.5" y="-674.2" font-family="Arial" font-weight="bold" font-size="11.00" fill="black"><a fill="navy" href="../reference/Instrumentation/ProcessSignalGeneratingFunction.html" target="_parent">ProcessSignalGeneratingFunction</a></text>
</g>
<!-- 80&#45;&gt;38 -->
<g id="edge13" class="edge"><path fill="none" stroke="#000000" d="M831.591,-657.822C830.41,-647.19 828.867,-633.306 827.523,-621.204"/>
<polygon fill="#000000" stroke="#000000" points="826.406,-611.153 831.983,-620.595 826.958,-616.123 827.51,-621.092 827.51,-621.092 827.51,-621.092 826.958,-616.123 823.038,-621.589 826.406,-611.153 826.406,-611.153"/>
<text text-anchor="start" x="833" y="-631.5" font-family="Arial" font-size="10.00" fill="black"><a fill="navy" href="../reference/Instrumentation/ProcessSignalGeneratingFunction.html#dexpi-instrumentation-processsignalgeneratingfunction-sensinglocation" target="_parent">SensingLocation</a></text>
<text text-anchor="start" x="805.406" y="-614.153" font-family="Arial" font-size="10.00" fill="black">0..1</text>
<text text-anchor="start" x="815.591" y="-647.822" font-family="Arial" font-size="10.00" fill="black">*</text>
</g>
<!-- 39&#45;inner&#45;node&#45;&gt;0 -->
<g id="edge15" class="edge"><path fill="none" stroke="black" d="M334.514,-508.956C334.915,-507.717 343.657,-480.716 355.19,-445.096"/>
</g>
<!-- 40&#45;inner&#45;node&#45;&gt;0 -->
<g id="edge17" class="edge"><path fill="none" stroke="black" d="M493.485,-508.956C493.079,-507.717 484.227,-480.716 472.548,-445.096"/>
</g>
<!-- 41&#45;inner&#45;node&#45;&gt;0 -->
<g id="edge19" class="edge"><path fill="none" stroke="black" d="M661.455,-508.956C660.196,-507.717 632.753,-480.716 596.548,-445.096"/>
</g>
<!-- 42&#45;inner&#45;node&#45;&gt;0 -->
<g id="edge21" class="edge"><path fill="none" stroke="black" d="M824.425,-508.956C821.77,-507.38 748.885,-464.109 665.22,-414.44"/>
</g>
</g>
</svg>