<!DOCTYPE svg PUBLIC "-//W3C//DTD SVG 1.1//EN" "http://www.w3.org/Graphics/SVG/1.1/DTD/svg11.dtd">
<!-- Generated by graphviz version 2.38.0 (20140413.2041)
 --><!-- Title: G Pages: 1 --><svg xmlns="http://www.w3.org/2000/svg" xmlns:xlink="http://www.w3.org/1999/xlink" width="1141pt" height="335pt" viewBox="0.00 0.00 1140.50 335.00">
<g id="graph0" class="graph" transform="scale(1 1) rotate(0) translate(4 331)">
<!-- 0 -->
<g id="node1" class="node"><defs>
<linearGradient id="l_0" gradientUnits="userSpaceOnUse" x1="637.5" y1="-4.26326e-014" x2="637.5" y2="-92">
<stop offset="0" style="stop-color:#ffffbb;stop-opacity:1.;"/>
<stop offset="1" style="stop-color:#ffffee;stop-opacity:1.;"/>
</linearGradient>
</defs>
<polygon fill="url(#l_0)" stroke="black" points="797,-92 478,-92 478,-0 797,-0 797,-92"/>
<text text-anchor="start" x="589.5" y="-78.2" font-family="Arial" font-weight="bold" font-style="italic" font-size="11.00" fill="black">PipingComponent</text>
<text text-anchor="start" x="488.5" y="-54" font-family="Arial" font-size="10.00" fill="black"><a fill="navy" href="../reference/Piping/PipingComponent.html#dexpi-piping-pipingcomponent-fluidcode" target="_parent">FluidCode</a>&#160;:</text>
<text text-anchor="start" x="618.5" y="-54" font-family="Arial" font-size="10.00" fill="black"><a fill="navy" href="../reference/DataTypes/NullableString.html" target="_parent">NullableString</a>&#160;[0..1]</text>
<text text-anchor="start" x="488.5" y="-39" font-family="Arial" font-size="10.00" fill="black"><a fill="navy" href="../reference/Piping/PipingComponent.html#dexpi-piping-pipingcomponent-onhold" target="_parent">OnHold</a>&#160;:</text>
<text text-anchor="start" x="618.5" y="-39" font-family="Arial" font-size="10.00" fill="black"><a fill="navy" href="../reference/Enumerations/OnHoldClassification.html" target="_parent">OnHoldClassification</a>&#160;[0..1]</text>
<text text-anchor="start" x="488.5" y="-24" font-family="Arial" font-size="10.00" fill="black"><a fill="navy" href="../reference/Piping/PipingComponent.html#dexpi-piping-pipingcomponent-pipingclassartefact" target="_parent">PipingClassArtefact</a>&#160;:</text>
<text text-anchor="start" x="618.5" y="-24" font-family="Arial" font-size="10.00" fill="black"><a fill="navy" href="../reference/Enumerations/PipingClassArtefactClassification.html" target="_parent">PipingClassArtefactClassification</a>&#160;[0..1]</text>
<text text-anchor="start" x="488.5" y="-9" font-family="Arial" font-size="10.00" fill="black"><a fill="navy" href="../reference/Piping/PipingComponent.html#dexpi-piping-pipingcomponent-pressuretestcircuitnumber" target="_parent">PressureTestCircuitNumber</a>&#160;:</text>
<text text-anchor="start" x="618.5" y="-9" font-family="Arial" font-size="10.00" fill="black"><a fill="navy" href="../reference/DataTypes/NullableString.html" target="_parent">NullableString</a>&#160;[0..1]</text>
<polygon fill="black" stroke="black" points="797.0,-72.0 478.0,-72.0 478.0,-72.0 797.0,-72.0 797.0,-72.0"/>
</g>
<!-- 8 -->
<g id="node2" class="node"><defs>
<linearGradient id="l_1" gradientUnits="userSpaceOnUse" x1="154.5" y1="-208" x2="154.5" y2="-244">
<stop offset="0" style="stop-color:#ffffbb;stop-opacity:1.;"/>
<stop offset="1" style="stop-color:#ffffee;stop-opacity:1.;"/>
</linearGradient>
</defs>
<polygon fill="url(#l_1)" stroke="black" points="212,-244 97,-244 97,-208 212,-208 212,-244"/>
<text text-anchor="start" x="107.5" y="-224.2" font-family="Arial" font-weight="bold" font-style="italic" font-size="11.00" fill="black"><a fill="navy" href="../reference/DexpiModel/ConceptualObject.html" target="_parent">ConceptualObject</a></text>
</g>
<!-- 15&#45;inner&#45;node -->
<!-- 8&#45;&gt;15&#45;inner&#45;node -->
<g id="edge11" class="edge"><path fill="none" stroke="black" d="M154.5,-197.649C154.5,-174.987 154.5,-146.163 154.5,-144.116L154.588,-141.983"/>
<polygon fill="none" stroke="black" points="151,-197.822 154.5,-207.822 158,-197.822 151,-197.822"/>
</g>
<!-- 9 -->
<g id="node3" class="node"><defs>
<linearGradient id="l_2" gradientUnits="userSpaceOnUse" x1="302.5" y1="-208" x2="302.5" y2="-244">
<stop offset="0" style="stop-color:#ffffbb;stop-opacity:1.;"/>
<stop offset="1" style="stop-color:#ffffee;stop-opacity:1.;"/>
</linearGradient>
</defs>
<polygon fill="url(#l_2)" stroke="black" points="374.5,-244 230.5,-244 230.5,-208 374.5,-208 374.5,-244"/>
<text text-anchor="start" x="240.5" y="-224.2" font-family="Arial" font-weight="bold" font-style="italic" font-size="11.00" fill="black"><a fill="navy" href="../reference/Customization/CustomAttributeOwner.html" target="_parent">CustomAttributeOwner</a></text>
</g>
<!-- 30 -->
<g id="node11" class="node"><defs>
<linearGradient id="l_3" gradientUnits="userSpaceOnUse" x1="375.5" y1="-125" x2="375.5" y2="-161">
<stop offset="0" style="stop-color:#ffffbb;stop-opacity:1.;"/>
<stop offset="1" style="stop-color:#ffffee;stop-opacity:1.;"/>
</linearGradient>
</defs>
<polygon fill="url(#l_3)" stroke="black" points="430,-161 321,-161 321,-125 430,-125 430,-161"/>
<text text-anchor="start" x="331.5" y="-141.2" font-family="Arial" font-weight="bold" font-style="italic" font-size="11.00" fill="black"><a fill="navy" href="../reference/Customization/CustomAttribute.html" target="_parent">CustomAttribute</a></text>
</g>
<!-- 9&#45;&gt;30 -->
<g id="edge3" class="edge"><path fill="none" stroke="#000000" d="M326.055,-198.864C334.755,-189.21 344.582,-178.306 353.17,-168.777"/>
<polygon fill="#000000" stroke="#000000" points="326.015,-198.908 324.97,-206.043 317.981,-207.822 319.027,-200.687 326.015,-198.908"/>
<polygon fill="#000000" stroke="#000000" points="360.041,-161.153 356.689,-171.594 356.694,-164.867 353.346,-168.582 353.346,-168.582 353.346,-168.582 356.694,-164.867 350.003,-165.569 360.041,-161.153 360.041,-161.153"/>
<text text-anchor="start" x="348.5" y="-181.5" font-family="Arial" font-size="10.00" fill="black"><a fill="navy" href="../reference/Customization/CustomAttributeOwner.html#dexpi-customization-customattributeowner-customattributes" target="_parent">CustomAttributes</a></text>
<text text-anchor="start" x="352.041" y="-164.153" font-family="Arial" font-size="10.00" fill="black">*</text>
<text text-anchor="start" x="288.981" y="-197.822" font-family="Arial" font-size="10.00" fill="black">0..1</text>
</g>
<!-- 16&#45;inner&#45;node -->
<!-- 9&#45;&gt;16&#45;inner&#45;node -->
<g id="edge13" class="edge"><path fill="none" stroke="black" d="M302.5,-197.649C302.5,-174.987 302.5,-146.163 302.5,-144.116L302.527,-141.867"/>
<polygon fill="none" stroke="black" points="299,-197.822 302.5,-207.822 306,-197.822 299,-197.822"/>
</g>
<!-- 10 -->
<g id="node4" class="node"><defs>
<linearGradient id="l_4" gradientUnits="userSpaceOnUse" x1="476.5" y1="-208" x2="476.5" y2="-244">
<stop offset="0" style="stop-color:#ffffbb;stop-opacity:1.;"/>
<stop offset="1" style="stop-color:#ffffee;stop-opacity:1.;"/>
</linearGradient>
</defs>
<polygon fill="url(#l_4)" stroke="black" points="560.5,-244 392.5,-244 392.5,-208 560.5,-208 560.5,-244"/>
<text text-anchor="start" x="402.5" y="-224.2" font-family="Arial" font-weight="bold" font-style="italic" font-size="11.00" fill="black"><a fill="navy" href="../reference/Piping/PipingNetworkSegmentItem.html" target="_parent">PipingNetworkSegmentItem</a></text>
</g>
<!-- 17&#45;inner&#45;node -->
<!-- 10&#45;&gt;17&#45;inner&#45;node -->
<g id="edge15" class="edge"><path fill="none" stroke="black" d="M476.5,-197.649C476.5,-174.987 476.5,-146.163 476.5,-144.116L476.617,-141.931"/>
<polygon fill="none" stroke="black" points="473,-197.822 476.5,-207.822 480,-197.822 473,-197.822"/>
</g>
<!-- 11 -->
<g id="node5" class="node"><defs>
<linearGradient id="l_5" gradientUnits="userSpaceOnUse" x1="637.5" y1="-208" x2="637.5" y2="-244">
<stop offset="0" style="stop-color:#ffffbb;stop-opacity:1.;"/>
<stop offset="1" style="stop-color:#ffffee;stop-opacity:1.;"/>
</linearGradient>
</defs>
<polygon fill="url(#l_5)" stroke="black" points="696,-244 579,-244 579,-208 696,-208 696,-244"/>
<text text-anchor="start" x="589.5" y="-224.2" font-family="Arial" font-weight="bold" font-style="italic" font-size="11.00" fill="black"><a fill="navy" href="../reference/Piping/PipingNodeOwner.html" target="_parent">PipingNodeOwner</a></text>
</g>
<!-- 36 -->
<g id="node13" class="node"><defs>
<linearGradient id="l_6" gradientUnits="userSpaceOnUse" x1="697.5" y1="-125" x2="697.5" y2="-161">
<stop offset="0" style="stop-color:#ffffbb;stop-opacity:1.;"/>
<stop offset="1" style="stop-color:#ffffee;stop-opacity:1.;"/>
</linearGradient>
</defs>
<polygon fill="url(#l_6)" stroke="black" points="739,-161 656,-161 656,-125 739,-125 739,-161"/>
<text text-anchor="start" x="666.5" y="-141.2" font-family="Arial" font-weight="bold" font-size="11.00" fill="black"><a fill="navy" href="../reference/Piping/PipingNode.html" target="_parent">PipingNode</a></text>
</g>
<!-- 11&#45;&gt;36 -->
<g id="edge5" class="edge"><path fill="none" stroke="#000000" d="M657.4,-198.135C664.244,-188.896 671.88,-178.586 678.638,-169.463"/>
<polygon fill="#000000" stroke="#000000" points="657.367,-198.179 657.01,-205.382 650.224,-207.822 650.582,-200.62 657.367,-198.179"/>
<polygon fill="#000000" stroke="#000000" points="684.794,-161.153 682.458,-171.867 681.818,-165.171 678.842,-169.189 678.842,-169.189 678.842,-169.189 681.818,-165.171 675.226,-166.51 684.794,-161.153 684.794,-161.153"/>
<text text-anchor="start" x="675.5" y="-181.5" font-family="Arial" font-size="10.00" fill="black"><a fill="navy" href="../reference/Piping/PipingNodeOwner.html#dexpi-piping-pipingnodeowner-nodes" target="_parent">Nodes</a></text>
<text text-anchor="start" x="676.794" y="-164.153" font-family="Arial" font-size="10.00" fill="black">*</text>
<text text-anchor="start" x="621.224" y="-197.822" font-family="Arial" font-size="10.00" fill="black">0..1</text>
</g>
<!-- 18&#45;inner&#45;node -->
<!-- 11&#45;&gt;18&#45;inner&#45;node -->
<g id="edge17" class="edge"><path fill="none" stroke="black" d="M637.5,-197.649C637.5,-174.987 637.5,-146.163 637.5,-144.116L637.5,-141.931"/>
<polygon fill="none" stroke="black" points="634,-197.822 637.5,-207.822 641,-197.822 634,-197.822"/>
</g>
<!-- 12 -->
<g id="node6" class="node"><defs>
<linearGradient id="l_7" gradientUnits="userSpaceOnUse" x1="900.5" y1="-208" x2="900.5" y2="-244">
<stop offset="0" style="stop-color:#ffffbb;stop-opacity:1.;"/>
<stop offset="1" style="stop-color:#ffffee;stop-opacity:1.;"/>
</linearGradient>
</defs>
<polygon fill="url(#l_7)" stroke="black" points="957.5,-244 843.5,-244 843.5,-208 957.5,-208 957.5,-244"/>
<text text-anchor="start" x="853.5" y="-224.2" font-family="Arial" font-weight="bold" font-style="italic" font-size="11.00" fill="black"><a fill="navy" href="../reference/Piping/PipingSourceItem.html" target="_parent">PipingSourceItem</a></text>
</g>
<!-- 19&#45;inner&#45;node -->
<!-- 12&#45;&gt;19&#45;inner&#45;node -->
<g id="edge19" class="edge"><path fill="none" stroke="black" d="M900.5,-197.649C900.5,-174.987 900.5,-146.163 900.5,-144.116L900.452,-141.983"/>
<polygon fill="none" stroke="black" points="897,-197.822 900.5,-207.822 904,-197.822 897,-197.822"/>
</g>
<!-- 13 -->
<g id="node7" class="node"><defs>
<linearGradient id="l_8" gradientUnits="userSpaceOnUse" x1="769.5" y1="-208" x2="769.5" y2="-244">
<stop offset="0" style="stop-color:#ffffbb;stop-opacity:1.;"/>
<stop offset="1" style="stop-color:#ffffee;stop-opacity:1.;"/>
</linearGradient>
</defs>
<polygon fill="url(#l_8)" stroke="black" points="825,-244 714,-244 714,-208 825,-208 825,-244"/>
<text text-anchor="start" x="724.5" y="-224.2" font-family="Arial" font-weight="bold" font-style="italic" font-size="11.00" fill="black"><a fill="navy" href="../reference/Piping/PipingTargetItem.html" target="_parent">PipingTargetItem</a></text>
</g>
<!-- 20&#45;inner&#45;node -->
<!-- 13&#45;&gt;20&#45;inner&#45;node -->
<g id="edge21" class="edge"><path fill="none" stroke="black" d="M769.5,-197.649C769.5,-174.987 769.5,-146.163 769.5,-144.116L769.362,-141.89"/>
<polygon fill="none" stroke="black" points="766,-197.822 769.5,-207.822 773,-197.822 766,-197.822"/>
</g>
<!-- 14 -->
<g id="node8" class="node"><defs>
<linearGradient id="l_9" gradientUnits="userSpaceOnUse" x1="1030.5" y1="-208" x2="1030.5" y2="-244">
<stop offset="0" style="stop-color:#ffffbb;stop-opacity:1.;"/>
<stop offset="1" style="stop-color:#ffffee;stop-opacity:1.;"/>
</linearGradient>
</defs>
<polygon fill="url(#l_9)" stroke="black" points="1085,-244 976,-244 976,-208 1085,-208 1085,-244"/>
<text text-anchor="start" x="986.5" y="-224.2" font-family="Arial" font-weight="bold" font-style="italic" font-size="11.00" fill="black"><a fill="navy" href="../reference/Instrumentation/SensingLocation.html" target="_parent">SensingLocation</a></text>
</g>
<!-- 21&#45;inner&#45;node -->
<!-- 14&#45;&gt;21&#45;inner&#45;node -->
<g id="edge23" class="edge"><path fill="none" stroke="black" d="M1030.5,-197.649C1030.5,-174.987 1030.5,-146.163 1030.5,-144.116L1030.43,-141.983"/>
<polygon fill="none" stroke="black" points="1027,-197.822 1030.5,-207.822 1034,-197.822 1027,-197.822"/>
</g>
<!-- 24 -->
<g id="node9" class="node"><defs>
<linearGradient id="l_10" gradientUnits="userSpaceOnUse" x1="74.5" y1="-291" x2="74.5" y2="-327">
<stop offset="0" style="stop-color:#ffffbb;stop-opacity:1.;"/>
<stop offset="1" style="stop-color:#ffffee;stop-opacity:1.;"/>
</linearGradient>
</defs>
<polygon fill="url(#l_10)" stroke="black" points="149,-327 0,-327 0,-291 149,-291 149,-327"/>
<text text-anchor="start" x="10.5" y="-307.2" font-family="Arial" font-weight="bold" font-size="11.00" fill="black"><a fill="navy" href="../reference/Graphics/AttributeRepresentation.html" target="_parent">AttributeRepresentation</a></text>
</g>
<!-- 24&#45;&gt;8 -->
<g id="edge1" class="edge"><path fill="none" stroke="#000000" d="M91.4659,-290.822C102.815,-279.331 117.916,-264.041 130.493,-251.307"/>
<polygon fill="#000000" stroke="#000000" points="137.559,-244.153 133.733,-254.43 134.045,-247.711 130.531,-251.268 130.531,-251.268 130.531,-251.268 134.045,-247.711 127.33,-248.106 137.559,-244.153 137.559,-244.153"/>
<text text-anchor="start" x="125" y="-264.5" font-family="Arial" font-size="10.00" fill="black"><a fill="navy" href="../reference/Graphics/AttributeRepresentation.html#dexpi-graphics-attributerepresentation-object" target="_parent">Object</a></text>
<text text-anchor="start" x="129.559" y="-247.153" font-family="Arial" font-size="10.00" fill="black"></text>
<text text-anchor="start" x="75.4659" y="-280.822" font-family="Arial" font-size="10.00" fill="black">*</text>
</g>
<!-- 27 -->
<g id="node10" class="node"><defs>
<linearGradient id="l_11" gradientUnits="userSpaceOnUse" x1="235.5" y1="-291" x2="235.5" y2="-327">
<stop offset="0" style="stop-color:#ffffbb;stop-opacity:1.;"/>
<stop offset="1" style="stop-color:#ffffee;stop-opacity:1.;"/>
</linearGradient>
</defs>
<polygon fill="url(#l_11)" stroke="black" points="304,-327 167,-327 167,-291 304,-291 304,-327"/>
<text text-anchor="start" x="177.5" y="-307.2" font-family="Arial" font-weight="bold" font-size="11.00" fill="black"><a fill="navy" href="../reference/Graphics/RepresentationGroup.html" target="_parent">RepresentationGroup</a></text>
</g>
<!-- 27&#45;&gt;8 -->
<g id="edge2" class="edge"><path fill="none" stroke="#000000" d="M218.322,-290.822C206.831,-279.331 191.541,-264.041 178.807,-251.307"/>
<polygon fill="#000000" stroke="#000000" points="171.653,-244.153 181.906,-248.042 175.189,-247.689 178.724,-251.224 178.724,-251.224 178.724,-251.224 175.189,-247.689 175.542,-254.406 171.653,-244.153 171.653,-244.153"/>
<text text-anchor="start" x="204.5" y="-264.5" font-family="Arial" font-size="10.00" fill="black"><a fill="navy" href="../reference/Graphics/RepresentationGroup.html#dexpi-graphics-representationgroup-represents" target="_parent">Represents</a></text>
<text text-anchor="start" x="163.653" y="-247.153" font-family="Arial" font-size="10.00" fill="black"></text>
<text text-anchor="start" x="202.322" y="-280.822" font-family="Arial" font-size="10.00" fill="black">*</text>
</g>
<!-- 33 -->
<g id="node12" class="node"><defs>
<linearGradient id="l_12" gradientUnits="userSpaceOnUse" x1="677.5" y1="-291" x2="677.5" y2="-327">
<stop offset="0" style="stop-color:#ffffbb;stop-opacity:1.;"/>
<stop offset="1" style="stop-color:#ffffee;stop-opacity:1.;"/>
</linearGradient>
</defs>
<polygon fill="url(#l_12)" stroke="black" points="750.5,-327 604.5,-327 604.5,-291 750.5,-291 750.5,-327"/>
<text text-anchor="start" x="614.5" y="-307.2" font-family="Arial" font-weight="bold" font-size="11.00" fill="black"><a fill="navy" href="../reference/Piping/PipingNetworkSegment.html" target="_parent">PipingNetworkSegment</a></text>
</g>
<!-- 33&#45;&gt;10 -->
<g id="edge4" class="edge"><path fill="none" stroke="#000000" d="M623.623,-286.288C594.057,-274.374 557.576,-259.672 528.338,-247.89"/>
<polygon fill="#000000" stroke="#000000" points="623.743,-286.337 630.803,-284.869 634.873,-290.822 627.813,-292.289 623.743,-286.337"/>
<polygon fill="#000000" stroke="#000000" points="518.72,-244.014 529.678,-243.578 523.358,-245.883 527.996,-247.752 527.996,-247.752 527.996,-247.752 523.358,-245.883 526.314,-251.926 518.72,-244.014 518.72,-244.014"/>
<text text-anchor="start" x="598" y="-264.5" font-family="Arial" font-size="10.00" fill="black"><a fill="navy" href="../reference/Piping/PipingNetworkSegment.html#dexpi-piping-pipingnetworksegment-items" target="_parent">Items</a></text>
<text text-anchor="start" x="510.72" y="-247.014" font-family="Arial" font-size="10.00" fill="black">*</text>
<text text-anchor="start" x="605.873" y="-280.822" font-family="Arial" font-size="10.00" fill="black">0..1</text>
</g>
<!-- 33&#45;&gt;12 -->
<g id="edge7" class="edge"><path fill="none" stroke="#000000" d="M704.814,-290.997C712.569,-285.99 720.954,-280.402 728.5,-275 737.248,-268.737 737.703,-264.447 747.5,-260 780.343,-245.092 793.583,-251.253 833.373,-243.808"/>
<polygon fill="#000000" stroke="#000000" points="843.176,-241.804 834.28,-248.216 838.277,-242.805 833.378,-243.807 833.378,-243.807 833.378,-243.807 838.277,-242.805 832.477,-239.398 843.176,-241.804 843.176,-241.804"/>
<text text-anchor="start" x="749.5" y="-264.5" font-family="Arial" font-size="10.00" fill="black"><a fill="navy" href="../reference/Piping/PipingNetworkSegment.html#dexpi-piping-pipingnetworksegment-sourceitem" target="_parent">SourceItem</a></text>
<text text-anchor="start" x="822.176" y="-244.804" font-family="Arial" font-size="10.00" fill="black">0..1</text>
<text text-anchor="start" x="675.814" y="-280.997" font-family="Arial" font-size="10.00" fill="black">0..1</text>
</g>
<!-- 33&#45;&gt;13 -->
<g id="edge8" class="edge"><path fill="none" stroke="#000000" d="M673.401,-290.963C672.028,-281.047 672.188,-268.807 678.5,-260 682.323,-254.666 692.281,-249.516 704.277,-244.933"/>
<polygon fill="#000000" stroke="#000000" points="713.779,-241.546 705.87,-249.143 709.069,-243.225 704.359,-244.904 704.359,-244.904 704.359,-244.904 709.069,-243.225 702.848,-240.665 713.779,-241.546 713.779,-241.546"/>
<text text-anchor="start" x="680.5" y="-264.5" font-family="Arial" font-size="10.00" fill="black"><a fill="navy" href="../reference/Piping/PipingNetworkSegment.html#dexpi-piping-pipingnetworksegment-targetitem" target="_parent">TargetItem</a></text>
<text text-anchor="start" x="692.779" y="-244.546" font-family="Arial" font-size="10.00" fill="black">0..1</text>
<text text-anchor="start" x="644.401" y="-280.963" font-family="Arial" font-size="10.00" fill="black">0..1</text>
</g>
<!-- 39 -->
<g id="node14" class="node"><defs>
<linearGradient id="l_13" gradientUnits="userSpaceOnUse" x1="840.5" y1="-291" x2="840.5" y2="-327">
<stop offset="0" style="stop-color:#ffffbb;stop-opacity:1.;"/>
<stop offset="1" style="stop-color:#ffffee;stop-opacity:1.;"/>
</linearGradient>
</defs>
<polygon fill="url(#l_13)" stroke="black" points="898,-327 783,-327 783,-291 898,-291 898,-327"/>
<text text-anchor="start" x="793.5" y="-307.2" font-family="Arial" font-weight="bold" font-style="italic" font-size="11.00" fill="black"><a fill="navy" href="../reference/Piping/PipingConnection.html" target="_parent">PipingConnection</a></text>
</g>
<!-- 39&#45;&gt;12 -->
<g id="edge6" class="edge"><path fill="none" stroke="#000000" d="M863.349,-290.937C868.763,-286.182 874.205,-280.735 878.5,-275 883.26,-268.644 887.317,-261.093 890.603,-253.884"/>
<polygon fill="#000000" stroke="#000000" points="894.598,-244.41 894.859,-255.373 892.655,-249.017 890.712,-253.624 890.712,-253.624 890.712,-253.624 892.655,-249.017 886.566,-251.876 894.598,-244.41 894.598,-244.41"/>
<text text-anchor="start" x="890.5" y="-264.5" font-family="Arial" font-size="10.00" fill="black"><a fill="navy" href="../reference/Piping/PipingConnection.html#dexpi-piping-pipingconnection-sourceitem" target="_parent">SourceItem</a></text>
<text text-anchor="start" x="873.598" y="-247.41" font-family="Arial" font-size="10.00" fill="black">0..1</text>
<text text-anchor="start" x="834.349" y="-280.937" font-family="Arial" font-size="10.00" fill="black">0..1</text>
</g>
<!-- 39&#45;&gt;13 -->
<g id="edge9" class="edge"><path fill="none" stroke="#000000" d="M829.29,-290.933C822.775,-281.468 814.161,-269.688 805.5,-260 802.842,-257.027 799.946,-254.033 796.989,-251.125"/>
<polygon fill="#000000" stroke="#000000" points="789.613,-244.138 799.967,-247.748 793.243,-247.576 796.873,-251.015 796.873,-251.015 796.873,-251.015 793.243,-247.576 793.778,-254.282 789.613,-244.138 789.613,-244.138"/>
<text text-anchor="start" x="819.5" y="-264.5" font-family="Arial" font-size="10.00" fill="black"><a fill="navy" href="../reference/Piping/PipingConnection.html#dexpi-piping-pipingconnection-targetitem" target="_parent">TargetItem</a></text>
<text text-anchor="start" x="768.613" y="-247.138" font-family="Arial" font-size="10.00" fill="black">0..1</text>
<text text-anchor="start" x="800.29" y="-280.933" font-family="Arial" font-size="10.00" fill="black">0..1</text>
</g>
<!-- 48 -->
<g id="node15" class="node"><defs>
<linearGradient id="l_14" gradientUnits="userSpaceOnUse" x1="1030.5" y1="-291" x2="1030.5" y2="-327">
<stop offset="0" style="stop-color:#ffffbb;stop-opacity:1.;"/>
<stop offset="1" style="stop-color:#ffffee;stop-opacity:1.;"/>
</linearGradient>
</defs>
<polygon fill="url(#l_14)" stroke="black" points="1132.5,-327 928.5,-327 928.5,-291 1132.5,-291 1132.5,-327"/>
<text text-anchor="start" x="938.5" y="-307.2" font-family="Arial" font-weight="bold" font-size="11.00" fill="black"><a fill="navy" href="../reference/Instrumentation/ProcessSignalGeneratingFunction.html" target="_parent">ProcessSignalGeneratingFunction</a></text>
</g>
<!-- 48&#45;&gt;14 -->
<g id="edge10" class="edge"><path fill="none" stroke="#000000" d="M1030.5,-290.822C1030.5,-280.19 1030.5,-266.306 1030.5,-254.204"/>
<polygon fill="#000000" stroke="#000000" points="1030.5,-244.153 1035,-254.153 1030.5,-249.153 1030.5,-254.153 1030.5,-254.153 1030.5,-254.153 1030.5,-249.153 1026,-254.153 1030.5,-244.153 1030.5,-244.153"/>
<text text-anchor="start" x="1033" y="-264.5" font-family="Arial" font-size="10.00" fill="black"><a fill="navy" href="../reference/Instrumentation/ProcessSignalGeneratingFunction.html#dexpi-instrumentation-processsignalgeneratingfunction-sensinglocation" target="_parent">SensingLocation</a></text>
<text text-anchor="start" x="1009.5" y="-247.153" font-family="Arial" font-size="10.00" fill="black">0..1</text>
<text text-anchor="start" x="1014.5" y="-280.822" font-family="Arial" font-size="10.00" fill="black">*</text>
</g>
<!-- 15&#45;inner&#45;node&#45;&gt;0 -->
<g id="edge12" class="edge"><path fill="none" stroke="black" d="M154.588,-141.983C159.133,-141.089 338.88,-105.735 477.745,-78.4218"/>
</g>
<!-- 16&#45;inner&#45;node&#45;&gt;0 -->
<g id="edge14" class="edge"><path fill="none" stroke="black" d="M302.527,-141.867C302.798,-140.555 305.165,-129.91 311.5,-125 358.761,-88.3683 420.601,-68.5766 477.703,-58.0082"/>
</g>
<!-- 17&#45;inner&#45;node&#45;&gt;0 -->
<g id="edge16" class="edge"><path fill="none" stroke="black" d="M476.617,-141.931C479.102,-140.465 520.861,-115.824 561.207,-92.0179"/>
</g>
<!-- 18&#45;inner&#45;node&#45;&gt;0 -->
<g id="edge18" class="edge"><path fill="none" stroke="black" d="M637.5,-141.931C637.5,-140.465 637.5,-115.824 637.5,-92.0179"/>
</g>
<!-- 19&#45;inner&#45;node&#45;&gt;0 -->
<g id="edge20" class="edge"><path fill="none" stroke="black" d="M900.452,-141.983C898.374,-141.232 829.049,-116.191 762.11,-92.0114"/>
</g>
<!-- 20&#45;inner&#45;node&#45;&gt;0 -->
<g id="edge22" class="edge"><path fill="none" stroke="black" d="M769.362,-141.89C768,-140.803 756.81,-131.894 747.5,-125 732.918,-114.203 717.084,-102.795 702.092,-92.1353"/>
</g>
<!-- 21&#45;inner&#45;node&#45;&gt;0 -->
<g id="edge24" class="edge"><path fill="none" stroke="black" d="M1030.43,-141.983C1027.05,-141.165 904.415,-111.522 797.052,-85.5684"/>
</g>
</g>
</svg>