<!DOCTYPE svg PUBLIC "-//W3C//DTD SVG 1.1//EN" "http://www.w3.org/Graphics/SVG/1.1/DTD/svg11.dtd">
<!-- Generated by graphviz version 2.38.0 (20140413.2041)
 --><!-- Title: G Pages: 1 --><svg xmlns="http://www.w3.org/2000/svg" xmlns:xlink="http://www.w3.org/1999/xlink" width="356pt" height="210pt" viewBox="0.00 0.00 355.50 210.00">
<g id="graph0" class="graph" transform="scale(1 1) rotate(0) translate(4 206)">
<!-- 0 -->
<g id="node1" class="node"><defs>
<linearGradient id="l_0" gradientUnits="userSpaceOnUse" x1="174" y1="-83" x2="174" y2="-119">
<stop offset="0" style="stop-color:#ffffbb;stop-opacity:1.;"/>
<stop offset="1" style="stop-color:#ffffee;stop-opacity:1.;"/>
</linearGradient>
</defs>
<polygon fill="url(#l_0)" stroke="black" points="231.5,-119 116.5,-119 116.5,-83 231.5,-83 231.5,-119"/>
<text text-anchor="start" x="127" y="-99.2" font-family="Arial" font-weight="bold" font-style="italic" font-size="11.00" fill="black">PipingConnection</text>
</g>
<!-- 3 -->
<g id="node2" class="node"><defs>
<linearGradient id="l_1" gradientUnits="userSpaceOnUse" x1="57" y1="-1.77636e-014" x2="57" y2="-36">
<stop offset="0" style="stop-color:#ffffbb;stop-opacity:1.;"/>
<stop offset="1" style="stop-color:#ffffee;stop-opacity:1.;"/>
</linearGradient>
</defs>
<polygon fill="url(#l_1)" stroke="black" points="114,-36 0,-36 0,-0 114,-0 114,-36"/>
<text text-anchor="start" x="10" y="-16.2" font-family="Arial" font-weight="bold" font-style="italic" font-size="11.00" fill="black"><a fill="navy" href="../reference/Piping/PipingSourceItem.html" target="_parent">PipingSourceItem</a></text>
</g>
<!-- 0&#45;&gt;3 -->
<g id="edge1" class="edge"><path fill="none" stroke="#000000" d="M116.307,-89.6465C101.761,-84.757 87.1327,-77.5673 76,-67 70.0339,-61.3369 65.9036,-53.5647 63.0595,-45.9237"/>
<polygon fill="#000000" stroke="#000000" points="60.0154,-36.1427 67.2839,-44.3537 61.5013,-40.9168 62.9871,-45.691 62.9871,-45.691 62.9871,-45.691 61.5013,-40.9168 58.6904,-47.0282 60.0154,-36.1427 60.0154,-36.1427"/>
<text text-anchor="start" x="78" y="-56.5" font-family="Arial" font-size="10.00" fill="black"><a fill="navy" href="../reference/Piping/PipingConnection.html#dexpi-piping-pipingconnection-sourceitem" target="_parent">SourceItem</a></text>
<text text-anchor="start" x="39.0154" y="-39.1427" font-family="Arial" font-size="10.00" fill="black">0..1</text>
<text text-anchor="start" x="87.3072" y="-90.6465" font-family="Arial" font-size="10.00" fill="black">0..1</text>
</g>
<!-- 6 -->
<g id="node3" class="node"><defs>
<linearGradient id="l_2" gradientUnits="userSpaceOnUse" x1="176" y1="-1.77636e-014" x2="176" y2="-36">
<stop offset="0" style="stop-color:#ffffbb;stop-opacity:1.;"/>
<stop offset="1" style="stop-color:#ffffee;stop-opacity:1.;"/>
</linearGradient>
</defs>
<polygon fill="url(#l_2)" stroke="black" points="217.5,-36 134.5,-36 134.5,-0 217.5,-0 217.5,-36"/>
<text text-anchor="start" x="145" y="-16.2" font-family="Arial" font-weight="bold" font-size="11.00" fill="black"><a fill="navy" href="../reference/Piping/PipingNode.html" target="_parent">PipingNode</a></text>
</g>
<!-- 0&#45;&gt;6 -->
<g id="edge2" class="edge"><path fill="none" stroke="#000000" d="M147.194,-82.9353C137.255,-74.3306 129.575,-63.3308 135,-52 136.46,-48.9507 138.354,-46.0935 140.527,-43.4366"/>
<polygon fill="#000000" stroke="#000000" points="147.725,-36.0747 143.952,-46.3711 144.229,-39.65 140.734,-43.2252 140.734,-43.2252 140.734,-43.2252 144.229,-39.65 137.516,-40.0794 147.725,-36.0747 147.725,-36.0747"/>
<text text-anchor="start" x="137" y="-56.5" font-family="Arial" font-size="10.00" fill="black"><a fill="navy" href="../reference/Piping/PipingConnection.html#dexpi-piping-pipingconnection-sourcenode" target="_parent">SourceNode</a></text>
<text text-anchor="start" x="126.725" y="-39.0747" font-family="Arial" font-size="10.00" fill="black">0..1</text>
<text text-anchor="start" x="118.194" y="-72.9353" font-family="Arial" font-size="10.00" fill="black">0..1</text>
</g>
<!-- 0&#45;&gt;6 -->
<g id="edge4" class="edge"><path fill="none" stroke="#000000" d="M186.066,-82.9366C188.906,-78.019 191.532,-72.4925 193,-67 194.871,-59.9993 193.801,-52.5607 191.482,-45.6823"/>
<polygon fill="#000000" stroke="#000000" points="187.387,-36.1217 195.461,-43.542 189.355,-40.7178 191.324,-45.3139 191.324,-45.3139 191.324,-45.3139 189.355,-40.7178 187.188,-47.0858 187.387,-36.1217 187.387,-36.1217"/>
<text text-anchor="start" x="196" y="-56.5" font-family="Arial" font-size="10.00" fill="black"><a fill="navy" href="../reference/Piping/PipingConnection.html#dexpi-piping-pipingconnection-targetnode" target="_parent">TargetNode</a></text>
<text text-anchor="start" x="166.387" y="-39.1217" font-family="Arial" font-size="10.00" fill="black">0..1</text>
<text text-anchor="start" x="157.066" y="-72.9366" font-family="Arial" font-size="10.00" fill="black">0..1</text>
</g>
<!-- 9 -->
<g id="node4" class="node"><defs>
<linearGradient id="l_3" gradientUnits="userSpaceOnUse" x1="292" y1="-1.77636e-014" x2="292" y2="-36">
<stop offset="0" style="stop-color:#ffffbb;stop-opacity:1.;"/>
<stop offset="1" style="stop-color:#ffffee;stop-opacity:1.;"/>
</linearGradient>
</defs>
<polygon fill="url(#l_3)" stroke="black" points="347.5,-36 236.5,-36 236.5,-0 347.5,-0 347.5,-36"/>
<text text-anchor="start" x="247" y="-16.2" font-family="Arial" font-weight="bold" font-style="italic" font-size="11.00" fill="black"><a fill="navy" href="../reference/Piping/PipingTargetItem.html" target="_parent">PipingTargetItem</a></text>
</g>
<!-- 0&#45;&gt;9 -->
<g id="edge3" class="edge"><path fill="none" stroke="#000000" d="M224.192,-82.9503C233.881,-78.5268 243.615,-73.219 252,-67 260.406,-60.7652 268.158,-52.4118 274.555,-44.4224"/>
<polygon fill="#000000" stroke="#000000" points="280.7,-36.3324 278.234,-47.0175 277.676,-40.3139 274.651,-44.2953 274.651,-44.2953 274.651,-44.2953 277.676,-40.3139 271.068,-41.5732 280.7,-36.3324 280.7,-36.3324"/>
<text text-anchor="start" x="270" y="-56.5" font-family="Arial" font-size="10.00" fill="black"><a fill="navy" href="../reference/Piping/PipingConnection.html#dexpi-piping-pipingconnection-targetitem" target="_parent">TargetItem</a></text>
<text text-anchor="start" x="259.7" y="-39.3324" font-family="Arial" font-size="10.00" fill="black">0..1</text>
<text text-anchor="start" x="195.192" y="-72.9503" font-family="Arial" font-size="10.00" fill="black">0..1</text>
</g>
<!-- 14 -->
<g id="node5" class="node"><defs>
<linearGradient id="l_4" gradientUnits="userSpaceOnUse" x1="174" y1="-166" x2="174" y2="-202">
<stop offset="0" style="stop-color:#ffffbb;stop-opacity:1.;"/>
<stop offset="1" style="stop-color:#ffffee;stop-opacity:1.;"/>
</linearGradient>
</defs>
<polygon fill="url(#l_4)" stroke="black" points="247,-202 101,-202 101,-166 247,-166 247,-202"/>
<text text-anchor="start" x="111" y="-182.2" font-family="Arial" font-weight="bold" font-size="11.00" fill="black"><a fill="navy" href="../reference/Piping/PipingNetworkSegment.html" target="_parent">PipingNetworkSegment</a></text>
</g>
<!-- 14&#45;&gt;0 -->
<g id="edge5" class="edge"><path fill="none" stroke="#000000" d="M174,-153.549C174,-145.604 174,-137.044 174,-129.226"/>
<polygon fill="#000000" stroke="#000000" points="174,-153.822 178,-159.822 174,-165.822 170,-159.822 174,-153.822"/>
<polygon fill="#000000" stroke="#000000" points="174,-119.153 178.5,-129.153 174,-124.153 174,-129.153 174,-129.153 174,-129.153 174,-124.153 169.5,-129.153 174,-119.153 174,-119.153"/>
<text text-anchor="start" x="176.5" y="-139.5" font-family="Arial" font-size="10.00" fill="black"><a fill="navy" href="../reference/Piping/PipingNetworkSegment.html#dexpi-piping-pipingnetworksegment-connections" target="_parent">Connections</a></text>
<text text-anchor="start" x="166.0" y="-122.153" font-family="Arial" font-size="10.00" fill="black">*</text>
<text text-anchor="start" x="145.0" y="-155.822" font-family="Arial" font-size="10.00" fill="black">0..1</text>
</g>
</g>
</svg>