<!DOCTYPE svg PUBLIC "-//W3C//DTD SVG 1.1//EN" "http://www.w3.org/Graphics/SVG/1.1/DTD/svg11.dtd">
<!-- Generated by graphviz version 2.38.0 (20140413.2041)
 --><!-- Title: G Pages: 1 --><svg xmlns="http://www.w3.org/2000/svg" xmlns:xlink="http://www.w3.org/1999/xlink" width="573pt" height="644pt" viewBox="0.00 0.00 572.50 644.00">
<g id="graph0" class="graph" transform="scale(1 1) rotate(0) translate(4 640)">
<!-- 0 -->
<g id="node1" class="node"><defs>
<linearGradient id="l_0" gradientUnits="userSpaceOnUse" x1="289.5" y1="-83" x2="289.5" y2="-370">
<stop offset="0" style="stop-color:#ffffbb;stop-opacity:1.;"/>
<stop offset="1" style="stop-color:#ffffee;stop-opacity:1.;"/>
</linearGradient>
</defs>
<polygon fill="url(#l_0)" stroke="black" points="507,-370 72,-370 72,-83 507,-83 507,-370"/>
<text text-anchor="start" x="231.5" y="-355.7" font-family="Arial" font-weight="bold" font-size="11.00" fill="black">PipingNetworkSystem</text>
<text text-anchor="start" x="82.5" y="-331.5" font-family="Arial" font-size="10.00" fill="black"><a fill="navy" href="../reference/Piping/PipingNetworkSystem.html#dexpi-piping-pipingnetworksystem-fluidcode" target="_parent">FluidCode</a>&#160;:</text>
<text text-anchor="start" x="300.5" y="-331.5" font-family="Arial" font-size="10.00" fill="black"><a fill="navy" href="../reference/DataTypes/NullableString.html" target="_parent">NullableString</a>&#160;[0..1]</text>
<text text-anchor="start" x="82.5" y="-316.5" font-family="Arial" font-size="10.00" fill="black"><a fill="navy" href="../reference/Piping/PipingNetworkSystem.html#dexpi-piping-pipingnetworksystem-heattracingtype" target="_parent">HeatTracingType</a>&#160;:</text>
<text text-anchor="start" x="300.5" y="-316.5" font-family="Arial" font-size="10.00" fill="black"><a fill="navy" href="../reference/Enumerations/HeatTracingTypeClassification.html" target="_parent">HeatTracingTypeClassification</a>&#160;[0..1]</text>
<text text-anchor="start" x="82.5" y="-301.5" font-family="Arial" font-size="10.00" fill="black"><a fill="navy" href="../reference/Piping/PipingNetworkSystem.html#dexpi-piping-pipingnetworksystem-heattracingtyperepresentation" target="_parent">HeatTracingTypeRepresentation</a>&#160;:</text>
<text text-anchor="start" x="300.5" y="-301.5" font-family="Arial" font-size="10.00" fill="black"><a fill="navy" href="../reference/DataTypes/NullableString.html" target="_parent">NullableString</a>&#160;[0..1]</text>
<text text-anchor="start" x="82.5" y="-286.5" font-family="Arial" font-size="10.00" fill="black"><a fill="navy" href="../reference/Piping/PipingNetworkSystem.html#dexpi-piping-pipingnetworksystem-insulationthickness" target="_parent">InsulationThickness</a>&#160;:</text>
<text text-anchor="start" x="300.5" y="-286.5" font-family="Arial" font-size="10.00" fill="black"><a fill="navy" href="../reference/PhysicalQuantities/NullableLength.html" target="_parent">NullableLength</a>&#160;[0..1]</text>
<text text-anchor="start" x="82.5" y="-271.5" font-family="Arial" font-size="10.00" fill="black"><a fill="navy" href="../reference/Piping/PipingNetworkSystem.html#dexpi-piping-pipingnetworksystem-insulationtype" target="_parent">InsulationType</a>&#160;:</text>
<text text-anchor="start" x="300.5" y="-271.5" font-family="Arial" font-size="10.00" fill="black"><a fill="navy" href="../reference/DataTypes/NullableString.html" target="_parent">NullableString</a>&#160;[0..1]</text>
<text text-anchor="start" x="82.5" y="-256.5" font-family="Arial" font-size="10.00" fill="black"><a fill="navy" href="../reference/Piping/PipingNetworkSystem.html#dexpi-piping-pipingnetworksystem-jacketlinenumber" target="_parent">JacketLineNumber</a>&#160;:</text>
<text text-anchor="start" x="300.5" y="-256.5" font-family="Arial" font-size="10.00" fill="black"><a fill="navy" href="../reference/DataTypes/NullableString.html" target="_parent">NullableString</a>&#160;[0..1]</text>
<text text-anchor="start" x="82.5" y="-241.5" font-family="Arial" font-size="10.00" fill="black"><a fill="navy" href="../reference/Piping/PipingNetworkSystem.html#dexpi-piping-pipingnetworksystem-jacketedlinenumber" target="_parent">JacketedLineNumber</a>&#160;:</text>
<text text-anchor="start" x="300.5" y="-241.5" font-family="Arial" font-size="10.00" fill="black"><a fill="navy" href="../reference/DataTypes/NullableString.html" target="_parent">NullableString</a>&#160;[0..1]</text>
<text text-anchor="start" x="82.5" y="-226.5" font-family="Arial" font-size="10.00" fill="black"><a fill="navy" href="../reference/Piping/PipingNetworkSystem.html#dexpi-piping-pipingnetworksystem-jacketedpipe" target="_parent">JacketedPipe</a>&#160;:</text>
<text text-anchor="start" x="300.5" y="-226.5" font-family="Arial" font-size="10.00" fill="black"><a fill="navy" href="../reference/Enumerations/JacketedPipeClassification.html" target="_parent">JacketedPipeClassification</a>&#160;[0..1]</text>
<text text-anchor="start" x="82.5" y="-211.5" font-family="Arial" font-size="10.00" fill="black"><a fill="navy" href="../reference/Piping/PipingNetworkSystem.html#dexpi-piping-pipingnetworksystem-linenumber" target="_parent">LineNumber</a>&#160;:</text>
<text text-anchor="start" x="300.5" y="-211.5" font-family="Arial" font-size="10.00" fill="black"><a fill="navy" href="../reference/DataTypes/NullableString.html" target="_parent">NullableString</a>&#160;[0..1]</text>
<text text-anchor="start" x="82.5" y="-196.5" font-family="Arial" font-size="10.00" fill="black"><a fill="navy" href="../reference/Piping/PipingNetworkSystem.html#dexpi-piping-pipingnetworksystem-lowerlimitheattracingtemperature" target="_parent">LowerLimitHeatTracingTemperature</a>&#160;:</text>
<text text-anchor="start" x="300.5" y="-196.5" font-family="Arial" font-size="10.00" fill="black"><a fill="navy" href="../reference/PhysicalQuantities/NullableTemperature.html" target="_parent">NullableTemperature</a>&#160;[0..1]</text>
<text text-anchor="start" x="82.5" y="-181.5" font-family="Arial" font-size="10.00" fill="black"><a fill="navy" href="../reference/Piping/PipingNetworkSystem.html#dexpi-piping-pipingnetworksystem-nominaldiameternumericalvaluerepresentation" target="_parent">NominalDiameterNumericalValueRepresentation</a>&#160;:</text>
<text text-anchor="start" x="300.5" y="-181.5" font-family="Arial" font-size="10.00" fill="black"><a fill="navy" href="../reference/DataTypes/NullableString.html" target="_parent">NullableString</a>&#160;[0..1]</text>
<text text-anchor="start" x="82.5" y="-166.5" font-family="Arial" font-size="10.00" fill="black"><a fill="navy" href="../reference/Piping/PipingNetworkSystem.html#dexpi-piping-pipingnetworksystem-nominaldiameterrepresentation" target="_parent">NominalDiameterRepresentation</a>&#160;:</text>
<text text-anchor="start" x="300.5" y="-166.5" font-family="Arial" font-size="10.00" fill="black"><a fill="navy" href="../reference/DataTypes/NullableString.html" target="_parent">NullableString</a>&#160;[0..1]</text>
<text text-anchor="start" x="82.5" y="-151.5" font-family="Arial" font-size="10.00" fill="black"><a fill="navy" href="../reference/Piping/PipingNetworkSystem.html#dexpi-piping-pipingnetworksystem-nominaldiameterstandard" target="_parent">NominalDiameterStandard</a>&#160;:</text>
<text text-anchor="start" x="300.5" y="-151.5" font-family="Arial" font-size="10.00" fill="black"><a fill="navy" href="../reference/Enumerations/NominalDiameterStandardClassification.html" target="_parent">NominalDiameterStandardClassification</a>&#160;[0..1]</text>
<text text-anchor="start" x="82.5" y="-136.5" font-family="Arial" font-size="10.00" fill="black"><a fill="navy" href="../reference/Piping/PipingNetworkSystem.html#dexpi-piping-pipingnetworksystem-nominaldiametertyperepresentation" target="_parent">NominalDiameterTypeRepresentation</a>&#160;:</text>
<text text-anchor="start" x="300.5" y="-136.5" font-family="Arial" font-size="10.00" fill="black"><a fill="navy" href="../reference/DataTypes/NullableString.html" target="_parent">NullableString</a>&#160;[0..1]</text>
<text text-anchor="start" x="82.5" y="-121.5" font-family="Arial" font-size="10.00" fill="black"><a fill="navy" href="../reference/Piping/PipingNetworkSystem.html#dexpi-piping-pipingnetworksystem-onhold" target="_parent">OnHold</a>&#160;:</text>
<text text-anchor="start" x="300.5" y="-121.5" font-family="Arial" font-size="10.00" fill="black"><a fill="navy" href="../reference/Enumerations/OnHoldClassification.html" target="_parent">OnHoldClassification</a>&#160;[0..1]</text>
<text text-anchor="start" x="82.5" y="-106.5" font-family="Arial" font-size="10.00" fill="black"><a fill="navy" href="../reference/Piping/PipingNetworkSystem.html#dexpi-piping-pipingnetworksystem-pipingclasscode" target="_parent">PipingClassCode</a>&#160;:</text>
<text text-anchor="start" x="300.5" y="-106.5" font-family="Arial" font-size="10.00" fill="black"><a fill="navy" href="../reference/DataTypes/NullableString.html" target="_parent">NullableString</a>&#160;[0..1]</text>
<text text-anchor="start" x="82.5" y="-91.5" font-family="Arial" font-size="10.00" fill="black"><a fill="navy" href="../reference/Piping/PipingNetworkSystem.html#dexpi-piping-pipingnetworksystem-pipingnetworksystemgroupnumber" target="_parent">PipingNetworkSystemGroupNumber</a>&#160;:</text>
<text text-anchor="start" x="300.5" y="-91.5" font-family="Arial" font-size="10.00" fill="black"><a fill="navy" href="../reference/DataTypes/NullableString.html" target="_parent">NullableString</a>&#160;[0..1]</text>
<polygon fill="black" stroke="black" points="507.0,-349.5 72.0,-349.5 72.0,-349.5 507.0,-349.5 507.0,-349.5"/>
</g>
<!-- 35 -->
<g id="node6" class="node"><defs>
<linearGradient id="l_1" gradientUnits="userSpaceOnUse" x1="289.5" y1="-1.77636e-014" x2="289.5" y2="-36">
<stop offset="0" style="stop-color:#ffffbb;stop-opacity:1.;"/>
<stop offset="1" style="stop-color:#ffffee;stop-opacity:1.;"/>
</linearGradient>
</defs>
<polygon fill="url(#l_1)" stroke="black" points="362.5,-36 216.5,-36 216.5,-0 362.5,-0 362.5,-36"/>
<text text-anchor="start" x="226.5" y="-16.2" font-family="Arial" font-weight="bold" font-size="11.00" fill="black"><a fill="navy" href="../reference/Piping/PipingNetworkSegment.html" target="_parent">PipingNetworkSegment</a></text>
</g>
<!-- 0&#45;&gt;35 -->
<g id="edge2" class="edge"><path fill="none" stroke="#000000" d="M289.5,-70.5903C289.5,-61.5576 289.5,-53.2354 289.5,-46.0307"/>
<polygon fill="#000000" stroke="#000000" points="289.5,-70.9237 293.5,-76.9237 289.5,-82.9237 285.5,-76.9237 289.5,-70.9237"/>
<polygon fill="#000000" stroke="#000000" points="289.5,-36.0071 294,-46.0071 289.5,-41.0071 289.5,-46.0071 289.5,-46.0071 289.5,-46.0071 289.5,-41.0071 285,-46.0071 289.5,-36.0071 289.5,-36.0071"/>
<text text-anchor="start" x="292" y="-56.5" font-family="Arial" font-size="10.00" fill="black"><a fill="navy" href="../reference/Piping/PipingNetworkSystem.html#dexpi-piping-pipingnetworksystem-segments" target="_parent">Segments</a></text>
<text text-anchor="start" x="281.5" y="-39.0071" font-family="Arial" font-size="10.00" fill="black">*</text>
<text text-anchor="start" x="260.5" y="-72.9237" font-family="Arial" font-size="10.00" fill="black">0..1</text>
</g>
<!-- 26 -->
<g id="node2" class="node"><defs>
<linearGradient id="l_2" gradientUnits="userSpaceOnUse" x1="472.5" y1="-583" x2="472.5" y2="-636">
<stop offset="0" style="stop-color:#fbfbfb;stop-opacity:1.;"/>
<stop offset="1" style="stop-color:#fefefe;stop-opacity:1.;"/>
</linearGradient>
</defs>
<polygon fill="url(#l_2)" stroke="black" points="564.5,-625.0 553.5,-636.0 380.5,-636.0 380.5,-583.0 564.5,-583.0"/><path d="M564.5,-625.0L553.5,-625.0 553.5,-636.0" fill="none" stroke="black"/>
<text text-anchor="start" x="390.5" y="-621.5" font-family="Arial" font-size="10.00" fill="black">For&#160;the&#160;sake&#160;of&#160;clarity,&#160;superclasses&#160;</text>
<text text-anchor="start" x="390.5" y="-606.5" font-family="Arial" font-size="10.00" fill="black">and&#160;associations&#160;of&#160;<a fill="navy" href="../reference/PlantStructure/TechnicalItem.html" target="_parent">TechnicalItem</a>&#160;are</text>
<text text-anchor="start" x="390.5" y="-591.5" font-family="Arial" font-size="10.00" fill="black">not&#160;shown&#160;in&#160;this&#160;diagram.</text>
</g>
<!-- 25 -->
<g id="node3" class="node"><defs>
<linearGradient id="l_3" gradientUnits="userSpaceOnUse" x1="472.5" y1="-500" x2="472.5" y2="-536">
<stop offset="0" style="stop-color:#ffffbb;stop-opacity:1.;"/>
<stop offset="1" style="stop-color:#ffffee;stop-opacity:1.;"/>
</linearGradient>
</defs>
<polygon fill="url(#l_3)" stroke="black" points="519,-536 426,-536 426,-500 519,-500 519,-536"/>
<text text-anchor="start" x="436.5" y="-516.2" font-family="Arial" font-weight="bold" font-style="italic" font-size="11.00" fill="black"><a fill="navy" href="../reference/PlantStructure/TechnicalItem.html" target="_parent">TechnicalItem</a></text>
</g>
<!-- 26&#45;&gt;25 -->
<g id="edge1" class="edge"><path fill="none" stroke="#000000" stroke-dasharray="5,2" d="M472.5,-582.613C472.5,-567.641 472.5,-549.222 472.5,-536.063"/>
</g>
<!-- 32&#45;inner&#45;node -->
<!-- 25&#45;&gt;32&#45;inner&#45;node -->
<g id="edge11" class="edge"><path fill="none" stroke="black" d="M472.5,-489.649C472.5,-466.987 472.5,-438.163 472.5,-436.116L472.367,-433.85"/>
<polygon fill="none" stroke="black" points="469,-489.822 472.5,-499.822 476,-489.822 469,-489.822"/>
</g>
<!-- 28 -->
<g id="node4" class="node"><defs>
<linearGradient id="l_4" gradientUnits="userSpaceOnUse" x1="177.5" y1="-500" x2="177.5" y2="-536">
<stop offset="0" style="stop-color:#ffffbb;stop-opacity:1.;"/>
<stop offset="1" style="stop-color:#ffffee;stop-opacity:1.;"/>
</linearGradient>
</defs>
<polygon fill="url(#l_4)" stroke="black" points="235,-536 120,-536 120,-500 235,-500 235,-536"/>
<text text-anchor="start" x="130.5" y="-516.2" font-family="Arial" font-weight="bold" font-style="italic" font-size="11.00" fill="black"><a fill="navy" href="../reference/DexpiModel/ConceptualObject.html" target="_parent">ConceptualObject</a></text>
</g>
<!-- 30&#45;inner&#45;node -->
<!-- 28&#45;&gt;30&#45;inner&#45;node -->
<g id="edge7" class="edge"><path fill="none" stroke="black" d="M177.5,-489.649C177.5,-466.987 177.5,-438.163 177.5,-436.116L177.537,-433.878"/>
<polygon fill="none" stroke="black" points="174,-489.822 177.5,-499.822 181,-489.822 174,-489.822"/>
</g>
<!-- 29 -->
<g id="node5" class="node"><defs>
<linearGradient id="l_5" gradientUnits="userSpaceOnUse" x1="335.5" y1="-500" x2="335.5" y2="-536">
<stop offset="0" style="stop-color:#ffffbb;stop-opacity:1.;"/>
<stop offset="1" style="stop-color:#ffffee;stop-opacity:1.;"/>
</linearGradient>
</defs>
<polygon fill="url(#l_5)" stroke="black" points="407.5,-536 263.5,-536 263.5,-500 407.5,-500 407.5,-536"/>
<text text-anchor="start" x="273.5" y="-516.2" font-family="Arial" font-weight="bold" font-style="italic" font-size="11.00" fill="black"><a fill="navy" href="../reference/Customization/CustomAttributeOwner.html" target="_parent">CustomAttributeOwner</a></text>
</g>
<!-- 47 -->
<g id="node10" class="node"><defs>
<linearGradient id="l_6" gradientUnits="userSpaceOnUse" x1="250.5" y1="-417" x2="250.5" y2="-453">
<stop offset="0" style="stop-color:#ffffbb;stop-opacity:1.;"/>
<stop offset="1" style="stop-color:#ffffee;stop-opacity:1.;"/>
</linearGradient>
</defs>
<polygon fill="url(#l_6)" stroke="black" points="305,-453 196,-453 196,-417 305,-417 305,-453"/>
<text text-anchor="start" x="206.5" y="-433.2" font-family="Arial" font-weight="bold" font-style="italic" font-size="11.00" fill="black"><a fill="navy" href="../reference/Customization/CustomAttribute.html" target="_parent">CustomAttribute</a></text>
</g>
<!-- 29&#45;&gt;47 -->
<g id="edge6" class="edge"><path fill="none" stroke="#000000" d="M258.949,-492.486C256.181,-489.933 253.67,-487.113 251.5,-484 247.402,-478.119 245.944,-470.772 245.815,-463.608"/>
<polygon fill="#000000" stroke="#000000" points="258.998,-492.523 266.196,-492.959 268.563,-499.77 261.365,-499.335 258.998,-492.523"/>
<polygon fill="#000000" stroke="#000000" points="246.425,-453.435 250.319,-463.687 246.126,-458.426 245.827,-463.417 245.827,-463.417 245.827,-463.417 246.126,-458.426 241.335,-463.148 246.425,-453.435 246.425,-453.435"/>
<text text-anchor="start" x="253.5" y="-473.5" font-family="Arial" font-size="10.00" fill="black"><a fill="navy" href="../reference/Customization/CustomAttributeOwner.html#dexpi-customization-customattributeowner-customattributes" target="_parent">CustomAttributes</a></text>
<text text-anchor="start" x="238.425" y="-456.435" font-family="Arial" font-size="10.00" fill="black">*</text>
<text text-anchor="start" x="239.563" y="-489.77" font-family="Arial" font-size="10.00" fill="black">0..1</text>
</g>
<!-- 31&#45;inner&#45;node -->
<!-- 29&#45;&gt;31&#45;inner&#45;node -->
<g id="edge9" class="edge"><path fill="none" stroke="black" d="M335.5,-489.649C335.5,-466.987 335.5,-438.163 335.5,-436.116L335.467,-433.85"/>
<polygon fill="none" stroke="black" points="332,-489.822 335.5,-499.822 339,-489.822 332,-489.822"/>
</g>
<!-- 38 -->
<g id="node7" class="node"><defs>
<linearGradient id="l_7" gradientUnits="userSpaceOnUse" x1="101.5" y1="-417" x2="101.5" y2="-453">
<stop offset="0" style="stop-color:#ffffbb;stop-opacity:1.;"/>
<stop offset="1" style="stop-color:#ffffee;stop-opacity:1.;"/>
</linearGradient>
</defs>
<polygon fill="url(#l_7)" stroke="black" points="158.5,-453 44.5,-453 44.5,-417 158.5,-417 158.5,-453"/>
<text text-anchor="start" x="54.5" y="-433.2" font-family="Arial" font-weight="bold" font-size="11.00" fill="black"><a fill="navy" href="../reference/DexpiModel/ConceptualModel.html" target="_parent">ConceptualModel</a></text>
</g>
<!-- 38&#45;&gt;0 -->
<g id="edge3" class="edge"><path fill="none" stroke="#000000" d="M97.5504,-404.398C97.7798,-398.102 98.8718,-391.653 101.5,-386 102.602,-383.629 103.759,-381.281 104.968,-378.955"/>
<polygon fill="#000000" stroke="#000000" points="97.568,-404.814 101.818,-410.64 98.0757,-416.804 93.8254,-410.978 97.568,-404.814"/>
<polygon fill="#000000" stroke="#000000" points="109.88,-370.1 108.964,-381.028 107.454,-374.473 105.029,-378.845 105.029,-378.845 105.029,-378.845 107.454,-374.473 101.094,-376.662 109.88,-370.1 109.88,-370.1"/>
<text text-anchor="start" x="103.5" y="-390.5" font-family="Arial" font-size="10.00" fill="black"><a fill="navy" href="../reference/DexpiModel/ConceptualModel.html#dexpi-dexpimodel-conceptualmodel-pipingnetworksystems" target="_parent">PipingNetworkSystems</a></text>
<text text-anchor="start" x="101.88" y="-373.1" font-family="Arial" font-size="10.00" fill="black">*</text>
<text text-anchor="start" x="69.0757" y="-406.804" font-family="Arial" font-size="10.00" fill="black">0..1</text>
</g>
<!-- 41 -->
<g id="node8" class="node"><defs>
<linearGradient id="l_8" gradientUnits="userSpaceOnUse" x1="74.5" y1="-591.5" x2="74.5" y2="-627.5">
<stop offset="0" style="stop-color:#ffffbb;stop-opacity:1.;"/>
<stop offset="1" style="stop-color:#ffffee;stop-opacity:1.;"/>
</linearGradient>
</defs>
<polygon fill="url(#l_8)" stroke="black" points="149,-627.5 0,-627.5 0,-591.5 149,-591.5 149,-627.5"/>
<text text-anchor="start" x="10.5" y="-607.7" font-family="Arial" font-weight="bold" font-size="11.00" fill="black"><a fill="navy" href="../reference/Graphics/AttributeRepresentation.html" target="_parent">AttributeRepresentation</a></text>
</g>
<!-- 41&#45;&gt;28 -->
<g id="edge4" class="edge"><path fill="none" stroke="#000000" d="M94.3594,-591.243C110.176,-577.5 132.493,-558.108 150.024,-542.875"/>
<polygon fill="#000000" stroke="#000000" points="157.702,-536.204 153.105,-546.159 153.927,-539.483 150.153,-542.763 150.153,-542.763 150.153,-542.763 153.927,-539.483 147.201,-539.366 157.702,-536.204 157.702,-536.204"/>
<text text-anchor="start" x="141" y="-556.5" font-family="Arial" font-size="10.00" fill="black"><a fill="navy" href="../reference/Graphics/AttributeRepresentation.html#dexpi-graphics-attributerepresentation-object" target="_parent">Object</a></text>
<text text-anchor="start" x="149.702" y="-539.204" font-family="Arial" font-size="10.00" fill="black"></text>
<text text-anchor="start" x="78.3594" y="-581.243" font-family="Arial" font-size="10.00" fill="black">*</text>
</g>
<!-- 44 -->
<g id="node9" class="node"><defs>
<linearGradient id="l_9" gradientUnits="userSpaceOnUse" x1="235.5" y1="-591.5" x2="235.5" y2="-627.5">
<stop offset="0" style="stop-color:#ffffbb;stop-opacity:1.;"/>
<stop offset="1" style="stop-color:#ffffee;stop-opacity:1.;"/>
</linearGradient>
</defs>
<polygon fill="url(#l_9)" stroke="black" points="304,-627.5 167,-627.5 167,-591.5 304,-591.5 304,-627.5"/>
<text text-anchor="start" x="177.5" y="-607.7" font-family="Arial" font-weight="bold" font-size="11.00" fill="black"><a fill="navy" href="../reference/Graphics/RepresentationGroup.html" target="_parent">RepresentationGroup</a></text>
</g>
<!-- 44&#45;&gt;28 -->
<g id="edge5" class="edge"><path fill="none" stroke="#000000" d="M224.317,-591.243C215.812,-578.119 203.968,-559.843 194.322,-544.958"/>
<polygon fill="#000000" stroke="#000000" points="188.649,-536.204 197.863,-542.148 191.368,-540.399 194.087,-544.595 194.087,-544.595 194.087,-544.595 191.368,-540.399 190.311,-547.043 188.649,-536.204 188.649,-536.204"/>
<text text-anchor="start" x="210.5" y="-556.5" font-family="Arial" font-size="10.00" fill="black"><a fill="navy" href="../reference/Graphics/RepresentationGroup.html#dexpi-graphics-representationgroup-represents" target="_parent">Represents</a></text>
<text text-anchor="start" x="180.649" y="-539.204" font-family="Arial" font-size="10.00" fill="black"></text>
<text text-anchor="start" x="208.317" y="-581.243" font-family="Arial" font-size="10.00" fill="black">*</text>
</g>
<!-- 30&#45;inner&#45;node&#45;&gt;0 -->
<g id="edge8" class="edge"><path fill="none" stroke="black" d="M177.537,-433.878C177.911,-432.678 181.071,-422.896 186.5,-417 195.436,-407.296 202.881,-410.987 211.5,-401 219.591,-391.624 226.986,-381.272 233.714,-370.431"/>
</g>
<!-- 31&#45;inner&#45;node&#45;&gt;0 -->
<g id="edge10" class="edge"><path fill="none" stroke="black" d="M335.467,-433.85C334.965,-431.597 328.856,-404.172 321.246,-370.01"/>
</g>
<!-- 32&#45;inner&#45;node&#45;&gt;0 -->
<g id="edge12" class="edge"><path fill="none" stroke="black" d="M472.367,-433.85C470.37,-431.597 446.067,-404.172 415.792,-370.01"/>
</g>
</g>
</svg>