<!DOCTYPE svg PUBLIC "-//W3C//DTD SVG 1.1//EN" "http://www.w3.org/Graphics/SVG/1.1/DTD/svg11.dtd">
<!-- Generated by graphviz version 2.38.0 (20140413.2041)
 --><!-- Title: G Pages: 1 --><svg xmlns="http://www.w3.org/2000/svg" xmlns:xlink="http://www.w3.org/1999/xlink" width="530pt" height="554pt" viewBox="0.00 0.00 529.50 554.00">
<g id="graph0" class="graph" transform="scale(1 1) rotate(0) translate(4 550)">
<!-- 0 -->
<g id="node1" class="node"><defs>
<linearGradient id="l_0" gradientUnits="userSpaceOnUse" x1="258" y1="-83" x2="258" y2="-145">
<stop offset="0" style="stop-color:#ffffbb;stop-opacity:1.;"/>
<stop offset="1" style="stop-color:#ffffee;stop-opacity:1.;"/>
</linearGradient>
</defs>
<polygon fill="url(#l_0)" stroke="black" points="382.5,-145 133.5,-145 133.5,-83 382.5,-83 382.5,-145"/>
<text text-anchor="start" x="224.5" y="-131.2" font-family="Arial" font-weight="bold" font-size="11.00" fill="black">PlantSection</text>
<text text-anchor="start" x="144" y="-107" font-family="Arial" font-size="10.00" fill="black"><a fill="navy" href="../reference/PlantStructure/PlantSection.html#dexpi-plantstructure-plantsection-plantsectionidentificationcode" target="_parent">PlantSectionIdentificationCode</a>&#160;:</text>
<text text-anchor="start" x="287" y="-107" font-family="Arial" font-size="10.00" fill="black"><a fill="navy" href="../reference/DataTypes/NullableString.html" target="_parent">NullableString</a>&#160;[0..1]</text>
<text text-anchor="start" x="144" y="-92" font-family="Arial" font-size="10.00" fill="black"><a fill="navy" href="../reference/PlantStructure/PlantSection.html#dexpi-plantstructure-plantsection-plantsectionname" target="_parent">PlantSectionName</a>&#160;:</text>
<text text-anchor="start" x="287" y="-92" font-family="Arial" font-size="10.00" fill="black"><a fill="navy" href="../reference/DataTypes/NullableString.html" target="_parent">NullableString</a>&#160;[0..1]</text>
<polygon fill="black" stroke="black" points="382.5,-125.0 133.5,-125.0 133.5,-125.0 382.5,-125.0 382.5,-125.0"/>
</g>
<!-- 16 -->
<g id="node7" class="node"><defs>
<linearGradient id="l_1" gradientUnits="userSpaceOnUse" x1="258" y1="-1.77636e-014" x2="258" y2="-36">
<stop offset="0" style="stop-color:#ffffbb;stop-opacity:1.;"/>
<stop offset="1" style="stop-color:#ffffee;stop-opacity:1.;"/>
</linearGradient>
</defs>
<polygon fill="url(#l_1)" stroke="black" points="343.5,-36 172.5,-36 172.5,-0 343.5,-0 343.5,-36"/>
<text text-anchor="start" x="183" y="-16.2" font-family="Arial" font-weight="bold" font-style="italic" font-size="11.00" fill="black"><a fill="navy" href="../reference/PlantStructure/PlantSectionParentStructure.html" target="_parent">PlantSectionParentStructure</a></text>
</g>
<!-- 0&#45;&gt;16 -->
<g id="edge1" class="edge"><path fill="none" stroke="#000000" d="M258,-82.9994C258,-71.2728 258,-57.9145 258,-46.4464"/>
<polygon fill="#000000" stroke="#000000" points="258,-36.1454 262.5,-46.1454 258,-41.1454 258,-46.1454 258,-46.1454 258,-46.1454 258,-41.1454 253.5,-46.1454 258,-36.1454 258,-36.1454"/>
<text text-anchor="start" x="260.5" y="-56.5" font-family="Arial" font-size="10.00" fill="black"><a fill="navy" href="../reference/PlantStructure/PlantSection.html#dexpi-plantstructure-plantsection-parentstructure" target="_parent">ParentStructure</a></text>
<text text-anchor="start" x="237.0" y="-39.1454" font-family="Arial" font-size="10.00" fill="black">0..1</text>
<text text-anchor="start" x="242.0" y="-72.9994" font-family="Arial" font-size="10.00" fill="black">*</text>
</g>
<!-- 4 -->
<g id="node2" class="node"><defs>
<linearGradient id="l_2" gradientUnits="userSpaceOnUse" x1="98" y1="-261" x2="98" y2="-297">
<stop offset="0" style="stop-color:#ffffbb;stop-opacity:1.;"/>
<stop offset="1" style="stop-color:#ffffee;stop-opacity:1.;"/>
</linearGradient>
</defs>
<polygon fill="url(#l_2)" stroke="black" points="180,-297 16,-297 16,-261 180,-261 180,-297"/>
<text text-anchor="start" x="26" y="-277.2" font-family="Arial" font-weight="bold" font-style="italic" font-size="11.00" fill="black"><a fill="navy" href="../reference/PlantStructure/PlantAreaLocatedStructure.html" target="_parent">PlantAreaLocatedStructure</a></text>
</g>
<!-- 19 -->
<g id="node8" class="node"><defs>
<linearGradient id="l_3" gradientUnits="userSpaceOnUse" x1="36" y1="-178" x2="36" y2="-214">
<stop offset="0" style="stop-color:#ffffbb;stop-opacity:1.;"/>
<stop offset="1" style="stop-color:#ffffee;stop-opacity:1.;"/>
</linearGradient>
</defs>
<polygon fill="url(#l_3)" stroke="black" points="72,-214 0,-214 0,-178 72,-178 72,-214"/>
<text text-anchor="start" x="10" y="-194.2" font-family="Arial" font-weight="bold" font-size="11.00" fill="black"><a fill="navy" href="../reference/PlantStructure/PlantArea.html" target="_parent">PlantArea</a></text>
</g>
<!-- 4&#45;&gt;19 -->
<g id="edge2" class="edge"><path fill="none" stroke="#000000" d="M63.3215,-260.816C57.1304,-256.403 51.2949,-251.133 47,-245 42.7337,-238.907 40.0967,-231.412 38.4743,-224.171"/>
<polygon fill="#000000" stroke="#000000" points="36.7923,-214.277 42.9047,-223.381 37.6303,-219.206 38.4683,-224.136 38.4683,-224.136 38.4683,-224.136 37.6303,-219.206 34.032,-224.89 36.7923,-214.277 36.7923,-214.277"/>
<text text-anchor="start" x="49.5" y="-234.5" font-family="Arial" font-size="10.00" fill="black"><a fill="navy" href="../reference/PlantStructure/PlantAreaLocatedStructure.html#dexpi-plantstructure-plantarealocatedstructure-plantarea" target="_parent">PlantArea</a></text>
<text text-anchor="start" x="15.7923" y="-217.277" font-family="Arial" font-size="10.00" fill="black">0..1</text>
<text text-anchor="start" x="47.3215" y="-250.816" font-family="Arial" font-size="10.00" fill="black">*</text>
</g>
<!-- 9&#45;inner&#45;node -->
<!-- 4&#45;&gt;9&#45;inner&#45;node -->
<g id="edge8" class="edge"><path fill="none" stroke="black" d="M98,-250.649C98,-227.987 98,-199.163 98,-197.116L98.116,-194.942"/>
<polygon fill="none" stroke="black" points="94.5001,-250.822 98,-260.822 101.5,-250.822 94.5001,-250.822"/>
</g>
<!-- 5 -->
<g id="node3" class="node"><defs>
<linearGradient id="l_4" gradientUnits="userSpaceOnUse" x1="258" y1="-261" x2="258" y2="-297">
<stop offset="0" style="stop-color:#ffffbb;stop-opacity:1.;"/>
<stop offset="1" style="stop-color:#ffffee;stop-opacity:1.;"/>
</linearGradient>
</defs>
<polygon fill="url(#l_4)" stroke="black" points="318,-297 198,-297 198,-261 318,-261 318,-297"/>
<text text-anchor="start" x="208" y="-277.2" font-family="Arial" font-weight="bold" font-style="italic" font-size="11.00" fill="black"><a fill="navy" href="../reference/PlantStructure/PlantStructureItem.html" target="_parent">PlantStructureItem</a></text>
</g>
<!-- 10&#45;inner&#45;node -->
<!-- 5&#45;&gt;10&#45;inner&#45;node -->
<g id="edge10" class="edge"><path fill="none" stroke="black" d="M258,-250.649C258,-227.987 258,-199.163 258,-197.116L258,-194.942"/>
<polygon fill="none" stroke="black" points="254.5,-250.822 258,-260.822 261.5,-250.822 254.5,-250.822"/>
</g>
<!-- 6 -->
<g id="node4" class="node"><defs>
<linearGradient id="l_5" gradientUnits="userSpaceOnUse" x1="433" y1="-261" x2="433" y2="-297">
<stop offset="0" style="stop-color:#ffffbb;stop-opacity:1.;"/>
<stop offset="1" style="stop-color:#ffffee;stop-opacity:1.;"/>
</linearGradient>
</defs>
<polygon fill="url(#l_5)" stroke="black" points="521.5,-297 344.5,-297 344.5,-261 521.5,-261 521.5,-297"/>
<text text-anchor="start" x="355" y="-277.2" font-family="Arial" font-weight="bold" font-style="italic" font-size="11.00" fill="black"><a fill="navy" href="../reference/PlantStructure/TechnicalItemParentStructure.html" target="_parent">TechnicalItemParentStructure</a></text>
</g>
<!-- 11&#45;inner&#45;node -->
<!-- 6&#45;&gt;11&#45;inner&#45;node -->
<g id="edge12" class="edge"><path fill="none" stroke="black" d="M433,-250.649C433,-227.987 433,-199.163 433,-197.116L432.873,-194.942"/>
<polygon fill="none" stroke="black" points="429.5,-250.822 433,-260.822 436.5,-250.822 429.5,-250.822"/>
</g>
<!-- 7 -->
<g id="node5" class="node"><defs>
<linearGradient id="l_6" gradientUnits="userSpaceOnUse" x1="217" y1="-427" x2="217" y2="-463">
<stop offset="0" style="stop-color:#ffffbb;stop-opacity:1.;"/>
<stop offset="1" style="stop-color:#ffffee;stop-opacity:1.;"/>
</linearGradient>
</defs>
<polygon fill="url(#l_6)" stroke="black" points="274.5,-463 159.5,-463 159.5,-427 274.5,-427 274.5,-463"/>
<text text-anchor="start" x="170" y="-443.2" font-family="Arial" font-weight="bold" font-style="italic" font-size="11.00" fill="black"><a fill="navy" href="../reference/DexpiModel/ConceptualObject.html" target="_parent">ConceptualObject</a></text>
</g>
<!-- 12&#45;inner&#45;node -->
<!-- 7&#45;&gt;12&#45;inner&#45;node -->
<g id="edge14" class="edge"><path fill="none" stroke="black" d="M217,-416.649C217,-393.987 217,-365.163 217,-363.116L217.054,-360.89"/>
<polygon fill="none" stroke="black" points="213.5,-416.822 217,-426.822 220.5,-416.822 213.5,-416.822"/>
</g>
<!-- 8 -->
<g id="node6" class="node"><defs>
<linearGradient id="l_7" gradientUnits="userSpaceOnUse" x1="375" y1="-427" x2="375" y2="-463">
<stop offset="0" style="stop-color:#ffffbb;stop-opacity:1.;"/>
<stop offset="1" style="stop-color:#ffffee;stop-opacity:1.;"/>
</linearGradient>
</defs>
<polygon fill="url(#l_7)" stroke="black" points="447,-463 303,-463 303,-427 447,-427 447,-463"/>
<text text-anchor="start" x="313" y="-443.2" font-family="Arial" font-weight="bold" font-style="italic" font-size="11.00" fill="black"><a fill="navy" href="../reference/Customization/CustomAttributeOwner.html" target="_parent">CustomAttributeOwner</a></text>
</g>
<!-- 34 -->
<g id="node13" class="node"><defs>
<linearGradient id="l_8" gradientUnits="userSpaceOnUse" x1="290" y1="-344" x2="290" y2="-380">
<stop offset="0" style="stop-color:#ffffbb;stop-opacity:1.;"/>
<stop offset="1" style="stop-color:#ffffee;stop-opacity:1.;"/>
</linearGradient>
</defs>
<polygon fill="url(#l_8)" stroke="black" points="344.5,-380 235.5,-380 235.5,-344 344.5,-344 344.5,-380"/>
<text text-anchor="start" x="246" y="-360.2" font-family="Arial" font-weight="bold" font-style="italic" font-size="11.00" fill="black"><a fill="navy" href="../reference/Customization/CustomAttribute.html" target="_parent">CustomAttribute</a></text>
</g>
<!-- 8&#45;&gt;34 -->
<g id="edge7" class="edge"><path fill="none" stroke="#000000" d="M298.449,-419.486C295.681,-416.933 293.17,-414.113 291,-411 286.902,-405.119 285.444,-397.772 285.315,-390.608"/>
<polygon fill="#000000" stroke="#000000" points="298.498,-419.523 305.696,-419.959 308.063,-426.77 300.865,-426.335 298.498,-419.523"/>
<polygon fill="#000000" stroke="#000000" points="285.925,-380.435 289.819,-390.687 285.626,-385.426 285.327,-390.417 285.327,-390.417 285.327,-390.417 285.626,-385.426 280.835,-390.148 285.925,-380.435 285.925,-380.435"/>
<text text-anchor="start" x="293" y="-400.5" font-family="Arial" font-size="10.00" fill="black"><a fill="navy" href="../reference/Customization/CustomAttributeOwner.html#dexpi-customization-customattributeowner-customattributes" target="_parent">CustomAttributes</a></text>
<text text-anchor="start" x="277.925" y="-383.435" font-family="Arial" font-size="10.00" fill="black">*</text>
<text text-anchor="start" x="279.063" y="-416.77" font-family="Arial" font-size="10.00" fill="black">0..1</text>
</g>
<!-- 13&#45;inner&#45;node -->
<!-- 8&#45;&gt;13&#45;inner&#45;node -->
<g id="edge16" class="edge"><path fill="none" stroke="black" d="M375,-416.649C375,-393.987 375,-365.163 375,-363.116L374.863,-360.889"/>
<polygon fill="none" stroke="black" points="371.5,-416.822 375,-426.822 378.5,-416.822 371.5,-416.822"/>
</g>
<!-- 22 -->
<g id="node9" class="node"><defs>
<linearGradient id="l_9" gradientUnits="userSpaceOnUse" x1="141" y1="-344" x2="141" y2="-380">
<stop offset="0" style="stop-color:#ffffbb;stop-opacity:1.;"/>
<stop offset="1" style="stop-color:#ffffee;stop-opacity:1.;"/>
</linearGradient>
</defs>
<polygon fill="url(#l_9)" stroke="black" points="198,-380 84,-380 84,-344 198,-344 198,-380"/>
<text text-anchor="start" x="94" y="-360.2" font-family="Arial" font-weight="bold" font-size="11.00" fill="black"><a fill="navy" href="../reference/DexpiModel/ConceptualModel.html" target="_parent">ConceptualModel</a></text>
</g>
<!-- 22&#45;&gt;5 -->
<g id="edge3" class="edge"><path fill="none" stroke="#000000" d="M135.293,-331.729C135.459,-325.035 136.965,-318.331 141,-313 142.736,-310.707 164.215,-304.381 188.305,-297.874"/>
<polygon fill="#000000" stroke="#000000" points="135.305,-331.877 139.764,-337.544 136.248,-343.84 131.789,-338.173 135.305,-331.877"/>
<polygon fill="#000000" stroke="#000000" points="197.997,-295.282 189.499,-302.213 193.166,-296.574 188.336,-297.866 188.336,-297.866 188.336,-297.866 193.166,-296.574 187.173,-293.519 197.997,-295.282 197.997,-295.282"/>
<text text-anchor="start" x="143.5" y="-317.5" font-family="Arial" font-size="10.00" fill="black"><a fill="navy" href="../reference/DexpiModel/ConceptualModel.html#dexpi-dexpimodel-conceptualmodel-plantstructureitems" target="_parent">PlantStructureItems</a></text>
<text text-anchor="start" x="189.997" y="-298.282" font-family="Arial" font-size="10.00" fill="black">*</text>
<text text-anchor="start" x="107.248" y="-333.84" font-family="Arial" font-size="10.00" fill="black">0..1</text>
</g>
<!-- 25 -->
<g id="node10" class="node"><defs>
<linearGradient id="l_10" gradientUnits="userSpaceOnUse" x1="440" y1="-344" x2="440" y2="-380">
<stop offset="0" style="stop-color:#ffffbb;stop-opacity:1.;"/>
<stop offset="1" style="stop-color:#ffffee;stop-opacity:1.;"/>
</linearGradient>
</defs>
<polygon fill="url(#l_10)" stroke="black" points="486.5,-380 393.5,-380 393.5,-344 486.5,-344 486.5,-380"/>
<text text-anchor="start" x="404" y="-360.2" font-family="Arial" font-weight="bold" font-style="italic" font-size="11.00" fill="black"><a fill="navy" href="../reference/PlantStructure/TechnicalItem.html" target="_parent">TechnicalItem</a></text>
</g>
<!-- 25&#45;&gt;6 -->
<g id="edge4" class="edge"><path fill="none" stroke="#000000" d="M438.515,-343.822C437.597,-333.19 436.397,-319.306 435.351,-307.204"/>
<polygon fill="#000000" stroke="#000000" points="434.482,-297.153 439.827,-306.729 434.913,-302.135 435.343,-307.116 435.343,-307.116 435.343,-307.116 434.913,-302.135 430.86,-307.504 434.482,-297.153 434.482,-297.153"/>
<text text-anchor="start" x="440.5" y="-317.5" font-family="Arial" font-size="10.00" fill="black"><a fill="navy" href="../reference/PlantStructure/TechnicalItem.html#dexpi-plantstructure-technicalitem-parentstructure" target="_parent">ParentStructure</a></text>
<text text-anchor="start" x="413.482" y="-300.153" font-family="Arial" font-size="10.00" fill="black">0..1</text>
<text text-anchor="start" x="422.515" y="-333.822" font-family="Arial" font-size="10.00" fill="black">*</text>
</g>
<!-- 28 -->
<g id="node11" class="node"><defs>
<linearGradient id="l_11" gradientUnits="userSpaceOnUse" x1="137" y1="-510" x2="137" y2="-546">
<stop offset="0" style="stop-color:#ffffbb;stop-opacity:1.;"/>
<stop offset="1" style="stop-color:#ffffee;stop-opacity:1.;"/>
</linearGradient>
</defs>
<polygon fill="url(#l_11)" stroke="black" points="211.5,-546 62.5,-546 62.5,-510 211.5,-510 211.5,-546"/>
<text text-anchor="start" x="73" y="-526.2" font-family="Arial" font-weight="bold" font-size="11.00" fill="black"><a fill="navy" href="../reference/Graphics/AttributeRepresentation.html" target="_parent">AttributeRepresentation</a></text>
</g>
<!-- 28&#45;&gt;7 -->
<g id="edge5" class="edge"><path fill="none" stroke="#000000" d="M153.966,-509.822C165.315,-498.331 180.416,-483.041 192.993,-470.307"/>
<polygon fill="#000000" stroke="#000000" points="200.059,-463.153 196.233,-473.43 196.545,-466.711 193.031,-470.268 193.031,-470.268 193.031,-470.268 196.545,-466.711 189.83,-467.106 200.059,-463.153 200.059,-463.153"/>
<text text-anchor="start" x="187.5" y="-483.5" font-family="Arial" font-size="10.00" fill="black"><a fill="navy" href="../reference/Graphics/AttributeRepresentation.html#dexpi-graphics-attributerepresentation-object" target="_parent">Object</a></text>
<text text-anchor="start" x="192.059" y="-466.153" font-family="Arial" font-size="10.00" fill="black"></text>
<text text-anchor="start" x="137.966" y="-499.822" font-family="Arial" font-size="10.00" fill="black">*</text>
</g>
<!-- 31 -->
<g id="node12" class="node"><defs>
<linearGradient id="l_12" gradientUnits="userSpaceOnUse" x1="298" y1="-510" x2="298" y2="-546">
<stop offset="0" style="stop-color:#ffffbb;stop-opacity:1.;"/>
<stop offset="1" style="stop-color:#ffffee;stop-opacity:1.;"/>
</linearGradient>
</defs>
<polygon fill="url(#l_12)" stroke="black" points="366.5,-546 229.5,-546 229.5,-510 366.5,-510 366.5,-546"/>
<text text-anchor="start" x="240" y="-526.2" font-family="Arial" font-weight="bold" font-size="11.00" fill="black"><a fill="navy" href="../reference/Graphics/RepresentationGroup.html" target="_parent">RepresentationGroup</a></text>
</g>
<!-- 31&#45;&gt;7 -->
<g id="edge6" class="edge"><path fill="none" stroke="#000000" d="M280.822,-509.822C269.331,-498.331 254.041,-483.041 241.307,-470.307"/>
<polygon fill="#000000" stroke="#000000" points="234.153,-463.153 244.406,-467.042 237.689,-466.689 241.224,-470.224 241.224,-470.224 241.224,-470.224 237.689,-466.689 238.042,-473.406 234.153,-463.153 234.153,-463.153"/>
<text text-anchor="start" x="267" y="-483.5" font-family="Arial" font-size="10.00" fill="black"><a fill="navy" href="../reference/Graphics/RepresentationGroup.html#dexpi-graphics-representationgroup-represents" target="_parent">Represents</a></text>
<text text-anchor="start" x="226.153" y="-466.153" font-family="Arial" font-size="10.00" fill="black"></text>
<text text-anchor="start" x="264.822" y="-499.822" font-family="Arial" font-size="10.00" fill="black">*</text>
</g>
<!-- 9&#45;inner&#45;node&#45;&gt;0 -->
<g id="edge9" class="edge"><path fill="none" stroke="black" d="M98.116,-194.942C100.908,-193.546 153.56,-167.22 197.689,-145.156"/>
</g>
<!-- 10&#45;inner&#45;node&#45;&gt;0 -->
<g id="edge11" class="edge"><path fill="none" stroke="black" d="M258,-194.942C258,-193.551 258,-167.398 258,-145.38"/>
</g>
<!-- 11&#45;inner&#45;node&#45;&gt;0 -->
<g id="edge13" class="edge"><path fill="none" stroke="black" d="M432.873,-194.942C429.82,-193.546 372.232,-167.22 323.965,-145.156"/>
</g>
<!-- 12&#45;inner&#45;node&#45;&gt;5 -->
<g id="edge15" class="edge"><path fill="none" stroke="black" d="M217.054,-360.89C217.59,-359.809 221.999,-350.944 226,-344 230.187,-336.734 232.023,-335.382 236,-328 241.391,-317.993 246.722,-306.419 250.785,-297.143"/>
</g>
<!-- 13&#45;inner&#45;node&#45;&gt;5 -->
<g id="edge17" class="edge"><path fill="none" stroke="black" d="M374.863,-360.889C373.51,-359.789 362.392,-350.782 353,-344 330.267,-327.585 303.756,-309.838 284.526,-297.205"/>
</g>
</g>
</svg>