<!DOCTYPE svg PUBLIC "-//W3C//DTD SVG 1.1//EN" "http://www.w3.org/Graphics/SVG/1.1/DTD/svg11.dtd">
<!-- Generated by graphviz version 2.38.0 (20140413.2041)
 --><!-- Title: G Pages: 1 --><svg xmlns="http://www.w3.org/2000/svg" xmlns:xlink="http://www.w3.org/1999/xlink" width="218pt" height="408pt" viewBox="0.00 0.00 218.00 408.00">
<g id="graph0" class="graph" transform="scale(1 1) rotate(0) translate(4 404)">
<!-- 0 -->
<g id="node1" class="node"><defs>
<linearGradient id="l_0" gradientUnits="userSpaceOnUse" x1="99" y1="-3.19744e-014" x2="99" y2="-62">
<stop offset="0" style="stop-color:#ffffbb;stop-opacity:1.;"/>
<stop offset="1" style="stop-color:#ffffee;stop-opacity:1.;"/>
</linearGradient>
</defs>
<polygon fill="url(#l_0)" stroke="black" points="198,-62 0,-62 0,-0 198,-0 198,-62"/>
<text text-anchor="start" x="76" y="-48.2" font-family="Arial" font-weight="bold" font-size="11.00" fill="black">PolyLine</text>
<text text-anchor="start" x="10" y="-24" font-family="Arial" font-size="10.00" fill="black"><a fill="navy" href="../reference/Graphics/PolyLine.html#dexpi-graphics-polyline-points" target="_parent">Points</a>&#160;:</text>
<text text-anchor="start" x="49" y="-24" font-family="Arial" font-size="10.00" fill="black"><a fill="navy" href="../reference/Graphics/Point.html" target="_parent">Point</a>&#160;[2..*]&#160;{ordered,&#160;nonunique}</text>
<text text-anchor="start" x="10" y="-9" font-family="Arial" font-size="10.00" fill="black"><a fill="navy" href="../reference/Graphics/PolyLine.html#dexpi-graphics-polyline-stroke" target="_parent">Stroke</a>&#160;:</text>
<text text-anchor="start" x="49" y="-9" font-family="Arial" font-size="10.00" fill="black"><a fill="navy" href="../reference/Graphics/Stroke.html" target="_parent">Stroke</a>&#160;</text>
<polygon fill="black" stroke="black" points="198.0,-42.0 0.0,-42.0 0.0,-42.0 198.0,-42.0 198.0,-42.0"/>
</g>
<!-- 5 -->
<g id="node2" class="node"><defs>
<linearGradient id="l_1" gradientUnits="userSpaceOnUse" x1="99" y1="-129" x2="99" y2="-165">
<stop offset="0" style="stop-color:#ffffbb;stop-opacity:1.;"/>
<stop offset="1" style="stop-color:#ffffee;stop-opacity:1.;"/>
</linearGradient>
</defs>
<polygon fill="url(#l_1)" stroke="black" points="158.5,-165 39.5,-165 39.5,-129 158.5,-129 158.5,-165"/>
<text text-anchor="start" x="50" y="-145.2" font-family="Arial" font-weight="bold" font-style="italic" font-size="11.00" fill="black"><a fill="navy" href="../reference/Graphics/GraphicalPrimitive.html" target="_parent">GraphicalPrimitive</a></text>
</g>
<!-- 7&#45;inner&#45;node -->
<!-- 5&#45;&gt;7&#45;inner&#45;node -->
<g id="edge3" class="edge"><path fill="none" stroke="black" d="M99,-118.603C99,-107.422 99,-96.8866 99,-96.053L99,-94.9543"/>
<polygon fill="none" stroke="black" points="95.5001,-118.793 99,-128.793 102.5,-118.793 95.5001,-118.793"/>
</g>
<!-- 6 -->
<g id="node3" class="node"><defs>
<linearGradient id="l_2" gradientUnits="userSpaceOnUse" x1="130" y1="-281" x2="130" y2="-317">
<stop offset="0" style="stop-color:#ffffbb;stop-opacity:1.;"/>
<stop offset="1" style="stop-color:#ffffee;stop-opacity:1.;"/>
</linearGradient>
</defs>
<polygon fill="url(#l_2)" stroke="black" points="187.5,-317 72.5,-317 72.5,-281 187.5,-281 187.5,-317"/>
<text text-anchor="start" x="83" y="-297.2" font-family="Arial" font-weight="bold" font-style="italic" font-size="11.00" fill="black"><a fill="navy" href="../reference/Graphics/GraphicalElement.html" target="_parent">GraphicalElement</a></text>
</g>
<!-- 8&#45;inner&#45;node -->
<!-- 6&#45;&gt;8&#45;inner&#45;node -->
<g id="edge5" class="edge"><path fill="none" stroke="black" d="M130,-270.68C130,-252.835 130,-232.568 130,-231.086L129.983,-228.921"/>
<polygon fill="none" stroke="black" points="126.5,-270.746 130,-280.746 133.5,-270.746 126.5,-270.746"/>
</g>
<!-- 11 -->
<g id="node4" class="node"><defs>
<linearGradient id="l_3" gradientUnits="userSpaceOnUse" x1="68" y1="-212" x2="68" y2="-248">
<stop offset="0" style="stop-color:#ffffbb;stop-opacity:1.;"/>
<stop offset="1" style="stop-color:#ffffee;stop-opacity:1.;"/>
</linearGradient>
</defs>
<polygon fill="url(#l_3)" stroke="black" points="95,-248 41,-248 41,-212 95,-212 95,-248"/>
<text text-anchor="start" x="51" y="-228.2" font-family="Arial" font-weight="bold" font-style="italic" font-size="11.00" fill="black"><a fill="navy" href="../reference/Graphics/Shape.html" target="_parent">Shape</a></text>
</g>
<!-- 11&#45;&gt;5 -->
<g id="edge1" class="edge"><path fill="none" stroke="#000000" d="M65.3237,-199.607C65.6461,-193.299 66.691,-186.792 69,-181 70.0752,-178.303 71.479,-175.688 73.0923,-173.189"/>
<polygon fill="#000000" stroke="#000000" points="65.3291,-199.986 69.4157,-205.927 65.5032,-211.985 61.4166,-206.043 65.3291,-199.986"/>
<polygon fill="#000000" stroke="#000000" points="79.2103,-165.187 76.7109,-175.865 76.1733,-169.159 73.1362,-173.131 73.1362,-173.131 73.1362,-173.131 76.1733,-169.159 69.5614,-170.398 79.2103,-165.187 79.2103,-165.187"/>
<text text-anchor="start" x="71.5" y="-185.5" font-family="Arial" font-size="10.00" fill="black"><a fill="navy" href="../reference/Graphics/Shape.html#dexpi-graphics-shape-primitives" target="_parent">Primitives</a></text>
<text text-anchor="start" x="71.2103" y="-168.187" font-family="Arial" font-size="10.00" fill="black">*</text>
<text text-anchor="start" x="36.5032" y="-201.985" font-family="Arial" font-size="10.00" fill="black">0..1</text>
</g>
<!-- 14 -->
<g id="node5" class="node"><defs>
<linearGradient id="l_4" gradientUnits="userSpaceOnUse" x1="130" y1="-364" x2="130" y2="-400">
<stop offset="0" style="stop-color:#ffffbb;stop-opacity:1.;"/>
<stop offset="1" style="stop-color:#ffffee;stop-opacity:1.;"/>
</linearGradient>
</defs>
<polygon fill="url(#l_4)" stroke="black" points="210,-400 50,-400 50,-364 210,-364 210,-400"/>
<text text-anchor="start" x="60" y="-380.2" font-family="Arial" font-weight="bold" font-style="italic" font-size="11.00" fill="black"><a fill="navy" href="../reference/Graphics/RepresentationTypeGroup.html" target="_parent">RepresentationTypeGroup</a></text>
</g>
<!-- 14&#45;&gt;6 -->
<g id="edge2" class="edge"><path fill="none" stroke="#000000" d="M130,-351.549C130,-343.604 130,-335.044 130,-327.226"/>
<polygon fill="#000000" stroke="#000000" points="130,-351.822 134,-357.822 130,-363.822 126,-357.822 130,-351.822"/>
<polygon fill="#000000" stroke="#000000" points="130,-317.153 134.5,-327.153 130,-322.153 130,-327.153 130,-327.153 130,-327.153 130,-322.153 125.5,-327.153 130,-317.153 130,-317.153"/>
<text text-anchor="start" x="132" y="-337.5" font-family="Arial" font-size="10.00" fill="black"><a fill="navy" href="../reference/Graphics/RepresentationTypeGroup.html#dexpi-graphics-representationtypegroup-elements" target="_parent">Elements</a></text>
<text text-anchor="start" x="122.0" y="-320.153" font-family="Arial" font-size="10.00" fill="black">*</text>
<text text-anchor="start" x="101.0" y="-353.822" font-family="Arial" font-size="10.00" fill="black">0..1</text>
</g>
<!-- 7&#45;inner&#45;node&#45;&gt;0 -->
<g id="edge4" class="edge"><path fill="none" stroke="black" d="M99,-94.9543C99,-93.9856 99,-77.7665 99,-62.0354"/>
</g>
<!-- 8&#45;inner&#45;node&#45;&gt;5 -->
<g id="edge6" class="edge"><path fill="none" stroke="black" d="M129.983,-228.921C129.637,-227.297 123.98,-200.994 116,-181 113.898,-175.733 111.232,-170.187 108.639,-165.177"/>
</g>
</g>
</svg>