<!DOCTYPE svg PUBLIC "-//W3C//DTD SVG 1.1//EN" "http://www.w3.org/Graphics/SVG/1.1/DTD/svg11.dtd">
<!-- Generated by graphviz version 2.38.0 (20140413.2041)
 --><!-- Title: G Pages: 1 --><svg xmlns="http://www.w3.org/2000/svg" xmlns:xlink="http://www.w3.org/1999/xlink" width="403pt" height="319pt" viewBox="0.00 0.00 402.50 319.00">
<g id="graph0" class="graph" transform="scale(1 1) rotate(0) translate(4 315)">
<!-- 0 -->
<g id="node1" class="node"><defs>
<linearGradient id="l_0" gradientUnits="userSpaceOnUse" x1="154.5" y1="-3.19744e-014" x2="154.5" y2="-62">
<stop offset="0" style="stop-color:#ffffbb;stop-opacity:1.;"/>
<stop offset="1" style="stop-color:#ffffee;stop-opacity:1.;"/>
</linearGradient>
</defs>
<polygon fill="url(#l_0)" stroke="black" points="250.5,-62 58.5,-62 58.5,-0 250.5,-0 250.5,-62"/>
<text text-anchor="start" x="127" y="-48.2" font-family="Arial" font-weight="bold" font-size="11.00" fill="black">Positioner</text>
<text text-anchor="start" x="68.5" y="-24" font-family="Arial" font-size="10.00" fill="black"><a fill="navy" href="../reference/Instrumentation/Positioner.html#dexpi-instrumentation-positioner-devicetypename" target="_parent">DeviceTypeName</a>&#160;:</text>
<text text-anchor="start" x="154.5" y="-24" font-family="Arial" font-size="10.00" fill="black"><a fill="navy" href="../reference/DataTypes/NullableString.html" target="_parent">NullableString</a>&#160;[0..1]</text>
<text text-anchor="start" x="68.5" y="-9" font-family="Arial" font-size="10.00" fill="black"><a fill="navy" href="../reference/Instrumentation/Positioner.html#dexpi-instrumentation-positioner-subtagname" target="_parent">SubTagName</a>&#160;:</text>
<text text-anchor="start" x="154.5" y="-9" font-family="Arial" font-size="10.00" fill="black"><a fill="navy" href="../reference/DataTypes/NullableString.html" target="_parent">NullableString</a>&#160;[0..1]</text>
<polygon fill="black" stroke="black" points="250.5,-42.0 58.5,-42.0 58.5,-42.0 250.5,-42.0 250.5,-42.0"/>
</g>
<!-- 4 -->
<g id="node2" class="node"><defs>
<linearGradient id="l_1" gradientUnits="userSpaceOnUse" x1="154.5" y1="-192" x2="154.5" y2="-228">
<stop offset="0" style="stop-color:#ffffbb;stop-opacity:1.;"/>
<stop offset="1" style="stop-color:#ffffee;stop-opacity:1.;"/>
</linearGradient>
</defs>
<polygon fill="url(#l_1)" stroke="black" points="212,-228 97,-228 97,-192 212,-192 212,-228"/>
<text text-anchor="start" x="107.5" y="-208.2" font-family="Arial" font-weight="bold" font-style="italic" font-size="11.00" fill="black"><a fill="navy" href="../reference/DexpiModel/ConceptualObject.html" target="_parent">ConceptualObject</a></text>
</g>
<!-- 6&#45;inner&#45;node -->
<!-- 4&#45;&gt;6&#45;inner&#45;node -->
<g id="edge5" class="edge"><path fill="none" stroke="black" d="M154.5,-181.649C154.5,-158.987 154.5,-130.163 154.5,-128.116L154.5,-125.932"/>
<polygon fill="none" stroke="black" points="151,-181.822 154.5,-191.822 158,-181.822 151,-181.822"/>
</g>
<!-- 5 -->
<g id="node3" class="node"><defs>
<linearGradient id="l_2" gradientUnits="userSpaceOnUse" x1="322.5" y1="-192" x2="322.5" y2="-228">
<stop offset="0" style="stop-color:#ffffbb;stop-opacity:1.;"/>
<stop offset="1" style="stop-color:#ffffee;stop-opacity:1.;"/>
</linearGradient>
</defs>
<polygon fill="url(#l_2)" stroke="black" points="394.5,-228 250.5,-228 250.5,-192 394.5,-192 394.5,-228"/>
<text text-anchor="start" x="260.5" y="-208.2" font-family="Arial" font-weight="bold" font-style="italic" font-size="11.00" fill="black"><a fill="navy" href="../reference/Customization/CustomAttributeOwner.html" target="_parent">CustomAttributeOwner</a></text>
</g>
<!-- 19 -->
<g id="node7" class="node"><defs>
<linearGradient id="l_3" gradientUnits="userSpaceOnUse" x1="227.5" y1="-109" x2="227.5" y2="-145">
<stop offset="0" style="stop-color:#ffffbb;stop-opacity:1.;"/>
<stop offset="1" style="stop-color:#ffffee;stop-opacity:1.;"/>
</linearGradient>
</defs>
<polygon fill="url(#l_3)" stroke="black" points="282,-145 173,-145 173,-109 282,-109 282,-145"/>
<text text-anchor="start" x="183.5" y="-125.2" font-family="Arial" font-weight="bold" font-style="italic" font-size="11.00" fill="black"><a fill="navy" href="../reference/Customization/CustomAttribute.html" target="_parent">CustomAttribute</a></text>
</g>
<!-- 5&#45;&gt;19 -->
<g id="edge4" class="edge"><path fill="none" stroke="#000000" d="M248.566,-185.359C244.887,-182.576 241.487,-179.469 238.5,-176 233.571,-170.275 230.734,-162.784 229.132,-155.428"/>
<polygon fill="#000000" stroke="#000000" points="248.776,-185.495 255.986,-185.381 258.865,-191.992 251.655,-192.106 248.776,-185.495"/>
<polygon fill="#000000" stroke="#000000" points="227.601,-145.317 233.548,-154.53 228.35,-150.26 229.098,-155.204 229.098,-155.204 229.098,-155.204 228.35,-150.26 224.649,-155.878 227.601,-145.317 227.601,-145.317"/>
<text text-anchor="start" x="240.5" y="-165.5" font-family="Arial" font-size="10.00" fill="black"><a fill="navy" href="../reference/Customization/CustomAttributeOwner.html#dexpi-customization-customattributeowner-customattributes" target="_parent">CustomAttributes</a></text>
<text text-anchor="start" x="219.601" y="-148.317" font-family="Arial" font-size="10.00" fill="black">*</text>
<text text-anchor="start" x="229.865" y="-181.992" font-family="Arial" font-size="10.00" fill="black">0..1</text>
</g>
<!-- 7&#45;inner&#45;node -->
<!-- 5&#45;&gt;7&#45;inner&#45;node -->
<g id="edge7" class="edge"><path fill="none" stroke="black" d="M322.5,-181.649C322.5,-158.987 322.5,-130.163 322.5,-128.116L322.378,-125.932"/>
<polygon fill="none" stroke="black" points="319,-181.822 322.5,-191.822 326,-181.822 319,-181.822"/>
</g>
<!-- 10 -->
<g id="node4" class="node"><defs>
<linearGradient id="l_4" gradientUnits="userSpaceOnUse" x1="81.5" y1="-109" x2="81.5" y2="-145">
<stop offset="0" style="stop-color:#ffffbb;stop-opacity:1.;"/>
<stop offset="1" style="stop-color:#ffffee;stop-opacity:1.;"/>
</linearGradient>
</defs>
<polygon fill="url(#l_4)" stroke="black" points="135.5,-145 27.5,-145 27.5,-109 135.5,-109 135.5,-145"/>
<text text-anchor="start" x="37.5" y="-125.2" font-family="Arial" font-weight="bold" font-size="11.00" fill="black"><a fill="navy" href="../reference/Instrumentation/ActuatingSystem.html" target="_parent">ActuatingSystem</a></text>
</g>
<!-- 10&#45;&gt;0 -->
<g id="edge1" class="edge"><path fill="none" stroke="#000000" d="M91.6961,-97.1593C94.6732,-90.5602 98.2829,-83.7902 102.5,-78 104.522,-75.2232 106.739,-72.4946 109.081,-69.8379"/>
<polygon fill="#000000" stroke="#000000" points="91.5597,-97.4938 92.9965,-104.56 87.0262,-108.605 85.5894,-101.538 91.5597,-97.4938"/>
<polygon fill="#000000" stroke="#000000" points="116.418,-62.1067 112.799,-72.4581 112.976,-65.7336 109.534,-69.3604 109.534,-69.3604 109.534,-69.3604 112.976,-65.7336 106.27,-66.2628 116.418,-62.1067 116.418,-62.1067"/>
<text text-anchor="start" x="104.5" y="-82.5" font-family="Arial" font-size="10.00" fill="black"><a fill="navy" href="../reference/Instrumentation/ActuatingSystem.html#dexpi-instrumentation-actuatingsystem-positioner" target="_parent">Positioner</a></text>
<text text-anchor="start" x="95.418" y="-65.1067" font-family="Arial" font-size="10.00" fill="black">0..1</text>
<text text-anchor="start" x="58.0262" y="-98.605" font-family="Arial" font-size="10.00" fill="black">0..1</text>
</g>
<!-- 13 -->
<g id="node5" class="node"><defs>
<linearGradient id="l_5" gradientUnits="userSpaceOnUse" x1="74.5" y1="-275" x2="74.5" y2="-311">
<stop offset="0" style="stop-color:#ffffbb;stop-opacity:1.;"/>
<stop offset="1" style="stop-color:#ffffee;stop-opacity:1.;"/>
</linearGradient>
</defs>
<polygon fill="url(#l_5)" stroke="black" points="149,-311 0,-311 0,-275 149,-275 149,-311"/>
<text text-anchor="start" x="10.5" y="-291.2" font-family="Arial" font-weight="bold" font-size="11.00" fill="black"><a fill="navy" href="../reference/Graphics/AttributeRepresentation.html" target="_parent">AttributeRepresentation</a></text>
</g>
<!-- 13&#45;&gt;4 -->
<g id="edge2" class="edge"><path fill="none" stroke="#000000" d="M91.4659,-274.822C102.815,-263.331 117.916,-248.041 130.493,-235.307"/>
<polygon fill="#000000" stroke="#000000" points="137.559,-228.153 133.733,-238.43 134.045,-231.711 130.531,-235.268 130.531,-235.268 130.531,-235.268 134.045,-231.711 127.33,-232.106 137.559,-228.153 137.559,-228.153"/>
<text text-anchor="start" x="125" y="-248.5" font-family="Arial" font-size="10.00" fill="black"><a fill="navy" href="../reference/Graphics/AttributeRepresentation.html#dexpi-graphics-attributerepresentation-object" target="_parent">Object</a></text>
<text text-anchor="start" x="129.559" y="-231.153" font-family="Arial" font-size="10.00" fill="black"></text>
<text text-anchor="start" x="75.4659" y="-264.822" font-family="Arial" font-size="10.00" fill="black">*</text>
</g>
<!-- 16 -->
<g id="node6" class="node"><defs>
<linearGradient id="l_6" gradientUnits="userSpaceOnUse" x1="235.5" y1="-275" x2="235.5" y2="-311">
<stop offset="0" style="stop-color:#ffffbb;stop-opacity:1.;"/>
<stop offset="1" style="stop-color:#ffffee;stop-opacity:1.;"/>
</linearGradient>
</defs>
<polygon fill="url(#l_6)" stroke="black" points="304,-311 167,-311 167,-275 304,-275 304,-311"/>
<text text-anchor="start" x="177.5" y="-291.2" font-family="Arial" font-weight="bold" font-size="11.00" fill="black"><a fill="navy" href="../reference/Graphics/RepresentationGroup.html" target="_parent">RepresentationGroup</a></text>
</g>
<!-- 16&#45;&gt;4 -->
<g id="edge3" class="edge"><path fill="none" stroke="#000000" d="M218.322,-274.822C206.831,-263.331 191.541,-248.041 178.807,-235.307"/>
<polygon fill="#000000" stroke="#000000" points="171.653,-228.153 181.906,-232.042 175.189,-231.689 178.724,-235.224 178.724,-235.224 178.724,-235.224 175.189,-231.689 175.542,-238.406 171.653,-228.153 171.653,-228.153"/>
<text text-anchor="start" x="204.5" y="-248.5" font-family="Arial" font-size="10.00" fill="black"><a fill="navy" href="../reference/Graphics/RepresentationGroup.html#dexpi-graphics-representationgroup-represents" target="_parent">Represents</a></text>
<text text-anchor="start" x="163.653" y="-231.153" font-family="Arial" font-size="10.00" fill="black"></text>
<text text-anchor="start" x="202.322" y="-264.822" font-family="Arial" font-size="10.00" fill="black">*</text>
</g>
<!-- 6&#45;inner&#45;node&#45;&gt;0 -->
<g id="edge6" class="edge"><path fill="none" stroke="black" d="M154.5,-125.932C154.5,-124.181 154.5,-89.0298 154.5,-62.2394"/>
</g>
<!-- 7&#45;inner&#45;node&#45;&gt;0 -->
<g id="edge8" class="edge"><path fill="none" stroke="black" d="M322.378,-125.932C319.248,-124.181 256.426,-89.0298 208.545,-62.2394"/>
</g>
</g>
</svg>