<!DOCTYPE svg PUBLIC "-//W3C//DTD SVG 1.1//EN" "http://www.w3.org/Graphics/SVG/1.1/DTD/svg11.dtd">
<!-- Generated by graphviz version 2.38.0 (20140413.2041)
 --><!-- Title: G Pages: 1 --><svg xmlns="http://www.w3.org/2000/svg" xmlns:xlink="http://www.w3.org/1999/xlink" width="166pt" height="293pt" viewBox="0.00 0.00 166.00 293.00">
<g id="graph0" class="graph" transform="scale(1 1) rotate(0) translate(4 289)">
<!-- 0 -->
<g id="node1" class="node"><defs>
<linearGradient id="l_0" gradientUnits="userSpaceOnUse" x1="79" y1="-3.55271e-014" x2="79" y2="-77">
<stop offset="0" style="stop-color:#ffffbb;stop-opacity:1.;"/>
<stop offset="1" style="stop-color:#ffffee;stop-opacity:1.;"/>
</linearGradient>
</defs>
<polygon fill="url(#l_0)" stroke="black" points="155.5,-77 2.5,-77 2.5,-0 155.5,-0 155.5,-77"/>
<text text-anchor="start" x="47.5" y="-62.5" font-family="Arial" font-size="10.00" fill="black">&lt;&lt;dataType&gt;&gt;</text>
<text text-anchor="start" x="31.5" y="-47.7" font-family="Arial" font-weight="bold" font-size="11.00" fill="black">PressureAbsolute</text>
<text text-anchor="start" x="13" y="-23.5" font-family="Arial" font-size="10.00" fill="black"><a fill="navy" href="../reference/PhysicalQuantities/PressureAbsolute.html#dexpi-physicalquantities-pressureabsolute-unit" target="_parent">Unit</a>&#160;:</text>
<text text-anchor="start" x="48" y="-23.5" font-family="Arial" font-size="10.00" fill="black"><a fill="navy" href="../reference/PhysicalQuantities/PressureAbsoluteUnit.html" target="_parent">PressureAbsoluteUnit</a>&#160;</text>
<text text-anchor="start" x="13" y="-8.5" font-family="Arial" font-size="10.00" fill="black"><a fill="navy" href="../reference/PhysicalQuantities/PressureAbsolute.html#dexpi-physicalquantities-pressureabsolute-value" target="_parent">Value</a>&#160;:</text>
<text text-anchor="start" x="48" y="-8.5" font-family="Arial" font-size="10.00" fill="black"><a fill="navy" href="../reference/DataTypes/Double.html" target="_parent">Double</a>&#160;</text>
<polygon fill="black" stroke="black" points="155.5,-41.5 2.5,-41.5 2.5,-41.5 155.5,-41.5 155.5,-41.5"/>
</g>
<!-- 5 -->
<g id="node2" class="node"><defs>
<linearGradient id="l_1" gradientUnits="userSpaceOnUse" x1="79" y1="-142" x2="79" y2="-181">
<stop offset="0" style="stop-color:#ffffbb;stop-opacity:1.;"/>
<stop offset="1" style="stop-color:#ffffee;stop-opacity:1.;"/>
</linearGradient>
</defs>
<polygon fill="url(#l_1)" stroke="black" points="158,-181 0,-181 0,-142 158,-142 158,-181"/>
<text text-anchor="start" x="47" y="-166.5" font-family="Arial" font-size="10.00" fill="black">&lt;&lt;dataType&gt;&gt;</text>
<text text-anchor="start" x="10" y="-151.7" font-family="Arial" font-weight="bold" font-style="italic" font-size="11.00" fill="black"><a fill="navy" href="../reference/PhysicalQuantities/NullablePressureAbsolute.html" target="_parent">NullablePressureAbsolute</a></text>
</g>
<!-- 7&#45;inner&#45;node -->
<!-- 5&#45;&gt;7&#45;inner&#45;node -->
<g id="edge1" class="edge"><path fill="none" stroke="black" d="M79,-131.92C79,-120.959 79,-110.85 79,-110.051L79,-108.95"/>
<polygon fill="none" stroke="black" points="75.5001,-131.982 79,-141.982 82.5001,-131.982 75.5001,-131.982"/>
</g>
<!-- 6 -->
<g id="node3" class="node"><defs>
<linearGradient id="l_2" gradientUnits="userSpaceOnUse" x1="79" y1="-246" x2="79" y2="-285">
<stop offset="0" style="stop-color:#ffffbb;stop-opacity:1.;"/>
<stop offset="1" style="stop-color:#ffffee;stop-opacity:1.;"/>
</linearGradient>
</defs>
<polygon fill="url(#l_2)" stroke="black" points="134.5,-285 23.5,-285 23.5,-246 134.5,-246 134.5,-285"/>
<text text-anchor="start" x="47.5" y="-270.5" font-family="Arial" font-size="10.00" fill="black">&lt;&lt;dataType&gt;&gt;</text>
<text text-anchor="start" x="34" y="-255.7" font-family="Arial" font-weight="bold" font-style="italic" font-size="11.00" fill="black"><a fill="navy" href="../reference/PhysicalQuantities/NullablePressure.html" target="_parent">NullablePressure</a></text>
</g>
<!-- 8&#45;inner&#45;node -->
<!-- 6&#45;&gt;8&#45;inner&#45;node -->
<g id="edge3" class="edge"><path fill="none" stroke="black" d="M79,-235.92C79,-224.959 79,-214.85 79,-214.051L79,-212.855"/>
<polygon fill="none" stroke="black" points="75.5001,-235.982 79,-245.982 82.5001,-235.982 75.5001,-235.982"/>
</g>
<!-- 7&#45;inner&#45;node&#45;&gt;0 -->
<g id="edge2" class="edge"><path fill="none" stroke="black" d="M79,-108.95C79,-107.971 79,-92.8959 79,-77.0406"/>
</g>
<!-- 8&#45;inner&#45;node&#45;&gt;5 -->
<g id="edge4" class="edge"><path fill="none" stroke="black" d="M79,-212.855C79,-211.154 79,-194.803 79,-181.188"/>
</g>
</g>
</svg>