<!DOCTYPE svg PUBLIC "-//W3C//DTD SVG 1.1//EN" "http://www.w3.org/Graphics/SVG/1.1/DTD/svg11.dtd">
<!-- Generated by graphviz version 2.38.0 (20140413.2041)
 --><!-- Title: G Pages: 1 --><svg xmlns="http://www.w3.org/2000/svg" xmlns:xlink="http://www.w3.org/1999/xlink" width="867pt" height="777pt" viewBox="0.00 0.00 866.50 777.00">
<g id="graph0" class="graph" transform="scale(1 1) rotate(0) translate(4 773)">
<!-- 0 -->
<g id="node1" class="node"><defs>
<linearGradient id="l_0" gradientUnits="userSpaceOnUse" x1="457.5" y1="-1.77636e-014" x2="457.5" y2="-47">
<stop offset="0" style="stop-color:#ffffbb;stop-opacity:1.;"/>
<stop offset="1" style="stop-color:#ffffee;stop-opacity:1.;"/>
</linearGradient>
</defs>
<polygon fill="url(#l_0)" stroke="black" points="550,-47 365,-47 365,3.55271e-015 550,3.55271e-015 550,-47"/>
<text text-anchor="start" x="415.5" y="-32.7" font-family="Arial" font-weight="bold" font-size="11.00" fill="black">PressureVessel</text>
<text text-anchor="start" x="375.5" y="-8.5" font-family="Arial" font-size="10.00" fill="black"><a fill="navy" href="../reference/Equipment/PressureVessel.html#dexpi-equipment-pressurevessel-cylinderlength" target="_parent">CylinderLength</a>&#160;:</text>
<text text-anchor="start" x="450.5" y="-8.5" font-family="Arial" font-size="10.00" fill="black"><a fill="navy" href="../reference/PhysicalQuantities/NullableLength.html" target="_parent">NullableLength</a>&#160;[0..1]</text>
<polygon fill="black" stroke="black" points="550.0,-26.5 365.0,-26.5 365.0,-26.5 550.0,-26.5 550.0,-26.5"/>
</g>
<!-- 4 -->
<g id="node2" class="node"><defs>
<linearGradient id="l_1" gradientUnits="userSpaceOnUse" x1="766.5" y1="-716" x2="766.5" y2="-769">
<stop offset="0" style="stop-color:#fbfbfb;stop-opacity:1.;"/>
<stop offset="1" style="stop-color:#fefefe;stop-opacity:1.;"/>
</linearGradient>
</defs>
<polygon fill="url(#l_1)" stroke="black" points="858.5,-758.0 847.5,-769.0 674.5,-769.0 674.5,-716.0 858.5,-716.0"/><path d="M858.5,-758.0L847.5,-758.0 847.5,-769.0" fill="none" stroke="black"/>
<text text-anchor="start" x="684.5" y="-754.5" font-family="Arial" font-size="10.00" fill="black">For&#160;the&#160;sake&#160;of&#160;clarity,&#160;superclasses&#160;</text>
<text text-anchor="start" x="684.5" y="-739.5" font-family="Arial" font-size="10.00" fill="black">and&#160;associations&#160;of&#160;<a fill="navy" href="../reference/PlantStructure/TechnicalItem.html" target="_parent">TechnicalItem</a>&#160;are</text>
<text text-anchor="start" x="684.5" y="-724.5" font-family="Arial" font-size="10.00" fill="black">not&#160;shown&#160;in&#160;this&#160;diagram.</text>
</g>
<!-- 3 -->
<g id="node3" class="node"><defs>
<linearGradient id="l_2" gradientUnits="userSpaceOnUse" x1="766.5" y1="-633" x2="766.5" y2="-669">
<stop offset="0" style="stop-color:#ffffbb;stop-opacity:1.;"/>
<stop offset="1" style="stop-color:#ffffee;stop-opacity:1.;"/>
</linearGradient>
</defs>
<polygon fill="url(#l_2)" stroke="black" points="813,-669 720,-669 720,-633 813,-633 813,-669"/>
<text text-anchor="start" x="730.5" y="-649.2" font-family="Arial" font-weight="bold" font-style="italic" font-size="11.00" fill="black"><a fill="navy" href="../reference/PlantStructure/TechnicalItem.html" target="_parent">TechnicalItem</a></text>
</g>
<!-- 4&#45;&gt;3 -->
<g id="edge1" class="edge"><path fill="none" stroke="#000000" stroke-dasharray="5,2" d="M766.5,-715.613C766.5,-700.641 766.5,-682.222 766.5,-669.063"/>
</g>
<!-- 20&#45;inner&#45;node -->
<!-- 3&#45;&gt;20&#45;inner&#45;node -->
<g id="edge28" class="edge"><path fill="none" stroke="black" d="M766.5,-622.649C766.5,-599.987 766.5,-571.163 766.5,-569.116L766.362,-566.941"/>
<polygon fill="none" stroke="black" points="763,-622.822 766.5,-632.822 770,-622.822 763,-622.822"/>
</g>
<!-- 6 -->
<g id="node4" class="node"><defs>
<linearGradient id="l_3" gradientUnits="userSpaceOnUse" x1="457.5" y1="-163" x2="457.5" y2="-199">
<stop offset="0" style="stop-color:#ffffbb;stop-opacity:1.;"/>
<stop offset="1" style="stop-color:#ffffee;stop-opacity:1.;"/>
</linearGradient>
</defs>
<polygon fill="url(#l_3)" stroke="black" points="485.5,-199 429.5,-199 429.5,-163 485.5,-163 485.5,-199"/>
<text text-anchor="start" x="439.5" y="-179.2" font-family="Arial" font-weight="bold" font-size="11.00" fill="black"><a fill="navy" href="../reference/Equipment/Vessel.html" target="_parent">Vessel</a></text>
</g>
<!-- 23 -->
<g id="node11" class="node"><defs>
<linearGradient id="l_4" gradientUnits="userSpaceOnUse" x1="246.5" y1="-80" x2="246.5" y2="-116">
<stop offset="0" style="stop-color:#ffffbb;stop-opacity:1.;"/>
<stop offset="1" style="stop-color:#ffffee;stop-opacity:1.;"/>
</linearGradient>
</defs>
<polygon fill="url(#l_4)" stroke="black" points="277.5,-116 215.5,-116 215.5,-80 277.5,-80 277.5,-116"/>
<text text-anchor="start" x="225.5" y="-96.2" font-family="Arial" font-weight="bold" font-size="11.00" fill="black"><a fill="navy" href="../reference/Equipment/Agitator.html" target="_parent">Agitator</a></text>
</g>
<!-- 6&#45;&gt;23 -->
<g id="edge2" class="edge"><path fill="none" stroke="#000000" d="M429.351,-175.153C402.721,-170.025 361.961,-160.755 328.5,-147 311.822,-140.144 294.436,-130.391 279.988,-121.466"/>
<polygon fill="#000000" stroke="#000000" points="271.404,-116.048 282.262,-117.58 275.632,-118.717 279.86,-121.385 279.86,-121.385 279.86,-121.385 275.632,-118.717 277.459,-125.191 271.404,-116.048 271.404,-116.048"/>
<text text-anchor="start" x="330.5" y="-136.5" font-family="Arial" font-size="10.00" fill="black"><a fill="navy" href="../reference/Equipment/Vessel.html#dexpi-equipment-vessel-agitator" target="_parent">Agitator</a></text>
<text text-anchor="start" x="250.404" y="-119.048" font-family="Arial" font-size="10.00" fill="black">0..1</text>
<text text-anchor="start" x="400.351" y="-176.153" font-family="Arial" font-size="10.00" fill="black">0..1</text>
</g>
<!-- 26 -->
<g id="node12" class="node"><defs>
<linearGradient id="l_5" gradientUnits="userSpaceOnUse" x1="366.5" y1="-80" x2="366.5" y2="-116">
<stop offset="0" style="stop-color:#ffffbb;stop-opacity:1.;"/>
<stop offset="1" style="stop-color:#ffffee;stop-opacity:1.;"/>
</linearGradient>
</defs>
<polygon fill="url(#l_5)" stroke="black" points="437.5,-116 295.5,-116 295.5,-80 437.5,-80 437.5,-116"/>
<text text-anchor="start" x="305.5" y="-96.2" font-family="Arial" font-weight="bold" font-size="11.00" fill="black"><a fill="navy" href="../reference/Equipment/TaggedColumnSection.html" target="_parent">TaggedColumnSection</a></text>
</g>
<!-- 6&#45;&gt;26 -->
<g id="edge3" class="edge"><path fill="none" stroke="#000000" d="M429.172,-175.129C411.816,-170.688 390.507,-162.367 377.5,-147 372.62,-141.234 369.798,-133.73 368.195,-126.375"/>
<polygon fill="#000000" stroke="#000000" points="366.653,-116.272 372.61,-125.479 367.407,-121.215 368.162,-126.158 368.162,-126.158 368.162,-126.158 367.407,-121.215 363.713,-126.837 366.653,-116.272 366.653,-116.272"/>
<text text-anchor="start" x="379.5" y="-136.5" font-family="Arial" font-size="10.00" fill="black"><a fill="navy" href="../reference/Equipment/Vessel.html#dexpi-equipment-vessel-columnsections" target="_parent">ColumnSections</a></text>
<text text-anchor="start" x="358.653" y="-119.272" font-family="Arial" font-size="10.00" fill="black">*</text>
<text text-anchor="start" x="400.172" y="-165.129" font-family="Arial" font-size="10.00" fill="black">0..1</text>
</g>
<!-- 13&#45;inner&#45;node -->
<!-- 6&#45;&gt;13&#45;inner&#45;node -->
<g id="edge14" class="edge"><path fill="none" stroke="black" d="M457.5,-152.649C457.5,-129.987 457.5,-101.163 457.5,-99.1156L457.5,-96.9475"/>
<polygon fill="none" stroke="black" points="454,-152.822 457.5,-162.822 461,-152.822 454,-152.822"/>
</g>
<!-- 7 -->
<g id="node5" class="node"><defs>
<linearGradient id="l_6" gradientUnits="userSpaceOnUse" x1="457.5" y1="-315" x2="457.5" y2="-351">
<stop offset="0" style="stop-color:#ffffbb;stop-opacity:1.;"/>
<stop offset="1" style="stop-color:#ffffee;stop-opacity:1.;"/>
</linearGradient>
</defs>
<polygon fill="url(#l_6)" stroke="black" points="496.5,-351 418.5,-351 418.5,-315 496.5,-315 496.5,-351"/>
<text text-anchor="start" x="428.5" y="-331.2" font-family="Arial" font-weight="bold" font-style="italic" font-size="11.00" fill="black"><a fill="navy" href="../reference/Equipment/Equipment.html" target="_parent">Equipment</a></text>
</g>
<!-- 29 -->
<g id="node13" class="node"><defs>
<linearGradient id="l_7" gradientUnits="userSpaceOnUse" x1="51.5" y1="-232" x2="51.5" y2="-268">
<stop offset="0" style="stop-color:#ffffbb;stop-opacity:1.;"/>
<stop offset="1" style="stop-color:#ffffee;stop-opacity:1.;"/>
</linearGradient>
</defs>
<polygon fill="url(#l_7)" stroke="black" points="103,-268 0,-268 0,-232 103,-232 103,-268"/>
<text text-anchor="start" x="10.5" y="-248.2" font-family="Arial" font-weight="bold" font-size="11.00" fill="black"><a fill="navy" href="../reference/Equipment/DryingChamber.html" target="_parent">DryingChamber</a></text>
</g>
<!-- 7&#45;&gt;29 -->
<g id="edge4" class="edge"><path fill="none" stroke="#000000" d="M406.027,-332.446C342.858,-331.672 233.105,-326.013 143.5,-299 123.707,-293.033 103.174,-282.771 86.54,-273.264"/>
<polygon fill="#000000" stroke="#000000" points="406.398,-332.449 412.429,-328.495 418.398,-332.542 412.367,-336.495 406.398,-332.449"/>
<polygon fill="#000000" stroke="#000000" points="77.7299,-268.091 88.6319,-269.274 82.0418,-270.623 86.3536,-273.154 86.3536,-273.154 86.3536,-273.154 82.0418,-270.623 84.0753,-277.035 77.7299,-268.091 77.7299,-268.091"/>
<text text-anchor="start" x="146" y="-288.5" font-family="Arial" font-size="10.00" fill="black"><a fill="navy" href="../reference/Equipment/Equipment.html#dexpi-equipment-equipment-dryingchambers" target="_parent">DryingChambers</a></text>
<text text-anchor="start" x="69.7299" y="-271.091" font-family="Arial" font-size="10.00" fill="black">*</text>
<text text-anchor="start" x="389.398" y="-333.542" font-family="Arial" font-size="10.00" fill="black">0..1</text>
</g>
<!-- 32 -->
<g id="node14" class="node"><defs>
<linearGradient id="l_8" gradientUnits="userSpaceOnUse" x1="155.5" y1="-232" x2="155.5" y2="-268">
<stop offset="0" style="stop-color:#ffffbb;stop-opacity:1.;"/>
<stop offset="1" style="stop-color:#ffffee;stop-opacity:1.;"/>
</linearGradient>
</defs>
<polygon fill="url(#l_8)" stroke="black" points="189.5,-268 121.5,-268 121.5,-232 189.5,-232 189.5,-268"/>
<text text-anchor="start" x="131.5" y="-248.2" font-family="Arial" font-weight="bold" font-size="11.00" fill="black"><a fill="navy" href="../reference/Equipment/GearBox.html" target="_parent">GearBox</a></text>
</g>
<!-- 7&#45;&gt;32 -->
<g id="edge5" class="edge"><path fill="none" stroke="#000000" d="M406.201,-326.816C366.621,-321.972 310.82,-313.294 263.5,-299 241.05,-292.218 217.118,-281.924 197.503,-272.606"/>
<polygon fill="#000000" stroke="#000000" points="406.275,-326.824 412.702,-323.553 418.193,-328.227 411.767,-331.498 406.275,-326.824"/>
<polygon fill="#000000" stroke="#000000" points="188.246,-268.129 199.207,-268.432 192.747,-270.306 197.248,-272.483 197.248,-272.483 197.248,-272.483 192.747,-270.306 195.289,-276.534 188.246,-268.129 188.246,-268.129"/>
<text text-anchor="start" x="266" y="-288.5" font-family="Arial" font-size="10.00" fill="black"><a fill="navy" href="../reference/Equipment/Equipment.html#dexpi-equipment-equipment-gearboxes" target="_parent">GearBoxes</a></text>
<text text-anchor="start" x="180.246" y="-271.129" font-family="Arial" font-size="10.00" fill="black">*</text>
<text text-anchor="start" x="389.193" y="-318.227" font-family="Arial" font-size="10.00" fill="black">0..1</text>
</g>
<!-- 35 -->
<g id="node15" class="node"><defs>
<linearGradient id="l_9" gradientUnits="userSpaceOnUse" x1="270.5" y1="-232" x2="270.5" y2="-268">
<stop offset="0" style="stop-color:#ffffbb;stop-opacity:1.;"/>
<stop offset="1" style="stop-color:#ffffee;stop-opacity:1.;"/>
</linearGradient>
</defs>
<polygon fill="url(#l_9)" stroke="black" points="333.5,-268 207.5,-268 207.5,-232 333.5,-232 333.5,-268"/>
<text text-anchor="start" x="217.5" y="-248.2" font-family="Arial" font-weight="bold" font-size="11.00" fill="black"><a fill="navy" href="../reference/Equipment/MotorAsComponent.html" target="_parent">MotorAsComponent</a></text>
</g>
<!-- 7&#45;&gt;35 -->
<g id="edge6" class="edge"><path fill="none" stroke="#000000" d="M406.67,-320.044C387.398,-314.7 365.526,-307.637 346.5,-299 331.23,-292.068 315.388,-282.498 302.145,-273.726"/>
<polygon fill="#000000" stroke="#000000" points="406.692,-320.049 413.521,-317.734 418.285,-323.147 411.456,-325.463 406.692,-320.049"/>
<polygon fill="#000000" stroke="#000000" points="293.85,-268.112 304.654,-269.99 297.991,-270.914 302.132,-273.717 302.132,-273.717 302.132,-273.717 297.991,-270.914 299.61,-277.443 293.85,-268.112 293.85,-268.112"/>
<text text-anchor="start" x="349" y="-288.5" font-family="Arial" font-size="10.00" fill="black"><a fill="navy" href="../reference/Equipment/Equipment.html#dexpi-equipment-equipment-motors" target="_parent">Motors</a></text>
<text text-anchor="start" x="285.85" y="-271.112" font-family="Arial" font-size="10.00" fill="black">*</text>
<text text-anchor="start" x="389.285" y="-313.147" font-family="Arial" font-size="10.00" fill="black">0..1</text>
</g>
<!-- 38 -->
<g id="node16" class="node"><defs>
<linearGradient id="l_10" gradientUnits="userSpaceOnUse" x1="395.5" y1="-232" x2="395.5" y2="-268">
<stop offset="0" style="stop-color:#ffffbb;stop-opacity:1.;"/>
<stop offset="1" style="stop-color:#ffffee;stop-opacity:1.;"/>
</linearGradient>
</defs>
<polygon fill="url(#l_10)" stroke="black" points="439,-268 352,-268 352,-232 439,-232 439,-268"/>
<text text-anchor="start" x="362.5" y="-248.2" font-family="Arial" font-weight="bold" font-size="11.00" fill="black"><a fill="navy" href="../reference/Equipment/SprayNozzle.html" target="_parent">SprayNozzle</a></text>
</g>
<!-- 7&#45;&gt;38 -->
<g id="edge7" class="edge"><path fill="none" stroke="#000000" d="M407.357,-316.548C399.867,-312.067 393.12,-306.33 388.5,-299 384.594,-292.802 384.151,-285.272 385.269,-278.033"/>
<polygon fill="#000000" stroke="#000000" points="407.588,-316.664 414.747,-315.802 418.297,-322.08 411.137,-322.942 407.588,-316.664"/>
<polygon fill="#000000" stroke="#000000" points="387.69,-268.16 389.678,-278.944 386.499,-273.016 385.308,-277.873 385.308,-277.873 385.308,-277.873 386.499,-273.016 380.937,-276.801 387.69,-268.16 387.69,-268.16"/>
<text text-anchor="start" x="391" y="-288.5" font-family="Arial" font-size="10.00" fill="black"><a fill="navy" href="../reference/Equipment/Equipment.html#dexpi-equipment-equipment-spraynozzles" target="_parent">SprayNozzles</a></text>
<text text-anchor="start" x="379.69" y="-271.16" font-family="Arial" font-size="10.00" fill="black">*</text>
<text text-anchor="start" x="406.297" y="-312.08" font-family="Arial" font-size="10.00" fill="black">0..1</text>
</g>
<!-- 14&#45;inner&#45;node -->
<!-- 7&#45;&gt;14&#45;inner&#45;node -->
<g id="edge16" class="edge"><path fill="none" stroke="black" d="M457.5,-304.649C457.5,-281.987 457.5,-253.163 457.5,-251.116L457.5,-248.951"/>
<polygon fill="none" stroke="black" points="454,-304.822 457.5,-314.822 461,-304.822 454,-304.822"/>
</g>
<!-- 8 -->
<g id="node6" class="node"><defs>
<linearGradient id="l_11" gradientUnits="userSpaceOnUse" x1="341.5" y1="-467" x2="341.5" y2="-503">
<stop offset="0" style="stop-color:#ffffbb;stop-opacity:1.;"/>
<stop offset="1" style="stop-color:#ffffee;stop-opacity:1.;"/>
</linearGradient>
</defs>
<polygon fill="url(#l_11)" stroke="black" points="394,-503 289,-503 289,-467 394,-467 394,-503"/>
<text text-anchor="start" x="299.5" y="-483.2" font-family="Arial" font-weight="bold" font-style="italic" font-size="11.00" fill="black"><a fill="navy" href="../reference/Equipment/ChamberOwner.html" target="_parent">ChamberOwner</a></text>
</g>
<!-- 41 -->
<g id="node17" class="node"><defs>
<linearGradient id="l_12" gradientUnits="userSpaceOnUse" x1="277.5" y1="-384" x2="277.5" y2="-420">
<stop offset="0" style="stop-color:#ffffbb;stop-opacity:1.;"/>
<stop offset="1" style="stop-color:#ffffee;stop-opacity:1.;"/>
</linearGradient>
</defs>
<polygon fill="url(#l_12)" stroke="black" points="312,-420 243,-420 243,-384 312,-384 312,-420"/>
<text text-anchor="start" x="253.5" y="-400.2" font-family="Arial" font-weight="bold" font-size="11.00" fill="black"><a fill="navy" href="../reference/Equipment/Chamber.html" target="_parent">Chamber</a></text>
</g>
<!-- 8&#45;&gt;41 -->
<g id="edge8" class="edge"><path fill="none" stroke="#000000" d="M295.598,-459.09C292.972,-456.591 290.565,-453.896 288.5,-451 284.181,-444.945 281.527,-437.461 279.905,-430.22"/>
<polygon fill="#000000" stroke="#000000" points="295.859,-459.3 303.041,-459.955 305.199,-466.835 298.017,-466.181 295.859,-459.3"/>
<polygon fill="#000000" stroke="#000000" points="278.234,-420.318 284.336,-429.43 279.066,-425.248 279.898,-430.179 279.898,-430.179 279.898,-430.179 279.066,-425.248 275.461,-430.928 278.234,-420.318 278.234,-420.318"/>
<text text-anchor="start" x="291" y="-440.5" font-family="Arial" font-size="10.00" fill="black"><a fill="navy" href="../reference/Equipment/ChamberOwner.html#dexpi-equipment-chamberowner-chambers" target="_parent">Chambers</a></text>
<text text-anchor="start" x="270.234" y="-423.318" font-family="Arial" font-size="10.00" fill="black">*</text>
<text text-anchor="start" x="276.199" y="-456.835" font-family="Arial" font-size="10.00" fill="black">0..1</text>
</g>
<!-- 15&#45;inner&#45;node -->
<!-- 8&#45;&gt;15&#45;inner&#45;node -->
<g id="edge18" class="edge"><path fill="none" stroke="black" d="M341.5,-456.649C341.5,-433.987 341.5,-405.163 341.5,-403.116L341.64,-400.884"/>
<polygon fill="none" stroke="black" points="338,-456.822 341.5,-466.822 345,-456.822 338,-456.822"/>
</g>
<!-- 9 -->
<g id="node7" class="node"><defs>
<linearGradient id="l_13" gradientUnits="userSpaceOnUse" x1="457.5" y1="-467" x2="457.5" y2="-503">
<stop offset="0" style="stop-color:#ffffbb;stop-opacity:1.;"/>
<stop offset="1" style="stop-color:#ffffee;stop-opacity:1.;"/>
</linearGradient>
</defs>
<polygon fill="url(#l_13)" stroke="black" points="502.5,-503 412.5,-503 412.5,-467 502.5,-467 502.5,-503"/>
<text text-anchor="start" x="422.5" y="-483.2" font-family="Arial" font-weight="bold" font-style="italic" font-size="11.00" fill="black"><a fill="navy" href="../reference/Equipment/NozzleOwner.html" target="_parent">NozzleOwner</a></text>
</g>
<!-- 44 -->
<g id="node18" class="node"><defs>
<linearGradient id="l_14" gradientUnits="userSpaceOnUse" x1="402.5" y1="-384" x2="402.5" y2="-420">
<stop offset="0" style="stop-color:#ffffbb;stop-opacity:1.;"/>
<stop offset="1" style="stop-color:#ffffee;stop-opacity:1.;"/>
</linearGradient>
</defs>
<polygon fill="url(#l_14)" stroke="black" points="431,-420 374,-420 374,-384 431,-384 431,-420"/>
<text text-anchor="start" x="384.5" y="-400.2" font-family="Arial" font-weight="bold" font-size="11.00" fill="black"><a fill="navy" href="../reference/Equipment/Nozzle.html" target="_parent">Nozzle</a></text>
</g>
<!-- 9&#45;&gt;44 -->
<g id="edge9" class="edge"><path fill="none" stroke="#000000" d="M419.289,-458.384C417.147,-456.056 415.185,-453.592 413.5,-451 409.447,-444.763 406.878,-437.222 405.253,-429.983"/>
<polygon fill="#000000" stroke="#000000" points="419.431,-458.515 426.552,-459.651 428.242,-466.662 421.121,-465.525 419.431,-458.515"/>
<polygon fill="#000000" stroke="#000000" points="403.528,-420.118 409.683,-429.193 404.389,-425.043 405.251,-429.969 405.251,-429.969 405.251,-429.969 404.389,-425.043 400.818,-430.744 403.528,-420.118 403.528,-420.118"/>
<text text-anchor="start" x="415.5" y="-440.5" font-family="Arial" font-size="10.00" fill="black"><a fill="navy" href="../reference/Equipment/NozzleOwner.html#dexpi-equipment-nozzleowner-nozzles" target="_parent">Nozzles</a></text>
<text text-anchor="start" x="395.528" y="-423.118" font-family="Arial" font-size="10.00" fill="black">*</text>
<text text-anchor="start" x="399.242" y="-456.662" font-family="Arial" font-size="10.00" fill="black">0..1</text>
</g>
<!-- 16&#45;inner&#45;node -->
<!-- 9&#45;&gt;16&#45;inner&#45;node -->
<g id="edge20" class="edge"><path fill="none" stroke="black" d="M457.5,-456.649C457.5,-433.987 457.5,-405.163 457.5,-403.116L457.5,-400.951"/>
<polygon fill="none" stroke="black" points="454,-456.822 457.5,-466.822 461,-456.822 454,-456.822"/>
</g>
<!-- 10 -->
<g id="node8" class="node"><defs>
<linearGradient id="l_15" gradientUnits="userSpaceOnUse" x1="575.5" y1="-467" x2="575.5" y2="-503">
<stop offset="0" style="stop-color:#ffffbb;stop-opacity:1.;"/>
<stop offset="1" style="stop-color:#ffffee;stop-opacity:1.;"/>
</linearGradient>
</defs>
<polygon fill="url(#l_15)" stroke="black" points="630,-503 521,-503 521,-467 630,-467 630,-503"/>
<text text-anchor="start" x="531.5" y="-483.2" font-family="Arial" font-weight="bold" font-style="italic" font-size="11.00" fill="black"><a fill="navy" href="../reference/Equipment/TaggedPlantItem.html" target="_parent">TaggedPlantItem</a></text>
</g>
<!-- 17&#45;inner&#45;node -->
<!-- 10&#45;&gt;17&#45;inner&#45;node -->
<g id="edge22" class="edge"><path fill="none" stroke="black" d="M575.5,-456.649C575.5,-433.987 575.5,-405.163 575.5,-403.116L575.414,-400.951"/>
<polygon fill="none" stroke="black" points="572,-456.822 575.5,-466.822 579,-456.822 572,-456.822"/>
</g>
<!-- 11 -->
<g id="node9" class="node"><defs>
<linearGradient id="l_16" gradientUnits="userSpaceOnUse" x1="471.5" y1="-633" x2="471.5" y2="-669">
<stop offset="0" style="stop-color:#ffffbb;stop-opacity:1.;"/>
<stop offset="1" style="stop-color:#ffffee;stop-opacity:1.;"/>
</linearGradient>
</defs>
<polygon fill="url(#l_16)" stroke="black" points="529,-669 414,-669 414,-633 529,-633 529,-669"/>
<text text-anchor="start" x="424.5" y="-649.2" font-family="Arial" font-weight="bold" font-style="italic" font-size="11.00" fill="black"><a fill="navy" href="../reference/DexpiModel/ConceptualObject.html" target="_parent">ConceptualObject</a></text>
</g>
<!-- 18&#45;inner&#45;node -->
<!-- 11&#45;&gt;18&#45;inner&#45;node -->
<g id="edge24" class="edge"><path fill="none" stroke="black" d="M471.5,-622.649C471.5,-599.987 471.5,-571.163 471.5,-569.116L471.538,-566.879"/>
<polygon fill="none" stroke="black" points="468,-622.822 471.5,-632.822 475,-622.822 468,-622.822"/>
</g>
<!-- 12 -->
<g id="node10" class="node"><defs>
<linearGradient id="l_17" gradientUnits="userSpaceOnUse" x1="629.5" y1="-633" x2="629.5" y2="-669">
<stop offset="0" style="stop-color:#ffffbb;stop-opacity:1.;"/>
<stop offset="1" style="stop-color:#ffffee;stop-opacity:1.;"/>
</linearGradient>
</defs>
<polygon fill="url(#l_17)" stroke="black" points="701.5,-669 557.5,-669 557.5,-633 701.5,-633 701.5,-669"/>
<text text-anchor="start" x="567.5" y="-649.2" font-family="Arial" font-weight="bold" font-style="italic" font-size="11.00" fill="black"><a fill="navy" href="../reference/Customization/CustomAttributeOwner.html" target="_parent">CustomAttributeOwner</a></text>
</g>
<!-- 56 -->
<g id="node22" class="node"><defs>
<linearGradient id="l_18" gradientUnits="userSpaceOnUse" x1="544.5" y1="-550" x2="544.5" y2="-586">
<stop offset="0" style="stop-color:#ffffbb;stop-opacity:1.;"/>
<stop offset="1" style="stop-color:#ffffee;stop-opacity:1.;"/>
</linearGradient>
</defs>
<polygon fill="url(#l_18)" stroke="black" points="599,-586 490,-586 490,-550 599,-550 599,-586"/>
<text text-anchor="start" x="500.5" y="-566.2" font-family="Arial" font-weight="bold" font-style="italic" font-size="11.00" fill="black"><a fill="navy" href="../reference/Customization/CustomAttribute.html" target="_parent">CustomAttribute</a></text>
</g>
<!-- 12&#45;&gt;56 -->
<g id="edge13" class="edge"><path fill="none" stroke="#000000" d="M552.949,-625.486C550.181,-622.933 547.67,-620.113 545.5,-617 541.402,-611.119 539.944,-603.772 539.815,-596.608"/>
<polygon fill="#000000" stroke="#000000" points="552.998,-625.523 560.196,-625.959 562.563,-632.77 555.365,-632.335 552.998,-625.523"/>
<polygon fill="#000000" stroke="#000000" points="540.425,-586.435 544.319,-596.687 540.126,-591.426 539.827,-596.417 539.827,-596.417 539.827,-596.417 540.126,-591.426 535.335,-596.148 540.425,-586.435 540.425,-586.435"/>
<text text-anchor="start" x="547.5" y="-606.5" font-family="Arial" font-size="10.00" fill="black"><a fill="navy" href="../reference/Customization/CustomAttributeOwner.html#dexpi-customization-customattributeowner-customattributes" target="_parent">CustomAttributes</a></text>
<text text-anchor="start" x="532.425" y="-589.435" font-family="Arial" font-size="10.00" fill="black">*</text>
<text text-anchor="start" x="533.563" y="-622.77" font-family="Arial" font-size="10.00" fill="black">0..1</text>
</g>
<!-- 19&#45;inner&#45;node -->
<!-- 12&#45;&gt;19&#45;inner&#45;node -->
<g id="edge26" class="edge"><path fill="none" stroke="black" d="M629.5,-622.649C629.5,-599.987 629.5,-571.163 629.5,-569.116L629.461,-566.941"/>
<polygon fill="none" stroke="black" points="626,-622.822 629.5,-632.822 633,-622.822 626,-622.822"/>
</g>
<!-- 47 -->
<g id="node19" class="node"><defs>
<linearGradient id="l_19" gradientUnits="userSpaceOnUse" x1="395.5" y1="-550" x2="395.5" y2="-586">
<stop offset="0" style="stop-color:#ffffbb;stop-opacity:1.;"/>
<stop offset="1" style="stop-color:#ffffee;stop-opacity:1.;"/>
</linearGradient>
</defs>
<polygon fill="url(#l_19)" stroke="black" points="452.5,-586 338.5,-586 338.5,-550 452.5,-550 452.5,-586"/>
<text text-anchor="start" x="348.5" y="-566.2" font-family="Arial" font-weight="bold" font-size="11.00" fill="black"><a fill="navy" href="../reference/DexpiModel/ConceptualModel.html" target="_parent">ConceptualModel</a></text>
</g>
<!-- 47&#45;&gt;10 -->
<g id="edge10" class="edge"><path fill="none" stroke="#000000" d="M400.324,-538.016C402.842,-530.86 406.673,-523.862 412.5,-519 444.518,-492.287 465.123,-509.682 510.934,-502.726"/>
<polygon fill="#000000" stroke="#000000" points="400.262,-538.253 402.602,-545.074 397.205,-549.857 394.865,-543.036 400.262,-538.253"/>
<polygon fill="#000000" stroke="#000000" points="520.773,-500.92 511.751,-507.152 515.856,-501.823 510.938,-502.726 510.938,-502.726 510.938,-502.726 515.856,-501.823 510.125,-498.3 520.773,-500.92 520.773,-500.92"/>
<text text-anchor="start" x="415" y="-523.5" font-family="Arial" font-size="10.00" fill="black"><a fill="navy" href="../reference/DexpiModel/ConceptualModel.html#dexpi-dexpimodel-conceptualmodel-taggedplantitems" target="_parent">TaggedPlantItems</a></text>
<text text-anchor="start" x="512.773" y="-503.92" font-family="Arial" font-size="10.00" fill="black">*</text>
<text text-anchor="start" x="368.205" y="-539.857" font-family="Arial" font-size="10.00" fill="black">0..1</text>
</g>
<!-- 50 -->
<g id="node20" class="node"><defs>
<linearGradient id="l_20" gradientUnits="userSpaceOnUse" x1="368.5" y1="-724.5" x2="368.5" y2="-760.5">
<stop offset="0" style="stop-color:#ffffbb;stop-opacity:1.;"/>
<stop offset="1" style="stop-color:#ffffee;stop-opacity:1.;"/>
</linearGradient>
</defs>
<polygon fill="url(#l_20)" stroke="black" points="443,-760.5 294,-760.5 294,-724.5 443,-724.5 443,-760.5"/>
<text text-anchor="start" x="304.5" y="-740.7" font-family="Arial" font-weight="bold" font-size="11.00" fill="black"><a fill="navy" href="../reference/Graphics/AttributeRepresentation.html" target="_parent">AttributeRepresentation</a></text>
</g>
<!-- 50&#45;&gt;11 -->
<g id="edge11" class="edge"><path fill="none" stroke="#000000" d="M388.359,-724.243C404.176,-710.5 426.493,-691.108 444.024,-675.875"/>
<polygon fill="#000000" stroke="#000000" points="451.702,-669.204 447.105,-679.159 447.927,-672.483 444.153,-675.763 444.153,-675.763 444.153,-675.763 447.927,-672.483 441.201,-672.366 451.702,-669.204 451.702,-669.204"/>
<text text-anchor="start" x="435" y="-689.5" font-family="Arial" font-size="10.00" fill="black"><a fill="navy" href="../reference/Graphics/AttributeRepresentation.html#dexpi-graphics-attributerepresentation-object" target="_parent">Object</a></text>
<text text-anchor="start" x="443.702" y="-672.204" font-family="Arial" font-size="10.00" fill="black"></text>
<text text-anchor="start" x="372.359" y="-714.243" font-family="Arial" font-size="10.00" fill="black">*</text>
</g>
<!-- 53 -->
<g id="node21" class="node"><defs>
<linearGradient id="l_21" gradientUnits="userSpaceOnUse" x1="529.5" y1="-724.5" x2="529.5" y2="-760.5">
<stop offset="0" style="stop-color:#ffffbb;stop-opacity:1.;"/>
<stop offset="1" style="stop-color:#ffffee;stop-opacity:1.;"/>
</linearGradient>
</defs>
<polygon fill="url(#l_21)" stroke="black" points="598,-760.5 461,-760.5 461,-724.5 598,-724.5 598,-760.5"/>
<text text-anchor="start" x="471.5" y="-740.7" font-family="Arial" font-weight="bold" font-size="11.00" fill="black"><a fill="navy" href="../reference/Graphics/RepresentationGroup.html" target="_parent">RepresentationGroup</a></text>
</g>
<!-- 53&#45;&gt;11 -->
<g id="edge12" class="edge"><path fill="none" stroke="#000000" d="M518.317,-724.243C509.812,-711.119 497.968,-692.843 488.322,-677.958"/>
<polygon fill="#000000" stroke="#000000" points="482.649,-669.204 491.863,-675.148 485.368,-673.399 488.087,-677.595 488.087,-677.595 488.087,-677.595 485.368,-673.399 484.311,-680.043 482.649,-669.204 482.649,-669.204"/>
<text text-anchor="start" x="504.5" y="-689.5" font-family="Arial" font-size="10.00" fill="black"><a fill="navy" href="../reference/Graphics/RepresentationGroup.html#dexpi-graphics-representationgroup-represents" target="_parent">Represents</a></text>
<text text-anchor="start" x="474.649" y="-672.204" font-family="Arial" font-size="10.00" fill="black"></text>
<text text-anchor="start" x="502.317" y="-714.243" font-family="Arial" font-size="10.00" fill="black">*</text>
</g>
<!-- 13&#45;inner&#45;node&#45;&gt;0 -->
<g id="edge15" class="edge"><path fill="none" stroke="black" d="M457.5,-96.9475C457.5,-95.5839 457.5,-67.967 457.5,-47.2343"/>
</g>
<!-- 14&#45;inner&#45;node&#45;&gt;6 -->
<g id="edge17" class="edge"><path fill="none" stroke="black" d="M457.5,-248.951C457.5,-247.604 457.5,-218.522 457.5,-199.135"/>
</g>
<!-- 15&#45;inner&#45;node&#45;&gt;7 -->
<g id="edge19" class="edge"><path fill="none" stroke="black" d="M341.64,-400.884C343.027,-399.739 354.434,-390.38 364.5,-384 383.235,-372.126 405.036,-360.306 422.819,-351.142"/>
</g>
<!-- 16&#45;inner&#45;node&#45;&gt;7 -->
<g id="edge21" class="edge"><path fill="none" stroke="black" d="M457.5,-400.951C457.5,-399.604 457.5,-370.522 457.5,-351.135"/>
</g>
<!-- 17&#45;inner&#45;node&#45;&gt;7 -->
<g id="edge23" class="edge"><path fill="none" stroke="black" d="M575.414,-400.951C573.042,-399.604 521.822,-370.522 487.677,-351.135"/>
</g>
<!-- 18&#45;inner&#45;node&#45;&gt;10 -->
<g id="edge25" class="edge"><path fill="none" stroke="black" d="M471.538,-566.879C471.92,-565.686 475.141,-555.959 480.5,-550 497.92,-530.629 522.388,-514.325 542.129,-503.02"/>
</g>
<!-- 19&#45;inner&#45;node&#45;&gt;10 -->
<g id="edge27" class="edge"><path fill="none" stroke="black" d="M629.461,-566.941C628.318,-565.226 602.391,-526.337 586.898,-503.098"/>
</g>
<!-- 20&#45;inner&#45;node&#45;&gt;10 -->
<g id="edge29" class="edge"><path fill="none" stroke="black" d="M766.362,-566.941C762.318,-565.226 670.615,-526.337 615.817,-503.098"/>
</g>
</g>
</svg>