<!DOCTYPE svg PUBLIC "-//W3C//DTD SVG 1.1//EN" "http://www.w3.org/Graphics/SVG/1.1/DTD/svg11.dtd">
<!-- Generated by graphviz version 2.38.0 (20140413.2041)
 --><!-- Title: G Pages: 1 --><svg xmlns="http://www.w3.org/2000/svg" xmlns:xlink="http://www.w3.org/1999/xlink" width="462pt" height="304pt" viewBox="0.00 0.00 461.50 304.00">
<g id="graph0" class="graph" transform="scale(1 1) rotate(0) translate(4 300)">
<!-- 0 -->
<g id="node1" class="node"><defs>
<linearGradient id="l_0" gradientUnits="userSpaceOnUse" x1="213.5" y1="-1.77636e-014" x2="213.5" y2="-47">
<stop offset="0" style="stop-color:#ffffbb;stop-opacity:1.;"/>
<stop offset="1" style="stop-color:#ffffee;stop-opacity:1.;"/>
</linearGradient>
</defs>
<polygon fill="url(#l_0)" stroke="black" points="301,-47 126,-47 126,3.55271e-015 301,3.55271e-015 301,-47"/>
<text text-anchor="start" x="172" y="-32.7" font-family="Arial" font-weight="bold" font-size="11.00" fill="black">PrimaryElement</text>
<text text-anchor="start" x="136.5" y="-8.5" font-family="Arial" font-size="10.00" fill="black"><a fill="navy" href="../reference/Instrumentation/PrimaryElement.html#dexpi-instrumentation-primaryelement-subtagname" target="_parent">SubTagName</a>&#160;:</text>
<text text-anchor="start" x="205.5" y="-8.5" font-family="Arial" font-size="10.00" fill="black"><a fill="navy" href="../reference/DataTypes/NullableString.html" target="_parent">NullableString</a>&#160;[0..1]</text>
<polygon fill="black" stroke="black" points="301.0,-26.5 126.0,-26.5 126.0,-26.5 301.0,-26.5 301.0,-26.5"/>
</g>
<!-- 3 -->
<g id="node2" class="node"><defs>
<linearGradient id="l_1" gradientUnits="userSpaceOnUse" x1="213.5" y1="-177" x2="213.5" y2="-213">
<stop offset="0" style="stop-color:#ffffbb;stop-opacity:1.;"/>
<stop offset="1" style="stop-color:#ffffee;stop-opacity:1.;"/>
</linearGradient>
</defs>
<polygon fill="url(#l_1)" stroke="black" points="271,-213 156,-213 156,-177 271,-177 271,-213"/>
<text text-anchor="start" x="166.5" y="-193.2" font-family="Arial" font-weight="bold" font-style="italic" font-size="11.00" fill="black"><a fill="navy" href="../reference/DexpiModel/ConceptualObject.html" target="_parent">ConceptualObject</a></text>
</g>
<!-- 5&#45;inner&#45;node -->
<!-- 3&#45;&gt;5&#45;inner&#45;node -->
<g id="edge5" class="edge"><path fill="none" stroke="black" d="M213.5,-166.649C213.5,-143.987 213.5,-115.163 213.5,-113.116L213.5,-110.937"/>
<polygon fill="none" stroke="black" points="210,-166.822 213.5,-176.822 217,-166.822 210,-166.822"/>
</g>
<!-- 4 -->
<g id="node3" class="node"><defs>
<linearGradient id="l_2" gradientUnits="userSpaceOnUse" x1="381.5" y1="-177" x2="381.5" y2="-213">
<stop offset="0" style="stop-color:#ffffbb;stop-opacity:1.;"/>
<stop offset="1" style="stop-color:#ffffee;stop-opacity:1.;"/>
</linearGradient>
</defs>
<polygon fill="url(#l_2)" stroke="black" points="453.5,-213 309.5,-213 309.5,-177 453.5,-177 453.5,-213"/>
<text text-anchor="start" x="319.5" y="-193.2" font-family="Arial" font-weight="bold" font-style="italic" font-size="11.00" fill="black"><a fill="navy" href="../reference/Customization/CustomAttributeOwner.html" target="_parent">CustomAttributeOwner</a></text>
</g>
<!-- 18 -->
<g id="node7" class="node"><defs>
<linearGradient id="l_3" gradientUnits="userSpaceOnUse" x1="286.5" y1="-94" x2="286.5" y2="-130">
<stop offset="0" style="stop-color:#ffffbb;stop-opacity:1.;"/>
<stop offset="1" style="stop-color:#ffffee;stop-opacity:1.;"/>
</linearGradient>
</defs>
<polygon fill="url(#l_3)" stroke="black" points="341,-130 232,-130 232,-94 341,-94 341,-130"/>
<text text-anchor="start" x="242.5" y="-110.2" font-family="Arial" font-weight="bold" font-style="italic" font-size="11.00" fill="black"><a fill="navy" href="../reference/Customization/CustomAttribute.html" target="_parent">CustomAttribute</a></text>
</g>
<!-- 4&#45;&gt;18 -->
<g id="edge4" class="edge"><path fill="none" stroke="#000000" d="M307.566,-170.359C303.887,-167.576 300.487,-164.469 297.5,-161 292.571,-155.275 289.734,-147.784 288.132,-140.428"/>
<polygon fill="#000000" stroke="#000000" points="307.776,-170.495 314.986,-170.381 317.865,-176.992 310.655,-177.106 307.776,-170.495"/>
<polygon fill="#000000" stroke="#000000" points="286.601,-130.317 292.548,-139.53 287.35,-135.26 288.098,-140.204 288.098,-140.204 288.098,-140.204 287.35,-135.26 283.649,-140.878 286.601,-130.317 286.601,-130.317"/>
<text text-anchor="start" x="299.5" y="-150.5" font-family="Arial" font-size="10.00" fill="black"><a fill="navy" href="../reference/Customization/CustomAttributeOwner.html#dexpi-customization-customattributeowner-customattributes" target="_parent">CustomAttributes</a></text>
<text text-anchor="start" x="278.601" y="-133.317" font-family="Arial" font-size="10.00" fill="black">*</text>
<text text-anchor="start" x="288.865" y="-166.992" font-family="Arial" font-size="10.00" fill="black">0..1</text>
</g>
<!-- 6&#45;inner&#45;node -->
<!-- 4&#45;&gt;6&#45;inner&#45;node -->
<g id="edge7" class="edge"><path fill="none" stroke="black" d="M381.5,-166.649C381.5,-143.987 381.5,-115.163 381.5,-113.116L381.449,-110.972"/>
<polygon fill="none" stroke="black" points="378,-166.822 381.5,-176.822 385,-166.822 378,-166.822"/>
</g>
<!-- 9 -->
<g id="node4" class="node"><defs>
<linearGradient id="l_4" gradientUnits="userSpaceOnUse" x1="97.5" y1="-94" x2="97.5" y2="-130">
<stop offset="0" style="stop-color:#ffffbb;stop-opacity:1.;"/>
<stop offset="1" style="stop-color:#ffffee;stop-opacity:1.;"/>
</linearGradient>
</defs>
<polygon fill="url(#l_4)" stroke="black" points="195,-130 0,-130 0,-94 195,-94 195,-130"/>
<text text-anchor="start" x="10.5" y="-110.2" font-family="Arial" font-weight="bold" font-size="11.00" fill="black"><a fill="navy" href="../reference/Instrumentation/ProcessSignalGeneratingSystem.html" target="_parent">ProcessSignalGeneratingSystem</a></text>
</g>
<!-- 9&#45;&gt;0 -->
<g id="edge1" class="edge"><path fill="none" stroke="#000000" d="M115.45,-84.0563C121.252,-76.6244 128.113,-68.9719 135.5,-63 140.165,-59.2292 145.259,-55.7018 150.539,-52.4329"/>
<polygon fill="#000000" stroke="#000000" points="115.345,-84.2002 115.02,-91.4041 108.246,-93.8752 108.57,-86.6714 115.345,-84.2002"/>
<polygon fill="#000000" stroke="#000000" points="159.554,-47.1784 153.18,-56.1019 155.234,-49.6962 150.914,-52.214 150.914,-52.214 150.914,-52.214 155.234,-49.6962 148.648,-48.3262 159.554,-47.1784 159.554,-47.1784"/>
<text text-anchor="start" x="137.5" y="-67.5" font-family="Arial" font-size="10.00" fill="black"><a fill="navy" href="../reference/Instrumentation/ProcessSignalGeneratingSystem.html#dexpi-instrumentation-processsignalgeneratingsystem-primaryelement" target="_parent">PrimaryElement</a></text>
<text text-anchor="start" x="138.554" y="-50.1784" font-family="Arial" font-size="10.00" fill="black">0..1</text>
<text text-anchor="start" x="79.2456" y="-83.8752" font-family="Arial" font-size="10.00" fill="black">0..1</text>
</g>
<!-- 12 -->
<g id="node5" class="node"><defs>
<linearGradient id="l_5" gradientUnits="userSpaceOnUse" x1="133.5" y1="-260" x2="133.5" y2="-296">
<stop offset="0" style="stop-color:#ffffbb;stop-opacity:1.;"/>
<stop offset="1" style="stop-color:#ffffee;stop-opacity:1.;"/>
</linearGradient>
</defs>
<polygon fill="url(#l_5)" stroke="black" points="208,-296 59,-296 59,-260 208,-260 208,-296"/>
<text text-anchor="start" x="69.5" y="-276.2" font-family="Arial" font-weight="bold" font-size="11.00" fill="black"><a fill="navy" href="../reference/Graphics/AttributeRepresentation.html" target="_parent">AttributeRepresentation</a></text>
</g>
<!-- 12&#45;&gt;3 -->
<g id="edge2" class="edge"><path fill="none" stroke="#000000" d="M150.466,-259.822C161.815,-248.331 176.916,-233.041 189.493,-220.307"/>
<polygon fill="#000000" stroke="#000000" points="196.559,-213.153 192.733,-223.43 193.045,-216.711 189.531,-220.268 189.531,-220.268 189.531,-220.268 193.045,-216.711 186.33,-217.106 196.559,-213.153 196.559,-213.153"/>
<text text-anchor="start" x="184" y="-233.5" font-family="Arial" font-size="10.00" fill="black"><a fill="navy" href="../reference/Graphics/AttributeRepresentation.html#dexpi-graphics-attributerepresentation-object" target="_parent">Object</a></text>
<text text-anchor="start" x="188.559" y="-216.153" font-family="Arial" font-size="10.00" fill="black"></text>
<text text-anchor="start" x="134.466" y="-249.822" font-family="Arial" font-size="10.00" fill="black">*</text>
</g>
<!-- 15 -->
<g id="node6" class="node"><defs>
<linearGradient id="l_6" gradientUnits="userSpaceOnUse" x1="294.5" y1="-260" x2="294.5" y2="-296">
<stop offset="0" style="stop-color:#ffffbb;stop-opacity:1.;"/>
<stop offset="1" style="stop-color:#ffffee;stop-opacity:1.;"/>
</linearGradient>
</defs>
<polygon fill="url(#l_6)" stroke="black" points="363,-296 226,-296 226,-260 363,-260 363,-296"/>
<text text-anchor="start" x="236.5" y="-276.2" font-family="Arial" font-weight="bold" font-size="11.00" fill="black"><a fill="navy" href="../reference/Graphics/RepresentationGroup.html" target="_parent">RepresentationGroup</a></text>
</g>
<!-- 15&#45;&gt;3 -->
<g id="edge3" class="edge"><path fill="none" stroke="#000000" d="M277.322,-259.822C265.831,-248.331 250.541,-233.041 237.807,-220.307"/>
<polygon fill="#000000" stroke="#000000" points="230.653,-213.153 240.906,-217.042 234.189,-216.689 237.724,-220.224 237.724,-220.224 237.724,-220.224 234.189,-216.689 234.542,-223.406 230.653,-213.153 230.653,-213.153"/>
<text text-anchor="start" x="263.5" y="-233.5" font-family="Arial" font-size="10.00" fill="black"><a fill="navy" href="../reference/Graphics/RepresentationGroup.html#dexpi-graphics-representationgroup-represents" target="_parent">Represents</a></text>
<text text-anchor="start" x="222.653" y="-216.153" font-family="Arial" font-size="10.00" fill="black"></text>
<text text-anchor="start" x="261.322" y="-249.822" font-family="Arial" font-size="10.00" fill="black">*</text>
</g>
<!-- 5&#45;inner&#45;node&#45;&gt;0 -->
<g id="edge6" class="edge"><path fill="none" stroke="black" d="M213.5,-110.937C213.5,-109.208 213.5,-72.0921 213.5,-47.0645"/>
</g>
<!-- 6&#45;inner&#45;node&#45;&gt;0 -->
<g id="edge8" class="edge"><path fill="none" stroke="black" d="M381.449,-110.972C380.396,-110.405 363.336,-101.21 349.5,-94 319.049,-78.132 284.604,-60.5333 257.998,-47.0154"/>
</g>
</g>
</svg>