<!DOCTYPE svg PUBLIC "-//W3C//DTD SVG 1.1//EN" "http://www.w3.org/Graphics/SVG/1.1/DTD/svg11.dtd">
<!-- Generated by graphviz version 2.38.0 (20140413.2041)
 --><!-- Title: G Pages: 1 --><svg xmlns="http://www.w3.org/2000/svg" xmlns:xlink="http://www.w3.org/1999/xlink" width="834pt" height="419pt" viewBox="0.00 0.00 834.00 419.00">
<g id="graph0" class="graph" transform="scale(1 1) rotate(0) translate(4 415)">
<!-- 0 -->
<g id="node1" class="node"><defs>
<linearGradient id="l_0" gradientUnits="userSpaceOnUse" x1="370" y1="-83" x2="370" y2="-145">
<stop offset="0" style="stop-color:#ffffbb;stop-opacity:1.;"/>
<stop offset="1" style="stop-color:#ffffee;stop-opacity:1.;"/>
</linearGradient>
</defs>
<polygon fill="url(#l_0)" stroke="black" points="519,-145 221,-145 221,-83 519,-83 519,-145"/>
<text text-anchor="start" x="278" y="-131.2" font-family="Arial" font-weight="bold" font-size="11.00" fill="black">ProcessSignalGeneratingFunction</text>
<text text-anchor="start" x="231" y="-107" font-family="Arial" font-size="10.00" fill="black"><a fill="navy" href="../reference/Instrumentation/ProcessSignalGeneratingFunction.html#dexpi-instrumentation-processsignalgeneratingfunction-processsignalgeneratingfunctionnumber" target="_parent">ProcessSignalGeneratingFunctionNumber</a>&#160;:</text>
<text text-anchor="start" x="423" y="-107" font-family="Arial" font-size="10.00" fill="black"><a fill="navy" href="../reference/DataTypes/NullableString.html" target="_parent">NullableString</a>&#160;[0..1]</text>
<text text-anchor="start" x="231" y="-92" font-family="Arial" font-size="10.00" fill="black"><a fill="navy" href="../reference/Instrumentation/ProcessSignalGeneratingFunction.html#dexpi-instrumentation-processsignalgeneratingfunction-sensortype" target="_parent">SensorType</a>&#160;:</text>
<text text-anchor="start" x="423" y="-92" font-family="Arial" font-size="10.00" fill="black"><a fill="navy" href="../reference/DataTypes/NullableString.html" target="_parent">NullableString</a>&#160;[0..1]</text>
<polygon fill="black" stroke="black" points="519.0,-125.0 221.0,-125.0 221.0,-125.0 519.0,-125.0 519.0,-125.0"/>
</g>
<!-- 16 -->
<g id="node7" class="node"><defs>
<linearGradient id="l_1" gradientUnits="userSpaceOnUse" x1="285" y1="-1.77636e-014" x2="285" y2="-36">
<stop offset="0" style="stop-color:#ffffbb;stop-opacity:1.;"/>
<stop offset="1" style="stop-color:#ffffee;stop-opacity:1.;"/>
</linearGradient>
</defs>
<polygon fill="url(#l_1)" stroke="black" points="339.5,-36 230.5,-36 230.5,-0 339.5,-0 339.5,-36"/>
<text text-anchor="start" x="241" y="-16.2" font-family="Arial" font-weight="bold" font-style="italic" font-size="11.00" fill="black"><a fill="navy" href="../reference/Instrumentation/SensingLocation.html" target="_parent">SensingLocation</a></text>
</g>
<!-- 0&#45;&gt;16 -->
<g id="edge2" class="edge"><path fill="none" stroke="#000000" d="M342.872,-82.9994C331.393,-70.3057 318.186,-55.7 307.289,-43.6495"/>
<polygon fill="#000000" stroke="#000000" points="300.504,-36.1454 310.549,-40.5445 303.857,-39.854 307.211,-43.5626 307.211,-43.5626 307.211,-43.5626 303.857,-39.854 303.873,-46.5808 300.504,-36.1454 300.504,-36.1454"/>
<text text-anchor="start" x="330.5" y="-56.5" font-family="Arial" font-size="10.00" fill="black"><a fill="navy" href="../reference/Instrumentation/ProcessSignalGeneratingFunction.html#dexpi-instrumentation-processsignalgeneratingfunction-sensinglocation" target="_parent">SensingLocation</a></text>
<text text-anchor="start" x="279.504" y="-39.1454" font-family="Arial" font-size="10.00" fill="black">0..1</text>
<text text-anchor="start" x="326.872" y="-72.9994" font-family="Arial" font-size="10.00" fill="black">*</text>
</g>
<!-- 19 -->
<g id="node8" class="node"><defs>
<linearGradient id="l_2" gradientUnits="userSpaceOnUse" x1="455" y1="-1.77636e-014" x2="455" y2="-36">
<stop offset="0" style="stop-color:#ffffbb;stop-opacity:1.;"/>
<stop offset="1" style="stop-color:#ffffee;stop-opacity:1.;"/>
</linearGradient>
</defs>
<polygon fill="url(#l_2)" stroke="black" points="552.5,-36 357.5,-36 357.5,-0 552.5,-0 552.5,-36"/>
<text text-anchor="start" x="368" y="-16.2" font-family="Arial" font-weight="bold" font-size="11.00" fill="black"><a fill="navy" href="../reference/Instrumentation/ProcessSignalGeneratingSystem.html" target="_parent">ProcessSignalGeneratingSystem</a></text>
</g>
<!-- 0&#45;&gt;19 -->
<g id="edge3" class="edge"><path fill="none" stroke="#000000" d="M397.128,-82.9994C408.607,-70.3057 421.814,-55.7 432.711,-43.6495"/>
<polygon fill="#000000" stroke="#000000" points="439.496,-36.1454 436.127,-46.5808 436.143,-39.854 432.789,-43.5626 432.789,-43.5626 432.789,-43.5626 436.143,-39.854 429.451,-40.5445 439.496,-36.1454 439.496,-36.1454"/>
<text text-anchor="start" x="428" y="-56.5" font-family="Arial" font-size="10.00" fill="black"><a fill="navy" href="../reference/Instrumentation/ProcessSignalGeneratingFunction.html#dexpi-instrumentation-processsignalgeneratingfunction-systems" target="_parent">Systems</a></text>
<text text-anchor="start" x="418.496" y="-39.1454" font-family="Arial" font-size="10.00" fill="black">0..1</text>
<text text-anchor="start" x="381.128" y="-72.9994" font-family="Arial" font-size="10.00" fill="black">*</text>
</g>
<!-- 5 -->
<g id="node2" class="node"><defs>
<linearGradient id="l_3" gradientUnits="userSpaceOnUse" x1="734" y1="-358" x2="734" y2="-411">
<stop offset="0" style="stop-color:#fbfbfb;stop-opacity:1.;"/>
<stop offset="1" style="stop-color:#fefefe;stop-opacity:1.;"/>
</linearGradient>
</defs>
<polygon fill="url(#l_3)" stroke="black" points="826.0,-400.0 815.0,-411.0 642.0,-411.0 642.0,-358.0 826.0,-358.0"/><path d="M826.0,-400.0L815.0,-400.0 815.0,-411.0" fill="none" stroke="black"/>
<text text-anchor="start" x="652" y="-396.5" font-family="Arial" font-size="10.00" fill="black">For&#160;the&#160;sake&#160;of&#160;clarity,&#160;superclasses&#160;</text>
<text text-anchor="start" x="652" y="-381.5" font-family="Arial" font-size="10.00" fill="black">and&#160;associations&#160;of&#160;<a fill="navy" href="../reference/PlantStructure/TechnicalItem.html" target="_parent">TechnicalItem</a>&#160;are</text>
<text text-anchor="start" x="652" y="-366.5" font-family="Arial" font-size="10.00" fill="black">not&#160;shown&#160;in&#160;this&#160;diagram.</text>
</g>
<!-- 4 -->
<g id="node3" class="node"><defs>
<linearGradient id="l_4" gradientUnits="userSpaceOnUse" x1="723" y1="-275" x2="723" y2="-311">
<stop offset="0" style="stop-color:#ffffbb;stop-opacity:1.;"/>
<stop offset="1" style="stop-color:#ffffee;stop-opacity:1.;"/>
</linearGradient>
</defs>
<polygon fill="url(#l_4)" stroke="black" points="769.5,-311 676.5,-311 676.5,-275 769.5,-275 769.5,-311"/>
<text text-anchor="start" x="687" y="-291.2" font-family="Arial" font-weight="bold" font-style="italic" font-size="11.00" fill="black"><a fill="navy" href="../reference/PlantStructure/TechnicalItem.html" target="_parent">TechnicalItem</a></text>
</g>
<!-- 5&#45;&gt;4 -->
<g id="edge1" class="edge"><path fill="none" stroke="#000000" stroke-dasharray="5,2" d="M730.818,-357.613C728.978,-342.641 726.714,-324.222 725.097,-311.063"/>
</g>
<!-- 13&#45;inner&#45;node -->
<!-- 4&#45;&gt;13&#45;inner&#45;node -->
<g id="edge15" class="edge"><path fill="none" stroke="black" d="M723,-264.649C723,-241.987 723,-213.163 723,-211.116L722.936,-208.983"/>
<polygon fill="none" stroke="black" points="719.5,-264.822 723,-274.822 726.5,-264.822 719.5,-264.822"/>
</g>
<!-- 7 -->
<g id="node4" class="node"><defs>
<linearGradient id="l_5" gradientUnits="userSpaceOnUse" x1="213" y1="-275" x2="213" y2="-311">
<stop offset="0" style="stop-color:#ffffbb;stop-opacity:1.;"/>
<stop offset="1" style="stop-color:#ffffee;stop-opacity:1.;"/>
</linearGradient>
</defs>
<polygon fill="url(#l_5)" stroke="black" points="270.5,-311 155.5,-311 155.5,-275 270.5,-275 270.5,-311"/>
<text text-anchor="start" x="166" y="-291.2" font-family="Arial" font-weight="bold" font-style="italic" font-size="11.00" fill="black"><a fill="navy" href="../reference/DexpiModel/ConceptualObject.html" target="_parent">ConceptualObject</a></text>
</g>
<!-- 10&#45;inner&#45;node -->
<!-- 7&#45;&gt;10&#45;inner&#45;node -->
<g id="edge9" class="edge"><path fill="none" stroke="black" d="M213,-264.649C213,-241.987 213,-213.163 213,-211.116L213.032,-208.873"/>
<polygon fill="none" stroke="black" points="209.5,-264.822 213,-274.822 216.5,-264.822 209.5,-264.822"/>
</g>
<!-- 8 -->
<g id="node5" class="node"><defs>
<linearGradient id="l_6" gradientUnits="userSpaceOnUse" x1="370" y1="-275" x2="370" y2="-311">
<stop offset="0" style="stop-color:#ffffbb;stop-opacity:1.;"/>
<stop offset="1" style="stop-color:#ffffee;stop-opacity:1.;"/>
</linearGradient>
</defs>
<polygon fill="url(#l_6)" stroke="black" points="442,-311 298,-311 298,-275 442,-275 442,-311"/>
<text text-anchor="start" x="308" y="-291.2" font-family="Arial" font-weight="bold" font-style="italic" font-size="11.00" fill="black"><a fill="navy" href="../reference/Customization/CustomAttributeOwner.html" target="_parent">CustomAttributeOwner</a></text>
</g>
<!-- 31 -->
<g id="node12" class="node"><defs>
<linearGradient id="l_7" gradientUnits="userSpaceOnUse" x1="286" y1="-192" x2="286" y2="-228">
<stop offset="0" style="stop-color:#ffffbb;stop-opacity:1.;"/>
<stop offset="1" style="stop-color:#ffffee;stop-opacity:1.;"/>
</linearGradient>
</defs>
<polygon fill="url(#l_7)" stroke="black" points="340.5,-228 231.5,-228 231.5,-192 340.5,-192 340.5,-228"/>
<text text-anchor="start" x="242" y="-208.2" font-family="Arial" font-weight="bold" font-style="italic" font-size="11.00" fill="black"><a fill="navy" href="../reference/Customization/CustomAttribute.html" target="_parent">CustomAttribute</a></text>
</g>
<!-- 8&#45;&gt;31 -->
<g id="edge7" class="edge"><path fill="none" stroke="#000000" d="M293.369,-267.541C290.622,-264.973 288.137,-262.136 286,-259 281.964,-253.078 280.64,-245.718 280.66,-238.554"/>
<polygon fill="#000000" stroke="#000000" points="293.402,-267.567 300.598,-268.037 302.932,-274.86 295.736,-274.39 293.402,-267.567"/>
<polygon fill="#000000" stroke="#000000" points="281.495,-228.389 285.162,-238.724 281.086,-233.373 280.677,-238.356 280.677,-238.356 280.677,-238.356 281.086,-233.373 276.192,-237.988 281.495,-228.389 281.495,-228.389"/>
<text text-anchor="start" x="288" y="-248.5" font-family="Arial" font-size="10.00" fill="black"><a fill="navy" href="../reference/Customization/CustomAttributeOwner.html#dexpi-customization-customattributeowner-customattributes" target="_parent">CustomAttributes</a></text>
<text text-anchor="start" x="273.495" y="-231.389" font-family="Arial" font-size="10.00" fill="black">*</text>
<text text-anchor="start" x="273.932" y="-264.86" font-family="Arial" font-size="10.00" fill="black">0..1</text>
</g>
<!-- 11&#45;inner&#45;node -->
<!-- 8&#45;&gt;11&#45;inner&#45;node -->
<g id="edge11" class="edge"><path fill="none" stroke="black" d="M370,-264.649C370,-241.987 370,-213.163 370,-211.116L370,-208.932"/>
<polygon fill="none" stroke="black" points="366.5,-264.822 370,-274.822 373.5,-264.822 366.5,-264.822"/>
</g>
<!-- 9 -->
<g id="node6" class="node"><defs>
<linearGradient id="l_8" gradientUnits="userSpaceOnUse" x1="557" y1="-275" x2="557" y2="-311">
<stop offset="0" style="stop-color:#ffffbb;stop-opacity:1.;"/>
<stop offset="1" style="stop-color:#ffffee;stop-opacity:1.;"/>
</linearGradient>
</defs>
<polygon fill="url(#l_8)" stroke="black" points="654,-311 460,-311 460,-275 654,-275 654,-311"/>
<text text-anchor="start" x="470" y="-291.2" font-family="Arial" font-weight="bold" font-style="italic" font-size="11.00" fill="black"><a fill="navy" href="../reference/Instrumentation/SignalConveyingFunctionSource.html" target="_parent">SignalConveyingFunctionSource</a></text>
</g>
<!-- 12&#45;inner&#45;node -->
<!-- 9&#45;&gt;12&#45;inner&#45;node -->
<g id="edge13" class="edge"><path fill="none" stroke="black" d="M557,-264.649C557,-241.987 557,-213.163 557,-211.116L556.864,-208.932"/>
<polygon fill="none" stroke="black" points="553.5,-264.822 557,-274.822 560.5,-264.822 553.5,-264.822"/>
</g>
<!-- 22 -->
<g id="node9" class="node"><defs>
<linearGradient id="l_9" gradientUnits="userSpaceOnUse" x1="97" y1="-192" x2="97" y2="-228">
<stop offset="0" style="stop-color:#ffffbb;stop-opacity:1.;"/>
<stop offset="1" style="stop-color:#ffffee;stop-opacity:1.;"/>
</linearGradient>
</defs>
<polygon fill="url(#l_9)" stroke="black" points="194,-228 0,-228 0,-192 194,-192 194,-228"/>
<text text-anchor="start" x="10" y="-208.2" font-family="Arial" font-weight="bold" font-size="11.00" fill="black"><a fill="navy" href="../reference/Instrumentation/ProcessInstrumentationFunction.html" target="_parent">ProcessInstrumentationFunction</a></text>
</g>
<!-- 22&#45;&gt;0 -->
<g id="edge4" class="edge"><path fill="none" stroke="#000000" d="M90.8946,-179.41C91.0717,-172.726 92.6828,-166.106 97,-161 112.93,-142.162 159.982,-131.035 210.636,-124.464"/>
<polygon fill="#000000" stroke="#000000" points="90.9118,-179.616 95.4001,-185.261 91.9164,-191.574 87.4282,-185.93 90.9118,-179.616"/>
<polygon fill="#000000" stroke="#000000" points="220.807,-123.21 211.433,-128.9 215.844,-123.822 210.882,-124.434 210.882,-124.434 210.882,-124.434 215.844,-123.822 210.331,-119.968 220.807,-123.21 220.807,-123.21"/>
<text text-anchor="start" x="99" y="-165.5" font-family="Arial" font-size="10.00" fill="black"><a fill="navy" href="../reference/Instrumentation/ProcessInstrumentationFunction.html#dexpi-instrumentation-processinstrumentationfunction-processsignalgeneratingfunctions" target="_parent">ProcessSignalGeneratingFunctions</a></text>
<text text-anchor="start" x="212.807" y="-126.21" font-family="Arial" font-size="10.00" fill="black">*</text>
<text text-anchor="start" x="62.9164" y="-181.574" font-family="Arial" font-size="10.00" fill="black">0..1</text>
</g>
<!-- 25 -->
<g id="node10" class="node"><defs>
<linearGradient id="l_10" gradientUnits="userSpaceOnUse" x1="141" y1="-366.5" x2="141" y2="-402.5">
<stop offset="0" style="stop-color:#ffffbb;stop-opacity:1.;"/>
<stop offset="1" style="stop-color:#ffffee;stop-opacity:1.;"/>
</linearGradient>
</defs>
<polygon fill="url(#l_10)" stroke="black" points="215.5,-402.5 66.5,-402.5 66.5,-366.5 215.5,-366.5 215.5,-402.5"/>
<text text-anchor="start" x="77" y="-382.7" font-family="Arial" font-weight="bold" font-size="11.00" fill="black"><a fill="navy" href="../reference/Graphics/AttributeRepresentation.html" target="_parent">AttributeRepresentation</a></text>
</g>
<!-- 25&#45;&gt;7 -->
<g id="edge5" class="edge"><path fill="none" stroke="#000000" d="M154.882,-366.243C165.64,-352.871 180.699,-334.152 192.793,-319.119"/>
<polygon fill="#000000" stroke="#000000" points="199.16,-311.204 196.398,-321.816 196.026,-315.099 192.892,-318.995 192.892,-318.995 192.892,-318.995 196.026,-315.099 189.386,-316.175 199.16,-311.204 199.16,-311.204"/>
<text text-anchor="start" x="188.5" y="-331.5" font-family="Arial" font-size="10.00" fill="black"><a fill="navy" href="../reference/Graphics/AttributeRepresentation.html#dexpi-graphics-attributerepresentation-object" target="_parent">Object</a></text>
<text text-anchor="start" x="191.16" y="-314.204" font-family="Arial" font-size="10.00" fill="black"></text>
<text text-anchor="start" x="138.882" y="-356.243" font-family="Arial" font-size="10.00" fill="black">*</text>
</g>
<!-- 28 -->
<g id="node11" class="node"><defs>
<linearGradient id="l_11" gradientUnits="userSpaceOnUse" x1="302" y1="-366.5" x2="302" y2="-402.5">
<stop offset="0" style="stop-color:#ffffbb;stop-opacity:1.;"/>
<stop offset="1" style="stop-color:#ffffee;stop-opacity:1.;"/>
</linearGradient>
</defs>
<polygon fill="url(#l_11)" stroke="black" points="370.5,-402.5 233.5,-402.5 233.5,-366.5 370.5,-366.5 370.5,-402.5"/>
<text text-anchor="start" x="244" y="-382.7" font-family="Arial" font-weight="bold" font-size="11.00" fill="black"><a fill="navy" href="../reference/Graphics/RepresentationGroup.html" target="_parent">RepresentationGroup</a></text>
</g>
<!-- 28&#45;&gt;7 -->
<g id="edge6" class="edge"><path fill="none" stroke="#000000" d="M284.84,-366.243C271.419,-352.748 252.582,-333.805 237.564,-318.702"/>
<polygon fill="#000000" stroke="#000000" points="230.107,-311.204 240.35,-315.121 233.633,-314.749 237.159,-318.294 237.159,-318.294 237.159,-318.294 233.633,-314.749 233.968,-321.467 230.107,-311.204 230.107,-311.204"/>
<text text-anchor="start" x="263" y="-331.5" font-family="Arial" font-size="10.00" fill="black"><a fill="navy" href="../reference/Graphics/RepresentationGroup.html#dexpi-graphics-representationgroup-represents" target="_parent">Represents</a></text>
<text text-anchor="start" x="222.107" y="-314.204" font-family="Arial" font-size="10.00" fill="black"></text>
<text text-anchor="start" x="268.84" y="-356.243" font-family="Arial" font-size="10.00" fill="black">*</text>
</g>
<!-- 34 -->
<g id="node13" class="node"><defs>
<linearGradient id="l_12" gradientUnits="userSpaceOnUse" x1="545" y1="-366.5" x2="545" y2="-402.5">
<stop offset="0" style="stop-color:#ffffbb;stop-opacity:1.;"/>
<stop offset="1" style="stop-color:#ffffee;stop-opacity:1.;"/>
</linearGradient>
</defs>
<polygon fill="url(#l_12)" stroke="black" points="623.5,-402.5 466.5,-402.5 466.5,-366.5 623.5,-366.5 623.5,-402.5"/>
<text text-anchor="start" x="477" y="-382.7" font-family="Arial" font-weight="bold" font-size="11.00" fill="black"><a fill="navy" href="../reference/Instrumentation/SignalConveyingFunction.html" target="_parent">SignalConveyingFunction</a></text>
</g>
<!-- 34&#45;&gt;9 -->
<g id="edge8" class="edge"><path fill="none" stroke="#000000" d="M547.314,-366.243C549.024,-353.49 551.386,-335.874 553.349,-321.229"/>
<polygon fill="#000000" stroke="#000000" points="554.693,-311.204 557.824,-321.713 554.029,-316.159 553.364,-321.115 553.364,-321.115 553.364,-321.115 554.029,-316.159 548.904,-320.517 554.693,-311.204 554.693,-311.204"/>
<text text-anchor="start" x="555.5" y="-331.5" font-family="Arial" font-size="10.00" fill="black"><a fill="navy" href="../reference/Instrumentation/SignalConveyingFunction.html#dexpi-instrumentation-signalconveyingfunction-source" target="_parent">Source</a></text>
<text text-anchor="start" x="533.693" y="-314.204" font-family="Arial" font-size="10.00" fill="black">0..1</text>
<text text-anchor="start" x="531.314" y="-356.243" font-family="Arial" font-size="10.00" fill="black">*</text>
</g>
<!-- 10&#45;inner&#45;node&#45;&gt;0 -->
<g id="edge10" class="edge"><path fill="none" stroke="black" d="M213.032,-208.873C213.354,-207.621 216.114,-197.44 222,-192 235.157,-179.84 242.909,-183.879 259,-176 278.453,-166.475 299.369,-155.249 317.742,-145.042"/>
</g>
<!-- 11&#45;inner&#45;node&#45;&gt;0 -->
<g id="edge12" class="edge"><path fill="none" stroke="black" d="M370,-208.932C370,-207.181 370,-172.03 370,-145.239"/>
</g>
<!-- 12&#45;inner&#45;node&#45;&gt;0 -->
<g id="edge14" class="edge"><path fill="none" stroke="black" d="M556.864,-208.932C553.375,-207.178 483.231,-171.918 429.903,-145.112"/>
</g>
<!-- 13&#45;inner&#45;node&#45;&gt;0 -->
<g id="edge16" class="edge"><path fill="none" stroke="black" d="M722.936,-208.983C719.574,-208.088 585.082,-172.274 483.125,-145.124"/>
</g>
</g>
</svg>