<!DOCTYPE svg PUBLIC "-//W3C//DTD SVG 1.1//EN" "http://www.w3.org/Graphics/SVG/1.1/DTD/svg11.dtd">
<!-- Generated by graphviz version 2.38.0 (20140413.2041)
 --><!-- Title: G Pages: 1 --><svg xmlns="http://www.w3.org/2000/svg" xmlns:xlink="http://www.w3.org/1999/xlink" width="763pt" height="419pt" viewBox="0.00 0.00 762.50 419.00">
<g id="graph0" class="graph" transform="scale(1 1) rotate(0) translate(4 415)">
<!-- 0 -->
<g id="node1" class="node"><defs>
<linearGradient id="l_0" gradientUnits="userSpaceOnUse" x1="367.5" y1="-83" x2="367.5" y2="-145">
<stop offset="0" style="stop-color:#ffffbb;stop-opacity:1.;"/>
<stop offset="1" style="stop-color:#ffffee;stop-opacity:1.;"/>
</linearGradient>
</defs>
<polygon fill="url(#l_0)" stroke="black" points="514.5,-145 220.5,-145 220.5,-83 514.5,-83 514.5,-145"/>
<text text-anchor="start" x="280" y="-131.2" font-family="Arial" font-weight="bold" font-size="11.00" fill="black">ProcessSignalGeneratingSystem</text>
<text text-anchor="start" x="230.5" y="-107" font-family="Arial" font-size="10.00" fill="black"><a fill="navy" href="../reference/Instrumentation/ProcessSignalGeneratingSystem.html#dexpi-instrumentation-processsignalgeneratingsystem-processsignalgeneratingsystemnumber" target="_parent">ProcessSignalGeneratingSystemNumber</a>&#160;:</text>
<text text-anchor="start" x="418.5" y="-107" font-family="Arial" font-size="10.00" fill="black"><a fill="navy" href="../reference/DataTypes/NullableString.html" target="_parent">NullableString</a>&#160;[0..1]</text>
<text text-anchor="start" x="230.5" y="-92" font-family="Arial" font-size="10.00" fill="black"><a fill="navy" href="../reference/Instrumentation/ProcessSignalGeneratingSystem.html#dexpi-instrumentation-processsignalgeneratingsystem-typicalinformation" target="_parent">TypicalInformation</a>&#160;:</text>
<text text-anchor="start" x="418.5" y="-92" font-family="Arial" font-size="10.00" fill="black"><a fill="navy" href="../reference/DataTypes/NullableString.html" target="_parent">NullableString</a>&#160;[0..1]</text>
<polygon fill="black" stroke="black" points="514.5,-125.0 220.5,-125.0 220.5,-125.0 514.5,-125.0 514.5,-125.0"/>
</g>
<!-- 14 -->
<g id="node6" class="node"><defs>
<linearGradient id="l_1" gradientUnits="userSpaceOnUse" x1="148.5" y1="-1.77636e-014" x2="148.5" y2="-36">
<stop offset="0" style="stop-color:#ffffbb;stop-opacity:1.;"/>
<stop offset="1" style="stop-color:#ffffee;stop-opacity:1.;"/>
</linearGradient>
</defs>
<polygon fill="url(#l_1)" stroke="black" points="297,-36 0,-36 0,-0 297,-0 297,-36"/>
<text text-anchor="start" x="10.5" y="-16.2" font-family="Arial" font-weight="bold" font-size="11.00" fill="black"><a fill="navy" href="../reference/Instrumentation/CustomProcessSignalGeneratingSystemComponent.html" target="_parent">CustomProcessSignalGeneratingSystemComponent</a></text>
</g>
<!-- 0&#45;&gt;14 -->
<g id="edge2" class="edge"><path fill="none" stroke="#000000" d="M286.396,-78.1882C256.522,-65.3657 223.619,-51.243 197.448,-40.0096"/>
<polygon fill="#000000" stroke="#000000" points="286.578,-78.2662 293.669,-76.9571 297.605,-82.9994 290.514,-84.3085 286.578,-78.2662"/>
<polygon fill="#000000" stroke="#000000" points="188.129,-36.0095 199.093,-35.8186 192.723,-37.9817 197.318,-39.9538 197.318,-39.9538 197.318,-39.9538 192.723,-37.9817 195.543,-44.089 188.129,-36.0095 188.129,-36.0095"/>
<text text-anchor="start" x="261" y="-56.5" font-family="Arial" font-size="10.00" fill="black"><a fill="navy" href="../reference/Instrumentation/ProcessSignalGeneratingSystem.html#dexpi-instrumentation-processsignalgeneratingsystem-customcomponents" target="_parent">CustomComponents</a></text>
<text text-anchor="start" x="180.129" y="-39.0095" font-family="Arial" font-size="10.00" fill="black">*</text>
<text text-anchor="start" x="268.605" y="-72.9994" font-family="Arial" font-size="10.00" fill="black">0..1</text>
</g>
<!-- 17 -->
<g id="node7" class="node"><defs>
<linearGradient id="l_2" gradientUnits="userSpaceOnUse" x1="367.5" y1="-1.77636e-014" x2="367.5" y2="-36">
<stop offset="0" style="stop-color:#ffffbb;stop-opacity:1.;"/>
<stop offset="1" style="stop-color:#ffffee;stop-opacity:1.;"/>
</linearGradient>
</defs>
<polygon fill="url(#l_2)" stroke="black" points="419.5,-36 315.5,-36 315.5,-0 419.5,-0 419.5,-36"/>
<text text-anchor="start" x="325.5" y="-16.2" font-family="Arial" font-weight="bold" font-size="11.00" fill="black"><a fill="navy" href="../reference/Instrumentation/PrimaryElement.html" target="_parent">PrimaryElement</a></text>
</g>
<!-- 0&#45;&gt;17 -->
<g id="edge3" class="edge"><path fill="none" stroke="#000000" d="M367.5,-70.9874C367.5,-62.6328 367.5,-54.0656 367.5,-46.3578"/>
<polygon fill="#000000" stroke="#000000" points="367.5,-70.9994 371.5,-76.9994 367.5,-82.9994 363.5,-76.9993 367.5,-70.9994"/>
<polygon fill="#000000" stroke="#000000" points="367.5,-36.1454 372,-46.1454 367.5,-41.1454 367.5,-46.1454 367.5,-46.1454 367.5,-46.1454 367.5,-41.1454 363,-46.1454 367.5,-36.1454 367.5,-36.1454"/>
<text text-anchor="start" x="369.5" y="-56.5" font-family="Arial" font-size="10.00" fill="black"><a fill="navy" href="../reference/Instrumentation/ProcessSignalGeneratingSystem.html#dexpi-instrumentation-processsignalgeneratingsystem-primaryelement" target="_parent">PrimaryElement</a></text>
<text text-anchor="start" x="346.5" y="-39.1454" font-family="Arial" font-size="10.00" fill="black">0..1</text>
<text text-anchor="start" x="338.5" y="-72.9994" font-family="Arial" font-size="10.00" fill="black">0..1</text>
</g>
<!-- 20 -->
<g id="node8" class="node"><defs>
<linearGradient id="l_3" gradientUnits="userSpaceOnUse" x1="478.5" y1="-1.77636e-014" x2="478.5" y2="-36">
<stop offset="0" style="stop-color:#ffffbb;stop-opacity:1.;"/>
<stop offset="1" style="stop-color:#ffffee;stop-opacity:1.;"/>
</linearGradient>
</defs>
<polygon fill="url(#l_3)" stroke="black" points="519.5,-36 437.5,-36 437.5,-0 519.5,-0 519.5,-36"/>
<text text-anchor="start" x="447.5" y="-16.2" font-family="Arial" font-weight="bold" font-size="11.00" fill="black"><a fill="navy" href="../reference/Instrumentation/Transmitter.html" target="_parent">Transmitter</a></text>
</g>
<!-- 0&#45;&gt;20 -->
<g id="edge4" class="edge"><path fill="none" stroke="#000000" d="M435.185,-75.7223C438.795,-72.9312 442.263,-70.0195 445.5,-67 452.303,-60.6536 458.478,-52.6695 463.599,-45.0444"/>
<polygon fill="#000000" stroke="#000000" points="435.088,-75.7924 432.567,-82.5486 425.361,-82.8202 427.882,-76.0641 435.088,-75.7924"/>
<polygon fill="#000000" stroke="#000000" points="469.099,-36.3777 467.54,-47.2322 466.42,-40.5993 463.74,-44.8209 463.74,-44.8209 463.74,-44.8209 466.42,-40.5993 459.941,-42.4095 469.099,-36.3777 469.099,-36.3777"/>
<text text-anchor="start" x="461" y="-56.5" font-family="Arial" font-size="10.00" fill="black"><a fill="navy" href="../reference/Instrumentation/ProcessSignalGeneratingSystem.html#dexpi-instrumentation-processsignalgeneratingsystem-transmitter" target="_parent">Transmitter</a></text>
<text text-anchor="start" x="448.099" y="-39.3777" font-family="Arial" font-size="10.00" fill="black">0..1</text>
<text text-anchor="start" x="396.361" y="-72.8202" font-family="Arial" font-size="10.00" fill="black">0..1</text>
</g>
<!-- 5 -->
<g id="node2" class="node"><defs>
<linearGradient id="l_4" gradientUnits="userSpaceOnUse" x1="662.5" y1="-358" x2="662.5" y2="-411">
<stop offset="0" style="stop-color:#fbfbfb;stop-opacity:1.;"/>
<stop offset="1" style="stop-color:#fefefe;stop-opacity:1.;"/>
</linearGradient>
</defs>
<polygon fill="url(#l_4)" stroke="black" points="754.5,-400.0 743.5,-411.0 570.5,-411.0 570.5,-358.0 754.5,-358.0"/><path d="M754.5,-400.0L743.5,-400.0 743.5,-411.0" fill="none" stroke="black"/>
<text text-anchor="start" x="580.5" y="-396.5" font-family="Arial" font-size="10.00" fill="black">For&#160;the&#160;sake&#160;of&#160;clarity,&#160;superclasses&#160;</text>
<text text-anchor="start" x="580.5" y="-381.5" font-family="Arial" font-size="10.00" fill="black">and&#160;associations&#160;of&#160;<a fill="navy" href="../reference/PlantStructure/TechnicalItem.html" target="_parent">TechnicalItem</a>&#160;are</text>
<text text-anchor="start" x="580.5" y="-366.5" font-family="Arial" font-size="10.00" fill="black">not&#160;shown&#160;in&#160;this&#160;diagram.</text>
</g>
<!-- 4 -->
<g id="node3" class="node"><defs>
<linearGradient id="l_5" gradientUnits="userSpaceOnUse" x1="662.5" y1="-275" x2="662.5" y2="-311">
<stop offset="0" style="stop-color:#ffffbb;stop-opacity:1.;"/>
<stop offset="1" style="stop-color:#ffffee;stop-opacity:1.;"/>
</linearGradient>
</defs>
<polygon fill="url(#l_5)" stroke="black" points="709,-311 616,-311 616,-275 709,-275 709,-311"/>
<text text-anchor="start" x="626.5" y="-291.2" font-family="Arial" font-weight="bold" font-style="italic" font-size="11.00" fill="black"><a fill="navy" href="../reference/PlantStructure/TechnicalItem.html" target="_parent">TechnicalItem</a></text>
</g>
<!-- 5&#45;&gt;4 -->
<g id="edge1" class="edge"><path fill="none" stroke="#000000" stroke-dasharray="5,2" d="M662.5,-357.613C662.5,-342.641 662.5,-324.222 662.5,-311.063"/>
</g>
<!-- 11&#45;inner&#45;node -->
<!-- 4&#45;&gt;11&#45;inner&#45;node -->
<g id="edge14" class="edge"><path fill="none" stroke="black" d="M662.5,-264.649C662.5,-241.987 662.5,-213.163 662.5,-211.116L662.446,-208.983"/>
<polygon fill="none" stroke="black" points="659,-264.822 662.5,-274.822 666,-264.822 659,-264.822"/>
</g>
<!-- 7 -->
<g id="node4" class="node"><defs>
<linearGradient id="l_6" gradientUnits="userSpaceOnUse" x1="367.5" y1="-275" x2="367.5" y2="-311">
<stop offset="0" style="stop-color:#ffffbb;stop-opacity:1.;"/>
<stop offset="1" style="stop-color:#ffffee;stop-opacity:1.;"/>
</linearGradient>
</defs>
<polygon fill="url(#l_6)" stroke="black" points="425,-311 310,-311 310,-275 425,-275 425,-311"/>
<text text-anchor="start" x="320.5" y="-291.2" font-family="Arial" font-weight="bold" font-style="italic" font-size="11.00" fill="black"><a fill="navy" href="../reference/DexpiModel/ConceptualObject.html" target="_parent">ConceptualObject</a></text>
</g>
<!-- 9&#45;inner&#45;node -->
<!-- 7&#45;&gt;9&#45;inner&#45;node -->
<g id="edge10" class="edge"><path fill="none" stroke="black" d="M367.5,-264.649C367.5,-241.987 367.5,-213.163 367.5,-211.116L367.5,-208.932"/>
<polygon fill="none" stroke="black" points="364,-264.822 367.5,-274.822 371,-264.822 364,-264.822"/>
</g>
<!-- 8 -->
<g id="node5" class="node"><defs>
<linearGradient id="l_7" gradientUnits="userSpaceOnUse" x1="525.5" y1="-275" x2="525.5" y2="-311">
<stop offset="0" style="stop-color:#ffffbb;stop-opacity:1.;"/>
<stop offset="1" style="stop-color:#ffffee;stop-opacity:1.;"/>
</linearGradient>
</defs>
<polygon fill="url(#l_7)" stroke="black" points="597.5,-311 453.5,-311 453.5,-275 597.5,-275 597.5,-311"/>
<text text-anchor="start" x="463.5" y="-291.2" font-family="Arial" font-weight="bold" font-style="italic" font-size="11.00" fill="black"><a fill="navy" href="../reference/Customization/CustomAttributeOwner.html" target="_parent">CustomAttributeOwner</a></text>
</g>
<!-- 35 -->
<g id="node13" class="node"><defs>
<linearGradient id="l_8" gradientUnits="userSpaceOnUse" x1="440.5" y1="-192" x2="440.5" y2="-228">
<stop offset="0" style="stop-color:#ffffbb;stop-opacity:1.;"/>
<stop offset="1" style="stop-color:#ffffee;stop-opacity:1.;"/>
</linearGradient>
</defs>
<polygon fill="url(#l_8)" stroke="black" points="495,-228 386,-228 386,-192 495,-192 495,-228"/>
<text text-anchor="start" x="396.5" y="-208.2" font-family="Arial" font-weight="bold" font-style="italic" font-size="11.00" fill="black"><a fill="navy" href="../reference/Customization/CustomAttribute.html" target="_parent">CustomAttribute</a></text>
</g>
<!-- 8&#45;&gt;35 -->
<g id="edge9" class="edge"><path fill="none" stroke="#000000" d="M448.949,-267.486C446.181,-264.933 443.67,-262.113 441.5,-259 437.402,-253.119 435.944,-245.772 435.815,-238.608"/>
<polygon fill="#000000" stroke="#000000" points="448.998,-267.523 456.196,-267.959 458.563,-274.77 451.365,-274.335 448.998,-267.523"/>
<polygon fill="#000000" stroke="#000000" points="436.425,-228.435 440.319,-238.687 436.126,-233.426 435.827,-238.417 435.827,-238.417 435.827,-238.417 436.126,-233.426 431.335,-238.148 436.425,-228.435 436.425,-228.435"/>
<text text-anchor="start" x="443.5" y="-248.5" font-family="Arial" font-size="10.00" fill="black"><a fill="navy" href="../reference/Customization/CustomAttributeOwner.html#dexpi-customization-customattributeowner-customattributes" target="_parent">CustomAttributes</a></text>
<text text-anchor="start" x="428.425" y="-231.435" font-family="Arial" font-size="10.00" fill="black">*</text>
<text text-anchor="start" x="429.563" y="-264.77" font-family="Arial" font-size="10.00" fill="black">0..1</text>
</g>
<!-- 10&#45;inner&#45;node -->
<!-- 8&#45;&gt;10&#45;inner&#45;node -->
<g id="edge12" class="edge"><path fill="none" stroke="black" d="M525.5,-264.649C525.5,-241.987 525.5,-213.163 525.5,-211.116L525.366,-208.884"/>
<polygon fill="none" stroke="black" points="522,-264.822 525.5,-274.822 529,-264.822 522,-264.822"/>
</g>
<!-- 23 -->
<g id="node9" class="node"><defs>
<linearGradient id="l_9" gradientUnits="userSpaceOnUse" x1="69.5" y1="-192" x2="69.5" y2="-228">
<stop offset="0" style="stop-color:#ffffbb;stop-opacity:1.;"/>
<stop offset="1" style="stop-color:#ffffee;stop-opacity:1.;"/>
</linearGradient>
</defs>
<polygon fill="url(#l_9)" stroke="black" points="126.5,-228 12.5,-228 12.5,-192 126.5,-192 126.5,-228"/>
<text text-anchor="start" x="22.5" y="-208.2" font-family="Arial" font-weight="bold" font-size="11.00" fill="black"><a fill="navy" href="../reference/DexpiModel/ConceptualModel.html" target="_parent">ConceptualModel</a></text>
</g>
<!-- 23&#45;&gt;0 -->
<g id="edge5" class="edge"><path fill="none" stroke="#000000" d="M96.2247,-183.899C106.553,-175.44 118.91,-166.708 131.5,-161 156.133,-149.832 183.415,-141.37 210.427,-134.961"/>
<polygon fill="#000000" stroke="#000000" points="96.1067,-184 94.1606,-190.944 87.0026,-191.818 88.9488,-184.875 96.1067,-184"/>
<polygon fill="#000000" stroke="#000000" points="220.361,-132.691 211.615,-139.306 215.486,-133.805 210.612,-134.919 210.612,-134.919 210.612,-134.919 215.486,-133.805 209.61,-130.532 220.361,-132.691 220.361,-132.691"/>
<text text-anchor="start" x="133.5" y="-165.5" font-family="Arial" font-size="10.00" fill="black"><a fill="navy" href="../reference/DexpiModel/ConceptualModel.html#dexpi-dexpimodel-conceptualmodel-processsignalgeneratingsystems" target="_parent">ProcessSignalGeneratingSystems</a></text>
<text text-anchor="start" x="212.361" y="-135.691" font-family="Arial" font-size="10.00" fill="black">*</text>
<text text-anchor="start" x="58.0026" y="-181.818" font-family="Arial" font-size="10.00" fill="black">0..1</text>
</g>
<!-- 26 -->
<g id="node10" class="node"><defs>
<linearGradient id="l_10" gradientUnits="userSpaceOnUse" x1="246.5" y1="-192" x2="246.5" y2="-228">
<stop offset="0" style="stop-color:#ffffbb;stop-opacity:1.;"/>
<stop offset="1" style="stop-color:#ffffee;stop-opacity:1.;"/>
</linearGradient>
</defs>
<polygon fill="url(#l_10)" stroke="black" points="348.5,-228 144.5,-228 144.5,-192 348.5,-192 348.5,-228"/>
<text text-anchor="start" x="154.5" y="-208.2" font-family="Arial" font-weight="bold" font-size="11.00" fill="black"><a fill="navy" href="../reference/Instrumentation/ProcessSignalGeneratingFunction.html" target="_parent">ProcessSignalGeneratingFunction</a></text>
</g>
<!-- 26&#45;&gt;0 -->
<g id="edge6" class="edge"><path fill="none" stroke="#000000" d="M268.412,-191.977C282.941,-180.691 302.564,-165.446 320.515,-151.501"/>
<polygon fill="#000000" stroke="#000000" points="328.62,-145.204 323.484,-154.893 324.672,-148.271 320.723,-151.339 320.723,-151.339 320.723,-151.339 324.672,-148.271 317.963,-147.785 328.62,-145.204 328.62,-145.204"/>
<text text-anchor="start" x="309.5" y="-165.5" font-family="Arial" font-size="10.00" fill="black"><a fill="navy" href="../reference/Instrumentation/ProcessSignalGeneratingFunction.html#dexpi-instrumentation-processsignalgeneratingfunction-systems" target="_parent">Systems</a></text>
<text text-anchor="start" x="307.62" y="-148.204" font-family="Arial" font-size="10.00" fill="black">0..1</text>
<text text-anchor="start" x="252.412" y="-181.977" font-family="Arial" font-size="10.00" fill="black">*</text>
</g>
<!-- 29 -->
<g id="node11" class="node"><defs>
<linearGradient id="l_11" gradientUnits="userSpaceOnUse" x1="264.5" y1="-366.5" x2="264.5" y2="-402.5">
<stop offset="0" style="stop-color:#ffffbb;stop-opacity:1.;"/>
<stop offset="1" style="stop-color:#ffffee;stop-opacity:1.;"/>
</linearGradient>
</defs>
<polygon fill="url(#l_11)" stroke="black" points="339,-402.5 190,-402.5 190,-366.5 339,-366.5 339,-402.5"/>
<text text-anchor="start" x="200.5" y="-382.7" font-family="Arial" font-weight="bold" font-size="11.00" fill="black"><a fill="navy" href="../reference/Graphics/AttributeRepresentation.html" target="_parent">AttributeRepresentation</a></text>
</g>
<!-- 29&#45;&gt;7 -->
<g id="edge7" class="edge"><path fill="none" stroke="#000000" d="M284.359,-366.243C300.176,-352.5 322.493,-333.108 340.024,-317.875"/>
<polygon fill="#000000" stroke="#000000" points="347.702,-311.204 343.105,-321.159 343.927,-314.483 340.153,-317.763 340.153,-317.763 340.153,-317.763 343.927,-314.483 337.201,-314.366 347.702,-311.204 347.702,-311.204"/>
<text text-anchor="start" x="331" y="-331.5" font-family="Arial" font-size="10.00" fill="black"><a fill="navy" href="../reference/Graphics/AttributeRepresentation.html#dexpi-graphics-attributerepresentation-object" target="_parent">Object</a></text>
<text text-anchor="start" x="339.702" y="-314.204" font-family="Arial" font-size="10.00" fill="black"></text>
<text text-anchor="start" x="268.359" y="-356.243" font-family="Arial" font-size="10.00" fill="black">*</text>
</g>
<!-- 32 -->
<g id="node12" class="node"><defs>
<linearGradient id="l_12" gradientUnits="userSpaceOnUse" x1="425.5" y1="-366.5" x2="425.5" y2="-402.5">
<stop offset="0" style="stop-color:#ffffbb;stop-opacity:1.;"/>
<stop offset="1" style="stop-color:#ffffee;stop-opacity:1.;"/>
</linearGradient>
</defs>
<polygon fill="url(#l_12)" stroke="black" points="494,-402.5 357,-402.5 357,-366.5 494,-366.5 494,-402.5"/>
<text text-anchor="start" x="367.5" y="-382.7" font-family="Arial" font-weight="bold" font-size="11.00" fill="black"><a fill="navy" href="../reference/Graphics/RepresentationGroup.html" target="_parent">RepresentationGroup</a></text>
</g>
<!-- 32&#45;&gt;7 -->
<g id="edge8" class="edge"><path fill="none" stroke="#000000" d="M414.317,-366.243C405.812,-353.119 393.968,-334.843 384.322,-319.958"/>
<polygon fill="#000000" stroke="#000000" points="378.649,-311.204 387.863,-317.148 381.368,-315.399 384.087,-319.595 384.087,-319.595 384.087,-319.595 381.368,-315.399 380.311,-322.043 378.649,-311.204 378.649,-311.204"/>
<text text-anchor="start" x="400.5" y="-331.5" font-family="Arial" font-size="10.00" fill="black"><a fill="navy" href="../reference/Graphics/RepresentationGroup.html#dexpi-graphics-representationgroup-represents" target="_parent">Represents</a></text>
<text text-anchor="start" x="370.649" y="-314.204" font-family="Arial" font-size="10.00" fill="black"></text>
<text text-anchor="start" x="398.317" y="-356.243" font-family="Arial" font-size="10.00" fill="black">*</text>
</g>
<!-- 9&#45;inner&#45;node&#45;&gt;0 -->
<g id="edge11" class="edge"><path fill="none" stroke="black" d="M367.5,-208.932C367.5,-207.181 367.5,-172.03 367.5,-145.239"/>
</g>
<!-- 10&#45;inner&#45;node&#45;&gt;0 -->
<g id="edge13" class="edge"><path fill="none" stroke="black" d="M525.366,-208.884C524.042,-207.743 513.148,-198.412 503.5,-192 478.416,-175.331 449.516,-158.641 424.825,-145.081"/>
</g>
<!-- 11&#45;inner&#45;node&#45;&gt;0 -->
<g id="edge15" class="edge"><path fill="none" stroke="black" d="M662.446,-208.983C659.637,-208.088 547.243,-172.274 462.038,-145.124"/>
</g>
</g>
</svg>