<!DOCTYPE svg PUBLIC "-//W3C//DTD SVG 1.1//EN" "http://www.w3.org/Graphics/SVG/1.1/DTD/svg11.dtd">
<!-- Generated by graphviz version 2.38.0 (20140413.2041)
 --><!-- Title: G Pages: 1 --><svg xmlns="http://www.w3.org/2000/svg" xmlns:xlink="http://www.w3.org/1999/xlink" width="1332pt" height="510pt" viewBox="0.00 0.00 1332.49 510.00">
<g id="graph0" class="graph" transform="scale(1 1) rotate(0) translate(4 506)">
<!-- 0 -->
<g id="node1" class="node"><defs>
<linearGradient id="l_0" gradientUnits="userSpaceOnUse" x1="1233" y1="-34" x2="1233" y2="-70">
<stop offset="0" style="stop-color:#ffffbb;stop-opacity:1.;"/>
<stop offset="1" style="stop-color:#ffffee;stop-opacity:1.;"/>
</linearGradient>
</defs>
<polygon fill="url(#l_0)" stroke="black" points="1308,-70 1158,-70 1158,-34 1308,-34 1308,-70"/>
<text text-anchor="start" x="1168" y="-50.2" font-family="Arial" font-weight="bold" font-size="11.00" fill="black">ProcessControlFunction</text>
</g>
<!-- 2 -->
<g id="node2" class="node"><defs>
<linearGradient id="l_1" gradientUnits="userSpaceOnUse" x1="1163" y1="-449" x2="1163" y2="-502">
<stop offset="0" style="stop-color:#fbfbfb;stop-opacity:1.;"/>
<stop offset="1" style="stop-color:#fefefe;stop-opacity:1.;"/>
</linearGradient>
</defs>
<polygon fill="url(#l_1)" stroke="black" points="1255.0,-491.0 1244.0,-502.0 1071.0,-502.0 1071.0,-449.0 1255.0,-449.0"/><path d="M1255.0,-491.0L1244.0,-491.0 1244.0,-502.0" fill="none" stroke="black"/>
<text text-anchor="start" x="1081" y="-487.5" font-family="Arial" font-size="10.00" fill="black">For&#160;the&#160;sake&#160;of&#160;clarity,&#160;superclasses&#160;</text>
<text text-anchor="start" x="1081" y="-472.5" font-family="Arial" font-size="10.00" fill="black">and&#160;associations&#160;of&#160;<a fill="navy" href="../reference/PlantStructure/TechnicalItem.html" target="_parent">TechnicalItem</a>&#160;are</text>
<text text-anchor="start" x="1081" y="-457.5" font-family="Arial" font-size="10.00" fill="black">not&#160;shown&#160;in&#160;this&#160;diagram.</text>
</g>
<!-- 1 -->
<g id="node3" class="node"><defs>
<linearGradient id="l_2" gradientUnits="userSpaceOnUse" x1="1163" y1="-366" x2="1163" y2="-402">
<stop offset="0" style="stop-color:#ffffbb;stop-opacity:1.;"/>
<stop offset="1" style="stop-color:#ffffee;stop-opacity:1.;"/>
</linearGradient>
</defs>
<polygon fill="url(#l_2)" stroke="black" points="1209.5,-402 1116.5,-402 1116.5,-366 1209.5,-366 1209.5,-402"/>
<text text-anchor="start" x="1127" y="-382.2" font-family="Arial" font-weight="bold" font-style="italic" font-size="11.00" fill="black"><a fill="navy" href="../reference/PlantStructure/TechnicalItem.html" target="_parent">TechnicalItem</a></text>
</g>
<!-- 2&#45;&gt;1 -->
<g id="edge1" class="edge"><path fill="none" stroke="#000000" stroke-dasharray="5,2" d="M1163,-448.613C1163,-433.641 1163,-415.222 1163,-402.063"/>
</g>
<!-- 14&#45;inner&#45;node -->
<!-- 1&#45;&gt;14&#45;inner&#45;node -->
<g id="edge24" class="edge"><path fill="none" stroke="black" d="M1163,-355.649C1163,-332.987 1163,-304.163 1163,-302.116L1162.96,-299.985"/>
<polygon fill="none" stroke="black" points="1159.5,-355.822 1163,-365.822 1166.5,-355.822 1159.5,-355.822"/>
</g>
<!-- 4 -->
<g id="node4" class="node"><defs>
<linearGradient id="l_3" gradientUnits="userSpaceOnUse" x1="926" y1="-200" x2="926" y2="-236">
<stop offset="0" style="stop-color:#ffffbb;stop-opacity:1.;"/>
<stop offset="1" style="stop-color:#ffffee;stop-opacity:1.;"/>
</linearGradient>
</defs>
<polygon fill="url(#l_3)" stroke="black" points="1023,-236 829,-236 829,-200 1023,-200 1023,-236"/>
<text text-anchor="start" x="839" y="-216.2" font-family="Arial" font-weight="bold" font-size="11.00" fill="black"><a fill="navy" href="../reference/Instrumentation/ProcessInstrumentationFunction.html" target="_parent">ProcessInstrumentationFunction</a></text>
</g>
<!-- 17 -->
<g id="node9" class="node"><defs>
<linearGradient id="l_4" gradientUnits="userSpaceOnUse" x1="83" y1="-117" x2="83" y2="-153">
<stop offset="0" style="stop-color:#ffffbb;stop-opacity:1.;"/>
<stop offset="1" style="stop-color:#ffffee;stop-opacity:1.;"/>
</linearGradient>
</defs>
<polygon fill="url(#l_4)" stroke="black" points="166,-153 0,-153 0,-117 166,-117 166,-153"/>
<text text-anchor="start" x="10" y="-133.2" font-family="Arial" font-weight="bold" font-size="11.00" fill="black"><a fill="navy" href="../reference/Instrumentation/ActuatingElectricalFunction.html" target="_parent">ActuatingElectricalFunction</a></text>
</g>
<!-- 4&#45;&gt;17 -->
<g id="edge2" class="edge"><path fill="none" stroke="#000000" d="M816.54,-214.848C622.806,-210.647 234.199,-200.312 174,-184 153.926,-178.561 133.287,-168.139 116.75,-158.393"/>
<polygon fill="#000000" stroke="#000000" points="816.733,-214.852 822.818,-210.982 828.73,-215.11 822.646,-218.98 816.733,-214.852"/>
<polygon fill="#000000" stroke="#000000" points="108.015,-153.084 118.897,-154.432 112.287,-155.681 116.56,-158.278 116.56,-158.278 116.56,-158.278 112.287,-155.681 114.223,-162.123 108.015,-153.084 108.015,-153.084"/>
<text text-anchor="start" x="176.5" y="-173.5" font-family="Arial" font-size="10.00" fill="black"><a fill="navy" href="../reference/Instrumentation/ProcessInstrumentationFunction.html#dexpi-instrumentation-processinstrumentationfunction-actuatingelectricalfunctions" target="_parent">ActuatingElectricalFunctions</a></text>
<text text-anchor="start" x="100.015" y="-156.084" font-family="Arial" font-size="10.00" fill="black">*</text>
<text text-anchor="start" x="799.73" y="-216.11" font-family="Arial" font-size="10.00" fill="black">0..1</text>
</g>
<!-- 20 -->
<g id="node10" class="node"><defs>
<linearGradient id="l_5" gradientUnits="userSpaceOnUse" x1="243" y1="-117" x2="243" y2="-153">
<stop offset="0" style="stop-color:#ffffbb;stop-opacity:1.;"/>
<stop offset="1" style="stop-color:#ffffee;stop-opacity:1.;"/>
</linearGradient>
</defs>
<polygon fill="url(#l_5)" stroke="black" points="301.5,-153 184.5,-153 184.5,-117 301.5,-117 301.5,-153"/>
<text text-anchor="start" x="195" y="-133.2" font-family="Arial" font-weight="bold" font-size="11.00" fill="black"><a fill="navy" href="../reference/Instrumentation/ActuatingFunction.html" target="_parent">ActuatingFunction</a></text>
</g>
<!-- 4&#45;&gt;20 -->
<g id="edge3" class="edge"><path fill="none" stroke="#000000" d="M816.789,-215.573C674.508,-212.883 433.791,-205.259 348,-184 325.095,-178.324 301.049,-167.716 281.757,-157.914"/>
<polygon fill="#000000" stroke="#000000" points="816.974,-215.576 823.047,-211.687 828.972,-215.796 822.9,-219.685 816.974,-215.576"/>
<polygon fill="#000000" stroke="#000000" points="272.694,-153.191 283.642,-153.822 277.128,-155.502 281.562,-157.812 281.562,-157.812 281.562,-157.812 277.128,-155.502 279.483,-161.803 272.694,-153.191 272.694,-153.191"/>
<text text-anchor="start" x="350.5" y="-173.5" font-family="Arial" font-size="10.00" fill="black"><a fill="navy" href="../reference/Instrumentation/ProcessInstrumentationFunction.html#dexpi-instrumentation-processinstrumentationfunction-actuatingfunctions" target="_parent">ActuatingFunctions</a></text>
<text text-anchor="start" x="264.694" y="-156.191" font-family="Arial" font-size="10.00" fill="black">*</text>
<text text-anchor="start" x="799.972" y="-205.796" font-family="Arial" font-size="10.00" fill="black">0..1</text>
</g>
<!-- 23 -->
<g id="node11" class="node"><defs>
<linearGradient id="l_6" gradientUnits="userSpaceOnUse" x1="422" y1="-117" x2="422" y2="-153">
<stop offset="0" style="stop-color:#ffffbb;stop-opacity:1.;"/>
<stop offset="1" style="stop-color:#ffffee;stop-opacity:1.;"/>
</linearGradient>
</defs>
<polygon fill="url(#l_6)" stroke="black" points="524,-153 320,-153 320,-117 524,-117 524,-153"/>
<text text-anchor="start" x="330" y="-133.2" font-family="Arial" font-weight="bold" font-size="11.00" fill="black"><a fill="navy" href="../reference/Instrumentation/ProcessSignalGeneratingFunction.html" target="_parent">ProcessSignalGeneratingFunction</a></text>
</g>
<!-- 4&#45;&gt;23 -->
<g id="edge4" class="edge"><path fill="none" stroke="#000000" d="M816.648,-214.133C687.908,-210.007 487.636,-200.956 457,-184 447.892,-178.959 440.525,-170.431 434.942,-161.949"/>
<polygon fill="#000000" stroke="#000000" points="816.882,-214.14 823.004,-210.331 828.876,-214.517 822.753,-218.327 816.882,-214.14"/>
<polygon fill="#000000" stroke="#000000" points="429.772,-153.276 438.758,-159.561 432.332,-157.571 434.892,-161.865 434.892,-161.865 434.892,-161.865 432.332,-157.571 431.027,-164.17 429.772,-153.276 429.772,-153.276"/>
<text text-anchor="start" x="459" y="-173.5" font-family="Arial" font-size="10.00" fill="black"><a fill="navy" href="../reference/Instrumentation/ProcessInstrumentationFunction.html#dexpi-instrumentation-processinstrumentationfunction-processsignalgeneratingfunctions" target="_parent">ProcessSignalGeneratingFunctions</a></text>
<text text-anchor="start" x="421.772" y="-156.276" font-family="Arial" font-size="10.00" fill="black">*</text>
<text text-anchor="start" x="799.876" y="-204.517" font-family="Arial" font-size="10.00" fill="black">0..1</text>
</g>
<!-- 26 -->
<g id="node12" class="node"><defs>
<linearGradient id="l_7" gradientUnits="userSpaceOnUse" x1="618" y1="-117" x2="618" y2="-153">
<stop offset="0" style="stop-color:#ffffbb;stop-opacity:1.;"/>
<stop offset="1" style="stop-color:#ffffee;stop-opacity:1.;"/>
</linearGradient>
</defs>
<polygon fill="url(#l_7)" stroke="black" points="694,-153 542,-153 542,-117 694,-117 694,-153"/>
<text text-anchor="start" x="552" y="-133.2" font-family="Arial" font-weight="bold" font-style="italic" font-size="11.00" fill="black"><a fill="navy" href="../reference/Instrumentation/SignalOffPageConnector.html" target="_parent">SignalOffPageConnector</a></text>
</g>
<!-- 4&#45;&gt;26 -->
<g id="edge5" class="edge"><path fill="none" stroke="#000000" d="M816.739,-211.214C737.203,-205.96 641.046,-197.025 627,-184 621.207,-178.629 618.439,-170.809 617.261,-163.035"/>
<polygon fill="#000000" stroke="#000000" points="816.868,-211.222 823.112,-207.617 828.843,-211.994 822.598,-215.6 816.868,-211.222"/>
<polygon fill="#000000" stroke="#000000" points="616.508,-153.05 621.748,-162.683 616.884,-158.036 617.26,-163.022 617.26,-163.022 617.26,-163.022 616.884,-158.036 612.773,-163.361 616.508,-153.05 616.508,-153.05"/>
<text text-anchor="start" x="629.5" y="-173.5" font-family="Arial" font-size="10.00" fill="black"><a fill="navy" href="../reference/Instrumentation/ProcessInstrumentationFunction.html#dexpi-instrumentation-processinstrumentationfunction-signalconnectors" target="_parent">SignalConnectors</a></text>
<text text-anchor="start" x="608.508" y="-156.05" font-family="Arial" font-size="10.00" fill="black">*</text>
<text text-anchor="start" x="816.843" y="-212.994" font-family="Arial" font-size="10.00" fill="black">0..1</text>
</g>
<!-- 29 -->
<g id="node13" class="node"><defs>
<linearGradient id="l_8" gradientUnits="userSpaceOnUse" x1="829" y1="-117" x2="829" y2="-153">
<stop offset="0" style="stop-color:#ffffbb;stop-opacity:1.;"/>
<stop offset="1" style="stop-color:#ffffee;stop-opacity:1.;"/>
</linearGradient>
</defs>
<polygon fill="url(#l_8)" stroke="black" points="907.5,-153 750.5,-153 750.5,-117 907.5,-117 907.5,-153"/>
<text text-anchor="start" x="761" y="-133.2" font-family="Arial" font-weight="bold" font-size="11.00" fill="black"><a fill="navy" href="../reference/Instrumentation/SignalConveyingFunction.html" target="_parent">SignalConveyingFunction</a></text>
</g>
<!-- 4&#45;&gt;29 -->
<g id="edge6" class="edge"><path fill="none" stroke="#000000" d="M822.027,-195.904C813.235,-192.392 806.396,-188.427 803,-184 797.776,-177.19 799.502,-169.191 803.914,-161.697"/>
<polygon fill="#000000" stroke="#000000" points="822.294,-195.997 829.279,-194.205 833.62,-199.964 826.635,-201.756 822.294,-195.997"/>
<polygon fill="#000000" stroke="#000000" points="810.073,-153.232 807.828,-163.966 807.131,-157.276 804.189,-161.319 804.189,-161.319 804.189,-161.319 807.131,-157.276 800.551,-158.671 810.073,-153.232 810.073,-153.232"/>
<text text-anchor="start" x="805.5" y="-173.5" font-family="Arial" font-size="10.00" fill="black"><a fill="navy" href="../reference/Instrumentation/ProcessInstrumentationFunction.html#dexpi-instrumentation-processinstrumentationfunction-signalconveyingfunctions" target="_parent">SignalConveyingFunctions</a></text>
<text text-anchor="start" x="802.073" y="-156.232" font-family="Arial" font-size="10.00" fill="black">*</text>
<text text-anchor="start" x="804.62" y="-189.964" font-family="Arial" font-size="10.00" fill="black">0..1</text>
</g>
<!-- 9&#45;inner&#45;node -->
<!-- 4&#45;&gt;9&#45;inner&#45;node -->
<g id="edge14" class="edge"><path fill="none" stroke="black" d="M926,-189.649C926,-166.987 926,-138.163 926,-136.116L926.056,-133.985"/>
<polygon fill="none" stroke="black" points="922.5,-189.822 926,-199.822 929.5,-189.822 922.5,-189.822"/>
</g>
<!-- 5 -->
<g id="node5" class="node"><defs>
<linearGradient id="l_9" gradientUnits="userSpaceOnUse" x1="868" y1="-366" x2="868" y2="-402">
<stop offset="0" style="stop-color:#ffffbb;stop-opacity:1.;"/>
<stop offset="1" style="stop-color:#ffffee;stop-opacity:1.;"/>
</linearGradient>
</defs>
<polygon fill="url(#l_9)" stroke="black" points="925.5,-402 810.5,-402 810.5,-366 925.5,-366 925.5,-402"/>
<text text-anchor="start" x="821" y="-382.2" font-family="Arial" font-weight="bold" font-style="italic" font-size="11.00" fill="black"><a fill="navy" href="../reference/DexpiModel/ConceptualObject.html" target="_parent">ConceptualObject</a></text>
</g>
<!-- 10&#45;inner&#45;node -->
<!-- 5&#45;&gt;10&#45;inner&#45;node -->
<g id="edge16" class="edge"><path fill="none" stroke="black" d="M868,-355.649C868,-332.987 868,-304.163 868,-302.116L868.033,-299.874"/>
<polygon fill="none" stroke="black" points="864.5,-355.822 868,-365.822 871.5,-355.822 864.5,-355.822"/>
</g>
<!-- 6 -->
<g id="node6" class="node"><defs>
<linearGradient id="l_10" gradientUnits="userSpaceOnUse" x1="1026" y1="-366" x2="1026" y2="-402">
<stop offset="0" style="stop-color:#ffffbb;stop-opacity:1.;"/>
<stop offset="1" style="stop-color:#ffffee;stop-opacity:1.;"/>
</linearGradient>
</defs>
<polygon fill="url(#l_10)" stroke="black" points="1098,-402 954,-402 954,-366 1098,-366 1098,-402"/>
<text text-anchor="start" x="964" y="-382.2" font-family="Arial" font-weight="bold" font-style="italic" font-size="11.00" fill="black"><a fill="navy" href="../reference/Customization/CustomAttributeOwner.html" target="_parent">CustomAttributeOwner</a></text>
</g>
<!-- 44 -->
<g id="node18" class="node"><defs>
<linearGradient id="l_11" gradientUnits="userSpaceOnUse" x1="941" y1="-283" x2="941" y2="-319">
<stop offset="0" style="stop-color:#ffffbb;stop-opacity:1.;"/>
<stop offset="1" style="stop-color:#ffffee;stop-opacity:1.;"/>
</linearGradient>
</defs>
<polygon fill="url(#l_11)" stroke="black" points="995.5,-319 886.5,-319 886.5,-283 995.5,-283 995.5,-319"/>
<text text-anchor="start" x="897" y="-299.2" font-family="Arial" font-weight="bold" font-style="italic" font-size="11.00" fill="black"><a fill="navy" href="../reference/Customization/CustomAttribute.html" target="_parent">CustomAttribute</a></text>
</g>
<!-- 6&#45;&gt;44 -->
<g id="edge11" class="edge"><path fill="none" stroke="#000000" d="M949.449,-358.486C946.681,-355.933 944.17,-353.113 942,-350 937.902,-344.119 936.444,-336.772 936.315,-329.608"/>
<polygon fill="#000000" stroke="#000000" points="949.498,-358.523 956.696,-358.959 959.063,-365.77 951.865,-365.335 949.498,-358.523"/>
<polygon fill="#000000" stroke="#000000" points="936.925,-319.435 940.819,-329.687 936.626,-324.426 936.327,-329.417 936.327,-329.417 936.327,-329.417 936.626,-324.426 931.835,-329.148 936.925,-319.435 936.925,-319.435"/>
<text text-anchor="start" x="944" y="-339.5" font-family="Arial" font-size="10.00" fill="black"><a fill="navy" href="../reference/Customization/CustomAttributeOwner.html#dexpi-customization-customattributeowner-customattributes" target="_parent">CustomAttributes</a></text>
<text text-anchor="start" x="928.925" y="-322.435" font-family="Arial" font-size="10.00" fill="black">*</text>
<text text-anchor="start" x="930.063" y="-355.77" font-family="Arial" font-size="10.00" fill="black">0..1</text>
</g>
<!-- 11&#45;inner&#45;node -->
<!-- 6&#45;&gt;11&#45;inner&#45;node -->
<g id="edge18" class="edge"><path fill="none" stroke="black" d="M1026,-355.649C1026,-332.987 1026,-304.163 1026,-302.116L1025.93,-299.941"/>
<polygon fill="none" stroke="black" points="1022.5,-355.822 1026,-365.822 1029.5,-355.822 1022.5,-355.822"/>
</g>
<!-- 7 -->
<g id="node7" class="node"><defs>
<linearGradient id="l_12" gradientUnits="userSpaceOnUse" x1="835" y1="-34" x2="835" y2="-70">
<stop offset="0" style="stop-color:#ffffbb;stop-opacity:1.;"/>
<stop offset="1" style="stop-color:#ffffee;stop-opacity:1.;"/>
</linearGradient>
</defs>
<polygon fill="url(#l_12)" stroke="black" points="932,-70 738,-70 738,-34 932,-34 932,-70"/>
<text text-anchor="start" x="748" y="-50.2" font-family="Arial" font-weight="bold" font-style="italic" font-size="11.00" fill="black"><a fill="navy" href="../reference/Instrumentation/SignalConveyingFunctionSource.html" target="_parent">SignalConveyingFunctionSource</a></text>
</g>
<!-- 12&#45;inner&#45;node -->
<!-- 7&#45;&gt;12&#45;inner&#45;node -->
<g id="edge20" class="edge"><path fill="none" stroke="black" d="M835,-23.603C835,-12.4221 835,-1.88664 835,-1.05302L834.779,-0.981883"/>
<polygon fill="none" stroke="black" points="831.5,-23.7928 835,-33.7928 838.5,-23.7929 831.5,-23.7928"/>
</g>
<!-- 8 -->
<g id="node8" class="node"><defs>
<linearGradient id="l_13" gradientUnits="userSpaceOnUse" x1="1045" y1="-34" x2="1045" y2="-70">
<stop offset="0" style="stop-color:#ffffbb;stop-opacity:1.;"/>
<stop offset="1" style="stop-color:#ffffee;stop-opacity:1.;"/>
</linearGradient>
</defs>
<polygon fill="url(#l_13)" stroke="black" points="1140,-70 950,-70 950,-34 1140,-34 1140,-70"/>
<text text-anchor="start" x="960" y="-50.2" font-family="Arial" font-weight="bold" font-style="italic" font-size="11.00" fill="black"><a fill="navy" href="../reference/Instrumentation/SignalConveyingFunctionTarget.html" target="_parent">SignalConveyingFunctionTarget</a></text>
</g>
<!-- 13&#45;inner&#45;node -->
<!-- 8&#45;&gt;13&#45;inner&#45;node -->
<g id="edge22" class="edge"><path fill="none" stroke="black" d="M1045,-23.603C1045,-12.4221 1045,-1.88664 1045,-1.05302L1045.05,-1.00187"/>
<polygon fill="none" stroke="black" points="1041.5,-23.7928 1045,-33.7928 1048.5,-23.7929 1041.5,-23.7928"/>
</g>
<!-- 29&#45;&gt;7 -->
<g id="edge12" class="edge"><path fill="none" stroke="#000000" d="M830.272,-116.822C831.06,-106.19 832.088,-92.306 832.985,-80.2035"/>
<polygon fill="#000000" stroke="#000000" points="833.729,-70.1533 837.478,-80.4584 833.36,-75.1396 832.991,-80.1259 832.991,-80.1259 832.991,-80.1259 833.36,-75.1396 828.503,-79.7935 833.729,-70.1533 833.729,-70.1533"/>
<text text-anchor="start" x="835.5" y="-90.5" font-family="Arial" font-size="10.00" fill="black"><a fill="navy" href="../reference/Instrumentation/SignalConveyingFunction.html#dexpi-instrumentation-signalconveyingfunction-source" target="_parent">Source</a></text>
<text text-anchor="start" x="812.729" y="-73.1533" font-family="Arial" font-size="10.00" fill="black">0..1</text>
<text text-anchor="start" x="814.272" y="-106.822" font-family="Arial" font-size="10.00" fill="black">*</text>
</g>
<!-- 29&#45;&gt;8 -->
<g id="edge13" class="edge"><path fill="none" stroke="#000000" d="M874.544,-116.921C908.146,-104.32 954.036,-87.1113 989.738,-73.7234"/>
<polygon fill="#000000" stroke="#000000" points="999.518,-70.0557 991.735,-77.7805 994.837,-71.8113 990.155,-73.567 990.155,-73.567 990.155,-73.567 994.837,-71.8113 988.575,-69.3535 999.518,-70.0557 999.518,-70.0557"/>
<text text-anchor="start" x="959" y="-90.5" font-family="Arial" font-size="10.00" fill="black"><a fill="navy" href="../reference/Instrumentation/SignalConveyingFunction.html#dexpi-instrumentation-signalconveyingfunction-target" target="_parent">Target</a></text>
<text text-anchor="start" x="978.518" y="-73.0557" font-family="Arial" font-size="10.00" fill="black">0..1</text>
<text text-anchor="start" x="858.544" y="-106.921" font-family="Arial" font-size="10.00" fill="black">*</text>
</g>
<!-- 32 -->
<g id="node14" class="node"><defs>
<linearGradient id="l_14" gradientUnits="userSpaceOnUse" x1="588" y1="-283" x2="588" y2="-319">
<stop offset="0" style="stop-color:#ffffbb;stop-opacity:1.;"/>
<stop offset="1" style="stop-color:#ffffee;stop-opacity:1.;"/>
</linearGradient>
</defs>
<polygon fill="url(#l_14)" stroke="black" points="645,-319 531,-319 531,-283 645,-283 645,-319"/>
<text text-anchor="start" x="541" y="-299.2" font-family="Arial" font-weight="bold" font-size="11.00" fill="black"><a fill="navy" href="../reference/DexpiModel/ConceptualModel.html" target="_parent">ConceptualModel</a></text>
</g>
<!-- 32&#45;&gt;4 -->
<g id="edge7" class="edge"><path fill="none" stroke="#000000" d="M588.886,-270.747C590.523,-263.682 593.564,-256.797 599,-252 615.426,-237.504 729.835,-228.524 818.749,-223.659"/>
<polygon fill="#000000" stroke="#000000" points="588.857,-270.958 592.024,-277.436 587.261,-282.851 584.095,-276.372 588.857,-270.958"/>
<polygon fill="#000000" stroke="#000000" points="828.908,-223.115 819.163,-228.143 823.915,-223.382 818.923,-223.65 818.923,-223.65 818.923,-223.65 823.915,-223.382 818.682,-219.156 828.908,-223.115 828.908,-223.115"/>
<text text-anchor="start" x="601" y="-256.5" font-family="Arial" font-size="10.00" fill="black"><a fill="navy" href="../reference/DexpiModel/ConceptualModel.html#dexpi-dexpimodel-conceptualmodel-processinstrumentationfunctions" target="_parent">ProcessInstrumentationFunctions</a></text>
<text text-anchor="start" x="820.908" y="-226.115" font-family="Arial" font-size="10.00" fill="black">*</text>
<text text-anchor="start" x="558.261" y="-272.851" font-family="Arial" font-size="10.00" fill="black">0..1</text>
</g>
<!-- 35 -->
<g id="node15" class="node"><defs>
<linearGradient id="l_15" gradientUnits="userSpaceOnUse" x1="761" y1="-283" x2="761" y2="-319">
<stop offset="0" style="stop-color:#ffffbb;stop-opacity:1.;"/>
<stop offset="1" style="stop-color:#ffffee;stop-opacity:1.;"/>
</linearGradient>
</defs>
<polygon fill="url(#l_15)" stroke="black" points="849.5,-319 672.5,-319 672.5,-283 849.5,-283 849.5,-319"/>
<text text-anchor="start" x="683" y="-299.2" font-family="Arial" font-weight="bold" font-size="11.00" fill="black"><a fill="navy" href="../reference/Instrumentation/InstrumentationLoopFunction.html" target="_parent">InstrumentationLoopFunction</a></text>
</g>
<!-- 35&#45;&gt;4 -->
<g id="edge8" class="edge"><path fill="none" stroke="#000000" d="M754.523,-282.654C751.985,-272.629 751.104,-260.382 758,-252 766.742,-241.374 791.134,-234.118 818.713,-229.183"/>
<polygon fill="#000000" stroke="#000000" points="828.581,-227.533 819.46,-233.621 823.65,-228.358 818.718,-229.183 818.718,-229.183 818.718,-229.183 823.65,-228.358 817.976,-224.744 828.581,-227.533 828.581,-227.533"/>
<text text-anchor="start" x="760" y="-256.5" font-family="Arial" font-size="10.00" fill="black"><a fill="navy" href="../reference/Instrumentation/InstrumentationLoopFunction.html#dexpi-instrumentation-instrumentationloopfunction-processinstrumentationfunctions" target="_parent">ProcessInstrumentationFunctions</a></text>
<text text-anchor="start" x="820.581" y="-230.533" font-family="Arial" font-size="10.00" fill="black">*</text>
<text text-anchor="start" x="725.523" y="-272.654" font-family="Arial" font-size="10.00" fill="black">0..1</text>
</g>
<!-- 38 -->
<g id="node16" class="node"><defs>
<linearGradient id="l_16" gradientUnits="userSpaceOnUse" x1="923" y1="-457.5" x2="923" y2="-493.5">
<stop offset="0" style="stop-color:#ffffbb;stop-opacity:1.;"/>
<stop offset="1" style="stop-color:#ffffee;stop-opacity:1.;"/>
</linearGradient>
</defs>
<polygon fill="url(#l_16)" stroke="black" points="997.5,-493.5 848.5,-493.5 848.5,-457.5 997.5,-457.5 997.5,-493.5"/>
<text text-anchor="start" x="859" y="-473.7" font-family="Arial" font-weight="bold" font-size="11.00" fill="black"><a fill="navy" href="../reference/Graphics/AttributeRepresentation.html" target="_parent">AttributeRepresentation</a></text>
</g>
<!-- 38&#45;&gt;5 -->
<g id="edge9" class="edge"><path fill="none" stroke="#000000" d="M912.395,-457.243C904.33,-444.119 893.099,-425.843 883.952,-410.958"/>
<polygon fill="#000000" stroke="#000000" points="878.572,-402.204 887.642,-408.367 881.19,-406.463 883.808,-410.723 883.808,-410.723 883.808,-410.723 881.19,-406.463 879.974,-413.079 878.572,-402.204 878.572,-402.204"/>
<text text-anchor="start" x="900.5" y="-422.5" font-family="Arial" font-size="10.00" fill="black"><a fill="navy" href="../reference/Graphics/AttributeRepresentation.html#dexpi-graphics-attributerepresentation-object" target="_parent">Object</a></text>
<text text-anchor="start" x="870.572" y="-405.204" font-family="Arial" font-size="10.00" fill="black"></text>
<text text-anchor="start" x="896.395" y="-447.243" font-family="Arial" font-size="10.00" fill="black">*</text>
</g>
<!-- 41 -->
<g id="node17" class="node"><defs>
<linearGradient id="l_17" gradientUnits="userSpaceOnUse" x1="762" y1="-457.5" x2="762" y2="-493.5">
<stop offset="0" style="stop-color:#ffffbb;stop-opacity:1.;"/>
<stop offset="1" style="stop-color:#ffffee;stop-opacity:1.;"/>
</linearGradient>
</defs>
<polygon fill="url(#l_17)" stroke="black" points="830.5,-493.5 693.5,-493.5 693.5,-457.5 830.5,-457.5 830.5,-493.5"/>
<text text-anchor="start" x="704" y="-473.7" font-family="Arial" font-weight="bold" font-size="11.00" fill="black"><a fill="navy" href="../reference/Graphics/RepresentationGroup.html" target="_parent">RepresentationGroup</a></text>
</g>
<!-- 41&#45;&gt;5 -->
<g id="edge10" class="edge"><path fill="none" stroke="#000000" d="M782.438,-457.243C798.715,-443.5 821.683,-424.108 839.724,-408.875"/>
<polygon fill="#000000" stroke="#000000" points="847.625,-402.204 842.887,-412.093 843.805,-405.429 839.984,-408.655 839.984,-408.655 839.984,-408.655 843.805,-405.429 837.081,-405.217 847.625,-402.204 847.625,-402.204"/>
<text text-anchor="start" x="830" y="-422.5" font-family="Arial" font-size="10.00" fill="black"><a fill="navy" href="../reference/Graphics/RepresentationGroup.html#dexpi-graphics-representationgroup-represents" target="_parent">Represents</a></text>
<text text-anchor="start" x="839.625" y="-405.204" font-family="Arial" font-size="10.00" fill="black"></text>
<text text-anchor="start" x="766.438" y="-447.243" font-family="Arial" font-size="10.00" fill="black">*</text>
</g>
<!-- 9&#45;inner&#45;node&#45;&gt;0 -->
<g id="edge15" class="edge"><path fill="none" stroke="black" d="M926.056,-133.985C929.372,-133.11 1079.36,-93.5374 1168.41,-70.0412"/>
</g>
<!-- 10&#45;inner&#45;node&#45;&gt;4 -->
<g id="edge17" class="edge"><path fill="none" stroke="black" d="M868.033,-299.874C868.361,-298.629 871.17,-288.5 877,-283 889.441,-271.262 900.813,-279.938 912,-267 919.381,-258.464 922.876,-246.219 924.528,-236.234"/>
</g>
<!-- 11&#45;inner&#45;node&#45;&gt;4 -->
<g id="edge19" class="edge"><path fill="none" stroke="black" d="M1025.93,-299.941C1023.81,-298.226 975.799,-259.337 947.108,-236.098"/>
</g>
<!-- 12&#45;inner&#45;node&#45;&gt;4 -->
<g id="edge21" class="edge"><path fill="none" stroke="black" d="M834.779,-0.981883C830.249,-0.624253 757.334,4.49633 729,-34 697.49,-76.8113 710.961,-109.144 741,-153 760.974,-182.16 795.251,-198.19 828.914,-206.946"/>
</g>
<!-- 13&#45;inner&#45;node&#45;&gt;4 -->
<g id="edge23" class="edge"><path fill="none" stroke="black" d="M1045.05,-1.00187C1048.92,-1.16035 1296.97,-11.3915 1317,-34 1327.61,-45.9757 1326.11,-56.8454 1317,-70 1251.26,-164.951 1116,-198.655 1023.16,-210.568"/>
</g>
<!-- 14&#45;inner&#45;node&#45;&gt;4 -->
<g id="edge25" class="edge"><path fill="none" stroke="black" d="M1162.96,-299.985C1160.4,-299.11 1044.61,-259.537 975.861,-236.041"/>
</g>
</g>
</svg>