<!DOCTYPE svg PUBLIC "-//W3C//DTD SVG 1.1//EN" "http://www.w3.org/Graphics/SVG/1.1/DTD/svg11.dtd">
<!-- Generated by graphviz version 2.38.0 (20140413.2041)
 --><!-- Title: G Pages: 1 --><svg xmlns="http://www.w3.org/2000/svg" xmlns:xlink="http://www.w3.org/1999/xlink" width="1176pt" height="716pt" viewBox="0.00 0.00 1175.78 716.00">
<g id="graph0" class="graph" transform="scale(1 1) rotate(0) translate(4 712)">
<!-- 0 -->
<g id="node1" class="node"><defs>
<linearGradient id="l_0" gradientUnits="userSpaceOnUse" x1="618" y1="-200" x2="618" y2="-442">
<stop offset="0" style="stop-color:#ffffbb;stop-opacity:1.;"/>
<stop offset="1" style="stop-color:#ffffee;stop-opacity:1.;"/>
</linearGradient>
</defs>
<polygon fill="url(#l_0)" stroke="black" points="824,-442 412,-442 412,-200 824,-200 824,-442"/>
<text text-anchor="start" x="531" y="-428.2" font-family="Arial" font-weight="bold" font-size="11.00" fill="black">ProcessInstrumentationFunction</text>
<text text-anchor="start" x="422" y="-404" font-family="Arial" font-size="10.00" fill="black"><a fill="navy" href="../reference/Instrumentation/ProcessInstrumentationFunction.html#dexpi-instrumentation-processinstrumentationfunction-deviceinformation" target="_parent">DeviceInformation</a>&#160;:</text>
<text text-anchor="start" x="612" y="-404" font-family="Arial" font-size="10.00" fill="black"><a fill="navy" href="../reference/DataTypes/NullableString.html" target="_parent">NullableString</a>&#160;[0..1]</text>
<text text-anchor="start" x="422" y="-389" font-family="Arial" font-size="10.00" fill="black"><a fill="navy" href="../reference/Instrumentation/ProcessInstrumentationFunction.html#dexpi-instrumentation-processinstrumentationfunction-gmprelevance" target="_parent">GmpRelevance</a>&#160;:</text>
<text text-anchor="start" x="612" y="-389" font-family="Arial" font-size="10.00" fill="black"><a fill="navy" href="../reference/Enumerations/GmpRelevanceClassification.html" target="_parent">GmpRelevanceClassification</a>&#160;[0..1]</text>
<text text-anchor="start" x="422" y="-374" font-family="Arial" font-size="10.00" fill="black"><a fill="navy" href="../reference/Instrumentation/ProcessInstrumentationFunction.html#dexpi-instrumentation-processinstrumentationfunction-guaranteedsupplyfunction" target="_parent">GuaranteedSupplyFunction</a>&#160;:</text>
<text text-anchor="start" x="612" y="-374" font-family="Arial" font-size="10.00" fill="black"><a fill="navy" href="../reference/Enumerations/GuaranteedSupplyFunctionClassification.html" target="_parent">GuaranteedSupplyFunctionClassification</a>&#160;[0..1]</text>
<text text-anchor="start" x="422" y="-359" font-family="Arial" font-size="10.00" fill="black"><a fill="navy" href="../reference/Instrumentation/ProcessInstrumentationFunction.html#dexpi-instrumentation-processinstrumentationfunction-location" target="_parent">Location</a>&#160;:</text>
<text text-anchor="start" x="612" y="-359" font-family="Arial" font-size="10.00" fill="black"><a fill="navy" href="../reference/Enumerations/LocationClassification.html" target="_parent">LocationClassification</a>&#160;[0..1]</text>
<text text-anchor="start" x="422" y="-344" font-family="Arial" font-size="10.00" fill="black"><a fill="navy" href="../reference/Instrumentation/ProcessInstrumentationFunction.html#dexpi-instrumentation-processinstrumentationfunction-panelidentificationcode" target="_parent">PanelIdentificationCode</a>&#160;:</text>
<text text-anchor="start" x="612" y="-344" font-family="Arial" font-size="10.00" fill="black"><a fill="navy" href="../reference/DataTypes/NullableString.html" target="_parent">NullableString</a>&#160;[0..1]</text>
<text text-anchor="start" x="422" y="-329" font-family="Arial" font-size="10.00" fill="black"><a fill="navy" href="../reference/Instrumentation/ProcessInstrumentationFunction.html#dexpi-instrumentation-processinstrumentationfunction-processinstrumentationfunctioncategory" target="_parent">ProcessInstrumentationFunctionCategory</a>&#160;:</text>
<text text-anchor="start" x="612" y="-329" font-family="Arial" font-size="10.00" fill="black"><a fill="navy" href="../reference/DataTypes/NullableString.html" target="_parent">NullableString</a>&#160;[0..1]</text>
<text text-anchor="start" x="422" y="-314" font-family="Arial" font-size="10.00" fill="black"><a fill="navy" href="../reference/Instrumentation/ProcessInstrumentationFunction.html#dexpi-instrumentation-processinstrumentationfunction-processinstrumentationfunctionmodifier" target="_parent">ProcessInstrumentationFunctionModifier</a>&#160;:</text>
<text text-anchor="start" x="612" y="-314" font-family="Arial" font-size="10.00" fill="black"><a fill="navy" href="../reference/DataTypes/NullableString.html" target="_parent">NullableString</a>&#160;[0..1]</text>
<text text-anchor="start" x="422" y="-299" font-family="Arial" font-size="10.00" fill="black"><a fill="navy" href="../reference/Instrumentation/ProcessInstrumentationFunction.html#dexpi-instrumentation-processinstrumentationfunction-processinstrumentationfunctionnumber" target="_parent">ProcessInstrumentationFunctionNumber</a>&#160;:</text>
<text text-anchor="start" x="612" y="-299" font-family="Arial" font-size="10.00" fill="black"><a fill="navy" href="../reference/DataTypes/NullableString.html" target="_parent">NullableString</a>&#160;[0..1]</text>
<text text-anchor="start" x="422" y="-284" font-family="Arial" font-size="10.00" fill="black"><a fill="navy" href="../reference/Instrumentation/ProcessInstrumentationFunction.html#dexpi-instrumentation-processinstrumentationfunction-processinstrumentationfunctions" target="_parent">ProcessInstrumentationFunctions</a>&#160;:</text>
<text text-anchor="start" x="612" y="-284" font-family="Arial" font-size="10.00" fill="black"><a fill="navy" href="../reference/DataTypes/NullableString.html" target="_parent">NullableString</a>&#160;[0..1]</text>
<text text-anchor="start" x="422" y="-269" font-family="Arial" font-size="10.00" fill="black"><a fill="navy" href="../reference/Instrumentation/ProcessInstrumentationFunction.html#dexpi-instrumentation-processinstrumentationfunction-qualityrelevance" target="_parent">QualityRelevance</a>&#160;:</text>
<text text-anchor="start" x="612" y="-269" font-family="Arial" font-size="10.00" fill="black"><a fill="navy" href="../reference/Enumerations/QualityRelevanceClassification.html" target="_parent">QualityRelevanceClassification</a>&#160;[0..1]</text>
<text text-anchor="start" x="422" y="-254" font-family="Arial" font-size="10.00" fill="black"><a fill="navy" href="../reference/Instrumentation/ProcessInstrumentationFunction.html#dexpi-instrumentation-processinstrumentationfunction-safetyrelevanceclass" target="_parent">SafetyRelevanceClass</a>&#160;:</text>
<text text-anchor="start" x="612" y="-254" font-family="Arial" font-size="10.00" fill="black"><a fill="navy" href="../reference/DataTypes/NullableString.html" target="_parent">NullableString</a>&#160;[0..1]</text>
<text text-anchor="start" x="422" y="-239" font-family="Arial" font-size="10.00" fill="black"><a fill="navy" href="../reference/Instrumentation/ProcessInstrumentationFunction.html#dexpi-instrumentation-processinstrumentationfunction-typicalinformation" target="_parent">TypicalInformation</a>&#160;:</text>
<text text-anchor="start" x="612" y="-239" font-family="Arial" font-size="10.00" fill="black"><a fill="navy" href="../reference/DataTypes/NullableString.html" target="_parent">NullableString</a>&#160;[0..1]</text>
<text text-anchor="start" x="422" y="-224" font-family="Arial" font-size="10.00" fill="black"><a fill="navy" href="../reference/Instrumentation/ProcessInstrumentationFunction.html#dexpi-instrumentation-processinstrumentationfunction-vendorcompanyname" target="_parent">VendorCompanyName</a>&#160;:</text>
<text text-anchor="start" x="612" y="-224" font-family="Arial" font-size="10.00" fill="black"><a fill="navy" href="../reference/DataTypes/NullableString.html" target="_parent">NullableString</a>&#160;[0..1]</text>
<text text-anchor="start" x="422" y="-209" font-family="Arial" font-size="10.00" fill="black"><a fill="navy" href="../reference/Instrumentation/ProcessInstrumentationFunction.html#dexpi-instrumentation-processinstrumentationfunction-votingsystemrepresentation" target="_parent">VotingSystemRepresentation</a>&#160;:</text>
<text text-anchor="start" x="612" y="-209" font-family="Arial" font-size="10.00" fill="black"><a fill="navy" href="../reference/DataTypes/NullableString.html" target="_parent">NullableString</a>&#160;[0..1]</text>
<polygon fill="black" stroke="black" points="824.0,-422.0 412.0,-422.0 412.0,-422.0 824.0,-422.0 824.0,-422.0"/>
</g>
<!-- 34 -->
<g id="node8" class="node"><defs>
<linearGradient id="l_1" gradientUnits="userSpaceOnUse" x1="83" y1="-117" x2="83" y2="-153">
<stop offset="0" style="stop-color:#ffffbb;stop-opacity:1.;"/>
<stop offset="1" style="stop-color:#ffffee;stop-opacity:1.;"/>
</linearGradient>
</defs>
<polygon fill="url(#l_1)" stroke="black" points="166,-153 0,-153 0,-117 166,-117 166,-153"/>
<text text-anchor="start" x="10" y="-133.2" font-family="Arial" font-weight="bold" font-size="11.00" fill="black"><a fill="navy" href="../reference/Instrumentation/ActuatingElectricalFunction.html" target="_parent">ActuatingElectricalFunction</a></text>
</g>
<!-- 0&#45;&gt;34 -->
<g id="edge2" class="edge"><path fill="none" stroke="#000000" d="M400.061,-258.996C329.689,-237.451 251.838,-211.644 182,-184 162.669,-176.348 141.88,-166.526 124.367,-157.762"/>
<polygon fill="#000000" stroke="#000000" points="400.262,-259.057 407.167,-256.979 411.741,-262.554 404.836,-264.632 400.262,-259.057"/>
<polygon fill="#000000" stroke="#000000" points="115.004,-153.023 125.959,-153.525 119.465,-155.281 123.926,-157.539 123.926,-157.539 123.926,-157.539 119.465,-155.281 121.894,-161.554 115.004,-153.023 115.004,-153.023"/>
<text text-anchor="start" x="184.5" y="-173.5" font-family="Arial" font-size="10.00" fill="black"><a fill="navy" href="../reference/Instrumentation/ProcessInstrumentationFunction.html#dexpi-instrumentation-processinstrumentationfunction-actuatingelectricalfunctions" target="_parent">ActuatingElectricalFunctions</a></text>
<text text-anchor="start" x="107.004" y="-156.023" font-family="Arial" font-size="10.00" fill="black">*</text>
<text text-anchor="start" x="382.741" y="-263.554" font-family="Arial" font-size="10.00" fill="black">0..1</text>
</g>
<!-- 37 -->
<g id="node9" class="node"><defs>
<linearGradient id="l_2" gradientUnits="userSpaceOnUse" x1="243" y1="-117" x2="243" y2="-153">
<stop offset="0" style="stop-color:#ffffbb;stop-opacity:1.;"/>
<stop offset="1" style="stop-color:#ffffee;stop-opacity:1.;"/>
</linearGradient>
</defs>
<polygon fill="url(#l_2)" stroke="black" points="301.5,-153 184.5,-153 184.5,-117 301.5,-117 301.5,-153"/>
<text text-anchor="start" x="195" y="-133.2" font-family="Arial" font-weight="bold" font-size="11.00" fill="black"><a fill="navy" href="../reference/Instrumentation/ActuatingFunction.html" target="_parent">ActuatingFunction</a></text>
</g>
<!-- 0&#45;&gt;37 -->
<g id="edge3" class="edge"><path fill="none" stroke="#000000" d="M400.9,-213.476C357.507,-192.185 316.284,-171.958 286.846,-157.514"/>
<polygon fill="#000000" stroke="#000000" points="401.078,-213.563 408.226,-212.615 411.851,-218.849 404.702,-219.797 401.078,-213.563"/>
<polygon fill="#000000" stroke="#000000" points="277.714,-153.033 288.674,-153.398 282.203,-155.236 286.692,-157.438 286.692,-157.438 286.692,-157.438 282.203,-155.236 284.71,-161.478 277.714,-153.033 277.714,-153.033"/>
<text text-anchor="start" x="336.5" y="-173.5" font-family="Arial" font-size="10.00" fill="black"><a fill="navy" href="../reference/Instrumentation/ProcessInstrumentationFunction.html#dexpi-instrumentation-processinstrumentationfunction-actuatingfunctions" target="_parent">ActuatingFunctions</a></text>
<text text-anchor="start" x="269.714" y="-156.033" font-family="Arial" font-size="10.00" fill="black">*</text>
<text text-anchor="start" x="382.851" y="-219.849" font-family="Arial" font-size="10.00" fill="black">0..1</text>
</g>
<!-- 40 -->
<g id="node10" class="node"><defs>
<linearGradient id="l_3" gradientUnits="userSpaceOnUse" x1="422" y1="-117" x2="422" y2="-153">
<stop offset="0" style="stop-color:#ffffbb;stop-opacity:1.;"/>
<stop offset="1" style="stop-color:#ffffee;stop-opacity:1.;"/>
</linearGradient>
</defs>
<polygon fill="url(#l_3)" stroke="black" points="524,-153 320,-153 320,-117 524,-117 524,-153"/>
<text text-anchor="start" x="330" y="-133.2" font-family="Arial" font-weight="bold" font-size="11.00" fill="black"><a fill="navy" href="../reference/Instrumentation/ProcessSignalGeneratingFunction.html" target="_parent">ProcessSignalGeneratingFunction</a></text>
</g>
<!-- 0&#45;&gt;40 -->
<g id="edge4" class="edge"><path fill="none" stroke="#000000" d="M462.478,-190.903C460.283,-188.606 458.123,-186.304 456,-184 449.734,-177.198 443.647,-169.201 438.395,-161.707"/>
<polygon fill="#000000" stroke="#000000" points="462.715,-191.146 469.769,-192.645 471.098,-199.732 464.045,-198.233 462.715,-191.146"/>
<polygon fill="#000000" stroke="#000000" points="432.654,-153.241 441.991,-158.992 435.461,-157.379 438.267,-161.517 438.267,-161.517 438.267,-161.517 435.461,-157.379 434.543,-164.043 432.654,-153.241 432.654,-153.241"/>
<text text-anchor="start" x="458" y="-173.5" font-family="Arial" font-size="10.00" fill="black"><a fill="navy" href="../reference/Instrumentation/ProcessInstrumentationFunction.html#dexpi-instrumentation-processinstrumentationfunction-processsignalgeneratingfunctions" target="_parent">ProcessSignalGeneratingFunctions</a></text>
<text text-anchor="start" x="424.654" y="-156.241" font-family="Arial" font-size="10.00" fill="black">*</text>
<text text-anchor="start" x="442.098" y="-189.732" font-family="Arial" font-size="10.00" fill="black">0..1</text>
</g>
<!-- 43 -->
<g id="node11" class="node"><defs>
<linearGradient id="l_4" gradientUnits="userSpaceOnUse" x1="618" y1="-117" x2="618" y2="-153">
<stop offset="0" style="stop-color:#ffffbb;stop-opacity:1.;"/>
<stop offset="1" style="stop-color:#ffffee;stop-opacity:1.;"/>
</linearGradient>
</defs>
<polygon fill="url(#l_4)" stroke="black" points="694,-153 542,-153 542,-117 694,-117 694,-153"/>
<text text-anchor="start" x="552" y="-133.2" font-family="Arial" font-weight="bold" font-style="italic" font-size="11.00" fill="black"><a fill="navy" href="../reference/Instrumentation/SignalOffPageConnector.html" target="_parent">SignalOffPageConnector</a></text>
</g>
<!-- 0&#45;&gt;43 -->
<g id="edge5" class="edge"><path fill="none" stroke="#000000" d="M618,-187.708C618,-178.79 618,-170.502 618,-163.289"/>
<polygon fill="#000000" stroke="#000000" points="618,-187.838 622,-193.838 618,-199.838 614,-193.838 618,-187.838"/>
<polygon fill="#000000" stroke="#000000" points="618,-153.225 622.5,-163.225 618,-158.225 618,-163.225 618,-163.225 618,-163.225 618,-158.225 613.5,-163.225 618,-153.225 618,-153.225"/>
<text text-anchor="start" x="620.5" y="-173.5" font-family="Arial" font-size="10.00" fill="black"><a fill="navy" href="../reference/Instrumentation/ProcessInstrumentationFunction.html#dexpi-instrumentation-processinstrumentationfunction-signalconnectors" target="_parent">SignalConnectors</a></text>
<text text-anchor="start" x="610.0" y="-156.225" font-family="Arial" font-size="10.00" fill="black">*</text>
<text text-anchor="start" x="589.0" y="-189.838" font-family="Arial" font-size="10.00" fill="black">0..1</text>
</g>
<!-- 46 -->
<g id="node12" class="node"><defs>
<linearGradient id="l_5" gradientUnits="userSpaceOnUse" x1="847" y1="-117" x2="847" y2="-153">
<stop offset="0" style="stop-color:#ffffbb;stop-opacity:1.;"/>
<stop offset="1" style="stop-color:#ffffee;stop-opacity:1.;"/>
</linearGradient>
</defs>
<polygon fill="url(#l_5)" stroke="black" points="925.5,-153 768.5,-153 768.5,-117 925.5,-117 925.5,-153"/>
<text text-anchor="start" x="779" y="-133.2" font-family="Arial" font-weight="bold" font-size="11.00" fill="black"><a fill="navy" href="../reference/Instrumentation/SignalConveyingFunction.html" target="_parent">SignalConveyingFunction</a></text>
</g>
<!-- 0&#45;&gt;46 -->
<g id="edge6" class="edge"><path fill="none" stroke="#000000" d="M777.012,-192.235C792.287,-179.961 806.311,-168.694 817.728,-159.52"/>
<polygon fill="#000000" stroke="#000000" points="776.904,-192.322 774.732,-199.198 767.55,-199.838 769.721,-192.962 776.904,-192.322"/>
<polygon fill="#000000" stroke="#000000" points="825.562,-153.225 820.586,-162.997 821.665,-156.357 817.767,-159.489 817.767,-159.489 817.767,-159.489 821.665,-156.357 814.948,-155.981 825.562,-153.225 825.562,-153.225"/>
<text text-anchor="start" x="806.5" y="-173.5" font-family="Arial" font-size="10.00" fill="black"><a fill="navy" href="../reference/Instrumentation/ProcessInstrumentationFunction.html#dexpi-instrumentation-processinstrumentationfunction-signalconveyingfunctions" target="_parent">SignalConveyingFunctions</a></text>
<text text-anchor="start" x="817.562" y="-156.225" font-family="Arial" font-size="10.00" fill="black">*</text>
<text text-anchor="start" x="738.55" y="-189.838" font-family="Arial" font-size="10.00" fill="black">0..1</text>
</g>
<!-- 21 -->
<g id="node2" class="node"><defs>
<linearGradient id="l_6" gradientUnits="userSpaceOnUse" x1="855" y1="-655" x2="855" y2="-708">
<stop offset="0" style="stop-color:#fbfbfb;stop-opacity:1.;"/>
<stop offset="1" style="stop-color:#fefefe;stop-opacity:1.;"/>
</linearGradient>
</defs>
<polygon fill="url(#l_6)" stroke="black" points="947.0,-697.0 936.0,-708.0 763.0,-708.0 763.0,-655.0 947.0,-655.0"/><path d="M947.0,-697.0L936.0,-697.0 936.0,-708.0" fill="none" stroke="black"/>
<text text-anchor="start" x="773" y="-693.5" font-family="Arial" font-size="10.00" fill="black">For&#160;the&#160;sake&#160;of&#160;clarity,&#160;superclasses&#160;</text>
<text text-anchor="start" x="773" y="-678.5" font-family="Arial" font-size="10.00" fill="black">and&#160;associations&#160;of&#160;<a fill="navy" href="../reference/PlantStructure/TechnicalItem.html" target="_parent">TechnicalItem</a>&#160;are</text>
<text text-anchor="start" x="773" y="-663.5" font-family="Arial" font-size="10.00" fill="black">not&#160;shown&#160;in&#160;this&#160;diagram.</text>
</g>
<!-- 20 -->
<g id="node3" class="node"><defs>
<linearGradient id="l_7" gradientUnits="userSpaceOnUse" x1="855" y1="-572" x2="855" y2="-608">
<stop offset="0" style="stop-color:#ffffbb;stop-opacity:1.;"/>
<stop offset="1" style="stop-color:#ffffee;stop-opacity:1.;"/>
</linearGradient>
</defs>
<polygon fill="url(#l_7)" stroke="black" points="901.5,-608 808.5,-608 808.5,-572 901.5,-572 901.5,-608"/>
<text text-anchor="start" x="819" y="-588.2" font-family="Arial" font-weight="bold" font-style="italic" font-size="11.00" fill="black"><a fill="navy" href="../reference/PlantStructure/TechnicalItem.html" target="_parent">TechnicalItem</a></text>
</g>
<!-- 21&#45;&gt;20 -->
<g id="edge1" class="edge"><path fill="none" stroke="#000000" stroke-dasharray="5,2" d="M855,-654.613C855,-639.641 855,-621.222 855,-608.063"/>
</g>
<!-- 31&#45;inner&#45;node -->
<!-- 20&#45;&gt;31&#45;inner&#45;node -->
<g id="edge22" class="edge"><path fill="none" stroke="black" d="M855,-561.649C855,-538.987 855,-510.163 855,-508.116L854.957,-505.966"/>
<polygon fill="none" stroke="black" points="851.5,-561.822 855,-571.822 858.5,-561.822 851.5,-561.822"/>
</g>
<!-- 23 -->
<g id="node4" class="node"><defs>
<linearGradient id="l_8" gradientUnits="userSpaceOnUse" x1="560" y1="-572" x2="560" y2="-608">
<stop offset="0" style="stop-color:#ffffbb;stop-opacity:1.;"/>
<stop offset="1" style="stop-color:#ffffee;stop-opacity:1.;"/>
</linearGradient>
</defs>
<polygon fill="url(#l_8)" stroke="black" points="617.5,-608 502.5,-608 502.5,-572 617.5,-572 617.5,-608"/>
<text text-anchor="start" x="513" y="-588.2" font-family="Arial" font-weight="bold" font-style="italic" font-size="11.00" fill="black"><a fill="navy" href="../reference/DexpiModel/ConceptualObject.html" target="_parent">ConceptualObject</a></text>
</g>
<!-- 27&#45;inner&#45;node -->
<!-- 23&#45;&gt;27&#45;inner&#45;node -->
<g id="edge14" class="edge"><path fill="none" stroke="black" d="M560,-561.649C560,-538.987 560,-510.163 560,-508.116L560.033,-505.874"/>
<polygon fill="none" stroke="black" points="556.5,-561.822 560,-571.822 563.5,-561.822 556.5,-561.822"/>
</g>
<!-- 24 -->
<g id="node5" class="node"><defs>
<linearGradient id="l_9" gradientUnits="userSpaceOnUse" x1="718" y1="-572" x2="718" y2="-608">
<stop offset="0" style="stop-color:#ffffbb;stop-opacity:1.;"/>
<stop offset="1" style="stop-color:#ffffee;stop-opacity:1.;"/>
</linearGradient>
</defs>
<polygon fill="url(#l_9)" stroke="black" points="790,-608 646,-608 646,-572 790,-572 790,-608"/>
<text text-anchor="start" x="656" y="-588.2" font-family="Arial" font-weight="bold" font-style="italic" font-size="11.00" fill="black"><a fill="navy" href="../reference/Customization/CustomAttributeOwner.html" target="_parent">CustomAttributeOwner</a></text>
</g>
<!-- 61 -->
<g id="node17" class="node"><defs>
<linearGradient id="l_10" gradientUnits="userSpaceOnUse" x1="633" y1="-489" x2="633" y2="-525">
<stop offset="0" style="stop-color:#ffffbb;stop-opacity:1.;"/>
<stop offset="1" style="stop-color:#ffffee;stop-opacity:1.;"/>
</linearGradient>
</defs>
<polygon fill="url(#l_10)" stroke="black" points="687.5,-525 578.5,-525 578.5,-489 687.5,-489 687.5,-525"/>
<text text-anchor="start" x="589" y="-505.2" font-family="Arial" font-weight="bold" font-style="italic" font-size="11.00" fill="black"><a fill="navy" href="../reference/Customization/CustomAttribute.html" target="_parent">CustomAttribute</a></text>
</g>
<!-- 24&#45;&gt;61 -->
<g id="edge11" class="edge"><path fill="none" stroke="#000000" d="M641.449,-564.486C638.681,-561.933 636.17,-559.113 634,-556 629.902,-550.119 628.444,-542.772 628.315,-535.608"/>
<polygon fill="#000000" stroke="#000000" points="641.498,-564.523 648.696,-564.959 651.063,-571.77 643.865,-571.335 641.498,-564.523"/>
<polygon fill="#000000" stroke="#000000" points="628.925,-525.435 632.819,-535.687 628.626,-530.426 628.327,-535.417 628.327,-535.417 628.327,-535.417 628.626,-530.426 623.835,-535.148 628.925,-525.435 628.925,-525.435"/>
<text text-anchor="start" x="636" y="-545.5" font-family="Arial" font-size="10.00" fill="black"><a fill="navy" href="../reference/Customization/CustomAttributeOwner.html#dexpi-customization-customattributeowner-customattributes" target="_parent">CustomAttributes</a></text>
<text text-anchor="start" x="620.925" y="-528.435" font-family="Arial" font-size="10.00" fill="black">*</text>
<text text-anchor="start" x="622.063" y="-561.77" font-family="Arial" font-size="10.00" fill="black">0..1</text>
</g>
<!-- 28&#45;inner&#45;node -->
<!-- 24&#45;&gt;28&#45;inner&#45;node -->
<g id="edge16" class="edge"><path fill="none" stroke="black" d="M718,-561.649C718,-538.987 718,-510.163 718,-508.116L717.928,-505.867"/>
<polygon fill="none" stroke="black" points="714.5,-561.822 718,-571.822 721.5,-561.822 714.5,-561.822"/>
</g>
<!-- 25 -->
<g id="node6" class="node"><defs>
<linearGradient id="l_11" gradientUnits="userSpaceOnUse" x1="847" y1="-34" x2="847" y2="-70">
<stop offset="0" style="stop-color:#ffffbb;stop-opacity:1.;"/>
<stop offset="1" style="stop-color:#ffffee;stop-opacity:1.;"/>
</linearGradient>
</defs>
<polygon fill="url(#l_11)" stroke="black" points="944,-70 750,-70 750,-34 944,-34 944,-70"/>
<text text-anchor="start" x="760" y="-50.2" font-family="Arial" font-weight="bold" font-style="italic" font-size="11.00" fill="black"><a fill="navy" href="../reference/Instrumentation/SignalConveyingFunctionSource.html" target="_parent">SignalConveyingFunctionSource</a></text>
</g>
<!-- 29&#45;inner&#45;node -->
<!-- 25&#45;&gt;29&#45;inner&#45;node -->
<g id="edge18" class="edge"><path fill="none" stroke="black" d="M847,-23.603C847,-12.4221 847,-1.88664 847,-1.05302L846.948,-0.998097"/>
<polygon fill="none" stroke="black" points="843.5,-23.7928 847,-33.7928 850.5,-23.7929 843.5,-23.7928"/>
</g>
<!-- 26 -->
<g id="node7" class="node"><defs>
<linearGradient id="l_12" gradientUnits="userSpaceOnUse" x1="1057" y1="-34" x2="1057" y2="-70">
<stop offset="0" style="stop-color:#ffffbb;stop-opacity:1.;"/>
<stop offset="1" style="stop-color:#ffffee;stop-opacity:1.;"/>
</linearGradient>
</defs>
<polygon fill="url(#l_12)" stroke="black" points="1152,-70 962,-70 962,-34 1152,-34 1152,-70"/>
<text text-anchor="start" x="972" y="-50.2" font-family="Arial" font-weight="bold" font-style="italic" font-size="11.00" fill="black"><a fill="navy" href="../reference/Instrumentation/SignalConveyingFunctionTarget.html" target="_parent">SignalConveyingFunctionTarget</a></text>
</g>
<!-- 30&#45;inner&#45;node -->
<!-- 26&#45;&gt;30&#45;inner&#45;node -->
<g id="edge20" class="edge"><path fill="none" stroke="black" d="M1057,-23.603C1057,-12.4221 1057,-1.88664 1057,-1.05302L1057.22,-0.9836"/>
<polygon fill="none" stroke="black" points="1053.5,-23.7928 1057,-33.7928 1060.5,-23.7929 1053.5,-23.7928"/>
</g>
<!-- 46&#45;&gt;25 -->
<g id="edge12" class="edge"><path fill="none" stroke="#000000" d="M847,-116.822C847,-106.19 847,-92.306 847,-80.2035"/>
<polygon fill="#000000" stroke="#000000" points="847,-70.1533 851.5,-80.1532 847,-75.1533 847,-80.1533 847,-80.1533 847,-80.1533 847,-75.1533 842.5,-80.1533 847,-70.1533 847,-70.1533"/>
<text text-anchor="start" x="849.5" y="-90.5" font-family="Arial" font-size="10.00" fill="black"><a fill="navy" href="../reference/Instrumentation/SignalConveyingFunction.html#dexpi-instrumentation-signalconveyingfunction-source" target="_parent">Source</a></text>
<text text-anchor="start" x="826.0" y="-73.1533" font-family="Arial" font-size="10.00" fill="black">0..1</text>
<text text-anchor="start" x="831.0" y="-106.822" font-family="Arial" font-size="10.00" fill="black">*</text>
</g>
<!-- 46&#45;&gt;26 -->
<g id="edge13" class="edge"><path fill="none" stroke="#000000" d="M891.279,-116.921C923.947,-104.32 968.563,-87.1113 1003.27,-73.7234"/>
<polygon fill="#000000" stroke="#000000" points="1012.78,-70.0557 1005.07,-77.853 1008.12,-71.8551 1003.45,-73.6545 1003.45,-73.6545 1003.45,-73.6545 1008.12,-71.8551 1001.83,-69.456 1012.78,-70.0557 1012.78,-70.0557"/>
<text text-anchor="start" x="973" y="-90.5" font-family="Arial" font-size="10.00" fill="black"><a fill="navy" href="../reference/Instrumentation/SignalConveyingFunction.html#dexpi-instrumentation-signalconveyingfunction-target" target="_parent">Target</a></text>
<text text-anchor="start" x="991.782" y="-73.0557" font-family="Arial" font-size="10.00" fill="black">0..1</text>
<text text-anchor="start" x="875.279" y="-106.921" font-family="Arial" font-size="10.00" fill="black">*</text>
</g>
<!-- 49 -->
<g id="node13" class="node"><defs>
<linearGradient id="l_13" gradientUnits="userSpaceOnUse" x1="280" y1="-489" x2="280" y2="-525">
<stop offset="0" style="stop-color:#ffffbb;stop-opacity:1.;"/>
<stop offset="1" style="stop-color:#ffffee;stop-opacity:1.;"/>
</linearGradient>
</defs>
<polygon fill="url(#l_13)" stroke="black" points="337,-525 223,-525 223,-489 337,-489 337,-525"/>
<text text-anchor="start" x="233" y="-505.2" font-family="Arial" font-weight="bold" font-size="11.00" fill="black"><a fill="navy" href="../reference/DexpiModel/ConceptualModel.html" target="_parent">ConceptualModel</a></text>
</g>
<!-- 49&#45;&gt;0 -->
<g id="edge7" class="edge"><path fill="none" stroke="#000000" d="M283.441,-476.812C285.379,-470.038 288.377,-463.276 293,-458 322.51,-424.319 361.723,-398.779 402.674,-379.479"/>
<polygon fill="#000000" stroke="#000000" points="283.412,-476.948 286.109,-483.636 280.972,-488.698 278.276,-482.01 283.412,-476.948"/>
<polygon fill="#000000" stroke="#000000" points="411.992,-375.206 404.778,-383.465 407.447,-377.29 402.902,-379.374 402.902,-379.374 402.902,-379.374 407.447,-377.29 401.027,-375.284 411.992,-375.206 411.992,-375.206"/>
<text text-anchor="start" x="295" y="-462.5" font-family="Arial" font-size="10.00" fill="black"><a fill="navy" href="../reference/DexpiModel/ConceptualModel.html#dexpi-dexpimodel-conceptualmodel-processinstrumentationfunctions" target="_parent">ProcessInstrumentationFunctions</a></text>
<text text-anchor="start" x="403.992" y="-378.206" font-family="Arial" font-size="10.00" fill="black">*</text>
<text text-anchor="start" x="251.972" y="-478.698" font-family="Arial" font-size="10.00" fill="black">0..1</text>
</g>
<!-- 52 -->
<g id="node14" class="node"><defs>
<linearGradient id="l_14" gradientUnits="userSpaceOnUse" x1="453" y1="-489" x2="453" y2="-525">
<stop offset="0" style="stop-color:#ffffbb;stop-opacity:1.;"/>
<stop offset="1" style="stop-color:#ffffee;stop-opacity:1.;"/>
</linearGradient>
</defs>
<polygon fill="url(#l_14)" stroke="black" points="541.5,-525 364.5,-525 364.5,-489 541.5,-489 541.5,-525"/>
<text text-anchor="start" x="375" y="-505.2" font-family="Arial" font-weight="bold" font-size="11.00" fill="black"><a fill="navy" href="../reference/Instrumentation/InstrumentationLoopFunction.html" target="_parent">InstrumentationLoopFunction</a></text>
</g>
<!-- 52&#45;&gt;0 -->
<g id="edge8" class="edge"><path fill="none" stroke="#000000" d="M447.96,-488.783C446.126,-479.272 445.47,-467.495 450,-458 451.131,-455.629 452.326,-453.286 453.58,-450.972"/>
<polygon fill="#000000" stroke="#000000" points="458.703,-442.184 457.554,-453.09 456.185,-446.504 453.667,-450.823 453.667,-450.823 453.667,-450.823 456.185,-446.504 449.779,-448.557 458.703,-442.184 458.703,-442.184"/>
<text text-anchor="start" x="452" y="-462.5" font-family="Arial" font-size="10.00" fill="black"><a fill="navy" href="../reference/Instrumentation/InstrumentationLoopFunction.html#dexpi-instrumentation-instrumentationloopfunction-processinstrumentationfunctions" target="_parent">ProcessInstrumentationFunctions</a></text>
<text text-anchor="start" x="450.703" y="-445.184" font-family="Arial" font-size="10.00" fill="black">*</text>
<text text-anchor="start" x="418.96" y="-478.783" font-family="Arial" font-size="10.00" fill="black">0..1</text>
</g>
<!-- 55 -->
<g id="node15" class="node"><defs>
<linearGradient id="l_15" gradientUnits="userSpaceOnUse" x1="615" y1="-663.5" x2="615" y2="-699.5">
<stop offset="0" style="stop-color:#ffffbb;stop-opacity:1.;"/>
<stop offset="1" style="stop-color:#ffffee;stop-opacity:1.;"/>
</linearGradient>
</defs>
<polygon fill="url(#l_15)" stroke="black" points="689.5,-699.5 540.5,-699.5 540.5,-663.5 689.5,-663.5 689.5,-699.5"/>
<text text-anchor="start" x="551" y="-679.7" font-family="Arial" font-weight="bold" font-size="11.00" fill="black"><a fill="navy" href="../reference/Graphics/AttributeRepresentation.html" target="_parent">AttributeRepresentation</a></text>
</g>
<!-- 55&#45;&gt;23 -->
<g id="edge9" class="edge"><path fill="none" stroke="#000000" d="M604.395,-663.243C596.33,-650.119 585.099,-631.843 575.952,-616.958"/>
<polygon fill="#000000" stroke="#000000" points="570.572,-608.204 579.642,-614.367 573.19,-612.463 575.808,-616.723 575.808,-616.723 575.808,-616.723 573.19,-612.463 571.974,-619.079 570.572,-608.204 570.572,-608.204"/>
<text text-anchor="start" x="592.5" y="-628.5" font-family="Arial" font-size="10.00" fill="black"><a fill="navy" href="../reference/Graphics/AttributeRepresentation.html#dexpi-graphics-attributerepresentation-object" target="_parent">Object</a></text>
<text text-anchor="start" x="562.572" y="-611.204" font-family="Arial" font-size="10.00" fill="black"></text>
<text text-anchor="start" x="588.395" y="-653.243" font-family="Arial" font-size="10.00" fill="black">*</text>
</g>
<!-- 58 -->
<g id="node16" class="node"><defs>
<linearGradient id="l_16" gradientUnits="userSpaceOnUse" x1="454" y1="-663.5" x2="454" y2="-699.5">
<stop offset="0" style="stop-color:#ffffbb;stop-opacity:1.;"/>
<stop offset="1" style="stop-color:#ffffee;stop-opacity:1.;"/>
</linearGradient>
</defs>
<polygon fill="url(#l_16)" stroke="black" points="522.5,-699.5 385.5,-699.5 385.5,-663.5 522.5,-663.5 522.5,-699.5"/>
<text text-anchor="start" x="396" y="-679.7" font-family="Arial" font-weight="bold" font-size="11.00" fill="black"><a fill="navy" href="../reference/Graphics/RepresentationGroup.html" target="_parent">RepresentationGroup</a></text>
</g>
<!-- 58&#45;&gt;23 -->
<g id="edge10" class="edge"><path fill="none" stroke="#000000" d="M474.438,-663.243C490.715,-649.5 513.683,-630.108 531.724,-614.875"/>
<polygon fill="#000000" stroke="#000000" points="539.625,-608.204 534.887,-618.093 535.805,-611.429 531.984,-614.655 531.984,-614.655 531.984,-614.655 535.805,-611.429 529.081,-611.217 539.625,-608.204 539.625,-608.204"/>
<text text-anchor="start" x="522" y="-628.5" font-family="Arial" font-size="10.00" fill="black"><a fill="navy" href="../reference/Graphics/RepresentationGroup.html#dexpi-graphics-representationgroup-represents" target="_parent">Represents</a></text>
<text text-anchor="start" x="531.625" y="-611.204" font-family="Arial" font-size="10.00" fill="black"></text>
<text text-anchor="start" x="458.438" y="-653.243" font-family="Arial" font-size="10.00" fill="black">*</text>
</g>
<!-- 27&#45;inner&#45;node&#45;&gt;0 -->
<g id="edge15" class="edge"><path fill="none" stroke="black" d="M560.033,-505.874C560.361,-504.629 563.17,-494.5 569,-489 581.441,-477.262 594.101,-486.948 604,-473 610.629,-463.661 615.409,-453.135 618.777,-442.097"/>
</g>
<!-- 28&#45;inner&#45;node&#45;&gt;0 -->
<g id="edge17" class="edge"><path fill="none" stroke="black" d="M717.928,-505.867C716.756,-503.712 701.547,-475.726 683.332,-442.21"/>
</g>
<!-- 29&#45;inner&#45;node&#45;&gt;0 -->
<g id="edge19" class="edge"><path fill="none" stroke="black" d="M846.948,-0.998097C844.757,-0.921504 774.41,1.25405 741,-34 693.693,-83.9176 729.994,-120.746 703,-184 700.76,-189.25 698.333,-194.531 695.764,-199.805"/>
</g>
<!-- 30&#45;inner&#45;node&#45;&gt;0 -->
<g id="edge21" class="edge"><path fill="none" stroke="black" d="M1057.22,-0.9836C1061.66,-0.66087 1133.26,3.91045 1161,-34 1170.45,-46.9117 1169.48,-56.4331 1161,-70 1088.1,-186.6 945.204,-249.473 824.293,-282.999"/>
</g>
<!-- 31&#45;inner&#45;node&#45;&gt;0 -->
<g id="edge23" class="edge"><path fill="none" stroke="black" d="M854.957,-505.966C853.529,-504.858 816.882,-476.406 772.818,-442.196"/>
</g>
</g>
</svg>