<!DOCTYPE svg PUBLIC "-//W3C//DTD SVG 1.1//EN" "http://www.w3.org/Graphics/SVG/1.1/DTD/svg11.dtd">
<!-- Generated by graphviz version 2.38.0 (20140413.2041)
 --><!-- Title: G Pages: 1 --><svg xmlns="http://www.w3.org/2000/svg" xmlns:xlink="http://www.w3.org/1999/xlink" width="960pt" height="335pt" viewBox="0.00 0.00 960.00 335.00">
<g id="graph0" class="graph" transform="scale(1 1) rotate(0) translate(4 331)">
<!-- 0 -->
<g id="node1" class="node"><defs>
<linearGradient id="l_0" gradientUnits="userSpaceOnUse" x1="550.5" y1="-4.26326e-014" x2="550.5" y2="-92">
<stop offset="0" style="stop-color:#ffffbb;stop-opacity:1.;"/>
<stop offset="1" style="stop-color:#ffffee;stop-opacity:1.;"/>
</linearGradient>
</defs>
<polygon fill="url(#l_0)" stroke="black" points="707.5,-92 393.5,-92 393.5,-0 707.5,-0 707.5,-92"/>
<text text-anchor="start" x="511.5" y="-78.2" font-family="Arial" font-weight="bold" font-size="11.00" fill="black">PropertyBreak</text>
<text text-anchor="start" x="403.5" y="-54" font-family="Arial" font-size="10.00" fill="black"><a fill="navy" href="../reference/Piping/PropertyBreak.html#dexpi-piping-propertybreak-compositionbreak" target="_parent">CompositionBreak</a>&#160;:</text>
<text text-anchor="start" x="513.5" y="-54" font-family="Arial" font-size="10.00" fill="black"><a fill="navy" href="../reference/Enumerations/CompositionBreakClassification.html" target="_parent">CompositionBreakClassification</a>&#160;[0..1]</text>
<text text-anchor="start" x="403.5" y="-39" font-family="Arial" font-size="10.00" fill="black"><a fill="navy" href="../reference/Piping/PropertyBreak.html#dexpi-piping-propertybreak-insulationbreak" target="_parent">InsulationBreak</a>&#160;:</text>
<text text-anchor="start" x="513.5" y="-39" font-family="Arial" font-size="10.00" fill="black"><a fill="navy" href="../reference/Enumerations/InsulationBreakClassification.html" target="_parent">InsulationBreakClassification</a>&#160;[0..1]</text>
<text text-anchor="start" x="403.5" y="-24" font-family="Arial" font-size="10.00" fill="black"><a fill="navy" href="../reference/Piping/PropertyBreak.html#dexpi-piping-propertybreak-nominaldiameterbreak" target="_parent">NominalDiameterBreak</a>&#160;:</text>
<text text-anchor="start" x="513.5" y="-24" font-family="Arial" font-size="10.00" fill="black"><a fill="navy" href="../reference/Enumerations/NominalDiameterBreakClassification.html" target="_parent">NominalDiameterBreakClassification</a>&#160;[0..1]</text>
<text text-anchor="start" x="403.5" y="-9" font-family="Arial" font-size="10.00" fill="black"><a fill="navy" href="../reference/Piping/PropertyBreak.html#dexpi-piping-propertybreak-pipingclassbreak" target="_parent">PipingClassBreak</a>&#160;:</text>
<text text-anchor="start" x="513.5" y="-9" font-family="Arial" font-size="10.00" fill="black"><a fill="navy" href="../reference/Enumerations/PipingClassBreakClassification.html" target="_parent">PipingClassBreakClassification</a>&#160;[0..1]</text>
<polygon fill="black" stroke="black" points="707.5,-72.0 393.5,-72.0 393.5,-72.0 707.5,-72.0 707.5,-72.0"/>
</g>
<!-- 9 -->
<g id="node2" class="node"><defs>
<linearGradient id="l_1" gradientUnits="userSpaceOnUse" x1="148.5" y1="-208" x2="148.5" y2="-244">
<stop offset="0" style="stop-color:#ffffbb;stop-opacity:1.;"/>
<stop offset="1" style="stop-color:#ffffee;stop-opacity:1.;"/>
</linearGradient>
</defs>
<polygon fill="url(#l_1)" stroke="black" points="206,-244 91,-244 91,-208 206,-208 206,-244"/>
<text text-anchor="start" x="101.5" y="-224.2" font-family="Arial" font-weight="bold" font-style="italic" font-size="11.00" fill="black"><a fill="navy" href="../reference/DexpiModel/ConceptualObject.html" target="_parent">ConceptualObject</a></text>
</g>
<!-- 15&#45;inner&#45;node -->
<!-- 9&#45;&gt;15&#45;inner&#45;node -->
<g id="edge10" class="edge"><path fill="none" stroke="black" d="M148.5,-197.649C148.5,-174.987 148.5,-146.163 148.5,-144.116L148.573,-141.983"/>
<polygon fill="none" stroke="black" points="145,-197.822 148.5,-207.822 152,-197.822 145,-197.822"/>
</g>
<!-- 10 -->
<g id="node3" class="node"><defs>
<linearGradient id="l_2" gradientUnits="userSpaceOnUse" x1="296.5" y1="-208" x2="296.5" y2="-244">
<stop offset="0" style="stop-color:#ffffbb;stop-opacity:1.;"/>
<stop offset="1" style="stop-color:#ffffee;stop-opacity:1.;"/>
</linearGradient>
</defs>
<polygon fill="url(#l_2)" stroke="black" points="368.5,-244 224.5,-244 224.5,-208 368.5,-208 368.5,-244"/>
<text text-anchor="start" x="234.5" y="-224.2" font-family="Arial" font-weight="bold" font-style="italic" font-size="11.00" fill="black"><a fill="navy" href="../reference/Customization/CustomAttributeOwner.html" target="_parent">CustomAttributeOwner</a></text>
</g>
<!-- 29 -->
<g id="node10" class="node"><defs>
<linearGradient id="l_3" gradientUnits="userSpaceOnUse" x1="369.5" y1="-125" x2="369.5" y2="-161">
<stop offset="0" style="stop-color:#ffffbb;stop-opacity:1.;"/>
<stop offset="1" style="stop-color:#ffffee;stop-opacity:1.;"/>
</linearGradient>
</defs>
<polygon fill="url(#l_3)" stroke="black" points="424,-161 315,-161 315,-125 424,-125 424,-161"/>
<text text-anchor="start" x="325.5" y="-141.2" font-family="Arial" font-weight="bold" font-style="italic" font-size="11.00" fill="black"><a fill="navy" href="../reference/Customization/CustomAttribute.html" target="_parent">CustomAttribute</a></text>
</g>
<!-- 10&#45;&gt;29 -->
<g id="edge3" class="edge"><path fill="none" stroke="#000000" d="M320.055,-198.864C328.755,-189.21 338.582,-178.306 347.17,-168.777"/>
<polygon fill="#000000" stroke="#000000" points="320.015,-198.908 318.97,-206.043 311.981,-207.822 313.027,-200.687 320.015,-198.908"/>
<polygon fill="#000000" stroke="#000000" points="354.041,-161.153 350.689,-171.594 350.694,-164.867 347.346,-168.582 347.346,-168.582 347.346,-168.582 350.694,-164.867 344.003,-165.569 354.041,-161.153 354.041,-161.153"/>
<text text-anchor="start" x="342.5" y="-181.5" font-family="Arial" font-size="10.00" fill="black"><a fill="navy" href="../reference/Customization/CustomAttributeOwner.html#dexpi-customization-customattributeowner-customattributes" target="_parent">CustomAttributes</a></text>
<text text-anchor="start" x="346.041" y="-164.153" font-family="Arial" font-size="10.00" fill="black">*</text>
<text text-anchor="start" x="282.981" y="-197.822" font-family="Arial" font-size="10.00" fill="black">0..1</text>
</g>
<!-- 16&#45;inner&#45;node -->
<!-- 10&#45;&gt;16&#45;inner&#45;node -->
<g id="edge12" class="edge"><path fill="none" stroke="black" d="M296.5,-197.649C296.5,-174.987 296.5,-146.163 296.5,-144.116L296.529,-141.869"/>
<polygon fill="none" stroke="black" points="293,-197.822 296.5,-207.822 300,-197.822 293,-197.822"/>
</g>
<!-- 11 -->
<g id="node4" class="node"><defs>
<linearGradient id="l_4" gradientUnits="userSpaceOnUse" x1="470.5" y1="-208" x2="470.5" y2="-244">
<stop offset="0" style="stop-color:#ffffbb;stop-opacity:1.;"/>
<stop offset="1" style="stop-color:#ffffee;stop-opacity:1.;"/>
</linearGradient>
</defs>
<polygon fill="url(#l_4)" stroke="black" points="554.5,-244 386.5,-244 386.5,-208 554.5,-208 554.5,-244"/>
<text text-anchor="start" x="396.5" y="-224.2" font-family="Arial" font-weight="bold" font-style="italic" font-size="11.00" fill="black"><a fill="navy" href="../reference/Piping/PipingNetworkSegmentItem.html" target="_parent">PipingNetworkSegmentItem</a></text>
</g>
<!-- 17&#45;inner&#45;node -->
<!-- 11&#45;&gt;17&#45;inner&#45;node -->
<g id="edge14" class="edge"><path fill="none" stroke="black" d="M470.5,-197.649C470.5,-174.987 470.5,-146.163 470.5,-144.116L470.558,-141.931"/>
<polygon fill="none" stroke="black" points="467,-197.822 470.5,-207.822 474,-197.822 467,-197.822"/>
</g>
<!-- 12 -->
<g id="node5" class="node"><defs>
<linearGradient id="l_5" gradientUnits="userSpaceOnUse" x1="631.5" y1="-208" x2="631.5" y2="-244">
<stop offset="0" style="stop-color:#ffffbb;stop-opacity:1.;"/>
<stop offset="1" style="stop-color:#ffffee;stop-opacity:1.;"/>
</linearGradient>
</defs>
<polygon fill="url(#l_5)" stroke="black" points="690,-244 573,-244 573,-208 690,-208 690,-244"/>
<text text-anchor="start" x="583.5" y="-224.2" font-family="Arial" font-weight="bold" font-style="italic" font-size="11.00" fill="black"><a fill="navy" href="../reference/Piping/PipingNodeOwner.html" target="_parent">PipingNodeOwner</a></text>
</g>
<!-- 35 -->
<g id="node12" class="node"><defs>
<linearGradient id="l_6" gradientUnits="userSpaceOnUse" x1="691.5" y1="-125" x2="691.5" y2="-161">
<stop offset="0" style="stop-color:#ffffbb;stop-opacity:1.;"/>
<stop offset="1" style="stop-color:#ffffee;stop-opacity:1.;"/>
</linearGradient>
</defs>
<polygon fill="url(#l_6)" stroke="black" points="733,-161 650,-161 650,-125 733,-125 733,-161"/>
<text text-anchor="start" x="660.5" y="-141.2" font-family="Arial" font-weight="bold" font-size="11.00" fill="black"><a fill="navy" href="../reference/Piping/PipingNode.html" target="_parent">PipingNode</a></text>
</g>
<!-- 12&#45;&gt;35 -->
<g id="edge5" class="edge"><path fill="none" stroke="#000000" d="M651.4,-198.135C658.244,-188.896 665.88,-178.586 672.638,-169.463"/>
<polygon fill="#000000" stroke="#000000" points="651.367,-198.179 651.01,-205.382 644.224,-207.822 644.582,-200.62 651.367,-198.179"/>
<polygon fill="#000000" stroke="#000000" points="678.794,-161.153 676.458,-171.867 675.818,-165.171 672.842,-169.189 672.842,-169.189 672.842,-169.189 675.818,-165.171 669.226,-166.51 678.794,-161.153 678.794,-161.153"/>
<text text-anchor="start" x="669.5" y="-181.5" font-family="Arial" font-size="10.00" fill="black"><a fill="navy" href="../reference/Piping/PipingNodeOwner.html#dexpi-piping-pipingnodeowner-nodes" target="_parent">Nodes</a></text>
<text text-anchor="start" x="670.794" y="-164.153" font-family="Arial" font-size="10.00" fill="black">*</text>
<text text-anchor="start" x="615.224" y="-197.822" font-family="Arial" font-size="10.00" fill="black">0..1</text>
</g>
<!-- 18&#45;inner&#45;node -->
<!-- 12&#45;&gt;18&#45;inner&#45;node -->
<g id="edge16" class="edge"><path fill="none" stroke="black" d="M631.5,-197.649C631.5,-174.987 631.5,-146.163 631.5,-144.116L631.441,-141.931"/>
<polygon fill="none" stroke="black" points="628,-197.822 631.5,-207.822 635,-197.822 628,-197.822"/>
</g>
<!-- 13 -->
<g id="node6" class="node"><defs>
<linearGradient id="l_7" gradientUnits="userSpaceOnUse" x1="765.5" y1="-208" x2="765.5" y2="-244">
<stop offset="0" style="stop-color:#ffffbb;stop-opacity:1.;"/>
<stop offset="1" style="stop-color:#ffffee;stop-opacity:1.;"/>
</linearGradient>
</defs>
<polygon fill="url(#l_7)" stroke="black" points="822.5,-244 708.5,-244 708.5,-208 822.5,-208 822.5,-244"/>
<text text-anchor="start" x="718.5" y="-224.2" font-family="Arial" font-weight="bold" font-style="italic" font-size="11.00" fill="black"><a fill="navy" href="../reference/Piping/PipingSourceItem.html" target="_parent">PipingSourceItem</a></text>
</g>
<!-- 19&#45;inner&#45;node -->
<!-- 13&#45;&gt;19&#45;inner&#45;node -->
<g id="edge18" class="edge"><path fill="none" stroke="black" d="M765.5,-197.649C765.5,-174.987 765.5,-146.163 765.5,-144.116L765.356,-141.878"/>
<polygon fill="none" stroke="black" points="762,-197.822 765.5,-207.822 769,-197.822 762,-197.822"/>
</g>
<!-- 14 -->
<g id="node7" class="node"><defs>
<linearGradient id="l_8" gradientUnits="userSpaceOnUse" x1="896.5" y1="-208" x2="896.5" y2="-244">
<stop offset="0" style="stop-color:#ffffbb;stop-opacity:1.;"/>
<stop offset="1" style="stop-color:#ffffee;stop-opacity:1.;"/>
</linearGradient>
</defs>
<polygon fill="url(#l_8)" stroke="black" points="952,-244 841,-244 841,-208 952,-208 952,-244"/>
<text text-anchor="start" x="851.5" y="-224.2" font-family="Arial" font-weight="bold" font-style="italic" font-size="11.00" fill="black"><a fill="navy" href="../reference/Piping/PipingTargetItem.html" target="_parent">PipingTargetItem</a></text>
</g>
<!-- 20&#45;inner&#45;node -->
<!-- 14&#45;&gt;20&#45;inner&#45;node -->
<g id="edge20" class="edge"><path fill="none" stroke="black" d="M896.5,-197.649C896.5,-174.987 896.5,-146.163 896.5,-144.116L896.437,-141.983"/>
<polygon fill="none" stroke="black" points="893,-197.822 896.5,-207.822 900,-197.822 893,-197.822"/>
</g>
<!-- 23 -->
<g id="node8" class="node"><defs>
<linearGradient id="l_9" gradientUnits="userSpaceOnUse" x1="229.5" y1="-291" x2="229.5" y2="-327">
<stop offset="0" style="stop-color:#ffffbb;stop-opacity:1.;"/>
<stop offset="1" style="stop-color:#ffffee;stop-opacity:1.;"/>
</linearGradient>
</defs>
<polygon fill="url(#l_9)" stroke="black" points="304,-327 155,-327 155,-291 304,-291 304,-327"/>
<text text-anchor="start" x="165.5" y="-307.2" font-family="Arial" font-weight="bold" font-size="11.00" fill="black"><a fill="navy" href="../reference/Graphics/AttributeRepresentation.html" target="_parent">AttributeRepresentation</a></text>
</g>
<!-- 23&#45;&gt;9 -->
<g id="edge1" class="edge"><path fill="none" stroke="#000000" d="M212.322,-290.822C200.831,-279.331 185.541,-264.041 172.807,-251.307"/>
<polygon fill="#000000" stroke="#000000" points="165.653,-244.153 175.906,-248.042 169.189,-247.689 172.724,-251.224 172.724,-251.224 172.724,-251.224 169.189,-247.689 169.542,-254.406 165.653,-244.153 165.653,-244.153"/>
<text text-anchor="start" x="199" y="-264.5" font-family="Arial" font-size="10.00" fill="black"><a fill="navy" href="../reference/Graphics/AttributeRepresentation.html#dexpi-graphics-attributerepresentation-object" target="_parent">Object</a></text>
<text text-anchor="start" x="157.653" y="-247.153" font-family="Arial" font-size="10.00" fill="black"></text>
<text text-anchor="start" x="196.322" y="-280.822" font-family="Arial" font-size="10.00" fill="black">*</text>
</g>
<!-- 26 -->
<g id="node9" class="node"><defs>
<linearGradient id="l_10" gradientUnits="userSpaceOnUse" x1="68.5" y1="-291" x2="68.5" y2="-327">
<stop offset="0" style="stop-color:#ffffbb;stop-opacity:1.;"/>
<stop offset="1" style="stop-color:#ffffee;stop-opacity:1.;"/>
</linearGradient>
</defs>
<polygon fill="url(#l_10)" stroke="black" points="137,-327 0,-327 0,-291 137,-291 137,-327"/>
<text text-anchor="start" x="10.5" y="-307.2" font-family="Arial" font-weight="bold" font-size="11.00" fill="black"><a fill="navy" href="../reference/Graphics/RepresentationGroup.html" target="_parent">RepresentationGroup</a></text>
</g>
<!-- 26&#45;&gt;9 -->
<g id="edge2" class="edge"><path fill="none" stroke="#000000" d="M85.4659,-290.822C96.8149,-279.331 111.916,-264.041 124.493,-251.307"/>
<polygon fill="#000000" stroke="#000000" points="131.559,-244.153 127.733,-254.43 128.045,-247.711 124.531,-251.268 124.531,-251.268 124.531,-251.268 128.045,-247.711 121.33,-248.106 131.559,-244.153 131.559,-244.153"/>
<text text-anchor="start" x="118.5" y="-264.5" font-family="Arial" font-size="10.00" fill="black"><a fill="navy" href="../reference/Graphics/RepresentationGroup.html#dexpi-graphics-representationgroup-represents" target="_parent">Represents</a></text>
<text text-anchor="start" x="123.559" y="-247.153" font-family="Arial" font-size="10.00" fill="black"></text>
<text text-anchor="start" x="69.4659" y="-280.822" font-family="Arial" font-size="10.00" fill="black">*</text>
</g>
<!-- 32 -->
<g id="node11" class="node"><defs>
<linearGradient id="l_11" gradientUnits="userSpaceOnUse" x1="669.5" y1="-291" x2="669.5" y2="-327">
<stop offset="0" style="stop-color:#ffffbb;stop-opacity:1.;"/>
<stop offset="1" style="stop-color:#ffffee;stop-opacity:1.;"/>
</linearGradient>
</defs>
<polygon fill="url(#l_11)" stroke="black" points="742.5,-327 596.5,-327 596.5,-291 742.5,-291 742.5,-327"/>
<text text-anchor="start" x="606.5" y="-307.2" font-family="Arial" font-weight="bold" font-size="11.00" fill="black"><a fill="navy" href="../reference/Piping/PipingNetworkSegment.html" target="_parent">PipingNetworkSegment</a></text>
</g>
<!-- 32&#45;&gt;11 -->
<g id="edge4" class="edge"><path fill="none" stroke="#000000" d="M616.159,-286.288C586.887,-274.374 550.769,-259.672 521.822,-247.89"/>
<polygon fill="#000000" stroke="#000000" points="616.183,-286.298 623.248,-284.855 627.297,-290.822 620.232,-292.265 616.183,-286.298"/>
<polygon fill="#000000" stroke="#000000" points="512.3,-244.014 523.259,-243.616 516.931,-245.899 521.562,-247.784 521.562,-247.784 521.562,-247.784 516.931,-245.899 519.866,-251.952 512.3,-244.014 512.3,-244.014"/>
<text text-anchor="start" x="591" y="-264.5" font-family="Arial" font-size="10.00" fill="black"><a fill="navy" href="../reference/Piping/PipingNetworkSegment.html#dexpi-piping-pipingnetworksegment-items" target="_parent">Items</a></text>
<text text-anchor="start" x="504.3" y="-247.014" font-family="Arial" font-size="10.00" fill="black">*</text>
<text text-anchor="start" x="598.297" y="-280.822" font-family="Arial" font-size="10.00" fill="black">0..1</text>
</g>
<!-- 32&#45;&gt;13 -->
<g id="edge7" class="edge"><path fill="none" stroke="#000000" d="M665.357,-290.932C663.97,-281.005 664.128,-268.764 670.5,-260 674.631,-254.318 685.551,-248.948 698.585,-244.254"/>
<polygon fill="#000000" stroke="#000000" points="708.382,-240.962 700.336,-248.413 703.642,-242.555 698.903,-244.148 698.903,-244.148 698.903,-244.148 703.642,-242.555 697.469,-239.882 708.382,-240.962 708.382,-240.962"/>
<text text-anchor="start" x="672.5" y="-264.5" font-family="Arial" font-size="10.00" fill="black"><a fill="navy" href="../reference/Piping/PipingNetworkSegment.html#dexpi-piping-pipingnetworksegment-sourceitem" target="_parent">SourceItem</a></text>
<text text-anchor="start" x="687.382" y="-243.962" font-family="Arial" font-size="10.00" fill="black">0..1</text>
<text text-anchor="start" x="636.357" y="-280.932" font-family="Arial" font-size="10.00" fill="black">0..1</text>
</g>
<!-- 32&#45;&gt;14 -->
<g id="edge8" class="edge"><path fill="none" stroke="#000000" d="M698.454,-290.904C706.891,-285.848 716.099,-280.257 724.5,-275 734.845,-268.526 736.18,-264.561 747.5,-260 780.134,-246.85 792.565,-251.507 831.097,-243.892"/>
<polygon fill="#000000" stroke="#000000" points="840.891,-241.808 832.047,-248.29 836.001,-242.848 831.11,-243.889 831.11,-243.889 831.11,-243.889 836.001,-242.848 830.174,-239.487 840.891,-241.808 840.891,-241.808"/>
<text text-anchor="start" x="749.5" y="-264.5" font-family="Arial" font-size="10.00" fill="black"><a fill="navy" href="../reference/Piping/PipingNetworkSegment.html#dexpi-piping-pipingnetworksegment-targetitem" target="_parent">TargetItem</a></text>
<text text-anchor="start" x="819.891" y="-244.808" font-family="Arial" font-size="10.00" fill="black">0..1</text>
<text text-anchor="start" x="669.454" y="-280.904" font-family="Arial" font-size="10.00" fill="black">0..1</text>
</g>
<!-- 38 -->
<g id="node13" class="node"><defs>
<linearGradient id="l_12" gradientUnits="userSpaceOnUse" x1="857.5" y1="-291" x2="857.5" y2="-327">
<stop offset="0" style="stop-color:#ffffbb;stop-opacity:1.;"/>
<stop offset="1" style="stop-color:#ffffee;stop-opacity:1.;"/>
</linearGradient>
</defs>
<polygon fill="url(#l_12)" stroke="black" points="915,-327 800,-327 800,-291 915,-291 915,-327"/>
<text text-anchor="start" x="810.5" y="-307.2" font-family="Arial" font-weight="bold" font-style="italic" font-size="11.00" fill="black"><a fill="navy" href="../reference/Piping/PipingConnection.html" target="_parent">PipingConnection</a></text>
</g>
<!-- 38&#45;&gt;13 -->
<g id="edge6" class="edge"><path fill="none" stroke="#000000" d="M835.538,-290.839C829.304,-285.83 822.564,-280.28 816.5,-275 807.883,-267.497 798.721,-259.035 790.574,-251.329"/>
<polygon fill="#000000" stroke="#000000" points="783.126,-244.228 793.469,-247.871 786.745,-247.678 790.363,-251.128 790.363,-251.128 790.363,-251.128 786.745,-247.678 787.258,-254.385 783.126,-244.228 783.126,-244.228"/>
<text text-anchor="start" x="818.5" y="-264.5" font-family="Arial" font-size="10.00" fill="black"><a fill="navy" href="../reference/Piping/PipingConnection.html#dexpi-piping-pipingconnection-sourceitem" target="_parent">SourceItem</a></text>
<text text-anchor="start" x="762.126" y="-247.228" font-family="Arial" font-size="10.00" fill="black">0..1</text>
<text text-anchor="start" x="806.538" y="-280.839" font-family="Arial" font-size="10.00" fill="black">0..1</text>
</g>
<!-- 38&#45;&gt;14 -->
<g id="edge9" class="edge"><path fill="none" stroke="#000000" d="M866.474,-290.948C869.109,-285.843 871.963,-280.216 874.5,-275 877.863,-268.086 881.384,-260.55 884.599,-253.541"/>
<polygon fill="#000000" stroke="#000000" points="888.748,-244.42 888.703,-255.386 886.678,-248.971 884.607,-253.522 884.607,-253.522 884.607,-253.522 886.678,-248.971 880.511,-251.659 888.748,-244.42 888.748,-244.42"/>
<text text-anchor="start" x="883.5" y="-264.5" font-family="Arial" font-size="10.00" fill="black"><a fill="navy" href="../reference/Piping/PipingConnection.html#dexpi-piping-pipingconnection-targetitem" target="_parent">TargetItem</a></text>
<text text-anchor="start" x="867.748" y="-247.42" font-family="Arial" font-size="10.00" fill="black">0..1</text>
<text text-anchor="start" x="837.474" y="-280.948" font-family="Arial" font-size="10.00" fill="black">0..1</text>
</g>
<!-- 15&#45;inner&#45;node&#45;&gt;0 -->
<g id="edge11" class="edge"><path fill="none" stroke="black" d="M148.573,-141.983C152.097,-141.15 282.11,-110.425 393.315,-84.1456"/>
</g>
<!-- 16&#45;inner&#45;node&#45;&gt;0 -->
<g id="edge13" class="edge"><path fill="none" stroke="black" d="M296.529,-141.869C296.821,-140.584 299.35,-130.139 305.5,-125 330.763,-103.891 361.803,-88.4713 393.196,-77.2143"/>
</g>
<!-- 17&#45;inner&#45;node&#45;&gt;0 -->
<g id="edge15" class="edge"><path fill="none" stroke="black" d="M470.558,-141.931C471.793,-140.465 492.543,-115.824 512.59,-92.0179"/>
</g>
<!-- 18&#45;inner&#45;node&#45;&gt;0 -->
<g id="edge17" class="edge"><path fill="none" stroke="black" d="M631.441,-141.931C630.191,-140.465 609.182,-115.824 588.884,-92.0179"/>
</g>
<!-- 19&#45;inner&#45;node&#45;&gt;0 -->
<g id="edge19" class="edge"><path fill="none" stroke="black" d="M765.356,-141.878C763.937,-140.678 752.243,-130.897 741.5,-125 719.835,-113.108 695.973,-101.96 672.672,-92.0187"/>
</g>
<!-- 20&#45;inner&#45;node&#45;&gt;0 -->
<g id="edge21" class="edge"><path fill="none" stroke="black" d="M896.437,-141.983C893.633,-141.213 797.76,-114.889 707.663,-90.1518"/>
</g>
</g>
</svg>