<!DOCTYPE svg PUBLIC "-//W3C//DTD SVG 1.1//EN" "http://www.w3.org/Graphics/SVG/1.1/DTD/svg11.dtd">
<!-- Generated by graphviz version 2.38.0 (20140413.2041)
 --><!-- Title: G Pages: 1 --><svg xmlns="http://www.w3.org/2000/svg" xmlns:xlink="http://www.w3.org/1999/xlink" width="372pt" height="161pt" viewBox="0.00 0.00 372.14 161.00">
<g id="graph0" class="graph" transform="scale(1 1) rotate(0) translate(4 157)">
<!-- 0 -->
<g id="node1" class="node"><defs>
<linearGradient id="l_0" gradientUnits="userSpaceOnUse" x1="227" y1="-117" x2="227" y2="-153">
<stop offset="0" style="stop-color:#ffffbb;stop-opacity:1.;"/>
<stop offset="1" style="stop-color:#ffffee;stop-opacity:1.;"/>
</linearGradient>
</defs>
<polygon fill="url(#l_0)" stroke="black" points="295.5,-153 158.5,-153 158.5,-117 295.5,-117 295.5,-153"/>
<text text-anchor="start" x="169" y="-133.2" font-family="Arial" font-weight="bold" font-size="11.00" fill="black">RepresentationGroup</text>
</g>
<!-- 1 -->
<g id="node2" class="node"><defs>
<linearGradient id="l_1" gradientUnits="userSpaceOnUse" x1="51" y1="-34" x2="51" y2="-70">
<stop offset="0" style="stop-color:#ffffbb;stop-opacity:1.;"/>
<stop offset="1" style="stop-color:#ffffee;stop-opacity:1.;"/>
</linearGradient>
</defs>
<polygon fill="url(#l_1)" stroke="black" points="102,-70 0,-70 0,-34 102,-34 102,-70"/>
<text text-anchor="start" x="10" y="-50.2" font-family="Arial" font-weight="bold" font-style="italic" font-size="11.00" fill="black"><a fill="navy" href="../reference/Graphics/GraphicsGroup.html" target="_parent">GraphicsGroup</a></text>
</g>
<!-- 0&#45;&gt;1 -->
<g id="edge1" class="edge"><path fill="none" stroke="#000000" d="M173.465,-112.181C164.908,-108.538 156.182,-104.729 148,-101 129.967,-92.7821 110.329,-83.1884 93.4688,-74.7473"/>
<polygon fill="#000000" stroke="#000000" points="173.497,-112.195 180.579,-110.838 184.555,-116.855 177.473,-118.211 173.497,-112.195"/>
<polygon fill="#000000" stroke="#000000" points="84.4156,-70.1924 95.3712,-70.667 88.8821,-72.4396 93.3487,-74.6869 93.3487,-74.6869 93.3487,-74.6869 88.8821,-72.4396 91.3262,-78.7068 84.4156,-70.1924 84.4156,-70.1924"/>
<text text-anchor="start" x="150" y="-90.5" font-family="Arial" font-size="10.00" fill="black"><a fill="navy" href="../reference/Graphics/RepresentationGroup.html#dexpi-graphics-representationgroup-groups" target="_parent">Groups</a></text>
<text text-anchor="start" x="76.4156" y="-73.1924" font-family="Arial" font-size="10.00" fill="black">*</text>
<text text-anchor="start" x="155.555" y="-106.855" font-family="Arial" font-size="10.00" fill="black">0..1</text>
</g>
<!-- 7 -->
<g id="node3" class="node"><defs>
<linearGradient id="l_2" gradientUnits="userSpaceOnUse" x1="166" y1="-34" x2="166" y2="-70">
<stop offset="0" style="stop-color:#ffffbb;stop-opacity:1.;"/>
<stop offset="1" style="stop-color:#ffffee;stop-opacity:1.;"/>
</linearGradient>
</defs>
<polygon fill="url(#l_2)" stroke="black" points="212,-70 120,-70 120,-34 212,-34 212,-70"/>
<text text-anchor="start" x="130" y="-50.2" font-family="Arial" font-weight="bold" font-style="italic" font-size="11.00" fill="black"><a fill="navy" href="../reference/Graphics/NodePosition.html" target="_parent">NodePosition</a></text>
</g>
<!-- 0&#45;&gt;7 -->
<g id="edge2" class="edge"><path fill="none" stroke="#000000" d="M203.225,-107.555C201.422,-105.366 199.66,-103.163 198,-101 192.684,-94.0722 187.278,-86.2957 182.459,-79.0521"/>
<polygon fill="#000000" stroke="#000000" points="203.41,-107.772 210.348,-109.737 211.203,-116.897 204.265,-114.932 203.41,-107.772"/>
<polygon fill="#000000" stroke="#000000" points="176.72,-70.2659 185.956,-76.1774 179.454,-74.4521 182.188,-78.6383 182.188,-78.6383 182.188,-78.6383 179.454,-74.4521 178.421,-81.0991 176.72,-70.2659 176.72,-70.2659"/>
<text text-anchor="start" x="200" y="-90.5" font-family="Arial" font-size="10.00" fill="black"><a fill="navy" href="../reference/Graphics/RepresentationGroup.html#dexpi-graphics-representationgroup-nodepositions" target="_parent">NodePositions</a></text>
<text text-anchor="start" x="168.72" y="-73.2659" font-family="Arial" font-size="10.00" fill="black">*</text>
<text text-anchor="start" x="182.203" y="-106.897" font-family="Arial" font-size="10.00" fill="black">0..1</text>
</g>
<!-- 10 -->
<g id="node4" class="node"><defs>
<linearGradient id="l_3" gradientUnits="userSpaceOnUse" x1="288" y1="-34" x2="288" y2="-70">
<stop offset="0" style="stop-color:#ffffbb;stop-opacity:1.;"/>
<stop offset="1" style="stop-color:#ffffee;stop-opacity:1.;"/>
</linearGradient>
</defs>
<polygon fill="url(#l_3)" stroke="black" points="345.5,-70 230.5,-70 230.5,-34 345.5,-34 345.5,-70"/>
<text text-anchor="start" x="241" y="-50.2" font-family="Arial" font-weight="bold" font-style="italic" font-size="11.00" fill="black"><a fill="navy" href="../reference/DexpiModel/ConceptualObject.html" target="_parent">ConceptualObject</a></text>
</g>
<!-- 0&#45;&gt;10 -->
<g id="edge3" class="edge"><path fill="none" stroke="#000000" d="M250.872,-116.669C256.294,-111.995 261.711,-106.652 266,-101 270.8,-94.6743 274.871,-87.1336 278.156,-79.9244"/>
<polygon fill="#000000" stroke="#000000" points="282.144,-70.4444 282.414,-81.4069 280.205,-75.0533 278.266,-79.6621 278.266,-79.6621 278.266,-79.6621 280.205,-75.0533 274.118,-77.9173 282.144,-70.4444 282.144,-70.4444"/>
<text text-anchor="start" x="278" y="-90.5" font-family="Arial" font-size="10.00" fill="black"><a fill="navy" href="../reference/Graphics/RepresentationGroup.html#dexpi-graphics-representationgroup-represents" target="_parent">Represents</a></text>
<text text-anchor="start" x="274.144" y="-73.4444" font-family="Arial" font-size="10.00" fill="black"></text>
<text text-anchor="start" x="234.872" y="-106.669" font-family="Arial" font-size="10.00" fill="black">*</text>
</g>
<!-- 2&#45;inner&#45;node -->
<!-- 1&#45;&gt;2&#45;inner&#45;node -->
<g id="edge4" class="edge"><path fill="none" stroke="black" d="M51,-23.603C51,-12.4221 51,-1.88664 51,-1.05302L51.0511,-1.00143"/>
<polygon fill="none" stroke="black" points="47.5001,-23.7928 51,-33.7928 54.5001,-23.7929 47.5001,-23.7928"/>
</g>
<!-- 2&#45;inner&#45;node&#45;&gt;0 -->
<g id="edge5" class="edge"><path fill="none" stroke="black" d="M51.0511,-1.00143C55.3653,-1.12279 331.563,-8.9872 354,-34 374.751,-57.1332 358.768,-82.2304 334,-101 322.69,-109.571 309.129,-115.937 295.522,-120.659"/>
</g>
</g>
</svg>