<!DOCTYPE svg PUBLIC "-//W3C//DTD SVG 1.1//EN" "http://www.w3.org/Graphics/SVG/1.1/DTD/svg11.dtd">
<!-- Generated by graphviz version 2.38.0 (20140413.2041)
 --><!-- Title: G Pages: 1 --><svg xmlns="http://www.w3.org/2000/svg" xmlns:xlink="http://www.w3.org/1999/xlink" width="1141pt" height="468pt" viewBox="0.00 0.00 1140.50 468.00">
<g id="graph0" class="graph" transform="scale(1 1) rotate(0) translate(4 464)">
<!-- 0 -->
<g id="node1" class="node"><defs>
<linearGradient id="l_0" gradientUnits="userSpaceOnUse" x1="637.5" y1="-4.9738e-014" x2="637.5" y2="-122">
<stop offset="0" style="stop-color:#ffffbb;stop-opacity:1.;"/>
<stop offset="1" style="stop-color:#ffffee;stop-opacity:1.;"/>
</linearGradient>
</defs>
<polygon fill="url(#l_0)" stroke="black" points="778,-122 497,-122 497,7.10543e-015 778,7.10543e-015 778,-122"/>
<text text-anchor="start" x="583" y="-108.2" font-family="Arial" font-weight="bold" font-size="11.00" fill="black">SafetyValveOrFitting</text>
<text text-anchor="start" x="507.5" y="-84" font-family="Arial" font-size="10.00" fill="black"><a fill="navy" href="../reference/Piping/SafetyValveOrFitting.html#dexpi-piping-safetyvalveorfitting-flowinpipingclasscode" target="_parent">FlowInPipingClassCode</a>&#160;:</text>
<text text-anchor="start" x="640.5" y="-84" font-family="Arial" font-size="10.00" fill="black"><a fill="navy" href="../reference/DataTypes/NullableString.html" target="_parent">NullableString</a>&#160;[0..1]</text>
<text text-anchor="start" x="507.5" y="-69" font-family="Arial" font-size="10.00" fill="black"><a fill="navy" href="../reference/Piping/SafetyValveOrFitting.html#dexpi-piping-safetyvalveorfitting-flowoutpipingclasscode" target="_parent">FlowOutPipingClassCode</a>&#160;:</text>
<text text-anchor="start" x="640.5" y="-69" font-family="Arial" font-size="10.00" fill="black"><a fill="navy" href="../reference/DataTypes/NullableString.html" target="_parent">NullableString</a>&#160;[0..1]</text>
<text text-anchor="start" x="507.5" y="-54" font-family="Arial" font-size="10.00" fill="black"><a fill="navy" href="../reference/Piping/SafetyValveOrFitting.html#dexpi-piping-safetyvalveorfitting-locationregistrationnumber" target="_parent">LocationRegistrationNumber</a>&#160;:</text>
<text text-anchor="start" x="640.5" y="-54" font-family="Arial" font-size="10.00" fill="black"><a fill="navy" href="../reference/DataTypes/NullableString.html" target="_parent">NullableString</a>&#160;[0..1]</text>
<text text-anchor="start" x="507.5" y="-39" font-family="Arial" font-size="10.00" fill="black"><a fill="navy" href="../reference/Piping/SafetyValveOrFitting.html#dexpi-piping-safetyvalveorfitting-positionnumber" target="_parent">PositionNumber</a>&#160;:</text>
<text text-anchor="start" x="640.5" y="-39" font-family="Arial" font-size="10.00" fill="black"><a fill="navy" href="../reference/DataTypes/NullableString.html" target="_parent">NullableString</a>&#160;[0..1]</text>
<text text-anchor="start" x="507.5" y="-24" font-family="Arial" font-size="10.00" fill="black"><a fill="navy" href="../reference/Piping/SafetyValveOrFitting.html#dexpi-piping-safetyvalveorfitting-setpressurehigh" target="_parent">SetPressureHigh</a>&#160;:</text>
<text text-anchor="start" x="640.5" y="-24" font-family="Arial" font-size="10.00" fill="black"><a fill="navy" href="../reference/PhysicalQuantities/NullablePressureGauge.html" target="_parent">NullablePressureGauge</a>&#160;[0..1]</text>
<text text-anchor="start" x="507.5" y="-9" font-family="Arial" font-size="10.00" fill="black"><a fill="navy" href="../reference/Piping/SafetyValveOrFitting.html#dexpi-piping-safetyvalveorfitting-setpressurelow" target="_parent">SetPressureLow</a>&#160;:</text>
<text text-anchor="start" x="640.5" y="-9" font-family="Arial" font-size="10.00" fill="black"><a fill="navy" href="../reference/PhysicalQuantities/NullablePressureGauge.html" target="_parent">NullablePressureGauge</a>&#160;[0..1]</text>
<polygon fill="black" stroke="black" points="778.0,-102.0 497.0,-102.0 497.0,-102.0 778.0,-102.0 778.0,-102.0"/>
</g>
<!-- 9 -->
<g id="node2" class="node"><defs>
<linearGradient id="l_1" gradientUnits="userSpaceOnUse" x1="637.5" y1="-189" x2="637.5" y2="-225">
<stop offset="0" style="stop-color:#ffffbb;stop-opacity:1.;"/>
<stop offset="1" style="stop-color:#ffffee;stop-opacity:1.;"/>
</linearGradient>
</defs>
<polygon fill="url(#l_1)" stroke="black" points="696,-225 579,-225 579,-189 696,-189 696,-225"/>
<text text-anchor="start" x="589.5" y="-205.2" font-family="Arial" font-weight="bold" font-style="italic" font-size="11.00" fill="black"><a fill="navy" href="../reference/Piping/PipingComponent.html" target="_parent">PipingComponent</a></text>
</g>
<!-- 17&#45;inner&#45;node -->
<!-- 9&#45;&gt;17&#45;inner&#45;node -->
<g id="edge11" class="edge"><path fill="none" stroke="black" d="M637.5,-178.603C637.5,-167.422 637.5,-156.887 637.5,-156.053L637.5,-154.933"/>
<polygon fill="none" stroke="black" points="634,-178.793 637.5,-188.793 641,-178.793 634,-178.793"/>
</g>
<!-- 10 -->
<g id="node3" class="node"><defs>
<linearGradient id="l_2" gradientUnits="userSpaceOnUse" x1="154.5" y1="-341" x2="154.5" y2="-377">
<stop offset="0" style="stop-color:#ffffbb;stop-opacity:1.;"/>
<stop offset="1" style="stop-color:#ffffee;stop-opacity:1.;"/>
</linearGradient>
</defs>
<polygon fill="url(#l_2)" stroke="black" points="212,-377 97,-377 97,-341 212,-341 212,-377"/>
<text text-anchor="start" x="107.5" y="-357.2" font-family="Arial" font-weight="bold" font-style="italic" font-size="11.00" fill="black"><a fill="navy" href="../reference/DexpiModel/ConceptualObject.html" target="_parent">ConceptualObject</a></text>
</g>
<!-- 18&#45;inner&#45;node -->
<!-- 10&#45;&gt;18&#45;inner&#45;node -->
<g id="edge13" class="edge"><path fill="none" stroke="black" d="M154.5,-330.649C154.5,-307.987 154.5,-279.163 154.5,-277.116L154.578,-274.984"/>
<polygon fill="none" stroke="black" points="151,-330.822 154.5,-340.822 158,-330.822 151,-330.822"/>
</g>
<!-- 11 -->
<g id="node4" class="node"><defs>
<linearGradient id="l_3" gradientUnits="userSpaceOnUse" x1="302.5" y1="-341" x2="302.5" y2="-377">
<stop offset="0" style="stop-color:#ffffbb;stop-opacity:1.;"/>
<stop offset="1" style="stop-color:#ffffee;stop-opacity:1.;"/>
</linearGradient>
</defs>
<polygon fill="url(#l_3)" stroke="black" points="374.5,-377 230.5,-377 230.5,-341 374.5,-341 374.5,-377"/>
<text text-anchor="start" x="240.5" y="-357.2" font-family="Arial" font-weight="bold" font-style="italic" font-size="11.00" fill="black"><a fill="navy" href="../reference/Customization/CustomAttributeOwner.html" target="_parent">CustomAttributeOwner</a></text>
</g>
<!-- 33 -->
<g id="node12" class="node"><defs>
<linearGradient id="l_4" gradientUnits="userSpaceOnUse" x1="375.5" y1="-258" x2="375.5" y2="-294">
<stop offset="0" style="stop-color:#ffffbb;stop-opacity:1.;"/>
<stop offset="1" style="stop-color:#ffffee;stop-opacity:1.;"/>
</linearGradient>
</defs>
<polygon fill="url(#l_4)" stroke="black" points="430,-294 321,-294 321,-258 430,-258 430,-294"/>
<text text-anchor="start" x="331.5" y="-274.2" font-family="Arial" font-weight="bold" font-style="italic" font-size="11.00" fill="black"><a fill="navy" href="../reference/Customization/CustomAttribute.html" target="_parent">CustomAttribute</a></text>
</g>
<!-- 11&#45;&gt;33 -->
<g id="edge3" class="edge"><path fill="none" stroke="#000000" d="M326.055,-331.864C334.755,-322.21 344.582,-311.306 353.17,-301.777"/>
<polygon fill="#000000" stroke="#000000" points="326.015,-331.908 324.97,-339.043 317.981,-340.822 319.027,-333.687 326.015,-331.908"/>
<polygon fill="#000000" stroke="#000000" points="360.041,-294.153 356.689,-304.594 356.694,-297.867 353.346,-301.582 353.346,-301.582 353.346,-301.582 356.694,-297.867 350.003,-298.569 360.041,-294.153 360.041,-294.153"/>
<text text-anchor="start" x="348.5" y="-314.5" font-family="Arial" font-size="10.00" fill="black"><a fill="navy" href="../reference/Customization/CustomAttributeOwner.html#dexpi-customization-customattributeowner-customattributes" target="_parent">CustomAttributes</a></text>
<text text-anchor="start" x="352.041" y="-297.153" font-family="Arial" font-size="10.00" fill="black">*</text>
<text text-anchor="start" x="288.981" y="-330.822" font-family="Arial" font-size="10.00" fill="black">0..1</text>
</g>
<!-- 19&#45;inner&#45;node -->
<!-- 11&#45;&gt;19&#45;inner&#45;node -->
<g id="edge15" class="edge"><path fill="none" stroke="black" d="M302.5,-330.649C302.5,-307.987 302.5,-279.163 302.5,-277.116L302.525,-274.864"/>
<polygon fill="none" stroke="black" points="299,-330.822 302.5,-340.822 306,-330.822 299,-330.822"/>
</g>
<!-- 12 -->
<g id="node5" class="node"><defs>
<linearGradient id="l_5" gradientUnits="userSpaceOnUse" x1="476.5" y1="-341" x2="476.5" y2="-377">
<stop offset="0" style="stop-color:#ffffbb;stop-opacity:1.;"/>
<stop offset="1" style="stop-color:#ffffee;stop-opacity:1.;"/>
</linearGradient>
</defs>
<polygon fill="url(#l_5)" stroke="black" points="560.5,-377 392.5,-377 392.5,-341 560.5,-341 560.5,-377"/>
<text text-anchor="start" x="402.5" y="-357.2" font-family="Arial" font-weight="bold" font-style="italic" font-size="11.00" fill="black"><a fill="navy" href="../reference/Piping/PipingNetworkSegmentItem.html" target="_parent">PipingNetworkSegmentItem</a></text>
</g>
<!-- 20&#45;inner&#45;node -->
<!-- 12&#45;&gt;20&#45;inner&#45;node -->
<g id="edge17" class="edge"><path fill="none" stroke="black" d="M476.5,-330.649C476.5,-307.987 476.5,-279.163 476.5,-277.116L476.617,-274.951"/>
<polygon fill="none" stroke="black" points="473,-330.822 476.5,-340.822 480,-330.822 473,-330.822"/>
</g>
<!-- 13 -->
<g id="node6" class="node"><defs>
<linearGradient id="l_6" gradientUnits="userSpaceOnUse" x1="637.5" y1="-341" x2="637.5" y2="-377">
<stop offset="0" style="stop-color:#ffffbb;stop-opacity:1.;"/>
<stop offset="1" style="stop-color:#ffffee;stop-opacity:1.;"/>
</linearGradient>
</defs>
<polygon fill="url(#l_6)" stroke="black" points="696,-377 579,-377 579,-341 696,-341 696,-377"/>
<text text-anchor="start" x="589.5" y="-357.2" font-family="Arial" font-weight="bold" font-style="italic" font-size="11.00" fill="black"><a fill="navy" href="../reference/Piping/PipingNodeOwner.html" target="_parent">PipingNodeOwner</a></text>
</g>
<!-- 39 -->
<g id="node14" class="node"><defs>
<linearGradient id="l_7" gradientUnits="userSpaceOnUse" x1="697.5" y1="-258" x2="697.5" y2="-294">
<stop offset="0" style="stop-color:#ffffbb;stop-opacity:1.;"/>
<stop offset="1" style="stop-color:#ffffee;stop-opacity:1.;"/>
</linearGradient>
</defs>
<polygon fill="url(#l_7)" stroke="black" points="739,-294 656,-294 656,-258 739,-258 739,-294"/>
<text text-anchor="start" x="666.5" y="-274.2" font-family="Arial" font-weight="bold" font-size="11.00" fill="black"><a fill="navy" href="../reference/Piping/PipingNode.html" target="_parent">PipingNode</a></text>
</g>
<!-- 13&#45;&gt;39 -->
<g id="edge5" class="edge"><path fill="none" stroke="#000000" d="M657.4,-331.135C664.244,-321.896 671.88,-311.586 678.638,-302.463"/>
<polygon fill="#000000" stroke="#000000" points="657.367,-331.179 657.01,-338.382 650.224,-340.822 650.582,-333.62 657.367,-331.179"/>
<polygon fill="#000000" stroke="#000000" points="684.794,-294.153 682.458,-304.867 681.818,-298.171 678.842,-302.189 678.842,-302.189 678.842,-302.189 681.818,-298.171 675.226,-299.51 684.794,-294.153 684.794,-294.153"/>
<text text-anchor="start" x="675.5" y="-314.5" font-family="Arial" font-size="10.00" fill="black"><a fill="navy" href="../reference/Piping/PipingNodeOwner.html#dexpi-piping-pipingnodeowner-nodes" target="_parent">Nodes</a></text>
<text text-anchor="start" x="676.794" y="-297.153" font-family="Arial" font-size="10.00" fill="black">*</text>
<text text-anchor="start" x="621.224" y="-330.822" font-family="Arial" font-size="10.00" fill="black">0..1</text>
</g>
<!-- 21&#45;inner&#45;node -->
<!-- 13&#45;&gt;21&#45;inner&#45;node -->
<g id="edge19" class="edge"><path fill="none" stroke="black" d="M637.5,-330.649C637.5,-307.987 637.5,-279.163 637.5,-277.116L637.5,-274.951"/>
<polygon fill="none" stroke="black" points="634,-330.822 637.5,-340.822 641,-330.822 634,-330.822"/>
</g>
<!-- 14 -->
<g id="node7" class="node"><defs>
<linearGradient id="l_8" gradientUnits="userSpaceOnUse" x1="900.5" y1="-341" x2="900.5" y2="-377">
<stop offset="0" style="stop-color:#ffffbb;stop-opacity:1.;"/>
<stop offset="1" style="stop-color:#ffffee;stop-opacity:1.;"/>
</linearGradient>
</defs>
<polygon fill="url(#l_8)" stroke="black" points="957.5,-377 843.5,-377 843.5,-341 957.5,-341 957.5,-377"/>
<text text-anchor="start" x="853.5" y="-357.2" font-family="Arial" font-weight="bold" font-style="italic" font-size="11.00" fill="black"><a fill="navy" href="../reference/Piping/PipingSourceItem.html" target="_parent">PipingSourceItem</a></text>
</g>
<!-- 22&#45;inner&#45;node -->
<!-- 14&#45;&gt;22&#45;inner&#45;node -->
<g id="edge21" class="edge"><path fill="none" stroke="black" d="M900.5,-330.649C900.5,-307.987 900.5,-279.163 900.5,-277.116L900.452,-274.988"/>
<polygon fill="none" stroke="black" points="897,-330.822 900.5,-340.822 904,-330.822 897,-330.822"/>
</g>
<!-- 15 -->
<g id="node8" class="node"><defs>
<linearGradient id="l_9" gradientUnits="userSpaceOnUse" x1="769.5" y1="-341" x2="769.5" y2="-377">
<stop offset="0" style="stop-color:#ffffbb;stop-opacity:1.;"/>
<stop offset="1" style="stop-color:#ffffee;stop-opacity:1.;"/>
</linearGradient>
</defs>
<polygon fill="url(#l_9)" stroke="black" points="825,-377 714,-377 714,-341 825,-341 825,-377"/>
<text text-anchor="start" x="724.5" y="-357.2" font-family="Arial" font-weight="bold" font-style="italic" font-size="11.00" fill="black"><a fill="navy" href="../reference/Piping/PipingTargetItem.html" target="_parent">PipingTargetItem</a></text>
</g>
<!-- 23&#45;inner&#45;node -->
<!-- 15&#45;&gt;23&#45;inner&#45;node -->
<g id="edge23" class="edge"><path fill="none" stroke="black" d="M769.5,-330.649C769.5,-307.987 769.5,-279.163 769.5,-277.116L769.369,-274.879"/>
<polygon fill="none" stroke="black" points="766,-330.822 769.5,-340.822 773,-330.822 766,-330.822"/>
</g>
<!-- 16 -->
<g id="node9" class="node"><defs>
<linearGradient id="l_10" gradientUnits="userSpaceOnUse" x1="1030.5" y1="-341" x2="1030.5" y2="-377">
<stop offset="0" style="stop-color:#ffffbb;stop-opacity:1.;"/>
<stop offset="1" style="stop-color:#ffffee;stop-opacity:1.;"/>
</linearGradient>
</defs>
<polygon fill="url(#l_10)" stroke="black" points="1085,-377 976,-377 976,-341 1085,-341 1085,-377"/>
<text text-anchor="start" x="986.5" y="-357.2" font-family="Arial" font-weight="bold" font-style="italic" font-size="11.00" fill="black"><a fill="navy" href="../reference/Instrumentation/SensingLocation.html" target="_parent">SensingLocation</a></text>
</g>
<!-- 24&#45;inner&#45;node -->
<!-- 16&#45;&gt;24&#45;inner&#45;node -->
<g id="edge25" class="edge"><path fill="none" stroke="black" d="M1030.5,-330.649C1030.5,-307.987 1030.5,-279.163 1030.5,-277.116L1030.43,-274.988"/>
<polygon fill="none" stroke="black" points="1027,-330.822 1030.5,-340.822 1034,-330.822 1027,-330.822"/>
</g>
<!-- 27 -->
<g id="node10" class="node"><defs>
<linearGradient id="l_11" gradientUnits="userSpaceOnUse" x1="74.5" y1="-424" x2="74.5" y2="-460">
<stop offset="0" style="stop-color:#ffffbb;stop-opacity:1.;"/>
<stop offset="1" style="stop-color:#ffffee;stop-opacity:1.;"/>
</linearGradient>
</defs>
<polygon fill="url(#l_11)" stroke="black" points="149,-460 0,-460 0,-424 149,-424 149,-460"/>
<text text-anchor="start" x="10.5" y="-440.2" font-family="Arial" font-weight="bold" font-size="11.00" fill="black"><a fill="navy" href="../reference/Graphics/AttributeRepresentation.html" target="_parent">AttributeRepresentation</a></text>
</g>
<!-- 27&#45;&gt;10 -->
<g id="edge1" class="edge"><path fill="none" stroke="#000000" d="M91.4659,-423.822C102.815,-412.331 117.916,-397.041 130.493,-384.307"/>
<polygon fill="#000000" stroke="#000000" points="137.559,-377.153 133.733,-387.43 134.045,-380.711 130.531,-384.268 130.531,-384.268 130.531,-384.268 134.045,-380.711 127.33,-381.106 137.559,-377.153 137.559,-377.153"/>
<text text-anchor="start" x="125" y="-397.5" font-family="Arial" font-size="10.00" fill="black"><a fill="navy" href="../reference/Graphics/AttributeRepresentation.html#dexpi-graphics-attributerepresentation-object" target="_parent">Object</a></text>
<text text-anchor="start" x="129.559" y="-380.153" font-family="Arial" font-size="10.00" fill="black"></text>
<text text-anchor="start" x="75.4659" y="-413.822" font-family="Arial" font-size="10.00" fill="black">*</text>
</g>
<!-- 30 -->
<g id="node11" class="node"><defs>
<linearGradient id="l_12" gradientUnits="userSpaceOnUse" x1="235.5" y1="-424" x2="235.5" y2="-460">
<stop offset="0" style="stop-color:#ffffbb;stop-opacity:1.;"/>
<stop offset="1" style="stop-color:#ffffee;stop-opacity:1.;"/>
</linearGradient>
</defs>
<polygon fill="url(#l_12)" stroke="black" points="304,-460 167,-460 167,-424 304,-424 304,-460"/>
<text text-anchor="start" x="177.5" y="-440.2" font-family="Arial" font-weight="bold" font-size="11.00" fill="black"><a fill="navy" href="../reference/Graphics/RepresentationGroup.html" target="_parent">RepresentationGroup</a></text>
</g>
<!-- 30&#45;&gt;10 -->
<g id="edge2" class="edge"><path fill="none" stroke="#000000" d="M218.322,-423.822C206.831,-412.331 191.541,-397.041 178.807,-384.307"/>
<polygon fill="#000000" stroke="#000000" points="171.653,-377.153 181.906,-381.042 175.189,-380.689 178.724,-384.224 178.724,-384.224 178.724,-384.224 175.189,-380.689 175.542,-387.406 171.653,-377.153 171.653,-377.153"/>
<text text-anchor="start" x="204.5" y="-397.5" font-family="Arial" font-size="10.00" fill="black"><a fill="navy" href="../reference/Graphics/RepresentationGroup.html#dexpi-graphics-representationgroup-represents" target="_parent">Represents</a></text>
<text text-anchor="start" x="163.653" y="-380.153" font-family="Arial" font-size="10.00" fill="black"></text>
<text text-anchor="start" x="202.322" y="-413.822" font-family="Arial" font-size="10.00" fill="black">*</text>
</g>
<!-- 36 -->
<g id="node13" class="node"><defs>
<linearGradient id="l_13" gradientUnits="userSpaceOnUse" x1="677.5" y1="-424" x2="677.5" y2="-460">
<stop offset="0" style="stop-color:#ffffbb;stop-opacity:1.;"/>
<stop offset="1" style="stop-color:#ffffee;stop-opacity:1.;"/>
</linearGradient>
</defs>
<polygon fill="url(#l_13)" stroke="black" points="750.5,-460 604.5,-460 604.5,-424 750.5,-424 750.5,-460"/>
<text text-anchor="start" x="614.5" y="-440.2" font-family="Arial" font-weight="bold" font-size="11.00" fill="black"><a fill="navy" href="../reference/Piping/PipingNetworkSegment.html" target="_parent">PipingNetworkSegment</a></text>
</g>
<!-- 36&#45;&gt;12 -->
<g id="edge4" class="edge"><path fill="none" stroke="#000000" d="M623.623,-419.288C594.057,-407.374 557.576,-392.672 528.338,-380.89"/>
<polygon fill="#000000" stroke="#000000" points="623.743,-419.337 630.803,-417.869 634.873,-423.822 627.813,-425.289 623.743,-419.337"/>
<polygon fill="#000000" stroke="#000000" points="518.72,-377.014 529.678,-376.578 523.358,-378.883 527.996,-380.752 527.996,-380.752 527.996,-380.752 523.358,-378.883 526.314,-384.926 518.72,-377.014 518.72,-377.014"/>
<text text-anchor="start" x="598" y="-397.5" font-family="Arial" font-size="10.00" fill="black"><a fill="navy" href="../reference/Piping/PipingNetworkSegment.html#dexpi-piping-pipingnetworksegment-items" target="_parent">Items</a></text>
<text text-anchor="start" x="510.72" y="-380.014" font-family="Arial" font-size="10.00" fill="black">*</text>
<text text-anchor="start" x="605.873" y="-413.822" font-family="Arial" font-size="10.00" fill="black">0..1</text>
</g>
<!-- 36&#45;&gt;14 -->
<g id="edge7" class="edge"><path fill="none" stroke="#000000" d="M704.814,-423.997C712.569,-418.99 720.954,-413.402 728.5,-408 737.248,-401.737 737.703,-397.447 747.5,-393 780.343,-378.092 793.583,-384.253 833.373,-376.808"/>
<polygon fill="#000000" stroke="#000000" points="843.176,-374.804 834.28,-381.216 838.277,-375.805 833.378,-376.807 833.378,-376.807 833.378,-376.807 838.277,-375.805 832.477,-372.398 843.176,-374.804 843.176,-374.804"/>
<text text-anchor="start" x="749.5" y="-397.5" font-family="Arial" font-size="10.00" fill="black"><a fill="navy" href="../reference/Piping/PipingNetworkSegment.html#dexpi-piping-pipingnetworksegment-sourceitem" target="_parent">SourceItem</a></text>
<text text-anchor="start" x="822.176" y="-377.804" font-family="Arial" font-size="10.00" fill="black">0..1</text>
<text text-anchor="start" x="675.814" y="-413.997" font-family="Arial" font-size="10.00" fill="black">0..1</text>
</g>
<!-- 36&#45;&gt;15 -->
<g id="edge8" class="edge"><path fill="none" stroke="#000000" d="M673.401,-423.963C672.028,-414.047 672.188,-401.807 678.5,-393 682.323,-387.666 692.281,-382.516 704.277,-377.933"/>
<polygon fill="#000000" stroke="#000000" points="713.779,-374.546 705.87,-382.143 709.069,-376.225 704.359,-377.904 704.359,-377.904 704.359,-377.904 709.069,-376.225 702.848,-373.665 713.779,-374.546 713.779,-374.546"/>
<text text-anchor="start" x="680.5" y="-397.5" font-family="Arial" font-size="10.00" fill="black"><a fill="navy" href="../reference/Piping/PipingNetworkSegment.html#dexpi-piping-pipingnetworksegment-targetitem" target="_parent">TargetItem</a></text>
<text text-anchor="start" x="692.779" y="-377.546" font-family="Arial" font-size="10.00" fill="black">0..1</text>
<text text-anchor="start" x="644.401" y="-413.963" font-family="Arial" font-size="10.00" fill="black">0..1</text>
</g>
<!-- 42 -->
<g id="node15" class="node"><defs>
<linearGradient id="l_14" gradientUnits="userSpaceOnUse" x1="840.5" y1="-424" x2="840.5" y2="-460">
<stop offset="0" style="stop-color:#ffffbb;stop-opacity:1.;"/>
<stop offset="1" style="stop-color:#ffffee;stop-opacity:1.;"/>
</linearGradient>
</defs>
<polygon fill="url(#l_14)" stroke="black" points="898,-460 783,-460 783,-424 898,-424 898,-460"/>
<text text-anchor="start" x="793.5" y="-440.2" font-family="Arial" font-weight="bold" font-style="italic" font-size="11.00" fill="black"><a fill="navy" href="../reference/Piping/PipingConnection.html" target="_parent">PipingConnection</a></text>
</g>
<!-- 42&#45;&gt;14 -->
<g id="edge6" class="edge"><path fill="none" stroke="#000000" d="M863.349,-423.937C868.763,-419.182 874.205,-413.735 878.5,-408 883.26,-401.644 887.317,-394.093 890.603,-386.884"/>
<polygon fill="#000000" stroke="#000000" points="894.598,-377.41 894.859,-388.373 892.655,-382.017 890.712,-386.624 890.712,-386.624 890.712,-386.624 892.655,-382.017 886.566,-384.876 894.598,-377.41 894.598,-377.41"/>
<text text-anchor="start" x="890.5" y="-397.5" font-family="Arial" font-size="10.00" fill="black"><a fill="navy" href="../reference/Piping/PipingConnection.html#dexpi-piping-pipingconnection-sourceitem" target="_parent">SourceItem</a></text>
<text text-anchor="start" x="873.598" y="-380.41" font-family="Arial" font-size="10.00" fill="black">0..1</text>
<text text-anchor="start" x="834.349" y="-413.937" font-family="Arial" font-size="10.00" fill="black">0..1</text>
</g>
<!-- 42&#45;&gt;15 -->
<g id="edge9" class="edge"><path fill="none" stroke="#000000" d="M829.29,-423.933C822.775,-414.468 814.161,-402.688 805.5,-393 802.842,-390.027 799.946,-387.033 796.989,-384.125"/>
<polygon fill="#000000" stroke="#000000" points="789.613,-377.138 799.967,-380.748 793.243,-380.576 796.873,-384.015 796.873,-384.015 796.873,-384.015 793.243,-380.576 793.778,-387.282 789.613,-377.138 789.613,-377.138"/>
<text text-anchor="start" x="819.5" y="-397.5" font-family="Arial" font-size="10.00" fill="black"><a fill="navy" href="../reference/Piping/PipingConnection.html#dexpi-piping-pipingconnection-targetitem" target="_parent">TargetItem</a></text>
<text text-anchor="start" x="768.613" y="-380.138" font-family="Arial" font-size="10.00" fill="black">0..1</text>
<text text-anchor="start" x="800.29" y="-413.933" font-family="Arial" font-size="10.00" fill="black">0..1</text>
</g>
<!-- 51 -->
<g id="node16" class="node"><defs>
<linearGradient id="l_15" gradientUnits="userSpaceOnUse" x1="1030.5" y1="-424" x2="1030.5" y2="-460">
<stop offset="0" style="stop-color:#ffffbb;stop-opacity:1.;"/>
<stop offset="1" style="stop-color:#ffffee;stop-opacity:1.;"/>
</linearGradient>
</defs>
<polygon fill="url(#l_15)" stroke="black" points="1132.5,-460 928.5,-460 928.5,-424 1132.5,-424 1132.5,-460"/>
<text text-anchor="start" x="938.5" y="-440.2" font-family="Arial" font-weight="bold" font-size="11.00" fill="black"><a fill="navy" href="../reference/Instrumentation/ProcessSignalGeneratingFunction.html" target="_parent">ProcessSignalGeneratingFunction</a></text>
</g>
<!-- 51&#45;&gt;16 -->
<g id="edge10" class="edge"><path fill="none" stroke="#000000" d="M1030.5,-423.822C1030.5,-413.19 1030.5,-399.306 1030.5,-387.204"/>
<polygon fill="#000000" stroke="#000000" points="1030.5,-377.153 1035,-387.153 1030.5,-382.153 1030.5,-387.153 1030.5,-387.153 1030.5,-387.153 1030.5,-382.153 1026,-387.153 1030.5,-377.153 1030.5,-377.153"/>
<text text-anchor="start" x="1033" y="-397.5" font-family="Arial" font-size="10.00" fill="black"><a fill="navy" href="../reference/Instrumentation/ProcessSignalGeneratingFunction.html#dexpi-instrumentation-processsignalgeneratingfunction-sensinglocation" target="_parent">SensingLocation</a></text>
<text text-anchor="start" x="1009.5" y="-380.153" font-family="Arial" font-size="10.00" fill="black">0..1</text>
<text text-anchor="start" x="1014.5" y="-413.822" font-family="Arial" font-size="10.00" fill="black">*</text>
</g>
<!-- 17&#45;inner&#45;node&#45;&gt;0 -->
<g id="edge12" class="edge"><path fill="none" stroke="black" d="M637.5,-154.933C637.5,-153.833 637.5,-139.412 637.5,-122.244"/>
</g>
<!-- 18&#45;inner&#45;node&#45;&gt;9 -->
<g id="edge14" class="edge"><path fill="none" stroke="black" d="M154.578,-274.984C157.832,-274.33 262.648,-253.29 347.5,-241 427.362,-229.433 520.086,-219.487 578.766,-213.621"/>
</g>
<!-- 19&#45;inner&#45;node&#45;&gt;9 -->
<g id="edge16" class="edge"><path fill="none" stroke="black" d="M302.525,-274.864C302.773,-273.522 304.968,-262.644 311.5,-258 353.384,-228.223 496.807,-215.621 578.785,-210.749"/>
</g>
<!-- 20&#45;inner&#45;node&#45;&gt;9 -->
<g id="edge18" class="edge"><path fill="none" stroke="black" d="M476.617,-274.951C479.854,-273.604 549.738,-244.522 596.326,-225.135"/>
</g>
<!-- 21&#45;inner&#45;node&#45;&gt;9 -->
<g id="edge20" class="edge"><path fill="none" stroke="black" d="M637.5,-274.951C637.5,-273.604 637.5,-244.522 637.5,-225.135"/>
</g>
<!-- 22&#45;inner&#45;node&#45;&gt;9 -->
<g id="edge22" class="edge"><path fill="none" stroke="black" d="M900.452,-274.988C897.651,-274.274 772.671,-242.435 696.044,-222.914"/>
</g>
<!-- 23&#45;inner&#45;node&#45;&gt;9 -->
<g id="edge24" class="edge"><path fill="none" stroke="black" d="M769.369,-274.879C768.076,-273.689 757.423,-263.978 747.5,-258 726.477,-245.334 701.694,-233.801 680.979,-225.012"/>
</g>
<!-- 24&#45;inner&#45;node&#45;&gt;9 -->
<g id="edge26" class="edge"><path fill="none" stroke="black" d="M1030.43,-274.988C1025.87,-274.211 804.855,-236.531 696.349,-218.033"/>
</g>
</g>
</svg>