<!DOCTYPE svg PUBLIC "-//W3C//DTD SVG 1.1//EN" "http://www.w3.org/Graphics/SVG/1.1/DTD/svg11.dtd">
<!-- Generated by graphviz version 2.38.0 (20140413.2041)
 --><!-- Title: G Pages: 1 --><svg xmlns="http://www.w3.org/2000/svg" xmlns:xlink="http://www.w3.org/1999/xlink" width="569pt" height="402pt" viewBox="0.00 0.00 568.50 402.00">
<g id="graph0" class="graph" transform="scale(1 1) rotate(0) translate(4 398)">
<!-- 0 -->
<g id="node1" class="node"><defs>
<linearGradient id="l_0" gradientUnits="userSpaceOnUse" x1="281.5" y1="-83" x2="281.5" y2="-145">
<stop offset="0" style="stop-color:#ffffbb;stop-opacity:1.;"/>
<stop offset="1" style="stop-color:#ffffee;stop-opacity:1.;"/>
</linearGradient>
</defs>
<polygon fill="url(#l_0)" stroke="black" points="402.5,-145 160.5,-145 160.5,-83 402.5,-83 402.5,-145"/>
<text text-anchor="start" x="209" y="-131.2" font-family="Arial" font-weight="bold" font-size="11.00" fill="black">SedimentalCentrifugeDrum</text>
<text text-anchor="start" x="170.5" y="-107" font-family="Arial" font-size="10.00" fill="black"><a fill="navy" href="../reference/Equipment/SedimentalCentrifugeDrum.html#dexpi-equipment-sedimentalcentrifugedrum-diameter" target="_parent">Diameter</a>&#160;:</text>
<text text-anchor="start" x="302.5" y="-107" font-family="Arial" font-size="10.00" fill="black"><a fill="navy" href="../reference/PhysicalQuantities/NullableLength.html" target="_parent">NullableLength</a>&#160;[0..1]</text>
<text text-anchor="start" x="170.5" y="-92" font-family="Arial" font-size="10.00" fill="black"><a fill="navy" href="../reference/Equipment/SedimentalCentrifugeDrum.html#dexpi-equipment-sedimentalcentrifugedrum-materialofconstructioncode" target="_parent">MaterialOfConstructionCode</a>&#160;:</text>
<text text-anchor="start" x="302.5" y="-92" font-family="Arial" font-size="10.00" fill="black"><a fill="navy" href="../reference/DataTypes/NullableString.html" target="_parent">NullableString</a>&#160;[0..1]</text>
<polygon fill="black" stroke="black" points="402.5,-125.0 160.5,-125.0 160.5,-125.0 402.5,-125.0 402.5,-125.0"/>
</g>
<!-- 11 -->
<g id="node4" class="node"><defs>
<linearGradient id="l_1" gradientUnits="userSpaceOnUse" x1="281.5" y1="-1.77636e-014" x2="281.5" y2="-36">
<stop offset="0" style="stop-color:#ffffbb;stop-opacity:1.;"/>
<stop offset="1" style="stop-color:#ffffee;stop-opacity:1.;"/>
</linearGradient>
</defs>
<polygon fill="url(#l_1)" stroke="black" points="316,-36 247,-36 247,-0 316,-0 316,-36"/>
<text text-anchor="start" x="257.5" y="-16.2" font-family="Arial" font-weight="bold" font-size="11.00" fill="black"><a fill="navy" href="../reference/Equipment/Chamber.html" target="_parent">Chamber</a></text>
</g>
<!-- 0&#45;&gt;11 -->
<g id="edge1" class="edge"><path fill="none" stroke="#000000" d="M281.5,-82.9994C281.5,-71.2728 281.5,-57.9145 281.5,-46.4464"/>
<polygon fill="#000000" stroke="#000000" points="281.5,-36.1454 286,-46.1454 281.5,-41.1454 281.5,-46.1454 281.5,-46.1454 281.5,-46.1454 281.5,-41.1454 277,-46.1454 281.5,-36.1454 281.5,-36.1454"/>
<text text-anchor="start" x="283.5" y="-56.5" font-family="Arial" font-size="10.00" fill="black"><a fill="navy" href="../reference/Equipment/SedimentalCentrifugeDrum.html#dexpi-equipment-sedimentalcentrifugedrum-chamber" target="_parent">Chamber</a></text>
<text text-anchor="start" x="260.5" y="-39.1454" font-family="Arial" font-size="10.00" fill="black">0..1</text>
<text text-anchor="start" x="265.5" y="-72.9994" font-family="Arial" font-size="10.00" fill="black">*</text>
</g>
<!-- 5 -->
<g id="node2" class="node"><defs>
<linearGradient id="l_2" gradientUnits="userSpaceOnUse" x1="320.5" y1="-275" x2="320.5" y2="-311">
<stop offset="0" style="stop-color:#ffffbb;stop-opacity:1.;"/>
<stop offset="1" style="stop-color:#ffffee;stop-opacity:1.;"/>
</linearGradient>
</defs>
<polygon fill="url(#l_2)" stroke="black" points="378,-311 263,-311 263,-275 378,-275 378,-311"/>
<text text-anchor="start" x="273.5" y="-291.2" font-family="Arial" font-weight="bold" font-style="italic" font-size="11.00" fill="black"><a fill="navy" href="../reference/DexpiModel/ConceptualObject.html" target="_parent">ConceptualObject</a></text>
</g>
<!-- 7&#45;inner&#45;node -->
<!-- 5&#45;&gt;7&#45;inner&#45;node -->
<g id="edge7" class="edge"><path fill="none" stroke="black" d="M320.5,-264.649C320.5,-241.987 320.5,-213.163 320.5,-211.116L320.538,-208.928"/>
<polygon fill="none" stroke="black" points="317,-264.822 320.5,-274.822 324,-264.822 317,-264.822"/>
</g>
<!-- 6 -->
<g id="node3" class="node"><defs>
<linearGradient id="l_3" gradientUnits="userSpaceOnUse" x1="488.5" y1="-275" x2="488.5" y2="-311">
<stop offset="0" style="stop-color:#ffffbb;stop-opacity:1.;"/>
<stop offset="1" style="stop-color:#ffffee;stop-opacity:1.;"/>
</linearGradient>
</defs>
<polygon fill="url(#l_3)" stroke="black" points="560.5,-311 416.5,-311 416.5,-275 560.5,-275 560.5,-311"/>
<text text-anchor="start" x="426.5" y="-291.2" font-family="Arial" font-weight="bold" font-style="italic" font-size="11.00" fill="black"><a fill="navy" href="../reference/Customization/CustomAttributeOwner.html" target="_parent">CustomAttributeOwner</a></text>
</g>
<!-- 26 -->
<g id="node9" class="node"><defs>
<linearGradient id="l_4" gradientUnits="userSpaceOnUse" x1="393.5" y1="-192" x2="393.5" y2="-228">
<stop offset="0" style="stop-color:#ffffbb;stop-opacity:1.;"/>
<stop offset="1" style="stop-color:#ffffee;stop-opacity:1.;"/>
</linearGradient>
</defs>
<polygon fill="url(#l_4)" stroke="black" points="448,-228 339,-228 339,-192 448,-192 448,-228"/>
<text text-anchor="start" x="349.5" y="-208.2" font-family="Arial" font-weight="bold" font-style="italic" font-size="11.00" fill="black"><a fill="navy" href="../reference/Customization/CustomAttribute.html" target="_parent">CustomAttribute</a></text>
</g>
<!-- 6&#45;&gt;26 -->
<g id="edge6" class="edge"><path fill="none" stroke="#000000" d="M414.566,-268.359C410.887,-265.576 407.487,-262.469 404.5,-259 399.571,-253.275 396.734,-245.784 395.132,-238.428"/>
<polygon fill="#000000" stroke="#000000" points="414.776,-268.495 421.986,-268.381 424.865,-274.992 417.655,-275.106 414.776,-268.495"/>
<polygon fill="#000000" stroke="#000000" points="393.601,-228.317 399.548,-237.53 394.35,-233.26 395.098,-238.204 395.098,-238.204 395.098,-238.204 394.35,-233.26 390.649,-238.878 393.601,-228.317 393.601,-228.317"/>
<text text-anchor="start" x="406.5" y="-248.5" font-family="Arial" font-size="10.00" fill="black"><a fill="navy" href="../reference/Customization/CustomAttributeOwner.html#dexpi-customization-customattributeowner-customattributes" target="_parent">CustomAttributes</a></text>
<text text-anchor="start" x="385.601" y="-231.317" font-family="Arial" font-size="10.00" fill="black">*</text>
<text text-anchor="start" x="395.865" y="-264.992" font-family="Arial" font-size="10.00" fill="black">0..1</text>
</g>
<!-- 8&#45;inner&#45;node -->
<!-- 6&#45;&gt;8&#45;inner&#45;node -->
<g id="edge9" class="edge"><path fill="none" stroke="black" d="M488.5,-264.649C488.5,-241.987 488.5,-213.163 488.5,-211.116L488.449,-208.971"/>
<polygon fill="none" stroke="black" points="485,-264.822 488.5,-274.822 492,-264.822 485,-264.822"/>
</g>
<!-- 14 -->
<g id="node5" class="node"><defs>
<linearGradient id="l_5" gradientUnits="userSpaceOnUse" x1="68.5" y1="-192" x2="68.5" y2="-228">
<stop offset="0" style="stop-color:#ffffbb;stop-opacity:1.;"/>
<stop offset="1" style="stop-color:#ffffee;stop-opacity:1.;"/>
</linearGradient>
</defs>
<polygon fill="url(#l_5)" stroke="black" points="137,-228 0,-228 0,-192 137,-192 137,-228"/>
<text text-anchor="start" x="10.5" y="-208.2" font-family="Arial" font-weight="bold" font-size="11.00" fill="black"><a fill="navy" href="../reference/Equipment/SedimentalCentrifuge.html" target="_parent">SedimentalCentrifuge</a></text>
</g>
<!-- 14&#45;&gt;0 -->
<g id="edge2" class="edge"><path fill="none" stroke="#000000" d="M73.0306,-179.985C75.4021,-172.94 79.0107,-166.004 84.5,-161 95.5763,-150.902 121.165,-142.424 150.358,-135.609"/>
<polygon fill="#000000" stroke="#000000" points="73.03,-179.988 75.4405,-186.784 70.094,-191.623 67.6836,-184.827 73.03,-179.988"/>
<polygon fill="#000000" stroke="#000000" points="160.381,-133.361 151.608,-139.94 155.502,-134.455 150.623,-135.549 150.623,-135.549 150.623,-135.549 155.502,-134.455 149.638,-131.159 160.381,-133.361 160.381,-133.361"/>
<text text-anchor="start" x="86.5" y="-165.5" font-family="Arial" font-size="10.00" fill="black"><a fill="navy" href="../reference/Equipment/SedimentalCentrifuge.html#dexpi-equipment-sedimentalcentrifuge-sedimentalcentrifugedrum" target="_parent">SedimentalCentrifugeDrum</a></text>
<text text-anchor="start" x="139.381" y="-136.361" font-family="Arial" font-size="10.00" fill="black">0..1</text>
<text text-anchor="start" x="41.094" y="-181.623" font-family="Arial" font-size="10.00" fill="black">0..1</text>
</g>
<!-- 17 -->
<g id="node6" class="node"><defs>
<linearGradient id="l_6" gradientUnits="userSpaceOnUse" x1="214.5" y1="-192" x2="214.5" y2="-228">
<stop offset="0" style="stop-color:#ffffbb;stop-opacity:1.;"/>
<stop offset="1" style="stop-color:#ffffee;stop-opacity:1.;"/>
</linearGradient>
</defs>
<polygon fill="url(#l_6)" stroke="black" points="273.5,-228 155.5,-228 155.5,-192 273.5,-192 273.5,-228"/>
<text text-anchor="start" x="165.5" y="-208.2" font-family="Arial" font-weight="bold" font-size="11.00" fill="black"><a fill="navy" href="../reference/Equipment/CustomCentrifuge.html" target="_parent">CustomCentrifuge</a></text>
</g>
<!-- 17&#45;&gt;0 -->
<g id="edge3" class="edge"><path fill="none" stroke="#000000" d="M207.672,-179.659C207.508,-173.218 208.456,-166.642 211.5,-161 213.088,-158.056 214.956,-155.27 217.04,-152.637"/>
<polygon fill="#000000" stroke="#000000" points="207.676,-179.686 212.36,-185.168 209.101,-191.601 204.416,-186.118 207.676,-179.686"/>
<polygon fill="#000000" stroke="#000000" points="223.879,-145.193 220.427,-155.602 220.497,-148.875 217.114,-152.557 217.114,-152.557 217.114,-152.557 220.497,-148.875 213.8,-149.512 223.879,-145.193 223.879,-145.193"/>
<text text-anchor="start" x="213.5" y="-165.5" font-family="Arial" font-size="10.00" fill="black"><a fill="navy" href="../reference/Equipment/CustomCentrifuge.html#dexpi-equipment-customcentrifuge-sedimentalcentrifugedrum" target="_parent">SedimentalCentrifugeDrum</a></text>
<text text-anchor="start" x="202.879" y="-148.193" font-family="Arial" font-size="10.00" fill="black">0..1</text>
<text text-anchor="start" x="180.101" y="-181.601" font-family="Arial" font-size="10.00" fill="black">0..1</text>
</g>
<!-- 20 -->
<g id="node7" class="node"><defs>
<linearGradient id="l_7" gradientUnits="userSpaceOnUse" x1="240.5" y1="-358" x2="240.5" y2="-394">
<stop offset="0" style="stop-color:#ffffbb;stop-opacity:1.;"/>
<stop offset="1" style="stop-color:#ffffee;stop-opacity:1.;"/>
</linearGradient>
</defs>
<polygon fill="url(#l_7)" stroke="black" points="315,-394 166,-394 166,-358 315,-358 315,-394"/>
<text text-anchor="start" x="176.5" y="-374.2" font-family="Arial" font-weight="bold" font-size="11.00" fill="black"><a fill="navy" href="../reference/Graphics/AttributeRepresentation.html" target="_parent">AttributeRepresentation</a></text>
</g>
<!-- 20&#45;&gt;5 -->
<g id="edge4" class="edge"><path fill="none" stroke="#000000" d="M257.466,-357.822C268.815,-346.331 283.916,-331.041 296.493,-318.307"/>
<polygon fill="#000000" stroke="#000000" points="303.559,-311.153 299.733,-321.43 300.045,-314.711 296.531,-318.268 296.531,-318.268 296.531,-318.268 300.045,-314.711 293.33,-315.106 303.559,-311.153 303.559,-311.153"/>
<text text-anchor="start" x="291" y="-331.5" font-family="Arial" font-size="10.00" fill="black"><a fill="navy" href="../reference/Graphics/AttributeRepresentation.html#dexpi-graphics-attributerepresentation-object" target="_parent">Object</a></text>
<text text-anchor="start" x="295.559" y="-314.153" font-family="Arial" font-size="10.00" fill="black"></text>
<text text-anchor="start" x="241.466" y="-347.822" font-family="Arial" font-size="10.00" fill="black">*</text>
</g>
<!-- 23 -->
<g id="node8" class="node"><defs>
<linearGradient id="l_8" gradientUnits="userSpaceOnUse" x1="401.5" y1="-358" x2="401.5" y2="-394">
<stop offset="0" style="stop-color:#ffffbb;stop-opacity:1.;"/>
<stop offset="1" style="stop-color:#ffffee;stop-opacity:1.;"/>
</linearGradient>
</defs>
<polygon fill="url(#l_8)" stroke="black" points="470,-394 333,-394 333,-358 470,-358 470,-394"/>
<text text-anchor="start" x="343.5" y="-374.2" font-family="Arial" font-weight="bold" font-size="11.00" fill="black"><a fill="navy" href="../reference/Graphics/RepresentationGroup.html" target="_parent">RepresentationGroup</a></text>
</g>
<!-- 23&#45;&gt;5 -->
<g id="edge5" class="edge"><path fill="none" stroke="#000000" d="M384.322,-357.822C372.831,-346.331 357.541,-331.041 344.807,-318.307"/>
<polygon fill="#000000" stroke="#000000" points="337.653,-311.153 347.906,-315.042 341.189,-314.689 344.724,-318.224 344.724,-318.224 344.724,-318.224 341.189,-314.689 341.542,-321.406 337.653,-311.153 337.653,-311.153"/>
<text text-anchor="start" x="370.5" y="-331.5" font-family="Arial" font-size="10.00" fill="black"><a fill="navy" href="../reference/Graphics/RepresentationGroup.html#dexpi-graphics-representationgroup-represents" target="_parent">Represents</a></text>
<text text-anchor="start" x="329.653" y="-314.153" font-family="Arial" font-size="10.00" fill="black"></text>
<text text-anchor="start" x="368.322" y="-347.822" font-family="Arial" font-size="10.00" fill="black">*</text>
</g>
<!-- 7&#45;inner&#45;node&#45;&gt;0 -->
<g id="edge8" class="edge"><path fill="none" stroke="black" d="M320.538,-208.928C321.32,-207.446 333.848,-183.627 335.5,-176 336.911,-169.484 338.295,-167.052 335.5,-161 332.815,-155.186 328.993,-149.836 324.606,-145.001"/>
</g>
<!-- 8&#45;inner&#45;node&#45;&gt;0 -->
<g id="edge10" class="edge"><path fill="none" stroke="black" d="M488.449,-208.971C487.409,-208.379 470.539,-198.806 456.5,-192 422.899,-175.71 385.034,-158.867 353.142,-145.103"/>
</g>
</g>
</svg>