<!DOCTYPE svg PUBLIC "-//W3C//DTD SVG 1.1//EN" "http://www.w3.org/Graphics/SVG/1.1/DTD/svg11.dtd">
<!-- Generated by graphviz version 2.38.0 (20140413.2041)
 --><!-- Title: G Pages: 1 --><svg xmlns="http://www.w3.org/2000/svg" xmlns:xlink="http://www.w3.org/1999/xlink" width="222pt" height="236pt" viewBox="0.00 0.00 222.00 236.00">
<g id="graph0" class="graph" transform="scale(1 1) rotate(0) translate(4 232)">
<!-- 0 -->
<g id="node1" class="node"><defs>
<linearGradient id="l_0" gradientUnits="userSpaceOnUse" x1="102" y1="-83" x2="102" y2="-145">
<stop offset="0" style="stop-color:#ffffbb;stop-opacity:1.;"/>
<stop offset="1" style="stop-color:#ffffee;stop-opacity:1.;"/>
</linearGradient>
</defs>
<polygon fill="url(#l_0)" stroke="black" points="202.5,-145 1.5,-145 1.5,-83 202.5,-83 202.5,-145"/>
<text text-anchor="start" x="85.5" y="-131.2" font-family="Arial" font-weight="bold" font-style="italic" font-size="11.00" fill="black">Shape</text>
<text text-anchor="start" x="12" y="-107" font-family="Arial" font-size="10.00" fill="black"><a fill="navy" href="../reference/Graphics/Shape.html#dexpi-graphics-shape-name" target="_parent">Name</a>&#160;:</text>
<text text-anchor="start" x="141" y="-107" font-family="Arial" font-size="10.00" fill="black"><a fill="navy" href="../reference/DataTypes/String.html" target="_parent">String</a>&#160;</text>
<text text-anchor="start" x="12" y="-92" font-family="Arial" font-size="10.00" fill="black"><a fill="navy" href="../reference/Graphics/Shape.html#dexpi-graphics-shape-symbolregistrationnumber" target="_parent">SymbolRegistrationNumber</a>&#160;:</text>
<text text-anchor="start" x="141" y="-92" font-family="Arial" font-size="10.00" fill="black"><a fill="navy" href="../reference/DataTypes/String.html" target="_parent">String</a>&#160;[0..1]</text>
<polygon fill="black" stroke="black" points="202.5,-125.0 1.5,-125.0 1.5,-125.0 202.5,-125.0 202.5,-125.0"/>
</g>
<!-- 6 -->
<g id="node2" class="node"><defs>
<linearGradient id="l_1" gradientUnits="userSpaceOnUse" x1="102" y1="-1.77636e-014" x2="102" y2="-36">
<stop offset="0" style="stop-color:#ffffbb;stop-opacity:1.;"/>
<stop offset="1" style="stop-color:#ffffee;stop-opacity:1.;"/>
</linearGradient>
</defs>
<polygon fill="url(#l_1)" stroke="black" points="161.5,-36 42.5,-36 42.5,-0 161.5,-0 161.5,-36"/>
<text text-anchor="start" x="53" y="-16.2" font-family="Arial" font-weight="bold" font-style="italic" font-size="11.00" fill="black"><a fill="navy" href="../reference/Graphics/GraphicalPrimitive.html" target="_parent">GraphicalPrimitive</a></text>
</g>
<!-- 0&#45;&gt;6 -->
<g id="edge1" class="edge"><path fill="none" stroke="#000000" d="M102,-70.9874C102,-62.6328 102,-54.0656 102,-46.3578"/>
<polygon fill="#000000" stroke="#000000" points="102,-70.9994 106,-76.9994 102,-82.9994 98,-76.9993 102,-70.9994"/>
<polygon fill="#000000" stroke="#000000" points="102,-36.1454 106.5,-46.1454 102,-41.1454 102,-46.1454 102,-46.1454 102,-46.1454 102,-41.1454 97.5001,-46.1454 102,-36.1454 102,-36.1454"/>
<text text-anchor="start" x="104.5" y="-56.5" font-family="Arial" font-size="10.00" fill="black"><a fill="navy" href="../reference/Graphics/Shape.html#dexpi-graphics-shape-primitives" target="_parent">Primitives</a></text>
<text text-anchor="start" x="94.0" y="-39.1454" font-family="Arial" font-size="10.00" fill="black">*</text>
<text text-anchor="start" x="73.0" y="-72.9994" font-family="Arial" font-size="10.00" fill="black">0..1</text>
</g>
<!-- 9 -->
<g id="node3" class="node"><defs>
<linearGradient id="l_2" gradientUnits="userSpaceOnUse" x1="44" y1="-192" x2="44" y2="-228">
<stop offset="0" style="stop-color:#ffffbb;stop-opacity:1.;"/>
<stop offset="1" style="stop-color:#ffffee;stop-opacity:1.;"/>
</linearGradient>
</defs>
<polygon fill="url(#l_2)" stroke="black" points="88,-228 0,-228 0,-192 88,-192 88,-228"/>
<text text-anchor="start" x="10" y="-208.2" font-family="Arial" font-weight="bold" font-size="11.00" fill="black"><a fill="navy" href="../reference/Graphics/ShapeUsage.html" target="_parent">ShapeUsage</a></text>
</g>
<!-- 9&#45;&gt;0 -->
<g id="edge2" class="edge"><path fill="none" stroke="#000000" d="M54.6381,-191.759C61.2375,-181.063 69.9921,-166.875 78.1779,-153.608"/>
<polygon fill="#000000" stroke="#000000" points="83.4466,-145.069 82.0251,-155.943 80.821,-149.325 78.1954,-153.58 78.1954,-153.58 78.1954,-153.58 80.821,-149.325 74.3658,-151.217 83.4466,-145.069 83.4466,-145.069"/>
<text text-anchor="start" x="75" y="-165.5" font-family="Arial" font-size="10.00" fill="black"><a fill="navy" href="../reference/Graphics/ShapeUsage.html#dexpi-graphics-shapeusage-shape" target="_parent">Shape</a></text>
<text text-anchor="start" x="75.4466" y="-148.069" font-family="Arial" font-size="10.00" fill="black"></text>
<text text-anchor="start" x="38.6381" y="-181.759" font-family="Arial" font-size="10.00" fill="black">*</text>
</g>
<!-- 12 -->
<g id="node4" class="node"><defs>
<linearGradient id="l_3" gradientUnits="userSpaceOnUse" x1="160" y1="-192" x2="160" y2="-228">
<stop offset="0" style="stop-color:#ffffbb;stop-opacity:1.;"/>
<stop offset="1" style="stop-color:#ffffee;stop-opacity:1.;"/>
</linearGradient>
</defs>
<polygon fill="url(#l_3)" stroke="black" points="214,-228 106,-228 106,-192 214,-192 214,-228"/>
<text text-anchor="start" x="116" y="-208.2" font-family="Arial" font-weight="bold" font-size="11.00" fill="black"><a fill="navy" href="../reference/Graphics/ShapeCatalogue.html" target="_parent">ShapeCatalogue</a></text>
</g>
<!-- 12&#45;&gt;0 -->
<g id="edge3" class="edge"><path fill="none" stroke="#000000" d="M143.023,-181.486C137.678,-172.824 131.672,-163.088 125.937,-153.795"/>
<polygon fill="#000000" stroke="#000000" points="143.061,-181.547 149.615,-184.552 149.362,-191.759 142.807,-188.753 143.061,-181.547"/>
<polygon fill="#000000" stroke="#000000" points="120.553,-145.069 129.634,-151.217 123.179,-149.325 125.805,-153.58 125.805,-153.58 125.805,-153.58 123.179,-149.325 121.975,-155.943 120.553,-145.069 120.553,-145.069"/>
<text text-anchor="start" x="141" y="-165.5" font-family="Arial" font-size="10.00" fill="black"><a fill="navy" href="../reference/Graphics/ShapeCatalogue.html#dexpi-graphics-shapecatalogue-shapes" target="_parent">Shapes</a></text>
<text text-anchor="start" x="112.553" y="-148.069" font-family="Arial" font-size="10.00" fill="black">*</text>
<text text-anchor="start" x="120.362" y="-181.759" font-family="Arial" font-size="10.00" fill="black">0..1</text>
</g>
</g>
</svg>