<!DOCTYPE svg PUBLIC "-//W3C//DTD SVG 1.1//EN" "http://www.w3.org/Graphics/SVG/1.1/DTD/svg11.dtd">
<!-- Generated by graphviz version 2.38.0 (20140413.2041)
 --><!-- Title: G Pages: 1 --><svg xmlns="http://www.w3.org/2000/svg" xmlns:xlink="http://www.w3.org/1999/xlink" width="470pt" height="432pt" viewBox="0.00 0.00 470.00 432.00">
<g id="graph0" class="graph" transform="scale(1 1) rotate(0) translate(4 428)">
<!-- 0 -->
<g id="node1" class="node"><defs>
<linearGradient id="l_0" gradientUnits="userSpaceOnUse" x1="231" y1="-83" x2="231" y2="-175">
<stop offset="0" style="stop-color:#ffffbb;stop-opacity:1.;"/>
<stop offset="1" style="stop-color:#ffffee;stop-opacity:1.;"/>
</linearGradient>
</defs>
<polygon fill="url(#l_0)" stroke="black" points="402.5,-175 59.5,-175 59.5,-83 402.5,-83 402.5,-175"/>
<text text-anchor="start" x="163" y="-161.2" font-family="Arial" font-weight="bold" font-size="11.00" fill="black">SignalConveyingFunction</text>
<text text-anchor="start" x="70" y="-137" font-family="Arial" font-size="10.00" fill="black"><a fill="navy" href="../reference/Instrumentation/SignalConveyingFunction.html#dexpi-instrumentation-signalconveyingfunction-portstatus" target="_parent">PortStatus</a>&#160;:</text>
<text text-anchor="start" x="217" y="-137" font-family="Arial" font-size="10.00" fill="black"><a fill="navy" href="../reference/Enumerations/PortStatusClassification.html" target="_parent">PortStatusClassification</a>&#160;[0..1]</text>
<text text-anchor="start" x="70" y="-122" font-family="Arial" font-size="10.00" fill="black"><a fill="navy" href="../reference/Instrumentation/SignalConveyingFunction.html#dexpi-instrumentation-signalconveyingfunction-signalconveyingtype" target="_parent">SignalConveyingType</a>&#160;:</text>
<text text-anchor="start" x="217" y="-122" font-family="Arial" font-size="10.00" fill="black"><a fill="navy" href="../reference/Enumerations/SignalConveyingTypeClassification.html" target="_parent">SignalConveyingTypeClassification</a>&#160;[0..1]</text>
<text text-anchor="start" x="70" y="-107" font-family="Arial" font-size="10.00" fill="black"><a fill="navy" href="../reference/Instrumentation/SignalConveyingFunction.html#dexpi-instrumentation-signalconveyingfunction-signalpointnumber" target="_parent">SignalPointNumber</a>&#160;:</text>
<text text-anchor="start" x="217" y="-107" font-family="Arial" font-size="10.00" fill="black"><a fill="navy" href="../reference/DataTypes/NullableString.html" target="_parent">NullableString</a>&#160;[0..1]</text>
<text text-anchor="start" x="70" y="-92" font-family="Arial" font-size="10.00" fill="black"><a fill="navy" href="../reference/Instrumentation/SignalConveyingFunction.html#dexpi-instrumentation-signalconveyingfunction-signalprocesscontrolfunctions" target="_parent">SignalProcessControlFunctions</a>&#160;:</text>
<text text-anchor="start" x="217" y="-92" font-family="Arial" font-size="10.00" fill="black"><a fill="navy" href="../reference/DataTypes/NullableString.html" target="_parent">NullableString</a>&#160;[0..1]</text>
<polygon fill="black" stroke="black" points="402.5,-155.0 59.5,-155.0 59.5,-155.0 402.5,-155.0 402.5,-155.0"/>
</g>
<!-- 14 -->
<g id="node4" class="node"><defs>
<linearGradient id="l_1" gradientUnits="userSpaceOnUse" x1="126" y1="-1.77636e-014" x2="126" y2="-36">
<stop offset="0" style="stop-color:#ffffbb;stop-opacity:1.;"/>
<stop offset="1" style="stop-color:#ffffee;stop-opacity:1.;"/>
</linearGradient>
</defs>
<polygon fill="url(#l_1)" stroke="black" points="223,-36 29,-36 29,-0 223,-0 223,-36"/>
<text text-anchor="start" x="39" y="-16.2" font-family="Arial" font-weight="bold" font-style="italic" font-size="11.00" fill="black"><a fill="navy" href="../reference/Instrumentation/SignalConveyingFunctionSource.html" target="_parent">SignalConveyingFunctionSource</a></text>
</g>
<!-- 0&#45;&gt;14 -->
<g id="edge1" class="edge"><path fill="none" stroke="#000000" d="M187.383,-82.7211C174.349,-69.1904 160.562,-54.8787 149.364,-43.2538"/>
<polygon fill="#000000" stroke="#000000" points="142.413,-36.0378 152.591,-40.1178 145.881,-39.6388 149.35,-43.2398 149.35,-43.2398 149.35,-43.2398 145.881,-39.6388 146.109,-46.3618 142.413,-36.0378 142.413,-36.0378"/>
<text text-anchor="start" x="175.5" y="-56.5" font-family="Arial" font-size="10.00" fill="black"><a fill="navy" href="../reference/Instrumentation/SignalConveyingFunction.html#dexpi-instrumentation-signalconveyingfunction-source" target="_parent">Source</a></text>
<text text-anchor="start" x="121.413" y="-39.0378" font-family="Arial" font-size="10.00" fill="black">0..1</text>
<text text-anchor="start" x="171.383" y="-72.7211" font-family="Arial" font-size="10.00" fill="black">*</text>
</g>
<!-- 17 -->
<g id="node5" class="node"><defs>
<linearGradient id="l_2" gradientUnits="userSpaceOnUse" x1="336" y1="-1.77636e-014" x2="336" y2="-36">
<stop offset="0" style="stop-color:#ffffbb;stop-opacity:1.;"/>
<stop offset="1" style="stop-color:#ffffee;stop-opacity:1.;"/>
</linearGradient>
</defs>
<polygon fill="url(#l_2)" stroke="black" points="431,-36 241,-36 241,-0 431,-0 431,-36"/>
<text text-anchor="start" x="251" y="-16.2" font-family="Arial" font-weight="bold" font-style="italic" font-size="11.00" fill="black"><a fill="navy" href="../reference/Instrumentation/SignalConveyingFunctionTarget.html" target="_parent">SignalConveyingFunctionTarget</a></text>
</g>
<!-- 0&#45;&gt;17 -->
<g id="edge2" class="edge"><path fill="none" stroke="#000000" d="M274.617,-82.7211C287.651,-69.1904 301.438,-54.8787 312.636,-43.2538"/>
<polygon fill="#000000" stroke="#000000" points="319.587,-36.0378 315.891,-46.3618 316.119,-39.6388 312.65,-43.2398 312.65,-43.2398 312.65,-43.2398 316.119,-39.6388 309.409,-40.1178 319.587,-36.0378 319.587,-36.0378"/>
<text text-anchor="start" x="305" y="-56.5" font-family="Arial" font-size="10.00" fill="black"><a fill="navy" href="../reference/Instrumentation/SignalConveyingFunction.html#dexpi-instrumentation-signalconveyingfunction-target" target="_parent">Target</a></text>
<text text-anchor="start" x="298.587" y="-39.0378" font-family="Arial" font-size="10.00" fill="black">0..1</text>
<text text-anchor="start" x="258.617" y="-72.7211" font-family="Arial" font-size="10.00" fill="black">*</text>
</g>
<!-- 8 -->
<g id="node2" class="node"><defs>
<linearGradient id="l_3" gradientUnits="userSpaceOnUse" x1="222" y1="-305" x2="222" y2="-341">
<stop offset="0" style="stop-color:#ffffbb;stop-opacity:1.;"/>
<stop offset="1" style="stop-color:#ffffee;stop-opacity:1.;"/>
</linearGradient>
</defs>
<polygon fill="url(#l_3)" stroke="black" points="279.5,-341 164.5,-341 164.5,-305 279.5,-305 279.5,-341"/>
<text text-anchor="start" x="175" y="-321.2" font-family="Arial" font-weight="bold" font-style="italic" font-size="11.00" fill="black"><a fill="navy" href="../reference/DexpiModel/ConceptualObject.html" target="_parent">ConceptualObject</a></text>
</g>
<!-- 10&#45;inner&#45;node -->
<!-- 8&#45;&gt;10&#45;inner&#45;node -->
<g id="edge7" class="edge"><path fill="none" stroke="black" d="M222,-294.649C222,-271.987 222,-243.163 222,-241.116L222.007,-238.921"/>
<polygon fill="none" stroke="black" points="218.5,-294.822 222,-304.822 225.5,-294.822 218.5,-294.822"/>
</g>
<!-- 9 -->
<g id="node3" class="node"><defs>
<linearGradient id="l_4" gradientUnits="userSpaceOnUse" x1="390" y1="-305" x2="390" y2="-341">
<stop offset="0" style="stop-color:#ffffbb;stop-opacity:1.;"/>
<stop offset="1" style="stop-color:#ffffee;stop-opacity:1.;"/>
</linearGradient>
</defs>
<polygon fill="url(#l_4)" stroke="black" points="462,-341 318,-341 318,-305 462,-305 462,-341"/>
<text text-anchor="start" x="328" y="-321.2" font-family="Arial" font-weight="bold" font-style="italic" font-size="11.00" fill="black"><a fill="navy" href="../reference/Customization/CustomAttributeOwner.html" target="_parent">CustomAttributeOwner</a></text>
</g>
<!-- 29 -->
<g id="node9" class="node"><defs>
<linearGradient id="l_5" gradientUnits="userSpaceOnUse" x1="295" y1="-222" x2="295" y2="-258">
<stop offset="0" style="stop-color:#ffffbb;stop-opacity:1.;"/>
<stop offset="1" style="stop-color:#ffffee;stop-opacity:1.;"/>
</linearGradient>
</defs>
<polygon fill="url(#l_5)" stroke="black" points="349.5,-258 240.5,-258 240.5,-222 349.5,-222 349.5,-258"/>
<text text-anchor="start" x="251" y="-238.2" font-family="Arial" font-weight="bold" font-style="italic" font-size="11.00" fill="black"><a fill="navy" href="../reference/Customization/CustomAttribute.html" target="_parent">CustomAttribute</a></text>
</g>
<!-- 9&#45;&gt;29 -->
<g id="edge6" class="edge"><path fill="none" stroke="#000000" d="M316.066,-298.359C312.387,-295.576 308.987,-292.469 306,-289 301.071,-283.275 298.234,-275.784 296.632,-268.428"/>
<polygon fill="#000000" stroke="#000000" points="316.276,-298.495 323.486,-298.381 326.365,-304.992 319.155,-305.106 316.276,-298.495"/>
<polygon fill="#000000" stroke="#000000" points="295.101,-258.317 301.048,-267.53 295.85,-263.26 296.598,-268.204 296.598,-268.204 296.598,-268.204 295.85,-263.26 292.149,-268.878 295.101,-258.317 295.101,-258.317"/>
<text text-anchor="start" x="308" y="-278.5" font-family="Arial" font-size="10.00" fill="black"><a fill="navy" href="../reference/Customization/CustomAttributeOwner.html#dexpi-customization-customattributeowner-customattributes" target="_parent">CustomAttributes</a></text>
<text text-anchor="start" x="287.101" y="-261.317" font-family="Arial" font-size="10.00" fill="black">*</text>
<text text-anchor="start" x="297.365" y="-294.992" font-family="Arial" font-size="10.00" fill="black">0..1</text>
</g>
<!-- 11&#45;inner&#45;node -->
<!-- 9&#45;&gt;11&#45;inner&#45;node -->
<g id="edge9" class="edge"><path fill="none" stroke="black" d="M390,-294.649C390,-271.987 390,-243.163 390,-241.116L389.885,-238.921"/>
<polygon fill="none" stroke="black" points="386.5,-294.822 390,-304.822 393.5,-294.822 386.5,-294.822"/>
</g>
<!-- 20 -->
<g id="node6" class="node"><defs>
<linearGradient id="l_6" gradientUnits="userSpaceOnUse" x1="97" y1="-222" x2="97" y2="-258">
<stop offset="0" style="stop-color:#ffffbb;stop-opacity:1.;"/>
<stop offset="1" style="stop-color:#ffffee;stop-opacity:1.;"/>
</linearGradient>
</defs>
<polygon fill="url(#l_6)" stroke="black" points="194,-258 0,-258 0,-222 194,-222 194,-258"/>
<text text-anchor="start" x="10" y="-238.2" font-family="Arial" font-weight="bold" font-size="11.00" fill="black"><a fill="navy" href="../reference/Instrumentation/ProcessInstrumentationFunction.html" target="_parent">ProcessInstrumentationFunction</a></text>
</g>
<!-- 20&#45;&gt;0 -->
<g id="edge3" class="edge"><path fill="none" stroke="#000000" d="M95.4105,-209.387C96.2818,-202.871 98.2218,-196.332 102,-191 104.207,-187.886 106.615,-184.926 109.192,-182.112"/>
<polygon fill="#000000" stroke="#000000" points="95.4019,-209.576 99.1217,-215.753 94.8499,-221.563 91.1301,-215.385 95.4019,-209.576"/>
<polygon fill="#000000" stroke="#000000" points="116.389,-175.002 112.438,-185.231 112.832,-178.516 109.275,-182.03 109.275,-182.03 109.275,-182.03 112.832,-178.516 106.112,-178.829 116.389,-175.002 116.389,-175.002"/>
<text text-anchor="start" x="104.5" y="-195.5" font-family="Arial" font-size="10.00" fill="black"><a fill="navy" href="../reference/Instrumentation/ProcessInstrumentationFunction.html#dexpi-instrumentation-processinstrumentationfunction-signalconveyingfunctions" target="_parent">SignalConveyingFunctions</a></text>
<text text-anchor="start" x="108.389" y="-178.002" font-family="Arial" font-size="10.00" fill="black">*</text>
<text text-anchor="start" x="65.8499" y="-211.563" font-family="Arial" font-size="10.00" fill="black">0..1</text>
</g>
<!-- 23 -->
<g id="node7" class="node"><defs>
<linearGradient id="l_7" gradientUnits="userSpaceOnUse" x1="142" y1="-388" x2="142" y2="-424">
<stop offset="0" style="stop-color:#ffffbb;stop-opacity:1.;"/>
<stop offset="1" style="stop-color:#ffffee;stop-opacity:1.;"/>
</linearGradient>
</defs>
<polygon fill="url(#l_7)" stroke="black" points="216.5,-424 67.5,-424 67.5,-388 216.5,-388 216.5,-424"/>
<text text-anchor="start" x="78" y="-404.2" font-family="Arial" font-weight="bold" font-size="11.00" fill="black"><a fill="navy" href="../reference/Graphics/AttributeRepresentation.html" target="_parent">AttributeRepresentation</a></text>
</g>
<!-- 23&#45;&gt;8 -->
<g id="edge4" class="edge"><path fill="none" stroke="#000000" d="M158.966,-387.822C170.315,-376.331 185.416,-361.041 197.993,-348.307"/>
<polygon fill="#000000" stroke="#000000" points="205.059,-341.153 201.233,-351.43 201.545,-344.711 198.031,-348.268 198.031,-348.268 198.031,-348.268 201.545,-344.711 194.83,-345.106 205.059,-341.153 205.059,-341.153"/>
<text text-anchor="start" x="192.5" y="-361.5" font-family="Arial" font-size="10.00" fill="black"><a fill="navy" href="../reference/Graphics/AttributeRepresentation.html#dexpi-graphics-attributerepresentation-object" target="_parent">Object</a></text>
<text text-anchor="start" x="197.059" y="-344.153" font-family="Arial" font-size="10.00" fill="black"></text>
<text text-anchor="start" x="142.966" y="-377.822" font-family="Arial" font-size="10.00" fill="black">*</text>
</g>
<!-- 26 -->
<g id="node8" class="node"><defs>
<linearGradient id="l_8" gradientUnits="userSpaceOnUse" x1="303" y1="-388" x2="303" y2="-424">
<stop offset="0" style="stop-color:#ffffbb;stop-opacity:1.;"/>
<stop offset="1" style="stop-color:#ffffee;stop-opacity:1.;"/>
</linearGradient>
</defs>
<polygon fill="url(#l_8)" stroke="black" points="371.5,-424 234.5,-424 234.5,-388 371.5,-388 371.5,-424"/>
<text text-anchor="start" x="245" y="-404.2" font-family="Arial" font-weight="bold" font-size="11.00" fill="black"><a fill="navy" href="../reference/Graphics/RepresentationGroup.html" target="_parent">RepresentationGroup</a></text>
</g>
<!-- 26&#45;&gt;8 -->
<g id="edge5" class="edge"><path fill="none" stroke="#000000" d="M285.822,-387.822C274.331,-376.331 259.041,-361.041 246.307,-348.307"/>
<polygon fill="#000000" stroke="#000000" points="239.153,-341.153 249.406,-345.042 242.689,-344.689 246.224,-348.224 246.224,-348.224 246.224,-348.224 242.689,-344.689 243.042,-351.406 239.153,-341.153 239.153,-341.153"/>
<text text-anchor="start" x="272" y="-361.5" font-family="Arial" font-size="10.00" fill="black"><a fill="navy" href="../reference/Graphics/RepresentationGroup.html#dexpi-graphics-representationgroup-represents" target="_parent">Represents</a></text>
<text text-anchor="start" x="231.153" y="-344.153" font-family="Arial" font-size="10.00" fill="black"></text>
<text text-anchor="start" x="269.822" y="-377.822" font-family="Arial" font-size="10.00" fill="black">*</text>
</g>
<!-- 10&#45;inner&#45;node&#45;&gt;0 -->
<g id="edge8" class="edge"><path fill="none" stroke="black" d="M222.007,-238.921C222.157,-237.103 224.87,-204.245 227.277,-175.092"/>
</g>
<!-- 11&#45;inner&#45;node&#45;&gt;0 -->
<g id="edge10" class="edge"><path fill="none" stroke="black" d="M389.885,-238.921C387.233,-237.103 339.303,-204.245 296.776,-175.092"/>
</g>
</g>
</svg>