<!DOCTYPE svg PUBLIC "-//W3C//DTD SVG 1.1//EN" "http://www.w3.org/Graphics/SVG/1.1/DTD/svg11.dtd">
<!-- Generated by graphviz version 2.38.0 (20140413.2041)
 --><!-- Title: G Pages: 1 --><svg xmlns="http://www.w3.org/2000/svg" xmlns:xlink="http://www.w3.org/1999/xlink" width="425pt" height="422pt" viewBox="0.00 0.00 425.00 422.00">
<g id="graph0" class="graph" transform="scale(1 1) rotate(0) translate(4 418)">
<!-- 0 -->
<g id="node1" class="node"><defs>
<linearGradient id="l_0" gradientUnits="userSpaceOnUse" x1="183" y1="-3.19744e-014" x2="183" y2="-62">
<stop offset="0" style="stop-color:#ffffbb;stop-opacity:1.;"/>
<stop offset="1" style="stop-color:#ffffee;stop-opacity:1.;"/>
</linearGradient>
</defs>
<polygon fill="url(#l_0)" stroke="black" points="315.5,-62 50.5,-62 50.5,-0 315.5,-0 315.5,-62"/>
<text text-anchor="start" x="61" y="-48.2" font-family="Arial" font-weight="bold" font-size="11.00" fill="black">SignalOffPageConnectorReferenceByNumber</text>
<text text-anchor="start" x="61" y="-24" font-family="Arial" font-size="10.00" fill="black"><a fill="navy" href="../reference/Instrumentation/SignalOffPageConnectorReferenceByNumber.html#dexpi-instrumentation-signaloffpageconnectorreferencebynumber-referencedconnectornumber" target="_parent">ReferencedConnectorNumber</a>&#160;:</text>
<text text-anchor="start" x="209" y="-24" font-family="Arial" font-size="10.00" fill="black"><a fill="navy" href="../reference/DataTypes/NullableString.html" target="_parent">NullableString</a>&#160;[0..1]</text>
<text text-anchor="start" x="61" y="-9" font-family="Arial" font-size="10.00" fill="black"><a fill="navy" href="../reference/Instrumentation/SignalOffPageConnectorReferenceByNumber.html#dexpi-instrumentation-signaloffpageconnectorreferencebynumber-referenceddrawingnumber" target="_parent">ReferencedDrawingNumber</a>&#160;:</text>
<text text-anchor="start" x="209" y="-9" font-family="Arial" font-size="10.00" fill="black"><a fill="navy" href="../reference/DataTypes/NullableString.html" target="_parent">NullableString</a>&#160;[0..1]</text>
<polygon fill="black" stroke="black" points="315.5,-42.0 50.5,-42.0 50.5,-42.0 315.5,-42.0 315.5,-42.0"/>
</g>
<!-- 4 -->
<g id="node2" class="node"><defs>
<linearGradient id="l_1" gradientUnits="userSpaceOnUse" x1="183" y1="-129" x2="183" y2="-165">
<stop offset="0" style="stop-color:#ffffbb;stop-opacity:1.;"/>
<stop offset="1" style="stop-color:#ffffee;stop-opacity:1.;"/>
</linearGradient>
</defs>
<polygon fill="url(#l_1)" stroke="black" points="285.5,-165 80.5,-165 80.5,-129 285.5,-129 285.5,-165"/>
<text text-anchor="start" x="91" y="-145.2" font-family="Arial" font-weight="bold" font-style="italic" font-size="11.00" fill="black"><a fill="navy" href="../reference/Instrumentation/SignalOffPageConnectorReference.html" target="_parent">SignalOffPageConnectorReference</a></text>
</g>
<!-- 7&#45;inner&#45;node -->
<!-- 4&#45;&gt;7&#45;inner&#45;node -->
<g id="edge5" class="edge"><path fill="none" stroke="black" d="M183,-118.603C183,-107.422 183,-96.8866 183,-96.053L183,-94.9543"/>
<polygon fill="none" stroke="black" points="179.5,-118.793 183,-128.793 186.5,-118.793 179.5,-118.793"/>
</g>
<!-- 5 -->
<g id="node3" class="node"><defs>
<linearGradient id="l_2" gradientUnits="userSpaceOnUse" x1="177" y1="-295" x2="177" y2="-331">
<stop offset="0" style="stop-color:#ffffbb;stop-opacity:1.;"/>
<stop offset="1" style="stop-color:#ffffee;stop-opacity:1.;"/>
</linearGradient>
</defs>
<polygon fill="url(#l_2)" stroke="black" points="234.5,-331 119.5,-331 119.5,-295 234.5,-295 234.5,-331"/>
<text text-anchor="start" x="130" y="-311.2" font-family="Arial" font-weight="bold" font-style="italic" font-size="11.00" fill="black"><a fill="navy" href="../reference/DexpiModel/ConceptualObject.html" target="_parent">ConceptualObject</a></text>
</g>
<!-- 8&#45;inner&#45;node -->
<!-- 5&#45;&gt;8&#45;inner&#45;node -->
<g id="edge7" class="edge"><path fill="none" stroke="black" d="M177,-284.649C177,-261.987 177,-233.163 177,-231.116L177.004,-228.941"/>
<polygon fill="none" stroke="black" points="173.5,-284.822 177,-294.822 180.5,-284.822 173.5,-284.822"/>
</g>
<!-- 6 -->
<g id="node4" class="node"><defs>
<linearGradient id="l_3" gradientUnits="userSpaceOnUse" x1="345" y1="-295" x2="345" y2="-331">
<stop offset="0" style="stop-color:#ffffbb;stop-opacity:1.;"/>
<stop offset="1" style="stop-color:#ffffee;stop-opacity:1.;"/>
</linearGradient>
</defs>
<polygon fill="url(#l_3)" stroke="black" points="417,-331 273,-331 273,-295 417,-295 417,-331"/>
<text text-anchor="start" x="283" y="-311.2" font-family="Arial" font-weight="bold" font-style="italic" font-size="11.00" fill="black"><a fill="navy" href="../reference/Customization/CustomAttributeOwner.html" target="_parent">CustomAttributeOwner</a></text>
</g>
<!-- 21 -->
<g id="node8" class="node"><defs>
<linearGradient id="l_4" gradientUnits="userSpaceOnUse" x1="250" y1="-212" x2="250" y2="-248">
<stop offset="0" style="stop-color:#ffffbb;stop-opacity:1.;"/>
<stop offset="1" style="stop-color:#ffffee;stop-opacity:1.;"/>
</linearGradient>
</defs>
<polygon fill="url(#l_4)" stroke="black" points="304.5,-248 195.5,-248 195.5,-212 304.5,-212 304.5,-248"/>
<text text-anchor="start" x="206" y="-228.2" font-family="Arial" font-weight="bold" font-style="italic" font-size="11.00" fill="black"><a fill="navy" href="../reference/Customization/CustomAttribute.html" target="_parent">CustomAttribute</a></text>
</g>
<!-- 6&#45;&gt;21 -->
<g id="edge4" class="edge"><path fill="none" stroke="#000000" d="M271.066,-288.359C267.387,-285.576 263.987,-282.469 261,-279 256.071,-273.275 253.234,-265.784 251.632,-258.428"/>
<polygon fill="#000000" stroke="#000000" points="271.276,-288.495 278.486,-288.381 281.365,-294.992 274.155,-295.106 271.276,-288.495"/>
<polygon fill="#000000" stroke="#000000" points="250.101,-248.317 256.048,-257.53 250.85,-253.26 251.598,-258.204 251.598,-258.204 251.598,-258.204 250.85,-253.26 247.149,-258.878 250.101,-248.317 250.101,-248.317"/>
<text text-anchor="start" x="263" y="-268.5" font-family="Arial" font-size="10.00" fill="black"><a fill="navy" href="../reference/Customization/CustomAttributeOwner.html#dexpi-customization-customattributeowner-customattributes" target="_parent">CustomAttributes</a></text>
<text text-anchor="start" x="242.101" y="-251.317" font-family="Arial" font-size="10.00" fill="black">*</text>
<text text-anchor="start" x="252.365" y="-284.992" font-family="Arial" font-size="10.00" fill="black">0..1</text>
</g>
<!-- 9&#45;inner&#45;node -->
<!-- 6&#45;&gt;9&#45;inner&#45;node -->
<g id="edge9" class="edge"><path fill="none" stroke="black" d="M345,-284.649C345,-261.987 345,-233.163 345,-231.116L344.949,-228.972"/>
<polygon fill="none" stroke="black" points="341.5,-284.822 345,-294.822 348.5,-284.822 341.5,-284.822"/>
</g>
<!-- 12 -->
<g id="node5" class="node"><defs>
<linearGradient id="l_5" gradientUnits="userSpaceOnUse" x1="76" y1="-212" x2="76" y2="-248">
<stop offset="0" style="stop-color:#ffffbb;stop-opacity:1.;"/>
<stop offset="1" style="stop-color:#ffffee;stop-opacity:1.;"/>
</linearGradient>
</defs>
<polygon fill="url(#l_5)" stroke="black" points="152,-248 0,-248 0,-212 152,-212 152,-248"/>
<text text-anchor="start" x="10" y="-228.2" font-family="Arial" font-weight="bold" font-style="italic" font-size="11.00" fill="black"><a fill="navy" href="../reference/Instrumentation/SignalOffPageConnector.html" target="_parent">SignalOffPageConnector</a></text>
</g>
<!-- 12&#45;&gt;4 -->
<g id="edge1" class="edge"><path fill="none" stroke="#000000" d="M75.9077,-199.477C77.1675,-192.791 79.5965,-186.153 84,-181 87.3709,-177.055 91.2266,-173.58 95.4166,-170.519"/>
<polygon fill="#000000" stroke="#000000" points="75.8873,-199.687 79.2853,-206.048 74.7211,-211.631 71.3231,-205.27 75.8873,-199.687"/>
<polygon fill="#000000" stroke="#000000" points="103.846,-165.127 97.8467,-174.306 99.6343,-167.821 95.4221,-170.515 95.4221,-170.515 95.4221,-170.515 99.6343,-167.821 92.9975,-166.724 103.846,-165.127 103.846,-165.127"/>
<text text-anchor="start" x="86" y="-185.5" font-family="Arial" font-size="10.00" fill="black"><a fill="navy" href="../reference/Instrumentation/SignalOffPageConnector.html#dexpi-instrumentation-signaloffpageconnector-connectorreference" target="_parent">ConnectorReference</a></text>
<text text-anchor="start" x="82.8465" y="-168.127" font-family="Arial" font-size="10.00" fill="black">0..1</text>
<text text-anchor="start" x="45.7211" y="-201.631" font-family="Arial" font-size="10.00" fill="black">0..1</text>
</g>
<!-- 15 -->
<g id="node6" class="node"><defs>
<linearGradient id="l_6" gradientUnits="userSpaceOnUse" x1="97" y1="-378" x2="97" y2="-414">
<stop offset="0" style="stop-color:#ffffbb;stop-opacity:1.;"/>
<stop offset="1" style="stop-color:#ffffee;stop-opacity:1.;"/>
</linearGradient>
</defs>
<polygon fill="url(#l_6)" stroke="black" points="171.5,-414 22.5,-414 22.5,-378 171.5,-378 171.5,-414"/>
<text text-anchor="start" x="33" y="-394.2" font-family="Arial" font-weight="bold" font-size="11.00" fill="black"><a fill="navy" href="../reference/Graphics/AttributeRepresentation.html" target="_parent">AttributeRepresentation</a></text>
</g>
<!-- 15&#45;&gt;5 -->
<g id="edge2" class="edge"><path fill="none" stroke="#000000" d="M113.966,-377.822C125.315,-366.331 140.416,-351.041 152.993,-338.307"/>
<polygon fill="#000000" stroke="#000000" points="160.059,-331.153 156.233,-341.43 156.545,-334.711 153.031,-338.268 153.031,-338.268 153.031,-338.268 156.545,-334.711 149.83,-335.106 160.059,-331.153 160.059,-331.153"/>
<text text-anchor="start" x="147.5" y="-351.5" font-family="Arial" font-size="10.00" fill="black"><a fill="navy" href="../reference/Graphics/AttributeRepresentation.html#dexpi-graphics-attributerepresentation-object" target="_parent">Object</a></text>
<text text-anchor="start" x="152.059" y="-334.153" font-family="Arial" font-size="10.00" fill="black"></text>
<text text-anchor="start" x="97.966" y="-367.822" font-family="Arial" font-size="10.00" fill="black">*</text>
</g>
<!-- 18 -->
<g id="node7" class="node"><defs>
<linearGradient id="l_7" gradientUnits="userSpaceOnUse" x1="258" y1="-378" x2="258" y2="-414">
<stop offset="0" style="stop-color:#ffffbb;stop-opacity:1.;"/>
<stop offset="1" style="stop-color:#ffffee;stop-opacity:1.;"/>
</linearGradient>
</defs>
<polygon fill="url(#l_7)" stroke="black" points="326.5,-414 189.5,-414 189.5,-378 326.5,-378 326.5,-414"/>
<text text-anchor="start" x="200" y="-394.2" font-family="Arial" font-weight="bold" font-size="11.00" fill="black"><a fill="navy" href="../reference/Graphics/RepresentationGroup.html" target="_parent">RepresentationGroup</a></text>
</g>
<!-- 18&#45;&gt;5 -->
<g id="edge3" class="edge"><path fill="none" stroke="#000000" d="M240.822,-377.822C229.331,-366.331 214.041,-351.041 201.307,-338.307"/>
<polygon fill="#000000" stroke="#000000" points="194.153,-331.153 204.406,-335.042 197.689,-334.689 201.224,-338.224 201.224,-338.224 201.224,-338.224 197.689,-334.689 198.042,-341.406 194.153,-331.153 194.153,-331.153"/>
<text text-anchor="start" x="227" y="-351.5" font-family="Arial" font-size="10.00" fill="black"><a fill="navy" href="../reference/Graphics/RepresentationGroup.html#dexpi-graphics-representationgroup-represents" target="_parent">Represents</a></text>
<text text-anchor="start" x="186.153" y="-334.153" font-family="Arial" font-size="10.00" fill="black"></text>
<text text-anchor="start" x="224.822" y="-367.822" font-family="Arial" font-size="10.00" fill="black">*</text>
</g>
<!-- 7&#45;inner&#45;node&#45;&gt;0 -->
<g id="edge6" class="edge"><path fill="none" stroke="black" d="M183,-94.9543C183,-93.9856 183,-77.7665 183,-62.0354"/>
</g>
<!-- 8&#45;inner&#45;node&#45;&gt;4 -->
<g id="edge8" class="edge"><path fill="none" stroke="black" d="M177.004,-228.941C177.131,-227.226 180.012,-188.337 181.734,-165.098"/>
</g>
<!-- 9&#45;inner&#45;node&#45;&gt;4 -->
<g id="edge10" class="edge"><path fill="none" stroke="black" d="M344.949,-228.972C343.899,-228.398 326.889,-219.106 313,-212 281.199,-195.73 244.679,-177.818 218.46,-165.092"/>
</g>
</g>
</svg>