<!DOCTYPE svg PUBLIC "-//W3C//DTD SVG 1.1//EN" "http://www.w3.org/Graphics/SVG/1.1/DTD/svg11.dtd">
<!-- Generated by graphviz version 2.38.0 (20140413.2041)
 --><!-- Title: G Pages: 1 --><svg xmlns="http://www.w3.org/2000/svg" xmlns:xlink="http://www.w3.org/1999/xlink" width="198pt" height="127pt" viewBox="0.00 0.00 198.00 127.00">
<g id="graph0" class="graph" transform="scale(1 1) rotate(0) translate(4 123)">
<!-- 0 -->
<g id="node1" class="node"><defs>
<linearGradient id="l_0" gradientUnits="userSpaceOnUse" x1="95" y1="-1.77636e-014" x2="95" y2="-36">
<stop offset="0" style="stop-color:#ffffbb;stop-opacity:1.;"/>
<stop offset="1" style="stop-color:#ffffee;stop-opacity:1.;"/>
</linearGradient>
</defs>
<polygon fill="url(#l_0)" stroke="black" points="190,-36 0,-36 0,-0 190,-0 190,-36"/>
<text text-anchor="start" x="10" y="-16.2" font-family="Arial" font-weight="bold" font-style="italic" font-size="11.00" fill="black">SignalConveyingFunctionTarget</text>
</g>
<!-- 3 -->
<g id="node2" class="node"><defs>
<linearGradient id="l_1" gradientUnits="userSpaceOnUse" x1="95" y1="-83" x2="95" y2="-119">
<stop offset="0" style="stop-color:#ffffbb;stop-opacity:1.;"/>
<stop offset="1" style="stop-color:#ffffee;stop-opacity:1.;"/>
</linearGradient>
</defs>
<polygon fill="url(#l_1)" stroke="black" points="173.5,-119 16.5,-119 16.5,-83 173.5,-83 173.5,-119"/>
<text text-anchor="start" x="27" y="-99.2" font-family="Arial" font-weight="bold" font-size="11.00" fill="black"><a fill="navy" href="../reference/Instrumentation/SignalConveyingFunction.html" target="_parent">SignalConveyingFunction</a></text>
</g>
<!-- 3&#45;&gt;0 -->
<g id="edge1" class="edge"><path fill="none" stroke="#000000" d="M95,-82.822C95,-72.1903 95,-58.306 95,-46.2035"/>
<polygon fill="#000000" stroke="#000000" points="95,-36.1533 99.5001,-46.1532 95,-41.1533 95.0001,-46.1533 95.0001,-46.1533 95.0001,-46.1533 95,-41.1533 90.5001,-46.1533 95,-36.1533 95,-36.1533"/>
<text text-anchor="start" x="97" y="-56.5" font-family="Arial" font-size="10.00" fill="black"><a fill="navy" href="../reference/Instrumentation/SignalConveyingFunction.html#dexpi-instrumentation-signalconveyingfunction-target" target="_parent">Target</a></text>
<text text-anchor="start" x="74.0" y="-39.1533" font-family="Arial" font-size="10.00" fill="black">0..1</text>
<text text-anchor="start" x="79.0" y="-72.822" font-family="Arial" font-size="10.00" fill="black">*</text>
</g>
</g>
</svg>