<!DOCTYPE svg PUBLIC "-//W3C//DTD SVG 1.1//EN" "http://www.w3.org/Graphics/SVG/1.1/DTD/svg11.dtd">
<!-- Generated by graphviz version 2.38.0 (20140413.2041)
 --><!-- Title: G Pages: 1 --><svg xmlns="http://www.w3.org/2000/svg" xmlns:xlink="http://www.w3.org/1999/xlink" width="725pt" height="376pt" viewBox="0.00 0.00 724.50 376.00">
<g id="graph0" class="graph" transform="scale(1 1) rotate(0) translate(4 372)">
<!-- 0 -->
<g id="node1" class="node"><defs>
<linearGradient id="l_0" gradientUnits="userSpaceOnUse" x1="413.5" y1="-83" x2="413.5" y2="-119">
<stop offset="0" style="stop-color:#ffffbb;stop-opacity:1.;"/>
<stop offset="1" style="stop-color:#ffffee;stop-opacity:1.;"/>
</linearGradient>
</defs>
<polygon fill="url(#l_0)" stroke="black" points="489.5,-119 337.5,-119 337.5,-83 489.5,-83 489.5,-119"/>
<text text-anchor="start" x="347.5" y="-99.2" font-family="Arial" font-weight="bold" font-style="italic" font-size="11.00" fill="black">SignalOffPageConnector</text>
</g>
<!-- 7 -->
<g id="node4" class="node"><defs>
<linearGradient id="l_1" gradientUnits="userSpaceOnUse" x1="413.5" y1="-1.77636e-014" x2="413.5" y2="-36">
<stop offset="0" style="stop-color:#ffffbb;stop-opacity:1.;"/>
<stop offset="1" style="stop-color:#ffffee;stop-opacity:1.;"/>
</linearGradient>
</defs>
<polygon fill="url(#l_1)" stroke="black" points="516,-36 311,-36 311,-0 516,-0 516,-36"/>
<text text-anchor="start" x="321.5" y="-16.2" font-family="Arial" font-weight="bold" font-style="italic" font-size="11.00" fill="black"><a fill="navy" href="../reference/Instrumentation/SignalOffPageConnectorReference.html" target="_parent">SignalOffPageConnectorReference</a></text>
</g>
<!-- 0&#45;&gt;7 -->
<g id="edge1" class="edge"><path fill="none" stroke="#000000" d="M413.5,-70.5488C413.5,-62.6036 413.5,-54.0441 413.5,-46.2265"/>
<polygon fill="#000000" stroke="#000000" points="413.5,-70.822 417.5,-76.822 413.5,-82.822 409.5,-76.822 413.5,-70.822"/>
<polygon fill="#000000" stroke="#000000" points="413.5,-36.1533 418,-46.1532 413.5,-41.1533 413.5,-46.1533 413.5,-46.1533 413.5,-46.1533 413.5,-41.1533 409,-46.1533 413.5,-36.1533 413.5,-36.1533"/>
<text text-anchor="start" x="415.5" y="-56.5" font-family="Arial" font-size="10.00" fill="black"><a fill="navy" href="../reference/Instrumentation/SignalOffPageConnector.html#dexpi-instrumentation-signaloffpageconnector-connectorreference" target="_parent">ConnectorReference</a></text>
<text text-anchor="start" x="392.5" y="-39.1533" font-family="Arial" font-size="10.00" fill="black">0..1</text>
<text text-anchor="start" x="384.5" y="-72.822" font-family="Arial" font-size="10.00" fill="black">0..1</text>
</g>
<!-- 1 -->
<g id="node2" class="node"><defs>
<linearGradient id="l_2" gradientUnits="userSpaceOnUse" x1="476.5" y1="-249" x2="476.5" y2="-285">
<stop offset="0" style="stop-color:#ffffbb;stop-opacity:1.;"/>
<stop offset="1" style="stop-color:#ffffee;stop-opacity:1.;"/>
</linearGradient>
</defs>
<polygon fill="url(#l_2)" stroke="black" points="534,-285 419,-285 419,-249 534,-249 534,-285"/>
<text text-anchor="start" x="429.5" y="-265.2" font-family="Arial" font-weight="bold" font-style="italic" font-size="11.00" fill="black"><a fill="navy" href="../reference/DexpiModel/ConceptualObject.html" target="_parent">ConceptualObject</a></text>
</g>
<!-- 3&#45;inner&#45;node -->
<!-- 1&#45;&gt;3&#45;inner&#45;node -->
<g id="edge7" class="edge"><path fill="none" stroke="black" d="M476.5,-238.649C476.5,-215.987 476.5,-187.163 476.5,-185.116L476.473,-182.916"/>
<polygon fill="none" stroke="black" points="473,-238.822 476.5,-248.822 480,-238.822 473,-238.822"/>
</g>
<!-- 2 -->
<g id="node3" class="node"><defs>
<linearGradient id="l_3" gradientUnits="userSpaceOnUse" x1="644.5" y1="-249" x2="644.5" y2="-285">
<stop offset="0" style="stop-color:#ffffbb;stop-opacity:1.;"/>
<stop offset="1" style="stop-color:#ffffee;stop-opacity:1.;"/>
</linearGradient>
</defs>
<polygon fill="url(#l_3)" stroke="black" points="716.5,-285 572.5,-285 572.5,-249 716.5,-249 716.5,-285"/>
<text text-anchor="start" x="582.5" y="-265.2" font-family="Arial" font-weight="bold" font-style="italic" font-size="11.00" fill="black"><a fill="navy" href="../reference/Customization/CustomAttributeOwner.html" target="_parent">CustomAttributeOwner</a></text>
</g>
<!-- 22 -->
<g id="node9" class="node"><defs>
<linearGradient id="l_4" gradientUnits="userSpaceOnUse" x1="549.5" y1="-166" x2="549.5" y2="-202">
<stop offset="0" style="stop-color:#ffffbb;stop-opacity:1.;"/>
<stop offset="1" style="stop-color:#ffffee;stop-opacity:1.;"/>
</linearGradient>
</defs>
<polygon fill="url(#l_4)" stroke="black" points="604,-202 495,-202 495,-166 604,-166 604,-202"/>
<text text-anchor="start" x="505.5" y="-182.2" font-family="Arial" font-weight="bold" font-style="italic" font-size="11.00" fill="black"><a fill="navy" href="../reference/Customization/CustomAttribute.html" target="_parent">CustomAttribute</a></text>
</g>
<!-- 2&#45;&gt;22 -->
<g id="edge6" class="edge"><path fill="none" stroke="#000000" d="M570.566,-242.359C566.887,-239.576 563.487,-236.469 560.5,-233 555.571,-227.275 552.734,-219.784 551.132,-212.428"/>
<polygon fill="#000000" stroke="#000000" points="570.776,-242.495 577.986,-242.381 580.865,-248.992 573.655,-249.106 570.776,-242.495"/>
<polygon fill="#000000" stroke="#000000" points="549.601,-202.317 555.548,-211.53 550.35,-207.26 551.098,-212.204 551.098,-212.204 551.098,-212.204 550.35,-207.26 546.649,-212.878 549.601,-202.317 549.601,-202.317"/>
<text text-anchor="start" x="562.5" y="-222.5" font-family="Arial" font-size="10.00" fill="black"><a fill="navy" href="../reference/Customization/CustomAttributeOwner.html#dexpi-customization-customattributeowner-customattributes" target="_parent">CustomAttributes</a></text>
<text text-anchor="start" x="541.601" y="-205.317" font-family="Arial" font-size="10.00" fill="black">*</text>
<text text-anchor="start" x="551.865" y="-238.992" font-family="Arial" font-size="10.00" fill="black">0..1</text>
</g>
<!-- 4&#45;inner&#45;node -->
<!-- 2&#45;&gt;4&#45;inner&#45;node -->
<g id="edge9" class="edge"><path fill="none" stroke="black" d="M644.5,-238.649C644.5,-215.987 644.5,-187.163 644.5,-185.116L644.45,-182.969"/>
<polygon fill="none" stroke="black" points="641,-238.822 644.5,-248.822 648,-238.822 641,-238.822"/>
</g>
<!-- 10 -->
<g id="node5" class="node"><defs>
<linearGradient id="l_5" gradientUnits="userSpaceOnUse" x1="122.5" y1="-166" x2="122.5" y2="-202">
<stop offset="0" style="stop-color:#ffffbb;stop-opacity:1.;"/>
<stop offset="1" style="stop-color:#ffffee;stop-opacity:1.;"/>
</linearGradient>
</defs>
<polygon fill="url(#l_5)" stroke="black" points="245,-202 0,-202 0,-166 245,-166 245,-202"/>
<text text-anchor="start" x="10.5" y="-182.2" font-family="Arial" font-weight="bold" font-size="11.00" fill="black"><a fill="navy" href="../reference/Instrumentation/SignalOffPageConnectorObjectReference.html" target="_parent">SignalOffPageConnectorObjectReference</a></text>
</g>
<!-- 10&#45;&gt;0 -->
<g id="edge2" class="edge"><path fill="none" stroke="#000000" d="M168.453,-165.906C195.82,-156.091 231.372,-143.973 263.5,-135 284.008,-129.273 306.316,-123.908 327.307,-119.236"/>
<polygon fill="#000000" stroke="#000000" points="337.169,-117.07 328.367,-123.61 332.285,-118.143 327.402,-119.215 327.402,-119.215 327.402,-119.215 332.285,-118.143 326.436,-114.82 337.169,-117.07 337.169,-117.07"/>
<text text-anchor="start" x="265.5" y="-139.5" font-family="Arial" font-size="10.00" fill="black"><a fill="navy" href="../reference/Instrumentation/SignalOffPageConnectorObjectReference.html#dexpi-instrumentation-signaloffpageconnectorobjectreference-referencedconnector" target="_parent">ReferencedConnector</a></text>
<text text-anchor="start" x="316.169" y="-120.07" font-family="Arial" font-size="10.00" fill="black">0..1</text>
<text text-anchor="start" x="152.453" y="-155.906" font-family="Arial" font-size="10.00" fill="black">*</text>
</g>
<!-- 13 -->
<g id="node6" class="node"><defs>
<linearGradient id="l_6" gradientUnits="userSpaceOnUse" x1="360.5" y1="-166" x2="360.5" y2="-202">
<stop offset="0" style="stop-color:#ffffbb;stop-opacity:1.;"/>
<stop offset="1" style="stop-color:#ffffee;stop-opacity:1.;"/>
</linearGradient>
</defs>
<polygon fill="url(#l_6)" stroke="black" points="457.5,-202 263.5,-202 263.5,-166 457.5,-166 457.5,-202"/>
<text text-anchor="start" x="273.5" y="-182.2" font-family="Arial" font-weight="bold" font-size="11.00" fill="black"><a fill="navy" href="../reference/Instrumentation/ProcessInstrumentationFunction.html" target="_parent">ProcessInstrumentationFunction</a></text>
</g>
<!-- 13&#45;&gt;0 -->
<g id="edge3" class="edge"><path fill="none" stroke="#000000" d="M363.817,-154.072C365.452,-147.459 367.884,-140.704 371.5,-135 373.505,-131.838 375.922,-128.852 378.571,-126.066"/>
<polygon fill="#000000" stroke="#000000" points="363.806,-154.135 366.638,-160.767 361.605,-165.932 358.773,-159.3 363.806,-154.135"/>
<polygon fill="#000000" stroke="#000000" points="386.004,-119.174 381.732,-129.273 382.338,-122.574 378.672,-125.973 378.672,-125.973 378.672,-125.973 382.338,-122.574 375.612,-122.674 386.004,-119.174 386.004,-119.174"/>
<text text-anchor="start" x="374" y="-139.5" font-family="Arial" font-size="10.00" fill="black"><a fill="navy" href="../reference/Instrumentation/ProcessInstrumentationFunction.html#dexpi-instrumentation-processinstrumentationfunction-signalconnectors" target="_parent">SignalConnectors</a></text>
<text text-anchor="start" x="378.004" y="-122.174" font-family="Arial" font-size="10.00" fill="black">*</text>
<text text-anchor="start" x="332.605" y="-155.932" font-family="Arial" font-size="10.00" fill="black">0..1</text>
</g>
<!-- 16 -->
<g id="node7" class="node"><defs>
<linearGradient id="l_7" gradientUnits="userSpaceOnUse" x1="396.5" y1="-332" x2="396.5" y2="-368">
<stop offset="0" style="stop-color:#ffffbb;stop-opacity:1.;"/>
<stop offset="1" style="stop-color:#ffffee;stop-opacity:1.;"/>
</linearGradient>
</defs>
<polygon fill="url(#l_7)" stroke="black" points="471,-368 322,-368 322,-332 471,-332 471,-368"/>
<text text-anchor="start" x="332.5" y="-348.2" font-family="Arial" font-weight="bold" font-size="11.00" fill="black"><a fill="navy" href="../reference/Graphics/AttributeRepresentation.html" target="_parent">AttributeRepresentation</a></text>
</g>
<!-- 16&#45;&gt;1 -->
<g id="edge4" class="edge"><path fill="none" stroke="#000000" d="M413.466,-331.822C424.815,-320.331 439.916,-305.041 452.493,-292.307"/>
<polygon fill="#000000" stroke="#000000" points="459.559,-285.153 455.733,-295.43 456.045,-288.711 452.531,-292.268 452.531,-292.268 452.531,-292.268 456.045,-288.711 449.33,-289.106 459.559,-285.153 459.559,-285.153"/>
<text text-anchor="start" x="447" y="-305.5" font-family="Arial" font-size="10.00" fill="black"><a fill="navy" href="../reference/Graphics/AttributeRepresentation.html#dexpi-graphics-attributerepresentation-object" target="_parent">Object</a></text>
<text text-anchor="start" x="451.559" y="-288.153" font-family="Arial" font-size="10.00" fill="black"></text>
<text text-anchor="start" x="397.466" y="-321.822" font-family="Arial" font-size="10.00" fill="black">*</text>
</g>
<!-- 19 -->
<g id="node8" class="node"><defs>
<linearGradient id="l_8" gradientUnits="userSpaceOnUse" x1="557.5" y1="-332" x2="557.5" y2="-368">
<stop offset="0" style="stop-color:#ffffbb;stop-opacity:1.;"/>
<stop offset="1" style="stop-color:#ffffee;stop-opacity:1.;"/>
</linearGradient>
</defs>
<polygon fill="url(#l_8)" stroke="black" points="626,-368 489,-368 489,-332 626,-332 626,-368"/>
<text text-anchor="start" x="499.5" y="-348.2" font-family="Arial" font-weight="bold" font-size="11.00" fill="black"><a fill="navy" href="../reference/Graphics/RepresentationGroup.html" target="_parent">RepresentationGroup</a></text>
</g>
<!-- 19&#45;&gt;1 -->
<g id="edge5" class="edge"><path fill="none" stroke="#000000" d="M540.322,-331.822C528.831,-320.331 513.541,-305.041 500.807,-292.307"/>
<polygon fill="#000000" stroke="#000000" points="493.653,-285.153 503.906,-289.042 497.189,-288.689 500.724,-292.224 500.724,-292.224 500.724,-292.224 497.189,-288.689 497.542,-295.406 493.653,-285.153 493.653,-285.153"/>
<text text-anchor="start" x="526.5" y="-305.5" font-family="Arial" font-size="10.00" fill="black"><a fill="navy" href="../reference/Graphics/RepresentationGroup.html#dexpi-graphics-representationgroup-represents" target="_parent">Represents</a></text>
<text text-anchor="start" x="485.653" y="-288.153" font-family="Arial" font-size="10.00" fill="black"></text>
<text text-anchor="start" x="524.322" y="-321.822" font-family="Arial" font-size="10.00" fill="black">*</text>
</g>
<!-- 3&#45;inner&#45;node&#45;&gt;0 -->
<g id="edge8" class="edge"><path fill="none" stroke="black" d="M476.473,-182.916C475.916,-181.182 466.778,-153.167 452.5,-135 448.006,-129.282 442.389,-123.841 436.831,-119.086"/>
</g>
<!-- 4&#45;inner&#45;node&#45;&gt;0 -->
<g id="edge10" class="edge"><path fill="none" stroke="black" d="M644.45,-182.969C643.429,-182.334 626.871,-172.072 612.5,-166 568.038,-147.215 516.062,-130.674 476.381,-119.116"/>
</g>
</g>
</svg>