<!DOCTYPE svg PUBLIC "-//W3C//DTD SVG 1.1//EN" "http://www.w3.org/Graphics/SVG/1.1/DTD/svg11.dtd">
<!-- Generated by graphviz version 2.38.0 (20140413.2041)
 --><!-- Title: G Pages: 1 --><svg xmlns="http://www.w3.org/2000/svg" xmlns:xlink="http://www.w3.org/1999/xlink" width="867pt" height="766pt" viewBox="0.00 0.00 866.50 766.00">
<g id="graph0" class="graph" transform="scale(1 1) rotate(0) translate(4 762)">
<!-- 0 -->
<g id="node1" class="node"><defs>
<linearGradient id="l_0" gradientUnits="userSpaceOnUse" x1="457.5" y1="-1.77636e-014" x2="457.5" y2="-36">
<stop offset="0" style="stop-color:#ffffbb;stop-opacity:1.;"/>
<stop offset="1" style="stop-color:#ffffee;stop-opacity:1.;"/>
</linearGradient>
</defs>
<polygon fill="url(#l_0)" stroke="black" points="484.5,-36 430.5,-36 430.5,-0 484.5,-0 484.5,-36"/>
<text text-anchor="start" x="447.5" y="-16.2" font-family="Arial" font-weight="bold" font-size="11.00" fill="black">Silo</text>
</g>
<!-- 2 -->
<g id="node2" class="node"><defs>
<linearGradient id="l_1" gradientUnits="userSpaceOnUse" x1="766.5" y1="-705" x2="766.5" y2="-758">
<stop offset="0" style="stop-color:#fbfbfb;stop-opacity:1.;"/>
<stop offset="1" style="stop-color:#fefefe;stop-opacity:1.;"/>
</linearGradient>
</defs>
<polygon fill="url(#l_1)" stroke="black" points="858.5,-747.0 847.5,-758.0 674.5,-758.0 674.5,-705.0 858.5,-705.0"/><path d="M858.5,-747.0L847.5,-747.0 847.5,-758.0" fill="none" stroke="black"/>
<text text-anchor="start" x="684.5" y="-743.5" font-family="Arial" font-size="10.00" fill="black">For&#160;the&#160;sake&#160;of&#160;clarity,&#160;superclasses&#160;</text>
<text text-anchor="start" x="684.5" y="-728.5" font-family="Arial" font-size="10.00" fill="black">and&#160;associations&#160;of&#160;<a fill="navy" href="../reference/PlantStructure/TechnicalItem.html" target="_parent">TechnicalItem</a>&#160;are</text>
<text text-anchor="start" x="684.5" y="-713.5" font-family="Arial" font-size="10.00" fill="black">not&#160;shown&#160;in&#160;this&#160;diagram.</text>
</g>
<!-- 1 -->
<g id="node3" class="node"><defs>
<linearGradient id="l_2" gradientUnits="userSpaceOnUse" x1="766.5" y1="-622" x2="766.5" y2="-658">
<stop offset="0" style="stop-color:#ffffbb;stop-opacity:1.;"/>
<stop offset="1" style="stop-color:#ffffee;stop-opacity:1.;"/>
</linearGradient>
</defs>
<polygon fill="url(#l_2)" stroke="black" points="813,-658 720,-658 720,-622 813,-622 813,-658"/>
<text text-anchor="start" x="730.5" y="-638.2" font-family="Arial" font-weight="bold" font-style="italic" font-size="11.00" fill="black"><a fill="navy" href="../reference/PlantStructure/TechnicalItem.html" target="_parent">TechnicalItem</a></text>
</g>
<!-- 2&#45;&gt;1 -->
<g id="edge1" class="edge"><path fill="none" stroke="#000000" stroke-dasharray="5,2" d="M766.5,-704.613C766.5,-689.641 766.5,-671.222 766.5,-658.063"/>
</g>
<!-- 18&#45;inner&#45;node -->
<!-- 1&#45;&gt;18&#45;inner&#45;node -->
<g id="edge28" class="edge"><path fill="none" stroke="black" d="M766.5,-611.649C766.5,-588.987 766.5,-560.163 766.5,-558.116L766.362,-555.941"/>
<polygon fill="none" stroke="black" points="763,-611.822 766.5,-621.822 770,-611.822 763,-611.822"/>
</g>
<!-- 4 -->
<g id="node4" class="node"><defs>
<linearGradient id="l_3" gradientUnits="userSpaceOnUse" x1="457.5" y1="-152" x2="457.5" y2="-188">
<stop offset="0" style="stop-color:#ffffbb;stop-opacity:1.;"/>
<stop offset="1" style="stop-color:#ffffee;stop-opacity:1.;"/>
</linearGradient>
</defs>
<polygon fill="url(#l_3)" stroke="black" points="485.5,-188 429.5,-188 429.5,-152 485.5,-152 485.5,-188"/>
<text text-anchor="start" x="439.5" y="-168.2" font-family="Arial" font-weight="bold" font-size="11.00" fill="black"><a fill="navy" href="../reference/Equipment/Vessel.html" target="_parent">Vessel</a></text>
</g>
<!-- 21 -->
<g id="node11" class="node"><defs>
<linearGradient id="l_4" gradientUnits="userSpaceOnUse" x1="246.5" y1="-69" x2="246.5" y2="-105">
<stop offset="0" style="stop-color:#ffffbb;stop-opacity:1.;"/>
<stop offset="1" style="stop-color:#ffffee;stop-opacity:1.;"/>
</linearGradient>
</defs>
<polygon fill="url(#l_4)" stroke="black" points="277.5,-105 215.5,-105 215.5,-69 277.5,-69 277.5,-105"/>
<text text-anchor="start" x="225.5" y="-85.2" font-family="Arial" font-weight="bold" font-size="11.00" fill="black"><a fill="navy" href="../reference/Equipment/Agitator.html" target="_parent">Agitator</a></text>
</g>
<!-- 4&#45;&gt;21 -->
<g id="edge2" class="edge"><path fill="none" stroke="#000000" d="M429.351,-164.153C402.721,-159.025 361.961,-149.755 328.5,-136 311.822,-129.144 294.436,-119.391 279.988,-110.466"/>
<polygon fill="#000000" stroke="#000000" points="271.404,-105.048 282.262,-106.58 275.632,-107.717 279.86,-110.385 279.86,-110.385 279.86,-110.385 275.632,-107.717 277.459,-114.191 271.404,-105.048 271.404,-105.048"/>
<text text-anchor="start" x="330.5" y="-125.5" font-family="Arial" font-size="10.00" fill="black"><a fill="navy" href="../reference/Equipment/Vessel.html#dexpi-equipment-vessel-agitator" target="_parent">Agitator</a></text>
<text text-anchor="start" x="250.404" y="-108.048" font-family="Arial" font-size="10.00" fill="black">0..1</text>
<text text-anchor="start" x="400.351" y="-165.153" font-family="Arial" font-size="10.00" fill="black">0..1</text>
</g>
<!-- 24 -->
<g id="node12" class="node"><defs>
<linearGradient id="l_5" gradientUnits="userSpaceOnUse" x1="366.5" y1="-69" x2="366.5" y2="-105">
<stop offset="0" style="stop-color:#ffffbb;stop-opacity:1.;"/>
<stop offset="1" style="stop-color:#ffffee;stop-opacity:1.;"/>
</linearGradient>
</defs>
<polygon fill="url(#l_5)" stroke="black" points="437.5,-105 295.5,-105 295.5,-69 437.5,-69 437.5,-105"/>
<text text-anchor="start" x="305.5" y="-85.2" font-family="Arial" font-weight="bold" font-size="11.00" fill="black"><a fill="navy" href="../reference/Equipment/TaggedColumnSection.html" target="_parent">TaggedColumnSection</a></text>
</g>
<!-- 4&#45;&gt;24 -->
<g id="edge3" class="edge"><path fill="none" stroke="#000000" d="M429.172,-164.129C411.816,-159.688 390.507,-151.367 377.5,-136 372.62,-130.234 369.798,-122.73 368.195,-115.375"/>
<polygon fill="#000000" stroke="#000000" points="366.653,-105.272 372.61,-114.479 367.407,-110.215 368.162,-115.158 368.162,-115.158 368.162,-115.158 367.407,-110.215 363.713,-115.837 366.653,-105.272 366.653,-105.272"/>
<text text-anchor="start" x="379.5" y="-125.5" font-family="Arial" font-size="10.00" fill="black"><a fill="navy" href="../reference/Equipment/Vessel.html#dexpi-equipment-vessel-columnsections" target="_parent">ColumnSections</a></text>
<text text-anchor="start" x="358.653" y="-108.272" font-family="Arial" font-size="10.00" fill="black">*</text>
<text text-anchor="start" x="400.172" y="-154.129" font-family="Arial" font-size="10.00" fill="black">0..1</text>
</g>
<!-- 11&#45;inner&#45;node -->
<!-- 4&#45;&gt;11&#45;inner&#45;node -->
<g id="edge14" class="edge"><path fill="none" stroke="black" d="M457.5,-141.649C457.5,-118.987 457.5,-90.1627 457.5,-88.1156L457.5,-85.9514"/>
<polygon fill="none" stroke="black" points="454,-141.822 457.5,-151.822 461,-141.822 454,-141.822"/>
</g>
<!-- 5 -->
<g id="node5" class="node"><defs>
<linearGradient id="l_6" gradientUnits="userSpaceOnUse" x1="457.5" y1="-304" x2="457.5" y2="-340">
<stop offset="0" style="stop-color:#ffffbb;stop-opacity:1.;"/>
<stop offset="1" style="stop-color:#ffffee;stop-opacity:1.;"/>
</linearGradient>
</defs>
<polygon fill="url(#l_6)" stroke="black" points="496.5,-340 418.5,-340 418.5,-304 496.5,-304 496.5,-340"/>
<text text-anchor="start" x="428.5" y="-320.2" font-family="Arial" font-weight="bold" font-style="italic" font-size="11.00" fill="black"><a fill="navy" href="../reference/Equipment/Equipment.html" target="_parent">Equipment</a></text>
</g>
<!-- 27 -->
<g id="node13" class="node"><defs>
<linearGradient id="l_7" gradientUnits="userSpaceOnUse" x1="51.5" y1="-221" x2="51.5" y2="-257">
<stop offset="0" style="stop-color:#ffffbb;stop-opacity:1.;"/>
<stop offset="1" style="stop-color:#ffffee;stop-opacity:1.;"/>
</linearGradient>
</defs>
<polygon fill="url(#l_7)" stroke="black" points="103,-257 0,-257 0,-221 103,-221 103,-257"/>
<text text-anchor="start" x="10.5" y="-237.2" font-family="Arial" font-weight="bold" font-size="11.00" fill="black"><a fill="navy" href="../reference/Equipment/DryingChamber.html" target="_parent">DryingChamber</a></text>
</g>
<!-- 5&#45;&gt;27 -->
<g id="edge4" class="edge"><path fill="none" stroke="#000000" d="M406.027,-321.446C342.858,-320.672 233.105,-315.013 143.5,-288 123.707,-282.033 103.174,-271.771 86.54,-262.264"/>
<polygon fill="#000000" stroke="#000000" points="406.398,-321.449 412.429,-317.495 418.398,-321.542 412.367,-325.495 406.398,-321.449"/>
<polygon fill="#000000" stroke="#000000" points="77.7299,-257.091 88.6319,-258.274 82.0418,-259.623 86.3536,-262.154 86.3536,-262.154 86.3536,-262.154 82.0418,-259.623 84.0753,-266.035 77.7299,-257.091 77.7299,-257.091"/>
<text text-anchor="start" x="146" y="-277.5" font-family="Arial" font-size="10.00" fill="black"><a fill="navy" href="../reference/Equipment/Equipment.html#dexpi-equipment-equipment-dryingchambers" target="_parent">DryingChambers</a></text>
<text text-anchor="start" x="69.7299" y="-260.091" font-family="Arial" font-size="10.00" fill="black">*</text>
<text text-anchor="start" x="389.398" y="-322.542" font-family="Arial" font-size="10.00" fill="black">0..1</text>
</g>
<!-- 30 -->
<g id="node14" class="node"><defs>
<linearGradient id="l_8" gradientUnits="userSpaceOnUse" x1="155.5" y1="-221" x2="155.5" y2="-257">
<stop offset="0" style="stop-color:#ffffbb;stop-opacity:1.;"/>
<stop offset="1" style="stop-color:#ffffee;stop-opacity:1.;"/>
</linearGradient>
</defs>
<polygon fill="url(#l_8)" stroke="black" points="189.5,-257 121.5,-257 121.5,-221 189.5,-221 189.5,-257"/>
<text text-anchor="start" x="131.5" y="-237.2" font-family="Arial" font-weight="bold" font-size="11.00" fill="black"><a fill="navy" href="../reference/Equipment/GearBox.html" target="_parent">GearBox</a></text>
</g>
<!-- 5&#45;&gt;30 -->
<g id="edge5" class="edge"><path fill="none" stroke="#000000" d="M406.201,-315.816C366.621,-310.972 310.82,-302.294 263.5,-288 241.05,-281.218 217.118,-270.924 197.503,-261.606"/>
<polygon fill="#000000" stroke="#000000" points="406.275,-315.824 412.702,-312.553 418.193,-317.227 411.767,-320.498 406.275,-315.824"/>
<polygon fill="#000000" stroke="#000000" points="188.246,-257.129 199.207,-257.432 192.747,-259.306 197.248,-261.483 197.248,-261.483 197.248,-261.483 192.747,-259.306 195.289,-265.534 188.246,-257.129 188.246,-257.129"/>
<text text-anchor="start" x="266" y="-277.5" font-family="Arial" font-size="10.00" fill="black"><a fill="navy" href="../reference/Equipment/Equipment.html#dexpi-equipment-equipment-gearboxes" target="_parent">GearBoxes</a></text>
<text text-anchor="start" x="180.246" y="-260.129" font-family="Arial" font-size="10.00" fill="black">*</text>
<text text-anchor="start" x="389.193" y="-307.227" font-family="Arial" font-size="10.00" fill="black">0..1</text>
</g>
<!-- 33 -->
<g id="node15" class="node"><defs>
<linearGradient id="l_9" gradientUnits="userSpaceOnUse" x1="270.5" y1="-221" x2="270.5" y2="-257">
<stop offset="0" style="stop-color:#ffffbb;stop-opacity:1.;"/>
<stop offset="1" style="stop-color:#ffffee;stop-opacity:1.;"/>
</linearGradient>
</defs>
<polygon fill="url(#l_9)" stroke="black" points="333.5,-257 207.5,-257 207.5,-221 333.5,-221 333.5,-257"/>
<text text-anchor="start" x="217.5" y="-237.2" font-family="Arial" font-weight="bold" font-size="11.00" fill="black"><a fill="navy" href="../reference/Equipment/MotorAsComponent.html" target="_parent">MotorAsComponent</a></text>
</g>
<!-- 5&#45;&gt;33 -->
<g id="edge6" class="edge"><path fill="none" stroke="#000000" d="M406.67,-309.044C387.398,-303.7 365.526,-296.637 346.5,-288 331.23,-281.068 315.388,-271.498 302.145,-262.726"/>
<polygon fill="#000000" stroke="#000000" points="406.692,-309.049 413.521,-306.734 418.285,-312.147 411.456,-314.463 406.692,-309.049"/>
<polygon fill="#000000" stroke="#000000" points="293.85,-257.112 304.654,-258.99 297.991,-259.914 302.132,-262.717 302.132,-262.717 302.132,-262.717 297.991,-259.914 299.61,-266.443 293.85,-257.112 293.85,-257.112"/>
<text text-anchor="start" x="349" y="-277.5" font-family="Arial" font-size="10.00" fill="black"><a fill="navy" href="../reference/Equipment/Equipment.html#dexpi-equipment-equipment-motors" target="_parent">Motors</a></text>
<text text-anchor="start" x="285.85" y="-260.112" font-family="Arial" font-size="10.00" fill="black">*</text>
<text text-anchor="start" x="389.285" y="-302.147" font-family="Arial" font-size="10.00" fill="black">0..1</text>
</g>
<!-- 36 -->
<g id="node16" class="node"><defs>
<linearGradient id="l_10" gradientUnits="userSpaceOnUse" x1="395.5" y1="-221" x2="395.5" y2="-257">
<stop offset="0" style="stop-color:#ffffbb;stop-opacity:1.;"/>
<stop offset="1" style="stop-color:#ffffee;stop-opacity:1.;"/>
</linearGradient>
</defs>
<polygon fill="url(#l_10)" stroke="black" points="439,-257 352,-257 352,-221 439,-221 439,-257"/>
<text text-anchor="start" x="362.5" y="-237.2" font-family="Arial" font-weight="bold" font-size="11.00" fill="black"><a fill="navy" href="../reference/Equipment/SprayNozzle.html" target="_parent">SprayNozzle</a></text>
</g>
<!-- 5&#45;&gt;36 -->
<g id="edge7" class="edge"><path fill="none" stroke="#000000" d="M407.357,-305.548C399.867,-301.067 393.12,-295.33 388.5,-288 384.594,-281.802 384.151,-274.272 385.269,-267.033"/>
<polygon fill="#000000" stroke="#000000" points="407.588,-305.664 414.747,-304.802 418.297,-311.08 411.137,-311.942 407.588,-305.664"/>
<polygon fill="#000000" stroke="#000000" points="387.69,-257.16 389.678,-267.944 386.499,-262.016 385.308,-266.873 385.308,-266.873 385.308,-266.873 386.499,-262.016 380.937,-265.801 387.69,-257.16 387.69,-257.16"/>
<text text-anchor="start" x="391" y="-277.5" font-family="Arial" font-size="10.00" fill="black"><a fill="navy" href="../reference/Equipment/Equipment.html#dexpi-equipment-equipment-spraynozzles" target="_parent">SprayNozzles</a></text>
<text text-anchor="start" x="379.69" y="-260.16" font-family="Arial" font-size="10.00" fill="black">*</text>
<text text-anchor="start" x="406.297" y="-301.08" font-family="Arial" font-size="10.00" fill="black">0..1</text>
</g>
<!-- 12&#45;inner&#45;node -->
<!-- 5&#45;&gt;12&#45;inner&#45;node -->
<g id="edge16" class="edge"><path fill="none" stroke="black" d="M457.5,-293.649C457.5,-270.987 457.5,-242.163 457.5,-240.116L457.5,-237.951"/>
<polygon fill="none" stroke="black" points="454,-293.822 457.5,-303.822 461,-293.822 454,-293.822"/>
</g>
<!-- 6 -->
<g id="node6" class="node"><defs>
<linearGradient id="l_11" gradientUnits="userSpaceOnUse" x1="341.5" y1="-456" x2="341.5" y2="-492">
<stop offset="0" style="stop-color:#ffffbb;stop-opacity:1.;"/>
<stop offset="1" style="stop-color:#ffffee;stop-opacity:1.;"/>
</linearGradient>
</defs>
<polygon fill="url(#l_11)" stroke="black" points="394,-492 289,-492 289,-456 394,-456 394,-492"/>
<text text-anchor="start" x="299.5" y="-472.2" font-family="Arial" font-weight="bold" font-style="italic" font-size="11.00" fill="black"><a fill="navy" href="../reference/Equipment/ChamberOwner.html" target="_parent">ChamberOwner</a></text>
</g>
<!-- 39 -->
<g id="node17" class="node"><defs>
<linearGradient id="l_12" gradientUnits="userSpaceOnUse" x1="277.5" y1="-373" x2="277.5" y2="-409">
<stop offset="0" style="stop-color:#ffffbb;stop-opacity:1.;"/>
<stop offset="1" style="stop-color:#ffffee;stop-opacity:1.;"/>
</linearGradient>
</defs>
<polygon fill="url(#l_12)" stroke="black" points="312,-409 243,-409 243,-373 312,-373 312,-409"/>
<text text-anchor="start" x="253.5" y="-389.2" font-family="Arial" font-weight="bold" font-size="11.00" fill="black"><a fill="navy" href="../reference/Equipment/Chamber.html" target="_parent">Chamber</a></text>
</g>
<!-- 6&#45;&gt;39 -->
<g id="edge8" class="edge"><path fill="none" stroke="#000000" d="M295.598,-448.09C292.972,-445.591 290.565,-442.896 288.5,-440 284.181,-433.945 281.527,-426.461 279.905,-419.22"/>
<polygon fill="#000000" stroke="#000000" points="295.859,-448.3 303.041,-448.955 305.199,-455.835 298.017,-455.181 295.859,-448.3"/>
<polygon fill="#000000" stroke="#000000" points="278.234,-409.318 284.336,-418.43 279.066,-414.248 279.898,-419.179 279.898,-419.179 279.898,-419.179 279.066,-414.248 275.461,-419.928 278.234,-409.318 278.234,-409.318"/>
<text text-anchor="start" x="291" y="-429.5" font-family="Arial" font-size="10.00" fill="black"><a fill="navy" href="../reference/Equipment/ChamberOwner.html#dexpi-equipment-chamberowner-chambers" target="_parent">Chambers</a></text>
<text text-anchor="start" x="270.234" y="-412.318" font-family="Arial" font-size="10.00" fill="black">*</text>
<text text-anchor="start" x="276.199" y="-445.835" font-family="Arial" font-size="10.00" fill="black">0..1</text>
</g>
<!-- 13&#45;inner&#45;node -->
<!-- 6&#45;&gt;13&#45;inner&#45;node -->
<g id="edge18" class="edge"><path fill="none" stroke="black" d="M341.5,-445.649C341.5,-422.987 341.5,-394.163 341.5,-392.116L341.64,-389.884"/>
<polygon fill="none" stroke="black" points="338,-445.822 341.5,-455.822 345,-445.822 338,-445.822"/>
</g>
<!-- 7 -->
<g id="node7" class="node"><defs>
<linearGradient id="l_13" gradientUnits="userSpaceOnUse" x1="457.5" y1="-456" x2="457.5" y2="-492">
<stop offset="0" style="stop-color:#ffffbb;stop-opacity:1.;"/>
<stop offset="1" style="stop-color:#ffffee;stop-opacity:1.;"/>
</linearGradient>
</defs>
<polygon fill="url(#l_13)" stroke="black" points="502.5,-492 412.5,-492 412.5,-456 502.5,-456 502.5,-492"/>
<text text-anchor="start" x="422.5" y="-472.2" font-family="Arial" font-weight="bold" font-style="italic" font-size="11.00" fill="black"><a fill="navy" href="../reference/Equipment/NozzleOwner.html" target="_parent">NozzleOwner</a></text>
</g>
<!-- 42 -->
<g id="node18" class="node"><defs>
<linearGradient id="l_14" gradientUnits="userSpaceOnUse" x1="402.5" y1="-373" x2="402.5" y2="-409">
<stop offset="0" style="stop-color:#ffffbb;stop-opacity:1.;"/>
<stop offset="1" style="stop-color:#ffffee;stop-opacity:1.;"/>
</linearGradient>
</defs>
<polygon fill="url(#l_14)" stroke="black" points="431,-409 374,-409 374,-373 431,-373 431,-409"/>
<text text-anchor="start" x="384.5" y="-389.2" font-family="Arial" font-weight="bold" font-size="11.00" fill="black"><a fill="navy" href="../reference/Equipment/Nozzle.html" target="_parent">Nozzle</a></text>
</g>
<!-- 7&#45;&gt;42 -->
<g id="edge9" class="edge"><path fill="none" stroke="#000000" d="M419.289,-447.384C417.147,-445.056 415.185,-442.592 413.5,-440 409.447,-433.763 406.878,-426.222 405.253,-418.983"/>
<polygon fill="#000000" stroke="#000000" points="419.431,-447.515 426.552,-448.651 428.242,-455.662 421.121,-454.525 419.431,-447.515"/>
<polygon fill="#000000" stroke="#000000" points="403.528,-409.118 409.683,-418.193 404.389,-414.043 405.251,-418.969 405.251,-418.969 405.251,-418.969 404.389,-414.043 400.818,-419.744 403.528,-409.118 403.528,-409.118"/>
<text text-anchor="start" x="415.5" y="-429.5" font-family="Arial" font-size="10.00" fill="black"><a fill="navy" href="../reference/Equipment/NozzleOwner.html#dexpi-equipment-nozzleowner-nozzles" target="_parent">Nozzles</a></text>
<text text-anchor="start" x="395.528" y="-412.118" font-family="Arial" font-size="10.00" fill="black">*</text>
<text text-anchor="start" x="399.242" y="-445.662" font-family="Arial" font-size="10.00" fill="black">0..1</text>
</g>
<!-- 14&#45;inner&#45;node -->
<!-- 7&#45;&gt;14&#45;inner&#45;node -->
<g id="edge20" class="edge"><path fill="none" stroke="black" d="M457.5,-445.649C457.5,-422.987 457.5,-394.163 457.5,-392.116L457.5,-389.951"/>
<polygon fill="none" stroke="black" points="454,-445.822 457.5,-455.822 461,-445.822 454,-445.822"/>
</g>
<!-- 8 -->
<g id="node8" class="node"><defs>
<linearGradient id="l_15" gradientUnits="userSpaceOnUse" x1="575.5" y1="-456" x2="575.5" y2="-492">
<stop offset="0" style="stop-color:#ffffbb;stop-opacity:1.;"/>
<stop offset="1" style="stop-color:#ffffee;stop-opacity:1.;"/>
</linearGradient>
</defs>
<polygon fill="url(#l_15)" stroke="black" points="630,-492 521,-492 521,-456 630,-456 630,-492"/>
<text text-anchor="start" x="531.5" y="-472.2" font-family="Arial" font-weight="bold" font-style="italic" font-size="11.00" fill="black"><a fill="navy" href="../reference/Equipment/TaggedPlantItem.html" target="_parent">TaggedPlantItem</a></text>
</g>
<!-- 15&#45;inner&#45;node -->
<!-- 8&#45;&gt;15&#45;inner&#45;node -->
<g id="edge22" class="edge"><path fill="none" stroke="black" d="M575.5,-445.649C575.5,-422.987 575.5,-394.163 575.5,-392.116L575.414,-389.951"/>
<polygon fill="none" stroke="black" points="572,-445.822 575.5,-455.822 579,-445.822 572,-445.822"/>
</g>
<!-- 9 -->
<g id="node9" class="node"><defs>
<linearGradient id="l_16" gradientUnits="userSpaceOnUse" x1="471.5" y1="-622" x2="471.5" y2="-658">
<stop offset="0" style="stop-color:#ffffbb;stop-opacity:1.;"/>
<stop offset="1" style="stop-color:#ffffee;stop-opacity:1.;"/>
</linearGradient>
</defs>
<polygon fill="url(#l_16)" stroke="black" points="529,-658 414,-658 414,-622 529,-622 529,-658"/>
<text text-anchor="start" x="424.5" y="-638.2" font-family="Arial" font-weight="bold" font-style="italic" font-size="11.00" fill="black"><a fill="navy" href="../reference/DexpiModel/ConceptualObject.html" target="_parent">ConceptualObject</a></text>
</g>
<!-- 16&#45;inner&#45;node -->
<!-- 9&#45;&gt;16&#45;inner&#45;node -->
<g id="edge24" class="edge"><path fill="none" stroke="black" d="M471.5,-611.649C471.5,-588.987 471.5,-560.163 471.5,-558.116L471.538,-555.879"/>
<polygon fill="none" stroke="black" points="468,-611.822 471.5,-621.822 475,-611.822 468,-611.822"/>
</g>
<!-- 10 -->
<g id="node10" class="node"><defs>
<linearGradient id="l_17" gradientUnits="userSpaceOnUse" x1="629.5" y1="-622" x2="629.5" y2="-658">
<stop offset="0" style="stop-color:#ffffbb;stop-opacity:1.;"/>
<stop offset="1" style="stop-color:#ffffee;stop-opacity:1.;"/>
</linearGradient>
</defs>
<polygon fill="url(#l_17)" stroke="black" points="701.5,-658 557.5,-658 557.5,-622 701.5,-622 701.5,-658"/>
<text text-anchor="start" x="567.5" y="-638.2" font-family="Arial" font-weight="bold" font-style="italic" font-size="11.00" fill="black"><a fill="navy" href="../reference/Customization/CustomAttributeOwner.html" target="_parent">CustomAttributeOwner</a></text>
</g>
<!-- 54 -->
<g id="node22" class="node"><defs>
<linearGradient id="l_18" gradientUnits="userSpaceOnUse" x1="544.5" y1="-539" x2="544.5" y2="-575">
<stop offset="0" style="stop-color:#ffffbb;stop-opacity:1.;"/>
<stop offset="1" style="stop-color:#ffffee;stop-opacity:1.;"/>
</linearGradient>
</defs>
<polygon fill="url(#l_18)" stroke="black" points="599,-575 490,-575 490,-539 599,-539 599,-575"/>
<text text-anchor="start" x="500.5" y="-555.2" font-family="Arial" font-weight="bold" font-style="italic" font-size="11.00" fill="black"><a fill="navy" href="../reference/Customization/CustomAttribute.html" target="_parent">CustomAttribute</a></text>
</g>
<!-- 10&#45;&gt;54 -->
<g id="edge13" class="edge"><path fill="none" stroke="#000000" d="M552.949,-614.486C550.181,-611.933 547.67,-609.113 545.5,-606 541.402,-600.119 539.944,-592.772 539.815,-585.608"/>
<polygon fill="#000000" stroke="#000000" points="552.998,-614.523 560.196,-614.959 562.563,-621.77 555.365,-621.335 552.998,-614.523"/>
<polygon fill="#000000" stroke="#000000" points="540.425,-575.435 544.319,-585.687 540.126,-580.426 539.827,-585.417 539.827,-585.417 539.827,-585.417 540.126,-580.426 535.335,-585.148 540.425,-575.435 540.425,-575.435"/>
<text text-anchor="start" x="547.5" y="-595.5" font-family="Arial" font-size="10.00" fill="black"><a fill="navy" href="../reference/Customization/CustomAttributeOwner.html#dexpi-customization-customattributeowner-customattributes" target="_parent">CustomAttributes</a></text>
<text text-anchor="start" x="532.425" y="-578.435" font-family="Arial" font-size="10.00" fill="black">*</text>
<text text-anchor="start" x="533.563" y="-611.77" font-family="Arial" font-size="10.00" fill="black">0..1</text>
</g>
<!-- 17&#45;inner&#45;node -->
<!-- 10&#45;&gt;17&#45;inner&#45;node -->
<g id="edge26" class="edge"><path fill="none" stroke="black" d="M629.5,-611.649C629.5,-588.987 629.5,-560.163 629.5,-558.116L629.461,-555.941"/>
<polygon fill="none" stroke="black" points="626,-611.822 629.5,-621.822 633,-611.822 626,-611.822"/>
</g>
<!-- 45 -->
<g id="node19" class="node"><defs>
<linearGradient id="l_19" gradientUnits="userSpaceOnUse" x1="395.5" y1="-539" x2="395.5" y2="-575">
<stop offset="0" style="stop-color:#ffffbb;stop-opacity:1.;"/>
<stop offset="1" style="stop-color:#ffffee;stop-opacity:1.;"/>
</linearGradient>
</defs>
<polygon fill="url(#l_19)" stroke="black" points="452.5,-575 338.5,-575 338.5,-539 452.5,-539 452.5,-575"/>
<text text-anchor="start" x="348.5" y="-555.2" font-family="Arial" font-weight="bold" font-size="11.00" fill="black"><a fill="navy" href="../reference/DexpiModel/ConceptualModel.html" target="_parent">ConceptualModel</a></text>
</g>
<!-- 45&#45;&gt;8 -->
<g id="edge10" class="edge"><path fill="none" stroke="#000000" d="M400.324,-527.016C402.842,-519.86 406.673,-512.862 412.5,-508 444.518,-481.287 465.123,-498.682 510.934,-491.726"/>
<polygon fill="#000000" stroke="#000000" points="400.262,-527.253 402.602,-534.074 397.205,-538.857 394.865,-532.036 400.262,-527.253"/>
<polygon fill="#000000" stroke="#000000" points="520.773,-489.92 511.751,-496.152 515.856,-490.823 510.938,-491.726 510.938,-491.726 510.938,-491.726 515.856,-490.823 510.125,-487.3 520.773,-489.92 520.773,-489.92"/>
<text text-anchor="start" x="415" y="-512.5" font-family="Arial" font-size="10.00" fill="black"><a fill="navy" href="../reference/DexpiModel/ConceptualModel.html#dexpi-dexpimodel-conceptualmodel-taggedplantitems" target="_parent">TaggedPlantItems</a></text>
<text text-anchor="start" x="512.773" y="-492.92" font-family="Arial" font-size="10.00" fill="black">*</text>
<text text-anchor="start" x="368.205" y="-528.857" font-family="Arial" font-size="10.00" fill="black">0..1</text>
</g>
<!-- 48 -->
<g id="node20" class="node"><defs>
<linearGradient id="l_20" gradientUnits="userSpaceOnUse" x1="368.5" y1="-713.5" x2="368.5" y2="-749.5">
<stop offset="0" style="stop-color:#ffffbb;stop-opacity:1.;"/>
<stop offset="1" style="stop-color:#ffffee;stop-opacity:1.;"/>
</linearGradient>
</defs>
<polygon fill="url(#l_20)" stroke="black" points="443,-749.5 294,-749.5 294,-713.5 443,-713.5 443,-749.5"/>
<text text-anchor="start" x="304.5" y="-729.7" font-family="Arial" font-weight="bold" font-size="11.00" fill="black"><a fill="navy" href="../reference/Graphics/AttributeRepresentation.html" target="_parent">AttributeRepresentation</a></text>
</g>
<!-- 48&#45;&gt;9 -->
<g id="edge11" class="edge"><path fill="none" stroke="#000000" d="M388.359,-713.243C404.176,-699.5 426.493,-680.108 444.024,-664.875"/>
<polygon fill="#000000" stroke="#000000" points="451.702,-658.204 447.105,-668.159 447.927,-661.483 444.153,-664.763 444.153,-664.763 444.153,-664.763 447.927,-661.483 441.201,-661.366 451.702,-658.204 451.702,-658.204"/>
<text text-anchor="start" x="435" y="-678.5" font-family="Arial" font-size="10.00" fill="black"><a fill="navy" href="../reference/Graphics/AttributeRepresentation.html#dexpi-graphics-attributerepresentation-object" target="_parent">Object</a></text>
<text text-anchor="start" x="443.702" y="-661.204" font-family="Arial" font-size="10.00" fill="black"></text>
<text text-anchor="start" x="372.359" y="-703.243" font-family="Arial" font-size="10.00" fill="black">*</text>
</g>
<!-- 51 -->
<g id="node21" class="node"><defs>
<linearGradient id="l_21" gradientUnits="userSpaceOnUse" x1="529.5" y1="-713.5" x2="529.5" y2="-749.5">
<stop offset="0" style="stop-color:#ffffbb;stop-opacity:1.;"/>
<stop offset="1" style="stop-color:#ffffee;stop-opacity:1.;"/>
</linearGradient>
</defs>
<polygon fill="url(#l_21)" stroke="black" points="598,-749.5 461,-749.5 461,-713.5 598,-713.5 598,-749.5"/>
<text text-anchor="start" x="471.5" y="-729.7" font-family="Arial" font-weight="bold" font-size="11.00" fill="black"><a fill="navy" href="../reference/Graphics/RepresentationGroup.html" target="_parent">RepresentationGroup</a></text>
</g>
<!-- 51&#45;&gt;9 -->
<g id="edge12" class="edge"><path fill="none" stroke="#000000" d="M518.317,-713.243C509.812,-700.119 497.968,-681.843 488.322,-666.958"/>
<polygon fill="#000000" stroke="#000000" points="482.649,-658.204 491.863,-664.148 485.368,-662.399 488.087,-666.595 488.087,-666.595 488.087,-666.595 485.368,-662.399 484.311,-669.043 482.649,-658.204 482.649,-658.204"/>
<text text-anchor="start" x="504.5" y="-678.5" font-family="Arial" font-size="10.00" fill="black"><a fill="navy" href="../reference/Graphics/RepresentationGroup.html#dexpi-graphics-representationgroup-represents" target="_parent">Represents</a></text>
<text text-anchor="start" x="474.649" y="-661.204" font-family="Arial" font-size="10.00" fill="black"></text>
<text text-anchor="start" x="502.317" y="-703.243" font-family="Arial" font-size="10.00" fill="black">*</text>
</g>
<!-- 11&#45;inner&#45;node&#45;&gt;0 -->
<g id="edge15" class="edge"><path fill="none" stroke="black" d="M457.5,-85.9514C457.5,-84.6042 457.5,-55.5221 457.5,-36.1346"/>
</g>
<!-- 12&#45;inner&#45;node&#45;&gt;4 -->
<g id="edge17" class="edge"><path fill="none" stroke="black" d="M457.5,-237.951C457.5,-236.604 457.5,-207.522 457.5,-188.135"/>
</g>
<!-- 13&#45;inner&#45;node&#45;&gt;5 -->
<g id="edge19" class="edge"><path fill="none" stroke="black" d="M341.64,-389.884C343.027,-388.739 354.434,-379.38 364.5,-373 383.235,-361.126 405.036,-349.306 422.819,-340.142"/>
</g>
<!-- 14&#45;inner&#45;node&#45;&gt;5 -->
<g id="edge21" class="edge"><path fill="none" stroke="black" d="M457.5,-389.951C457.5,-388.604 457.5,-359.522 457.5,-340.135"/>
</g>
<!-- 15&#45;inner&#45;node&#45;&gt;5 -->
<g id="edge23" class="edge"><path fill="none" stroke="black" d="M575.414,-389.951C573.042,-388.604 521.822,-359.522 487.677,-340.135"/>
</g>
<!-- 16&#45;inner&#45;node&#45;&gt;8 -->
<g id="edge25" class="edge"><path fill="none" stroke="black" d="M471.538,-555.879C471.92,-554.686 475.141,-544.959 480.5,-539 497.92,-519.629 522.388,-503.325 542.129,-492.02"/>
</g>
<!-- 17&#45;inner&#45;node&#45;&gt;8 -->
<g id="edge27" class="edge"><path fill="none" stroke="black" d="M629.461,-555.941C628.318,-554.226 602.391,-515.337 586.898,-492.098"/>
</g>
<!-- 18&#45;inner&#45;node&#45;&gt;8 -->
<g id="edge29" class="edge"><path fill="none" stroke="black" d="M766.362,-555.941C762.318,-554.226 670.615,-515.337 615.817,-492.098"/>
</g>
</g>
</svg>