<!DOCTYPE svg PUBLIC "-//W3C//DTD SVG 1.1//EN" "http://www.w3.org/Graphics/SVG/1.1/DTD/svg11.dtd">
<!-- Generated by graphviz version 2.38.0 (20140413.2041)
 --><!-- Title: G Pages: 1 --><svg xmlns="http://www.w3.org/2000/svg" xmlns:xlink="http://www.w3.org/1999/xlink" width="867pt" height="625pt" viewBox="0.00 0.00 866.50 625.00">
<g id="graph0" class="graph" transform="scale(1 1) rotate(0) translate(4 621)">
<!-- 0 -->
<g id="node1" class="node"><defs>
<linearGradient id="l_0" gradientUnits="userSpaceOnUse" x1="457.5" y1="-1.77636e-014" x2="457.5" y2="-47">
<stop offset="0" style="stop-color:#ffffbb;stop-opacity:1.;"/>
<stop offset="1" style="stop-color:#ffffee;stop-opacity:1.;"/>
</linearGradient>
</defs>
<polygon fill="url(#l_0)" stroke="black" points="545.5,-47 369.5,-47 369.5,3.55271e-015 545.5,3.55271e-015 545.5,-47"/>
<text text-anchor="start" x="385" y="-32.7" font-family="Arial" font-weight="bold" font-size="11.00" fill="black">StationaryTransportSystem</text>
<text text-anchor="start" x="379.5" y="-8.5" font-family="Arial" font-size="10.00" fill="black"><a fill="navy" href="../reference/Equipment/StationaryTransportSystem.html#dexpi-equipment-stationarytransportsystem-designpower" target="_parent">DesignPower</a>&#160;:</text>
<text text-anchor="start" x="447.5" y="-8.5" font-family="Arial" font-size="10.00" fill="black"><a fill="navy" href="../reference/PhysicalQuantities/NullablePower.html" target="_parent">NullablePower</a>&#160;[0..1]</text>
<polygon fill="black" stroke="black" points="545.5,-26.5 369.5,-26.5 369.5,-26.5 545.5,-26.5 545.5,-26.5"/>
</g>
<!-- 4 -->
<g id="node2" class="node"><defs>
<linearGradient id="l_1" gradientUnits="userSpaceOnUse" x1="766.5" y1="-564" x2="766.5" y2="-617">
<stop offset="0" style="stop-color:#fbfbfb;stop-opacity:1.;"/>
<stop offset="1" style="stop-color:#fefefe;stop-opacity:1.;"/>
</linearGradient>
</defs>
<polygon fill="url(#l_1)" stroke="black" points="858.5,-606.0 847.5,-617.0 674.5,-617.0 674.5,-564.0 858.5,-564.0"/><path d="M858.5,-606.0L847.5,-606.0 847.5,-617.0" fill="none" stroke="black"/>
<text text-anchor="start" x="684.5" y="-602.5" font-family="Arial" font-size="10.00" fill="black">For&#160;the&#160;sake&#160;of&#160;clarity,&#160;superclasses&#160;</text>
<text text-anchor="start" x="684.5" y="-587.5" font-family="Arial" font-size="10.00" fill="black">and&#160;associations&#160;of&#160;<a fill="navy" href="../reference/PlantStructure/TechnicalItem.html" target="_parent">TechnicalItem</a>&#160;are</text>
<text text-anchor="start" x="684.5" y="-572.5" font-family="Arial" font-size="10.00" fill="black">not&#160;shown&#160;in&#160;this&#160;diagram.</text>
</g>
<!-- 3 -->
<g id="node3" class="node"><defs>
<linearGradient id="l_2" gradientUnits="userSpaceOnUse" x1="766.5" y1="-481" x2="766.5" y2="-517">
<stop offset="0" style="stop-color:#ffffbb;stop-opacity:1.;"/>
<stop offset="1" style="stop-color:#ffffee;stop-opacity:1.;"/>
</linearGradient>
</defs>
<polygon fill="url(#l_2)" stroke="black" points="813,-517 720,-517 720,-481 813,-481 813,-517"/>
<text text-anchor="start" x="730.5" y="-497.2" font-family="Arial" font-weight="bold" font-style="italic" font-size="11.00" fill="black"><a fill="navy" href="../reference/PlantStructure/TechnicalItem.html" target="_parent">TechnicalItem</a></text>
</g>
<!-- 4&#45;&gt;3 -->
<g id="edge1" class="edge"><path fill="none" stroke="#000000" stroke-dasharray="5,2" d="M766.5,-563.613C766.5,-548.641 766.5,-530.222 766.5,-517.063"/>
</g>
<!-- 18&#45;inner&#45;node -->
<!-- 3&#45;&gt;18&#45;inner&#45;node -->
<g id="edge24" class="edge"><path fill="none" stroke="black" d="M766.5,-470.649C766.5,-447.987 766.5,-419.163 766.5,-417.116L766.362,-414.941"/>
<polygon fill="none" stroke="black" points="763,-470.822 766.5,-480.822 770,-470.822 763,-470.822"/>
</g>
<!-- 6 -->
<g id="node4" class="node"><defs>
<linearGradient id="l_3" gradientUnits="userSpaceOnUse" x1="457.5" y1="-163" x2="457.5" y2="-199">
<stop offset="0" style="stop-color:#ffffbb;stop-opacity:1.;"/>
<stop offset="1" style="stop-color:#ffffee;stop-opacity:1.;"/>
</linearGradient>
</defs>
<polygon fill="url(#l_3)" stroke="black" points="496.5,-199 418.5,-199 418.5,-163 496.5,-163 496.5,-199"/>
<text text-anchor="start" x="428.5" y="-179.2" font-family="Arial" font-weight="bold" font-style="italic" font-size="11.00" fill="black"><a fill="navy" href="../reference/Equipment/Equipment.html" target="_parent">Equipment</a></text>
</g>
<!-- 21 -->
<g id="node10" class="node"><defs>
<linearGradient id="l_4" gradientUnits="userSpaceOnUse" x1="51.5" y1="-80" x2="51.5" y2="-116">
<stop offset="0" style="stop-color:#ffffbb;stop-opacity:1.;"/>
<stop offset="1" style="stop-color:#ffffee;stop-opacity:1.;"/>
</linearGradient>
</defs>
<polygon fill="url(#l_4)" stroke="black" points="103,-116 0,-116 0,-80 103,-80 103,-116"/>
<text text-anchor="start" x="10.5" y="-96.2" font-family="Arial" font-weight="bold" font-size="11.00" fill="black"><a fill="navy" href="../reference/Equipment/DryingChamber.html" target="_parent">DryingChamber</a></text>
</g>
<!-- 6&#45;&gt;21 -->
<g id="edge2" class="edge"><path fill="none" stroke="#000000" d="M406.027,-180.446C342.858,-179.672 233.105,-174.013 143.5,-147 123.707,-141.033 103.174,-130.771 86.54,-121.264"/>
<polygon fill="#000000" stroke="#000000" points="406.398,-180.449 412.429,-176.495 418.398,-180.542 412.367,-184.495 406.398,-180.449"/>
<polygon fill="#000000" stroke="#000000" points="77.7299,-116.091 88.6319,-117.274 82.0418,-118.623 86.3536,-121.154 86.3536,-121.154 86.3536,-121.154 82.0418,-118.623 84.0753,-125.035 77.7299,-116.091 77.7299,-116.091"/>
<text text-anchor="start" x="146" y="-136.5" font-family="Arial" font-size="10.00" fill="black"><a fill="navy" href="../reference/Equipment/Equipment.html#dexpi-equipment-equipment-dryingchambers" target="_parent">DryingChambers</a></text>
<text text-anchor="start" x="69.7299" y="-119.091" font-family="Arial" font-size="10.00" fill="black">*</text>
<text text-anchor="start" x="389.398" y="-181.542" font-family="Arial" font-size="10.00" fill="black">0..1</text>
</g>
<!-- 24 -->
<g id="node11" class="node"><defs>
<linearGradient id="l_5" gradientUnits="userSpaceOnUse" x1="155.5" y1="-80" x2="155.5" y2="-116">
<stop offset="0" style="stop-color:#ffffbb;stop-opacity:1.;"/>
<stop offset="1" style="stop-color:#ffffee;stop-opacity:1.;"/>
</linearGradient>
</defs>
<polygon fill="url(#l_5)" stroke="black" points="189.5,-116 121.5,-116 121.5,-80 189.5,-80 189.5,-116"/>
<text text-anchor="start" x="131.5" y="-96.2" font-family="Arial" font-weight="bold" font-size="11.00" fill="black"><a fill="navy" href="../reference/Equipment/GearBox.html" target="_parent">GearBox</a></text>
</g>
<!-- 6&#45;&gt;24 -->
<g id="edge3" class="edge"><path fill="none" stroke="#000000" d="M406.201,-174.816C366.621,-169.972 310.82,-161.294 263.5,-147 241.05,-140.218 217.118,-129.924 197.503,-120.606"/>
<polygon fill="#000000" stroke="#000000" points="406.275,-174.824 412.702,-171.553 418.193,-176.227 411.767,-179.498 406.275,-174.824"/>
<polygon fill="#000000" stroke="#000000" points="188.246,-116.129 199.207,-116.432 192.747,-118.306 197.248,-120.483 197.248,-120.483 197.248,-120.483 192.747,-118.306 195.289,-124.534 188.246,-116.129 188.246,-116.129"/>
<text text-anchor="start" x="266" y="-136.5" font-family="Arial" font-size="10.00" fill="black"><a fill="navy" href="../reference/Equipment/Equipment.html#dexpi-equipment-equipment-gearboxes" target="_parent">GearBoxes</a></text>
<text text-anchor="start" x="180.246" y="-119.129" font-family="Arial" font-size="10.00" fill="black">*</text>
<text text-anchor="start" x="389.193" y="-166.227" font-family="Arial" font-size="10.00" fill="black">0..1</text>
</g>
<!-- 27 -->
<g id="node12" class="node"><defs>
<linearGradient id="l_6" gradientUnits="userSpaceOnUse" x1="270.5" y1="-80" x2="270.5" y2="-116">
<stop offset="0" style="stop-color:#ffffbb;stop-opacity:1.;"/>
<stop offset="1" style="stop-color:#ffffee;stop-opacity:1.;"/>
</linearGradient>
</defs>
<polygon fill="url(#l_6)" stroke="black" points="333.5,-116 207.5,-116 207.5,-80 333.5,-80 333.5,-116"/>
<text text-anchor="start" x="217.5" y="-96.2" font-family="Arial" font-weight="bold" font-size="11.00" fill="black"><a fill="navy" href="../reference/Equipment/MotorAsComponent.html" target="_parent">MotorAsComponent</a></text>
</g>
<!-- 6&#45;&gt;27 -->
<g id="edge4" class="edge"><path fill="none" stroke="#000000" d="M406.67,-168.044C387.398,-162.7 365.526,-155.637 346.5,-147 331.23,-140.068 315.388,-130.498 302.145,-121.726"/>
<polygon fill="#000000" stroke="#000000" points="406.692,-168.049 413.521,-165.734 418.285,-171.147 411.456,-173.463 406.692,-168.049"/>
<polygon fill="#000000" stroke="#000000" points="293.85,-116.112 304.654,-117.99 297.991,-118.914 302.132,-121.717 302.132,-121.717 302.132,-121.717 297.991,-118.914 299.61,-125.443 293.85,-116.112 293.85,-116.112"/>
<text text-anchor="start" x="349" y="-136.5" font-family="Arial" font-size="10.00" fill="black"><a fill="navy" href="../reference/Equipment/Equipment.html#dexpi-equipment-equipment-motors" target="_parent">Motors</a></text>
<text text-anchor="start" x="285.85" y="-119.112" font-family="Arial" font-size="10.00" fill="black">*</text>
<text text-anchor="start" x="389.285" y="-161.147" font-family="Arial" font-size="10.00" fill="black">0..1</text>
</g>
<!-- 30 -->
<g id="node13" class="node"><defs>
<linearGradient id="l_7" gradientUnits="userSpaceOnUse" x1="395.5" y1="-80" x2="395.5" y2="-116">
<stop offset="0" style="stop-color:#ffffbb;stop-opacity:1.;"/>
<stop offset="1" style="stop-color:#ffffee;stop-opacity:1.;"/>
</linearGradient>
</defs>
<polygon fill="url(#l_7)" stroke="black" points="439,-116 352,-116 352,-80 439,-80 439,-116"/>
<text text-anchor="start" x="362.5" y="-96.2" font-family="Arial" font-weight="bold" font-size="11.00" fill="black"><a fill="navy" href="../reference/Equipment/SprayNozzle.html" target="_parent">SprayNozzle</a></text>
</g>
<!-- 6&#45;&gt;30 -->
<g id="edge5" class="edge"><path fill="none" stroke="#000000" d="M407.357,-164.548C399.867,-160.067 393.12,-154.33 388.5,-147 384.594,-140.802 384.151,-133.272 385.269,-126.033"/>
<polygon fill="#000000" stroke="#000000" points="407.588,-164.664 414.747,-163.802 418.297,-170.08 411.137,-170.942 407.588,-164.664"/>
<polygon fill="#000000" stroke="#000000" points="387.69,-116.16 389.678,-126.944 386.499,-121.016 385.308,-125.873 385.308,-125.873 385.308,-125.873 386.499,-121.016 380.937,-124.801 387.69,-116.16 387.69,-116.16"/>
<text text-anchor="start" x="391" y="-136.5" font-family="Arial" font-size="10.00" fill="black"><a fill="navy" href="../reference/Equipment/Equipment.html#dexpi-equipment-equipment-spraynozzles" target="_parent">SprayNozzles</a></text>
<text text-anchor="start" x="379.69" y="-119.16" font-family="Arial" font-size="10.00" fill="black">*</text>
<text text-anchor="start" x="406.297" y="-160.08" font-family="Arial" font-size="10.00" fill="black">0..1</text>
</g>
<!-- 12&#45;inner&#45;node -->
<!-- 6&#45;&gt;12&#45;inner&#45;node -->
<g id="edge12" class="edge"><path fill="none" stroke="black" d="M457.5,-152.649C457.5,-129.987 457.5,-101.163 457.5,-99.1156L457.5,-96.9475"/>
<polygon fill="none" stroke="black" points="454,-152.822 457.5,-162.822 461,-152.822 454,-152.822"/>
</g>
<!-- 7 -->
<g id="node5" class="node"><defs>
<linearGradient id="l_8" gradientUnits="userSpaceOnUse" x1="341.5" y1="-315" x2="341.5" y2="-351">
<stop offset="0" style="stop-color:#ffffbb;stop-opacity:1.;"/>
<stop offset="1" style="stop-color:#ffffee;stop-opacity:1.;"/>
</linearGradient>
</defs>
<polygon fill="url(#l_8)" stroke="black" points="394,-351 289,-351 289,-315 394,-315 394,-351"/>
<text text-anchor="start" x="299.5" y="-331.2" font-family="Arial" font-weight="bold" font-style="italic" font-size="11.00" fill="black"><a fill="navy" href="../reference/Equipment/ChamberOwner.html" target="_parent">ChamberOwner</a></text>
</g>
<!-- 33 -->
<g id="node14" class="node"><defs>
<linearGradient id="l_9" gradientUnits="userSpaceOnUse" x1="277.5" y1="-232" x2="277.5" y2="-268">
<stop offset="0" style="stop-color:#ffffbb;stop-opacity:1.;"/>
<stop offset="1" style="stop-color:#ffffee;stop-opacity:1.;"/>
</linearGradient>
</defs>
<polygon fill="url(#l_9)" stroke="black" points="312,-268 243,-268 243,-232 312,-232 312,-268"/>
<text text-anchor="start" x="253.5" y="-248.2" font-family="Arial" font-weight="bold" font-size="11.00" fill="black"><a fill="navy" href="../reference/Equipment/Chamber.html" target="_parent">Chamber</a></text>
</g>
<!-- 7&#45;&gt;33 -->
<g id="edge6" class="edge"><path fill="none" stroke="#000000" d="M295.598,-307.09C292.972,-304.591 290.565,-301.896 288.5,-299 284.181,-292.945 281.527,-285.461 279.905,-278.22"/>
<polygon fill="#000000" stroke="#000000" points="295.859,-307.3 303.041,-307.955 305.199,-314.835 298.017,-314.181 295.859,-307.3"/>
<polygon fill="#000000" stroke="#000000" points="278.234,-268.318 284.336,-277.43 279.066,-273.248 279.898,-278.179 279.898,-278.179 279.898,-278.179 279.066,-273.248 275.461,-278.928 278.234,-268.318 278.234,-268.318"/>
<text text-anchor="start" x="291" y="-288.5" font-family="Arial" font-size="10.00" fill="black"><a fill="navy" href="../reference/Equipment/ChamberOwner.html#dexpi-equipment-chamberowner-chambers" target="_parent">Chambers</a></text>
<text text-anchor="start" x="270.234" y="-271.318" font-family="Arial" font-size="10.00" fill="black">*</text>
<text text-anchor="start" x="276.199" y="-304.835" font-family="Arial" font-size="10.00" fill="black">0..1</text>
</g>
<!-- 13&#45;inner&#45;node -->
<!-- 7&#45;&gt;13&#45;inner&#45;node -->
<g id="edge14" class="edge"><path fill="none" stroke="black" d="M341.5,-304.649C341.5,-281.987 341.5,-253.163 341.5,-251.116L341.64,-248.884"/>
<polygon fill="none" stroke="black" points="338,-304.822 341.5,-314.822 345,-304.822 338,-304.822"/>
</g>
<!-- 8 -->
<g id="node6" class="node"><defs>
<linearGradient id="l_10" gradientUnits="userSpaceOnUse" x1="457.5" y1="-315" x2="457.5" y2="-351">
<stop offset="0" style="stop-color:#ffffbb;stop-opacity:1.;"/>
<stop offset="1" style="stop-color:#ffffee;stop-opacity:1.;"/>
</linearGradient>
</defs>
<polygon fill="url(#l_10)" stroke="black" points="502.5,-351 412.5,-351 412.5,-315 502.5,-315 502.5,-351"/>
<text text-anchor="start" x="422.5" y="-331.2" font-family="Arial" font-weight="bold" font-style="italic" font-size="11.00" fill="black"><a fill="navy" href="../reference/Equipment/NozzleOwner.html" target="_parent">NozzleOwner</a></text>
</g>
<!-- 36 -->
<g id="node15" class="node"><defs>
<linearGradient id="l_11" gradientUnits="userSpaceOnUse" x1="402.5" y1="-232" x2="402.5" y2="-268">
<stop offset="0" style="stop-color:#ffffbb;stop-opacity:1.;"/>
<stop offset="1" style="stop-color:#ffffee;stop-opacity:1.;"/>
</linearGradient>
</defs>
<polygon fill="url(#l_11)" stroke="black" points="431,-268 374,-268 374,-232 431,-232 431,-268"/>
<text text-anchor="start" x="384.5" y="-248.2" font-family="Arial" font-weight="bold" font-size="11.00" fill="black"><a fill="navy" href="../reference/Equipment/Nozzle.html" target="_parent">Nozzle</a></text>
</g>
<!-- 8&#45;&gt;36 -->
<g id="edge7" class="edge"><path fill="none" stroke="#000000" d="M419.289,-306.384C417.147,-304.056 415.185,-301.592 413.5,-299 409.447,-292.763 406.878,-285.222 405.253,-277.983"/>
<polygon fill="#000000" stroke="#000000" points="419.431,-306.515 426.552,-307.651 428.242,-314.662 421.121,-313.525 419.431,-306.515"/>
<polygon fill="#000000" stroke="#000000" points="403.528,-268.118 409.683,-277.193 404.389,-273.043 405.251,-277.969 405.251,-277.969 405.251,-277.969 404.389,-273.043 400.818,-278.744 403.528,-268.118 403.528,-268.118"/>
<text text-anchor="start" x="415.5" y="-288.5" font-family="Arial" font-size="10.00" fill="black"><a fill="navy" href="../reference/Equipment/NozzleOwner.html#dexpi-equipment-nozzleowner-nozzles" target="_parent">Nozzles</a></text>
<text text-anchor="start" x="395.528" y="-271.118" font-family="Arial" font-size="10.00" fill="black">*</text>
<text text-anchor="start" x="399.242" y="-304.662" font-family="Arial" font-size="10.00" fill="black">0..1</text>
</g>
<!-- 14&#45;inner&#45;node -->
<!-- 8&#45;&gt;14&#45;inner&#45;node -->
<g id="edge16" class="edge"><path fill="none" stroke="black" d="M457.5,-304.649C457.5,-281.987 457.5,-253.163 457.5,-251.116L457.5,-248.951"/>
<polygon fill="none" stroke="black" points="454,-304.822 457.5,-314.822 461,-304.822 454,-304.822"/>
</g>
<!-- 9 -->
<g id="node7" class="node"><defs>
<linearGradient id="l_12" gradientUnits="userSpaceOnUse" x1="575.5" y1="-315" x2="575.5" y2="-351">
<stop offset="0" style="stop-color:#ffffbb;stop-opacity:1.;"/>
<stop offset="1" style="stop-color:#ffffee;stop-opacity:1.;"/>
</linearGradient>
</defs>
<polygon fill="url(#l_12)" stroke="black" points="630,-351 521,-351 521,-315 630,-315 630,-351"/>
<text text-anchor="start" x="531.5" y="-331.2" font-family="Arial" font-weight="bold" font-style="italic" font-size="11.00" fill="black"><a fill="navy" href="../reference/Equipment/TaggedPlantItem.html" target="_parent">TaggedPlantItem</a></text>
</g>
<!-- 15&#45;inner&#45;node -->
<!-- 9&#45;&gt;15&#45;inner&#45;node -->
<g id="edge18" class="edge"><path fill="none" stroke="black" d="M575.5,-304.649C575.5,-281.987 575.5,-253.163 575.5,-251.116L575.414,-248.951"/>
<polygon fill="none" stroke="black" points="572,-304.822 575.5,-314.822 579,-304.822 572,-304.822"/>
</g>
<!-- 10 -->
<g id="node8" class="node"><defs>
<linearGradient id="l_13" gradientUnits="userSpaceOnUse" x1="471.5" y1="-481" x2="471.5" y2="-517">
<stop offset="0" style="stop-color:#ffffbb;stop-opacity:1.;"/>
<stop offset="1" style="stop-color:#ffffee;stop-opacity:1.;"/>
</linearGradient>
</defs>
<polygon fill="url(#l_13)" stroke="black" points="529,-517 414,-517 414,-481 529,-481 529,-517"/>
<text text-anchor="start" x="424.5" y="-497.2" font-family="Arial" font-weight="bold" font-style="italic" font-size="11.00" fill="black"><a fill="navy" href="../reference/DexpiModel/ConceptualObject.html" target="_parent">ConceptualObject</a></text>
</g>
<!-- 16&#45;inner&#45;node -->
<!-- 10&#45;&gt;16&#45;inner&#45;node -->
<g id="edge20" class="edge"><path fill="none" stroke="black" d="M471.5,-470.649C471.5,-447.987 471.5,-419.163 471.5,-417.116L471.538,-414.879"/>
<polygon fill="none" stroke="black" points="468,-470.822 471.5,-480.822 475,-470.822 468,-470.822"/>
</g>
<!-- 11 -->
<g id="node9" class="node"><defs>
<linearGradient id="l_14" gradientUnits="userSpaceOnUse" x1="629.5" y1="-481" x2="629.5" y2="-517">
<stop offset="0" style="stop-color:#ffffbb;stop-opacity:1.;"/>
<stop offset="1" style="stop-color:#ffffee;stop-opacity:1.;"/>
</linearGradient>
</defs>
<polygon fill="url(#l_14)" stroke="black" points="701.5,-517 557.5,-517 557.5,-481 701.5,-481 701.5,-517"/>
<text text-anchor="start" x="567.5" y="-497.2" font-family="Arial" font-weight="bold" font-style="italic" font-size="11.00" fill="black"><a fill="navy" href="../reference/Customization/CustomAttributeOwner.html" target="_parent">CustomAttributeOwner</a></text>
</g>
<!-- 48 -->
<g id="node19" class="node"><defs>
<linearGradient id="l_15" gradientUnits="userSpaceOnUse" x1="544.5" y1="-398" x2="544.5" y2="-434">
<stop offset="0" style="stop-color:#ffffbb;stop-opacity:1.;"/>
<stop offset="1" style="stop-color:#ffffee;stop-opacity:1.;"/>
</linearGradient>
</defs>
<polygon fill="url(#l_15)" stroke="black" points="599,-434 490,-434 490,-398 599,-398 599,-434"/>
<text text-anchor="start" x="500.5" y="-414.2" font-family="Arial" font-weight="bold" font-style="italic" font-size="11.00" fill="black"><a fill="navy" href="../reference/Customization/CustomAttribute.html" target="_parent">CustomAttribute</a></text>
</g>
<!-- 11&#45;&gt;48 -->
<g id="edge11" class="edge"><path fill="none" stroke="#000000" d="M552.949,-473.486C550.181,-470.933 547.67,-468.113 545.5,-465 541.402,-459.119 539.944,-451.772 539.815,-444.608"/>
<polygon fill="#000000" stroke="#000000" points="552.998,-473.523 560.196,-473.959 562.563,-480.77 555.365,-480.335 552.998,-473.523"/>
<polygon fill="#000000" stroke="#000000" points="540.425,-434.435 544.319,-444.687 540.126,-439.426 539.827,-444.417 539.827,-444.417 539.827,-444.417 540.126,-439.426 535.335,-444.148 540.425,-434.435 540.425,-434.435"/>
<text text-anchor="start" x="547.5" y="-454.5" font-family="Arial" font-size="10.00" fill="black"><a fill="navy" href="../reference/Customization/CustomAttributeOwner.html#dexpi-customization-customattributeowner-customattributes" target="_parent">CustomAttributes</a></text>
<text text-anchor="start" x="532.425" y="-437.435" font-family="Arial" font-size="10.00" fill="black">*</text>
<text text-anchor="start" x="533.563" y="-470.77" font-family="Arial" font-size="10.00" fill="black">0..1</text>
</g>
<!-- 17&#45;inner&#45;node -->
<!-- 11&#45;&gt;17&#45;inner&#45;node -->
<g id="edge22" class="edge"><path fill="none" stroke="black" d="M629.5,-470.649C629.5,-447.987 629.5,-419.163 629.5,-417.116L629.461,-414.941"/>
<polygon fill="none" stroke="black" points="626,-470.822 629.5,-480.822 633,-470.822 626,-470.822"/>
</g>
<!-- 39 -->
<g id="node16" class="node"><defs>
<linearGradient id="l_16" gradientUnits="userSpaceOnUse" x1="395.5" y1="-398" x2="395.5" y2="-434">
<stop offset="0" style="stop-color:#ffffbb;stop-opacity:1.;"/>
<stop offset="1" style="stop-color:#ffffee;stop-opacity:1.;"/>
</linearGradient>
</defs>
<polygon fill="url(#l_16)" stroke="black" points="452.5,-434 338.5,-434 338.5,-398 452.5,-398 452.5,-434"/>
<text text-anchor="start" x="348.5" y="-414.2" font-family="Arial" font-weight="bold" font-size="11.00" fill="black"><a fill="navy" href="../reference/DexpiModel/ConceptualModel.html" target="_parent">ConceptualModel</a></text>
</g>
<!-- 39&#45;&gt;9 -->
<g id="edge8" class="edge"><path fill="none" stroke="#000000" d="M400.324,-386.016C402.842,-378.86 406.673,-371.862 412.5,-367 444.518,-340.287 465.123,-357.682 510.934,-350.726"/>
<polygon fill="#000000" stroke="#000000" points="400.262,-386.253 402.602,-393.074 397.205,-397.857 394.865,-391.036 400.262,-386.253"/>
<polygon fill="#000000" stroke="#000000" points="520.773,-348.92 511.751,-355.152 515.856,-349.823 510.938,-350.726 510.938,-350.726 510.938,-350.726 515.856,-349.823 510.125,-346.3 520.773,-348.92 520.773,-348.92"/>
<text text-anchor="start" x="415" y="-371.5" font-family="Arial" font-size="10.00" fill="black"><a fill="navy" href="../reference/DexpiModel/ConceptualModel.html#dexpi-dexpimodel-conceptualmodel-taggedplantitems" target="_parent">TaggedPlantItems</a></text>
<text text-anchor="start" x="512.773" y="-351.92" font-family="Arial" font-size="10.00" fill="black">*</text>
<text text-anchor="start" x="368.205" y="-387.857" font-family="Arial" font-size="10.00" fill="black">0..1</text>
</g>
<!-- 42 -->
<g id="node17" class="node"><defs>
<linearGradient id="l_17" gradientUnits="userSpaceOnUse" x1="368.5" y1="-572.5" x2="368.5" y2="-608.5">
<stop offset="0" style="stop-color:#ffffbb;stop-opacity:1.;"/>
<stop offset="1" style="stop-color:#ffffee;stop-opacity:1.;"/>
</linearGradient>
</defs>
<polygon fill="url(#l_17)" stroke="black" points="443,-608.5 294,-608.5 294,-572.5 443,-572.5 443,-608.5"/>
<text text-anchor="start" x="304.5" y="-588.7" font-family="Arial" font-weight="bold" font-size="11.00" fill="black"><a fill="navy" href="../reference/Graphics/AttributeRepresentation.html" target="_parent">AttributeRepresentation</a></text>
</g>
<!-- 42&#45;&gt;10 -->
<g id="edge9" class="edge"><path fill="none" stroke="#000000" d="M388.359,-572.243C404.176,-558.5 426.493,-539.108 444.024,-523.875"/>
<polygon fill="#000000" stroke="#000000" points="451.702,-517.204 447.105,-527.159 447.927,-520.483 444.153,-523.763 444.153,-523.763 444.153,-523.763 447.927,-520.483 441.201,-520.366 451.702,-517.204 451.702,-517.204"/>
<text text-anchor="start" x="435" y="-537.5" font-family="Arial" font-size="10.00" fill="black"><a fill="navy" href="../reference/Graphics/AttributeRepresentation.html#dexpi-graphics-attributerepresentation-object" target="_parent">Object</a></text>
<text text-anchor="start" x="443.702" y="-520.204" font-family="Arial" font-size="10.00" fill="black"></text>
<text text-anchor="start" x="372.359" y="-562.243" font-family="Arial" font-size="10.00" fill="black">*</text>
</g>
<!-- 45 -->
<g id="node18" class="node"><defs>
<linearGradient id="l_18" gradientUnits="userSpaceOnUse" x1="529.5" y1="-572.5" x2="529.5" y2="-608.5">
<stop offset="0" style="stop-color:#ffffbb;stop-opacity:1.;"/>
<stop offset="1" style="stop-color:#ffffee;stop-opacity:1.;"/>
</linearGradient>
</defs>
<polygon fill="url(#l_18)" stroke="black" points="598,-608.5 461,-608.5 461,-572.5 598,-572.5 598,-608.5"/>
<text text-anchor="start" x="471.5" y="-588.7" font-family="Arial" font-weight="bold" font-size="11.00" fill="black"><a fill="navy" href="../reference/Graphics/RepresentationGroup.html" target="_parent">RepresentationGroup</a></text>
</g>
<!-- 45&#45;&gt;10 -->
<g id="edge10" class="edge"><path fill="none" stroke="#000000" d="M518.317,-572.243C509.812,-559.119 497.968,-540.843 488.322,-525.958"/>
<polygon fill="#000000" stroke="#000000" points="482.649,-517.204 491.863,-523.148 485.368,-521.399 488.087,-525.595 488.087,-525.595 488.087,-525.595 485.368,-521.399 484.311,-528.043 482.649,-517.204 482.649,-517.204"/>
<text text-anchor="start" x="504.5" y="-537.5" font-family="Arial" font-size="10.00" fill="black"><a fill="navy" href="../reference/Graphics/RepresentationGroup.html#dexpi-graphics-representationgroup-represents" target="_parent">Represents</a></text>
<text text-anchor="start" x="474.649" y="-520.204" font-family="Arial" font-size="10.00" fill="black"></text>
<text text-anchor="start" x="502.317" y="-562.243" font-family="Arial" font-size="10.00" fill="black">*</text>
</g>
<!-- 12&#45;inner&#45;node&#45;&gt;0 -->
<g id="edge13" class="edge"><path fill="none" stroke="black" d="M457.5,-96.9475C457.5,-95.5839 457.5,-67.967 457.5,-47.2343"/>
</g>
<!-- 13&#45;inner&#45;node&#45;&gt;6 -->
<g id="edge15" class="edge"><path fill="none" stroke="black" d="M341.64,-248.884C343.027,-247.739 354.434,-238.38 364.5,-232 383.235,-220.126 405.036,-208.306 422.819,-199.142"/>
</g>
<!-- 14&#45;inner&#45;node&#45;&gt;6 -->
<g id="edge17" class="edge"><path fill="none" stroke="black" d="M457.5,-248.951C457.5,-247.604 457.5,-218.522 457.5,-199.135"/>
</g>
<!-- 15&#45;inner&#45;node&#45;&gt;6 -->
<g id="edge19" class="edge"><path fill="none" stroke="black" d="M575.414,-248.951C573.042,-247.604 521.822,-218.522 487.677,-199.135"/>
</g>
<!-- 16&#45;inner&#45;node&#45;&gt;9 -->
<g id="edge21" class="edge"><path fill="none" stroke="black" d="M471.538,-414.879C471.92,-413.686 475.141,-403.959 480.5,-398 497.92,-378.629 522.388,-362.325 542.129,-351.02"/>
</g>
<!-- 17&#45;inner&#45;node&#45;&gt;9 -->
<g id="edge23" class="edge"><path fill="none" stroke="black" d="M629.461,-414.941C628.318,-413.226 602.391,-374.337 586.898,-351.098"/>
</g>
<!-- 18&#45;inner&#45;node&#45;&gt;9 -->
<g id="edge25" class="edge"><path fill="none" stroke="black" d="M766.362,-414.941C762.318,-413.226 670.615,-374.337 615.817,-351.098"/>
</g>
</g>
</svg>