<!DOCTYPE svg PUBLIC "-//W3C//DTD SVG 1.1//EN" "http://www.w3.org/Graphics/SVG/1.1/DTD/svg11.dtd">
<!-- Generated by graphviz version 2.38.0 (20140413.2041)
 --><!-- Title: G Pages: 1 --><svg xmlns="http://www.w3.org/2000/svg" xmlns:xlink="http://www.w3.org/1999/xlink" width="867pt" height="743pt" viewBox="0.00 0.00 866.50 743.00">
<g id="graph0" class="graph" transform="scale(1 1) rotate(0) translate(4 739)">
<!-- 0 -->
<g id="node1" class="node"><defs>
<linearGradient id="l_0" gradientUnits="userSpaceOnUse" x1="457.5" y1="-3.19744e-014" x2="457.5" y2="-62">
<stop offset="0" style="stop-color:#ffffbb;stop-opacity:1.;"/>
<stop offset="1" style="stop-color:#ffffee;stop-opacity:1.;"/>
</linearGradient>
</defs>
<polygon fill="url(#l_0)" stroke="black" points="590.5,-62 324.5,-62 324.5,-0 590.5,-0 590.5,-62"/>
<text text-anchor="start" x="419.5" y="-48.2" font-family="Arial" font-weight="bold" font-size="11.00" fill="black">SteamTurbine</text>
<text text-anchor="start" x="334.5" y="-24" font-family="Arial" font-size="10.00" fill="black"><a fill="navy" href="../reference/Equipment/SteamTurbine.html#dexpi-equipment-steamturbine-designinletmassflow" target="_parent">DesignInletMassFlow</a>&#160;:</text>
<text text-anchor="start" x="446.5" y="-24" font-family="Arial" font-size="10.00" fill="black"><a fill="navy" href="../reference/PhysicalQuantities/NullableMassFlowRate.html" target="_parent">NullableMassFlowRate</a>&#160;[0..1]</text>
<text text-anchor="start" x="334.5" y="-9" font-family="Arial" font-size="10.00" fill="black"><a fill="navy" href="../reference/Equipment/SteamTurbine.html#dexpi-equipment-steamturbine-designinletvolumeflow" target="_parent">DesignInletVolumeFlow</a>&#160;:</text>
<text text-anchor="start" x="446.5" y="-9" font-family="Arial" font-size="10.00" fill="black"><a fill="navy" href="../reference/PhysicalQuantities/NullableVolumeFlowRate.html" target="_parent">NullableVolumeFlowRate</a>&#160;[0..1]</text>
<polygon fill="black" stroke="black" points="590.5,-42.0 324.5,-42.0 324.5,-42.0 590.5,-42.0 590.5,-42.0"/>
</g>
<!-- 6 -->
<g id="node2" class="node"><defs>
<linearGradient id="l_1" gradientUnits="userSpaceOnUse" x1="766.5" y1="-682" x2="766.5" y2="-735">
<stop offset="0" style="stop-color:#fbfbfb;stop-opacity:1.;"/>
<stop offset="1" style="stop-color:#fefefe;stop-opacity:1.;"/>
</linearGradient>
</defs>
<polygon fill="url(#l_1)" stroke="black" points="858.5,-724.0 847.5,-735.0 674.5,-735.0 674.5,-682.0 858.5,-682.0"/><path d="M858.5,-724.0L847.5,-724.0 847.5,-735.0" fill="none" stroke="black"/>
<text text-anchor="start" x="684.5" y="-720.5" font-family="Arial" font-size="10.00" fill="black">For&#160;the&#160;sake&#160;of&#160;clarity,&#160;superclasses&#160;</text>
<text text-anchor="start" x="684.5" y="-705.5" font-family="Arial" font-size="10.00" fill="black">and&#160;associations&#160;of&#160;<a fill="navy" href="../reference/PlantStructure/TechnicalItem.html" target="_parent">TechnicalItem</a>&#160;are</text>
<text text-anchor="start" x="684.5" y="-690.5" font-family="Arial" font-size="10.00" fill="black">not&#160;shown&#160;in&#160;this&#160;diagram.</text>
</g>
<!-- 5 -->
<g id="node3" class="node"><defs>
<linearGradient id="l_2" gradientUnits="userSpaceOnUse" x1="766.5" y1="-599" x2="766.5" y2="-635">
<stop offset="0" style="stop-color:#ffffbb;stop-opacity:1.;"/>
<stop offset="1" style="stop-color:#ffffee;stop-opacity:1.;"/>
</linearGradient>
</defs>
<polygon fill="url(#l_2)" stroke="black" points="813,-635 720,-635 720,-599 813,-599 813,-635"/>
<text text-anchor="start" x="730.5" y="-615.2" font-family="Arial" font-weight="bold" font-style="italic" font-size="11.00" fill="black"><a fill="navy" href="../reference/PlantStructure/TechnicalItem.html" target="_parent">TechnicalItem</a></text>
</g>
<!-- 6&#45;&gt;5 -->
<g id="edge1" class="edge"><path fill="none" stroke="#000000" stroke-dasharray="5,2" d="M766.5,-681.613C766.5,-666.641 766.5,-648.222 766.5,-635.063"/>
</g>
<!-- 22&#45;inner&#45;node -->
<!-- 5&#45;&gt;22&#45;inner&#45;node -->
<g id="edge26" class="edge"><path fill="none" stroke="black" d="M766.5,-588.649C766.5,-565.987 766.5,-537.163 766.5,-535.116L766.362,-532.941"/>
<polygon fill="none" stroke="black" points="763,-588.822 766.5,-598.822 770,-588.822 763,-588.822"/>
</g>
<!-- 8 -->
<g id="node4" class="node"><defs>
<linearGradient id="l_3" gradientUnits="userSpaceOnUse" x1="457.5" y1="-129" x2="457.5" y2="-165">
<stop offset="0" style="stop-color:#ffffbb;stop-opacity:1.;"/>
<stop offset="1" style="stop-color:#ffffee;stop-opacity:1.;"/>
</linearGradient>
</defs>
<polygon fill="url(#l_3)" stroke="black" points="489,-165 426,-165 426,-129 489,-129 489,-165"/>
<text text-anchor="start" x="436.5" y="-145.2" font-family="Arial" font-weight="bold" font-size="11.00" fill="black"><a fill="navy" href="../reference/Equipment/Turbine.html" target="_parent">Turbine</a></text>
</g>
<!-- 15&#45;inner&#45;node -->
<!-- 8&#45;&gt;15&#45;inner&#45;node -->
<g id="edge12" class="edge"><path fill="none" stroke="black" d="M457.5,-118.603C457.5,-107.422 457.5,-96.8866 457.5,-96.053L457.5,-94.9543"/>
<polygon fill="none" stroke="black" points="454,-118.793 457.5,-128.793 461,-118.793 454,-118.793"/>
</g>
<!-- 9 -->
<g id="node5" class="node"><defs>
<linearGradient id="l_4" gradientUnits="userSpaceOnUse" x1="457.5" y1="-281" x2="457.5" y2="-317">
<stop offset="0" style="stop-color:#ffffbb;stop-opacity:1.;"/>
<stop offset="1" style="stop-color:#ffffee;stop-opacity:1.;"/>
</linearGradient>
</defs>
<polygon fill="url(#l_4)" stroke="black" points="496.5,-317 418.5,-317 418.5,-281 496.5,-281 496.5,-317"/>
<text text-anchor="start" x="428.5" y="-297.2" font-family="Arial" font-weight="bold" font-style="italic" font-size="11.00" fill="black"><a fill="navy" href="../reference/Equipment/Equipment.html" target="_parent">Equipment</a></text>
</g>
<!-- 25 -->
<g id="node11" class="node"><defs>
<linearGradient id="l_5" gradientUnits="userSpaceOnUse" x1="51.5" y1="-198" x2="51.5" y2="-234">
<stop offset="0" style="stop-color:#ffffbb;stop-opacity:1.;"/>
<stop offset="1" style="stop-color:#ffffee;stop-opacity:1.;"/>
</linearGradient>
</defs>
<polygon fill="url(#l_5)" stroke="black" points="103,-234 0,-234 0,-198 103,-198 103,-234"/>
<text text-anchor="start" x="10.5" y="-214.2" font-family="Arial" font-weight="bold" font-size="11.00" fill="black"><a fill="navy" href="../reference/Equipment/DryingChamber.html" target="_parent">DryingChamber</a></text>
</g>
<!-- 9&#45;&gt;25 -->
<g id="edge2" class="edge"><path fill="none" stroke="#000000" d="M406.027,-298.446C342.858,-297.672 233.105,-292.013 143.5,-265 123.707,-259.033 103.174,-248.771 86.54,-239.264"/>
<polygon fill="#000000" stroke="#000000" points="406.398,-298.449 412.429,-294.495 418.398,-298.542 412.367,-302.495 406.398,-298.449"/>
<polygon fill="#000000" stroke="#000000" points="77.7299,-234.091 88.6319,-235.274 82.0418,-236.623 86.3536,-239.154 86.3536,-239.154 86.3536,-239.154 82.0418,-236.623 84.0753,-243.035 77.7299,-234.091 77.7299,-234.091"/>
<text text-anchor="start" x="146" y="-254.5" font-family="Arial" font-size="10.00" fill="black"><a fill="navy" href="../reference/Equipment/Equipment.html#dexpi-equipment-equipment-dryingchambers" target="_parent">DryingChambers</a></text>
<text text-anchor="start" x="69.7299" y="-237.091" font-family="Arial" font-size="10.00" fill="black">*</text>
<text text-anchor="start" x="389.398" y="-299.542" font-family="Arial" font-size="10.00" fill="black">0..1</text>
</g>
<!-- 28 -->
<g id="node12" class="node"><defs>
<linearGradient id="l_6" gradientUnits="userSpaceOnUse" x1="155.5" y1="-198" x2="155.5" y2="-234">
<stop offset="0" style="stop-color:#ffffbb;stop-opacity:1.;"/>
<stop offset="1" style="stop-color:#ffffee;stop-opacity:1.;"/>
</linearGradient>
</defs>
<polygon fill="url(#l_6)" stroke="black" points="189.5,-234 121.5,-234 121.5,-198 189.5,-198 189.5,-234"/>
<text text-anchor="start" x="131.5" y="-214.2" font-family="Arial" font-weight="bold" font-size="11.00" fill="black"><a fill="navy" href="../reference/Equipment/GearBox.html" target="_parent">GearBox</a></text>
</g>
<!-- 9&#45;&gt;28 -->
<g id="edge3" class="edge"><path fill="none" stroke="#000000" d="M406.201,-292.816C366.621,-287.972 310.82,-279.294 263.5,-265 241.05,-258.218 217.118,-247.924 197.503,-238.606"/>
<polygon fill="#000000" stroke="#000000" points="406.275,-292.824 412.702,-289.553 418.193,-294.227 411.767,-297.498 406.275,-292.824"/>
<polygon fill="#000000" stroke="#000000" points="188.246,-234.129 199.207,-234.432 192.747,-236.306 197.248,-238.483 197.248,-238.483 197.248,-238.483 192.747,-236.306 195.289,-242.534 188.246,-234.129 188.246,-234.129"/>
<text text-anchor="start" x="266" y="-254.5" font-family="Arial" font-size="10.00" fill="black"><a fill="navy" href="../reference/Equipment/Equipment.html#dexpi-equipment-equipment-gearboxes" target="_parent">GearBoxes</a></text>
<text text-anchor="start" x="180.246" y="-237.129" font-family="Arial" font-size="10.00" fill="black">*</text>
<text text-anchor="start" x="389.193" y="-284.227" font-family="Arial" font-size="10.00" fill="black">0..1</text>
</g>
<!-- 31 -->
<g id="node13" class="node"><defs>
<linearGradient id="l_7" gradientUnits="userSpaceOnUse" x1="270.5" y1="-198" x2="270.5" y2="-234">
<stop offset="0" style="stop-color:#ffffbb;stop-opacity:1.;"/>
<stop offset="1" style="stop-color:#ffffee;stop-opacity:1.;"/>
</linearGradient>
</defs>
<polygon fill="url(#l_7)" stroke="black" points="333.5,-234 207.5,-234 207.5,-198 333.5,-198 333.5,-234"/>
<text text-anchor="start" x="217.5" y="-214.2" font-family="Arial" font-weight="bold" font-size="11.00" fill="black"><a fill="navy" href="../reference/Equipment/MotorAsComponent.html" target="_parent">MotorAsComponent</a></text>
</g>
<!-- 9&#45;&gt;31 -->
<g id="edge4" class="edge"><path fill="none" stroke="#000000" d="M406.67,-286.044C387.398,-280.7 365.526,-273.637 346.5,-265 331.23,-258.068 315.388,-248.498 302.145,-239.726"/>
<polygon fill="#000000" stroke="#000000" points="406.692,-286.049 413.521,-283.734 418.285,-289.147 411.456,-291.463 406.692,-286.049"/>
<polygon fill="#000000" stroke="#000000" points="293.85,-234.112 304.654,-235.99 297.991,-236.914 302.132,-239.717 302.132,-239.717 302.132,-239.717 297.991,-236.914 299.61,-243.443 293.85,-234.112 293.85,-234.112"/>
<text text-anchor="start" x="349" y="-254.5" font-family="Arial" font-size="10.00" fill="black"><a fill="navy" href="../reference/Equipment/Equipment.html#dexpi-equipment-equipment-motors" target="_parent">Motors</a></text>
<text text-anchor="start" x="285.85" y="-237.112" font-family="Arial" font-size="10.00" fill="black">*</text>
<text text-anchor="start" x="389.285" y="-279.147" font-family="Arial" font-size="10.00" fill="black">0..1</text>
</g>
<!-- 34 -->
<g id="node14" class="node"><defs>
<linearGradient id="l_8" gradientUnits="userSpaceOnUse" x1="395.5" y1="-198" x2="395.5" y2="-234">
<stop offset="0" style="stop-color:#ffffbb;stop-opacity:1.;"/>
<stop offset="1" style="stop-color:#ffffee;stop-opacity:1.;"/>
</linearGradient>
</defs>
<polygon fill="url(#l_8)" stroke="black" points="439,-234 352,-234 352,-198 439,-198 439,-234"/>
<text text-anchor="start" x="362.5" y="-214.2" font-family="Arial" font-weight="bold" font-size="11.00" fill="black"><a fill="navy" href="../reference/Equipment/SprayNozzle.html" target="_parent">SprayNozzle</a></text>
</g>
<!-- 9&#45;&gt;34 -->
<g id="edge5" class="edge"><path fill="none" stroke="#000000" d="M407.357,-282.548C399.867,-278.067 393.12,-272.33 388.5,-265 384.594,-258.802 384.151,-251.272 385.269,-244.033"/>
<polygon fill="#000000" stroke="#000000" points="407.588,-282.664 414.747,-281.802 418.297,-288.08 411.137,-288.942 407.588,-282.664"/>
<polygon fill="#000000" stroke="#000000" points="387.69,-234.16 389.678,-244.944 386.499,-239.016 385.308,-243.873 385.308,-243.873 385.308,-243.873 386.499,-239.016 380.937,-242.801 387.69,-234.16 387.69,-234.16"/>
<text text-anchor="start" x="391" y="-254.5" font-family="Arial" font-size="10.00" fill="black"><a fill="navy" href="../reference/Equipment/Equipment.html#dexpi-equipment-equipment-spraynozzles" target="_parent">SprayNozzles</a></text>
<text text-anchor="start" x="379.69" y="-237.16" font-family="Arial" font-size="10.00" fill="black">*</text>
<text text-anchor="start" x="406.297" y="-278.08" font-family="Arial" font-size="10.00" fill="black">0..1</text>
</g>
<!-- 16&#45;inner&#45;node -->
<!-- 9&#45;&gt;16&#45;inner&#45;node -->
<g id="edge14" class="edge"><path fill="none" stroke="black" d="M457.5,-270.649C457.5,-247.987 457.5,-219.163 457.5,-217.116L457.5,-214.951"/>
<polygon fill="none" stroke="black" points="454,-270.822 457.5,-280.822 461,-270.822 454,-270.822"/>
</g>
<!-- 10 -->
<g id="node6" class="node"><defs>
<linearGradient id="l_9" gradientUnits="userSpaceOnUse" x1="341.5" y1="-433" x2="341.5" y2="-469">
<stop offset="0" style="stop-color:#ffffbb;stop-opacity:1.;"/>
<stop offset="1" style="stop-color:#ffffee;stop-opacity:1.;"/>
</linearGradient>
</defs>
<polygon fill="url(#l_9)" stroke="black" points="394,-469 289,-469 289,-433 394,-433 394,-469"/>
<text text-anchor="start" x="299.5" y="-449.2" font-family="Arial" font-weight="bold" font-style="italic" font-size="11.00" fill="black"><a fill="navy" href="../reference/Equipment/ChamberOwner.html" target="_parent">ChamberOwner</a></text>
</g>
<!-- 37 -->
<g id="node15" class="node"><defs>
<linearGradient id="l_10" gradientUnits="userSpaceOnUse" x1="277.5" y1="-350" x2="277.5" y2="-386">
<stop offset="0" style="stop-color:#ffffbb;stop-opacity:1.;"/>
<stop offset="1" style="stop-color:#ffffee;stop-opacity:1.;"/>
</linearGradient>
</defs>
<polygon fill="url(#l_10)" stroke="black" points="312,-386 243,-386 243,-350 312,-350 312,-386"/>
<text text-anchor="start" x="253.5" y="-366.2" font-family="Arial" font-weight="bold" font-size="11.00" fill="black"><a fill="navy" href="../reference/Equipment/Chamber.html" target="_parent">Chamber</a></text>
</g>
<!-- 10&#45;&gt;37 -->
<g id="edge6" class="edge"><path fill="none" stroke="#000000" d="M295.598,-425.09C292.972,-422.591 290.565,-419.896 288.5,-417 284.181,-410.945 281.527,-403.461 279.905,-396.22"/>
<polygon fill="#000000" stroke="#000000" points="295.859,-425.3 303.041,-425.955 305.199,-432.835 298.017,-432.181 295.859,-425.3"/>
<polygon fill="#000000" stroke="#000000" points="278.234,-386.318 284.336,-395.43 279.066,-391.248 279.898,-396.179 279.898,-396.179 279.898,-396.179 279.066,-391.248 275.461,-396.928 278.234,-386.318 278.234,-386.318"/>
<text text-anchor="start" x="291" y="-406.5" font-family="Arial" font-size="10.00" fill="black"><a fill="navy" href="../reference/Equipment/ChamberOwner.html#dexpi-equipment-chamberowner-chambers" target="_parent">Chambers</a></text>
<text text-anchor="start" x="270.234" y="-389.318" font-family="Arial" font-size="10.00" fill="black">*</text>
<text text-anchor="start" x="276.199" y="-422.835" font-family="Arial" font-size="10.00" fill="black">0..1</text>
</g>
<!-- 17&#45;inner&#45;node -->
<!-- 10&#45;&gt;17&#45;inner&#45;node -->
<g id="edge16" class="edge"><path fill="none" stroke="black" d="M341.5,-422.649C341.5,-399.987 341.5,-371.163 341.5,-369.116L341.64,-366.884"/>
<polygon fill="none" stroke="black" points="338,-422.822 341.5,-432.822 345,-422.822 338,-422.822"/>
</g>
<!-- 11 -->
<g id="node7" class="node"><defs>
<linearGradient id="l_11" gradientUnits="userSpaceOnUse" x1="457.5" y1="-433" x2="457.5" y2="-469">
<stop offset="0" style="stop-color:#ffffbb;stop-opacity:1.;"/>
<stop offset="1" style="stop-color:#ffffee;stop-opacity:1.;"/>
</linearGradient>
</defs>
<polygon fill="url(#l_11)" stroke="black" points="502.5,-469 412.5,-469 412.5,-433 502.5,-433 502.5,-469"/>
<text text-anchor="start" x="422.5" y="-449.2" font-family="Arial" font-weight="bold" font-style="italic" font-size="11.00" fill="black"><a fill="navy" href="../reference/Equipment/NozzleOwner.html" target="_parent">NozzleOwner</a></text>
</g>
<!-- 40 -->
<g id="node16" class="node"><defs>
<linearGradient id="l_12" gradientUnits="userSpaceOnUse" x1="402.5" y1="-350" x2="402.5" y2="-386">
<stop offset="0" style="stop-color:#ffffbb;stop-opacity:1.;"/>
<stop offset="1" style="stop-color:#ffffee;stop-opacity:1.;"/>
</linearGradient>
</defs>
<polygon fill="url(#l_12)" stroke="black" points="431,-386 374,-386 374,-350 431,-350 431,-386"/>
<text text-anchor="start" x="384.5" y="-366.2" font-family="Arial" font-weight="bold" font-size="11.00" fill="black"><a fill="navy" href="../reference/Equipment/Nozzle.html" target="_parent">Nozzle</a></text>
</g>
<!-- 11&#45;&gt;40 -->
<g id="edge7" class="edge"><path fill="none" stroke="#000000" d="M419.289,-424.384C417.147,-422.056 415.185,-419.592 413.5,-417 409.447,-410.763 406.878,-403.222 405.253,-395.983"/>
<polygon fill="#000000" stroke="#000000" points="419.431,-424.515 426.552,-425.651 428.242,-432.662 421.121,-431.525 419.431,-424.515"/>
<polygon fill="#000000" stroke="#000000" points="403.528,-386.118 409.683,-395.193 404.389,-391.043 405.251,-395.969 405.251,-395.969 405.251,-395.969 404.389,-391.043 400.818,-396.744 403.528,-386.118 403.528,-386.118"/>
<text text-anchor="start" x="415.5" y="-406.5" font-family="Arial" font-size="10.00" fill="black"><a fill="navy" href="../reference/Equipment/NozzleOwner.html#dexpi-equipment-nozzleowner-nozzles" target="_parent">Nozzles</a></text>
<text text-anchor="start" x="395.528" y="-389.118" font-family="Arial" font-size="10.00" fill="black">*</text>
<text text-anchor="start" x="399.242" y="-422.662" font-family="Arial" font-size="10.00" fill="black">0..1</text>
</g>
<!-- 18&#45;inner&#45;node -->
<!-- 11&#45;&gt;18&#45;inner&#45;node -->
<g id="edge18" class="edge"><path fill="none" stroke="black" d="M457.5,-422.649C457.5,-399.987 457.5,-371.163 457.5,-369.116L457.5,-366.951"/>
<polygon fill="none" stroke="black" points="454,-422.822 457.5,-432.822 461,-422.822 454,-422.822"/>
</g>
<!-- 12 -->
<g id="node8" class="node"><defs>
<linearGradient id="l_13" gradientUnits="userSpaceOnUse" x1="575.5" y1="-433" x2="575.5" y2="-469">
<stop offset="0" style="stop-color:#ffffbb;stop-opacity:1.;"/>
<stop offset="1" style="stop-color:#ffffee;stop-opacity:1.;"/>
</linearGradient>
</defs>
<polygon fill="url(#l_13)" stroke="black" points="630,-469 521,-469 521,-433 630,-433 630,-469"/>
<text text-anchor="start" x="531.5" y="-449.2" font-family="Arial" font-weight="bold" font-style="italic" font-size="11.00" fill="black"><a fill="navy" href="../reference/Equipment/TaggedPlantItem.html" target="_parent">TaggedPlantItem</a></text>
</g>
<!-- 19&#45;inner&#45;node -->
<!-- 12&#45;&gt;19&#45;inner&#45;node -->
<g id="edge20" class="edge"><path fill="none" stroke="black" d="M575.5,-422.649C575.5,-399.987 575.5,-371.163 575.5,-369.116L575.414,-366.951"/>
<polygon fill="none" stroke="black" points="572,-422.822 575.5,-432.822 579,-422.822 572,-422.822"/>
</g>
<!-- 13 -->
<g id="node9" class="node"><defs>
<linearGradient id="l_14" gradientUnits="userSpaceOnUse" x1="471.5" y1="-599" x2="471.5" y2="-635">
<stop offset="0" style="stop-color:#ffffbb;stop-opacity:1.;"/>
<stop offset="1" style="stop-color:#ffffee;stop-opacity:1.;"/>
</linearGradient>
</defs>
<polygon fill="url(#l_14)" stroke="black" points="529,-635 414,-635 414,-599 529,-599 529,-635"/>
<text text-anchor="start" x="424.5" y="-615.2" font-family="Arial" font-weight="bold" font-style="italic" font-size="11.00" fill="black"><a fill="navy" href="../reference/DexpiModel/ConceptualObject.html" target="_parent">ConceptualObject</a></text>
</g>
<!-- 20&#45;inner&#45;node -->
<!-- 13&#45;&gt;20&#45;inner&#45;node -->
<g id="edge22" class="edge"><path fill="none" stroke="black" d="M471.5,-588.649C471.5,-565.987 471.5,-537.163 471.5,-535.116L471.538,-532.879"/>
<polygon fill="none" stroke="black" points="468,-588.822 471.5,-598.822 475,-588.822 468,-588.822"/>
</g>
<!-- 14 -->
<g id="node10" class="node"><defs>
<linearGradient id="l_15" gradientUnits="userSpaceOnUse" x1="629.5" y1="-599" x2="629.5" y2="-635">
<stop offset="0" style="stop-color:#ffffbb;stop-opacity:1.;"/>
<stop offset="1" style="stop-color:#ffffee;stop-opacity:1.;"/>
</linearGradient>
</defs>
<polygon fill="url(#l_15)" stroke="black" points="701.5,-635 557.5,-635 557.5,-599 701.5,-599 701.5,-635"/>
<text text-anchor="start" x="567.5" y="-615.2" font-family="Arial" font-weight="bold" font-style="italic" font-size="11.00" fill="black"><a fill="navy" href="../reference/Customization/CustomAttributeOwner.html" target="_parent">CustomAttributeOwner</a></text>
</g>
<!-- 52 -->
<g id="node20" class="node"><defs>
<linearGradient id="l_16" gradientUnits="userSpaceOnUse" x1="544.5" y1="-516" x2="544.5" y2="-552">
<stop offset="0" style="stop-color:#ffffbb;stop-opacity:1.;"/>
<stop offset="1" style="stop-color:#ffffee;stop-opacity:1.;"/>
</linearGradient>
</defs>
<polygon fill="url(#l_16)" stroke="black" points="599,-552 490,-552 490,-516 599,-516 599,-552"/>
<text text-anchor="start" x="500.5" y="-532.2" font-family="Arial" font-weight="bold" font-style="italic" font-size="11.00" fill="black"><a fill="navy" href="../reference/Customization/CustomAttribute.html" target="_parent">CustomAttribute</a></text>
</g>
<!-- 14&#45;&gt;52 -->
<g id="edge11" class="edge"><path fill="none" stroke="#000000" d="M552.949,-591.486C550.181,-588.933 547.67,-586.113 545.5,-583 541.402,-577.119 539.944,-569.772 539.815,-562.608"/>
<polygon fill="#000000" stroke="#000000" points="552.998,-591.523 560.196,-591.959 562.563,-598.77 555.365,-598.335 552.998,-591.523"/>
<polygon fill="#000000" stroke="#000000" points="540.425,-552.435 544.319,-562.687 540.126,-557.426 539.827,-562.417 539.827,-562.417 539.827,-562.417 540.126,-557.426 535.335,-562.148 540.425,-552.435 540.425,-552.435"/>
<text text-anchor="start" x="547.5" y="-572.5" font-family="Arial" font-size="10.00" fill="black"><a fill="navy" href="../reference/Customization/CustomAttributeOwner.html#dexpi-customization-customattributeowner-customattributes" target="_parent">CustomAttributes</a></text>
<text text-anchor="start" x="532.425" y="-555.435" font-family="Arial" font-size="10.00" fill="black">*</text>
<text text-anchor="start" x="533.563" y="-588.77" font-family="Arial" font-size="10.00" fill="black">0..1</text>
</g>
<!-- 21&#45;inner&#45;node -->
<!-- 14&#45;&gt;21&#45;inner&#45;node -->
<g id="edge24" class="edge"><path fill="none" stroke="black" d="M629.5,-588.649C629.5,-565.987 629.5,-537.163 629.5,-535.116L629.461,-532.941"/>
<polygon fill="none" stroke="black" points="626,-588.822 629.5,-598.822 633,-588.822 626,-588.822"/>
</g>
<!-- 43 -->
<g id="node17" class="node"><defs>
<linearGradient id="l_17" gradientUnits="userSpaceOnUse" x1="395.5" y1="-516" x2="395.5" y2="-552">
<stop offset="0" style="stop-color:#ffffbb;stop-opacity:1.;"/>
<stop offset="1" style="stop-color:#ffffee;stop-opacity:1.;"/>
</linearGradient>
</defs>
<polygon fill="url(#l_17)" stroke="black" points="452.5,-552 338.5,-552 338.5,-516 452.5,-516 452.5,-552"/>
<text text-anchor="start" x="348.5" y="-532.2" font-family="Arial" font-weight="bold" font-size="11.00" fill="black"><a fill="navy" href="../reference/DexpiModel/ConceptualModel.html" target="_parent">ConceptualModel</a></text>
</g>
<!-- 43&#45;&gt;12 -->
<g id="edge8" class="edge"><path fill="none" stroke="#000000" d="M400.324,-504.016C402.842,-496.86 406.673,-489.862 412.5,-485 444.518,-458.287 465.123,-475.682 510.934,-468.726"/>
<polygon fill="#000000" stroke="#000000" points="400.262,-504.253 402.602,-511.074 397.205,-515.857 394.865,-509.036 400.262,-504.253"/>
<polygon fill="#000000" stroke="#000000" points="520.773,-466.92 511.751,-473.152 515.856,-467.823 510.938,-468.726 510.938,-468.726 510.938,-468.726 515.856,-467.823 510.125,-464.3 520.773,-466.92 520.773,-466.92"/>
<text text-anchor="start" x="415" y="-489.5" font-family="Arial" font-size="10.00" fill="black"><a fill="navy" href="../reference/DexpiModel/ConceptualModel.html#dexpi-dexpimodel-conceptualmodel-taggedplantitems" target="_parent">TaggedPlantItems</a></text>
<text text-anchor="start" x="512.773" y="-469.92" font-family="Arial" font-size="10.00" fill="black">*</text>
<text text-anchor="start" x="368.205" y="-505.857" font-family="Arial" font-size="10.00" fill="black">0..1</text>
</g>
<!-- 46 -->
<g id="node18" class="node"><defs>
<linearGradient id="l_18" gradientUnits="userSpaceOnUse" x1="368.5" y1="-690.5" x2="368.5" y2="-726.5">
<stop offset="0" style="stop-color:#ffffbb;stop-opacity:1.;"/>
<stop offset="1" style="stop-color:#ffffee;stop-opacity:1.;"/>
</linearGradient>
</defs>
<polygon fill="url(#l_18)" stroke="black" points="443,-726.5 294,-726.5 294,-690.5 443,-690.5 443,-726.5"/>
<text text-anchor="start" x="304.5" y="-706.7" font-family="Arial" font-weight="bold" font-size="11.00" fill="black"><a fill="navy" href="../reference/Graphics/AttributeRepresentation.html" target="_parent">AttributeRepresentation</a></text>
</g>
<!-- 46&#45;&gt;13 -->
<g id="edge9" class="edge"><path fill="none" stroke="#000000" d="M388.359,-690.243C404.176,-676.5 426.493,-657.108 444.024,-641.875"/>
<polygon fill="#000000" stroke="#000000" points="451.702,-635.204 447.105,-645.159 447.927,-638.483 444.153,-641.763 444.153,-641.763 444.153,-641.763 447.927,-638.483 441.201,-638.366 451.702,-635.204 451.702,-635.204"/>
<text text-anchor="start" x="435" y="-655.5" font-family="Arial" font-size="10.00" fill="black"><a fill="navy" href="../reference/Graphics/AttributeRepresentation.html#dexpi-graphics-attributerepresentation-object" target="_parent">Object</a></text>
<text text-anchor="start" x="443.702" y="-638.204" font-family="Arial" font-size="10.00" fill="black"></text>
<text text-anchor="start" x="372.359" y="-680.243" font-family="Arial" font-size="10.00" fill="black">*</text>
</g>
<!-- 49 -->
<g id="node19" class="node"><defs>
<linearGradient id="l_19" gradientUnits="userSpaceOnUse" x1="529.5" y1="-690.5" x2="529.5" y2="-726.5">
<stop offset="0" style="stop-color:#ffffbb;stop-opacity:1.;"/>
<stop offset="1" style="stop-color:#ffffee;stop-opacity:1.;"/>
</linearGradient>
</defs>
<polygon fill="url(#l_19)" stroke="black" points="598,-726.5 461,-726.5 461,-690.5 598,-690.5 598,-726.5"/>
<text text-anchor="start" x="471.5" y="-706.7" font-family="Arial" font-weight="bold" font-size="11.00" fill="black"><a fill="navy" href="../reference/Graphics/RepresentationGroup.html" target="_parent">RepresentationGroup</a></text>
</g>
<!-- 49&#45;&gt;13 -->
<g id="edge10" class="edge"><path fill="none" stroke="#000000" d="M518.317,-690.243C509.812,-677.119 497.968,-658.843 488.322,-643.958"/>
<polygon fill="#000000" stroke="#000000" points="482.649,-635.204 491.863,-641.148 485.368,-639.399 488.087,-643.595 488.087,-643.595 488.087,-643.595 485.368,-639.399 484.311,-646.043 482.649,-635.204 482.649,-635.204"/>
<text text-anchor="start" x="504.5" y="-655.5" font-family="Arial" font-size="10.00" fill="black"><a fill="navy" href="../reference/Graphics/RepresentationGroup.html#dexpi-graphics-representationgroup-represents" target="_parent">Represents</a></text>
<text text-anchor="start" x="474.649" y="-638.204" font-family="Arial" font-size="10.00" fill="black"></text>
<text text-anchor="start" x="502.317" y="-680.243" font-family="Arial" font-size="10.00" fill="black">*</text>
</g>
<!-- 15&#45;inner&#45;node&#45;&gt;0 -->
<g id="edge13" class="edge"><path fill="none" stroke="black" d="M457.5,-94.9543C457.5,-93.9856 457.5,-77.7665 457.5,-62.0354"/>
</g>
<!-- 16&#45;inner&#45;node&#45;&gt;8 -->
<g id="edge15" class="edge"><path fill="none" stroke="black" d="M457.5,-214.951C457.5,-213.604 457.5,-184.522 457.5,-165.135"/>
</g>
<!-- 17&#45;inner&#45;node&#45;&gt;9 -->
<g id="edge17" class="edge"><path fill="none" stroke="black" d="M341.64,-366.884C343.027,-365.739 354.434,-356.38 364.5,-350 383.235,-338.126 405.036,-326.306 422.819,-317.142"/>
</g>
<!-- 18&#45;inner&#45;node&#45;&gt;9 -->
<g id="edge19" class="edge"><path fill="none" stroke="black" d="M457.5,-366.951C457.5,-365.604 457.5,-336.522 457.5,-317.135"/>
</g>
<!-- 19&#45;inner&#45;node&#45;&gt;9 -->
<g id="edge21" class="edge"><path fill="none" stroke="black" d="M575.414,-366.951C573.042,-365.604 521.822,-336.522 487.677,-317.135"/>
</g>
<!-- 20&#45;inner&#45;node&#45;&gt;12 -->
<g id="edge23" class="edge"><path fill="none" stroke="black" d="M471.538,-532.879C471.92,-531.686 475.141,-521.959 480.5,-516 497.92,-496.629 522.388,-480.325 542.129,-469.02"/>
</g>
<!-- 21&#45;inner&#45;node&#45;&gt;12 -->
<g id="edge25" class="edge"><path fill="none" stroke="black" d="M629.461,-532.941C628.318,-531.226 602.391,-492.337 586.898,-469.098"/>
</g>
<!-- 22&#45;inner&#45;node&#45;&gt;12 -->
<g id="edge27" class="edge"><path fill="none" stroke="black" d="M766.362,-532.941C762.318,-531.226 670.615,-492.337 615.817,-469.098"/>
</g>
</g>
</svg>