<!DOCTYPE svg PUBLIC "-//W3C//DTD SVG 1.1//EN" "http://www.w3.org/Graphics/SVG/1.1/DTD/svg11.dtd">
<!-- Generated by graphviz version 2.38.0 (20140413.2041)
 --><!-- Title: G Pages: 1 --><svg xmlns="http://www.w3.org/2000/svg" xmlns:xlink="http://www.w3.org/1999/xlink" width="466pt" height="456pt" viewBox="0.00 0.00 465.50 456.00">
<g id="graph0" class="graph" transform="scale(1 1) rotate(0) translate(4 452)">
<!-- 0 -->
<g id="node1" class="node"><defs>
<linearGradient id="l_0" gradientUnits="userSpaceOnUse" x1="141.5" y1="-1.77636e-014" x2="141.5" y2="-47">
<stop offset="0" style="stop-color:#ffffbb;stop-opacity:1.;"/>
<stop offset="1" style="stop-color:#ffffee;stop-opacity:1.;"/>
</linearGradient>
</defs>
<polygon fill="url(#l_0)" stroke="black" points="229,-47 54,-47 54,3.55271e-015 229,3.55271e-015 229,-47"/>
<text text-anchor="start" x="70.5" y="-32.7" font-family="Arial" font-weight="bold" font-size="11.00" fill="black">SubTaggedColumnSection</text>
<text text-anchor="start" x="64.5" y="-8.5" font-family="Arial" font-size="10.00" fill="black"><a fill="navy" href="../reference/Equipment/SubTaggedColumnSection.html#dexpi-equipment-subtaggedcolumnsection-subtagname" target="_parent">SubTagName</a>&#160;:</text>
<text text-anchor="start" x="133.5" y="-8.5" font-family="Arial" font-size="10.00" fill="black"><a fill="navy" href="../reference/DataTypes/NullableString.html" target="_parent">NullableString</a>&#160;[0..1]</text>
<polygon fill="black" stroke="black" points="229.0,-26.5 54.0,-26.5 54.0,-26.5 229.0,-26.5 229.0,-26.5"/>
</g>
<!-- 3 -->
<g id="node2" class="node"><defs>
<linearGradient id="l_1" gradientUnits="userSpaceOnUse" x1="318.5" y1="-177" x2="318.5" y2="-213">
<stop offset="0" style="stop-color:#ffffbb;stop-opacity:1.;"/>
<stop offset="1" style="stop-color:#ffffee;stop-opacity:1.;"/>
</linearGradient>
</defs>
<polygon fill="url(#l_1)" stroke="black" points="369.5,-213 267.5,-213 267.5,-177 369.5,-177 369.5,-213"/>
<text text-anchor="start" x="277.5" y="-193.2" font-family="Arial" font-weight="bold" font-style="italic" font-size="11.00" fill="black"><a fill="navy" href="../reference/Equipment/ColumnSection.html" target="_parent">ColumnSection</a></text>
</g>
<!-- 14 -->
<g id="node6" class="node"><defs>
<linearGradient id="l_2" gradientUnits="userSpaceOnUse" x1="211.5" y1="-94" x2="211.5" y2="-130">
<stop offset="0" style="stop-color:#ffffbb;stop-opacity:1.;"/>
<stop offset="1" style="stop-color:#ffffee;stop-opacity:1.;"/>
</linearGradient>
</defs>
<polygon fill="url(#l_2)" stroke="black" points="300,-130 123,-130 123,-94 300,-94 300,-130"/>
<text text-anchor="start" x="133.5" y="-110.2" font-family="Arial" font-weight="bold" font-style="italic" font-size="11.00" fill="black"><a fill="navy" href="../reference/Equipment/ColumnInternalsArrangement.html" target="_parent">ColumnInternalsArrangement</a></text>
</g>
<!-- 3&#45;&gt;14 -->
<g id="edge2" class="edge"><path fill="none" stroke="#000000" d="M285.304,-169.807C281.315,-166.856 277.308,-163.87 273.5,-161 262.968,-153.064 251.529,-144.26 241.377,-136.382"/>
<polygon fill="#000000" stroke="#000000" points="285.394,-169.874 292.598,-170.209 295.059,-176.987 287.855,-176.652 285.394,-169.874"/>
<polygon fill="#000000" stroke="#000000" points="233.2,-130.022 243.856,-132.61 237.147,-133.092 241.094,-136.162 241.094,-136.162 241.094,-136.162 237.147,-133.092 238.331,-139.714 233.2,-130.022 233.2,-130.022"/>
<text text-anchor="start" x="276" y="-150.5" font-family="Arial" font-size="10.00" fill="black"><a fill="navy" href="../reference/Equipment/ColumnSection.html#dexpi-equipment-columnsection-internals" target="_parent">Internals</a></text>
<text text-anchor="start" x="212.2" y="-133.022" font-family="Arial" font-size="10.00" fill="black">0..1</text>
<text text-anchor="start" x="266.059" y="-166.987" font-family="Arial" font-size="10.00" fill="black">0..1</text>
</g>
<!-- 6&#45;inner&#45;node -->
<!-- 3&#45;&gt;6&#45;inner&#45;node -->
<g id="edge6" class="edge"><path fill="none" stroke="black" d="M318.5,-166.649C318.5,-143.987 318.5,-115.163 318.5,-113.116L318.468,-110.872"/>
<polygon fill="none" stroke="black" points="315,-166.822 318.5,-176.822 322,-166.822 315,-166.822"/>
</g>
<!-- 4 -->
<g id="node3" class="node"><defs>
<linearGradient id="l_3" gradientUnits="userSpaceOnUse" x1="217.5" y1="-329" x2="217.5" y2="-365">
<stop offset="0" style="stop-color:#ffffbb;stop-opacity:1.;"/>
<stop offset="1" style="stop-color:#ffffee;stop-opacity:1.;"/>
</linearGradient>
</defs>
<polygon fill="url(#l_3)" stroke="black" points="275,-365 160,-365 160,-329 275,-329 275,-365"/>
<text text-anchor="start" x="170.5" y="-345.2" font-family="Arial" font-weight="bold" font-style="italic" font-size="11.00" fill="black"><a fill="navy" href="../reference/DexpiModel/ConceptualObject.html" target="_parent">ConceptualObject</a></text>
</g>
<!-- 7&#45;inner&#45;node -->
<!-- 4&#45;&gt;7&#45;inner&#45;node -->
<g id="edge8" class="edge"><path fill="none" stroke="black" d="M217.5,-318.649C217.5,-295.987 217.5,-267.163 217.5,-265.116L217.543,-262.876"/>
<polygon fill="none" stroke="black" points="214,-318.822 217.5,-328.822 221,-318.822 214,-318.822"/>
</g>
<!-- 5 -->
<g id="node4" class="node"><defs>
<linearGradient id="l_4" gradientUnits="userSpaceOnUse" x1="385.5" y1="-329" x2="385.5" y2="-365">
<stop offset="0" style="stop-color:#ffffbb;stop-opacity:1.;"/>
<stop offset="1" style="stop-color:#ffffee;stop-opacity:1.;"/>
</linearGradient>
</defs>
<polygon fill="url(#l_4)" stroke="black" points="457.5,-365 313.5,-365 313.5,-329 457.5,-329 457.5,-365"/>
<text text-anchor="start" x="323.5" y="-345.2" font-family="Arial" font-weight="bold" font-style="italic" font-size="11.00" fill="black"><a fill="navy" href="../reference/Customization/CustomAttributeOwner.html" target="_parent">CustomAttributeOwner</a></text>
</g>
<!-- 23 -->
<g id="node9" class="node"><defs>
<linearGradient id="l_5" gradientUnits="userSpaceOnUse" x1="290.5" y1="-246" x2="290.5" y2="-282">
<stop offset="0" style="stop-color:#ffffbb;stop-opacity:1.;"/>
<stop offset="1" style="stop-color:#ffffee;stop-opacity:1.;"/>
</linearGradient>
</defs>
<polygon fill="url(#l_5)" stroke="black" points="345,-282 236,-282 236,-246 345,-246 345,-282"/>
<text text-anchor="start" x="246.5" y="-262.2" font-family="Arial" font-weight="bold" font-style="italic" font-size="11.00" fill="black"><a fill="navy" href="../reference/Customization/CustomAttribute.html" target="_parent">CustomAttribute</a></text>
</g>
<!-- 5&#45;&gt;23 -->
<g id="edge5" class="edge"><path fill="none" stroke="#000000" d="M311.566,-322.359C307.887,-319.576 304.487,-316.469 301.5,-313 296.571,-307.275 293.734,-299.784 292.132,-292.428"/>
<polygon fill="#000000" stroke="#000000" points="311.776,-322.495 318.986,-322.381 321.865,-328.992 314.655,-329.106 311.776,-322.495"/>
<polygon fill="#000000" stroke="#000000" points="290.601,-282.317 296.548,-291.53 291.35,-287.26 292.098,-292.204 292.098,-292.204 292.098,-292.204 291.35,-287.26 287.649,-292.878 290.601,-282.317 290.601,-282.317"/>
<text text-anchor="start" x="303.5" y="-302.5" font-family="Arial" font-size="10.00" fill="black"><a fill="navy" href="../reference/Customization/CustomAttributeOwner.html#dexpi-customization-customattributeowner-customattributes" target="_parent">CustomAttributes</a></text>
<text text-anchor="start" x="282.601" y="-285.317" font-family="Arial" font-size="10.00" fill="black">*</text>
<text text-anchor="start" x="292.865" y="-318.992" font-family="Arial" font-size="10.00" fill="black">0..1</text>
</g>
<!-- 8&#45;inner&#45;node -->
<!-- 5&#45;&gt;8&#45;inner&#45;node -->
<g id="edge10" class="edge"><path fill="none" stroke="black" d="M385.5,-318.649C385.5,-295.987 385.5,-267.163 385.5,-265.116L385.451,-262.951"/>
<polygon fill="none" stroke="black" points="382,-318.822 385.5,-328.822 389,-318.822 382,-318.822"/>
</g>
<!-- 11 -->
<g id="node5" class="node"><defs>
<linearGradient id="l_6" gradientUnits="userSpaceOnUse" x1="52.5" y1="-94" x2="52.5" y2="-130">
<stop offset="0" style="stop-color:#ffffbb;stop-opacity:1.;"/>
<stop offset="1" style="stop-color:#ffffee;stop-opacity:1.;"/>
</linearGradient>
</defs>
<polygon fill="url(#l_6)" stroke="black" points="105,-130 0,-130 0,-94 105,-94 105,-130"/>
<text text-anchor="start" x="10.5" y="-110.2" font-family="Arial" font-weight="bold" font-size="11.00" fill="black"><a fill="navy" href="../reference/Equipment/ProcessColumn.html" target="_parent">ProcessColumn</a></text>
</g>
<!-- 11&#45;&gt;0 -->
<g id="edge1" class="edge"><path fill="none" stroke="#000000" d="M78.7158,-85.5206C88.7924,-75.7271 100.383,-64.462 110.841,-54.2978"/>
<polygon fill="#000000" stroke="#000000" points="78.6888,-85.5468 77.1741,-92.597 70.0835,-93.9104 71.5983,-86.8602 78.6888,-85.5468"/>
<polygon fill="#000000" stroke="#000000" points="118.218,-47.128 114.183,-57.3246 114.632,-50.6128 111.047,-54.0976 111.047,-54.0976 111.047,-54.0976 114.632,-50.6128 107.911,-50.8707 118.218,-47.128 118.218,-47.128"/>
<text text-anchor="start" x="102.5" y="-67.5" font-family="Arial" font-size="10.00" fill="black"><a fill="navy" href="../reference/Equipment/ProcessColumn.html#dexpi-equipment-processcolumn-columnsections" target="_parent">ColumnSections</a></text>
<text text-anchor="start" x="110.218" y="-50.128" font-family="Arial" font-size="10.00" fill="black">*</text>
<text text-anchor="start" x="41.0835" y="-83.9104" font-family="Arial" font-size="10.00" fill="black">0..1</text>
</g>
<!-- 17 -->
<g id="node7" class="node"><defs>
<linearGradient id="l_7" gradientUnits="userSpaceOnUse" x1="137.5" y1="-412" x2="137.5" y2="-448">
<stop offset="0" style="stop-color:#ffffbb;stop-opacity:1.;"/>
<stop offset="1" style="stop-color:#ffffee;stop-opacity:1.;"/>
</linearGradient>
</defs>
<polygon fill="url(#l_7)" stroke="black" points="212,-448 63,-448 63,-412 212,-412 212,-448"/>
<text text-anchor="start" x="73.5" y="-428.2" font-family="Arial" font-weight="bold" font-size="11.00" fill="black"><a fill="navy" href="../reference/Graphics/AttributeRepresentation.html" target="_parent">AttributeRepresentation</a></text>
</g>
<!-- 17&#45;&gt;4 -->
<g id="edge3" class="edge"><path fill="none" stroke="#000000" d="M154.466,-411.822C165.815,-400.331 180.916,-385.041 193.493,-372.307"/>
<polygon fill="#000000" stroke="#000000" points="200.559,-365.153 196.733,-375.43 197.045,-368.711 193.531,-372.268 193.531,-372.268 193.531,-372.268 197.045,-368.711 190.33,-369.106 200.559,-365.153 200.559,-365.153"/>
<text text-anchor="start" x="188" y="-385.5" font-family="Arial" font-size="10.00" fill="black"><a fill="navy" href="../reference/Graphics/AttributeRepresentation.html#dexpi-graphics-attributerepresentation-object" target="_parent">Object</a></text>
<text text-anchor="start" x="192.559" y="-368.153" font-family="Arial" font-size="10.00" fill="black"></text>
<text text-anchor="start" x="138.466" y="-401.822" font-family="Arial" font-size="10.00" fill="black">*</text>
</g>
<!-- 20 -->
<g id="node8" class="node"><defs>
<linearGradient id="l_8" gradientUnits="userSpaceOnUse" x1="298.5" y1="-412" x2="298.5" y2="-448">
<stop offset="0" style="stop-color:#ffffbb;stop-opacity:1.;"/>
<stop offset="1" style="stop-color:#ffffee;stop-opacity:1.;"/>
</linearGradient>
</defs>
<polygon fill="url(#l_8)" stroke="black" points="367,-448 230,-448 230,-412 367,-412 367,-448"/>
<text text-anchor="start" x="240.5" y="-428.2" font-family="Arial" font-weight="bold" font-size="11.00" fill="black"><a fill="navy" href="../reference/Graphics/RepresentationGroup.html" target="_parent">RepresentationGroup</a></text>
</g>
<!-- 20&#45;&gt;4 -->
<g id="edge4" class="edge"><path fill="none" stroke="#000000" d="M281.322,-411.822C269.831,-400.331 254.541,-385.041 241.807,-372.307"/>
<polygon fill="#000000" stroke="#000000" points="234.653,-365.153 244.906,-369.042 238.189,-368.689 241.724,-372.224 241.724,-372.224 241.724,-372.224 238.189,-368.689 238.542,-375.406 234.653,-365.153 234.653,-365.153"/>
<text text-anchor="start" x="266.5" y="-385.5" font-family="Arial" font-size="10.00" fill="black"><a fill="navy" href="../reference/Graphics/RepresentationGroup.html#dexpi-graphics-representationgroup-represents" target="_parent">Represents</a></text>
<text text-anchor="start" x="226.653" y="-368.153" font-family="Arial" font-size="10.00" fill="black"></text>
<text text-anchor="start" x="265.322" y="-401.822" font-family="Arial" font-size="10.00" fill="black">*</text>
</g>
<!-- 6&#45;inner&#45;node&#45;&gt;0 -->
<g id="edge7" class="edge"><path fill="none" stroke="black" d="M318.468,-110.872C318.151,-109.616 315.429,-99.3928 309.5,-94 286.384,-72.9741 256.022,-57.8166 227.475,-47.1331"/>
</g>
<!-- 7&#45;inner&#45;node&#45;&gt;3 -->
<g id="edge9" class="edge"><path fill="none" stroke="black" d="M217.543,-262.876C217.974,-261.657 221.605,-251.725 227.5,-246 241.466,-232.437 259.845,-221.419 276.427,-213.212"/>
</g>
<!-- 8&#45;inner&#45;node&#45;&gt;3 -->
<g id="edge11" class="edge"><path fill="none" stroke="black" d="M385.451,-262.951C384.104,-261.604 355.022,-232.522 335.635,-213.135"/>
</g>
</g>
</svg>