<!DOCTYPE svg PUBLIC "-//W3C//DTD SVG 1.1//EN" "http://www.w3.org/Graphics/SVG/1.1/DTD/svg11.dtd">
<!-- Generated by graphviz version 2.38.0 (20140413.2041)
 --><!-- Title: G Pages: 1 --><svg xmlns="http://www.w3.org/2000/svg" xmlns:xlink="http://www.w3.org/1999/xlink" width="222pt" height="382pt" viewBox="0.00 0.00 221.50 382.00">
<g id="graph0" class="graph" transform="scale(1 1) rotate(0) translate(4 378)">
<!-- 0 -->
<g id="node1" class="node"><defs>
<linearGradient id="l_0" gradientUnits="userSpaceOnUse" x1="133.5" y1="-1.77636e-014" x2="133.5" y2="-36">
<stop offset="0" style="stop-color:#ffffbb;stop-opacity:1.;"/>
<stop offset="1" style="stop-color:#ffffee;stop-opacity:1.;"/>
</linearGradient>
</defs>
<polygon fill="url(#l_0)" stroke="black" points="163,-36 104,-36 104,-0 163,-0 163,-36"/>
<text text-anchor="start" x="114.5" y="-16.2" font-family="Arial" font-weight="bold" font-size="11.00" fill="black">Symbol</text>
</g>
<!-- 1 -->
<g id="node2" class="node"><defs>
<linearGradient id="l_1" gradientUnits="userSpaceOnUse" x1="133.5" y1="-152" x2="133.5" y2="-188">
<stop offset="0" style="stop-color:#ffffbb;stop-opacity:1.;"/>
<stop offset="1" style="stop-color:#ffffee;stop-opacity:1.;"/>
</linearGradient>
</defs>
<polygon fill="url(#l_1)" stroke="black" points="213.5,-188 53.5,-188 53.5,-152 213.5,-152 213.5,-188"/>
<text text-anchor="start" x="63.5" y="-168.2" font-family="Arial" font-weight="bold" font-style="italic" font-size="11.00" fill="black"><a fill="navy" href="../reference/Graphics/RepresentationTypeGroup.html" target="_parent">RepresentationTypeGroup</a></text>
</g>
<!-- 7 -->
<g id="node4" class="node"><defs>
<linearGradient id="l_2" gradientUnits="userSpaceOnUse" x1="57.5" y1="-69" x2="57.5" y2="-105">
<stop offset="0" style="stop-color:#ffffbb;stop-opacity:1.;"/>
<stop offset="1" style="stop-color:#ffffee;stop-opacity:1.;"/>
</linearGradient>
</defs>
<polygon fill="url(#l_2)" stroke="black" points="115,-105 0,-105 0,-69 115,-69 115,-105"/>
<text text-anchor="start" x="10.5" y="-85.2" font-family="Arial" font-weight="bold" font-style="italic" font-size="11.00" fill="black"><a fill="navy" href="../reference/Graphics/GraphicalElement.html" target="_parent">GraphicalElement</a></text>
</g>
<!-- 1&#45;&gt;7 -->
<g id="edge1" class="edge"><path fill="none" stroke="#000000" d="M92.839,-144.76C89.499,-142.013 86.3265,-139.084 83.5,-136 77.7365,-129.712 72.812,-121.913 68.8488,-114.442"/>
<polygon fill="#000000" stroke="#000000" points="92.9264,-144.825 100.128,-145.204 102.547,-151.998 95.346,-151.618 92.9264,-144.825"/>
<polygon fill="#000000" stroke="#000000" points="64.3523,-105.293 72.8018,-112.283 66.5577,-109.78 68.7632,-114.268 68.7632,-114.268 68.7632,-114.268 66.5577,-109.78 64.7246,-116.253 64.3523,-105.293 64.3523,-105.293"/>
<text text-anchor="start" x="85.5" y="-125.5" font-family="Arial" font-size="10.00" fill="black"><a fill="navy" href="../reference/Graphics/RepresentationTypeGroup.html#dexpi-graphics-representationtypegroup-elements" target="_parent">Elements</a></text>
<text text-anchor="start" x="56.3523" y="-108.293" font-family="Arial" font-size="10.00" fill="black">*</text>
<text text-anchor="start" x="73.5472" y="-141.998" font-family="Arial" font-size="10.00" fill="black">0..1</text>
</g>
<!-- 3&#45;inner&#45;node -->
<!-- 1&#45;&gt;3&#45;inner&#45;node -->
<g id="edge3" class="edge"><path fill="none" stroke="black" d="M133.5,-141.649C133.5,-118.987 133.5,-90.1627 133.5,-88.1156L133.5,-85.9514"/>
<polygon fill="none" stroke="black" points="130,-141.822 133.5,-151.822 137,-141.822 130,-141.822"/>
</g>
<!-- 2 -->
<g id="node3" class="node"><defs>
<linearGradient id="l_3" gradientUnits="userSpaceOnUse" x1="133.5" y1="-255" x2="133.5" y2="-291">
<stop offset="0" style="stop-color:#ffffbb;stop-opacity:1.;"/>
<stop offset="1" style="stop-color:#ffffee;stop-opacity:1.;"/>
</linearGradient>
</defs>
<polygon fill="url(#l_3)" stroke="black" points="184.5,-291 82.5,-291 82.5,-255 184.5,-255 184.5,-291"/>
<text text-anchor="start" x="92.5" y="-271.2" font-family="Arial" font-weight="bold" font-style="italic" font-size="11.00" fill="black"><a fill="navy" href="../reference/Graphics/GraphicsGroup.html" target="_parent">GraphicsGroup</a></text>
</g>
<!-- 4&#45;inner&#45;node -->
<!-- 2&#45;&gt;4&#45;inner&#45;node -->
<g id="edge5" class="edge"><path fill="none" stroke="black" d="M133.5,-244.603C133.5,-233.422 133.5,-222.887 133.5,-222.053L133.5,-220.857"/>
<polygon fill="none" stroke="black" points="130,-244.793 133.5,-254.793 137,-244.793 130,-244.793"/>
</g>
<!-- 10 -->
<g id="node5" class="node"><defs>
<linearGradient id="l_4" gradientUnits="userSpaceOnUse" x1="133.5" y1="-338" x2="133.5" y2="-374">
<stop offset="0" style="stop-color:#ffffbb;stop-opacity:1.;"/>
<stop offset="1" style="stop-color:#ffffee;stop-opacity:1.;"/>
</linearGradient>
</defs>
<polygon fill="url(#l_4)" stroke="black" points="202,-374 65,-374 65,-338 202,-338 202,-374"/>
<text text-anchor="start" x="75.5" y="-354.2" font-family="Arial" font-weight="bold" font-size="11.00" fill="black"><a fill="navy" href="../reference/Graphics/RepresentationGroup.html" target="_parent">RepresentationGroup</a></text>
</g>
<!-- 10&#45;&gt;2 -->
<g id="edge2" class="edge"><path fill="none" stroke="#000000" d="M133.5,-325.549C133.5,-317.604 133.5,-309.044 133.5,-301.226"/>
<polygon fill="#000000" stroke="#000000" points="133.5,-325.822 137.5,-331.822 133.5,-337.822 129.5,-331.822 133.5,-325.822"/>
<polygon fill="#000000" stroke="#000000" points="133.5,-291.153 138,-301.153 133.5,-296.153 133.5,-301.153 133.5,-301.153 133.5,-301.153 133.5,-296.153 129,-301.153 133.5,-291.153 133.5,-291.153"/>
<text text-anchor="start" x="135.5" y="-311.5" font-family="Arial" font-size="10.00" fill="black"><a fill="navy" href="../reference/Graphics/RepresentationGroup.html#dexpi-graphics-representationgroup-groups" target="_parent">Groups</a></text>
<text text-anchor="start" x="125.5" y="-294.153" font-family="Arial" font-size="10.00" fill="black">*</text>
<text text-anchor="start" x="104.5" y="-327.822" font-family="Arial" font-size="10.00" fill="black">0..1</text>
</g>
<!-- 3&#45;inner&#45;node&#45;&gt;0 -->
<g id="edge4" class="edge"><path fill="none" stroke="black" d="M133.5,-85.9514C133.5,-84.6042 133.5,-55.5221 133.5,-36.1346"/>
</g>
<!-- 4&#45;inner&#45;node&#45;&gt;1 -->
<g id="edge6" class="edge"><path fill="none" stroke="black" d="M133.5,-220.857C133.5,-219.115 133.5,-201.865 133.5,-188.137"/>
</g>
</g>
</svg>