<!DOCTYPE svg PUBLIC "-//W3C//DTD SVG 1.1//EN" "http://www.w3.org/Graphics/SVG/1.1/DTD/svg11.dtd">
<!-- Generated by graphviz version 2.38.0 (20140413.2041)
 --><!-- Title: G Pages: 1 --><svg xmlns="http://www.w3.org/2000/svg" xmlns:xlink="http://www.w3.org/1999/xlink" width="573pt" height="366pt" viewBox="0.00 0.00 572.50 366.00">
<g id="graph0" class="graph" transform="scale(1 1) rotate(0) translate(4 362)">
<!-- 0 -->
<g id="node1" class="node"><defs>
<linearGradient id="l_0" gradientUnits="userSpaceOnUse" x1="280.5" y1="-4.26326e-014" x2="280.5" y2="-92">
<stop offset="0" style="stop-color:#ffffbb;stop-opacity:1.;"/>
<stop offset="1" style="stop-color:#ffffee;stop-opacity:1.;"/>
</linearGradient>
</defs>
<polygon fill="url(#l_0)" stroke="black" points="398,-92 163,-92 163,-0 398,-0 398,-92"/>
<text text-anchor="start" x="236.5" y="-78.2" font-family="Arial" font-weight="bold" font-style="italic" font-size="11.00" fill="black">TaggedPlantItem</text>
<text text-anchor="start" x="173.5" y="-54" font-family="Arial" font-size="10.00" fill="black"><a fill="navy" href="../reference/Equipment/TaggedPlantItem.html#dexpi-equipment-taggedplantitem-tagname" target="_parent">TagName</a>&#160;:</text>
<text text-anchor="start" x="302.5" y="-54" font-family="Arial" font-size="10.00" fill="black"><a fill="navy" href="../reference/DataTypes/NullableString.html" target="_parent">NullableString</a>&#160;[0..1]</text>
<text text-anchor="start" x="173.5" y="-39" font-family="Arial" font-size="10.00" fill="black"><a fill="navy" href="../reference/Equipment/TaggedPlantItem.html#dexpi-equipment-taggedplantitem-tagnameprefix" target="_parent">TagNamePrefix</a>&#160;:</text>
<text text-anchor="start" x="302.5" y="-39" font-family="Arial" font-size="10.00" fill="black"><a fill="navy" href="../reference/DataTypes/NullableString.html" target="_parent">NullableString</a>&#160;[0..1]</text>
<text text-anchor="start" x="173.5" y="-24" font-family="Arial" font-size="10.00" fill="black"><a fill="navy" href="../reference/Equipment/TaggedPlantItem.html#dexpi-equipment-taggedplantitem-tagnamesequencenumber" target="_parent">TagNameSequenceNumber</a>&#160;:</text>
<text text-anchor="start" x="302.5" y="-24" font-family="Arial" font-size="10.00" fill="black"><a fill="navy" href="../reference/DataTypes/NullableString.html" target="_parent">NullableString</a>&#160;[0..1]</text>
<text text-anchor="start" x="173.5" y="-9" font-family="Arial" font-size="10.00" fill="black"><a fill="navy" href="../reference/Equipment/TaggedPlantItem.html#dexpi-equipment-taggedplantitem-tagnamesuffix" target="_parent">TagNameSuffix</a>&#160;:</text>
<text text-anchor="start" x="302.5" y="-9" font-family="Arial" font-size="10.00" fill="black"><a fill="navy" href="../reference/DataTypes/NullableString.html" target="_parent">NullableString</a>&#160;[0..1]</text>
<polygon fill="black" stroke="black" points="398.0,-72.0 163.0,-72.0 163.0,-72.0 398.0,-72.0 398.0,-72.0"/>
</g>
<!-- 7 -->
<g id="node2" class="node"><defs>
<linearGradient id="l_1" gradientUnits="userSpaceOnUse" x1="472.5" y1="-305" x2="472.5" y2="-358">
<stop offset="0" style="stop-color:#fbfbfb;stop-opacity:1.;"/>
<stop offset="1" style="stop-color:#fefefe;stop-opacity:1.;"/>
</linearGradient>
</defs>
<polygon fill="url(#l_1)" stroke="black" points="564.5,-347.0 553.5,-358.0 380.5,-358.0 380.5,-305.0 564.5,-305.0"/><path d="M564.5,-347.0L553.5,-347.0 553.5,-358.0" fill="none" stroke="black"/>
<text text-anchor="start" x="390.5" y="-343.5" font-family="Arial" font-size="10.00" fill="black">For&#160;the&#160;sake&#160;of&#160;clarity,&#160;superclasses&#160;</text>
<text text-anchor="start" x="390.5" y="-328.5" font-family="Arial" font-size="10.00" fill="black">and&#160;associations&#160;of&#160;<a fill="navy" href="../reference/PlantStructure/TechnicalItem.html" target="_parent">TechnicalItem</a>&#160;are</text>
<text text-anchor="start" x="390.5" y="-313.5" font-family="Arial" font-size="10.00" fill="black">not&#160;shown&#160;in&#160;this&#160;diagram.</text>
</g>
<!-- 6 -->
<g id="node3" class="node"><defs>
<linearGradient id="l_2" gradientUnits="userSpaceOnUse" x1="472.5" y1="-222" x2="472.5" y2="-258">
<stop offset="0" style="stop-color:#ffffbb;stop-opacity:1.;"/>
<stop offset="1" style="stop-color:#ffffee;stop-opacity:1.;"/>
</linearGradient>
</defs>
<polygon fill="url(#l_2)" stroke="black" points="519,-258 426,-258 426,-222 519,-222 519,-258"/>
<text text-anchor="start" x="436.5" y="-238.2" font-family="Arial" font-weight="bold" font-style="italic" font-size="11.00" fill="black"><a fill="navy" href="../reference/PlantStructure/TechnicalItem.html" target="_parent">TechnicalItem</a></text>
</g>
<!-- 7&#45;&gt;6 -->
<g id="edge1" class="edge"><path fill="none" stroke="#000000" stroke-dasharray="5,2" d="M472.5,-304.613C472.5,-289.641 472.5,-271.222 472.5,-258.063"/>
</g>
<!-- 13&#45;inner&#45;node -->
<!-- 6&#45;&gt;13&#45;inner&#45;node -->
<g id="edge10" class="edge"><path fill="none" stroke="black" d="M472.5,-211.649C472.5,-188.987 472.5,-160.163 472.5,-158.116L472.361,-155.921"/>
<polygon fill="none" stroke="black" points="469,-211.822 472.5,-221.822 476,-211.822 469,-211.822"/>
</g>
<!-- 9 -->
<g id="node4" class="node"><defs>
<linearGradient id="l_3" gradientUnits="userSpaceOnUse" x1="177.5" y1="-222" x2="177.5" y2="-258">
<stop offset="0" style="stop-color:#ffffbb;stop-opacity:1.;"/>
<stop offset="1" style="stop-color:#ffffee;stop-opacity:1.;"/>
</linearGradient>
</defs>
<polygon fill="url(#l_3)" stroke="black" points="235,-258 120,-258 120,-222 235,-222 235,-258"/>
<text text-anchor="start" x="130.5" y="-238.2" font-family="Arial" font-weight="bold" font-style="italic" font-size="11.00" fill="black"><a fill="navy" href="../reference/DexpiModel/ConceptualObject.html" target="_parent">ConceptualObject</a></text>
</g>
<!-- 11&#45;inner&#45;node -->
<!-- 9&#45;&gt;11&#45;inner&#45;node -->
<g id="edge6" class="edge"><path fill="none" stroke="black" d="M177.5,-211.649C177.5,-188.987 177.5,-160.163 177.5,-158.116L177.545,-155.884"/>
<polygon fill="none" stroke="black" points="174,-211.822 177.5,-221.822 181,-211.822 174,-211.822"/>
</g>
<!-- 10 -->
<g id="node5" class="node"><defs>
<linearGradient id="l_4" gradientUnits="userSpaceOnUse" x1="335.5" y1="-222" x2="335.5" y2="-258">
<stop offset="0" style="stop-color:#ffffbb;stop-opacity:1.;"/>
<stop offset="1" style="stop-color:#ffffee;stop-opacity:1.;"/>
</linearGradient>
</defs>
<polygon fill="url(#l_4)" stroke="black" points="407.5,-258 263.5,-258 263.5,-222 407.5,-222 407.5,-258"/>
<text text-anchor="start" x="273.5" y="-238.2" font-family="Arial" font-weight="bold" font-style="italic" font-size="11.00" fill="black"><a fill="navy" href="../reference/Customization/CustomAttributeOwner.html" target="_parent">CustomAttributeOwner</a></text>
</g>
<!-- 25 -->
<g id="node9" class="node"><defs>
<linearGradient id="l_5" gradientUnits="userSpaceOnUse" x1="250.5" y1="-139" x2="250.5" y2="-175">
<stop offset="0" style="stop-color:#ffffbb;stop-opacity:1.;"/>
<stop offset="1" style="stop-color:#ffffee;stop-opacity:1.;"/>
</linearGradient>
</defs>
<polygon fill="url(#l_5)" stroke="black" points="305,-175 196,-175 196,-139 305,-139 305,-175"/>
<text text-anchor="start" x="206.5" y="-155.2" font-family="Arial" font-weight="bold" font-style="italic" font-size="11.00" fill="black"><a fill="navy" href="../reference/Customization/CustomAttribute.html" target="_parent">CustomAttribute</a></text>
</g>
<!-- 10&#45;&gt;25 -->
<g id="edge5" class="edge"><path fill="none" stroke="#000000" d="M258.949,-214.486C256.181,-211.933 253.67,-209.113 251.5,-206 247.402,-200.119 245.944,-192.772 245.815,-185.608"/>
<polygon fill="#000000" stroke="#000000" points="258.998,-214.523 266.196,-214.959 268.563,-221.77 261.365,-221.335 258.998,-214.523"/>
<polygon fill="#000000" stroke="#000000" points="246.425,-175.435 250.319,-185.687 246.126,-180.426 245.827,-185.417 245.827,-185.417 245.827,-185.417 246.126,-180.426 241.335,-185.148 246.425,-175.435 246.425,-175.435"/>
<text text-anchor="start" x="253.5" y="-195.5" font-family="Arial" font-size="10.00" fill="black"><a fill="navy" href="../reference/Customization/CustomAttributeOwner.html#dexpi-customization-customattributeowner-customattributes" target="_parent">CustomAttributes</a></text>
<text text-anchor="start" x="238.425" y="-178.435" font-family="Arial" font-size="10.00" fill="black">*</text>
<text text-anchor="start" x="239.563" y="-211.77" font-family="Arial" font-size="10.00" fill="black">0..1</text>
</g>
<!-- 12&#45;inner&#45;node -->
<!-- 10&#45;&gt;12&#45;inner&#45;node -->
<g id="edge8" class="edge"><path fill="none" stroke="black" d="M335.5,-211.649C335.5,-188.987 335.5,-160.163 335.5,-158.116L335.46,-155.921"/>
<polygon fill="none" stroke="black" points="332,-211.822 335.5,-221.822 339,-211.822 332,-211.822"/>
</g>
<!-- 16 -->
<g id="node6" class="node"><defs>
<linearGradient id="l_6" gradientUnits="userSpaceOnUse" x1="101.5" y1="-139" x2="101.5" y2="-175">
<stop offset="0" style="stop-color:#ffffbb;stop-opacity:1.;"/>
<stop offset="1" style="stop-color:#ffffee;stop-opacity:1.;"/>
</linearGradient>
</defs>
<polygon fill="url(#l_6)" stroke="black" points="158.5,-175 44.5,-175 44.5,-139 158.5,-139 158.5,-175"/>
<text text-anchor="start" x="54.5" y="-155.2" font-family="Arial" font-weight="bold" font-size="11.00" fill="black"><a fill="navy" href="../reference/DexpiModel/ConceptualModel.html" target="_parent">ConceptualModel</a></text>
</g>
<!-- 16&#45;&gt;0 -->
<g id="edge2" class="edge"><path fill="none" stroke="#000000" d="M104.115,-126.688C105.917,-119.918 108.831,-113.188 113.5,-108 124.719,-95.5333 138.699,-85.6107 153.763,-77.7138"/>
<polygon fill="#000000" stroke="#000000" points="104.096,-126.792 106.948,-133.415 101.931,-138.595 99.0788,-131.972 104.096,-126.792"/>
<polygon fill="#000000" stroke="#000000" points="162.744,-73.2944 155.758,-81.7471 158.258,-75.5019 153.772,-77.7094 153.772,-77.7094 153.772,-77.7094 158.258,-75.5019 151.785,-73.6717 162.744,-73.2944 162.744,-73.2944"/>
<text text-anchor="start" x="116" y="-112.5" font-family="Arial" font-size="10.00" fill="black"><a fill="navy" href="../reference/DexpiModel/ConceptualModel.html#dexpi-dexpimodel-conceptualmodel-taggedplantitems" target="_parent">TaggedPlantItems</a></text>
<text text-anchor="start" x="154.744" y="-76.2944" font-family="Arial" font-size="10.00" fill="black">*</text>
<text text-anchor="start" x="72.9307" y="-128.595" font-family="Arial" font-size="10.00" fill="black">0..1</text>
</g>
<!-- 19 -->
<g id="node7" class="node"><defs>
<linearGradient id="l_7" gradientUnits="userSpaceOnUse" x1="74.5" y1="-313.5" x2="74.5" y2="-349.5">
<stop offset="0" style="stop-color:#ffffbb;stop-opacity:1.;"/>
<stop offset="1" style="stop-color:#ffffee;stop-opacity:1.;"/>
</linearGradient>
</defs>
<polygon fill="url(#l_7)" stroke="black" points="149,-349.5 0,-349.5 0,-313.5 149,-313.5 149,-349.5"/>
<text text-anchor="start" x="10.5" y="-329.7" font-family="Arial" font-weight="bold" font-size="11.00" fill="black"><a fill="navy" href="../reference/Graphics/AttributeRepresentation.html" target="_parent">AttributeRepresentation</a></text>
</g>
<!-- 19&#45;&gt;9 -->
<g id="edge3" class="edge"><path fill="none" stroke="#000000" d="M94.3594,-313.243C110.176,-299.5 132.493,-280.108 150.024,-264.875"/>
<polygon fill="#000000" stroke="#000000" points="157.702,-258.204 153.105,-268.159 153.927,-261.483 150.153,-264.763 150.153,-264.763 150.153,-264.763 153.927,-261.483 147.201,-261.366 157.702,-258.204 157.702,-258.204"/>
<text text-anchor="start" x="141" y="-278.5" font-family="Arial" font-size="10.00" fill="black"><a fill="navy" href="../reference/Graphics/AttributeRepresentation.html#dexpi-graphics-attributerepresentation-object" target="_parent">Object</a></text>
<text text-anchor="start" x="149.702" y="-261.204" font-family="Arial" font-size="10.00" fill="black"></text>
<text text-anchor="start" x="78.3594" y="-303.243" font-family="Arial" font-size="10.00" fill="black">*</text>
</g>
<!-- 22 -->
<g id="node8" class="node"><defs>
<linearGradient id="l_8" gradientUnits="userSpaceOnUse" x1="235.5" y1="-313.5" x2="235.5" y2="-349.5">
<stop offset="0" style="stop-color:#ffffbb;stop-opacity:1.;"/>
<stop offset="1" style="stop-color:#ffffee;stop-opacity:1.;"/>
</linearGradient>
</defs>
<polygon fill="url(#l_8)" stroke="black" points="304,-349.5 167,-349.5 167,-313.5 304,-313.5 304,-349.5"/>
<text text-anchor="start" x="177.5" y="-329.7" font-family="Arial" font-weight="bold" font-size="11.00" fill="black"><a fill="navy" href="../reference/Graphics/RepresentationGroup.html" target="_parent">RepresentationGroup</a></text>
</g>
<!-- 22&#45;&gt;9 -->
<g id="edge4" class="edge"><path fill="none" stroke="#000000" d="M224.317,-313.243C215.812,-300.119 203.968,-281.843 194.322,-266.958"/>
<polygon fill="#000000" stroke="#000000" points="188.649,-258.204 197.863,-264.148 191.368,-262.399 194.087,-266.595 194.087,-266.595 194.087,-266.595 191.368,-262.399 190.311,-269.043 188.649,-258.204 188.649,-258.204"/>
<text text-anchor="start" x="210.5" y="-278.5" font-family="Arial" font-size="10.00" fill="black"><a fill="navy" href="../reference/Graphics/RepresentationGroup.html#dexpi-graphics-representationgroup-represents" target="_parent">Represents</a></text>
<text text-anchor="start" x="180.649" y="-261.204" font-family="Arial" font-size="10.00" fill="black"></text>
<text text-anchor="start" x="208.317" y="-303.243" font-family="Arial" font-size="10.00" fill="black">*</text>
</g>
<!-- 11&#45;inner&#45;node&#45;&gt;0 -->
<g id="edge7" class="edge"><path fill="none" stroke="black" d="M177.545,-155.884C177.99,-154.744 181.704,-145.421 186.5,-139 198.798,-122.534 214.067,-106.275 228.699,-92.1127"/>
</g>
<!-- 12&#45;inner&#45;node&#45;&gt;0 -->
<g id="edge9" class="edge"><path fill="none" stroke="black" d="M335.46,-155.921C334.543,-154.103 317.963,-121.245 303.253,-92.0917"/>
</g>
<!-- 13&#45;inner&#45;node&#45;&gt;0 -->
<g id="edge11" class="edge"><path fill="none" stroke="black" d="M472.361,-155.921C469.159,-154.103 411.281,-121.245 359.928,-92.0917"/>
</g>
</g>
</svg>