<!DOCTYPE svg PUBLIC "-//W3C//DTD SVG 1.1//EN" "http://www.w3.org/Graphics/SVG/1.1/DTD/svg11.dtd">
<!-- Generated by graphviz version 2.38.0 (20140413.2041)
 --><!-- Title: G Pages: 1 --><svg xmlns="http://www.w3.org/2000/svg" xmlns:xlink="http://www.w3.org/1999/xlink" width="151pt" height="210pt" viewBox="0.00 0.00 151.00 210.00">
<g id="graph0" class="graph" transform="scale(1 1) rotate(0) translate(4 206)">
<!-- 0 -->
<g id="node1" class="node"><defs>
<linearGradient id="l_0" gradientUnits="userSpaceOnUse" x1="71.5" y1="-83" x2="71.5" y2="-119">
<stop offset="0" style="stop-color:#ffffbb;stop-opacity:1.;"/>
<stop offset="1" style="stop-color:#ffffee;stop-opacity:1.;"/>
</linearGradient>
</defs>
<polygon fill="url(#l_0)" stroke="black" points="118.5,-119 24.5,-119 24.5,-83 118.5,-83 118.5,-119"/>
<text text-anchor="start" x="34.5" y="-99.2" font-family="Arial" font-weight="bold" font-size="11.00" fill="black">TextTemplate</text>
</g>
<!-- 3 -->
<g id="node2" class="node"><defs>
<linearGradient id="l_1" gradientUnits="userSpaceOnUse" x1="71.5" y1="-1.77636e-014" x2="71.5" y2="-36">
<stop offset="0" style="stop-color:#ffffbb;stop-opacity:1.;"/>
<stop offset="1" style="stop-color:#ffffee;stop-opacity:1.;"/>
</linearGradient>
</defs>
<polygon fill="url(#l_1)" stroke="black" points="143,-36 0,-36 0,-0 143,-0 143,-36"/>
<text text-anchor="start" x="10.5" y="-16.2" font-family="Arial" font-weight="bold" font-style="italic" font-size="11.00" fill="black"><a fill="navy" href="../reference/Graphics/TextTemplateFragment.html" target="_parent">TextTemplateFragment</a></text>
</g>
<!-- 0&#45;&gt;3 -->
<g id="edge1" class="edge"><path fill="none" stroke="#000000" d="M71.5,-70.5488C71.5,-62.6036 71.5,-54.0441 71.5,-46.2265"/>
<polygon fill="#000000" stroke="#000000" points="71.5001,-70.822 75.5,-76.822 71.5,-82.822 67.5,-76.822 71.5001,-70.822"/>
<polygon fill="#000000" stroke="#000000" points="71.5,-36.1533 76.0001,-46.1532 71.5,-41.1533 71.5001,-46.1533 71.5001,-46.1533 71.5001,-46.1533 71.5,-41.1533 67.0001,-46.1533 71.5,-36.1533 71.5,-36.1533"/>
<text text-anchor="start" x="74" y="-56.5" font-family="Arial" font-size="10.00" fill="black"><a fill="navy" href="../reference/Graphics/TextTemplate.html#dexpi-graphics-texttemplate-fragments" target="_parent">Fragments</a></text>
<text text-anchor="start" x="63.5" y="-39.1533" font-family="Arial" font-size="10.00" fill="black">*</text>
<text text-anchor="start" x="42.5" y="-72.822" font-family="Arial" font-size="10.00" fill="black">0..1</text>
</g>
<!-- 6 -->
<g id="node3" class="node"><defs>
<linearGradient id="l_2" gradientUnits="userSpaceOnUse" x1="71.5" y1="-166" x2="71.5" y2="-202">
<stop offset="0" style="stop-color:#ffffbb;stop-opacity:1.;"/>
<stop offset="1" style="stop-color:#ffffee;stop-opacity:1.;"/>
</linearGradient>
</defs>
<polygon fill="url(#l_2)" stroke="black" points="98.5,-202 44.5,-202 44.5,-166 98.5,-166 98.5,-202"/>
<text text-anchor="start" x="59.5" y="-182.2" font-family="Arial" font-weight="bold" font-size="11.00" fill="black"><a fill="navy" href="../reference/Graphics/Text.html" target="_parent">Text</a></text>
</g>
<!-- 6&#45;&gt;0 -->
<g id="edge2" class="edge"><path fill="none" stroke="#000000" d="M71.5,-153.549C71.5,-145.604 71.5,-137.044 71.5,-129.226"/>
<polygon fill="#000000" stroke="#000000" points="71.5001,-153.822 75.5,-159.822 71.5,-165.822 67.5,-159.822 71.5001,-153.822"/>
<polygon fill="#000000" stroke="#000000" points="71.5,-119.153 76.0001,-129.153 71.5,-124.153 71.5001,-129.153 71.5001,-129.153 71.5001,-129.153 71.5,-124.153 67.0001,-129.153 71.5,-119.153 71.5,-119.153"/>
<text text-anchor="start" x="73.5" y="-139.5" font-family="Arial" font-size="10.00" fill="black"><a fill="navy" href="../reference/Graphics/Text.html#dexpi-graphics-text-template" target="_parent">Template</a></text>
<text text-anchor="start" x="50.5" y="-122.153" font-family="Arial" font-size="10.00" fill="black">0..1</text>
<text text-anchor="start" x="42.5" y="-155.822" font-family="Arial" font-size="10.00" fill="black">0..1</text>
</g>
</g>
</svg>