<!DOCTYPE svg PUBLIC "-//W3C//DTD SVG 1.1//EN" "http://www.w3.org/Graphics/SVG/1.1/DTD/svg11.dtd">
<!-- Generated by graphviz version 2.38.0 (20140413.2041)
 --><!-- Title: G Pages: 1 --><svg xmlns="http://www.w3.org/2000/svg" xmlns:xlink="http://www.w3.org/1999/xlink" width="867pt" height="890pt" viewBox="0.00 0.00 866.50 890.00">
<g id="graph0" class="graph" transform="scale(1 1) rotate(0) translate(4 886)">
<!-- 0 -->
<g id="node1" class="node"><defs>
<linearGradient id="l_0" gradientUnits="userSpaceOnUse" x1="457.5" y1="-83" x2="457.5" y2="-160">
<stop offset="0" style="stop-color:#ffffbb;stop-opacity:1.;"/>
<stop offset="1" style="stop-color:#ffffee;stop-opacity:1.;"/>
</linearGradient>
</defs>
<polygon fill="url(#l_0)" stroke="black" points="598.5,-160 316.5,-160 316.5,-83 598.5,-83 598.5,-160"/>
<text text-anchor="start" x="404.5" y="-145.7" font-family="Arial" font-weight="bold" font-size="11.00" fill="black">ThinFilmEvaporator</text>
<text text-anchor="start" x="326.5" y="-121.5" font-family="Arial" font-size="10.00" fill="black"><a fill="navy" href="../reference/Equipment/ThinFilmEvaporator.html#dexpi-equipment-thinfilmevaporator-designpower" target="_parent">DesignPower</a>&#160;:</text>
<text text-anchor="start" x="438.5" y="-121.5" font-family="Arial" font-size="10.00" fill="black"><a fill="navy" href="../reference/PhysicalQuantities/NullablePower.html" target="_parent">NullablePower</a>&#160;[0..1]</text>
<text text-anchor="start" x="326.5" y="-106.5" font-family="Arial" font-size="10.00" fill="black"><a fill="navy" href="../reference/Equipment/ThinFilmEvaporator.html#dexpi-equipment-thinfilmevaporator-designrotationalspeed" target="_parent">DesignRotationalSpeed</a>&#160;:</text>
<text text-anchor="start" x="438.5" y="-106.5" font-family="Arial" font-size="10.00" fill="black"><a fill="navy" href="../reference/PhysicalQuantities/NullableRotationalFrequency.html" target="_parent">NullableRotationalFrequency</a>&#160;[0..1]</text>
<text text-anchor="start" x="326.5" y="-91.5" font-family="Arial" font-size="10.00" fill="black"><a fill="navy" href="../reference/Equipment/ThinFilmEvaporator.html#dexpi-equipment-thinfilmevaporator-designshaftpower" target="_parent">DesignShaftPower</a>&#160;:</text>
<text text-anchor="start" x="438.5" y="-91.5" font-family="Arial" font-size="10.00" fill="black"><a fill="navy" href="../reference/PhysicalQuantities/NullablePower.html" target="_parent">NullablePower</a>&#160;[0..1]</text>
<polygon fill="black" stroke="black" points="598.5,-139.5 316.5,-139.5 316.5,-139.5 598.5,-139.5 598.5,-139.5"/>
</g>
<!-- 26 -->
<g id="node11" class="node"><defs>
<linearGradient id="l_1" gradientUnits="userSpaceOnUse" x1="457.5" y1="-1.77636e-014" x2="457.5" y2="-36">
<stop offset="0" style="stop-color:#ffffbb;stop-opacity:1.;"/>
<stop offset="1" style="stop-color:#ffffee;stop-opacity:1.;"/>
</linearGradient>
</defs>
<polygon fill="url(#l_1)" stroke="black" points="523.5,-36 391.5,-36 391.5,-0 523.5,-0 523.5,-36"/>
<text text-anchor="start" x="401.5" y="-16.2" font-family="Arial" font-weight="bold" font-size="11.00" fill="black"><a fill="navy" href="../reference/Equipment/HeatExchangerRotor.html" target="_parent">HeatExchangerRotor</a></text>
</g>
<!-- 0&#45;&gt;26 -->
<g id="edge2" class="edge"><path fill="none" stroke="#000000" d="M457.5,-70.7193C457.5,-62.2844 457.5,-53.8137 457.5,-46.2399"/>
<polygon fill="#000000" stroke="#000000" points="457.5,-70.9935 461.5,-76.9936 457.5,-82.9935 453.5,-76.9935 457.5,-70.9935"/>
<polygon fill="#000000" stroke="#000000" points="457.5,-36.2271 462,-46.227 457.5,-41.2271 457.5,-46.2271 457.5,-46.2271 457.5,-46.2271 457.5,-41.2271 453,-46.2271 457.5,-36.2271 457.5,-36.2271"/>
<text text-anchor="start" x="459.5" y="-56.5" font-family="Arial" font-size="10.00" fill="black"><a fill="navy" href="../reference/Equipment/ThinFilmEvaporator.html#dexpi-equipment-thinfilmevaporator-rotor" target="_parent">Rotor</a></text>
<text text-anchor="start" x="436.5" y="-39.2271" font-family="Arial" font-size="10.00" fill="black">0..1</text>
<text text-anchor="start" x="428.5" y="-72.9935" font-family="Arial" font-size="10.00" fill="black">0..1</text>
</g>
<!-- 7 -->
<g id="node2" class="node"><defs>
<linearGradient id="l_2" gradientUnits="userSpaceOnUse" x1="766.5" y1="-829" x2="766.5" y2="-882">
<stop offset="0" style="stop-color:#fbfbfb;stop-opacity:1.;"/>
<stop offset="1" style="stop-color:#fefefe;stop-opacity:1.;"/>
</linearGradient>
</defs>
<polygon fill="url(#l_2)" stroke="black" points="858.5,-871.0 847.5,-882.0 674.5,-882.0 674.5,-829.0 858.5,-829.0"/><path d="M858.5,-871.0L847.5,-871.0 847.5,-882.0" fill="none" stroke="black"/>
<text text-anchor="start" x="684.5" y="-867.5" font-family="Arial" font-size="10.00" fill="black">For&#160;the&#160;sake&#160;of&#160;clarity,&#160;superclasses&#160;</text>
<text text-anchor="start" x="684.5" y="-852.5" font-family="Arial" font-size="10.00" fill="black">and&#160;associations&#160;of&#160;<a fill="navy" href="../reference/PlantStructure/TechnicalItem.html" target="_parent">TechnicalItem</a>&#160;are</text>
<text text-anchor="start" x="684.5" y="-837.5" font-family="Arial" font-size="10.00" fill="black">not&#160;shown&#160;in&#160;this&#160;diagram.</text>
</g>
<!-- 6 -->
<g id="node3" class="node"><defs>
<linearGradient id="l_3" gradientUnits="userSpaceOnUse" x1="766.5" y1="-746" x2="766.5" y2="-782">
<stop offset="0" style="stop-color:#ffffbb;stop-opacity:1.;"/>
<stop offset="1" style="stop-color:#ffffee;stop-opacity:1.;"/>
</linearGradient>
</defs>
<polygon fill="url(#l_3)" stroke="black" points="813,-782 720,-782 720,-746 813,-746 813,-782"/>
<text text-anchor="start" x="730.5" y="-762.2" font-family="Arial" font-weight="bold" font-style="italic" font-size="11.00" fill="black"><a fill="navy" href="../reference/PlantStructure/TechnicalItem.html" target="_parent">TechnicalItem</a></text>
</g>
<!-- 7&#45;&gt;6 -->
<g id="edge1" class="edge"><path fill="none" stroke="#000000" stroke-dasharray="5,2" d="M766.5,-828.613C766.5,-813.641 766.5,-795.222 766.5,-782.063"/>
</g>
<!-- 23&#45;inner&#45;node -->
<!-- 6&#45;&gt;23&#45;inner&#45;node -->
<g id="edge28" class="edge"><path fill="none" stroke="black" d="M766.5,-735.649C766.5,-712.987 766.5,-684.163 766.5,-682.116L766.362,-679.941"/>
<polygon fill="none" stroke="black" points="763,-735.822 766.5,-745.822 770,-735.822 763,-735.822"/>
</g>
<!-- 9 -->
<g id="node4" class="node"><defs>
<linearGradient id="l_4" gradientUnits="userSpaceOnUse" x1="457.5" y1="-276" x2="457.5" y2="-312">
<stop offset="0" style="stop-color:#ffffbb;stop-opacity:1.;"/>
<stop offset="1" style="stop-color:#ffffee;stop-opacity:1.;"/>
</linearGradient>
</defs>
<polygon fill="url(#l_4)" stroke="black" points="508.5,-312 406.5,-312 406.5,-276 508.5,-276 508.5,-312"/>
<text text-anchor="start" x="416.5" y="-292.2" font-family="Arial" font-weight="bold" font-size="11.00" fill="black"><a fill="navy" href="../reference/Equipment/HeatExchanger.html" target="_parent">HeatExchanger</a></text>
</g>
<!-- 29 -->
<g id="node12" class="node"><defs>
<linearGradient id="l_5" gradientUnits="userSpaceOnUse" x1="404.5" y1="-193" x2="404.5" y2="-229">
<stop offset="0" style="stop-color:#ffffbb;stop-opacity:1.;"/>
<stop offset="1" style="stop-color:#ffffee;stop-opacity:1.;"/>
</linearGradient>
</defs>
<polygon fill="url(#l_5)" stroke="black" points="435.5,-229 373.5,-229 373.5,-193 435.5,-193 435.5,-229"/>
<text text-anchor="start" x="383.5" y="-209.2" font-family="Arial" font-weight="bold" font-size="11.00" fill="black"><a fill="navy" href="../reference/Equipment/Agitator.html" target="_parent">Agitator</a></text>
</g>
<!-- 9&#45;&gt;29 -->
<g id="edge3" class="edge"><path fill="none" stroke="#000000" d="M430.004,-275.826C424.508,-271.279 419.274,-265.952 415.5,-260 411.517,-253.718 408.971,-246.162 407.345,-238.924"/>
<polygon fill="#000000" stroke="#000000" points="405.605,-229.068 411.775,-238.134 406.475,-233.992 407.344,-238.916 407.344,-238.916 407.344,-238.916 406.475,-233.992 402.912,-239.698 405.605,-229.068 405.605,-229.068"/>
<text text-anchor="start" x="417.5" y="-249.5" font-family="Arial" font-size="10.00" fill="black"><a fill="navy" href="../reference/Equipment/HeatExchanger.html#dexpi-equipment-heatexchanger-agitator" target="_parent">Agitator</a></text>
<text text-anchor="start" x="384.605" y="-232.068" font-family="Arial" font-size="10.00" fill="black">0..1</text>
<text text-anchor="start" x="401.004" y="-265.826" font-family="Arial" font-size="10.00" fill="black">0..1</text>
</g>
<!-- 16&#45;inner&#45;node -->
<!-- 9&#45;&gt;16&#45;inner&#45;node -->
<g id="edge14" class="edge"><path fill="none" stroke="black" d="M457.5,-265.649C457.5,-242.987 457.5,-214.163 457.5,-212.116L457.5,-209.937"/>
<polygon fill="none" stroke="black" points="454,-265.822 457.5,-275.822 461,-265.822 454,-265.822"/>
</g>
<!-- 10 -->
<g id="node5" class="node"><defs>
<linearGradient id="l_6" gradientUnits="userSpaceOnUse" x1="457.5" y1="-428" x2="457.5" y2="-464">
<stop offset="0" style="stop-color:#ffffbb;stop-opacity:1.;"/>
<stop offset="1" style="stop-color:#ffffee;stop-opacity:1.;"/>
</linearGradient>
</defs>
<polygon fill="url(#l_6)" stroke="black" points="496.5,-464 418.5,-464 418.5,-428 496.5,-428 496.5,-464"/>
<text text-anchor="start" x="428.5" y="-444.2" font-family="Arial" font-weight="bold" font-style="italic" font-size="11.00" fill="black"><a fill="navy" href="../reference/Equipment/Equipment.html" target="_parent">Equipment</a></text>
</g>
<!-- 32 -->
<g id="node13" class="node"><defs>
<linearGradient id="l_7" gradientUnits="userSpaceOnUse" x1="51.5" y1="-345" x2="51.5" y2="-381">
<stop offset="0" style="stop-color:#ffffbb;stop-opacity:1.;"/>
<stop offset="1" style="stop-color:#ffffee;stop-opacity:1.;"/>
</linearGradient>
</defs>
<polygon fill="url(#l_7)" stroke="black" points="103,-381 0,-381 0,-345 103,-345 103,-381"/>
<text text-anchor="start" x="10.5" y="-361.2" font-family="Arial" font-weight="bold" font-size="11.00" fill="black"><a fill="navy" href="../reference/Equipment/DryingChamber.html" target="_parent">DryingChamber</a></text>
</g>
<!-- 10&#45;&gt;32 -->
<g id="edge4" class="edge"><path fill="none" stroke="#000000" d="M406.027,-445.446C342.858,-444.672 233.105,-439.013 143.5,-412 123.707,-406.033 103.174,-395.771 86.54,-386.264"/>
<polygon fill="#000000" stroke="#000000" points="406.398,-445.449 412.429,-441.495 418.398,-445.542 412.367,-449.495 406.398,-445.449"/>
<polygon fill="#000000" stroke="#000000" points="77.7299,-381.091 88.6319,-382.274 82.0418,-383.623 86.3536,-386.154 86.3536,-386.154 86.3536,-386.154 82.0418,-383.623 84.0753,-390.035 77.7299,-381.091 77.7299,-381.091"/>
<text text-anchor="start" x="146" y="-401.5" font-family="Arial" font-size="10.00" fill="black"><a fill="navy" href="../reference/Equipment/Equipment.html#dexpi-equipment-equipment-dryingchambers" target="_parent">DryingChambers</a></text>
<text text-anchor="start" x="69.7299" y="-384.091" font-family="Arial" font-size="10.00" fill="black">*</text>
<text text-anchor="start" x="389.398" y="-446.542" font-family="Arial" font-size="10.00" fill="black">0..1</text>
</g>
<!-- 35 -->
<g id="node14" class="node"><defs>
<linearGradient id="l_8" gradientUnits="userSpaceOnUse" x1="155.5" y1="-345" x2="155.5" y2="-381">
<stop offset="0" style="stop-color:#ffffbb;stop-opacity:1.;"/>
<stop offset="1" style="stop-color:#ffffee;stop-opacity:1.;"/>
</linearGradient>
</defs>
<polygon fill="url(#l_8)" stroke="black" points="189.5,-381 121.5,-381 121.5,-345 189.5,-345 189.5,-381"/>
<text text-anchor="start" x="131.5" y="-361.2" font-family="Arial" font-weight="bold" font-size="11.00" fill="black"><a fill="navy" href="../reference/Equipment/GearBox.html" target="_parent">GearBox</a></text>
</g>
<!-- 10&#45;&gt;35 -->
<g id="edge5" class="edge"><path fill="none" stroke="#000000" d="M406.201,-439.816C366.621,-434.972 310.82,-426.294 263.5,-412 241.05,-405.218 217.118,-394.924 197.503,-385.606"/>
<polygon fill="#000000" stroke="#000000" points="406.275,-439.824 412.702,-436.553 418.193,-441.227 411.767,-444.498 406.275,-439.824"/>
<polygon fill="#000000" stroke="#000000" points="188.246,-381.129 199.207,-381.432 192.747,-383.306 197.248,-385.483 197.248,-385.483 197.248,-385.483 192.747,-383.306 195.289,-389.534 188.246,-381.129 188.246,-381.129"/>
<text text-anchor="start" x="266" y="-401.5" font-family="Arial" font-size="10.00" fill="black"><a fill="navy" href="../reference/Equipment/Equipment.html#dexpi-equipment-equipment-gearboxes" target="_parent">GearBoxes</a></text>
<text text-anchor="start" x="180.246" y="-384.129" font-family="Arial" font-size="10.00" fill="black">*</text>
<text text-anchor="start" x="389.193" y="-431.227" font-family="Arial" font-size="10.00" fill="black">0..1</text>
</g>
<!-- 38 -->
<g id="node15" class="node"><defs>
<linearGradient id="l_9" gradientUnits="userSpaceOnUse" x1="270.5" y1="-345" x2="270.5" y2="-381">
<stop offset="0" style="stop-color:#ffffbb;stop-opacity:1.;"/>
<stop offset="1" style="stop-color:#ffffee;stop-opacity:1.;"/>
</linearGradient>
</defs>
<polygon fill="url(#l_9)" stroke="black" points="333.5,-381 207.5,-381 207.5,-345 333.5,-345 333.5,-381"/>
<text text-anchor="start" x="217.5" y="-361.2" font-family="Arial" font-weight="bold" font-size="11.00" fill="black"><a fill="navy" href="../reference/Equipment/MotorAsComponent.html" target="_parent">MotorAsComponent</a></text>
</g>
<!-- 10&#45;&gt;38 -->
<g id="edge6" class="edge"><path fill="none" stroke="#000000" d="M406.67,-433.044C387.398,-427.7 365.526,-420.637 346.5,-412 331.23,-405.068 315.388,-395.498 302.145,-386.726"/>
<polygon fill="#000000" stroke="#000000" points="406.692,-433.049 413.521,-430.734 418.285,-436.147 411.456,-438.463 406.692,-433.049"/>
<polygon fill="#000000" stroke="#000000" points="293.85,-381.112 304.654,-382.99 297.991,-383.914 302.132,-386.717 302.132,-386.717 302.132,-386.717 297.991,-383.914 299.61,-390.443 293.85,-381.112 293.85,-381.112"/>
<text text-anchor="start" x="349" y="-401.5" font-family="Arial" font-size="10.00" fill="black"><a fill="navy" href="../reference/Equipment/Equipment.html#dexpi-equipment-equipment-motors" target="_parent">Motors</a></text>
<text text-anchor="start" x="285.85" y="-384.112" font-family="Arial" font-size="10.00" fill="black">*</text>
<text text-anchor="start" x="389.285" y="-426.147" font-family="Arial" font-size="10.00" fill="black">0..1</text>
</g>
<!-- 41 -->
<g id="node16" class="node"><defs>
<linearGradient id="l_10" gradientUnits="userSpaceOnUse" x1="395.5" y1="-345" x2="395.5" y2="-381">
<stop offset="0" style="stop-color:#ffffbb;stop-opacity:1.;"/>
<stop offset="1" style="stop-color:#ffffee;stop-opacity:1.;"/>
</linearGradient>
</defs>
<polygon fill="url(#l_10)" stroke="black" points="439,-381 352,-381 352,-345 439,-345 439,-381"/>
<text text-anchor="start" x="362.5" y="-361.2" font-family="Arial" font-weight="bold" font-size="11.00" fill="black"><a fill="navy" href="../reference/Equipment/SprayNozzle.html" target="_parent">SprayNozzle</a></text>
</g>
<!-- 10&#45;&gt;41 -->
<g id="edge7" class="edge"><path fill="none" stroke="#000000" d="M407.357,-429.548C399.867,-425.067 393.12,-419.33 388.5,-412 384.594,-405.802 384.151,-398.272 385.269,-391.033"/>
<polygon fill="#000000" stroke="#000000" points="407.588,-429.664 414.747,-428.802 418.297,-435.08 411.137,-435.942 407.588,-429.664"/>
<polygon fill="#000000" stroke="#000000" points="387.69,-381.16 389.678,-391.944 386.499,-386.016 385.308,-390.873 385.308,-390.873 385.308,-390.873 386.499,-386.016 380.937,-389.801 387.69,-381.16 387.69,-381.16"/>
<text text-anchor="start" x="391" y="-401.5" font-family="Arial" font-size="10.00" fill="black"><a fill="navy" href="../reference/Equipment/Equipment.html#dexpi-equipment-equipment-spraynozzles" target="_parent">SprayNozzles</a></text>
<text text-anchor="start" x="379.69" y="-384.16" font-family="Arial" font-size="10.00" fill="black">*</text>
<text text-anchor="start" x="406.297" y="-425.08" font-family="Arial" font-size="10.00" fill="black">0..1</text>
</g>
<!-- 17&#45;inner&#45;node -->
<!-- 10&#45;&gt;17&#45;inner&#45;node -->
<g id="edge16" class="edge"><path fill="none" stroke="black" d="M457.5,-417.649C457.5,-394.987 457.5,-366.163 457.5,-364.116L457.5,-361.951"/>
<polygon fill="none" stroke="black" points="454,-417.822 457.5,-427.822 461,-417.822 454,-417.822"/>
</g>
<!-- 11 -->
<g id="node6" class="node"><defs>
<linearGradient id="l_11" gradientUnits="userSpaceOnUse" x1="341.5" y1="-580" x2="341.5" y2="-616">
<stop offset="0" style="stop-color:#ffffbb;stop-opacity:1.;"/>
<stop offset="1" style="stop-color:#ffffee;stop-opacity:1.;"/>
</linearGradient>
</defs>
<polygon fill="url(#l_11)" stroke="black" points="394,-616 289,-616 289,-580 394,-580 394,-616"/>
<text text-anchor="start" x="299.5" y="-596.2" font-family="Arial" font-weight="bold" font-style="italic" font-size="11.00" fill="black"><a fill="navy" href="../reference/Equipment/ChamberOwner.html" target="_parent">ChamberOwner</a></text>
</g>
<!-- 44 -->
<g id="node17" class="node"><defs>
<linearGradient id="l_12" gradientUnits="userSpaceOnUse" x1="277.5" y1="-497" x2="277.5" y2="-533">
<stop offset="0" style="stop-color:#ffffbb;stop-opacity:1.;"/>
<stop offset="1" style="stop-color:#ffffee;stop-opacity:1.;"/>
</linearGradient>
</defs>
<polygon fill="url(#l_12)" stroke="black" points="312,-533 243,-533 243,-497 312,-497 312,-533"/>
<text text-anchor="start" x="253.5" y="-513.2" font-family="Arial" font-weight="bold" font-size="11.00" fill="black"><a fill="navy" href="../reference/Equipment/Chamber.html" target="_parent">Chamber</a></text>
</g>
<!-- 11&#45;&gt;44 -->
<g id="edge8" class="edge"><path fill="none" stroke="#000000" d="M295.598,-572.09C292.972,-569.591 290.565,-566.896 288.5,-564 284.181,-557.945 281.527,-550.461 279.905,-543.22"/>
<polygon fill="#000000" stroke="#000000" points="295.859,-572.3 303.041,-572.955 305.199,-579.835 298.017,-579.181 295.859,-572.3"/>
<polygon fill="#000000" stroke="#000000" points="278.234,-533.318 284.336,-542.43 279.066,-538.248 279.898,-543.179 279.898,-543.179 279.898,-543.179 279.066,-538.248 275.461,-543.928 278.234,-533.318 278.234,-533.318"/>
<text text-anchor="start" x="291" y="-553.5" font-family="Arial" font-size="10.00" fill="black"><a fill="navy" href="../reference/Equipment/ChamberOwner.html#dexpi-equipment-chamberowner-chambers" target="_parent">Chambers</a></text>
<text text-anchor="start" x="270.234" y="-536.318" font-family="Arial" font-size="10.00" fill="black">*</text>
<text text-anchor="start" x="276.199" y="-569.835" font-family="Arial" font-size="10.00" fill="black">0..1</text>
</g>
<!-- 18&#45;inner&#45;node -->
<!-- 11&#45;&gt;18&#45;inner&#45;node -->
<g id="edge18" class="edge"><path fill="none" stroke="black" d="M341.5,-569.649C341.5,-546.987 341.5,-518.163 341.5,-516.116L341.64,-513.884"/>
<polygon fill="none" stroke="black" points="338,-569.822 341.5,-579.822 345,-569.822 338,-569.822"/>
</g>
<!-- 12 -->
<g id="node7" class="node"><defs>
<linearGradient id="l_13" gradientUnits="userSpaceOnUse" x1="457.5" y1="-580" x2="457.5" y2="-616">
<stop offset="0" style="stop-color:#ffffbb;stop-opacity:1.;"/>
<stop offset="1" style="stop-color:#ffffee;stop-opacity:1.;"/>
</linearGradient>
</defs>
<polygon fill="url(#l_13)" stroke="black" points="502.5,-616 412.5,-616 412.5,-580 502.5,-580 502.5,-616"/>
<text text-anchor="start" x="422.5" y="-596.2" font-family="Arial" font-weight="bold" font-style="italic" font-size="11.00" fill="black"><a fill="navy" href="../reference/Equipment/NozzleOwner.html" target="_parent">NozzleOwner</a></text>
</g>
<!-- 47 -->
<g id="node18" class="node"><defs>
<linearGradient id="l_14" gradientUnits="userSpaceOnUse" x1="402.5" y1="-497" x2="402.5" y2="-533">
<stop offset="0" style="stop-color:#ffffbb;stop-opacity:1.;"/>
<stop offset="1" style="stop-color:#ffffee;stop-opacity:1.;"/>
</linearGradient>
</defs>
<polygon fill="url(#l_14)" stroke="black" points="431,-533 374,-533 374,-497 431,-497 431,-533"/>
<text text-anchor="start" x="384.5" y="-513.2" font-family="Arial" font-weight="bold" font-size="11.00" fill="black"><a fill="navy" href="../reference/Equipment/Nozzle.html" target="_parent">Nozzle</a></text>
</g>
<!-- 12&#45;&gt;47 -->
<g id="edge9" class="edge"><path fill="none" stroke="#000000" d="M419.289,-571.384C417.147,-569.056 415.185,-566.592 413.5,-564 409.447,-557.763 406.878,-550.222 405.253,-542.983"/>
<polygon fill="#000000" stroke="#000000" points="419.431,-571.515 426.552,-572.651 428.242,-579.662 421.121,-578.525 419.431,-571.515"/>
<polygon fill="#000000" stroke="#000000" points="403.528,-533.118 409.683,-542.193 404.389,-538.043 405.251,-542.969 405.251,-542.969 405.251,-542.969 404.389,-538.043 400.818,-543.744 403.528,-533.118 403.528,-533.118"/>
<text text-anchor="start" x="415.5" y="-553.5" font-family="Arial" font-size="10.00" fill="black"><a fill="navy" href="../reference/Equipment/NozzleOwner.html#dexpi-equipment-nozzleowner-nozzles" target="_parent">Nozzles</a></text>
<text text-anchor="start" x="395.528" y="-536.118" font-family="Arial" font-size="10.00" fill="black">*</text>
<text text-anchor="start" x="399.242" y="-569.662" font-family="Arial" font-size="10.00" fill="black">0..1</text>
</g>
<!-- 19&#45;inner&#45;node -->
<!-- 12&#45;&gt;19&#45;inner&#45;node -->
<g id="edge20" class="edge"><path fill="none" stroke="black" d="M457.5,-569.649C457.5,-546.987 457.5,-518.163 457.5,-516.116L457.5,-513.951"/>
<polygon fill="none" stroke="black" points="454,-569.822 457.5,-579.822 461,-569.822 454,-569.822"/>
</g>
<!-- 13 -->
<g id="node8" class="node"><defs>
<linearGradient id="l_15" gradientUnits="userSpaceOnUse" x1="575.5" y1="-580" x2="575.5" y2="-616">
<stop offset="0" style="stop-color:#ffffbb;stop-opacity:1.;"/>
<stop offset="1" style="stop-color:#ffffee;stop-opacity:1.;"/>
</linearGradient>
</defs>
<polygon fill="url(#l_15)" stroke="black" points="630,-616 521,-616 521,-580 630,-580 630,-616"/>
<text text-anchor="start" x="531.5" y="-596.2" font-family="Arial" font-weight="bold" font-style="italic" font-size="11.00" fill="black"><a fill="navy" href="../reference/Equipment/TaggedPlantItem.html" target="_parent">TaggedPlantItem</a></text>
</g>
<!-- 20&#45;inner&#45;node -->
<!-- 13&#45;&gt;20&#45;inner&#45;node -->
<g id="edge22" class="edge"><path fill="none" stroke="black" d="M575.5,-569.649C575.5,-546.987 575.5,-518.163 575.5,-516.116L575.414,-513.951"/>
<polygon fill="none" stroke="black" points="572,-569.822 575.5,-579.822 579,-569.822 572,-569.822"/>
</g>
<!-- 14 -->
<g id="node9" class="node"><defs>
<linearGradient id="l_16" gradientUnits="userSpaceOnUse" x1="471.5" y1="-746" x2="471.5" y2="-782">
<stop offset="0" style="stop-color:#ffffbb;stop-opacity:1.;"/>
<stop offset="1" style="stop-color:#ffffee;stop-opacity:1.;"/>
</linearGradient>
</defs>
<polygon fill="url(#l_16)" stroke="black" points="529,-782 414,-782 414,-746 529,-746 529,-782"/>
<text text-anchor="start" x="424.5" y="-762.2" font-family="Arial" font-weight="bold" font-style="italic" font-size="11.00" fill="black"><a fill="navy" href="../reference/DexpiModel/ConceptualObject.html" target="_parent">ConceptualObject</a></text>
</g>
<!-- 21&#45;inner&#45;node -->
<!-- 14&#45;&gt;21&#45;inner&#45;node -->
<g id="edge24" class="edge"><path fill="none" stroke="black" d="M471.5,-735.649C471.5,-712.987 471.5,-684.163 471.5,-682.116L471.538,-679.879"/>
<polygon fill="none" stroke="black" points="468,-735.822 471.5,-745.822 475,-735.822 468,-735.822"/>
</g>
<!-- 15 -->
<g id="node10" class="node"><defs>
<linearGradient id="l_17" gradientUnits="userSpaceOnUse" x1="629.5" y1="-746" x2="629.5" y2="-782">
<stop offset="0" style="stop-color:#ffffbb;stop-opacity:1.;"/>
<stop offset="1" style="stop-color:#ffffee;stop-opacity:1.;"/>
</linearGradient>
</defs>
<polygon fill="url(#l_17)" stroke="black" points="701.5,-782 557.5,-782 557.5,-746 701.5,-746 701.5,-782"/>
<text text-anchor="start" x="567.5" y="-762.2" font-family="Arial" font-weight="bold" font-style="italic" font-size="11.00" fill="black"><a fill="navy" href="../reference/Customization/CustomAttributeOwner.html" target="_parent">CustomAttributeOwner</a></text>
</g>
<!-- 59 -->
<g id="node22" class="node"><defs>
<linearGradient id="l_18" gradientUnits="userSpaceOnUse" x1="544.5" y1="-663" x2="544.5" y2="-699">
<stop offset="0" style="stop-color:#ffffbb;stop-opacity:1.;"/>
<stop offset="1" style="stop-color:#ffffee;stop-opacity:1.;"/>
</linearGradient>
</defs>
<polygon fill="url(#l_18)" stroke="black" points="599,-699 490,-699 490,-663 599,-663 599,-699"/>
<text text-anchor="start" x="500.5" y="-679.2" font-family="Arial" font-weight="bold" font-style="italic" font-size="11.00" fill="black"><a fill="navy" href="../reference/Customization/CustomAttribute.html" target="_parent">CustomAttribute</a></text>
</g>
<!-- 15&#45;&gt;59 -->
<g id="edge13" class="edge"><path fill="none" stroke="#000000" d="M552.949,-738.486C550.181,-735.933 547.67,-733.113 545.5,-730 541.402,-724.119 539.944,-716.772 539.815,-709.608"/>
<polygon fill="#000000" stroke="#000000" points="552.998,-738.523 560.196,-738.959 562.563,-745.77 555.365,-745.335 552.998,-738.523"/>
<polygon fill="#000000" stroke="#000000" points="540.425,-699.435 544.319,-709.687 540.126,-704.426 539.827,-709.417 539.827,-709.417 539.827,-709.417 540.126,-704.426 535.335,-709.148 540.425,-699.435 540.425,-699.435"/>
<text text-anchor="start" x="547.5" y="-719.5" font-family="Arial" font-size="10.00" fill="black"><a fill="navy" href="../reference/Customization/CustomAttributeOwner.html#dexpi-customization-customattributeowner-customattributes" target="_parent">CustomAttributes</a></text>
<text text-anchor="start" x="532.425" y="-702.435" font-family="Arial" font-size="10.00" fill="black">*</text>
<text text-anchor="start" x="533.563" y="-735.77" font-family="Arial" font-size="10.00" fill="black">0..1</text>
</g>
<!-- 22&#45;inner&#45;node -->
<!-- 15&#45;&gt;22&#45;inner&#45;node -->
<g id="edge26" class="edge"><path fill="none" stroke="black" d="M629.5,-735.649C629.5,-712.987 629.5,-684.163 629.5,-682.116L629.461,-679.941"/>
<polygon fill="none" stroke="black" points="626,-735.822 629.5,-745.822 633,-735.822 626,-735.822"/>
</g>
<!-- 50 -->
<g id="node19" class="node"><defs>
<linearGradient id="l_19" gradientUnits="userSpaceOnUse" x1="395.5" y1="-663" x2="395.5" y2="-699">
<stop offset="0" style="stop-color:#ffffbb;stop-opacity:1.;"/>
<stop offset="1" style="stop-color:#ffffee;stop-opacity:1.;"/>
</linearGradient>
</defs>
<polygon fill="url(#l_19)" stroke="black" points="452.5,-699 338.5,-699 338.5,-663 452.5,-663 452.5,-699"/>
<text text-anchor="start" x="348.5" y="-679.2" font-family="Arial" font-weight="bold" font-size="11.00" fill="black"><a fill="navy" href="../reference/DexpiModel/ConceptualModel.html" target="_parent">ConceptualModel</a></text>
</g>
<!-- 50&#45;&gt;13 -->
<g id="edge10" class="edge"><path fill="none" stroke="#000000" d="M400.324,-651.016C402.842,-643.86 406.673,-636.862 412.5,-632 444.518,-605.287 465.123,-622.682 510.934,-615.726"/>
<polygon fill="#000000" stroke="#000000" points="400.262,-651.253 402.602,-658.074 397.205,-662.857 394.865,-656.036 400.262,-651.253"/>
<polygon fill="#000000" stroke="#000000" points="520.773,-613.92 511.751,-620.152 515.856,-614.823 510.938,-615.726 510.938,-615.726 510.938,-615.726 515.856,-614.823 510.125,-611.3 520.773,-613.92 520.773,-613.92"/>
<text text-anchor="start" x="415" y="-636.5" font-family="Arial" font-size="10.00" fill="black"><a fill="navy" href="../reference/DexpiModel/ConceptualModel.html#dexpi-dexpimodel-conceptualmodel-taggedplantitems" target="_parent">TaggedPlantItems</a></text>
<text text-anchor="start" x="512.773" y="-616.92" font-family="Arial" font-size="10.00" fill="black">*</text>
<text text-anchor="start" x="368.205" y="-652.857" font-family="Arial" font-size="10.00" fill="black">0..1</text>
</g>
<!-- 53 -->
<g id="node20" class="node"><defs>
<linearGradient id="l_20" gradientUnits="userSpaceOnUse" x1="368.5" y1="-837.5" x2="368.5" y2="-873.5">
<stop offset="0" style="stop-color:#ffffbb;stop-opacity:1.;"/>
<stop offset="1" style="stop-color:#ffffee;stop-opacity:1.;"/>
</linearGradient>
</defs>
<polygon fill="url(#l_20)" stroke="black" points="443,-873.5 294,-873.5 294,-837.5 443,-837.5 443,-873.5"/>
<text text-anchor="start" x="304.5" y="-853.7" font-family="Arial" font-weight="bold" font-size="11.00" fill="black"><a fill="navy" href="../reference/Graphics/AttributeRepresentation.html" target="_parent">AttributeRepresentation</a></text>
</g>
<!-- 53&#45;&gt;14 -->
<g id="edge11" class="edge"><path fill="none" stroke="#000000" d="M388.359,-837.243C404.176,-823.5 426.493,-804.108 444.024,-788.875"/>
<polygon fill="#000000" stroke="#000000" points="451.702,-782.204 447.105,-792.159 447.927,-785.483 444.153,-788.763 444.153,-788.763 444.153,-788.763 447.927,-785.483 441.201,-785.366 451.702,-782.204 451.702,-782.204"/>
<text text-anchor="start" x="435" y="-802.5" font-family="Arial" font-size="10.00" fill="black"><a fill="navy" href="../reference/Graphics/AttributeRepresentation.html#dexpi-graphics-attributerepresentation-object" target="_parent">Object</a></text>
<text text-anchor="start" x="443.702" y="-785.204" font-family="Arial" font-size="10.00" fill="black"></text>
<text text-anchor="start" x="372.359" y="-827.243" font-family="Arial" font-size="10.00" fill="black">*</text>
</g>
<!-- 56 -->
<g id="node21" class="node"><defs>
<linearGradient id="l_21" gradientUnits="userSpaceOnUse" x1="529.5" y1="-837.5" x2="529.5" y2="-873.5">
<stop offset="0" style="stop-color:#ffffbb;stop-opacity:1.;"/>
<stop offset="1" style="stop-color:#ffffee;stop-opacity:1.;"/>
</linearGradient>
</defs>
<polygon fill="url(#l_21)" stroke="black" points="598,-873.5 461,-873.5 461,-837.5 598,-837.5 598,-873.5"/>
<text text-anchor="start" x="471.5" y="-853.7" font-family="Arial" font-weight="bold" font-size="11.00" fill="black"><a fill="navy" href="../reference/Graphics/RepresentationGroup.html" target="_parent">RepresentationGroup</a></text>
</g>
<!-- 56&#45;&gt;14 -->
<g id="edge12" class="edge"><path fill="none" stroke="#000000" d="M518.317,-837.243C509.812,-824.119 497.968,-805.843 488.322,-790.958"/>
<polygon fill="#000000" stroke="#000000" points="482.649,-782.204 491.863,-788.148 485.368,-786.399 488.087,-790.595 488.087,-790.595 488.087,-790.595 485.368,-786.399 484.311,-793.043 482.649,-782.204 482.649,-782.204"/>
<text text-anchor="start" x="504.5" y="-802.5" font-family="Arial" font-size="10.00" fill="black"><a fill="navy" href="../reference/Graphics/RepresentationGroup.html#dexpi-graphics-representationgroup-represents" target="_parent">Represents</a></text>
<text text-anchor="start" x="474.649" y="-785.204" font-family="Arial" font-size="10.00" fill="black"></text>
<text text-anchor="start" x="502.317" y="-827.243" font-family="Arial" font-size="10.00" fill="black">*</text>
</g>
<!-- 16&#45;inner&#45;node&#45;&gt;0 -->
<g id="edge15" class="edge"><path fill="none" stroke="black" d="M457.5,-209.937C457.5,-208.508 457.5,-183.212 457.5,-160.195"/>
</g>
<!-- 17&#45;inner&#45;node&#45;&gt;9 -->
<g id="edge17" class="edge"><path fill="none" stroke="black" d="M457.5,-361.951C457.5,-360.604 457.5,-331.522 457.5,-312.135"/>
</g>
<!-- 18&#45;inner&#45;node&#45;&gt;10 -->
<g id="edge19" class="edge"><path fill="none" stroke="black" d="M341.64,-513.884C343.027,-512.739 354.434,-503.38 364.5,-497 383.235,-485.126 405.036,-473.306 422.819,-464.142"/>
</g>
<!-- 19&#45;inner&#45;node&#45;&gt;10 -->
<g id="edge21" class="edge"><path fill="none" stroke="black" d="M457.5,-513.951C457.5,-512.604 457.5,-483.522 457.5,-464.135"/>
</g>
<!-- 20&#45;inner&#45;node&#45;&gt;10 -->
<g id="edge23" class="edge"><path fill="none" stroke="black" d="M575.414,-513.951C573.042,-512.604 521.822,-483.522 487.677,-464.135"/>
</g>
<!-- 21&#45;inner&#45;node&#45;&gt;13 -->
<g id="edge25" class="edge"><path fill="none" stroke="black" d="M471.538,-679.879C471.92,-678.686 475.141,-668.959 480.5,-663 497.92,-643.629 522.388,-627.325 542.129,-616.02"/>
</g>
<!-- 22&#45;inner&#45;node&#45;&gt;13 -->
<g id="edge27" class="edge"><path fill="none" stroke="black" d="M629.461,-679.941C628.318,-678.226 602.391,-639.337 586.898,-616.098"/>
</g>
<!-- 23&#45;inner&#45;node&#45;&gt;13 -->
<g id="edge29" class="edge"><path fill="none" stroke="black" d="M766.362,-679.941C762.318,-678.226 670.615,-639.337 615.817,-616.098"/>
</g>
</g>
</svg>