<!DOCTYPE svg PUBLIC "-//W3C//DTD SVG 1.1//EN" "http://www.w3.org/Graphics/SVG/1.1/DTD/svg11.dtd">
<!-- Generated by graphviz version 2.38.0 (20140413.2041)
 --><!-- Title: G Pages: 1 --><svg xmlns="http://www.w3.org/2000/svg" xmlns:xlink="http://www.w3.org/1999/xlink" width="462pt" height="319pt" viewBox="0.00 0.00 461.50 319.00">
<g id="graph0" class="graph" transform="scale(1 1) rotate(0) translate(4 315)">
<!-- 0 -->
<g id="node1" class="node"><defs>
<linearGradient id="l_0" gradientUnits="userSpaceOnUse" x1="213.5" y1="-3.19744e-014" x2="213.5" y2="-62">
<stop offset="0" style="stop-color:#ffffbb;stop-opacity:1.;"/>
<stop offset="1" style="stop-color:#ffffee;stop-opacity:1.;"/>
</linearGradient>
</defs>
<polygon fill="url(#l_0)" stroke="black" points="309.5,-62 117.5,-62 117.5,-0 309.5,-0 309.5,-62"/>
<text text-anchor="start" x="182.5" y="-48.2" font-family="Arial" font-weight="bold" font-size="11.00" fill="black">Transmitter</text>
<text text-anchor="start" x="127.5" y="-24" font-family="Arial" font-size="10.00" fill="black"><a fill="navy" href="../reference/Instrumentation/Transmitter.html#dexpi-instrumentation-transmitter-devicetypename" target="_parent">DeviceTypeName</a>&#160;:</text>
<text text-anchor="start" x="213.5" y="-24" font-family="Arial" font-size="10.00" fill="black"><a fill="navy" href="../reference/DataTypes/NullableString.html" target="_parent">NullableString</a>&#160;[0..1]</text>
<text text-anchor="start" x="127.5" y="-9" font-family="Arial" font-size="10.00" fill="black"><a fill="navy" href="../reference/Instrumentation/Transmitter.html#dexpi-instrumentation-transmitter-subtagname" target="_parent">SubTagName</a>&#160;:</text>
<text text-anchor="start" x="213.5" y="-9" font-family="Arial" font-size="10.00" fill="black"><a fill="navy" href="../reference/DataTypes/NullableString.html" target="_parent">NullableString</a>&#160;[0..1]</text>
<polygon fill="black" stroke="black" points="309.5,-42.0 117.5,-42.0 117.5,-42.0 309.5,-42.0 309.5,-42.0"/>
</g>
<!-- 4 -->
<g id="node2" class="node"><defs>
<linearGradient id="l_1" gradientUnits="userSpaceOnUse" x1="213.5" y1="-192" x2="213.5" y2="-228">
<stop offset="0" style="stop-color:#ffffbb;stop-opacity:1.;"/>
<stop offset="1" style="stop-color:#ffffee;stop-opacity:1.;"/>
</linearGradient>
</defs>
<polygon fill="url(#l_1)" stroke="black" points="271,-228 156,-228 156,-192 271,-192 271,-228"/>
<text text-anchor="start" x="166.5" y="-208.2" font-family="Arial" font-weight="bold" font-style="italic" font-size="11.00" fill="black"><a fill="navy" href="../reference/DexpiModel/ConceptualObject.html" target="_parent">ConceptualObject</a></text>
</g>
<!-- 6&#45;inner&#45;node -->
<!-- 4&#45;&gt;6&#45;inner&#45;node -->
<g id="edge5" class="edge"><path fill="none" stroke="black" d="M213.5,-181.649C213.5,-158.987 213.5,-130.163 213.5,-128.116L213.5,-125.932"/>
<polygon fill="none" stroke="black" points="210,-181.822 213.5,-191.822 217,-181.822 210,-181.822"/>
</g>
<!-- 5 -->
<g id="node3" class="node"><defs>
<linearGradient id="l_2" gradientUnits="userSpaceOnUse" x1="381.5" y1="-192" x2="381.5" y2="-228">
<stop offset="0" style="stop-color:#ffffbb;stop-opacity:1.;"/>
<stop offset="1" style="stop-color:#ffffee;stop-opacity:1.;"/>
</linearGradient>
</defs>
<polygon fill="url(#l_2)" stroke="black" points="453.5,-228 309.5,-228 309.5,-192 453.5,-192 453.5,-228"/>
<text text-anchor="start" x="319.5" y="-208.2" font-family="Arial" font-weight="bold" font-style="italic" font-size="11.00" fill="black"><a fill="navy" href="../reference/Customization/CustomAttributeOwner.html" target="_parent">CustomAttributeOwner</a></text>
</g>
<!-- 19 -->
<g id="node7" class="node"><defs>
<linearGradient id="l_3" gradientUnits="userSpaceOnUse" x1="286.5" y1="-109" x2="286.5" y2="-145">
<stop offset="0" style="stop-color:#ffffbb;stop-opacity:1.;"/>
<stop offset="1" style="stop-color:#ffffee;stop-opacity:1.;"/>
</linearGradient>
</defs>
<polygon fill="url(#l_3)" stroke="black" points="341,-145 232,-145 232,-109 341,-109 341,-145"/>
<text text-anchor="start" x="242.5" y="-125.2" font-family="Arial" font-weight="bold" font-style="italic" font-size="11.00" fill="black"><a fill="navy" href="../reference/Customization/CustomAttribute.html" target="_parent">CustomAttribute</a></text>
</g>
<!-- 5&#45;&gt;19 -->
<g id="edge4" class="edge"><path fill="none" stroke="#000000" d="M307.566,-185.359C303.887,-182.576 300.487,-179.469 297.5,-176 292.571,-170.275 289.734,-162.784 288.132,-155.428"/>
<polygon fill="#000000" stroke="#000000" points="307.776,-185.495 314.986,-185.381 317.865,-191.992 310.655,-192.106 307.776,-185.495"/>
<polygon fill="#000000" stroke="#000000" points="286.601,-145.317 292.548,-154.53 287.35,-150.26 288.098,-155.204 288.098,-155.204 288.098,-155.204 287.35,-150.26 283.649,-155.878 286.601,-145.317 286.601,-145.317"/>
<text text-anchor="start" x="299.5" y="-165.5" font-family="Arial" font-size="10.00" fill="black"><a fill="navy" href="../reference/Customization/CustomAttributeOwner.html#dexpi-customization-customattributeowner-customattributes" target="_parent">CustomAttributes</a></text>
<text text-anchor="start" x="278.601" y="-148.317" font-family="Arial" font-size="10.00" fill="black">*</text>
<text text-anchor="start" x="288.865" y="-181.992" font-family="Arial" font-size="10.00" fill="black">0..1</text>
</g>
<!-- 7&#45;inner&#45;node -->
<!-- 5&#45;&gt;7&#45;inner&#45;node -->
<g id="edge7" class="edge"><path fill="none" stroke="black" d="M381.5,-181.649C381.5,-158.987 381.5,-130.163 381.5,-128.116L381.378,-125.932"/>
<polygon fill="none" stroke="black" points="378,-181.822 381.5,-191.822 385,-181.822 378,-181.822"/>
</g>
<!-- 10 -->
<g id="node4" class="node"><defs>
<linearGradient id="l_4" gradientUnits="userSpaceOnUse" x1="97.5" y1="-109" x2="97.5" y2="-145">
<stop offset="0" style="stop-color:#ffffbb;stop-opacity:1.;"/>
<stop offset="1" style="stop-color:#ffffee;stop-opacity:1.;"/>
</linearGradient>
</defs>
<polygon fill="url(#l_4)" stroke="black" points="195,-145 0,-145 0,-109 195,-109 195,-145"/>
<text text-anchor="start" x="10.5" y="-125.2" font-family="Arial" font-weight="bold" font-size="11.00" fill="black"><a fill="navy" href="../reference/Instrumentation/ProcessSignalGeneratingSystem.html" target="_parent">ProcessSignalGeneratingSystem</a></text>
</g>
<!-- 10&#45;&gt;0 -->
<g id="edge1" class="edge"><path fill="none" stroke="#000000" d="M128.004,-101.145C137.16,-93.695 147.233,-85.5091 156.5,-78 160.254,-74.9579 164.15,-71.8053 168.063,-68.6421"/>
<polygon fill="#000000" stroke="#000000" points="127.816,-101.298 125.688,-108.188 118.509,-108.874 120.637,-101.984 127.816,-101.298"/>
<polygon fill="#000000" stroke="#000000" points="176.077,-62.1664 171.127,-71.9516 172.188,-65.3089 168.299,-68.4514 168.299,-68.4514 168.299,-68.4514 172.188,-65.3089 165.47,-64.9513 176.077,-62.1664 176.077,-62.1664"/>
<text text-anchor="start" x="159" y="-82.5" font-family="Arial" font-size="10.00" fill="black"><a fill="navy" href="../reference/Instrumentation/ProcessSignalGeneratingSystem.html#dexpi-instrumentation-processsignalgeneratingsystem-transmitter" target="_parent">Transmitter</a></text>
<text text-anchor="start" x="155.077" y="-65.1664" font-family="Arial" font-size="10.00" fill="black">0..1</text>
<text text-anchor="start" x="89.509" y="-98.874" font-family="Arial" font-size="10.00" fill="black">0..1</text>
</g>
<!-- 13 -->
<g id="node5" class="node"><defs>
<linearGradient id="l_5" gradientUnits="userSpaceOnUse" x1="133.5" y1="-275" x2="133.5" y2="-311">
<stop offset="0" style="stop-color:#ffffbb;stop-opacity:1.;"/>
<stop offset="1" style="stop-color:#ffffee;stop-opacity:1.;"/>
</linearGradient>
</defs>
<polygon fill="url(#l_5)" stroke="black" points="208,-311 59,-311 59,-275 208,-275 208,-311"/>
<text text-anchor="start" x="69.5" y="-291.2" font-family="Arial" font-weight="bold" font-size="11.00" fill="black"><a fill="navy" href="../reference/Graphics/AttributeRepresentation.html" target="_parent">AttributeRepresentation</a></text>
</g>
<!-- 13&#45;&gt;4 -->
<g id="edge2" class="edge"><path fill="none" stroke="#000000" d="M150.466,-274.822C161.815,-263.331 176.916,-248.041 189.493,-235.307"/>
<polygon fill="#000000" stroke="#000000" points="196.559,-228.153 192.733,-238.43 193.045,-231.711 189.531,-235.268 189.531,-235.268 189.531,-235.268 193.045,-231.711 186.33,-232.106 196.559,-228.153 196.559,-228.153"/>
<text text-anchor="start" x="184" y="-248.5" font-family="Arial" font-size="10.00" fill="black"><a fill="navy" href="../reference/Graphics/AttributeRepresentation.html#dexpi-graphics-attributerepresentation-object" target="_parent">Object</a></text>
<text text-anchor="start" x="188.559" y="-231.153" font-family="Arial" font-size="10.00" fill="black"></text>
<text text-anchor="start" x="134.466" y="-264.822" font-family="Arial" font-size="10.00" fill="black">*</text>
</g>
<!-- 16 -->
<g id="node6" class="node"><defs>
<linearGradient id="l_6" gradientUnits="userSpaceOnUse" x1="294.5" y1="-275" x2="294.5" y2="-311">
<stop offset="0" style="stop-color:#ffffbb;stop-opacity:1.;"/>
<stop offset="1" style="stop-color:#ffffee;stop-opacity:1.;"/>
</linearGradient>
</defs>
<polygon fill="url(#l_6)" stroke="black" points="363,-311 226,-311 226,-275 363,-275 363,-311"/>
<text text-anchor="start" x="236.5" y="-291.2" font-family="Arial" font-weight="bold" font-size="11.00" fill="black"><a fill="navy" href="../reference/Graphics/RepresentationGroup.html" target="_parent">RepresentationGroup</a></text>
</g>
<!-- 16&#45;&gt;4 -->
<g id="edge3" class="edge"><path fill="none" stroke="#000000" d="M277.322,-274.822C265.831,-263.331 250.541,-248.041 237.807,-235.307"/>
<polygon fill="#000000" stroke="#000000" points="230.653,-228.153 240.906,-232.042 234.189,-231.689 237.724,-235.224 237.724,-235.224 237.724,-235.224 234.189,-231.689 234.542,-238.406 230.653,-228.153 230.653,-228.153"/>
<text text-anchor="start" x="263.5" y="-248.5" font-family="Arial" font-size="10.00" fill="black"><a fill="navy" href="../reference/Graphics/RepresentationGroup.html#dexpi-graphics-representationgroup-represents" target="_parent">Represents</a></text>
<text text-anchor="start" x="222.653" y="-231.153" font-family="Arial" font-size="10.00" fill="black"></text>
<text text-anchor="start" x="261.322" y="-264.822" font-family="Arial" font-size="10.00" fill="black">*</text>
</g>
<!-- 6&#45;inner&#45;node&#45;&gt;0 -->
<g id="edge6" class="edge"><path fill="none" stroke="black" d="M213.5,-125.932C213.5,-124.181 213.5,-89.0298 213.5,-62.2394"/>
</g>
<!-- 7&#45;inner&#45;node&#45;&gt;0 -->
<g id="edge8" class="edge"><path fill="none" stroke="black" d="M381.378,-125.932C378.248,-124.181 315.426,-89.0298 267.545,-62.2394"/>
</g>
</g>
</svg>