<!DOCTYPE svg PUBLIC "-//W3C//DTD SVG 1.1//EN" "http://www.w3.org/Graphics/SVG/1.1/DTD/svg11.dtd">
<!-- Generated by graphviz version 2.38.0 (20140413.2041)
 --><!-- Title: G Pages: 1 --><svg xmlns="http://www.w3.org/2000/svg" xmlns:xlink="http://www.w3.org/1999/xlink" width="867pt" height="717pt" viewBox="0.00 0.00 866.50 717.00">
<g id="graph0" class="graph" transform="scale(1 1) rotate(0) translate(4 713)">
<!-- 0 -->
<g id="node1" class="node"><defs>
<linearGradient id="l_0" gradientUnits="userSpaceOnUse" x1="457.5" y1="-1.77636e-014" x2="457.5" y2="-36">
<stop offset="0" style="stop-color:#ffffbb;stop-opacity:1.;"/>
<stop offset="1" style="stop-color:#ffffee;stop-opacity:1.;"/>
</linearGradient>
</defs>
<polygon fill="url(#l_0)" stroke="black" points="484.5,-36 430.5,-36 430.5,-0 484.5,-0 484.5,-36"/>
<text text-anchor="start" x="442.5" y="-16.2" font-family="Arial" font-weight="bold" font-size="11.00" fill="black">Truck</text>
</g>
<!-- 2 -->
<g id="node2" class="node"><defs>
<linearGradient id="l_1" gradientUnits="userSpaceOnUse" x1="766.5" y1="-656" x2="766.5" y2="-709">
<stop offset="0" style="stop-color:#fbfbfb;stop-opacity:1.;"/>
<stop offset="1" style="stop-color:#fefefe;stop-opacity:1.;"/>
</linearGradient>
</defs>
<polygon fill="url(#l_1)" stroke="black" points="858.5,-698.0 847.5,-709.0 674.5,-709.0 674.5,-656.0 858.5,-656.0"/><path d="M858.5,-698.0L847.5,-698.0 847.5,-709.0" fill="none" stroke="black"/>
<text text-anchor="start" x="684.5" y="-694.5" font-family="Arial" font-size="10.00" fill="black">For&#160;the&#160;sake&#160;of&#160;clarity,&#160;superclasses&#160;</text>
<text text-anchor="start" x="684.5" y="-679.5" font-family="Arial" font-size="10.00" fill="black">and&#160;associations&#160;of&#160;<a fill="navy" href="../reference/PlantStructure/TechnicalItem.html" target="_parent">TechnicalItem</a>&#160;are</text>
<text text-anchor="start" x="684.5" y="-664.5" font-family="Arial" font-size="10.00" fill="black">not&#160;shown&#160;in&#160;this&#160;diagram.</text>
</g>
<!-- 1 -->
<g id="node3" class="node"><defs>
<linearGradient id="l_2" gradientUnits="userSpaceOnUse" x1="766.5" y1="-573" x2="766.5" y2="-609">
<stop offset="0" style="stop-color:#ffffbb;stop-opacity:1.;"/>
<stop offset="1" style="stop-color:#ffffee;stop-opacity:1.;"/>
</linearGradient>
</defs>
<polygon fill="url(#l_2)" stroke="black" points="813,-609 720,-609 720,-573 813,-573 813,-609"/>
<text text-anchor="start" x="730.5" y="-589.2" font-family="Arial" font-weight="bold" font-style="italic" font-size="11.00" fill="black"><a fill="navy" href="../reference/PlantStructure/TechnicalItem.html" target="_parent">TechnicalItem</a></text>
</g>
<!-- 2&#45;&gt;1 -->
<g id="edge1" class="edge"><path fill="none" stroke="#000000" stroke-dasharray="5,2" d="M766.5,-655.613C766.5,-640.641 766.5,-622.222 766.5,-609.063"/>
</g>
<!-- 18&#45;inner&#45;node -->
<!-- 1&#45;&gt;18&#45;inner&#45;node -->
<g id="edge26" class="edge"><path fill="none" stroke="black" d="M766.5,-562.649C766.5,-539.987 766.5,-511.163 766.5,-509.116L766.362,-506.941"/>
<polygon fill="none" stroke="black" points="763,-562.822 766.5,-572.822 770,-562.822 763,-562.822"/>
</g>
<!-- 4 -->
<g id="node4" class="node"><defs>
<linearGradient id="l_3" gradientUnits="userSpaceOnUse" x1="457.5" y1="-103" x2="457.5" y2="-139">
<stop offset="0" style="stop-color:#ffffbb;stop-opacity:1.;"/>
<stop offset="1" style="stop-color:#ffffee;stop-opacity:1.;"/>
</linearGradient>
</defs>
<polygon fill="url(#l_3)" stroke="black" points="531,-139 384,-139 384,-103 531,-103 531,-139"/>
<text text-anchor="start" x="394.5" y="-119.2" font-family="Arial" font-weight="bold" font-size="11.00" fill="black"><a fill="navy" href="../reference/Equipment/MobileTransportSystem.html" target="_parent">MobileTransportSystem</a></text>
</g>
<!-- 11&#45;inner&#45;node -->
<!-- 4&#45;&gt;11&#45;inner&#45;node -->
<g id="edge12" class="edge"><path fill="none" stroke="black" d="M457.5,-92.603C457.5,-81.4221 457.5,-70.8866 457.5,-70.053L457.5,-68.8566"/>
<polygon fill="none" stroke="black" points="454,-92.7928 457.5,-102.793 461,-92.7929 454,-92.7928"/>
</g>
<!-- 5 -->
<g id="node5" class="node"><defs>
<linearGradient id="l_4" gradientUnits="userSpaceOnUse" x1="457.5" y1="-255" x2="457.5" y2="-291">
<stop offset="0" style="stop-color:#ffffbb;stop-opacity:1.;"/>
<stop offset="1" style="stop-color:#ffffee;stop-opacity:1.;"/>
</linearGradient>
</defs>
<polygon fill="url(#l_4)" stroke="black" points="496.5,-291 418.5,-291 418.5,-255 496.5,-255 496.5,-291"/>
<text text-anchor="start" x="428.5" y="-271.2" font-family="Arial" font-weight="bold" font-style="italic" font-size="11.00" fill="black"><a fill="navy" href="../reference/Equipment/Equipment.html" target="_parent">Equipment</a></text>
</g>
<!-- 21 -->
<g id="node11" class="node"><defs>
<linearGradient id="l_5" gradientUnits="userSpaceOnUse" x1="51.5" y1="-172" x2="51.5" y2="-208">
<stop offset="0" style="stop-color:#ffffbb;stop-opacity:1.;"/>
<stop offset="1" style="stop-color:#ffffee;stop-opacity:1.;"/>
</linearGradient>
</defs>
<polygon fill="url(#l_5)" stroke="black" points="103,-208 0,-208 0,-172 103,-172 103,-208"/>
<text text-anchor="start" x="10.5" y="-188.2" font-family="Arial" font-weight="bold" font-size="11.00" fill="black"><a fill="navy" href="../reference/Equipment/DryingChamber.html" target="_parent">DryingChamber</a></text>
</g>
<!-- 5&#45;&gt;21 -->
<g id="edge2" class="edge"><path fill="none" stroke="#000000" d="M406.027,-272.446C342.858,-271.672 233.105,-266.013 143.5,-239 123.707,-233.033 103.174,-222.771 86.54,-213.264"/>
<polygon fill="#000000" stroke="#000000" points="406.398,-272.449 412.429,-268.495 418.398,-272.542 412.367,-276.495 406.398,-272.449"/>
<polygon fill="#000000" stroke="#000000" points="77.7299,-208.091 88.6319,-209.274 82.0418,-210.623 86.3536,-213.154 86.3536,-213.154 86.3536,-213.154 82.0418,-210.623 84.0753,-217.035 77.7299,-208.091 77.7299,-208.091"/>
<text text-anchor="start" x="146" y="-228.5" font-family="Arial" font-size="10.00" fill="black"><a fill="navy" href="../reference/Equipment/Equipment.html#dexpi-equipment-equipment-dryingchambers" target="_parent">DryingChambers</a></text>
<text text-anchor="start" x="69.7299" y="-211.091" font-family="Arial" font-size="10.00" fill="black">*</text>
<text text-anchor="start" x="389.398" y="-273.542" font-family="Arial" font-size="10.00" fill="black">0..1</text>
</g>
<!-- 24 -->
<g id="node12" class="node"><defs>
<linearGradient id="l_6" gradientUnits="userSpaceOnUse" x1="155.5" y1="-172" x2="155.5" y2="-208">
<stop offset="0" style="stop-color:#ffffbb;stop-opacity:1.;"/>
<stop offset="1" style="stop-color:#ffffee;stop-opacity:1.;"/>
</linearGradient>
</defs>
<polygon fill="url(#l_6)" stroke="black" points="189.5,-208 121.5,-208 121.5,-172 189.5,-172 189.5,-208"/>
<text text-anchor="start" x="131.5" y="-188.2" font-family="Arial" font-weight="bold" font-size="11.00" fill="black"><a fill="navy" href="../reference/Equipment/GearBox.html" target="_parent">GearBox</a></text>
</g>
<!-- 5&#45;&gt;24 -->
<g id="edge3" class="edge"><path fill="none" stroke="#000000" d="M406.201,-266.816C366.621,-261.972 310.82,-253.294 263.5,-239 241.05,-232.218 217.118,-221.924 197.503,-212.606"/>
<polygon fill="#000000" stroke="#000000" points="406.275,-266.824 412.702,-263.553 418.193,-268.227 411.767,-271.498 406.275,-266.824"/>
<polygon fill="#000000" stroke="#000000" points="188.246,-208.129 199.207,-208.432 192.747,-210.306 197.248,-212.483 197.248,-212.483 197.248,-212.483 192.747,-210.306 195.289,-216.534 188.246,-208.129 188.246,-208.129"/>
<text text-anchor="start" x="266" y="-228.5" font-family="Arial" font-size="10.00" fill="black"><a fill="navy" href="../reference/Equipment/Equipment.html#dexpi-equipment-equipment-gearboxes" target="_parent">GearBoxes</a></text>
<text text-anchor="start" x="180.246" y="-211.129" font-family="Arial" font-size="10.00" fill="black">*</text>
<text text-anchor="start" x="389.193" y="-258.227" font-family="Arial" font-size="10.00" fill="black">0..1</text>
</g>
<!-- 27 -->
<g id="node13" class="node"><defs>
<linearGradient id="l_7" gradientUnits="userSpaceOnUse" x1="270.5" y1="-172" x2="270.5" y2="-208">
<stop offset="0" style="stop-color:#ffffbb;stop-opacity:1.;"/>
<stop offset="1" style="stop-color:#ffffee;stop-opacity:1.;"/>
</linearGradient>
</defs>
<polygon fill="url(#l_7)" stroke="black" points="333.5,-208 207.5,-208 207.5,-172 333.5,-172 333.5,-208"/>
<text text-anchor="start" x="217.5" y="-188.2" font-family="Arial" font-weight="bold" font-size="11.00" fill="black"><a fill="navy" href="../reference/Equipment/MotorAsComponent.html" target="_parent">MotorAsComponent</a></text>
</g>
<!-- 5&#45;&gt;27 -->
<g id="edge4" class="edge"><path fill="none" stroke="#000000" d="M406.67,-260.044C387.398,-254.7 365.526,-247.637 346.5,-239 331.23,-232.068 315.388,-222.498 302.145,-213.726"/>
<polygon fill="#000000" stroke="#000000" points="406.692,-260.049 413.521,-257.734 418.285,-263.147 411.456,-265.463 406.692,-260.049"/>
<polygon fill="#000000" stroke="#000000" points="293.85,-208.112 304.654,-209.99 297.991,-210.914 302.132,-213.717 302.132,-213.717 302.132,-213.717 297.991,-210.914 299.61,-217.443 293.85,-208.112 293.85,-208.112"/>
<text text-anchor="start" x="349" y="-228.5" font-family="Arial" font-size="10.00" fill="black"><a fill="navy" href="../reference/Equipment/Equipment.html#dexpi-equipment-equipment-motors" target="_parent">Motors</a></text>
<text text-anchor="start" x="285.85" y="-211.112" font-family="Arial" font-size="10.00" fill="black">*</text>
<text text-anchor="start" x="389.285" y="-253.147" font-family="Arial" font-size="10.00" fill="black">0..1</text>
</g>
<!-- 30 -->
<g id="node14" class="node"><defs>
<linearGradient id="l_8" gradientUnits="userSpaceOnUse" x1="395.5" y1="-172" x2="395.5" y2="-208">
<stop offset="0" style="stop-color:#ffffbb;stop-opacity:1.;"/>
<stop offset="1" style="stop-color:#ffffee;stop-opacity:1.;"/>
</linearGradient>
</defs>
<polygon fill="url(#l_8)" stroke="black" points="439,-208 352,-208 352,-172 439,-172 439,-208"/>
<text text-anchor="start" x="362.5" y="-188.2" font-family="Arial" font-weight="bold" font-size="11.00" fill="black"><a fill="navy" href="../reference/Equipment/SprayNozzle.html" target="_parent">SprayNozzle</a></text>
</g>
<!-- 5&#45;&gt;30 -->
<g id="edge5" class="edge"><path fill="none" stroke="#000000" d="M407.357,-256.548C399.867,-252.067 393.12,-246.33 388.5,-239 384.594,-232.802 384.151,-225.272 385.269,-218.033"/>
<polygon fill="#000000" stroke="#000000" points="407.588,-256.664 414.747,-255.802 418.297,-262.08 411.137,-262.942 407.588,-256.664"/>
<polygon fill="#000000" stroke="#000000" points="387.69,-208.16 389.678,-218.944 386.499,-213.016 385.308,-217.873 385.308,-217.873 385.308,-217.873 386.499,-213.016 380.937,-216.801 387.69,-208.16 387.69,-208.16"/>
<text text-anchor="start" x="391" y="-228.5" font-family="Arial" font-size="10.00" fill="black"><a fill="navy" href="../reference/Equipment/Equipment.html#dexpi-equipment-equipment-spraynozzles" target="_parent">SprayNozzles</a></text>
<text text-anchor="start" x="379.69" y="-211.16" font-family="Arial" font-size="10.00" fill="black">*</text>
<text text-anchor="start" x="406.297" y="-252.08" font-family="Arial" font-size="10.00" fill="black">0..1</text>
</g>
<!-- 12&#45;inner&#45;node -->
<!-- 5&#45;&gt;12&#45;inner&#45;node -->
<g id="edge14" class="edge"><path fill="none" stroke="black" d="M457.5,-244.649C457.5,-221.987 457.5,-193.163 457.5,-191.116L457.5,-188.951"/>
<polygon fill="none" stroke="black" points="454,-244.822 457.5,-254.822 461,-244.822 454,-244.822"/>
</g>
<!-- 6 -->
<g id="node6" class="node"><defs>
<linearGradient id="l_9" gradientUnits="userSpaceOnUse" x1="341.5" y1="-407" x2="341.5" y2="-443">
<stop offset="0" style="stop-color:#ffffbb;stop-opacity:1.;"/>
<stop offset="1" style="stop-color:#ffffee;stop-opacity:1.;"/>
</linearGradient>
</defs>
<polygon fill="url(#l_9)" stroke="black" points="394,-443 289,-443 289,-407 394,-407 394,-443"/>
<text text-anchor="start" x="299.5" y="-423.2" font-family="Arial" font-weight="bold" font-style="italic" font-size="11.00" fill="black"><a fill="navy" href="../reference/Equipment/ChamberOwner.html" target="_parent">ChamberOwner</a></text>
</g>
<!-- 33 -->
<g id="node15" class="node"><defs>
<linearGradient id="l_10" gradientUnits="userSpaceOnUse" x1="277.5" y1="-324" x2="277.5" y2="-360">
<stop offset="0" style="stop-color:#ffffbb;stop-opacity:1.;"/>
<stop offset="1" style="stop-color:#ffffee;stop-opacity:1.;"/>
</linearGradient>
</defs>
<polygon fill="url(#l_10)" stroke="black" points="312,-360 243,-360 243,-324 312,-324 312,-360"/>
<text text-anchor="start" x="253.5" y="-340.2" font-family="Arial" font-weight="bold" font-size="11.00" fill="black"><a fill="navy" href="../reference/Equipment/Chamber.html" target="_parent">Chamber</a></text>
</g>
<!-- 6&#45;&gt;33 -->
<g id="edge6" class="edge"><path fill="none" stroke="#000000" d="M295.598,-399.09C292.972,-396.591 290.565,-393.896 288.5,-391 284.181,-384.945 281.527,-377.461 279.905,-370.22"/>
<polygon fill="#000000" stroke="#000000" points="295.859,-399.3 303.041,-399.955 305.199,-406.835 298.017,-406.181 295.859,-399.3"/>
<polygon fill="#000000" stroke="#000000" points="278.234,-360.318 284.336,-369.43 279.066,-365.248 279.898,-370.179 279.898,-370.179 279.898,-370.179 279.066,-365.248 275.461,-370.928 278.234,-360.318 278.234,-360.318"/>
<text text-anchor="start" x="291" y="-380.5" font-family="Arial" font-size="10.00" fill="black"><a fill="navy" href="../reference/Equipment/ChamberOwner.html#dexpi-equipment-chamberowner-chambers" target="_parent">Chambers</a></text>
<text text-anchor="start" x="270.234" y="-363.318" font-family="Arial" font-size="10.00" fill="black">*</text>
<text text-anchor="start" x="276.199" y="-396.835" font-family="Arial" font-size="10.00" fill="black">0..1</text>
</g>
<!-- 13&#45;inner&#45;node -->
<!-- 6&#45;&gt;13&#45;inner&#45;node -->
<g id="edge16" class="edge"><path fill="none" stroke="black" d="M341.5,-396.649C341.5,-373.987 341.5,-345.163 341.5,-343.116L341.64,-340.884"/>
<polygon fill="none" stroke="black" points="338,-396.822 341.5,-406.822 345,-396.822 338,-396.822"/>
</g>
<!-- 7 -->
<g id="node7" class="node"><defs>
<linearGradient id="l_11" gradientUnits="userSpaceOnUse" x1="457.5" y1="-407" x2="457.5" y2="-443">
<stop offset="0" style="stop-color:#ffffbb;stop-opacity:1.;"/>
<stop offset="1" style="stop-color:#ffffee;stop-opacity:1.;"/>
</linearGradient>
</defs>
<polygon fill="url(#l_11)" stroke="black" points="502.5,-443 412.5,-443 412.5,-407 502.5,-407 502.5,-443"/>
<text text-anchor="start" x="422.5" y="-423.2" font-family="Arial" font-weight="bold" font-style="italic" font-size="11.00" fill="black"><a fill="navy" href="../reference/Equipment/NozzleOwner.html" target="_parent">NozzleOwner</a></text>
</g>
<!-- 36 -->
<g id="node16" class="node"><defs>
<linearGradient id="l_12" gradientUnits="userSpaceOnUse" x1="402.5" y1="-324" x2="402.5" y2="-360">
<stop offset="0" style="stop-color:#ffffbb;stop-opacity:1.;"/>
<stop offset="1" style="stop-color:#ffffee;stop-opacity:1.;"/>
</linearGradient>
</defs>
<polygon fill="url(#l_12)" stroke="black" points="431,-360 374,-360 374,-324 431,-324 431,-360"/>
<text text-anchor="start" x="384.5" y="-340.2" font-family="Arial" font-weight="bold" font-size="11.00" fill="black"><a fill="navy" href="../reference/Equipment/Nozzle.html" target="_parent">Nozzle</a></text>
</g>
<!-- 7&#45;&gt;36 -->
<g id="edge7" class="edge"><path fill="none" stroke="#000000" d="M419.289,-398.384C417.147,-396.056 415.185,-393.592 413.5,-391 409.447,-384.763 406.878,-377.222 405.253,-369.983"/>
<polygon fill="#000000" stroke="#000000" points="419.431,-398.515 426.552,-399.651 428.242,-406.662 421.121,-405.525 419.431,-398.515"/>
<polygon fill="#000000" stroke="#000000" points="403.528,-360.118 409.683,-369.193 404.389,-365.043 405.251,-369.969 405.251,-369.969 405.251,-369.969 404.389,-365.043 400.818,-370.744 403.528,-360.118 403.528,-360.118"/>
<text text-anchor="start" x="415.5" y="-380.5" font-family="Arial" font-size="10.00" fill="black"><a fill="navy" href="../reference/Equipment/NozzleOwner.html#dexpi-equipment-nozzleowner-nozzles" target="_parent">Nozzles</a></text>
<text text-anchor="start" x="395.528" y="-363.118" font-family="Arial" font-size="10.00" fill="black">*</text>
<text text-anchor="start" x="399.242" y="-396.662" font-family="Arial" font-size="10.00" fill="black">0..1</text>
</g>
<!-- 14&#45;inner&#45;node -->
<!-- 7&#45;&gt;14&#45;inner&#45;node -->
<g id="edge18" class="edge"><path fill="none" stroke="black" d="M457.5,-396.649C457.5,-373.987 457.5,-345.163 457.5,-343.116L457.5,-340.951"/>
<polygon fill="none" stroke="black" points="454,-396.822 457.5,-406.822 461,-396.822 454,-396.822"/>
</g>
<!-- 8 -->
<g id="node8" class="node"><defs>
<linearGradient id="l_13" gradientUnits="userSpaceOnUse" x1="575.5" y1="-407" x2="575.5" y2="-443">
<stop offset="0" style="stop-color:#ffffbb;stop-opacity:1.;"/>
<stop offset="1" style="stop-color:#ffffee;stop-opacity:1.;"/>
</linearGradient>
</defs>
<polygon fill="url(#l_13)" stroke="black" points="630,-443 521,-443 521,-407 630,-407 630,-443"/>
<text text-anchor="start" x="531.5" y="-423.2" font-family="Arial" font-weight="bold" font-style="italic" font-size="11.00" fill="black"><a fill="navy" href="../reference/Equipment/TaggedPlantItem.html" target="_parent">TaggedPlantItem</a></text>
</g>
<!-- 15&#45;inner&#45;node -->
<!-- 8&#45;&gt;15&#45;inner&#45;node -->
<g id="edge20" class="edge"><path fill="none" stroke="black" d="M575.5,-396.649C575.5,-373.987 575.5,-345.163 575.5,-343.116L575.414,-340.951"/>
<polygon fill="none" stroke="black" points="572,-396.822 575.5,-406.822 579,-396.822 572,-396.822"/>
</g>
<!-- 9 -->
<g id="node9" class="node"><defs>
<linearGradient id="l_14" gradientUnits="userSpaceOnUse" x1="471.5" y1="-573" x2="471.5" y2="-609">
<stop offset="0" style="stop-color:#ffffbb;stop-opacity:1.;"/>
<stop offset="1" style="stop-color:#ffffee;stop-opacity:1.;"/>
</linearGradient>
</defs>
<polygon fill="url(#l_14)" stroke="black" points="529,-609 414,-609 414,-573 529,-573 529,-609"/>
<text text-anchor="start" x="424.5" y="-589.2" font-family="Arial" font-weight="bold" font-style="italic" font-size="11.00" fill="black"><a fill="navy" href="../reference/DexpiModel/ConceptualObject.html" target="_parent">ConceptualObject</a></text>
</g>
<!-- 16&#45;inner&#45;node -->
<!-- 9&#45;&gt;16&#45;inner&#45;node -->
<g id="edge22" class="edge"><path fill="none" stroke="black" d="M471.5,-562.649C471.5,-539.987 471.5,-511.163 471.5,-509.116L471.538,-506.879"/>
<polygon fill="none" stroke="black" points="468,-562.822 471.5,-572.822 475,-562.822 468,-562.822"/>
</g>
<!-- 10 -->
<g id="node10" class="node"><defs>
<linearGradient id="l_15" gradientUnits="userSpaceOnUse" x1="629.5" y1="-573" x2="629.5" y2="-609">
<stop offset="0" style="stop-color:#ffffbb;stop-opacity:1.;"/>
<stop offset="1" style="stop-color:#ffffee;stop-opacity:1.;"/>
</linearGradient>
</defs>
<polygon fill="url(#l_15)" stroke="black" points="701.5,-609 557.5,-609 557.5,-573 701.5,-573 701.5,-609"/>
<text text-anchor="start" x="567.5" y="-589.2" font-family="Arial" font-weight="bold" font-style="italic" font-size="11.00" fill="black"><a fill="navy" href="../reference/Customization/CustomAttributeOwner.html" target="_parent">CustomAttributeOwner</a></text>
</g>
<!-- 48 -->
<g id="node20" class="node"><defs>
<linearGradient id="l_16" gradientUnits="userSpaceOnUse" x1="544.5" y1="-490" x2="544.5" y2="-526">
<stop offset="0" style="stop-color:#ffffbb;stop-opacity:1.;"/>
<stop offset="1" style="stop-color:#ffffee;stop-opacity:1.;"/>
</linearGradient>
</defs>
<polygon fill="url(#l_16)" stroke="black" points="599,-526 490,-526 490,-490 599,-490 599,-526"/>
<text text-anchor="start" x="500.5" y="-506.2" font-family="Arial" font-weight="bold" font-style="italic" font-size="11.00" fill="black"><a fill="navy" href="../reference/Customization/CustomAttribute.html" target="_parent">CustomAttribute</a></text>
</g>
<!-- 10&#45;&gt;48 -->
<g id="edge11" class="edge"><path fill="none" stroke="#000000" d="M552.949,-565.486C550.181,-562.933 547.67,-560.113 545.5,-557 541.402,-551.119 539.944,-543.772 539.815,-536.608"/>
<polygon fill="#000000" stroke="#000000" points="552.998,-565.523 560.196,-565.959 562.563,-572.77 555.365,-572.335 552.998,-565.523"/>
<polygon fill="#000000" stroke="#000000" points="540.425,-526.435 544.319,-536.687 540.126,-531.426 539.827,-536.417 539.827,-536.417 539.827,-536.417 540.126,-531.426 535.335,-536.148 540.425,-526.435 540.425,-526.435"/>
<text text-anchor="start" x="547.5" y="-546.5" font-family="Arial" font-size="10.00" fill="black"><a fill="navy" href="../reference/Customization/CustomAttributeOwner.html#dexpi-customization-customattributeowner-customattributes" target="_parent">CustomAttributes</a></text>
<text text-anchor="start" x="532.425" y="-529.435" font-family="Arial" font-size="10.00" fill="black">*</text>
<text text-anchor="start" x="533.563" y="-562.77" font-family="Arial" font-size="10.00" fill="black">0..1</text>
</g>
<!-- 17&#45;inner&#45;node -->
<!-- 10&#45;&gt;17&#45;inner&#45;node -->
<g id="edge24" class="edge"><path fill="none" stroke="black" d="M629.5,-562.649C629.5,-539.987 629.5,-511.163 629.5,-509.116L629.461,-506.941"/>
<polygon fill="none" stroke="black" points="626,-562.822 629.5,-572.822 633,-562.822 626,-562.822"/>
</g>
<!-- 39 -->
<g id="node17" class="node"><defs>
<linearGradient id="l_17" gradientUnits="userSpaceOnUse" x1="395.5" y1="-490" x2="395.5" y2="-526">
<stop offset="0" style="stop-color:#ffffbb;stop-opacity:1.;"/>
<stop offset="1" style="stop-color:#ffffee;stop-opacity:1.;"/>
</linearGradient>
</defs>
<polygon fill="url(#l_17)" stroke="black" points="452.5,-526 338.5,-526 338.5,-490 452.5,-490 452.5,-526"/>
<text text-anchor="start" x="348.5" y="-506.2" font-family="Arial" font-weight="bold" font-size="11.00" fill="black"><a fill="navy" href="../reference/DexpiModel/ConceptualModel.html" target="_parent">ConceptualModel</a></text>
</g>
<!-- 39&#45;&gt;8 -->
<g id="edge8" class="edge"><path fill="none" stroke="#000000" d="M400.324,-478.016C402.842,-470.86 406.673,-463.862 412.5,-459 444.518,-432.287 465.123,-449.682 510.934,-442.726"/>
<polygon fill="#000000" stroke="#000000" points="400.262,-478.253 402.602,-485.074 397.205,-489.857 394.865,-483.036 400.262,-478.253"/>
<polygon fill="#000000" stroke="#000000" points="520.773,-440.92 511.751,-447.152 515.856,-441.823 510.938,-442.726 510.938,-442.726 510.938,-442.726 515.856,-441.823 510.125,-438.3 520.773,-440.92 520.773,-440.92"/>
<text text-anchor="start" x="415" y="-463.5" font-family="Arial" font-size="10.00" fill="black"><a fill="navy" href="../reference/DexpiModel/ConceptualModel.html#dexpi-dexpimodel-conceptualmodel-taggedplantitems" target="_parent">TaggedPlantItems</a></text>
<text text-anchor="start" x="512.773" y="-443.92" font-family="Arial" font-size="10.00" fill="black">*</text>
<text text-anchor="start" x="368.205" y="-479.857" font-family="Arial" font-size="10.00" fill="black">0..1</text>
</g>
<!-- 42 -->
<g id="node18" class="node"><defs>
<linearGradient id="l_18" gradientUnits="userSpaceOnUse" x1="368.5" y1="-664.5" x2="368.5" y2="-700.5">
<stop offset="0" style="stop-color:#ffffbb;stop-opacity:1.;"/>
<stop offset="1" style="stop-color:#ffffee;stop-opacity:1.;"/>
</linearGradient>
</defs>
<polygon fill="url(#l_18)" stroke="black" points="443,-700.5 294,-700.5 294,-664.5 443,-664.5 443,-700.5"/>
<text text-anchor="start" x="304.5" y="-680.7" font-family="Arial" font-weight="bold" font-size="11.00" fill="black"><a fill="navy" href="../reference/Graphics/AttributeRepresentation.html" target="_parent">AttributeRepresentation</a></text>
</g>
<!-- 42&#45;&gt;9 -->
<g id="edge9" class="edge"><path fill="none" stroke="#000000" d="M388.359,-664.243C404.176,-650.5 426.493,-631.108 444.024,-615.875"/>
<polygon fill="#000000" stroke="#000000" points="451.702,-609.204 447.105,-619.159 447.927,-612.483 444.153,-615.763 444.153,-615.763 444.153,-615.763 447.927,-612.483 441.201,-612.366 451.702,-609.204 451.702,-609.204"/>
<text text-anchor="start" x="435" y="-629.5" font-family="Arial" font-size="10.00" fill="black"><a fill="navy" href="../reference/Graphics/AttributeRepresentation.html#dexpi-graphics-attributerepresentation-object" target="_parent">Object</a></text>
<text text-anchor="start" x="443.702" y="-612.204" font-family="Arial" font-size="10.00" fill="black"></text>
<text text-anchor="start" x="372.359" y="-654.243" font-family="Arial" font-size="10.00" fill="black">*</text>
</g>
<!-- 45 -->
<g id="node19" class="node"><defs>
<linearGradient id="l_19" gradientUnits="userSpaceOnUse" x1="529.5" y1="-664.5" x2="529.5" y2="-700.5">
<stop offset="0" style="stop-color:#ffffbb;stop-opacity:1.;"/>
<stop offset="1" style="stop-color:#ffffee;stop-opacity:1.;"/>
</linearGradient>
</defs>
<polygon fill="url(#l_19)" stroke="black" points="598,-700.5 461,-700.5 461,-664.5 598,-664.5 598,-700.5"/>
<text text-anchor="start" x="471.5" y="-680.7" font-family="Arial" font-weight="bold" font-size="11.00" fill="black"><a fill="navy" href="../reference/Graphics/RepresentationGroup.html" target="_parent">RepresentationGroup</a></text>
</g>
<!-- 45&#45;&gt;9 -->
<g id="edge10" class="edge"><path fill="none" stroke="#000000" d="M518.317,-664.243C509.812,-651.119 497.968,-632.843 488.322,-617.958"/>
<polygon fill="#000000" stroke="#000000" points="482.649,-609.204 491.863,-615.148 485.368,-613.399 488.087,-617.595 488.087,-617.595 488.087,-617.595 485.368,-613.399 484.311,-620.043 482.649,-609.204 482.649,-609.204"/>
<text text-anchor="start" x="504.5" y="-629.5" font-family="Arial" font-size="10.00" fill="black"><a fill="navy" href="../reference/Graphics/RepresentationGroup.html#dexpi-graphics-representationgroup-represents" target="_parent">Represents</a></text>
<text text-anchor="start" x="474.649" y="-612.204" font-family="Arial" font-size="10.00" fill="black"></text>
<text text-anchor="start" x="502.317" y="-654.243" font-family="Arial" font-size="10.00" fill="black">*</text>
</g>
<!-- 11&#45;inner&#45;node&#45;&gt;0 -->
<g id="edge13" class="edge"><path fill="none" stroke="black" d="M457.5,-68.8566C457.5,-67.1153 457.5,-49.8654 457.5,-36.1372"/>
</g>
<!-- 12&#45;inner&#45;node&#45;&gt;4 -->
<g id="edge15" class="edge"><path fill="none" stroke="black" d="M457.5,-188.951C457.5,-187.604 457.5,-158.522 457.5,-139.135"/>
</g>
<!-- 13&#45;inner&#45;node&#45;&gt;5 -->
<g id="edge17" class="edge"><path fill="none" stroke="black" d="M341.64,-340.884C343.027,-339.739 354.434,-330.38 364.5,-324 383.235,-312.126 405.036,-300.306 422.819,-291.142"/>
</g>
<!-- 14&#45;inner&#45;node&#45;&gt;5 -->
<g id="edge19" class="edge"><path fill="none" stroke="black" d="M457.5,-340.951C457.5,-339.604 457.5,-310.522 457.5,-291.135"/>
</g>
<!-- 15&#45;inner&#45;node&#45;&gt;5 -->
<g id="edge21" class="edge"><path fill="none" stroke="black" d="M575.414,-340.951C573.042,-339.604 521.822,-310.522 487.677,-291.135"/>
</g>
<!-- 16&#45;inner&#45;node&#45;&gt;8 -->
<g id="edge23" class="edge"><path fill="none" stroke="black" d="M471.538,-506.879C471.92,-505.686 475.141,-495.959 480.5,-490 497.92,-470.629 522.388,-454.325 542.129,-443.02"/>
</g>
<!-- 17&#45;inner&#45;node&#45;&gt;8 -->
<g id="edge25" class="edge"><path fill="none" stroke="black" d="M629.461,-506.941C628.318,-505.226 602.391,-466.337 586.898,-443.098"/>
</g>
<!-- 18&#45;inner&#45;node&#45;&gt;8 -->
<g id="edge27" class="edge"><path fill="none" stroke="black" d="M766.362,-506.941C762.318,-505.226 670.615,-466.337 615.817,-443.098"/>
</g>
</g>
</svg>