<!DOCTYPE svg PUBLIC "-//W3C//DTD SVG 1.1//EN" "http://www.w3.org/Graphics/SVG/1.1/DTD/svg11.dtd">
<!-- Generated by graphviz version 2.38.0 (20140413.2041)
 --><!-- Title: G Pages: 1 --><svg xmlns="http://www.w3.org/2000/svg" xmlns:xlink="http://www.w3.org/1999/xlink" width="688pt" height="477pt" viewBox="0.00 0.00 687.50 477.00">
<g id="graph0" class="graph" transform="scale(1 1) rotate(0) translate(4 473)">
<!-- 0 -->
<g id="node1" class="node"><defs>
<linearGradient id="l_0" gradientUnits="userSpaceOnUse" x1="349.5" y1="-83" x2="349.5" y2="-220">
<stop offset="0" style="stop-color:#ffffbb;stop-opacity:1.;"/>
<stop offset="1" style="stop-color:#ffffee;stop-opacity:1.;"/>
</linearGradient>
</defs>
<polygon fill="url(#l_0)" stroke="black" points="577.5,-220 121.5,-220 121.5,-83 577.5,-83 577.5,-220"/>
<text text-anchor="start" x="316" y="-205.7" font-family="Arial" font-weight="bold" font-size="11.00" fill="black">TubeBundle</text>
<text text-anchor="start" x="131.5" y="-181.5" font-family="Arial" font-size="10.00" fill="black"><a fill="navy" href="../reference/Equipment/TubeBundle.html#dexpi-equipment-tubebundle-numberoftubes" target="_parent">NumberOfTubes</a>&#160;:</text>
<text text-anchor="start" x="370.5" y="-181.5" font-family="Arial" font-size="10.00" fill="black"><a fill="navy" href="../reference/DataTypes/NullableInteger.html" target="_parent">NullableInteger</a>&#160;[0..1]</text>
<text text-anchor="start" x="131.5" y="-166.5" font-family="Arial" font-size="10.00" fill="black"><a fill="navy" href="../reference/Equipment/TubeBundle.html#dexpi-equipment-tubebundle-tubelength" target="_parent">TubeLength</a>&#160;:</text>
<text text-anchor="start" x="370.5" y="-166.5" font-family="Arial" font-size="10.00" fill="black"><a fill="navy" href="../reference/PhysicalQuantities/NullableLength.html" target="_parent">NullableLength</a>&#160;[0..1]</text>
<text text-anchor="start" x="131.5" y="-151.5" font-family="Arial" font-size="10.00" fill="black"><a fill="navy" href="../reference/Equipment/TubeBundle.html#dexpi-equipment-tubebundle-tubematerialofconstructioncode" target="_parent">TubeMaterialOfConstructionCode</a>&#160;:</text>
<text text-anchor="start" x="370.5" y="-151.5" font-family="Arial" font-size="10.00" fill="black"><a fill="navy" href="../reference/DataTypes/NullableString.html" target="_parent">NullableString</a>&#160;[0..1]</text>
<text text-anchor="start" x="131.5" y="-136.5" font-family="Arial" font-size="10.00" fill="black"><a fill="navy" href="../reference/Equipment/TubeBundle.html#dexpi-equipment-tubebundle-tubenominaldiameternumericalvaluerepresentation" target="_parent">TubeNominalDiameterNumericalValueRepresentation</a>&#160;:</text>
<text text-anchor="start" x="370.5" y="-136.5" font-family="Arial" font-size="10.00" fill="black"><a fill="navy" href="../reference/DataTypes/NullableString.html" target="_parent">NullableString</a>&#160;[0..1]</text>
<text text-anchor="start" x="131.5" y="-121.5" font-family="Arial" font-size="10.00" fill="black"><a fill="navy" href="../reference/Equipment/TubeBundle.html#dexpi-equipment-tubebundle-tubenominaldiameterrepresentation" target="_parent">TubeNominalDiameterRepresentation</a>&#160;:</text>
<text text-anchor="start" x="370.5" y="-121.5" font-family="Arial" font-size="10.00" fill="black"><a fill="navy" href="../reference/DataTypes/NullableString.html" target="_parent">NullableString</a>&#160;[0..1]</text>
<text text-anchor="start" x="131.5" y="-106.5" font-family="Arial" font-size="10.00" fill="black"><a fill="navy" href="../reference/Equipment/TubeBundle.html#dexpi-equipment-tubebundle-tubenominaldiameterstandard" target="_parent">TubeNominalDiameterStandard</a>&#160;:</text>
<text text-anchor="start" x="370.5" y="-106.5" font-family="Arial" font-size="10.00" fill="black"><a fill="navy" href="../reference/Enumerations/NominalDiameterStandardClassification.html" target="_parent">NominalDiameterStandardClassification</a>&#160;[0..1]</text>
<text text-anchor="start" x="131.5" y="-91.5" font-family="Arial" font-size="10.00" fill="black"><a fill="navy" href="../reference/Equipment/TubeBundle.html#dexpi-equipment-tubebundle-tubenominaldiametertyperepresentation" target="_parent">TubeNominalDiameterTypeRepresentation</a>&#160;:</text>
<text text-anchor="start" x="370.5" y="-91.5" font-family="Arial" font-size="10.00" fill="black"><a fill="navy" href="../reference/DataTypes/NullableString.html" target="_parent">NullableString</a>&#160;[0..1]</text>
<polygon fill="black" stroke="black" points="577.5,-199.5 121.5,-199.5 121.5,-199.5 577.5,-199.5 577.5,-199.5"/>
</g>
<!-- 18 -->
<g id="node4" class="node"><defs>
<linearGradient id="l_1" gradientUnits="userSpaceOnUse" x1="349.5" y1="-1.77636e-014" x2="349.5" y2="-36">
<stop offset="0" style="stop-color:#ffffbb;stop-opacity:1.;"/>
<stop offset="1" style="stop-color:#ffffee;stop-opacity:1.;"/>
</linearGradient>
</defs>
<polygon fill="url(#l_1)" stroke="black" points="384,-36 315,-36 315,-0 384,-0 384,-36"/>
<text text-anchor="start" x="325.5" y="-16.2" font-family="Arial" font-weight="bold" font-size="11.00" fill="black"><a fill="navy" href="../reference/Equipment/Chamber.html" target="_parent">Chamber</a></text>
</g>
<!-- 0&#45;&gt;18 -->
<g id="edge1" class="edge"><path fill="none" stroke="#000000" d="M349.5,-82.824C349.5,-69.933 349.5,-57.1408 349.5,-46.4318"/>
<polygon fill="#000000" stroke="#000000" points="349.5,-36.1091 354,-46.1091 349.5,-41.1091 349.5,-46.1091 349.5,-46.1091 349.5,-46.1091 349.5,-41.1091 345,-46.1092 349.5,-36.1091 349.5,-36.1091"/>
<text text-anchor="start" x="351.5" y="-56.5" font-family="Arial" font-size="10.00" fill="black"><a fill="navy" href="../reference/Equipment/TubeBundle.html#dexpi-equipment-tubebundle-chamber" target="_parent">Chamber</a></text>
<text text-anchor="start" x="328.5" y="-39.1091" font-family="Arial" font-size="10.00" fill="black">0..1</text>
<text text-anchor="start" x="333.5" y="-72.824" font-family="Arial" font-size="10.00" fill="black">*</text>
</g>
<!-- 12 -->
<g id="node2" class="node"><defs>
<linearGradient id="l_2" gradientUnits="userSpaceOnUse" x1="439.5" y1="-350" x2="439.5" y2="-386">
<stop offset="0" style="stop-color:#ffffbb;stop-opacity:1.;"/>
<stop offset="1" style="stop-color:#ffffee;stop-opacity:1.;"/>
</linearGradient>
</defs>
<polygon fill="url(#l_2)" stroke="black" points="497,-386 382,-386 382,-350 497,-350 497,-386"/>
<text text-anchor="start" x="392.5" y="-366.2" font-family="Arial" font-weight="bold" font-style="italic" font-size="11.00" fill="black"><a fill="navy" href="../reference/DexpiModel/ConceptualObject.html" target="_parent">ConceptualObject</a></text>
</g>
<!-- 14&#45;inner&#45;node -->
<!-- 12&#45;&gt;14&#45;inner&#45;node -->
<g id="edge8" class="edge"><path fill="none" stroke="black" d="M439.5,-339.649C439.5,-316.987 439.5,-288.163 439.5,-286.116L439.438,-283.891"/>
<polygon fill="none" stroke="black" points="436,-339.822 439.5,-349.822 443,-339.822 436,-339.822"/>
</g>
<!-- 13 -->
<g id="node3" class="node"><defs>
<linearGradient id="l_3" gradientUnits="userSpaceOnUse" x1="607.5" y1="-350" x2="607.5" y2="-386">
<stop offset="0" style="stop-color:#ffffbb;stop-opacity:1.;"/>
<stop offset="1" style="stop-color:#ffffee;stop-opacity:1.;"/>
</linearGradient>
</defs>
<polygon fill="url(#l_3)" stroke="black" points="679.5,-386 535.5,-386 535.5,-350 679.5,-350 679.5,-386"/>
<text text-anchor="start" x="545.5" y="-366.2" font-family="Arial" font-weight="bold" font-style="italic" font-size="11.00" fill="black"><a fill="navy" href="../reference/Customization/CustomAttributeOwner.html" target="_parent">CustomAttributeOwner</a></text>
</g>
<!-- 36 -->
<g id="node10" class="node"><defs>
<linearGradient id="l_4" gradientUnits="userSpaceOnUse" x1="512.5" y1="-267" x2="512.5" y2="-303">
<stop offset="0" style="stop-color:#ffffbb;stop-opacity:1.;"/>
<stop offset="1" style="stop-color:#ffffee;stop-opacity:1.;"/>
</linearGradient>
</defs>
<polygon fill="url(#l_4)" stroke="black" points="567,-303 458,-303 458,-267 567,-267 567,-303"/>
<text text-anchor="start" x="468.5" y="-283.2" font-family="Arial" font-weight="bold" font-style="italic" font-size="11.00" fill="black"><a fill="navy" href="../reference/Customization/CustomAttribute.html" target="_parent">CustomAttribute</a></text>
</g>
<!-- 13&#45;&gt;36 -->
<g id="edge7" class="edge"><path fill="none" stroke="#000000" d="M533.566,-343.359C529.887,-340.576 526.487,-337.469 523.5,-334 518.571,-328.275 515.734,-320.784 514.132,-313.428"/>
<polygon fill="#000000" stroke="#000000" points="533.776,-343.495 540.986,-343.381 543.865,-349.992 536.655,-350.106 533.776,-343.495"/>
<polygon fill="#000000" stroke="#000000" points="512.601,-303.317 518.548,-312.53 513.35,-308.26 514.098,-313.204 514.098,-313.204 514.098,-313.204 513.35,-308.26 509.649,-313.878 512.601,-303.317 512.601,-303.317"/>
<text text-anchor="start" x="525.5" y="-323.5" font-family="Arial" font-size="10.00" fill="black"><a fill="navy" href="../reference/Customization/CustomAttributeOwner.html#dexpi-customization-customattributeowner-customattributes" target="_parent">CustomAttributes</a></text>
<text text-anchor="start" x="504.601" y="-306.317" font-family="Arial" font-size="10.00" fill="black">*</text>
<text text-anchor="start" x="514.865" y="-339.992" font-family="Arial" font-size="10.00" fill="black">0..1</text>
</g>
<!-- 15&#45;inner&#45;node -->
<!-- 13&#45;&gt;15&#45;inner&#45;node -->
<g id="edge10" class="edge"><path fill="none" stroke="black" d="M607.5,-339.649C607.5,-316.987 607.5,-288.163 607.5,-286.116L607.449,-283.972"/>
<polygon fill="none" stroke="black" points="604,-339.822 607.5,-349.822 611,-339.822 604,-339.822"/>
</g>
<!-- 21 -->
<g id="node5" class="node"><defs>
<linearGradient id="l_5" gradientUnits="userSpaceOnUse" x1="48.5" y1="-267" x2="48.5" y2="-303">
<stop offset="0" style="stop-color:#ffffbb;stop-opacity:1.;"/>
<stop offset="1" style="stop-color:#ffffee;stop-opacity:1.;"/>
</linearGradient>
</defs>
<polygon fill="url(#l_5)" stroke="black" points="97,-303 0,-303 0,-267 97,-267 97,-303"/>
<text text-anchor="start" x="10.5" y="-283.2" font-family="Arial" font-weight="bold" font-size="11.00" fill="black"><a fill="navy" href="../reference/Equipment/ElectricHeater.html" target="_parent">ElectricHeater</a></text>
</g>
<!-- 21&#45;&gt;0 -->
<g id="edge2" class="edge"><path fill="none" stroke="#000000" d="M98.8939,-261.984C123.258,-251.34 154.027,-237.898 185.588,-224.109"/>
<polygon fill="#000000" stroke="#000000" points="98.5383,-262.139 94.6415,-268.207 87.5419,-266.943 91.4387,-260.876 98.5383,-262.139"/>
<polygon fill="#000000" stroke="#000000" points="194.953,-220.018 187.59,-228.145 190.371,-222.02 185.789,-224.022 185.789,-224.022 185.789,-224.022 190.371,-222.02 183.987,-219.898 194.953,-220.018 194.953,-220.018"/>
<text text-anchor="start" x="156.5" y="-240.5" font-family="Arial" font-size="10.00" fill="black"><a fill="navy" href="../reference/Equipment/ElectricHeater.html#dexpi-equipment-electricheater-tubebundle" target="_parent">TubeBundle</a></text>
<text text-anchor="start" x="173.953" y="-223.018" font-family="Arial" font-size="10.00" fill="black">0..1</text>
<text text-anchor="start" x="58.5419" y="-256.943" font-family="Arial" font-size="10.00" fill="black">0..1</text>
</g>
<!-- 24 -->
<g id="node6" class="node"><defs>
<linearGradient id="l_6" gradientUnits="userSpaceOnUse" x1="187.5" y1="-267" x2="187.5" y2="-303">
<stop offset="0" style="stop-color:#ffffbb;stop-opacity:1.;"/>
<stop offset="1" style="stop-color:#ffffee;stop-opacity:1.;"/>
</linearGradient>
</defs>
<polygon fill="url(#l_6)" stroke="black" points="259.5,-303 115.5,-303 115.5,-267 259.5,-267 259.5,-303"/>
<text text-anchor="start" x="125.5" y="-283.2" font-family="Arial" font-weight="bold" font-size="11.00" fill="black"><a fill="navy" href="../reference/Equipment/TubularHeatExchanger.html" target="_parent">TubularHeatExchanger</a></text>
</g>
<!-- 24&#45;&gt;0 -->
<g id="edge3" class="edge"><path fill="none" stroke="#000000" d="M218.137,-259.131C229.814,-249.652 243.807,-238.294 258.241,-226.577"/>
<polygon fill="#000000" stroke="#000000" points="217.996,-259.246 215.858,-266.133 208.679,-266.809 210.816,-259.922 217.996,-259.246"/>
<polygon fill="#000000" stroke="#000000" points="266.294,-220.041 261.366,-229.837 262.412,-223.192 258.53,-226.343 258.53,-226.343 258.53,-226.343 262.412,-223.192 255.694,-222.849 266.294,-220.041 266.294,-220.041"/>
<text text-anchor="start" x="247.5" y="-240.5" font-family="Arial" font-size="10.00" fill="black"><a fill="navy" href="../reference/Equipment/TubularHeatExchanger.html#dexpi-equipment-tubularheatexchanger-tubebundle" target="_parent">TubeBundle</a></text>
<text text-anchor="start" x="245.294" y="-223.041" font-family="Arial" font-size="10.00" fill="black">0..1</text>
<text text-anchor="start" x="179.679" y="-256.809" font-family="Arial" font-size="10.00" fill="black">0..1</text>
</g>
<!-- 27 -->
<g id="node7" class="node"><defs>
<linearGradient id="l_7" gradientUnits="userSpaceOnUse" x1="349.5" y1="-267" x2="349.5" y2="-303">
<stop offset="0" style="stop-color:#ffffbb;stop-opacity:1.;"/>
<stop offset="1" style="stop-color:#ffffee;stop-opacity:1.;"/>
</linearGradient>
</defs>
<polygon fill="url(#l_7)" stroke="black" points="421,-303 278,-303 278,-267 421,-267 421,-303"/>
<text text-anchor="start" x="288.5" y="-283.2" font-family="Arial" font-weight="bold" font-size="11.00" fill="black"><a fill="navy" href="../reference/Equipment/CustomHeatExchanger.html" target="_parent">CustomHeatExchanger</a></text>
</g>
<!-- 27&#45;&gt;0 -->
<g id="edge4" class="edge"><path fill="none" stroke="#000000" d="M349.5,-254.756C349.5,-247.308 349.5,-238.944 349.5,-230.292"/>
<polygon fill="#000000" stroke="#000000" points="349.5,-254.809 353.5,-260.809 349.5,-266.809 345.5,-260.809 349.5,-254.809"/>
<polygon fill="#000000" stroke="#000000" points="349.5,-220.041 354,-230.041 349.5,-225.041 349.5,-230.041 349.5,-230.041 349.5,-230.041 349.5,-225.041 345,-230.041 349.5,-220.041 349.5,-220.041"/>
<text text-anchor="start" x="351.5" y="-240.5" font-family="Arial" font-size="10.00" fill="black"><a fill="navy" href="../reference/Equipment/CustomHeatExchanger.html#dexpi-equipment-customheatexchanger-tubebundle" target="_parent">TubeBundle</a></text>
<text text-anchor="start" x="328.5" y="-223.041" font-family="Arial" font-size="10.00" fill="black">0..1</text>
<text text-anchor="start" x="320.5" y="-256.809" font-family="Arial" font-size="10.00" fill="black">0..1</text>
</g>
<!-- 30 -->
<g id="node8" class="node"><defs>
<linearGradient id="l_8" gradientUnits="userSpaceOnUse" x1="359.5" y1="-433" x2="359.5" y2="-469">
<stop offset="0" style="stop-color:#ffffbb;stop-opacity:1.;"/>
<stop offset="1" style="stop-color:#ffffee;stop-opacity:1.;"/>
</linearGradient>
</defs>
<polygon fill="url(#l_8)" stroke="black" points="434,-469 285,-469 285,-433 434,-433 434,-469"/>
<text text-anchor="start" x="295.5" y="-449.2" font-family="Arial" font-weight="bold" font-size="11.00" fill="black"><a fill="navy" href="../reference/Graphics/AttributeRepresentation.html" target="_parent">AttributeRepresentation</a></text>
</g>
<!-- 30&#45;&gt;12 -->
<g id="edge5" class="edge"><path fill="none" stroke="#000000" d="M376.466,-432.822C387.815,-421.331 402.916,-406.041 415.493,-393.307"/>
<polygon fill="#000000" stroke="#000000" points="422.559,-386.153 418.733,-396.43 419.045,-389.711 415.531,-393.268 415.531,-393.268 415.531,-393.268 419.045,-389.711 412.33,-390.106 422.559,-386.153 422.559,-386.153"/>
<text text-anchor="start" x="410" y="-406.5" font-family="Arial" font-size="10.00" fill="black"><a fill="navy" href="../reference/Graphics/AttributeRepresentation.html#dexpi-graphics-attributerepresentation-object" target="_parent">Object</a></text>
<text text-anchor="start" x="414.559" y="-389.153" font-family="Arial" font-size="10.00" fill="black"></text>
<text text-anchor="start" x="360.466" y="-422.822" font-family="Arial" font-size="10.00" fill="black">*</text>
</g>
<!-- 33 -->
<g id="node9" class="node"><defs>
<linearGradient id="l_9" gradientUnits="userSpaceOnUse" x1="520.5" y1="-433" x2="520.5" y2="-469">
<stop offset="0" style="stop-color:#ffffbb;stop-opacity:1.;"/>
<stop offset="1" style="stop-color:#ffffee;stop-opacity:1.;"/>
</linearGradient>
</defs>
<polygon fill="url(#l_9)" stroke="black" points="589,-469 452,-469 452,-433 589,-433 589,-469"/>
<text text-anchor="start" x="462.5" y="-449.2" font-family="Arial" font-weight="bold" font-size="11.00" fill="black"><a fill="navy" href="../reference/Graphics/RepresentationGroup.html" target="_parent">RepresentationGroup</a></text>
</g>
<!-- 33&#45;&gt;12 -->
<g id="edge6" class="edge"><path fill="none" stroke="#000000" d="M503.322,-432.822C491.831,-421.331 476.541,-406.041 463.807,-393.307"/>
<polygon fill="#000000" stroke="#000000" points="456.653,-386.153 466.906,-390.042 460.189,-389.689 463.724,-393.224 463.724,-393.224 463.724,-393.224 460.189,-389.689 460.542,-396.406 456.653,-386.153 456.653,-386.153"/>
<text text-anchor="start" x="489.5" y="-406.5" font-family="Arial" font-size="10.00" fill="black"><a fill="navy" href="../reference/Graphics/RepresentationGroup.html#dexpi-graphics-representationgroup-represents" target="_parent">Represents</a></text>
<text text-anchor="start" x="448.653" y="-389.153" font-family="Arial" font-size="10.00" fill="black"></text>
<text text-anchor="start" x="487.322" y="-422.822" font-family="Arial" font-size="10.00" fill="black">*</text>
</g>
<!-- 14&#45;inner&#45;node&#45;&gt;0 -->
<g id="edge9" class="edge"><path fill="none" stroke="black" d="M439.438,-283.891C438.828,-282.816 433.812,-273.996 429.5,-267 419.957,-251.517 409.14,-235.279 398.613,-220.056"/>
</g>
<!-- 15&#45;inner&#45;node&#45;&gt;0 -->
<g id="edge11" class="edge"><path fill="none" stroke="black" d="M607.449,-283.972C606.397,-283.403 589.348,-274.186 575.5,-267 545.926,-251.655 514.066,-235.365 483.863,-220.035"/>
</g>
</g>
</svg>