<!DOCTYPE svg PUBLIC "-//W3C//DTD SVG 1.1//EN" "http://www.w3.org/Graphics/SVG/1.1/DTD/svg11.dtd">
<!-- Generated by graphviz version 2.38.0 (20140413.2041)
 --><!-- Title: G Pages: 1 --><svg xmlns="http://www.w3.org/2000/svg" xmlns:xlink="http://www.w3.org/1999/xlink" width="867pt" height="860pt" viewBox="0.00 0.00 866.50 860.00">
<g id="graph0" class="graph" transform="scale(1 1) rotate(0) translate(4 856)">
<!-- 0 -->
<g id="node1" class="node"><defs>
<linearGradient id="l_0" gradientUnits="userSpaceOnUse" x1="457.5" y1="-83" x2="457.5" y2="-130">
<stop offset="0" style="stop-color:#ffffbb;stop-opacity:1.;"/>
<stop offset="1" style="stop-color:#ffffee;stop-opacity:1.;"/>
</linearGradient>
</defs>
<polygon fill="url(#l_0)" stroke="black" points="558,-130 357,-130 357,-83 558,-83 558,-130"/>
<text text-anchor="start" x="396" y="-115.7" font-family="Arial" font-weight="bold" font-size="11.00" fill="black">TubularHeatExchanger</text>
<text text-anchor="start" x="367.5" y="-91.5" font-family="Arial" font-size="10.00" fill="black"><a fill="navy" href="../reference/Equipment/TubularHeatExchanger.html#dexpi-equipment-tubularheatexchanger-temastandardtype" target="_parent">TemaStandardType</a>&#160;:</text>
<text text-anchor="start" x="462.5" y="-91.5" font-family="Arial" font-size="10.00" fill="black"><a fill="navy" href="../reference/DataTypes/NullableString.html" target="_parent">NullableString</a>&#160;[0..1]</text>
<polygon fill="black" stroke="black" points="558.0,-109.5 357.0,-109.5 357.0,-109.5 558.0,-109.5 558.0,-109.5"/>
</g>
<!-- 23 -->
<g id="node11" class="node"><defs>
<linearGradient id="l_1" gradientUnits="userSpaceOnUse" x1="457.5" y1="-1.77636e-014" x2="457.5" y2="-36">
<stop offset="0" style="stop-color:#ffffbb;stop-opacity:1.;"/>
<stop offset="1" style="stop-color:#ffffee;stop-opacity:1.;"/>
</linearGradient>
</defs>
<polygon fill="url(#l_1)" stroke="black" points="501,-36 414,-36 414,-0 501,-0 501,-36"/>
<text text-anchor="start" x="424.5" y="-16.2" font-family="Arial" font-weight="bold" font-size="11.00" fill="black"><a fill="navy" href="../reference/Equipment/TubeBundle.html" target="_parent">TubeBundle</a></text>
</g>
<!-- 0&#45;&gt;23 -->
<g id="edge2" class="edge"><path fill="none" stroke="#000000" d="M457.5,-70.4403C457.5,-62.3961 457.5,-53.9596 457.5,-46.2994"/>
<polygon fill="#000000" stroke="#000000" points="457.5,-70.7731 461.5,-76.7732 457.5,-82.7731 453.5,-76.7731 457.5,-70.7731"/>
<polygon fill="#000000" stroke="#000000" points="457.5,-36.109 462,-46.1089 457.5,-41.109 457.5,-46.109 457.5,-46.109 457.5,-46.109 457.5,-41.109 453,-46.109 457.5,-36.109 457.5,-36.109"/>
<text text-anchor="start" x="459.5" y="-56.5" font-family="Arial" font-size="10.00" fill="black"><a fill="navy" href="../reference/Equipment/TubularHeatExchanger.html#dexpi-equipment-tubularheatexchanger-tubebundle" target="_parent">TubeBundle</a></text>
<text text-anchor="start" x="436.5" y="-39.109" font-family="Arial" font-size="10.00" fill="black">0..1</text>
<text text-anchor="start" x="428.5" y="-72.7731" font-family="Arial" font-size="10.00" fill="black">0..1</text>
</g>
<!-- 4 -->
<g id="node2" class="node"><defs>
<linearGradient id="l_2" gradientUnits="userSpaceOnUse" x1="766.5" y1="-799" x2="766.5" y2="-852">
<stop offset="0" style="stop-color:#fbfbfb;stop-opacity:1.;"/>
<stop offset="1" style="stop-color:#fefefe;stop-opacity:1.;"/>
</linearGradient>
</defs>
<polygon fill="url(#l_2)" stroke="black" points="858.5,-841.0 847.5,-852.0 674.5,-852.0 674.5,-799.0 858.5,-799.0"/><path d="M858.5,-841.0L847.5,-841.0 847.5,-852.0" fill="none" stroke="black"/>
<text text-anchor="start" x="684.5" y="-837.5" font-family="Arial" font-size="10.00" fill="black">For&#160;the&#160;sake&#160;of&#160;clarity,&#160;superclasses&#160;</text>
<text text-anchor="start" x="684.5" y="-822.5" font-family="Arial" font-size="10.00" fill="black">and&#160;associations&#160;of&#160;<a fill="navy" href="../reference/PlantStructure/TechnicalItem.html" target="_parent">TechnicalItem</a>&#160;are</text>
<text text-anchor="start" x="684.5" y="-807.5" font-family="Arial" font-size="10.00" fill="black">not&#160;shown&#160;in&#160;this&#160;diagram.</text>
</g>
<!-- 3 -->
<g id="node3" class="node"><defs>
<linearGradient id="l_3" gradientUnits="userSpaceOnUse" x1="766.5" y1="-716" x2="766.5" y2="-752">
<stop offset="0" style="stop-color:#ffffbb;stop-opacity:1.;"/>
<stop offset="1" style="stop-color:#ffffee;stop-opacity:1.;"/>
</linearGradient>
</defs>
<polygon fill="url(#l_3)" stroke="black" points="813,-752 720,-752 720,-716 813,-716 813,-752"/>
<text text-anchor="start" x="730.5" y="-732.2" font-family="Arial" font-weight="bold" font-style="italic" font-size="11.00" fill="black"><a fill="navy" href="../reference/PlantStructure/TechnicalItem.html" target="_parent">TechnicalItem</a></text>
</g>
<!-- 4&#45;&gt;3 -->
<g id="edge1" class="edge"><path fill="none" stroke="#000000" stroke-dasharray="5,2" d="M766.5,-798.613C766.5,-783.641 766.5,-765.222 766.5,-752.063"/>
</g>
<!-- 20&#45;inner&#45;node -->
<!-- 3&#45;&gt;20&#45;inner&#45;node -->
<g id="edge28" class="edge"><path fill="none" stroke="black" d="M766.5,-705.649C766.5,-682.987 766.5,-654.163 766.5,-652.116L766.362,-649.941"/>
<polygon fill="none" stroke="black" points="763,-705.822 766.5,-715.822 770,-705.822 763,-705.822"/>
</g>
<!-- 6 -->
<g id="node4" class="node"><defs>
<linearGradient id="l_4" gradientUnits="userSpaceOnUse" x1="457.5" y1="-246" x2="457.5" y2="-282">
<stop offset="0" style="stop-color:#ffffbb;stop-opacity:1.;"/>
<stop offset="1" style="stop-color:#ffffee;stop-opacity:1.;"/>
</linearGradient>
</defs>
<polygon fill="url(#l_4)" stroke="black" points="508.5,-282 406.5,-282 406.5,-246 508.5,-246 508.5,-282"/>
<text text-anchor="start" x="416.5" y="-262.2" font-family="Arial" font-weight="bold" font-size="11.00" fill="black"><a fill="navy" href="../reference/Equipment/HeatExchanger.html" target="_parent">HeatExchanger</a></text>
</g>
<!-- 26 -->
<g id="node12" class="node"><defs>
<linearGradient id="l_5" gradientUnits="userSpaceOnUse" x1="404.5" y1="-163" x2="404.5" y2="-199">
<stop offset="0" style="stop-color:#ffffbb;stop-opacity:1.;"/>
<stop offset="1" style="stop-color:#ffffee;stop-opacity:1.;"/>
</linearGradient>
</defs>
<polygon fill="url(#l_5)" stroke="black" points="435.5,-199 373.5,-199 373.5,-163 435.5,-163 435.5,-199"/>
<text text-anchor="start" x="383.5" y="-179.2" font-family="Arial" font-weight="bold" font-size="11.00" fill="black"><a fill="navy" href="../reference/Equipment/Agitator.html" target="_parent">Agitator</a></text>
</g>
<!-- 6&#45;&gt;26 -->
<g id="edge3" class="edge"><path fill="none" stroke="#000000" d="M430.004,-245.826C424.508,-241.279 419.274,-235.952 415.5,-230 411.517,-223.718 408.971,-216.162 407.345,-208.924"/>
<polygon fill="#000000" stroke="#000000" points="405.605,-199.068 411.775,-208.134 406.475,-203.992 407.344,-208.916 407.344,-208.916 407.344,-208.916 406.475,-203.992 402.912,-209.698 405.605,-199.068 405.605,-199.068"/>
<text text-anchor="start" x="417.5" y="-219.5" font-family="Arial" font-size="10.00" fill="black"><a fill="navy" href="../reference/Equipment/HeatExchanger.html#dexpi-equipment-heatexchanger-agitator" target="_parent">Agitator</a></text>
<text text-anchor="start" x="384.605" y="-202.068" font-family="Arial" font-size="10.00" fill="black">0..1</text>
<text text-anchor="start" x="401.004" y="-235.826" font-family="Arial" font-size="10.00" fill="black">0..1</text>
</g>
<!-- 13&#45;inner&#45;node -->
<!-- 6&#45;&gt;13&#45;inner&#45;node -->
<g id="edge14" class="edge"><path fill="none" stroke="black" d="M457.5,-235.649C457.5,-212.987 457.5,-184.163 457.5,-182.116L457.5,-179.947"/>
<polygon fill="none" stroke="black" points="454,-235.822 457.5,-245.822 461,-235.822 454,-235.822"/>
</g>
<!-- 7 -->
<g id="node5" class="node"><defs>
<linearGradient id="l_6" gradientUnits="userSpaceOnUse" x1="457.5" y1="-398" x2="457.5" y2="-434">
<stop offset="0" style="stop-color:#ffffbb;stop-opacity:1.;"/>
<stop offset="1" style="stop-color:#ffffee;stop-opacity:1.;"/>
</linearGradient>
</defs>
<polygon fill="url(#l_6)" stroke="black" points="496.5,-434 418.5,-434 418.5,-398 496.5,-398 496.5,-434"/>
<text text-anchor="start" x="428.5" y="-414.2" font-family="Arial" font-weight="bold" font-style="italic" font-size="11.00" fill="black"><a fill="navy" href="../reference/Equipment/Equipment.html" target="_parent">Equipment</a></text>
</g>
<!-- 29 -->
<g id="node13" class="node"><defs>
<linearGradient id="l_7" gradientUnits="userSpaceOnUse" x1="51.5" y1="-315" x2="51.5" y2="-351">
<stop offset="0" style="stop-color:#ffffbb;stop-opacity:1.;"/>
<stop offset="1" style="stop-color:#ffffee;stop-opacity:1.;"/>
</linearGradient>
</defs>
<polygon fill="url(#l_7)" stroke="black" points="103,-351 0,-351 0,-315 103,-315 103,-351"/>
<text text-anchor="start" x="10.5" y="-331.2" font-family="Arial" font-weight="bold" font-size="11.00" fill="black"><a fill="navy" href="../reference/Equipment/DryingChamber.html" target="_parent">DryingChamber</a></text>
</g>
<!-- 7&#45;&gt;29 -->
<g id="edge4" class="edge"><path fill="none" stroke="#000000" d="M406.027,-415.446C342.858,-414.672 233.105,-409.013 143.5,-382 123.707,-376.033 103.174,-365.771 86.54,-356.264"/>
<polygon fill="#000000" stroke="#000000" points="406.398,-415.449 412.429,-411.495 418.398,-415.542 412.367,-419.495 406.398,-415.449"/>
<polygon fill="#000000" stroke="#000000" points="77.7299,-351.091 88.6319,-352.274 82.0418,-353.623 86.3536,-356.154 86.3536,-356.154 86.3536,-356.154 82.0418,-353.623 84.0753,-360.035 77.7299,-351.091 77.7299,-351.091"/>
<text text-anchor="start" x="146" y="-371.5" font-family="Arial" font-size="10.00" fill="black"><a fill="navy" href="../reference/Equipment/Equipment.html#dexpi-equipment-equipment-dryingchambers" target="_parent">DryingChambers</a></text>
<text text-anchor="start" x="69.7299" y="-354.091" font-family="Arial" font-size="10.00" fill="black">*</text>
<text text-anchor="start" x="389.398" y="-416.542" font-family="Arial" font-size="10.00" fill="black">0..1</text>
</g>
<!-- 32 -->
<g id="node14" class="node"><defs>
<linearGradient id="l_8" gradientUnits="userSpaceOnUse" x1="155.5" y1="-315" x2="155.5" y2="-351">
<stop offset="0" style="stop-color:#ffffbb;stop-opacity:1.;"/>
<stop offset="1" style="stop-color:#ffffee;stop-opacity:1.;"/>
</linearGradient>
</defs>
<polygon fill="url(#l_8)" stroke="black" points="189.5,-351 121.5,-351 121.5,-315 189.5,-315 189.5,-351"/>
<text text-anchor="start" x="131.5" y="-331.2" font-family="Arial" font-weight="bold" font-size="11.00" fill="black"><a fill="navy" href="../reference/Equipment/GearBox.html" target="_parent">GearBox</a></text>
</g>
<!-- 7&#45;&gt;32 -->
<g id="edge5" class="edge"><path fill="none" stroke="#000000" d="M406.201,-409.816C366.621,-404.972 310.82,-396.294 263.5,-382 241.05,-375.218 217.118,-364.924 197.503,-355.606"/>
<polygon fill="#000000" stroke="#000000" points="406.275,-409.824 412.702,-406.553 418.193,-411.227 411.767,-414.498 406.275,-409.824"/>
<polygon fill="#000000" stroke="#000000" points="188.246,-351.129 199.207,-351.432 192.747,-353.306 197.248,-355.483 197.248,-355.483 197.248,-355.483 192.747,-353.306 195.289,-359.534 188.246,-351.129 188.246,-351.129"/>
<text text-anchor="start" x="266" y="-371.5" font-family="Arial" font-size="10.00" fill="black"><a fill="navy" href="../reference/Equipment/Equipment.html#dexpi-equipment-equipment-gearboxes" target="_parent">GearBoxes</a></text>
<text text-anchor="start" x="180.246" y="-354.129" font-family="Arial" font-size="10.00" fill="black">*</text>
<text text-anchor="start" x="389.193" y="-401.227" font-family="Arial" font-size="10.00" fill="black">0..1</text>
</g>
<!-- 35 -->
<g id="node15" class="node"><defs>
<linearGradient id="l_9" gradientUnits="userSpaceOnUse" x1="270.5" y1="-315" x2="270.5" y2="-351">
<stop offset="0" style="stop-color:#ffffbb;stop-opacity:1.;"/>
<stop offset="1" style="stop-color:#ffffee;stop-opacity:1.;"/>
</linearGradient>
</defs>
<polygon fill="url(#l_9)" stroke="black" points="333.5,-351 207.5,-351 207.5,-315 333.5,-315 333.5,-351"/>
<text text-anchor="start" x="217.5" y="-331.2" font-family="Arial" font-weight="bold" font-size="11.00" fill="black"><a fill="navy" href="../reference/Equipment/MotorAsComponent.html" target="_parent">MotorAsComponent</a></text>
</g>
<!-- 7&#45;&gt;35 -->
<g id="edge6" class="edge"><path fill="none" stroke="#000000" d="M406.67,-403.044C387.398,-397.7 365.526,-390.637 346.5,-382 331.23,-375.068 315.388,-365.498 302.145,-356.726"/>
<polygon fill="#000000" stroke="#000000" points="406.692,-403.049 413.521,-400.734 418.285,-406.147 411.456,-408.463 406.692,-403.049"/>
<polygon fill="#000000" stroke="#000000" points="293.85,-351.112 304.654,-352.99 297.991,-353.914 302.132,-356.717 302.132,-356.717 302.132,-356.717 297.991,-353.914 299.61,-360.443 293.85,-351.112 293.85,-351.112"/>
<text text-anchor="start" x="349" y="-371.5" font-family="Arial" font-size="10.00" fill="black"><a fill="navy" href="../reference/Equipment/Equipment.html#dexpi-equipment-equipment-motors" target="_parent">Motors</a></text>
<text text-anchor="start" x="285.85" y="-354.112" font-family="Arial" font-size="10.00" fill="black">*</text>
<text text-anchor="start" x="389.285" y="-396.147" font-family="Arial" font-size="10.00" fill="black">0..1</text>
</g>
<!-- 38 -->
<g id="node16" class="node"><defs>
<linearGradient id="l_10" gradientUnits="userSpaceOnUse" x1="395.5" y1="-315" x2="395.5" y2="-351">
<stop offset="0" style="stop-color:#ffffbb;stop-opacity:1.;"/>
<stop offset="1" style="stop-color:#ffffee;stop-opacity:1.;"/>
</linearGradient>
</defs>
<polygon fill="url(#l_10)" stroke="black" points="439,-351 352,-351 352,-315 439,-315 439,-351"/>
<text text-anchor="start" x="362.5" y="-331.2" font-family="Arial" font-weight="bold" font-size="11.00" fill="black"><a fill="navy" href="../reference/Equipment/SprayNozzle.html" target="_parent">SprayNozzle</a></text>
</g>
<!-- 7&#45;&gt;38 -->
<g id="edge7" class="edge"><path fill="none" stroke="#000000" d="M407.357,-399.548C399.867,-395.067 393.12,-389.33 388.5,-382 384.594,-375.802 384.151,-368.272 385.269,-361.033"/>
<polygon fill="#000000" stroke="#000000" points="407.588,-399.664 414.747,-398.802 418.297,-405.08 411.137,-405.942 407.588,-399.664"/>
<polygon fill="#000000" stroke="#000000" points="387.69,-351.16 389.678,-361.944 386.499,-356.016 385.308,-360.873 385.308,-360.873 385.308,-360.873 386.499,-356.016 380.937,-359.801 387.69,-351.16 387.69,-351.16"/>
<text text-anchor="start" x="391" y="-371.5" font-family="Arial" font-size="10.00" fill="black"><a fill="navy" href="../reference/Equipment/Equipment.html#dexpi-equipment-equipment-spraynozzles" target="_parent">SprayNozzles</a></text>
<text text-anchor="start" x="379.69" y="-354.16" font-family="Arial" font-size="10.00" fill="black">*</text>
<text text-anchor="start" x="406.297" y="-395.08" font-family="Arial" font-size="10.00" fill="black">0..1</text>
</g>
<!-- 14&#45;inner&#45;node -->
<!-- 7&#45;&gt;14&#45;inner&#45;node -->
<g id="edge16" class="edge"><path fill="none" stroke="black" d="M457.5,-387.649C457.5,-364.987 457.5,-336.163 457.5,-334.116L457.5,-331.951"/>
<polygon fill="none" stroke="black" points="454,-387.822 457.5,-397.822 461,-387.822 454,-387.822"/>
</g>
<!-- 8 -->
<g id="node6" class="node"><defs>
<linearGradient id="l_11" gradientUnits="userSpaceOnUse" x1="341.5" y1="-550" x2="341.5" y2="-586">
<stop offset="0" style="stop-color:#ffffbb;stop-opacity:1.;"/>
<stop offset="1" style="stop-color:#ffffee;stop-opacity:1.;"/>
</linearGradient>
</defs>
<polygon fill="url(#l_11)" stroke="black" points="394,-586 289,-586 289,-550 394,-550 394,-586"/>
<text text-anchor="start" x="299.5" y="-566.2" font-family="Arial" font-weight="bold" font-style="italic" font-size="11.00" fill="black"><a fill="navy" href="../reference/Equipment/ChamberOwner.html" target="_parent">ChamberOwner</a></text>
</g>
<!-- 41 -->
<g id="node17" class="node"><defs>
<linearGradient id="l_12" gradientUnits="userSpaceOnUse" x1="277.5" y1="-467" x2="277.5" y2="-503">
<stop offset="0" style="stop-color:#ffffbb;stop-opacity:1.;"/>
<stop offset="1" style="stop-color:#ffffee;stop-opacity:1.;"/>
</linearGradient>
</defs>
<polygon fill="url(#l_12)" stroke="black" points="312,-503 243,-503 243,-467 312,-467 312,-503"/>
<text text-anchor="start" x="253.5" y="-483.2" font-family="Arial" font-weight="bold" font-size="11.00" fill="black"><a fill="navy" href="../reference/Equipment/Chamber.html" target="_parent">Chamber</a></text>
</g>
<!-- 8&#45;&gt;41 -->
<g id="edge8" class="edge"><path fill="none" stroke="#000000" d="M295.598,-542.09C292.972,-539.591 290.565,-536.896 288.5,-534 284.181,-527.945 281.527,-520.461 279.905,-513.22"/>
<polygon fill="#000000" stroke="#000000" points="295.859,-542.3 303.041,-542.955 305.199,-549.835 298.017,-549.181 295.859,-542.3"/>
<polygon fill="#000000" stroke="#000000" points="278.234,-503.318 284.336,-512.43 279.066,-508.248 279.898,-513.179 279.898,-513.179 279.898,-513.179 279.066,-508.248 275.461,-513.928 278.234,-503.318 278.234,-503.318"/>
<text text-anchor="start" x="291" y="-523.5" font-family="Arial" font-size="10.00" fill="black"><a fill="navy" href="../reference/Equipment/ChamberOwner.html#dexpi-equipment-chamberowner-chambers" target="_parent">Chambers</a></text>
<text text-anchor="start" x="270.234" y="-506.318" font-family="Arial" font-size="10.00" fill="black">*</text>
<text text-anchor="start" x="276.199" y="-539.835" font-family="Arial" font-size="10.00" fill="black">0..1</text>
</g>
<!-- 15&#45;inner&#45;node -->
<!-- 8&#45;&gt;15&#45;inner&#45;node -->
<g id="edge18" class="edge"><path fill="none" stroke="black" d="M341.5,-539.649C341.5,-516.987 341.5,-488.163 341.5,-486.116L341.64,-483.884"/>
<polygon fill="none" stroke="black" points="338,-539.822 341.5,-549.822 345,-539.822 338,-539.822"/>
</g>
<!-- 9 -->
<g id="node7" class="node"><defs>
<linearGradient id="l_13" gradientUnits="userSpaceOnUse" x1="457.5" y1="-550" x2="457.5" y2="-586">
<stop offset="0" style="stop-color:#ffffbb;stop-opacity:1.;"/>
<stop offset="1" style="stop-color:#ffffee;stop-opacity:1.;"/>
</linearGradient>
</defs>
<polygon fill="url(#l_13)" stroke="black" points="502.5,-586 412.5,-586 412.5,-550 502.5,-550 502.5,-586"/>
<text text-anchor="start" x="422.5" y="-566.2" font-family="Arial" font-weight="bold" font-style="italic" font-size="11.00" fill="black"><a fill="navy" href="../reference/Equipment/NozzleOwner.html" target="_parent">NozzleOwner</a></text>
</g>
<!-- 44 -->
<g id="node18" class="node"><defs>
<linearGradient id="l_14" gradientUnits="userSpaceOnUse" x1="402.5" y1="-467" x2="402.5" y2="-503">
<stop offset="0" style="stop-color:#ffffbb;stop-opacity:1.;"/>
<stop offset="1" style="stop-color:#ffffee;stop-opacity:1.;"/>
</linearGradient>
</defs>
<polygon fill="url(#l_14)" stroke="black" points="431,-503 374,-503 374,-467 431,-467 431,-503"/>
<text text-anchor="start" x="384.5" y="-483.2" font-family="Arial" font-weight="bold" font-size="11.00" fill="black"><a fill="navy" href="../reference/Equipment/Nozzle.html" target="_parent">Nozzle</a></text>
</g>
<!-- 9&#45;&gt;44 -->
<g id="edge9" class="edge"><path fill="none" stroke="#000000" d="M419.289,-541.384C417.147,-539.056 415.185,-536.592 413.5,-534 409.447,-527.763 406.878,-520.222 405.253,-512.983"/>
<polygon fill="#000000" stroke="#000000" points="419.431,-541.515 426.552,-542.651 428.242,-549.662 421.121,-548.525 419.431,-541.515"/>
<polygon fill="#000000" stroke="#000000" points="403.528,-503.118 409.683,-512.193 404.389,-508.043 405.251,-512.969 405.251,-512.969 405.251,-512.969 404.389,-508.043 400.818,-513.744 403.528,-503.118 403.528,-503.118"/>
<text text-anchor="start" x="415.5" y="-523.5" font-family="Arial" font-size="10.00" fill="black"><a fill="navy" href="../reference/Equipment/NozzleOwner.html#dexpi-equipment-nozzleowner-nozzles" target="_parent">Nozzles</a></text>
<text text-anchor="start" x="395.528" y="-506.118" font-family="Arial" font-size="10.00" fill="black">*</text>
<text text-anchor="start" x="399.242" y="-539.662" font-family="Arial" font-size="10.00" fill="black">0..1</text>
</g>
<!-- 16&#45;inner&#45;node -->
<!-- 9&#45;&gt;16&#45;inner&#45;node -->
<g id="edge20" class="edge"><path fill="none" stroke="black" d="M457.5,-539.649C457.5,-516.987 457.5,-488.163 457.5,-486.116L457.5,-483.951"/>
<polygon fill="none" stroke="black" points="454,-539.822 457.5,-549.822 461,-539.822 454,-539.822"/>
</g>
<!-- 10 -->
<g id="node8" class="node"><defs>
<linearGradient id="l_15" gradientUnits="userSpaceOnUse" x1="575.5" y1="-550" x2="575.5" y2="-586">
<stop offset="0" style="stop-color:#ffffbb;stop-opacity:1.;"/>
<stop offset="1" style="stop-color:#ffffee;stop-opacity:1.;"/>
</linearGradient>
</defs>
<polygon fill="url(#l_15)" stroke="black" points="630,-586 521,-586 521,-550 630,-550 630,-586"/>
<text text-anchor="start" x="531.5" y="-566.2" font-family="Arial" font-weight="bold" font-style="italic" font-size="11.00" fill="black"><a fill="navy" href="../reference/Equipment/TaggedPlantItem.html" target="_parent">TaggedPlantItem</a></text>
</g>
<!-- 17&#45;inner&#45;node -->
<!-- 10&#45;&gt;17&#45;inner&#45;node -->
<g id="edge22" class="edge"><path fill="none" stroke="black" d="M575.5,-539.649C575.5,-516.987 575.5,-488.163 575.5,-486.116L575.414,-483.951"/>
<polygon fill="none" stroke="black" points="572,-539.822 575.5,-549.822 579,-539.822 572,-539.822"/>
</g>
<!-- 11 -->
<g id="node9" class="node"><defs>
<linearGradient id="l_16" gradientUnits="userSpaceOnUse" x1="471.5" y1="-716" x2="471.5" y2="-752">
<stop offset="0" style="stop-color:#ffffbb;stop-opacity:1.;"/>
<stop offset="1" style="stop-color:#ffffee;stop-opacity:1.;"/>
</linearGradient>
</defs>
<polygon fill="url(#l_16)" stroke="black" points="529,-752 414,-752 414,-716 529,-716 529,-752"/>
<text text-anchor="start" x="424.5" y="-732.2" font-family="Arial" font-weight="bold" font-style="italic" font-size="11.00" fill="black"><a fill="navy" href="../reference/DexpiModel/ConceptualObject.html" target="_parent">ConceptualObject</a></text>
</g>
<!-- 18&#45;inner&#45;node -->
<!-- 11&#45;&gt;18&#45;inner&#45;node -->
<g id="edge24" class="edge"><path fill="none" stroke="black" d="M471.5,-705.649C471.5,-682.987 471.5,-654.163 471.5,-652.116L471.538,-649.879"/>
<polygon fill="none" stroke="black" points="468,-705.822 471.5,-715.822 475,-705.822 468,-705.822"/>
</g>
<!-- 12 -->
<g id="node10" class="node"><defs>
<linearGradient id="l_17" gradientUnits="userSpaceOnUse" x1="629.5" y1="-716" x2="629.5" y2="-752">
<stop offset="0" style="stop-color:#ffffbb;stop-opacity:1.;"/>
<stop offset="1" style="stop-color:#ffffee;stop-opacity:1.;"/>
</linearGradient>
</defs>
<polygon fill="url(#l_17)" stroke="black" points="701.5,-752 557.5,-752 557.5,-716 701.5,-716 701.5,-752"/>
<text text-anchor="start" x="567.5" y="-732.2" font-family="Arial" font-weight="bold" font-style="italic" font-size="11.00" fill="black"><a fill="navy" href="../reference/Customization/CustomAttributeOwner.html" target="_parent">CustomAttributeOwner</a></text>
</g>
<!-- 56 -->
<g id="node22" class="node"><defs>
<linearGradient id="l_18" gradientUnits="userSpaceOnUse" x1="544.5" y1="-633" x2="544.5" y2="-669">
<stop offset="0" style="stop-color:#ffffbb;stop-opacity:1.;"/>
<stop offset="1" style="stop-color:#ffffee;stop-opacity:1.;"/>
</linearGradient>
</defs>
<polygon fill="url(#l_18)" stroke="black" points="599,-669 490,-669 490,-633 599,-633 599,-669"/>
<text text-anchor="start" x="500.5" y="-649.2" font-family="Arial" font-weight="bold" font-style="italic" font-size="11.00" fill="black"><a fill="navy" href="../reference/Customization/CustomAttribute.html" target="_parent">CustomAttribute</a></text>
</g>
<!-- 12&#45;&gt;56 -->
<g id="edge13" class="edge"><path fill="none" stroke="#000000" d="M552.949,-708.486C550.181,-705.933 547.67,-703.113 545.5,-700 541.402,-694.119 539.944,-686.772 539.815,-679.608"/>
<polygon fill="#000000" stroke="#000000" points="552.998,-708.523 560.196,-708.959 562.563,-715.77 555.365,-715.335 552.998,-708.523"/>
<polygon fill="#000000" stroke="#000000" points="540.425,-669.435 544.319,-679.687 540.126,-674.426 539.827,-679.417 539.827,-679.417 539.827,-679.417 540.126,-674.426 535.335,-679.148 540.425,-669.435 540.425,-669.435"/>
<text text-anchor="start" x="547.5" y="-689.5" font-family="Arial" font-size="10.00" fill="black"><a fill="navy" href="../reference/Customization/CustomAttributeOwner.html#dexpi-customization-customattributeowner-customattributes" target="_parent">CustomAttributes</a></text>
<text text-anchor="start" x="532.425" y="-672.435" font-family="Arial" font-size="10.00" fill="black">*</text>
<text text-anchor="start" x="533.563" y="-705.77" font-family="Arial" font-size="10.00" fill="black">0..1</text>
</g>
<!-- 19&#45;inner&#45;node -->
<!-- 12&#45;&gt;19&#45;inner&#45;node -->
<g id="edge26" class="edge"><path fill="none" stroke="black" d="M629.5,-705.649C629.5,-682.987 629.5,-654.163 629.5,-652.116L629.461,-649.941"/>
<polygon fill="none" stroke="black" points="626,-705.822 629.5,-715.822 633,-705.822 626,-705.822"/>
</g>
<!-- 47 -->
<g id="node19" class="node"><defs>
<linearGradient id="l_19" gradientUnits="userSpaceOnUse" x1="395.5" y1="-633" x2="395.5" y2="-669">
<stop offset="0" style="stop-color:#ffffbb;stop-opacity:1.;"/>
<stop offset="1" style="stop-color:#ffffee;stop-opacity:1.;"/>
</linearGradient>
</defs>
<polygon fill="url(#l_19)" stroke="black" points="452.5,-669 338.5,-669 338.5,-633 452.5,-633 452.5,-669"/>
<text text-anchor="start" x="348.5" y="-649.2" font-family="Arial" font-weight="bold" font-size="11.00" fill="black"><a fill="navy" href="../reference/DexpiModel/ConceptualModel.html" target="_parent">ConceptualModel</a></text>
</g>
<!-- 47&#45;&gt;10 -->
<g id="edge10" class="edge"><path fill="none" stroke="#000000" d="M400.324,-621.016C402.842,-613.86 406.673,-606.862 412.5,-602 444.518,-575.287 465.123,-592.682 510.934,-585.726"/>
<polygon fill="#000000" stroke="#000000" points="400.262,-621.253 402.602,-628.074 397.205,-632.857 394.865,-626.036 400.262,-621.253"/>
<polygon fill="#000000" stroke="#000000" points="520.773,-583.92 511.751,-590.152 515.856,-584.823 510.938,-585.726 510.938,-585.726 510.938,-585.726 515.856,-584.823 510.125,-581.3 520.773,-583.92 520.773,-583.92"/>
<text text-anchor="start" x="415" y="-606.5" font-family="Arial" font-size="10.00" fill="black"><a fill="navy" href="../reference/DexpiModel/ConceptualModel.html#dexpi-dexpimodel-conceptualmodel-taggedplantitems" target="_parent">TaggedPlantItems</a></text>
<text text-anchor="start" x="512.773" y="-586.92" font-family="Arial" font-size="10.00" fill="black">*</text>
<text text-anchor="start" x="368.205" y="-622.857" font-family="Arial" font-size="10.00" fill="black">0..1</text>
</g>
<!-- 50 -->
<g id="node20" class="node"><defs>
<linearGradient id="l_20" gradientUnits="userSpaceOnUse" x1="368.5" y1="-807.5" x2="368.5" y2="-843.5">
<stop offset="0" style="stop-color:#ffffbb;stop-opacity:1.;"/>
<stop offset="1" style="stop-color:#ffffee;stop-opacity:1.;"/>
</linearGradient>
</defs>
<polygon fill="url(#l_20)" stroke="black" points="443,-843.5 294,-843.5 294,-807.5 443,-807.5 443,-843.5"/>
<text text-anchor="start" x="304.5" y="-823.7" font-family="Arial" font-weight="bold" font-size="11.00" fill="black"><a fill="navy" href="../reference/Graphics/AttributeRepresentation.html" target="_parent">AttributeRepresentation</a></text>
</g>
<!-- 50&#45;&gt;11 -->
<g id="edge11" class="edge"><path fill="none" stroke="#000000" d="M388.359,-807.243C404.176,-793.5 426.493,-774.108 444.024,-758.875"/>
<polygon fill="#000000" stroke="#000000" points="451.702,-752.204 447.105,-762.159 447.927,-755.483 444.153,-758.763 444.153,-758.763 444.153,-758.763 447.927,-755.483 441.201,-755.366 451.702,-752.204 451.702,-752.204"/>
<text text-anchor="start" x="435" y="-772.5" font-family="Arial" font-size="10.00" fill="black"><a fill="navy" href="../reference/Graphics/AttributeRepresentation.html#dexpi-graphics-attributerepresentation-object" target="_parent">Object</a></text>
<text text-anchor="start" x="443.702" y="-755.204" font-family="Arial" font-size="10.00" fill="black"></text>
<text text-anchor="start" x="372.359" y="-797.243" font-family="Arial" font-size="10.00" fill="black">*</text>
</g>
<!-- 53 -->
<g id="node21" class="node"><defs>
<linearGradient id="l_21" gradientUnits="userSpaceOnUse" x1="529.5" y1="-807.5" x2="529.5" y2="-843.5">
<stop offset="0" style="stop-color:#ffffbb;stop-opacity:1.;"/>
<stop offset="1" style="stop-color:#ffffee;stop-opacity:1.;"/>
</linearGradient>
</defs>
<polygon fill="url(#l_21)" stroke="black" points="598,-843.5 461,-843.5 461,-807.5 598,-807.5 598,-843.5"/>
<text text-anchor="start" x="471.5" y="-823.7" font-family="Arial" font-weight="bold" font-size="11.00" fill="black"><a fill="navy" href="../reference/Graphics/RepresentationGroup.html" target="_parent">RepresentationGroup</a></text>
</g>
<!-- 53&#45;&gt;11 -->
<g id="edge12" class="edge"><path fill="none" stroke="#000000" d="M518.317,-807.243C509.812,-794.119 497.968,-775.843 488.322,-760.958"/>
<polygon fill="#000000" stroke="#000000" points="482.649,-752.204 491.863,-758.148 485.368,-756.399 488.087,-760.595 488.087,-760.595 488.087,-760.595 485.368,-756.399 484.311,-763.043 482.649,-752.204 482.649,-752.204"/>
<text text-anchor="start" x="504.5" y="-772.5" font-family="Arial" font-size="10.00" fill="black"><a fill="navy" href="../reference/Graphics/RepresentationGroup.html#dexpi-graphics-representationgroup-represents" target="_parent">Represents</a></text>
<text text-anchor="start" x="474.649" y="-755.204" font-family="Arial" font-size="10.00" fill="black"></text>
<text text-anchor="start" x="502.317" y="-797.243" font-family="Arial" font-size="10.00" fill="black">*</text>
</g>
<!-- 13&#45;inner&#45;node&#45;&gt;0 -->
<g id="edge15" class="edge"><path fill="none" stroke="black" d="M457.5,-179.947C457.5,-178.584 457.5,-150.967 457.5,-130.234"/>
</g>
<!-- 14&#45;inner&#45;node&#45;&gt;6 -->
<g id="edge17" class="edge"><path fill="none" stroke="black" d="M457.5,-331.951C457.5,-330.604 457.5,-301.522 457.5,-282.135"/>
</g>
<!-- 15&#45;inner&#45;node&#45;&gt;7 -->
<g id="edge19" class="edge"><path fill="none" stroke="black" d="M341.64,-483.884C343.027,-482.739 354.434,-473.38 364.5,-467 383.235,-455.126 405.036,-443.306 422.819,-434.142"/>
</g>
<!-- 16&#45;inner&#45;node&#45;&gt;7 -->
<g id="edge21" class="edge"><path fill="none" stroke="black" d="M457.5,-483.951C457.5,-482.604 457.5,-453.522 457.5,-434.135"/>
</g>
<!-- 17&#45;inner&#45;node&#45;&gt;7 -->
<g id="edge23" class="edge"><path fill="none" stroke="black" d="M575.414,-483.951C573.042,-482.604 521.822,-453.522 487.677,-434.135"/>
</g>
<!-- 18&#45;inner&#45;node&#45;&gt;10 -->
<g id="edge25" class="edge"><path fill="none" stroke="black" d="M471.538,-649.879C471.92,-648.686 475.141,-638.959 480.5,-633 497.92,-613.629 522.388,-597.325 542.129,-586.02"/>
</g>
<!-- 19&#45;inner&#45;node&#45;&gt;10 -->
<g id="edge27" class="edge"><path fill="none" stroke="black" d="M629.461,-649.941C628.318,-648.226 602.391,-609.337 586.898,-586.098"/>
</g>
<!-- 20&#45;inner&#45;node&#45;&gt;10 -->
<g id="edge29" class="edge"><path fill="none" stroke="black" d="M766.362,-649.941C762.318,-648.226 670.615,-609.337 615.817,-586.098"/>
</g>
</g>
</svg>