<!DOCTYPE svg PUBLIC "-//W3C//DTD SVG 1.1//EN" "http://www.w3.org/Graphics/SVG/1.1/DTD/svg11.dtd">
<!-- Generated by graphviz version 2.38.0 (20140413.2041)
 --><!-- Title: G Pages: 1 --><svg xmlns="http://www.w3.org/2000/svg" xmlns:xlink="http://www.w3.org/1999/xlink" width="117pt" height="189pt" viewBox="0.00 0.00 117.00 189.00">
<g id="graph0" class="graph" transform="scale(1 1) rotate(0) translate(4 185)">
<!-- 0 -->
<g id="node1" class="node"><defs>
<linearGradient id="l_0" gradientUnits="userSpaceOnUse" x1="54.5" y1="-3.55271e-014" x2="54.5" y2="-77">
<stop offset="0" style="stop-color:#ffffbb;stop-opacity:1.;"/>
<stop offset="1" style="stop-color:#ffffee;stop-opacity:1.;"/>
</linearGradient>
</defs>
<polygon fill="url(#l_0)" stroke="black" points="109,-77 0,-77 0,-0 109,-0 109,-77"/>
<text text-anchor="start" x="23" y="-62.5" font-family="Arial" font-size="10.00" fill="black">&lt;&lt;dataType&gt;&gt;</text>
<text text-anchor="start" x="35" y="-47.7" font-family="Arial" font-weight="bold" font-size="11.00" fill="black">Voltage</text>
<text text-anchor="start" x="10.5" y="-23.5" font-family="Arial" font-size="10.00" fill="black"><a fill="navy" href="../reference/PhysicalQuantities/Voltage.html#dexpi-physicalquantities-voltage-unit" target="_parent">Unit</a>&#160;:</text>
<text text-anchor="start" x="45.5" y="-23.5" font-family="Arial" font-size="10.00" fill="black"><a fill="navy" href="../reference/PhysicalQuantities/VoltageUnit.html" target="_parent">VoltageUnit</a>&#160;</text>
<text text-anchor="start" x="10.5" y="-8.5" font-family="Arial" font-size="10.00" fill="black"><a fill="navy" href="../reference/PhysicalQuantities/Voltage.html#dexpi-physicalquantities-voltage-value" target="_parent">Value</a>&#160;:</text>
<text text-anchor="start" x="45.5" y="-8.5" font-family="Arial" font-size="10.00" fill="black"><a fill="navy" href="../reference/DataTypes/Double.html" target="_parent">Double</a>&#160;</text>
<polygon fill="black" stroke="black" points="109.0,-41.5 0.0,-41.5 0.0,-41.5 109.0,-41.5 109.0,-41.5"/>
</g>
<!-- 5 -->
<g id="node2" class="node"><defs>
<linearGradient id="l_1" gradientUnits="userSpaceOnUse" x1="54.5" y1="-142" x2="54.5" y2="-181">
<stop offset="0" style="stop-color:#ffffbb;stop-opacity:1.;"/>
<stop offset="1" style="stop-color:#ffffee;stop-opacity:1.;"/>
</linearGradient>
</defs>
<polygon fill="url(#l_1)" stroke="black" points="106,-181 3,-181 3,-142 106,-142 106,-181"/>
<text text-anchor="start" x="23" y="-166.5" font-family="Arial" font-size="10.00" fill="black">&lt;&lt;dataType&gt;&gt;</text>
<text text-anchor="start" x="13.5" y="-151.7" font-family="Arial" font-weight="bold" font-style="italic" font-size="11.00" fill="black"><a fill="navy" href="../reference/PhysicalQuantities/NullableVoltage.html" target="_parent">NullableVoltage</a></text>
</g>
<!-- 6&#45;inner&#45;node -->
<!-- 5&#45;&gt;6&#45;inner&#45;node -->
<g id="edge1" class="edge"><path fill="none" stroke="black" d="M54.5,-131.92C54.5,-120.959 54.5,-110.85 54.5,-110.051L54.5,-108.95"/>
<polygon fill="none" stroke="black" points="51.0001,-131.982 54.5,-141.982 58.0001,-131.982 51.0001,-131.982"/>
</g>
<!-- 6&#45;inner&#45;node&#45;&gt;0 -->
<g id="edge2" class="edge"><path fill="none" stroke="black" d="M54.5,-108.95C54.5,-107.971 54.5,-92.8959 54.5,-77.0406"/>
</g>
</g>
</svg>