<?xml version="1.0" encoding="UTF-8"?><!DOCTYPE svg PUBLIC "-//W3C//DTD SVG 1.1//EN" "http://www.w3.org/Graphics/SVG/1.1/DTD/svg11.dtd"><svg xmlns="http://www.w3.org/2000/svg" xmlns:xlink="http://www.w3.org/1999/xlink" version="1.1" width="1138px" height="802px" viewBox="-384.5 -224.5 1138 802"><defs/><g><g id="cell-7WvjCOgTsuAiiIqi7jqn-3" layer="Grid"><path d="M 448 576 L 448 -224" fill="none" stroke="#d8d8d8" stroke-opacity="0.2" stroke-miterlimit="10" pointer-events="none"/></g><g id="cell-7WvjCOgTsuAiiIqi7jqn-4" layer="Grid"><path d="M 432 576 L 432 -224" fill="none" stroke="#d8d8d8" stroke-opacity="0.2" stroke-miterlimit="10" pointer-events="none"/></g><g id="cell-7WvjCOgTsuAiiIqi7jqn-5" layer="Grid"><path d="M 416 576 L 416 -224" fill="none" stroke="#0f0f0f" stroke-opacity="0.2" stroke-miterlimit="10" pointer-events="none"/></g><g id="cell-7WvjCOgTsuAiiIqi7jqn-6" layer="Grid"><path d="M 496 576 L 496 -224" fill="none" stroke="#0f0f0f" stroke-opacity="0.2" stroke-miterlimit="10" pointer-events="none"/></g><g id="cell-7WvjCOgTsuAiiIqi7jqn-7" layer="Grid"><path d="M 480 576 L 480 -224" fill="none" stroke="#d8d8d8" stroke-opacity="0.2" stroke-miterlimit="10" pointer-events="none"/></g><g id="cell-7WvjCOgTsuAiiIqi7jqn-8" layer="Grid"><path d="M 464 576 L 464 -224" fill="none" stroke="#d8d8d8" stroke-opacity="0.2" stroke-miterlimit="10" pointer-events="none"/></g><g id="cell-7WvjCOgTsuAiiIqi7jqn-9" layer="Grid"><path d="M 640 576 L 640 -224" fill="none" stroke="#d8d8d8" stroke-opacity="0.2" stroke-miterlimit="10" pointer-events="none"/></g><g id="cell-7WvjCOgTsuAiiIqi7jqn-10" layer="Grid"><path d="M 624 576 L 624 -224" fill="none" stroke="#d8d8d8" stroke-opacity="0.2" stroke-miterlimit="10" pointer-events="none"/></g><g id="cell-7WvjCOgTsuAiiIqi7jqn-11" layer="Grid"><path d="M 608 576 L 608 -224" fill="none" stroke="#d8d8d8" stroke-opacity="0.2" stroke-miterlimit="10" pointer-events="none"/></g><g id="cell-7WvjCOgTsuAiiIqi7jqn-12" layer="Grid"><path d="M 592 576 L 592 -224" fill="none" stroke="#d8d8d8" stroke-opacity="0.2" stroke-miterlimit="10" pointer-events="none"/></g><g id="cell-7WvjCOgTsuAiiIqi7jqn-13" layer="Grid"><path d="M 560 576 L 560 -224" fill="none" stroke="#d8d8d8" stroke-opacity="0.2" stroke-miterlimit="10" pointer-events="none"/></g><g id="cell-7WvjCOgTsuAiiIqi7jqn-14" layer="Grid"><path d="M 544 576 L 544 -224" fill="none" stroke="#d8d8d8" stroke-opacity="0.2" stroke-miterlimit="10" pointer-events="none"/></g><g id="cell-7WvjCOgTsuAiiIqi7jqn-15" layer="Grid"><path d="M 528 576 L 528 -224" fill="none" stroke="#d8d8d8" stroke-opacity="0.2" stroke-miterlimit="10" pointer-events="none"/></g><g id="cell-7WvjCOgTsuAiiIqi7jqn-16" layer="Grid"><path d="M 512 576 L 512 -224" fill="none" stroke="#d8d8d8" stroke-opacity="0.2" stroke-miterlimit="10" pointer-events="none"/></g><g id="cell-7WvjCOgTsuAiiIqi7jqn-17" layer="Grid"><path d="M 576 576 L 576 -224" fill="none" stroke="#0f0f0f" stroke-opacity="0.2" stroke-miterlimit="10" pointer-events="none"/></g><g id="cell-7WvjCOgTsuAiiIqi7jqn-18" layer="Grid"><path d="M 656 576 L 656 -224" fill="none" stroke="#0f0f0f" stroke-opacity="0.2" stroke-miterlimit="10" pointer-events="none"/></g><g id="cell-7WvjCOgTsuAiiIqi7jqn-19" layer="Grid"><path d="M 736 576 L 736 -224" fill="none" stroke="#0f0f0f" stroke-opacity="0.2" stroke-miterlimit="10" pointer-events="none"/></g><g id="cell-7WvjCOgTsuAiiIqi7jqn-20" layer="Grid"><path d="M 720 576 L 720 -224" fill="none" stroke="#d8d8d8" stroke-opacity="0.2" stroke-miterlimit="10" pointer-events="none"/></g><g id="cell-7WvjCOgTsuAiiIqi7jqn-21" layer="Grid"><path d="M 704 576 L 704 -224" fill="none" stroke="#d8d8d8" stroke-opacity="0.2" stroke-miterlimit="10" pointer-events="none"/></g><g id="cell-7WvjCOgTsuAiiIqi7jqn-22" layer="Grid"><path d="M 672 576 L 672 -224" fill="none" stroke="#d8d8d8" stroke-opacity="0.2" stroke-miterlimit="10" pointer-events="none"/></g><g id="cell-7WvjCOgTsuAiiIqi7jqn-23" layer="Grid"><path d="M 688 576 L 688 -224" fill="none" stroke="#d8d8d8" stroke-opacity="0.2" stroke-miterlimit="10" pointer-events="none"/></g><g id="cell-7WvjCOgTsuAiiIqi7jqn-24" layer="Grid"><path d="M 192 -224 L 192 576" fill="none" stroke="#d8d8d8" stroke-opacity="0.2" stroke-miterlimit="10" pointer-events="none"/></g><g id="cell-7WvjCOgTsuAiiIqi7jqn-25" layer="Grid"><path d="M 176 -224 L 176 576" fill="none" stroke="#0f0f0f" stroke-opacity="0.2" stroke-miterlimit="10" pointer-events="none"/></g><g id="cell-7WvjCOgTsuAiiIqi7jqn-26" layer="Grid"><path d="M 160 -224 L 160 576" fill="none" stroke="#d8d8d8" stroke-opacity="0.2" stroke-miterlimit="10" pointer-events="none"/></g><g id="cell-7WvjCOgTsuAiiIqi7jqn-27" layer="Grid"><path d="M 144 -224 L 144 576" fill="none" stroke="#d8d8d8" stroke-opacity="0.2" stroke-miterlimit="10" pointer-events="none"/></g><g id="cell-7WvjCOgTsuAiiIqi7jqn-28" layer="Grid"><path d="M 112 -224 L 112 576" fill="none" stroke="#d8d8d8" stroke-opacity="0.2" stroke-miterlimit="10" pointer-events="none"/></g><g id="cell-7WvjCOgTsuAiiIqi7jqn-29" layer="Grid"><path d="M 96 -224 L 96 576" fill="none" stroke="#0f0f0f" stroke-opacity="0.2" stroke-miterlimit="10" pointer-events="none"/></g><g id="cell-7WvjCOgTsuAiiIqi7jqn-30" layer="Grid"><path d="M 80 -224 L 80 576" fill="none" stroke="#d8d8d8" stroke-opacity="0.2" stroke-miterlimit="10" pointer-events="none"/></g><g id="cell-7WvjCOgTsuAiiIqi7jqn-31" layer="Grid"><path d="M 64 -224 L 64 576" fill="none" stroke="#d8d8d8" stroke-opacity="0.2" stroke-miterlimit="10" pointer-events="none"/></g><g id="cell-7WvjCOgTsuAiiIqi7jqn-32" layer="Grid"><path d="M 128 -224 L 128 576" fill="none" stroke="#d8d8d8" stroke-opacity="0.2" stroke-miterlimit="10" pointer-events="none"/></g><g id="cell-7WvjCOgTsuAiiIqi7jqn-33" layer="Grid"><path d="M 48 -224 L 48 576" fill="none" stroke="#d8d8d8" stroke-opacity="0.2" stroke-miterlimit="10" pointer-events="none"/></g><g id="cell-7WvjCOgTsuAiiIqi7jqn-34" layer="Grid"><path d="M 32 -224 L 32 576" fill="none" stroke="#d8d8d8" stroke-opacity="0.2" stroke-miterlimit="10" pointer-events="none"/></g><g id="cell-7WvjCOgTsuAiiIqi7jqn-35" layer="Grid"><path d="M 16 -224 L 16 576" fill="none" stroke="#0f0f0f" stroke-opacity="0.2" stroke-miterlimit="10" pointer-events="none"/></g><g id="cell-7WvjCOgTsuAiiIqi7jqn-36" layer="Grid"><path d="M 0 -224 L 0 576" fill="none" stroke="#d8d8d8" stroke-opacity="0.2" stroke-miterlimit="10" pointer-events="none"/></g><g id="cell-7WvjCOgTsuAiiIqi7jqn-37" layer="Grid"><path d="M -32 -224 L -32 576" fill="none" stroke="#d8d8d8" stroke-opacity="0.2" stroke-miterlimit="10" pointer-events="none"/></g><g id="cell-7WvjCOgTsuAiiIqi7jqn-38" layer="Grid"><path d="M -48 -224 L -48 576" fill="none" stroke="#d8d8d8" stroke-opacity="0.2" stroke-miterlimit="10" pointer-events="none"/></g><g id="cell-7WvjCOgTsuAiiIqi7jqn-39" layer="Grid"><path d="M -64 -224 L -64 576" fill="none" stroke="#0f0f0f" stroke-opacity="0.2" stroke-miterlimit="10" pointer-events="none"/></g><g id="cell-7WvjCOgTsuAiiIqi7jqn-40" layer="Grid"><path d="M -80 -224 L -80 576" fill="none" stroke="#d8d8d8" stroke-opacity="0.2" stroke-miterlimit="10" pointer-events="none"/></g><g id="cell-7WvjCOgTsuAiiIqi7jqn-41" layer="Grid"><path d="M -16 -224 L -16 576" fill="none" stroke="#d8d8d8" stroke-opacity="0.2" stroke-miterlimit="10" pointer-events="none"/></g><g id="cell-7WvjCOgTsuAiiIqi7jqn-42" layer="Grid"><path d="M -96 -224 L -96 576" fill="none" stroke="#d8d8d8" stroke-opacity="0.2" stroke-miterlimit="10" pointer-events="none"/></g><g id="cell-7WvjCOgTsuAiiIqi7jqn-43" layer="Grid"><path d="M -112 -224 L -112 576" fill="none" stroke="#d8d8d8" stroke-opacity="0.2" stroke-miterlimit="10" pointer-events="none"/></g><g id="cell-7WvjCOgTsuAiiIqi7jqn-44" layer="Grid"><path d="M -128 -224 L -128 576" fill="none" stroke="#d8d8d8" stroke-opacity="0.2" stroke-miterlimit="10" pointer-events="none"/></g><g id="cell-7WvjCOgTsuAiiIqi7jqn-45" layer="Grid"><path d="M -144 -224 L -144 576" fill="none" stroke="#0f0f0f" stroke-opacity="0.2" stroke-miterlimit="10" pointer-events="none"/></g><g id="cell-7WvjCOgTsuAiiIqi7jqn-46" layer="Grid"><path d="M -176 -224 L -176 576" fill="none" stroke="#d8d8d8" stroke-opacity="0.2" stroke-miterlimit="10" pointer-events="none"/></g><g id="cell-7WvjCOgTsuAiiIqi7jqn-47" layer="Grid"><path d="M -192 -224 L -192 576" fill="none" stroke="#d8d8d8" stroke-opacity="0.2" stroke-miterlimit="10" pointer-events="none"/></g><g id="cell-7WvjCOgTsuAiiIqi7jqn-48" layer="Grid"><path d="M -208 -224 L -208 576" fill="none" stroke="#d8d8d8" stroke-opacity="0.2" stroke-miterlimit="10" pointer-events="none"/></g><g id="cell-7WvjCOgTsuAiiIqi7jqn-49" layer="Grid"><path d="M -224 -224 L -224 576" fill="none" stroke="#0f0f0f" stroke-opacity="0.2" stroke-miterlimit="10" pointer-events="none"/></g><g id="cell-7WvjCOgTsuAiiIqi7jqn-50" layer="Grid"><path d="M -160 -224 L -160 576" fill="none" stroke="#d8d8d8" stroke-opacity="0.2" stroke-miterlimit="10" pointer-events="none"/></g><g id="cell-7WvjCOgTsuAiiIqi7jqn-51" layer="Grid"><path d="M -240 -224 L -240 576" fill="none" stroke="#d8d8d8" stroke-opacity="0.2" stroke-miterlimit="10" pointer-events="none"/></g><g id="cell-7WvjCOgTsuAiiIqi7jqn-52" layer="Grid"><path d="M -256 -224 L -256 576" fill="none" stroke="#d8d8d8" stroke-opacity="0.2" stroke-miterlimit="10" pointer-events="none"/></g><g id="cell-7WvjCOgTsuAiiIqi7jqn-53" layer="Grid"><path d="M -272 -224 L -272 576" fill="none" stroke="#d8d8d8" stroke-opacity="0.2" stroke-miterlimit="10" pointer-events="none"/></g><g id="cell-7WvjCOgTsuAiiIqi7jqn-54" layer="Grid"><path d="M -336 -224 L -336 576" fill="none" stroke="#d8d8d8" stroke-opacity="0.2" stroke-miterlimit="10" pointer-events="none"/></g><g id="cell-7WvjCOgTsuAiiIqi7jqn-55" layer="Grid"><path d="M -320 -224 L -320 576" fill="none" stroke="#d8d8d8" stroke-opacity="0.2" stroke-miterlimit="10" pointer-events="none"/></g><g id="cell-7WvjCOgTsuAiiIqi7jqn-56" layer="Grid"><path d="M -368 -224 L -368 576" fill="none" stroke="#d8d8d8" stroke-opacity="0.2" stroke-miterlimit="10" pointer-events="none"/></g><g id="cell-7WvjCOgTsuAiiIqi7jqn-57" layer="Grid"><path d="M -304 -224 L -304 576" fill="none" stroke="#0f0f0f" stroke-opacity="0.2" stroke-miterlimit="10" pointer-events="none"/></g><g id="cell-7WvjCOgTsuAiiIqi7jqn-58" layer="Grid"><path d="M 240 -224 L 240 576" fill="none" stroke="#d8d8d8" stroke-opacity="0.2" stroke-miterlimit="10" pointer-events="none"/></g><g id="cell-7WvjCOgTsuAiiIqi7jqn-59" layer="Grid"><path d="M 224 -224 L 224 576" fill="none" stroke="#d8d8d8" stroke-opacity="0.2" stroke-miterlimit="10" pointer-events="none"/></g><g id="cell-7WvjCOgTsuAiiIqi7jqn-60" layer="Grid"><path d="M 208 -224 L 208 576" fill="none" stroke="#d8d8d8" stroke-opacity="0.2" stroke-miterlimit="10" pointer-events="none"/></g><g id="cell-7WvjCOgTsuAiiIqi7jqn-61" layer="Grid"><path d="M -288 -224 L -288 576" fill="none" stroke="#d8d8d8" stroke-opacity="0.2" stroke-miterlimit="10" pointer-events="none"/></g><g id="cell-7WvjCOgTsuAiiIqi7jqn-62" layer="Grid"><path d="M -352 -224 L -352 576" fill="none" stroke="#d8d8d8" stroke-opacity="0.2" stroke-miterlimit="10" pointer-events="none"/></g><g id="cell-7WvjCOgTsuAiiIqi7jqn-63" layer="Grid"><path d="M 384 -224 L 384 576" fill="none" stroke="#d8d8d8" stroke-opacity="0.2" stroke-miterlimit="10" pointer-events="none"/></g><g id="cell-7WvjCOgTsuAiiIqi7jqn-64" layer="Grid"><path d="M 368 -224 L 368 576" fill="none" stroke="#d8d8d8" stroke-opacity="0.2" stroke-miterlimit="10" pointer-events="none"/></g><g id="cell-7WvjCOgTsuAiiIqi7jqn-65" layer="Grid"><path d="M 352 -224 L 352 576" fill="none" stroke="#d8d8d8" stroke-opacity="0.2" stroke-miterlimit="10" pointer-events="none"/></g><g id="cell-7WvjCOgTsuAiiIqi7jqn-66" layer="Grid"><path d="M 336 -224 L 336 576" fill="none" stroke="#0f0f0f" stroke-opacity="0.2" stroke-miterlimit="10" pointer-events="none"/></g><g id="cell-7WvjCOgTsuAiiIqi7jqn-67" layer="Grid"><path d="M 304 -224 L 304 576" fill="none" stroke="#d8d8d8" stroke-opacity="0.2" stroke-miterlimit="10" pointer-events="none"/></g><g id="cell-7WvjCOgTsuAiiIqi7jqn-68" layer="Grid"><path d="M 288 -224 L 288 576" fill="none" stroke="#d8d8d8" stroke-opacity="0.2" stroke-miterlimit="10" pointer-events="none"/></g><g id="cell-7WvjCOgTsuAiiIqi7jqn-69" layer="Grid"><path d="M 272 -224 L 272 576" fill="none" stroke="#d8d8d8" stroke-opacity="0.2" stroke-miterlimit="10" pointer-events="none"/></g><g id="cell-7WvjCOgTsuAiiIqi7jqn-70" layer="Grid"><path d="M 256 -224 L 256 576" fill="none" stroke="#0f0f0f" stroke-opacity="0.2" stroke-miterlimit="10" pointer-events="none"/></g><g id="cell-7WvjCOgTsuAiiIqi7jqn-71" layer="Grid"><path d="M 320 -224 L 320 576" fill="none" stroke="#d8d8d8" stroke-opacity="0.2" stroke-miterlimit="10" pointer-events="none"/></g><g id="cell-7WvjCOgTsuAiiIqi7jqn-72" layer="Grid"><path d="M 400 -224 L 400 576" fill="none" stroke="#d8d8d8" stroke-opacity="0.2" stroke-miterlimit="10" pointer-events="none"/></g><g id="cell-7WvjCOgTsuAiiIqi7jqn-73" layer="Grid"><path d="M -384 -176 L 752 -176" fill="none" stroke="#d8d8d8" stroke-opacity="0.2" stroke-miterlimit="10" pointer-events="none"/></g><g id="cell-7WvjCOgTsuAiiIqi7jqn-74" layer="Grid"><path d="M -384 -144 L 752 -144" fill="none" stroke="#7f7f7f" stroke-opacity="0.2" stroke-miterlimit="10" pointer-events="none"/></g><g id="cell-7WvjCOgTsuAiiIqi7jqn-75" layer="Grid"><path d="M -384 -128 L 752 -128" fill="none" stroke="#d8d8d8" stroke-opacity="0.2" stroke-miterlimit="10" pointer-events="none"/></g><g id="cell-7WvjCOgTsuAiiIqi7jqn-76" layer="Grid"><path d="M -384 -112 L 752 -112" fill="none" stroke="#d8d8d8" stroke-opacity="0.2" stroke-miterlimit="10" pointer-events="none"/></g><g id="cell-7WvjCOgTsuAiiIqi7jqn-77" layer="Grid"><path d="M -384 -96 L 752 -96" fill="none" stroke="#d8d8d8" stroke-opacity="0.2" stroke-miterlimit="10" pointer-events="none"/></g><g id="cell-7WvjCOgTsuAiiIqi7jqn-78" layer="Grid"><path d="M -384 -160 L 752 -160" fill="none" stroke="#d8d8d8" stroke-opacity="0.2" stroke-miterlimit="10" pointer-events="none"/></g><g id="cell-7WvjCOgTsuAiiIqi7jqn-79" layer="Grid"><path d="M -384 -80 L 752 -80" fill="none" stroke="#d8d8d8" stroke-opacity="0.2" stroke-miterlimit="10" pointer-events="none"/></g><g id="cell-7WvjCOgTsuAiiIqi7jqn-80" layer="Grid"><path d="M -384 -64 L 752 -64" fill="none" stroke="#7f7f7f" stroke-opacity="0.2" stroke-miterlimit="10" pointer-events="none"/></g><g id="cell-7WvjCOgTsuAiiIqi7jqn-81" layer="Grid"><path d="M -384 -48 L 752 -48" fill="none" stroke="#d8d8d8" stroke-opacity="0.2" stroke-miterlimit="10" pointer-events="none"/></g><g id="cell-7WvjCOgTsuAiiIqi7jqn-82" layer="Grid"><path d="M -384 -32 L 752 -32" fill="none" stroke="#d8d8d8" stroke-opacity="0.2" stroke-miterlimit="10" pointer-events="none"/></g><g id="cell-7WvjCOgTsuAiiIqi7jqn-83" layer="Grid"><path d="M -384 0 L 752 0" fill="none" stroke="#d8d8d8" stroke-opacity="0.2" stroke-miterlimit="10" pointer-events="none"/></g><g id="cell-7WvjCOgTsuAiiIqi7jqn-84" layer="Grid"><path d="M -384 16 L 752 16" fill="none" stroke="#7f7f7f" stroke-opacity="0.2" stroke-miterlimit="10" pointer-events="none"/></g><g id="cell-7WvjCOgTsuAiiIqi7jqn-85" layer="Grid"><path d="M -384 32 L 752 32" fill="none" stroke="#d8d8d8" stroke-opacity="0.2" stroke-miterlimit="10" pointer-events="none"/></g><g id="cell-7WvjCOgTsuAiiIqi7jqn-86" layer="Grid"><path d="M -384 48 L 752 48" fill="none" stroke="#d8d8d8" stroke-opacity="0.2" stroke-miterlimit="10" pointer-events="none"/></g><g id="cell-7WvjCOgTsuAiiIqi7jqn-87" layer="Grid"><path d="M -384 -16 L 752 -16" fill="none" stroke="#d8d8d8" stroke-opacity="0.2" stroke-miterlimit="10" pointer-events="none"/></g><g id="cell-7WvjCOgTsuAiiIqi7jqn-88" layer="Grid"><path d="M -384 64 L 752 64" fill="none" stroke="#d8d8d8" stroke-opacity="0.2" stroke-miterlimit="10" pointer-events="none"/></g><g id="cell-7WvjCOgTsuAiiIqi7jqn-89" layer="Grid"><path d="M -384 80 L 752 80" fill="none" stroke="#d8d8d8" stroke-opacity="0.2" stroke-miterlimit="10" pointer-events="none"/></g><g id="cell-7WvjCOgTsuAiiIqi7jqn-90" layer="Grid"><path d="M -384 96 L 752 96" fill="none" stroke="#7f7f7f" stroke-opacity="0.2" stroke-miterlimit="10" pointer-events="none"/></g><g id="cell-7WvjCOgTsuAiiIqi7jqn-91" layer="Grid"><path d="M -384 112 L 752 112" fill="none" stroke="#d8d8d8" stroke-opacity="0.2" stroke-miterlimit="10" pointer-events="none"/></g><g id="cell-7WvjCOgTsuAiiIqi7jqn-92" layer="Grid"><path d="M -384 144 L 752 144" fill="none" stroke="#d8d8d8" stroke-opacity="0.2" stroke-miterlimit="10" pointer-events="none"/></g><g id="cell-7WvjCOgTsuAiiIqi7jqn-93" layer="Grid"><path d="M -384 160 L 752 160" fill="none" stroke="#d8d8d8" stroke-opacity="0.2" stroke-miterlimit="10" pointer-events="none"/></g><g id="cell-7WvjCOgTsuAiiIqi7jqn-94" layer="Grid"><path d="M -384 176 L 752 176" fill="none" stroke="#7f7f7f" stroke-opacity="0.2" stroke-miterlimit="10" pointer-events="none"/></g><g id="cell-7WvjCOgTsuAiiIqi7jqn-95" layer="Grid"><path d="M -384 192 L 752 192" fill="none" stroke="#d8d8d8" stroke-opacity="0.2" stroke-miterlimit="10" pointer-events="none"/></g><g id="cell-7WvjCOgTsuAiiIqi7jqn-96" layer="Grid"><path d="M -384 128 L 752 128" fill="none" stroke="#d8d8d8" stroke-opacity="0.2" stroke-miterlimit="10" pointer-events="none"/></g><g id="cell-7WvjCOgTsuAiiIqi7jqn-97" layer="Grid"><path d="M -384 208 L 752 208" fill="none" stroke="#d8d8d8" stroke-opacity="0.2" stroke-miterlimit="10" pointer-events="none"/></g><g id="cell-7WvjCOgTsuAiiIqi7jqn-98" layer="Grid"><path d="M -384 224 L 752 224" fill="none" stroke="#d8d8d8" stroke-opacity="0.2" stroke-miterlimit="10" pointer-events="none"/></g><g id="cell-7WvjCOgTsuAiiIqi7jqn-99" layer="Grid"><path d="M -384 240 L 752 240" fill="none" stroke="#d8d8d8" stroke-opacity="0.2" stroke-miterlimit="10" pointer-events="none"/></g><g id="cell-7WvjCOgTsuAiiIqi7jqn-100" layer="Grid"><path d="M -384 256 L 752 256" fill="none" stroke="#7f7f7f" stroke-opacity="0.2" stroke-miterlimit="10" pointer-events="none"/></g><g id="cell-7WvjCOgTsuAiiIqi7jqn-101" layer="Grid"><path d="M -384 288 L 752 288" fill="none" stroke="#d8d8d8" stroke-opacity="0.2" stroke-miterlimit="10" pointer-events="none"/></g><g id="cell-7WvjCOgTsuAiiIqi7jqn-102" layer="Grid"><path d="M -384 304 L 752 304" fill="none" stroke="#d8d8d8" stroke-opacity="0.2" stroke-miterlimit="10" pointer-events="none"/></g><g id="cell-7WvjCOgTsuAiiIqi7jqn-103" layer="Grid"><path d="M -384 320 L 752 320" fill="none" stroke="#d8d8d8" stroke-opacity="0.2" stroke-miterlimit="10" pointer-events="none"/></g><g id="cell-7WvjCOgTsuAiiIqi7jqn-104" layer="Grid"><path d="M -384 336 L 752 336" fill="none" stroke="#7f7f7f" stroke-opacity="0.2" stroke-miterlimit="10" pointer-events="none"/></g><g id="cell-7WvjCOgTsuAiiIqi7jqn-105" layer="Grid"><path d="M -384 272 L 752 272" fill="none" stroke="#d8d8d8" stroke-opacity="0.2" stroke-miterlimit="10" pointer-events="none"/></g><g id="cell-7WvjCOgTsuAiiIqi7jqn-106" layer="Grid"><path d="M -384 352 L 752 352" fill="none" stroke="#d8d8d8" stroke-opacity="0.2" stroke-miterlimit="10" pointer-events="none"/></g><g id="cell-7WvjCOgTsuAiiIqi7jqn-107" layer="Grid"><path d="M -384 368 L 752 368" fill="none" stroke="#d8d8d8" stroke-opacity="0.2" stroke-miterlimit="10" pointer-events="none"/></g><g id="cell-7WvjCOgTsuAiiIqi7jqn-108" layer="Grid"><path d="M -384 384 L 752 384" fill="none" stroke="#d8d8d8" stroke-opacity="0.2" stroke-miterlimit="10" pointer-events="none"/></g><g id="cell-7WvjCOgTsuAiiIqi7jqn-109" layer="Grid"><path d="M -384 400 L 752 400" fill="none" stroke="#d8d8d8" stroke-opacity="0.2" stroke-miterlimit="10" pointer-events="none"/></g><g id="cell-7WvjCOgTsuAiiIqi7jqn-110" layer="Grid"><path d="M -384 432 L 752 432" fill="none" stroke="#d8d8d8" stroke-opacity="0.2" stroke-miterlimit="10" pointer-events="none"/></g><g id="cell-7WvjCOgTsuAiiIqi7jqn-111" layer="Grid"><path d="M -384 448 L 752 448" fill="none" stroke="#d8d8d8" stroke-opacity="0.2" stroke-miterlimit="10" pointer-events="none"/></g><g id="cell-7WvjCOgTsuAiiIqi7jqn-112" layer="Grid"><path d="M -384 464 L 752 464" fill="none" stroke="#d8d8d8" stroke-opacity="0.2" stroke-miterlimit="10" pointer-events="none"/></g><g id="cell-7WvjCOgTsuAiiIqi7jqn-113" layer="Grid"><path d="M -384 480 L 752 480" fill="none" stroke="#d8d8d8" stroke-opacity="0.2" stroke-miterlimit="10" pointer-events="none"/></g><g id="cell-7WvjCOgTsuAiiIqi7jqn-114" layer="Grid"><path d="M -384 416 L 752 416" fill="none" stroke="#7f7f7f" stroke-opacity="0.2" stroke-miterlimit="10" pointer-events="none"/></g><g id="cell-7WvjCOgTsuAiiIqi7jqn-115" layer="Grid"><path d="M -384 496 L 752 496" fill="none" stroke="#7f7f7f" stroke-opacity="0.2" stroke-miterlimit="10" pointer-events="none"/></g><g id="cell-7WvjCOgTsuAiiIqi7jqn-116" layer="Grid"><path d="M -384 512 L 752 512" fill="none" stroke="#d8d8d8" stroke-opacity="0.2" stroke-miterlimit="10" pointer-events="none"/></g><g id="cell-7WvjCOgTsuAiiIqi7jqn-117" layer="Grid"><path d="M -384 528 L 752 528" fill="none" stroke="#d8d8d8" stroke-opacity="0.2" stroke-miterlimit="10" pointer-events="none"/></g><g id="cell-7WvjCOgTsuAiiIqi7jqn-118" layer="Grid"><path d="M -384 544 L 752 544" fill="none" stroke="#d8d8d8" stroke-opacity="0.2" stroke-miterlimit="10" pointer-events="none"/></g><g id="cell-7WvjCOgTsuAiiIqi7jqn-119" layer="Grid"><path d="M -384 560 L 752 560" fill="none" stroke="#d8d8d8" stroke-opacity="0.2" stroke-miterlimit="10" pointer-events="none"/></g><g id="cell-7WvjCOgTsuAiiIqi7jqn-120" layer="Grid"><path d="M -384 -192 L 752 -192" fill="none" stroke="#d8d8d8" stroke-opacity="0.2" stroke-miterlimit="10" pointer-events="none"/></g><g id="cell-7WvjCOgTsuAiiIqi7jqn-121" layer="Grid"><path d="M -384 -208 L 752 -208" fill="none" stroke="#d8d8d8" stroke-opacity="0.2" stroke-miterlimit="10" pointer-events="none"/></g><g id="cell-7WvjCOgTsuAiiIqi7jqn-122" layer="Grid"><path d="M -384 -224 L -384 576" fill="none" stroke="#0f0f0f" stroke-opacity="0.2" stroke-miterlimit="10" pointer-events="none"/></g><g id="cell-7WvjCOgTsuAiiIqi7jqn-123" layer="Grid"><path d="M -384 -224 L 752 -224" fill="none" stroke="#7f7f7f" stroke-opacity="0.2" stroke-miterlimit="10" pointer-events="none"/></g><g id="cell-7WvjCOgTsuAiiIqi7jqn-125" content="&lt;object label=&quot;Connection&quot; PipingConnector=&quot;N&quot; LabelConnector=&quot;N&quot; SignalConnector=&quot;Y&quot; Direction=&quot;270&quot; AuxiliaryConnector=&quot;N&quot;/&gt;" data-label="Connection" data-PipingConnector="N" data-LabelConnector="N" data-SignalConnector="Y" data-Direction="270" data-AuxiliaryConnector="N" layer="Connection"><path d="M -6 -96 C -6 -99.30999755859375 -3.30999755859375 -102 0 -102 C 3.30999755859375 -102 6 -99.30999755859375 6 -96 C 6 -92.69000244140625 3.30999755859375 -90 0 -90 C -3.30999755859375 -90 -6 -92.69000244140625 -6 -96" fill="none" stroke="#008000" stroke-miterlimit="10" pointer-events="none"/></g><g id="cell-7WvjCOgTsuAiiIqi7jqn-126" content="&lt;object label=&quot;Connection&quot; PipingConnector=&quot;Y&quot; LabelConnector=&quot;N&quot; SignalConnector=&quot;Y&quot; Direction=&quot;90&quot; AuxiliaryConnector=&quot;Y&quot;/&gt;" data-label="Connection" data-PipingConnector="Y" data-LabelConnector="N" data-SignalConnector="Y" data-Direction="90" data-AuxiliaryConnector="Y" layer="Connection"><path d="M -6 96 C -6 92.69000244140625 -3.30999755859375 90 0 90 C 3.30999755859375 90 6 92.69000244140625 6 96 C 6 99.30999755859375 3.30999755859375 102 0 102 C -3.30999755859375 102 -6 99.30999755859375 -6 96" fill="none" stroke="#008000" stroke-miterlimit="10" pointer-events="none"/></g><g id="cell-7WvjCOgTsuAiiIqi7jqn-127" content="&lt;object label=&quot;Connection&quot; PipingConnector=&quot;N&quot; LabelConnector=&quot;N&quot; SignalConnector=&quot;Y&quot; Direction=&quot;180&quot; AuxiliaryConnector=&quot;N&quot;/&gt;" data-label="Connection" data-PipingConnector="N" data-LabelConnector="N" data-SignalConnector="Y" data-Direction="180" data-AuxiliaryConnector="N" layer="Connection"><path d="M -102 0 C -102 -3.30999755859375 -99.30999755859375 -6 -96 -6 C -92.69000244140625 -6 -90 -3.30999755859375 -90 0 C -90 3.30999755859375 -92.69000244140625 6 -96 6 C -99.30999755859375 6 -102 3.30999755859375 -102 0" fill="none" stroke="#008000" stroke-miterlimit="10" pointer-events="none"/></g><g id="cell-7WvjCOgTsuAiiIqi7jqn-128" content="&lt;object label=&quot;Connection&quot; PipingConnector=&quot;N&quot; LabelConnector=&quot;N&quot; SignalConnector=&quot;Y&quot; Direction=&quot;0&quot; AuxiliaryConnector=&quot;N&quot;/&gt;" data-label="Connection" data-PipingConnector="N" data-LabelConnector="N" data-SignalConnector="Y" data-Direction="0" data-AuxiliaryConnector="N" layer="Connection"><path d="M 90 0 C 90 -3.30999755859375 92.69000244140625 -6 96 -6 C 99.30999755859375 -6 102 -3.30999755859375 102 0 C 102 3.30999755859375 99.30999755859375 6 96 6 C 92.69000244140625 6 90 3.30999755859375 90 0" fill="none" stroke="#008000" stroke-miterlimit="10" pointer-events="none"/></g><g id="cell-7WvjCOgTsuAiiIqi7jqn-130" content="&lt;object label=&quot;%Dimension%: %Value%%UoM%&quot; Dimension=&quot;H&quot; placeholders=&quot;1&quot; UoM=&quot;mm&quot; Value=&quot;12&quot;/&gt;" data-label="%Dimension%: %Value%%UoM%" data-Dimension="H" data-placeholders="1" data-UoM="mm" data-Value="12" layer="Dimension"><path d="M -360 96 L -306 96 M -311.5 95.5 L -317 84.5 M -311.5 95.5 L -306 84.5 M -311.5 95.5 L -311.5 -95.5 M -360 -96 L -306 -96 M -311.5 -95.5 L -317 -84.5 M -311.5 -95.5 L -306 -84.5" fill="none" stroke="#a6a6a6" stroke-miterlimit="10" pointer-events="none"/><g><text x="68" y="228" fill="#a6a6a6" font-family="Helvetica" font-size="12px" text-anchor="end" transform="translate(-384 -224) translate(-0.5 -0.5)">H: 12mm</text></g></g><g id="cell-7WvjCOgTsuAiiIqi7jqn-131" content="&lt;object label=&quot;%Dimension%: %Value%%UoM%&quot; placeholders=&quot;1&quot; Dimension=&quot;W&quot; UoM=&quot;mm&quot; Value=&quot;12&quot;/&gt;" data-label="%Dimension%: %Value%%UoM%" data-placeholders="1" data-Dimension="W" data-UoM="mm" data-Value="12" layer="Dimension"><path d="M -96 -212 L -96 -174 M -95.5 -179.5 L -84.5 -185 M -95.5 -179.5 L -84.5 -174 M -95.5 -179.5 L 95.5 -179.5 M 96 -212 L 96 -174 M 95.5 -179.5 L 84.5 -185 M 95.5 -179.5 L 84.5 -174" fill="none" stroke="#a6a6a6" stroke-miterlimit="10" pointer-events="none"/><g><text x="385" y="38" fill="#a6a6a6" font-family="Helvetica" font-size="12px" text-anchor="middle" transform="translate(-384 -224) translate(-0.5 -0.5)">W: 12mm</text></g></g><g id="cell-7WvjCOgTsuAiiIqi7jqn-138" content="&lt;object label=&quot;origo&quot;/&gt;" data-label="origo" layer="Origo"><path d="M -6 0 C -6 -3.30999755859375 -3.30999755859375 -6 0 -6 C 3.30999755859375 -6 6 -3.30999755859375 6 0 C 6 3.30999755859375 3.30999755859375 6 0 6 C -3.30999755859375 6 -6 3.30999755859375 -6 0" fill="none" stroke="#ff0000" stroke-miterlimit="10" pointer-events="none"/></g><g id="cell-7WvjCOgTsuAiiIqi7jqn-140" layer="Symbol"><ellipse cx="0" cy="0" rx="96" ry="96" fill="none" stroke="rgb(0, 0, 0)" pointer-events="none" transform="translate(0 0)"/></g><g id="cell-qaj8Vw7mEOWWndM2GKeT-0" layer="Symbol"><path d="M -96 0 L 96 0" fill="none" stroke="rgb(0, 0, 0)" stroke-miterlimit="10" pointer-events="none"/></g></g></svg>