<?xml version="1.0" encoding="UTF-8"?><!DOCTYPE svg PUBLIC "-//W3C//DTD SVG 1.1//EN" "http://www.w3.org/Graphics/SVG/1.1/DTD/svg11.dtd"><svg xmlns="http://www.w3.org/2000/svg" xmlns:xlink="http://www.w3.org/1999/xlink" version="1.1" width="1138px" height="802px" viewBox="-288.53 -128.5 1138 802"><defs/><g><g id="cell-dfkppuf87gNgCVtLxSrG-3" layer="Grid"><path d="M 543.969970703125 672 Q 543.969970703125 672 543.969970703125 -128" fill="none" stroke="#d8d8d8" stroke-opacity="0.2" stroke-miterlimit="10" pointer-events="none"/></g><g id="cell-dfkppuf87gNgCVtLxSrG-4" layer="Grid"><path d="M 527.969970703125 672 Q 527.969970703125 672 527.969970703125 -128" fill="none" stroke="#d8d8d8" stroke-opacity="0.2" stroke-miterlimit="10" pointer-events="none"/></g><g id="cell-dfkppuf87gNgCVtLxSrG-5" layer="Grid"><path d="M 511.9700012207031 672 Q 511.9700012207031 672 511.9700012207031 -128" fill="none" stroke="#0f0f0f" stroke-opacity="0.2" stroke-miterlimit="10" pointer-events="none"/></g><g id="cell-dfkppuf87gNgCVtLxSrG-6" layer="Grid"><path d="M 591.969970703125 672 Q 591.969970703125 672 591.969970703125 -128" fill="none" stroke="#0f0f0f" stroke-opacity="0.2" stroke-miterlimit="10" pointer-events="none"/></g><g id="cell-dfkppuf87gNgCVtLxSrG-7" layer="Grid"><path d="M 575.969970703125 672 Q 575.969970703125 672 575.969970703125 -128" fill="none" stroke="#d8d8d8" stroke-opacity="0.2" stroke-miterlimit="10" pointer-events="none"/></g><g id="cell-dfkppuf87gNgCVtLxSrG-8" layer="Grid"><path d="M 559.969970703125 672 Q 559.969970703125 672 559.969970703125 -128" fill="none" stroke="#d8d8d8" stroke-opacity="0.2" stroke-miterlimit="10" pointer-events="none"/></g><g id="cell-dfkppuf87gNgCVtLxSrG-9" layer="Grid"><path d="M 735.969970703125 672 Q 735.969970703125 672 735.969970703125 -128" fill="none" stroke="#d8d8d8" stroke-opacity="0.2" stroke-miterlimit="10" pointer-events="none"/></g><g id="cell-dfkppuf87gNgCVtLxSrG-10" layer="Grid"><path d="M 719.969970703125 672 Q 719.969970703125 672 719.969970703125 -128" fill="none" stroke="#d8d8d8" stroke-opacity="0.2" stroke-miterlimit="10" pointer-events="none"/></g><g id="cell-dfkppuf87gNgCVtLxSrG-11" layer="Grid"><path d="M 703.969970703125 672 Q 703.969970703125 672 703.969970703125 -128" fill="none" stroke="#d8d8d8" stroke-opacity="0.2" stroke-miterlimit="10" pointer-events="none"/></g><g id="cell-dfkppuf87gNgCVtLxSrG-12" layer="Grid"><path d="M 687.969970703125 672 Q 687.969970703125 672 687.969970703125 -128" fill="none" stroke="#d8d8d8" stroke-opacity="0.2" stroke-miterlimit="10" pointer-events="none"/></g><g id="cell-dfkppuf87gNgCVtLxSrG-13" layer="Grid"><path d="M 655.969970703125 672 Q 655.969970703125 672 655.969970703125 -128" fill="none" stroke="#d8d8d8" stroke-opacity="0.2" stroke-miterlimit="10" pointer-events="none"/></g><g id="cell-dfkppuf87gNgCVtLxSrG-14" layer="Grid"><path d="M 639.969970703125 672 Q 639.969970703125 672 639.969970703125 -128" fill="none" stroke="#d8d8d8" stroke-opacity="0.2" stroke-miterlimit="10" pointer-events="none"/></g><g id="cell-dfkppuf87gNgCVtLxSrG-15" layer="Grid"><path d="M 623.969970703125 672 Q 623.969970703125 672 623.969970703125 -128" fill="none" stroke="#d8d8d8" stroke-opacity="0.2" stroke-miterlimit="10" pointer-events="none"/></g><g id="cell-dfkppuf87gNgCVtLxSrG-16" layer="Grid"><path d="M 607.969970703125 672 Q 607.969970703125 672 607.969970703125 -128" fill="none" stroke="#d8d8d8" stroke-opacity="0.2" stroke-miterlimit="10" pointer-events="none"/></g><g id="cell-dfkppuf87gNgCVtLxSrG-17" layer="Grid"><path d="M 671.969970703125 672 Q 671.969970703125 672 671.969970703125 -128" fill="none" stroke="#0f0f0f" stroke-opacity="0.2" stroke-miterlimit="10" pointer-events="none"/></g><g id="cell-dfkppuf87gNgCVtLxSrG-18" layer="Grid"><path d="M 751.969970703125 672 Q 751.969970703125 672 751.969970703125 -128" fill="none" stroke="#0f0f0f" stroke-opacity="0.2" stroke-miterlimit="10" pointer-events="none"/></g><g id="cell-dfkppuf87gNgCVtLxSrG-19" layer="Grid"><path d="M 831.969970703125 672 Q 831.969970703125 672 831.969970703125 -128" fill="none" stroke="#0f0f0f" stroke-opacity="0.2" stroke-miterlimit="10" pointer-events="none"/></g><g id="cell-dfkppuf87gNgCVtLxSrG-20" layer="Grid"><path d="M 815.969970703125 672 Q 815.969970703125 672 815.969970703125 -128" fill="none" stroke="#d8d8d8" stroke-opacity="0.2" stroke-miterlimit="10" pointer-events="none"/></g><g id="cell-dfkppuf87gNgCVtLxSrG-21" layer="Grid"><path d="M 799.969970703125 672 Q 799.969970703125 672 799.969970703125 -128" fill="none" stroke="#d8d8d8" stroke-opacity="0.2" stroke-miterlimit="10" pointer-events="none"/></g><g id="cell-dfkppuf87gNgCVtLxSrG-22" layer="Grid"><path d="M 767.969970703125 672 Q 767.969970703125 672 767.969970703125 -128" fill="none" stroke="#d8d8d8" stroke-opacity="0.2" stroke-miterlimit="10" pointer-events="none"/></g><g id="cell-dfkppuf87gNgCVtLxSrG-23" layer="Grid"><path d="M 783.969970703125 672 Q 783.969970703125 672 783.969970703125 -128" fill="none" stroke="#d8d8d8" stroke-opacity="0.2" stroke-miterlimit="10" pointer-events="none"/></g><g id="cell-dfkppuf87gNgCVtLxSrG-24" layer="Grid"><path d="M 287.9700012207031 -128 Q 287.9700012207031 -128 287.9700012207031 672" fill="none" stroke="#d8d8d8" stroke-opacity="0.2" stroke-miterlimit="10" pointer-events="none"/></g><g id="cell-dfkppuf87gNgCVtLxSrG-25" layer="Grid"><path d="M 271.9700012207031 -128 Q 271.9700012207031 -128 271.9700012207031 672" fill="none" stroke="#0f0f0f" stroke-opacity="0.2" stroke-miterlimit="10" pointer-events="none"/></g><g id="cell-dfkppuf87gNgCVtLxSrG-26" layer="Grid"><path d="M 255.97000122070312 -128 Q 255.97000122070312 -128 255.97000122070312 672" fill="none" stroke="#d8d8d8" stroke-opacity="0.2" stroke-miterlimit="10" pointer-events="none"/></g><g id="cell-dfkppuf87gNgCVtLxSrG-27" layer="Grid"><path d="M 239.97000122070312 -128 Q 239.97000122070312 -128 239.97000122070312 672" fill="none" stroke="#d8d8d8" stroke-opacity="0.2" stroke-miterlimit="10" pointer-events="none"/></g><g id="cell-dfkppuf87gNgCVtLxSrG-28" layer="Grid"><path d="M 207.97000122070312 -128 Q 207.97000122070312 -128 207.97000122070312 672" fill="none" stroke="#d8d8d8" stroke-opacity="0.2" stroke-miterlimit="10" pointer-events="none"/></g><g id="cell-dfkppuf87gNgCVtLxSrG-29" layer="Grid"><path d="M 191.97000122070312 -128 Q 191.97000122070312 -128 191.97000122070312 672" fill="none" stroke="#0f0f0f" stroke-opacity="0.2" stroke-miterlimit="10" pointer-events="none"/></g><g id="cell-dfkppuf87gNgCVtLxSrG-30" layer="Grid"><path d="M 175.97000122070312 -128 Q 175.97000122070312 -128 175.97000122070312 672" fill="none" stroke="#d8d8d8" stroke-opacity="0.2" stroke-miterlimit="10" pointer-events="none"/></g><g id="cell-dfkppuf87gNgCVtLxSrG-31" layer="Grid"><path d="M 159.97000122070312 -128 Q 159.97000122070312 -128 159.97000122070312 672" fill="none" stroke="#d8d8d8" stroke-opacity="0.2" stroke-miterlimit="10" pointer-events="none"/></g><g id="cell-dfkppuf87gNgCVtLxSrG-32" layer="Grid"><path d="M 223.97000122070312 -128 Q 223.97000122070312 -128 223.97000122070312 672" fill="none" stroke="#d8d8d8" stroke-opacity="0.2" stroke-miterlimit="10" pointer-events="none"/></g><g id="cell-dfkppuf87gNgCVtLxSrG-33" layer="Grid"><path d="M 143.97000122070312 -128 Q 143.97000122070312 -128 143.97000122070312 672" fill="none" stroke="#d8d8d8" stroke-opacity="0.2" stroke-miterlimit="10" pointer-events="none"/></g><g id="cell-dfkppuf87gNgCVtLxSrG-34" layer="Grid"><path d="M 127.97000122070312 -128 Q 127.97000122070312 -128 127.97000122070312 672" fill="none" stroke="#d8d8d8" stroke-opacity="0.2" stroke-miterlimit="10" pointer-events="none"/></g><g id="cell-dfkppuf87gNgCVtLxSrG-35" layer="Grid"><path d="M 111.97000122070312 -128 Q 111.97000122070312 -128 111.97000122070312 672" fill="none" stroke="#0f0f0f" stroke-opacity="0.2" stroke-miterlimit="10" pointer-events="none"/></g><g id="cell-dfkppuf87gNgCVtLxSrG-36" layer="Grid"><path d="M 95.97000122070312 -128 Q 95.97000122070312 -128 95.97000122070312 672" fill="none" stroke="#d8d8d8" stroke-opacity="0.2" stroke-miterlimit="10" pointer-events="none"/></g><g id="cell-dfkppuf87gNgCVtLxSrG-37" layer="Grid"><path d="M 63.970001220703125 -128 Q 63.970001220703125 -128 63.970001220703125 672" fill="none" stroke="#d8d8d8" stroke-opacity="0.2" stroke-miterlimit="10" pointer-events="none"/></g><g id="cell-dfkppuf87gNgCVtLxSrG-38" layer="Grid"><path d="M 47.970001220703125 -128 Q 47.970001220703125 -128 47.970001220703125 672" fill="none" stroke="#d8d8d8" stroke-opacity="0.2" stroke-miterlimit="10" pointer-events="none"/></g><g id="cell-dfkppuf87gNgCVtLxSrG-39" layer="Grid"><path d="M 31.970001220703125 -128 Q 31.970001220703125 -128 31.970001220703125 672" fill="none" stroke="#0f0f0f" stroke-opacity="0.2" stroke-miterlimit="10" pointer-events="none"/></g><g id="cell-dfkppuf87gNgCVtLxSrG-40" layer="Grid"><path d="M 15.970001220703125 -128 Q 15.970001220703125 -128 15.970001220703125 672" fill="none" stroke="#d8d8d8" stroke-opacity="0.2" stroke-miterlimit="10" pointer-events="none"/></g><g id="cell-dfkppuf87gNgCVtLxSrG-41" layer="Grid"><path d="M 79.97000122070312 -128 Q 79.97000122070312 -128 79.97000122070312 672" fill="none" stroke="#d8d8d8" stroke-opacity="0.2" stroke-miterlimit="10" pointer-events="none"/></g><g id="cell-dfkppuf87gNgCVtLxSrG-42" layer="Grid"><path d="M -0.029998779296875 -128 Q -0.029998779296875 -128 -0.029998779296875 672" fill="none" stroke="#d8d8d8" stroke-opacity="0.2" stroke-miterlimit="10" pointer-events="none"/></g><g id="cell-dfkppuf87gNgCVtLxSrG-43" layer="Grid"><path d="M -16.029998779296875 -128 Q -16.029998779296875 -128 -16.029998779296875 672" fill="none" stroke="#d8d8d8" stroke-opacity="0.2" stroke-miterlimit="10" pointer-events="none"/></g><g id="cell-dfkppuf87gNgCVtLxSrG-44" layer="Grid"><path d="M -32.029998779296875 -128 Q -32.029998779296875 -128 -32.029998779296875 672" fill="none" stroke="#d8d8d8" stroke-opacity="0.2" stroke-miterlimit="10" pointer-events="none"/></g><g id="cell-dfkppuf87gNgCVtLxSrG-45" layer="Grid"><path d="M -48.029998779296875 -128 Q -48.029998779296875 -128 -48.029998779296875 672" fill="none" stroke="#0f0f0f" stroke-opacity="0.2" stroke-miterlimit="10" pointer-events="none"/></g><g id="cell-dfkppuf87gNgCVtLxSrG-46" layer="Grid"><path d="M -80.02999877929688 -128 Q -80.02999877929688 -128 -80.02999877929688 672" fill="none" stroke="#d8d8d8" stroke-opacity="0.2" stroke-miterlimit="10" pointer-events="none"/></g><g id="cell-dfkppuf87gNgCVtLxSrG-47" layer="Grid"><path d="M -96.02999877929688 -128 Q -96.02999877929688 -128 -96.02999877929688 672" fill="none" stroke="#d8d8d8" stroke-opacity="0.2" stroke-miterlimit="10" pointer-events="none"/></g><g id="cell-dfkppuf87gNgCVtLxSrG-48" layer="Grid"><path d="M -112.02999877929688 -128 Q -112.02999877929688 -128 -112.02999877929688 672" fill="none" stroke="#d8d8d8" stroke-opacity="0.2" stroke-miterlimit="10" pointer-events="none"/></g><g id="cell-dfkppuf87gNgCVtLxSrG-49" layer="Grid"><path d="M -128.02999877929688 -128 Q -128.02999877929688 -128 -128.02999877929688 672" fill="none" stroke="#0f0f0f" stroke-opacity="0.2" stroke-miterlimit="10" pointer-events="none"/></g><g id="cell-dfkppuf87gNgCVtLxSrG-50" layer="Grid"><path d="M -64.02999877929688 -128 Q -64.02999877929688 -128 -64.02999877929688 672" fill="none" stroke="#d8d8d8" stroke-opacity="0.2" stroke-miterlimit="10" pointer-events="none"/></g><g id="cell-dfkppuf87gNgCVtLxSrG-51" layer="Grid"><path d="M -144.02999877929688 -128 Q -144.02999877929688 -128 -144.02999877929688 672" fill="none" stroke="#d8d8d8" stroke-opacity="0.2" stroke-miterlimit="10" pointer-events="none"/></g><g id="cell-dfkppuf87gNgCVtLxSrG-52" layer="Grid"><path d="M -160.02999877929688 -128 Q -160.02999877929688 -128 -160.02999877929688 672" fill="none" stroke="#d8d8d8" stroke-opacity="0.2" stroke-miterlimit="10" pointer-events="none"/></g><g id="cell-dfkppuf87gNgCVtLxSrG-53" layer="Grid"><path d="M -176.02999877929688 -128 Q -176.02999877929688 -128 -176.02999877929688 672" fill="none" stroke="#d8d8d8" stroke-opacity="0.2" stroke-miterlimit="10" pointer-events="none"/></g><g id="cell-dfkppuf87gNgCVtLxSrG-54" layer="Grid"><path d="M -240.02999877929688 -128 Q -240.02999877929688 -128 -240.02999877929688 672" fill="none" stroke="#d8d8d8" stroke-opacity="0.2" stroke-miterlimit="10" pointer-events="none"/></g><g id="cell-dfkppuf87gNgCVtLxSrG-55" layer="Grid"><path d="M -224.02999877929688 -128 Q -224.02999877929688 -128 -224.02999877929688 672" fill="none" stroke="#d8d8d8" stroke-opacity="0.2" stroke-miterlimit="10" pointer-events="none"/></g><g id="cell-dfkppuf87gNgCVtLxSrG-56" layer="Grid"><path d="M -272.0299987792969 -128 Q -272.0299987792969 -128 -272.0299987792969 672" fill="none" stroke="#d8d8d8" stroke-opacity="0.2" stroke-miterlimit="10" pointer-events="none"/></g><g id="cell-dfkppuf87gNgCVtLxSrG-57" layer="Grid"><path d="M -208.02999877929688 -128 Q -208.02999877929688 -128 -208.02999877929688 672" fill="none" stroke="#0f0f0f" stroke-opacity="0.2" stroke-miterlimit="10" pointer-events="none"/></g><g id="cell-dfkppuf87gNgCVtLxSrG-58" layer="Grid"><path d="M 335.9700012207031 -128 Q 335.9700012207031 -128 335.9700012207031 672" fill="none" stroke="#d8d8d8" stroke-opacity="0.2" stroke-miterlimit="10" pointer-events="none"/></g><g id="cell-dfkppuf87gNgCVtLxSrG-59" layer="Grid"><path d="M 319.9700012207031 -128 Q 319.9700012207031 -128 319.9700012207031 672" fill="none" stroke="#d8d8d8" stroke-opacity="0.2" stroke-miterlimit="10" pointer-events="none"/></g><g id="cell-dfkppuf87gNgCVtLxSrG-60" layer="Grid"><path d="M 303.9700012207031 -128 Q 303.9700012207031 -128 303.9700012207031 672" fill="none" stroke="#d8d8d8" stroke-opacity="0.2" stroke-miterlimit="10" pointer-events="none"/></g><g id="cell-dfkppuf87gNgCVtLxSrG-61" layer="Grid"><path d="M -192.02999877929688 -128 Q -192.02999877929688 -128 -192.02999877929688 672" fill="none" stroke="#d8d8d8" stroke-opacity="0.2" stroke-miterlimit="10" pointer-events="none"/></g><g id="cell-dfkppuf87gNgCVtLxSrG-62" layer="Grid"><path d="M -256.0299987792969 -128 Q -256.0299987792969 -128 -256.0299987792969 672" fill="none" stroke="#d8d8d8" stroke-opacity="0.2" stroke-miterlimit="10" pointer-events="none"/></g><g id="cell-dfkppuf87gNgCVtLxSrG-63" layer="Grid"><path d="M 479.9700012207031 -128 Q 479.9700012207031 -128 479.9700012207031 672" fill="none" stroke="#d8d8d8" stroke-opacity="0.2" stroke-miterlimit="10" pointer-events="none"/></g><g id="cell-dfkppuf87gNgCVtLxSrG-64" layer="Grid"><path d="M 463.9700012207031 -128 Q 463.9700012207031 -128 463.9700012207031 672" fill="none" stroke="#d8d8d8" stroke-opacity="0.2" stroke-miterlimit="10" pointer-events="none"/></g><g id="cell-dfkppuf87gNgCVtLxSrG-65" layer="Grid"><path d="M 447.9700012207031 -128 Q 447.9700012207031 -128 447.9700012207031 672" fill="none" stroke="#d8d8d8" stroke-opacity="0.2" stroke-miterlimit="10" pointer-events="none"/></g><g id="cell-dfkppuf87gNgCVtLxSrG-66" layer="Grid"><path d="M 431.9700012207031 -128 Q 431.9700012207031 -128 431.9700012207031 672" fill="none" stroke="#0f0f0f" stroke-opacity="0.2" stroke-miterlimit="10" pointer-events="none"/></g><g id="cell-dfkppuf87gNgCVtLxSrG-67" layer="Grid"><path d="M 399.9700012207031 -128 Q 399.9700012207031 -128 399.9700012207031 672" fill="none" stroke="#d8d8d8" stroke-opacity="0.2" stroke-miterlimit="10" pointer-events="none"/></g><g id="cell-dfkppuf87gNgCVtLxSrG-68" layer="Grid"><path d="M 383.9700012207031 -128 Q 383.9700012207031 -128 383.9700012207031 672" fill="none" stroke="#d8d8d8" stroke-opacity="0.2" stroke-miterlimit="10" pointer-events="none"/></g><g id="cell-dfkppuf87gNgCVtLxSrG-69" layer="Grid"><path d="M 367.9700012207031 -128 Q 367.9700012207031 -128 367.9700012207031 672" fill="none" stroke="#d8d8d8" stroke-opacity="0.2" stroke-miterlimit="10" pointer-events="none"/></g><g id="cell-dfkppuf87gNgCVtLxSrG-70" layer="Grid"><path d="M 351.9700012207031 -128 Q 351.9700012207031 -128 351.9700012207031 672" fill="none" stroke="#0f0f0f" stroke-opacity="0.2" stroke-miterlimit="10" pointer-events="none"/></g><g id="cell-dfkppuf87gNgCVtLxSrG-71" layer="Grid"><path d="M 415.9700012207031 -128 Q 415.9700012207031 -128 415.9700012207031 672" fill="none" stroke="#d8d8d8" stroke-opacity="0.2" stroke-miterlimit="10" pointer-events="none"/></g><g id="cell-dfkppuf87gNgCVtLxSrG-72" layer="Grid"><path d="M 495.9700012207031 -128 Q 495.9700012207031 -128 495.9700012207031 672" fill="none" stroke="#d8d8d8" stroke-opacity="0.2" stroke-miterlimit="10" pointer-events="none"/></g><g id="cell-dfkppuf87gNgCVtLxSrG-73" layer="Grid"><path d="M -288.0299987792969 -80 Q -288.0299987792969 -80 847.969970703125 -80" fill="none" stroke="#d8d8d8" stroke-opacity="0.2" stroke-miterlimit="10" pointer-events="none"/></g><g id="cell-dfkppuf87gNgCVtLxSrG-74" layer="Grid"><path d="M -288.0299987792969 -48 Q -288.0299987792969 -48 847.969970703125 -48" fill="none" stroke="#7f7f7f" stroke-opacity="0.2" stroke-miterlimit="10" pointer-events="none"/></g><g id="cell-dfkppuf87gNgCVtLxSrG-75" layer="Grid"><path d="M -288.0299987792969 -32 Q -288.0299987792969 -32 847.969970703125 -32" fill="none" stroke="#d8d8d8" stroke-opacity="0.2" stroke-miterlimit="10" pointer-events="none"/></g><g id="cell-dfkppuf87gNgCVtLxSrG-76" layer="Grid"><path d="M -288.0299987792969 -16 Q -288.0299987792969 -16 847.969970703125 -16" fill="none" stroke="#d8d8d8" stroke-opacity="0.2" stroke-miterlimit="10" pointer-events="none"/></g><g id="cell-dfkppuf87gNgCVtLxSrG-77" layer="Grid"><path d="M -288.0299987792969 0 Q -288.0299987792969 0 847.969970703125 0" fill="none" stroke="#d8d8d8" stroke-opacity="0.2" stroke-miterlimit="10" pointer-events="none"/></g><g id="cell-dfkppuf87gNgCVtLxSrG-78" layer="Grid"><path d="M -288.0299987792969 -64 Q -288.0299987792969 -64 847.969970703125 -64" fill="none" stroke="#d8d8d8" stroke-opacity="0.2" stroke-miterlimit="10" pointer-events="none"/></g><g id="cell-dfkppuf87gNgCVtLxSrG-79" layer="Grid"><path d="M -288.0299987792969 16 Q -288.0299987792969 16 847.969970703125 16" fill="none" stroke="#d8d8d8" stroke-opacity="0.2" stroke-miterlimit="10" pointer-events="none"/></g><g id="cell-dfkppuf87gNgCVtLxSrG-80" layer="Grid"><path d="M -288.0299987792969 32 Q -288.0299987792969 32 847.969970703125 32" fill="none" stroke="#7f7f7f" stroke-opacity="0.2" stroke-miterlimit="10" pointer-events="none"/></g><g id="cell-dfkppuf87gNgCVtLxSrG-81" layer="Grid"><path d="M -288.0299987792969 48 Q -288.0299987792969 48 847.969970703125 48" fill="none" stroke="#d8d8d8" stroke-opacity="0.2" stroke-miterlimit="10" pointer-events="none"/></g><g id="cell-dfkppuf87gNgCVtLxSrG-82" layer="Grid"><path d="M -288.0299987792969 64 Q -288.0299987792969 64 847.969970703125 64" fill="none" stroke="#d8d8d8" stroke-opacity="0.2" stroke-miterlimit="10" pointer-events="none"/></g><g id="cell-dfkppuf87gNgCVtLxSrG-83" layer="Grid"><path d="M -288.0299987792969 96 Q -288.0299987792969 96 847.969970703125 96" fill="none" stroke="#d8d8d8" stroke-opacity="0.2" stroke-miterlimit="10" pointer-events="none"/></g><g id="cell-dfkppuf87gNgCVtLxSrG-84" layer="Grid"><path d="M -288.0299987792969 112 Q -288.0299987792969 112 847.969970703125 112" fill="none" stroke="#7f7f7f" stroke-opacity="0.2" stroke-miterlimit="10" pointer-events="none"/></g><g id="cell-dfkppuf87gNgCVtLxSrG-85" layer="Grid"><path d="M -288.0299987792969 128 Q -288.0299987792969 128 847.969970703125 128" fill="none" stroke="#d8d8d8" stroke-opacity="0.2" stroke-miterlimit="10" pointer-events="none"/></g><g id="cell-dfkppuf87gNgCVtLxSrG-86" layer="Grid"><path d="M -288.0299987792969 144 Q -288.0299987792969 144 847.969970703125 144" fill="none" stroke="#d8d8d8" stroke-opacity="0.2" stroke-miterlimit="10" pointer-events="none"/></g><g id="cell-dfkppuf87gNgCVtLxSrG-87" layer="Grid"><path d="M -288.0299987792969 80 Q -288.0299987792969 80 847.969970703125 80" fill="none" stroke="#d8d8d8" stroke-opacity="0.2" stroke-miterlimit="10" pointer-events="none"/></g><g id="cell-dfkppuf87gNgCVtLxSrG-88" layer="Grid"><path d="M -288.0299987792969 160 Q -288.0299987792969 160 847.969970703125 160" fill="none" stroke="#d8d8d8" stroke-opacity="0.2" stroke-miterlimit="10" pointer-events="none"/></g><g id="cell-dfkppuf87gNgCVtLxSrG-89" layer="Grid"><path d="M -288.0299987792969 176 Q -288.0299987792969 176 847.969970703125 176" fill="none" stroke="#d8d8d8" stroke-opacity="0.2" stroke-miterlimit="10" pointer-events="none"/></g><g id="cell-dfkppuf87gNgCVtLxSrG-90" layer="Grid"><path d="M -288.0299987792969 192 Q -288.0299987792969 192 847.969970703125 192" fill="none" stroke="#7f7f7f" stroke-opacity="0.2" stroke-miterlimit="10" pointer-events="none"/></g><g id="cell-dfkppuf87gNgCVtLxSrG-91" layer="Grid"><path d="M -288.0299987792969 208 Q -288.0299987792969 208 847.969970703125 208" fill="none" stroke="#d8d8d8" stroke-opacity="0.2" stroke-miterlimit="10" pointer-events="none"/></g><g id="cell-dfkppuf87gNgCVtLxSrG-92" layer="Grid"><path d="M -288.0299987792969 240 Q -288.0299987792969 240 847.969970703125 240" fill="none" stroke="#d8d8d8" stroke-opacity="0.2" stroke-miterlimit="10" pointer-events="none"/></g><g id="cell-dfkppuf87gNgCVtLxSrG-93" layer="Grid"><path d="M -288.0299987792969 256 Q -288.0299987792969 256 847.969970703125 256" fill="none" stroke="#d8d8d8" stroke-opacity="0.2" stroke-miterlimit="10" pointer-events="none"/></g><g id="cell-dfkppuf87gNgCVtLxSrG-94" layer="Grid"><path d="M -288.0299987792969 272 Q -288.0299987792969 272 847.969970703125 272" fill="none" stroke="#7f7f7f" stroke-opacity="0.2" stroke-miterlimit="10" pointer-events="none"/></g><g id="cell-dfkppuf87gNgCVtLxSrG-95" layer="Grid"><path d="M -288.0299987792969 288 Q -288.0299987792969 288 847.969970703125 288" fill="none" stroke="#d8d8d8" stroke-opacity="0.2" stroke-miterlimit="10" pointer-events="none"/></g><g id="cell-dfkppuf87gNgCVtLxSrG-96" layer="Grid"><path d="M -288.0299987792969 224 Q -288.0299987792969 224 847.969970703125 224" fill="none" stroke="#d8d8d8" stroke-opacity="0.2" stroke-miterlimit="10" pointer-events="none"/></g><g id="cell-dfkppuf87gNgCVtLxSrG-97" layer="Grid"><path d="M -288.0299987792969 304 Q -288.0299987792969 304 847.969970703125 304" fill="none" stroke="#d8d8d8" stroke-opacity="0.2" stroke-miterlimit="10" pointer-events="none"/></g><g id="cell-dfkppuf87gNgCVtLxSrG-98" layer="Grid"><path d="M -288.0299987792969 320 Q -288.0299987792969 320 847.969970703125 320" fill="none" stroke="#d8d8d8" stroke-opacity="0.2" stroke-miterlimit="10" pointer-events="none"/></g><g id="cell-dfkppuf87gNgCVtLxSrG-99" layer="Grid"><path d="M -288.0299987792969 336 Q -288.0299987792969 336 847.969970703125 336" fill="none" stroke="#d8d8d8" stroke-opacity="0.2" stroke-miterlimit="10" pointer-events="none"/></g><g id="cell-dfkppuf87gNgCVtLxSrG-100" layer="Grid"><path d="M -288.0299987792969 352 Q -288.0299987792969 352 847.969970703125 352" fill="none" stroke="#7f7f7f" stroke-opacity="0.2" stroke-miterlimit="10" pointer-events="none"/></g><g id="cell-dfkppuf87gNgCVtLxSrG-101" layer="Grid"><path d="M -288.0299987792969 384 Q -288.0299987792969 384 847.969970703125 384" fill="none" stroke="#d8d8d8" stroke-opacity="0.2" stroke-miterlimit="10" pointer-events="none"/></g><g id="cell-dfkppuf87gNgCVtLxSrG-102" layer="Grid"><path d="M -288.0299987792969 400 Q -288.0299987792969 400 847.969970703125 400" fill="none" stroke="#d8d8d8" stroke-opacity="0.2" stroke-miterlimit="10" pointer-events="none"/></g><g id="cell-dfkppuf87gNgCVtLxSrG-103" layer="Grid"><path d="M -288.0299987792969 416 Q -288.0299987792969 416 847.969970703125 416" fill="none" stroke="#d8d8d8" stroke-opacity="0.2" stroke-miterlimit="10" pointer-events="none"/></g><g id="cell-dfkppuf87gNgCVtLxSrG-104" layer="Grid"><path d="M -288.0299987792969 432 Q -288.0299987792969 432 847.969970703125 432" fill="none" stroke="#7f7f7f" stroke-opacity="0.2" stroke-miterlimit="10" pointer-events="none"/></g><g id="cell-dfkppuf87gNgCVtLxSrG-105" layer="Grid"><path d="M -288.0299987792969 368 Q -288.0299987792969 368 847.969970703125 368" fill="none" stroke="#d8d8d8" stroke-opacity="0.2" stroke-miterlimit="10" pointer-events="none"/></g><g id="cell-dfkppuf87gNgCVtLxSrG-106" layer="Grid"><path d="M -288.0299987792969 448 Q -288.0299987792969 448 847.969970703125 448" fill="none" stroke="#d8d8d8" stroke-opacity="0.2" stroke-miterlimit="10" pointer-events="none"/></g><g id="cell-dfkppuf87gNgCVtLxSrG-107" layer="Grid"><path d="M -288.0299987792969 464 Q -288.0299987792969 464 847.969970703125 464" fill="none" stroke="#d8d8d8" stroke-opacity="0.2" stroke-miterlimit="10" pointer-events="none"/></g><g id="cell-dfkppuf87gNgCVtLxSrG-108" layer="Grid"><path d="M -288.0299987792969 480 Q -288.0299987792969 480 847.969970703125 480" fill="none" stroke="#d8d8d8" stroke-opacity="0.2" stroke-miterlimit="10" pointer-events="none"/></g><g id="cell-dfkppuf87gNgCVtLxSrG-109" layer="Grid"><path d="M -288.0299987792969 496 Q -288.0299987792969 496 847.969970703125 496" fill="none" stroke="#d8d8d8" stroke-opacity="0.2" stroke-miterlimit="10" pointer-events="none"/></g><g id="cell-dfkppuf87gNgCVtLxSrG-110" layer="Grid"><path d="M -288.0299987792969 528 Q -288.0299987792969 528 847.969970703125 528" fill="none" stroke="#d8d8d8" stroke-opacity="0.2" stroke-miterlimit="10" pointer-events="none"/></g><g id="cell-dfkppuf87gNgCVtLxSrG-111" layer="Grid"><path d="M -288.0299987792969 544 Q -288.0299987792969 544 847.969970703125 544" fill="none" stroke="#d8d8d8" stroke-opacity="0.2" stroke-miterlimit="10" pointer-events="none"/></g><g id="cell-dfkppuf87gNgCVtLxSrG-112" layer="Grid"><path d="M -288.0299987792969 560 Q -288.0299987792969 560 847.969970703125 560" fill="none" stroke="#d8d8d8" stroke-opacity="0.2" stroke-miterlimit="10" pointer-events="none"/></g><g id="cell-dfkppuf87gNgCVtLxSrG-113" layer="Grid"><path d="M -288.0299987792969 576 Q -288.0299987792969 576 847.969970703125 576" fill="none" stroke="#d8d8d8" stroke-opacity="0.2" stroke-miterlimit="10" pointer-events="none"/></g><g id="cell-dfkppuf87gNgCVtLxSrG-114" layer="Grid"><path d="M -288.0299987792969 512 Q -288.0299987792969 512 847.969970703125 512" fill="none" stroke="#7f7f7f" stroke-opacity="0.2" stroke-miterlimit="10" pointer-events="none"/></g><g id="cell-dfkppuf87gNgCVtLxSrG-115" layer="Grid"><path d="M -288.0299987792969 592 Q -288.0299987792969 592 847.969970703125 592" fill="none" stroke="#7f7f7f" stroke-opacity="0.2" stroke-miterlimit="10" pointer-events="none"/></g><g id="cell-dfkppuf87gNgCVtLxSrG-116" layer="Grid"><path d="M -288.0299987792969 608 Q -288.0299987792969 608 847.969970703125 608" fill="none" stroke="#d8d8d8" stroke-opacity="0.2" stroke-miterlimit="10" pointer-events="none"/></g><g id="cell-dfkppuf87gNgCVtLxSrG-117" layer="Grid"><path d="M -288.0299987792969 624 Q -288.0299987792969 624 847.969970703125 624" fill="none" stroke="#d8d8d8" stroke-opacity="0.2" stroke-miterlimit="10" pointer-events="none"/></g><g id="cell-dfkppuf87gNgCVtLxSrG-118" layer="Grid"><path d="M -288.0299987792969 640 Q -288.0299987792969 640 847.969970703125 640" fill="none" stroke="#d8d8d8" stroke-opacity="0.2" stroke-miterlimit="10" pointer-events="none"/></g><g id="cell-dfkppuf87gNgCVtLxSrG-119" layer="Grid"><path d="M -288.0299987792969 656 Q -288.0299987792969 656 847.969970703125 656" fill="none" stroke="#d8d8d8" stroke-opacity="0.2" stroke-miterlimit="10" pointer-events="none"/></g><g id="cell-dfkppuf87gNgCVtLxSrG-120" layer="Grid"><path d="M -288.0299987792969 -96 Q -288.0299987792969 -96 847.969970703125 -96" fill="none" stroke="#d8d8d8" stroke-opacity="0.2" stroke-miterlimit="10" pointer-events="none"/></g><g id="cell-dfkppuf87gNgCVtLxSrG-121" layer="Grid"><path d="M -288.0299987792969 -112 Q -288.0299987792969 -112 847.969970703125 -112" fill="none" stroke="#d8d8d8" stroke-opacity="0.2" stroke-miterlimit="10" pointer-events="none"/></g><g id="cell-dfkppuf87gNgCVtLxSrG-122" layer="Grid"><path d="M -288.0299987792969 -128 Q -288.0299987792969 -128 -288.0299987792969 672" fill="none" stroke="#0f0f0f" stroke-opacity="0.2" stroke-miterlimit="10" pointer-events="none"/></g><g id="cell-dfkppuf87gNgCVtLxSrG-123" layer="Grid"><path d="M -288.0299987792969 -128 Q -288.0299987792969 -128 847.969970703125 -128" fill="none" stroke="#7f7f7f" stroke-opacity="0.2" stroke-miterlimit="10" pointer-events="none"/></g><g id="cell-LxGGCtFgPDuxwpYXM28w-0" content="&lt;object label=&quot;Connection&quot; PipingConnector=&quot;Y&quot; LabelConnector=&quot;N&quot; SignalConnector=&quot;N&quot; Direction=&quot;0&quot; AuxiliaryConnector=&quot;N&quot;/&gt;" data-label="Connection" data-PipingConnector="Y" data-LabelConnector="N" data-SignalConnector="N" data-Direction="0" data-AuxiliaryConnector="N" layer="Connection"><path d="M 121.97000122070312 0 C 121.97000122070312 -3.30999755859375 124.66000366210938 -6 127.97000122070312 -6 C 131.27999877929688 -6 133.97000122070312 -3.30999755859375 133.97000122070312 0 C 133.97000122070312 3.30999755859375 131.27999877929688 6 127.97000122070312 6 C 124.66000366210938 6 121.97000122070312 3.30999755859375 121.97000122070312 0" fill="none" stroke="#008000" stroke-miterlimit="10" pointer-events="none"/></g><g id="cell-LxGGCtFgPDuxwpYXM28w-1" content="&lt;object label=&quot;Connection&quot; PipingConnector=&quot;Y&quot; LabelConnector=&quot;N&quot; SignalConnector=&quot;N&quot; Direction=&quot;180&quot; AuxiliaryConnector=&quot;N&quot;/&gt;" data-label="Connection" data-PipingConnector="Y" data-LabelConnector="N" data-SignalConnector="N" data-Direction="180" data-AuxiliaryConnector="N" layer="Connection"><path d="M -134.02999877929688 0 C -134.02999877929688 -3.30999755859375 -131.33999633789062 -6 -128.02999877929688 -6 C -124.72000122070312 -6 -122.02999877929688 -3.30999755859375 -122.02999877929688 0 C -122.02999877929688 3.30999755859375 -124.72000122070312 6 -128.02999877929688 6 C -131.33999633789062 6 -134.02999877929688 3.30999755859375 -134.02999877929688 0" fill="none" stroke="#008000" stroke-miterlimit="10" pointer-events="none"/></g><g id="cell-8oln3En7BdZpSJeIlfM0-21" content="&lt;object label=&quot;origo&quot;/&gt;" data-label="origo" layer="Origo"><path d="M -6 0 C -6 -3.30999755859375 -3.30999755859375 -6 0 -6 C 3.30999755859375 -6 6 -3.30999755859375 6 0 C 6 3.30999755859375 3.30999755859375 6 0 6 C -3.30999755859375 6 -6 3.30999755859375 -6 0" fill="none" stroke="#ff0000" stroke-miterlimit="10" pointer-events="none"/></g><g id="cell-8oln3En7BdZpSJeIlfM0-13" layer="Symbol"><path d="M -112.41999816894531 1.1300048828125 Q -105.02999877929688 -15.739997863769531 -97.52999877929688 -19.23999786376953 Q -90.02999877929688 -22.73999786376953 -83.02999877929688 -19.23999786376953 Q -76.02999877929688 -15.739997863769531 -68.02999877929688 0.2599945068359375" fill="none" stroke="rgb(0, 0, 0)" stroke-miterlimit="10" pointer-events="none"/></g><g id="cell-8oln3En7BdZpSJeIlfM0-18" layer="Symbol"><path d="M -128.01998901367188 32.649993896484375 M -128.01998901367188 -32.760009765625 L -112.63999938964844 -32.760009765625 L -112.63999938964844 32.649993896484375 L -128.01998901367188 32.649993896484375" fill="none" stroke="rgb(0, 0, 0)" stroke-linecap="square" stroke-miterlimit="10" pointer-events="none"/></g><g id="cell-8oln3En7BdZpSJeIlfM0-14" layer="Symbol"><path d="M 67.97000122070312 0 Q 59.970001220703125 15.259994506835938 52.470001220703125 18.759994506835938 Q 44.970001220703125 22.259994506835938 37.970001220703125 19.259994506835938 Q 30.970001220703125 16.259994506835938 21.970001220703125 0" fill="none" stroke="rgb(0, 0, 0)" stroke-miterlimit="10" pointer-events="none"/></g><g id="cell-8oln3En7BdZpSJeIlfM0-15" layer="Symbol"><path d="M 21.970001220703125 0 Q 14.970001220703125 -14.739997863769531 7.470001220703125 -18.73999786376953 Q -0.029998779296875 -22.73999786376953 -7.029998779296875 -19.23999786376953 Q -14.029998779296875 -15.739997863769531 -22.029998779296875 0.2599945068359375" fill="none" stroke="rgb(0, 0, 0)" stroke-miterlimit="10" pointer-events="none"/></g><g id="cell-8oln3En7BdZpSJeIlfM0-17" layer="Symbol"><path d="M 67.97000122070312 0 Q 73.97000122070312 -15.739997863769531 81.97000122070312 -19.73999786376953 Q 89.97000122070312 -23.73999786376953 96.97000122070312 -20.73999786376953 Q 103.97000122070312 -17.73999786376953 112.26998901367188 0.910003662109375" fill="none" stroke="rgb(0, 0, 0)" stroke-miterlimit="10" pointer-events="none"/></g><g id="cell-8oln3En7BdZpSJeIlfM0-20" layer="Symbol"><path d="M 127.36001586914062 31.65001678466797 M 127.36001586914062 -32.129981994628906 L 112.36002349853516 -32.129981994628906 L 112.36002349853516 31.65001678466797 L 127.36001586914062 31.65001678466797" fill="none" stroke="rgb(0, 0, 0)" stroke-linecap="square" stroke-miterlimit="10" pointer-events="none"/></g><g id="cell-olqokFl8gsaJD70p5VRd-3" layer="Symbol"><path d="M -22.029998779296875 0 Q -30.029998779296875 15 -37.529998779296875 18.5 Q -45.029998779296875 22 -52.029998779296875 19 Q -59.029998779296875 16 -68.02999877929688 0" fill="none" stroke="rgb(0, 0, 0)" stroke-miterlimit="10" pointer-events="none"/></g></g></svg>