<?xml version="1.0" encoding="UTF-8" standalone="no"?>
<!DOCTYPE svg PUBLIC "-//W3C//DTD SVG 1.1//EN" "http://www.w3.org/Graphics/SVG/1.1/DTD/svg11.dtd">
<!-- Generated by Microsoft Visio, SVG Export FlowDirection.svg Page-1 -->
<svg xmlns="http://www.w3.org/2000/svg" xmlns:xlink="http://www.w3.org/1999/xlink" xmlns:ev="http://www.w3.org/2001/xml-events"
		width="14.8464in" height="7.92954in" viewBox="0 0 1068.94 570.927" xml:space="preserve" color-interpolation-filters="sRGB"
		class="st18">
	<title>FlowDirection</title>

	<style type="text/css">
	<![CDATA[
		.st1 {fill:#f2f2f2;stroke:#000000;stroke-linecap:round;stroke-linejoin:round;stroke-width:0.75}
		.st2 {fill:#ffffff;stroke:#000000;stroke-linecap:round;stroke-linejoin:round;stroke-width:0.75}
		.st3 {fill:#000000;font-family:Calibri;font-size:1.00001em}
		.st4 {font-size:1em;text-decoration:underline}
		.st5 {marker-end:url(#mrkr12-25);stroke:#000000;stroke-linecap:round;stroke-linejoin:round;stroke-width:0.75}
		.st6 {fill:#000000;fill-opacity:1;stroke:#000000;stroke-opacity:1;stroke-width:0.22935779816514}
		.st7 {fill:#ffffff;stroke:none;stroke-linecap:butt}
		.st8 {fill:#000000;font-family:Calibri;font-size:0.666664em}
		.st9 {fill:#ffffff;stroke:none;stroke-linecap:butt;stroke-width:7.2}
		.st10 {fill:none;stroke:#000000;stroke-linecap:round;stroke-linejoin:round;stroke-width:0.75}
		.st11 {fill:#ffffff;fill-opacity:0}
		.st12 {stroke:#000000;stroke-linecap:round;stroke-linejoin:round;stroke-width:0.75;visibility:hidden}
		.st13 {fill:#000000;font-family:Calibri;font-size:0.833336em}
		.st14 {fill:#ffffff}
		.st15 {stroke:#000000;stroke-dasharray:1.5,0.75;stroke-linecap:butt;stroke-width:0.75}
		.st16 {fill:#ffff00;fill-opacity:0}
		.st17 {fill:#ff0000;font-family:Calibri;font-size:0.833336em}
		.st18 {fill:none;fill-rule:evenodd;font-size:12px;overflow:visible;stroke-linecap:square;stroke-miterlimit:3}
	]]>
	</style>

	<defs id="Markers">
		<g id="lend12">
			<path d="M 3 1 L 0 0 L 3 -1 " style="stroke-linecap:round;stroke-linejoin:round;fill:none"/>
		</g>
		<marker id="mrkr12-25" class="st6" orient="auto" markerUnits="strokeWidth" overflow="visible">
			<use xlink:href="#lend12" transform="scale(-4.36,-4.36) "/>
		</marker>
	</defs>
	<g>
		<title>Page-1</title>
		<g id="group1000-1" transform="translate(554.903,-530.644)">
			<title>Class</title>
			<desc>:DexpiModel</desc>
			<g id="shape1001-2">
				<title>Sheet.1001</title>
				<path d="M0 570.93 L184.25 570.93 L184.25 562.42 L0 562.42 L0 570.93 Z" class="st1"/>
			</g>
			<g id="shape1002-4" transform="translate(0,-8.50394)">
				<title>Sheet.1002</title>
				<path d="M0 570.93 L184.25 570.93 L184.25 539.52 L0 539.52 L0 570.93 Z" class="st2"/>
			</g>
			<g id="shape1004-6" transform="translate(175.748,-39.9076)">
				<title>Sheet.1004</title>
				<desc>parameter</desc>
			</g>
			<g id="shape1000-7">
				<text x="4" y="550.32" class="st3"><tspan class="st4">:DexpiModel</tspan></text>			</g>
		</g>
		<g id="group1005-10" transform="translate(0.375,-427.285)">
			<title>Class.9</title>
			<desc>:ConceptualModel</desc>
			<g id="shape1006-11">
				<title>Sheet.1006</title>
				<path d="M0 570.93 L184.25 570.93 L184.25 562.42 L0 562.42 L0 570.93 Z" class="st1"/>
			</g>
			<g id="shape1007-13" transform="translate(0,-8.50394)">
				<title>Sheet.1007</title>
				<path d="M0 570.93 L184.25 570.93 L184.25 539.52 L0 539.52 L0 570.93 Z" class="st2"/>
			</g>
			<g id="shape1009-15" transform="translate(175.748,-39.9076)">
				<title>Sheet.1009</title>
				<desc>parameter</desc>
			</g>
			<g id="shape1005-16">
				<text x="4" y="550.32" class="st3"><tspan class="st4">:ConceptualModel</tspan></text>			</g>
		</g>
		<g id="group1020-19" transform="translate(85.4144,-427.285)">
			<title>Directed Association</title>
			<desc>PipingNetworkSystems</desc>
			<g id="shape1020-20">
				<path d="M7.09 570.93 L7.09 610.49" class="st5"/>
				<rect x="-69.5574" y="584.161" width="74.7686" height="9.59985" class="st7"/>
				<text x="-69.56" y="591.36" class="st8">PipingNetworkSystems</text>			</g>
		</g>
		<g id="group1030-28" transform="translate(554.903,-409.291)">
			<title>Class.42</title>
			<desc>:Diagram</desc>
			<g id="shape1031-29">
				<title>Sheet.1031</title>
				<path d="M0 570.93 L184.25 570.93 L184.25 526.42 L0 526.42 L0 570.93 Z" class="st1"/>
			</g>
			<g id="shape1032-31" transform="translate(0,-44.5039)">
				<title>Sheet.1032</title>
				<path d="M0 570.93 L184.25 570.93 L184.25 539.52 L0 539.52 L0 570.93 Z" class="st2"/>
			</g>
			<g id="shape1034-33" transform="translate(175.748,-75.9076)">
				<title>Sheet.1034</title>
				<desc>parameter</desc>
			</g>
			<g id="shape1030-34">
				<text x="4" y="514.32" class="st3"><tspan class="st4">:Diagram</tspan></text>			</g>
		</g>
		<g id="group1040-37" transform="translate(845.15,-274.32)">
			<title>Class.68</title>
			<desc>:ShapeCatalogue</desc>
			<g id="shape1041-38">
				<title>Sheet.1041</title>
				<path d="M0 570.93 L184.25 570.93 L184.25 547.26 L0 547.26 L0 570.93 Z" class="st1"/>
			</g>
			<g id="shape1042-40" transform="translate(0,-23.6693)">
				<title>Sheet.1042</title>
				<path d="M0 570.93 L184.25 570.93 L184.25 539.52 L0 539.52 L0 570.93 Z" class="st2"/>
			</g>
			<g id="shape1044-42" transform="translate(175.748,-55.073)">
				<title>Sheet.1044</title>
				<desc>parameter</desc>
			</g>
			<g id="shape1040-43">
				<text x="4" y="535.16" class="st3"><tspan class="st4">:ShapeCatalogue</tspan></text>			</g>
		</g>
		<g id="group1065-46" transform="translate(639.942,-409.291)">
			<title>Directed Association.113</title>
			<desc>Groups</desc>
			<g id="shape1065-47">
				<path d="M7.09 570.93 L7.09 592.19" class="st5"/>
				<rect x="-25.9681" y="576.967" width="23.5898" height="9.59985" class="st9"/>
				<text x="-25.97" y="584.17" class="st8">Groups</text>			</g>
		</g>
		<g id="group1085-54" transform="translate(639.942,-530.644)">
			<title>Directed Association.133</title>
			<desc>Diagram</desc>
			<g id="shape1085-55">
				<path d="M7.09 570.93 L7.09 616.37" class="st5"/>
				<rect x="-27.8566" y="589.299" width="27.3669" height="9.59985" class="st9"/>
				<text x="-27.86" y="596.5" class="st8">Diagram</text>			</g>
		</g>
		<g id="group1090-62" transform="translate(554.903,-550.598)">
			<title>Directed Association.138</title>
			<desc>ConceptualModel</desc>
			<g id="shape1090-63">
				<path d="M0 570.93 L-462.4 570.93 L-462.4 654.33" class="st5"/>
				<rect x="-303.571" y="580.615" width="57.882" height="9.59985" class="st9"/>
				<text x="-303.57" y="587.81" class="st8">ConceptualModel</text>			</g>
		</g>
		<g id="group1095-70" transform="translate(739.155,-550.598)">
			<title>Directed Association.143</title>
			<desc>ShapeCatalogues</desc>
			<g id="shape1095-71">
				<path d="M0 570.93 L198.12 570.93 L198.12 792.13" class="st5"/>
				<rect x="114.449" y="579.622" width="55.6361" height="9.59985" class="st9"/>
				<text x="114.45" y="586.82" class="st8">ShapeCatalogues</text>			</g>
		</g>
		<g id="group1201-78" transform="translate(554.903,-454.328)">
			<title>Directed Association.1201</title>
			<desc>Represents</desc>
			<g id="shape1201-79">
				<path d="M0 578.01 L-370.28 578.02" class="st5"/>
				<rect x="-203.346" y="573.214" width="36.4175" height="9.59985" class="st9"/>
				<text x="-203.35" y="580.41" class="st8">Represents</text>			</g>
		</g>
		<g id="group1206-86" transform="translate(554.903,-174.572)">
			<title>Class.1206</title>
			<desc>:PipeFlowArrow</desc>
			<g id="shape1207-87">
				<title>Sheet.1207</title>
				<path d="M0 570.93 L184.25 570.93 L184.25 562.42 L0 562.42 L0 570.93 Z" class="st10"/>
			</g>
			<g id="shape1208-89" transform="translate(0,-8.50394)">
				<title>Sheet.1208</title>
				<path d="M0 570.93 L184.25 570.93 L184.25 539.52 L0 539.52 L0 570.93 Z" class="st10"/>
			</g>
			<g id="shape1210-91" transform="translate(175.748,-39.9076)">
				<title>Sheet.1210</title>
				<desc>parameter</desc>
			</g>
			<g id="shape1206-92">
				<text x="4" y="550.32" class="st3"><tspan class="st4">:PipeFlowArrow</tspan></text>			</g>
		</g>
		<g id="group1219-95" transform="translate(845.15,-156.62)">
			<title>Class.1219</title>
			<desc>:PipeFlowArrowShape</desc>
			<g id="shape1220-96">
				<title>Sheet.1220</title>
				<path d="M0 570.93 L184.25 570.93 L184.25 526.42 L0 526.42 L0 570.93 Z" class="st1"/>
			</g>
			<g id="shape1221-98" transform="translate(0,-44.5039)">
				<title>Sheet.1221</title>
				<path d="M0 570.93 L184.25 570.93 L184.25 539.52 L0 539.52 L0 570.93 Z" class="st2"/>
			</g>
			<g id="shape1223-100" transform="translate(175.748,-75.9076)">
				<title>Sheet.1223</title>
				<desc>parameter</desc>
			</g>
			<g id="shape1219-101">
				<text x="4" y="514.32" class="st3"><tspan class="st4">:PipeFlowArrowShape</tspan></text>			</g>
		</g>
		<g id="group1227-104" transform="translate(1022.32,-320.214)">
			<title>Directed Association.1227</title>
			<desc>Shapes</desc>
			<g id="shape1227-105">
				<path d="M7.09 570.93 L36.28 570.93 L36.28 696.57 L7.09 696.57" class="st5"/>
				<rect x="-5.84239" y="630.17" width="23.0232" height="9.59985" class="st9"/>
				<text x="-5.84" y="637.37" class="st8">Shapes</text>			</g>
		</g>
		<g id="group1264-112" transform="translate(639.942,-261.133)">
			<title>Directed Association.1264</title>
			<desc>Groups</desc>
			<g id="shape1264-113">
				<path d="M7.09 570.93 L7.09 617.58" class="st5"/>
				<rect x="-31.6374" y="596.551" width="23.5898" height="9.59985" class="st9"/>
				<text x="-31.64" y="603.75" class="st8">Groups</text>			</g>
		</g>
		<g id="group1269-120" transform="translate(639.942,-174.572)">
			<title>Directed Association.1269</title>
			<desc>Elements</desc>
			<g id="shape1269-121">
				<path d="M7.09 570.93 L7.09 606.71" class="st5"/>
				<rect x="-34.8948" y="586.917" width="30.1047" height="9.59985" class="st9"/>
				<text x="-34.89" y="594.12" class="st8">Elements</text>			</g>
		</g>
		<g id="group1329-128" transform="translate(739.155,-187.463)">
			<title>Directed Association.1329</title>
			<desc>Shape</desc>
			<g id="shape1329-129">
				<path d="M0 563.86 L106 563.82" class="st5"/>
				<rect x="58.8294" y="572.789" width="19.8943" height="9.59985" class="st9"/>
				<text x="58.83" y="579.99" class="st8">Shape</text>			</g>
		</g>
		<g id="group1355-136" transform="translate(554.903,-0.375)">
			<title>Class.1355</title>
			<desc>:ShapeUsage</desc>
			<g id="shape1356-137">
				<title>Sheet.1356</title>
				<path d="M0 570.93 L184.25 570.93 L184.25 463.92 L0 463.92 L0 570.93 Z" class="st1"/>
			</g>
			<g id="shape1357-139" transform="translate(0,-107.008)">
				<title>Sheet.1357</title>
				<path d="M0 570.93 L184.25 570.93 L184.25 539.52 L0 539.52 L0 570.93 Z" class="st2"/>
			</g>
			<g id="shape1359-141" transform="translate(175.748,-138.412)">
				<title>Sheet.1359</title>
				<desc>parameter</desc>
			</g>
			<g id="shape1355-142">
				<text x="4" y="451.82" class="st3"><tspan class="st4">:ShapeUsage</tspan></text>			</g>
		</g>
		<g id="group1369-145" transform="translate(0.375,-347.81)">
			<title>Class.1369</title>
			<desc>:PipingNetworkSystem</desc>
			<g id="shape1370-146">
				<title>Sheet.1370</title>
				<path d="M0 570.93 L184.25 570.93 L184.25 562.42 L0 562.42 L0 570.93 Z" class="st1"/>
			</g>
			<g id="shape1371-148" transform="translate(0,-8.50394)">
				<title>Sheet.1371</title>
				<path d="M0 570.93 L184.25 570.93 L184.25 539.52 L0 539.52 L0 570.93 Z" class="st2"/>
			</g>
			<g id="shape1373-150" transform="translate(175.748,-39.9076)">
				<title>Sheet.1373</title>
				<desc>parameter</desc>
			</g>
			<g id="shape1369-151">
				<text x="4" y="550.32" class="st3"><tspan class="st4">:PipingNetworkSystem</tspan></text>			</g>
		</g>
		<g id="group1377-154" transform="translate(85.4144,-347.81)">
			<title>Directed Association.1377</title>
			<desc>Segments</desc>
			<g id="shape1377-155">
				<path d="M7.09 570.93 L7.09 617.79" class="st5"/>
				<rect x="-48.0751" y="587.486" width="31.804" height="9.59985" class="st9"/>
				<text x="-48.08" y="594.69" class="st8">Segments</text>			</g>
		</g>
		<g id="group1382-162" transform="translate(0.375,-261.039)">
			<title>Class.1382</title>
			<desc>:PipingNetworkSegment</desc>
			<g id="shape1383-163">
				<title>Sheet.1383</title>
				<path d="M0 570.93 L184.25 570.93 L184.25 562.42 L0 562.42 L0 570.93 Z" class="st1"/>
			</g>
			<g id="shape1384-165" transform="translate(0,-8.50394)">
				<title>Sheet.1384</title>
				<path d="M0 570.93 L184.25 570.93 L184.25 539.52 L0 539.52 L0 570.93 Z" class="st2"/>
			</g>
			<g id="shape1386-167" transform="translate(175.748,-39.9076)">
				<title>Sheet.1386</title>
				<desc>parameter</desc>
			</g>
			<g id="shape1382-168">
				<text x="4" y="550.32" class="st3"><tspan class="st4">:PipingNetworkSegment</tspan></text>			</g>
		</g>
		<g id="group1395-171" transform="translate(554.903,-261.133)">
			<title>Class.1395</title>
			<desc>:RepresentationGroup</desc>
			<g id="shape1396-172">
				<title>Sheet.1396</title>
				<path d="M0 570.93 L184.25 570.93 L184.25 562.42 L0 562.42 L0 570.93 Z" class="st1"/>
			</g>
			<g id="shape1397-174" transform="translate(0,-8.50394)">
				<title>Sheet.1397</title>
				<path d="M0 570.93 L184.25 570.93 L184.25 539.52 L0 539.52 L0 570.93 Z" class="st2"/>
			</g>
			<g id="shape1399-176" transform="translate(175.748,-39.9076)">
				<title>Sheet.1399</title>
				<desc>parameter</desc>
			</g>
			<g id="shape1395-177">
				<text x="4" y="550.32" class="st3"><tspan class="st4">:RepresentationGroup</tspan></text>			</g>
		</g>
		<g id="group1405-180" transform="translate(554.903,-288.127)">
			<title>Directed Association.1405</title>
			<desc>Represents</desc>
			<g id="shape1405-181">
				<path d="M0 577.97 L-370.28 578.06" class="st5"/>
				<rect x="-203.346" y="573.214" width="36.4175" height="9.59985" class="st7"/>
				<text x="-203.35" y="580.41" class="st8">Represents</text>			</g>
		</g>
		<g id="group1410-188" transform="translate(554.903,-348.124)">
			<title>Class.1410</title>
			<desc>:RepresentationGroup</desc>
			<g id="shape1411-189">
				<title>Sheet.1411</title>
				<path d="M0 570.93 L184.25 570.93 L184.25 562.42 L0 562.42 L0 570.93 Z" class="st1"/>
			</g>
			<g id="shape1412-191" transform="translate(0,-8.50394)">
				<title>Sheet.1412</title>
				<path d="M0 570.93 L184.25 570.93 L184.25 539.52 L0 539.52 L0 570.93 Z" class="st2"/>
			</g>
			<g id="shape1414-193" transform="translate(175.748,-39.9076)">
				<title>Sheet.1414</title>
				<desc>parameter</desc>
			</g>
			<g id="shape1410-194">
				<text x="4" y="550.32" class="st3"><tspan class="st4">:RepresentationGroup</tspan></text>			</g>
		</g>
		<g id="group1415-197" transform="translate(654.115,-348.124)">
			<title>Directed Association.1415</title>
			<desc>Groups</desc>
			<g id="shape1415-198">
				<path d="M-7.09 570.93 L-7.09 618.01" class="st5"/>
				<rect x="-40.1413" y="590.134" width="23.5898" height="9.59985" class="st9"/>
				<text x="-40.14" y="597.33" class="st8">Groups</text>			</g>
		</g>
		<g id="group1420-205" transform="translate(554.903,-375.007)">
			<title>Directed Association.1420</title>
			<desc>Represents</desc>
			<g id="shape1420-206">
				<path d="M0 577.86 L-370.28 578.17" class="st5"/>
				<rect x="-203.346" y="573.214" width="36.4175" height="9.59985" class="st9"/>
				<text x="-203.35" y="580.41" class="st8">Represents</text>			</g>
		</g>
		<g id="shape1131-213" transform="translate(557.737,-432.961)">
			<title>Member.47</title>
			<desc>MaxX = 0.04</desc>
			<rect x="0" y="552.927" width="178.583" height="18" class="st11"/>
			<rect x="0" y="552.927" width="178.583" height="18" class="st12"/>
			<text x="8.5" y="564.93" class="st13">MaxX = 0.04</text>		</g>
		<g id="shape1132-217" transform="translate(557.737,-430.126)">
			<title>Separator.48</title>
			<path d="M0 569.51 L178.58 569.51 L0 569.51 Z" class="st14"/>
			<path d="M0 569.51 L178.58 569.51" class="st15"/>
		</g>
		<g id="shape1133-220" transform="translate(557.737,-412.126)">
			<title>Member.49</title>
			<desc>MaxY = 0.04</desc>
			<rect x="0" y="552.927" width="178.583" height="18" class="st11"/>
			<rect x="0" y="552.927" width="178.583" height="18" class="st12"/>
			<text x="8.5" y="564.93" class="st13">MaxY = 0.04</text>		</g>
		<g id="shape1135-224" transform="translate(847.985,-277.155)">
			<title>Member.73</title>
			<desc>Name = &#34;Shapes&#34;</desc>
			<rect x="0" y="552.927" width="178.583" height="18" class="st11"/>
			<rect x="0" y="552.927" width="178.583" height="18" class="st12"/>
			<text x="8.5" y="564.93" class="st13">Name = &#34;Shapes&#34;</text>		</g>
		<g id="shape1154-228" transform="translate(557.737,-533.479)">
			<title>Separator.1154</title>
			<path d="M0 569.51 L178.58 569.51 L0 569.51 Z" class="st14"/>
			<path d="M0 569.51 L178.58 569.51" class="st15"/>
		</g>
		<g id="shape1224-231" transform="translate(847.985,-159.455)">
			<title>Member.1224</title>
			<desc>SymbolRegistrationNumber = &#34;STPL008&#34;</desc>
			<rect x="0" y="552.927" width="178.583" height="18" class="st11"/>
			<rect x="0" y="552.927" width="178.583" height="18" class="st12"/>
			<text x="8.5" y="564.93" class="st13">SymbolRegistrationNumber = &#34;STPL008&#34;</text>		</g>
		<g id="shape1225-235" transform="translate(847.985,-177.455)">
			<title>Separator.1225</title>
			<path d="M0 569.51 L178.58 569.51 L0 569.51 Z" class="st14"/>
			<path d="M0 569.51 L178.58 569.51" class="st15"/>
		</g>
		<g id="shape1226-238" transform="translate(847.985,-180.289)">
			<title>Member.1226</title>
			<desc>Name = &#34;PIPELINE_SLOPE_SHAPE1&#34;</desc>
			<rect x="0" y="552.927" width="178.583" height="18" class="st11"/>
			<rect x="0" y="552.927" width="178.583" height="18" class="st12"/>
			<text x="8.5" y="564.93" class="st13">Name = &#34;PIPELINE_SLOPE_SHAPE1&#34;</text>		</g>
		<g id="shape1360-242" transform="translate(557.737,-86.5482)">
			<title>Member.1360</title>
			<desc>IsMirrored:false</desc>
			<rect x="0" y="552.927" width="178.583" height="18" class="st16"/>
			<rect x="0" y="552.927" width="178.583" height="18" class="st12"/>
			<text x="8.5" y="564.93" class="st17">IsMirrored:false</text>		</g>
		<g id="shape1361-246" transform="translate(557.737,-83.7136)">
			<title>Separator.1361</title>
			<path d="M0 569.51 L178.58 569.51 L0 569.51 Z" class="st14"/>
			<path d="M0 569.51 L178.58 569.51" class="st15"/>
		</g>
		<g id="shape1362-249" transform="translate(557.737,-44.8789)">
			<title>Member.1362</title>
			<desc>Rotation = 0.0</desc>
			<rect x="0" y="552.927" width="178.583" height="18" class="st16"/>
			<rect x="0" y="552.927" width="178.583" height="18" class="st12"/>
			<text x="8.5" y="564.93" class="st17">Rotation = 0.0</text>		</g>
		<g id="shape1363-253" transform="translate(557.737,-24.0443)">
			<title>Member.1363</title>
			<desc>ScaleX = 1.0</desc>
			<rect x="0" y="552.927" width="178.583" height="18" class="st11"/>
			<rect x="0" y="552.927" width="178.583" height="18" class="st12"/>
			<text x="8.5" y="564.93" class="st13">ScaleX = 1.0</text>		</g>
		<g id="shape1364-257" transform="translate(557.737,-3.20965)">
			<title>Member.1364</title>
			<desc>ScaleY = 1.0</desc>
			<rect x="0" y="552.927" width="178.583" height="18" class="st11"/>
			<rect x="0" y="552.927" width="178.583" height="18" class="st12"/>
			<text x="8.5" y="564.93" class="st13">ScaleY = 1.0</text>		</g>
		<g id="shape1365-261" transform="translate(557.737,-21.2096)">
			<title>Separator.1365</title>
			<path d="M0 569.51 L178.58 569.51 L0 569.51 Z" class="st14"/>
			<path d="M0 569.51 L178.58 569.51" class="st15"/>
		</g>
		<g id="shape1366-264" transform="translate(557.737,-42.0443)">
			<title>Separator.1366</title>
			<path d="M0 569.51 L178.58 569.51 L0 569.51 Z" class="st14"/>
			<path d="M0 569.51 L178.58 569.51" class="st15"/>
		</g>
		<g id="shape1367-267" transform="translate(557.737,-65.7136)">
			<title>Member.1367</title>
			<desc>Position = {X=0.02, Y=0.04}</desc>
			<rect x="0" y="552.927" width="178.583" height="18" class="st11"/>
			<rect x="0" y="552.927" width="178.583" height="18" class="st12"/>
			<text x="8.5" y="564.93" class="st13">Position = {X=0.02, Y=0.04}</text>		</g>
		<g id="shape1368-271" transform="translate(557.737,-62.8789)">
			<title>Separator.1368</title>
			<path d="M0 569.51 L178.58 569.51 L0 569.51 Z" class="st14"/>
			<path d="M0 569.51 L178.58 569.51" class="st15"/>
		</g>
	</g>
</svg>
